<svg height="30" viewBox="0 0 70 30" width="70" xmlns="http://www.w3.org/2000/svg"><g fill="#191c4f"><path d="m16.9 21.5c0 .1 0 .2-.1.3-.1.2-.2.3-.4.4s-3.7 1.4-3.8 1.4c-.3.2-.3.1-.2 0q0-.1 0-.3c.1-.2.2-.2.4-.4.2-.1 3.7-1.4 3.9-1.5.3-.2.3 0 .2.1z"/><path d="m26.2 21s-.1.3-.1.5c-.4.9-.2 1.4-.2 1.5.3.4.7.2.8-.2.1-.1.1 0 .1 0q0 .1-.1.3c-.1.6-.4.7-.6.7-.3 0-.5-.4-.5-.7-.1-1 .4-1.9.5-2.1.1-.3.2-.2.1 0z"/><path d="m64 20.5v.5c0 .3-.1.6-.2.9-.1.4-.8.5-1.3.2-.8 1.2-1.5.6-1.9.4-.7-.2-.9.2-1.1.4-.8 1-2.4 1-2.8 1s-.1-.2.1-.3c1.2-.4 2-.5 3.2-1.5.5-.6.8-.3 1-.2 1 .4 1.2 0 1.3-.2.1-.1.3-.7.4-.8.1-.2.2-.1.1.1 0 .1 0 .3-.1.4.5.3.9 0 1 0 0 0 0-.4 0-.5q0-.2.1-.6c.1-.2.2 0 .2.2z"/><path d="m20.6 17.1c0 .1 0 .1-.1.3s-.2.2-.4.3c-.2.2-2.8 1.3-2.9 1.3-.3.2-.3.1-.2 0q0-.1 0-.3c.1-.2.2-.2.4-.4.2-.1 2.8-1.2 3-1.3.3-.2.3 0 .2.1z"/><path d="m23.4 14.8s0 .3-.1.4c-.3 1-.2 1.4-.1 1.5.2.5.6.3.7-.1.1-.2.2-.1.1 0q0 .1 0 .3c-.2.6-.4.7-.6.7-.4 0-.5-.5-.6-.7 0-1.1.4-1.9.5-2.2.1-.2.2-.1.1.1z"/><path d="m21 14.1c.1.8-.1 1.8-.3 2.1-.1.4-.2.1-.2-.2.2-1 0-1.2-.2-1.4-.1-.1-.4.1-.6.3-1.7 1.6-2.9 1.4-3.1 1.4 0 0 .3 1-.4 2.4-.9 1.7-5.1 3.7-5.9 4 0 0-4.5.8-4.9.8-.5.1-.5-.1-.1-.2 5.6-1.6 8.2-3.6 9.7-4.7s1.2-1.4 1.1-1.8c0-.4-.6-1.7-.8-2 0 0 .1-.6.2-.9s.2 0 .3.1c.5 1.1 1.6 1 2 .9.5-.1 2.3-1.5 2.4-1.5.6-.4.8.6.8.7z"/><path d="m44.3 19c-.3 1.1-1.8 1.6-2.1 1.7-1.4.5-1.5-.9-1.4-1.8.1-1 .8-2.2.8-2.2-.1-.1-1.5-1.2-1.6-1.3s-.2-.2-.3-.3c-.2-.1-.1-.2-.1-.2s0-1 0-1.1 0-.1.2 0c.1 0 1.6.6 1.7.7.2.1.1.2.1.3-.1 0-.6.1-.6.1l1.2.9s1.7-2.3 1.9-2.5.2-.1.1.2c0 .2-.3 1.1-.4 1.3-.1.1-1 1.4-1 1.4s1.2.7 1.4 1.1c.5.7.2 1.3.1 1.7zm-2.2-2s-.7 1.3-.8 1.6c-.4.8.4.9.7.9s1.3-.6 1.8-1-1.4-1.3-1.7-1.5z" fill-rule="evenodd"/><path d="m65.6 17.8c-.1.2-.4 1.2-1.8.9-.3 0-1-.2-1.3-1-.4.5-1.2 1.8-2.8 1.6-.4-.1-1.5-.5-1.5-1.9 0 0-1.3 1-2 1.4.1.5.1 1.1-.2 1.7-.2.6-3.1 3.9-5.4 4.4-.8.1-3.7.7-3.8-2.6-.1-.7 0-1.2 0-1.6-1.8 1.4-4 2.5-4.6 2.8-1 .5-4.4 1-5 1.1-.4.1-.4 0-.2-.1.2-.2 7.8-2.7 11.7-6.8q.1-.2-.1-.5c-.1-.2-1.3-2.6-1.4-2.9s-.3-.7-.4-.8q0-.1 0-.3c0-.2.1-.8.2-.9 0-.2.1-.1.2 0 0 .1 1.3 1.3 1.4 1.5s0 .2 0 .2c-.1 0-.7 0-.7 0s.8 1.4 1.1 1.9c.5 1.1.2 2 0 2.4-.3.7-1 1.4-1.7 2-.2.6-.4 3.3 2.1 3.4.4 0 1.7.2 4.3-1.9.6-.5 1.2-1.1 1.8-1.9.2-.3.4-.8 0-.8-.5.1-3.1 1-3.5-.6-.1-.4.1-4.2 2.7-2.3.3.1.8.6 1.2 1.3.4-.1 1.2-.6 2.2-1.4.3-.3.6-.4.6 0 0 .3-.2 2.5 2.2 1.9.2-.1 1.2-.3 2-2.2.2-.4.4-.4.3 0-.2.5-.4.9-.2 1.1s.9.7 1.7.6c.3 0 .5-.2.4-.4-.1-.3-.4-.7-.4-.7.1-.3.2-.8.2-1 .1-.1.1-.2.2-.1s.9 1.1.5 2.5zm-10.9.1c-.8-1.1-1.8-.5-1.9-.4-.1.2-.2.5.6.5 1 .1 1.3-.1 1.3-.1z" fill-rule="evenodd"/><path d="m11.8 12.4s-.1.5-.2.8c-.4 1.6-.1 2.3 0 2.4.4.8.9.4 1.1-.2 0-.3.1-.2.1-.1q0 .2 0 .5c-.2 1-.6 1.2-.8 1.2-.5 0-.8-.7-.9-1.1-.1-1.7.4-3.1.5-3.6.1-.4.3-.2.2.1z"/><path d="m13.3 6.2s0 .3-.1.6c-.3 1.2-.1 1.7 0 1.8.3.6.7.3.8-.2 0-.2.1-.1.1 0q0 .1 0 .4c-.2.7-.4.9-.6.9-.4 0-.6-.6-.7-.9-.1-1.2.3-2.3.4-2.7.1-.3.2-.2.1.1z"/><path d="m7.3 14.7s-.1.5-.2.8c-.4 1.8-.1 2.5 0 2.7.5.8 1 .4 1.2-.3 0-.3.1-.2.1 0q0 .1 0 .5c-.3 1.1-.6 1.3-.9 1.4-.6 0-.9-.9-.9-1.3-.2-1.8.4-3.5.5-3.9.1-.5.3-.3.2.1z"/><path d="m42.9 10.9 1 .8q.1 0 .1.1l-.7.8q0 .1-.1.1l-1-.8-.5.7q-.1.1-.1.1l-1.1-.8q0-.1 0-.1l.6-.9q.1 0 .1 0l1.1.8.5-.8q0 0 .1 0z"/><path d="m62.8 11s0 .2-.1.4c-.3 1-.2 1.4-.1 1.5.2.5.6.2.7-.1.1-.2.1-.1.1 0q0 0 0 .2c-.2.6-.4.7-.6.7-.4 0-.5-.4-.5-.7-.1-1 .3-1.8.4-2.1.1-.2.2-.1.1.1z"/><path d="m20.2 10.7 1 .8q.1 0 0 .1l-.6.8q0 .1-.1 0l-1-.7-.5.7q-.1.1-.1 0l-1.1-.7q0-.1 0-.1l.6-.9q.1 0 .1 0l1 .8.6-.8q0 0 .1 0z"/><path d="m31.3 13.6c-.1.2-.1.1-.2 0s-.4-.4-.4-.4-.6 1.4-1.5 2.3c-1 .9-1.8 1.2-1.8 1.2-.1.1-.2 0 0-.2.7-.5 2.1-1.9 2.9-3.4 0 0-.4-.1-.7-.3s-.2-1 0-1.3c.5-.8.9-.4 1-.3.5.7.3 1.5.3 1.5.3.2.5.4.4.9zm-1-1.9c-.1-.1-.2-.1-.5.3-.1.1 0 .2.2.3s.6.2.6.2c0-.1 0-.5-.3-.8z" fill-rule="evenodd"/><path d="m52.2 10.4s-.1.3-.1.5c-.4 1-.2 1.5-.1 1.6.2.5.6.2.8-.1 0-.2.1-.1.1-.1q-.1.1-.1.4c-.2.6-.4.7-.6.7-.4 0-.6-.5-.6-.7-.1-1.1.4-2.1.5-2.3.1-.3.2-.2.1 0z"/><path d="m19.1 8.7 1.1.8q0 0 0 .1l-.6.8q-.1.1-.1.1l-1.1-.8q0-.1 0-.1l.6-.9q.1 0 .1 0z"/><path d="m24.5 7.5s.1.5.3.7c.1.3.2.5.2.9-.1.4-.3.7-.5.8-.2 0-.6 0-.9-.4-.3.7-.8.8-1.1.7-.3-.2-.3-.7-.3-.9 0-.1 0-.7 0-.8s0-.2.1-.3c.1-.2.1-.1.1.1 0 .1-.1.9.1 1.1.3.4.9.1 1-.2.1-.2-.2-1-.2-1q0-.1 0-.1s0-.3.1-.4q0-.2.1 0c.1.1.1.3.2 1s.8.6.9.5c.2 0 .2-.1.1-.2 0-.1-.3-.7-.4-.9-.1-.3 0-.5.1-.7 0-.2.1 0 .1.1z"/><path d="m29 6.5s0 .2-.1.4c-.3 1-.1 1.5-.1 1.6.2.5.6.2.7-.2.1-.1.1 0 .1 0q0 .1-.1.3c-.1.6-.3.8-.5.8-.4 0-.5-.5-.5-.8-.1-1 .3-1.9.4-2.2s.2-.2.1.1z"/><path d="m10 7.1c.1.2.1.6 0 .9-.1.2-.2 0-.4-.1 0 0-.1-.1-.3-.2-.6-.5-.7.5-.7.9-.1.4 0 1.4-.1 2.1q0 0 0 0c0 .6-.2 1.2-1 1.9-1 .8-1.1.8-1.2.8-.1.1-.2 0 0-.2.1 0 2.1-1.9 1.8-2.7-.3-1-1.2-1.7-1.3-1.8s-.2.1-.2.2-.1.1-.2.1c0-.1-.5-.3-.6-.5-.2-.1-.2-.6-.2-.8 0-.4.2-.5.3-.5 1.6.8 2.2 2.3 2.3 2.5 0-1.1 0-2.1.5-2.9.5-.7 1.2.2 1.3.3z"/><path d="m37 21.1c-.3.8-1.3 1-2.2.2q-.5-.5-.8-1c-.7.4-1.4.9-1.7 1-2.3 1.2-3.7.6-3.9.5-2-.7-2.4-2.8-2.5-3.1 0 0-.1.3-.2.7s-.8 1.2-1.2 1.5c-2.6 2.4-4.5 2.5-5 2.4-2-.5-1.4-3.7-1-4.5.3-.6.5-.4.4-.2-.9 2.3.3 3.4.8 3.5 1 .2 2.8-1 3.4-1.4 1-.7 2.3-2.1 2.4-2.3.2-.2.3-.3.3-.5-.4-2.5-1.9-5.8-2.1-6.2-.1-.4 0-.9.1-1 0-.2.1-.3.3-.1 1.3 1.6 1.9 5 2 5.4.1.5.5 2.3.7 2.8.5 1.5 2.2 1.9 2.6 1.9 1.4.1 3.1-.8 4.2-1.5-.2-.6-.3-1-.3-1.2-.1-.6-1.4-8.4-1.4-8.4-.1-.7-.2-1.3-.2-1.8-.1-.4-.2-.6-.2-.7 0 0 .4-.9.5-1.1 0-.1.1 0 .1.1s1.3 3.2 1.4 3.4-.1.2-.2.1-.6-.6-.6-.6 1.1 7.8 1.6 9.4q.1.1.1.2.1 0 .1 0c.8-.4 1.4-.3 1.8-.1s1.2.6.7 2.6zm-.5-1c-.1-.3-.7-.5-1.2-.5q-.1 0-.3.2 0 .1.1.2c.4.4 1.2.5 1.3.4.2 0 .2-.2.1-.3z" fill-rule="evenodd"/><path d="m36.2 6.1c0 .1 1.3 3.2 1.4 3.4 0 .2-.1.2-.2.1s-.7-.7-.7-.7 1.2 7.4 1.2 7.6c.2 1.7.3 2.9.2 3.7 0 1.1-.2 1.5-.3 1.6 0 .1-.1.1-.1-.1 0-.6-.1-1.8-.3-3-.3-2.6-1.5-9.6-1.7-11 0-.1-.1-.5-.1-.6 0 0 .4-.9.4-1.1.1-.1.1 0 .2.1z"/><path d="m51.3 6.1c-.1.1-.1.1-.1.3-.1.2-.2.2-.4.4-.2.1-5.8 3.3-5.9 3.4-.3.2-.3 0-.2-.1q0 0 0-.3c.1-.2.2-.2.4-.3.2-.2 5.7-3.4 5.9-3.5.4-.2.3-.1.3.1z"/><path d="m58 6.4c.2.3.1.7 0 1-.1.1-.3 0-.4-.2 0 0-.1-.1-.2-.2-.6-.5-.8.4-.9.8 0 .4-.1 1.4-.2 2 0 .2-.2.2-.2 0-.4-1.2-1.2-1.9-1.3-2s-.2.1-.2.2c0 0-.1 0-.2 0s-.5-.3-.6-.4c-.2-.2-.1-.7-.1-.9 0-.3.3-.4.4-.4 1.5.9 1.9 2.3 2 2.6.1-1.1.1-2.1.7-2.9.5-.6 1.2.3 1.2.4z"/><path d="m63.5 8.8c0 .1-.1 0-.2-.1s-.2-.3-.4-.4c-.3.5-.2.5-1.2 1.4-2 1.7-4.3 2.3-4.4 2.4-.1 0-.1-.1.1-.3.7-.5 3.6-1.8 5.1-3.6 0 0-.5-.2-.8-.5-.3-.2-.1-1 .1-1.4.6-.9 1.1-.4 1.1-.3.5.9.3 1.7.3 1.7.2.2.5.5.3 1.1zm-.9-2.2c-.2-.1-.3-.1-.6.3-.1.1 0 .3.2.3.2.1.6.3.6.3 0-.1.1-.6-.2-.9z" fill-rule="evenodd"/><path d="m18.9 5.8s.1.5.3.7c.1.2.2.5.2.9-.1.4-.3.7-.5.7-.2.1-.6.1-.9-.3-.3.7-.8.8-1.1.7-.3-.2-.3-.7-.3-.9s0-.7 0-.8 0-.2.1-.3c0-.2.1-.1.1 0 0 .2-.1.9.1 1.2.3.4.8 0 1-.2.1-.2-.2-1-.2-1q0-.1 0-.1c0-.1 0-.3.1-.4q0-.2.1 0c.1.1.1.3.2 1s.8.6.9.5c.2-.1.2-.2.1-.2 0-.1-.3-.7-.4-1-.1-.2 0-.4.1-.6 0-.2.1-.1.1.1z"/><path d="m42.6 8.5c-.1.1-.1 0-.3-.1 0-.1-.4-.4-.4-.4s-.4 1-1.2 1.5c-1.3 1.1-2.5 1.2-2.6 1.3-.1 0-.2-.1.1-.2.8-.6 1.9-.9 3.4-2.7 0 0-.5-.2-.8-.5-.4-.2-.2-1 0-1.4.6-.9 1.1-.4 1.2-.3.5.9.2 1.7.2 1.7.3.2.6.5.4 1.1zm-1-2.2c-.1-.1-.2-.1-.5.3-.1.1 0 .2.2.3s.6.3.6.3c0-.1.1-.6-.3-.9z" fill-rule="evenodd"/><path d="m25.9 5.2c-.1.1-.1.1-.2.3 0 .2-.2.2-.4.3-.1.1-4.1 1.8-4.2 1.8-.4.2-.3.1-.3 0q0-.1.1-.3c0-.2.1-.2.4-.3.2-.2 4.1-1.8 4.3-1.9.4-.2.3-.1.3.1z"/></g></svg>