<svg height="30" viewBox="0 0 70 30" width="70" xmlns="http://www.w3.org/2000/svg"><g fill="#191c4f"><path d="m15 24c-.1.2-.1.2-.2.4s-.2.3-.4.4c-.3.1-4.2 1.4-4.4 1.5-.4.2-.4.1-.3 0q0-.1.1-.4c0-.2.1-.2.4-.3.3-.2 4.2-1.6 4.5-1.7.4-.1.3 0 .3.1z"/><path d="m18.9 23.8 1.2.9q.1 0 0 .1l-.7.9q0 .1-.1.1l-1.1-.9-.7.8q0 .1-.1.1l-1.2-.9q0-.1 0-.1l.7-1q.1 0 .1 0l1.2.8.6-.8q.1 0 .1 0z"/><path d="m27.9 22.7c0 .2 0 .2-.1.4s-.3.2-.5.3c-.3.2-4.7 1.6-4.9 1.7-.4.2-.4.1-.3-.1q0 0 .1-.3c0-.2.1-.3.4-.4l5.1-1.7c.4-.1.3 0 .2.1z"/><path d="m30.5 21.3c.3.2.3.7.2 1-.3 1-1.1 1.7-1.3 2-.2.2-.2 0-.1-.2 0 0 .2-.2.4-.4.7-.8.6-1.3.6-1.4-.1-.6-.5-.5-.8-.2-.1.2-.1.1-.1 0q.1-.1.2-.3c.4-.5.7-.5.9-.5z"/><path d="m63.1 20.5v.6c0 .2-.1.6-.3 1-.1.4-.9.5-1.4.1-.9 1.4-1.7.7-2.1.6-.8-.4-1 .2-1.3.4-.9 1.1-2.8 1.1-3.2 1.1-.4.1-.1-.2.1-.3 1.4-.5 2.3-.6 3.6-1.8.6-.6.9-.3 1.1-.2 1.2.5 1.4 0 1.6-.1.1-.2.3-.8.4-1s.2-.1.2.1c0 .1-.1.3-.1.5.5.3 1 0 1.1-.1 0 0-.1-.4-.1-.5q0-.2.2-.6c.1-.3.2-.1.2.2z"/><path d="m40.8 18.8c-.4 1.2-2.1 1.8-2.5 1.9-1.5.5-1.6-1-1.5-2.1s.9-2.5.9-2.5c-.1 0-1.6-1.3-1.8-1.4-.1-.1-.2-.3-.4-.4-.1-.1-.1-.2-.1-.2s0-1.1 0-1.2c0-.2.1-.1.2 0 .1 0 1.9.7 2 .8.2.1.2.2.1.2-.1.1-.7.2-.7.2l1.4 1s1.9-2.5 2.1-2.8c.2-.2.2-.1.2.2-.1.2-.4 1.3-.5 1.5-.1.1-1.1 1.5-1.1 1.5s1.3.8 1.6 1.3c.6.8.2 1.6.1 2zm-2.5-2.3s-.8 1.5-1 1.8c-.4.9.5 1.1.8 1 .4 0 1.5-.6 2.1-1.1.6-.4-1.5-1.5-1.9-1.7z" fill-rule="evenodd"/><path d="m64.9 17.4c-.1.2-.4 1.4-2 1-.4 0-1.2-.2-1.5-1.1-.4.5-1.4 2-3.2 1.8-.4-.1-1.6-.6-1.7-2.2 0 0-1.5 1.2-2.2 1.6.1.6 0 1.2-.2 2-.3.7-3.5 4.3-6.2 4.9-.9.2-4.2.8-4.3-2.9-.1-.8 0-1.4 0-1.8-2 1.6-4.5 2.8-5.2 3.2-1.1.5-5 1.1-5.6 1.2-.5.1-.6 0-.3-.2.3-.1 8.8-3 13.2-7.6q.2-.3 0-.6c-.2-.2-1.5-2.9-1.7-3.2-.1-.4-.3-.8-.4-.9q-.1-.2 0-.5c0-.1.2-.8.2-1 0-.1.1-.1.2.1.1.1 1.5 1.5 1.6 1.6.2.2.1.3 0 .3h-.7s.9 1.5 1.2 2.1c.5 1.3.2 2.3 0 2.7-.4.9-1.1 1.7-2 2.4-.1.6-.4 3.7 2.5 3.8.4 0 1.9.2 4.8-2.2.7-.5 1.4-1.2 2.1-2.1.2-.4.4-1-.1-.9-.5 0-3.5 1.1-3.9-.7-.1-.5.1-4.8 3.1-2.6.2.1.9.7 1.3 1.5.5-.2 1.4-.8 2.5-1.7.4-.2.7-.4.7 0s-.3 2.9 2.4 2.2c.3-.1 1.5-.3 2.3-2.5.2-.5.6-.4.4 0-.2.5-.5 1-.2 1.3.2.2 1 .8 2 .6.3 0 .5-.2.3-.4-.1-.3-.4-.8-.4-.8.1-.4.2-.9.3-1.1 0-.1 0-.3.2-.1.1.1 1 1.2.5 2.8zm-12.3.1c-.9-1.3-2.1-.6-2.2-.4-.2.1-.2.5.7.6 1.1 0 1.5-.2 1.5-.2z" fill-rule="evenodd"/><path d="m9.9 18.1s-.1.3-.1.5c-.4 1-.2 1.5-.1 1.6.2.5.6.2.8-.2 0-.1.1 0 .1 0q0 .1-.1.3c-.2.7-.4.8-.6.8-.4 0-.6-.5-.6-.8-.1-1.1.4-2 .5-2.3.1-.2.2-.1.1.1z"/><path d="m9.9 14.5 1.3.9q0 .1 0 .1l-.7 1q-.1 0-.1 0l-1.2-.9q-.1 0-.1-.1l.8-.9q0-.1 0-.1z"/><path d="m23.3 14 1.1.9.7-.9q0 0 0 0l1.3.9q0 0 0 .1l-.7 1q-.1 0-.1 0l-1.2-.9-.6.9q-.1 0-.1 0l-1.2-.9q-.1-.1 0-.1l.7-1q0 0 .1 0z"/><path d="m39.1 9.6 1.3.9q0 0 0 .1l-.7.9q-.1.1-.1.1l-1.2-.9-.6.8q-.1.1-.1.1l-1.2-.9q-.1-.1 0-.1l.7-1q0 0 .1 0l1.1.8.6-.8q.1 0 .1 0z"/><path d="m61.8 9.7s-.1.3-.2.5c-.4 1-.2 1.5-.1 1.6.3.6.7.3.8-.1.1-.2.2-.1.1 0q0 .1 0 .3c-.2.6-.5.8-.7.8-.4 0-.6-.5-.6-.8-.1-1.2.4-2.1.5-2.4.2-.3.3-.2.2.1z"/><path d="m49.7 9s-.1.4-.1.6c-.4 1.1-.2 1.7-.2 1.8.4.5.8.2.9-.2.1-.2.2-.1.2 0q-.1.1-.1.4c-.2.7-.5.8-.7.8-.5 0-.6-.6-.7-.8 0-1.3.5-2.3.6-2.7.1-.3.2-.1.1.1z"/><path d="m23.8 8.8s.2.5.4.8c.1.3.2.6.2 1.1-.1.4-.4.8-.6.8-.2.1-.7.1-1-.3-.5.7-1 .9-1.4.7-.3-.1-.4-.8-.3-1 0-.2-.1-.8-.1-.9 0-.2.1-.3.2-.4.1-.2.1-.1.1.1s-.1 1 .1 1.3c.3.5 1 .1 1.2-.2.1-.2-.2-1.2-.2-1.2q-.1-.1 0-.2s0-.3.1-.4q0-.2.2 0c0 .1 0 .4.2 1.2.1.8.9.7 1.1.6s.1-.2.1-.3c-.1-.1-.4-.8-.5-1.1s0-.5 0-.7c.1-.3.2-.1.2.1z"/><path d="m48.7 4.1c-.1.1-.1.2-.2.4s-.2.2-.4.4c-.2.1-6.5 3.8-6.6 3.8-.4.3-.4.1-.3 0q0-.1.1-.4c0-.2.1-.2.3-.4.3-.1 6.6-3.7 6.8-3.9.4-.2.3 0 .3.1z"/><path d="m56.3 4.5c.2.3.1.7 0 1-.1.2-.3 0-.4-.1 0 0-.2-.2-.3-.3-.7-.5-.9.5-1 1 0 .4-.1 1.5-.2 2.2 0 .3-.2.3-.3.1-.4-1.5-1.3-2.2-1.4-2.3-.2-.2-.3 0-.3.1s-.1.1-.2.1c-.1-.1-.5-.4-.7-.5-.1-.2-.1-.7-.1-1 .1-.4.3-.5.4-.4 1.7.9 2.3 2.6 2.4 2.9 0-1.3.1-2.4.8-3.2.5-.7 1.3.3 1.3.4z"/><path d="m15.9 4.3s-.2.6-.3 1.1c-.8 2.2-.5 3.2-.4 3.4.4 1.2 1.1.6 1.4-.2.2-.4.3-.2.2 0 0 .1-.1.4-.1.7-.5 1.3-.9 1.6-1.3 1.6-.7-.1-.9-1.2-.9-1.7 0-2.5 1-4.5 1.2-5.1.2-.5.4-.3.2.2z"/><path d="m62.6 7.1c-.1.2-.2.1-.3-.1-.1-.1-.3-.3-.5-.4-.3.6-.2.6-1.3 1.5-2.3 2-4.8 2.7-5 2.8-.1 0-.2-.1.1-.3.8-.6 4.1-2.1 5.8-4.1 0 0-.5-.3-.9-.5-.4-.3-.2-1.2.1-1.6.6-1 1.2-.5 1.3-.3.6.9.3 1.9.3 1.9.3.2.6.5.4 1.1zm-1.1-2.4c-.2-.1-.3-.1-.7.3-.1.2.1.3.3.4s.7.3.7.3c0-.1 0-.7-.3-1z" fill-rule="evenodd"/><path d="m11.4 4.1c.1.3.1.8 0 1.1-.1.1-.3 0-.4-.2 0 0-.2-.1-.3-.2-.7-.5-.8.5-.9 1 0 .3.1 2-.4 3.1-.5 1.3-.3 2-.2 2.1.3.7.8.4 1-.1.1-.3.1-.1.1 0q0 .1-.1.4c-.2.8-.6 1-.8 1-.5-.1-.7-.7-.7-1.1 0-1.5 1-2.9.6-3.7-.5-1-1.2-1.5-1.3-1.6-.1-.2-.2.1-.2.2-.1 0-.1 0-.2 0s-.6-.3-.7-.4c-.2-.2-.2-.7-.2-.9 0-.4.3-.5.4-.5 1.7.8 2.3 2.4 2.4 2.6 0-1.2 0-2.2.5-3.1.5-.7 1.3.2 1.4.3z"/><path d="m38.8 6.8c0 .2-.1.1-.2-.1-.1-.1-.5-.4-.5-.4s-.5 1.1-1.4 1.7c-1.5 1.2-2.9 1.4-2.9 1.4-.2.1-.2-.1 0-.2 1-.6 2.2-1 3.9-3.1 0 0-.6-.2-.9-.5-.4-.2-.2-1.2 0-1.6.7-1 1.3-.5 1.4-.3.5 1 .2 1.9.2 1.9.3.2.6.6.4 1.2zm-1.1-2.5c-.1-.1-.3-.1-.6.4-.1.1 0 .3.2.4s.7.3.7.3c.1-.1.1-.7-.3-1.1z" fill-rule="evenodd"/><path d="m23.8 4c.1.2 0 .7-.1.9 0 .2-.2 0-.3-.1 0 0-.1-.1-.2-.3-.6-.4-.8.5-.8 1-.1.3-.1 1.4-.2 2 0 .2-.1.2-.2 0-.4-1.3-1.1-1.9-1.2-2-.1-.2-.2 0-.2.1s-.1.1-.2.1c0-.1-.4-.3-.6-.5-.1-.1-.1-.6-.1-.8.1-.4.3-.5.4-.4 1.4.8 1.8 2.3 1.9 2.5.1-1.1.1-2.1.6-2.9.5-.6 1.1.3 1.2.4z"/><path d="m27.1 3.1c0 .2 1.4 3.6 1.4 3.8.1.2 0 .2-.2.1-.1-.1-.7-.7-.7-.7s1.5 11.1 1.6 11.7c.2 2.8-1.3 3.5-1.8 3.6-2.2.5-2.9-1.1-3.1-1.6-.9 1.8-2.4 2.1-2.7 2.1-2.7 0-3-3.1-3-3.7 0-1.2-.3-2.2-.5-2.6-.1-.5-.1-.1-.2.1-.4 2.2-2.1 2.2-2.1 2.2 0 1.3-.2 2.1-.4 2.7-.9 1.6-3.9 3-4.9 3.3-3.1 1.1-4.7-.2-5-.4-2.8-2.1-.8-6.4-.6-6.8q0 0 0 0c-.5-.3-.7-1.2-.7-1.6-.1-2.5.8-4.5 1-5.1s.4-.3.3.1c0 0-.2.7-.4 1.1-.6 2.2-.3 3.3-.2 3.5.4 1.1 1.1.6 1.4-.3.1-.4.2-.2.2 0 0 .1-.1.4-.1.7-.4 1.4-.8 1.7-1.2 1.7q0 0 0 0-.1 0-.1.1c-.4 1.2-.6 2.1-.5 2.6.2 3.1 2.9 3.1 3.4 3.2 3.5.2 6.9-2.7 7.1-3 .6-1.1-.7-3.2-.9-3.5 0 0 .2-.9.3-1.1 0-.2.1-.1.1 0 .1.1.7 1.1.7 1.1 2 .8 2.3-1.3 2.3-1.5.1-.2.2-.6.4-.8.1-.2.3-.1.3 0 .4.4.5 1.3.6 1.9.3 2.1.6 3.2.9 3.6.8 1.4 2.4.9 2.7.8 1.3-.5 2.1-2.2 2.2-2.4.2-.1.2 0 .2.2v.4c.1.8.7 1.2.8 1.3 1.4.8 2.6 0 2.7-.2.1-.1 0-1.5 0-1.8 0-.2-1.8-12.3-1.8-12.8-.1-.5-.2-.8-.2-.8s.4-1.1.5-1.2c.1-.2.1-.1.2 0z"/><path d="m30.9 3.1c.1.2 1.6 3.7 1.6 3.9.1.2 0 .3-.2.2-.1-.2-.8-.8-.8-.8s1.3 9.6 1.4 9.9c.2 1.9.3 3.2.3 4.1-.1 1.2-.3 1.7-.4 1.8-.1.2-.2.1-.2-.1 0-.7-.1-2-.3-3.4-.4-2.9-1.6-12.1-1.9-13.7 0-.2-.1-.6-.1-.7 0 0 .4-1.1.5-1.2.1-.2.1-.1.1 0z"/></g></svg>