<svg height="30" viewBox="0 0 70 30" width="70" xmlns="http://www.w3.org/2000/svg"><g fill="#191c4f"><path d="m13 21c-.1.1-.1.1-.2.3 0 .1-.1.1-.3.2s-2.6 1.1-2.7 1.1c-.3.2-.3.1-.2 0q0-.1 0-.3c.1-.2.2-.2.4-.3s2.5-1 2.7-1.1c.4-.2.3-.1.3.1z"/><path d="m24.7 20.9c-.1.1-.1.1-.2.3 0 .2-.1.2-.3.3s-2.6 1-2.6 1.1c-.4.1-.3 0-.3-.1q0 0 .1-.2c0-.2.1-.2.3-.3.2-.2 2.6-1.1 2.8-1.2.3-.1.2 0 .2.1z"/><path d="m64.2 19.5v.4c0 .2-.1.5-.2.8s-.7.5-1.1.2c-.7 1.1-1.4.5-1.7.4-.6-.3-.8.2-1 .3-.8.9-2.2.9-2.6.9-.3.1 0-.2.1-.2 1.2-.4 1.9-.5 2.9-1.4.4-.5.7-.3.9-.2.9.4 1.1 0 1.2-.1s.3-.6.3-.8c.1-.1.2 0 .2.1s-.1.3-.1.4c.4.2.8 0 .9-.1 0 0-.1-.3-.1-.4q0-.1.1-.5c.1-.2.2 0 .2.2z"/><path d="m21.8 13.6c.1.1 1.1 1.1 1.2 1.3.1.1 0 .2 0 .2-.1 0-.6-.1-.6-.1s.7 1.3.9 1.7c.4 1 .1 1.7 0 2-1.2 2.1-4.9 3.5-5.7 3.9s-3.7.8-4.3.9c-.3 0-.4-.1-.2-.2.3-.1 6-1.9 9.8-5 .1-.1.1-.3 0-.5 0-.2-1-2.2-1.1-2.5-.1-.2-.2-.6-.3-.7q-.1-.1 0-.3c0-.1.1-.6.2-.7 0-.2.1-.1.1 0z"/><path d="m46.6 18.1c-.3 1-1.7 1.5-2 1.6-1.2.4-1.3-.8-1.2-1.7s.7-2 .7-2-1.3-1-1.4-1.1-.2-.2-.3-.3-.1-.1-.1-.1 0-.9 0-1 .1-.1.2-.1c.1.1 1.4.6 1.6.7.1.1.1.2 0 .2s-.6.1-.6.1l1.2.8s1.5-2 1.7-2.2c.1-.2.1-.1.1.1-.1.3-.4 1.1-.4 1.2-.1.2-.9 1.3-.9 1.3s1 .6 1.3 1c.4.6.2 1.2.1 1.5zm-2-1.8s-.7 1.2-.8 1.5c-.3.7.4.8.7.8.2-.1 1.1-.5 1.6-.9.4-.4-1.2-1.2-1.5-1.4z" fill-rule="evenodd"/><path d="m10.6 12.9 1 .7q0 0 0 .1l-.6.7q0 .1 0 .1l-1-.7-.4.6q-.1.1-.1.1l-1-.7q0-.1 0-.1l.6-.8q0 0 0 0l1 .7.5-.7q0 0 0 0z"/><path d="m5.6 12.6s-.1.5-.1.8c-.4 1.6-.1 2.3 0 2.5.4.7.8.3.9-.3.1-.3.2-.2.2 0q-.1.1-.1.4c-.2 1-.5 1.3-.7 1.3q-.2 0-.3-.2 0 .1 0 .3c0 2.7 1.3 3.7 2 3.7.6 0 .8-.9 1.1-1.7.4-1.5 1.2-2.5 1.9-3 .8-.5 1.1-.1 1.3.3 1 2.1 2.7 2 3.1 1.9-.5-.3-.9-1.1-1.1-1.4-.7-1.1-.2-2.4-.1-2.7.5-1.2 1.7-1.4 2.4-1.5.8-.1 2.3.1 2.8.6.2.2 0 .4-.1.3-.5-.3-1.1-.3-1.7-.3-1.3.2-2.6.9-2.8 1-.2.2-.3.4-.3.7.2 1.1.9 1.8 1.2 2.1 1 .9 2.1.5 2.5.3 1.1-.5 2.3-1.6 2.7-1.9.3-.3.1.2 0 .6 0 0-.2.3-.3.6-.5.9-3.7 2.5-4.3 2.6-3.7.9-4.1-1.5-4.3-2-.3-.4-.7-.3-.9-.1-1.4 1-1.9 3.2-2 3.7-.4 1.1-1.1 1.1-1.5.9-1.9-.9-1.9-4.2-1.9-4.7q.1-.4.2-.4c-.2-.2-.3-.6-.4-.9-.1-1.7.3-3.2.5-3.6.1-.4.2-.3.1.1z"/><path d="m65.6 17c-.1.2-.3 1.1-1.6.9-.3-.1-.9-.2-1.2-.9-.3.4-1 1.6-2.5 1.4-.3-.1-1.3-.5-1.3-1.7 0 0-1.2.9-1.8 1.2.1.5.1 1-.2 1.6-.2.5-2.7 3.4-4.8 3.9-.7.1-3.3.6-3.5-2.3q0-1 .1-1.5c-1.6 1.3-3.6 2.3-4.2 2.6-.8.4-3.9.9-4.4 1-.4 0-.4-.1-.2-.2s6.9-2.4 10.4-6.1q.2-.1 0-.4c-.1-.2-1.2-2.3-1.3-2.6-.1-.2-.2-.6-.3-.7q-.1-.1 0-.3c0-.1.1-.7.1-.8.1-.1.1-.1.2 0s1.2 1.2 1.3 1.3c.1.2 0 .2 0 .2-.1 0-.6 0-.6 0s.7 1.3.9 1.7c.5 1 .2 1.8.1 2.2-.3.6-.9 1.2-1.6 1.8-.1.5-.3 3 1.9 3 .4.1 1.5.2 3.8-1.7.6-.4 1.2-.9 1.7-1.7.2-.2.3-.7-.1-.7-.3.1-2.7.9-3.1-.5 0-.4.2-3.8 2.5-2.1.2.1.7.6 1 1.2.4-.2 1.1-.6 2-1.3.3-.2.5-.3.5 0s-.2 2.3 2 1.7c.2-.1 1.1-.3 1.8-2 .2-.3.4-.3.3 0-.2.5-.4.8-.2 1s.8.7 1.6.6c.2-.1.4-.2.3-.4s-.4-.7-.4-.7c.1-.2.2-.7.2-.8.1-.1.1-.2.2-.1s.8 1 .4 2.2zm-9.7.1c-.8-1-1.7-.4-1.8-.3s-.1.4.6.4c.9.1 1.2-.1 1.2-.1z" fill-rule="evenodd"/><path d="m45.3 10.9.9.7q0 0 0 0l-.5.8q-.1.1-.1 0l-.9-.6-.5.6q-.1.1-.1 0l-1-.7q0 0 0 0l.6-.8q0-.1.1 0l.9.7.5-.7q0-.1.1 0z"/><path d="m63.2 10.9s-.1.3-.2.4c-.3.9-.1 1.3-.1 1.3.3.5.6.2.7-.1.1-.1.1-.1.1 0q0 .1-.1.3c-.1.5-.3.6-.5.6-.3 0-.5-.4-.5-.6 0-.9.4-1.7.5-1.9 0-.3.1-.2.1 0z"/><path d="m53.6 10.4s0 .3-.1.5c-.3.9-.1 1.3-.1 1.4.3.4.6.2.7-.1.1-.2.1-.1.1 0q0 0 0 .2c-.2.6-.4.7-.6.7-.4 0-.5-.4-.5-.7-.1-1 .3-1.8.4-2 .1-.3.2-.2.1 0z"/><path d="m21.5 8.7s0 .3-.1.5c-.3 1.1-.2 1.6-.1 1.7.3.6.6.3.7-.1.1-.3.2-.1.1-.1q0 .1 0 .4c-.2.6-.4.8-.6.8-.4 0-.5-.5-.6-.8 0-1.2.4-2.2.5-2.5s.2-.2.1.1z"/><path d="m6.3 8.6s-.1.2-.2.4c-.2.8-.1 1.1-.1 1.2.3.4.6.2.7-.1 0-.1.1-.1.1 0q0 .1-.1.2c-.1.5-.3.7-.5.7-.3-.1-.4-.4-.4-.6-.1-.9.3-1.7.4-1.9 0-.2.1-.1.1.1z"/><path d="m12.3 7.5c.1.2.1.5 0 .8-.1.1-.2 0-.3-.2 0 0-.1-.1-.2-.2-.5-.4-.6.4-.7.7 0 .3-.1 1.1-.2 1.6 0 .2-.1.2-.2.1-.3-1.1-.9-1.6-1-1.7s-.2.1-.2.1c0 .1 0 .1-.1.1s-.4-.3-.5-.4-.1-.5-.1-.7.2-.3.3-.3c1.2.7 1.6 1.9 1.7 2.1 0-.9.1-1.7.5-2.3.4-.5 1 .2 1 .3z"/><path d="m20.8 7.1c-.1.1-.1.1-.2.3 0 .1-.1.2-.3.3-.1 0-7.1 3.4-7.6 3.7-.6.4-.5.6-.3.6.3.2.5.4.3.9q0 0-.1 0c0-.1-.1-.2-.3-.2-.3-.1-.4-.5-.3-.9 0-.3.2-.6.4-.8.5-.3 8-3.9 8.1-4 .3-.2.3 0 .3.1z"/><path d="m29.6 15.5s-.1.3-.2.5c-.3 1.1-.1 1.6 0 1.7.3.5.7.2.9-.2 0-.2.1-.1.1 0q0 0-.1.3c-.1.6-.4.8-.6.8-.5 0-.7-.5-.7-.7-.2-1.2.3-2.2.4-2.5.1-.2.2-.1.2.1z"/><path d="m32.1 12.9 1 .7.4-.7q.1 0 .1 0l1 .7q0 0 0 .1l-.6.8q0 0-.1 0l-.9-.7-.5.7q0 0 0 0l-1-.7q0-.1 0-.1l.5-.8q.1 0 .1 0z"/><path d="m35.4 8.5c-.1.1-.1.1-.1.3-.1.1-.2.2-.3.3-.2.1-7 3.2-7.5 3.5-.6.4-.5.6-.3.7.3.1.5.3.3.8q0 0 0 0c-.1-.1-.2-.2-.4-.2-.3-.1-.4-.5-.3-.9.1-.3.2-.6.5-.8.4-.3 7.7-3.7 7.9-3.8.2-.2.2 0 .2.1z"/><path d="m30.1 6.9c.1.2.1.5 0 .8-.1.1-.2 0-.3-.1 0 0-.1-.2-.2-.2-.5-.4-.6.4-.7.7v1.6c0 .2-.1.2-.2.1-.4-1-1-1.5-1.1-1.6s-.2.1-.2.1c0 .1-.1.1-.1.1-.1 0-.5-.2-.6-.3s-.1-.5-.1-.7c0-.3.2-.4.3-.4 1.2.6 1.7 1.8 1.8 2 0-.9 0-1.7.4-2.3.3-.6.9.1 1 .2z"/><path d="m52.8 6.5c0 .1-.1.2-.1.3-.1.2-.2.2-.4.3-.1.2-5.1 3-5.2 3.1-.3.2-.3.1-.2 0q0-.1 0-.3c.1-.2.1-.2.3-.3.2-.2 5.2-3 5.4-3.1.3-.2.2-.1.2 0z"/><path d="m58.9 6.8c.1.2 0 .6-.1.9-.1.1-.2 0-.3-.2 0 0-.1-.1-.3-.2-.5-.4-.6.4-.7.8 0 .3-.1 1.2-.2 1.8 0 .2-.1.2-.2 0-.4-1.2-1-1.7-1.1-1.8s-.2 0-.2.1c-.1.1-.1.1-.2.1-.1-.1-.4-.3-.6-.4-.1-.2 0-.6 0-.8 0-.3.2-.4.3-.3 1.3.7 1.8 2 1.8 2.2.1-1 .1-1.8.7-2.5.4-.5 1 .2 1.1.3z"/><path d="m63.8 8.9c-.1.2-.1.1-.2 0s-.2-.3-.4-.4c-.2.5-.2.5-1 1.2-1.9 1.6-3.9 2.2-4 2.2s-.1-.1.1-.2c.6-.5 3.2-1.7 4.6-3.3 0 0-.5-.2-.8-.4-.2-.2-.1-.9.1-1.2.5-.8 1-.4 1.1-.3.4.7.2 1.5.2 1.5.2.2.4.5.3.9zm-.9-1.9c-.1-.1-.2-.1-.5.3-.1.1 0 .2.2.3.2 0 .6.2.6.2 0-.1 0-.6-.3-.8z" fill-rule="evenodd"/><path d="m36.3 20.7c-1.8.9-2.7.1-3-.3q-.2-.2-.3-.4c-1.3.7-3.1 1.1-3.3 1.1-4 .6-4.2-1.2-4.5-2.2-.3-1.1-.8-8.8-1.5-11.1 0-.1.3-.8.3-1 .1-.1.1-.4.3.1.6 1.9 1.1 8.8 1.2 9.8.2 2.2 1 2.8 1.3 3 2.2 1.1 5.1-.3 5.6-.5q.1 0 .2-.1c-.5-1.7.3-2.8.6-3.2.5-.5 1-.2 1.2.1.8 1.3.4 2.4.1 2.8q-.3.4-.8.8c.4.2.6.3.8.3 1.6.2 2.4-.7 2.5-.8 0-.1 0-.1 0-.4 0-.8-1.1-10.4-1.2-10.8s-.2-.6-.2-.7c0 0 .4-.8.5-.9 0-.1 0 0 .1 0 0 .1 1.1 2.8 1.1 3 .1.2 0 .2-.1.1s-.6-.6-.6-.6 1 8 1 8.8c.2 2-.6 2.8-1.3 3.1zm-1.9-2.9s.1-.1-.4-.7c-.4-.7-.9-.2-1.1.2-.1.3.1 1 .3 1.5.8-.4 1.2-.9 1.2-1z" fill-rule="evenodd"/><path d="m39.3 6.4c0 .1 1.2 2.9 1.2 3 .1.2-.1.2-.1.1-.1-.1-.7-.6-.7-.6s.9 6.9.9 7.1q.3 2.2.3 3.3c-.1.9-.3 1.3-.3 1.4-.1.1-.2.1-.1-.1-.1-.5-.2-1.6-.3-2.7-.3-2.3-1.2-8.8-1.3-10.1-.1-.1-.2-.5-.2-.5s.4-.9.4-1c.1-.1.1 0 .2.1z"/><path d="m45 8.7c-.1.1-.1 0-.2-.1s-.4-.4-.4-.4-.4.9-1.1 1.4c-1.2.9-2.3 1.1-2.3 1.1-.1.1-.2 0 0-.2.8-.4 1.7-.7 3.1-2.4 0 0-.4-.2-.7-.4s-.2-.9 0-1.2c.5-.8 1-.4 1.1-.3.4.8.2 1.5.2 1.5.2.2.5.5.3 1zm-.9-2c-.1-.1-.2-.1-.5.3 0 .1 0 .2.2.3s.6.2.6.2c0-.1 0-.5-.3-.8z" fill-rule="evenodd"/></g></svg>