<svg height="461" viewBox="0 0 512 461" width="512" xmlns="http://www.w3.org/2000/svg"><path d="m0 402.5c2-3.8 4-7.2 6-10.5 13.6-23.6 27.3-47.1 40.9-70.7 15.7-27.3 31.3-54.7 47-82 15.2-26.3 30.6-52.4 45.8-78.7 13.3-23.2 26.5-46.4 39.8-69.6 13.1-22.7 26.2-45.5 39.6-68 5.3-8.9 13-15.3 23.2-18.2 1.4-.4 2.6-1.4 3.8-2.4 6.3-.4 12.6-.4 19.4-.4 1.6.9 2.6 2.3 3.9 2.6 11.9 3.5 19.8 11.6 25.8 21.9 17.2 29.7 34.5 59.4 51.7 89.1 11.4 19.9 22.8 39.8 34.2 59.8 3.3 5.7 2.7 10.8-2.2 15.5-8.5 2.6-11.9 1.3-16-5.8-22-38-43.9-76.1-65.9-114.1-1.1-1.8-2.6-3.3-3.9-5.4-6-10.4-11.7-20.6-17.7-30.7-4-6.7-9.7-10.5-17.7-10.9-9.2-.6-16.2 2.9-21 10.7-3.4 5.6-6.6 11.4-9.9 17.1-10.3 17.7-20.6 35.4-30.8 53.2-10.6 18.3-21 36.7-31.6 55-10.8 18.8-21.7 37.5-32.5 56.2-10.6 18.4-21.1 36.7-31.6 55-10.5 18-20.9 36-31.4 54.1q-12.7 21.8-25.3 43.7c-6.9 11.9-14.2 23.5-20.3 35.8-8.6 17 5.5 33 20.2 32.4 20.5-.8 41-.3 61.9-.2 2.9.3 5.3.8 7.8.8q175.9.1 351.7.1c1.5 0 3 0 4.5-.1 11.6-.5 20.6-8.5 22.3-19.8 1.1-6.5-1.3-12.1-4.4-17.5-27.2-47-54.3-94-81.4-141-5.3-9.2-5.2-10.7 1.3-18.5 8-2.3 11.6-.5 15.8 6.9 11.6 20.3 23.5 40.6 35.2 60.9 10.8 18.6 21.4 37.2 32.1 55.9 5.4 9.4 10.9 18.9 16.3 28.4 1.7 2.9 3.1 6 5 9 .4 8.3.4 16.6 0 25.4-1.5 2.5-2.6 4.7-3.7 6.8-8.3 15.2-20.6 23.7-38.3 23.7-143 0-286 0-429 0-2.3 0-4.6-.2-6.8-.7-15.5-3.4-25.7-12.9-31.8-27.2-.3-.8-1.3-1.4-2-2.1 0-8.4 0-16.7 0-25.5z" fill="#404c6e"/><path d="m293.2 66c1.2 1.7 2.7 3.2 3.8 5 22 38 43.9 76.1 65.9 114.1 4.1 7.1 7.5 8.4 15.7 6 3.8 6.2 7.3 12.5 10.9 19.2-.4 1.2-1.1 1.9-1.8 2.6-3.4 3.6-3.9 7.7-1.7 11.9 2.1 4.2 6.5 5.9 11.5 4.8 1.1-.3 2.2-.4 3.4-.5 2 3.7 4.1 7.4 6.2 11.5-6.4 8.2-6.5 9.7-1.2 18.9 27.1 47 54.2 94 81.4 141 3.1 5.4 5.5 11 4.4 17.5-1.7 11.3-10.7 19.3-22.3 19.8-1.5.1-3 .1-4.5.1q-175.8 0-351.7-.1c-2.5 0-4.9-.5-7.8-1.2-5.8-7.4-7.5-15.3-7.6-24.1 0-9.5 5.3-16.6 9.5-24.1 11.3-20.1 23.2-39.9 34.8-59.9 12.1-21 24-42.1 36.1-63 12.2-21.2 24.5-42.2 36.8-63.3 2.8-4.8 5.9-9.4 8.9-13.7.1 28.9-.1 57.4.2 85.8.1 17.4 14.6 31.2 31.9 31.2 17.1 0 31.7-13.6 31.9-30.7.3-30.9.3-61.9 0-92.8-.2-15.1-11.6-28-26.5-30-5.7-.7-11.8.7-17.5.7 3.7-6.8 7.4-13.2 11.1-19.6 7-12.3 14.2-24.5 21.2-36.8 5.7-10.1 11.3-20.2 17-30.3zm-61.3 316.5c11.5 11.8 27.3 14.3 40.4 6.5 12.9-7.7 18.9-23.1 14.1-37.2-4.3-12.6-13.2-20.3-26.5-21.9-13.7-1.6-24.6 3.8-31.5 15.7-7.2 12.6-5.7 24.9 3.5 36.9z" fill="#f8cb8b" fill-rule="evenodd"/><path d="m401 228.7c-1.3.5-2.4.6-3.5.9-5 1.1-9.4-.6-11.5-4.8-2.2-4.2-1.7-8.3 1.7-11.9.7-.7 1.4-1.4 2.2-2.4 1-.4 2-.4 3-.5 5.1-.5 9.4.7 11.4 5.9 1.8 4.7.8 9-3.3 12.8z" fill="#424d6e"/><path d="m223.9 188.5c-.2-8.5-.5-16.7 5.1-23.1 4.1-4.6 9.4-8.1 14.4-12.2 6.2-.5 12.3-1.9 18-1.2 14.9 2 26.3 14.9 26.5 30 .3 30.9.3 61.9 0 92.8-.2 17.1-14.8 30.7-31.9 30.7-17.3 0-31.8-13.8-31.9-31.2-.3-28.4-.1-56.9-.2-85.8zm20.1 19v64.9c.1 7.8 5 13 12.1 13 7.1-.1 11.9-5.2 11.9-13.1q.1-44 0-87.9c0-7.7-5.2-13.2-12.1-13.1-6.9 0-11.8 5.5-11.9 13.2-.1 7.4 0 14.7 0 23z" fill="#414d6e" fill-rule="evenodd"/><path d="m231.7 382.3c-9-11.8-10.5-24.1-3.3-36.7 6.9-11.9 17.8-17.3 31.5-15.7 13.3 1.6 22.2 9.3 26.5 21.9 4.8 14.1-1.2 29.5-14.1 37.2-13.1 7.8-28.9 5.3-40.6-6.7zm17-11.4c5.6 3.4 10.6 3.4 14.7-.1 3.9-3.2 5.5-7.5 4.1-12.5-1.5-4.8-4.7-7.9-10-8.5-5.2-.6-9.7 1.7-12 6.1-2.6 4.9-1.8 9.4 3.2 15z" fill="#424d6e" fill-rule="evenodd"/><path d="m244 207c0-7.8-.1-15.1 0-22.5.1-7.7 5-13.2 11.9-13.2 6.9-.1 12.1 5.4 12.1 13.1q.1 43.9 0 87.9c0 7.9-4.8 13-11.9 13.1-7.1 0-12-5.2-12.1-13 0-21.7 0-43.3 0-65.4z" fill="#f7cb8b"/><path d="m248.4 370.7c-4.7-5.4-5.5-9.9-2.9-14.8 2.3-4.4 6.8-6.7 12-6.1 5.3.6 8.5 3.7 10 8.5 1.4 5-.2 9.3-4.1 12.5-4.1 3.5-9.1 3.5-15-.1z" fill="#f4c88a"/></svg>