<?xml version="1.0" encoding="UTF-8"?>
<svg xmlns="http://www.w3.org/2000/svg" id="Layer_1" data-name="Layer 1" viewBox="0 0 24 24">
  <path d="M15.47,12.377l-5.226,8.96c-.689,1.181,.163,2.663,1.53,2.663h10.453c1.367,0,2.218-1.483,1.53-2.663l-5.226-8.96c-.683-1.171-2.376-1.171-3.059,0Zm1.53,10.623h0c-.552,0-1-.448-1-1h0c0-.552,.448-1,1-1h0c.552,0,1,.448,1,1h0c0,.552-.448,1-1,1Zm-1-4v-3c0-.552,.448-1,1-1h0c.552,0,1,.448,1,1v3c0,.552-.448,1-1,1h0c-.552,0-1-.448-1-1ZM12,0C5.373,0,0,5.373,0,12v7c0,2.757,2.243,5,5,5h3.451c-.622-1.162-.603-2.525,.065-3.671l1.942-3.329h-2.458c-.552,0-1-.447-1-1s.448-1,1-1h3.625l1.167-2h-4.792c-.552,0-1-.448-1-1s.448-1,1-1h5.992c.708-.946,1.802-1.501,3.008-1.501,1.356,0,2.574,.7,3.257,1.872l2.899,4.969c.266-.682,.493-1.384,.631-2.12,.003-.014,.013-.024,.015-.038,.036-.196,.055-.395,.081-.593,.019-.142,.045-.283,.058-.426,.037-.386,.059-.774,.059-1.162C24,5.373,18.627,0,12,0Zm4,9H8c-.552,0-1-.448-1-1s.448-1,1-1h8c.553,0,1,.448,1,1s-.447,1-1,1Z"/>
</svg>
