<svg height="41" viewBox="0 0 128 41" width="128" xmlns="http://www.w3.org/2000/svg"><g fill="#39412a" fill-rule="evenodd"><path d="m53.3 1.3c2.7 1.8 5.9 5.2 8 8.4 6.2 9.7 3.2 22.8-5.6 24.8-2.2.5-5.7.8-5.8.5 0-.1.5-.3 2.8-1.4 5.8-2.6 6.6-3.1 8.2-4.7 2.1-1.9 2.7-3.2 2.7-6.1 0-4.1-1.4-7.8-4.6-12-2.5-3.4-6.3-6.9-6.3-5.9 0 2.6-.1 8.7-.1 9.1-.4 3.8-1 5.4-2.5 7.1-.4.4-.6.7-.5.7s.6.1 1.1.3c.6.1 1.9.5 3 .7 2.6.7 5.5 1.3 7.1 1.6 1.9.2 2 .3 1.5 1.1 0 .1-.3.5-.5 1-.5.9-.5.9-1.9.8-3.6-.3-4.7-.1-10.1 1.9-5.9 2.1-8.6 2.5-11.1 1.6-1.3-.4-1.7-.8-4.4-3.7-1.1-1.2-2.1-2.1-2.2-2 0 0 .1.6.3 1.2.4 1.3.4 1.6.2 2.4-.4 1.1-1.2 2.2-2.1 2.8-.4.3-.4.3-.1.7 1.6 2 .6 5.6-1.8 6.2-1.5.4-4-1.8-4.6-4.3l-.2-.6-.3.6c-1.2 2.7-3.2 3.6-6.1 3-1.7-.4-2.3-1-3.5-3.3-1.1-2.4-1.5-2.6-3-1.8-1.4.7-2.3 1.8-4 5-1.6 2.8-2.5 3.8-3.7 3.8-2.8 0-4.1-6-2.5-11.2l.2-.8-.2-.3c-1-.9-.6-3.5 1.1-7.2q.8-1.7 1-1.8c.1 0 .1 0-.3 1-1.5 3.1-2 5.8-1.3 6.6q.6.6 1.2-.6c.5-1 .5 0 0 1.1-.2.4-.4.8-.6.9l-.4.3-.2 1.6c-.9 5.4.2 8.7 2.7 7.9.8-.3 1.3-.9 2.8-3.5 2.3-3.9 3.9-5.7 5.6-6 1.1-.3 1.6.1 2.7 2.3s1.7 2.7 3.5 3.1c2.5.5 4.3-.5 5.7-3.3.3-.5.6-.7.9-.5.1 0 .2 0 .3-.3.2-.4.4-.5 1.8-.7 2.7-.2 4.7-.7 4.6-1.2-.6-2.4-5-7-12.9-13.7-1.8-1.5-1.7-1.3-1.5-2.5.4-1.9 1.1-3.2 1.9-3.8 4.3-2.8 19.2-7.6 22.5-7.2 2.7.3 1.8 3.1-2.2 6.8-1.5 1.4-2.2 2.1-2.8 3q-.5.8-.2-.3c.4-1.1 1.3-2.2 3.3-4.2 2.2-2.2 2.3-2.4 1.2-2.7-2.5-.6-16.8 3.9-22 7-.9.6-.9.6-.1 1 2.7 1.2 10.4 7.5 15.9 12.8 3.7 3.6 4.3 3.9 7.4 3.8 2.1-.1 3.7-.4 6.4-1.4.8-.2 2-.6 2.6-.8s1.1-.4 1.1-.4c0-.1-8.4-2.2-9.6-2.4-1-.2-1-.1-.2-1.7.4-.9.4-.9 3.1-1.4 1.5-.2 3.2-.6 4.5-.9.5-.2.5.7.6-11.1l.1-3.9.7-1.4c.4-.8.7-1.5.7-1.5 0-.1 0-.2.1-.3.2-.2.2-.2.9.3zm-46.4-.4c.1 0 .1.1-.2.6-.8 1.6-1.4 3.7-1.4 4.8-.1 1.5.7 1.9 1.2.8.5-1 .6-.2.1.9-.4.7-.7 1-1.1 1-1.4 0-1.1-3.3.8-7.2.3-.5.5-.9.6-.9zm110.8 6.9c-1.3 1.5-2.1 2.6-2.5 3.4-.1.3-.2.5-.3.5-.1-.2.2-1.2.7-2.2.6-1.2.7-1.3 2.3-3.2 1.9-2.3 2-2.5.6-2.7-2.3-.3-14.5 5.1-20 8.8-1.8 1.2-1.9 1.3-1.2 1.6.6.2 4.4 2.7 7.2 4.6 3.9 2.8 7 5.3 10.7 8.6 1.8 1.5 3 2 5 1.8 1.3-.1 1.3 0 1.3-1.3 0-3.5 1.8-7.5 3.4-7.5 1.9 0 2.8 4.7 1.4 7.6-.5 1-2.1 2.5-3.6 3.2l-.4.2v.6c0 .8-.3.8-.4.1-.1-.5-.1-.5-.5-.3-.9.5-2.6.6-3.7.2-1.4-.4-2-.8-4.6-3.3-2-1.9-2.3-2.1-2-1.5 1.2 2.7.9 4.6-1.1 6.6-2.2 2.2-5.7 1.6-6.1-1.2-.2-.9-.2-1-1-.4-2.6 2-5.6 3.1-8 3-2.7-.2-5.2-1.7-6.2-3.6-.4-.8-.4-.8-.7-.2-1.3 2-3.4 3.1-5.9 3h-1.5l-.7-.3c-.9-.5-1.4-1-2.4-2.7-1.1-1.7-1.3-1.9-2.1-1.8-1.4.3-2.9 2-4 4.7-.8 2-1.2 2.8-1.6 3.5-3 5.3-7.3-1.7-5.7-9.3.4-2.1.8-2.2.6-.2-.6 5.6.4 8.9 2.7 8.9 1.1 0 1.6-.6 2.9-3.4 2.1-4.5 3.2-6.2 4.8-6.9 1.4-.7 1.9-.4 3.2 1.7 1.5 2.4 2.7 3.1 5.3 2.8 2.2-.3 3.1-.8 5.2-3.2.8-1 1-.9.9.1-.1 1.7 1.1 2.9 3.6 3.6 3.1.8 8.4-.6 11.2-3 .6-.6 1-.4.8.3-.6 2 0 2.8 2.1 2.8 1.1 0 1.6-.2 2.7-.9 1.1-.8 1.1-.9.5-2-1.1-2.2-2.6-3.6-9.7-9.4-5.1-4.1-4.7-3.6-4.6-5.1.2-2.1.5-3.1 1.3-3.8 3.4-2.9 17.1-9.2 21-9.6 3.3-.4 3 2.5-.9 6.8zm-30.5-6.7c-.1.5-.5.9-.9 1.1-1.7.5-11.6 4.3-13.1 4.9-2.1.9-2.3 1.2-1 1.7l.7.2.1.7c0 .7 0 .7-.9.4-1.3-.5-1.6-1-.9-2.3.8-1.5.4-1.3 12.9-5.9 3.3-1.2 3.2-1.1 3.1-.8zm-66.5 2c-.1.2-.1.2-.5-.1-.6-.5-.9-.2-1.2 1.3-.5 2.5-.9 3.4-1.1 2.3-.1-1.2-1-2.9-1.4-2.7-.2.1-.5.1-.8-.3-.2-.1-.3-.2-.3-.1 0 0-.1.2-.3.5-.8 1.5-2.4 2.7-5.1 3.7-2 .8-2.1.7-.3-.4 3.9-2.3 5.3-3.4 5.9-4.6.3-.5.5-.7.6-.7 0 0 .2.1.2.1.6 0 1.7 1.9 1.7 3 0 .3.2.3.3 0 .4-2.1.8-3.2 1.2-3.5.7-.6 1.7.7 1.1 1.5zm75.4-1.4c1.4.4 1.5.6.5 2.1q-1.7 2.6-3.3 3.2c-1.1.3-4 1.2-4 1.1-.2-.1 1.2-1 3.7-2.2 2.6-1.4 2.4-1.5-1.5-1.6-1.3 0-2.4-.1-2.4-.1 0-.2 1.2-2.1 1.4-2.3.1-.1.4-.2.7-.3.6-.1 4.1-.1 4.9.1zm5.6.8c.2.1.3.1.3.1.1 0 .3.6.3 1 0 .9-1.1 2.5-2.3 3.4-.7.5-.6.4.1-.5 1-1.1 1.3-1.5 1.4-2 0-.6-.3-.8-1-.6-.4.2-.4.1-.2-.6.2-.5.4-.7.8-.8zm-51.8 2.9c.1.6-1.9 3-2.7 3.4-.5.2-3.6 1.2-3.6 1.2-.2-.2.6-.7 2.7-1.7 2.3-1.2 2.2-1.4-1.2-1.4-.9 0-1.7-.1-1.7-.1 0-.1.9-1.7 1.1-1.8 0 0 .2-.2.4-.2 1.4-.5 5 0 5 .6zm18.8 2c-.1.2-.2.2-.4-.1-.8-.9-1.2-.5-1.7 1.9-.4 2.3-.9 3.1-1 2-.2-1.3-1.3-3.4-1.6-3-.3.2-1-.2-1.3-.7-.1-.3.5-1.5.9-1.5.8 0 1.8 1.4 2.1 3.1.2.9.3 1 .4.3.3-1.8.9-3.6 1.4-3.9 1-.5 1.9 1 1.2 1.9zm-35.4.9q-.9 2.6-.3 3.3.5.6 1-.5c.4-.8.4.1 0 1-1 2-2.2.2-1.5-2.2.1-.6.7-2.1.9-2.4.2-.4.2 0-.1.8zm48.7-.1c1.8 1.5 2.5 4.2 1.6 6.1-.3.7-.3.5-.3-.6.1-1.6-.3-2.6-1.7-4.1-.7-.8-.7-.7-.4-1.3s.2-.6.8-.1zm45.7.7c-.2.4.2.2-5.9 2.5-5.5 2.1-7.7 2.9-9 3.5-1.2.5-1.1.5-.9-.3.2-.6.3-.6.6-.7.2-.1 3.7-1.4 7.8-3 8.6-3.2 8-3 7.4-2zm-99.4.3c-.3.7-.3.9-.1 1 .7.2 1.4 1.4 1.3 2.3-.2 2.4-3 3.3-3 1.1 0-1.2 1.2-5 1.7-5.3.4-.3.5.1.1.9zm27.6.9c1.6 1.6 2 4.2 1 6.7-.1.4-.2.6-.1.6.2.1 1.1 1 1.2 1.4.8 1.6-.9 4-2.4 3.2-.7-.4-.6-1.5.5-4.3 1.1-2.9.9-4.5-.8-6.5-.6-.6-.6-.5-.3-1.1.3-.7.3-.7.9 0zm54.6 2c-.1.1-.2 0-.5-.3-.8-.8-1-.4-1.7 3-.3 1.3-.7 1.9-.9 1.3-.2-1.7-1.2-3.6-1.6-3.3-.3.3-1.3-.3-1.3-.8 0-.3.6-1.3.8-1.3.9-.1 1.9 1.3 2.3 3 .1.9.2 1 .3.5.3-1.8.9-3.6 1.4-4 .9-.7 2.1 1.1 1.2 1.9zm-102.1.5-.2.2-.2-.3c-.6-.5-1-.2-1.2 1.1-.4 1.4-.6 2.3-.6 2.4-.1.2 0 .2.3.4 1.8.8 1.8 2.1.1 2.6-1.5.4-1.7.6-1.4 1.3.6 1.4.9 4.6.6 6.1-.1.8-.2.6-.2-.4 0-1.1-.2-2.5-.6-4.3-.5-2.4-.3-3.3.9-3.6.5-.2.5-.3.2-.5l-.4-.1-.3.3-.4.4v-.5c.1-.5.4-1.2.6-1.3s.1-.5-.4-1.7-.7-1.6-.9-1.4c-.2.3-1.2-.2-1.1-.6 0-.3.3-1 .5-1.1.6-.4 1.7.8 2 2.2.1.3.2.7.2.8 0 .3.2.2.2-.1 0-.8.7-3 1.1-3.3.8-.7 1.9.6 1.2 1.4zm66-1.4c.5.2.7 1.3.3 2.3-.2.7-.2.7 0 .7.1 0 .3.1.5.3.4.3.4.5-.1 1.1l-.3.4-.4-.3c-.4-.4-.4-.4-.8.2-1.2 1.4-3.1 2.6-5.7 3.6-2.3.9-2.2.7.6-1 2.5-1.5 3.9-2.4 4.5-3l.5-.4-.5-.3c-1.4-.9-1.1-2.7.6-3.5.5-.2.5-.2.8-.1zm-31.7 1.8-.2.2-.3-.3c-.7-.7-.9-.4-1.4 1.7-.1.6-.3 1.3-.3 1.5-.1.2-.2.4-.1.4.6.3 1.7 1.1 1.7 1.5.2.6-.3 1.1-1.3 1.3-.7.2-1.6.7-1.6.8 0 0 .1.3.2.6.6 1.2.9 4.2.7 5.5-.2 1.5-.3 1.5-.3.1 0-1.2-.2-2.4-.6-4.3s-.3-2.6.2-3.1c.2-.3.3-.3 1-.6l.3-.1-.3-.1c-.3-.3-.5-.3-.9.1l-.3.4.1-.5c0-.5.3-1.1.5-1.3.3-.2.1-.8-.6-2.3-.3-.8-.5-1-.6-.8-.3.2-1.2-.3-1.2-.7 0-.2.3-.8.4-1 .6-.6 1.8.6 2.1 2.1.3 1.4.3 1.4.7-.4.3-1.3.5-1.8.9-2.2.6-.7 1.8.7 1.2 1.5zm-15.7-.4q-.1 1.3 1.4.6c.8-.5.7-.8-.3-1.5-.8-.4-1-.3-1.1.9zm46.3 0c-.5.2-.5.5.1.9s.7.4.7-.2c0-.4 0-.6-.2-.7-.2-.2-.2-.2-.6 0zm-26.6 0s-.1.4-.3.8c-.5 1.7-.6 3-.2 3.4q.4.4.9-.6c.1-.1.2-.3.3-.3.2 0-.3 1.5-.7 1.9-.3.3-.7.3-.9.1-.7-.5-.5-2.8.6-5.1.1-.3.3-.4.3-.2zm46.8-.1c.4 0-.2 1-.7 1.3-.3 0-3 1.1-6 2.2-5.5 2.1-7.9 3-8.9 3.5l-.5.2.1-.6c.1-.3.3-.7.3-.7s3.6-1.4 7.8-3c4.3-1.6 7.8-2.9 7.9-2.9zm-79 1.4-.3.7.2.1c1.9 1.3 1.7 4.2-.3 4.7-1.3.3-1.7-.6-1.2-2.7.3-1.4 1.2-3.6 1.5-3.7.5-.4.5 0 .1.9zm111 .3q.4.6 0 1.3l-.2.3-.4-.4c-.4-.4-.4-.4-.7-.3-.2.1-.5.9-.8 2.5-.4 1.9-1 3.1-1 2.1s-1.3-3.6-1.6-3.3c-.3.2-1.4-.4-1.4-.8 0-.3.6-1.3.9-1.3.8-.1 1.8 1.2 2.2 2.9.2 1 .2 1.1.3.8q.7-3.6 1.4-4.2c.4-.3.8-.2 1.3.4zm-89.2 2.8c-.2.3-.3.3-.7-.1-.6-.5-.9-.1-1.2 1.8-.4 1.9-.8 2.8-1 2.1-.1-.8-.2-1.1-.6-1.9-.4-1-.5-1.2-.8-1-.4.2-1.2-.4-1.1-.9.4-1.9 2.3-.7 2.6 1.7.1.6.2.8.3.5.6-2.6.9-3.5 1.4-3.7.7-.3 1.4.7 1.1 1.5zm-22.9-.6c-.2.6-.2 1.5.1 1.6s1.1-.1 1.4-.4l.4-.3-.2-.3c-.1-.1-.5-.4-.8-.6-.7-.5-.7-.5-.9 0zm98.1 5.4c-.5.3-.5.2-.1-.2.8-.7 1.7-2.1 1.7-2.5 0-.5-.5-.7-1-.4-.4.2-.4.1-.2-.5.1-.5.5-.9.8-1 2.1-.4 1.2 2.9-1.2 4.6zm-89.3-2.5c.3.8-.8 2.7-2.2 3.7-.7.5-.7.4 0-.3 1.4-1.6 1.7-2.2 1.3-2.7-.1-.1-.7-.2-.9 0s-.3.1-.2-.3q.2-.8.6-1c.6-.4 1.2-.1 1.4.6zm72.5 1.1c-.2.3-.3.3-.7-.1-.6-.7-1-.1-1.5 2.2-.3 1.8-1 3.2-1 2.2 0-1.1-1.3-3.7-1.6-3.3-.3.3-1.5-.5-1.3-.9.2-.7.6-1.2.8-1.2.8-.1 1.8 1.2 2.1 2.7.3 1 .3 1.1.4 1 0 0 .1-.1.1-.3 0-.9.8-3.5 1.3-3.9.8-.6 1.9.6 1.4 1.6zm-38.2-1.5-.4-.2-.1.4q-.8 1.7.5 1.6c1.1-.1 1.4-.6.8-1.2-.2-.2-.6-.5-.8-.6zm27.7 1.2c0 .1-.2.4-.3.7-.7 1.3-1.2 3.3-1.1 4.2.2 1.1.8 1.3 1.3.3s.6-.2.1.9c-.8 1.7-2 1.3-2-.7 0-1.3.9-4.1 1.6-5.1.2-.3.4-.4.4-.3zm34.3.7c-.8 2.2-1 3.9-.4 4.3.4.3.6.1 1-.5.4-.8.5-.7.2.4-.7 2.3-2.3 1.9-2.2-.5.1-1.2.8-3.4 1.4-4.2.2-.4.2-.1 0 .5zm-44 .6c2 1.2 2 1.2 1.2 2.6-.6 1.1-.5 1-1.4.4-.8-.6-1.5-1-1.5-1-.1 0-.3.4-.5.8s-.4.8-.4.9c-.1.1-.3 0-2.4-1.5l-.2-.2.3-.7c.2-.4.5-.9.5-1 .2-.8 1.1-.5 2.5.8l.3.3.3-.7c.1-.3.3-.6.3-.7 0 0 0-.2.1-.3.2-.2.2-.2.9.3zm-60.5 2.3c.9.6.9.6.2 1.9-.7 1.1-.6 1.1-1.2.7-.6-.5-1.8-1.3-1.8-1.3-.1 0-.3.4-.5.9-.5 1-.4 1-1.2.4-.3-.2-.8-.6-1.1-.8-.7-.5-.7-.4-.3-1.2.1-.3.3-.7.4-1s.3-.5.3-.6c.2 0 1.7 1 2.2 1.4l.3.3.2-.4c.1-.2.2-.6.4-.9.2-.7.2-.7 2.1.6zm87.2-.3c1.2.9 1.6 1.2 1.6 1.4 0 .1-1.1 2.1-1.2 2.1 0 0-.6-.3-1.2-.8-.6-.4-1.2-.7-1.2-.7s-.2.4-.4.8-.4.8-.5.9c0 0-1.1-.7-2.3-1.5l-.2-.2.4-.9c.3-.5.5-1 .5-1.1s.1-.3.2-.3 1.7.9 2.1 1.4l.3.3.3-.6c.2-.4.3-.7.3-.7 0-.1.1-.2.1-.3.3-.3.4-.3 1.2.2zm20.9 4.3v.8h.2c.8-.3 3.1-1.6 3.5-2.1.5-.6-.2-2.8-1-3.2-1.1-.6-2.5 1.8-2.7 4.5zm-98.9-.6c-.2.1-.2.1-.5-.2-.8-.8-1.1-.4-1.6 2.2-.3 1.4-.5 2-.8 2.3-.2.1-.2.1-.3-.6-.1-1.2-1.1-3.2-1.5-3-.4.3-1 0-1.3-.6-.1-.3.5-1.5.8-1.5 1 0 1.9 1.3 2.2 3.1.2.9.3 1 .4.3.2-1.6.9-3.6 1.3-3.9 1-.6 2.1 1.1 1.3 1.9zm104.1 8.4c-.4.8-1 .7-2.2-.3l-.5-.4-.2.5c-.8 2-3.7 4.2-6.3 4.8-.5.1-1.5.3-2.3.5-2.3.6-2.5.5-.6-.3 6.3-2.7 8-3.7 9-5.6.4-.7.6-1 .7-1s.3-.2.4-.4c.2-.3.4-.5.5-.6 1.2-.7 2.2 1.3 1.5 2.8zm-101.3-1.8c1.2 1.6 3.6 2.5 2.9 1-.4-.7-1.2-1.3-2.3-1.7-1.1-.3-1.2-.2-.6.7zm21.4.5c.5.5.3 1-1.5 2.9-1.3 1.4-1.5 1.6-1.4 2 .2.6 2.2.7 4.2.2 1.5-.4 1.5-.3.4.5-1.4.9-3.5 1.3-4.3.8-1.4-.7-1.1-2 .8-4 1.2-1.3 1.2-1.4.1-1.5-.6-.1-.8-.1-1.2 0-.5.2-.5.2-.2-.4s.4-.7.8-.8c.7-.2 1.9-.1 2.3.3zm78.3-.2c-.2.2-.2.2 0 .3.2.2 1 .6 1.2.6s0-.6-.4-.9c-.3-.3-.5-.3-.8 0zm-112.3 2.8c-.3.6-.4.6-1.1.5h-.7l-.3.4c-.7.8-2.3 1.9-3.8 2.4-.3.1-.7.3-1 .4s-.5.2-.5.1.2-.2 2.6-1.6c2.5-1.5 2.8-1.8 2.2-1.9-.5-.2-.8-.8-.5-1.5.1-.2.1-.6.1-.9-.1-.4 0-.4.2-.6 1-.7 3.4 1.5 2.8 2.7zm99.1-1.9c-.1.4-.3.5-.5.3-.4-.3-1.7.3-2.8 1.5q-1.1 1.1 2.4.5c2.3-.5 3.5.4 2.7 2-.2.6-.4.6-1.6 1-3.3.8-4.5.8-5.4-.2-.4-.4-.5-.7-.2-.6 1 .4 1.8.4 4 0 3.3-.6 3.2-.5 2.6-1-.4-.3-1.2-.3-2.5-.1q-2.8.5-3-.3c-.2-.9 1.8-3.4 3.1-3.9 1-.4 1.6 0 1.2.8zm-73.7-.1c.4.4.6.7.4 1.2-.1.6-.3.6-.7.2-.7-.7-1.1-.2-1.5 2.1-.5 2.2-1.1 3.4-1.1 2 0-.3-.6-1.8-.9-2.6-.3-.5-.6-.6-.7-.4-.2.3-1.3-.4-1.3-.8 0-.2.5-1.3.7-1.4.7-.4 2 1.3 2.3 3 .2 1 .3 1.1.4.5.3-2.1 1-3.9 1.6-4.1.3-.1.4-.1.8.3zm23.9 1.6c-.2.3-.2.3-.6-.1-.6-.8-1-.3-1.5 2.1-.3 1.5-.5 2.1-.7 2.3q-.3.4-.3-.1c0-.5-1-3-1.4-3.3-.1-.1-.1-.1-.3 0-.3.3-1.3-.3-1.3-.7 0-.3.7-1.4.9-1.4.9 0 1.8 1.3 2.2 2.9.1.9.2 1.1.3.8.6-2.9 1-3.9 1.5-4.3.8-.4 1.8.9 1.2 1.8zm-51.9-.9c-.3.4-.3.6.1.7q1 .4.6-.6-.2-.6-.7-.1zm1.1.6c0 .3 0 .4.2.4.7.1.9.2.9.1s-.2-.5-.4-.7c-.5-.6-.6-.5-.7.2zm11.5.1c-.5 1.8-.7 2.9-.3 3.4.2.4.5.3.9-.3q.7-1 .2.3c-.4 1.4-1.3 1.8-1.7.8-.4-.9.2-3.7.9-4.7.3-.4.3-.3 0 .5zm51.5-.3c-.8 2-1 3.6-.4 3.9.2.1.4 0 .6-.4.5-.7.6-.5.2.6-.2.6-.6.9-1 .9-.9-.1-.9-2.3.2-4.6.2-.5.6-.9.4-.4zm10 1.2c-.1.4-.2.5-.5.1-.6-.6-.9-.2-1.3 1.6-.2 1.3-.4 1.7-.6 1.9-.1.3-.3.2-.3-.2 0-.5-.8-2.4-1-2.5-.1 0-.2 0-.3 0-.2.2-.9-.2-.9-.6-.1-.3.3-1.1.6-1.1.8 0 1.6 1.2 1.8 2.6q.1.9.3-.1c.4-1.7.8-2.8 1.1-3 .6-.3 1.4.6 1.1 1.3zm19.1.2-.2.2-.3-.3c-.5-.6-.8-.2-1.2 1.7q-.4 1.9-.7 2-.1 0-.1-.2c0-.1-.2-.6-.3-1.1-.5-1.3-.8-1.8-1.1-1.6-.1.2-.4.1-.7-.3l-.3-.3.2-.5c.3-.6.4-.7.9-.5.6.3 1 .9 1.3 2.2.1.5.3.8.3.7 0 0 .1-.6.3-1.2.3-1.4.6-2 .9-2.2.7-.4 1.5.7 1 1.4zm-9.7-.6q-.6 1.7-.5 2.5c.2.8.8.9 1.1 0 .2-.4.4-.3.3.1-.3 1.4-1 2-1.6 1.4-.3-.3-.3-1.9 0-2.8.2-.7.6-1.8.8-2s.1 0-.1.8zm-5 1.2c1 .6 1 .7.3 1.9s-.5 1.1-1.8.2c-.6-.4-1.2-.8-1.2-.8-.1 0-.1-.2.2-.8.2-.4.4-.9.5-1.1.3-.7.4-.6 2 .6z"/><path d="m50.9-6.7v.3q-.1.2-.1-.1c0-.2 0-.3.1-.2zm-.1 8v.4q-.1.2-.1-.2c0-.2 0-.3.1-.2zm-14.5 16.1.3.3-.3-.3c-.2-.1-.3-.2-.3-.3 0 0 .1 0 .3.3zm27.4 2.3v.9c0 .2 0 0 0-.5 0-.4 0-.6 0-.4zm29.6 7.9v.3q0 .1 0-.1 0-.3 0-.2z"/><path d="m50.9-6v.4c-.1.2-.1.1-.1-.2 0-.2 0-.3.1-.2zm-.1 8v.3q-.1.2-.1-.1c0-.2 0-.3.1-.2zm70.6 13.8c.1.2.1.4 0 .6 0 .2 0 .1 0-.3 0-.3 0-.4 0-.3zm-99 11.6v.4q-.1.1-.1-.2c0-.2 0-.3.1-.2z"/><path d="m50.9-4.9v.5c-.1.2-.1.1-.1-.2s0-.4.1-.3zm-18.6 4.4v.3q-.1.2-.1-.1c0-.2 0-.3.1-.2zm18.5 3.3v.6c-.1.2-.1.1-.1-.3s0-.5.1-.3zm12.8 7.6v.4q0 .1 0-.2c0-.2 0-.3 0-.2zm-6.3 4.9c.2 0 .3 0 .2 0-.1.1-.2.1-.4 0q-.1 0 .2 0zm30.1 4.8c.1 0 0 .1-.3.3l-.3.3.3-.3c.1-.2.3-.3.3-.3zm-5.1 2.3c.3 0 .4 0 .2.1-.1 0-.3 0-.4 0-.1-.1 0-.1.2-.1z"/></g></svg>