<svg height="512" viewBox="0 0 512 512" width="512" xmlns="http://www.w3.org/2000/svg"><path d="m465.3 69h2c11 0 20 9 20 20v46.1h-22z" fill="#f3efdf"/><path d="m421.3 91v-22h46c11 0 20 9 20 20v2z" fill="#f3efdf"/><path d="m443.3 179.1h-22v-110.1h22z" fill="#f3efdf"/><path d="m487.3 157.1v22h-110.1v-22z" fill="#f3efdf"/><path d="m377.2 25h22v154.1h-22z" fill="#f3efdf"/><path d="m25 47v-2c0-11 9-20 20-20h354.2v22z" fill="#f3efdf"/><path d="m25 45c0-11 9-20 20-20h2v66h-22z" fill="#f3efdf"/><path d="m333.2 69h22v110.1h-22z" fill="#f3efdf"/><path d="m333.2 135.1v-22h66v22z" fill="#f3efdf"/><path d="m333.2 179.1v-22h66v22z" fill="#f3efdf"/><path d="m289.2 113.1h2c11 0 20 8.9 20 20v46h-22z" fill="#f3efdf"/><path d="m245.1 135.1v-22h46.1c11 0 20 8.9 20 20v2z" fill="#f3efdf"/><path d="m201.1 179.1v-22h110.1v22z" fill="#f3efdf"/><path d="m245.1 113.1h22.1v66h-22.1z" fill="#f3efdf"/><path d="m201.1 69h22v110.1h-22z" fill="#f3efdf"/><path d="m157.1 113.1h22v66h-22z" fill="#f3efdf"/><path d="m179.1 69v22h-44v-22z" fill="#f3efdf"/><path d="m179.1 157.1v22h-154.1v-22z" fill="#f3efdf"/><path d="m135.1 113.1v22h-110.1v-22z" fill="#f3efdf"/><path d="m25 113.1h22v66h-22z" fill="#f3efdf"/><path d="m421.3 47v-22h46c11 0 20 9 20 20v2z" fill="#f7aa55"/><path d="m245.1 91v-22h66.1v22z" fill="#f7aa55"/><path d="m25 91v-22h88.1v22z" fill="#f7aa55"/><g fill="#f3efdf"><path d="m487.3 355.2h-22v-154.1h22z"/><path d="m443.3 355.2h-22v-154.1h22z"/><path d="m443.3 333.2v22h-66.1v-22z"/><path d="m443.3 333.2v22h-110.1v-22z"/><path d="m355.2 355.2h-22v-66h22z"/><path d="m333.2 311.2v-22h46c11.1 0 20 8.9 20 20v2z"/><path d="m377.2 289.2h2c11.1 0 20 8.9 20 20v90h-22z"/><path d="m399.2 377.2v22h-154.1v-22z"/><path d="m311.2 333.2v22h-110.1v-22z"/><path d="m311.2 355.2h-22v-110.1h2c11 0 20 9 20 20z"/><path d="m291.2 245.1c11 0 20 9 20 20v2.1h-66.1v-22.1z"/><path d="m245.1 245.1h22.1v66.1h-22.1z"/><path d="m245.1 311.2v-22h66.1v22z"/><path d="m267.2 223.1v-22h44v22z"/><path d="m223.1 377.2v22h-178.1c-11 0-20-8.9-20-20v-2z"/><path d="m47 399.2h-2c-11 0-20-8.9-20-20v-178.1h22z"/><path d="m25 223.1v-22h220.1v22z"/><path d="m223.1 399.2h-22v-110h2c11.1 0 20 8.9 20 20z"/><path d="m203.1 289.2c11.1 0 20 8.9 20 20v2h-66v-22z"/><path d="m157.1 289.2h22v66h-22z"/><path d="m157.1 355.2v-22h66v22z"/><path d="m201.1 267.2v-22.1h22v22.1z"/></g><path d="m69 268.6v-23.5h110.1v23.5z" fill="#f7aa55"/><path d="m69 311.2v-22h66.1v22z" fill="#f7aa55"/><path d="m69 355.2v-22h66.1v22z" fill="#f7aa55"/><path d="m333.2 223.1v-22h66v22z" fill="#f7aa55"/><path d="m333.2 267.2v-22.1h66v22.1z" fill="#f7aa55"/><path d="m421.3 399.2v-22h66v2c0 11.1-9 20-20 20z" fill="#f7aa55"/><path d="m80.4 433.9q5.2-.1 9.1 1.9 3.9 1.9 6.2 5.3 2.2 3.4 2.3 7.5 0 4.8-2.1 8.4-2.1 3.5-5.5 6.3l-2.4-2.4 15.4-.2.1 8.4-1.3 1.3-11.6.1q-4.4.1-7.6-1-3.2-1.2-5.5-3.3l8.3-.3q-3.5 2.6-7.4 3.7-3.9 1.1-8.6 1.2l-10.3.1q-5.9.1-12.1-.2-6.1-.3-12.9-1.9-1.2-.3-2.7-.7-1.5-.4-2.9-.8-1.4-.5-2.2-.9l2.2-9.2h.7q.7.3 2 .8 1.3.5 2.6.8 1.3.4 2 .7 3.4.9 7.5 1.3 4.1.3 8.3.4 4.2 0 7.4 0l15.1-.2-2.5 2.5q-3.7-2.8-6.3-6.6-2.5-3.7-2.5-8.1-.1-3.2 1.3-5.8 1.3-2.7 3.7-4.7 2.4-2 5.5-3.2 3.1-1.2 6.7-1.2zm-9.4 17.1 1-8.4q.6 3.7 2 6.8 1.3 3 2.9 5.3 1.7 2.3 3.3 3.9 1.7 1.5 2.9 2.2l-3.4 1q2-1.2 3.6-3.1 1.6-1.9 2.6-4.1.9-2.3.9-4.5 0-1.9-.8-3.4-.7-1.6-2.2-2.6-1.4-1-3.4-1-1.6 0-3.4.8-1.7.8-3.3 2.5-1.5 1.7-2.7 4.6zm9-20.9q-2.2.1-3.7-1.3-1.5-1.3-1.5-3.8 0-2.5 1.4-3.8 1.5-1.4 3.7-1.4 2.1 0 3.6 1.3 1.5 1.3 1.5 3.8.1 2.4-1.4 3.8-1.5 1.4-3.6 1.4zm20.8 31.9 1.3-1.3 12.6-.1-2.4 1.5q-2.8-2.1-4.8-5.3-1.9-3.3-2-7.6 0-4.9 2.3-8.3 2.4-3.6 6.6-5.5 4.3-1.9 9.8-2 3.3 0 7.2.6 3.9.6 7.7 1.9l.3.5q-.2 1.2-.4 3.1-.1 2-.2 4 0 2 0 3.3l.2 21.1-.2.5q-2 .8-4.8 1.3-2.9.4-7 .4l-26.1.3zm15.9-12.6q.1 3 1.8 5.7 1.8 2.6 4.9 4.3 3.2 1.7 7.2 1.6l-3 3.8-.2-15.5q0-2.6.2-4.5.2-1.9.7-3.5l1 2.4q-.6-.2-1.5-.4-.7-.3-1.8-.5-1-.2-2.3-.2-3.3 0-5.2 2.1-1.8 1.9-1.8 4.7zm14-21.4q-2.1 0-3.7-1.3-1.5-1.4-1.5-3.8-.1-2.5 1.4-3.8 1.6-1.4 3.7-1.4 2.2 0 3.7 1.3 1.5 1.3 1.5 3.8 0 2.4-1.4 3.8-1.5 1.4-3.7 1.4zm-11.8 1.5q-2.1 0-3.6-1.3-1.5-1.4-1.6-3.8 0-2.5 1.5-3.8 1.5-1.4 3.6-1.4 2.2-.1 3.7 1.3 1.5 1.3 1.5 3.8 0 2.4-1.5 3.8-1.4 1.4-3.6 1.4zm28.7 25.5q0-3.8 1.3-7.1 1.4-3.4 3.7-5.9 2.4-2.6 5.5-4.1 3.1-1.5 6.5-1.5 3.4-.1 6.6 1.7 3.4 1.6 6.1 4.8 2.7 3.1 4.3 7.6 1.7 4.4 1.8 9.8.1 8.5-2.5 14.3-2.6 5.9-7.3 9-4.7 3-11.4 3.1-4.2 0-7.4-.7-3.1-.8-4.9-1.5-1.7-.8-1.7-.8l3.2-8.9h.8q2.7 1.3 5.7 1.8 3.1.5 5.1.4 2.9 0 5-.5 2.2-.6 3.9-1.8l-3 2.7q1.1-1.3 1.8-3.3.8-2 1.1-5.1.4-3 .3-7.7 0-3-.6-5.7-.6-2.8-1.9-5.2-1.4-2.4-3.4-4.2-2-2-4.7-3.2h5.4q-4.3 1.3-6.5 4.3-2.2 2.9-2.2 6.3 0 1.6 1 3.2.9 1.5 2.8 2.5 1.9 1 4.8.9h6.4l.5-.3 14.8-.2.1 8.4-1.3 1.3-21 .3q-5.4.1-9.6-1.5-4.2-1.8-6.6-5-2.5-3.4-2.5-8.2zm46.9 14.4h-8.5l-.1-8.3 1.3-1.3 12-.2-3.7 1.8q-.8-.7-1.2-2.6-.2-1.8-.3-4.6l-.3-33.1 10.7-1.3h.7l.4 37.4q0 1.3 0 3.2.1 1.9.2 3.8.1 1.8.4 2.9v.6q-1.9.8-4.7 1.2-2.8.4-6.9.5zm21.4-.3-.6-48.2 11.8-1.3.2.6q-.3 1.1-.4 2.9 0 1.7-.1 3.5.1 1.9.1 3.2l.4 39.2zm37.3-5.2 2.2-9.3h.7q.7.3 2 .8 1.3.5 2.6.8 1.3.4 2 .7 3.5.9 7.6 1.3 4.2.4 8.2.4 4 .1 6.8 0l26.7-.3-3.7 1.8q-.8-.7-1.2-2.6-.2-1.8-.3-4.6l-.2-18.4 10.7-1.3h.7l.3 22.7q0 1.3 0 3.2.1 1.9.2 3.8.1 1.8.4 3l-.2.5q-1.9.8-5 1.2-3.1.4-7.2.5l-21.1.2q-5.8.1-11.6-.2-5.7-.3-12.8-1.9-1.2-.3-2.7-.6-1.5-.5-2.9-.9-1.4-.5-2.2-.8zm39.7-24.7q-2.1 0-3.7-1.3-1.5-1.4-1.5-3.8 0-2.4 1.5-3.8 1.5-1.3 3.6-1.4 2.2 0 3.7 1.4 1.5 1.2 1.5 3.7.1 2.4-1.4 3.8-1.5 1.4-3.7 1.4zm-11.7 1.5q-2.2 0-3.7-1.3-1.5-1.4-1.5-3.8-.1-2.4 1.4-3.8 1.5-1.4 3.6-1.4 2.2-.1 3.7 1.3 1.5 1.3 1.5 3.8.1 2.4-1.4 3.8-1.5 1.4-3.6 1.4zm66.1 26.9-9.3.1-.1-9.6 10.5-.2.1 8.4zm-18.5.2-.6-48.2 11.8-1.3.2.6q-.3 1.1-.4 2.9 0 1.7-.1 3.6 0 1.8.1 3.1l.4 39.2zm41.9-33.3q6.1-.1 10.5 2.1 4.5 2.2 6.9 6.1 2.4 3.8 2.5 8.7 0 4.9-2.2 8.9-2.2 3.9-6.2 6.3-4 2.3-9.4 2.4-3.5 0-6.9-.9-3.3-1-6.4-3.1-2.9-2.1-5.4-5.4l8.4-6.5q2 1.9 4.6 3.4 2.6 1.4 5.4 2.2 2.8.8 5.4.8 1.2.1 1.8.1.6-.1 1-.1l-5.4 3.2q1.9-2.1 3-4.5 1.2-2.5 1.2-5.5-.1-2.8-1.8-4.8-1.7-2-4.7-2.9-2.9-1.1-6.6-.9l2.1-2q-.4 5.8-1.5 10.6-1 4.7-3.3 7.9-2.3 3.3-6.3 5.1-3.9 1.8-10 1.9l-.1-8.4 1.3-1.3q3.7 0 5.6-2.2 1.9-2.2 2.9-6.7 1-4.6 1.7-11.7l.9-.8q2.4-.8 5.3-1.4 2.8-.6 5.7-.6zm68.8 27.1-4.4-4.7 13.1-.1.1 8.4-1.3 1.3-52.2.6v-.8l3.2-9 15.6-.1-3.6 1.8q-.8-.8-1.1-2.6-.3-1.9-.3-4.6l-.3-19.5 10.7-1.2h.8l.3 30.7-4.5-4.7 17.3-.1-3.5 1.7q-.8-.7-1.1-2.5-.4-1.9-.4-4.6l-.4-33.1 10.8-1.3h.7zm41.8 4.5-34.3.4-.1-8.4 1.3-1.3 13.4-.2-1.4 4q-2.1-.7-3.8-2-1.6-1.4-2.5-3.4-1-2-1-4.5 0-2.3.9-4.7.9-2.4 3.2-4.9 2.3-2.6 6.4-5.5 4.1-3.1 10.2-6.6h.8l2.9 9.6q-4.7 3.1-7.9 5.5-3.1 2.3-4.7 4.2-1.5 1.9-1.5 3.8 0 2 1.6 3.2 1.6 1.3 4.5 1.2l15.4-.1v.7z" fill="#f3efdf"/></svg>