<svg height="109" viewBox="0 0 109 109" width="109" xmlns="http://www.w3.org/2000/svg"><path d="m86.6 25h.3c1.8 0 3.2 1.4 3.2 3.1v7.3h-3.5z" fill="#fff"/><path d="m79.6 28.4v-3.4h7.3c1.8 0 3.2 1.4 3.2 3.1v.3z" fill="#fff"/><path d="m79.6 25h3.5v17.4h-3.5z" fill="#fff"/><path d="m72.7 38.9h17.4v3.5h-17.4z" fill="#fff"/><path d="m72.7 18h3.4v24.4h-3.4z" fill="#fff"/><path d="m17 21.5v-.3c0-1.8 1.4-3.2 3.1-3.2h56v3.5z" fill="#fff"/><path d="m17 21.2c0-1.8 1.4-3.2 3.1-3.2h.4v10.4h-3.5z" fill="#fff"/><path d="m65.7 25h3.5v17.4h-3.5z" fill="#fff"/><path d="m65.7 31.9h10.4v3.5h-10.4z" fill="#fff"/><path d="m65.7 38.9h10.4v3.5h-10.4z" fill="#fff"/><path d="m58.8 31.9h.3c1.7 0 3.1 1.4 3.1 3.2v7.3h-3.4z" fill="#fff"/><path d="m51.8 35.4v-3.5h7.3c1.7 0 3.1 1.4 3.1 3.2v.3z" fill="#fff"/><path d="m44.8 38.9h17.4v3.5h-17.4z" fill="#fff"/><path d="m51.8 31.9h3.5v10.5h-3.5z" fill="#fff"/><path d="m44.8 25h3.5v17.4h-3.5z" fill="#fff"/><path d="m37.9 31.9h3.4v10.5h-3.4z" fill="#fff"/><path d="m34.4 25h6.9v3.4h-6.9z" fill="#fff"/><path d="m17 38.9h24.3v3.5h-24.3z" fill="#fff"/><path d="m17 31.9h17.4v3.5h-17.4z" fill="#fff"/><path d="m17 31.9h3.5v10.5h-3.5z" fill="#fff"/><path d="m79.6 21.5v-3.5h7.3c1.8 0 3.2 1.4 3.2 3.2v.3z" fill="#cdad80"/><path d="m51.8 25h10.4v3.4h-10.4z" fill="#cdad80"/><path d="m17 25h13.9v3.4h-13.9z" fill="#cdad80"/><g fill="#fff"><path d="m86.6 45.8h3.5v24.4h-3.5z"/><path d="m79.6 45.8h3.5v24.4h-3.5z"/><path d="m72.7 66.7h10.4v3.5h-10.4z"/><path d="m65.7 66.7h17.4v3.5h-17.4z"/><path d="m65.7 59.8h3.5v10.4h-3.5z"/><path d="m65.7 63.3v-3.5h7.3c1.7 0 3.1 1.4 3.1 3.1v.4z"/><path d="m72.7 59.8h.3c1.7 0 3.1 1.4 3.1 3.1v14.3h-3.4z"/><path d="m51.8 73.7h24.3v3.5h-24.3z"/><path d="m44.8 66.7h17.4v3.5h-17.4z"/><path d="m62.2 70.2h-3.4v-17.4h.3c1.7 0 3.1 1.4 3.1 3.2z"/><path d="m59.1 52.8c1.7 0 3.1 1.4 3.1 3.2v.3h-10.4v-3.5z"/><path d="m51.8 52.8h3.5v10.5h-3.5z"/><path d="m51.8 59.8h10.4v3.5h-10.4z"/><path d="m55.3 45.8h6.9v3.5h-6.9z"/><path d="m48.3 73.7v3.5h-28.2c-1.7 0-3.1-1.4-3.1-3.2v-.3z"/><path d="m20.5 77.2h-.4c-1.7 0-3.1-1.4-3.1-3.2v-28.2h3.5z"/><path d="m17 45.8h34.8v3.5h-34.8z"/><path d="m48.3 77.2h-3.5v-17.4h.3c1.8 0 3.2 1.4 3.2 3.1z"/><path d="m45.1 59.8c1.8 0 3.2 1.4 3.2 3.1v.4h-10.4v-3.5z"/><path d="m37.9 59.8h3.4v10.4h-3.4z"/><path d="m37.9 66.7h10.4v3.5h-10.4z"/><path d="m44.8 52.8h3.5v3.5h-3.5z"/></g><path d="m23.9 52.8h17.4v3.7h-17.4z" fill="#cdad80"/><path d="m23.9 59.8h10.5v3.5h-10.5z" fill="#cdad80"/><path d="m23.9 66.7h10.5v3.5h-10.5z" fill="#cdad80"/><path d="m65.7 45.8h10.4v3.5h-10.4z" fill="#cdad80"/><path d="m65.7 52.8h10.4v3.5h-10.4z" fill="#cdad80"/><path d="m79.6 77.2v-3.5h10.5v.3c0 1.8-1.4 3.2-3.2 3.2z" fill="#cdad80"/><path d="m25.7 82.7q.9-.1 1.5.3.6.3 1 .8.3.5.3 1.2 0 .7-.3 1.3-.2.3-.5.6h1.5 1.3q-.3-.3-.5-.6-.3-.5-.3-1.2 0-.8.4-1.3.4-.6 1-.9.7-.3 1.6-.3.5 0 1.1.1.6.1 1.2.3h.1q-.1.2-.1.5 0 .4 0 .7 0 .3 0 .5v3.3.1q-.3.1-.8.2-.4.1-1.1.1h-3.9-1.8q-.7.1-1.2-.1-.2-.1-.4-.2-.2.1-.4.2-.6.2-1.3.2h-1.7q-.9 0-1.9 0-.9-.1-2-.3-.2-.1-.4-.1-.3-.1-.5-.2-.2 0-.4-.1l.4-1.5h.1q.1.1.3.2.2 0 .4.1.2.1.4.1.5.1 1.1.2.7.1 1.3.1.7 0 1.2 0l1.6-.1q-.3-.3-.6-.6-.4-.6-.4-1.3 0-.5.2-.9.2-.4.6-.8.4-.3.9-.5.5-.1 1-.1zm2 4.2h-.8l.4.4q.2-.2.4-.4zm-1.9 1.2q.4-.1.8-.4l-1.3.1q.2.2.5.3zm-1.8-1.2q.2.3.4.4l.4-.4zm.6-2.2q-.1-.3-.1-.7l-.2 1.3q.1-.3.3-.6zm.2.4q.2.5.4.8.3.4.5.6.2.2.3.3.1-.1.2-.2.3-.3.4-.7.2-.4.2-.7 0-.3-.1-.5-.1-.3-.4-.4-.2-.2-.5-.2-.3 0-.6.1-.2.1-.5.4 0 .1-.1.1.1.2.2.4zm1.2 1.7q-.1.1-.3.3l.5-.2q-.1-.1-.2-.1zm-.3-4.8q-.3.1-.6-.2-.2-.2-.2-.6 0-.4.2-.6.3-.2.6-.2.3 0 .6.2.2.2.2.6 0 .4-.2.6-.3.2-.6.2zm4.9 4.9q.1.1.2.2l.4-.2zm1-1.8q0 .5.3.9.2.4.7.7.3.1.7.2v-1.8q0-.4 0-.7 0-.2 0-.3 0 0 0 0-.1 0-.3-.1-.1 0-.3 0-.5 0-.8.3-.3.3-.3.8zm1.7 1.8v.6l.5-.6q-.3 0-.5 0zm0-2.8q.2.1.3.1l-.2-.4q0 .2-.1.3zm.5-2.4q-.3 0-.6-.2-.2-.2-.2-.6-.1-.4.2-.6.2-.2.6-.2.3 0 .6.2.2.2.2.6 0 .4-.2.6-.3.2-.6.2zm-1.9.2q-.3 0-.6-.2-.2-.2-.2-.6 0-.4.2-.6.3-.2.6-.2.4 0 .6.2.2.2.2.6 0 .4-.2.6-.2.2-.6.2zm4.6 4.1q0-.6.2-1.2.2-.5.5-.9.4-.4.9-.6.5-.3 1-.3.6 0 1.1.3.5.3 1 .8.4.4.6 1.2.3.6.3 1.4h.8 1q0-.1-.1-.1 0-.3 0-.8l-.1-5.2 1.7-.2h.1l.1 5.9q0 .2 0 .5 0 .3 0 .6.1.3.1.5v.1q-.3.1-.7.2-.5 0-1.1 0h-1.2l-.7.1q-.1.4-.3.8-.4.9-1.1 1.4-.8.5-1.8.5-.7 0-1.2-.1-.5-.2-.8-.3-.2-.1-.2-.1l.5-1.4h.1q.4.2.9.3.5.1.8.1.4 0 .8-.1.1-.1.3-.1.1-.2.1-.3.1-.3.2-.7h-.9q-.8 0-1.5-.2-.7-.3-1-.8-.4-.6-.4-1.3zm5.6.7h-1.5l-.1.1h-.2q0 .1 0 .2 0 .7 0 1.2 0 0 0 .1h1.7q.1-.7.1-1.5 0 0 0-.1zm-2.1 2.6q-.1.1-.2.2l.5-.4q-.1.1-.3.2zm.2-3.2q-.1-.5-.3-.9-.2-.3-.5-.6-.2-.2-.4-.3-.3.2-.5.5-.4.4-.4 1 0 .2.2.5.1.2.4.4.3.1.8.1h.8q0-.4-.1-.7zm-1.2-1.8q.2-.1.5-.2h-.8q.2.1.3.2zm4.9 2.4q0 .2.1.3l.6-.3zm3.4 1.5-.1-7.6 1.9-.2v.1q-.1.1-.1.4 0 .3 0 .6 0 .3 0 .5l.1 6.2zm5.9-.8.3-1.5h.2q.1 0 .3.1.2.1.4.1.2.1.3.1.5.2 1.2.2.7.1 1.3.1.6 0 1.1 0h3.5q-.1-.1-.1-.2 0-.2 0-.7l-.1-2.9 1.7-.2h.1l.1 3.6q0 .2 0 .5 0 .3 0 .6 0 .3.1.5-.3.2-.8.2-.5.1-1.2.1h-3.3q-.9.1-1.8 0-.9 0-2.1-.3-.2 0-.4-.1-.2-.1-.5-.1-.2-.1-.3-.1zm8.6-.9q0 .2.1.2l.6-.2zm-2.3-3.1q-.3 0-.6-.2-.2-.2-.2-.6 0-.3.2-.6.3-.2.6-.2.3 0 .6.2.2.2.2.6 0 .4-.2.6-.2.2-.6.2zm-1.8.3q-.4 0-.6-.2-.3-.3-.3-.6 0-.4.3-.6.2-.3.5-.3.4 0 .6.3.3.2.3.6 0 .3-.3.6-.2.2-.5.2zm10.4 4.2h-1.1l-1.8.1-.1-7.7 1.9-.2v.1q-.1.2-.1.5 0 .3 0 .6 0 .2 0 .4l.1 4.7h1.3q.6 0 .9-.4.3-.3.5-1 .1-.7.2-1.9l.2-.1q.4-.1.8-.2.5-.1.9-.1 1 0 1.7.3.7.4 1.1 1 .3.6.4 1.4 0 .7-.4 1.4-.3.6-1 1-.6.3-1.5.3-.5 0-1-.1-.6-.2-1.1-.5 0 0 0 0-.1.1-.3.1-.6.3-1.6.3zm1.9-.4q.4-.3.7-.7.3-.3.4-.7-.3-.2-.6-.5l-1.3 1q.4.5.8.9zm1.3-1.3q.4.2.8.3.4.1.8.1.1-.1.1-.2.2-.4.2-.8 0-.5-.3-.8-.2-.3-.7-.5-.3-.1-.7-.1-.1.7-.3 1.4 0 .2-.1.5.1 0 .2.1zm1.6.4q-.1.3-.3.5l.8-.5q-.1 0-.1 0-.1 0-.3 0-.1 0-.1 0zm-1.4-2.4q0-.2 0-.3l-.4.3q.2 0 .4 0zm11.2 2h-.7l.7.8zm-7.1 1.6v-.1l.6-1.5h1.7q0 0 0-.1-.1-.3-.1-.7v-3.1l1.7-.2h.1v4.1h1.4q0-.1-.1-.1 0-.3 0-.8l-.1-5.2 1.7-.2h.1l.1 6.3h1.4l1-.1q-.1-.1-.1-.2-.2-.3-.2-.7 0-.4.2-.8.1-.3.5-.7.3-.4 1-.9.6-.5 1.6-1h.1l.5 1.5q-.8.5-1.3.8-.4.4-.7.7-.2.3-.2.6 0 .3.2.5.3.2.7.2h2.5v.1l-.6 1.4-5.4.1zm2.3-1.6q0 .2.1.3l.6-.3zm1.7 0h-.7l.7.7zm1.3 0q.1.2.2.3l.5-.3zm4.2 0q.1.1.3.3.2.2.6.3l.2-.6z" fill="#fff" fill-rule="evenodd"/></svg>