<svg width="417" height="307" viewBox="0 0 417 307" fill="none" xmlns="http://www.w3.org/2000/svg">
<path d="M209.84 229.6C209.887 229.646 209.95 229.671 210.015 229.671C210.081 229.671 210.143 229.646 210.19 229.6C258.85 180.947 307.52 132.277 356.2 83.59C362.84 76.95 367.633 72.8833 370.58 71.39C376.913 68.1766 383.863 67.3366 391.43 68.87C411.97 73.01 423.24 96.31 413.18 115.08C411.68 117.873 408.35 121.85 403.19 127.01C346.457 183.75 289.723 240.493 232.99 297.24C223.12 307.11 207.82 309.94 195.49 303.47C192.39 301.843 188.04 298.23 182.44 292.63C125.947 236.137 70.61 180.8 16.43 126.62C9.92337 120.113 5.9467 115.463 4.50004 112.67C0.586705 105.103 -0.153296 97.1533 2.28004 88.82C7.99004 69.24 30.34 60.1 48.38 69.87C50.86 71.21 54.6934 74.4766 59.88 79.67C109.887 129.65 159.873 179.627 209.84 229.6Z" fill="#CDAD80"/>
<path d="M210 161.64C210.02 161.64 210.04 161.64 210.06 161.64C210.1 161.633 210.133 161.617 210.16 161.59C258.86 112.93 307.547 64.2566 356.22 15.57C362.687 9.09664 367.477 5.05664 370.59 3.44997C376.99 0.143303 383.917 -0.716695 391.37 0.869971C399.483 2.59664 405.873 6.65664 410.54 13.05C417.81 23 418.99 36.16 413.22 47C411.707 49.84 408.433 53.7733 403.4 58.8C348.34 113.867 293.273 168.933 238.2 224C232.8 229.4 228.723 232.907 225.97 234.52C220.963 237.46 215.64 238.927 210 238.92C204.36 238.927 199.037 237.46 194.03 234.52C191.277 232.907 187.2 229.4 181.8 224C126.733 168.927 71.6701 113.857 16.6101 58.79C11.5767 53.7633 8.30341 49.83 6.79007 46.99C1.02007 36.15 2.20007 22.99 9.47007 13.04C14.1367 6.64664 20.5267 2.58664 28.6401 0.859973C36.0934 -0.726694 43.0201 0.133308 49.4201 3.43997C52.5334 5.04664 57.3234 9.08664 63.7901 15.56C112.463 64.2533 161.15 112.93 209.85 161.59C209.877 161.617 209.91 161.633 209.95 161.64C209.97 161.64 209.987 161.64 210 161.64Z" fill="#404C6E"/>
</svg>
