<svg height="1080" viewBox="0 0 1467 1080" width="1467" xmlns="http://www.w3.org/2000/svg"><path d="m577.8 859-10.7-17.7-27.2-50.9-62.8-27.3-73.4-18.9-113.6-58-35.6-34.4-22.5-54.4-5.9-75.8 9.5-48.5 37.9-59.2 53.3-37.9 50.9-16.6 30.8-42.6 62.7-45 48.1-59.9s120.1-79.9 213.7-81.3 214.1 82.2 214.1 82.2l38 53.1 50.9 30.7 86.4 69.9 45 24.9 42.6 42.6 21.3 48.5 10.7 56.9-7.1 50.9-36.7 82.8-67.5 32-67.5 41.5-105.4 13-67.4 99.8z" fill="#fff"/><g fill="#ba6930" stroke="#000" stroke-linecap="round" stroke-linejoin="round" stroke-width=".4"><path d="m1095.1 310.3s-13.4-65.8 23.6-60.8c37.6 5.1 42.1 30.1 42.1 36.4 0 6.2-2.8 17-39.8 39.7 0 0-4.5-10.8-25.9-15.3z"/><path d="m1068.1 325.5s-61.9-24.2-37.7-52.9c24.7-29.3 47.9-19.5 53-16.1 5.2 3.4 12.7 11.6 11.4 55.4 0 0-11.4-2-26.7 13.6z"/><path d="m1121.2 326.4s45.2-49.1 62.6-15.7c17.6 34 .1 52.2-5 55.8-5 3.6-15.3 7.5-55.1-9.9 0 0 6.1-10-2.5-30.2z"/><path d="m1087.5 775.9s65.7 9.4 48.5 43c-17.4 34-42.2 29.9-48 27.8s-14.9-8.5-23.5-51.4c0 0 11.6-.7 23-19.4z"/><path d="m1082.4 745s43.5-50.8 62-18c18.9 33.3 2 52.1-2.9 55.9s-15.1 8.1-55.4-7.9c0 0 5.7-10.2-3.7-30z"/><path d="m1063.7 795.2s30.4 59.7-6.5 65c-37.6 5.3-48.6-17.6-50.2-23.6-1.7-6-1.9-17.1 27.8-49.1 0 0 7.1 9.2 28.9 7.7z"/></g><path d="m1060.9 326.2s19.1-23.8 49.4-14.8c0 0 23 14.8 17.4 50l-47.7-11.9z" fill="#90a57d"/><path d="m1084.3 737.9s15.7 26.2-3 52c0 0-21.5 16.9-52.4-.3l2.9-31.6z" fill="#90a57c"/><path d="m1099.7 304.6s-2.3-31.8.5-38c2.8-6.3 11.8-19.4 38.2-4 19.3 11.2 20.2 25 2.8 41.5-17.4 16.4-19.7 14.7-19.7 14.7l-3.4-6.2s19.2-27.3 12.4-39.2c0 0-10.1-.6-20.2 32.4z" fill="#f8ab55"/><path d="m1065.8 318.7s-27.6-15.4-31.3-21.2c-3.6-5.8-9.6-20.5 17.4-34.6 19.8-10.3 31.7-3.6 36 20.1 4.2 23.8 1.6 24.7 1.6 24.7l-7-.5s-12.3-31-25.9-31.8c0 0-5.9 8.3 16 34.8z" fill="#f8ab55"/><path d="m1128.3 326.8s24.4-20.2 31-21.5c6.7-1.3 22.4-1.5 25.3 29.2 2.1 22.4-8.4 31.1-31.8 26.3-23.3-4.9-23.2-7.7-23.2-7.7l3.1-6.4s33 0 38.7-12.5c0 0-5.4-8.6-37.8 2.1z" fill="#f8ab55"/><path d="m1091.3 782.1s30.3 8.6 35.1 13.3c4.9 4.8 14 17.8-9.1 37.7-17 14.6-30.1 10.9-39.6-11.3-9.4-22.1-7.1-23.7-7.1-23.7l7-1.1s18.9 27.4 32.3 25c0 0 3.9-9.4-23.3-30.2z" fill="#f8ab55"/><path d="m1089.6 745.1s23.6-21.1 30.2-22.7c6.6-1.5 22.3-2.2 26.3 28.3 2.9 22.3-7.3 31.4-30.8 27.5-23.5-4-23.5-6.9-23.5-6.9l2.8-6.5s33-1.2 38.3-13.9c0 0-5.7-8.4-37.7 3.5z" fill="#f8ab55"/><path d="m1060.9 801.9s10.6 30 9.6 36.8c-1.1 6.8-6.2 21.8-35.7 14.2-21.6-5.5-26.1-18.5-13.7-39.1 12.3-20.6 15-19.6 15-19.6l4.8 5.1s-11.1 31.4-1.4 41.1c0 0 9.9-2.2 10.8-36.7z" fill="#f8ab55"/><path d="m347.5 325.6c-37-22.7-39.8-33.5-39.8-39.7 0-6.3 4.5-31.3 42.1-36.4 36.9-5 23.6 60.8 23.6 60.8-21.4 4.5-25.9 15.3-25.9 15.3z" fill="#ba6930" stroke="#000" stroke-linecap="round" stroke-linejoin="round" stroke-width=".4"/><path d="m373.7 311.9c-1.3-43.8 6.2-52 11.3-55.4 5.2-3.4 28.4-13.2 53 16.1 24.3 28.7-37.6 52.9-37.6 52.9-15.3-15.6-26.7-13.6-26.7-13.6z" fill="#ba6930" stroke="#000" stroke-linecap="round" stroke-linejoin="round" stroke-width=".4"/><path d="m344.7 356.6c-39.7 17.4-50 13.5-55 9.9-5.1-3.6-22.6-21.8-5-55.8 17.4-33.4 62.6 15.7 62.6 15.7-8.7 20.2-2.6 30.2-2.6 30.2z" fill="#ba6930" stroke="#000" stroke-linecap="round" stroke-linejoin="round" stroke-width=".4"/><path d="m404 795.3c-8.6 42.9-17.7 49.3-23.5 51.4s-30.6 6.2-48-27.8c-17.2-33.6 48.5-43 48.5-43 11.4 18.7 23 19.4 23 19.4z" fill="#ba6930" stroke="#000" stroke-linecap="round" stroke-linejoin="round" stroke-width=".4"/><path d="m382.4 775c-40.3 16-50.5 11.7-55.4 7.9s-21.8-22.6-3-55.9c18.6-32.8 62 18 62 18-9.3 19.8-3.6 30-3.6 30z" fill="#ba6930" stroke="#000" stroke-linecap="round" stroke-linejoin="round" stroke-width=".4"/><path d="m433.7 787.5c29.6 32 29.5 43.1 27.8 49.1-1.6 6-12.6 28.9-50.2 23.6-36.9-5.3-6.5-65-6.5-65 21.7 1.5 28.9-7.7 28.9-7.7z" fill="#ba6930" stroke="#000" stroke-linecap="round" stroke-linejoin="round" stroke-width=".4"/><path d="m388.5 349.5-47.7 11.9c-5.6-35.2 17.4-50 17.4-50 30.3-9 49.4 14.8 49.4 14.8z" fill="#90a57d"/><path d="m436.7 759.9 2.9 29.7c-30.9 17.2-52.4.3-52.4.3-18.7-25.8-3-52-3-52z" fill="#90a57c"/><path d="m358.2 305.8c-10.1-33-20.2-32.4-20.2-32.4-6.7 11.9 12.3 39.2 12.3 39.2l-3.3 6.2s-2.3 1.7-19.7-14.7c-17.4-16.5-16.5-30.3 2.8-41.5 26.4-15.4 35.4-2.3 38.2 4 2.8 6.2.5 38 .5 38z" fill="#f8ab55"/><path d="m395.9 310.2c21.9-26.5 16-34.8 16-34.8-13.6.8-25.9 31.8-25.9 31.8l-7 .5s-2.6-.9 1.6-24.7c4.3-23.7 16.2-30.4 36-20.1 27 14.1 21 28.8 17.3 34.6-3.6 5.8-31.2 21.2-31.2 21.2z" fill="#f8ab55"/><path d="m334.9 336.3c-32.4-10.7-37.8-2.1-37.8-2.1 5.7 12.5 38.7 12.5 38.7 12.5l3.1 6.4s.1 2.8-23.3 7.7c-23.3 4.8-33.9-3.9-31.7-26.3 2.9-30.7 18.6-30.5 25.2-29.2 6.7 1.3 31 21.5 31 21.5z" fill="#f8ab55"/><path d="m381.9 791.8c-27.2 20.8-23.3 30.2-23.3 30.2 13.4 2.4 32.3-25 32.3-25l6.9 1.1s2.4 1.6-7.1 23.7c-9.4 22.2-22.5 25.9-39.5 11.3-23.1-19.9-14-32.9-9.2-37.7 4.9-4.7 35.2-13.3 35.2-13.3z" fill="#f8ab55"/><path d="m373.3 754.4c-32-11.9-37.7-3.5-37.7-3.5 5.3 12.7 38.3 13.9 38.3 13.9l2.8 6.5s0 2.9-23.5 6.9c-23.5 3.9-33.8-5.2-30.8-27.5 3.9-30.5 19.7-29.8 26.3-28.3 6.6 1.6 30.2 22.7 30.2 22.7z" fill="#f8ab55"/><path d="m418.2 803.7c.9 34.5 10.8 36.7 10.8 36.7 9.7-9.7-1.5-41.1-1.5-41.1l4.9-5.1s2.7-1 15 19.6c12.4 20.6 7.9 33.6-13.7 39.1-29.5 7.6-34.6-7.4-35.7-14.2-1-6.8 9.6-36.8 9.6-36.8z" fill="#f8ab55"/><path d="m892.7 812.8c8.9-45.4 69.6-72.7 102.5-72.7s230.4-37.8 230.4-192.3c0-168.2-151.1-175.8-151.1-175.8-6-21.2-31.4-60.5-77.8-84.8-46.4-24.2-71.2-53.9-71.2-53.9l13-15.3s26.5 25.7 74.6 48.4c56.7 26.7 77.9 73.8 77.9 78.4 0 0 149.6 15.1 172.1 177.2 6.4 46.5-10.5 97-10.5 97s58.3-10.6 62.8 66.6c0 0-58.5-29.9-85.3 21.2-13.4 25.8-31.4 40.9-58.3 40.9-27 0-22.5-27.2-22.5-27.2s-37.4 43.9-103.2 43.9c0 0 38.9 21.2 38.9 83.3s-53.9 97-100.3 97-55.1 9.2-52.9 27.2c1.7 14.2 14 9.1 14 9.1s-12 3-10.5-12.1c1-9.5 10.9-12.3 18.4-12.3 15.1 0 22.9 15.5 20.5 28.9-2.6 14.8-11.6 25.6-38.5 25.6-18.6 0-33.3-24-33.3-39.2 0-75.7 130.2-42.4 130.2-127.2 0-65.2-139.5-54.3-139.9 34.8-.1 18.6-7.9-26.8 0-66.7z" fill="#90a57c"/><path d="m576.6 879.5c-.4-89.1-139.9-100-139.9-34.8 0 84.8 130.2 51.5 130.2 127.2 0 15.2-14.7 39.2-33.3 39.2-26.9 0-35.9-10.8-38.5-25.6-2.4-13.4 5.4-28.9 20.5-28.9 7.5 0 17.4 2.8 18.4 12.3 1.5 15.1-10.5 12.1-10.5 12.1s12.3 5.1 14-9.1c2.1-18-6.5-27.2-52.9-27.2s-100.3-34.9-100.3-97 38.9-83.3 38.9-83.3c-65.8 0-103.2-43.9-103.2-43.9s4.5 27.2-22.5 27.2c-26.9 0-44.8-15.1-58.3-40.9-26.8-51.1-85.3-21.2-85.3-21.2 4.5-77.2 62.8-66.6 62.8-66.6s-16.9-50.5-10.4-97c22.4-162.1 172.1-177.2 172.1-177.2 0-4.6 21.1-51.7 77.8-78.4 48.1-22.7 73.5-47.7 73.5-47.7l12.9 14.3s-23.6 30-70 54.2c-46.4 24.3-71.8 63.6-77.8 84.8 0 0-151.1 7.6-151.1 175.8 0 154.5 197.5 192.3 230.4 192.3s93.6 27.3 102.5 72.7c7.9 39.9.1 85.3 0 66.7z" fill="#90a57c"/><path d="m176.8 545.1c33.1-20.1 34.5-62.6 34.5-62.6s20-37.5 1.5-71.5c0 0 48.4 8.2 108.7 101-98.7 50.3-144.7 33.1-144.7 33.1z" fill="#39412a"/><path d="m174 530.1c-18.9 4.8-20 13.4-21.5 19.3-2.2 8.1.3 22.7 22.2 24.5 0 0-23.8-5.3-18.8-23.7 4.9-18.4 21.4-15.4 25.7-14.2 4.4 1.2 30.4 7.2 15.7 42.5-8.1 19.4-24.2 23.6-45.9 17.7-13.7-3.6-37.2-22.5-29.2-52.3 2.6-9.8 8.5-19.8 8.5-19.8s-37.8 5-51.7-35.4c-13.9-40.3-34-50.8-34-50.8s22.6 1.1 54.9-26.9c32.1-28 62.4-4.8 62.4-4.8s-.1-11.6 2.5-21.4c8-29.8 37.7-34.4 51.5-30.7 21.7 5.8 33.6 17.4 30.8 38.3-4.8 37.9-30.4 30.2-34.8 29-4.3-1.2-20.1-6.8-15.2-25.2 5-18.4 28.2-11.1 28.2-11.1-19.8-9.4-29.3 2-31.5 10.1-1.6 5.9-5 13.9 9 27.5 15.8 15.4 2.4 58.2 2.4 58.2s-9.8 43.7-31.2 49.2z" fill="#39412a"/><path d="m131.6 496.4c-25.2-6.7-15.8-35.4-27.9-42.7 14.2-.3 20.4-29.8 45.6-23.1 25.2 6.8 36.2 45 36.2 45s-28.6 27.6-53.9 20.8z" fill="#cdba72"/><path d="m1252.7 412.1c-18.5 34 1.5 71.5 1.5 71.5s1.4 42.4 34.4 62.6c0 0-46 17.1-144.7-33.1 60.4-92.9 108.8-101 108.8-101z" fill="#39412a"/><path d="m1262.7 423.7c13.9-13.6 10.5-21.6 9-27.5-2.2-8.1-11.7-19.5-31.6-10.1 0 0 23.3-7.3 28.2 11.2 4.9 18.4-10.8 24-15.2 25.1-4.4 1.2-30 8.9-34.8-29-2.7-20.9 9.1-32.5 30.9-38.3 13.7-3.7 43.5.9 51.4 30.8 2.7 9.7 2.6 21.4 2.6 21.4s30.2-23.2 62.4 4.7c32.2 28 54.8 27 54.8 27s-20.1 10.4-34 50.8c-13.9 40.3-51.7 35.3-51.7 35.3s5.9 10.1 8.6 19.8c7.9 29.8-15.5 48.7-29.2 52.4-21.8 5.8-37.8 1.7-45.9-17.8-14.8-35.2 11.2-41.3 15.6-42.5 4.4-1.1 20.8-4.2 25.8 14.2 4.9 18.5-18.9 23.8-18.9 23.8 21.9-1.8 24.4-16.5 22.3-24.6-1.6-5.9-2.7-14.5-21.6-19.3-21.4-5.4-31.2-49.2-31.2-49.2s-13.3-42.8 2.5-58.2z" fill="#39412a"/><path d="m1316.2 431.7c25.2-6.8 31.4 22.8 45.5 23-12.1 7.3-2.7 36-27.9 42.8-25.3 6.8-53.8-20.9-53.8-20.9s10.9-38.2 36.2-44.9z" fill="#cdba72"/><path d="m482.5 871.3c7.3 36.5 2.2 44.5-1.6 48.1-3.9 3.6-21.9 15.2-46.7-5.7-24.4-20.5 24-49.9 24-49.9 15.1 10.9 24.3 7.5 24.3 7.5z" fill="#cdba72"/><path d="m457.8 863.8c-33.7 15.1-42.5 11.8-46.8 8.7-4.3-3-19.3-18.4-4.4-47.4 14.6-28.5 53.3 13.1 53.3 13.1-7.3 17.2-2.1 25.6-2.1 25.6z" fill="#cdba72"/><path d="m459.7 838.8c-25.8-26.5-25.8-36-24.6-41.2 1.3-5.1 10.2-24.7 42.3-21 31.4 3.7 6.8 55.1 6.8 55.1-18.5-.8-24.5 7.1-24.5 7.1z" fill="#cdba72"/><path d="m498.7 851.6c36.1 7.4 41.4 15.2 43.1 20.2 1.8 5 5.3 26.3-23.3 41.3-28.2 14.8-36.1-41.7-36.1-41.7 15.7-9.9 16.3-19.8 16.3-19.8z" fill="#cdba72"/><path d="m483.1 832c13.9-34.5 22.5-38.3 27.6-39.1 5.2-.9 26.5-.4 35.8 30.8 9.2 30.8-47.2 28.2-47.2 28.2-6.7-17.5-16.2-19.9-16.2-19.9z" fill="#cdba72"/><path d="m463.7 833.4c8.5-6.3 22.3-8.3 32.2 7.8s1.5 23.3-9.3 30.1-27.1.3-31.1-6.2c-4.1-6.6-3.1-23.5 8.2-31.7z" fill="#39412a"/><path d="m464.1 876c-14.6 25.4-8.4 31.5-8.4 31.5 11.3-2.6 17.1-30.4 17.1-30.4l5.8-1.5s2.4.4 2.2 21c-.2 20.4-9.2 27.8-27.2 22-24.7-7.8-21.8-21-19.6-26.4 2.3-5.4 23.3-22.3 23.3-22.3z" fill="#90a57c"/><path d="m449.3 846.6c-27.5-8.9-32.1-1.6-32.1-1.6 4.9 10.6 33 10.5 33 10.5l2.7 5.4s0 2.4-19.8 6.6c-19.8 4.3-28.8-3.1-27.1-22.2 2.3-26.1 15.7-26 21.3-24.9 5.7 1.1 26.5 18.2 26.5 18.2z" fill="#90a57c"/><path d="m472.6 824.7c-1.5-29.3-9.9-30.9-9.9-30.9-8 8.3 2.1 34.9 2.1 34.9l-4.1 4.4s-2.2.9-13.2-16.3c-10.9-17.3-7.3-28.4 10.9-33.6 25-7 29.6 5.6 30.7 11.4 1 5.7-7.5 31.4-7.5 31.4z" fill="#90a57c"/><path d="m495.8 870.6c17.4 23.4 25.3 20 25.3 20 2-11.5-21-27.8-21-27.8l1-5.9s1.3-2 19.9 6.1 21.7 19.4 9.5 34c-16.8 19.9-27.7 12.1-31.7 7.9s-11.2-30.3-11.2-30.3z" fill="#90a57c"/><path d="m501 838.4c26-13 24.2-21.5 24.2-21.5-10.8-4.1-30.9 15.8-30.9 15.8l-5.6-2.1s-1.8-1.6 9.6-18.6c11.3-17 22.8-18.1 34.8-3.2 16.2 20.4 6.6 29.7 1.8 32.9-4.8 3.3-31.5 5.6-31.5 5.6z" fill="#90a57c"/><path d="m1012.8 861.5s48.4 29.4 24 49.9c-24.8 20.8-42.8 9.3-46.7 5.7-3.8-3.6-8.9-11.6-1.6-48.1 0 0 9.2 3.3 24.3-7.5z" fill="#cdba72"/><path d="m1011.1 835.8s38.7-41.6 53.3-13.1c14.8 29-.1 44.4-4.4 47.4-4.3 3.1-13.1 6.4-46.8-8.6 0 0 5.2-8.5-2.1-25.7z" fill="#cdba72"/><path d="m986.8 829.3s-24.7-51.4 6.8-55c32.1-3.8 41 15.8 42.2 21 1.4 5.1 1.3 14.6-24.5 41.2 0 0-6-8-24.5-7.2z" fill="#cdba72"/><path d="m988.6 869s-7.9 56.5-36 41.8c-28.7-15-25.2-36.3-23.4-41.3 1.7-5 7-12.9 43.1-20.3 0 0 .6 10 16.3 19.8z" fill="#cdba72"/><path d="m971.7 849.5s-56.4 2.6-47.2-28.1c9.3-31.3 30.6-31.8 35.8-30.9 5.2.8 13.7 4.6 27.6 39.1 0 0-9.5 2.4-16.2 19.9z" fill="#cdba72"/><path d="m1013.8 867.6s20.9 16.9 23.1 22.3c2.3 5.3 5.2 18.5-19.5 26.4-18 5.7-27.1-1.6-27.2-22.1-.2-20.5 2.2-20.9 2.2-20.9l5.8 1.4s5.8 27.8 17.1 30.4c0 0 6.1-6.1-8.4-31.4z" fill="#90a57c"/><path d="m1017.2 836.2s20.8-17.1 26.5-18.2c5.6-1.1 19-1.1 21.3 25 1.7 19-7.3 26.4-27.1 22.2s-19.7-6.6-19.7-6.6l2.6-5.5s28.1.2 33-10.4c0 0-4.6-7.4-32.2 1.6z" fill="#90a57c"/><path d="m989.3 823.7s-8.4-25.7-7.4-31.5c1.1-5.7 5.7-18.4 30.6-11.3 18.3 5.1 21.9 16.2 10.9 33.5-10.9 17.3-13.1 16.3-13.1 16.3l-4.1-4.4s10.1-26.5 2.1-34.9c0 0-8.5 1.7-9.9 31z" fill="#90a57c"/><path d="m983.4 872.2s-7.2 26.1-11.2 30.3-14.9 12-31.7-7.9c-12.2-14.6-9.1-25.9 9.5-34s19.9-6.1 19.9-6.1l1 6s-23 16.2-21 27.8c0 0 7.9 3.3 25.3-20.1z" fill="#90a57c"/><path d="m967.6 845s-26.7-2.4-31.5-5.6-14.4-12.6 1.9-33c11.8-14.9 23.4-13.8 34.7 3.2s9.6 18.7 9.6 18.7l-5.6 2s-20-19.9-30.9-15.8c0 0-1.8 8.6 24.2 21.6z" fill="#90a57c"/><path d="m1015.5 862.7c-4 6.6-20.3 13-31.1 6.2s-19.2-13.9-9.3-30.1c9.9-16.1 23.6-14 32.2-7.8 11.4 8.3 12.2 25.1 8.2 31.7z" fill="#39412a"/></svg>