<svg fill="none" height="265" viewBox="0 0 214 265" width="214" xmlns="http://www.w3.org/2000/svg"><path d="m97.2541 97.7007c.3867-.0967.8218.145 1.3052.7251 3.8667 5.2202 7.3957 10.6832 10.5867 16.3872 3.19 5.607 5.655 11.747 7.396 18.417 1.74 6.188 2.997 12.811 3.77 19.868.774 6.961.629 13.487-.435 19.578-.097.29-.242.725-.435 1.305-.097.58-.242 1.16-.435 1.74s-.483 1.064-.87 1.45c-.29.387-.629.58-1.015.58-.677 0-1.112-.628-1.305-1.885-.097-1.353-.194-2.417-.29-3.19-.774-10.538-2.852-20.69-6.236-30.454-3.384-9.765-7.735-18.176-13.052-25.234-.4834-.58-.9668-1.16-1.4502-1.74-.3868-.58-.6768-1.208-.8702-1.885-.1933-.29-.1933-1.209 0-2.756.2901-1.643.6285-3.335 1.0152-5.075.3867-1.837.7734-3.529 1.1601-5.076.4834-1.5468.8702-2.4653 1.1602-2.7553zm-34.6597 147.9203c-8.0244-2.127-15.2754-5.608-21.7529-10.442s-12.23-10.538-17.2573-17.112c-7.4444-9.861-13.1485-22.333-17.11233-37.415-3.96386-15.179-6.090818-27.747-6.3808569-37.705-.4833981-13.052.8701169-27.119 4.0605469-42.201 3.28711-15.0819 8.41114-27.7953 15.37204-38.14 5.8008-8.8946 13.3418-16.774 22.6231-23.6382 9.3779-6.961 19.5776-10.8765 30.5991-11.7466.4834-2.0303 1.4985-4.1089 3.0454-6.2358 1.5469-2.127 3.6738-3.7222 6.3809-4.7857.9668-.5801 2.3203-1.0151 4.0605-1.3052 1.8369-.3867 3.9155-.29 6.2359.2901-.3868-4.9307.9667-8.65286 4.0605-11.16653 3.0937-2.61036 6.429-3.915531 10.006-3.915531 3.481 0 6.768 1.305171 9.862 3.915531 3.093 2.51367 4.495 6.23583 4.205 11.16653 2.224-.5801 4.206-.6768 5.946-.2901 1.837.2901 3.335.7251 4.496 1.3052 2.61 1.0635 4.689 2.6587 6.235 4.7857 1.547 2.1269 2.514 4.2055 2.901 6.2358 11.021.8701 21.173 4.7856 30.454 11.7466 9.378 6.8642 17.016 14.7436 22.913 23.6382 6.864 10.3447 11.892 23.0581 15.082 38.14 3.287 15.082 4.786 29.149 4.496 42.201-.387 9.958-2.611 22.526-6.671 37.705-3.964 15.082-9.62 27.554-16.967 37.415-4.931 6.574-10.684 12.278-17.258 17.112s-13.873 8.315-21.898 10.442c-5.124 5.607-11.746 10.151-19.867 13.631-8.218 3.674-16.194 5.463-23.929 5.366-7.734.097-15.7101-1.692-23.9279-5.366-8.1211-3.383-14.792-7.927-20.0127-13.631zm34.5147-231.3065c0 2.6103.6284 5.124 1.8852 7.541 1.2567 2.417 1.8857 3.7221 1.8857 3.9155-5.9946-5.8975-11.602-7.686-16.8227-5.3657-3.0937 1.3535-5.1723 3.6255-6.2358 6.8159 4.834.29 9.5713 1.3535 14.2119 3.1904 4.7373 1.8369 8.4116 4.8823 11.0216 9.1363 2.224 3.3837 3.335 7.3476 3.335 11.8916-.096 5.0273-1.74 9.6196-4.93 13.7768-3.0941 4.1572-7.5897 6.2358-13.4872 6.2358-3.6738 0-6.9126-1.0634-9.7163-3.1904-2.707-2.1269-4.1088-5.2207-4.2055-9.2812-.1934-4.544 1.6919-8.1695 5.6557-10.8765-6.8642-2.0303-14.5019-.5317-22.913 4.4956 3.2871.3867 6.2358 1.5469 8.8461 3.4805 4.6407 3.3838 6.5259 8.2661 5.6558 14.647-6.9609.6767-13.9702 2.3686-21.0278 5.0756-7.0576 2.6104-13.5352 6.0425-19.4326 10.2964-6.6709 5.0274-12.085 11.5532-16.2422 19.5779-4.1573 8.024-6.67093 16.725-7.54105 26.103-.77344 9.378.14502 18.369 2.75537 26.974 2.61038 8.604 6.86428 16 12.76168 22.188 6.4776 6.477 13.8736 11.65 22.188 15.517 8.4112 3.867 17.2574 6.284 26.5386 7.251.3867 4.931-.6284 9.088-3.0454 12.472-2.8037 3.48-6.6226 5.269-11.4565 5.365 8.4111 5.318 16.0488 6.961 22.913 4.931-2.2236-1.257-3.8188-3.19-4.7856-5.801-1.2568-2.9-1.2568-5.849 0-8.846 2.3203-5.801 6.7192-8.701 13.1968-8.701 6.8642 0 12.0851 3.045 15.6621 9.136 1.934 3.481 2.707 7.348 2.32 11.602-.386 4.35-1.547 8.121-3.48 11.311-2.8039 5.028-7.3962 8.508-13.777 10.442-5.5108 1.546-11.3599 2.03-17.5474 1.45 4.7373 3.964 10.2964 7.057 16.6772 9.281 6.5743 2.224 12.7622 3.336 18.5622 3.336 5.704 0 11.892-1.112 18.563-3.336 6.477-2.32 11.988-5.414 16.532-9.281-6.187.58-11.94.096-17.257-1.45-6.478-1.934-11.167-5.414-14.067-10.442-1.934-3.19-3.094-6.961-3.481-11.311-.386-4.254.387-8.121 2.321-11.602 3.577-6.091 8.798-9.136 15.662-9.136 6.477 0 10.876 2.9 13.197 8.701 1.256 3.094 1.256 6.043 0 8.846-.871 2.611-2.417 4.544-4.641 5.801 6.768 2.03 14.454.387 23.058-4.931-5.027-.096-8.894-1.885-11.601-5.365-2.417-3.384-3.433-7.541-3.046-12.472 9.281-.967 18.079-3.384 26.394-7.251 8.411-3.771 15.855-8.943 22.333-15.517 5.8-6.188 10.006-13.584 12.616-22.188 2.707-8.605 3.626-17.596 2.756-26.974-.774-9.378-3.239-18.079-7.396-26.103-4.157-8.0247-9.572-14.5505-16.242-19.5779-5.898-4.2539-12.424-7.686-19.578-10.2964-7.058-2.707-14.019-4.3989-20.883-5.0756-.87-6.3809 1.015-11.2632 5.656-14.647 2.514-1.9336 5.511-3.0938 8.991-3.4805-8.604-5.0273-16.29-6.5259-23.058-4.4956 3.867 2.8037 5.752 6.4292 5.656 10.8765-.194 4.0605-1.692 7.1543-4.496 9.2812-2.707 2.127-5.849 3.1904-9.426 3.1904-5.898 0-10.442-2.0786-13.632-6.2358s-4.786-8.7495-4.786-13.7768c0-4.544 1.112-8.5079 3.336-11.8916 2.61-4.254 6.236-7.2994 10.876-9.1363 4.641-1.8369 9.378-2.9004 14.212-3.1904-.967-3.0938-2.997-5.3657-6.091-6.8159-5.22-2.3203-10.828-.5318-16.822 5.3657 0-.1934.58-1.4985 1.74-3.9155 1.257-2.417 1.886-4.9307 1.886-7.541 0-3.0938-1.016-5.46245-3.046-7.106-1.933-1.64356-4.012-2.46534-6.236-2.46534-2.32 0-4.495.82178-6.526 2.46534-1.9331 1.64355-2.8999 4.0122-2.8999 7.106zm17.6919 218.3995c4.544 6.961 12.279 10.345 23.204 10.151 8.024-.193 15.42-2.078 22.188-5.656 6.864-3.577 12.955-8.169 18.272-13.776 7.734-7.831 13.97-17.354 18.708-28.569 4.737-11.215 7.976-22.188 9.716-32.92-2.32 5.898-5.608 11.795-9.861 17.693-4.254 5.801-8.992 10.538-14.212 14.212-5.124 3.48-10.828 6.477-17.113 8.991-6.187 2.514-12.568 4.205-19.142 5.076.386 5.027 3.19 8.072 8.411 9.136 4.35.773 8.363.048 12.036-2.176 3.771-2.126 5.656-3.19 5.656-3.19-1.353 3.094-3.19 5.704-5.51 7.831-2.321 2.127-4.303 3.722-5.946 4.786-5.414 3.48-11.07 5.752-16.968 6.816-5.8 1.063-10.876.58-15.227-1.451-3.48-1.45-5.22-3.818-5.22-7.106 3.287 1.451 6.139.822 8.556-1.885 2.127-2.127 2.514-4.592 1.16-7.396-1.16-2.223-2.61-3.674-4.351-4.35-1.643-.58-3.093-.87-4.35-.87-5.028 0-8.846 2.272-11.457 6.815-3.384 5.705-2.9 11.65 1.45 17.838zm23.204-200.8522c-10.538-.1933-18.273 3.1421-23.204 10.0064-2.223 3.0937-3.383 6.2358-3.48 9.4262 0 3.1905.677 5.9458 2.03 8.2661 2.514 4.4473 6.381 6.6709 11.602 6.6709 3.287 0 5.946-1.4018 7.976-4.2055 2.127-2.8037 1.982-5.6074-.435-8.4112-1.45-1.5468-3.094-2.2719-4.931-2.1752-1.74 0-2.997.145-3.77.435 0-2.9971 1.74-5.3657 5.22-7.1059 4.448-1.9336 9.572-2.3687 15.372-1.3052 5.801.9668 11.409 3.2387 16.823 6.8159 1.643 1.0635 3.625 2.707 5.946 4.9307 2.32 2.1269 4.157 4.6889 5.51 7.686-2.513-2.127-5.801-3.6738-9.861-4.6406-3.964-1.0635-7.493-.9185-10.586.435-3.191 1.4502-5.076 4.1573-5.656 8.1211 6.767.8701 13.39 2.6587 19.867 5.3657 6.478 2.7071 12.375 5.9458 17.693 9.7164 5.124 3.5771 9.668 8.3144 13.632 14.2119 3.964 5.8005 7.009 11.5535 9.136 17.2575-1.45-9.571-4.254-19.6745-8.411-30.3093-4.061-10.6348-9.378-19.8677-15.952-27.6987-5.705-6.5742-12.327-12.085-19.868-16.5322-7.541-4.4473-15.759-6.7676-24.653-6.961zm-39.7358 200.8522c4.2538-6.284 4.6888-12.23 1.3052-17.838-2.5137-4.543-6.3325-6.815-11.4565-6.815-1.1602 0-2.6104.29-4.3506.87-1.7403.676-3.1904 2.127-4.3506 4.35-1.2568 2.804-.8218 5.269 1.3052 7.396 2.5136 2.707 5.3657 3.336 8.5561 1.885-.0967 3.288-1.8369 5.656-5.2207 7.106-4.4472 2.031-9.6196 2.514-15.5171 1.451-5.8008-1.064-11.4082-3.336-16.8222-6.816-1.6436-1.064-3.6255-2.659-5.9458-4.786-2.2237-2.127-4.0122-4.737-5.3658-7.831 0 0 1.837 1.064 5.5108 3.19 3.6738 2.224 7.686 2.949 12.0366 2.176 5.2207-1.064 8.1211-4.109 8.7012-9.136-6.7676-.871-13.2451-2.562-19.4326-5.076s-11.8916-5.511-17.1123-8.991c-5.2207-3.674-9.9581-8.411-14.212-14.212-4.1572-5.898-7.39595-11.795-9.71627-17.693 1.64356 10.732 4.83397 21.705 9.57127 32.92 4.834 11.215 11.1182 20.738 18.8526 28.569 5.3173 5.607 11.3598 10.199 18.1274 13.776 6.8643 3.578 14.2603 5.463 22.188 5.656 10.8281.194 18.6108-3.19 23.3481-10.151zm-23.3481-200.8522c-8.8945.1934-17.1123 2.5137-24.6533 6.961-7.541 4.4472-14.1153 9.958-19.7227 16.5322-6.5742 7.831-11.9399 17.0639-16.0972 27.6987-4.1572 10.6348-6.96089 20.7383-8.41109 30.3093 2.12696-5.704 5.17239-11.457 9.13619-17.2575 3.9639-5.8975 8.5562-10.6348 13.7769-14.2119 5.2207-3.7706 11.0698-7.0093 17.5474-9.7164 6.4775-2.707 13.1967-4.4956 20.1577-5.3657-.7735-3.9638-2.7554-6.6709-5.9458-8.1211-2.9971-1.3535-6.5259-1.4985-10.5864-.435-4.0606.9668-7.2994 2.5136-9.7164 4.6406 1.3536-2.9971 3.1421-5.5591 5.3658-7.686 2.3203-2.2237 4.3022-3.8672 5.9458-4.9307 5.414-3.5772 11.0214-5.8491 16.8222-6.8159 5.8975-1.0635 11.0699-.6284 15.5171 1.3052 3.3838 1.7402 5.124 4.1088 5.2207 7.1059-.9668-.5801-2.3686-.7734-4.2055-.5801-1.837.1934-3.3355.9668-4.4956 2.3203-2.417 2.8038-2.6104 5.6075-.5801 8.4112 2.0302 2.8037 4.7373 4.2055 8.1211 4.2055 5.2207 0 9.0395-2.2236 11.4565-6.6709 1.4506-2.3203 2.1266-5.0756 2.0306-8.2661-.097-3.1904-1.209-6.3325-3.3358-9.4262-5.0273-6.8643-12.81-10.1997-23.3481-10.0064z" fill="#414d6e"/><path d="m150.978 79c6.62 0 11.961 5.3354 11.967 11.9554.029 29.4396.055 84.8046.055 84.8046s2.513 17.915-15.437 22.488c-11.305 3.898-22.019-8.471-25.394-11.619-3.374-3.148-11.131-9.37-11.131-9.37s-4.383-4.46-10.088.749c-5.7051 5.21-17.3933 14.993-17.3933 14.993s-8.0356 8.808-21.324 4.647c-11.6882-2.548-12.132-18.028-12.2016-21.514-.0696-3.485 0-40.479 0-40.479l.4399-44.7729c.0646-6.5811 5.3968-11.8821 11.9782-11.8821z" fill="#cd9974"/><g fill="#fff"><path d="m126.919 79.2796c33.067-11.4527 40.081-42.2619 40.081-42.2619l-2.863-.4839s-9.018 28.0671-37.648 39.3584z"/><path d="m146.382 62.2922-3.325 3.2274c-1.791-19.9784-24.173-24.4351-24.173-24.4351s23.533-1.8442 27.498 21.2077z"/><path d="m163.905 139.286c-.384 7.069-9.721 37.037-28.01 37.037-18.29 0-24.302-20.593-24.302-20.593s6.012 11.218 17.395 11.218c5.628 0 5.628-6.147 10.36-6.147 4.86 0 5.244 6.147 2.686 9.221 0 0 13.813-3.996 20.464-30.736z"/><path d="m126.919 76.2262c33.067 10.4848 40.081 39.2428 40.081 39.2428l-2.863.45s-9.018-26.0626-37.648-36.6972z"/><path d="m146.382 92.8747-3.325-3.2273c-1.791 19.9786-24.173 24.2816-24.173 24.2816s23.533 1.998 27.498-21.0543z"/><path d="m160.451 78.5826c-4.22 10.7576-9.081 13.9848-9.081 13.9848l-2.686-2.6126s5.116-3.6882 7.674-11.3722c-2.558-7.8377-8.313-12.6018-8.313-12.6018l2.686-3.2272s5.5 5.0714 9.72 15.829z"/><path d="m49.305 139.132c.3837 7.223 9.7205 37.037 28.0103 37.037 18.1619 0 24.3007-20.593 24.3007-20.593s-6.1388 11.373-17.3941 11.373c-5.6276 0-5.6276-6.148-10.4878-6.148-4.7324 0-5.1161 6.147-2.5581 9.221 0 0-13.9412-4.149-20.4641-30.89z"/><path d="m85.5764 76.2262c-31.1346 10.4848-37.5762 39.0938-37.5762 39.0938l2.5498.599s8.5888-26.2124 35.429-36.6972z"/><path d="m66.8278 92.8747 3.3254-3.2273c1.7907 19.9786 24.0454 24.2816 24.0454 24.2816s-23.5337 1.998-27.3708-21.0543z"/><path d="m85.5764 79.2796c-31.1346-11.2914-37.5762-42.2619-37.5762-42.2619l2.5498-.4839s8.5888 28.2283 35.429 39.5197z"/><path d="m66.8278 62.1386 3.3254 3.381c1.7907-20.1321 24.0454-24.4351 24.0454-24.4351s-23.5338-1.8442-27.3708 21.0541z"/><path d="m52.7586 76.5848c4.2207-10.7576 9.0809-13.9849 9.0809-13.9849l2.5581 2.6126s-5.1161 3.5346-7.6741 11.3723c2.558 7.684 8.4415 12.6017 8.4415 12.6017l-2.686 3.2273s-5.4997-5.0714-9.7204-15.829z"/></g><path d="m144.208 168.792s-7.419-1.536-10.744 1.998c0 0 1.279 3.228-1.023 4.303-2.303 1.076-3.326-1.229-3.198-2.766 0 0-7.802-.154-12.79 12.141-1.407 3.381-2.046 5.379-3.965 4.764-1.918-.615-1.791-5.072 1.407-8.76 3.07-3.688-1.279-6.147-1.279-6.147s-.767-7.838-4.349-13.985c-2.302-3.842-.383-5.379.896-5.532 1.151-.308 1.918 1.075 1.918 2.151s-1.663 1.691-1.663 1.691 2.559 3.534 3.838 6.761c1.023 3.074 1.279 5.687 1.279 6.609 0 0 3.325.153 3.581 4.764 0 0 3.069-4.303 4.86-4.918 0 0-1.279-2.613 1.407-3.535 2.174-.614 2.686 1.23 2.686 1.23s6.395-4.611 17.139-.769z" fill="#cdad80"/><path d="m106.221 194.304c.384 1.383.768 3.073 4.093 3.995 3.709 1.076 6.139-2.305 8.953-12.294 3.581-12.602 9.976-13.678 9.976-13.678s-8.953-.614-12.918 15.368c-1.79 6.916-3.197 7.377-5.499 7.377-2.303 0-3.965-3.688-3.326-9.067h-2.558c.64 5.379-1.023 9.067-3.325 9.067-2.3025 0-3.7095-.461-5.5001-7.377-3.9649-15.982-12.918-15.368-12.918-15.368s6.523 1.076 9.9763 13.678c2.8138 9.989 5.244 13.37 8.9528 12.294 3.454-.922 3.709-2.612 4.093-3.995z" fill="#cdad80"/><path d="m68.2348 168.792s7.4182-1.536 10.7436 1.998c0 0-1.279 3.228 1.0233 4.303 2.3022 1.076 3.3251-1.229 3.1972-2.766 0 0 7.8022-.154 12.7904 12.141 1.4069 3.381 2.0464 5.379 4.0927 4.764 1.919-.615 1.663-5.072-1.4068-8.76-3.1975-3.688 1.1511-6.147 1.1511-6.147s.8957-7.838 4.3487-13.985c2.43-3.842.384-5.379-.767-5.532-1.279-.308-1.919 1.075-1.919 2.151s1.535 1.691 1.535 1.691-2.558 3.534-3.7093 6.761c-1.1511 3.074-1.4069 5.687-1.4069 6.609 0 0-3.3254.153-3.5812 4.764 0 0-3.0697-4.303-4.8603-4.918 0 0 1.279-2.613-1.4069-3.535-2.1743-.614-2.558 1.23-2.558 1.23s-6.523-4.611-17.2666-.769z" fill="#cdad80"/><path d="m106.221 213.206c-5.628-5.993-7.4182-15.521-7.4182-15.521.7674.922 2.9422.922 2.9422.922s.639 5.378 4.476 10.757c3.837-5.379 4.477-10.757 4.477-10.757s2.174 0 3.069-.922c0 0-1.918 9.528-7.546 15.521z" fill="#cdad80"/><path d="m106.221 184.929c-3.837 0-5.755-7.684-5.755-7.684s3.325.307 4.348 3.381c0 0-1.407-4.457 1.407-8.299 2.686 3.996 1.407 8.299 1.407 8.299 1.151-3.074 4.349-3.381 4.349-3.381s-1.663 7.684-5.756 7.684z" fill="#cd9974"/><path d="m108.012 182.931c2.302 0 2.302 2.92 0 2.92h-4.477c-2.302 0-2.174-2.92 0-2.92z" fill="#cdad80"/></svg>