<svg height="109" viewBox="0 0 109 109" width="109" xmlns="http://www.w3.org/2000/svg"><g fill="#fff"><path d="m88.4 25.7h.5c1.8 0 3.3 1.5 3.3 3.3v8.2h-3.8z"/><path d="m80.7 29.5v-3.8h8.2c1.8 0 3.3 1.5 3.3 3.3v.5z"/><path d="m76.9 33.4h15.3v3.8h-15.3z"/><path d="m38.5 33.4h42.2v3.8h-42.2z"/><path d="m73 37.2h-3.8v-11.5h.5c1.9 0 3.3 1.5 3.3 3.3z"/><path d="m69.7 25.7c1.9 0 3.3 1.5 3.3 3.3v.5h-23v-3.8z"/><path d="m50 25.7h3.9v11.5h-3.9z"/><path d="m42.3 25.7h.5c1.9 0 3.4 1.5 3.4 3.3v8.2h-3.9z"/><path d="m15.5 33.4h26.8v3.8h-26.8z"/><path d="m30.8 25.7h.5c1.9 0 3.4 1.5 3.4 3.3v8.2h-3.9z"/><path d="m15.5 25.7h3.8v11.5h-3.8z"/><path d="m23.1 25.7h3.9v3.8h-3.9z"/><path d="m88.4 41h3.8v26.9h-3.8z"/><path d="m84.6 60.2h-3.9v-19.2h.4c1.9 0 3.5 1.6 3.5 3.5z"/><path d="m73 56.4h11.6v3.8h-11.6z"/><path d="m65.4 56.4h11.5v3.8h-11.5z"/><path d="m73 56.4h3.9v11.5h-3.9z"/><path d="m65.4 56.4h3.8v11.5h-3.8z"/><path d="m57.7 64.1h19.2v3.8h-19.2z"/><path d="m38.5 64.1h26.9v3.8h-26.9z"/><path d="m57.7 56.4h.5c1.8 0 3.3 1.5 3.3 3.3v8.2h-3.8z"/><path d="m50 56.4h3.9v11.5h-3.9z"/><path d="m42.3 56.4h3.9v11.5h-3.9z"/><path d="m34.7 41h.5c1.8 0 3.3 1.5 3.3 3.4v23.5h-3.8z"/><path d="m30.8 64.1h11.5v3.8h-11.5z"/><path d="m15.5 64.1h19.2v3.8h-19.2z"/><path d="m27 56.4h.5c1.8 0 3.3 1.5 3.3 3.3v8.2h-3.8z"/><path d="m19.3 56.4h3.8v11.5h-3.8z"/><path d="m19.3 60.2v-3.8h8.2c1.8 0 3.3 1.5 3.3 3.3v.5z"/><path d="m15.5 64.1h3.8v11.5h-3.8z"/><path d="m15.5 71.7h76.7v3.9h-76.7z"/></g><path d="m15.5 21.8v-.5c0-1.8 1.5-3.3 3.3-3.3h70.1c1.8 0 3.3 1.5 3.3 3.3v.5z" fill="#cdad80"/><path d="m42.3 41h34.6v3.9h-34.6z" fill="#cdad80"/><path d="m42.3 48.7h34.6v3.9h-34.6z" fill="#cdad80"/><path d="m15.5 41h15.3v3.9h-15.3z" fill="#cdad80"/><path d="m15.5 48.7h15.3v3.9h-15.3z" fill="#cdad80"/><path d="m80.7 64.1h3.9v3.8h-3.9z" fill="#cdad80"/><path d="m17.1 90.4h-2.1v-.1l1.7-2.7q0-.1 0-.1-.2-.5-.2-1.1 0-1 .4-1.6.3-.7 1-1.2.6-.4 1.5-.6.8-.3 1.6-.3l.2.1 1 2.5q.2.7.6 1.1.4.4 1 .4l1.4-.1q0 0-.1-.1 0-.3 0-.8l-.1-5.8 1.9-.2h.1l.1 6.9h1.5 1.2q0-.1 0-.1 0-.3 0-.8l-.1-2.5 1.9-.3h.1l.1 3.6h1.4q0 0 0-.1 0-.3 0-.7l-.1-2.9 1.9-.3h.1l.1 4h1.5q-.1-.1-.1-.2 0-.3 0-.8l-.1-3.1 1.9-.3h.1l.1 4.4h1.3.7q0-.3 0-.5 0-.9.4-1.6.4-.7 1-1.1.7-.5 1.5-.7.8-.2 1.6-.3l.2.2 1 2.4q.3.7.7 1.1.4.4.9.4h1.3q0-.1-.1-.2 0-.3 0-.8l-.1-5.8 1.9-.2h.1l.1 6.5q0 .3 0 .6 0 .3 0 .7 0 .3.1.5v.1q-.3.1-.8.2-.5 0-1.2.1h-1.5q-.8 0-1.3-.2-.4-.2-.7-.4l-.2.8q-.4.2-.9.3-.5.1-.9.1-.3.1-.8 0-.4-.1-.8-.3-.2-.1-.4-.3l-2.1.1v-.1l-11.2.2h-4.8q-.8 0-1.3-.2-.4-.1-.7-.4l-.2.9q-.5.2-.9.3-.5.1-.9.1-.4 0-.8-.1-.4 0-.8-.2zm4.5-2.6.2-.8-.2-.1q-.2.1-.5.2.1.2.3.4.1.2.2.3zm-1-1.5-.7-1.8q-.2.1-.3.1-.4.2-.7.4-.3.2-.4.5-.2.3-.2.6.1.4.3.7.2.2.6.4.3.1.7.1.5 0 1-.1.1 0 .2-.1-.3-.3-.5-.8zm-.7-1.8q.3 0 .6 0l-.8-.2zm5.3 2.1q.1.2.2.3l.7-.3zm1.9 0h-.8l.8.8zm2.7 0q.1.2.2.3l.7-.3zm1.9-.1-.8.1.8.8zm1.5 0q0 .2.1.3l.7-.4zm1.9 0h-.8l.8.9zm1.5-.1q.1.2.2.3l.6-.3zm2 0h-.9l.9.8zm7.1 1 .3-.7-.3-.2q-.2.2-.5.3.1.2.3.3.1.2.2.3zm-.9-1.5-.8-1.7q-.2 0-.3.1-.4.1-.7.3-.2.3-.4.6-.1.2-.1.5 0 .4.2.7.2.3.6.4.4.1.8.1.5 0 .9-.1.1 0 .2 0-.2-.4-.4-.9zm-.8-1.7q.3-.1.6-.1l-.7-.2zm5.2 2.2q0 .2.1.3l.7-.4zm3.7 1.7-.1-8.4 2-.2.1.1q-.1.2-.1.5 0 .3 0 .6 0 .3 0 .5l.1 6.9zm14.7-.2q-.1.2-.1.4-.3.9-.7 1.4-.5.6-1.1.9-.6.3-1.4.3-.5 0-1-.1-.5-.2-.8-.4-.4-.2-.6-.4-.2-.2-.2-.3l.6-1.6h.1q.3.4.7.6.4.3.8.4.4.1.8.1.3 0 .6-.2 0 0 .1 0 0-.2.1-.4.1-.5.2-1 0-.6 0-1.2 0-.6 0-1.3-.1-.6-.2-1.2 0-.7-.1-1.2l1.9-.2h.1q.1 1.1.2 2 .1.9.1 1.6 0 0 0 .1h1.5 1.2q0-.1 0-.2 0-.3 0-.8l-.1-2.5 1.9-.2h.1v1.6l.5-1.3h6q.5 0 1-.1.5 0 .9-.1h.1q.3.3.6.7.3.3.5.8.2.5.2.9 0 .6-.2 1 0 .1 0 .1l1.4-.1h4.7q-.4-.3-.9-.6-.7-.6-1.5-1.3-.7-.7-1.5-1.5l1.2-1.5h.1q1.4 1.4 2.4 2.3 1 1 1.8 1.5.7.6 1.2.8.5.2.8.2h.9v.2l-.6 1.5-8.7.1h-.1l-4.5.1h-5l-4.6.1zm-2.2 1.1q-.1.2-.2.3l.5-.4q-.1 0-.3.1zm-2-2.2q-.4 0-.6-.3-.3-.2-.3-.6 0-.5.3-.7.2-.2.6-.3.4 0 .6.3.3.2.3.7 0 .4-.3.6-.2.3-.6.3zm15.5-.7q.8 0 1-.2.3-.2.3-.7 0-.3-.1-.6-.1-.2-.2-.3-.1 0-.2 0-.3.1-.6.1-.3 0-.7 0l-6.1.1.1 1.6zm.9-1.7q.3-.1.6-.2h-.8q.1 0 .2.2zm-9.4 1.8q0 .3.1.4l.7-.4zm1.1 0 .5.6v-.6zm16.5-.2q.2.1.4.2l.4-.2z" fill="#fff" fill-rule="evenodd"/></svg>