<svg width="154" height="155" viewBox="0 0 154 155" fill="none" xmlns="http://www.w3.org/2000/svg">
<path d="M139.352 25.3994H140.224C143.563 25.3994 146.24 28.0937 146.24 31.4541V46.2275H139.352V25.3994Z" fill="#404C6E"/>
<path d="M125.546 32.332V25.3994H140.224C143.563 25.3994 146.24 28.0937 146.24 31.4541V32.332H125.546Z" fill="#404C6E"/>
<path d="M118.658 46.2275V39.2949H146.24V46.2275H118.658Z" fill="#404C6E"/>
<path d="M49.6589 46.2275V39.2949H125.546V46.2275H49.6589Z" fill="#404C6E"/>
<path d="M111.74 46.2275H104.852V25.3994H105.725C109.063 25.3994 111.74 28.0937 111.74 31.4541V46.2275Z" fill="#404C6E"/>
<path d="M105.725 25.3994C109.063 25.3994 111.74 28.0937 111.74 31.4541V32.332H70.3528V25.3994H105.725Z" fill="#404C6E"/>
<path d="M70.3528 25.3994H77.2407V46.2275H70.3528V25.3994Z" fill="#404C6E"/>
<path d="M56.5469 25.3994H57.4492C60.7578 25.3994 63.4648 28.0937 63.4648 31.4541V46.2275H56.5469V25.3994Z" fill="#404C6E"/>
<path d="M8.24146 46.2275V39.2949H56.5469V46.2275H8.24146Z" fill="#404C6E"/>
<path d="M35.8533 25.3994H36.7255C40.0642 25.3994 42.7412 28.0937 42.7412 31.4541V46.2275H35.8533V25.3994Z" fill="#404C6E"/>
<path d="M8.24146 25.3994H15.1594V46.2275H8.24146V25.3994Z" fill="#404C6E"/>
<path d="M22.0474 25.3994H28.9653V32.332H22.0474V25.3994Z" fill="#404C6E"/>
<path d="M146.24 101.779H139.352V53.1602H146.24V101.779Z" fill="#404C6E"/>
<path d="M132.464 87.8838H125.546V53.1602H126.148C129.637 53.1602 132.464 56.0059 132.464 59.5176V87.8838Z" fill="#404C6E"/>
<path d="M111.74 87.8838V80.9512H132.464V87.8838H111.74Z" fill="#404C6E"/>
<path d="M97.9646 87.8838V80.9512H118.658V87.8838H97.9646Z" fill="#404C6E"/>
<path d="M111.74 80.9512H118.658V101.779H111.74V80.9512Z" fill="#404C6E"/>
<path d="M97.9646 80.9512H104.852V101.779H97.9646V80.9512Z" fill="#404C6E"/>
<path d="M118.658 94.8467V101.779H84.1587V94.8467H118.658Z" fill="#404C6E"/>
<path d="M49.6589 101.779V94.8467H97.9644V101.779H49.6589Z" fill="#404C6E"/>
<path d="M84.1587 80.9512H85.031C88.3696 80.9512 91.0466 83.6758 91.0466 87.0059V101.779H84.1587V80.9512Z" fill="#404C6E"/>
<path d="M70.3528 80.9512H77.2407V101.779H70.3528V80.9512Z" fill="#404C6E"/>
<path d="M56.5469 80.9512H63.4648V101.779H56.5469V80.9512Z" fill="#404C6E"/>
<path d="M42.741 53.1602H43.6433C46.9519 53.1602 49.6589 55.8848 49.6589 59.2148V101.779H42.741V53.1602Z" fill="#404C6E"/>
<path d="M35.8533 101.779V94.8467H56.547V101.779H35.8533Z" fill="#404C6E"/>
<path d="M8.24146 101.779V94.8467H42.7411V101.779H8.24146Z" fill="#404C6E"/>
<path d="M28.9653 80.9512H29.8376C33.1462 80.9512 35.8532 83.6758 35.8532 87.0059V101.779H28.9653V80.9512Z" fill="#404C6E"/>
<path d="M15.1594 80.9512H22.0473V101.779H15.1594V80.9512Z" fill="#404C6E"/>
<path d="M15.1594 87.8838V80.9512H29.8375C33.1461 80.9512 35.8532 83.6758 35.8532 87.0059V87.8838H15.1594Z" fill="#404C6E"/>
<path d="M15.1594 115.675H8.24146V94.8467H15.1594V115.675Z" fill="#404C6E"/>
<path d="M8.24146 115.675V108.742H146.24V115.675H8.24146Z" fill="#404C6E"/>
<path d="M8.24146 18.4365V17.5586C8.24146 14.2285 10.9485 11.5039 14.2571 11.5039H140.224C143.563 11.5039 146.24 14.2285 146.24 17.5586V18.4365H8.24146Z" fill="#CDAD80"/>
<path d="M56.5469 60.123V53.1602H118.658V60.123H56.5469Z" fill="#CDAD80"/>
<path d="M56.5469 74.0186V67.0557H118.658V74.0186H56.5469Z" fill="#CDAD80"/>
<path d="M8.24146 60.123V53.1602H35.8532V60.123H8.24146Z" fill="#CDAD80"/>
<path d="M8.24146 74.0186V67.0557H35.8532V74.0186H8.24146Z" fill="#CDAD80"/>
<path d="M125.546 101.779V94.8467H132.464V101.779H125.546Z" fill="#CDAD80"/>
<path d="M11.3394 136.049L13.505 138.259L11.2191 142.527L7.39917 142.558V142.346L11.3394 136.049ZM23.1902 138.531L22.7992 138.955C21.8567 138.955 21.0747 138.824 20.4531 138.562C19.8315 138.299 19.3001 137.885 18.8589 137.32C18.4178 136.775 17.9766 136.059 17.5355 135.171L15.9714 131.478L17.2949 131.811C16.7134 131.831 16.182 131.932 15.7007 132.113C15.2195 132.295 14.8184 132.527 14.4976 132.81C14.1567 133.072 13.896 133.385 13.7156 133.748C13.5351 134.091 13.4449 134.444 13.4449 134.808C13.4649 135.292 13.6053 135.696 13.866 136.019C14.1266 136.321 14.4776 136.553 14.9187 136.715C15.3598 136.876 15.821 136.957 16.3023 136.957C16.9039 136.957 17.4653 136.886 17.9867 136.745C18.5281 136.584 18.9592 136.422 19.28 136.261L19.7011 136.473L18.889 139.409C18.3476 139.651 17.8062 139.843 17.2648 139.984C16.7033 140.105 16.182 140.166 15.7007 140.166C15.2596 140.186 14.7884 140.146 14.2871 140.045C13.7858 139.944 13.2845 139.783 12.7832 139.561C12.2819 139.318 11.8307 139.006 11.4296 138.622C11.0286 138.239 10.6977 137.754 10.4371 137.169C10.1964 136.604 10.0761 135.938 10.0761 135.171C10.0561 134.081 10.2766 133.132 10.7378 132.325C11.199 131.518 11.8207 130.832 12.6027 130.267C13.3847 129.722 14.257 129.308 15.2195 129.025C16.182 128.743 17.1545 128.591 18.1371 128.571L18.5281 128.783L20.2726 133.264C20.6135 134.132 21.0246 134.787 21.5058 135.231C21.9871 135.675 22.5385 135.897 23.1601 135.897L23.1902 138.531ZM31.4316 138.834L22.7992 138.955L22.7691 136.291L23.1601 135.897L27.1605 135.837L25.9875 136.412C25.827 136.251 25.7067 135.978 25.6265 135.595C25.5664 135.191 25.5263 134.707 25.5062 134.142L25.3859 123.697L28.7847 123.304H28.9953L29.1457 137.32L27.6718 135.837L31.7925 135.776L31.8226 138.44L31.4316 138.834ZM52.0953 138.592L31.4316 138.834L31.4015 136.17L31.8226 135.776L35.5523 135.716L34.3492 136.321C34.1888 136.16 34.0785 135.908 34.0183 135.564C33.9782 135.201 33.9582 134.757 33.9582 134.232L33.898 129.601L37.2668 129.177H37.4773L37.5675 137.199L36.0937 135.716L41.6582 135.655L40.455 136.23C40.2946 136.069 40.1843 135.817 40.1242 135.474C40.0841 135.11 40.064 134.676 40.064 134.172L40.0039 128.844L43.3726 128.45H43.5832L43.6734 137.139L42.1996 135.655L47.7941 135.595L46.591 136.14C46.4306 135.978 46.3203 135.706 46.2601 135.322C46.2 134.919 46.1699 134.444 46.1699 133.899L46.1097 128.117L49.4484 127.724H49.689L49.7793 137.048L48.3054 135.595L52.1554 135.534L52.1855 138.168L52.0953 138.592ZM51.9449 135.564L55.464 135.504L56.3062 138.562L51.5539 138.622L51.5238 135.958L51.9449 135.564ZM66.5628 138.047L66.1418 138.471C65.2194 138.471 64.4473 138.34 63.8257 138.077C63.2041 137.815 62.6627 137.411 62.2015 136.866C61.7604 136.301 61.3293 135.575 60.9082 134.687L59.314 130.993L60.5472 131.326C59.9858 131.346 59.4744 131.447 59.0132 131.629C58.552 131.811 58.151 132.043 57.8101 132.325C57.4692 132.588 57.2186 132.9 57.0582 133.264C56.8777 133.607 56.7875 133.96 56.7875 134.323C56.8075 134.808 56.9479 135.211 57.2085 135.534C57.4893 135.837 57.8502 136.069 58.2914 136.23C58.7325 136.392 59.1837 136.473 59.6449 136.473C60.2464 136.473 60.8079 136.402 61.3292 136.261C61.8707 136.119 62.3118 135.958 62.6527 135.776L63.0437 135.988L62.2316 138.925C61.7102 139.167 61.1688 139.359 60.6074 139.5C60.066 139.621 59.5546 139.682 59.0734 139.682C58.6322 139.702 58.151 139.661 57.6296 139.561C57.1283 139.46 56.6371 139.298 56.1558 139.076C55.6545 138.834 55.2033 138.521 54.8023 138.138C54.4013 137.754 54.0704 137.28 53.8097 136.715C53.5691 136.13 53.4388 135.453 53.4187 134.687C53.4187 133.597 53.6393 132.648 54.0804 131.841C54.5416 131.034 55.1632 130.347 55.9453 129.782C56.7273 129.237 57.5996 128.824 58.5621 128.541C59.5446 128.258 60.5272 128.107 61.5097 128.087L61.9007 128.299L63.6453 132.779C63.9862 133.647 64.3972 134.303 64.8785 134.747C65.3597 135.191 65.9112 135.413 66.5328 135.413L66.5628 138.047ZM68.8187 138.44L66.1418 138.471L66.1117 135.807L66.5328 135.413L70.2925 135.353L69.1195 135.928C68.9591 135.766 68.8388 135.494 68.7586 135.11C68.6984 134.707 68.6683 134.222 68.6683 133.657L68.548 123.213L71.8867 122.789H72.1273L72.2476 134.565C72.2476 134.848 72.2576 135.191 72.2777 135.595C72.2977 135.998 72.3078 136.402 72.3078 136.806C72.3479 137.169 72.398 137.482 72.4582 137.744V137.896C72.0571 138.057 71.5658 138.188 70.9843 138.289C70.4028 138.37 69.6809 138.42 68.8187 138.44ZM75.5261 138.35L75.3457 123.152L79.0152 122.759L79.0753 122.91C79.0352 123.152 79.0052 123.455 78.9851 123.818C78.9651 124.202 78.955 124.585 78.955 124.969C78.955 125.352 78.955 125.675 78.955 125.938L79.1054 138.319L75.5261 138.35ZM104.431 138.017L101.484 138.047L101.453 134.989L104.792 134.959L104.822 137.593L104.431 138.017ZM92.4 138.41H92.6406C93.0416 138.874 93.4828 139.258 93.964 139.561C94.4252 139.843 94.8964 140.045 95.3777 140.166C95.8589 140.287 96.3101 140.338 96.7312 140.317C97.1323 140.317 97.4731 140.247 97.7539 140.105C98.0546 139.964 98.3053 139.873 98.5058 139.833L97.6336 140.681C97.8541 140.317 98.0346 139.863 98.175 139.318C98.3354 138.753 98.4457 138.138 98.5058 137.472C98.586 136.765 98.6161 136.049 98.596 135.322C98.596 134.596 98.566 133.829 98.5058 133.021C98.4457 132.234 98.3655 131.467 98.2652 130.721C98.185 129.974 98.0747 129.298 97.9343 128.692L101.363 128.269H101.574C101.774 129.56 101.915 130.751 101.995 131.841C102.115 132.931 102.175 133.899 102.175 134.747C102.195 136.261 102.055 137.573 101.754 138.683C101.474 139.772 101.062 140.671 100.521 141.377C99.9796 142.083 99.328 142.598 98.566 142.921C97.8241 143.264 97.0019 143.436 96.0996 143.436C95.4178 143.456 94.7962 143.375 94.2347 143.193C93.6733 143.012 93.192 142.8 92.791 142.558C92.3699 142.295 92.039 142.053 91.7984 141.831C91.5578 141.589 91.3974 141.417 91.3171 141.316L92.4 138.41ZM94.4453 135.988C93.9841 135.988 93.6031 135.847 93.3023 135.564C92.9815 135.282 92.8211 134.888 92.8211 134.384C92.801 133.859 92.9514 133.455 93.2722 133.173C93.573 132.89 93.954 132.739 94.4152 132.719C94.8764 132.719 95.2574 132.86 95.5582 133.143C95.8589 133.425 96.0194 133.829 96.0394 134.354C96.0394 134.858 95.879 135.252 95.5582 135.534C95.2774 135.837 94.9065 135.988 94.4453 135.988ZM129.907 137.744L121.786 137.835L121.756 134.808L130.268 134.687L130.298 137.351L129.907 137.744ZM110.056 137.956L110.026 134.898L122.358 134.777C123.2 134.757 123.792 134.626 124.132 134.384C124.473 134.142 124.634 133.768 124.614 133.264C124.614 132.86 124.523 132.477 124.343 132.113C124.162 131.73 123.942 131.417 123.681 131.175L125.185 131.266C124.604 131.407 124.112 131.518 123.711 131.599C123.31 131.679 122.929 131.73 122.568 131.75C122.227 131.79 121.846 131.811 121.425 131.811L110.176 131.932L111.319 128.874L122.027 128.753C122.649 128.753 123.27 128.733 123.892 128.692C124.513 128.632 125.025 128.561 125.426 128.48L125.666 128.45C126.007 128.773 126.358 129.167 126.719 129.631C127.06 130.095 127.361 130.61 127.621 131.175C127.862 131.72 127.992 132.285 128.012 132.87C128.012 133.496 127.882 134.091 127.621 134.656C127.361 135.221 126.91 135.726 126.268 136.17L125.636 137.32C125.275 137.462 124.864 137.583 124.403 137.684C123.922 137.764 123.38 137.805 122.779 137.805L110.056 137.956ZM104.401 135.383L104.792 134.989L108.552 134.929L107.379 135.504C107.218 135.342 107.098 135.07 107.018 134.687C106.958 134.283 106.928 133.799 106.928 133.233L106.868 128.571L110.236 128.178H110.447L110.537 136.412L109.063 134.929L113.214 134.868L113.244 137.532L112.823 137.926L104.431 138.047L104.401 135.383ZM145.668 137.532L129.907 137.714L129.877 135.08L130.268 134.656L140.134 134.565L139.352 134.989C138.61 134.606 137.818 134.091 136.976 133.445C136.134 132.779 135.261 132.022 134.359 131.175C133.497 130.307 132.614 129.379 131.712 128.39L133.727 125.665H133.968C135.632 127.381 137.076 128.813 138.299 129.964C139.502 131.114 140.545 132.022 141.427 132.688C142.31 133.334 143.052 133.799 143.653 134.081C144.255 134.364 144.746 134.505 145.127 134.505L146.691 134.475V134.717L145.668 137.532Z" fill="#404C6E"/>
</svg>
