<svg height="512" viewBox="0 0 512 512" width="512" xmlns="http://www.w3.org/2000/svg"><g fill="#fefae0"><path d="m463.3 83.9h2.9c11.1 0 20 8.9 20 20v48.8h-22.9z"/><path d="m417.4 106.8v-22.9h48.8c11.1 0 20 8.9 20 20v2.9z"/><path d="m394.5 152.7v-22.9h91.7v22.9z"/><path d="m165.1 152.7v-22.9h252.3v22.9z"/><path d="m371.5 152.7h-22.9v-68.8h2.9c11.1 0 20 8.9 20 20z"/><path d="m351.5 83.9c11.1 0 20 8.9 20 20v2.9h-137.6v-22.9z"/><path d="m233.9 83.9h22.9v68.8h-22.9z"/><path d="m188 83.9h3c11 0 20 8.9 20 20v48.8h-23z"/><path d="m27.4 152.7v-22.9h160.6v22.9z"/><path d="m119.2 83.9h2.9c11.1 0 20 8.9 20 20v48.8h-22.9z"/><path d="m27.4 83.9h23v68.8h-23z"/><path d="m73.3 83.9h23v22.9h-23z"/><path d="m486.2 336.2h-22.9v-160.6h22.9z"/><path d="m440.4 290.3h-23v-114.7h2c11.6 0 21 9.4 21 21z"/><path d="m371.5 290.3v-22.9h68.9v22.9z"/><path d="m325.7 290.3v-22.9h68.8v22.9z"/><path d="m371.5 267.4h23v68.8h-23z"/><path d="m325.7 267.4h22.9v68.8h-22.9z"/><path d="m394.5 313.3v22.9h-114.7v-22.9z"/><path d="m165.1 336.2v-22.9h160.6v22.9z"/><path d="m279.8 267.4h2.9c11.1 0 20 9 20 20v48.8h-22.9z"/><path d="m233.9 267.4h22.9v68.8h-22.9z"/><path d="m188 267.4h23v68.8h-23z"/><path d="m142.1 175.6h3c11 0 20 9 20 20v140.6h-23z"/><path d="m119.2 336.2v-22.9h68.8v22.9z"/><path d="m27.4 336.2v-22.9h114.7v22.9z"/><path d="m96.3 267.4h2.9c11 0 20 9 20 20v48.8h-22.9z"/><path d="m50.4 267.4h22.9v68.8h-22.9z"/><path d="m50.4 290.3v-22.9h48.8c11 0 20 9 20 20v2.9z"/><path d="m50.4 382.1h-23v-68.8h23z"/><path d="m27.4 382.1v-22.9h458.8v22.9z"/></g><path d="m27.4 60.9v-2.9c0-11 9-20 20-20h418.8c11.1 0 20 9 20 20v2.9z" fill="#f7aa55"/><path d="m188 198.6v-23h206.5v23z" fill="#f7aa55"/><path d="m188 244.5v-23h206.5v23z" fill="#f7aa55"/><path d="m27.4 198.6v-23h91.8v23z" fill="#f7aa55"/><path d="m27.4 244.5v-23h91.8v23z" fill="#f7aa55"/><path d="m417.4 336.2v-22.9h23v22.9z" fill="#f7aa55"/><path d="m37.7 449.4 7.2 7.3-7.6 14.1-12.7.1v-.7zm39.4 8.2-1.3 1.4q-4.7 0-7.8-1.3-3.1-1.3-5.3-4.1-2.2-2.7-4.4-7.1l-5.2-12.2 4.4 1.1q-2.9.1-5.3 1-2.4.9-4 2.3-1.7 1.3-2.6 3.1-.9 1.7-.9 3.5.1 2.4 1.4 4 1.3 1.5 3.5 2.3 2.2.8 4.6.8 3 0 5.6-.7 2.7-.8 4.3-1.6l1.4.7-2.7 9.7q-2.7 1.2-5.4 1.9-2.8.6-5.2.6-2.2.1-4.7-.4-2.5-.5-5-1.6-2.5-1.2-4.5-3.1-2-1.9-3.3-4.8-1.2-2.8-1.2-6.6-.1-5.4 2.2-9.4 2.3-4 6.2-6.8 3.9-2.7 8.7-4.1 4.8-1.4 9.7-1.5l1.3.7 5.8 14.8q1.7 4.3 4.1 6.5 2.4 2.2 5.5 2.2zm27.4 1-28.7.4-.1-8.8 1.3-1.3 13.3-.2-3.9 1.9q-.8-.8-1.2-2.7-.3-2-.4-4.8l-.4-34.5 11.3-1.3h.7l.5 46.3-4.9-4.9 13.7-.2.1 8.8zm68.7-.8-68.7.8-.1-8.8 1.4-1.3 12.4-.2-4 2q-.8-.8-1.1-2.5-.2-1.8-.2-4.4l-.2-15.3 11.2-1.4h.7l.3 26.5-4.9-4.9 18.5-.2-4 1.9q-.8-.8-1.1-2.5-.2-1.8-.2-4.3l-.2-17.6 11.2-1.3h.7l.3 28.7-4.9-4.9 18.6-.2-4 1.8q-.8-.8-1.1-2.7-.3-2-.3-4.7l-.2-19.1 11.1-1.3h.8l.3 30.8-4.9-4.8 12.8-.2.1 8.7zm-.5-10 11.7-.2 2.8 10.1-15.8.2-.1-8.8zm48.6 8.2-1.4 1.4q-4.6 0-7.7-1.3-3.1-1.3-5.4-4-2.2-2.8-4.3-7.2l-5.3-12.2 4.1 1.1q-2.8.1-5.1 1-2.3.9-4 2.3-1.7 1.3-2.5 3.1-.9 1.7-.9 3.5.1 2.4 1.4 4 1.4 1.5 3.6 2.3 2.2.8 4.5.8 3 0 5.6-.7 2.7-.7 4.4-1.6l1.3.7-2.7 9.7q-2.6 1.2-5.4 1.9-2.7.6-5.1.6-2.2.1-4.8-.4-2.5-.5-4.9-1.6-2.5-1.2-4.5-3.1-2-1.9-3.3-4.7-1.2-2.9-1.3-6.7 0-5.4 2.2-9.4 2.3-4 6.2-6.8 3.9-2.7 8.7-4.1 4.9-1.4 9.8-1.5l1.3.7 5.8 14.8q1.7 4.3 4.1 6.5 2.4 2.2 5.5 2.2zm7.5 1.3-8.9.1-.1-8.8 1.4-1.3 12.5-.2-3.9 1.9q-.8-.8-1.2-2.7-.3-2-.3-4.8l-.4-34.5 11.1-1.4h.8l.4 38.9q0 1.4.1 3.4.1 2 .1 4 .2 1.8.5 3.1v.5q-2 .8-4.9 1.3-2.9.4-7.2.5zm22.3-.3-.6-50.2 12.2-1.3.2.5q-.2 1.2-.3 3-.1 1.9-.1 3.8 0 1.9 0 3.2l.5 40.9zm96.1-1.1-9.8.1-.1-10.1 11.1-.1.1 8.7zm-40 1.3h.8q2 2.3 4.4 3.8 2.3 1.4 4.7 2 2.4.6 4.5.5 2 0 3.4-.7 1.5-.7 2.5-.9l-2.9 2.8q1.1-1.8 1.8-4.5.8-2.8 1.1-6.1.4-3.5.3-7.1 0-3.6-.3-7.6-.3-3.9-.8-7.6-.4-3.7-1.1-6.7l11.4-1.4h.7q1 6.4 1.4 11.8.6 5.4.6 9.6.1 7.5-1.4 13-1.4 5.4-4.1 8.9-2.7 3.5-6.5 5.1-3.7 1.7-8.2 1.7-3.4.1-6.2-.8-2.8-.9-4.8-2.1-2.1-1.3-3.3-2.4-1.2-1.2-1.6-1.7zm6.8-8q-2.3 0-3.8-1.4-1.6-1.4-1.6-3.9-.1-2.6 1.5-4 1.5-1.4 3.8-1.5 2.3 0 3.8 1.4 1.5 1.4 1.6 4 0 2.5-1.6 3.9-1.4 1.5-3.7 1.5zm117.9 5.8-27 .3-.1-10 28.3-.4.1 8.8zm-66 .7-.1-10.1 41-.4q4.2-.1 5.9-1.3 1.7-1.2 1.6-3.7 0-2-.9-3.8-.9-1.9-2.2-3.1l5 .3q-2.9.7-4.9 1.1-2 .4-3.8.5-1.7.2-3.8.2l-37.4.4 3.8-10.1 35.6-.4q3.1 0 6.2-.2 3.1-.3 5.1-.7l.8-.1q1.7 1.6 3.5 3.9 1.7 2.3 3 5.1 1.2 2.7 1.3 5.6 0 3.1-1.3 5.9-1.3 2.8-4.5 5l-2.1 3.8q-1.8.7-4.1 1.2-2.4.4-5.4.4zm-18.8-8.5 1.3-1.3 12.5-.2-3.9 1.9q-.8-.8-1.2-2.7-.3-2-.3-4.8l-.2-15.4 11.2-1.3h.7l.3 27.2-4.9-4.9 13.8-.2.1 8.8-1.4 1.3-27.9.4zm137.2 7.1-52.4.6-.1-8.7 1.3-1.4 32.8-.3-2.6 1.4q-3.7-1.9-7.9-5.1-4.2-3.3-8.7-7.5-4.3-4.3-8.8-9.2l6.7-9h.8q8.3 8.5 14.4 14.2 6 5.7 10.4 9 4.4 3.2 7.4 4.6 3 1.4 4.9 1.4l5.2-.1v.8z" fill="#39412a"/></svg>