<svg width="355" height="355" viewBox="0 0 355 355" fill="none" xmlns="http://www.w3.org/2000/svg">
<path d="M159.691 336.594C164.541 337.058 169.065 337.792 173.607 337.928C191.391 338.458 208.901 336.072 225.818 330.819C242.081 325.768 257.56 318.65 271.109 308.055C278.559 302.23 286.187 296.463 292.755 289.715C308.694 273.34 320.717 254.363 328.414 232.688C332.568 220.991 335.644 209.107 336.679 196.727C337.193 190.575 337.837 184.421 337.995 178.256C338.175 171.271 333.092 167.108 325.055 167.169C319.347 167.213 315.243 171.928 315.156 178.351C314.898 197.426 311.136 215.744 303.378 233.225C297.239 247.055 289.018 259.417 278.849 270.65C266.983 283.758 253.037 293.954 237.247 301.57C225.621 307.177 213.424 311.442 200.498 312.941C192.23 313.899 183.902 314.974 175.609 314.917C164.132 314.839 152.789 312.986 141.689 309.837C124.159 304.865 108.168 296.772 93.9451 285.468C79.817 274.239 68.3228 260.661 59.4216 244.841C51.9593 231.578 46.749 217.482 44.1982 202.609C42.5049 192.736 41.6818 182.521 42.0712 172.522C42.8747 151.89 48.2852 132.229 58.0821 113.995C63.5208 103.872 70.2533 94.6134 78.0399 86.0433C89.8437 73.0518 103.663 62.9138 119.324 55.263C132.617 48.7693 146.601 44.3587 161.396 42.8905C167.187 42.3157 173.003 41.5301 178.803 41.5725C197.144 41.7066 214.826 45.2685 231.737 52.5439C246.489 58.8908 259.85 67.309 271.385 78.5498C274.04 81.1371 276.747 83.6704 280.152 86.917C275.834 87.3582 272.623 87.9487 269.408 87.97C254.265 88.0704 239.122 88.0134 223.979 88.0154C217.433 88.0163 212.629 92.6168 212.513 98.9891C212.398 105.263 217.236 110.13 223.709 110.232C238.69 110.469 253.68 111.103 268.649 110.769C277.098 110.581 285.718 110.555 293.917 107.5C306.136 102.948 314.057 94.4095 317.112 81.859C318.58 75.8295 319.122 69.4642 319.235 63.2356C319.521 47.3878 319.336 31.5313 319.327 15.6784C319.323 8.7047 314.545 3.99822 307.509 4C301.008 4.00165 296.446 8.81412 296.443 15.7125C296.435 32.2597 296.447 48.807 296.427 65.3542C296.425 66.5496 296.234 67.7447 296.079 69.5443C292.085 65.9472 288.589 62.8653 285.165 59.7051C271.411 47.0084 255.853 37.0898 238.383 30.4887C229.13 26.9924 219.529 24.2771 209.907 21.9511C203.436 20.3869 196.664 19.9944 190.002 19.3194C185.447 18.8578 180.84 18.4979 176.272 18.6352C155.817 19.2496 135.987 22.894 117.046 30.9893C99.965 38.2895 84.607 48.0653 70.8485 60.6288C52.0806 77.7667 38.5171 98.2384 29.3246 121.841C24.9829 132.989 22.1539 144.525 20.5716 156.271C19.3047 165.676 18.7075 175.309 19.1396 184.779C20.2707 209.575 26.5197 233.137 38.5522 254.962C44.6592 266.04 52.1036 276.167 60.554 285.642C70.4392 296.726 81.777 305.943 94.2814 313.767C109.556 323.324 125.868 330.455 143.668 333.83C148.89 334.821 154.137 335.674 159.691 336.594Z" fill="#404C6E"/>
<path d="M221.114 185.116C227.493 189.195 231.951 194.586 233.258 201.855C234.003 205.996 233.667 210.35 233.64 214.607C233.593 222.009 234.441 229.497 231.598 236.657C225.94 250.904 215.784 259.835 200.632 262.735C197.629 263.31 194.504 263.436 191.435 263.446C172.373 263.507 153.308 263.286 134.252 263.592C128.504 263.685 122.492 258.381 122.458 252.571C122.422 246.455 128.175 240.394 134.548 240.49C154.068 240.781 173.595 240.465 193.117 240.661C200.743 240.738 210.851 233.311 210.826 224.298C210.814 219.61 211.392 214.921 211.431 210.231C211.469 205.718 210.144 204.542 205.776 204.542C187.292 204.54 168.806 204.382 150.325 204.597C138.099 204.74 126.118 197.459 123.291 184.697C123.049 183.604 122.757 182.49 122.75 181.383C122.701 174.337 122.491 167.28 122.777 160.245C123.265 148.187 128.639 138.471 138.042 131.069C145.813 124.952 154.712 122.463 164.684 122.635C183.047 122.95 201.419 122.721 219.788 122.726C226.306 122.728 230.197 126.936 230.195 133.954C230.194 140.684 226.221 144.908 219.862 144.91C201.956 144.916 184.049 144.83 166.144 144.967C161.378 145.003 156.756 145.922 152.717 148.983C148.465 152.205 146.029 156.303 145.631 161.553C145.275 166.233 145.015 170.927 144.948 175.618C144.878 180.447 146.219 181.657 151.055 181.658C170.001 181.663 188.947 181.703 207.893 181.63C212.573 181.611 216.87 182.662 221.114 185.116Z" fill="#404C6E"/>
</svg>
