<svg height="123" viewBox="0 0 766 123" width="766" xmlns="http://www.w3.org/2000/svg"><path d="m519.3 96.3-.3 1.3c-.2.7-.1.6-.8.9-5 2.5-13 5.8-17.9 8.2-1.4.6-1.6.9-1.1-.7l.5-1.8c.2-.4.3-.6.8-.8l17.9-8c1.2-.6 1.2-.6.9.9zm-166.3-48c1.9 0 3.9.7 6 2.2 6.5 4.6 15.5 8.6 23.3 9 1.1.1 1.1.3.5 1.3-.8 1.2-1.5 2.4-2.3 3.6-.6.9-.6.9-1.9.5-7.5-2.5-17.2-3.7-24.1-1.9 1.7 3.4 1.2 7.2.6 10.1-.2.8-.5 1.2-.9 1.3-1.5.4-8.3.2-11-1.7-1.4-.9-2-1.5-1.9-3.2-1.3 2.3-3.8 4.8-5.4 5.5-1.9.8-4.4 1.3-7 1.2-1 5.3-2.3 10.5-11.1 17.5-7.9 6.9-21.3 11.2-29.6 13.3-19.8 5.1-47.4 6.5-74.5-3.8-4.8-1.8-8.3-3.3-11.8-5.6-3.9-2.6-7.8-6.1-13.5-12.3-1.5-1.7-.8-3.1 1.4-1.5 5.1 3.9 10.2 7.1 16.7 10.1 5.7 2.7 12.6 5.2 20 7.1 15.6 4.3 40.5 5.2 59.9.2 20.7-5.4 35.5-13.6 39.9-23.5-.8-3.1-2.9-5.3-3.8-6.8-.5-.8-.5-1.4-.3-2.2.2-1.7.4-2.6.6-4.2.3-1.2 1-1.2 1.6.1.6 1.1 1.6 2.7 2.4 3.7.9 1.2 1.1 1.6 3.2 1.7 3 .1 5.6-.2 7.7-1.4 1.4-.8 2.5-2.1 3.5-3.4 1.3-1.9 2.3-4 4.6-4.9 1.9-.8 3.6-1 6.3-1.2l9-1c-4.9-3.1-11.6-5.4-17-1.4-1.1 1-1.7.4-1.2-1 1.1-2.4 2.7-4.7 5-6 1.6-1 3.3-1.5 5.1-1.4zm404.7 45.1-.5 1.5c-.2.7-.1.6-.9.9-5.8 2.2-14.8 5.1-20.4 7.2-1.6.6-1.9.9-1.1-.8l.7-1.9c.3-.5.5-.6 1-.8l20.3-7.1c1.4-.5 1.4-.6.9 1zm-711-1.9-.4 1.4c-.2.6-.1.6-.8.9-5.4 2.2-13.8 5.1-19.1 7.2-1.5.6-1.7.9-1.1-.8l.7-1.7c.2-.5.4-.6.9-.8l19-7.1c1.3-.5 1.3-.6.8.9zm393.9-3.9-.3 1.4c-.2.7-.1.7-.7 1-4.9 2.6-12.6 6.1-17.4 8.5-1.4.7-1.6 1-1.1-.8l.6-1.8c.2-.5.3-.7.8-.9l17.3-8.3c1.2-.6 1.1-.7.8.9zm299.2-41.7c4.7 5.2 9.6 11.1 11.6 17.8.9 3 1.4 6.2 1 9.6-.6 3-.5 5.6-4.3 5.6-3.2 0-5.9-1.4-10-3.3-.8 1.7-1.6 3.3-2.7 5.4-.7 1.2-1.6 1.1-2.6.9-3.2-.6-5.7-1.5-7.3-3.1q-.2.2-.4.4c-2.4 2.1-5.6 3.1-9 3.3-3.7.2-7.1-.7-8.3-5.9-4 1.9-16.4 5-27.7 7.1-29.1 5.5-60.9 8.3-92.6 9.2-28.1.7-57.2-1.2-71.3-6.8l-.4 2.7c-.2 1.5-.3 1.6-2 1.3-4-.6-8.9-1.4-11.6-2.7-.1-.1-.2-.2-.3-.3-.8 3.2-2.8 5.5-5.3 7.2-3.8 2.6-8 4-13.4 4.9-1.7.4-.9-.6-.1-1 6.8-3.5 13.3-7.7 17.4-12.5-1.1-1.9-1-4.6-.6-5.9.5-1.7 3.2-4.9 5-6.3 1.2-1 2.6-1.5 4.2.4 3.8 4.5 8.1 6.1 13.4 7.8 29.8 9.4 97.2 4.1 119.6 1.8 30.7-3.2 57.6-7.9 67.9-12.4 1.8-.7 2.7-.5 2 1-.4.7-.7 1.3-1.1 2 1.3 3.9 9.5 2.8 13 .9 2.4-1.2 4-3.4 5.3-6.1.6-1.3 2-1.2 1.4.4-.5 1.6-1.1 3.1-1.8 4.5 1.7.9 3.4 1.4 5.7 2 .8.2 1.2.1 1.5-.6 1.3-2.4 2.1-4.7 3-6.7.8-1.7 2.1-1.4 1.6.4-.2.7-.5 1.2-.7 1.8 1.7.8 6.8 2.6 9.2 2.1 1.4-.3 1.5-.4.9-2.7-1.1-3.9-4-8.9-7.9-13.5-.6.7-.8.7-1.4 0-.8-.8-1.9-2.2-2.4-3-.6-1-.7-.8-.6-1.8.1-1.2.5-4.2.8-5.6.1-.4.2-.7.4-.8s.5 0 .9.5zm-513.2 5c4.6-.3 8 3.7 16 5.6 5.8 1.3 12.4 2.2 19.1 1.9 1.1-.1 1 .3.5 1.2l-1.9 3.4c-.7 1.2-.8 1.1-1.9.9-8.3-1.9-16.6 1.5-24.4 4.6-2.4 1-4.8 2-7.1 2.9-3.3 1.2-5 2.3-9.4.4-1.9-.9-3.7-2-5.3-2.9-7.1 5.9-15.5 8.7-29 12.8-20.8 5.8-48.6 8.3-69.8 8.7-28 .6-56.2-3.9-70.2-9.8l-.4 2.6c-.2 1.5-.4 1.5-2 1.3-4.1-.6-9-1.4-11.6-2.7-.1-.1-.2-.2-.3-.3-.8 3.2-2.9 5.5-5.3 7.2-3.8 2.5-8.1 4-13.4 4.9-1.7.3-1-.6-.2-1 6.8-3.5 13.3-7.7 17.5-12.4-1.2-1.9-1.1-4.6-.7-6 .5-1.6 3.2-4.9 5-6.3 1.2-.9 2.7-1.5 4.3.4 3.8 4.5 8.6 6.3 13.8 8 43.8 13.7 109 7.3 141.4-2.8 6.4-2.1 16-5.4 21.5-10.2 1.5-1.3 2.4-.7 1.9.7-.1.6-.3 1.2-.5 1.8 2.9 1.6 5.2 1.7 9.3 1 6.5-1.3 12.6-4.1 17.3-5.4-5.6-1.8-10.5-3.5-13.6-3.8-3-.2-6.8 1.1-8.9 2.9-.8.7-1.6.6-1.1-1.1 1.3-5 5.2-8.2 9.4-8.5zm26.4 21.5-.3 1.4c-.2.6-.1.5-.9.9-6.3 2.7-16.1 6.4-22.2 8.9-1.8.8-2 1.1-1.4-.6l.7-1.8c.2-.5.4-.7.9-.9l22.1-8.8c1.6-.6 1.6-.7 1.1.9zm62.8-20.5 3.4 2.9c.7.6.7.5.2 1.2-.9 1.2-1.7 2.2-2.5 3.1-.5.7-.5.8-1.3.2l-3.7-3c-.6-.4-.5-.6 0-1.1l2.8-3.3c.4-.5.5-.5 1.1 0zm-282.3 18.7c-.4-.1-.7.1-1.1.4-1.3.8-2.5 1.7-3.4 2.8-.4.6-.4.9.3 1.3 2.4 1.4 6 2.1 9.4 2.8-1.6-1.6-3-3.7-4.2-6.4-.2-.6-.6-.9-1-.9zm183.3 6.9c.1 0 .4.1.7.4l3.6 2.9c.7.6.7.5.2 1.3-.8 1.3-1.6 2.4-2.4 3.4-.6.7-.5.8-1.4.2l-3.9-2.9q-.2-.2-.3-.3c-.1.1-.2.3-.3.5-.9 1.3-1.6 2.3-2.4 3.3-.5.8-.5.9-1.4.3l-3.9-3c-.6-.5-.6-.7-.1-1.2l2.7-3.6c.4-.6.6-.5 1.2 0l3.7 2.9c.3.2.4.3.5.4 0-.1 0-.3.2-.6l2.8-3.5c.2-.3.3-.5.5-.5zm130.1-13.6c-1 .1-2 .5-3.2 1.5-.2.2-.2.4 0 .6 2 2 5.3 2.8 8.7 2.7.2 0 .2-.1.1-.4-.9-2.2-2.6-4.1-4.7-4.4q-.5 0-.9 0zm-10.4 32.2-.3 1.4c-.2.7-.1.6-1 1.1-6.4 3-16.6 7.1-22.9 10-1.8.8-2.1 1.1-1.5-.7l.7-1.9c.2-.5.4-.6 1-.9l22.8-9.9c1.6-.7 1.6-.7 1.2.9zm128.9-47.4c1 5.5 3.1 11.7 5.7 17.5 1 2.1 1.6 4.5 1.3 7.4-.2 1.9-.8 4.4-1.9 6.6-.7 1.2-1.3 1.7-2.8 1.6-3.2-.1-7.8-1.6-10.6-6.1-1.8 4.7-5.9 8.1-10.6 8.2-2.9 0-5.7-2.2-6.4-5.9q-.3-1.9-.5-3.9c-1.6 1.5-3.4 3.2-4.7 4.2-.9.6-1.1.7-2.6.8-1.9.1-5.4.2-7.2-.2-.9-.2-.9-.7-.6-1.7.7-3 1.5-5.3 2.9-7.3 3.1-4.1 7.6-6.2 11-7.2q-.1-.7-.1-1.3c0-.6-.1-.8.2-1.5l1.2-2.9c.4-1 .7-1.1.8 0 .2 4.1.6 6.6 1 10.7.3 2 .7 3.7 1 5 .5 2.8 1.8 5 5.2 4.9 3.3-.4 6.7-2.2 8.1-6.4l-3.3-16.6c-.2-.8-.1-.8.2-1.7.2-1 .5-1.4.7-2.2.7-2.3 1.2-2.2 1.7.3 1 6.2 2.1 10.9 3 15.2.7 2.8 1.4 4.4 2.6 5.8 1.9 2 5.4 3.6 8 3.7.9 0 1.5-.4 1-1.7-2.4-5.2-5.1-12-6.8-19.3 0-.5-.3-1.2 0-2 .2-1.1.8-2.9 1-4 .2-.9.5-1.4.7-1.5.4-.3.6.4.8 1.5zm-26.7 17.8c-3.8 1.8-8 3.5-10.6 6.4-.2.2-.3.4 0 .4 3.9.4 7.7-.1 11.2-1.3q-.3-2.7-.6-5.5zm67.9 9.7c-.3-.1-.8.1-1.2.4-1.2.9-2.5 1.7-3.3 2.8-.5.6-.5.9.2 1.4 2.4 1.3 6.1 2.1 9.5 2.7-1.6-1.6-3.1-3.7-4.3-6.4q-.3-.8-.9-.9zm238.3 8.5 3.3 2.9c.7.6.7.5.2 1.2-.8 1.2-1.6 2.2-2.4 3.1-.6.7-.5.9-1.3.2l-3.6-3c-.5-.4-.5-.6 0-1.1l2.7-3.3c.4-.5.5-.5 1.1 0zm-420.2-45.1c2 2.8 3.9 5.8 5 9 1.5 3.8 1.7 8 .7 11.2-1.1 2.7-1 .1-1 .1-.2-3.9-.8-6.5-1.9-9.3-.9-2.1-2.1-4.3-4.2-7.2-.6-.9-.5-.9-.3-1.6l.9-2.2c.1-.5.5-.4.8 0zm67.9-12.1c.9 2.4 2.2 4.3 3.4 5.8.7.8.2 1.8-.1 2.1q-.7 1-1.5 1.9c.5 2.5 1 4.8 1.5 7.1 1 5.8 2.3 11.3 3.4 17.5 1 5.5 1.6 9.5.7 13-.4 1.7-1.1 3.1-3 4-1.6.8-3.7 1.3-6.2 1.4-2.3 8.9-6.8 16.6-12.5 19.1-6.2 2.8-15.3.4-23.2-2.5-2.4-.8-1.4-2.2.4-1.7 6.9 1.8 14.1 2.3 21-1.2 4.8-2.3 9.9-7.7 12-14-1.6-.4-2.9-.9-3.5-1.6-1.5-1.5-1.1-3.6-.8-5.4.2-1.8.2-2 1.3-.8 1.7 1.9 9.2 2.6 12.3-.1-.8-4.5-1.9-10-2.9-15.2-1.6-8.2-2.2-10.7-3.4-17.5q-.3-1.6-.6-3.2c-.7-1.1-1.2-2.3-1.7-3.4-.1-.4-.3-1.2-.1-1.7.8-1.3 1.5-2.5 2.2-3.7.2-.3.4-.7.6-.8s.4.1.7.9zm335.1 9.9c2.4 1.1 1.9 2.6 1 3.5-2.8 2.6-7.3 5.2-11.2 5.9-1 .2-1.2-.6-.1-1.2 2.6-1.4 5.9-3.6 7.5-4.8-1.9-.8-4.3-1.1-6-1-1.9.1-3.1.7-4.8 2.4-.5.5-.8.1-.6-.6.7-2.7 2.7-4.7 4.8-5.4 2.8-1.1 6.9 0 9.4 1.2zm-451.9-11.9c.8 2.3 2.1 4.3 3.3 5.8.7.8.2 1.8-.1 2.1q-.7.9-1.5 1.9s3.1 14.1 4.4 21.3c1 5.6 1.4 9.6.5 13.1-.4 1.7-1.1 3.1-3 4-1.6.8-3.7 1.3-6.2 1.2-2.5 9-7 16.6-12.8 19-6.2 2.7-15.3.2-23.2-2.7-2.3-.9-1.3-2.2.5-1.8 6.9 2 14 2.5 21-.9 4.8-2.3 10-7.6 12.1-13.8-1.5-.4-2.8-1-3.4-1.7-1.5-1.5-1-3.6-.8-5.3.2-1.8.3-2.1 1.4-.9 1.6 2 9.1 2.7 12.2.1-.7-4.6-1.9-10.1-2.9-15.3-.9-5.3-2.1-9.9-3.4-17.4-.6-1.2-1.1-2.4-1.6-3.5-.1-.5-.3-1.3 0-1.7.7-1.3 1.4-2.5 2.2-3.7.1-.3.3-.7.5-.8.3 0 .5.2.8 1zm81 8.5c2.4 1.1 1.9 2.5 1 3.5-2.8 2.6-7.4 5.2-11.2 5.9-1 .2-1.2-.7-.1-1.2 2.6-1.4 5.9-3.6 7.5-4.8-1.9-.8-4.3-1.1-6-1.1-1.9.1-3.2.8-4.8 2.5-.6.4-.9.1-.6-.6.7-2.7 2.7-4.7 4.8-5.5 2.7-1 6.8.1 9.4 1.3zm102-1.4c.2 1.7.3 3.8.3 5.4-.2 1.7-.1 2.7-1.9 4-1.9 1.4-3.9 1.7-5.7 1.5-1.9 1.7-3.4 2.3-4.6 2.3-2.4 0-3.4-1.2-3.3-3.8.1-1.6.8-3.5 1.6-5.1.4-.7 1.1-.5.8.5-.2 1-.4 2-.4 2.8 0 1.3.3 1.7 1.9 1.8 1.1.1 2.3-.4 3.2-1l-.1-3c0-.7 0-1 .3-1.6l1-1.6c.3-.5.8-.6.8.1l.1 4.7c0 .2 0 .4.4.4 1.2 0 2.6-.3 3.6-.9.2-.2.2-.2.2-.5l-.2-3.1c0-.6 0-.9.2-1.3l1-1.8c.3-.4.7-.7.8.2zm19.5-3c3.6 23.3 9.8 39.1 5.3 51.2-.3 1.1-.7 2.3-.8-.2-.7-17.4-4.5-30.8-6.7-43.6-.5-2.7-.4-5 1.1-7.7.7-1.7.8-1.5 1.1.3zm-67.8-.3c3.6 23.3 9.8 39 5.3 51.2-.4 1-.7 2.3-.9-.2-.6-17.4-4.4-30.9-6.6-43.6-.5-2.8-.5-5 1.1-7.7.6-1.7.8-1.6 1.1.3zm-25.9 7c.2 1.5.3 3.4.2 4.8-.1 1.6 0 2.5-1.7 3.7s-3.6 1.5-5.2 1.4c-1.7 1.5-3.1 2-4.2 2.1-2.2-.1-3.1-1.2-3-3.5.1-1.5.7-3.2 1.5-4.7.3-.6 1-.4.7.5-.2.9-.4 1.8-.4 2.6 0 1.1.3 1.5 1.7 1.6 1.1.1 2.1-.4 2.9-.9v-2.7c0-.6 0-.9.3-1.5l.9-1.5c.3-.4.7-.4.7.2l.1 4.2c0 .2 0 .4.4.4 1.1 0 2.3-.3 3.2-.9.2-.1.3-.1.2-.4l-.2-2.8c0-.6 0-.8.3-1.2l.8-1.6c.3-.4.7-.6.8.2zm-92.5-8.5c3.7 22.5 9.8 37.7 5.4 49.4-.4 1-.8 2.2-.9-.2-.6-16.8-4.5-29.8-6.7-42-.4-2.7-.4-4.8 1.1-7.5.7-1.6.8-1.4 1.1.3zm-25.8 7.3c.2 1.5.3 3.4.3 4.8-.1 1.6-.1 2.5-1.7 3.7-1.8 1.2-3.6 1.5-5.2 1.4-1.7 1.4-3.1 2-4.3 2-2.1 0-3-1.1-2.9-3.5.1-1.4.7-3.1 1.4-4.6.4-.6 1-.4.7.5-.2.9-.4 1.8-.4 2.6.1 1.1.3 1.5 1.8 1.6 1 .1 2.1-.4 2.9-1l-.1-2.6c0-.6 0-.9.4-1.5l.9-1.5c.2-.4.6-.5.7.2l.1 4.2c0 .2 0 .4.3.4 1.1 0 2.4-.3 3.3-.9.2-.1.2-.2.2-.4l-.2-2.8c0-.6 0-.9.2-1.2l.9-1.6c.3-.4.7-.6.7.2zm119.5-10.1-.3 1.4c-.1.7 0 .6-.8 1-6.2 3-11.9 5.2-17.8 8-1.7.8-2 1.2-1.5-.6l.6-1.8c.2-.5.4-.6 1-.9l17.7-7.9c1.5-.7 1.5-.7 1.1.8zm-116.8-.8-.4 1.6c-.2.7-.1.6-1.1 1-7.1 3-12.5 5.2-19.4 8.1-2 .8-2.3 1.1-1.6-.8l.8-2c.2-.5.4-.7 1.1-.9l19.3-7.9c1.8-.7 1.8-.8 1.3.9zm192.9-2.9-.4 1.4c-.2.7-.1.7-1 1-6.6 2.7-15 5.7-21.4 8.3-1.8.7-2.1 1-1.5-.7l.8-1.9c.2-.5.4-.6 1-.9l21.4-8.1c1.6-.7 1.6-.7 1.1.9zm-114.8-.8-.2 1.4c-.1.7-.1.6-.9 1-5.9 3.3-15.4 8-21.2 11.1-1.6.9-1.9 1.2-1.4-.5l.5-1.9c.1-.5.3-.7.9-1l21.1-10.8c1.5-.9 1.4-.9 1.2.7zm67.5-5.8c2.5 0 4.6 2.1 2.7 6-.2.4-.4.8-.8 1.1-3.7 3.7-9.8 5.5-12.3 2.4-.3-.4-.7-.5-1.2-.1-.9.7-1.4 1.4-1.9 2.1s-1.3.4-.9-.5c1.2-2.4 2.2-3.8 3.7-4.7.6-.4.9-.5 1.5 0q.8.6 1.7 1c2.2-4.3 4.9-7 7-7.3q.2 0 .5 0zm-1.3 3.4c-1.8.1-3.3 1.6-4.8 4.2q.8.1 1.7 0c1.9-.2 4-1.1 5.6-2.4.1 0 .2-.1.1-.2-.4-1.1-1.3-1.7-2.6-1.6zm70.9-3.4c2.6 0 4.7 2.1 2.8 6-.3.4-.5.8-.9 1.1-3.6 3.7-9.8 5.5-12.2 2.4-.4-.4-.8-.5-1.3-.1-.9.7-1.3 1.4-1.8 2.1s-1.4.4-.9-.5c1.1-2.4 2.2-3.8 3.6-4.7.6-.4.9-.5 1.6 0q.8.6 1.7 1c2.1-4.3 4.9-7 6.9-7.3q.3 0 .5 0zm-1.3 3.4c-1.7.1-3.3 1.6-4.8 4.2q.9.1 1.7 0c1.9-.2 4.1-1.1 5.7-2.3.1-.1.1-.2.1-.3-.4-1.1-1.4-1.7-2.7-1.6zm-183-5.1c2.6 0 4.7 2.1 2.8 6-.2.4-.4.7-.8 1.1-3.7 3.6-10 5.5-12.5 2.4-.4-.4-.7-.5-1.3-.1-.9.7-1.3 1.3-1.8 2.1-.5.6-1.4.4-1-.6 1.2-2.4 2.3-3.7 3.8-4.6.6-.4.9-.5 1.5 0q.9.6 1.8.9c2.2-4.2 4.9-6.9 7-7.2q.3 0 .5 0zm-1.3 3.4c-1.8.1-3.4 1.6-4.9 4.2q.9.1 1.7 0c2-.2 4.2-1.1 5.8-2.4.1-.1.1-.1.1-.2-.4-1.1-1.4-1.7-2.7-1.6z" fill="#231f20" fill-rule="evenodd"/></svg>