<svg height="44" viewBox="0 0 166 44" width="166" xmlns="http://www.w3.org/2000/svg"><g fill="#231f20" fill-rule="evenodd"><path d="m162.2 35.8c.2 0 .2 0 .2.1-.1.3-.2.7-.3.9 0 .1-.1.1-.2.2-1.4.5-6.2 2.3-7.2 2.7-.2.1-.5.3-.6.3q-.2.1-.2 0c.1-.3.2-.8.3-1 0-.1.1-.1.2-.2 1.3-.5 6.3-2.4 7.8-3zm-37.7-1.3c.1 0 .1 0 .1.1 0 .3-.2.7-.2.9 0 .1-.1.1-.2.2-1.3.5-4.4 1.8-5.5 2.2h-.1c-.1.1-.4.3-.6.3q-.2.1-.2 0c.2-.3.3-.8.3-1 .1-.1.2-.1.2-.2 1.3-.5 4.7-1.9 6.2-2.5zm31.6-13c1.5 2.1 3.4 4.5 2.5 8.1-.1.5-.3 1-.7 1.2-.7.4-2.8-.5-3.6-1.1-.5 1.1-1.1 1.9-1.4 2-.4.2-1.8-.5-2.7-1.1-1.1 1-4.2 2.3-5.4-.9-4.6 2.4-14.9 4.1-21.9 1.5-.3 1-.3 1-.5 1-1.4-.4-2.6-.6-3.6-1-1.4 3.2-3.6 4.2-7.8 5-.5.2-.5-.3-.2-.4 2.3-1.1 6-2.9 7.3-4.8-1-1.2-.3-3.4 1.1-4.4.5-.4.6-.4 1-.1l.1.1.4.4c.5.7 1 1.2 1.7 1.6 2.9 1.6 7.4 2 11.3 1.8 5.6-.2 10.3-1.5 11.6-2.8.4-.3.6-.1.5.3s-.3.9-.5 1.3c2.5 1.4 4.8.5 6.3-2 .2-.3.3 0 .3.4-.1.4-.4 1-.5 1.5.5.3 1.7.7 1.8.6.4-.1.8-1.1 1.3-2.5.1-.3.2-.4.3-.1 0 .3 0 .7-.1 1.2.7.2 3.8.9 3.5.1-.7-2-1.6-3.5-2.5-4.8 0 0 .2-2.1.4-2.1zm-36.5 5.8c-.3 0-1 .9-1.1 1.3-.1.2 0 .2.1.3.5.3 1.2.5 2.6.8-.8-1.3-1.2-2.4-1.6-2.4zm38.1 5.7c.4.2 1 .5 1.3.8q.2.1 0 .3c-.1.4-.5.9-.7 1.3-.1.1-.2.1-.3 0-.4-.2-.9-.5-1.3-.7-.1 0-.1-.2 0-.3h-.1c.2-.4.5-1 .8-1.4 0-.1.1-.1.3 0zm-8.4-14.9c.6.1 1.3.4 1.8.5.2 0 .8.1.8.2 0 .3-.2.9-.5 1.2 0 0-.1 0-.2 0-.2.1-.4.6-1.4 1h.1c-.7.3-1 .3-1.8.6-.2 0-.4 0-.5-.1 0-.2.2-.4.3-.5.4-.2 2.5-1.3 2.5-1.4 0 0-.9-.3-1.4-.4q-.8-.1-1.5.4-.3.2-.5.5c-.2.2-.3 0-.2-.1 0-.2.1-.4.2-.5.5-1 1.4-1.5 2.3-1.4zm-51 14.5c.1 0 .2 0 .1.1 0 .2-.2.7-.3.9 0 .1-.1.1-.1.1-1.4.5-3.5 1.3-4.6 1.7-.2.1-.4.2-.6.3-.1 0-.3 0-.2-.1.1-.3.2-.8.3-.9.1-.2.1-.2.2-.2 1.3-.5 3.7-1.4 5.2-1.9zm9.6-12c.3 1.2.5 2.2.8 3.1.8 2.3 1.6 2.9 1.5 4.5 0 .8-.2 1.7-.6 2.4-.2.3-.6.5-1.1.5-.9 0-2.8-1.2-3.5-2.5-.8 2.1-2.5 3.4-4 3.4-1.3 0-2.4-.8-2.5-3.4-1.8 1.5-1.8 1.5-5 1.3-.3 0-.5-.2-.3-.5.4-1.3.8-2.5 1.6-3.3.8-.9 1.7-1.2 3.7-2 0-.3.1-.4.1-.7q0-.1.1-.2c.2-.4.2-.6.4-.9.1-.3.2-.1.2.2-.1 3.2-.3 5.7.6 6.7 1.6 1.7 4.2-.5 4.8-1.8-.4-1.6-.6-3.6-.8-4.9v-.2c.2-.7.2-1 .4-1.5s.3-.4.3.2c.3 1.6.4 2.6.7 4.2.4 2.4 1.9 3.1 3.1 3.5.8.2 1.4-.1 1.1-.8-.9-2.1-1.7-3-2.1-5.4h-.2v-.2c.1-.6.2-1.2.4-1.8.1-.5.3-.1.3.1zm-9.4 4.9c-2.2.8-3.4 1.1-4.2 2.3 0 .1 0 .1.1.1 1.1.2 3.4.2 4-.2.1-.7.1-1.5.1-2.2zm7.1-11.1c.3.9.2 1.6.1 2.1-.2.6-.4.9-1.1 1.1-.5.1-1.1 0-1.4-.5-.4.9-1.1 1.3-1.7 1.2-.8-.1-1.3-.9-.5-2.5.2-.4.4-.2.3 0-.4 1 0 1.4.5 1.4.8-.1 1.3-.6 1.4-1.6 0-.2-.1-.1.3-.4.3-.3.2-.1.2.2q0 .7.3.9c.3.3.8.3 1.2-.2 0-.2-.1-.5-.2-.7 0-.1 0-.2.1-.3l.4-.7s.1-.1.1 0zm5.5-2.7c.1 0 .2 0 .2.2.2 1.7.6 3.4.9 5.2.4 1.9.9 4 1.3 6.1.3 1.6.7 3.7.7 4.7q0 1.6-.3 3c-.1.3-.3.3-.3 0-.1-1.7-.4-3.6-.7-5.5-.5-2.3-1-4.8-1.5-7.3-.2-1.1-.5-2.3-.7-3.4-.1-.4-.1-.4 0-.9l.3-1.8c0-.1 0-.3.1-.3zm-4.7-2.1c.2 0 .2 0 .2.1-.1.3-.2.7-.3.9 0 .1-.1.1-.2.2-1.4.5-6.2 2.3-7.2 2.7-.2.2-.5.3-.6.3q-.2.2-.2 0c.1-.3.2-.8.3-1 0-.1.1-.1.2-.1 1.3-.6 6.3-2.5 7.8-3.1zm7.5-3.6c.4 0 .8.4.9.7.2 1.1-.4 2.1-1.3 2.7-1.1.8-2.7 1.1-3.9.4v.1c-.2-.2-.5.8-.8 1.1-.2.2-.2.2-.2-.1l.1-.5c.2-.5.5-1 .7-1.4.1-.3.3-.6.6-.4.3.1.7.4 1 .4.4-.7 1.1-1.8 1.7-2.4.3-.3.7-.6 1.2-.6zm-1.2 1.6c-.5.3-.8.9-1 1.3v.1c-.1.1.5 0 .5 0 .5-.1 1.8-.6 2-1.1 0-.2-.1-.3-.2-.5-.5-.3-.9-.2-1.3.2zm-42.9 12.9c1.3 0 1.6 1.1 5 2.3 1.1.5 2.6.8 4.7 1 .2.1.2.1.1.3-.4.6-.7.9-1.1 1.5-.1 0-.1.1-.2 0-3-1.2-8.3.1-9.7.5.8.5 1 1.5 1.1 2.3 0 .7-.1 1.5-.7 2-.5.3-1.4.3-2.2.1-.8-.3-1.6-.7-1.8-1.8-.5.7-1.8 1.7-2.8 1 .6 6.5-11.1 10-16.8 10.8-6.9 1-14.2.5-19.9-1.3-3.6-.9-6.9-2.6-9.6-5.9-.1-.1-.6-.7-.4-.9 0-.1.3 0 .7.3 2.2 1.5 5.2 3.2 8.9 4.3 5.5 1.7 11.3 2.2 17.1 1.8 5.9-.3 16.2-2.9 19.2-7.6 0 0 0-.1 0-.4-.2-1.1-.6-1.9-1-2.6-.2-.3-.2-.3-.2-.4.2-.6.3-1 .4-1.5.1-.4.1-.4.3-.1s.3.5.5.9c.4.5.4.8 1.1 1 3 .7 2.5-2 5.2-3 1.9-.7 3.3-1 5.5-1-3.7-2.2-5.1-1.3-6.2-.8-.3.2-.4.1-.3-.2.7-2 1.8-2.6 3.1-2.6zm-11.4.4c.4.2 1 .6 1.4.8.1.1.1.2 0 .3-.2.4-.5.9-.8 1.3 0 .1-.1.1-.3 0-.3-.2-.9-.5-1.2-.7-.2 0-.2-.2-.1-.3.2-.4.5-.9.8-1.3h-.1c.1-.2.1-.2.3-.1zm8.5 6.2c-.3 0-.7.2-.9.6q-.1.1 0 .2c.7.4 1.8.7 2.6.8 0-.7-.9-1.6-1.7-1.6zm-2.2 9.3c.1 0 .1 0 .1.1 0 .3-.1.7-.2.9 0 .1-.1.1-.2.2h-.1c-1.3.5-6.1 2.3-7.1 2.7-.2.2-.5.3-.7.4-.1 0-.2 0-.1-.1.1-.3.2-.8.3-.9 0-.2.1-.2.2-.2 1.3-.6 6.3-2.5 7.8-3.1zm-2.7-18.7c1 1.2 1.8 2.8 1.8 4.7 0 .8-.3 2.4-.7 2.4-.1 0-.1-.2 0-.4.3-2-.3-3.5-1.2-4.9-.3-.4-.5-.7-.5-.8 0-.2.2-.8.3-1s.2-.2.3 0zm21.9-6.2c.3 1.5 1.1 2.2 1.4 2.5.1.2-.6.7-1.1 1.2.4 2.1 1 5.5 1.7 8.4.4 2.3.4 4.4-.4 5.3-.5.8-2.1 1-2.8 1-.3 1.8-1.8 4.9-4.1 5.8-2.4.8-6.2-.2-8.3-1.5-.4-.2-.2-.7.1-.5 2.9 1.3 6 1.2 7.8.1 1.5-.7 2.8-2.3 3.7-4.1-.7-.2-1.2-1.1-.8-2.3.1-.3.2-.4.4-.1.7.6 2.3.6 3.9-.3-1.1-5.6-1.7-8-2.4-12.6-.4-.7-.5-.9-.6-1.5l.1.1c0-.2.7-1 1-1.5 0-.2.3-.3.4 0zm-13.9 3.3c.6 0 1.2.4 1.8.5.2 0 .8.1.8.2 0 .3-.3.9-.5 1.2-.1 0-.2 0-.3 0-.2.1-.4.6-1.3 1-.7.3-1 .3-1.8.6-.2 0-.4 0-.4-.2-.1-.1.1-.3.3-.4.3-.2 2.5-1.3 2.5-1.4 0 0-1-.3-1.5-.4q-.8-.1-1.5.4c-.2.1-.4.3-.5.5s-.3 0-.2-.1c.1-.2.1-.4.2-.5.5-1 1.4-1.5 2.4-1.4zm11 .6c.2.9.2 1.6.1 2.1-.2.6-.4.9-1.1 1.1-.5.1-1.1 0-1.4-.5-.4.9-1.1 1.3-1.8 1.2s-1.2-1-.4-2.5c.2-.4.3-.2.3 0-.4 1 0 1.4.5 1.4.8-.1 1.2-.6 1.4-1.6 0-.2-.1-.1.3-.4.2-.3.2-.1.2.2 0 .4.1.8.3.9.3.3.8.2 1.2-.2 0-.2-.1-.5-.2-.8 0 0 0-.1.1-.2l.3-.7c.1 0 .1-.1.2 0zm-12-4.5c.1 0 .1 0 .1.1 0 .2-.1.7-.2.9 0 .1-.1.1-.2.1h-.1c-1.3.5-6.1 2.3-7.1 2.8-.2.1-.5.2-.6.3q-.2.1-.2-.1c.1-.2.2-.8.3-.9 0-.1.1-.1.2-.2 1.3-.6 6.3-2.4 7.8-3zm19.1-.4.1.1s.1.1.1.3c.2 1.6.6 3.4 1 5.1.4 1.9.9 4.1 1.2 6.1.3 1.7.7 3.7.7 4.7 0 1.1 0 2.1-.3 3-.1.3-.2.3-.2-.1-.2-1.6-.4-3.6-.8-5.4-.4-2.4-1-4.8-1.5-7.3-.2-1.2-.5-2.3-.7-3.5 0-.3 0-.4 0-.9l.3-1.7c0-.2 0-.4.1-.4zm-6.2-1.3c.1 0 .1 0 .1.2-.1.2-.2.6-.3.8 0 .2-.1.2-.1.2-1.4.5-6.2 2.3-7.2 2.8h-.1c-.2 0-.4.2-.6.3-.1 0-.2 0-.1-.1 0-.2.2-.8.2-.9.1-.1.1-.2.2-.2 1.3-.6 6.4-2.4 7.9-3.1zm9.1-4.1c.5 0 .9.3 1 .7.2 1.1-.5 2.1-1.3 2.7-1.2.8-2.7 1-3.9.4-.2-.1-.5.8-.8 1.2-.2.2-.3.1-.3-.1l.2-.5c.2-.5.5-1 .7-1.4.1-.3.4-.6.6-.4.3.1.7.4 1 .4.3-.7 1.1-1.9 1.6-2.4.4-.3.8-.6 1.2-.6zm-1.2 1.5c-.4.4-.7.9-1 1.4v.1c0 .1.5 0 .6 0 .5-.2 1.8-.7 2-1.1 0-.2-.1-.4-.2-.5-.5-.4-.9-.3-1.4.1zm-75.6 27.5c.1 0 .1 0 .1.1 0 .3-.1.7-.2.9 0 .1-.1.1-.2.2-1.3.5-4.5 1.8-5.5 2.2-.2.1-.5.2-.7.3-.1.1-.2.1-.2-.1.2-.2.3-.8.4-.9 0-.1.1-.1.1-.2 1.3-.5 4.7-1.9 6.2-2.5zm17.7-11.7v.1c1.6 0 2.2 1.2 6.4 2 1.7.4 3.3.3 5.3.3.2 0 .2.1.2.2-.5.9-.7 1.2-1.1 1.9h-.1c-2.3-.6-3.6-.4-5.3.4-2.1.8-4.6 2.2-6.9 2.4-1 0-1.7-.6-2.5-1.5-2.8 2.5-8.8 3.4-12.4 1.7-.4 1.2-.4 1.2-.5 1.2-1.7-.4-2.2-.6-3.4-1-.8 3-5.9 4.7-7.2 4.9-.4 0-.6-.2-.1-.5 3.2-1.8 4.7-2.6 6.7-4.7-.7-.4-.7-1.7-.3-2.7.3-1.2 1.4-2.2 2-2.2s.8.6 1.3 1.1c2.4 3.3 5.8 3 9.1 2.6 1.8-.5 3.3-.9 4.3-1.8.4-.3.7-.8.8-.7.2 0 .1 1 0 1.2 2 1.7 5.9-.4 8.8-1.4-2.8-1-6.1-2-7.9-.6-.2.2-.4 0-.4-.2.3-1 1.4-2.7 3.2-2.7zm5.9 6.8c.1 0 .2 0 .1.2s-.2.7-.2.8c0 .2-.2.2-.2.2-1.3.5-4.5 1.8-5.5 2.3l-.1-.1c-.2.1-.4.3-.6.3q-.2.1-.2 0c.1-.3.3-.8.3-1l.2-.2c1.3-.5 4.7-1.8 6.2-2.5zm-25.3-3.1c-.5 0-1 .9-1.2 1.3v-.1c-.1.1 0 .2.1.3.5.4 1.1.6 2.4.9-.8-1.3-.8-2-1.1-2.3q-.1-.1-.2-.1zm14.7 5.6c.4.3 1.1.7 1.4.9.1.1.2.2.1.5-.2.3-.6.9-.8 1.2-.2.1-.2.1-.3.1-.5-.3-1-.5-1.5-.9-.4.5-.6 1-.9 1.2-.1.2-.1.2-.3.2-.3-.2-1-.6-1.4-.9-.2-.1-.2-.2-.2-.4.3-.4.6-.9.8-1.3l.1.1c.1-.2.2-.2.4-.1.4.3 1 .6 1.4.9.3-.5.6-1 .9-1.5 0-.1.1-.1.3 0zm21.4-21.4c.5.9 1.1 1.9 1.3 2.4.2.1.2.1 0 .3-.3.5-.5.8-.8 1.2l1.3 7.3c.4 2 1.3 5.7-.6 6.9-.5.3-1.6.6-2.3.6-1.6 6.7-6.7 7.5-12.5 4.4-.4-.3-.2-.7.3-.5 4.9 2.1 9.5.7 11.4-4.1-.5-.2-1-.6-.8-1.9.1-.6.2-.8.6-.5.5.6 2.6.6 3.8-.3-1.1-6.2-1.9-9-2.3-12.8-.3-.7-.5-1.1-.6-1.4-.1-.2-.1-.3 0-.4.2-.3.6-.9.9-1.3.2-.3.2-.2.3.1zm-2.7.7c.1 0 .2 0 .2.1-.1.3-.2.7-.3.9 0 .1-.1.1-.2.2v-.1c-1.3.6-6.2 2.4-7.2 2.8-.2.1-.4.3-.6.3q-.2.1-.2 0c.1-.3.2-.8.3-1 .1-.1.1-.1.2-.2 1.3-.5 6.3-2.4 7.8-3zm-.4 5c.2.8.2 1.5 0 2.1-.2.5-.3.8-1 1-.5.2-1.1 0-1.4-.5-.4 1-1.2 1.3-1.8 1.2-.8-.1-1.2-.9-.5-2.4.3-.5.4-.2.3 0-.3 1 .1 1.3.6 1.3.8-.1 1.2-.5 1.3-1.6.1-.1 0-.1.3-.4.3-.2.3-.1.3.2q-.1.7.2 1c.4.3.8.2 1.3-.2 0-.2-.1-.5-.2-.8 0-.1 0-.2 0-.2l.4-.7c0-.1.1-.2.2 0zm7.4-6.3s.2 0 .2.2v.1c.2 1.7.6 3.4 1 5.2.3 1.8.8 4 1.2 6.1.3 1.6.7 3.6.7 4.6 0 1.1-.1 2.1-.3 3-.1.3-.3.3-.3 0-.1-1.7-.3-3.6-.7-5.5-.5-2.4-1-4.8-1.5-7.3-.3-1.1-.5-2.3-.7-3.4-.1-.4-.1-.5 0-1l.2-1.7c0-.2.1-.3.2-.3zm2.6-5.6c.4 0 .9.3.9.7.3 1.1-.4 2.1-1.3 2.7-1.1.8-2.7 1-3.8.4-.2-.1-.5.8-.9 1.2-.1.2-.2.1-.2-.1l.2-.5c.2-.5.4-1 .7-1.4.1-.3.3-.6.6-.4.2.1.7.4.9.4.4-.7 1.1-1.9 1.7-2.4.3-.3.8-.6 1.2-.6zm-1.2 1.5c-.4.4-.7.9-1.1 1.4l.1.1c-.1.1.5 0 .6 0 .5-.2 1.8-.7 2-1.1 0-.2-.2-.4-.3-.5-.4-.4-.9-.3-1.3.1z"/><path d="m162.2 35.8c.2 0 .2 0 .2.1-.1.3-.2.7-.3.9 0 .1-.1.1-.2.2-1.4.5-6.2 2.3-7.2 2.7-.2.1-.5.3-.6.3q-.2.1-.2 0c.1-.3.2-.8.3-1 0-.1.1-.1.2-.2 1.3-.5 6.3-2.4 7.8-3zm-37.7-1.3c.1 0 .1 0 .1.1 0 .3-.2.7-.2.9 0 .1-.1.1-.2.2-1.3.5-4.4 1.8-5.5 2.2h-.1c-.1.1-.4.3-.6.3q-.2.1-.2 0c.2-.3.3-.8.3-1 .1-.1.2-.1.2-.2 1.3-.5 4.7-1.9 6.2-2.5zm31.6-13c1.5 2.1 3.4 4.5 2.5 8.1-.1.5-.3 1-.7 1.2-.7.4-2.8-.5-3.6-1.1-.5 1.1-1.1 1.9-1.4 2-.4.2-1.8-.5-2.7-1.1-1.1 1-4.2 2.3-5.4-.9-4.6 2.4-14.9 4.1-21.9 1.5-.3 1-.3 1-.5 1-1.4-.4-2.6-.6-3.6-1-1.4 3.2-3.6 4.2-7.8 5-.5.2-.5-.3-.2-.4 2.3-1.1 6-2.9 7.3-4.8-1-1.2-.3-3.4 1.1-4.4.5-.4.6-.4 1-.1l.1.1.4.4c.5.7 1 1.2 1.7 1.6 2.9 1.6 7.4 2 11.3 1.8 5.6-.2 10.3-1.5 11.6-2.8.4-.3.6-.1.5.3s-.3.9-.5 1.3c2.5 1.4 4.8.5 6.3-2 .2-.3.3 0 .3.4-.1.4-.4 1-.5 1.5.5.3 1.7.7 1.8.6.4-.1.8-1.1 1.3-2.5.1-.3.2-.4.3-.1 0 .3 0 .7-.1 1.2.7.2 3.8.9 3.5.1-.7-2-1.6-3.5-2.5-4.8 0 0 .2-2.1.4-2.1zm-36.5 5.8c-.3 0-1 .9-1.1 1.3-.1.2 0 .2.1.3.5.3 1.2.5 2.6.8-.8-1.3-1.2-2.4-1.6-2.4zm38.1 5.7c.4.2 1 .5 1.3.8q.2.1 0 .3c-.1.4-.5.9-.7 1.3-.1.1-.2.1-.3 0-.4-.2-.9-.5-1.3-.7-.1 0-.1-.2 0-.3h-.1c.2-.4.5-1 .8-1.4 0-.1.1-.1.3 0zm-8.4-14.9c.6.1 1.3.4 1.8.5.2 0 .8.1.8.2 0 .3-.2.9-.5 1.2 0 0-.1 0-.2 0-.2.1-.4.6-1.4 1h.1c-.7.3-1 .3-1.8.6-.2 0-.4 0-.5-.1 0-.2.2-.4.3-.5.4-.2 2.5-1.3 2.5-1.4 0 0-.9-.3-1.4-.4q-.8-.1-1.5.4-.3.2-.5.5c-.2.2-.3 0-.2-.1 0-.2.1-.4.2-.5.5-1 1.4-1.5 2.3-1.4zm-51 14.5c.1 0 .2 0 .1.1 0 .2-.2.7-.3.9 0 .1-.1.1-.1.1-1.4.5-3.5 1.3-4.6 1.7-.2.1-.4.2-.6.3-.1 0-.3 0-.2-.1.1-.3.2-.8.3-.9.1-.2.1-.2.2-.2 1.3-.5 3.7-1.4 5.2-1.9zm9.6-12c.3 1.2.5 2.2.8 3.1.8 2.3 1.6 2.9 1.5 4.5 0 .8-.2 1.7-.6 2.4-.2.3-.6.5-1.1.5-.9 0-2.8-1.2-3.5-2.5-.8 2.1-2.5 3.4-4 3.4-1.3 0-2.4-.8-2.5-3.4-1.8 1.5-1.8 1.5-5 1.3-.3 0-.5-.2-.3-.5.4-1.3.8-2.5 1.6-3.3.8-.9 1.7-1.2 3.7-2 0-.3.1-.4.1-.7q0-.1.1-.2c.2-.4.2-.6.4-.9.1-.3.2-.1.2.2-.1 3.2-.3 5.7.6 6.7 1.6 1.7 4.2-.5 4.8-1.8-.4-1.6-.6-3.6-.8-4.9v-.2c.2-.7.2-1 .4-1.5s.3-.4.3.2c.3 1.6.4 2.6.7 4.2.4 2.4 1.9 3.1 3.1 3.5.8.2 1.4-.1 1.1-.8-.9-2.1-1.7-3-2.1-5.4h-.2v-.2c.1-.6.2-1.2.4-1.8.1-.5.3-.1.3.1zm-9.4 4.9c-2.2.8-3.4 1.1-4.2 2.3 0 .1 0 .1.1.1 1.1.2 3.4.2 4-.2.1-.7.1-1.5.1-2.2zm7.1-11.1c.3.9.2 1.6.1 2.1-.2.6-.4.9-1.1 1.1-.5.1-1.1 0-1.4-.5-.4.9-1.1 1.3-1.7 1.2-.8-.1-1.3-.9-.5-2.5.2-.4.4-.2.3 0-.4 1 0 1.4.5 1.4.8-.1 1.3-.6 1.4-1.6 0-.2-.1-.1.3-.4.3-.3.2-.1.2.2q0 .7.3.9c.3.3.8.3 1.2-.2 0-.2-.1-.5-.2-.7 0-.1 0-.2.1-.3l.4-.7s.1-.1.1 0zm5.5-2.7c.1 0 .2 0 .2.2.2 1.7.6 3.4.9 5.2.4 1.9.9 4 1.3 6.1.3 1.6.7 3.7.7 4.7q0 1.6-.3 3c-.1.3-.3.3-.3 0-.1-1.7-.4-3.6-.7-5.5-.5-2.3-1-4.8-1.5-7.3-.2-1.1-.5-2.3-.7-3.4-.1-.4-.1-.4 0-.9l.3-1.8c0-.1 0-.3.1-.3zm-4.7-2.1c.2 0 .2 0 .2.1-.1.3-.2.7-.3.9 0 .1-.1.1-.2.2-1.4.5-6.2 2.3-7.2 2.7-.2.2-.5.3-.6.3q-.2.2-.2 0c.1-.3.2-.8.3-1 0-.1.1-.1.2-.1 1.3-.6 6.3-2.5 7.8-3.1zm7.5-3.6c.4 0 .8.4.9.7.2 1.1-.4 2.1-1.3 2.7-1.1.8-2.7 1.1-3.9.4v.1c-.2-.2-.5.8-.8 1.1-.2.2-.2.2-.2-.1l.1-.5c.2-.5.5-1 .7-1.4.1-.3.3-.6.6-.4.3.1.7.4 1 .4.4-.7 1.1-1.8 1.7-2.4.3-.3.7-.6 1.2-.6zm-1.2 1.6c-.5.3-.8.9-1 1.3v.1c-.1.1.5 0 .5 0 .5-.1 1.8-.6 2-1.1 0-.2-.1-.3-.2-.5-.5-.3-.9-.2-1.3.2zm-42.9 12.9c1.3 0 1.6 1.1 5 2.3 1.1.5 2.6.8 4.7 1 .2.1.2.1.1.3-.4.6-.7.9-1.1 1.5-.1 0-.1.1-.2 0-3-1.2-8.3.1-9.7.5.8.5 1 1.5 1.1 2.3 0 .7-.1 1.5-.7 2-.5.3-1.4.3-2.2.1-.8-.3-1.6-.7-1.8-1.8-.5.7-1.8 1.7-2.8 1 .6 6.5-11.1 10-16.8 10.8-6.9 1-14.2.5-19.9-1.3-3.6-.9-6.9-2.6-9.6-5.9-.1-.1-.6-.7-.4-.9 0-.1.3 0 .7.3 2.2 1.5 5.2 3.2 8.9 4.3 5.5 1.7 11.3 2.2 17.1 1.8 5.9-.3 16.2-2.9 19.2-7.6 0 0 0-.1 0-.4-.2-1.1-.6-1.9-1-2.6-.2-.3-.2-.3-.2-.4.2-.6.3-1 .4-1.5.1-.4.1-.4.3-.1s.3.5.5.9c.4.5.4.8 1.1 1 3 .7 2.5-2 5.2-3 1.9-.7 3.3-1 5.5-1-3.7-2.2-5.1-1.3-6.2-.8-.3.2-.4.1-.3-.2.7-2 1.8-2.6 3.1-2.6zm-11.4.4c.4.2 1 .6 1.4.8.1.1.1.2 0 .3-.2.4-.5.9-.8 1.3 0 .1-.1.1-.3 0-.3-.2-.9-.5-1.2-.7-.2 0-.2-.2-.1-.3.2-.4.5-.9.8-1.3h-.1c.1-.2.1-.2.3-.1zm8.5 6.2c-.3 0-.7.2-.9.6q-.1.1 0 .2c.7.4 1.8.7 2.6.8 0-.7-.9-1.6-1.7-1.6zm-2.2 9.3c.1 0 .1 0 .1.1 0 .3-.1.7-.2.9 0 .1-.1.1-.2.2h-.1c-1.3.5-6.1 2.3-7.1 2.7-.2.2-.5.3-.7.4-.1 0-.2 0-.1-.1.1-.3.2-.8.3-.9 0-.2.1-.2.2-.2 1.3-.6 6.3-2.5 7.8-3.1zm-2.7-18.7c1 1.2 1.8 2.8 1.8 4.7 0 .8-.3 2.4-.7 2.4-.1 0-.1-.2 0-.4.3-2-.3-3.5-1.2-4.9-.3-.4-.5-.7-.5-.8 0-.2.2-.8.3-1s.2-.2.3 0zm21.9-6.2c.3 1.5 1.1 2.2 1.4 2.5.1.2-.6.7-1.1 1.2.4 2.1 1 5.5 1.7 8.4.4 2.3.4 4.4-.4 5.3-.5.8-2.1 1-2.8 1-.3 1.8-1.8 4.9-4.1 5.8-2.4.8-6.2-.2-8.3-1.5-.4-.2-.2-.7.1-.5 2.9 1.3 6 1.2 7.8.1 1.5-.7 2.8-2.3 3.7-4.1-.7-.2-1.2-1.1-.8-2.3.1-.3.2-.4.4-.1.7.6 2.3.6 3.9-.3-1.1-5.6-1.7-8-2.4-12.6-.4-.7-.5-.9-.6-1.5l.1.1c0-.2.7-1 1-1.5 0-.2.3-.3.4 0zm-13.9 3.3c.6 0 1.2.4 1.8.5.2 0 .8.1.8.2 0 .3-.3.9-.5 1.2-.1 0-.2 0-.3 0-.2.1-.4.6-1.3 1-.7.3-1 .3-1.8.6-.2 0-.4 0-.4-.2-.1-.1.1-.3.3-.4.3-.2 2.5-1.3 2.5-1.4 0 0-1-.3-1.5-.4q-.8-.1-1.5.4c-.2.1-.4.3-.5.5s-.3 0-.2-.1c.1-.2.1-.4.2-.5.5-1 1.4-1.5 2.4-1.4zm11 .6c.2.9.2 1.6.1 2.1-.2.6-.4.9-1.1 1.1-.5.1-1.1 0-1.4-.5-.4.9-1.1 1.3-1.8 1.2s-1.2-1-.4-2.5c.2-.4.3-.2.3 0-.4 1 0 1.4.5 1.4.8-.1 1.2-.6 1.4-1.6 0-.2-.1-.1.3-.4.2-.3.2-.1.2.2 0 .4.1.8.3.9.3.3.8.2 1.2-.2 0-.2-.1-.5-.2-.8 0 0 0-.1.1-.2l.3-.7c.1 0 .1-.1.2 0zm-12-4.5c.1 0 .1 0 .1.1 0 .2-.1.7-.2.9 0 .1-.1.1-.2.1h-.1c-1.3.5-6.1 2.3-7.1 2.8-.2.1-.5.2-.6.3q-.2.1-.2-.1c.1-.2.2-.8.3-.9 0-.1.1-.1.2-.2 1.3-.6 6.3-2.4 7.8-3zm19.1-.4.1.1s.1.1.1.3c.2 1.6.6 3.4 1 5.1.4 1.9.9 4.1 1.2 6.1.3 1.7.7 3.7.7 4.7 0 1.1 0 2.1-.3 3-.1.3-.2.3-.2-.1-.2-1.6-.4-3.6-.8-5.4-.4-2.4-1-4.8-1.5-7.3-.2-1.2-.5-2.3-.7-3.5 0-.3 0-.4 0-.9l.3-1.7c0-.2 0-.4.1-.4zm-6.2-1.3c.1 0 .1 0 .1.2-.1.2-.2.6-.3.8 0 .2-.1.2-.1.2-1.4.5-6.2 2.3-7.2 2.8h-.1c-.2 0-.4.2-.6.3-.1 0-.2 0-.1-.1 0-.2.2-.8.2-.9.1-.1.1-.2.2-.2 1.3-.6 6.4-2.4 7.9-3.1zm9.1-4.1c.5 0 .9.3 1 .7.2 1.1-.5 2.1-1.3 2.7-1.2.8-2.7 1-3.9.4-.2-.1-.5.8-.8 1.2-.2.2-.3.1-.3-.1l.2-.5c.2-.5.5-1 .7-1.4.1-.3.4-.6.6-.4.3.1.7.4 1 .4.3-.7 1.1-1.9 1.6-2.4.4-.3.8-.6 1.2-.6zm-1.2 1.5c-.4.4-.7.9-1 1.4v.1c0 .1.5 0 .6 0 .5-.2 1.8-.7 2-1.1 0-.2-.1-.4-.2-.5-.5-.4-.9-.3-1.4.1zm-75.6 27.5c.1 0 .1 0 .1.1 0 .3-.1.7-.2.9 0 .1-.1.1-.2.2-1.3.5-4.5 1.8-5.5 2.2-.2.1-.5.2-.7.3-.1.1-.2.1-.2-.1.2-.2.3-.8.4-.9 0-.1.1-.1.1-.2 1.3-.5 4.7-1.9 6.2-2.5zm17.7-11.7v.1c1.6 0 2.2 1.2 6.4 2 1.7.4 3.3.3 5.3.3.2 0 .2.1.2.2-.5.9-.7 1.2-1.1 1.9h-.1c-2.3-.6-3.6-.4-5.3.4-2.1.8-4.6 2.2-6.9 2.4-1 0-1.7-.6-2.5-1.5-2.8 2.5-8.8 3.4-12.4 1.7-.4 1.2-.4 1.2-.5 1.2-1.7-.4-2.2-.6-3.4-1-.8 3-5.9 4.7-7.2 4.9-.4 0-.6-.2-.1-.5 3.2-1.8 4.7-2.6 6.7-4.7-.7-.4-.7-1.7-.3-2.7.3-1.2 1.4-2.2 2-2.2s.8.6 1.3 1.1c2.4 3.3 5.8 3 9.1 2.6 1.8-.5 3.3-.9 4.3-1.8.4-.3.7-.8.8-.7.2 0 .1 1 0 1.2 2 1.7 5.9-.4 8.8-1.4-2.8-1-6.1-2-7.9-.6-.2.2-.4 0-.4-.2.3-1 1.4-2.7 3.2-2.7zm5.9 6.8c.1 0 .2 0 .1.2s-.2.7-.2.8c0 .2-.2.2-.2.2-1.3.5-4.5 1.8-5.5 2.3l-.1-.1c-.2.1-.4.3-.6.3q-.2.1-.2 0c.1-.3.3-.8.3-1l.2-.2c1.3-.5 4.7-1.8 6.2-2.5zm-25.3-3.1c-.5 0-1 .9-1.2 1.3v-.1c-.1.1 0 .2.1.3.5.4 1.1.6 2.4.9-.8-1.3-.8-2-1.1-2.3q-.1-.1-.2-.1zm14.7 5.6c.4.3 1.1.7 1.4.9.1.1.2.2.1.5-.2.3-.6.9-.8 1.2-.2.1-.2.1-.3.1-.5-.3-1-.5-1.5-.9-.4.5-.6 1-.9 1.2-.1.2-.1.2-.3.2-.3-.2-1-.6-1.4-.9-.2-.1-.2-.2-.2-.4.3-.4.6-.9.8-1.3l.1.1c.1-.2.2-.2.4-.1.4.3 1 .6 1.4.9.3-.5.6-1 .9-1.5 0-.1.1-.1.3 0zm21.4-21.4c.5.9 1.1 1.9 1.3 2.4.2.1.2.1 0 .3-.3.5-.5.8-.8 1.2l1.3 7.3c.4 2 1.3 5.7-.6 6.9-.5.3-1.6.6-2.3.6-1.6 6.7-6.7 7.5-12.5 4.4-.4-.3-.2-.7.3-.5 4.9 2.1 9.5.7 11.4-4.1-.5-.2-1-.6-.8-1.9.1-.6.2-.8.6-.5.5.6 2.6.6 3.8-.3-1.1-6.2-1.9-9-2.3-12.8-.3-.7-.5-1.1-.6-1.4-.1-.2-.1-.3 0-.4.2-.3.6-.9.9-1.3.2-.3.2-.2.3.1zm-2.7.7c.1 0 .2 0 .2.1-.1.3-.2.7-.3.9 0 .1-.1.1-.2.2v-.1c-1.3.6-6.2 2.4-7.2 2.8-.2.1-.4.3-.6.3q-.2.1-.2 0c.1-.3.2-.8.3-1 .1-.1.1-.1.2-.2 1.3-.5 6.3-2.4 7.8-3zm-.4 5c.2.8.2 1.5 0 2.1-.2.5-.3.8-1 1-.5.2-1.1 0-1.4-.5-.4 1-1.2 1.3-1.8 1.2-.8-.1-1.2-.9-.5-2.4.3-.5.4-.2.3 0-.3 1 .1 1.3.6 1.3.8-.1 1.2-.5 1.3-1.6.1-.1 0-.1.3-.4.3-.2.3-.1.3.2q-.1.7.2 1c.4.3.8.2 1.3-.2 0-.2-.1-.5-.2-.8 0-.1 0-.2 0-.2l.4-.7c0-.1.1-.2.2 0zm7.4-6.3s.2 0 .2.2v.1c.2 1.7.6 3.4 1 5.2.3 1.8.8 4 1.2 6.1.3 1.6.7 3.6.7 4.6 0 1.1-.1 2.1-.3 3-.1.3-.3.3-.3 0-.1-1.7-.3-3.6-.7-5.5-.5-2.4-1-4.8-1.5-7.3-.3-1.1-.5-2.3-.7-3.4-.1-.4-.1-.5 0-1l.2-1.7c0-.2.1-.3.2-.3zm2.6-5.6c.4 0 .9.3.9.7.3 1.1-.4 2.1-1.3 2.7-1.1.8-2.7 1-3.8.4-.2-.1-.5.8-.9 1.2-.1.2-.2.1-.2-.1l.2-.5c.2-.5.4-1 .7-1.4.1-.3.3-.6.6-.4.2.1.7.4.9.4.4-.7 1.1-1.9 1.7-2.4.3-.3.8-.6 1.2-.6zm-1.2 1.5c-.4.4-.7.9-1.1 1.4l.1.1c-.1.1.5 0 .6 0 .5-.2 1.8-.7 2-1.1 0-.2-.2-.4-.3-.5-.4-.4-.9-.3-1.3.1z"/><path d="m162.2 35.8c.2 0 .2 0 .2.1-.1.3-.2.7-.3.9 0 .1-.1.1-.2.2-1.4.5-6.2 2.3-7.2 2.7-.2.1-.5.3-.6.3q-.2.1-.2 0c.1-.3.2-.8.3-1 0-.1.1-.1.2-.2 1.3-.5 6.3-2.4 7.8-3zm-37.7-1.3c.1 0 .1 0 .1.1 0 .3-.2.7-.2.9 0 .1-.1.1-.2.2-1.3.5-4.4 1.8-5.5 2.2h-.1c-.1.1-.4.3-.6.3q-.2.1-.2 0c.2-.3.3-.8.3-1 .1-.1.2-.1.2-.2 1.3-.5 4.7-1.9 6.2-2.5zm31.6-13c1.5 2.1 3.4 4.5 2.5 8.1-.1.5-.3 1-.7 1.2-.7.4-2.8-.5-3.6-1.1-.5 1.1-1.1 1.9-1.4 2-.4.2-1.8-.5-2.7-1.1-1.1 1-4.2 2.3-5.4-.9-4.6 2.4-14.9 4.1-21.9 1.5-.3 1-.3 1-.5 1-1.4-.4-2.6-.6-3.6-1-1.4 3.2-3.6 4.2-7.8 5-.5.2-.5-.3-.2-.4 2.3-1.1 6-2.9 7.3-4.8-1-1.2-.3-3.4 1.1-4.4.5-.4.6-.4 1-.1l.1.1.4.4c.5.7 1 1.2 1.7 1.6 2.9 1.6 7.4 2 11.3 1.8 5.6-.2 10.3-1.5 11.6-2.8.4-.3.6-.1.5.3s-.3.9-.5 1.3c2.5 1.4 4.8.5 6.3-2 .2-.3.3 0 .3.4-.1.4-.4 1-.5 1.5.5.3 1.7.7 1.8.6.4-.1.8-1.1 1.3-2.5.1-.3.2-.4.3-.1 0 .3 0 .7-.1 1.2.7.2 3.8.9 3.5.1-.7-2-1.6-3.5-2.5-4.8 0 0 .2-2.1.4-2.1zm-36.5 5.8c-.3 0-1 .9-1.1 1.3-.1.2 0 .2.1.3.5.3 1.2.5 2.6.8-.8-1.3-1.2-2.4-1.6-2.4zm38.1 5.7c.4.2 1 .5 1.3.8q.2.1 0 .3c-.1.4-.5.9-.7 1.3-.1.1-.2.1-.3 0-.4-.2-.9-.5-1.3-.7-.1 0-.1-.2 0-.3h-.1c.2-.4.5-1 .8-1.4 0-.1.1-.1.3 0zm-8.4-14.9c.6.1 1.3.4 1.8.5.2 0 .8.1.8.2 0 .3-.2.9-.5 1.2 0 0-.1 0-.2 0-.2.1-.4.6-1.4 1h.1c-.7.3-1 .3-1.8.6-.2 0-.4 0-.5-.1 0-.2.2-.4.3-.5.4-.2 2.5-1.3 2.5-1.4 0 0-.9-.3-1.4-.4q-.8-.1-1.5.4-.3.2-.5.5c-.2.2-.3 0-.2-.1 0-.2.1-.4.2-.5.5-1 1.4-1.5 2.3-1.4zm-51 14.5c.1 0 .2 0 .1.1 0 .2-.2.7-.3.9 0 .1-.1.1-.1.1-1.4.5-3.5 1.3-4.6 1.7-.2.1-.4.2-.6.3-.1 0-.3 0-.2-.1.1-.3.2-.8.3-.9.1-.2.1-.2.2-.2 1.3-.5 3.7-1.4 5.2-1.9zm9.6-12c.3 1.2.5 2.2.8 3.1.8 2.3 1.6 2.9 1.5 4.5 0 .8-.2 1.7-.6 2.4-.2.3-.6.5-1.1.5-.9 0-2.8-1.2-3.5-2.5-.8 2.1-2.5 3.4-4 3.4-1.3 0-2.4-.8-2.5-3.4-1.8 1.5-1.8 1.5-5 1.3-.3 0-.5-.2-.3-.5.4-1.3.8-2.5 1.6-3.3.8-.9 1.7-1.2 3.7-2 0-.3.1-.4.1-.7q0-.1.1-.2c.2-.4.2-.6.4-.9.1-.3.2-.1.2.2-.1 3.2-.3 5.7.6 6.7 1.6 1.7 4.2-.5 4.8-1.8-.4-1.6-.6-3.6-.8-4.9v-.2c.2-.7.2-1 .4-1.5s.3-.4.3.2c.3 1.6.4 2.6.7 4.2.4 2.4 1.9 3.1 3.1 3.5.8.2 1.4-.1 1.1-.8-.9-2.1-1.7-3-2.1-5.4h-.2v-.2c.1-.6.2-1.2.4-1.8.1-.5.3-.1.3.1zm-9.4 4.9c-2.2.8-3.4 1.1-4.2 2.3 0 .1 0 .1.1.1 1.1.2 3.4.2 4-.2.1-.7.1-1.5.1-2.2zm7.1-11.1c.3.9.2 1.6.1 2.1-.2.6-.4.9-1.1 1.1-.5.1-1.1 0-1.4-.5-.4.9-1.1 1.3-1.7 1.2-.8-.1-1.3-.9-.5-2.5.2-.4.4-.2.3 0-.4 1 0 1.4.5 1.4.8-.1 1.3-.6 1.4-1.6 0-.2-.1-.1.3-.4.3-.3.2-.1.2.2q0 .7.3.9c.3.3.8.3 1.2-.2 0-.2-.1-.5-.2-.7 0-.1 0-.2.1-.3l.4-.7s.1-.1.1 0zm5.5-2.7c.1 0 .2 0 .2.2.2 1.7.6 3.4.9 5.2.4 1.9.9 4 1.3 6.1.3 1.6.7 3.7.7 4.7q0 1.6-.3 3c-.1.3-.3.3-.3 0-.1-1.7-.4-3.6-.7-5.5-.5-2.3-1-4.8-1.5-7.3-.2-1.1-.5-2.3-.7-3.4-.1-.4-.1-.4 0-.9l.3-1.8c0-.1 0-.3.1-.3zm-4.7-2.1c.2 0 .2 0 .2.1-.1.3-.2.7-.3.9 0 .1-.1.1-.2.2-1.4.5-6.2 2.3-7.2 2.7-.2.2-.5.3-.6.3q-.2.2-.2 0c.1-.3.2-.8.3-1 0-.1.1-.1.2-.1 1.3-.6 6.3-2.5 7.8-3.1zm7.5-3.6c.4 0 .8.4.9.7.2 1.1-.4 2.1-1.3 2.7-1.1.8-2.7 1.1-3.9.4v.1c-.2-.2-.5.8-.8 1.1-.2.2-.2.2-.2-.1l.1-.5c.2-.5.5-1 .7-1.4.1-.3.3-.6.6-.4.3.1.7.4 1 .4.4-.7 1.1-1.8 1.7-2.4.3-.3.7-.6 1.2-.6zm-1.2 1.6c-.5.3-.8.9-1 1.3v.1c-.1.1.5 0 .5 0 .5-.1 1.8-.6 2-1.1 0-.2-.1-.3-.2-.5-.5-.3-.9-.2-1.3.2zm-42.9 12.9c1.3 0 1.6 1.1 5 2.3 1.1.5 2.6.8 4.7 1 .2.1.2.1.1.3-.4.6-.7.9-1.1 1.5-.1 0-.1.1-.2 0-3-1.2-8.3.1-9.7.5.8.5 1 1.5 1.1 2.3 0 .7-.1 1.5-.7 2-.5.3-1.4.3-2.2.1-.8-.3-1.6-.7-1.8-1.8-.5.7-1.8 1.7-2.8 1 .6 6.5-11.1 10-16.8 10.8-6.9 1-14.2.5-19.9-1.3-3.6-.9-6.9-2.6-9.6-5.9-.1-.1-.6-.7-.4-.9 0-.1.3 0 .7.3 2.2 1.5 5.2 3.2 8.9 4.3 5.5 1.7 11.3 2.2 17.1 1.8 5.9-.3 16.2-2.9 19.2-7.6 0 0 0-.1 0-.4-.2-1.1-.6-1.9-1-2.6-.2-.3-.2-.3-.2-.4.2-.6.3-1 .4-1.5.1-.4.1-.4.3-.1s.3.5.5.9c.4.5.4.8 1.1 1 3 .7 2.5-2 5.2-3 1.9-.7 3.3-1 5.5-1-3.7-2.2-5.1-1.3-6.2-.8-.3.2-.4.1-.3-.2.7-2 1.8-2.6 3.1-2.6zm-11.4.4c.4.2 1 .6 1.4.8.1.1.1.2 0 .3-.2.4-.5.9-.8 1.3 0 .1-.1.1-.3 0-.3-.2-.9-.5-1.2-.7-.2 0-.2-.2-.1-.3.2-.4.5-.9.8-1.3h-.1c.1-.2.1-.2.3-.1zm8.5 6.2c-.3 0-.7.2-.9.6q-.1.1 0 .2c.7.4 1.8.7 2.6.8 0-.7-.9-1.6-1.7-1.6zm-2.2 9.3c.1 0 .1 0 .1.1 0 .3-.1.7-.2.9 0 .1-.1.1-.2.2h-.1c-1.3.5-6.1 2.3-7.1 2.7-.2.2-.5.3-.7.4-.1 0-.2 0-.1-.1.1-.3.2-.8.3-.9 0-.2.1-.2.2-.2 1.3-.6 6.3-2.5 7.8-3.1zm-2.7-18.7c1 1.2 1.8 2.8 1.8 4.7 0 .8-.3 2.4-.7 2.4-.1 0-.1-.2 0-.4.3-2-.3-3.5-1.2-4.9-.3-.4-.5-.7-.5-.8 0-.2.2-.8.3-1s.2-.2.3 0zm21.9-6.2c.3 1.5 1.1 2.2 1.4 2.5.1.2-.6.7-1.1 1.2.4 2.1 1 5.5 1.7 8.4.4 2.3.4 4.4-.4 5.3-.5.8-2.1 1-2.8 1-.3 1.8-1.8 4.9-4.1 5.8-2.4.8-6.2-.2-8.3-1.5-.4-.2-.2-.7.1-.5 2.9 1.3 6 1.2 7.8.1 1.5-.7 2.8-2.3 3.7-4.1-.7-.2-1.2-1.1-.8-2.3.1-.3.2-.4.4-.1.7.6 2.3.6 3.9-.3-1.1-5.6-1.7-8-2.4-12.6-.4-.7-.5-.9-.6-1.5l.1.1c0-.2.7-1 1-1.5 0-.2.3-.3.4 0zm-13.9 3.3c.6 0 1.2.4 1.8.5.2 0 .8.1.8.2 0 .3-.3.9-.5 1.2-.1 0-.2 0-.3 0-.2.1-.4.6-1.3 1-.7.3-1 .3-1.8.6-.2 0-.4 0-.4-.2-.1-.1.1-.3.3-.4.3-.2 2.5-1.3 2.5-1.4 0 0-1-.3-1.5-.4q-.8-.1-1.5.4c-.2.1-.4.3-.5.5s-.3 0-.2-.1c.1-.2.1-.4.2-.5.5-1 1.4-1.5 2.4-1.4zm11 .6c.2.9.2 1.6.1 2.1-.2.6-.4.9-1.1 1.1-.5.1-1.1 0-1.4-.5-.4.9-1.1 1.3-1.8 1.2s-1.2-1-.4-2.5c.2-.4.3-.2.3 0-.4 1 0 1.4.5 1.4.8-.1 1.2-.6 1.4-1.6 0-.2-.1-.1.3-.4.2-.3.2-.1.2.2 0 .4.1.8.3.9.3.3.8.2 1.2-.2 0-.2-.1-.5-.2-.8 0 0 0-.1.1-.2l.3-.7c.1 0 .1-.1.2 0zm-12-4.5c.1 0 .1 0 .1.1 0 .2-.1.7-.2.9 0 .1-.1.1-.2.1h-.1c-1.3.5-6.1 2.3-7.1 2.8-.2.1-.5.2-.6.3q-.2.1-.2-.1c.1-.2.2-.8.3-.9 0-.1.1-.1.2-.2 1.3-.6 6.3-2.4 7.8-3zm19.1-.4.1.1s.1.1.1.3c.2 1.6.6 3.4 1 5.1.4 1.9.9 4.1 1.2 6.1.3 1.7.7 3.7.7 4.7 0 1.1 0 2.1-.3 3-.1.3-.2.3-.2-.1-.2-1.6-.4-3.6-.8-5.4-.4-2.4-1-4.8-1.5-7.3-.2-1.2-.5-2.3-.7-3.5 0-.3 0-.4 0-.9l.3-1.7c0-.2 0-.4.1-.4zm-6.2-1.3c.1 0 .1 0 .1.2-.1.2-.2.6-.3.8 0 .2-.1.2-.1.2-1.4.5-6.2 2.3-7.2 2.8h-.1c-.2 0-.4.2-.6.3-.1 0-.2 0-.1-.1 0-.2.2-.8.2-.9.1-.1.1-.2.2-.2 1.3-.6 6.4-2.4 7.9-3.1zm9.1-4.1c.5 0 .9.3 1 .7.2 1.1-.5 2.1-1.3 2.7-1.2.8-2.7 1-3.9.4-.2-.1-.5.8-.8 1.2-.2.2-.3.1-.3-.1l.2-.5c.2-.5.5-1 .7-1.4.1-.3.4-.6.6-.4.3.1.7.4 1 .4.3-.7 1.1-1.9 1.6-2.4.4-.3.8-.6 1.2-.6zm-1.2 1.5c-.4.4-.7.9-1 1.4v.1c0 .1.5 0 .6 0 .5-.2 1.8-.7 2-1.1 0-.2-.1-.4-.2-.5-.5-.4-.9-.3-1.4.1zm-75.6 27.5c.1 0 .1 0 .1.1 0 .3-.1.7-.2.9 0 .1-.1.1-.2.2-1.3.5-4.5 1.8-5.5 2.2-.2.1-.5.2-.7.3-.1.1-.2.1-.2-.1.2-.2.3-.8.4-.9 0-.1.1-.1.1-.2 1.3-.5 4.7-1.9 6.2-2.5zm17.7-11.7v.1c1.6 0 2.2 1.2 6.4 2 1.7.4 3.3.3 5.3.3.2 0 .2.1.2.2-.5.9-.7 1.2-1.1 1.9h-.1c-2.3-.6-3.6-.4-5.3.4-2.1.8-4.6 2.2-6.9 2.4-1 0-1.7-.6-2.5-1.5-2.8 2.5-8.8 3.4-12.4 1.7-.4 1.2-.4 1.2-.5 1.2-1.7-.4-2.2-.6-3.4-1-.8 3-5.9 4.7-7.2 4.9-.4 0-.6-.2-.1-.5 3.2-1.8 4.7-2.6 6.7-4.7-.7-.4-.7-1.7-.3-2.7.3-1.2 1.4-2.2 2-2.2s.8.6 1.3 1.1c2.4 3.3 5.8 3 9.1 2.6 1.8-.5 3.3-.9 4.3-1.8.4-.3.7-.8.8-.7.2 0 .1 1 0 1.2 2 1.7 5.9-.4 8.8-1.4-2.8-1-6.1-2-7.9-.6-.2.2-.4 0-.4-.2.3-1 1.4-2.7 3.2-2.7zm5.9 6.8c.1 0 .2 0 .1.2s-.2.7-.2.8c0 .2-.2.2-.2.2-1.3.5-4.5 1.8-5.5 2.3l-.1-.1c-.2.1-.4.3-.6.3q-.2.1-.2 0c.1-.3.3-.8.3-1l.2-.2c1.3-.5 4.7-1.8 6.2-2.5zm-25.3-3.1c-.5 0-1 .9-1.2 1.3v-.1c-.1.1 0 .2.1.3.5.4 1.1.6 2.4.9-.8-1.3-.8-2-1.1-2.3q-.1-.1-.2-.1zm14.7 5.6c.4.3 1.1.7 1.4.9.1.1.2.2.1.5-.2.3-.6.9-.8 1.2-.2.1-.2.1-.3.1-.5-.3-1-.5-1.5-.9-.4.5-.6 1-.9 1.2-.1.2-.1.2-.3.2-.3-.2-1-.6-1.4-.9-.2-.1-.2-.2-.2-.4.3-.4.6-.9.8-1.3l.1.1c.1-.2.2-.2.4-.1.4.3 1 .6 1.4.9.3-.5.6-1 .9-1.5 0-.1.1-.1.3 0zm21.4-21.4c.5.9 1.1 1.9 1.3 2.4.2.1.2.1 0 .3-.3.5-.5.8-.8 1.2l1.3 7.3c.4 2 1.3 5.7-.6 6.9-.5.3-1.6.6-2.3.6-1.6 6.7-6.7 7.5-12.5 4.4-.4-.3-.2-.7.3-.5 4.9 2.1 9.5.7 11.4-4.1-.5-.2-1-.6-.8-1.9.1-.6.2-.8.6-.5.5.6 2.6.6 3.8-.3-1.1-6.2-1.9-9-2.3-12.8-.3-.7-.5-1.1-.6-1.4-.1-.2-.1-.3 0-.4.2-.3.6-.9.9-1.3.2-.3.2-.2.3.1zm-2.7.7c.1 0 .2 0 .2.1-.1.3-.2.7-.3.9 0 .1-.1.1-.2.2v-.1c-1.3.6-6.2 2.4-7.2 2.8-.2.1-.4.3-.6.3q-.2.1-.2 0c.1-.3.2-.8.3-1 .1-.1.1-.1.2-.2 1.3-.5 6.3-2.4 7.8-3zm-.4 5c.2.8.2 1.5 0 2.1-.2.5-.3.8-1 1-.5.2-1.1 0-1.4-.5-.4 1-1.2 1.3-1.8 1.2-.8-.1-1.2-.9-.5-2.4.3-.5.4-.2.3 0-.3 1 .1 1.3.6 1.3.8-.1 1.2-.5 1.3-1.6.1-.1 0-.1.3-.4.3-.2.3-.1.3.2q-.1.7.2 1c.4.3.8.2 1.3-.2 0-.2-.1-.5-.2-.8 0-.1 0-.2 0-.2l.4-.7c0-.1.1-.2.2 0zm7.4-6.3s.2 0 .2.2v.1c.2 1.7.6 3.4 1 5.2.3 1.8.8 4 1.2 6.1.3 1.6.7 3.6.7 4.6 0 1.1-.1 2.1-.3 3-.1.3-.3.3-.3 0-.1-1.7-.3-3.6-.7-5.5-.5-2.4-1-4.8-1.5-7.3-.3-1.1-.5-2.3-.7-3.4-.1-.4-.1-.5 0-1l.2-1.7c0-.2.1-.3.2-.3zm2.6-5.6c.4 0 .9.3.9.7.3 1.1-.4 2.1-1.3 2.7-1.1.8-2.7 1-3.8.4-.2-.1-.5.8-.9 1.2-.1.2-.2.1-.2-.1l.2-.5c.2-.5.4-1 .7-1.4.1-.3.3-.6.6-.4.2.1.7.4.9.4.4-.7 1.1-1.9 1.7-2.4.3-.3.8-.6 1.2-.6zm-1.2 1.5c-.4.4-.7.9-1.1 1.4l.1.1c-.1.1.5 0 .6 0 .5-.2 1.8-.7 2-1.1 0-.2-.2-.4-.3-.5-.4-.4-.9-.3-1.3.1z"/><path d="m162.2 35.8c.2 0 .2 0 .2.1-.1.3-.2.7-.3.9 0 .1-.1.1-.2.2-1.4.5-6.2 2.3-7.2 2.7-.2.1-.5.3-.6.3q-.2.1-.2 0c.1-.3.2-.8.3-1 0-.1.1-.1.2-.2 1.3-.5 6.3-2.4 7.8-3zm-37.7-1.3c.1 0 .1 0 .1.1 0 .3-.2.7-.2.9 0 .1-.1.1-.2.2-1.3.5-4.4 1.8-5.5 2.2h-.1c-.1.1-.4.3-.6.3q-.2.1-.2 0c.2-.3.3-.8.3-1 .1-.1.2-.1.2-.2 1.3-.5 4.7-1.9 6.2-2.5zm31.6-13c1.5 2.1 3.4 4.5 2.5 8.1-.1.5-.3 1-.7 1.2-.7.4-2.8-.5-3.6-1.1-.5 1.1-1.1 1.9-1.4 2-.4.2-1.8-.5-2.7-1.1-1.1 1-4.2 2.3-5.4-.9-4.6 2.4-14.9 4.1-21.9 1.5-.3 1-.3 1-.5 1-1.4-.4-2.6-.6-3.6-1-1.4 3.2-3.6 4.2-7.8 5-.5.2-.5-.3-.2-.4 2.3-1.1 6-2.9 7.3-4.8-1-1.2-.3-3.4 1.1-4.4.5-.4.6-.4 1-.1l.1.1.4.4c.5.7 1 1.2 1.7 1.6 2.9 1.6 7.4 2 11.3 1.8 5.6-.2 10.3-1.5 11.6-2.8.4-.3.6-.1.5.3s-.3.9-.5 1.3c2.5 1.4 4.8.5 6.3-2 .2-.3.3 0 .3.4-.1.4-.4 1-.5 1.5.5.3 1.7.7 1.8.6.4-.1.8-1.1 1.3-2.5.1-.3.2-.4.3-.1 0 .3 0 .7-.1 1.2.7.2 3.8.9 3.5.1-.7-2-1.6-3.5-2.5-4.8 0 0 .2-2.1.4-2.1zm-36.5 5.8c-.3 0-1 .9-1.1 1.3-.1.2 0 .2.1.3.5.3 1.2.5 2.6.8-.8-1.3-1.2-2.4-1.6-2.4zm38.1 5.7c.4.2 1 .5 1.3.8q.2.1 0 .3c-.1.4-.5.9-.7 1.3-.1.1-.2.1-.3 0-.4-.2-.9-.5-1.3-.7-.1 0-.1-.2 0-.3h-.1c.2-.4.5-1 .8-1.4 0-.1.1-.1.3 0zm-8.4-14.9c.6.1 1.3.4 1.8.5.2 0 .8.1.8.2 0 .3-.2.9-.5 1.2 0 0-.1 0-.2 0-.2.1-.4.6-1.4 1h.1c-.7.3-1 .3-1.8.6-.2 0-.4 0-.5-.1 0-.2.2-.4.3-.5.4-.2 2.5-1.3 2.5-1.4 0 0-.9-.3-1.4-.4q-.8-.1-1.5.4-.3.2-.5.5c-.2.2-.3 0-.2-.1 0-.2.1-.4.2-.5.5-1 1.4-1.5 2.3-1.4zm-51 14.5c.1 0 .2 0 .1.1 0 .2-.2.7-.3.9 0 .1-.1.1-.1.1-1.4.5-3.5 1.3-4.6 1.7-.2.1-.4.2-.6.3-.1 0-.3 0-.2-.1.1-.3.2-.8.3-.9.1-.2.1-.2.2-.2 1.3-.5 3.7-1.4 5.2-1.9zm9.6-12c.3 1.2.5 2.2.8 3.1.8 2.3 1.6 2.9 1.5 4.5 0 .8-.2 1.7-.6 2.4-.2.3-.6.5-1.1.5-.9 0-2.8-1.2-3.5-2.5-.8 2.1-2.5 3.4-4 3.4-1.3 0-2.4-.8-2.5-3.4-1.8 1.5-1.8 1.5-5 1.3-.3 0-.5-.2-.3-.5.4-1.3.8-2.5 1.6-3.3.8-.9 1.7-1.2 3.7-2 0-.3.1-.4.1-.7q0-.1.1-.2c.2-.4.2-.6.4-.9.1-.3.2-.1.2.2-.1 3.2-.3 5.7.6 6.7 1.6 1.7 4.2-.5 4.8-1.8-.4-1.6-.6-3.6-.8-4.9v-.2c.2-.7.2-1 .4-1.5s.3-.4.3.2c.3 1.6.4 2.6.7 4.2.4 2.4 1.9 3.1 3.1 3.5.8.2 1.4-.1 1.1-.8-.9-2.1-1.7-3-2.1-5.4h-.2v-.2c.1-.6.2-1.2.4-1.8.1-.5.3-.1.3.1zm-9.4 4.9c-2.2.8-3.4 1.1-4.2 2.3 0 .1 0 .1.1.1 1.1.2 3.4.2 4-.2.1-.7.1-1.5.1-2.2zm7.1-11.1c.3.9.2 1.6.1 2.1-.2.6-.4.9-1.1 1.1-.5.1-1.1 0-1.4-.5-.4.9-1.1 1.3-1.7 1.2-.8-.1-1.3-.9-.5-2.5.2-.4.4-.2.3 0-.4 1 0 1.4.5 1.4.8-.1 1.3-.6 1.4-1.6 0-.2-.1-.1.3-.4.3-.3.2-.1.2.2q0 .7.3.9c.3.3.8.3 1.2-.2 0-.2-.1-.5-.2-.7 0-.1 0-.2.1-.3l.4-.7s.1-.1.1 0zm5.5-2.7c.1 0 .2 0 .2.2.2 1.7.6 3.4.9 5.2.4 1.9.9 4 1.3 6.1.3 1.6.7 3.7.7 4.7q0 1.6-.3 3c-.1.3-.3.3-.3 0-.1-1.7-.4-3.6-.7-5.5-.5-2.3-1-4.8-1.5-7.3-.2-1.1-.5-2.3-.7-3.4-.1-.4-.1-.4 0-.9l.3-1.8c0-.1 0-.3.1-.3zm-4.7-2.1c.2 0 .2 0 .2.1-.1.3-.2.7-.3.9 0 .1-.1.1-.2.2-1.4.5-6.2 2.3-7.2 2.7-.2.2-.5.3-.6.3q-.2.2-.2 0c.1-.3.2-.8.3-1 0-.1.1-.1.2-.1 1.3-.6 6.3-2.5 7.8-3.1zm7.5-3.6c.4 0 .8.4.9.7.2 1.1-.4 2.1-1.3 2.7-1.1.8-2.7 1.1-3.9.4v.1c-.2-.2-.5.8-.8 1.1-.2.2-.2.2-.2-.1l.1-.5c.2-.5.5-1 .7-1.4.1-.3.3-.6.6-.4.3.1.7.4 1 .4.4-.7 1.1-1.8 1.7-2.4.3-.3.7-.6 1.2-.6zm-1.2 1.6c-.5.3-.8.9-1 1.3v.1c-.1.1.5 0 .5 0 .5-.1 1.8-.6 2-1.1 0-.2-.1-.3-.2-.5-.5-.3-.9-.2-1.3.2zm-42.9 12.9c1.3 0 1.6 1.1 5 2.3 1.1.5 2.6.8 4.7 1 .2.1.2.1.1.3-.4.6-.7.9-1.1 1.5-.1 0-.1.1-.2 0-3-1.2-8.3.1-9.7.5.8.5 1 1.5 1.1 2.3 0 .7-.1 1.5-.7 2-.5.3-1.4.3-2.2.1-.8-.3-1.6-.7-1.8-1.8-.5.7-1.8 1.7-2.8 1 .6 6.5-11.1 10-16.8 10.8-6.9 1-14.2.5-19.9-1.3-3.6-.9-6.9-2.6-9.6-5.9-.1-.1-.6-.7-.4-.9 0-.1.3 0 .7.3 2.2 1.5 5.2 3.2 8.9 4.3 5.5 1.7 11.3 2.2 17.1 1.8 5.9-.3 16.2-2.9 19.2-7.6 0 0 0-.1 0-.4-.2-1.1-.6-1.9-1-2.6-.2-.3-.2-.3-.2-.4.2-.6.3-1 .4-1.5.1-.4.1-.4.3-.1s.3.5.5.9c.4.5.4.8 1.1 1 3 .7 2.5-2 5.2-3 1.9-.7 3.3-1 5.5-1-3.7-2.2-5.1-1.3-6.2-.8-.3.2-.4.1-.3-.2.7-2 1.8-2.6 3.1-2.6zm-11.4.4c.4.2 1 .6 1.4.8.1.1.1.2 0 .3-.2.4-.5.9-.8 1.3 0 .1-.1.1-.3 0-.3-.2-.9-.5-1.2-.7-.2 0-.2-.2-.1-.3.2-.4.5-.9.8-1.3h-.1c.1-.2.1-.2.3-.1zm8.5 6.2c-.3 0-.7.2-.9.6q-.1.1 0 .2c.7.4 1.8.7 2.6.8 0-.7-.9-1.6-1.7-1.6zm-2.2 9.3c.1 0 .1 0 .1.1 0 .3-.1.7-.2.9 0 .1-.1.1-.2.2h-.1c-1.3.5-6.1 2.3-7.1 2.7-.2.2-.5.3-.7.4-.1 0-.2 0-.1-.1.1-.3.2-.8.3-.9 0-.2.1-.2.2-.2 1.3-.6 6.3-2.5 7.8-3.1zm-2.7-18.7c1 1.2 1.8 2.8 1.8 4.7 0 .8-.3 2.4-.7 2.4-.1 0-.1-.2 0-.4.3-2-.3-3.5-1.2-4.9-.3-.4-.5-.7-.5-.8 0-.2.2-.8.3-1s.2-.2.3 0zm21.9-6.2c.3 1.5 1.1 2.2 1.4 2.5.1.2-.6.7-1.1 1.2.4 2.1 1 5.5 1.7 8.4.4 2.3.4 4.4-.4 5.3-.5.8-2.1 1-2.8 1-.3 1.8-1.8 4.9-4.1 5.8-2.4.8-6.2-.2-8.3-1.5-.4-.2-.2-.7.1-.5 2.9 1.3 6 1.2 7.8.1 1.5-.7 2.8-2.3 3.7-4.1-.7-.2-1.2-1.1-.8-2.3.1-.3.2-.4.4-.1.7.6 2.3.6 3.9-.3-1.1-5.6-1.7-8-2.4-12.6-.4-.7-.5-.9-.6-1.5l.1.1c0-.2.7-1 1-1.5 0-.2.3-.3.4 0zm-13.9 3.3c.6 0 1.2.4 1.8.5.2 0 .8.1.8.2 0 .3-.3.9-.5 1.2-.1 0-.2 0-.3 0-.2.1-.4.6-1.3 1-.7.3-1 .3-1.8.6-.2 0-.4 0-.4-.2-.1-.1.1-.3.3-.4.3-.2 2.5-1.3 2.5-1.4 0 0-1-.3-1.5-.4q-.8-.1-1.5.4c-.2.1-.4.3-.5.5s-.3 0-.2-.1c.1-.2.1-.4.2-.5.5-1 1.4-1.5 2.4-1.4zm11 .6c.2.9.2 1.6.1 2.1-.2.6-.4.9-1.1 1.1-.5.1-1.1 0-1.4-.5-.4.9-1.1 1.3-1.8 1.2s-1.2-1-.4-2.5c.2-.4.3-.2.3 0-.4 1 0 1.4.5 1.4.8-.1 1.2-.6 1.4-1.6 0-.2-.1-.1.3-.4.2-.3.2-.1.2.2 0 .4.1.8.3.9.3.3.8.2 1.2-.2 0-.2-.1-.5-.2-.8 0 0 0-.1.1-.2l.3-.7c.1 0 .1-.1.2 0zm-12-4.5c.1 0 .1 0 .1.1 0 .2-.1.7-.2.9 0 .1-.1.1-.2.1h-.1c-1.3.5-6.1 2.3-7.1 2.8-.2.1-.5.2-.6.3q-.2.1-.2-.1c.1-.2.2-.8.3-.9 0-.1.1-.1.2-.2 1.3-.6 6.3-2.4 7.8-3zm19.1-.4.1.1s.1.1.1.3c.2 1.6.6 3.4 1 5.1.4 1.9.9 4.1 1.2 6.1.3 1.7.7 3.7.7 4.7 0 1.1 0 2.1-.3 3-.1.3-.2.3-.2-.1-.2-1.6-.4-3.6-.8-5.4-.4-2.4-1-4.8-1.5-7.3-.2-1.2-.5-2.3-.7-3.5 0-.3 0-.4 0-.9l.3-1.7c0-.2 0-.4.1-.4zm-6.2-1.3c.1 0 .1 0 .1.2-.1.2-.2.6-.3.8 0 .2-.1.2-.1.2-1.4.5-6.2 2.3-7.2 2.8h-.1c-.2 0-.4.2-.6.3-.1 0-.2 0-.1-.1 0-.2.2-.8.2-.9.1-.1.1-.2.2-.2 1.3-.6 6.4-2.4 7.9-3.1zm9.1-4.1c.5 0 .9.3 1 .7.2 1.1-.5 2.1-1.3 2.7-1.2.8-2.7 1-3.9.4-.2-.1-.5.8-.8 1.2-.2.2-.3.1-.3-.1l.2-.5c.2-.5.5-1 .7-1.4.1-.3.4-.6.6-.4.3.1.7.4 1 .4.3-.7 1.1-1.9 1.6-2.4.4-.3.8-.6 1.2-.6zm-1.2 1.5c-.4.4-.7.9-1 1.4v.1c0 .1.5 0 .6 0 .5-.2 1.8-.7 2-1.1 0-.2-.1-.4-.2-.5-.5-.4-.9-.3-1.4.1zm-75.6 27.5c.1 0 .1 0 .1.1 0 .3-.1.7-.2.9 0 .1-.1.1-.2.2-1.3.5-4.5 1.8-5.5 2.2-.2.1-.5.2-.7.3-.1.1-.2.1-.2-.1.2-.2.3-.8.4-.9 0-.1.1-.1.1-.2 1.3-.5 4.7-1.9 6.2-2.5zm17.7-11.7v.1c1.6 0 2.2 1.2 6.4 2 1.7.4 3.3.3 5.3.3.2 0 .2.1.2.2-.5.9-.7 1.2-1.1 1.9h-.1c-2.3-.6-3.6-.4-5.3.4-2.1.8-4.6 2.2-6.9 2.4-1 0-1.7-.6-2.5-1.5-2.8 2.5-8.8 3.4-12.4 1.7-.4 1.2-.4 1.2-.5 1.2-1.7-.4-2.2-.6-3.4-1-.8 3-5.9 4.7-7.2 4.9-.4 0-.6-.2-.1-.5 3.2-1.8 4.7-2.6 6.7-4.7-.7-.4-.7-1.7-.3-2.7.3-1.2 1.4-2.2 2-2.2s.8.6 1.3 1.1c2.4 3.3 5.8 3 9.1 2.6 1.8-.5 3.3-.9 4.3-1.8.4-.3.7-.8.8-.7.2 0 .1 1 0 1.2 2 1.7 5.9-.4 8.8-1.4-2.8-1-6.1-2-7.9-.6-.2.2-.4 0-.4-.2.3-1 1.4-2.7 3.2-2.7zm5.9 6.8c.1 0 .2 0 .1.2s-.2.7-.2.8c0 .2-.2.2-.2.2-1.3.5-4.5 1.8-5.5 2.3l-.1-.1c-.2.1-.4.3-.6.3q-.2.1-.2 0c.1-.3.3-.8.3-1l.2-.2c1.3-.5 4.7-1.8 6.2-2.5zm-25.3-3.1c-.5 0-1 .9-1.2 1.3v-.1c-.1.1 0 .2.1.3.5.4 1.1.6 2.4.9-.8-1.3-.8-2-1.1-2.3q-.1-.1-.2-.1zm14.7 5.6c.4.3 1.1.7 1.4.9.1.1.2.2.1.5-.2.3-.6.9-.8 1.2-.2.1-.2.1-.3.1-.5-.3-1-.5-1.5-.9-.4.5-.6 1-.9 1.2-.1.2-.1.2-.3.2-.3-.2-1-.6-1.4-.9-.2-.1-.2-.2-.2-.4.3-.4.6-.9.8-1.3l.1.1c.1-.2.2-.2.4-.1.4.3 1 .6 1.4.9.3-.5.6-1 .9-1.5 0-.1.1-.1.3 0zm21.4-21.4c.5.9 1.1 1.9 1.3 2.4.2.1.2.1 0 .3-.3.5-.5.8-.8 1.2l1.3 7.3c.4 2 1.3 5.7-.6 6.9-.5.3-1.6.6-2.3.6-1.6 6.7-6.7 7.5-12.5 4.4-.4-.3-.2-.7.3-.5 4.9 2.1 9.5.7 11.4-4.1-.5-.2-1-.6-.8-1.9.1-.6.2-.8.6-.5.5.6 2.6.6 3.8-.3-1.1-6.2-1.9-9-2.3-12.8-.3-.7-.5-1.1-.6-1.4-.1-.2-.1-.3 0-.4.2-.3.6-.9.9-1.3.2-.3.2-.2.3.1zm-2.7.7c.1 0 .2 0 .2.1-.1.3-.2.7-.3.9 0 .1-.1.1-.2.2v-.1c-1.3.6-6.2 2.4-7.2 2.8-.2.1-.4.3-.6.3q-.2.1-.2 0c.1-.3.2-.8.3-1 .1-.1.1-.1.2-.2 1.3-.5 6.3-2.4 7.8-3zm-.4 5c.2.8.2 1.5 0 2.1-.2.5-.3.8-1 1-.5.2-1.1 0-1.4-.5-.4 1-1.2 1.3-1.8 1.2-.8-.1-1.2-.9-.5-2.4.3-.5.4-.2.3 0-.3 1 .1 1.3.6 1.3.8-.1 1.2-.5 1.3-1.6.1-.1 0-.1.3-.4.3-.2.3-.1.3.2q-.1.7.2 1c.4.3.8.2 1.3-.2 0-.2-.1-.5-.2-.8 0-.1 0-.2 0-.2l.4-.7c0-.1.1-.2.2 0zm7.4-6.3s.2 0 .2.2v.1c.2 1.7.6 3.4 1 5.2.3 1.8.8 4 1.2 6.1.3 1.6.7 3.6.7 4.6 0 1.1-.1 2.1-.3 3-.1.3-.3.3-.3 0-.1-1.7-.3-3.6-.7-5.5-.5-2.4-1-4.8-1.5-7.3-.3-1.1-.5-2.3-.7-3.4-.1-.4-.1-.5 0-1l.2-1.7c0-.2.1-.3.2-.3zm2.6-5.6c.4 0 .9.3.9.7.3 1.1-.4 2.1-1.3 2.7-1.1.8-2.7 1-3.8.4-.2-.1-.5.8-.9 1.2-.1.2-.2.1-.2-.1l.2-.5c.2-.5.4-1 .7-1.4.1-.3.3-.6.6-.4.2.1.7.4.9.4.4-.7 1.1-1.9 1.7-2.4.3-.3.8-.6 1.2-.6zm-1.2 1.5c-.4.4-.7.9-1.1 1.4l.1.1c-.1.1.5 0 .6 0 .5-.2 1.8-.7 2-1.1 0-.2-.2-.4-.3-.5-.4-.4-.9-.3-1.3.1z"/></g></svg>