<svg height="122" viewBox="0 0 766 122" width="766" xmlns="http://www.w3.org/2000/svg"><path d="m519.4 95.5-.3 1.3c-.1.7 0 .6-.7 1-5.1 2.4-13.1 5.8-18 8.1-1.4.7-1.6 1-1.1-.7l.6-1.7c.1-.5.3-.6.7-.9l18-8c1.2-.6 1.2-.6.8.9zm-166.6-48.1c1.8 0 3.8.7 5.9 2.2 6.6 4.6 15.6 8.6 23.4 9.1 1.2.1 1.1.2.5 1.2-.8 1.2-1.5 2.4-2.2 3.6-.7.9-.7.9-2 .6-7.5-2.5-17.2-3.8-24.2-2 1.8 3.5 1.2 7.2.6 10.1-.1.9-.5 1.2-.9 1.3-1.4.5-8.3.2-11-1.6-1.3-1-1.9-1.6-1.9-3.2-1.3 2.3-3.8 4.8-5.4 5.4-1.9.8-4.4 1.4-7 1.3-1.1 5.3-2.4 10.4-11.2 17.5-7.9 6.9-21.3 11.2-29.6 13.3-19.9 5.1-47.6 6.6-74.7-3.7-4.8-1.9-8.3-3.4-11.8-5.7-4-2.6-7.9-6.1-13.5-12.4-1.5-1.6-.8-3 1.3-1.4 5.2 3.9 10.3 7.1 16.8 10.2 5.7 2.6 12.6 5.1 20 7 15.6 4.4 40.6 5.2 60.1.2 20.7-5.4 35.5-13.6 40-23.5-.9-3.1-2.9-5.4-3.8-6.8-.5-.9-.5-1.4-.4-2.3.3-1.6.4-2.5.7-4.1.3-1.2 1-1.2 1.6 0s1.6 2.7 2.4 3.7c.9 1.2 1.1 1.6 3.2 1.7 3 .2 5.6-.1 7.7-1.4 1.4-.8 2.5-2.1 3.5-3.4 1.3-1.9 2.3-3.9 4.7-4.9 1.8-.8 3.5-1 6.2-1.1l9.1-1c-5-3.2-11.7-5.5-17-1.5-1.2 1-1.7.5-1.3-1 1.1-2.3 2.7-4.7 5-6 1.6-1 3.3-1.5 5.2-1.4zm405.7 45.2-.5 1.5c-.2.7-.1.6-.9.9-5.8 2.3-14.8 5.2-20.5 7.3-1.6.6-1.8.9-1.1-.9l.8-1.9c.2-.5.4-.6.9-.8l20.4-7.1c1.4-.5 1.4-.6.9 1zm-712.8-1.9-.4 1.4c-.2.6-.1.6-.8.9-5.5 2.2-13.9 5.1-19.2 7.2-1.5.6-1.7.9-1.1-.7l.7-1.8c.2-.4.4-.6.9-.8l19-7.1c1.3-.5 1.3-.6.9.9zm394.9-3.9-.3 1.4c-.2.7-.1.7-.8 1-4.9 2.6-12.6 6.1-17.4 8.5-1.3.7-1.5 1-1-.8l.5-1.8c.2-.5.3-.6.8-.9l17.3-8.3c1.2-.6 1.2-.7.9.9zm300-41.8c4.7 5.2 9.6 11.1 11.5 17.8.9 3.1 1.5 6.3 1 9.7-.5 3-.5 5.6-4.2 5.6-3.3 0-6-1.4-10.1-3.3-.7 1.7-1.6 3.2-2.7 5.4-.6 1.2-1.5 1.1-2.6.9-3.2-.6-5.6-1.5-7.3-3.2q-.2.2-.4.5c-2.4 2.1-5.6 3.1-9 3.3-3.7.2-7.1-.7-8.3-5.9-4 1.8-16.5 5-27.8 7.1-29.2 5.5-61 8.3-92.9 9.2-28.1.7-57.3-1.2-71.4-6.8l-.4 2.7c-.3 1.5-.4 1.6-2 1.3-4.1-.6-9-1.4-11.6-2.7-.2-.1-.3-.2-.4-.3-.8 3.2-2.8 5.5-5.3 7.2-3.8 2.6-8 4-13.4 5-1.7.3-.9-.6-.1-1 6.8-3.6 13.3-7.9 17.4-12.6-1.1-1.9-1-4.6-.6-6 .5-1.6 3.2-4.9 5-6.3 1.3-1 2.6-1.5 4.3.4 3.8 4.6 8.1 6.2 13.3 7.8 30 9.5 97.5 4.2 120 1.9 30.8-3.2 57.7-8 68.1-12.5 1.8-.7 2.7-.4 1.9 1.1-.3.7-.7 1.3-1 2 1.2 3.9 9.5 2.8 13 .9 2.4-1.3 4-3.4 5.3-6.2.6-1.3 2.1-1.1 1.5.5-.6 1.5-1.2 3-1.9 4.5 1.7.9 3.4 1.4 5.7 1.9.9.3 1.2.2 1.6-.5 1.2-2.4 2-4.7 3-6.8.7-1.6 2.1-1.4 1.5.4-.2.8-.4 1.3-.6 1.9 1.6.7 6.7 2.5 9.2 2.1 1.4-.3 1.4-.4.8-2.7-1.1-4-3.9-9-7.9-13.6-.6.7-.8.7-1.4 0-.8-.8-1.9-2.2-2.4-2.9-.6-1.1-.6-.9-.6-1.9.2-1.2.5-4.2.9-5.6 0-.4.2-.8.4-.9s.5.1.9.6zm-514.6 5c4.6-.3 8 3.7 16.1 5.6 5.7 1.4 12.3 2.2 19.1 1.9 1.1 0 1 .3.5 1.2l-1.9 3.5c-.7 1.1-.8 1.1-1.9.8-8.3-1.9-16.7 1.5-24.4 4.7-2.4 1-4.9 2-7.2 2.9-3.3 1.2-5 2.3-9.5.3-1.8-.8-3.6-1.9-5.2-2.8-7.2 5.9-15.5 8.7-29 12.8-20.9 5.8-48.9 8.3-70 8.7-28.1.6-56.4-3.9-70.4-9.8l-.5 2.6c-.2 1.5-.3 1.5-2 1.3-4-.6-9-1.4-11.6-2.7-.1-.1-.2-.2-.3-.3-.8 3.2-2.9 5.5-5.3 7.2-3.8 2.5-8.1 4-13.4 4.9-1.8.4-1-.6-.3-1 6.8-3.5 13.4-7.7 17.6-12.4-1.2-2-1.1-4.7-.7-6 .5-1.6 3.2-4.9 5-6.3 1.3-1 2.7-1.6 4.3.3 3.8 4.6 8.6 6.4 13.9 8.1 43.9 13.7 109.3 7.3 141.7-2.9 6.5-2 16.1-5.3 21.6-10.2 1.5-1.3 2.3-.7 1.9.8-.2.5-.3 1.1-.5 1.7 2.8 1.7 5.2 1.8 9.3 1 6.5-1.2 12.7-4.1 17.3-5.4-5.5-1.8-10.5-3.5-13.6-3.7-3-.3-6.8 1-8.9 2.8-.8.7-1.6.6-1.2-1.1 1.4-5 5.3-8.2 9.5-8.5zm26.5 21.5-.3 1.4c-.2.7-.1.6-1 1-6.2 2.7-16.1 6.4-22.2 8.9-1.7.7-2 1.1-1.4-.7l.7-1.8c.2-.4.4-.6 1-.8l22.1-8.8c1.6-.7 1.5-.7 1.1.8zm63-20.5 3.4 2.9c.7.6.7.5.1 1.2-.8 1.2-1.6 2.2-2.4 3.1-.6.7-.5.9-1.4.2l-3.6-3c-.6-.4-.5-.6-.1-1.1l2.8-3.3c.4-.5.6-.5 1.2 0zm-283.1 18.7c-.3 0-.7.2-1.1.5-1.3.8-2.5 1.7-3.4 2.8-.4.6-.4.9.3 1.3 2.4 1.4 6 2.1 9.5 2.7-1.7-1.6-3.1-3.7-4.3-6.4-.2-.5-.6-.8-1-.9zm183.8 6.9c.1 0 .4.2.7.4l3.6 3c.7.6.7.5.2 1.3-.8 1.2-1.6 2.3-2.4 3.4-.6.7-.5.8-1.4.2l-3.9-3q-.2-.1-.3-.2c-.1.1-.2.3-.4.5-.8 1.3-1.5 2.3-2.3 3.3-.6.7-.5.9-1.4.3l-3.9-3c-.7-.5-.6-.7-.2-1.3l2.8-3.5c.4-.6.5-.6 1.2 0l3.7 2.9c.2.2.4.3.5.4 0-.2 0-.3.2-.6l2.8-3.6c.2-.3.3-.5.5-.5zm130.4-13.5c-.9 0-2 .4-3.2 1.5-.2.2-.2.3 0 .6 2 2 5.3 2.7 8.7 2.6.2 0 .3-.1.2-.3-.9-2.3-2.7-4.2-4.8-4.4q-.4-.1-.9 0zm-10.4 32.2-.3 1.5c-.2.6-.1.6-1 1-6.5 3-16.7 7.2-23 10-1.8.8-2 1.2-1.5-.6l.7-1.9c.2-.6.4-.7 1-1l22.9-9.9c1.6-.7 1.6-.7 1.2.9zm390.9-46.4c2.4 1.1 1.9 2.6 1 3.6-2.8 2.5-7.4 5.2-11.2 5.8-1 .2-1.2-.6-.1-1.2 2.6-1.3 5.9-3.6 7.5-4.8-1.9-.8-4.3-1.1-6-1-1.9.1-3.2.7-4.8 2.4-.6.5-.9.1-.6-.6.6-2.7 2.7-4.6 4.8-5.4 2.7-1 6.9 0 9.4 1.2zm-261.6-1.1c1 5.5 3 11.7 5.7 17.6.9 2.1 1.5 4.4 1.2 7.4-.2 1.9-.7 4.4-1.9 6.6-.6 1.2-1.2 1.7-2.7 1.6-3.2-.1-7.9-1.6-10.7-6.1-1.8 4.7-5.9 8.1-10.6 8.2-3 0-5.8-2.2-6.4-5.9q-.3-1.9-.6-3.9c-1.5 1.5-3.3 3.2-4.6 4.1-.9.7-1.2.8-2.6.9-2 .1-5.5.2-7.2-.2-1-.2-1-.7-.7-1.7.7-3 1.5-5.4 3-7.4 3-4 7.5-6.2 11-7.2q-.1-.7-.1-1.3c-.1-.6-.1-.8.1-1.4l1.3-3c.4-1 .7-1.1.7.1.2 4 .7 6.5 1.1 10.6.2 2.1.7 3.7.9 5.1.6 2.7 1.9 5 5.3 4.9 3.3-.4 6.7-2.2 8.1-6.4l-3.3-16.7c-.2-.8-.1-.7.1-1.7.3-1 .6-1.4.8-2.2.7-2.4 1.3-2.2 1.7.3 1 6.2 2.1 10.9 3 15.2.7 2.8 1.4 4.5 2.6 5.8 1.9 2.1 5.5 3.6 8 3.8 1 0 1.6-.5 1.1-1.7-2.5-5.3-5.2-12-6.9-19.4 0-.5-.3-1.2 0-2 .2-1.1.8-2.9 1.1-4 .2-.9.4-1.4.6-1.5.4-.3.7.3.9 1.5zm-26.8 17.8c-3.8 1.9-8.1 3.5-10.7 6.4-.1.2-.3.4 0 .5 3.9.4 7.7-.1 11.3-1.4q-.4-2.7-.6-5.5zm68.1 9.8c-.4-.1-.9.1-1.3.4-1.2.8-2.5 1.7-3.3 2.8-.5.6-.5.9.2 1.3 2.4 1.4 6.1 2.1 9.6 2.8-1.7-1.6-3.1-3.8-4.3-6.4q-.4-.9-.9-.9zm238.9 8.5 3.3 2.9c.7.6.7.5.1 1.2-.8 1.2-1.6 2.2-2.3 3.1-.6.7-.5.9-1.4.2l-3.5-3c-.6-.4-.5-.6 0-1.1l2.6-3.3c.5-.5.6-.5 1.2 0zm-421.4-45.2c2.1 2.8 3.9 5.8 5.1 9 1.5 3.9 1.7 8 .7 11.2-1.2 2.7-1.1.2-1.1.2-.2-4-.7-6.6-1.8-9.4-.9-2.1-2.2-4.3-4.2-7.3-.6-.9-.5-.8-.3-1.5l.8-2.2c.2-.5.5-.4.8 0zm68.2-12.1c.8 2.3 2.1 4.3 3.4 5.8.6.8.2 1.7-.1 2.1q-.7.9-1.5 1.9c.5 2.4 1 4.8 1.4 7.1 1.1 5.8 2.4 11.3 3.5 17.5 1 5.6 1.5 9.6.7 13-.5 1.8-1.1 3.2-3 4.1-1.6.8-3.7 1.3-6.3 1.3-2.3 9-6.8 16.7-12.5 19.2-6.2 2.8-15.3.4-23.3-2.5-2.3-.8-1.3-2.2.4-1.7 7 1.8 14.2 2.3 21.1-1.2 4.8-2.3 9.9-7.7 12-14-1.5-.4-2.8-.9-3.5-1.6-1.4-1.6-1-3.7-.8-5.4.2-1.8.2-2.1 1.3-.8 1.7 1.9 9.3 2.5 12.3-.1-.8-4.6-1.9-10.1-2.9-15.3-1.5-8.2-2.1-10.8-3.4-17.5q-.3-1.6-.6-3.2c-.6-1.1-1.2-2.3-1.6-3.5-.2-.4-.4-1.2-.1-1.7.7-1.2 1.4-2.4 2.1-3.7.2-.3.4-.7.6-.7.2-.1.5.1.8.9zm-117.2-2.1c.9 2.4 2.1 4.3 3.4 5.9.6.8.1 1.7-.1 2q-.8 1-1.6 1.9s3.1 14.2 4.5 21.5c1 5.5 1.4 9.6.5 13-.5 1.7-1.2 3.1-3.1 4.1-1.6.7-3.7 1.2-6.2 1.2-2.5 8.9-7 16.6-12.8 19.1-6.2 2.7-15.3.1-23.2-2.8-2.4-.9-1.3-2.2.4-1.8 7 2 14.1 2.5 21.1-.9 4.9-2.3 10-7.6 12.2-13.9-1.6-.4-2.9-.9-3.5-1.6-1.4-1.6-1-3.7-.8-5.4.3-1.8.3-2.1 1.4-.8 1.6 1.9 9.2 2.6 12.3 0-.7-4.6-2-10-2.9-15.3-1-5.3-2.2-10-3.4-17.5-.7-1.1-1.2-2.3-1.6-3.5-.2-.4-.4-1.2-.1-1.7.7-1.2 1.5-2.4 2.2-3.7.2-.3.4-.6.6-.7s.4.1.7.9zm81.2 8.5c2.5 1.1 2 2.6 1 3.6-2.8 2.5-7.4 5.2-11.2 5.8-1 .2-1.2-.6-.1-1.2 2.6-1.3 5.9-3.6 7.5-4.8-1.9-.8-4.3-1.1-6-1-1.9.1-3.1.7-4.8 2.4-.6.5-.9.1-.6-.6.7-2.6 2.7-4.6 4.8-5.4 2.8-1 6.9 0 9.4 1.2zm102.3-1.3c.2 1.6.3 3.7.3 5.3-.2 1.8-.1 2.8-1.9 4.1-1.9 1.3-3.9 1.7-5.7 1.5-1.9 1.7-3.4 2.3-4.6 2.3-2.4 0-3.4-1.3-3.3-3.9.1-1.6.8-3.4 1.6-5.1.4-.7 1.1-.5.8.6-.2.9-.4 2-.4 2.8 0 1.2.3 1.7 1.9 1.8 1.1.1 2.2-.4 3.2-1.1l-.1-2.9c0-.7 0-1 .3-1.6l1-1.7c.3-.5.8-.5.8.2l.1 4.6c0 .3 0 .5.4.5 1.2 0 2.6-.3 3.6-1 .2-.1.2-.2.2-.5l-.2-3.1c0-.6 0-.9.2-1.3l1-1.7c.3-.5.7-.7.8.2zm19.5-3.1c3.7 23.4 9.9 39.2 5.4 51.4-.4 1-.7 2.3-.9-.2-.6-17.5-4.5-30.9-6.6-43.7-.5-2.8-.5-5 1-7.8.7-1.6.8-1.5 1.1.3zm-68-.3c3.7 23.4 9.9 39.2 5.4 51.4-.4 1-.7 2.3-.9-.2-.6-17.5-4.5-31-6.6-43.7-.5-2.8-.5-5.1 1-7.8.7-1.7.9-1.5 1.1.3zm-25.9 7c.2 1.6.3 3.4.3 4.9-.2 1.6-.1 2.5-1.8 3.7s-3.6 1.5-5.2 1.4c-1.7 1.5-3.1 2-4.2 2.1-2.2-.1-3.1-1.2-3-3.6.1-1.4.7-3.1 1.5-4.6.3-.6 1-.5.6.5-.1.9-.3 1.8-.3 2.6 0 1.1.3 1.5 1.7 1.6 1.1.1 2.1-.4 2.9-1v-2.6c0-.7 0-.9.3-1.5l.9-1.5c.3-.4.7-.5.7.2l.1 4.2c0 .2 0 .4.4.4 1.1 0 2.3-.3 3.3-.9.1-.1.2-.2.2-.4l-.2-2.9c-.1-.5-.1-.8.2-1.1l.9-1.6c.2-.4.6-.7.7.1zm-92.7-8.4c3.7 22.5 9.8 37.7 5.4 49.4-.4 1-.8 2.3-.9-.1-.6-16.9-4.5-29.9-6.7-42.1-.5-2.7-.4-4.9 1.1-7.5.7-1.7.8-1.5 1.1.3zm-25.9 7.2c.2 1.5.4 3.4.3 4.9-.1 1.6 0 2.5-1.7 3.7s-3.6 1.5-5.2 1.3c-1.7 1.5-3.1 2.1-4.3 2.1-2.2 0-3.1-1.1-2.9-3.5.1-1.4.6-3.1 1.4-4.6.3-.7 1-.5.7.5-.2.9-.4 1.8-.4 2.5.1 1.2.3 1.6 1.8 1.7 1 .1 2.1-.4 2.9-1l-.1-2.7c0-.6 0-.9.4-1.4l.9-1.5c.2-.5.6-.5.7.2l.1 4.1c0 .3 0 .4.3.4 1.1.1 2.4-.2 3.3-.8.2-.1.2-.2.2-.5l-.2-2.8c0-.5 0-.8.2-1.2l.9-1.5c.3-.4.7-.7.7.1zm479.9-10.2c.2 1.7.3 3.8.3 5.4-.2 1.7-.1 2.7-1.9 4.1-1.9 1.3-4 1.6-5.7 1.5-1.9 1.6-3.4 2.3-4.7 2.3-2.4-.1-3.4-1.3-3.2-3.9.1-1.6.7-3.4 1.6-5.1.3-.7 1-.5.7.5-.2 1-.4 2-.4 2.9 0 1.2.3 1.7 1.9 1.8 1.2.1 2.3-.5 3.2-1.1l-.1-2.9c.1-.7 0-1 .4-1.7l1-1.6c.3-.5.7-.6.8.2l.1 4.6c0 .3 0 .4.4.4 1.2.1 2.5-.2 3.6-.9.1-.1.2-.2.2-.5l-.2-3.1c-.1-.6-.1-.9.2-1.3l1-1.8c.2-.4.7-.7.8.2zm-360 .1-.3 1.4c-.2.7-.1.6-.9 1-6.2 3-11.9 5.2-17.9 8.1-1.7.8-1.9 1.1-1.4-.6l.6-1.8c.2-.5.4-.7.9-1l17.8-7.9c1.5-.7 1.5-.7 1.2.8zm-117.2-.7-.4 1.5c-.2.7-.1.6-1 1.1-7.2 3-12.6 5.2-19.5 8-2 .8-2.3 1.2-1.6-.7l.7-2c.3-.6.5-.7 1.2-1l19.4-7.9c1.7-.7 1.7-.8 1.2 1zm193.4-3-.4 1.5c-.2.7-.1.6-1 1-6.6 2.7-15 5.7-21.4 8.2-1.9.8-2.2 1.1-1.5-.7l.8-1.9c.2-.5.4-.6 1-.8l21.4-8.2c1.6-.6 1.6-.7 1.1.9zm-115.1-.8-.2 1.4c-.1.7 0 .6-.8 1.1-6 3.3-15.5 7.9-21.3 11-1.7.9-1.9 1.3-1.5-.5l.6-1.9c.1-.5.3-.6.8-.9l21.2-10.9c1.5-.8 1.5-.9 1.2.7zm67.7-5.8c2.5 0 4.6 2.1 2.7 6-.2.5-.4.8-.8 1.2-3.7 3.6-9.9 5.5-12.3 2.3-.4-.4-.7-.4-1.3 0-.8.7-1.3 1.3-1.8 2.1-.5.6-1.4.4-.9-.6 1.1-2.4 2.2-3.7 3.6-4.7.6-.4 1-.5 1.6 0q.8.7 1.7 1c2.2-4.2 4.9-7 6.9-7.3q.3 0 .6 0zm-1.3 3.4c-1.8.1-3.4 1.6-4.8 4.2q.8.1 1.7.1c1.9-.2 4-1.2 5.6-2.4.1-.1.2-.1.1-.3-.4-1.1-1.3-1.6-2.6-1.6zm71.1-3.4c2.6 0 4.7 2.1 2.8 6-.3.5-.5.8-.9 1.2-3.6 3.6-9.8 5.5-12.3 2.3-.3-.4-.7-.4-1.2 0-.9.7-1.3 1.3-1.9 2.1-.5.6-1.3.4-.9-.6 1.2-2.4 2.2-3.7 3.7-4.7.6-.4.9-.5 1.5 0q.9.7 1.7 1c2.2-4.2 4.9-7 7-7.3q.2 0 .5 0zm-1.3 3.4c-1.7.1-3.3 1.6-4.8 4.2q.8.1 1.7.1c1.9-.2 4.1-1.2 5.7-2.4.1-.1.1-.1.1-.3-.4-1.1-1.4-1.6-2.7-1.6zm-183.5-5.1c2.7 0 4.8 2.1 2.8 6-.2.4-.4.7-.8 1.1-3.7 3.7-10 5.5-12.5 2.4-.4-.4-.8-.5-1.3-.1-.9.7-1.3 1.4-1.9 2.1-.4.7-1.3.4-.9-.5 1.2-2.4 2.3-3.8 3.7-4.7.6-.4 1-.5 1.6 0q.9.6 1.7 1c2.3-4.3 5-7 7.1-7.3q.3 0 .5 0zm-1.3 3.4c-1.8.1-3.4 1.6-4.9 4.2q.9.1 1.7 0c2-.2 4.2-1.1 5.8-2.4.1 0 .2-.1.1-.2-.4-1.1-1.4-1.7-2.7-1.6z" fill="#231f20" fill-rule="evenodd"/></svg>