<svg width="18" height="26" viewBox="0 0 18 26" fill="none" xmlns="http://www.w3.org/2000/svg">
<path d="M16.6589 1.18164H0.658936V24.1816L8.65894 18.1816L16.6589 24.1816V1.18164Z" fill="#CDAD80"/>
<path d="M0.0163869 20.7734C0.0163869 14.4823 0.0314971 8.22792 1.71231e-05 1.97375C-0.00466288 1.04318 0.950767 -0.00783596 1.91316 4.40413e-05C6.52196 0.037784 11.1312 0.0167741 15.7402 0.0171541C16.7824 0.0172441 17.6068 0.876134 17.607 1.96755C17.6079 9.44822 17.6053 16.9289 17.6137 24.4095C17.6141 24.7975 17.4985 25.0981 17.175 25.2539C16.8579 25.4066 16.5178 25.4057 16.207 25.1757C14.4917 23.9061 12.7742 22.6395 11.0578 21.3715C10.3999 20.8853 9.73736 20.4055 9.08826 19.9068C8.88186 19.7482 8.73066 19.7635 8.52986 19.9144C7.12006 20.9738 5.70496 22.0258 4.28766 23.0744C3.32615 23.7858 2.35903 24.489 1.39278 25.1935C1.09466 25.4108 0.760387 25.4064 0.454197 25.2568C0.148107 25.1072 0.00546704 24.8319 0.010487 24.4523C0.026547 23.2385 0.0164069 22.0243 0.0163869 20.7734ZM15.4087 1.78429C11.0709 1.78403 6.73306 1.78355 2.3952 1.78377C1.83677 1.78379 1.71901 1.90816 1.71898 2.49649C1.71864 9.07062 1.71866 15.6446 1.71945 22.2187C1.71946 22.3468 1.72989 22.4749 1.73788 22.6586C2.0612 22.4223 2.33689 22.2224 2.61089 22.0202C4.49036 20.6326 6.36826 19.2428 8.24966 17.8582C8.59866 17.6014 9.01716 17.602 9.36386 17.8489C9.78806 18.151 10.2072 18.461 10.626 18.7711C11.5196 19.4327 12.4107 20.098 13.3047 20.759C14.1484 21.3828 14.9945 22.0029 15.9052 22.6729C15.9052 22.4585 15.9052 22.3176 15.9052 22.1767C15.9052 18.0801 15.9052 13.9836 15.9052 9.88702C15.9051 7.39722 15.9032 4.90744 15.9073 2.41763C15.9078 2.0881 15.8352 1.8349 15.4087 1.78429Z" fill="#404C6E"/>
<path d="M7.16809 3.34118C9.51569 3.34116 11.8378 3.33798 14.1599 3.34517C14.4465 3.34606 14.6319 3.22352 14.7436 2.98201C14.8565 2.73771 14.7792 2.40898 14.5647 2.24479C14.4715 2.17348 14.3374 2.11926 14.2219 2.11906C10.5899 2.1126 6.95789 2.11158 3.32594 2.1159C2.71097 2.11663 2.11682 2.76702 2.11523 3.42324C2.11211 4.7187 2.11423 6.01418 2.11423 7.30966C2.11424 11.2387 2.11416 15.1677 2.11452 19.0968C2.11455 19.3821 2.24606 19.5941 2.47382 19.6832C2.72153 19.7802 3.05813 19.7152 3.20797 19.496C3.29101 19.3745 3.33391 19.2009 3.33416 19.0508C3.34075 15.0706 3.3394 11.0904 3.33941 7.11024C3.33941 6.01079 3.33897 4.91135 3.33971 3.8119C3.33997 3.43592 3.43166 3.34185 3.79979 3.34155C4.91409 3.34064 6.02829 3.34119 7.16809 3.34118Z" fill="#CDAD80"/>
</svg>
