<svg fill="none" height="151" viewBox="0 0 151 151" width="151" xmlns="http://www.w3.org/2000/svg"><path d="m18.8838 74.0633c1.2756-4.706 2.5713-9.2803 3.8057-13.8711 1.7414-6.4759 3.4352-12.9646 5.1533-19.4468 1.925-7.2628 3.858-14.5235 5.7796-21.7872.515-1.9467 1.632-2.6657 3.5841-2.1476 6.1146 1.6226 12.2194 3.2821 18.3298 4.9204.4159.1115.8469.1663 1.2685.247.3501-2.6549.5244-2.8081 3.2439-2.8081h18.8706 1.5944c0-3.7162 0-7.3359 0-10.95555 0-2.90492.302-3.20072 3.2681-3.20072 8.9439 0 17.8882-.00006 26.8312.00003 2.528.00003 2.931.4063 2.932 2.95099v1.76773h1.64c8.011 0 16.021-.00064 24.031.00043 2.136.00028 2.641.50729 2.641 2.65089.001 37.7903.001 75.5807.001 113.3713v1.946c.914 0 1.778-.019 2.64.004 1.404.038 2.059.649 2.07 2.032.026 3.341.023 6.683.001 10.025-.01 1.46-.659 2.056-2.155 2.095-.246.006-.492 0-.738 0-45.2595 0-90.5194.001-135.77934 0-2.45025 0-2.88272-.428-2.88297-2.852-.00021-2.064.01557-4.128-.00307-6.192-.04856-5.376-.28334-5.173 5.04538-5.113.5148.006 1.0298.001 1.5681-.207-1.2736-.325-2.54591-.655-3.82106-.974-1.6354-.409-2.40746-1.729-1.97469-3.367 2.97805-11.271 5.94195-22.546 8.93405-33.8131 1.3432-5.0579 2.7411-10.1014 4.1214-15.2756zm118.2552 17.51c0-19.6497-.011-39.2993.024-58.9489.002-1.2348-.24-1.7048-1.604-1.6904-6.827.0721-13.656.0628-20.484.0059-1.245-.0104-1.555.3818-1.554 1.5861.032 25.6918.035 51.3837-.007 77.076-.002 1.354.44 1.62 1.684 1.61 6.778-.055 13.558-.025 20.337-.03.476-.001.952-.055 1.604-.095 0-6.476 0-12.8472 0-19.5137zm-101.0937 10.3857c1.4453-5.3545 2.9002-10.7067 4.3343-16.0645 5.1401-19.2025 10.2653-38.409 15.4304-57.6047.2811-1.0445.1245-1.5006-.968-1.779-4.0424-1.03-8.0636-2.143-12.0937-3.2217-1.5512-.4152-3.1046-.8221-4.8124-1.2738-1.0761 3.9969-2.111 7.8223-3.1358 11.6503-3.2241 12.0428-6.4429 24.0871-9.6665 36.13-4.5563 17.0216-9.1014 34.0464-13.7021 51.0554-.3222 1.191.0325 1.555 1.0858 1.827 3.2317.833 6.4432 1.745 9.6674 2.608 2.3447.627 4.6971 1.226 7.1197 1.857 2.2645-8.462 4.4711-16.707 6.7409-25.184zm72.7807-64.6514c0-4.4467 0-8.8934 0-13.3376-7.967 0-15.7076 0-23.5066 0v89.468h23.5066c0-25.3503 0-50.5929 0-76.1304zm-28.3123 19.17c0-4.5432 0-9.0863 0-13.6103-6.4153 0-12.5799 0-18.75 0v56.4178h18.75c0-14.2397 0-28.3761 0-42.8075zm-23.5938 33.916c0-15.5107 0-31.0214 0-46.5321-.0769-.0056-.1539-.0111-.2308-.0167-7.4814 27.9069-14.9628 55.8137-22.4553 83.7612h22.6861c0-12.369 0-24.643 0-37.2124zm24.3311 42.0264c-23.8045 0-47.609 0-71.51854 0v2.468 2.141h132.02154c0-1.554 0-2.997 0-4.609-20.139 0-40.173 0-60.503 0zm54.504-117.9686c-7.351 0-14.703 0-22.118 0v11.6647h23.498c0-3.6644-.016-7.1979.012-10.731.007-.8483-.439-.9829-1.392-.9337zm-22.21 111.5836c.027.52.054 1.039.08 1.556h23.415c0-3.913 0-7.717 0-11.549-7.869 0-15.638 0-23.495 0zm-37.0156-102.1463c-4.9353 0-9.8705 0-14.7674 0v14.0463h18.6542c0-4.7006 0-9.2905 0-14.0463-1.2596 0-2.4264 0-3.8868 0zm-14.8907 101.2883v2.406h18.7694c0-4.709 0-9.299 0-13.946-6.2683 0-12.4308 0-18.7694 0zm42.9093-106.0071h4.207c0-3.2395 0-6.264 0-9.35617-7.845 0-15.6186 0-23.4248 0v9.35617zm-3.832 99.0941c-5.1326 0-10.265 0-15.3647 0v9.361h23.3827c0-3.136 0-6.195 0-9.361-2.636 0-5.179 0-8.018 0zm-28.0177-9.438h4.5644c3.3011 0 3.2498 0 3.2779-3.245.0102-1.174-.3662-1.51-1.5159-1.496-4.711.055-9.4231.022-14.1348.022-3.3473 0-3.3086 0-3.2739 3.393.0105 1.033.3462 1.36 1.3643 1.344 3.1403-.05 6.2819-.018 9.718-.018z" fill="#cdad80"/><path d="m36.0137 102.075c-2.2382 8.361-4.4448 16.606-6.7093 25.068-2.4226-.631-4.775-1.23-7.1197-1.857-3.2242-.863-6.4357-1.775-9.6674-2.608-1.0533-.272-1.408-.636-1.0858-1.827 4.6007-17.009 9.1458-34.0338 13.7021-51.0554 3.2236-12.0429 6.4424-24.0872 9.6665-36.13 1.0248-3.8281 2.0597-7.6534 3.1358-11.6503 1.7078.4517 3.2612.8586 4.8124 1.2738 4.0301 1.0787 8.0513 2.1916 12.0937 3.2217 1.0925.2784 1.2491.7345.968 1.779-5.1651 19.1957-10.2903 38.4022-15.4304 57.6047-1.4341 5.3578-2.889 10.71-4.3659 16.1805zm4.3742-43.5513c.8733-3.2708 1.7438-6.5424 2.6205-9.8123.9958-3.714 1.1868-2.974-2.336-3.9843-1.0643-.3052-1.4843-.0516-1.7661 1.0072-3.1932 11.996-6.4281 23.9809-9.6456 35.9705-1.437 5.3549-2.8529 10.7155-4.2982 16.0682-.1842.6823-.3128 1.2777.566 1.5159 1.1663.316 2.3379.6121 3.6593.9561 3.7418-13.9294 7.443-27.708 11.2001-41.7213zm-16.4598 57.4423c.3922-.174 1.0524-.266 1.1348-.535.7284-2.381 1.3906-4.784 1.9725-7.204.0902-.375-.2211-1.147-.5266-1.264-1.1594-.442-2.3928-.69-3.6994-1.037-.8316 3.081-1.6155 5.985-2.444 9.054 1.1996.337 2.2671.636 3.5627.986zm20.4026-77.608c.5925.1297 1.287.5583 1.5538-.4224.5358-1.9688 1.0439-3.9452 1.597-6.0462-1.5848-.4175-2.9817-.7856-4.5041-1.1866-.3674 1.3247-.6825 2.5008-1.0202 3.6704-.8932 3.0931-.8971 3.0919 2.3735 3.9848z" fill="#404c6e"/><path d="m108.826 37.4551v75.9829c-7.868 0-15.6438 0-23.5067 0 0-29.8139 0-59.6002 0-89.468h23.5067zm-4.719 4.8662c0-2.0142.014-4.0286-.004-6.0427-.017-1.9657-.999-2.9375-2.988-2.9485-2.7513-.0152-5.5026-.0097-8.2537-.0019-2.1725.0061-2.9026.7284-2.9071 2.9029-.0095 4.618-.003 9.236-.003 13.8541 0 16.9-.0007 33.8.0006 50.6998.0002 2.743.5901 3.32 3.3769 3.322 2.4072.002 4.8145.001 7.2213 0 2.764-.001 3.557-.796 3.557-3.569.001-19.3072 0-38.6145 0-58.2167z" fill="#404c6e"/><path d="m80.5137 56.625v42.6601c-6.2951 0-12.4598 0-18.75 0 0-18.7611 0-37.5375 0-56.4178h18.75z" fill="#cdad80"/><g fill="#404c6e"><path d="m81.3984 132.42h60.3546v4.609c-43.9559 0-87.8581 0-132.02058 0 0-.716 0-1.429 0-2.141 0-.732 0-1.465 0-2.468z"/><path d="m135.895 14.4518c.813-.0496 1.259.0851 1.252.9333-.028 3.5331-.012 7.0666-.012 10.731-7.865 0-15.635 0-23.498 0 0-3.8507 0-7.6545 0-11.6647 7.415 0 14.767 0 22.258.0004z"/><path d="m113.545 125.893c0-3.333 0-6.524 0-9.851h23.495v11.549c-7.78 0-15.514 0-23.415 0-.027-.517-.053-1.037-.08-1.698z"/><path d="m61.6387 125.032c0-3.866 0-7.585 0-11.395h18.7694v13.946c-6.1811 0-12.3439 0-18.7694 0 0-.786 0-1.596 0-2.551z"/><path d="m100.863 118.264h7.87v9.361c-7.786 0-15.5243 0-23.3818 0 0-3.036 0-6.096 0-9.361z"/></g><path d="m104.107 42.4687c0 19.4548.001 38.762 0 58.0693 0 2.773-.793 3.568-3.557 3.569-2.4068.001-4.8141.002-7.2214 0-2.7867-.002-3.3767-.579-3.3769-3.322-.0012-16.8998-.0006-33.7998-.0006-50.6998 0-4.6181-.0065-9.2361.0031-13.8541.0044-2.1745.7345-2.8968 2.907-2.903 2.7512-.0077 5.5024-.0132 8.2538.002 1.988.011 2.971.9828 2.988 2.9485.018 2.0141.004 4.0284.004 6.1901zm-9.4371 34.0635c0 6.6808-.0166 13.3617.0071 20.0424.0115 3.2478-.4557 2.7749 2.7991 2.8097 1.9091.0204 1.912.0007 1.9121-1.9348.0007-18.8144.0004-37.6288.0004-56.4431 0-2.9736-.0024-2.8977-2.9524-2.994-1.4394-.047-1.8021.4237-1.7961 1.8244.0518 12.1333.0298 24.2669.0298 36.6954z" fill="#cdad80"/></svg>