<svg width="120" height="237" viewBox="0 0 120 237" fill="none" xmlns="http://www.w3.org/2000/svg">
<path d="M117 198.632L117 198.723L117 198.725C116.999 198.748 116.997 198.787 116.994 198.842C116.987 198.951 116.975 199.122 116.953 199.345C116.91 199.793 116.828 200.453 116.677 201.264C116.374 202.892 115.796 205.105 114.702 207.441C112.533 212.071 108.345 217.202 100.07 219.31L99.9895 219.33L99.9114 219.357C95.138 221.003 90.3178 219.284 85.9987 216.415C82.6026 214.159 79.8457 211.426 77.925 209.523C77.3966 208.999 76.9314 208.538 76.5337 208.167C74.7962 206.545 71.969 204.167 69.6113 202.221C68.4251 201.242 67.3454 200.362 66.5622 199.727C66.1705 199.409 65.8527 199.152 65.6327 198.975L65.3787 198.771L65.3599 198.756C65.3582 198.754 65.3565 198.752 65.3548 198.751C65.3001 198.7 65.2271 198.633 65.1365 198.556C64.9557 198.402 64.7019 198.201 64.3808 197.984C63.7437 197.555 62.8092 197.045 61.6298 196.743C59.1409 196.104 55.931 196.491 52.601 199.532C49.7768 202.111 45.4524 205.839 41.8167 208.936C40.0025 210.481 38.3661 211.865 37.1831 212.861C36.5917 213.36 36.1138 213.761 35.7839 214.038L35.4044 214.357L35.306 214.439L35.2811 214.46L35.2749 214.465L35.2733 214.467L35.273 214.467C35.2729 214.467 35.2729 214.467 36.5565 216.001L35.2729 214.467L35.1697 214.553L35.0845 214.647L35.0832 214.648L35.0814 214.65L35.0803 214.651L35.079 214.653L35.0786 214.653C35.0709 214.661 35.0557 214.677 35.0332 214.7C34.988 214.746 34.9133 214.821 34.8099 214.919C34.6028 215.115 34.2816 215.404 33.8519 215.744C32.9907 216.426 31.7067 217.305 30.0444 218.066C26.7474 219.577 21.928 220.649 15.8301 218.74L15.7454 218.713L15.6586 218.694C10.6592 217.604 7.26527 213.716 5.06071 209.343C2.85078 204.958 2.05875 200.509 2.03052 199.094C1.99628 197.379 1.99612 187.293 2.00483 177.59C2.00918 172.748 2.0157 168.015 2.02114 164.493C2.02385 162.732 2.0263 161.273 2.02806 160.255L2.03015 159.075L2.03072 158.765L2.03087 158.686L2.03091 158.666L2.03091 158.662L2.03091 158.661L2.03092 158.66L2.5805 2H2.626H2.71711H2.8101H2.90494H3.00164H3.10019H3.20059H3.30281H3.40686H3.51273H3.62041H3.7299H3.84117H3.95424H4.06908H4.1857H4.30408H4.42421H4.5461H4.66972H4.79508H4.92216H5.05096H5.18148H5.31369H5.4476H5.58319H5.72047H5.85941H6.00002H6.14229H6.2862H6.43176H6.57895H6.72776H6.87819H7.03023H7.18387H7.33911H7.49593H7.65433H7.81431H7.97584H8.13894H8.30358H8.46976H8.63747H8.80671H8.97747H9.14973H9.3235H9.49876H9.67551H9.85374H10.0334H10.2146H10.3972H10.5813H10.7668H10.9537H11.1421H11.3319H11.523H11.7156H11.9096H12.105H12.3017H12.4999H12.6993H12.9002H13.1024H13.3059H13.5107H13.7169H13.9244H14.1332H14.3433H14.5547H14.7674H14.9814H15.1966H15.4131H15.6309H15.8499H16.0701H16.2916H16.5143H16.7382H16.9633H17.1896H17.4172H17.6459H17.8757H18.1068H18.339H18.5724H18.8069H19.0425H19.2793H19.5172H19.7563H19.9964H20.2376H20.48H20.7234H20.9679H21.2134H21.4601H21.7077H21.9565H22.2062H22.457H22.7088H22.9617H23.2155H23.4704H23.7262H23.983H24.2408H24.4996H24.7593H25.02H25.2816H25.5442H25.8077H26.0721H26.3375H26.6037H26.8709H27.1389H27.4078H27.6776H27.9483H28.2199H28.4922H28.7655H29.0396H29.3145H29.5902H29.8667H30.1441H30.4222H30.7012H30.9809H31.2614H31.5427H31.8247H32.1075H32.3911H32.6753H32.9603H33.2461H33.5325H33.8197H34.1075H34.3961H34.6853H34.9752H35.2658H35.557H35.8489H36.1414H36.4346H36.7284H37.0228H37.3179H37.6135H37.9098H38.2066H38.504H38.802H39.1006H39.3997H39.6994H39.9996H40.3004H40.6017H40.9035H41.2058H41.5087H41.812H42.1158H42.4202H42.725H43.0302H43.3359H43.6421H43.9487H44.2558H44.5633H44.8712H45.1795H45.4882H45.7974H46.1069H46.4168H46.7271H47.0377H47.3487H47.6601H47.9718H48.2838H48.5962H48.9089H49.2219H49.5352H49.8488H50.1627H50.4769H50.7914H51.1061H51.4211H51.7364H52.0519H52.3676H52.6836H52.9997H53.3161H53.6327H53.9495H54.2665H54.5837H54.901H55.2185H55.5362H55.854H56.172H56.4901H56.8084H57.1267H57.4452H57.7638H58.0825H58.4012H58.7201H59.039H59.358H59.677H59.9961H60.3153H60.6345H60.9537H61.2729H61.5922H61.9114H62.2307H62.5499H62.8692H63.1884H63.5075H63.8267H64.1457H64.4648H64.7837H65.1026H65.4214H65.7401H66.0588H66.3773H66.6957H67.014H67.3322H67.6502H67.9681H68.2859H68.6035H68.9209H69.2382H69.5553H69.8721H70.1888H70.5053H70.8216H71.1377H71.4535H71.7691H72.0845H72.3996H72.7145H73.0291H73.3434H73.6575H73.9712H74.2847H74.5979H74.9107H75.2232H75.5355H75.8473H76.1589H76.47H76.7809H77.0913H77.4014H77.7111H78.0205H78.3294H78.6379H78.946H79.2537H79.561H79.8678H80.1742H80.4802H80.7857H81.0907H81.3952H81.6993H82.0029H82.306H82.6086H82.9107H83.2122H83.5132H83.8137H84.1137H84.4131H84.7119H85.0102H85.3079H85.6051H85.9016H86.1976H86.4929H86.7876H87.0817H87.3752H87.6681H87.9603H88.2519H88.5428H88.833H89.1226H89.4114H89.6996H89.9871H90.2739H90.56H90.8454H91.13H91.4139H91.6971H91.9795H92.2612H92.542H92.8222H93.1015H93.38H93.6578H93.9347H94.2109H94.4862H94.7607H95.0343H95.3071H95.5791H95.8502H96.1204H96.3898H96.6583H96.9259H97.1926H97.4584H97.7233H97.9872H98.2503H98.5124H98.7735H99.0337H99.293H99.5512H99.8086H100.065H100.32H100.575H100.828H101.08H101.332H101.582H101.831H102.079H102.326H102.572H102.818H103.061H103.304H103.546H103.787H104.026H104.265H104.502H104.738H104.973H105.207H105.44H105.672H105.902H106.132H106.36H106.587H106.812H107.037H107.26H107.482H107.703H107.923H108.141H108.358H108.574H108.789H109.002H109.214H109.425H109.634H109.842H110.049H110.255H110.459H110.662H110.863H111.063H111.262H111.46H111.656H111.85H112.044H112.236H112.426H112.615H112.803H112.989H113.174H113.357H113.539H113.719H113.898H114.076H114.252H114.426H114.599H114.771H114.941H115.109H115.276H115.442H115.606H115.768H115.929H116.088H116.245H116.401H116.556H116.709H116.86H116.933C116.95 16.077 116.966 63.0713 116.978 107.603C116.985 131.077 116.99 153.867 116.994 170.787L116.998 191.119L117 196.769L117 198.252L117 198.632Z" fill="#232c13" stroke="white" stroke-width="4"/>
<path d="M79.9187 102.28C112.986 90.8269 120 60.0177 120 60.0177L117.137 59.5338C117.137 59.5338 108.119 87.6009 79.4893 98.8922L79.9187 102.28Z" fill="white"/>
<path d="M99.3821 85.2922L96.0567 88.5195C94.2661 68.5412 71.8834 64.0844 71.8834 64.0844C71.8834 64.0844 95.4172 62.2402 99.3821 85.2922Z" fill="white"/>
<path d="M116.904 2.92001C116.904 2.92001 98.7425 14.7534 99.7657 33.1949C99.7657 33.1949 79.8131 32.2729 79.8131 45.0283C79.8131 57.9374 100.405 58.7058 96.3123 67.1581C92.859 74.3811 86.7198 64.8529 77.6388 64.0845C65.8719 63.0088 57.1746 71.7686 58.0699 84.2166C58.0699 84.2166 45.6636 86.2145 43.2334 91.9006C40.4196 98.2015 35.8152 100.66 35.8152 100.66C35.8152 100.66 40.4196 102.966 43.2334 109.266C45.6636 114.799 58.0699 116.95 58.0699 116.95C57.1746 129.245 65.8719 138.005 77.6388 136.929C86.7198 136.16 92.859 126.786 96.3123 134.009C100.405 142.461 79.8131 143.23 79.8131 155.985C79.8131 168.894 99.7657 167.818 99.7657 167.818C98.7425 186.414 116.904 198.247 116.904 198.247L115.242 200.245C115.242 200.245 98.2309 191.946 95.8007 173.044C95.8007 173.044 68.4299 175.041 73.6739 141.693C73.6739 141.693 55.0003 143.691 54.105 120.485C54.105 120.485 42.7218 118.487 39.2685 109.727C35.8152 100.968 29.2922 100.66 29.2922 100.66C29.2922 100.66 35.8152 100.199 39.2685 91.2859C42.7218 82.6798 54.105 80.5283 54.105 80.5283C55.0003 57.4763 73.6739 59.4742 73.6739 59.4742C68.4299 26.1256 95.8007 28.1235 95.8007 28.1235C98.2309 9.22092 115.242 0.76846 115.242 0.76846L116.904 2.92001Z" fill="white"/>
<path d="M116.905 162.286C116.521 169.355 107.184 199.323 88.8943 199.323C70.6045 199.323 64.5931 178.73 64.5931 178.73C64.5931 178.73 70.6045 189.948 81.9877 189.948C87.6153 189.948 87.6153 183.801 92.3477 183.801C97.2079 183.801 97.5916 189.948 95.0336 193.022C95.0336 193.022 108.847 189.026 115.498 162.286L116.905 162.286Z" fill="white"/>
<path d="M79.9187 99.2262C112.986 109.711 120 138.469 120 138.469L117.137 138.919C117.137 138.919 108.119 112.856 79.4893 102.222L79.9187 99.2262Z" fill="white"/>
<path d="M99.3821 115.875L96.0567 112.647C94.2661 132.626 71.8834 136.929 71.8834 136.929C71.8834 136.929 95.4172 138.927 99.3821 115.875Z" fill="white"/>
<path d="M113.451 101.583C109.23 112.34 104.37 115.567 104.37 115.567L101.684 112.955C101.684 112.955 106.8 109.267 109.358 101.583C106.8 93.7449 101.045 88.9808 101.045 88.9808L103.731 85.7536C103.731 85.7536 109.23 90.825 113.451 101.583Z" fill="white"/>
<path d="M2.30481 162.132C2.68851 169.355 12.0253 199.169 30.3151 199.169C48.4771 199.169 54.6163 178.576 54.6163 178.576C54.6163 178.576 48.4771 189.949 37.2218 189.949C31.5941 189.949 31.5941 183.801 26.7339 183.801C22.0016 183.801 21.6179 189.949 24.1759 193.022C24.1759 193.022 10.2347 188.873 3.71172 162.132L2.30481 162.132Z" fill="white"/>
<path d="M38.5762 99.2262C7.44163 109.711 1 138.32 1 138.32L3.54981 138.919C3.54981 138.919 12.1386 112.707 38.9788 102.222L38.5762 99.2262Z" fill="white"/>
<path d="M19.8276 115.875L23.1531 112.647C24.9437 132.626 47.1984 136.929 47.1984 136.929C47.1984 136.929 23.6647 138.927 19.8276 115.875Z" fill="white"/>
<path d="M2.30481 198.247C2.30481 198.247 20.3388 186.26 19.4435 167.818C19.4435 167.818 39.3961 168.894 39.3961 155.985C39.3961 143.23 18.804 142.308 22.8969 133.855C26.3502 126.632 32.4894 136.16 41.5704 136.929C53.3373 138.005 62.0346 129.245 61.1393 116.95C61.1393 116.95 73.4177 114.799 75.9758 109.266C78.6617 102.966 83.2661 100.507 83.2661 100.507C83.2661 100.507 78.6617 98.0478 75.9758 91.9006C73.4177 86.2145 61.1393 84.0629 61.1393 84.0629C62.0346 71.7685 53.3373 63.0088 41.5704 64.0845C32.4894 64.8529 26.3502 74.3811 22.8969 67.1581C18.804 58.7058 39.3961 57.9374 39.3961 45.0283C39.3961 32.1192 19.4435 33.1949 19.4435 33.1949C20.3388 14.7534 2.3048 2.76638 2.3048 2.76638L3.96751 0.768464C3.96751 0.768464 20.9783 9.22092 23.2806 28.1235C23.2806 28.1235 50.6514 25.972 45.5353 59.4742C45.5353 59.4742 64.2089 57.4763 65.1042 80.5283C65.1042 80.5283 76.3595 82.5261 79.8128 91.2859C83.2661 100.046 89.7891 100.507 89.7891 100.507C89.7891 100.507 83.2661 100.968 79.8128 109.727C76.3595 118.487 65.1042 120.485 65.1042 120.485C64.2089 143.691 45.5353 141.539 45.5353 141.539C50.6514 175.041 23.2806 173.044 23.2806 173.044C20.9784 191.792 3.96752 200.245 3.96752 200.245L2.30481 198.247Z" fill="white"/>
<path d="M38.5762 102.28C7.44163 90.9882 0.999998 60.0177 0.999998 60.0177L3.54981 59.5338C3.54981 59.5338 12.1386 87.7621 38.9788 99.0534L38.5762 102.28Z" fill="white"/>
<path d="M19.8276 85.1386L23.1531 88.5195C24.9437 68.3875 47.1984 64.0844 47.1984 64.0844C47.1984 64.0844 23.6647 62.2403 19.8276 85.1386Z" fill="white"/>
<path d="M5.75842 99.5848C9.97915 88.8272 14.8394 85.5999 14.8394 85.5999L17.3974 88.2125C17.3974 88.2125 12.2814 91.7472 9.72335 99.5848C12.2814 107.269 18.1648 112.186 18.1648 112.186L15.4789 115.414C15.4789 115.414 9.97915 110.342 5.75842 99.5848Z" fill="white"/>
<path d="M97.2074 191.792C97.2074 191.792 89.7891 190.256 86.4637 193.79C86.4637 193.79 87.7427 197.018 85.4405 198.093C83.1383 199.169 82.1151 196.864 82.243 195.327C82.243 195.327 74.441 195.173 69.4529 207.468C68.046 210.849 67.4064 212.847 65.4879 212.232C63.5694 211.617 63.6973 207.16 66.8948 203.472C69.9645 199.784 65.6158 197.325 65.6158 197.325C65.6158 197.325 64.8484 189.487 61.2672 183.34C58.965 179.498 60.8835 177.961 62.1625 177.808C63.3136 177.5 64.081 178.883 64.081 179.959C64.081 181.035 62.4183 181.65 62.4183 181.65C62.4183 181.65 64.9763 185.184 66.2553 188.411C67.2785 191.485 67.5343 194.098 67.5343 195.02C67.5343 195.02 70.8598 195.173 71.1156 199.784C71.1156 199.784 74.1852 195.481 75.9758 194.866C75.9758 194.866 74.6968 192.253 77.3827 191.331C79.557 190.717 80.0686 192.561 80.0686 192.561C80.0686 192.561 86.4637 187.95 97.2074 191.792Z" fill="#CDAD80"/>
<path d="M59.2209 217.304C59.6046 218.687 59.9883 220.377 63.3137 221.299C67.0229 222.375 69.453 218.994 72.2668 209.005C75.848 196.403 82.2431 195.327 82.2431 195.327C82.2431 195.327 73.29 194.713 69.3251 210.695C67.5345 217.611 66.1276 218.072 63.8253 218.072C61.5231 218.072 59.8604 214.384 60.4999 209.005L57.9419 209.005C58.5814 214.384 56.9187 218.072 54.6165 218.072C52.3143 218.072 50.9073 217.611 49.1167 210.695C45.1518 194.713 36.1987 195.327 36.1987 195.327C36.1987 195.327 42.7217 196.403 46.175 209.005C48.9888 218.994 51.4189 222.375 55.1281 221.299C58.5814 220.377 58.8372 218.687 59.2209 217.304Z" fill="#CDAD80"/>
<path d="M21.2346 191.792C21.2346 191.792 28.6529 190.256 31.9783 193.79C31.9783 193.79 30.6993 197.018 33.0015 198.093C35.3037 199.169 36.3269 196.864 36.199 195.327C36.199 195.327 44.001 195.173 48.9891 207.468C50.396 210.849 51.0355 212.847 53.082 212.232C55.0005 211.617 54.7447 207.16 51.6751 203.472C48.4775 199.784 52.8262 197.325 52.8262 197.325C52.8262 197.325 53.7215 189.487 57.1748 183.34C59.6049 179.498 57.5585 177.961 56.4074 177.808C55.1284 177.5 54.4889 178.883 54.4889 179.959C54.4889 181.035 56.0237 181.65 56.0237 181.65C56.0237 181.65 53.4657 185.184 52.3146 188.411C51.1634 191.485 50.9076 194.098 50.9076 195.02C50.9076 195.02 47.5822 195.173 47.3264 199.784C47.3264 199.784 44.2568 195.481 42.4662 194.866C42.4662 194.866 43.7452 192.253 41.0593 191.331C38.885 190.717 38.5013 192.561 38.5013 192.561C38.5013 192.561 31.9783 187.95 21.2346 191.792Z" fill="#CDAD80"/>
<path d="M59.2209 236.206C53.5932 230.213 51.8026 220.685 51.8026 220.685C52.57 221.607 54.7443 221.607 54.7443 221.607C54.7443 221.607 55.3838 226.985 59.2209 232.364C63.0579 226.985 63.6974 221.607 63.6974 221.607C63.6974 221.607 65.8717 221.607 66.767 220.685C66.767 220.685 64.8485 230.213 59.2209 236.206Z" fill="#CDAD80"/>
<path d="M59.2209 207.929C55.3838 207.929 53.4653 200.245 53.4653 200.245C53.4653 200.245 56.7908 200.552 57.814 203.626C57.814 203.626 56.4071 199.169 59.2209 195.327C61.9068 199.323 60.6278 203.626 60.6278 203.626C61.7789 200.552 64.9764 200.245 64.9764 200.245C64.9764 200.245 63.3137 207.929 59.2209 207.929Z" fill="#232c13"/>
<path d="M61.0115 205.931C63.3138 205.931 63.3138 208.851 61.0115 208.851L56.535 208.851C54.2328 208.851 54.3607 205.931 56.535 205.931L61.0115 205.931Z" fill="#CDAD80"/>
</svg>
