<svg fill="none" height="27" viewBox="0 0 18 27" width="18" xmlns="http://www.w3.org/2000/svg"><path d="m.357327 21.5916c.000008-6.2911.015115-12.54552-.016367-18.79967-.004685-.93057.95075-1.981592 1.91314-1.97371 4.60876.037743 9.218.016725 13.827.017114 1.0422.000088 1.8666.858976 1.8668 1.950396.0009 7.48067-.0017 14.96137.0067 22.44197.0004.388-.1152.6886-.4387.8444-.3171.1527-.6572.1518-.968-.0782-1.7153-1.2696-3.4328-2.5362-5.1492-3.8042-.6579-.4862-1.3204-.966-1.96946-1.4647-.20643-.1586-.35764-.1433-.55842.0076-1.40986 1.0594-2.82491 2.1114-4.24222 3.16-.96151.7114-1.92863 1.4146-2.89488 2.1191-.29812.2173-.63239.2129-.938576.0633-.306097-.1496-.448734-.4249-.443713-.8045.016059-1.2138.005921-2.428.005896-3.6789zm15.392273-18.98913c-4.3378-.00026-8.67563-.00074-13.01346-.00052-.55843.00002-.67619.12439-.67622.71272-.00034 6.57408-.00032 13.14813.00047 19.72223.00001.1281.01044.2562.01843.4399.32332-.2363.59901-.4362.87301-.6384 1.87944-1.3876 3.75736-2.7774 5.63878-4.162.34897-.2568.76752-.2562 1.11417-.0093.42422.3021.84332.6121 1.26212.9222.8936.6616 1.7847 1.3269 2.6787 1.9879.8437.6238 1.6898 1.2439 2.6005 1.9139 0-.2144 0-.3553 0-.4962 0-4.0966 0-8.1931 0-12.2897-.0001-2.48977-.002-4.97958.0021-7.46939.0005-.32953-.0721-.58273-.4986-.63334z" fill="#404c6e"/><path d="m7.50911 4.15972c2.34761-.00002 4.66969-.0032 6.99179.00399.2866.00089.472-.12165.5837-.36316.1129-.2443.0356-.57303-.1789-.73722-.0932-.07131-.2273-.12553-.3428-.12573-3.632-.00646-7.26398-.00748-10.89595-.00316-.61497.00073-1.20912.65112-1.21071 1.30734-.00312 1.29546-.001 2.59094-.001 3.88641.00001 3.92901-.00007 7.85801.00029 11.78711.00003.2853.13154.4973.3593.5864.24771.097.58431.032.73415-.1872.08304-.1215.12594-.2951.12619-.4452.00659-3.9802.00524-7.9604.00525-11.94052 0-1.09945-.00044-2.19889.0003-3.29834.00026-.37598.09195-.47005.4601-.47035 1.11426-.00091 2.22851-.00036 3.36829-.00037z" fill="#cdad80"/></svg>