<svg fill="none" height="29" viewBox="0 0 28 29" width="28" xmlns="http://www.w3.org/2000/svg"><path d="m7.27019 3.271c-.72078 0-1.3114.49107-1.53508 1.18492-.0514.16048-.07692.46993-.07656.92834.00328 6.34484.00401 12.66734.00219 18.96724 0 .0025-.00047.005-.00139.0073-.00091.0023-.00225.0044-.00393.0061-.00169.0018-.00368.0031-.00586.004-.00219.0009-.00452.0014-.00687.0013-.47286-.0015-.96888-.0011-1.48804.0011-.20563.0012-.33524-.1382-.33524-.3557-.00036-7.4339-.00055-14.86795-.00055-22.30222 0-.3727.28165-.35344.58297-.35344 5.3911-.00038 10.78217-.00056 16.17327-.00056.262 0 .4479.04814.4484.35457.0011.51354.0015 1.0233.0011 1.52929 0 .00736-.0027.01442-.0076.01963-.005.0052-.0116.00813-.0186.00813-4.5755-.00038-9.1516-.00038-13.72821 0z" stroke="#cdad80" stroke-width="2"/><path d="m20.849 0h-16.85902c-.89633.132539-1.48313.807695-1.48313 1.7417.00037 7.42936.00037 14.8587 0 22.2881 0 .8909.68196 1.6935 1.58594 1.6981.50349.0026 1.01573.0028 1.53672.0005.00856 0 .01676.0036.02282.0098.00605.0063.00945.0148.00945.0237.00255.4757.00218.9576-.0011 1.4454-.00711.9533.57477 1.6794 1.49461 1.7927h16.85361c.8679-.1087 1.4842-.81 1.4842-1.7207 0-7.557.0002-14.9855.0006-22.2853 0-.75615-.4283-1.40412-1.1217-1.64201-.1823-.0623-.4176-.091-.706-.08609-.4619.00831-.8998.00868-1.3136.00113-.0041-.00015-.008-.00194-.0109-.00501-.0028-.00306-.0044-.00715-.0044-.01141.0018-.50373.0011-1.03747-.0022-1.60123-.0049-.875669-.6623-1.546294-1.4859-1.64938zm-13.57886 3.271c-.72078 0-1.31141.49107-1.53508 1.18492-.05141.16048-.07693.46993-.07657.92834.00329 6.34484.00402 12.66734.00219 18.96724 0 .0025-.00047.005-.00138.0073-.00092.0023-.00226.0044-.00394.0061-.00168.0018-.00368.0031-.00586.004-.00219.0009-.00452.0014-.00686.0013-.47287-.0015-.96889-.0011-1.48805.0011-.20563.0012-.33524-.1382-.33524-.3557-.00036-7.4339-.00054-14.86795-.00054-22.30222 0-.3727.28164-.35344.58297-.35344 5.39109-.00038 10.78222-.00056 16.17332-.00056.2619 0 .4478.04814.4484.35457.0011.51354.0015 1.0233.0011 1.52929 0 .00736-.0028.01442-.0077.01963-.0049.0052-.0116.00813-.0186.00813-4.5755-.00038-9.1515-.00038-13.72816 0zm-.29532 1.68279c0-.08593.03296-.16833.09162-.22909.05867-.06076.13823-.0949.2212-.0949h16.58016c.083 0 .1625.03414.2212.0949.0586.06076.0916.14316.0916.22909v22.36281c0 .086-.033.1684-.0916.2291-.0587.0608-.1382.0949-.2212.0949h-16.58016c-.08297 0-.16253-.0341-.2212-.0949-.05866-.0607-.09162-.1431-.09162-.2291z" fill="#404c6e"/><path d="m5.73511 4.45592c.22368-.69385.8143-1.18492 1.53508-1.18492 4.57661-.00038 9.15271-.00038 13.72821 0 .007 0 .0136-.00293.0186-.00813.0049-.00521.0076-.01227.0076-.01963.0004-.50599 0-1.01575-.0011-1.52929-.0005-.30643-.1864-.35457-.4484-.35457-5.3911 0-10.78217.00018-16.17327.00056-.30132 0-.58297-.01926-.58297.35344 0 7.43427.00019 14.86832.00055 22.30222 0 .2175.12961.3569.33524.3557.51916-.0022 1.01518-.0026 1.48804-.0011.00235.0001.00468-.0004.00687-.0013.00218-.0009.00417-.0022.00586-.004.00168-.0017.00302-.0038.00393-.0061.00092-.0023.00139-.0048.00139-.0073.00182-6.2999.00109-12.6224-.00219-18.96724-.00036-.45841.02516-.76786.07656-.92834z" fill="#cdad80"/><g fill="#404c6e"><path d="m10.3737 8h5.2526c.2064 0 .3737.22068.3737.49291v.01418c0 .27223-.1673.49291-.3737.49291h-5.2526c-.2064 0-.3737-.22068-.3737-.49291v-.01418c0-.27223.1673-.49291.3737-.49291z"/><path d="m10.3743 12h5.2514c.2067 0 .3743.2207.3743.4929v.0142c0 .2722-.1676.4929-.3743.4929h-5.2514c-.2067 0-.3743-.2207-.3743-.4929v-.0142c0-.2722.1676-.4929.3743-.4929z"/><path d="m10.3737 16h5.2526c.2064 0 .3737.2207.3737.4929v.0142c0 .2722-.1673.4929-.3737.4929h-5.2526c-.2064 0-.3737-.2207-.3737-.4929v-.0142c0-.2722.1673-.4929.3737-.4929z"/><path d="m10.8795 19.8123h9.0869c.357 0 .6464.2998.6464.6695v.0193c0 .3697-.2894.6695-.6464.6695h-9.0869c-.357 0-.6464-.2998-.6464-.6695v-.0193c0-.3697.2894-.6695.6464-.6695z"/><path d="m10.879 23.9267h9.0879c.3567 0 .6459.2995.6459.6689v.0193c0 .3694-.2892.6689-.6459.6689h-9.0879c-.3567 0-.6459-.2995-.6459-.6689v-.0193c0-.3694.2892-.6689.6459-.6689z"/></g><path d="m23.1925 4.4393h-5.9475v14.5496l2.9738-2.2303 2.9737 2.2303z" fill="#cdad80"/><path d="m17.0061 17.7219c0-2.3385.0056-10.66341-.0061-12.98821-.0017-.34592.3534-.7366.7112-.73367 1.7131.01403 3.4265.00621 5.1398.00636.3874.00003.6938.3193.6939.725.0003 2.78072-.0006 11.56142.0025 14.34212.0001.1443-.0428.256-.1631.3139-.1179.0568-.2443.0565-.3598-.029-.6376-.472-1.2761-.9428-1.9141-1.4142-.2446-.1807-.4908-.359-.7321-.5444-.0767-.059-.1329-.0533-.2076.0028-.524.3938-1.05.7848-1.5769 1.1746-.3574.2645-.7169.5259-1.0761.7878-.1108.0808-.235.0791-.3489.0235-.1137-.0556-.1668-.158-.1649-.299.006-.4512.0022-.9026.0022-1.3676zm5.7216-13.05864c-1.6124-.0001-3.2249-.00027-4.8374-.00019-.2075.00001-.2513.04623-.2513.26493-.0001 2.44373-.0001 10.8875.0002 13.3312 0 .0476.0038.0952.0068.1635.1202-.0879.2227-.1621.3245-.2373.6987-.5158 1.3967-1.0324 2.0961-1.5471.1297-.0955.2853-.0952.4141-.0035.1577.1123.3135.2275.4692.3428.3322.2459.6634.4933.9957.739.3136.2318.6282.4624.9667.7114 0-.0797 0-.1321 0-.1845 0-1.5227 0-3.0455 0-4.5683 0-.9255-.0007-7.851.0008-8.77651.0002-.1225-.0268-.21662-.1854-.23543z" fill="#404c6e"/><path d="m19.6645 11.2421c.8727 0 1.7359-.0011 2.599.0015.1066.0004.1755-.0452.217-.135.042-.0908.0133-.213-.0665-.274-.0346-.0265-.0845-.0467-.1274-.0467-1.3501-.0024-2.7002-.0028-4.0503-.0012-.2286.0002-.4494.242-.45.4859-.0012.4816-.0004.9632-.0004 1.4447 0 1.4605 0 2.921.0001 4.3815 0 .1061.0489.1849.1336.218.0921.036.2172.0119.2729-.0696.0309-.0451.0468-.1097.0469-.1655.0024-1.4795.0019-2.959.0019-4.4385 0-.4087-.0001-.8174.0002-1.2261 0-.1397.0341-.1747.171-.1748.4142-.0004.8284-.0002 1.252-.0002z" fill="#cdad80"/></svg>