<?xml version="1.0" encoding="UTF-8" standalone="no"?>
<!DOCTYPE svg PUBLIC "-//W3C//DTD SVG 1.1//EN" "http://www.w3.org/Graphics/SVG/1.1/DTD/svg11.dtd">
<svg xmlns="http://www.w3.org/2000/svg" version="1.1" viewBox="0.00 0.00 512.00 512.00">
<path fill="#009045" d="
  M 208.69 256.87
  A 0.26 0.26 0.0 0 0 209.05 256.82
  C 247.89 206.65 290.89 159.17 337.52 116.78
  Q 366.54 90.40 396.27 68.28
  Q 409.09 58.73 421.86 50.72
  Q 422.28 50.45 422.78 50.45
  L 478.75 50.45
  A 0.23 0.23 0.0 0 1 478.90 50.86
  Q 443.91 81.40 412.10 117.85
  Q 375.85 159.38 342.17 205.41
  Q 271.39 302.14 210.23 407.76
  Q 209.97 408.20 209.71 407.76
  Q 192.13 378.24 172.86 349.93
  Q 130.46 287.63 84.23 224.78
  A 0.46 0.46 0.0 0 1 84.27 224.18
  L 115.79 192.66
  A 0.67 0.66 39.8 0 1 116.64 192.59
  L 208.69 256.87
  Z"
/>
<circle fill="#828282" cx="40.54" cy="120.80" r="7.84"/>
<circle fill="#828282" cx="71.24" cy="120.80" r="7.84"/>
<circle fill="#828282" cx="101.95" cy="120.80" r="7.84"/>
<circle fill="#828282" cx="132.66" cy="120.79" r="7.84"/>
<circle fill="#828282" cx="163.37" cy="120.80" r="7.84"/>
<circle fill="#828282" cx="194.08" cy="120.80" r="7.84"/>
<circle fill="#828282" cx="224.78" cy="120.79" r="7.84"/>
<circle fill="#828282" cx="255.49" cy="120.80" r="7.84"/>
<circle fill="#828282" cx="286.20" cy="120.80" r="7.84"/>
<circle fill="#828282" cx="40.53" cy="151.51" r="7.84"/>
<circle fill="#828282" cx="40.54" cy="182.21" r="7.84"/>
<circle fill="#828282" cx="40.53" cy="212.92" r="7.84"/>
<circle fill="#828282" cx="378.33" cy="212.92" r="7.84"/>
<circle fill="#828282" cx="40.54" cy="243.63" r="7.84"/>
<circle fill="#828282" cx="378.33" cy="243.63" r="7.84"/>
<circle fill="#828282" cx="40.54" cy="274.34" r="7.84"/>
<circle fill="#828282" cx="378.33" cy="274.34" r="7.84"/>
<circle fill="#828282" cx="40.53" cy="305.05" r="7.84"/>
<circle fill="#828282" cx="378.33" cy="305.05" r="7.84"/>
<circle fill="#828282" cx="40.53" cy="335.75" r="7.84"/>
<circle fill="#828282" cx="378.33" cy="335.75" r="7.84"/>
<circle fill="#828282" cx="40.54" cy="366.46" r="7.84"/>
<circle fill="#828282" cx="378.33" cy="366.46" r="7.84"/>
<circle fill="#828282" cx="40.54" cy="397.17" r="7.84"/>
<circle fill="#828282" cx="378.33" cy="397.17" r="7.84"/>
<circle fill="#828282" cx="40.53" cy="427.88" r="7.84"/>
<circle fill="#828282" cx="378.33" cy="427.88" r="7.84"/>
<circle fill="#828282" cx="40.54" cy="458.59" r="7.84"/>
<circle fill="#828282" cx="71.25" cy="458.59" r="7.84"/>
<circle fill="#828282" cx="101.95" cy="458.59" r="7.84"/>
<circle fill="#828282" cx="132.66" cy="458.59" r="7.84"/>
<circle fill="#828282" cx="163.37" cy="458.59" r="7.84"/>
<circle fill="#828282" cx="194.08" cy="458.59" r="7.84"/>
<circle fill="#828282" cx="224.79" cy="458.59" r="7.84"/>
<circle fill="#828282" cx="255.49" cy="458.59" r="7.84"/>
<circle fill="#828282" cx="286.20" cy="458.59" r="7.84"/>
<circle fill="#828282" cx="316.91" cy="458.59" r="7.84"/>
<circle fill="#828282" cx="347.62" cy="458.59" r="7.83"/>
<circle fill="#828282" cx="378.33" cy="458.59" r="7.84"/>
</svg>
