<svg width="32" height="32" viewBox="0 0 32 32" fill="none" xmlns="http://www.w3.org/2000/svg">
<g clip-path="url(#clip0_24_2311)">
<path d="M2.9125 0H3.25312C3.87771 0.0520833 4.42833 0.25375 4.905 0.605C5.06 0.719167 5.36375 1.00312 5.81625 1.45687C9.20625 4.85563 12.6019 8.24813 16.0031 11.6344C16.005 11.6361 16.0074 11.6371 16.01 11.6371C16.0126 11.6371 16.015 11.6361 16.0169 11.6344C19.6085 8.04271 23.2008 4.45 26.7938 0.85625C27.2488 0.40125 27.8185 0.115833 28.5031 0H29.4094C30.6931 0.25125 31.525 0.997292 31.905 2.23813C31.9417 2.35729 31.9733 2.47833 32 2.60125V3.50125C31.8833 4.18417 31.5719 4.77854 31.0656 5.28438C27.4981 8.85188 23.9319 12.4183 20.3669 15.9838C20.3648 15.9858 20.3631 15.9882 20.362 15.9909C20.3609 15.9936 20.3603 15.9965 20.3603 15.9994C20.3603 16.0023 20.3609 16.0052 20.362 16.0078C20.3631 16.0105 20.3648 16.013 20.3669 16.015C23.9298 19.5779 27.4942 23.1415 31.06 26.7056C31.6279 27.2735 31.9412 27.9619 32 28.7706V29.0831C31.8681 30.6906 30.6856 31.8937 29.0756 32H28.7631C27.9606 31.94 27.2833 31.6337 26.7313 31.0812C23.1592 27.5083 19.5879 23.9367 16.0175 20.3662C16.0153 20.364 16.0127 20.3622 16.0098 20.361C16.0069 20.3598 16.0038 20.3592 16.0006 20.3592C15.9975 20.3592 15.9944 20.3598 15.9915 20.361C15.9886 20.3622 15.986 20.364 15.9838 20.3662C12.395 23.955 8.80521 27.545 5.21438 31.1362C4.75063 31.6 4.17292 31.8879 3.48125 32H2.60375C1.2225 31.7519 0.22125 30.7613 0 29.3719V28.5138C0.114583 27.8217 0.418125 27.2296 0.910625 26.7375C4.48187 23.1692 8.05292 19.5973 11.6237 16.0219C11.6388 16.0069 11.6388 15.9921 11.6237 15.9775C6.32583 10.6708 2.77063 7.11438 0.958125 5.30813C0.381042 4.73313 0.0616667 4.045 0 3.24375V2.90062C0.1175 1.30375 1.3175 0.130625 2.9125 0ZM19.5006 15.97C23.2556 12.2154 26.9627 8.50792 30.6219 4.8475C31.3956 4.07375 31.5988 2.96812 31.1238 1.99C30.3925 0.485625 28.3737 0.170625 27.1987 1.345C23.5217 5.02167 19.7952 8.74813 16.0194 12.5244C16.0177 12.526 16.0158 12.5274 16.0137 12.5283C16.0115 12.5292 16.0092 12.5296 16.0069 12.5296C16.0045 12.5296 16.0022 12.5292 16.0001 12.5283C15.9979 12.5274 15.996 12.526 15.9944 12.5244C12.2565 8.78563 8.53521 5.06479 4.83063 1.36188C3.74375 0.275 1.89312 0.39875 1.03937 1.7225C0.391875 2.72625 0.5175 3.99 1.36625 4.83687C5.08792 8.55188 8.8075 12.2665 12.525 15.9806C12.53 15.9858 12.5328 15.9927 12.5328 15.9999C12.5328 16.007 12.53 16.0138 12.525 16.0187C8.80125 19.7421 5.07792 23.4688 1.355 27.1987C-0.35375 28.9112 1.19563 31.7825 3.5525 31.3219C4.3725 31.1619 4.70625 30.7613 5.425 30.0438C8.87583 26.5954 12.3983 23.0733 15.9925 19.4775C15.9941 19.4758 15.996 19.4744 15.9982 19.4735C16.0004 19.4725 16.0027 19.4721 16.0051 19.4721C16.0075 19.4721 16.0099 19.4725 16.0121 19.4735C16.0144 19.4744 16.0164 19.4758 16.0181 19.4775C19.6044 23.0583 23.1969 26.6517 26.7956 30.2575C27.2198 30.6829 27.5238 30.9463 27.7075 31.0475C28.1908 31.315 28.7008 31.4156 29.2375 31.3494C31.2937 31.0969 32.07 28.6006 30.6269 27.1569C26.924 23.4531 23.2152 19.7444 19.5006 16.0306C19.4802 16.0106 19.4802 15.9904 19.5006 15.97Z" fill="#404C6E"/>
</g>
<path d="M16.0178 14.6776C18.5517 12.1501 21.061 9.64167 23.5456 7.15237C23.7463 6.95094 23.9021 6.82856 24.0128 6.78522C24.9365 6.42315 25.7221 7.57741 24.9964 8.30307C23.4063 9.89287 20.8474 12.4517 17.3198 15.9797C17.3069 15.9922 17.3069 16.0049 17.3198 16.0178C19.8788 18.5792 22.4443 21.145 25.0162 23.7152C25.3458 24.0448 25.3661 24.5328 25.0929 24.905C24.7552 25.3646 24.1103 25.4092 23.7081 25.0071C21.1765 22.4748 18.6144 19.9122 16.0218 17.3193C16.0076 17.3054 15.9935 17.3054 15.9797 17.3193C13.3776 19.9217 10.8188 22.4807 8.30307 24.9964C7.42861 25.8714 6.11592 24.5825 7.02186 23.6771C9.62693 21.073 12.1799 18.5209 14.6807 16.0208C14.6949 16.0066 14.6949 15.9924 14.6807 15.9782C12.1176 13.4154 9.55736 10.8552 7.00002 8.29749C6.12912 7.4271 7.42049 6.12151 8.31576 7.01628C10.8315 9.53063 13.3856 12.0844 15.9781 14.6776C15.9913 14.6908 16.0046 14.6908 16.0178 14.6776Z" fill="#CDAD80"/>
<defs>
<clipPath id="clip0_24_2311">
<rect width="32" height="32" fill="white"/>
</clipPath>
</defs>
</svg>
