<svg fill="none" height="25" viewBox="0 0 25 25" width="25" xmlns="http://www.w3.org/2000/svg" xmlns:xlink="http://www.w3.org/1999/xlink"><clipPath id="a"><path d="m0 0h25v25h-25z"/></clipPath><g clip-path="url(#a)"><path d="m16.9433 25.0488c-4.2165 0-8.43301 0-12.67887-.0186-.11429-.0362-.19959-.0522-.28415-.0715-.69012-.1572-1.22153-.5697-1.66344-1.0924-.44268-.5237-.70676-1.1312-.70652-1.8363.00178-5.2152.00499-10.4303-.00362-15.64541-.00121-.73294.17672-1.38387.63067-1.96643.60658-.77844 1.37643-1.2268 2.37586-1.24356.298-.005.59616-.00077.90551-.00077 0-.16391-.02256-.30561.00355-.43768.22078-1.11641.86908-1.913104 1.86973-2.425126.2368-.121167.50726-.176551.76223-.2621959 3.28875 0 6.57755 0 9.89265.0162263.4911.5456736.9544 1.0762856 1.4208 1.6042156.3983.45084.8043.89489 1.1992 1.34864.4878.56038.9644 1.1304 1.4518 1.69111.3893.4479.7882.88743 1.1812 1.33208.1352.15291.193.3206.1926.53837-.0084 4.14923-.005 8.29843-.0102 12.44763-.0003.1779-.0535.357-.0924.5333-.1409.6384-.5125 1.1342-.9848 1.5638-.5441.4949-1.1725.7934-1.9209.7992-.298.0024-.5961.0004-.9042.0004 0 .0906.0002.1548 0 .2189-.0002.0732.0112.1488-.003.2193-.2245 1.1156-.8708 1.9126-1.8715 2.4246-.2368.1212-.5072.1766-.7622.2622zm.4647-18.06588c-.0989-.11515-.2025-.22662-.296-.34608-.3932-.50265-.6523-1.06025-.6556-1.71039-.0052-1.0332-.0011-2.06645-.0019-3.09968 0-.06973-.0072-.13947-.0108-.20536-.0355-.00508-.0511-.00928-.0667-.00929-2.5221-.00046-5.0441-.00214-7.56618.00257-.17205.00032-.3503.02803-.51495.07819-.77703.23669-1.21213.86643-1.21305 1.69798-.00558 5.06038-.00377 10.12074.00095 15.18114.00018.195.03163.3972.08886.5836.24641.8027.86996 1.2015 1.70162 1.2029 3.75055.0065 7.50105.0041 11.25165-.0007.1958-.0002.3983-.0282.5862-.0829.77-.2243 1.2081-.8681 1.2094-1.6992.0054-3.4983.0024-6.9967.0018-10.49499 0-.07006-.007-.14012-.0113-.21938-.7803 0-1.5447-.01979-2.3076.00526-.8563.02811-1.5433-.33117-2.1964-.88367zm-9.76644 16.50338c2.85554 0 5.71104.0016 8.56664-.0017.4088-.0004.8087-.0784 1.1316-.3446.3734-.308.6521-.6794.6256-1.2162-.1157 0-.2045 0-.2933 0-3.0833 0-6.1667.0016-9.25002-.0039-.17829-.0003-.35788-.0509-.53446-.0891-.69311-.1501-1.2219-.5678-1.66419-1.0895-.44336-.5229-.70712-1.1309-.70684-1.8359.00184-4.6128.00095-9.22563.00095-13.83844 0-.08739 0-.17478 0-.31991-.44248.04201-.88357.0126-1.27605.13679-.70075.22174-1.06002.79022-1.06185 1.59694-.01156 5.08462-.00742 10.16932-.00322 15.25392.00039.4632.14835.8826.47404 1.2281.35529.377.8096.5148 1.30642.5206.87851.0103 1.75722.0029 2.68468.0029zm10.59334-21.5347c-.0615-.0778-.1231-.1556-.2174-.27479 0 .74395-.0061 1.4191.0038 2.094.0029.19654.0444.39371.0804.58834.0931.50312.3217.94101.6181 1.35723.2717.38152.6219.57585 1.0794.58079.618.00667 1.2362.00216 1.8544.00083.0577-.00013.1154-.01186.212-.02248-.5556-.66025-1.0827-1.28799-1.6114-1.91435-.2833-.33558-.5721-.66651-.8534-1.00367-.3825-.45836-.7602-.92068-1.1659-1.4059z" fill="#404c6e"/><g fill="#cdad80"><path d="m18.0055 10.9863c.4392-.0271.7896.3542.8075.7703.0185.4302-.3604.8428-.8364.8421-1.773-.0026-3.5461-.001-5.3191-.001-.5368 0-1.0735-.0003-1.6103 0-.3459.0002-.6244-.1396-.7735-.4507-.1466-.306-.1274-.6443.1024-.8904.1349-.1445.382-.2575.5797-.259 2.3422-.0175 4.6845-.0113 7.0497-.0113z"/><path d="m11.0511 16.5039c-.3404-.04-.6403-.1321-.7787-.4496-.2304-.5287.0333-1.1636.7026-1.1628 2.3504.0028 4.7008.0068 7.0511-.0041.4323-.002.7416.3442.7708.5984.0682.5961-.1878.8841-.614.9683-.1235.0243-.2501.0476-.3752.0477-2.2447.0029-4.4894.0021-6.7566.0021z"/></g></g></svg>