<svg height="709" viewBox="0 0 719 709" width="719" xmlns="http://www.w3.org/2000/svg"><path d="m543.1 512q-4.5.1-9 .3-3.4 3-6.6 6.2-3.2 3.2-6.2 6.6-.2 4.5-.3 9 .1 4.5.3 9 3 3.4 6.2 6.6 3.2 3.1 6.6 6.1 4.5.3 9 .3 4.5 0 9-.3 3.4-3 6.6-6.1 3.1-3.2 6.1-6.6.3-4.5.3-9 0-4.5-.3-9-3-3.4-6.1-6.6-3.2-3.2-6.6-6.2-4.5-.2-9-.3z" fill="#f7aa55"/><path d="m543.1 398c-44.1 0-19.1 72.7-11.8 93.4 2 5.7 7 7.9 11.7 7.5q.1 0 .1 0c4.8.4 9.7-1.8 11.7-7.5 7.4-20.7 32.3-93.4-11.7-93.4z" fill="#f7aa55"/><path d="m639.3 437.9c-31.1-31.2-64.9 37.9-74.4 57.7-2.6 5.4-.6 10.5 3 13.6q0 0 0 0 0 .1.1.1c3.1 3.6 8.1 5.5 13.6 2.9 19.8-9.5 88.9-43.2 57.7-74.3z" fill="#f7aa55"/><path d="m679.2 534.1c0-44.1-72.7-19.1-93.5-11.8-5.6 2-7.8 7-7.5 11.7q0 .1 0 .1c-.3 4.8 1.9 9.7 7.5 11.7 20.8 7.4 93.5 32.3 93.5-11.7z" fill="#f7aa55"/><path d="m639.3 630.3c31.2-31.1-37.9-64.9-57.7-74.4-5.5-2.6-10.5-.6-13.6 3q-.1 0-.1 0 0 0 0 .1c-3.6 3.1-5.6 8.1-3 13.6 9.5 19.8 43.3 88.9 74.4 57.7z" fill="#f7aa55"/><path d="m543.1 670.2c44 0 19.1-72.7 11.7-93.5-2-5.6-6.9-7.8-11.7-7.5q0 0 0 0 0 0-.1 0c-4.7-.3-9.7 1.9-11.7 7.5-7.3 20.8-32.3 93.5 11.8 93.5z" fill="#f7aa55"/><path d="m446.9 630.3c31.1 31.2 64.8-37.9 74.3-57.7 2.6-5.5.7-10.5-2.9-13.6q0-.1-.1-.1 0 0 0 0c-3.1-3.6-8.2-5.6-13.6-3-19.8 9.5-88.9 43.3-57.7 74.4z" fill="#f7aa55"/><path d="m407 534.1c0 44 72.7 19.1 93.4 11.7 5.7-2 7.9-6.9 7.5-11.7q0 0 0 0 0 0 0-.1c.4-4.7-1.8-9.7-7.5-11.7-20.7-7.3-93.4-32.3-93.4 11.8z" fill="#f7aa55"/><path d="m446.9 437.9c-31.2 31.1 37.9 64.8 57.7 74.3 5.4 2.6 10.5.7 13.6-2.9q0 0 0-.1.1 0 .1 0c3.6-3.1 5.5-8.2 2.9-13.6-9.5-19.8-43.2-88.9-74.3-57.7z" fill="#f7aa55"/><g fill-rule="evenodd"><path d="m565.9 237.9c1.8 5.8 1.5 11.3-.2 16.4 5.1-1.7 10.6-2 16.4-.2 9.2 2.7 14.8 13.2 16.7 22.4-1.9 9.2-7.5 19.7-16.7 22.4-5.8 1.8-11.3 1.5-16.4-.2 1.7 5.1 2 10.6.2 16.4-2.7 9.2-13.2 14.8-22.4 16.7-9.2-1.9-19.7-7.5-22.4-16.7-1.8-5.8-1.5-11.3.2-16.4-5.1 1.7-10.6 2-16.4.2-9.2-2.7-14.8-13.2-16.7-22.4 1.9-9.2 7.5-19.7 16.7-22.4 5.8-1.8 11.3-1.5 16.4.2-1.7-5.1-2-10.6-.2-16.4 2.7-9.2 13.2-14.8 22.4-16.7 9.2 1.9 19.7 7.5 22.4 16.7zm-7.9 3.5c-1.8-6.5-7.9-10.7-14.5-12.9-6.6 2.2-12.7 6.4-14.5 12.9-3.4 12.5 4.4 23 14.5 30.7 10.1-7.7 17.9-18.2 14.5-30.7zm-49.6 20.6c-6.5 1.8-10.7 7.9-12.9 14.5 2.2 6.6 6.4 12.7 12.9 14.5 12.5 3.4 23-4.4 30.7-14.5-7.7-10.1-18.2-17.9-30.7-14.5zm20.6 49.6c1.8 6.5 7.9 10.7 14.5 12.9 6.6-2.2 12.7-6.4 14.5-12.9 3.4-12.5-4.4-23-14.5-30.7-10.1 7.7-17.9 18.2-14.5 30.7zm49.6-20.6c6.5-1.8 10.7-7.9 12.9-14.5-2.2-6.6-6.4-12.7-12.9-14.5-12.5-3.4-23 4.4-30.7 14.5 7.7 10.1 18.2 17.9 30.7 14.5zm-30.5-46.8c1.9 5-1.3 11-4.6 14.8-3.3-3.8-6.5-9.8-4.6-14.8.8-2.2 2.5-3.9 4.6-5.1 2.1 1.2 3.8 2.9 4.6 5.1zm-36.9 27.7c5-1.9 11 1.3 14.8 4.6-3.8 3.3-9.8 6.5-14.8 4.6-2.2-.8-3.9-2.5-5.1-4.6 1.2-2.1 2.9-3.8 5.1-4.6zm27.7 36.9c-1.9-5 1.3-11 4.6-14.8 3.3 3.8 6.5 9.8 4.6 14.8-.8 2.2-2.5 3.9-4.6 5.1-2.1-1.2-3.8-2.9-4.6-5.1zm36.9-27.7c-5 1.9-11-1.3-14.8-4.6 3.8-3.3 9.8-6.5 14.8-4.6 2.2.8 3.9 2.5 5.1 4.6-1.2 2.1-2.9 3.8-5.1 4.6z" fill="#f7aa55"/><path d="m553.4 195.7c3.5 5.5 4.3 12.5-1.5 16.6-2.5 1.8-5.4 2.8-8.4 3.4-3-.6-5.9-1.6-8.4-3.4-5.8-4.1-5-11.1-1.5-16.6 2.5-3.6 6-6.3 9.9-6.7 3.9.4 7.4 3.1 9.9 6.7zm70.9 90.7c-5.5 3.5-12.5 4.3-16.6-1.5-1.8-2.5-2.8-5.4-3.4-8.4.6-3 1.6-5.9 3.4-8.4 4.1-5.8 11.1-5 16.6-1.5 3.6 2.5 6.3 6 6.7 9.9-.4 3.9-3.1 7.4-6.7 9.9zm-90.7 70.9c-3.5-5.5-4.3-12.5 1.5-16.6 2.5-1.8 5.4-2.8 8.4-3.4 3 .6 5.9 1.6 8.4 3.4 5.8 4.1 5 11.1 1.5 16.6-2.5 3.6-6 6.3-9.9 6.7-3.9-.4-7.4-3.1-9.9-6.7zm-70.9-90.7c5.5-3.5 12.5-4.3 16.6 1.5 1.8 2.5 2.8 5.4 3.4 8.4-.6 3-1.6 5.9-3.4 8.4-4.1 5.8-11.1 5-16.6 1.5-3.6-2.5-6.3-6-6.7-9.9.4-3.9 3.1-7.4 6.7-9.9zm85.9-68.1c-1.7-2.4-3.4-3.5-5.1-3.7-1.7.2-3.4 1.3-5.1 3.7-4.2 6.7-.5 9.8 5.1 11.2 5.6-1.4 9.3-4.5 5.1-11.2zm72.9 83.1c2.4-1.7 3.5-3.4 3.7-5.1-.2-1.7-1.3-3.4-3.7-5.1-6.7-4.2-9.8-.5-11.2 5.1 1.4 5.6 4.5 9.3 11.2 5.1zm-83.1 72.9c1.7 2.4 3.4 3.5 5.1 3.7 1.7-.2 3.4-1.3 5.1-3.7 4.2-6.7.5-9.8-5.1-11.2-5.6 1.4-9.3 4.5-5.1 11.2zm-72.9-83.1c-2.4 1.7-3.5 3.4-3.7 5.1.2 1.7 1.3 3.4 3.7 5.1 6.7 4.2 9.8.5 11.2-5.1-1.4-5.6-4.5-9.3-11.2-5.1z" fill="#39412a"/><path d="m545.7 198.5q.2.1.4.2.2 0 .3 0c.3.2.6.5.9.9q0 0 0 0 .1.2.2.4.1.1.1.2 0 .1.1.2 0 .1 0 .1 0 .1 0 .3.1.1.1.2 0 .1 0 .2c0 1.7-1 3.3-2.4 4.3-.5.4-1.2.7-1.9.8-.7-.1-1.4-.4-1.9-.8-1.4-1-2.4-2.6-2.4-4.3q0-.1 0-.2 0-.1.1-.2 0-.2 0-.3 0 0 0-.1.1-.1.1-.2 0-.1.1-.2.1-.2.2-.4 0 0 0 0c.3-.4.6-.7.9-.9q.1 0 .3 0 .2-.1.4-.2c.7-.2 1.4-.3 2.2-.2.8-.1 1.5 0 2.2.2zm75.8 80.2q-.1.2-.2.4 0 .2 0 .3c-.2.3-.5.6-.9.9q0 0 0 0-.2.1-.4.2-.1.1-.2.1-.1 0-.2.1-.1 0-.1 0-.1 0-.3 0-.1.1-.2.1-.1 0-.2 0c-1.7 0-3.3-1-4.3-2.4-.4-.5-.7-1.2-.8-1.9.1-.7.4-1.4.8-1.9 1-1.4 2.6-2.4 4.3-2.4q.1 0 .2 0 .1 0 .2.1.2 0 .3 0 0 0 .1 0 .1.1.2.1.1 0 .2.1.2.1.4.2 0 0 0 0c.4.3.7.6.9.9q0 .1 0 .3.1.2.2.4c.2.7.3 1.4.2 2.2.1.8 0 1.5-.2 2.2zm-80.2 75.8q-.2-.1-.4-.2-.2 0-.3 0c-.3-.2-.6-.5-.9-.9q0 0 0 0-.1-.2-.2-.4-.1-.1-.1-.2 0-.1-.1-.2 0-.1 0-.1 0-.1 0-.3-.1-.1-.1-.2 0-.1 0-.2c0-1.7 1-3.3 2.4-4.3.5-.4 1.2-.7 1.9-.8.7.1 1.4.4 1.9.8 1.4 1 2.4 2.6 2.4 4.3q0 .1 0 .2 0 .1-.1.2 0 .2 0 .3 0 0 0 .1-.1.1-.1.2 0 .1-.1.2-.1.2-.2.4 0 0 0 0c-.3.4-.6.7-.9.9q-.1 0-.3 0-.2.1-.4.2c-.7.2-1.4.3-2.2.2-.8.1-1.5 0-2.2-.2zm-75.8-80.2q.1-.2.2-.4 0-.2 0-.3c.2-.3.5-.6.9-.9q0 0 0 0 .2-.1.4-.2.1-.1.2-.1.1 0 .2-.1.1 0 .1 0 .1 0 .3 0 .1-.1.2-.1.1 0 .2 0c1.7 0 3.3 1 4.3 2.4.4.5.7 1.2.8 1.9-.1.7-.4 1.4-.8 1.9-1 1.4-2.6 2.4-4.3 2.4q-.1 0-.2 0-.1 0-.2-.1-.2 0-.3 0 0 0-.1 0-.1-.1-.2-.1-.1 0-.2-.1-.2-.1-.4-.2 0 0 0 0c-.4-.3-.7-.6-.9-.9q0-.1 0-.3-.1-.2-.2-.4c-.2-.7-.3-1.4-.2-2.2-.1-.8 0-1.5.2-2.2zm77.7-70.3q0-.1-.1-.1 0 0 0 0 0 0 .1.1zm-72.2 72.8q-.1 0-.1.1 0 0 0 0 0 0 .1-.1zm72.8 72.2q0 .1.1.1 0 0 0 0 0 0-.1-.1zm72.2-72.8q.1 0 .1-.1 0 0 0 0 0 0-.1.1zm-72.1-72.3q0 0 0 0-.1 0-.1.1.1-.1.1-.1zm-73 72.2q0 0 0 0 0 .1.1.1-.1-.1-.1-.1zm72.2 73q0 0 0 0 .1 0 .1-.1-.1.1-.1.1zm73-72.2q0 0 0 0 0-.1-.1-.1.1.1.1.1zm-72.7-73.3q-.2.1-.5.2 0 0 0 0 .3-.1.5-.2zm-72.8 73q.1.2.2.5 0 0 0 0-.1-.3-.2-.5zm73 72.8q.2-.1.5-.2 0 0 0 0-.3.1-.5.2zm72.8-73q-.1-.2-.2-.5 0 0 0 0 .1.3.2.5zm-72.3-72.6q0 0 0 0-.3-.1-.5-.2.2.1.5.2zm-73.3 72.1q0 0 0 0-.1.3-.2.5.1-.2.2-.5zm72.1 73.3q0 0 0 0 .3.1.5.2-.2-.1-.5-.2zm73.3-72.1q0 0 0 0 .1-.3.2-.5-.1.2-.2.5z" fill="#39412a"/><path d="m559.8 72.5c1.3 4.2 1.1 8.2-.2 11.9 3.7-1.3 7.7-1.5 11.9-.2 6.7 2 10.8 9.6 12.1 16.3-1.3 6.7-5.4 14.3-12.1 16.3-4.2 1.3-8.2 1.1-11.9-.2 1.3 3.7 1.5 7.7.2 11.9-2 6.7-9.6 10.8-16.3 12.1-6.7-1.3-14.3-5.4-16.3-12.1-1.3-4.2-1.1-8.2.2-11.9-3.7 1.3-7.7 1.5-11.9.2-6.7-2-10.8-9.6-12.1-16.3 1.3-6.7 5.4-14.3 12.1-16.3 4.2-1.3 8.2-1.1 11.9.2-1.3-3.7-1.5-7.7-.2-11.9 2-6.7 9.6-10.8 16.3-12.1 6.7 1.3 14.3 5.4 16.3 12.1zm-5.8 2.6c-1.3-4.8-5.7-7.8-10.5-9.4-4.8 1.6-9.2 4.6-10.5 9.4-2.5 9 3.2 16.6 10.5 22.2 7.3-5.6 13-13.2 10.5-22.2zm-35.9 14.9c-4.8 1.3-7.8 5.7-9.4 10.5 1.6 4.8 4.6 9.2 9.4 10.5 9 2.5 16.6-3.2 22.2-10.5-5.6-7.3-13.2-13-22.2-10.5zm14.9 35.9c1.3 4.8 5.7 7.8 10.5 9.4 4.8-1.6 9.2-4.6 10.5-9.4 2.5-9-3.2-16.6-10.5-22.2-7.3 5.6-13 13.2-10.5 22.2zm35.9-14.9c4.8-1.3 7.8-5.7 9.4-10.5-1.6-4.8-4.6-9.2-9.4-10.5-9-2.5-16.6 3.2-22.2 10.5 5.6 7.3 13.2 13 22.2 10.5zm-22.1-33.9c1.4 3.6-.9 7.9-3.3 10.7-2.4-2.8-4.7-7.1-3.3-10.7.6-1.6 1.8-2.8 3.3-3.7 1.5.9 2.7 2.1 3.3 3.7zm-26.7 20.1c3.6-1.4 7.9.9 10.7 3.3-2.8 2.4-7.1 4.7-10.7 3.3-1.6-.6-2.8-1.8-3.7-3.3.9-1.5 2.1-2.7 3.7-3.3zm20.1 26.7c-1.4-3.6.9-7.9 3.3-10.7 2.4 2.8 4.7 7.1 3.3 10.7-.6 1.6-1.8 2.8-3.3 3.7-1.5-.9-2.7-2.1-3.3-3.7zm26.7-20.1c-3.6 1.4-7.9-.9-10.7-3.3 2.8-2.4 7.1-4.7 10.7-3.3 1.6.6 2.8 1.8 3.7 3.3-.9 1.5-2.1 2.7-3.7 3.3z" fill="#f7aa55"/><path d="m550.7 41.9c2.5 3.9 3.1 9-1.1 12-1.8 1.3-3.9 2-6.1 2.5-2.2-.5-4.3-1.2-6.1-2.5-4.2-3-3.6-8.1-1.1-12 1.8-2.6 4.4-4.6 7.2-4.9 2.8.3 5.4 2.3 7.2 4.9zm51.4 65.8c-3.9 2.5-9 3.1-12-1.1-1.3-1.8-2-3.9-2.5-6.1.5-2.2 1.2-4.3 2.5-6.1 3-4.2 8.1-3.6 12-1.1 2.6 1.8 4.6 4.4 4.9 7.2-.3 2.8-2.3 5.4-4.9 7.2zm-65.8 51.4c-2.5-3.9-3.1-9 1.1-12 1.8-1.3 3.9-2 6.1-2.5 2.2.5 4.3 1.2 6.1 2.5 4.2 3 3.6 8.1 1.1 12-1.8 2.6-4.4 4.6-7.2 4.9-2.8-.3-5.4-2.3-7.2-4.9zm-51.4-65.8c3.9-2.5 9-3.1 12 1.1 1.3 1.8 2 3.9 2.5 6.1-.5 2.2-1.2 4.3-2.5 6.1-3 4.2-8.1 3.6-12 1.1-2.6-1.8-4.6-4.4-4.9-7.2.3-2.8 2.3-5.4 4.9-7.2zm62.3-49.4c-1.3-1.8-2.5-2.6-3.7-2.7-1.2.1-2.4.9-3.7 2.7-3 4.9-.4 7.1 3.7 8.1 4.1-1 6.7-3.2 3.7-8.1zm52.9 60.3c1.8-1.3 2.6-2.5 2.7-3.7-.1-1.2-.9-2.4-2.7-3.7-4.9-3-7.1-.4-8.1 3.7 1 4.1 3.2 6.7 8.1 3.7zm-60.3 52.9c1.3 1.8 2.5 2.6 3.7 2.7 1.2-.1 2.4-.9 3.7-2.7 3-4.9.4-7.1-3.7-8.1-4.1 1-6.7 3.2-3.7 8.1zm-52.9-60.3c-1.8 1.3-2.6 2.5-2.7 3.7.1 1.2.9 2.4 2.7 3.7 4.9 3 7.1.4 8.1-3.7-1-4.1-3.2-6.7-8.1-3.7z" fill="#39412a"/><path d="m545.1 43.9q.2 0 .3.1.1 0 .2.1c.3.1.5.3.6.6q.1 0 .1 0 .1.2.1.3 0 .1.1.1 0 .1 0 .2 0 0 0 .1.1.1.1.1 0 .1 0 .2 0 .1 0 .1c0 1.3-.7 2.4-1.7 3.2-.4.3-.9.5-1.4.6-.5-.1-1-.3-1.4-.6-1-.8-1.7-1.9-1.7-3.2q0 0 0-.1 0-.1 0-.2 0 0 .1-.1 0-.1 0-.1 0-.1 0-.2.1 0 .1-.1 0-.1.1-.3 0 0 .1 0c.1-.3.3-.5.6-.6q.1-.1.2-.1.1-.1.3-.1c.5-.2 1-.2 1.6-.2s1.1 0 1.6.2zm55 58.2q0 .2-.1.3 0 .1-.1.2c-.1.3-.3.5-.6.6q0 .1 0 .1-.2.1-.3.1-.1 0-.1.1-.1 0-.2 0 0 0-.1 0-.1.1-.1.1-.1 0-.2 0-.1 0-.1 0c-1.3 0-2.4-.7-3.2-1.7-.3-.4-.5-.9-.6-1.4.1-.5.3-1 .6-1.4.8-1 1.9-1.7 3.2-1.7q0 0 .1 0 .1 0 .2 0 0 0 .1.1.1 0 .1 0 .1 0 .2 0 0 .1.1.1.1 0 .3.1 0 0 0 .1c.3.1.5.3.6.6q.1.1.1.2.1.1.1.3c.2.5.2 1 .2 1.6s0 1.1-.2 1.6zm-58.2 55q-.2 0-.3-.1-.1 0-.2-.1c-.3-.1-.5-.3-.6-.6q-.1 0-.1 0-.1-.2-.1-.3 0-.1-.1-.1 0-.1 0-.2 0 0 0-.1-.1-.1-.1-.1 0-.1 0-.2 0-.1 0-.1c0-1.3.7-2.4 1.7-3.2.4-.3.9-.5 1.4-.6.5.1 1 .3 1.4.6 1 .8 1.7 1.9 1.7 3.2q0 0 0 .1 0 .1 0 .2 0 0-.1.1 0 .1 0 .1 0 .1 0 .2-.1 0-.1.1 0 .1-.1.3 0 0-.1 0c-.1.3-.3.5-.6.6q-.1.1-.2.1-.1.1-.3.1c-.5.2-1 .2-1.6.2s-1.1 0-1.6-.2zm-55-58.2q0-.2.1-.3 0-.1.1-.2c.1-.3.3-.5.6-.6q0-.1 0-.1.2-.1.3-.1.1 0 .1-.1.1 0 .2 0 0 0 .1 0 .1-.1.1-.1.1 0 .2 0 .1 0 .1 0c1.3 0 2.4.7 3.2 1.7.3.4.5.9.6 1.4-.1.5-.3 1-.6 1.4-.8 1-1.9 1.7-3.2 1.7q0 0-.1 0-.1 0-.2 0 0 0-.1-.1-.1 0-.1 0-.1 0-.2 0 0-.1-.1-.1-.1 0-.3-.1 0 0 0-.1c-.3-.1-.5-.3-.6-.6q-.1-.1-.1-.2-.1-.1-.1-.3c-.2-.5-.2-1-.2-1.6s0-1.1.2-1.6zm56.4-51.1q0 0-.1 0 0 0 0 0 0 0 .1 0zm-52.5 52.9q0 0 0 .1 0 0 0 0 0 0 0-.1zm52.9 52.5q0 0 .1 0 0 0 0 0 0 0-.1 0zm52.5-52.9q0 0 0-.1 0 0 0 0 0 0 0 .1zm-52.4-52.5q0 0 0 0-.1 0-.1 0 .1 0 .1 0zm-53 52.4q0 0 0 0 0 .1 0 .1 0-.1 0-.1zm52.4 53q0 0 0 0 .1 0 .1 0-.1 0-.1 0zm53-52.4q0 0 0 0 0-.1 0-.1 0 .1 0 .1zm-52.8-53.2q-.1.1-.3.1 0 0 0 0 .2 0 .3-.1zm-52.8 53q.1.1.1.3 0 0 0 0 0-.2-.1-.3zm53 52.8q.1-.1.3-.1 0 0 0 0-.2 0-.3.1zm52.8-53q-.1-.1-.1-.3 0 0 0 0 0 .2.1.3zm-52.5-52.7q0 0 0 0-.2 0-.3-.1.1.1.3.1zm-53.2 52.4q0 0 0 0 0 .2-.1.3.1-.1.1-.3zm52.4 53.2q0 0 0 0 .2 0 .3.1-.1-.1-.3-.1zm53.2-52.4q0 0 0 0 0-.2.1-.3-.1.1-.1.3z" fill="#39412a"/><path d="m118.8 505.5c1.3 4.3 1.1 8.3-.2 12 3.7-1.3 7.7-1.5 11.9-.2 6.7 2 10.8 9.6 12.1 16.3-1.3 6.6-5.4 14.2-12.1 16.3-4.2 1.3-8.2 1-11.9-.2 1.3 3.7 1.5 7.7.2 11.9-2 6.7-9.6 10.7-16.3 12.1-6.7-1.4-14.3-5.4-16.3-12.1-1.3-4.2-1.1-8.2.2-11.9-3.7 1.2-7.7 1.5-11.9.2-6.7-2.1-10.8-9.7-12.1-16.3 1.3-6.7 5.4-14.3 12.1-16.3 4.2-1.3 8.2-1.1 11.9.2-1.3-3.7-1.5-7.7-.2-12 2-6.6 9.6-10.7 16.3-12 6.7 1.3 14.3 5.4 16.3 12zm-5.8 2.6c-1.3-4.7-5.7-7.8-10.5-9.3-4.8 1.5-9.2 4.6-10.5 9.3-2.5 9.1 3.2 16.7 10.5 22.3 7.3-5.6 13-13.2 10.5-22.3zm-35.9 15c-4.8 1.3-7.8 5.7-9.4 10.5 1.6 4.8 4.6 9.2 9.4 10.5 9 2.4 16.6-3.2 22.2-10.5-5.6-7.3-13.2-13-22.2-10.5zm14.9 35.9c1.3 4.8 5.7 7.8 10.5 9.4 4.8-1.6 9.2-4.6 10.5-9.4 2.5-9-3.2-16.6-10.5-22.2-7.3 5.6-13 13.2-10.5 22.2zm35.9-14.9c4.8-1.3 7.8-5.7 9.4-10.5-1.6-4.8-4.6-9.2-9.4-10.5-9-2.5-16.6 3.2-22.2 10.5 5.6 7.3 13.2 12.9 22.2 10.5zm-22.1-33.9c1.4 3.6-.9 7.9-3.3 10.7-2.4-2.8-4.7-7.1-3.3-10.7.6-1.6 1.8-2.9 3.3-3.8 1.5.9 2.7 2.2 3.3 3.8zm-26.7 20.1c3.6-1.4 7.9.9 10.7 3.3-2.8 2.4-7.1 4.7-10.7 3.3-1.6-.6-2.8-1.8-3.7-3.3.9-1.5 2.1-2.7 3.7-3.3zm20.1 26.7c-1.4-3.6.9-8 3.3-10.7 2.4 2.7 4.7 7.1 3.3 10.7-.6 1.6-1.8 2.8-3.3 3.7-1.5-.9-2.7-2.1-3.3-3.7zm26.7-20.1c-3.6 1.4-7.9-.9-10.7-3.3 2.8-2.4 7.1-4.7 10.7-3.3 1.6.6 2.8 1.8 3.7 3.3-.9 1.5-2.1 2.7-3.7 3.3z" fill="#f7aa55"/><path d="m109.7 475c2.5 3.9 3.1 9-1.1 12-1.8 1.3-3.9 2-6.1 2.5-2.2-.5-4.3-1.2-6.1-2.5-4.2-3-3.6-8.1-1.1-12 1.8-2.6 4.4-4.6 7.2-4.9 2.8.3 5.4 2.3 7.2 4.9zm51.4 65.8c-3.9 2.5-9 3.1-12-1.1-1.3-1.8-2-3.9-2.5-6.1.5-2.2 1.2-4.3 2.5-6.1 3-4.2 8.1-3.6 12-1.1 2.6 1.8 4.6 4.4 4.9 7.2-.3 2.8-2.3 5.4-4.9 7.2zm-65.8 51.4c-2.5-4-3.1-9 1.1-12 1.8-1.3 3.9-2.1 6.1-2.5 2.2.4 4.3 1.2 6.1 2.5 4.2 3 3.6 8 1.1 12-1.8 2.6-4.4 4.6-7.2 4.9-2.8-.3-5.4-2.3-7.2-4.9zm-51.4-65.8c3.9-2.5 9-3.1 12 1.1 1.3 1.8 2 3.9 2.5 6.1-.5 2.2-1.2 4.3-2.5 6.1-3 4.2-8.1 3.6-12 1.1-2.6-1.8-4.6-4.4-4.9-7.2.3-2.8 2.3-5.4 4.9-7.2zm62.3-49.4c-1.3-1.8-2.5-2.6-3.7-2.7-1.2.1-2.4.9-3.7 2.7-3 4.8-.4 7.1 3.7 8.1 4.1-1 6.7-3.3 3.7-8.1zm52.9 60.3c1.8-1.3 2.6-2.5 2.7-3.7-.1-1.2-.9-2.5-2.7-3.7-4.9-3-7.1-.4-8.1 3.7 1 4.1 3.2 6.7 8.1 3.7zm-60.3 52.9c1.3 1.7 2.5 2.6 3.7 2.7 1.2-.1 2.4-1 3.7-2.7 3-4.9.4-7.1-3.7-8.2-4.1 1.1-6.7 3.3-3.7 8.2zm-52.9-60.3c-1.8 1.2-2.6 2.5-2.7 3.7.1 1.2.9 2.4 2.7 3.7 4.9 3 7.1.4 8.1-3.7-1-4.1-3.2-6.7-8.1-3.7z" fill="#39412a"/><path d="m104.1 477q.2 0 .3.1.1 0 .2.1c.3.1.5.3.6.6q.1 0 .1 0 .1.1.1.3 0 0 .1.1 0 .1 0 .2 0 0 0 .1.1 0 .1.1 0 .1 0 .2 0 .1 0 .1c0 1.3-.7 2.4-1.7 3.2-.4.3-.9.5-1.4.6-.5-.1-1-.3-1.4-.6-1-.8-1.7-1.9-1.7-3.2q0 0 0-.1 0-.1 0-.2 0-.1.1-.1 0-.1 0-.1 0-.1 0-.2.1-.1.1-.1 0-.2.1-.3 0 0 .1 0c.1-.3.3-.5.6-.6q.1-.1.2-.1.1-.1.3-.1c.5-.2 1-.3 1.6-.2.6-.1 1.1 0 1.6.2zm55 58.2q0 .1-.1.3 0 .1-.1.2c-.1.2-.3.5-.6.6q0 0 0 0-.2.1-.3.2-.1 0-.1 0-.1.1-.2.1 0 0-.1 0-.1 0-.1.1-.1 0-.2 0-.1 0-.1 0c-1.3 0-2.4-.7-3.2-1.7-.3-.4-.5-.9-.6-1.4.1-.5.3-1 .6-1.4.8-1 1.9-1.7 3.2-1.7q0 0 .1 0 .1 0 .2 0 0 0 .1 0 .1 0 .1.1.1 0 .2 0 0 0 .1.1.1 0 .3.1 0 0 0 0c.3.2.5.4.6.7q.1.1.1.2.1.1.1.3c.2.5.2 1 .2 1.6s0 1.1-.2 1.6zm-58.2 55q-.2-.1-.3-.1-.1-.1-.2-.1c-.3-.1-.5-.3-.6-.6q-.1 0-.1 0-.1-.2-.1-.3 0-.1-.1-.1 0-.1 0-.2 0 0 0-.1-.1-.1-.1-.2 0-.1 0-.1 0-.1 0-.1c0-1.3.7-2.4 1.7-3.2.4-.3.9-.5 1.4-.6.5.1 1 .3 1.4.6 1 .8 1.7 1.9 1.7 3.2q0 0 0 .1 0 0 0 .1 0 .1-.1.2 0 .1 0 .1 0 .1 0 .2-.1 0-.1.1 0 .1-.1.3 0 0-.1 0c-.1.3-.3.5-.6.6q-.1 0-.2.1-.1 0-.3.1c-.5.2-1 .2-1.6.2s-1.1 0-1.6-.2zm-55-58.2q0-.2.1-.3 0-.1.1-.2c.1-.3.3-.5.6-.7q0 0 0 0 .2-.1.3-.1.1-.1.1-.1.1 0 .2 0 0-.1.1-.1.1 0 .1 0 .1 0 .2 0 .1 0 .1 0c1.3 0 2.4.7 3.2 1.7.3.4.5.9.6 1.4-.1.5-.3 1-.6 1.4-.8 1-1.9 1.7-3.2 1.7q0 0-.1 0-.1 0-.2 0 0-.1-.1-.1-.1 0-.1 0-.1 0-.2-.1 0 0-.1 0-.1-.1-.3-.2 0 0 0 0c-.3-.1-.5-.4-.6-.6q-.1-.1-.1-.2-.1-.2-.1-.3c-.2-.5-.2-1-.2-1.6s0-1.1.2-1.6zm56.4-51.1q0 0-.1 0 0 0 0 0 0 0 .1 0zm-52.5 52.9q0 0 0 .1 0 0 0 0 0-.1 0-.1zm52.9 52.4q0 .1.1.1 0 0 0 0 0 0-.1-.1zm52.5-52.8q0 0 0-.1 0 0 0 0 0 0 0 .1zm-52.4-52.5q0 0 0 0-.1 0-.1 0 .1 0 .1 0zm-53 52.4q0 0 0 0 0 .1 0 .1 0-.1 0-.1zm52.4 53q0 0 0 0 .1 0 .1-.1-.1.1-.1.1zm53-52.4q0 0 0 0 0-.1 0-.1 0 0 0 .1zm-52.8-53.2q-.1 0-.3.1 0 0 0 0 .2 0 .3-.1zm-52.8 52.9q.1.2.1.4 0 0 0 0 0-.2-.1-.4zm53 52.9q.1-.1.3-.1 0 0 0 0-.2 0-.3.1zm52.8-53q-.1-.2-.1-.3 0 0 0 0 0 .2.1.3zm-52.5-52.7q0 0 0 0-.2-.1-.3-.1.1.1.3.1zm-53.2 52.4q0 0 0 0 0 .1-.1.3.1-.1.1-.3zm52.4 53.2q0 0 0 0 .2 0 .3.1-.1-.1-.3-.1zm53.2-52.4q0 0 0 0 0-.2.1-.4-.1.2-.1.4z" fill="#39412a"/><path d="m303.2 495.4c1.8 6 1.5 11.5-.3 16.7 5.2-1.8 10.7-2.1 16.7-.3 9.2 2.8 14.9 13.4 16.8 22.7-1.9 9.3-7.6 19.9-16.8 22.7-6 1.8-11.5 1.5-16.7-.3 1.8 5.2 2.1 10.7.3 16.7-2.8 9.2-13.4 14.9-22.7 16.8-9.3-1.9-19.9-7.6-22.7-16.8-1.8-6-1.5-11.5.3-16.7-5.2 1.8-10.7 2.1-16.7.3-9.2-2.8-14.9-13.4-16.8-22.7 1.9-9.3 7.6-19.9 16.8-22.7 6-1.8 11.5-1.5 16.7.3-1.8-5.2-2.1-10.7-.3-16.7 2.8-9.2 13.4-14.9 22.7-16.8 9.3 1.9 19.9 7.6 22.7 16.8zm-8.1 3.6c-1.8-6.6-7.9-10.8-14.6-13-6.7 2.2-12.8 6.4-14.6 13-3.5 12.7 4.4 23.2 14.6 31 10.2-7.8 18.1-18.3 14.6-31zm-50.1 20.9c-6.6 1.8-10.8 7.9-13 14.6 2.2 6.7 6.4 12.8 13 14.6 12.7 3.5 23.2-4.4 31-14.6-7.8-10.2-18.3-18.1-31-14.6zm20.9 50.1c1.8 6.6 7.9 10.8 14.6 13 6.7-2.2 12.8-6.4 14.6-13 3.5-12.7-4.4-23.2-14.6-31-10.2 7.8-18.1 18.3-14.6 31zm50.1-20.9c6.6-1.8 10.8-7.9 13-14.6-2.2-6.7-6.4-12.8-13-14.6-12.7-3.5-23.2 4.4-31 14.6 7.8 10.2 18.3 18.1 31 14.6zm-30.9-47.2c2 5-1.3 11.1-4.6 14.9-3.3-3.8-6.6-9.9-4.6-14.9.8-2.3 2.5-4 4.6-5.2 2.1 1.2 3.8 2.9 4.6 5.2zm-37.2 28c5-2 11.1 1.3 14.9 4.6-3.8 3.3-9.9 6.6-14.9 4.6-2.3-.8-4-2.5-5.2-4.6 1.2-2.1 2.9-3.8 5.2-4.6zm28 37.2c-2-5 1.3-11.1 4.6-14.9 3.3 3.8 6.6 9.9 4.6 14.9-.8 2.3-2.5 4-4.6 5.2-2.1-1.2-3.8-2.9-4.6-5.2zm37.2-28c-5 2-11.1-1.3-14.9-4.6 3.8-3.3 9.9-6.6 14.9-4.6 2.3.8 4 2.5 5.2 4.6-1.2 2.1-2.9 3.8-5.2 4.6z" fill="#f7aa55"/><path d="m290.6 452.8c3.4 5.5 4.3 12.6-1.6 16.8-2.5 1.8-5.4 2.8-8.5 3.4-3.1-.6-6-1.6-8.5-3.4-5.9-4.2-5-11.3-1.6-16.8 2.6-3.6 6.2-6.4 10.1-6.8 3.9.4 7.5 3.2 10.1 6.8zm71.6 91.8c-5.5 3.4-12.6 4.3-16.8-1.6-1.8-2.5-2.8-5.4-3.4-8.5.6-3.1 1.6-6 3.4-8.5 4.2-5.9 11.3-5 16.8-1.6 3.6 2.6 6.4 6.2 6.8 10.1-.4 3.9-3.2 7.5-6.8 10.1zm-91.8 71.6c-3.4-5.5-4.3-12.6 1.6-16.8 2.5-1.8 5.4-2.8 8.5-3.4 3.1.6 6 1.6 8.5 3.4 5.9 4.2 5 11.3 1.6 16.8-2.6 3.6-6.2 6.4-10.1 6.8-3.9-.4-7.5-3.2-10.1-6.8zm-71.6-91.8c5.5-3.4 12.6-4.3 16.8 1.6 1.8 2.5 2.8 5.4 3.4 8.5-.6 3.1-1.6 6-3.4 8.5-4.2 5.9-11.3 5-16.8 1.6-3.6-2.6-6.4-6.2-6.8-10.1.4-3.9 3.2-7.5 6.8-10.1zm86.9-68.8c-1.8-2.4-3.5-3.6-5.2-3.8-1.7.2-3.4 1.4-5.2 3.8-4.2 6.8-.5 9.9 5.2 11.4 5.7-1.5 9.4-4.6 5.2-11.4zm73.7 84.1c2.4-1.8 3.6-3.5 3.8-5.2-.2-1.7-1.4-3.4-3.8-5.2-6.8-4.2-9.9-.5-11.4 5.2 1.5 5.7 4.6 9.4 11.4 5.2zm-84.1 73.7c1.8 2.4 3.5 3.6 5.2 3.8 1.7-.2 3.4-1.4 5.2-3.8 4.2-6.8.5-9.9-5.2-11.4-5.7 1.5-9.4 4.6-5.2 11.4zm-73.7-84.1c-2.4 1.8-3.6 3.5-3.8 5.2.2 1.7 1.4 3.4 3.8 5.2 6.8 4.2 9.9.5 11.4-5.2-1.5-5.7-4.6-9.4-11.4-5.2z" fill="#39412a"/><path d="m282.7 455.6q.3.1.5.2.1 0 .2.1c.4.1.7.4.9.8q0 0 0 0 .2.2.3.5 0 0 0 .1.1.1.1.2 0 .1 0 .2.1.1.1.2 0 .1 0 .3 0 0 0 .1c0 1.8-1 3.3-2.4 4.4-.5.4-1.2.7-1.9.8-.7-.1-1.4-.4-1.9-.8-1.4-1.1-2.4-2.6-2.4-4.4q0-.1 0-.1 0-.2 0-.3 0-.1.1-.2 0-.1 0-.2 0-.1.1-.2 0-.1 0-.1.1-.3.3-.5 0 0 0 0c.2-.4.5-.7.9-.8q.1-.1.2-.1.2-.1.5-.2c.7-.2 1.4-.3 2.2-.2.8-.1 1.5 0 2.2.2zm76.7 81.1q-.1.3-.2.5 0 .1-.1.2c-.1.4-.4.7-.8.9q0 0 0 0-.2.2-.5.3 0 0-.1 0-.1.1-.2.1-.1 0-.2 0-.1.1-.2.1-.1 0-.3 0 0 0-.1 0c-1.8 0-3.3-1-4.4-2.4-.4-.5-.7-1.2-.8-1.9.1-.7.4-1.4.8-1.9 1.1-1.4 2.6-2.4 4.4-2.4q.1 0 .1 0 .2 0 .3 0 .1 0 .2.1.1 0 .2 0 .1 0 .2.1.1 0 .1 0 .3.1.5.3 0 0 0 0c.4.2.7.5.8.9q.1.1.1.2.1.2.2.5c.2.7.3 1.4.2 2.2.1.8 0 1.5-.2 2.2zm-81.1 76.7q-.3-.1-.5-.2-.1 0-.2-.1c-.4-.1-.7-.4-.9-.8q0 0 0 0-.2-.2-.3-.5 0 0 0-.1-.1-.1-.1-.2 0-.1 0-.2-.1-.1-.1-.2 0-.1 0-.3 0 0 0-.1c0-1.8 1-3.3 2.4-4.4.5-.4 1.2-.7 1.9-.8.7.1 1.4.4 1.9.8 1.4 1.1 2.4 2.6 2.4 4.4q0 .1 0 .1 0 .2 0 .3 0 .1-.1.2 0 .1 0 .2 0 .1-.1.2 0 .1 0 .1-.1.3-.3.5 0 0 0 0c-.2.4-.5.7-.9.8q-.1.1-.2.1-.2.1-.5.2c-.7.2-1.4.3-2.2.2-.8.1-1.5 0-2.2-.2zm-76.7-81.1q.1-.3.2-.5 0-.1.1-.2c.1-.4.4-.7.8-.9q0 0 0 0 .2-.2.5-.3 0 0 .1 0 .1-.1.2-.1.1 0 .2 0 .1-.1.2-.1.1 0 .3 0 0 0 .1 0c1.8 0 3.3 1 4.4 2.4.4.5.7 1.2.8 1.9-.1.7-.4 1.4-.8 1.9-1.1 1.4-2.6 2.4-4.4 2.4q-.1 0-.1 0-.2 0-.3 0-.1 0-.2-.1-.1 0-.2 0-.1 0-.2-.1-.1 0-.1 0-.3-.1-.5-.3 0 0 0 0c-.4-.2-.7-.5-.8-.9q-.1-.1-.1-.2-.1-.2-.2-.5c-.2-.7-.3-1.4-.2-2.2-.1-.8 0-1.5.2-2.2zm78.6-71.2q0 0-.2-.1.1 0 .1.1 0 0 .1 0zm-73.1 73.7q0 0-.1.2 0-.1.1-.1 0 0 0-.1zm73.7 73.1q0 0 .2.1-.1 0-.1-.1 0 0-.1 0zm73.1-73.7q0 0 .1-.2 0 .1-.1.1 0 0 0 .1zm-73-73.1q0-.1.1-.1-.2.1-.2.1.1 0 .1 0zm-73.8 73q-.1 0-.1-.1.1.2.1.2 0-.1 0-.1zm73 73.8q0 .1-.1.1.2-.1.2-.1-.1 0-.1 0zm73.8-73q.1 0 .1.1-.1-.2-.1-.2 0 .1 0 .1zm-73.5-74.2q-.2.1-.5.2 0 0 0 0 .3 0 .5-.2zm-73.7 73.9q.1.2.2.5 0 0 0 0 0-.3-.2-.5zm73.9 73.7q.2-.1.5-.2 0 0 0 0-.3 0-.5.2zm73.7-73.9q-.1-.2-.2-.5 0 0 0 0 0 .3.2.5zm-73.2-73.5q0 0 0 0-.3-.1-.5-.2.2.2.5.2zm-74.2 73q0 0 0 0-.1.3-.2.5.2-.2.2-.5zm73 74.2q0 0 0 0 .3.1.5.2-.2-.2-.5-.2zm74.2-73q0 0 0 0 .1-.3.2-.5-.2.2-.2.5z" fill="#39412a"/></g></svg>