<svg width="16" height="16" viewBox="0 0 16 16" fill="none" xmlns="http://www.w3.org/2000/svg">
<g clip-path="url(#clip0_26_2396)">
<path d="M16 1.91626V9.9072C15.974 10.0739 15.9516 10.1856 15.9328 10.2425C15.7597 10.7627 15.4297 11.1295 14.9428 11.3428C14.843 11.3864 14.7384 11.4196 14.6291 11.4425C14.5111 11.4671 14.4029 11.4803 14.3044 11.4822C13.9252 11.4891 13.4212 11.4879 12.7925 11.4788C12.6685 11.4242 12.5888 11.3535 12.5531 11.2669C12.4891 11.1116 12.5419 10.9272 12.6891 10.8388C12.7518 10.801 12.8138 10.7822 12.875 10.7822C13.349 10.7824 13.8229 10.7817 14.2969 10.78C14.5573 10.7792 14.7925 10.6756 15.0025 10.4694C15.2023 10.26 15.3023 10.0072 15.3025 9.71095C15.3046 7.15886 15.3051 4.60678 15.3041 2.05469C15.3041 1.86761 15.2417 1.68022 15.1169 1.49251C15.1144 1.48897 15.1068 1.48324 15.0941 1.47532C15.0907 1.46407 15.0854 1.45397 15.0781 1.44501C14.9358 1.27022 14.7641 1.1523 14.5628 1.09126C14.4518 1.05772 14.2757 1.04094 14.0347 1.04094C9.97906 1.04324 5.89479 1.04397 1.78188 1.04313C1.41479 1.04292 1.12156 1.18449 0.902188 1.46782C0.900937 1.46949 0.9 1.47136 0.899375 1.47344C0.896667 1.48303 0.8975 1.48511 0.901875 1.47969C0.8875 1.49074 0.877083 1.50126 0.870625 1.51126C0.796667 1.6273 0.746146 1.75084 0.719063 1.88188C0.703646 1.95605 0.695833 2.08751 0.695625 2.27626C0.694792 4.77272 0.694896 7.26917 0.695938 9.76563C0.696146 10.0248 0.796875 10.2594 0.998125 10.4694C1.20875 10.6765 1.45938 10.7803 1.75 10.7809C2.15771 10.7816 2.56531 10.782 2.97281 10.7822C3.12365 10.7824 3.22354 10.7943 3.2725 10.8178C3.52375 10.9378 3.54844 11.2759 3.30219 11.4241C3.2724 11.442 3.24073 11.4605 3.20719 11.4797C2.70677 11.4859 2.20292 11.4844 1.69562 11.475C1.50896 11.4715 1.34823 11.4469 1.21344 11.4013C0.683646 11.2221 0.315417 10.874 0.10875 10.3569C0.054375 10.2203 0.02625 10.0672 0 9.91907V1.91063C0.0302083 1.73855 0.0525 1.63032 0.066875 1.58594C0.272292 0.952819 0.705521 0.55084 1.36656 0.380007C1.45448 0.357298 1.57708 0.34584 1.73438 0.345632C5.94271 0.344382 10.151 0.343861 14.3594 0.344069C14.444 0.344069 14.5524 0.361257 14.6847 0.395632C15.2781 0.550319 15.715 0.968444 15.9197 1.54844C15.9474 1.6274 15.9742 1.75001 16 1.91626Z" fill="#404C6E"/>
<path d="M15.0941 1.47531L14.5406 1.87969C14.4417 1.7699 14.3306 1.72604 14.2075 1.74813C14.1404 1.76021 14.0837 1.78313 14.0372 1.81688C12.0312 3.26875 10.2389 4.56344 8.66032 5.70094C8.54469 5.78427 8.43136 5.84208 8.32032 5.87438C7.97553 5.97479 7.65261 5.91688 7.35157 5.70063C5.87157 4.63771 4.1174 3.37406 2.08907 1.90969C1.95823 1.81531 1.86178 1.76177 1.79969 1.74906C1.67386 1.72344 1.5598 1.76802 1.45751 1.88281L0.90188 1.47969C0.897505 1.48511 0.896672 1.48302 0.89938 1.47344C0.900005 1.47136 0.900943 1.46948 0.902193 1.46781C1.12157 1.18448 1.4148 1.04292 1.78188 1.04313C5.8948 1.04396 9.97907 1.04323 14.0347 1.04094C14.2757 1.04094 14.4518 1.05771 14.5628 1.09125C14.7641 1.15229 14.9358 1.27021 15.0781 1.445C15.0854 1.45396 15.0907 1.46406 15.0941 1.47531Z" fill="#CDAD80" fill-opacity="0.7"/>
<path d="M15.094 1.47531C15.1067 1.48323 15.1143 1.48896 15.1168 1.4925C15.2416 1.68021 15.304 1.8676 15.304 2.05469C15.305 4.60677 15.3045 7.15885 15.3024 9.71094C15.3022 10.0072 15.2022 10.26 15.0024 10.4694L14.5128 9.97969C14.6493 9.79875 14.6287 9.61625 14.4768 9.46437C13.3404 8.32708 12.2018 7.18823 11.0612 6.04781C11.0093 5.99573 10.9532 5.95864 10.8928 5.93656C10.7748 5.89364 10.6569 5.91875 10.539 6.01187L10.0728 5.53906C11.4963 4.51114 12.9169 3.48542 14.3346 2.46187C14.4611 2.37062 14.5391 2.29614 14.5687 2.23844C14.6243 2.13031 14.6149 2.01073 14.5406 1.87969L15.094 1.47531Z" fill="#CDAD80" fill-opacity="0.7"/>
<path d="M0.901874 1.47969L1.4575 1.88282C1.38479 2.01302 1.37614 2.13177 1.43156 2.23907C1.46114 2.29594 1.53906 2.37 1.66531 2.46125C3.08385 3.48604 4.50229 4.51084 5.92062 5.53563C5.91687 5.555 5.90937 5.56865 5.89812 5.57657C5.88542 5.58552 5.87875 5.59021 5.87812 5.59063C5.73896 5.72938 5.59916 5.86959 5.45875 6.01125C5.29312 5.88188 5.10031 5.88594 4.95687 6.02938C3.805 7.18125 2.65542 8.33146 1.50812 9.48C1.46271 9.52563 1.43021 9.57959 1.41062 9.64188C1.375 9.755 1.40104 9.86823 1.48875 9.98156L0.998124 10.4694C0.796874 10.2594 0.696145 10.0248 0.695936 9.76563C0.694895 7.26917 0.694791 4.77271 0.695624 2.27625C0.695832 2.0875 0.703645 1.95604 0.719061 1.88188C0.746145 1.75084 0.796666 1.62729 0.870624 1.51125C0.877082 1.50125 0.887499 1.49073 0.901874 1.47969Z" fill="#CDAD80" fill-opacity="0.7"/>
<path d="M14.5406 1.87969C14.615 2.01073 14.6244 2.13031 14.5688 2.23844C14.5392 2.29615 14.4612 2.37063 14.3347 2.46188C12.917 3.48542 11.4964 4.51115 10.0728 5.53906C9.73533 5.78323 9.39356 6.02792 9.04752 6.27313C8.73106 6.4975 8.38929 6.61146 8.02221 6.615C7.62283 6.61906 7.24783 6.49094 6.92252 6.25719C6.58856 6.01698 6.2546 5.77646 5.92065 5.53563C4.50231 4.51084 3.08387 3.48604 1.66533 2.46125C1.53908 2.37 1.46117 2.29594 1.43158 2.23906C1.37617 2.13177 1.38481 2.01302 1.45752 1.88281C1.55981 1.76802 1.67387 1.72344 1.79971 1.74906C1.86179 1.76177 1.95825 1.81531 2.08908 1.90969C4.11742 3.37406 5.87158 4.63771 7.35158 5.70063C7.65262 5.91688 7.97554 5.97479 8.32033 5.87438C8.43137 5.84209 8.54471 5.78427 8.66033 5.70094C10.2389 4.56344 12.0312 3.26875 14.0372 1.81688C14.0837 1.78313 14.1404 1.76021 14.2075 1.74813C14.3306 1.72604 14.4417 1.7699 14.5406 1.87969Z" fill="#404C6E"/>
<path d="M5.92067 5.53563C6.25463 5.77646 6.58859 6.01698 6.92254 6.25719C7.24786 6.49094 7.62286 6.61907 8.02223 6.615C8.38931 6.61146 8.73108 6.4975 9.04754 6.27313C9.39358 6.02792 9.73536 5.78323 10.0729 5.53907L10.5391 6.01188C10.3922 6.1973 10.3984 6.36959 10.5575 6.52875C11.664 7.63563 12.7708 8.7424 13.8779 9.84907C13.9962 9.9674 14.0847 10.038 14.1435 10.0609C14.2668 10.1089 14.3899 10.0818 14.5129 9.97969L15.0025 10.4694C14.7925 10.6756 14.5573 10.7792 14.2969 10.78C13.823 10.7817 13.349 10.7824 12.875 10.7822C12.8138 10.7822 12.7518 10.801 12.6891 10.8388C12.5419 10.9272 12.4891 11.1116 12.5532 11.2669C12.5888 11.3535 12.6686 11.4242 12.7925 11.4788L12.5225 11.4756C12.5078 11.4754 12.4997 11.4679 12.4985 11.4531C12.3635 9.59125 11.0188 7.965 9.22598 7.47282C8.29786 7.21823 7.38015 7.25032 6.47286 7.56907C6.27723 7.63782 6.08681 7.72178 5.90161 7.82094C5.05848 8.27219 4.41921 8.91761 3.98379 9.75719C3.71484 10.2759 3.55359 10.8425 3.50004 11.4569C3.499 11.4675 3.49317 11.4729 3.48254 11.4731L3.20723 11.4797C3.24077 11.4605 3.27244 11.442 3.30223 11.4241C3.54848 11.2759 3.52379 10.9378 3.27254 10.8178C3.22359 10.7943 3.12369 10.7824 2.97286 10.7822C2.56536 10.782 2.15775 10.7816 1.75004 10.7809C1.45942 10.7803 1.20879 10.6765 0.998169 10.4694L1.48879 9.98157C1.51192 9.99761 1.53546 10.0138 1.55942 10.03C1.71536 10.1353 1.89473 10.0778 2.02879 9.94313C3.12713 8.84105 4.24494 7.72334 5.38223 6.59C5.46473 6.50771 5.51754 6.43542 5.54067 6.37313C5.58525 6.25292 5.55796 6.1323 5.45879 6.01125C5.59921 5.86959 5.739 5.72938 5.87817 5.59063C5.87879 5.59021 5.88546 5.58553 5.89817 5.57657C5.90942 5.56865 5.91692 5.555 5.92067 5.53563Z" fill="#CDAD80" fill-opacity="0.7"/>
<path d="M5.4587 6.01124C5.55787 6.13228 5.58516 6.25291 5.54058 6.37312C5.51745 6.43541 5.46464 6.5077 5.38214 6.58999C4.24485 7.72333 3.12704 8.84103 2.0287 9.94312C1.89464 10.0778 1.71526 10.1353 1.55933 10.03C1.53537 10.0137 1.51183 9.9976 1.4887 9.98156C1.40099 9.86822 1.37495 9.75499 1.41058 9.64187C1.43016 9.57958 1.46266 9.52562 1.50808 9.47999C2.65537 8.33145 3.80495 7.18124 4.95683 6.02937C5.10026 5.88593 5.29308 5.88187 5.4587 6.01124Z" fill="#404C6E"/>
<path d="M14.5128 9.97969C14.3899 10.0818 14.2668 10.1089 14.1435 10.0609C14.0847 10.038 13.9962 9.9674 13.8778 9.84907C12.7707 8.7424 11.664 7.63563 10.5575 6.52876C10.3984 6.36959 10.3922 6.1973 10.5391 6.01188C10.657 5.91876 10.7749 5.89365 10.8928 5.93657C10.9532 5.95865 11.0094 5.99573 11.0613 6.04782C12.2019 7.18823 13.3404 8.32709 14.4769 9.46438C14.6288 9.61626 14.6494 9.79876 14.5128 9.97969Z" fill="#404C6E"/>
<path d="M6.64436 12.9413C6.45352 12.6842 6.33311 12.4063 6.28311 12.1075C6.14279 11.2703 6.64217 10.4488 7.44842 10.1775C7.88217 10.0319 8.35842 10.0597 8.78092 10.2628C8.84925 10.2955 8.9178 10.3293 8.98655 10.3641C9.3778 10.6432 9.61946 11.0143 9.71154 11.4772C9.74113 11.6259 9.75373 11.8026 9.74936 12.0072C9.74832 12.0493 9.75363 12.0904 9.76529 12.1306C9.78123 12.1863 9.7753 12.2419 9.79217 12.2978C9.84155 12.4606 9.89467 12.6066 10.0222 12.72C10.1912 12.8703 10.4406 12.8819 10.6528 12.8403C10.9069 12.7903 11.0109 12.6166 11.0744 12.3825C11.0841 12.3463 11.0912 12.3106 11.0956 12.2756C11.171 11.6792 11.0993 11.1272 10.8803 10.6197C10.5465 9.84615 9.99936 9.2923 9.23873 8.95813C8.75602 8.74626 8.24884 8.66574 7.71717 8.71657C6.66686 8.81719 5.75717 9.41938 5.25092 10.3363C5.03384 10.7298 4.91061 11.162 4.88123 11.6328C4.86832 11.838 4.87727 12.0457 4.90811 12.2559C5.03873 13.1453 5.47842 13.8582 6.22717 14.3947C6.56696 14.6382 6.96634 14.8046 7.42529 14.8938C7.62113 14.9319 7.82852 14.9492 8.04748 14.9456C8.8429 14.9323 9.53967 14.6499 10.1378 14.0984C10.2359 14.0081 10.3809 13.9425 10.5184 13.9913C10.6649 14.0433 10.7471 14.1447 10.765 14.2953C10.7727 14.3597 10.7606 14.422 10.7287 14.4822C10.7041 14.5287 10.6662 14.5754 10.615 14.6225C10.1575 15.0419 9.6453 15.3347 9.07842 15.5009C9.043 15.5114 8.96665 15.5307 8.84936 15.5591C8.69029 15.5975 8.5228 15.62 8.36248 15.6372C8.12498 15.663 7.87592 15.6622 7.61529 15.6347C6.83738 15.5532 6.14884 15.264 5.54967 14.7669C5.39113 14.6354 5.24311 14.4898 5.10561 14.33C4.50436 13.6304 4.19279 12.8055 4.17092 11.8553C4.16842 11.7428 4.18436 11.6363 4.18623 11.5263C4.18769 11.4485 4.19571 11.3699 4.21029 11.2903C4.22467 11.2124 4.23946 11.134 4.25467 11.055C4.34967 10.5583 4.5404 10.1026 4.82686 9.68782C5.35894 8.9174 6.06186 8.40459 6.93561 8.14938C7.54207 7.9723 8.16404 7.9498 8.80154 8.08188C9.01654 8.12647 9.22165 8.18865 9.41686 8.26844C10.2931 8.62657 10.9551 9.22678 11.4028 10.0691C11.562 10.3687 11.6828 10.719 11.7653 11.12C11.7806 11.1947 11.7794 11.2728 11.7994 11.3478C11.8069 11.3753 11.8107 11.4035 11.8109 11.4325C11.8128 11.615 11.8422 11.7922 11.8315 11.9794C11.8245 12.106 11.8129 12.2288 11.7969 12.3475C11.7725 12.5292 11.7227 12.703 11.6475 12.8691C11.4944 13.207 11.2338 13.4232 10.8659 13.5178C10.7357 13.5512 10.5859 13.5675 10.4165 13.5669C10.2538 13.566 10.1119 13.5453 9.99061 13.5047C9.69915 13.4068 9.47696 13.2297 9.32404 12.9734C9.32339 12.9723 9.32246 12.9713 9.32134 12.9706C9.32023 12.9699 9.31895 12.9695 9.31761 12.9694C9.31627 12.9692 9.31492 12.9694 9.31364 12.9699C9.31237 12.9704 9.31123 12.9712 9.31029 12.9722C8.96884 13.3441 8.5555 13.5416 8.07029 13.5647C7.863 13.5745 7.66009 13.549 7.46154 13.4881C7.13717 13.3885 6.86477 13.2063 6.64436 12.9413ZM9.03498 11.8256C9.03498 11.5511 8.92594 11.2879 8.73184 11.0938C8.53774 10.8997 8.27448 10.7906 7.99998 10.7906C7.72548 10.7906 7.46223 10.8997 7.26813 11.0938C7.07403 11.2879 6.96498 11.5511 6.96498 11.8256C6.96498 12.1001 7.07403 12.3634 7.26813 12.5575C7.46223 12.7516 7.72548 12.8606 7.99998 12.8606C8.27448 12.8606 8.53774 12.7516 8.73184 12.5575C8.92594 12.3634 9.03498 12.1001 9.03498 11.8256Z" fill="#404C6E"/>
<path d="M8.98659 10.3641C8.91784 10.3293 8.8493 10.2955 8.78096 10.2628C8.35846 10.0597 7.88221 10.0319 7.44846 10.1775C6.64221 10.4487 6.14284 11.2703 6.28315 12.1075C6.33315 12.4062 6.45357 12.6842 6.6444 12.9412C6.59357 12.8904 6.55044 12.8375 6.51503 12.7825C5.90846 11.8422 6.27909 10.5994 7.32846 10.1719C7.87659 9.94843 8.49471 10.0291 8.98659 10.3641Z" fill="#404C6E"/>
</g>
<defs>
<clipPath id="clip0_26_2396">
<rect width="16" height="16" fill="white"/>
</clipPath>
</defs>
</svg>
