<svg width="40" height="37" viewBox="0 0 40 37" fill="none" xmlns="http://www.w3.org/2000/svg">
<path d="M37.5 36H6.5C6.22386 36 6 36.2239 6 36.5C6 36.7761 6.22386 37 6.5 37H37.5C37.7761 37 38 36.7761 38 36.5C38 36.2239 37.7761 36 37.5 36Z" fill="#404C6E"/>
<path d="M18.3619 33.472C16.7532 33.472 15.4992 33.0603 14.5999 32.237C13.7132 31.4263 13.2699 30.2927 13.2699 28.836C13.2699 28.0127 13.4409 27.2273 13.7829 26.48C14.1376 25.72 14.6442 25.0423 15.3029 24.447C15.5942 24.181 15.9046 23.934 16.2339 23.706C16.5632 23.4653 16.9242 23.25 17.3169 23.06C17.0256 22.946 16.7532 22.8447 16.4999 22.756C16.2466 22.6673 15.9996 22.5977 15.7589 22.547C15.5309 22.4963 15.2966 22.471 15.0559 22.471C14.6886 22.471 14.3656 22.528 14.0869 22.642C13.8082 22.7433 13.4472 22.9333 13.0039 23.212C12.8899 23.098 12.7886 22.9333 12.6999 22.718C12.6112 22.49 12.5669 22.2747 12.5669 22.072C12.5669 21.502 12.7949 21.0523 13.2509 20.723C13.7069 20.381 14.3212 20.21 15.0939 20.21C15.5119 20.21 15.9489 20.2607 16.4049 20.362C16.8609 20.4633 17.4372 20.6407 18.1339 20.894C18.8179 21.1473 19.4196 21.331 19.9389 21.445C20.4582 21.559 20.9586 21.616 21.4399 21.616L23.1689 21.578L22.3899 23.706C22.2252 23.7313 21.9972 23.7503 21.7059 23.763C21.4272 23.7757 21.1422 23.782 20.8509 23.782C20.5596 23.7693 20.3062 23.7567 20.0909 23.744C19.6729 23.8073 19.2169 23.9277 18.7229 24.105C18.2289 24.2823 17.7476 24.4977 17.2789 24.751C16.8102 24.9917 16.3859 25.264 16.0059 25.568C15.4486 26.0113 15.0116 26.4863 14.6949 26.993C14.3909 27.4997 14.2389 28.019 14.2389 28.551C14.2389 29.121 14.4162 29.6087 14.7709 30.014C15.1256 30.4193 15.6132 30.7297 16.2339 30.945C16.8672 31.173 17.5892 31.287 18.3999 31.287C19.0459 31.287 19.7489 31.2363 20.5089 31.135C21.2689 31.0463 22.0922 30.9007 22.9789 30.698L23.2449 31.496C22.5482 31.8887 21.8769 32.2307 21.2309 32.522C20.5849 32.826 20.0086 33.0603 19.5019 33.225C19.0079 33.3897 18.6279 33.472 18.3619 33.472ZM17.7349 19.127C17.0889 18.595 16.6012 18.139 16.2719 17.759C16.5632 17.4677 16.8229 17.2017 17.0509 16.961C17.2916 16.7077 17.5069 16.467 17.6969 16.239C17.8362 16.391 18.0199 16.581 18.2479 16.809C18.4759 17.037 18.7482 17.303 19.0649 17.607C18.9129 17.8223 18.7229 18.0567 18.4949 18.31C18.2796 18.5633 18.0262 18.8357 17.7349 19.127Z" fill="#404C6E"/>
<path d="M25.134 34.2C23.0173 34.2 21.3673 33.6583 20.184 32.575C19.0173 31.5083 18.434 30.0167 18.434 28.1C18.434 27.0167 18.659 25.9833 19.109 25C19.5756 24 20.2423 23.1083 21.109 22.325C21.4923 21.975 21.9006 21.65 22.334 21.35C22.7673 21.0333 23.2423 20.75 23.759 20.5C23.3756 20.35 23.0173 20.2167 22.684 20.1C22.3506 19.9833 22.0256 19.8917 21.709 19.825C21.409 19.7583 21.1006 19.725 20.784 19.725C20.3006 19.725 19.8756 19.8 19.509 19.95C19.1423 20.0833 18.6673 20.3333 18.084 20.7C17.934 20.55 17.8006 20.3333 17.684 20.05C17.5673 19.75 17.509 19.4667 17.509 19.2C17.509 18.45 17.809 17.8583 18.409 17.425C19.009 16.975 19.8173 16.75 20.834 16.75C21.384 16.75 21.959 16.8167 22.559 16.95C23.159 17.0833 23.9173 17.3167 24.834 17.65C25.734 17.9833 26.5256 18.225 27.209 18.375C27.8923 18.525 28.5506 18.6 29.184 18.6L31.459 18.55L30.434 21.35C30.2173 21.3833 29.9173 21.4083 29.534 21.425C29.1673 21.4417 28.7923 21.45 28.409 21.45C28.0256 21.4333 27.6923 21.4167 27.409 21.4C26.859 21.4833 26.259 21.6417 25.609 21.875C24.959 22.1083 24.3256 22.3917 23.709 22.725C23.0923 23.0417 22.534 23.4 22.034 23.8C21.3006 24.3833 20.7256 25.0083 20.309 25.675C19.909 26.3417 19.709 27.025 19.709 27.725C19.709 28.475 19.9423 29.1167 20.409 29.65C20.8756 30.1833 21.5173 30.5917 22.334 30.875C23.1673 31.175 24.1173 31.325 25.184 31.325C26.034 31.325 26.959 31.2583 27.959 31.125C28.959 31.0083 30.0423 30.8167 31.209 30.55L31.559 31.6C30.6423 32.1167 29.759 32.5667 28.909 32.95C28.059 33.35 27.3006 33.6583 26.634 33.875C25.984 34.0917 25.484 34.2 25.134 34.2ZM24.309 15.325C23.459 14.625 22.8173 14.025 22.384 13.525C22.7673 13.1417 23.109 12.7917 23.409 12.475C23.7256 12.1417 24.009 11.825 24.259 11.525C24.4423 11.725 24.684 11.975 24.984 12.275C25.284 12.575 25.6423 12.925 26.059 13.325C25.859 13.6083 25.609 13.9167 25.309 14.25C25.0256 14.5833 24.6923 14.9417 24.309 15.325Z" fill="#404C6E"/>
<mask id="mask0_57_328" style="mask-type:luminance" maskUnits="userSpaceOnUse" x="16" y="10" width="17" height="26">
<path d="M33 10H16V36H33V10Z" fill="white"/>
<path d="M25.134 34.2C23.0173 34.2 21.3673 33.6583 20.184 32.575C19.0173 31.5083 18.434 30.0167 18.434 28.1C18.434 27.0167 18.659 25.9833 19.109 25C19.5756 24 20.2423 23.1083 21.109 22.325C21.4923 21.975 21.9006 21.65 22.334 21.35C22.7673 21.0333 23.2423 20.75 23.759 20.5C23.3756 20.35 23.0173 20.2167 22.684 20.1C22.3506 19.9833 22.0256 19.8917 21.709 19.825C21.409 19.7583 21.1006 19.725 20.784 19.725C20.3006 19.725 19.8756 19.8 19.509 19.95C19.1423 20.0833 18.6673 20.3333 18.084 20.7C17.934 20.55 17.8006 20.3333 17.684 20.05C17.5673 19.75 17.509 19.4667 17.509 19.2C17.509 18.45 17.809 17.8583 18.409 17.425C19.009 16.975 19.8173 16.75 20.834 16.75C21.384 16.75 21.959 16.8167 22.559 16.95C23.159 17.0833 23.9173 17.3167 24.834 17.65C25.734 17.9833 26.5256 18.225 27.209 18.375C27.8923 18.525 28.5506 18.6 29.184 18.6L31.459 18.55L30.434 21.35C30.2173 21.3833 29.9173 21.4083 29.534 21.425C29.1673 21.4417 28.7923 21.45 28.409 21.45C28.0256 21.4333 27.6923 21.4167 27.409 21.4C26.859 21.4833 26.259 21.6417 25.609 21.875C24.959 22.1083 24.3256 22.3917 23.709 22.725C23.0923 23.0417 22.534 23.4 22.034 23.8C21.3006 24.3833 20.7256 25.0083 20.309 25.675C19.909 26.3417 19.709 27.025 19.709 27.725C19.709 28.475 19.9423 29.1167 20.409 29.65C20.8756 30.1833 21.5173 30.5917 22.334 30.875C23.1673 31.175 24.1173 31.325 25.184 31.325C26.034 31.325 26.959 31.2583 27.959 31.125C28.959 31.0083 30.0423 30.8167 31.209 30.55L31.559 31.6C30.6423 32.1167 29.759 32.5667 28.909 32.95C28.059 33.35 27.3006 33.6583 26.634 33.875C25.984 34.0917 25.484 34.2 25.134 34.2ZM24.309 15.325C23.459 14.625 22.8173 14.025 22.384 13.525C22.7673 13.1417 23.109 12.7917 23.409 12.475C23.7256 12.1417 24.009 11.825 24.259 11.525C24.4423 11.725 24.684 11.975 24.984 12.275C25.284 12.575 25.6423 12.925 26.059 13.325C25.859 13.6083 25.609 13.9167 25.309 14.25C25.0256 14.5833 24.6923 14.9417 24.309 15.325Z" fill="black"/>
</mask>
<g mask="url(#mask0_57_328)">
<path d="M19.109 25L18.2028 24.5771L18.1997 24.5839L19.109 25ZM21.109 22.325L21.7795 23.0669L21.7833 23.0635L21.109 22.325ZM22.334 21.35L22.9032 22.1722L22.9137 22.1649L22.924 22.1574L22.334 21.35ZM23.759 20.5L24.1945 21.4002L26.2553 20.403L24.1234 19.5688L23.759 20.5ZM21.709 19.825L21.492 20.8012L21.503 20.8036L21.709 19.825ZM19.509 19.95L19.8507 20.8898L19.8693 20.883L19.8876 20.8755L19.509 19.95ZM18.084 20.7L17.3769 21.4071L17.9409 21.9711L18.6162 21.5466L18.084 20.7ZM17.684 20.05L16.752 20.4124L16.7556 20.4216L16.7593 20.4307L17.684 20.05ZM18.409 17.425L18.9945 18.2357L19.0018 18.2304L19.009 18.225L18.409 17.425ZM24.834 17.65L25.1813 16.7122L25.1757 16.7102L24.834 17.65ZM29.184 18.6V19.6H29.195L29.206 19.5998L29.184 18.6ZM31.459 18.55L32.398 18.8938L32.9016 17.5181L31.437 17.5502L31.459 18.55ZM30.434 21.35L30.586 22.3384L31.17 22.2485L31.373 21.6938L30.434 21.35ZM29.534 21.425L29.4905 20.4259L29.4886 20.426L29.534 21.425ZM28.409 21.45L28.3655 22.4491L28.3873 22.45H28.409V21.45ZM27.409 21.4L27.4677 20.4017L27.3629 20.3956L27.2592 20.4113L27.409 21.4ZM23.709 22.725L24.1658 23.6146L24.1752 23.6097L24.1845 23.6047L23.709 22.725ZM22.034 23.8L22.6565 24.5826L22.6587 24.5809L22.034 23.8ZM20.309 25.675L19.461 25.145L19.4562 25.1527L19.4515 25.1605L20.309 25.675ZM22.334 30.875L22.6727 29.934L22.6618 29.9302L22.334 30.875ZM27.959 31.125L27.8431 30.1317L27.835 30.1327L27.8268 30.1338L27.959 31.125ZM31.209 30.55L32.1577 30.2338L31.8707 29.373L30.9862 29.5751L31.209 30.55ZM31.559 31.6L32.05 32.4712L32.7685 32.0662L32.5077 31.2838L31.559 31.6ZM28.909 32.95L28.4979 32.0384L28.4905 32.0417L28.4832 32.0452L28.909 32.95ZM26.634 33.875L26.3249 32.9239L26.3178 32.9263L26.634 33.875ZM24.309 15.325L23.6733 16.0969L24.3741 16.6741L25.0161 16.0321L24.309 15.325ZM22.384 13.525L21.6769 12.8179L21.0185 13.4763L21.6283 14.1799L22.384 13.525ZM23.409 12.475L22.684 11.7862L22.683 11.7873L23.409 12.475ZM24.259 11.525L24.9961 10.8493L24.2231 10.006L23.4908 10.8848L24.259 11.525ZM26.059 13.325L26.876 13.9017L27.3719 13.1991L26.7515 12.6036L26.059 13.325ZM25.309 14.25L24.5657 13.581L24.5562 13.5916L24.547 13.6024L25.309 14.25ZM25.134 33.2C23.1856 33.2 21.8057 32.7039 20.8592 31.8374L19.5087 33.3126C20.9289 34.6128 22.849 35.2 25.134 35.2V33.2ZM20.8592 31.8374C19.943 30.9997 19.434 29.8005 19.434 28.1H17.434C17.434 30.2329 18.0916 32.0169 19.5087 33.3126L20.8592 31.8374ZM19.434 28.1C19.434 27.16 19.6282 26.2686 20.0183 25.4161L18.1997 24.5839C17.6898 25.698 17.434 26.8733 17.434 28.1H19.434ZM20.0152 25.4229C20.4221 24.5509 21.006 23.766 21.7795 23.0669L20.4384 21.5831C19.4786 22.4507 18.7292 23.4491 18.2028 24.5771L20.0152 25.4229ZM21.7833 23.0635C22.133 22.7442 22.5062 22.4471 22.9032 22.1722L21.7648 20.5278C21.2951 20.8529 20.8517 21.2058 20.4347 21.5865L21.7833 23.0635ZM22.924 22.1574C23.3055 21.8786 23.7283 21.6257 24.1945 21.4002L23.3234 19.5998C22.7563 19.8743 22.2291 20.1881 21.744 20.5426L22.924 22.1574ZM24.1234 19.5688C23.7306 19.415 23.3608 19.2774 23.0143 19.1561L22.3536 21.0439C22.6739 21.1559 23.0207 21.285 23.3946 21.4312L24.1234 19.5688ZM23.0143 19.1561C22.644 19.0265 22.2774 18.9228 21.915 18.8465L21.503 20.8036C21.7739 20.8606 22.0573 20.9401 22.3536 21.0439L23.0143 19.1561ZM21.9259 18.8488C21.5526 18.7658 21.1714 18.725 20.784 18.725V20.725C21.0299 20.725 21.2653 20.7508 21.492 20.8012L21.9259 18.8488ZM20.784 18.725C20.1986 18.725 19.6405 18.8158 19.1303 19.0245L19.8876 20.8755C20.1108 20.7842 20.4027 20.725 20.784 20.725V18.725ZM19.1672 19.0102C18.7019 19.1794 18.157 19.473 17.5518 19.8534L18.6162 21.5466C19.1776 21.1937 19.5827 20.9873 19.8507 20.8898L19.1672 19.0102ZM18.7911 19.9929C18.7662 19.968 18.6956 19.8803 18.6087 19.6693L16.7593 20.4307C16.9057 20.7863 17.1018 21.132 17.3769 21.4071L18.7911 19.9929ZM18.616 19.6876C18.5352 19.4798 18.509 19.3199 18.509 19.2H16.509C16.509 19.6134 16.5994 20.0202 16.752 20.4124L18.616 19.6876ZM18.509 19.2C18.509 18.766 18.6589 18.478 18.9945 18.2357L17.8235 16.6143C16.9591 17.2386 16.509 18.134 16.509 19.2H18.509ZM19.009 18.225C19.3836 17.944 19.9577 17.75 20.834 17.75V15.75C19.6769 15.75 18.6343 16.006 17.809 16.625L19.009 18.225ZM20.834 17.75C21.3031 17.75 21.8051 17.8069 22.3421 17.9262L22.7759 15.9738C22.1129 15.8265 21.4649 15.75 20.834 15.75V17.75ZM22.3421 17.9262C22.8826 18.0463 23.5957 18.2638 24.4922 18.5898L25.1757 16.7102C24.239 16.3696 23.4354 16.1204 22.7759 15.9738L22.3421 17.9262ZM24.4867 18.5877C25.4153 18.9317 26.253 19.189 26.9946 19.3517L27.4234 17.3983C26.7983 17.261 26.0527 17.0349 25.1813 16.7122L24.4867 18.5877ZM26.9946 19.3517C27.7411 19.5156 28.4715 19.6 29.184 19.6V17.6C28.6298 17.6 28.0435 17.5344 27.4234 17.3983L26.9946 19.3517ZM29.206 19.5998L31.481 19.5498L31.437 17.5502L29.162 17.6002L29.206 19.5998ZM30.5199 18.2062L29.4949 21.0062L31.373 21.6938L32.398 18.8938L30.5199 18.2062ZM30.2819 20.3616C30.1182 20.3868 29.8601 20.4099 29.4905 20.4259L29.5774 22.4241C29.9745 22.4068 30.3164 22.3799 30.586 22.3384L30.2819 20.3616ZM29.4886 20.426C29.1377 20.442 28.7778 20.45 28.409 20.45V22.45C28.8068 22.45 29.1969 22.4414 29.5794 22.424L29.4886 20.426ZM28.4524 20.4509C28.0725 20.4344 27.7445 20.418 27.4677 20.4017L27.3503 22.3983C27.6401 22.4153 27.9788 22.4322 28.3655 22.4491L28.4524 20.4509ZM27.2592 20.4113C26.6319 20.5063 25.9682 20.6836 25.2711 20.9338L25.9468 22.8162C26.5498 22.5998 27.086 22.4603 27.5588 22.3887L27.2592 20.4113ZM25.2711 20.9338C24.573 21.1844 23.8937 21.4884 23.2335 21.8453L24.1845 23.6047C24.7576 23.2949 25.3449 23.0323 25.9468 22.8162L25.2711 20.9338ZM23.2522 21.8354C22.5809 22.1801 21.9656 22.5741 21.4093 23.0191L22.6587 24.5809C23.1024 24.2259 23.6037 23.9032 24.1658 23.6146L23.2522 21.8354ZM21.4115 23.0174C20.6058 23.6583 19.9482 24.3654 19.461 25.145L21.157 26.205C21.5031 25.6512 21.9955 25.1084 22.6565 24.5826L21.4115 23.0174ZM19.4515 25.1605C18.9688 25.9649 18.709 26.8242 18.709 27.725H20.709C20.709 27.2258 20.8491 26.7184 21.1665 26.1895L19.4515 25.1605ZM18.709 27.725C18.709 28.7018 19.0204 29.5816 19.6564 30.3085L21.1616 28.9915C20.8642 28.6517 20.709 28.2482 20.709 27.725H18.709ZM19.6564 30.3085C20.2601 30.9984 21.0614 31.4919 22.0062 31.8198L22.6618 29.9302C21.9733 29.6914 21.4912 29.3683 21.1616 28.9915L19.6564 30.3085ZM21.9953 31.8159C22.9569 32.1621 24.0248 32.325 25.184 32.325V30.325C24.2099 30.325 23.3777 30.1878 22.6727 29.934L21.9953 31.8159ZM25.184 32.325C26.0854 32.325 27.0552 32.2544 28.0911 32.1162L27.8268 30.1338C26.8628 30.2623 25.9825 30.325 25.184 30.325V32.325ZM28.0749 32.1183C29.1168 31.9967 30.2362 31.7981 31.4318 31.5249L30.9862 29.5751C29.8484 29.8352 28.8012 30.02 27.8431 30.1317L28.0749 32.1183ZM30.2603 30.8662L30.6103 31.9162L32.5077 31.2838L32.1577 30.2338L30.2603 30.8662ZM31.068 30.7288C30.1741 31.2327 29.3175 31.6688 28.4979 32.0384L29.3201 33.8616C30.2005 33.4645 31.1106 33.0007 32.05 32.4712L31.068 30.7288ZM28.4832 32.0452C27.6592 32.4329 26.941 32.7236 26.3249 32.9239L26.9431 34.826C27.6603 34.5929 28.4587 34.2671 29.3348 33.8548L28.4832 32.0452ZM26.3178 32.9263C25.6916 33.135 25.3171 33.2 25.134 33.2V35.2C25.6509 35.2 26.2764 35.0483 26.9502 34.8237L26.3178 32.9263ZM24.9447 14.5531C24.1135 13.8686 23.5203 13.3092 23.1397 12.8701L21.6283 14.1799C22.1144 14.7408 22.8044 15.3814 23.6733 16.0969L24.9447 14.5531ZM23.0911 14.2321C23.4793 13.8439 23.8275 13.4873 24.1349 13.1627L22.683 11.7873C22.3905 12.096 22.0553 12.4395 21.6769 12.8179L23.0911 14.2321ZM24.134 13.1637C24.463 12.8174 24.7612 12.4844 25.0272 12.1652L23.4908 10.8848C23.2568 11.1656 22.9883 11.466 22.684 11.7862L24.134 13.1637ZM23.5218 12.2007C23.7188 12.4156 23.9716 12.6769 24.2769 12.9821L25.6911 11.5679C25.3963 11.2731 25.1659 11.0344 24.9961 10.8493L23.5218 12.2007ZM24.2769 12.9821C24.583 13.2883 24.9465 13.6432 25.3665 14.0464L26.7515 12.6036C26.3381 12.2068 25.9849 11.8617 25.6911 11.5679L24.2769 12.9821ZM25.242 12.7483C25.0702 12.9917 24.8465 13.269 24.5657 13.581L26.0523 14.919C26.3714 14.5643 26.6478 14.2249 26.876 13.9017L25.242 12.7483ZM24.547 13.6024C24.2847 13.911 23.9704 14.2493 23.6019 14.6179L25.0161 16.0321C25.4142 15.634 25.7666 15.2557 26.0709 14.8976L24.547 13.6024Z" fill="#FFFBF8"/>
</g>
</svg>
