<svg width="32" height="27" viewBox="0 0 32 27" fill="none" xmlns="http://www.w3.org/2000/svg">
<path d="M31.5 26H0.5C0.22386 26 0 26.2239 0 26.5C0 26.7761 0.22386 27 0.5 27H31.5C31.7761 27 32 26.7761 32 26.5C32 26.2239 31.7761 26 31.5 26Z" fill="#404C6E"/>
<path d="M12.3619 23.472C10.7532 23.472 9.49919 23.0603 8.59989 22.237C7.71319 21.4263 7.26989 20.2927 7.26989 18.836C7.26989 18.0127 7.44089 17.2273 7.78289 16.48C8.13759 15.72 8.64419 15.0423 9.30289 14.447C9.59419 14.181 9.90459 13.934 10.2339 13.706C10.5632 13.4653 10.9242 13.25 11.3169 13.06C11.0256 12.946 10.7532 12.8447 10.4999 12.756C10.2466 12.6673 9.99959 12.5977 9.75889 12.547C9.53089 12.4963 9.29659 12.471 9.05589 12.471C8.68859 12.471 8.36559 12.528 8.08689 12.642C7.80819 12.7433 7.44719 12.9333 7.00389 13.212C6.88989 13.098 6.78859 12.9333 6.69989 12.718C6.61119 12.49 6.56689 12.2747 6.56689 12.072C6.56689 11.502 6.79489 11.0523 7.25089 10.723C7.70689 10.381 8.32119 10.21 9.09389 10.21C9.51189 10.21 9.94889 10.2607 10.4049 10.362C10.8609 10.4633 11.4372 10.6407 12.1339 10.894C12.8179 11.1473 13.4196 11.331 13.9389 11.445C14.4582 11.559 14.9586 11.616 15.4399 11.616L17.1689 11.578L16.3899 13.706C16.2252 13.7313 15.9972 13.7503 15.7059 13.763C15.4272 13.7757 15.1422 13.782 14.8509 13.782C14.5596 13.7693 14.3062 13.7567 14.0909 13.744C13.6729 13.8073 13.2169 13.9277 12.7229 14.105C12.2289 14.2823 11.7476 14.4977 11.2789 14.751C10.8102 14.9917 10.3859 15.264 10.0059 15.568C9.44859 16.0113 9.01159 16.4863 8.69489 16.993C8.39089 17.4997 8.23889 18.019 8.23889 18.551C8.23889 19.121 8.41619 19.6087 8.77089 20.014C9.12559 20.4193 9.61319 20.7297 10.2339 20.945C10.8672 21.173 11.5892 21.287 12.3999 21.287C13.0459 21.287 13.7489 21.2363 14.5089 21.135C15.2689 21.0463 16.0922 20.9007 16.9789 20.698L17.2449 21.496C16.5482 21.8887 15.8769 22.2307 15.2309 22.522C14.5849 22.826 14.0086 23.0603 13.5019 23.225C13.0079 23.3897 12.6279 23.472 12.3619 23.472ZM11.7349 9.12701C11.0889 8.59501 10.6012 8.13901 10.2719 7.75901C10.5632 7.46771 10.8229 7.20171 11.0509 6.96101C11.2916 6.70771 11.5069 6.46701 11.6969 6.23901C11.8362 6.39101 12.0199 6.58101 12.2479 6.80901C12.4759 7.03701 12.7482 7.30301 13.0649 7.60701C12.9129 7.82231 12.7229 8.05671 12.4949 8.31001C12.2796 8.56331 12.0262 8.83571 11.7349 9.12701Z" fill="#404C6E"/>
<path d="M19.134 24.2C17.0173 24.2 15.3673 23.6583 14.184 22.575C13.0173 21.5083 12.434 20.0167 12.434 18.1C12.434 17.0167 12.659 15.9833 13.109 15C13.5756 14 14.2423 13.1083 15.109 12.325C15.4923 11.975 15.9006 11.65 16.334 11.35C16.7673 11.0333 17.2423 10.75 17.759 10.5C17.3756 10.35 17.0173 10.2167 16.684 10.1C16.3506 9.98333 16.0256 9.89173 15.709 9.82503C15.409 9.75833 15.1006 9.72503 14.784 9.72503C14.3006 9.72503 13.8756 9.80003 13.509 9.95003C13.1423 10.0833 12.6673 10.3333 12.084 10.7C11.934 10.55 11.8006 10.3333 11.684 10.05C11.5673 9.75002 11.509 9.46673 11.509 9.20003C11.509 8.45003 11.809 7.85832 12.409 7.42502C13.009 6.97502 13.8173 6.75002 14.834 6.75002C15.384 6.75002 15.959 6.81673 16.559 6.95003C17.159 7.08333 17.9173 7.31672 18.834 7.65002C19.734 7.98332 20.5256 8.22502 21.209 8.37502C21.8923 8.52502 22.5506 8.60003 23.184 8.60003L25.459 8.55002L24.434 11.35C24.2173 11.3833 23.9173 11.4083 23.534 11.425C23.1673 11.4417 22.7923 11.45 22.409 11.45C22.0256 11.4333 21.6923 11.4167 21.409 11.4C20.859 11.4833 20.259 11.6417 19.609 11.875C18.959 12.1083 18.3256 12.3917 17.709 12.725C17.0923 13.0417 16.534 13.4 16.034 13.8C15.3006 14.3833 14.7256 15.0083 14.309 15.675C13.909 16.3417 13.709 17.025 13.709 17.725C13.709 18.475 13.9423 19.1167 14.409 19.65C14.8756 20.1833 15.5173 20.5917 16.334 20.875C17.1673 21.175 18.1173 21.325 19.184 21.325C20.034 21.325 20.959 21.2583 21.959 21.125C22.959 21.0083 24.0423 20.8167 25.209 20.55L25.559 21.6C24.6423 22.1167 23.759 22.5667 22.909 22.95C22.059 23.35 21.3006 23.6583 20.634 23.875C19.984 24.0917 19.484 24.2 19.134 24.2ZM18.309 5.32502C17.459 4.62502 16.8173 4.02502 16.384 3.52502C16.7673 3.14172 17.109 2.79173 17.409 2.47503C17.7256 2.14173 18.009 1.82502 18.259 1.52502C18.4423 1.72502 18.684 1.97502 18.984 2.27502C19.284 2.57502 19.6423 2.92502 20.059 3.32502C19.859 3.60832 19.609 3.91672 19.309 4.25002C19.0256 4.58332 18.6923 4.94172 18.309 5.32502Z" fill="#404C6E"/>
<mask id="mask0_162_1338" style="mask-type:luminance" maskUnits="userSpaceOnUse" x="10" y="0" width="17" height="26">
<path d="M27 0H10V26H27V0Z" fill="white"/>
<path d="M19.134 24.2C17.0173 24.2 15.3673 23.6583 14.184 22.575C13.0173 21.5083 12.434 20.0167 12.434 18.1C12.434 17.0167 12.659 15.9833 13.109 15C13.5756 14 14.2423 13.1083 15.109 12.325C15.4923 11.975 15.9006 11.65 16.334 11.35C16.7673 11.0333 17.2423 10.75 17.759 10.5C17.3756 10.35 17.0173 10.2167 16.684 10.1C16.3506 9.98333 16.0256 9.89173 15.709 9.82503C15.409 9.75833 15.1006 9.72503 14.784 9.72503C14.3006 9.72503 13.8756 9.80003 13.509 9.95003C13.1423 10.0833 12.6673 10.3333 12.084 10.7C11.934 10.55 11.8006 10.3333 11.684 10.05C11.5673 9.75002 11.509 9.46673 11.509 9.20003C11.509 8.45003 11.809 7.85832 12.409 7.42502C13.009 6.97502 13.8173 6.75002 14.834 6.75002C15.384 6.75002 15.959 6.81673 16.559 6.95003C17.159 7.08333 17.9173 7.31672 18.834 7.65002C19.734 7.98332 20.5256 8.22502 21.209 8.37502C21.8923 8.52502 22.5506 8.60003 23.184 8.60003L25.459 8.55002L24.434 11.35C24.2173 11.3833 23.9173 11.4083 23.534 11.425C23.1673 11.4417 22.7923 11.45 22.409 11.45C22.0256 11.4333 21.6923 11.4167 21.409 11.4C20.859 11.4833 20.259 11.6417 19.609 11.875C18.959 12.1083 18.3256 12.3917 17.709 12.725C17.0923 13.0417 16.534 13.4 16.034 13.8C15.3006 14.3833 14.7256 15.0083 14.309 15.675C13.909 16.3417 13.709 17.025 13.709 17.725C13.709 18.475 13.9423 19.1167 14.409 19.65C14.8756 20.1833 15.5173 20.5917 16.334 20.875C17.1673 21.175 18.1173 21.325 19.184 21.325C20.034 21.325 20.959 21.2583 21.959 21.125C22.959 21.0083 24.0423 20.8167 25.209 20.55L25.559 21.6C24.6423 22.1167 23.759 22.5667 22.909 22.95C22.059 23.35 21.3006 23.6583 20.634 23.875C19.984 24.0917 19.484 24.2 19.134 24.2ZM18.309 5.32502C17.459 4.62502 16.8173 4.02502 16.384 3.52502C16.7673 3.14172 17.109 2.79173 17.409 2.47503C17.7256 2.14173 18.009 1.82502 18.259 1.52502C18.4423 1.72502 18.684 1.97502 18.984 2.27502C19.284 2.57502 19.6423 2.92502 20.059 3.32502C19.859 3.60832 19.609 3.91672 19.309 4.25002C19.0256 4.58332 18.6923 4.94172 18.309 5.32502Z" fill="black"/>
</mask>
<g mask="url(#mask0_162_1338)">
<path d="M13.109 15L12.2028 14.5771L12.1997 14.5839L13.109 15ZM15.109 12.325L15.7795 13.0669L15.7833 13.0635L15.109 12.325ZM16.334 11.35L16.9032 12.1722L16.9137 12.1649L16.924 12.1574L16.334 11.35ZM17.759 10.5L18.1945 11.4002L20.2553 10.403L18.1234 9.56878L17.759 10.5ZM15.709 9.82498L15.492 10.8012L15.503 10.8036L15.709 9.82498ZM13.509 9.94998L13.8507 10.8898L13.8693 10.883L13.8876 10.8755L13.509 9.94998ZM12.084 10.7L11.3769 11.4071L11.9409 11.9711L12.6162 11.5466L12.084 10.7ZM11.684 10.05L10.752 10.4124L10.7556 10.4216L10.7593 10.4307L11.684 10.05ZM12.409 7.42498L12.9945 8.23568L13.0018 8.23038L13.009 8.22498L12.409 7.42498ZM18.834 7.64998L19.1813 6.71218L19.1757 6.71018L18.834 7.64998ZM23.184 8.59998V9.59998H23.195L23.206 9.59978L23.184 8.59998ZM25.459 8.54998L26.398 8.89378L26.9016 7.51808L25.437 7.55018L25.459 8.54998ZM24.434 11.35L24.586 12.3384L25.17 12.2485L25.373 11.6938L24.434 11.35ZM23.534 11.425L23.4905 10.4259L23.4886 10.426L23.534 11.425ZM22.409 11.45L22.3655 12.4491L22.3873 12.45H22.409V11.45ZM21.409 11.4L21.4677 10.4017L21.3629 10.3956L21.2592 10.4113L21.409 11.4ZM17.709 12.725L18.1658 13.6146L18.1752 13.6097L18.1845 13.6047L17.709 12.725ZM16.034 13.8L16.6565 14.5826L16.6587 14.5809L16.034 13.8ZM14.309 15.675L13.461 15.145L13.4562 15.1527L13.4515 15.1605L14.309 15.675ZM16.334 20.875L16.6727 19.934L16.6618 19.9302L16.334 20.875ZM21.959 21.125L21.8431 20.1317L21.835 20.1327L21.8268 20.1338L21.959 21.125ZM25.209 20.55L26.1577 20.2338L25.8707 19.373L24.9862 19.5751L25.209 20.55ZM25.559 21.6L26.05 22.4712L26.7685 22.0662L26.5077 21.2838L25.559 21.6ZM22.909 22.95L22.4979 22.0384L22.4905 22.0417L22.4832 22.0452L22.909 22.95ZM20.634 23.875L20.3249 22.9239L20.3178 22.9263L20.634 23.875ZM18.309 5.32498L17.6733 6.09688L18.3741 6.67408L19.0161 6.03208L18.309 5.32498ZM16.384 3.52498L15.6769 2.81788L15.0185 3.47628L15.6283 4.17988L16.384 3.52498ZM17.409 2.47498L16.684 1.78618L16.683 1.78728L17.409 2.47498ZM18.259 1.52498L18.9961 0.849282L18.2231 0.00598145L17.4908 0.884782L18.259 1.52498ZM20.059 3.32498L20.876 3.90168L21.3719 3.19908L20.7515 2.60358L20.059 3.32498ZM19.309 4.24998L18.5657 3.58098L18.5562 3.59158L18.547 3.60238L19.309 4.24998ZM19.134 23.2C17.1856 23.2 15.8057 22.7039 14.8592 21.8374L13.5087 23.3126C14.9289 24.6128 16.849 25.2 19.134 25.2V23.2ZM14.8592 21.8374C13.943 20.9997 13.434 19.8005 13.434 18.1H11.434C11.434 20.2329 12.0916 22.0169 13.5087 23.3126L14.8592 21.8374ZM13.434 18.1C13.434 17.16 13.6282 16.2686 14.0183 15.4161L12.1997 14.5839C11.6898 15.698 11.434 16.8733 11.434 18.1H13.434ZM14.0152 15.4229C14.4221 14.5509 15.006 13.766 15.7795 13.0669L14.4384 11.5831C13.4786 12.4507 12.7292 13.4491 12.2028 14.5771L14.0152 15.4229ZM15.7833 13.0635C16.133 12.7442 16.5062 12.4471 16.9032 12.1722L15.7648 10.5278C15.2951 10.8529 14.8517 11.2058 14.4347 11.5865L15.7833 13.0635ZM16.924 12.1574C17.3055 11.8786 17.7283 11.6257 18.1945 11.4002L17.3234 9.59978C16.7563 9.87428 16.2291 10.1881 15.744 10.5426L16.924 12.1574ZM18.1234 9.56878C17.7306 9.41498 17.3608 9.27738 17.0143 9.15608L16.3536 11.0439C16.6739 11.1559 17.0207 11.285 17.3946 11.4312L18.1234 9.56878ZM17.0143 9.15608C16.644 9.02648 16.2774 8.92278 15.915 8.84648L15.503 10.8036C15.7739 10.8606 16.0573 10.9401 16.3536 11.0439L17.0143 9.15608ZM15.9259 8.84878C15.5526 8.76578 15.1714 8.72498 14.784 8.72498V10.725C15.0299 10.725 15.2653 10.7508 15.492 10.8012L15.9259 8.84878ZM14.784 8.72498C14.1986 8.72498 13.6405 8.81578 13.1303 9.02448L13.8876 10.8755C14.1108 10.7842 14.4027 10.725 14.784 10.725V8.72498ZM13.1672 9.01018C12.7019 9.17938 12.157 9.47298 11.5518 9.85338L12.6162 11.5466C13.1776 11.1937 13.5827 10.9873 13.8507 10.8898L13.1672 9.01018ZM12.7911 9.99288C12.7662 9.96798 12.6956 9.88028 12.6087 9.66928L10.7593 10.4307C10.9057 10.7863 11.1018 11.132 11.3769 11.4071L12.7911 9.99288ZM12.616 9.68758C12.5352 9.47978 12.509 9.31988 12.509 9.19998H10.509C10.509 9.61338 10.5994 10.0202 10.752 10.4124L12.616 9.68758ZM12.509 9.19998C12.509 8.76598 12.6589 8.47798 12.9945 8.23568L11.8235 6.61428C10.9591 7.23858 10.509 8.13398 10.509 9.19998H12.509ZM13.009 8.22498C13.3836 7.94398 13.9577 7.74998 14.834 7.74998V5.74998C13.6769 5.74998 12.6343 6.00598 11.809 6.62498L13.009 8.22498ZM14.834 7.74998C15.3031 7.74998 15.8051 7.80688 16.3421 7.92618L16.7759 5.97378C16.1129 5.82648 15.4649 5.74998 14.834 5.74998V7.74998ZM16.3421 7.92618C16.8826 8.04628 17.5957 8.26378 18.4922 8.58978L19.1757 6.71018C18.239 6.36958 17.4354 6.12038 16.7759 5.97378L16.3421 7.92618ZM18.4867 8.58768C19.4153 8.93168 20.253 9.18898 20.9946 9.35168L21.4234 7.39828C20.7983 7.26098 20.0527 7.03488 19.1813 6.71218L18.4867 8.58768ZM20.9946 9.35168C21.7411 9.51558 22.4715 9.59998 23.184 9.59998V7.59998C22.6298 7.59998 22.0435 7.53438 21.4234 7.39828L20.9946 9.35168ZM23.206 9.59978L25.481 9.54978L25.437 7.55018L23.162 7.60018L23.206 9.59978ZM24.5199 8.20618L23.4949 11.0062L25.373 11.6938L26.398 8.89378L24.5199 8.20618ZM24.2819 10.3616C24.1182 10.3868 23.8601 10.4099 23.4905 10.4259L23.5774 12.4241C23.9745 12.4068 24.3164 12.3799 24.586 12.3384L24.2819 10.3616ZM23.4886 10.426C23.1377 10.442 22.7778 10.45 22.409 10.45V12.45C22.8068 12.45 23.1969 12.4414 23.5794 12.424L23.4886 10.426ZM22.4524 10.4509C22.0725 10.4344 21.7445 10.418 21.4677 10.4017L21.3503 12.3983C21.6401 12.4153 21.9788 12.4322 22.3655 12.4491L22.4524 10.4509ZM21.2592 10.4113C20.6319 10.5063 19.9682 10.6836 19.2711 10.9338L19.9468 12.8162C20.5498 12.5998 21.086 12.4603 21.5588 12.3887L21.2592 10.4113ZM19.2711 10.9338C18.573 11.1844 17.8937 11.4884 17.2335 11.8453L18.1845 13.6047C18.7576 13.2949 19.3449 13.0323 19.9468 12.8162L19.2711 10.9338ZM17.2522 11.8354C16.5809 12.1801 15.9656 12.5741 15.4093 13.0191L16.6587 14.5809C17.1024 14.2259 17.6037 13.9032 18.1658 13.6146L17.2522 11.8354ZM15.4115 13.0174C14.6058 13.6583 13.9482 14.3654 13.461 15.145L15.157 16.205C15.5031 15.6512 15.9955 15.1084 16.6565 14.5826L15.4115 13.0174ZM13.4515 15.1605C12.9688 15.9649 12.709 16.8242 12.709 17.725H14.709C14.709 17.2258 14.8491 16.7184 15.1665 16.1895L13.4515 15.1605ZM12.709 17.725C12.709 18.7018 13.0204 19.5816 13.6564 20.3085L15.1616 18.9915C14.8642 18.6517 14.709 18.2482 14.709 17.725H12.709ZM13.6564 20.3085C14.2601 20.9984 15.0614 21.4919 16.0062 21.8198L16.6618 19.9302C15.9733 19.6914 15.4912 19.3683 15.1616 18.9915L13.6564 20.3085ZM15.9953 21.8159C16.9569 22.1621 18.0248 22.325 19.184 22.325V20.325C18.2099 20.325 17.3777 20.1878 16.6727 19.934L15.9953 21.8159ZM19.184 22.325C20.0854 22.325 21.0552 22.2544 22.0911 22.1162L21.8268 20.1338C20.8628 20.2623 19.9825 20.325 19.184 20.325V22.325ZM22.0749 22.1183C23.1168 21.9967 24.2362 21.7981 25.4318 21.5249L24.9862 19.5751C23.8484 19.8352 22.8012 20.02 21.8431 20.1317L22.0749 22.1183ZM24.2603 20.8662L24.6103 21.9162L26.5077 21.2838L26.1577 20.2338L24.2603 20.8662ZM25.068 20.7288C24.1741 21.2327 23.3175 21.6688 22.4979 22.0384L23.3201 23.8616C24.2005 23.4645 25.1106 23.0007 26.05 22.4712L25.068 20.7288ZM22.4832 22.0452C21.6592 22.4329 20.941 22.7236 20.3249 22.9239L20.9431 24.826C21.6603 24.5929 22.4587 24.2671 23.3348 23.8548L22.4832 22.0452ZM20.3178 22.9263C19.6916 23.135 19.3171 23.2 19.134 23.2V25.2C19.6509 25.2 20.2764 25.0483 20.9502 24.8237L20.3178 22.9263ZM18.9447 4.55308C18.1135 3.86858 17.5203 3.30918 17.1397 2.87008L15.6283 4.17988C16.1144 4.74078 16.8044 5.38138 17.6733 6.09688L18.9447 4.55308ZM17.0911 4.23208C17.4793 3.84388 17.8275 3.48728 18.1349 3.16268L16.683 1.78728C16.3905 2.09598 16.0553 2.43948 15.6769 2.81788L17.0911 4.23208ZM18.134 3.16368C18.463 2.81738 18.7612 2.48438 19.0272 2.16518L17.4908 0.884782C17.2568 1.16558 16.9883 1.46598 16.684 1.78618L18.134 3.16368ZM17.5218 2.20068C17.7188 2.41558 17.9716 2.67688 18.2769 2.98208L19.6911 1.56788C19.3963 1.27308 19.1659 1.03438 18.9961 0.849282L17.5218 2.20068ZM18.2769 2.98208C18.583 3.28828 18.9465 3.64318 19.3665 4.04638L20.7515 2.60358C20.3381 2.20678 19.9849 1.86168 19.6911 1.56788L18.2769 2.98208ZM19.242 2.74828C19.0702 2.99168 18.8465 3.26898 18.5657 3.58098L20.0523 4.91898C20.3714 4.56428 20.6478 4.22488 20.876 3.90168L19.242 2.74828ZM18.547 3.60238C18.2847 3.91098 17.9704 4.24928 17.6019 4.61788L19.0161 6.03208C19.4142 5.63398 19.7666 5.25568 20.0709 4.89758L18.547 3.60238Z" fill="#FFFBF8"/>
</g>
</svg>
