<svg width="32" height="27" viewBox="0 0 32 27" fill="none" xmlns="http://www.w3.org/2000/svg">
<g clip-path="url(#clip0_222_30)">
<path d="M31.5 26H0.5C0.22386 26 0 26.2239 0 26.5C0 26.7761 0.22386 27 0.5 27H31.5C31.7761 27 32 26.7761 32 26.5C32 26.2239 31.7761 26 31.5 26Z" fill="#404C6E"/>
<path d="M10.795 23.472C9.18631 23.472 7.9323 23.0603 7.033 22.237C6.1463 21.4263 5.703 20.2927 5.703 18.836C5.703 18.0127 5.874 17.2273 6.216 16.48C6.5707 15.72 7.0773 15.0423 7.736 14.447C8.0273 14.181 8.3377 13.934 8.66701 13.706C8.99631 13.4653 9.35731 13.25 9.75001 13.06C9.45871 12.946 9.18631 12.8447 8.93301 12.756C8.67971 12.6673 8.4327 12.5977 8.192 12.547C7.964 12.4963 7.7297 12.471 7.489 12.471C7.1217 12.471 6.7987 12.528 6.52 12.642C6.2413 12.7433 5.8803 12.9333 5.437 13.212C5.323 13.098 5.2217 12.9333 5.133 12.718C5.0443 12.49 5 12.2747 5 12.072C5 11.502 5.228 11.0523 5.684 10.723C6.14 10.381 6.7543 10.21 7.527 10.21C7.945 10.21 8.382 10.2607 8.83801 10.362C9.29401 10.4633 9.87031 10.6407 10.567 10.894C11.251 11.1473 11.8527 11.331 12.372 11.445C12.8913 11.559 13.3917 11.616 13.873 11.616L15.602 11.578L14.823 13.706C14.6583 13.7313 14.4303 13.7503 14.139 13.763C13.8603 13.7757 13.5753 13.782 13.284 13.782C12.9927 13.7693 12.7393 13.7567 12.524 13.744C12.106 13.8073 11.65 13.9277 11.156 14.105C10.662 14.2823 10.1807 14.4977 9.71201 14.751C9.24331 14.9917 8.81901 15.264 8.43901 15.568C7.8817 16.0113 7.4447 16.4863 7.128 16.993C6.824 17.4997 6.672 18.019 6.672 18.551C6.672 19.121 6.8493 19.6087 7.204 20.014C7.5587 20.4193 8.0463 20.7297 8.66701 20.945C9.30031 21.173 10.0223 21.287 10.833 21.287C11.479 21.287 12.182 21.2363 12.942 21.135C13.702 21.0463 14.5253 20.9007 15.412 20.698L15.678 21.496C14.9813 21.8887 14.31 22.2307 13.664 22.522C13.018 22.826 12.4417 23.0603 11.935 23.225C11.441 23.3897 11.061 23.472 10.795 23.472ZM10.168 9.12701C9.52201 8.59501 9.03431 8.13901 8.70501 7.75901C8.99631 7.46771 9.25601 7.20171 9.48401 6.96101C9.72471 6.70771 9.94001 6.46701 10.13 6.23901C10.2693 6.39101 10.453 6.58101 10.681 6.80901C10.909 7.03701 11.1813 7.30301 11.498 7.60701C11.346 7.82231 11.156 8.05671 10.928 8.31001C10.7127 8.56331 10.4593 8.83571 10.168 9.12701Z" fill="#404C6E"/>
<path d="M20.0574 10.5886C19.8777 10.7016 19.7036 10.8196 19.5352 10.9425C19.0859 11.2538 18.6621 11.5913 18.2638 11.9549C17.351 12.7801 16.6432 13.7249 16.1469 14.7886L16.1469 14.7886L16.1453 14.7919C15.6654 15.8407 15.425 16.945 15.425 18.1C15.425 20.1248 16.0457 21.7628 17.3376 22.944C18.6393 24.1356 20.4243 24.7 22.625 24.7C23.0581 24.7 23.6202 24.5703 24.2814 24.3499C24.9718 24.1254 25.7484 23.8091 26.6092 23.4041C27.4733 23.0143 28.3687 22.558 29.2955 22.0356L29.6547 21.8331L29.5243 21.4419L29.1743 20.3919L29.0309 19.9615L28.5886 20.0626C27.4364 20.326 26.3711 20.5141 25.392 20.6284L25.392 20.6283L25.3839 20.6294C24.4019 20.7603 23.4993 20.825 22.675 20.825C21.6546 20.825 20.7635 20.6815 19.9944 20.4046L19.9944 20.4045L19.9889 20.4026C19.2363 20.1416 18.6744 19.7758 18.2763 19.3208L18.2763 19.3207C17.8943 18.8842 17.7 18.3616 17.7 17.725C17.7 17.1267 17.8693 16.5326 18.2264 15.9361C18.6076 15.3273 19.1405 14.7447 19.8362 14.1913L19.8373 14.1904C20.3092 13.813 20.839 13.4725 21.4284 13.1698L21.4285 13.1699L21.4378 13.1649C22.0326 12.8433 22.643 12.5703 23.2689 12.3456C23.8748 12.1281 24.426 11.9817 24.9241 11.9023C25.1988 11.9181 25.5169 11.9338 25.8782 11.9495L25.8891 11.95H25.9C26.2903 11.95 26.6727 11.9416 27.0472 11.9245C27.0471 11.9245 27.0469 11.9245 27.0468 11.9245L20.0574 10.5886ZM20.0574 10.5886C20.0415 10.583 20.0256 10.5775 20.0099 10.5719L20.0574 10.5886ZM26.6696 8.10003C26.0774 8.0996 25.4569 8.02928 24.8072 7.88665L24.8072 7.88665C24.1529 7.74304 23.3844 7.50915 22.4986 7.18114L22.4986 7.18113L22.4959 7.18012C21.5691 6.84318 20.7882 6.60184 20.1584 6.46193C19.527 6.32164 18.9155 6.25002 18.325 6.25002C17.2399 6.25002 16.3158 6.48971 15.6036 7.02233C14.8738 7.55095 14.5 8.29356 14.5 9.20003C14.5 9.54008 14.5743 9.8851 14.709 10.2313L14.7089 10.2313L14.7126 10.2403C14.8441 10.5598 15.0089 10.841 15.2214 11.0536L15.5035 11.3356L15.8411 11.1233C16.4135 10.7635 16.8535 10.5353 17.1708 10.42L17.1801 10.4166L17.1893 10.4128C17.4842 10.2922 17.8426 10.225 18.275 10.225C18.5563 10.225 18.8282 10.2546 19.0915 10.3131L19.0915 10.3131L19.0969 10.3143C19.3907 10.3762 19.6949 10.4617 20.0098 10.5719L26.6696 8.10003ZM21.4821 5.71099L21.8326 5.99956L22.1536 5.67857C22.5423 5.28987 22.8835 4.92331 23.1763 4.57929C23.4839 4.23725 23.7455 3.91506 23.9585 3.61338L24.2065 3.2621L23.8963 2.96431C23.4812 2.56591 23.1255 2.21839 22.8286 1.92147C22.5311 1.62406 22.2951 1.37973 22.1186 1.18719L21.7321 0.765473L21.3659 1.20493C21.1239 1.49529 20.8479 1.80387 20.5375 2.13068L20.537 2.13118C20.2408 2.44391 19.9023 2.79061 19.5214 3.17147L19.1923 3.50065L19.4971 3.85247C19.9568 4.38291 20.6227 5.00323 21.4821 5.71099Z" fill="#404C6E" stroke="white"/>
</g>
<defs>
<clipPath id="clip0_222_30">
<rect width="32" height="27" fill="white"/>
</clipPath>
</defs>
</svg>
