<svg height="244" viewBox="0 0 857 244" width="857" xmlns="http://www.w3.org/2000/svg"><g fill="#91a57d"><path d="m809 35c11 0 20 9 20 20v120h-20z"/><path d="m769 35h20v140h-20z"/><path d="m789 155v20h-60v-20z"/><path d="m749 175h-20v-60c11 0 20 9 20 20z"/><path d="m749 155v20h-80v-20z"/><path d="m749 75v20h-40v-20z"/><path d="m689 175h-20v-140c11 0 20 9 20 20z"/><path d="m629 75c11 0 20 9 20 20v80h-20z"/><path d="m649 155v20h-60v-20z"/><path d="m609 135h-20v-60c11 0 20 9 20 20z"/><path d="m609 115v20h-60v-20z"/><path d="m569 155v20h-40v-20z"/><path d="m569 115v20h-120v-20z"/><path d="m529 75c11 0 20 9 20 20h-100v-20z"/><path d="m509 155v20h-60v-20z"/><path d="m549 135h-20v-60c11 0 20 9 20 20z"/><path d="m469 175h-20v-60h20z"/><path d="m529 55h-20v-20h20z"/><path d="m409 35c11 0 20 9 20 20v80h-20z"/><path d="m369 35h20v100h-20z"/><path d="m349 135v-20h40v20z"/><path d="m329 75c11 0 20 9 20 20v80h-20z"/><path d="m269 135v-20h100v20z"/><path d="m289 95v-20h40c11 0 20 9 20 20z"/><path d="m289 175v-20h60v20z"/><path d="m289 75h20v100h-20z"/><path d="m149 135v-20h140v20z"/><path d="m229 75h20v60h-20z"/><path d="m189 95v-20h60v20z"/><path d="m189 175v-20h20v20z"/><path d="m149 75c11 0 20 9 20 20v80h-20z"/><path d="m169 155v20h-60v-20z"/><path d="m129 135h-20v-60h20z"/><path d="m129 75v20h-60v-20z"/><path d="m89 175h-20v-100h20z"/><path d="m89 155v20h-60v-20z"/><path d="m89 195v20h-40v-20z"/><path d="m49 175h-20v-60h20z"/></g><path d="m29 55v-20h320v20z" fill="#39412a"/><path d="m549 55v-20h100v20z" fill="#39412a"/><path d="m709 55v-20h40v20z" fill="#39412a"/><path d="m109 215v-20h720v20z" fill="#39412a"/><path d="m449 55v-20h40v20z" fill="#39412a"/><path d="m229 175v-20h40v20z" fill="#39412a"/><path d="m49 95h-20v-60h20z" fill="#39412a"/></svg>