<svg width="35" height="35" viewBox="0 0 35 35" fill="none" xmlns="http://www.w3.org/2000/svg">
<path d="M17.4713 4.85419C13.0207 9.30165 8.63498 13.6908 4.31422 18.0216C4.04351 18.2927 3.84231 18.455 3.7106 18.5083C2.81304 18.8706 1.90455 18.0154 2.2648 17.0912C2.31767 16.9563 2.39582 16.8371 2.49927 16.7337C7.25618 11.9781 12.0015 7.23287 16.7351 2.49784C17.1555 2.07811 17.8446 2.08153 18.2616 2.49784C22.9323 7.16223 27.6731 11.903 32.4837 16.72C32.8563 17.0933 32.926 17.6388 32.6444 18.0817C32.2636 18.6799 31.4467 18.7749 30.9463 18.2745C26.3485 13.6766 21.8782 9.20321 17.5356 4.85419C17.5142 4.83277 17.4928 4.83277 17.4713 4.85419Z" fill="white"/>
<path d="M24.8411 30.5389C26.0565 30.2292 27.0307 29.2831 27.285 28.0253C27.3273 27.8147 27.3481 27.5666 27.3472 27.2809C27.3417 25.0309 27.341 22.8769 27.3451 20.8189C27.3465 20.1517 27.8674 19.6335 28.5414 19.695C28.9762 19.7347 29.3603 20.0525 29.4834 20.4682C29.5148 20.5753 29.5306 20.7626 29.5306 21.0301C29.5319 23.0093 29.5319 24.9885 29.5306 26.9678C29.5301 27.5657 29.5019 28.0196 29.4458 28.3295C29.0356 30.6018 27.2262 32.3695 24.9395 32.7394C24.616 32.7918 24.2179 32.8175 23.7453 32.8166C19.8784 32.8102 15.6659 32.8098 11.1077 32.8152C10.683 32.8157 10.3093 32.787 9.98661 32.7291C7.70956 32.321 5.93837 30.5607 5.54326 28.2618C5.48674 27.9341 5.45986 27.4969 5.46259 26.95C5.47216 24.8942 5.47307 22.8633 5.46533 20.8571C5.46396 20.4392 5.6205 20.1168 5.93495 19.8898C6.53173 19.4599 7.39101 19.7552 7.60634 20.4606C7.6387 20.5673 7.65488 20.6603 7.65488 20.7396C7.65852 22.737 7.6567 24.8746 7.64941 27.1523C7.64804 27.5648 7.67949 27.8956 7.74374 28.1449C8.05546 29.3576 9.00087 30.2812 10.2108 30.5498C10.4752 30.6086 10.8906 30.6369 11.457 30.6346C15.498 30.6159 19.5556 30.6159 23.6298 30.6346C24.1785 30.6369 24.5823 30.6049 24.8411 30.5389Z" fill="white"/>
</svg>
