<svg height="512" viewBox="0 0 512 512" width="512" xmlns="http://www.w3.org/2000/svg"><path d="m433.6 78.4v130l-18.6-18.6v-92.8h-92.8l-18.6-18.6zm-224 0-18.7 18.6h-92.8v92.8l-18.8 18.8v-130.2zm-130.2 223.8 18.8 18.8v92.8h92.8l18.8 18.8h-130.4zm242.8 111.6h92.8v-92.8l18.6-18.6v130.3h-130.2z" fill="#91a57d"/><path d="m507 255.5-92 92v-26.3l65.6-65.7-65.6-65.6v-26.4zm-158.5-158.5h-26.4l-65.5-65.5-65.5 65.5h-26.6l92-92zm-250.3 66.3v26.6l-65.6 65.6 65.6 65.6v26.6l-92.2-92.2zm92.7 250.5 65.7 65.7 65.7-65.7h26.4l-92.2 92.2-92.2-92.2z" fill="#91a57d"/><path d="m455.2 255.4-40.2 40.2v-80.4zm-158.4-158.4h-80.4l40.2-40.2zm-198.6 118.2v80.4l-40.2-40.2zm198.6 198.6-40.2 40.2-40.2-40.2z" fill="#cdba72"/></svg>