<svg height="512" viewBox="0 0 512 512" width="512" xmlns="http://www.w3.org/2000/svg"><path d="m103 119h306.9v274h-306.9z" fill="#f4f2e1"/><path d="m428.1 84c10 0 18.1 8.1 18.1 18.1v325.9h-18.1z" fill="#f4f2e1"/><path d="m102.2 84h325.7c10 0 18.1 8.1 18.1 18.1h-343.8z" fill="#f4f2e1"/><g fill="#f7aa55"><path d="m66 84h18.1v344c-10 0-18.1-8.1-18.1-18.1z"/><path d="m67 409.9h343v18.1h-324.9c-10 0-18.1-8.1-18.1-18.1z"/><path d="m265.1 327h-18.1v-113h18.1z"/><path d="m265.1 208h-18.1v-24c10 0 18.1 8.1 18.1 18.1z"/></g></svg>