<svg height="289" viewBox="0 0 252 289" width="252" xmlns="http://www.w3.org/2000/svg"><path d="m92.9 209.9s-6.3-5-20.7-5.9c-11.2-.8-20.7 8.3-19.8 19.3 1 13.2 13.6 20.8 20.6 24.5 13.7 7.3-.6 33.1-20.5 12.4-9.2-9.7-12.8-23.4-13-34.5-.2-10.9 13.6-35.9 46.8-27.1 0 0 2.4-20.1 40.3-42.9 38.1 22.8 40.4 42.9 40.4 42.9 33.3-8.8 47.1 16.2 46.8 27.1-.2 11.1-3.7 24.8-13 34.5-19.7 20.7-34.2-5.1-20.4-12.4 6.9-3.7 19.5-11.3 20.5-24.5.8-11-8.7-20.1-19.7-19.3-14.5.9-20.8 5.9-20.8 5.9 3.1-24.7-33.8-44.2-33.8-44.2s-36.7 19.5-33.7 44.2z" fill="#d7b77d"/><path d="m127 104.4c-33.2 24.5-19.6 44.8-19.6 44.8-39.4.1-59 43.8-8.8 86.1 38.2 32.2 27.1 45.7 27.1 45.7v1.3s-3-19.1-28.4-34.6c-25.4-15.3-42.2-24.5-40.5-46.6 0 0-11.8 35.8-53.8 8.9 0 0 33-12.2 37.5-41.4 4.7-29.4 46.5-41.5 46.5-41.5s-23.5-18.5 14-35c0 0 1.4-12.4 15.7-20.6 14.4-8.2-1.1-16.3-4.8-16.2s6.5-12.7 16-1.4c7.1-11.2 18.9 1.1 15.2 1-3.7.1-19.4 8.3-5.2 16.3 14.3 8 15.5 20.4 15.5 20.4 37.2 15.9 13.4 34.8 13.4 34.8s41.6 11.5 45.8 40.7c4 29.2 37 40.8 37 40.8-42.6 27.7-53.8-8-53.8-8 1.4 22.1-15.5 31.6-41.2 47.3-25.6 15.7-28.9 35.1-28.9 35.1v-1.3s-11.8-12.7 27.7-46.2c51-43.2 30.6-87.4-7.6-85 0 0 14.1-21.6-18.7-45.5" fill="#91a57d"/><path d="m160.4 167.5s6.3 5.1 20.7 6c11.2.8 20.7-8.3 19.8-19.3-1-13.2-13.6-20.8-20.6-24.6-13.7-7.2.6-33.1 20.5-12.4 9.2 9.7 12.8 23.5 13 34.5s-13.6 36-46.8 27.2c0 0-2.4 20.1-40.4 42.9-38-22.8-40.3-42.9-40.3-42.9-33.3 8.8-47.1-16.2-46.8-27.2.2-11 3.7-24.8 13-34.5 19.7-20.7 34.2 5.2 20.4 12.4-6.9 3.8-19.5 11.4-20.5 24.6-.8 11 8.7 20.1 19.7 19.3 14.5-.9 20.8-6 20.8-6-3.1 24.7 33.7 44.2 33.7 44.2s36.8-19.5 33.8-44.2z" fill="#d7b77d" stroke="#f3efdf" stroke-linecap="round" stroke-linejoin="round" stroke-width="3"/><path d="m120.3 26.1c4.5-14.2 7.8-20.1 7.8-20.1s3.9 7.8 7.6 19.9c3.6 12.1-1.6 19.7-8.6 20.1-7-.4-10.7-7.7-6.8-19.9z" fill="#91a57d"/></svg>