<svg width="138" height="176" viewBox="0 0 138 176" fill="none" xmlns="http://www.w3.org/2000/svg">
<g clip-path="url(#clip0_209_129)">
<path d="M0 4C0 1.79086 1.79086 0 4 0H134C136.209 0 138 1.79086 138 4V172C138 174.209 136.209 176 134 176H4C1.79086 176 0 174.209 0 172V4Z" fill="#404C6E"/>
<path d="M136 172C136 173.105 135.105 174 134 174L132 174L132 2L134 2C135.105 2 136 2.895 136 4L136 172Z" fill="#FFFBF8"/>
<path d="M87 171L1.19209e-06 171L4.33931e-06 135L87 135L87 171Z" fill="#FFFBF8"/>
<path d="M118.199 136.313V134.945H121.44V136.313H118.199Z" stroke="white" stroke-width="0.5"/>
<path d="M116.32 141.27L116.32 141.27C116.312 142.12 116.302 142.978 116.292 143.844L119.817 143.807L119.819 143.807L119.822 144.057C119.825 144.057 119.829 144.058 119.833 144.059C119.837 144.061 119.84 144.063 119.843 144.065C119.846 144.068 119.848 144.071 119.849 144.075C119.851 144.078 119.852 144.082 119.852 144.086L116.32 141.27ZM116.32 141.27C116.323 140.934 116.316 140.565 116.309 140.184C116.299 139.686 116.289 139.166 116.301 138.672C118.058 138.697 119.775 138.697 121.451 138.671M116.32 141.27L121.651 138.668M113.949 145.899C113.949 145.951 113.963 146.036 114.032 146.105C114.103 146.176 114.188 146.189 114.241 146.189H119.794C119.875 146.189 119.954 146.157 120.011 146.099C120.069 146.041 120.102 145.963 120.102 145.881V144.086L121.651 138.668L121.651 138.668M113.949 145.899C113.949 145.898 113.949 145.897 113.949 145.897H114.199L113.949 145.899C113.949 145.899 113.949 145.899 113.949 145.899ZM113.949 145.899C113.94 145.092 113.948 144.322 113.97 143.589V143.589C113.982 143.213 113.982 142.827 113.97 142.429H108.822L108.835 149.648L108.835 149.648C108.835 149.699 108.822 149.783 108.752 149.853C108.683 149.923 108.599 149.935 108.548 149.935H93.8335V151.304L110.209 151.31L110.198 144.12V144.119C110.198 144.061 110.213 143.972 110.287 143.899C110.36 143.827 110.449 143.813 110.505 143.813H112.274C112.332 143.813 112.421 143.828 112.494 143.901C112.567 143.974 112.581 144.063 112.581 144.12V144.122L112.555 147.566L125.191 147.568V134.946L123.824 134.945V145.883C123.824 145.964 123.792 146.042 123.734 146.1C123.677 146.157 123.599 146.189 123.518 146.189C123.518 146.189 123.518 146.189 123.518 146.189L121.748 146.19H121.748C121.672 146.19 121.6 146.16 121.546 146.107C121.493 146.053 121.463 145.981 121.463 145.905M121.463 145.905H121.713L121.463 145.905L121.463 145.905ZM121.463 145.905L121.451 138.671M121.451 138.671C121.517 138.67 121.584 138.669 121.651 138.668M121.451 138.671L121.45 138.471C121.45 138.497 121.456 138.523 121.466 138.547C121.476 138.571 121.491 138.593 121.51 138.611C121.528 138.63 121.55 138.644 121.575 138.654C121.599 138.663 121.625 138.668 121.651 138.668M116.112 138.669L116.113 138.669L116.112 138.669ZM112.553 147.759L112.553 147.757L112.553 147.759ZM120.073 140.359V140.359C120.073 140.279 120.041 140.203 119.985 140.148C119.929 140.092 119.853 140.06 119.774 140.061L117.987 140.064H117.987C117.908 140.064 117.832 140.095 117.776 140.151C117.72 140.208 117.689 140.284 117.689 140.363L117.692 142.149V142.15C117.692 142.229 117.724 142.305 117.78 142.361C117.836 142.416 117.912 142.448 117.991 142.448L119.778 142.444H119.778C119.857 142.444 119.933 142.413 119.989 142.357C120.045 142.301 120.076 142.225 120.076 142.145L120.073 140.359ZM116.307 138.484C116.307 138.485 116.307 138.485 116.307 138.485L116.307 138.484Z" stroke="white" stroke-width="0.5"/>
<path d="M127.567 170.055V134.945H128.936V170.055H127.567Z" stroke="white" stroke-width="0.5"/>
<path d="M101.326 140.062V138.697H102.697V140.062H101.326Z" stroke="white" stroke-width="0.5"/>
<path d="M105.072 147.561V138.697H106.442V147.561H105.072Z" stroke="white" stroke-width="0.5"/>
<path d="M99.199 144.013L99.2011 142.254C99.2011 142.247 99.1998 142.241 99.1973 142.235C99.1948 142.229 99.1911 142.224 99.1865 142.219C99.1819 142.214 99.1764 142.211 99.1704 142.208C99.1644 142.206 99.1579 142.204 99.1514 142.204L99.199 144.013ZM99.199 144.013C99.199 144.019 99.1977 144.026 99.1952 144.032C99.1927 144.038 99.1891 144.043 99.1845 144.048C99.1798 144.053 99.1744 144.056 99.1683 144.059C99.1623 144.061 99.1558 144.062 99.1493 144.062L99.199 144.013ZM98.9508 142.453L93.8198 142.42V147.568H102.714L102.693 142.443L101.322 142.438L101.328 145.889L101.328 145.889C101.328 145.969 101.296 146.045 101.24 146.101C101.184 146.158 101.108 146.189 101.028 146.189H95.4983C95.4188 146.189 95.3426 146.158 95.2864 146.101C95.2302 146.045 95.1986 145.969 95.1986 145.889V144.113C95.1986 144.034 95.2302 143.957 95.2864 143.901C95.3426 143.845 95.4188 143.813 95.4982 143.813L98.9508 142.453ZM98.9508 142.453L98.9492 143.812L95.4983 143.813L98.9508 142.453ZM102.892 142.444C102.892 142.444 102.892 142.444 102.891 142.444H102.892Z" stroke="white" stroke-width="0.5"/>
<path d="M112.316 166.605C112.316 166.568 112.334 166.549 112.372 166.549L125.394 166.57C125.426 166.571 125.441 166.555 125.441 166.522V153.515C125.441 153.468 125.418 153.444 125.37 153.444H123.634C123.594 153.444 123.574 153.464 123.574 153.505V164.638C123.574 164.651 123.569 164.664 123.56 164.673C123.551 164.683 123.538 164.688 123.525 164.688H121.751C121.734 164.688 121.717 164.681 121.704 164.669C121.692 164.656 121.685 164.639 121.685 164.622L112.316 166.605ZM112.316 166.605L112.353 170.25L112.316 166.605ZM116.127 161.195L116.125 161.195C116.048 161.195 115.953 161.166 115.887 161.079C115.831 161.005 115.823 160.924 115.823 160.876V159.119C115.823 159.061 115.838 158.972 115.911 158.899C115.984 158.825 116.073 158.811 116.131 158.811H121.44V157.445L114.434 157.425C114.423 157.925 114.431 158.429 114.44 158.93C114.447 159.315 114.453 159.7 114.451 160.08L114.451 160.08C114.444 160.879 114.437 161.712 114.428 162.578L119.766 162.546C119.767 162.546 119.768 162.546 119.768 162.546L119.769 162.546L119.771 162.796C119.778 162.796 119.785 162.797 119.791 162.799C119.798 162.802 119.804 162.806 119.809 162.811C119.814 162.816 119.818 162.822 119.821 162.828C119.823 162.834 119.825 162.841 119.825 162.848L116.127 161.195ZM116.127 161.195L121.464 161.163L116.127 161.195ZM114.19 157.238L114.189 157.238L114.19 157.238ZM114.19 157.238L114.254 157.24L114.19 157.238ZM121.644 157.242L121.643 157.242L121.644 157.242L121.69 157.242H121.644Z" stroke="white" stroke-width="0.5"/>
<path d="M106.527 162.814C105.277 162.792 103.784 162.796 102.048 162.828M106.527 162.814C107.371 162.829 108.033 162.835 108.514 162.832M106.527 162.814L106.532 162.564M106.527 162.814L106.532 162.564L106.532 162.564M102.048 162.828L108.519 157.189M102.048 162.828C101.685 162.835 101.306 162.826 100.922 162.816M102.048 162.828L100.922 162.816M108.514 162.832C108.563 162.831 108.587 162.806 108.587 162.757M108.514 162.832L108.513 162.758M108.514 162.832L108.513 162.758L108.587 162.757M108.587 162.757L108.567 157.238C108.567 157.205 108.551 157.189 108.519 157.189M108.587 162.757H108.513M108.519 157.189V157.238V157.238V157.439M108.519 157.189L108.519 157.238V157.238L108.519 157.439L108.519 157.439M108.519 157.439C108.496 157.439 108.434 157.434 108.378 157.378C108.324 157.324 108.318 157.262 108.317 157.239L108.318 157.439L108.519 157.439ZM108.513 162.757L108.512 162.582C108.456 162.582 108.397 162.583 108.336 162.583L108.337 162.757M108.513 162.757H108.513M108.513 162.757L108.513 162.758M108.513 162.757L108.51 162.582C108.496 162.582 108.44 162.587 108.391 162.637C108.341 162.688 108.337 162.743 108.337 162.757M108.513 162.757L108.513 162.758M108.513 162.757H108.337M108.337 162.757L108.337 162.758L108.513 162.758M106.532 162.564C105.278 162.541 103.782 162.546 102.043 162.578L102.043 162.578C101.686 162.585 101.314 162.576 100.93 162.566C100.848 162.565 100.765 162.563 100.682 162.561C100.213 162.55 99.7281 162.544 99.2491 162.572L99.2487 162.572C98.6386 162.608 97.993 162.608 97.3119 162.572L97.3117 162.572C96.7597 162.543 96.1571 162.539 95.504 162.56L95.5038 162.56C95.4436 162.562 95.3559 162.58 95.285 162.654C95.2142 162.727 95.1989 162.815 95.1989 162.875V164.624C95.1989 164.684 95.214 164.775 95.2881 164.849C95.3622 164.923 95.4531 164.938 95.513 164.938H102.729V166.299L93.8135 166.316C93.8017 165.813 93.8112 165.286 93.8201 164.789L106.532 162.564ZM102.943 160.867L102.97 157.268C102.97 157.256 102.968 157.244 102.964 157.234C102.959 157.223 102.953 157.213 102.945 157.204C102.936 157.196 102.926 157.189 102.916 157.185C102.905 157.18 102.893 157.178 102.881 157.178H97.3742C97.3646 157.178 97.3551 157.18 97.3463 157.183C97.3374 157.187 97.3294 157.192 97.3226 157.199C97.3159 157.206 97.3106 157.214 97.307 157.223C97.3034 157.231 97.3016 157.241 97.3018 157.25L97.339 160.861C97.3392 160.872 97.3372 160.882 97.3331 160.892C97.329 160.902 97.323 160.911 97.3154 160.919C97.3078 160.927 97.2987 160.933 97.2887 160.937C97.2787 160.941 97.268 160.943 97.2573 160.943L97.2546 161.193L97.2544 161.193C97.2543 161.193 97.2542 161.193 97.254 161.193L93.8091 161.156C93.8174 162.033 93.8245 162.903 93.8304 163.766L102.72 157.265L102.72 157.266M102.943 160.867L102.693 160.863L102.719 157.428M102.943 160.867L102.693 160.865L102.693 160.865L106.701 157.241V160.873C106.701 160.915 106.68 160.937 106.639 160.937H103.013C102.966 160.937 102.943 160.913 102.943 160.867ZM102.719 157.428H102.881C102.86 157.428 102.839 157.424 102.819 157.415C102.8 157.407 102.782 157.395 102.767 157.38C102.752 157.365 102.74 157.347 102.732 157.327C102.724 157.308 102.72 157.287 102.72 157.266M102.719 157.428H97.5536M102.719 157.428L102.72 157.266M102.72 157.266L97.5536 157.428M97.5536 157.428H97.3743C97.3973 157.428 97.4202 157.423 97.4416 157.415C97.463 157.406 97.4827 157.393 97.4994 157.376C97.5161 157.359 97.5295 157.339 97.5385 157.317L97.5536 157.428ZM97.5536 157.428L97.589 160.858L97.3391 160.861L97.589 160.858L97.589 160.858L97.5536 157.428ZM100.922 162.816C100.374 162.803 99.8137 162.79 99.2634 162.822M100.922 162.816L99.2634 162.822M99.2634 162.822C98.643 162.858 97.9881 162.858 97.2987 162.822H99.2634ZM106.951 157.44V157.241C106.951 157.263 106.945 157.325 106.89 157.38C106.836 157.435 106.774 157.44 106.752 157.44L106.951 157.44ZM93.5576 161.006L93.5578 161.006L93.5576 161.006ZM101.326 159.1C101.326 159.023 101.295 158.95 101.241 158.896C101.187 158.841 101.113 158.811 101.037 158.811H99.2396C99.1629 158.811 99.0893 158.841 99.035 158.896C98.9807 158.95 98.9503 159.023 98.9503 159.1V160.897C98.9503 160.974 98.9807 161.048 99.035 161.102C99.0893 161.156 99.1629 161.187 99.2396 161.187H101.037C101.113 161.187 101.187 161.156 101.241 161.102C101.295 161.048 101.326 160.974 101.326 160.897V159.1Z" stroke="white" stroke-width="0.5"/>
<path d="M105.072 166.303V164.938H108.322V166.303H105.072Z" stroke="white" stroke-width="0.5"/>
<path d="M114.456 155.066V153.694H121.44V155.066H114.456Z" stroke="#CDAD80" stroke-width="0.5"/>
<path d="M114.455 170.055V168.687H125.19V170.055H114.455Z" stroke="#CDAD80" stroke-width="0.5"/>
<path d="M110.707 160.687V153.694H112.072V160.687H110.707Z" stroke="#CDAD80" stroke-width="0.5"/>
<path d="M97.5815 155.066V153.694H108.323V155.066H97.5815Z" stroke="#CDAD80" stroke-width="0.5"/>
<path d="M93.8335 158.811V153.694H95.1988V158.811H93.8335Z" stroke="#CDAD80" stroke-width="0.5"/>
<path d="M112.576 151.306V149.934H125.192V151.306H112.576Z" stroke="#CDAD80" stroke-width="0.5"/>
<path d="M108.831 140.062V138.697H113.947V140.062H108.831Z" stroke="#CDAD80" stroke-width="0.5"/>
<path d="M93.8335 140.062V138.697H98.9503V140.062H93.8335Z" stroke="#CDAD80" stroke-width="0.5"/>
<path d="M93.8335 136.315V134.945H115.823V136.315H93.8335Z" stroke="#CDAD80" stroke-width="0.5"/>
<path d="M90.082 170.055V134.945H91.4495V170.055H90.082Z" stroke="#CDAD80" stroke-width="0.5"/>
</g>
<defs>
<clipPath id="clip0_209_129">
<rect width="138" height="176" fill="white"/>
</clipPath>
</defs>
</svg>
