<svg height="113" viewBox="0 0 326 113" width="326" xmlns="http://www.w3.org/2000/svg"><path d="m235 56.2c0 2.1-1.7 3.8-3.8 3.8h-105c-2.1 0-3.8-1.7-3.8-3.8 0-2.2 1.7-3.9 3.8-3.9h105c2.1 0 3.8 1.7 3.8 3.9z" fill="#39412a"/><g fill="#f7aa55"><path d="m56 60.9q-.8-.7-1.5-1.4-.7-.7-1.4-1.5 0-1-.1-2 .1-1 .1-2 .7-.8 1.4-1.5.7-.7 1.5-1.4 1 0 2-.1 1 .1 2 .1.8.7 1.5 1.4.7.7 1.4 1.5 0 1 .1 2-.1 1-.1 2-.7.8-1.4 1.5-.7.7-1.5 1.4-1 0-2 .1-1-.1-2-.1z"/><path d="m55.4 65.6c.4-1.3 1.5-1.8 2.6-1.7q0 0 0 0c1.1-.1 2.2.4 2.6 1.7 1.7 4.6 7.3 21-2.6 21s-4.3-16.4-2.6-21z"/><path d="m49.4 60.9c1.2-.6 2.3-.1 3 .7q0 0 0 0c.8.7 1.3 1.8.7 3-2.1 4.5-9.7 20-16.7 13s8.5-14.6 13-16.7z"/><path d="m48.4 53.4c1.3.4 1.8 1.5 1.7 2.6q0 0 0 0c.1 1.1-.4 2.2-1.7 2.6-4.6 1.7-21 7.3-21-2.6s16.4-4.3 21-2.6z"/><path d="m53.1 47.4c.6 1.2.1 2.3-.7 3q0 0 0 0c-.7.8-1.8 1.3-3 .7-4.5-2.1-20-9.7-13-16.7s14.6 8.5 16.7 13z"/><path d="m60.6 46.4c-.4 1.3-1.5 1.8-2.6 1.7q0 0 0 0c-1.1.1-2.2-.4-2.6-1.7-1.7-4.6-7.3-21 2.6-21s4.3 16.4 2.6 21z"/><path d="m66.6 51.1c-1.2.6-2.3.1-3-.7q0 0 0 0c-.8-.7-1.3-1.8-.7-3 2.1-4.5 9.7-20 16.7-13s-8.5 14.6-13 16.7z"/><path d="m67.6 58.6c-1.3-.4-1.8-1.5-1.7-2.6q0 0 0 0c-.1-1.1.4-2.2 1.7-2.6 4.6-1.7 21-7.3 21 2.6s-16.4 4.3-21 2.6z"/><path d="m62.9 64.6c-.6-1.2-.1-2.3.7-3q0 0 0 0c.7-.8 1.8-1.3 3-.7 4.5 2.1 20 9.7 13 16.7s-14.6-8.5-16.7-13z"/></g><path d="m55.9 109.8c-2.9-5.1-7.3-7.1-11.4-10.8-1.3-1.1-2.2-2.3-2.8-3.6-1.4.5-2.9.7-4.6.6-5.5-.3-10.1-2-15.6-.4-.9.2-1.8-.1-2.4-.7s-.9-1.5-.7-2.4c1.6-5.5-.1-10.1-.4-15.6-.1-1.7.1-3.2.6-4.6-1.3-.6-2.5-1.5-3.6-2.8-3.7-4.1-5.7-8.5-10.8-11.4-.8-.4-1.2-1.3-1.2-2.1s.4-1.7 1.2-2.1c5.1-2.9 7.1-7.3 10.8-11.4 1.1-1.3 2.3-2.2 3.6-2.8-.5-1.4-.7-2.9-.6-4.6.3-5.5 2-10.1.4-15.6-.2-.9.1-1.8.7-2.4s1.5-.9 2.4-.7c5.5 1.6 10.1-.1 15.6-.4 1.7-.1 3.2.1 4.6.6.6-1.3 1.5-2.5 2.8-3.6 4.1-3.7 8.5-5.7 11.4-10.8.4-.8 1.3-1.2 2.1-1.2s1.7.4 2.1 1.2c2.9 5.1 7.3 7.1 11.4 10.8 1.3 1.1 2.2 2.3 2.8 3.6 1.4-.5 2.9-.7 4.6-.6 5.5.3 10.1 2 15.6.4.9-.2 1.8.1 2.4.7s.9 1.5.7 2.4c-1.6 5.5.1 10.1.4 15.6.1 1.7-.1 3.2-.6 4.6 1.3.6 2.5 1.5 3.6 2.8 3.7 4.1 5.7 8.5 10.8 11.4.8.4 1.2 1.3 1.2 2.1s-.4 1.7-1.2 2.1c-5.1 2.9-7.1 7.3-10.8 11.4-1.1 1.3-2.3 2.2-3.6 2.8.5 1.4.7 2.9.6 4.6-.3 5.5-2 10.1-.4 15.6.2.9-.1 1.8-.7 2.4s-1.5.9-2.4.7c-5.5-1.6-10.1.1-15.6.4-1.7.1-3.2-.1-4.6-.6-.6 1.3-1.5 2.5-2.8 3.6-4.1 3.7-8.5 5.7-11.4 10.8-.4.8-1.3 1.2-2.1 1.2s-1.7-.4-2.1-1.2zm28.3-27.6c3.4-3.4 5.1-8.4 3.8-13.8 4.7-2.8 7.1-7.6 7.1-12.4s-2.4-9.6-7.1-12.4c1.3-5.4-.4-10.4-3.8-13.8s-8.4-5.1-13.8-3.8c-2.8-4.7-7.6-7.1-12.4-7.1s-9.6 2.4-12.4 7.1c-5.4-1.3-10.4.4-13.8 3.8s-5.1 8.4-3.8 13.8c-4.7 2.8-7.1 7.6-7.1 12.4s2.4 9.6 7.1 12.4c-1.3 5.4.4 10.4 3.8 13.8s8.4 5.1 13.8 3.8c2.8 4.7 7.6 7.1 12.4 7.1s9.6-2.4 12.4-7.1c5.4 1.3 10.4-.4 13.8-3.8zm-26.3 21.7q0 0 .1.1.1-.1.1-.1 0 0-.1 0-.1 0-.1 0zm-33.8-14.1q0 .1 0 .1 0 0 .1 0 0 0 0-.1-.1 0-.1 0zm-14-33.9q0 0-.1.1.1.1.1.1 0 0 0-.1 0-.1 0-.1zm14.1-33.8q-.1 0-.1 0 0 0 0 .1 0 0 .1 0 0-.1 0-.1zm33.9-14q0 0-.1-.1-.1.1-.1.1 0 0 .1 0 .1 0 .1 0zm33.8 14.1q0-.1 0-.1 0 0-.1 0 0 0 0 .1.1 0 .1 0zm14 33.9q0 0 .1-.1-.1-.1-.1-.1 0 0 0 .1 0 .1 0 .1zm-14.1 33.8q.1 0 .1 0 0 0 0-.1 0 0-.1 0 0 .1 0 .1z" fill="#39412a" fill-rule="evenodd"/><path d="m272.5 74.1c-.9-2.7-.7-5.3.1-7.7-2.4.8-5 1-7.7.1-4.3-1.3-6.9-6.2-7.8-10.5.9-4.3 3.5-9.2 7.8-10.5 2.7-.9 5.3-.7 7.7.1-.8-2.4-1-5-.1-7.7 1.3-4.3 6.2-6.9 10.5-7.8 4.3.9 9.2 3.5 10.5 7.8.9 2.7.7 5.3-.1 7.7 2.4-.8 5-1 7.7-.1 4.3 1.3 6.9 6.2 7.8 10.5-.9 4.3-3.5 9.2-7.8 10.5-2.7.9-5.3.7-7.7-.1.8 2.4 1 5 .1 7.7-1.3 4.3-6.2 6.9-10.5 7.8-4.3-.9-9.2-3.5-10.5-7.8zm3.7-1.7c.9 3.1 3.7 5.1 6.8 6.1 3.1-1 5.9-3 6.8-6.1 1.6-5.8-2.1-10.7-6.8-14.3-4.7 3.6-8.4 8.5-6.8 14.3zm23.2-9.6c3.1-.9 5.1-3.7 6.1-6.8-1-3.1-3-5.9-6.1-6.8-5.8-1.6-10.7 2.1-14.3 6.8 3.6 4.7 8.5 8.4 14.3 6.8zm-9.6-23.2c-.9-3.1-3.7-5.1-6.8-6.1-3.1 1-5.9 3-6.8 6.1-1.6 5.8 2.1 10.7 6.8 14.3 4.7-3.6 8.4-8.5 6.8-14.3zm-23.2 9.6c-3.1.9-5.1 3.7-6.1 6.8 1 3.1 3 5.9 6.1 6.8 5.8 1.6 10.7-2.1 14.3-6.8-3.6-4.7-8.5-8.4-14.3-6.8zm14.2 21.9c-.8-2.3.7-5.1 2.2-6.9 1.5 1.8 3 4.6 2.2 6.9-.4 1.1-1.2 1.8-2.2 2.4-1-.6-1.8-1.3-2.2-2.4zm17.3-12.9c-2.3.8-5.1-.7-6.9-2.2 1.8-1.5 4.6-3 6.9-2.2 1.1.4 1.8 1.2 2.4 2.2-.6 1-1.3 1.8-2.4 2.2zm-12.9-17.3c.8 2.3-.7 5.1-2.2 6.9-1.5-1.8-3-4.6-2.2-6.9.4-1.1 1.2-1.8 2.2-2.4 1 .6 1.8 1.3 2.2 2.4zm-17.3 12.9c2.3-.8 5.1.7 6.9 2.2-1.8 1.5-4.6 3-6.9 2.2-1.1-.4-1.8-1.2-2.4-2.2.6-1 1.3-1.8 2.4-2.2z" fill="#f7aa55" fill-rule="evenodd"/><path d="m278.3 93.9c-1.6-2.6-2-5.9.8-7.8 1.1-.9 2.5-1.3 3.9-1.6 1.4.3 2.8.7 3.9 1.6 2.8 1.9 2.4 5.2.8 7.8-1.2 1.6-2.9 2.9-4.7 3.1-1.8-.2-3.5-1.5-4.7-3.1zm-33.2-42.6c2.6-1.6 5.9-2 7.8.8.9 1.1 1.3 2.5 1.6 3.9-.3 1.4-.7 2.8-1.6 3.9-1.9 2.8-5.2 2.4-7.8.8-1.6-1.2-2.9-2.9-3.1-4.7.2-1.8 1.5-3.5 3.1-4.7zm42.6-33.2c1.6 2.6 2 5.9-.8 7.8-1.1.9-2.5 1.3-3.9 1.6-1.4-.3-2.8-.7-3.9-1.6-2.8-1.9-2.4-5.2-.8-7.8 1.2-1.6 2.9-2.9 4.7-3.1 1.8.2 3.5 1.5 4.7 3.1zm33.2 42.6c-2.6 1.6-5.9 2-7.8-.8-.9-1.1-1.3-2.5-1.6-3.9.3-1.4.7-2.8 1.6-3.9 1.9-2.8 5.2-2.4 7.8-.8 1.6 1.2 2.9 2.9 3.1 4.7-.2 1.8-1.5 3.5-3.1 4.7zm-40.3 31.8c.8 1.2 1.6 1.7 2.4 1.8.8-.1 1.6-.6 2.4-1.8 1.9-3.1.2-4.5-2.4-5.2-2.6.7-4.3 2.1-2.4 5.2zm-34.1-38.9c-1.2.8-1.7 1.6-1.8 2.4.1.8.6 1.6 1.8 2.4 3.1 1.9 4.5.2 5.2-2.4-.7-2.6-2.1-4.3-5.2-2.4zm38.9-34.1c-.8-1.2-1.6-1.7-2.4-1.8-.8.1-1.6.6-2.4 1.8-1.9 3.1-.2 4.5 2.4 5.2 2.6-.7 4.3-2.1 2.4-5.2zm34.1 38.9c1.2-.8 1.7-1.6 1.8-2.4-.1-.8-.6-1.6-1.8-2.4-3.1-1.9-4.5-.2-5.2 2.4.7 2.6 2.1 4.3 5.2 2.4z" fill="#39412a" fill-rule="evenodd"/><path d="m282 92.6q-.1-.1-.2-.1-.1 0-.2-.1c-.1 0-.3-.2-.4-.4q0 0 0 0 0-.1-.1-.2 0 0 0 0 0-.1-.1-.2 0 0 0 0 0-.1 0-.1 0-.1 0-.1 0-.1 0-.1c0-.8.5-1.5 1.1-2q.4-.3.9-.4.5.1.9.4c.6.5 1.1 1.2 1.1 2q0 0 0 .1 0 0 0 .1 0 0 0 .1 0 0 0 0-.1.1-.1.2 0 0 0 0-.1.1-.1.2 0 0 0 0c-.1.2-.3.4-.4.4q-.1.1-.2.1-.1 0-.2.1-.5.1-1 .1-.5 0-1-.1zm-35.6-37.6q.1-.1.1-.2 0-.1.1-.2c0-.1.2-.3.4-.4q0 0 0 0 .1 0 .2-.1 0 0 0 0 .1 0 .2-.1 0 0 0 0 .1 0 .1 0 .1 0 .1 0 .1 0 .1 0c.8 0 1.5.5 2 1.1q.3.4.4.9-.1.5-.4.9c-.5.6-1.2 1.1-2 1.1q0 0-.1 0 0 0-.1 0 0 0-.1 0 0 0 0 0-.1-.1-.2-.1 0 0 0 0-.1-.1-.2-.1 0 0 0 0c-.2-.1-.4-.3-.4-.4q-.1-.1-.1-.2 0-.1-.1-.2-.1-.5-.1-1 0-.5.1-1zm37.6-35.6q.1.1.2.1.1 0 .2.1c.1 0 .3.2.4.4q0 0 0 0 0 .1.1.2 0 0 0 0 0 .1.1.2 0 0 0 0 0 .1 0 .1 0 .1 0 .1 0 .1 0 .1c0 .8-.5 1.5-1.1 2q-.4.3-.9.4-.5-.1-.9-.4c-.6-.5-1.1-1.2-1.1-2q0 0 0-.1 0 0 0-.1 0 0 0-.1 0 0 0 0 .1-.1.1-.2 0 0 0 0 .1-.1.1-.2 0 0 0 0c.1-.2.3-.4.4-.4q.1-.1.2-.1.1 0 .2-.1.5-.1 1-.1.5 0 1 .1zm35.6 37.6q-.1.1-.1.2 0 .1-.1.2c0 .1-.2.3-.4.4q0 0 0 0-.1 0-.2.1 0 0 0 0-.1 0-.2.1 0 0 0 0-.1 0-.1 0-.1 0-.1 0-.1 0-.1 0c-.8 0-1.5-.5-2-1.1q-.3-.4-.4-.9.1-.5.4-.9c.5-.6 1.2-1.1 2-1.1q0 0 .1 0 0 0 .1 0 0 0 .1 0 0 0 0 0 .1.1.2.1 0 0 0 0 .1.1.2.1 0 0 0 0c.2.1.4.3.4.4q.1.1.1.2 0 .1.1.2.1.5.1 1 0 .5-.1 1zm-36.5 33q0 0 .1 0 0 0 0 0 0 0-.1 0zm33.9-34.1q0 0 0-.1 0 0 0 0 0 0 0 .1zm-34.1-33.9q0 0-.1 0 0 0 0 0 0 0 .1 0zm-33.9 34.1q0 0 0 .1 0 0 0 0 0 0 0-.1zm33.8 33.9q0 0 0 0 .1 0 .1 0-.1 0-.1 0zm34.2-33.8q0 0 0 0 0-.1 0-.1 0 .1 0 .1zm-33.8-34.2q0 0 0 0-.1 0-.1 0 .1 0 .1 0zm-34.2 33.8q0 0 0 0 0 .1 0 .1 0-.1 0-.1zm34 34.4q.2-.1.3-.1 0 0 0 0-.2 0-.3.1zm34.2-34.2q-.1-.2-.1-.3 0 0 0 0 0 .2.1.3zm-34.2-34.2q-.2.1-.3.1 0 0 0 0 .2 0 .3-.1zm-34.2 34.2q.1.2.1.3 0 0 0 0 0-.2-.1-.3zm33.9 34.1q0 0 0 0 .1 0 .3.1-.1-.1-.3-.1zm34.4-33.8q0 0 0 0 0-.1.1-.3-.1.1-.1.3zm-33.8-34.4q0 0 0 0-.1 0-.3-.1.1.1.3.1zm-34.4 33.8q0 0 0 0 0 .1-.1.3.1-.1.1-.3z" fill="#39412a" fill-rule="evenodd"/></svg>