<svg fill="none" height="29" viewBox="0 0 29 29" width="29" xmlns="http://www.w3.org/2000/svg"><path d="m21.4702 3.271c.7465 0 1.3582.49107 1.5899 1.18492.0532.16048.0797.46993.0793.92834-.0034 6.34484-.0042 12.66734-.0023 18.96724 0 .0025.0005.005.0015.0073.0009.0023.0023.0044.004.0061.0018.0018.0038.0031.0061.004s.0047.0014.0071.0013c.4898-.0015 1.0035-.0011 1.5412.0011.213.0012.3472-.1382.3472-.3557.0004-7.4339.0006-14.86795.0006-22.30222 0-.3727-.2917-.35344-.6038-.35344-5.5836-.00038-11.1673-.00056-16.75091-.00056-.27131 0-.46388.04814-.46445.35457-.00113.51354-.00151 1.0233-.00113 1.52929 0 .00736.00286.01442.00796.01963.0051.0052.01201.00813.01922.00813 4.73891-.00038 9.47841-.00038 14.21851 0z" stroke="#cdad80" stroke-width="2"/><path d="m7.40631 0h17.46119c.9283.132539 1.5361.807695 1.5361 1.7417-.0004 7.42936-.0004 14.8587 0 22.2881 0 .8909-.7063 1.6935-1.6426 1.6981-.5215.0026-1.052.0028-1.5916.0005-.0089 0-.0174.0036-.0236.0098-.0063.0063-.0098.0148-.0098.0237-.0027.4757-.0023.9576.0011 1.4454.0074.9533-.5953 1.6794-1.548 1.7927h-17.45548c-.89889-.1087-1.53723-.81-1.53723-1.7207 0-7.557-.00019-14.9855-.00056-22.2853 0-.75615.44349-1.40412 1.16169-1.64201.18881-.0623.43255-.091.73123-.08609.47843.00831.93193.00868 1.36051.00113.00426-.00015.00829-.00194.01125-.00501.00296-.00306.00461-.00715.00461-.01141-.00189-.50373-.00113-1.03747.00227-1.60123.00509-.875669.68592-1.546294 1.53892-1.64938zm14.06389 3.271c.7465 0 1.3582.49107 1.5899 1.18492.0532.16048.0797.46993.0793.92834-.0034 6.34484-.0042 12.66734-.0023 18.96724 0 .0025.0005.005.0015.0073.0009.0023.0023.0044.004.0061.0018.0018.0038.0031.0061.004s.0047.0014.0071.0013c.4898-.0015 1.0035-.0011 1.5412.0011.213.0012.3472-.1382.3472-.3557.0004-7.4339.0006-14.86795.0006-22.30222 0-.3727-.2917-.35344-.6038-.35344-5.5837-.00038-11.1673-.00056-16.75092-.00056-.27131 0-.46388.04814-.46445.35457-.00113.51354-.00151 1.0233-.00113 1.52929 0 .00736.00286.01442.00796.01963.0051.0052.01201.00813.01922.00813 4.73892-.00038 9.47842-.00038 14.21852 0zm.3058 1.68279c0-.08593-.0341-.16833-.0949-.22909-.0607-.06076-.1431-.0949-.229-.0949h-17.17235c-.08593 0-.16833.03414-.22909.0949s-.09489.14316-.09489.22909v22.36281c0 .086.03413.1684.09489.2291.06076.0608.14316.0949.22909.0949h17.17235c.0859 0 .1683-.0341.229-.0949.0608-.0607.0949-.1431.0949-.2291z" fill="#404c6e"/><path d="m23.0601 4.45592c-.2317-.69385-.8434-1.18492-1.5899-1.18492-4.7401-.00038-9.4796-.00038-14.21851 0-.00721 0-.01412-.00293-.01922-.00813-.0051-.00521-.00796-.01227-.00796-.01963-.00038-.50599 0-1.01575.00113-1.52929.00057-.30643.19314-.35457.46445-.35457 5.58361 0 11.16731.00018 16.75091.00056.3121 0 .6038-.01926.6038.35344 0 7.43427-.0002 14.86832-.0006 22.30222 0 .2175-.1342.3569-.3472.3557-.5377-.0022-1.0514-.0026-1.5412-.0011-.0024.0001-.0048-.0004-.0071-.0013s-.0043-.0022-.0061-.004c-.0017-.0017-.0031-.0038-.004-.0061-.001-.0023-.0015-.0048-.0015-.0073-.0019-6.2999-.0011-12.6224.0023-18.96724.0004-.45841-.0261-.76786-.0793-.92834z" fill="#cdad80"/><g fill="#404c6e"><path d="m17.7319 7.47995h-9.41141c-.36975 0-.66949.29974-.66949.66949v.01926c0 .36975.29974.66949.66949.66949h9.41141c.3697 0 .6695-.29974.6695-.66949v-.01926c0-.36975-.2998-.66949-.6695-.66949z"/><path d="m17.7308 11.5927h-9.40917c-.37038 0-.67063.3002-.67063.6706v.0192c0 .3704.30025.6707.67063.6707h9.40917c.3703 0 .6706-.3003.6706-.6707v-.0192c0-.3704-.3003-.6706-.6706-.6706z"/><path d="m17.7319 15.7047h-9.41141c-.36975 0-.66949.2998-.66949.6695v.0193c0 .3697.29974.6695.66949.6695h9.41141c.3697 0 .6695-.2998.6695-.6695v-.0193c0-.3697-.2998-.6695-.6695-.6695z"/><path d="m17.7319 19.8123h-9.41141c-.36975 0-.66949.2998-.66949.6695v.0193c0 .3697.29974.6695.66949.6695h9.41141c.3697 0 .6695-.2998.6695-.6695v-.0193c0-.3697-.2998-.6695-.6695-.6695z"/><path d="m17.7325 23.9267h-9.41257c-.36944 0-.66893.2995-.66893.6689v.0193c0 .3694.29949.6689.66893.6689h9.41257c.3694 0 .6689-.2995.6689-.6689v-.0193c0-.3694-.2995-.6689-.6689-.6689z"/></g></svg>