<svg height="282" viewBox="0 0 1080 282" width="1080" xmlns="http://www.w3.org/2000/svg"><path d="m200 139.1q-.2.3-.4.6c-.6.9-1.4 1.4-2.5 1.6l-1.1.2 1.1.2c.7.2 1.4.5 2 1.1.3.3.5.7.8 1.1h-3.8q-.3-.4-.7-.8c-.6-.7-1.5-1.1-2.4-1.3l-1.2-.4-2.8.8 1 .4c.8.3 1.4.7 2 1.3h-172v-4.8h172.1c-.6.7-1.2 1.1-2.1 1.3l-1 .3 2.8.7 1.3-.2c1.3-.2 2.2-.8 3-1.9l.2-.2zm860 4.8h-171.6c.5-.7 1.2-1.1 2-1.3l1.1-.3-2.8-.7-1.3.2c-1.3.2-2.3.8-3.1 1.9l-.1.2h-3.7q.1-.3.3-.6c.7-.9 1.5-1.4 2.6-1.6l1-.2-1-.2c-.8-.2-1.4-.5-2-1.1-.3-.3-.6-.7-.8-1.1h3.8q.3.4.6.8c.7.7 1.5 1.1 2.4 1.3l1.3.4 2.8-.8-1.1-.4c-.7-.3-1.3-.7-1.9-1.3h171.5zm-225.7-4.8q-.2.3-.3.6c-.7.9-1.5 1.4-2.6 1.6l-1 .2 1 .2c.7.2 1.4.5 2 1.1.3.3.5.7.8 1.1h-3.8q-.3-.4-.7-.8c-.6-.7-1.4-1.1-2.4-1.3l-1.2-.3-2.8.7 1 .4c.8.3 1.4.7 2 1.3h-42.5l2.4-2.4-2.4-2.4h42.6c-.5.7-1.2 1.1-2 1.4l-1.1.2 2.8.8 1.3-.3c1.3-.2 2.2-.8 3-1.9l.2-.2zm-134.1 0-2.4 2.4 2.4 2.4h-41.9l2.4-2.4-2.4-2.4zm-278.2 0-2.4 2.4 2.4 2.4h-41.9l2.4-2.4-2.4-2.4zm-127.8 2.4 2.4 2.4h-42.7c.6-.7 1.2-1.1 2.1-1.3l1-.3-2.8-.7-1.2.2c-1.4.2-2.3.8-3.1 1.9l-.1.2h-3.8q.2-.3.4-.5c.6-1 1.4-1.5 2.5-1.7l1.1-.1-1.1-.3c-.7-.2-1.4-.5-1.9-1.1-.4-.3-.6-.7-.9-1.1h3.8q.3.5.7.8c.7.7 1.5 1.1 2.4 1.3l1.2.4 2.8-.8-1-.4c-.7-.3-1.4-.6-2-1.3h42.6z" fill="#f7aa55"/><path d="m369.7 110.3v18.3l12.9 12.9-12.9 12.9v18.3h-18.3l-12.9 13-13-13h-18.2v-18.3l-13-12.9 13-12.9v-18.3h18.2l13-13 12.9 13zm-22.5 10.1-8.7-8.7-8.7 8.7h-12.4v12.4l-8.7 8.7 6.2 6.2 2.5 2.5v12.3h12.4l2.5 2.5 6.2 6.3 6.2-6.3 2.5-2.5h12.3v-12.3l2.5-2.5v.1l6.3-6.3-8.8-8.7v-12.4z" fill="#f7aa55" fill-rule="evenodd"/><path d="m773.3 110.3v18.3l12.9 12.9-12.9 12.9v18.3h-18.3l-12.9 13-13-13h-18.3v-18.3l-12.9-12.9 12.9-12.9v-18.3h18.3l13-13 12.9 13zm-22.5 10.1-8.7-8.7-8.7 8.7h-12.4v12.4l-8.7 8.7 6.2 6.2 2.5 2.5v12.3h12.4l2.5 2.5 6.2 6.3 6.2-6.3 2.5-2.5h12.3v-12.3l2.5-2.5v.1l6.3-6.3-8.8-8.7v-12.4z" fill="#f7aa55" fill-rule="evenodd"/><path d="m223.2 107.5-.4 1.4c-.3 1-.7 1.9-1.4 2.6-.6.5-1.3.9-1.9 1.4-.8.5-1.5 1-2 1.9-.4.6-.6 1.3-.6 2.1q-.1.5-.1 1-.3-.4-.6-.8c-.5-.7-.9-1.2-1.7-1.6q-.2-.1-.4-.2c-.6-.2-1.2-.2-1.8-.3-.6 0-1.1 0-1.7 0-1.5-.2-2.6-.7-3.5-1.9l-1-1.1-.8-3 .8.9c.9.9 2 1.2 3.4 1.3h1.8c.5 0 1.1 0 1.7.1q.2.1.4.2c.7.3 1.1.7 1.6 1.2q.2.3.5.6.1-.4.1-.8c.2-.7.3-1.2.8-1.8.5-.7 1.2-1.2 2-1.7.7-.3 1.4-.7 2-1.2.7-.6 1.2-1.4 1.5-2.2l.4-1.1zm0 4.6.2 1.2c.2 1.2.8 2 1.7 2.7.4.3.9.6 1.3.8.4.3.8.6 1.1.9q.1.2.2.4c.4.6.5 1.1.6 1.8 0 .6 0 1.1.2 1.6.4-.4.7-.8 1-1.3.4-.5.8-.9 1.4-1.3.7-.4 1.3-.5 2.1-.5.7 0 1.3 0 2-.2.8-.2 1.5-.7 2.1-1.3l.8-.8-.4 1.1c-.5 1.1-.4 2.1.1 3.2.2.5.4.9.7 1.4.2.4.4.8.5 1.3q0 .2 0 .4c0 .7-.1 1.2-.4 1.8-.2.6-.5 1-.6 1.6.5-.2 1-.4 1.5-.7.6-.2 1.1-.4 1.8-.4.8 0 1.4.3 2.2.6.5.3 1.1.7 1.7.8.9.3 1.7.2 2.5 0l1.1-.3-.9.7c-.9.8-1.4 1.7-1.5 2.9-.1.5-.1 1-.1 1.5 0 .4-.1.9-.2 1.4q-.1.2-.2.4c-.3.6-.7.9-1.3 1.3-.4.4-.9.6-1.3 1 .5.2 1.1.2 1.6.3.7 0 1.3.1 1.8.5.7.4 1.2.9 1.6 1.6.3.6.7 1.1 1.1 1.6.6.6 1.4.9 2.2 1.1l1.1.3-1.1.2c-1.3.3-2.1.8-2.8 1.8-.3.4-.5.8-.8 1.2s-.5.8-.9 1.1q-.2.2-.4.3c-.5.3-1.1.5-1.8.5-.5.1-1.1.1-1.6.2.4.4.9.7 1.3 1 .6.4 1 .8 1.3 1.4.4.7.5 1.4.5 2.2.1.6.1 1.3.2 1.9.3.8.7 1.5 1.3 2.1l.8.8-1-.4c-1.2-.4-2.2-.4-3.3.1-.5.2-.9.5-1.3.7-.5.2-.9.4-1.4.5q-.2.1-.4.1c-.7 0-1.2-.2-1.8-.5-.5-.2-1-.5-1.5-.6.1.5.4 1 .6 1.5.3.6.4 1.2.4 1.8 0 .8-.2 1.5-.6 2.2-.3.6-.6 1.1-.8 1.8-.2.8-.2 1.6.1 2.4l.3 1.1-.8-.9c-.8-.9-1.6-1.3-2.9-1.5-.4 0-.9 0-1.4-.1-.5 0-1 0-1.4-.2q-.3-.1-.4-.2c-.6-.3-1-.7-1.4-1.2-.3-.5-.6-1-1-1.4-.2.6-.2 1.1-.2 1.7-.1.6-.2 1.2-.6 1.8-.4.7-.9 1.1-1.6 1.5-.5.4-1.1.7-1.6 1.2-.6.6-.9 1.3-1.1 2.1l-.3 1.1-.2-1.1c-.2-1.2-.8-2-1.8-2.8-.3-.3-.8-.5-1.2-.8-.4-.2-.8-.5-1.1-.9q-.1-.1-.3-.3c-.3-.6-.4-1.2-.5-1.8 0-.6-.1-1.1-.2-1.7-.4.4-.7.9-1 1.4-.4.5-.8.9-1.4 1.2-.7.4-1.4.5-2.1.6-.7 0-1.3 0-2 .2-.8.2-1.5.7-2.1 1.3l-.8.8.4-1.1c.4-1.2.4-2.2-.1-3.3-.2-.4-.5-.8-.7-1.3-.2-.4-.4-.9-.5-1.3q0-.2 0-.5c0-.6.1-1.2.4-1.8.2-.5.5-1 .6-1.5-.5.1-1 .4-1.5.6-.6.3-1.1.5-1.8.5-.8-.1-1.5-.3-2.2-.7-.6-.3-1.1-.6-1.7-.8-.9-.2-1.7-.1-2.5.1l-1.1.3.9-.7c.9-.8 1.4-1.7 1.5-2.9.1-.5.1-1 .1-1.5s.1-1 .2-1.4q.1-.2.2-.4c.3-.6.7-1 1.3-1.4.4-.3.9-.6 1.3-1-.6-.1-1.1-.1-1.7-.2-.6 0-1.2-.2-1.7-.5-.7-.4-1.2-1-1.6-1.6s-.7-1.1-1.1-1.6c-.6-.6-1.4-1-2.2-1.2l-1.1-.3 1.1-.2c1.2-.2 2.1-.7 2.8-1.7.3-.4.5-.8.8-1.2.3-.5.5-.8.9-1.2q.2-.1.4-.2c.5-.4 1.1-.5 1.7-.5.6-.1 1.1-.1 1.7-.3-.4-.4-.9-.6-1.3-1-.6-.4-1-.7-1.3-1.3-.4-.7-.5-1.4-.5-2.2-.1-.7-.1-1.3-.2-1.9-.3-.9-.7-1.5-1.3-2.1l-.9-.8 1.1.4c1.2.4 2.2.3 3.3-.2.5-.2.9-.4 1.3-.6.4-.3.9-.5 1.4-.5q.2-.1.4-.1c.7 0 1.2.2 1.8.4.5.3 1 .5 1.5.7-.1-.6-.4-1-.6-1.6-.3-.6-.4-1.1-.4-1.8 0-.8.2-1.4.6-2.1.3-.6.6-1.2.8-1.8.2-.8.1-1.6-.1-2.4l-.3-1.2.8.9c.8 1 1.6 1.4 2.9 1.5.4.1.9.1 1.4.1s1 .1 1.4.3q.2 0 .4.1c.6.4 1 .8 1.4 1.3.3.5.6.9 1 1.3.1-.5.2-1 .2-1.6.1-.7.2-1.2.5-1.8.5-.7 1-1.1 1.7-1.6.5-.3 1.1-.6 1.5-1.1.6-.6 1-1.3 1.2-2.1zm-4.7 11.9-8.1 4.7-4.7 8v9.4l4.7 8.1 8.1 4.6h9.3l8.1-4.6 4.7-8.1v-9.4l-4.7-8-8.1-4.7zm18.3 2.8c.1-.7.4-1.3.7-1.9.2-.5.4-.9.3-1.4q0-.1 0-.3c0-.3-.2-.7-.4-1-.2-.5-.5-.9-.7-1.4q-.5-1-.5-2-.4.2-.9.3c-.7.2-1.4.2-2.2.2-.6.1-1.2.1-1.7.5-.5.2-.8.5-1.1.9-.4.6-.7 1.1-1.2 1.6q-.1.1-.1.1.3.7.9 1.2l.3.3q2.2-2.5 4.8-3.1l.1.1q.8 2.5-.2 5.7l.4.1q.7.2 1.4.2 0-.1.1-.1zm14.5-2c-1 .3-2 .4-3 .1-.7-.2-1.4-.6-2.1-.9-.9-.5-1.7-.8-2.6-.8s-1.5.2-2.2.5q-.5.3-1 .5.2-.5.5-1c.3-.7.5-1.4.5-2.2q0-.2-.1-.5c-.1-.6-.3-1.1-.6-1.6-.3-.6-.6-1.1-.8-1.6-.6-1.4-.7-2.6-.2-4l.5-1.3-1 1c-.7.7-1.5 1.3-2.5 1.6-.8.2-1.5.2-2.3.2-1 0-1.8.2-2.7.7-.7.4-1.2.9-1.6 1.5q-.3.4-.6.8-.1-.5-.1-1c-.1-.8-.2-1.4-.6-2.1q-.2-.3-.3-.5c-.4-.4-.9-.8-1.4-1.1s-1-.6-1.5-.9c-1.2-.9-1.9-1.9-2.1-3.4l-.3-1.4.8-3 .3 1.1c.4 1.3 1.1 2.1 2.3 2.9.5.3 1 .6 1.5.8.5.3 1 .6 1.4 1q.2.2.3.4c.5.6.7 1.1.8 1.8q0 .4.1.8.3-.3.5-.6c.5-.6.9-.9 1.6-1.2.8-.4 1.6-.4 2.6-.4.7 0 1.5 0 2.3-.1.9-.2 1.7-.6 2.4-1.2l.9-.7-.8 3 2.2-2.2-.3 1.1c-.3 1.2-.1 2.3.5 3.6.3.5.6 1 .9 1.5s.6 1 .7 1.6q.1.2.1.4c.1.8 0 1.3-.2 2q-.2.4-.3.8.4-.2.8-.3c.6-.3 1.2-.4 1.9-.3.9.1 1.6.5 2.4.9.7.4 1.4.9 2.1 1.1.9.4 1.8.4 2.7.2l1.1-.2-2.1 2.3zm-34-2.5c-.6-.5-.9-1.1-1.3-1.6-.3-.4-.6-.8-1-1q-.1-.1-.3-.1c-.3-.2-.7-.2-1.1-.2-.5 0-1 0-1.6-.1q-1.1-.1-1.9-.5-.1.4-.2.9c-.2.7-.6 1.3-.9 2-.3.6-.5 1.1-.5 1.7 0 .5.1 1 .3 1.4.3.7.6 1.2.8 1.9q0 .1 0 .1.7 0 1.4-.2l.4-.1q-1-3.2-.1-5.7 2.6.5 4.8 3l.3-.3q.6-.5 1-1.1-.1-.1-.1-.1zm-8.6 5.5q-.1 0-.2 0c-.7-.2-1.2-.5-1.9-.8-.4-.2-.8-.3-1.4-.3q-.1 0-.2 0c-.4.1-.8.2-1.1.4-.5.2-.9.5-1.4.7q-1 .5-2 .5.2.4.3.9c.2.8.2 1.5.3 2.2 0 .7.1 1.2.4 1.8.2.4.6.7 1 1 .5.4 1.1.7 1.6 1.2q0 .1.1.2.6-.4 1.1-1l.3-.3q-2.5-2.2-3-4.8v-.1q2.5-.8 5.7.2l.1-.4q.2-.7.3-1.4zm-2.1-14.6c.2 1 .3 2 .1 3-.3.8-.6 1.4-1 2.1-.4.9-.7 1.7-.8 2.7 0 .8.2 1.4.6 2.2q.2.4.4.9-.5-.2-.9-.4c-.8-.4-1.4-.6-2.2-.6q-.3 0-.6.1c-.5.1-1.1.3-1.6.6s-1 .6-1.6.8c-1.3.6-2.5.7-3.9.2l-1.4-.5 1 1c.8.7 1.3 1.5 1.6 2.5.2.8.2 1.6.2 2.4.1.9.2 1.7.7 2.6.4.7.9 1.2 1.5 1.6q.5.3.9.6-.5.1-1 .1c-.8.1-1.5.2-2.2.7q-.2.1-.4.3c-.5.3-.8.8-1.1 1.3-.4.5-.7 1-1 1.5-.9 1.2-1.9 1.9-3.4 2.1l-1.4.3-3-.8 1.2-.3c1.2-.3 2-1 2.8-2.3.3-.5.6-1 .9-1.5s.6-1 .9-1.4q.2-.2.4-.3c.6-.4 1.2-.6 1.8-.7q.4-.1.8-.2-.3-.3-.6-.5c-.5-.4-.9-.9-1.2-1.6-.3-.8-.4-1.6-.4-2.5 0-.8 0-1.6-.1-2.4-.1-.9-.6-1.7-1.1-2.4l-.8-.9 3 .8-2.2-2.2 1.2.3c1.2.3 2.3.2 3.5-.5.6-.3 1-.6 1.5-.9s1.1-.6 1.6-.7q.2-.1.5-.1c.7-.1 1.3 0 1.9.2q.4.2.8.3-.2-.4-.3-.8c-.2-.6-.4-1.2-.3-1.9.1-.9.5-1.6 1-2.4.4-.7.8-1.4 1.1-2.1.3-.9.3-1.8.2-2.6l-.2-1.2 2.2 2.2zm-2.4 33.8q-.1.1-.1.2c-.5.5-1 .8-1.6 1.2-.4.3-.7.6-1 1q0 .2-.1.3c-.1.3-.2.7-.2 1.1 0 .5 0 1.1-.1 1.6q-.1 1.1-.5 2 .5 0 .9.1c.8.2 1.4.6 2 .9s1.1.5 1.8.5c.5 0 .9-.1 1.3-.3.7-.3 1.2-.6 1.9-.8q.1 0 .2 0 0-.7-.3-1.4l-.1-.4q-3.2 1-5.7.2v-.1q.5-2.6 3-4.8l-.3-.3q-.5-.6-1.1-1zm33.5 7.8q0 0 .1.1c.7.1 1.2.4 1.9.7.4.2.9.3 1.4.3q.1 0 .2 0c.4-.1.8-.2 1.1-.4.5-.2.9-.5 1.4-.7q1-.5 2-.5-.2-.4-.3-.9c-.2-.7-.2-1.4-.3-2.2 0-.6-.1-1.2-.4-1.8-.2-.4-.6-.7-1-1-.5-.4-1.1-.7-1.6-1.2q0-.1-.1-.2-.6.4-1.1 1l-.3.3q2.5 2.2 3 4.8v.1q-2.5.8-5.7-.2l-.1.4q-.2.7-.2 1.4zm-17.3-32.2q.8-3.3 2.7-5.1h.1q2 1.8 2.7 5.1l.4-.1q.7-.2 1.4-.5-.1-.1-.1-.2c-.2-.7-.2-1.3-.3-2 0-.5-.1-.9-.4-1.4q-.1-.1-.1-.2c-.3-.3-.6-.5-.9-.7-.5-.3-.9-.5-1.3-.8q-.9-.7-1.5-1.5-.2.4-.6.7c-.5.5-1.1.9-1.8 1.3-.5.3-1 .7-1.3 1.2-.2.5-.3.9-.4 1.4 0 .7-.1 1.3-.3 2q0 .1 0 .2.6.3 1.3.5zm-2.4.7h.3l.4-.2q-.2-.1-.5-.3-.1.3-.2.5zm-7.8 4.5q-.2 0-.5 0 0 .3 0 .5l.3-.2zm-6.5 9.1c-.7.2-1.3.2-2 .2-.5.1-.9.2-1.4.4q-.1.1-.2.2c-.3.2-.5.6-.7.9-.3.4-.5.9-.8 1.3q-.7.9-1.5 1.4.4.3.7.6c.5.6.9 1.2 1.3 1.8s.7 1 1.2 1.3.9.4 1.4.4c.7.1 1.3.1 2 .3q.1 0 .2.1.3-.7.5-1.4l.1-.4q-3.3-.7-5.1-2.7 1.8-2 5.1-2.7l-.1-.4q-.2-.8-.5-1.4-.1 0-.2.1zm1.5-.8q-.2.1-.5.3.2.2.3.4l.2-.3zm-.2 9.7q-.1.1-.3.4.3.2.5.3v-.4zm4.6 10q0 .1 0 .1c-.2.7-.5 1.3-.8 1.9-.2.5-.3.9-.3 1.4q0 .1 0 .2c.1.4.3.8.4 1.1.3.5.5.9.8 1.4q.4 1 .5 2 .4-.2.8-.3c.8-.2 1.5-.2 2.3-.2.6-.1 1.1-.2 1.7-.5.4-.2.7-.5 1-.9.4-.6.7-1.2 1.3-1.6q0-.1.1-.1-.4-.7-.9-1.2l-.3-.3q-2.3 2.5-4.9 3.1v-.1q-.9-2.5.2-5.7l-.4-.1q-.8-.2-1.5-.2zm.1-1.5q0 .2 0 .5.3 0 .5 0l-.2-.3zm9 6.4c.3.7.3 1.3.3 2 .1.5.2 1 .4 1.4q.1.1.2.2c.2.3.6.5.9.7.4.3.9.6 1.3.9q.9.6 1.4 1.5.3-.4.6-.8c.6-.5 1.2-.8 1.8-1.3.6-.3 1-.6 1.3-1.2.3-.4.4-.9.4-1.4.1-.7.1-1.3.3-2q0 0 .1-.1-.7-.4-1.4-.5l-.4-.1q-.7 3.2-2.7 5-2-1.8-2.7-5l-.4.1q-.8.1-1.4.5 0 .1 0 .1zm-25-2.5 1.4-.4c1-.2 1.9-.3 2.9-.1.8.3 1.5.7 2.2 1 .8.5 1.6.8 2.6.8.8 0 1.5-.2 2.2-.6q.5-.2.9-.4-.2.5-.4.9c-.3.8-.5 1.4-.5 2.2q0 .3 0 .6c.1.5.4 1.1.6 1.6.3.5.6 1 .9 1.6.6 1.3.6 2.5.1 3.9l-.5 1.4 1-1c.7-.8 1.5-1.3 2.5-1.6.8-.2 1.6-.2 2.4-.2 1-.1 1.8-.2 2.6-.7.7-.4 1.2-.9 1.7-1.5q.3-.5.6-.9 0 .5.1 1c0 .8.2 1.5.6 2.2q.1.2.3.4c.4.5.9.8 1.4 1.1.5.4 1 .7 1.5 1 1.2.9 1.8 1.9 2.1 3.4l.2 1.4-.8 3-.3-1.2c-.3-1.2-1-2-2.2-2.8-.5-.3-1-.6-1.5-.9-.5-.2-1-.6-1.4-.9q-.2-.2-.4-.4c-.4-.6-.6-1.1-.7-1.8q-.1-.4-.1-.8-.3.3-.6.6c-.4.5-.8.9-1.5 1.2-.8.3-1.6.4-2.6.4-.8 0-1.5 0-2.3.1-1 .2-1.7.6-2.4 1.1l-.9.8.7-3-2.2 2.2.4-1.1c.3-1.3.1-2.3-.6-3.6-.3-.5-.6-1-.9-1.5s-.5-1-.7-1.6q0-.2-.1-.5c-.1-.7 0-1.3.3-1.9q.1-.4.3-.8-.4.2-.8.3c-.6.2-1.2.4-2 .3s-1.6-.5-2.4-1c-.7-.4-1.3-.8-2-1-1-.4-1.8-.4-2.7-.3l-1.2.2zm24.3 1.1q.1.2.3.4.2-.1.4-.2l-.3-.2zm11.1 1.1c.5.5.8 1 1.2 1.6.3.4.6.7 1 1q.2 0 .3.1c.3.1.7.1 1.1.1.5.1 1 .1 1.6.1q1.1.1 2 .6 0-.5.1-.9c.2-.8.6-1.4.9-2.1.3-.5.5-1.1.5-1.7 0-.5-.1-.9-.3-1.4-.3-.6-.6-1.2-.8-1.9q0 0 0-.1-.7 0-1.4.2l-.4.1q1 3.2.2 5.8h-.1q-2.6-.6-4.8-3l-.3.2q-.6.6-1 1.2.1 0 .2.1zm-1.4-.9q.1.1.4.2.2-.2.3-.4h-.4zm12.4 11.3-.3-1.4c-.3-1-.4-1.9-.1-2.9.2-.8.6-1.5.9-2.2.5-.8.8-1.6.8-2.6 0-.8-.2-1.5-.5-2.2q-.3-.5-.5-.9.5.2 1 .4c.7.3 1.3.5 2.2.5q.2 0 .5 0c.6-.1 1.1-.4 1.6-.6.5-.3 1.1-.6 1.6-.9 1.4-.6 2.6-.6 4-.1l1.3.5-1-1c-.7-.7-1.3-1.5-1.6-2.5-.2-.8-.2-1.6-.2-2.4-.1-1-.2-1.8-.7-2.6-.4-.7-.9-1.2-1.5-1.7q-.4-.3-.9-.6.5 0 1.1-.1c.8 0 1.4-.2 2.1-.6q.3-.1.5-.3c.4-.4.8-.9 1.1-1.4s.6-1 .9-1.5c.9-1.2 1.9-1.8 3.4-2.1l1.4-.2 3 .8-1.1.3c-1.3.3-2.1 1-2.9 2.2-.3.5-.6 1-.8 1.5-.3.5-.6 1-1 1.4q-.2.2-.4.4c-.6.4-1.1.6-1.8.7q-.4.1-.8.1.3.3.6.6c.5.4.9.8 1.2 1.5.4.8.4 1.6.4 2.6 0 .8 0 1.5.1 2.3.2 1 .6 1.7 1.2 2.4l.7.9-3-.7 2.2 2.2-1.1-.4c-1.2-.3-2.3-.1-3.6.6-.5.3-1 .6-1.5.9s-1 .5-1.6.7q-.2 0-.4.1c-.8.1-1.3 0-2-.3q-.4-.1-.8-.3.2.4.3.8c.3.6.4 1.2.3 2s-.5 1.6-.9 2.4c-.4.7-.9 1.3-1.1 2-.4 1-.4 1.8-.2 2.7l.2 1.2zm-4-16q.2 0 .5 0 0-.3 0-.5l-.3.2zm6.5-9.1c.7-.2 1.3-.2 2-.3.5 0 .9-.1 1.3-.4q.2 0 .3-.1c.2-.3.5-.6.7-.9.3-.4.5-.9.8-1.3q.7-.9 1.5-1.5-.4-.2-.7-.6c-.6-.5-.9-1.1-1.3-1.8-.4-.5-.7-.9-1.3-1.3-.4-.2-.8-.3-1.3-.4-.7 0-1.3 0-2-.3q-.1 0-.2 0-.3.6-.5 1.4l-.1.4q3.3.7 5 2.7-1.7 2-5 2.7l.1.4q.2.7.5 1.4.1-.1.2-.1zm-1.5.8q.2-.1.4-.3-.1-.2-.2-.4l-.2.3zm1-11q0 0 .1-.1c.5-.5 1-.8 1.6-1.2.4-.3.7-.6 1-1.1q0-.1.1-.2c.1-.3.1-.8.1-1.1.1-.5.1-1.1.1-1.6q.1-1.1.6-2-.5 0-.9-.1c-.8-.2-1.4-.6-2.1-.9-.5-.3-1.1-.5-1.7-.5-.5-.1-.9.1-1.4.3-.6.3-1.2.6-1.9.7q0 .1-.1.1 0 .7.2 1.4l.1.4q3.2-1 5.8-.2v.1q-.6 2.6-3 4.8l.2.3q.6.6 1.2.9zm-.8 1.3q.1-.2.2-.4-.2-.2-.4-.3v.4zm-4.7-8.5q0-.2 0-.5-.3 0-.5 0l.2.3zm-8.3-5q-.1-.2-.3-.4-.2.1-.4.2l.3.2zm-31.8.6c.3.3.8.3 1.1 0s.3-.8 0-1.1-.8-.3-1.1 0-.3.8 0 1.1zm8-9c-.3.3-.3.7 0 1s.8.3 1.1 0 .3-.7 0-1-.8-.3-1.1 0zm-1.2 3.9c.3.3.8.3 1.1 0s.3-.8 0-1c-.3-.3-.8-.3-1.1 0-.3.2-.3.7 0 1zm-3.9 3.9c.3.3.8.3 1.1 0s.3-.8 0-1.1-.8-.3-1.1 0-.3.8 0 1.1zm-8 16.8c.4.1.8-.1.9-.5s-.1-.8-.5-.9-.8.1-.9.5c-.2.4.1.8.5.9zm2.9-10.9c.4.2.8-.1.9-.5.2-.4-.1-.8-.5-.9s-.8.1-.9.5.1.8.5.9zm.4 3.2c.4.1.8-.2 1-.6.1-.4-.2-.8-.6-.9s-.8.1-.9.5.1.8.5 1zm-1.4 5.3c.4.1.8-.2.9-.6s-.1-.8-.5-.9-.8.1-.9.5.1.8.5 1zm-4.2 4.1 1.4.4c1 .3 1.9.7 2.6 1.4.6.6 1 1.3 1.4 1.9.5.8 1 1.5 1.9 2 .7.4 1.4.6 2.2.6q.5.1 1 .1-.4.3-.9.6c-.6.5-1.1.9-1.5 1.7q-.1.2-.2.4c-.2.6-.3 1.2-.3 1.8-.1.5-.1 1.1-.1 1.7-.2 1.5-.7 2.6-1.9 3.5l-1 1-3 .8.8-.8c.9-.9 1.3-2 1.3-3.4 0-.6 0-1.2 0-1.8 0-.5 0-1.1.2-1.7q0-.2.1-.4c.3-.7.7-1.1 1.2-1.6q.3-.2.7-.5-.5-.1-.9-.1c-.6-.2-1.2-.3-1.8-.8-.7-.5-1.2-1.2-1.6-2-.4-.7-.8-1.4-1.2-2-.7-.7-1.4-1.2-2.2-1.5l-1.2-.4zm5.7 14.4c.4-.1.6-.5.5-.9-.1-.5-.5-.7-.9-.6-.5.1-.7.5-.6.9.1.5.5.7 1 .6zm-3.9-11.5c.1.5.5.7.9.6s.7-.5.6-.9-.6-.7-1-.6-.6.5-.5.9zm2.8 3.1c.4-.1.7-.5.6-1-.1-.4-.6-.6-1-.5s-.6.5-.5.9.5.7.9.6zm1.5 5.3c.4-.1.6-.5.5-1-.1-.4-.5-.6-.9-.5s-.7.5-.6.9.5.7 1 .6zm10.5 15.3c.3-.3.3-.7 0-1s-.8-.3-1.1 0-.3.7 0 1 .8.3 1.1 0zm-8-7.9c.3-.3.3-.8 0-1.1s-.7-.3-1 0-.3.8 0 1.1.7.3 1 0zm2.9 1.2c.3-.3.3-.8 0-1.1s-.7-.3-1 0-.3.8 0 1.1.7.3 1 0zm3.9 3.9c.3-.3.3-.8 0-1.1s-.8-.3-1.1 0-.3.8 0 1.1.8.3 1.1 0zm15.9 8.5c.4.1.8-.1.9-.5.2-.4-.1-.8-.5-.9-.4-.2-.8.1-.9.5s.1.8.5.9zm-9.9-3.4c.1-.4-.2-.9-.6-1s-.8.2-.9.6.1.8.5.9.8-.1 1-.5zm3.1-.4c.1-.4-.2-.9-.6-1s-.8.2-.9.6.1.8.5.9.8-.1 1-.5zm5.3 1.4c.1-.4-.2-.8-.6-1-.4-.1-.8.2-.9.6s.1.8.5.9.9-.1 1-.5zm4.2 4.1.3-1.3c.3-1 .7-1.9 1.4-2.6.6-.6 1.3-1 1.9-1.4.8-.5 1.5-1.1 2-1.9.4-.7.6-1.4.6-2.2q.1-.5.1-1 .3.4.6.8c.5.7 1 1.2 1.7 1.6q.2.1.4.2c.6.2 1.2.3 1.8.3s1.2 0 1.7.1c1.5.2 2.6.7 3.6 1.8l.9 1.1.8 3-.8-.8c-.9-.9-2-1.3-3.4-1.3-.6-.1-1.2 0-1.8 0-.5 0-1.1 0-1.7-.2q-.2 0-.4-.1c-.7-.3-1.1-.7-1.6-1.2q-.2-.4-.5-.7-.1.4-.1.9c-.2.6-.3 1.2-.8 1.8-.5.7-1.2 1.1-2 1.6-.7.4-1.4.7-2 1.2-.7.7-1.2 1.4-1.5 2.2l-.4 1.2zm14.4-5.7c-.1-.4-.5-.6-.9-.5s-.7.5-.6.9.5.7 1 .6c.4-.1.6-.6.5-1zm-11.4 3.9c.4-.1.6-.5.5-.9-.1-.5-.5-.7-.9-.6s-.7.5-.6.9c.1.5.6.7 1 .6zm3-2.9c-.1-.4-.5-.6-.9-.5-.5.1-.7.5-.6.9s.5.7.9.6c.5-.1.7-.5.6-1zm5.3-1.4c-.1-.4-.5-.6-.9-.5-.5.1-.7.5-.6.9s.5.7.9.6c.4-.2.7-.6.6-1zm15.4-10.5c-.3-.3-.8-.3-1.1 0s-.3.7 0 1 .8.3 1.1 0 .3-.7 0-1zm-8 7.9c-.3-.3-.8-.3-1.1 0s-.3.8 0 1.1.8.3 1.1 0 .3-.8 0-1.1zm1.2-2.9c-.3-.3-.8-.3-1.1 0s-.3.8 0 1.1.8.3 1.1 0 .3-.8 0-1.1zm3.9-3.8c-.3-.3-.8-.3-1.1 0s-.3.7 0 1 .8.3 1.1 0 .3-.7 0-1zm8.5-15.9c.1-.4-.1-.9-.5-1s-.8.2-.9.6.1.8.5.9.8-.1.9-.5zm-3.4 9.9c-.4-.1-.9.2-1 .6s.2.8.6.9.8-.1.9-.5-.1-.9-.5-1zm-.4-3.1c-.4-.1-.9.2-1 .6s.2.8.6.9.8-.1.9-.5c.1-.5-.1-.9-.5-1zm1.4-5.3c-.4-.1-.8.2-.9.6-.2.4.1.8.5.9s.8-.1.9-.5c.1-.5-.1-.9-.5-1zm4.1-4.2-1.3-.3c-1-.3-1.9-.7-2.6-1.4-.6-.6-1-1.3-1.4-2-.5-.8-1.1-1.4-1.9-1.9-.7-.4-1.4-.6-2.2-.7q-.5 0-1 0 .4-.3.9-.6c.6-.5 1.1-1 1.5-1.7q.1-.2.2-.5c.2-.5.3-1.1.3-1.7s0-1.2.1-1.8c.2-1.4.7-2.5 1.8-3.5l1.1-.9 3-.8-.8.8c-.9.9-1.3 1.9-1.3 3.4-.1.6 0 1.2 0 1.8 0 .5 0 1.1-.2 1.6q0 .3-.1.5c-.3.7-.7 1.1-1.2 1.5q-.3.3-.7.6.4.1.9.1c.6.1 1.2.3 1.8.8.7.5 1.1 1.2 1.6 2 .4.7.7 1.4 1.2 2 .7.7 1.4 1.2 2.2 1.5l1.2.4zm-5.7-14.4c-.4.1-.6.5-.5.9s.5.7.9.6c.4-.2.7-.6.6-1s-.6-.6-1-.5zm3.9 11.4c-.1-.4-.5-.6-.9-.5s-.7.5-.6.9.5.7 1 .6c.4-.2.6-.6.5-1zm-2.8-3c-.5.1-.7.5-.6.9s.5.7.9.6c.5-.1.7-.6.6-1s-.5-.6-.9-.5zm-1.5-5.3c-.4.1-.6.5-.5.9s.5.7.9.6.7-.6.6-1-.6-.6-1-.5zm-10.5-15.4c-.3.3-.3.8 0 1.1s.7.3 1 0 .3-.8 0-1.1-.7-.3-1 0zm7.9 8c-.2.3-.2.8 0 1.1.3.3.8.3 1.1 0s.3-.8 0-1.1-.8-.3-1.1 0zm-2.8-1.2c-.3.3-.3.8 0 1.1.2.3.7.3 1 0s.3-.8 0-1.1-.8-.3-1 0zm-3.9-3.9c-.3.3-.3.8 0 1.1s.8.3 1 0c.3-.3.3-.8 0-1.1-.2-.3-.7-.3-1 0zm-16.9-8c-.1.4.2.8.6.9s.8-.1.9-.5-.1-.8-.5-.9c-.4-.2-.9.1-1 .5zm10.9 2.9c-.1.4.2.8.6.9.4.2.8-.1.9-.5s-.1-.8-.5-.9-.9.1-1 .5zm-3.1.4c-.1.4.2.8.6.9.4.2.8-.1.9-.5s-.1-.8-.5-.9-.9.1-1 .5zm-5.3-1.4c-.1.4.2.8.6.9s.8-.1.9-.5-.1-.8-.5-.9c-.4-.2-.9.1-1 .5zm-18 .5c-.4.1-.7.6-.6 1s.6.6 1 .5.6-.5.5-.9-.5-.7-.9-.6zm10.9-2.9c-.4.1-.7.5-.6.9s.6.7 1 .6.6-.6.5-1-.5-.6-.9-.5zm-2.5 1.9c-.4.1-.7.5-.6.9.2.4.6.7 1 .6s.6-.5.5-1c-.1-.4-.5-.6-.9-.5zm-5.9 2.4c.2.4.6.6 1 .5s.6-.5.5-.9-.5-.7-.9-.6-.7.6-.6 1z" fill="#f7aa55" fill-rule="evenodd"/><path d="m857.5 107.9-.3 1.4c-.3.9-.7 1.8-1.4 2.5-.6.6-1.3 1-1.9 1.4-.8.5-1.5 1-2 1.9-.4.7-.5 1.3-.6 2.1q0 .5-.1 1-.3-.4-.6-.8c-.4-.7-.9-1.2-1.6-1.5q-.2-.2-.5-.3c-.5-.2-1.1-.2-1.7-.2-.6-.1-1.1-.1-1.7-.1-1.5-.2-2.5-.7-3.5-1.9l-.9-1-.8-3 .8.8c.9.9 1.9 1.3 3.3 1.4.6 0 1.2-.1 1.8-.1.5 0 1.1.1 1.6.2q.3 0 .5.1c.7.3 1.1.7 1.5 1.2q.3.3.6.7 0-.4.1-.9c.1-.6.3-1.2.7-1.7.6-.7 1.2-1.2 2-1.7.7-.4 1.4-.7 2-1.2.7-.6 1.2-1.3 1.5-2.1l.4-1.2zm0 4.6.2 1.1c.2 1.2.7 2.1 1.7 2.8.4.3.8.5 1.2.8.4.2.8.5 1.1.9q.2.1.3.3c.3.6.4 1.1.5 1.8 0 .5.1 1.1.2 1.6.4-.4.7-.8 1-1.3.4-.5.8-.9 1.3-1.3.7-.3 1.4-.5 2.2-.5.6 0 1.3 0 1.9-.2.8-.2 1.5-.7 2.1-1.3l.8-.8-.4 1.1c-.4 1.2-.4 2.1.1 3.2.2.5.4.9.7 1.3.2.4.4.9.5 1.4q0 .2 0 .4c0 .6-.1 1.2-.4 1.8-.2.5-.5.9-.6 1.5.5-.2 1-.4 1.5-.6.6-.3 1.1-.5 1.8-.5.8 0 1.4.3 2.1.6.6.3 1.1.7 1.8.8.8.3 1.6.2 2.4 0l1.1-.3-.9.7c-.9.8-1.4 1.7-1.5 2.9-.1.4-.1.9-.1 1.4s-.1 1-.2 1.4q-.1.2-.2.4c-.3.6-.7 1-1.3 1.3-.4.4-.9.6-1.3 1 .6.2 1.1.2 1.7.3.6 0 1.2.1 1.7.5.7.4 1.1.9 1.6 1.6.3.5.6 1.1 1.1 1.5.6.6 1.3 1 2.1 1.2l1.1.3-1.1.2c-1.2.2-2 .7-2.7 1.7-.3.4-.6.8-.8 1.2-.3.4-.6.8-.9 1.1q-.2.2-.4.3c-.5.3-1.1.4-1.7.5-.6 0-1.1.1-1.7.2.4.4.9.7 1.3 1 .6.4 1 .8 1.3 1.3.4.7.5 1.4.5 2.2.1.6.1 1.3.2 1.9.2.8.7 1.5 1.3 2.1l.8.8-1.1-.4c-1.1-.4-2.1-.4-3.2.1-.4.2-.8.4-1.3.7-.4.2-.8.4-1.3.5q-.2 0-.4 0c-.7 0-1.2-.1-1.8-.4-.5-.2-1-.5-1.5-.6.1.5.4 1 .6 1.5.3.6.4 1.1.4 1.8 0 .8-.2 1.4-.6 2.1-.3.6-.6 1.1-.8 1.8-.2.8-.1 1.6.1 2.4l.3 1.1-.8-.9c-.7-.9-1.6-1.4-2.8-1.5-.5-.1-1-.1-1.5-.1-.4 0-.9-.1-1.4-.2q-.2-.1-.4-.2c-.5-.3-.9-.7-1.3-1.3-.3-.4-.6-.9-1-1.3-.1.6-.2 1.1-.2 1.7-.1.6-.2 1.2-.5 1.7-.4.7-1 1.1-1.6 1.6-.6.3-1.1.6-1.6 1.1-.6.6-.9 1.3-1.1 2.1l-.3 1.1-.2-1.1c-.2-1.2-.8-2-1.8-2.7-.3-.3-.8-.6-1.2-.8-.4-.3-.8-.6-1.1-.9q-.1-.2-.2-.4c-.4-.5-.5-1.1-.5-1.7-.1-.6-.1-1.1-.3-1.7-.4.4-.6.9-1 1.3-.3.6-.7 1-1.3 1.3-.7.4-1.4.5-2.1.5-.7.1-1.3.1-2 .2-.8.2-1.4.7-2 1.3l-.8.8.4-1.1c.4-1.1.3-2.1-.2-3.2-.2-.4-.4-.8-.6-1.3-.2-.4-.4-.8-.5-1.3q-.1-.2-.1-.4c0-.7.2-1.2.5-1.8.2-.5.4-1 .6-1.5-.6.1-1 .4-1.5.6-.6.3-1.2.4-1.8.4-.8 0-1.5-.2-2.1-.6-.6-.3-1.2-.6-1.8-.8-.8-.2-1.6-.1-2.4.1l-1.1.3.9-.8c.9-.7 1.3-1.6 1.5-2.8 0-.5 0-1 0-1.5.1-.4.1-.9.3-1.4q0-.2.1-.4c.4-.5.8-.9 1.3-1.3.5-.3.9-.6 1.3-1-.5-.1-1.1-.2-1.6-.2-.7-.1-1.2-.2-1.8-.5-.7-.4-1.1-1-1.5-1.6s-.7-1.1-1.2-1.6c-.5-.6-1.3-.9-2.1-1.1l-1.1-.3 1.1-.2c1.2-.2 2.1-.8 2.8-1.8.3-.3.5-.8.8-1.2.2-.4.5-.8.9-1.1q.1-.1.3-.2c.6-.4 1.1-.5 1.8-.5.5-.1 1.1-.1 1.6-.3-.4-.4-.8-.6-1.3-1-.5-.3-.9-.7-1.3-1.3-.3-.7-.5-1.4-.5-2.1s0-1.3-.2-2c-.2-.8-.7-1.4-1.3-2l-.8-.8 1.1.4c1.2.4 2.1.3 3.2-.2.5-.2.9-.4 1.3-.6s.9-.4 1.4-.5q.2-.1.4-.1c.6 0 1.2.2 1.8.5.5.2.9.4 1.5.6-.2-.6-.4-1-.6-1.5-.3-.6-.5-1.2-.5-1.8 0-.8.3-1.5.6-2.1s.7-1.2.8-1.8c.3-.8.2-1.6 0-2.4l-.3-1.1.7.9c.8.9 1.7 1.3 2.9 1.5h1.4c.5.1 1 .1 1.4.3q.2 0 .4.1c.6.4 1 .8 1.3 1.3.4.5.6.9 1 1.3.2-.5.2-1.1.3-1.6 0-.7.1-1.2.5-1.8.4-.7.9-1.1 1.6-1.5.5-.4 1.1-.7 1.5-1.2.6-.5 1-1.3 1.2-2.1zm-4.7 11.8-8 4.6-4.6 8v9.2l4.6 8 8 4.6h9.2l8-4.6 4.6-8v-9.2l-4.6-8-8-4.6zm18 2.9q0-.1.1-.1c.1-.7.4-1.3.7-1.9.2-.4.3-.8.3-1.4q0-.1 0-.2c0-.4-.2-.7-.4-1.1s-.5-.9-.7-1.4q-.4-.9-.5-1.9-.4.2-.9.3c-.7.2-1.4.2-2.2.2-.6.1-1.1.1-1.7.4-.4.3-.7.6-1 1-.4.6-.7 1.1-1.2 1.6q-.1 0-.1.1.3.6.9 1.1l.3.3q2.2-2.5 4.8-3 .8 2.5-.2 5.7l.4.1q.7.2 1.4.2zm14.4-2c-.9.2-1.9.3-2.9 0-.8-.2-1.4-.6-2.1-.9-.9-.4-1.7-.7-2.6-.8-.8 0-1.5.2-2.2.6q-.5.2-.9.4.2-.5.4-.9c.4-.7.5-1.4.5-2.2q0-.3 0-.5c-.1-.6-.4-1.1-.6-1.6-.3-.6-.6-1.1-.8-1.6-.6-1.3-.7-2.5-.2-3.9l.5-1.3-1 1c-.7.7-1.5 1.2-2.5 1.5-.7.2-1.5.2-2.3.2-.9.1-1.8.2-2.6.7-.7.4-1.2.9-1.6 1.5q-.3.4-.6.9-.1-.5-.1-1.1c-.1-.7-.2-1.4-.6-2.1q-.2-.2-.3-.4c-.4-.5-.9-.8-1.4-1.1s-1-.6-1.5-1c-1.1-.8-1.8-1.8-2-3.3l-.3-1.4.8-2.9.3 1.1c.3 1.2 1 2 2.2 2.8.5.3 1 .6 1.5.8.5.3 1 .6 1.4 1q.2.2.3.4c.4.5.6 1.1.7 1.7q.1.5.2.9.2-.3.5-.7c.4-.5.9-.9 1.5-1.1.9-.4 1.7-.5 2.6-.4.8 0 1.5 0 2.3-.1.9-.2 1.7-.6 2.4-1.2l.9-.7-.8 3 2.2-2.2-.3 1.1c-.4 1.2-.2 2.3.5 3.5.3.6.6 1 .9 1.5.2.5.5 1 .7 1.6q0 .2.1.4c.1.8-.1 1.3-.3 1.9q-.1.4-.3.8.4-.1.8-.3c.6-.2 1.2-.3 1.9-.2.9.1 1.6.4 2.4.9.7.4 1.3.8 2 1.1.9.3 1.8.3 2.7.2l1.1-.2-2.1 2.2zm-33.5-2.4q-.1 0-.1-.1c-.5-.5-.9-1-1.3-1.6-.3-.4-.5-.7-1-.9q-.1-.1-.2-.1c-.4-.2-.8-.2-1.1-.2-.5 0-1.1 0-1.6-.1q-1.1-.1-1.9-.5-.1.4-.2.9c-.2.7-.5 1.3-.9 2-.3.5-.5 1-.5 1.7 0 .5.1.9.3 1.3.3.7.6 1.2.8 1.9q0 .1 0 .1.7 0 1.4-.2l.4-.1q-1-3.1-.2-5.6l.1-.1q2.6.6 4.8 3l.3-.3q.5-.5.9-1.1zm-8.6 5.4q-.1 0-.2 0c-.7-.2-1.2-.5-1.8-.8-.5-.2-.9-.3-1.4-.3q-.1 0-.3 0c-.3.1-.7.2-1 .4-.5.2-.9.5-1.4.7q-1 .5-2 .5.2.4.4.9c.1.7.1 1.4.2 2.2 0 .6.1 1.1.4 1.7.2.4.6.7 1 1 .5.4 1.1.7 1.5 1.2q.1.1.1.2.7-.4 1.2-1l.2-.2q-2.4-2.3-2.9-4.8v-.1q2.5-.8 5.6.2l.1-.4q.3-.7.3-1.4zm-2.1-14.4c.3 1 .4 1.9.1 2.9-.2.8-.6 1.4-1 2.1-.4.9-.7 1.7-.7 2.6 0 .8.2 1.5.5 2.2q.2.5.5.9-.5-.2-1-.4c-.7-.3-1.3-.5-2.1-.5q-.3 0-.6 0c-.5.1-1.1.4-1.6.6-.5.3-1 .6-1.5.8-1.4.6-2.6.7-4 .2l-1.3-.5 1 1c.7.7 1.3 1.5 1.6 2.5.2.8.2 1.5.2 2.3 0 1 .2 1.8.7 2.6.3.7.8 1.2 1.5 1.6q.4.3.8.6-.5.1-1 .1c-.8.1-1.4.2-2.1.7q-.3.1-.5.3c-.4.3-.7.8-1.1 1.3-.3.5-.6 1-.9 1.5-.9 1.2-1.9 1.8-3.3 2.1l-1.4.2-3-.8 1.1-.3c1.3-.3 2.1-1 2.9-2.2.3-.5.5-1 .8-1.5s.6-1 1-1.4q.1-.1.3-.3c.6-.4 1.2-.6 1.8-.7q.4-.1.8-.2-.3-.2-.6-.5c-.5-.4-.9-.9-1.2-1.5-.3-.8-.4-1.6-.4-2.6 0-.7.1-1.5-.1-2.3-.1-.9-.5-1.7-1.1-2.3l-.8-1 3 .8-2.2-2.1 1.2.3c1.2.3 2.2.1 3.5-.6.5-.2 1-.6 1.5-.8.5-.3 1-.6 1.5-.7q.3-.1.5-.1c.7-.1 1.3 0 1.9.2q.4.2.8.3-.2-.4-.3-.8c-.2-.6-.4-1.2-.3-1.9.1-.9.5-1.6 1-2.4.4-.7.8-1.3 1-2 .4-.9.4-1.8.2-2.6l-.2-1.2 2.3 2.1zm-2.4 33.5q-.1.1-.1.1c-.5.6-1 .9-1.6 1.3-.4.3-.7.6-1 1q0 .1-.1.2c-.1.4-.1.8-.2 1.1v1.6q-.1 1.1-.6 2 .5 0 .9.1c.8.2 1.4.6 2 .9s1.1.5 1.7.5c.5 0 .9-.1 1.4-.3.6-.3 1.2-.6 1.9-.8q0 0 .1 0 0-.7-.2-1.4l-.1-.4q-3.2 1-5.7.2v-.1q.5-2.5 3-4.8l-.3-.3q-.5-.5-1.1-.9zm5.3 8.6q0 .1 0 .2c-.1.7-.4 1.2-.7 1.8-.2.5-.4.9-.4 1.4q0 .1.1.3c0 .3.2.7.4 1 .2.5.5.9.7 1.4q.4 1 .5 2 .4-.2.8-.3c.8-.2 1.5-.2 2.2-.3.7 0 1.2-.1 1.8-.4.4-.2.7-.5 1-1 .4-.5.7-1 1.2-1.5q.1-.1.1-.1-.4-.6-.9-1.1l-.3-.3q-2.2 2.4-4.8 2.9-.9-2.5.2-5.6l-.4-.1q-.7-.2-1.5-.3zm27.7-.9q.1 0 .2 0c.7.2 1.2.5 1.9.8.4.2.8.3 1.3.3q.1 0 .3 0c.3-.1.7-.3 1-.4.5-.3.9-.5 1.4-.7q1-.5 2-.5-.2-.4-.3-.9c-.2-.7-.2-1.4-.3-2.2 0-.6-.1-1.2-.4-1.7-.2-.4-.5-.7-1-1-.5-.4-1-.7-1.5-1.3q-.1 0-.1-.1-.6.4-1.1.9l-.3.3q2.4 2.3 3 4.8l-.1.1q-2.5.8-5.6-.2l-.1.4q-.2.7-.3 1.4zm-17-31.9q.7-3.2 2.7-4.9 2 1.7 2.7 4.9l.4-.1q.7-.1 1.4-.5-.1 0-.1-.1c-.2-.7-.2-1.3-.3-2 0-.5-.1-.9-.4-1.3q0-.2-.1-.3c-.3-.2-.6-.5-.9-.7-.4-.2-.9-.5-1.3-.8q-.9-.6-1.4-1.5-.3.4-.6.7c-.6.6-1.2.9-1.8 1.3-.5.4-1 .7-1.3 1.3-.2.4-.3.8-.4 1.3 0 .7-.1 1.3-.3 2q0 .1 0 .1.6.4 1.3.5zm-2.4.7h.4l.3-.1q-.2-.1-.5-.3-.1.3-.2.4zm-7.7 4.5q-.2 0-.5 0 0 .3 0 .5l.3-.2zm-6.4 8.9c-.7.3-1.3.3-2 .3-.5.1-.9.2-1.3.4q-.1.1-.2.2c-.3.2-.5.6-.7.9-.3.4-.6.8-.9 1.3q-.6.9-1.4 1.4.3.2.7.6c.5.5.9 1.1 1.3 1.8.3.5.6.9 1.2 1.2.4.3.8.4 1.3.4.7.1 1.3.1 2 .3q.1 0 .2.1.3-.7.5-1.4l.1-.4q-3.3-.7-5-2.6v-.1q1.7-2 5-2.7l-.1-.3q-.2-.8-.5-1.4-.1 0-.2 0zm1.5-.7q-.2.1-.5.3.2.2.3.4l.2-.3zm-.2 9.5q-.1.2-.3.5.3.1.5.2v-.3zm-11.2 12.3 1.4-.4c.9-.3 1.9-.4 2.9-.1.7.2 1.4.6 2.1 1 .9.4 1.6.7 2.6.7.8 0 1.5-.2 2.2-.5q.4-.2.9-.4-.2.4-.4.9c-.4.7-.6 1.4-.6 2.2q0 .2.1.5c.1.5.3 1.1.6 1.6s.6 1 .8 1.6c.6 1.3.7 2.5.2 3.9l-.5 1.3 1-1c.7-.7 1.5-1.3 2.5-1.5.7-.3 1.5-.2 2.3-.3.9 0 1.7-.2 2.6-.6.7-.4 1.2-.9 1.6-1.6q.3-.4.6-.8 0 .5.1 1c.1.8.2 1.5.6 2.1q.2.3.3.5c.4.4.9.8 1.4 1.1.4.3 1 .6 1.4.9 1.2.9 1.9 1.9 2.1 3.3l.3 1.4-.8 3-.3-1.1c-.3-1.2-1-2.1-2.2-2.8-.5-.3-1-.6-1.5-.9s-1-.6-1.4-1q-.2-.1-.3-.3c-.5-.6-.7-1.1-.8-1.8q0-.4-.1-.8-.3.3-.5.6c-.5.5-.9.9-1.6 1.2-.8.3-1.6.4-2.5.4-.8 0-1.5 0-2.3.1-1 .1-1.7.6-2.4 1.1l-.9.8.8-3-2.2 2.2.3-1.2c.3-1.2.2-2.2-.5-3.5-.3-.5-.6-1-.9-1.5s-.5-1-.7-1.5q-.1-.2-.1-.5c-.1-.7 0-1.3.3-1.9q.1-.4.3-.8-.4.2-.8.3c-.6.3-1.2.4-1.9.3-.9-.1-1.6-.5-2.4-.9-.7-.4-1.3-.9-2.1-1.1-.9-.4-1.7-.4-2.6-.2l-1.2.2zm15.8-3.9q0 .2 0 .5.3 0 .5 0l-.2-.4zm9 6.4c.2.7.2 1.3.3 2 0 .5.1.9.4 1.4q0 .1.1.2c.3.3.6.5.9.7.4.3.9.5 1.3.8q.9.7 1.4 1.5.3-.4.6-.7c.6-.5 1.2-.9 1.8-1.3.5-.3 1-.7 1.3-1.2.2-.5.3-.9.4-1.4 0-.7.1-1.3.3-2q0 0 0-.1-.6-.3-1.3-.5l-.4-.1q-.7 3.2-2.7 5-2-1.8-2.7-5l-.4.1q-.7.2-1.4.5.1.1.1.1zm-.7-1.4q.1.2.2.4.3-.1.4-.2l-.3-.2zm11 1.1c.5.4.8 1 1.2 1.5.3.4.6.8 1 1q.1.1.3.1c.3.1.7.2 1.1.2.5 0 1 0 1.5.1q1.1.1 2 .5 0-.4.1-.9c.2-.7.6-1.3.9-2 .3-.6.5-1.1.5-1.7 0-.5-.1-.9-.3-1.4-.3-.6-.6-1.1-.7-1.8q-.1-.1-.1-.2-.7.1-1.4.3l-.4.1q1 3.1.2 5.6-2.6-.5-4.8-2.9l-.3.2q-.6.6-.9 1.2 0 0 .1.1zm-1.4-.9q.2.1.4.2.2-.2.3-.4h-.4zm12.3 11.1-.4-1.3c-.2-1-.3-1.9 0-2.9.2-.8.6-1.5.9-2.2.4-.8.7-1.6.8-2.5 0-.8-.2-1.5-.6-2.2q-.2-.5-.4-.9.5.2.9.4c.7.3 1.4.5 2.2.5q.3 0 .5 0c.6-.1 1.1-.4 1.6-.6.6-.3 1.1-.6 1.6-.8 1.3-.6 2.5-.7 3.9-.2l1.3.5-1-1c-.7-.7-1.2-1.5-1.5-2.5-.2-.8-.2-1.5-.2-2.3-.1-1-.2-1.8-.7-2.6-.4-.7-.9-1.2-1.5-1.7q-.4-.2-.9-.5.5-.1 1.1-.1c.7-.1 1.4-.2 2.1-.7q.2-.1.4-.3c.5-.3.8-.8 1.1-1.3s.6-1 1-1.5c.8-1.2 1.8-1.8 3.3-2.1l1.4-.2 2.9.8-1.1.3c-1.2.3-2 1-2.8 2.2-.3.5-.6 1-.8 1.5-.3.5-.6 1-1 1.4q-.2.1-.4.3c-.6.4-1.1.6-1.7.7q-.5.1-.9.2.3.2.7.5c.5.4.9.8 1.1 1.5.4.8.5 1.6.4 2.6 0 .7 0 1.5.1 2.2.2 1 .6 1.8 1.2 2.4l.7.9-3-.7 2.2 2.1-1.1-.3c-1.2-.3-2.3-.1-3.5.6-.6.2-1 .5-1.5.8s-1 .6-1.6.7q-.2.1-.4.1c-.8.1-1.3 0-1.9-.2q-.4-.2-.8-.3.1.4.3.8c.2.6.3 1.2.2 1.9-.1.9-.4 1.6-.9 2.4-.4.7-.8 1.3-1.1 2-.3.9-.3 1.8-.2 2.6l.2 1.2zm-3.9-15.8q.2 0 .5 0 0-.3 0-.5l-.3.2zm6.4-8.9c.7-.2 1.3-.3 2-.3.5-.1.9-.2 1.3-.4q.1-.1.2-.2c.3-.2.5-.5.7-.8.3-.5.6-.9.9-1.4q.6-.8 1.4-1.4-.3-.2-.7-.6c-.5-.5-.8-1.1-1.3-1.7-.3-.6-.6-1-1.2-1.3-.4-.3-.8-.4-1.3-.4-.7-.1-1.3-.1-2-.3q-.1 0-.2-.1-.3.7-.5 1.4l-.1.4q3.3.7 5 2.7-1.7 2-5 2.7l.1.4q.2.7.5 1.3.1 0 .2 0zm-1.5.7q.2-.1.5-.2-.2-.3-.3-.5l-.2.3zm1-10.8q.1-.1.1-.1c.5-.5 1-.8 1.6-1.3.4-.2.7-.5 1-1q0-.1.1-.2c.1-.3.1-.8.1-1.1.1-.5.1-1 .1-1.6q.1-1.1.6-1.9-.5-.1-.9-.2c-.8-.2-1.4-.5-2.1-.9-.5-.3-1-.5-1.7-.5-.5 0-.9.1-1.3.4-.6.2-1.2.5-1.9.7q0 0-.1 0 0 .7.2 1.4l.1.4q3.2-1 5.7-.1-.5 2.6-3 4.8l.3.3q.5.5 1.1.9zm-.8 1.3q.1-.2.3-.5-.3-.1-.5-.2v.3zm-4.6-8.3q0-.2 0-.5-.3 0-.5 0l.2.3zm-8.2-5q-.1-.1-.3-.4-.2.1-.4.2l.3.2zm-31.4.6c.3.3.8.3 1.1 0s.3-.8 0-1c-.3-.3-.8-.3-1.1 0-.3.2-.3.7 0 1zm7.9-8.9c-.3.3-.3.7 0 1s.8.3 1.1 0c.2-.3.2-.7 0-1-.3-.3-.8-.3-1.1 0zm-1.2 3.9c.3.3.8.3 1.1 0s.3-.8 0-1.1-.8-.3-1.1 0-.3.8 0 1.1zm-3.8 3.8c.3.3.7.3 1 0s.3-.7 0-1-.7-.3-1 0-.3.7 0 1zm-8 16.7c.4.1.8-.2 1-.6.1-.4-.2-.8-.6-.9s-.8.1-.9.5.1.9.5 1zm2.9-10.8c.4.1.8-.1.9-.5s-.1-.9-.5-1-.8.2-.9.6.1.8.5.9zm.4 3.1c.4.1.8-.2.9-.6s-.1-.8-.5-.9-.8.1-.9.5.1.9.5 1zm-1.4 5.2c.4.1.8-.1.9-.5s-.1-.8-.5-1c-.4-.1-.8.2-.9.6s.1.8.5.9zm-4.1 4.1 1.4.4c.9.3 1.8.7 2.5 1.4.6.6 1 1.2 1.4 1.9.5.8 1 1.4 1.9 1.9.7.4 1.3.6 2.1.7q.5 0 1 0-.4.3-.8.6c-.7.5-1.2 1-1.6 1.7q-.1.2-.2.4c-.2.6-.2 1.2-.2 1.7-.1.6-.1 1.2-.1 1.8-.2 1.4-.7 2.5-1.9 3.5l-1 .8-3 .9.8-.9c.9-.8 1.3-1.9 1.3-3.3.1-.6 0-1.1 0-1.7s0-1.2.2-1.7q0-.2.1-.4c.3-.7.7-1.1 1.2-1.6q.3-.2.6-.5-.4-.1-.8-.1c-.6-.1-1.2-.3-1.8-.8-.7-.5-1.1-1.2-1.6-2-.4-.6-.7-1.3-1.2-1.9-.6-.8-1.3-1.2-2.2-1.5l-1.1-.4zm5.6 14.2c.4-.1.6-.5.5-.9s-.5-.7-.9-.5c-.4.1-.6.5-.5.9s.5.6.9.5zm-3.8-11.3c.1.4.5.6.9.5s.6-.5.5-.9-.5-.6-.9-.5-.6.5-.5.9zm2.8 3c.4-.1.6-.5.5-.9s-.5-.7-.9-.6c-.4.2-.6.6-.5 1s.5.6.9.5zm1.4 5.2c.4-.1.6-.5.5-.9s-.5-.6-.9-.5-.6.5-.5.9.5.6.9.5zm10.4 15.2c.3-.3.3-.7 0-1s-.7-.3-1 0-.3.7 0 1 .7.3 1 0zm-7.9-7.9c.3-.3.3-.7 0-1s-.7-.3-1 0-.3.7 0 1 .7.3 1 0zm2.9 1.2c.3-.3.3-.7 0-1s-.8-.3-1.1 0-.3.7 0 1 .8.3 1.1 0zm3.8 3.9c.3-.3.3-.8 0-1.1s-.7-.3-1 0-.3.8 0 1.1.7.3 1 0zm15.7 8.4c.4.1.9-.1 1-.5s-.2-.8-.6-.9-.8.1-.9.5.1.8.5.9zm-9.8-3.4c.1-.4-.1-.8-.5-.9s-.8.1-1 .5c-.1.4.2.8.6.9.4.2.8-.1.9-.5zm3.1-.4c.1-.4-.2-.8-.6-.9s-.8.1-.9.5.1.8.5.9c.4.2.9-.1 1-.5zm5.2 1.4c.1-.4-.1-.8-.5-.9s-.8.1-.9.5c-.2.4.1.8.5.9.4.2.8-.1.9-.5zm4.2 4.1.3-1.3c.3-1 .7-1.9 1.4-2.6.6-.6 1.2-.9 1.9-1.4.8-.5 1.4-1 1.9-1.8.4-.7.6-1.4.7-2.2q0-.5.1-1 .2.4.5.8c.5.7 1 1.2 1.7 1.6q.2.1.4.2c.6.2 1.2.3 1.7.3.6 0 1.2 0 1.8.1 1.5.1 2.5.7 3.5 1.8l.9 1.1.8 2.9-.8-.8c-.9-.9-1.9-1.3-3.4-1.3-.6 0-1.1 0-1.7 0s-1.1 0-1.7-.1q-.2-.1-.4-.2c-.7-.3-1.1-.7-1.6-1.2q-.2-.3-.5-.6-.1.4-.1.8c-.1.7-.3 1.2-.8 1.8-.5.7-1.2 1.1-2 1.6-.6.4-1.3.7-1.9 1.2-.8.6-1.2 1.4-1.5 2.2l-.4 1.1zm14.2-5.6c-.1-.4-.5-.6-.9-.5s-.7.5-.5.9c.1.4.5.7.9.6s.6-.6.5-1zm-11.3 3.9c.4-.2.6-.6.5-1s-.5-.6-.9-.5-.6.5-.5.9.5.7.9.6zm3-2.8c-.1-.5-.5-.7-.9-.6s-.7.5-.6.9c.2.4.6.7 1 .6s.6-.5.5-.9zm5.2-1.5c-.1-.4-.5-.6-.9-.5s-.6.5-.5.9.5.7.9.6.6-.6.5-1zm15.2-10.4c-.3-.3-.7-.3-1 0s-.3.8 0 1.1.7.3 1 0 .3-.8 0-1.1zm-7.9 7.9c-.2-.3-.7-.3-1 0s-.3.8 0 1.1c.3.2.8.2 1 0 .3-.3.3-.8 0-1.1zm1.2-2.9c-.3-.3-.7-.3-1 0s-.3.8 0 1.1.7.3 1 0 .3-.8 0-1.1zm3.9-3.8c-.3-.3-.8-.3-1.1 0s-.3.8 0 1.1.8.3 1.1 0 .3-.8 0-1.1zm8.4-15.7c.1-.4-.1-.8-.5-.9s-.8.1-.9.5.1.8.5.9.8-.1.9-.5zm-3.4 9.8c-.4-.1-.8.2-.9.6s.1.8.5.9.8-.1.9-.5c.2-.4-.1-.9-.5-1zm-.4-3c-.4-.1-.8.1-.9.5s.1.8.5.9.8-.1.9-.5c.2-.4-.1-.8-.5-.9zm1.4-5.3c-.4-.1-.8.2-.9.6s.1.8.5.9.8-.2 1-.6c.1-.4-.2-.8-.6-.9zm4.1-4.1-1.3-.4c-1-.2-1.9-.6-2.6-1.4-.6-.5-.9-1.2-1.4-1.9-.5-.8-1-1.4-1.8-1.9-.7-.4-1.4-.6-2.2-.6q-.5-.1-1-.1.4-.3.9-.6c.6-.5 1.1-.9 1.5-1.6q.1-.3.2-.5c.2-.5.3-1.1.3-1.7s0-1.2.1-1.8c.1-1.4.7-2.5 1.8-3.4l1.1-.9 2.9-.9-.8.9c-.9.9-1.3 1.9-1.3 3.3v1.7c0 .6 0 1.2-.1 1.7q-.1.2-.2.5c-.3.6-.7 1.1-1.2 1.5q-.3.3-.6.5.4.1.8.2c.7.1 1.2.3 1.8.7.7.5 1.2 1.2 1.6 2 .4.7.7 1.3 1.2 1.9.6.8 1.4 1.2 2.2 1.5l1.1.4zm-5.5-14.2c-.4.1-.7.5-.6.9s.5.7.9.6.7-.5.6-.9-.5-.7-.9-.6zm3.8 11.3c-.1-.4-.6-.6-1-.5s-.6.5-.5.9.5.6.9.5.7-.5.6-.9zm-2.8-3c-.4.1-.7.5-.6.9.1.5.5.7.9.6s.7-.5.6-.9-.5-.7-.9-.6zm-1.4-5.2c-.4.1-.7.5-.6.9s.5.7.9.5c.4-.1.7-.5.6-.9s-.5-.6-.9-.5zm-10.5-15.2c-.3.3-.3.8 0 1.1s.8.3 1.1 0 .3-.8 0-1.1-.8-.3-1.1 0zm7.9 7.9c-.3.3-.3.8 0 1 .3.3.8.3 1.1 0 .3-.2.3-.7 0-1s-.8-.3-1.1 0zm-2.9-1.2c-.3.3-.3.8 0 1.1s.8.3 1.1 0 .3-.8 0-1.1-.8-.3-1.1 0zm-3.8-3.8c-.3.3-.3.7 0 1s.8.3 1.1 0 .3-.7 0-1-.8-.3-1.1 0zm-16.6-8c-.1.4.1.8.5.9.4.2.8-.1.9-.5s-.1-.8-.5-.9-.8.1-.9.5zm10.7 2.9c-.1.4.2.8.6.9s.8-.1.9-.5-.1-.8-.5-.9-.9.1-1 .5zm-3 .4c-.1.4.1.8.5.9s.8-.1.9-.5-.1-.8-.5-.9-.8.1-.9.5zm-5.3-1.4c-.1.4.2.8.6.9s.8-.1.9-.5-.1-.8-.5-.9c-.5-.1-.9.1-1 .5zm-17.8.5c-.4.1-.7.6-.5 1 .1.4.5.6.9.5s.6-.5.5-.9-.5-.7-.9-.6zm10.8-2.9c-.4.2-.7.6-.6 1s.5.6.9.5.7-.5.6-.9-.5-.7-.9-.6zm-2.5 1.9c-.4.1-.6.6-.5 1s.5.6.9.5.6-.5.5-.9-.5-.7-.9-.6zm-5.8 2.4c.1.4.5.6.9.5s.7-.5.6-.9-.5-.7-.9-.6-.7.6-.6 1z" fill="#f7aa55" fill-rule="evenodd"/><path d="m441 43h197v197h-197z" fill="#39412a"/><g fill="#f4f2e1"><path d="m605.7 75.3h7v132.4h-7z"/><path d="m591.8 75.3h7v48.8h-7z"/><path d="m577.9 124.1v-7h20.9v7z"/><path d="m563.9 110.2v-7h20.9v7z"/><path d="m577.9 89.3h6.9v20.9h-6.9z"/><path d="m563.9 96.2v-6.9h20.9v6.9z"/><path d="m570.9 110.2h-7v-20.9h7z"/><path d="m578 109.2h6.9v14.7h-6.9z"/><path d="m578.7 117.1v7h-28.7v-7z"/><path d="m584.8 75.3v7h-13.9v-7z"/><path d="m536.1 103.2h6.9v34.8h-6.9z"/><path d="m480.3 138v-6.9h62.7v6.9z"/><path d="m550 103.2h7v20.9h-7z"/><path d="m536.1 110.2v-7h20.9v7z"/><path d="m522.1 89.3h7v34.8h-7z"/><path d="m508.2 103.2h7v20.9h-7z"/><path d="m480.3 124.1v-7h34.9v7z"/><path d="m480.3 103.2h7v20.9h-7z"/><path d="m501.2 103.2v7h-20.9v-7z"/><path d="m515.2 89.3v6.9h-7v-6.9z"/></g><path d="m550 138v-6.9h48.8v6.9z" fill="#f7aa55"/><path d="m480.3 82.3v-7h83.6v7z" fill="#f7aa55"/><path d="m536.1 96.2v-6.9h20.9v6.9z" fill="#f7aa55"/><path d="m508.2 82.3v-7h7v7z" fill="#f7aa55"/><path d="m501.2 89.3v6.9h-20.9v-6.9z" fill="#f7aa55"/><path d="m487.3 165.9h-7v-20.9h7z" fill="#f7aa55"/><path d="m598.8 193.7h-7v-48.7h7z" fill="#f4f2e1"/><path d="m598.8 186.8v6.9h-20.9v-6.9z" fill="#f4f2e1"/><path d="m584.8 193.7h-6.9v-20.9h6.9z" fill="#f4f2e1"/><path d="m584.8 172.8v7h-27.8v-7z" fill="#f4f2e1"/><path d="m563.9 179.8h-6.9v-20.9h6.9z" fill="#f4f2e1"/><path d="m557 165.9v-7h27.8v7z" fill="#f4f2e1"/><path d="m543 193.7v-6.9h41.8v6.9z" fill="#f4f2e1"/><path d="m543 179.8h7v27.9h-7z" fill="#f4f2e1"/><path d="m550 200.7v7h-69.7v-7z" fill="#f4f2e1"/><path d="m536.1 179.8h-7v-20.9h7z" fill="#f4f2e1"/><path d="m515.2 179.8v-7h20.9v7z" fill="#f4f2e1"/><path d="m522.1 193.7v-6.9h14v6.9z" fill="#f4f2e1"/><path d="m508.2 158.9h7v20.9h-7z" fill="#f4f2e1"/><path d="m494.3 165.9v-7h20.9v7z" fill="#f4f2e1"/><path d="m501.2 179.8h-6.9v-20.9h6.9z" fill="#f4f2e1"/><path d="m494.3 179.8v-7h20.9v7z" fill="#f4f2e1"/><path d="m480.3 179.8v-7h20.9v7z" fill="#f4f2e1"/><path d="m487.3 193.7h-7v-20.9h7z" fill="#f4f2e1"/><path d="m480.2 193.7v-6.9h35.1v6.9z" fill="#f4f2e1"/><path d="m494.3 151.9v-6.9h41.8v6.9z" fill="#f7aa55"/><path d="m557 151.9v-6.9h27.8v6.9z" fill="#f7aa55"/><path d="m473.4 207.7h-7v-132.4h7z" fill="#f7aa55"/><path d="m550 172.8h-7v-27.8h7z" fill="#f7aa55"/><path d="m557 207.7v-7h41.8v7z" fill="#f7aa55"/><path d="m446.2 48.2h186.5v186.5h-186.5zm183.9 184.1c-2-3.8-3.5-7.9-4.5-12.1-2.6-10.8-2.1-22-1.6-33.1q1.1-23.6 2.2-47.2c.9-18.9 1.7-37.8.5-56.7-.6-7.4-1.4-15-.3-22.4.4-2.6 1.2-5.1 2.1-7.6-12.2 6.9-38 3.5-38 3.5-11.3-1.9-51-1.8-51-1.8l-85.8 2.7q.4 1.6.7 3.2c1.1 7.4.3 15-.2 22.4-1.3 18.9-.5 37.8.4 56.7q1.1 23.6 2.2 47.2c.5 11.1 1 22.3-1.6 33.1-1 4.3-2.5 8.5-4.6 12.3q0 0 .4-.2c2.7-1.2 5.7-2.1 8.6-2.7 10.6-2.6 31-5.5 62.8-2.1 0 0 18.6 1.7 38.5.8q12.8-.6 25.6-1.2c11.1-.5 22.4-1 33.1 1.5 3.6.9 7.2 2.1 10.5 3.7z" fill="#f4f2e1" fill-rule="evenodd"/></svg>