<svg height="512" viewBox="0 0 512 512" width="512" xmlns="http://www.w3.org/2000/svg"><g fill="#f3efdf"><path d="m450.9 428.6c5 0 9.1 4.5 9.1 10.1 0 5.7-4.1 10.3-9.1 10.3h-208.6v-20.4z"/><path d="m450.9 288.7c5 0 9.1 4.5 9.1 10.1 0 5.7-4.1 10.3-9.1 10.3h-208.6v-20.4z"/><path d="m390.1 243.5c5 0 9 4.5 9 10.2 0 5.6-4 10.3-9 10.3h-147.8v-20.5z"/><path d="m450.9 198.4c5 0 9.1 4.5 9.1 10.2 0 5.6-4.1 10.2-9.1 10.2h-208.6v-20.4z"/><path d="m450.9 108.1c5 0 9.1 4.5 9.1 10.2 0 5.6-4.1 10.3-9.1 10.3h-208.6v-20.5z"/><path d="m450.9 63c5 0 9.1 4.5 9.1 10.2 0 5.6-4.1 10.2-9.1 10.2h-208.6v-20.4z"/><path d="m395.1 153.3c5 0 9 4.5 9 10.1 0 5.7-4 10.3-9 10.3h-152.8v-20.4z"/><path d="m434.2 378.9c5 0 9 4.5 9 10.2 0 5.6-4 10.3-9 10.3h-191.9v-20.5z"/><path d="m421.1 333.8c5 0 9 4.5 9 10.2 0 5.6-4 10.2-9 10.2h-178.8v-20.4z"/></g><path d="m61.1 83.4c-5 0-9.1-4.5-9.1-10.1 0-5.7 4.1-10.3 9.1-10.3h208.6v20.4z" fill="#f7aa55"/><path d="m61.1 218.8c-5 0-9.1-4.5-9.1-10.1 0-5.7 4.1-10.3 9.1-10.3h208.6v20.4z" fill="#f7aa55"/><path d="m121.9 264c-5 0-9-4.6-9-10.2s4-10.3 9-10.3h147.8v20.5z" fill="#f7aa55"/><path d="m61.1 309.1c-5 0-9.1-4.5-9.1-10.2 0-5.6 4.1-10.2 9.1-10.2h208.6v20.4z" fill="#f7aa55"/><path d="m61.1 399.4c-5 0-9.1-4.6-9.1-10.2s4.1-10.3 9.1-10.3h208.6v20.5z" fill="#f7aa55"/><path d="m61.1 449c-5 0-9.1-4.5-9.1-10.2 0-5.6 4.1-10.2 9.1-10.2h208.6v20.4z" fill="#f7aa55"/><path d="m116.9 354.2c-5 0-9-4.5-9-10.1 0-5.7 4-10.3 9-10.3h152.8v20.4z" fill="#f7aa55"/><path d="m77.8 128.6c-5 0-9-4.6-9-10.2s4-10.3 9-10.3h191.9v20.5z" fill="#f7aa55"/><path d="m90.9 173.7c-5 0-9-4.5-9-10.2 0-5.6 4-10.2 9-10.2h178.8v20.4z" fill="#f7aa55"/></svg>