<svg width="367" height="87" viewBox="0 0 367 87" fill="none" xmlns="http://www.w3.org/2000/svg">
<path d="M32.3339 13.2617C32.3338 13.2573 32.3325 13.2529 32.3302 13.2491C32.328 13.2453 32.3248 13.2422 32.321 13.24C32.3172 13.2379 32.313 13.2368 32.3087 13.2369C32.3044 13.237 32.3002 13.2382 32.2966 13.2405C31.6599 13.625 31.0296 13.6895 30.4057 13.4341C29.2257 12.9522 28.7708 11.4572 29.5212 10.4249C29.9777 9.79715 30.61 9.51219 31.4182 9.56999C32.6157 9.65535 33.3754 10.2579 33.6975 11.3775C33.8635 11.9528 33.9129 12.6373 33.8457 13.4311C33.7852 14.1428 33.6403 15.1529 33.411 16.4614C33.2537 17.3587 33.1515 18.2229 33.1045 19.0543C33.0621 19.8033 33.1266 20.6854 33.3667 21.379C33.7973 22.623 34.7171 23.6583 35.8214 24.3882C36.0318 24.5273 36.3818 24.697 36.8713 24.8973C39.0826 25.8013 40.8996 27.225 42.3223 29.1687C43.663 30.9987 44.4415 33.0731 44.658 35.3918C44.9666 38.6963 44.2919 41.7933 42.6339 44.6825C42.2144 45.4131 39.7852 49.6431 35.3464 57.3726C35.3445 57.3763 35.3416 57.3793 35.3381 57.3815C35.3345 57.3836 35.3304 57.3847 35.3262 57.3847C35.322 57.3847 35.3178 57.3836 35.3141 57.3815C35.3104 57.3793 35.3073 57.3763 35.305 57.3726L32.4893 52.4016C32.484 52.3927 32.4813 52.3826 32.4813 52.3721C32.4813 52.3617 32.484 52.3514 32.4893 52.3421C34.5903 48.7008 36.5018 45.3771 38.2237 42.3709C39.0426 40.9407 39.5277 39.3765 39.679 37.6782C39.795 36.3696 39.6346 34.9421 39.1717 33.7243C38.0069 30.6677 35.2546 29.1243 32.0748 28.7997C31.2034 28.711 30.4043 28.6895 29.6775 28.7352C27.1999 28.8911 25.0383 29.7877 23.1927 31.4248C21.4836 32.941 20.2949 34.8128 19.6266 37.04C19.6253 37.0427 19.6259 37.0467 19.6286 37.0521C19.6293 37.0541 19.6296 37.0558 19.6296 37.0572C19.6294 37.0593 19.6283 37.0612 19.6266 37.0626C19.6249 37.0639 19.6227 37.0645 19.6206 37.0642C19.6184 37.0639 19.6165 37.0628 19.6151 37.0611C19.6138 37.0594 19.6132 37.0573 19.6135 37.0551C19.6 36.5081 19.6377 35.9449 19.7264 35.3655C20.1137 32.8251 21.1192 30.5726 22.7429 28.6082C24.5125 26.4669 26.7135 25.0401 29.3457 24.3277C29.3786 24.319 29.3881 24.2988 29.3739 24.2672C28.7359 22.8626 28.751 21.4254 29.4193 19.9556C29.6923 19.354 29.9774 18.8161 30.2745 18.3416C30.8383 17.4413 31.4777 16.4463 31.9204 15.4009C32.2109 14.7154 32.3487 14.0023 32.3339 13.2617Z" fill="black"/>
<path d="M123.424 35.4684C123.425 35.4701 123.426 35.4721 123.427 35.4744C123.427 35.4766 123.427 35.4789 123.426 35.481C123.425 35.4831 123.424 35.4849 123.422 35.4862C123.42 35.4876 123.418 35.4884 123.416 35.4885C121.643 35.795 120.2 36.6388 119.086 38.0199C119.083 38.0233 119.08 38.026 119.076 38.0277C119.072 38.0294 119.067 38.0302 119.063 38.0299C119.059 38.0296 119.055 38.0282 119.051 38.026C119.047 38.0237 119.044 38.0206 119.042 38.0169C118.411 36.9637 118.095 35.8175 118.095 34.5782C118.093 30.3999 118.093 25.5664 118.095 20.0775C118.095 19.388 118.048 18.9108 117.954 18.646C117.67 17.8422 117.046 17.3483 116.082 17.1641C116.01 17.1507 115.878 17.1305 115.685 17.1036C115.648 17.0982 115.647 17.0875 115.68 17.0714C116.07 16.8818 116.44 16.6873 116.79 16.4877C119.632 14.8639 121.742 12.5769 123.12 9.62646C123.141 9.58277 123.151 9.58512 123.151 9.63351C123.15 11.2082 123.15 19.553 123.151 34.6679C123.151 35.0057 123.214 35.2224 123.424 35.4684Z" fill="black"/>
<path d="M202.882 64.7782C202.425 62.5926 202.176 60.3224 202.137 57.9674C202.104 55.9707 202.177 53.9205 202.357 51.8169C202.513 49.9996 202.72 48.1326 202.979 46.2159C203.242 44.2568 203.674 41.2516 204.275 37.2003C204.663 34.5826 204.968 31.9363 205.19 29.2615C205.219 28.914 205.254 28.207 205.295 27.1404C205.356 25.5603 205.322 24.0082 205.193 22.4839C205.146 21.9288 205.071 21.3965 204.968 20.8871C204.593 19.0335 203.748 17.4783 202.434 16.2215C201.268 15.1052 199.883 14.5508 198.281 14.5581C197.519 14.5615 196.791 14.7631 196.096 15.163C195.329 15.6032 194.7 16.2121 194.21 16.9897C194.184 17.03 194.172 17.0263 194.173 16.9786C194.201 15.4544 193.951 14.0407 193.425 12.7375C192.977 11.6279 192.391 10.5879 191.667 9.61739C191.664 9.61339 191.662 9.60866 191.662 9.60371C191.661 9.59876 191.662 9.59378 191.665 9.58931C191.667 9.58484 191.67 9.58106 191.674 9.57837C191.678 9.57568 191.683 9.57418 191.688 9.57405C192.876 9.57203 195.072 9.57136 198.276 9.57203C199.147 9.57203 199.817 9.6137 200.285 9.69704C202.797 10.1467 204.987 11.5903 206.587 13.5702C208.614 16.0764 209.745 18.9831 209.981 22.2904C210.115 24.1762 210.095 26.2173 209.923 28.4136C209.779 30.2598 209.595 32.0059 209.371 33.6518C209.075 35.834 208.593 39.0502 207.926 43.3004C207.609 45.3254 207.312 47.5136 207.035 49.8652C206.746 52.3129 206.582 54.7525 206.543 57.1841C206.537 57.6075 206.583 58.1277 206.58 58.4957C206.563 60.6134 206.694 62.7065 206.973 64.7752C206.977 64.8088 206.996 64.8256 207.03 64.8256C208.412 64.829 209.886 64.8316 211.451 64.8337C212.031 64.8343 212.454 64.7856 212.72 64.6875C213.467 64.4113 213.949 63.8464 214.165 62.9928C214.206 62.8302 214.234 62.6813 214.25 62.5463C214.256 62.4965 214.26 62.4965 214.263 62.5463C214.373 64.6989 215.174 66.5522 216.666 68.106C217.406 68.8755 218.26 69.4565 219.228 69.849C219.281 69.8712 219.279 69.8823 219.222 69.8823H208.137C208.106 69.8823 208.095 69.8971 208.104 69.9266C208.916 72.6398 210.108 75.113 211.679 77.3463C211.713 77.3947 211.703 77.4078 211.649 77.3857C208.309 76.057 205.945 73.1465 204.537 69.9297C204.523 69.8981 204.498 69.8823 204.463 69.8823H191.744C191.705 69.8823 191.685 69.9018 191.684 69.9408C191.678 70.9072 191.675 71.5473 191.675 71.8612C191.674 74.3482 190.138 76.4118 187.788 77.175C186.851 77.4794 185.767 77.5006 184.802 77.2324C183.515 76.8762 182.47 76.1218 181.666 74.9692C181.664 74.9661 181.663 74.9623 181.663 74.9586C181.664 74.9549 181.665 74.9514 181.668 74.9488C181.67 74.9461 181.673 74.9445 181.677 74.9442C181.68 74.9439 181.684 74.9449 181.687 74.947C182.311 75.3583 182.98 75.5421 183.696 75.4985C184.997 75.4178 186.094 74.5982 186.485 73.3572C186.576 73.0696 186.622 72.6613 186.623 72.1324C186.625 70.2015 186.624 67.8341 186.619 65.0302C186.619 64.5618 186.585 64.214 186.519 63.9868C186.412 63.6239 186.228 63.3175 185.965 63.0674C185.554 62.675 185.054 62.4438 184.465 62.3739C184.461 62.3732 184.459 62.3712 184.458 62.3678C184.456 62.3564 184.455 62.347 184.457 62.3396C184.459 62.3322 184.464 62.3285 184.471 62.3285C185.95 62.2384 187.314 61.7918 188.565 60.9887C189.943 60.1036 190.963 58.9167 191.625 57.4281C191.66 57.3474 191.678 57.3511 191.678 57.4392V64.7671C191.678 64.8088 191.699 64.8296 191.741 64.8296H194.115C194.15 64.8296 194.168 64.8122 194.168 64.7772C194.172 62.7039 194.172 60.5236 194.168 58.2366C194.167 57.2963 194.113 56.6686 194.007 56.3534C193.735 55.5476 193.104 55.0452 192.113 54.8463C191.921 54.808 191.923 54.7821 192.118 54.7687C193.541 54.6732 194.857 54.2377 196.065 53.4622C197.45 52.5744 198.478 51.3844 199.151 49.8924C199.176 49.84 199.188 49.8427 199.188 49.9005V64.7772C199.188 64.8122 199.205 64.8296 199.24 64.8296H202.841C202.875 64.8296 202.889 64.8125 202.882 64.7782Z" fill="black"/>
<path d="M125.679 9.64258C127.087 12.6575 129.262 14.9782 132.202 16.6046C132.499 16.7686 132.802 16.9262 133.11 17.0774C133.142 17.0929 133.14 17.1026 133.105 17.1066C132.064 17.2175 131.202 17.6258 130.839 18.6289C130.744 18.893 130.696 19.2999 130.696 19.8497C130.697 27.7204 130.696 32.7391 130.693 34.9058C130.692 35.6673 130.495 36.4698 130.103 37.3132C129.045 39.5926 126.874 40.9535 124.354 40.9837C123.737 40.9908 123.228 41.4525 123.151 42.0735C123.112 42.3981 123.193 42.7029 123.395 42.9879C123.414 43.0141 123.408 43.0299 123.376 43.0353C121.631 43.3363 120.201 44.1764 119.088 45.5555C119.085 45.5597 119.08 45.563 119.076 45.5651C119.071 45.5673 119.065 45.5682 119.06 45.5678C119.055 45.5674 119.05 45.5657 119.045 45.5628C119.041 45.56 119.037 45.5561 119.034 45.5515C118.566 44.7504 118.271 43.8982 118.151 42.9949C117.902 41.1178 118.544 39.2437 119.846 37.8899C120.881 36.8139 122.153 36.1798 123.662 35.9876C123.847 35.964 124.023 35.9539 124.189 35.9573C124.745 35.9684 125.264 35.7688 125.51 35.2668C125.598 35.088 125.642 34.7741 125.642 34.3252C125.642 27.0943 125.642 18.8695 125.642 9.65064C125.642 9.59352 125.654 9.59083 125.679 9.64258Z" fill="black"/>
<path d="M295.589 38.0199C295.16 37.3008 294.876 36.538 294.738 35.7315C294.675 35.3605 294.644 34.6901 294.644 33.7203C294.643 29.1556 294.643 24.5902 294.643 20.0241C294.643 19.3742 294.598 18.9189 294.506 18.6581C294.18 17.7246 293.292 17.156 292.238 17.1097C292.172 17.107 292.169 17.0915 292.229 17.0633C294.719 15.8878 296.742 14.2016 298.3 12.0046C298.843 11.2391 299.287 10.4652 299.632 9.68291C299.675 9.58412 299.697 9.58882 299.697 9.69702C299.697 9.88588 299.698 18.2888 299.698 34.9059C299.698 35.0618 299.781 35.2426 299.947 35.4482C299.968 35.4738 299.963 35.4892 299.93 35.4946C298.174 35.8044 296.741 36.6472 295.63 38.0229C295.627 38.0261 295.624 38.0286 295.62 38.0302C295.617 38.0319 295.613 38.0325 295.609 38.0322C295.604 38.032 295.6 38.0307 295.597 38.0285C295.594 38.0264 295.591 38.0234 295.589 38.0199Z" fill="black"/>
<path d="M299.965 43.006C299.966 43.0078 299.967 43.0099 299.967 43.0122C299.968 43.0145 299.968 43.0168 299.967 43.0189C299.966 43.0211 299.965 43.023 299.963 43.0244C299.961 43.0259 299.959 43.0268 299.957 43.0272C298.196 43.3276 296.758 44.1687 295.64 45.5505C295.618 45.5774 295.598 45.5757 295.581 45.5455C294.584 43.87 294.336 41.7731 295.08 39.9353C295.715 38.3687 296.801 37.2265 298.337 36.5088C299.017 36.1902 299.758 36.0094 300.558 35.9664C301.011 35.9415 301.305 35.9009 301.441 35.8444C301.717 35.7302 301.922 35.5376 302.057 35.2668C302.145 35.0934 302.189 34.8292 302.189 34.4744C302.188 19.4159 302.188 11.1595 302.189 9.70509C302.189 9.58411 302.213 9.57874 302.262 9.68896C303.715 12.9573 306.444 15.5622 309.672 17.0724C309.707 17.0885 309.705 17.0989 309.667 17.1036C309.379 17.1399 309.18 17.1718 309.071 17.1994C308.211 17.4151 307.65 17.8923 307.389 18.6309C307.291 18.9098 307.242 19.3658 307.242 19.9989C307.244 22.7954 307.243 27.4273 307.241 33.8947C307.241 34.8108 307.199 35.4798 307.116 35.9019C306.85 37.2447 306.211 38.3815 305.2 39.3123C304.098 40.3278 302.789 40.8792 301.273 40.9666C300.834 40.9915 300.551 41.0311 300.426 41.0856C299.947 41.2946 299.703 41.6878 299.692 42.2651C299.687 42.5473 299.784 42.7853 299.965 43.006Z" fill="black"/>
<path d="M342.409 69.9427C342.403 70.4891 342.433 71.1364 342.378 71.6313C342.177 73.4278 341.411 74.8761 340.081 75.9763C339.55 76.4152 338.975 76.7549 338.355 76.9955C334.215 78.6054 329.791 75.4662 329.842 71.0618C329.843 71.0302 329.845 70.6504 329.848 69.9226C329.848 69.9173 329.847 69.9121 329.845 69.9072C329.844 69.9023 329.841 69.8979 329.837 69.8941C329.833 69.8904 329.829 69.8874 329.824 69.8853C329.819 69.8833 329.814 69.8823 329.809 69.8823H319.85C319.808 69.8823 319.803 69.8692 319.836 69.8429C321.218 68.7159 322.022 67.2958 322.247 65.5827C322.247 65.58 322.267 65.1771 322.307 64.3739C322.361 63.31 322.63 62.3191 323.115 61.401C324.042 59.6483 325.432 58.4335 327.283 57.7567C328.096 57.4596 328.936 57.3138 329.804 57.3192C329.831 57.3192 329.845 57.3054 329.845 57.2778C329.845 52.3677 329.845 49.9005 329.845 49.8763C329.841 49.1182 329.649 48.3903 329.029 47.8742C328.62 47.5348 328.118 47.3372 327.523 47.2814C327.521 47.2811 327.52 47.2804 327.519 47.2794C327.518 47.2783 327.518 47.2771 327.518 47.2759C327.518 47.2747 327.518 47.2736 327.519 47.2729C327.52 47.2723 327.521 47.2721 327.523 47.2723C329.669 47.1507 331.513 46.3529 333.056 44.8791C333.829 44.1411 334.417 43.2997 334.82 42.3548C334.848 42.2876 334.863 42.2903 334.863 42.3628C334.863 47.0129 334.863 56.5402 334.863 70.9448C334.863 71.3198 334.907 71.5863 334.997 71.7442C335.483 72.6011 336.818 72.589 337.251 71.6797C337.319 71.5372 337.353 71.2977 337.353 70.9609C337.357 43.8616 337.355 26.6978 337.346 19.4696C337.346 18.7653 337.104 18.1957 336.622 17.7609C336.188 17.3684 335.631 17.1537 334.95 17.1167C334.904 17.114 334.901 17.1016 334.942 17.0794C334.991 17.0532 335.206 16.9393 335.588 16.7377C338.651 15.1186 340.915 12.7482 342.379 9.62644C342.399 9.58545 342.408 9.58746 342.408 9.63249V64.7701C342.408 64.8098 342.428 64.8296 342.467 64.8296H344.839C344.878 64.8296 344.897 64.8105 344.897 64.7721C344.901 63.2714 344.902 61.0912 344.899 58.2315C344.898 57.302 344.844 56.6784 344.737 56.3605C344.455 55.5237 343.795 55.0146 342.757 54.8332C342.635 54.8117 342.635 54.7962 342.759 54.7868C344.911 54.6242 346.743 53.7891 348.253 52.2816C348.955 51.5793 349.495 50.7839 349.871 49.8954C349.901 49.8256 349.916 49.8286 349.916 49.9045V64.7933C349.916 64.7981 349.917 64.8028 349.918 64.8072C349.92 64.8116 349.923 64.8156 349.927 64.819C349.93 64.8223 349.934 64.825 349.939 64.8268C349.943 64.8287 349.948 64.8296 349.953 64.8296H352.375C352.396 64.8296 352.407 64.8189 352.407 64.7974V9.72826C352.407 9.5925 352.434 9.58646 352.489 9.71012C353.944 12.9703 356.669 15.5652 359.894 17.0744C359.932 17.0918 359.93 17.1029 359.888 17.1076C359.665 17.1318 359.502 17.1547 359.398 17.1762C358.48 17.3657 357.878 17.8587 357.591 18.6551C357.505 18.8977 357.461 19.2694 357.461 19.7701C357.462 47.059 357.462 63.7469 357.461 69.8339C357.461 69.8661 357.446 69.8823 357.414 69.8823H342.471C342.43 69.8823 342.41 69.9024 342.409 69.9427ZM328.069 63.0543C327.631 63.4892 327.38 64.0413 327.318 64.7107C327.31 64.7879 327.345 64.8269 327.423 64.8276C327.486 64.8276 328.28 64.8303 329.806 64.8357C329.808 64.8357 329.813 64.8333 329.819 64.8286C329.819 64.8279 329.821 64.8263 329.824 64.8236C329.827 64.8195 329.829 64.8175 329.83 64.8175C329.835 64.8121 329.837 64.8081 329.837 64.8054C329.844 63.2805 329.848 62.4864 329.849 62.4232C329.849 62.346 329.81 62.3107 329.733 62.3174C329.063 62.3738 328.508 62.6195 328.069 63.0543Z" fill="black"/>
<path d="M41.9151 64.8296C41.952 64.8296 41.9611 64.8135 41.9423 64.7812L36.819 55.9109C36.8101 55.8955 36.8054 55.8779 36.8054 55.8601C36.8054 55.8422 36.8101 55.8246 36.819 55.809L39.6479 50.9116C39.6502 50.9077 39.6535 50.9044 39.6575 50.9021C39.6615 50.8998 39.666 50.8986 39.6706 50.8986C39.6752 50.8986 39.6797 50.8998 39.6837 50.9021C39.6877 50.9044 39.691 50.9077 39.6933 50.9116L47.713 64.7964C47.7258 64.8185 47.745 64.8296 47.7705 64.8296H50.199C50.2367 64.8296 50.2555 64.8108 50.2555 64.7732C50.2589 63.2005 50.2592 61.0307 50.2565 58.2638C50.2558 57.3101 50.2054 56.6841 50.1052 56.3857C49.8114 55.51 49.1263 54.9884 48.0499 54.8211C48.0458 54.8204 48.0425 54.8184 48.0398 54.815C48.0331 54.805 48.0294 54.7972 48.0287 54.7919C48.0287 54.7851 48.0317 54.7818 48.0378 54.7818C50.4387 54.6917 52.8336 54.4289 55.2225 53.9934C55.2574 53.9874 55.2749 54.0018 55.2749 54.0368V64.8044C55.2749 64.8111 55.2776 64.8175 55.2823 64.8222C55.287 64.827 55.2934 64.8296 55.3001 64.8296H57.7569C57.7871 64.8296 57.8023 64.8145 57.8023 64.7843C57.8036 60.6517 57.8023 57.9355 57.7982 56.6357C57.7942 55.3077 57.222 54.4672 56.0817 54.1144C56.0494 54.1043 55.953 54.0838 55.7923 54.0529C55.7103 54.0368 55.6299 54.0106 55.5512 53.9743C55.5176 53.9588 55.5193 53.9477 55.5563 53.941C57.972 53.5109 60.376 52.9618 62.7682 52.2938C62.7743 52.2921 62.7807 52.2918 62.7869 52.293C62.7932 52.2941 62.799 52.2967 62.8041 52.3005C62.8092 52.3043 62.8133 52.3092 62.8162 52.3149C62.819 52.3205 62.8206 52.3267 62.8206 52.3331C62.82 61.5324 62.8203 67.8126 62.8216 71.1737C62.8216 71.5144 62.9585 71.8105 63.2321 72.0618C63.6708 72.464 64.3838 72.4802 64.8437 72.1263C65.1772 71.8696 65.344 71.5366 65.344 71.1273C65.35 64.961 65.35 59.5246 65.344 54.8181C65.3419 53.3442 64.4262 52.4097 62.9618 52.2927C62.9497 52.2914 62.9454 52.285 62.9487 52.2736C62.9501 52.2675 62.9524 52.2585 62.9558 52.2464C62.9565 52.243 62.9585 52.2407 62.9618 52.2393C65.4744 51.5431 67.9264 50.7258 70.318 49.7876C70.3489 49.7755 70.3644 49.7859 70.3644 49.8188C70.3664 57.1666 70.366 63.9946 70.3634 70.3027C70.3627 71.2261 70.321 71.8951 70.2383 72.3098C69.6766 75.1234 67.2521 77.2748 64.3697 77.4078C62.9175 77.475 61.6182 77.0973 60.4718 76.2747C59.0162 75.2316 58.1448 73.8085 57.8577 72.0054C57.7549 71.3592 57.8154 70.6484 57.7982 69.9397C57.7975 69.9014 57.7777 69.8823 57.7387 69.8823H40.4003C40.3693 69.8823 40.3522 69.8974 40.3488 69.9276C40.0503 72.4412 38.9211 74.4181 36.9612 75.8584C33.743 78.2244 29.2602 77.8514 26.4555 75.064C25.0449 73.662 24.2438 71.9442 24.0522 69.9105C24.0508 69.8917 24.0404 69.8823 24.0209 69.8823H22.1925C22.1595 69.8823 22.143 69.8987 22.143 69.9317C22.1424 70.0083 22.1424 70.64 22.143 71.8269C22.143 72.329 22.0825 72.8186 21.9615 73.2957C21.4068 75.4743 19.5169 77.1175 17.2931 77.3786C16.0822 77.5204 14.9537 77.2781 13.9075 76.6517C13.1861 76.2203 12.6011 75.6692 12.1527 74.9984C12.1184 74.9467 12.1274 74.9373 12.1799 74.9702C12.7951 75.358 13.4439 75.5348 14.1263 75.5005C15.4475 75.4339 16.5559 74.6063 16.9492 73.3371C17.0399 73.0447 17.0853 72.6408 17.0853 72.1253C17.084 68.2132 17.085 65.9184 17.0884 65.2409C17.091 64.6287 17.048 64.1918 16.9593 63.9304C16.6654 63.0648 15.9944 62.5466 14.9463 62.3759C14.9376 62.3744 14.9298 62.3716 14.9238 62.368C14.9178 62.3644 14.9141 62.3601 14.913 62.3557C14.9123 62.353 14.912 62.35 14.912 62.3466C14.912 62.3393 14.9153 62.3356 14.9221 62.3356C17.2396 62.1601 19.1683 61.2357 20.7079 59.5622C21.2976 58.9218 21.7554 58.2083 22.0815 57.422C22.1219 57.3259 22.142 57.3299 22.142 57.4341V64.7903C22.142 64.8165 22.1551 64.8296 22.1814 64.8296H25.2483C25.2633 64.8296 25.278 64.8256 25.2911 64.818C25.3042 64.8104 25.3152 64.7995 25.3229 64.7863L28.999 58.4221C29.0211 58.3844 29.043 58.3844 29.0645 58.4221L31.8954 63.3235C31.9136 63.3551 31.9136 63.387 31.8954 63.4193C31.5095 64.0914 30.7192 65.457 29.5244 67.5162C29.1553 68.1534 28.9993 68.81 29.0564 69.4861C29.2107 71.3158 30.8526 72.5991 32.676 72.3471C34.5216 72.0921 35.7258 70.2996 35.2992 68.4921C35.2219 68.1634 35.0054 67.6927 34.6497 67.0797C31.9153 62.3692 29.16 57.6199 26.3839 52.8321C25.7875 51.8045 25.4567 51.2242 25.3915 51.0911C24.5403 49.3672 24.3578 47.5556 24.8439 45.6564C25.2681 43.9963 26.1754 42.6535 27.5659 41.6279C27.6028 41.6011 28.0281 41.3359 28.8416 40.8325C30.1083 40.0482 31.1844 39.021 32.1284 37.8999C32.1499 37.8751 32.1687 37.8768 32.1849 37.905L36.1685 44.8025C36.1759 44.8154 36.1797 44.83 36.1797 44.8448C36.1797 44.8597 36.1759 44.8743 36.1685 44.8872L33.3487 49.7694C33.3463 49.7737 33.3428 49.7773 33.3386 49.7797C33.3343 49.7822 33.3295 49.7835 33.3245 49.7835C33.3195 49.7835 33.3146 49.7822 33.3101 49.7797C33.3057 49.7773 33.302 49.7737 33.2993 49.7694L30.8435 45.5172C30.8363 45.5047 30.8246 45.4953 30.8108 45.491C30.7969 45.4867 30.782 45.4878 30.7689 45.494C29.6918 46.0304 29.3287 47.1574 29.6031 48.2845C29.6582 48.5123 29.8064 48.8343 30.0478 49.2503C32.0749 52.7451 35.0723 57.9116 39.0398 64.75C39.0707 64.8031 39.1171 64.8296 39.1789 64.8296H41.9151Z" fill="black"/>
<path d="M279.531 69.8823H241.941C241.929 69.8823 241.917 69.8872 241.909 69.8959C241.9 69.9046 241.895 69.9163 241.895 69.9286C241.89 71.0305 242.448 71.8451 243.464 72.204C243.602 72.253 243.78 72.3004 243.997 72.3461C244.135 72.3757 244.134 72.3931 243.992 72.3985C240.981 72.5104 238.019 74.5408 236.884 77.3292C236.854 77.4018 236.839 77.3987 236.839 77.3201V64.882C236.839 64.8471 236.857 64.8296 236.892 64.8296H272.021C272.023 64.8296 272.026 64.8291 272.028 64.828C272.031 64.8269 272.033 64.8254 272.035 64.8234C272.037 64.8215 272.038 64.8191 272.039 64.8166C272.04 64.814 272.041 64.8112 272.041 64.8084C272.041 61.9521 272.041 59.114 272.042 56.2939C272.042 55.9088 272.006 55.6377 271.935 55.4804C271.811 55.2096 271.592 55.013 271.277 54.8907C270.86 54.728 270.472 54.7569 270.114 54.9773C269.874 55.1252 269.705 55.3211 269.608 55.5651C269.546 55.7203 269.515 55.965 269.514 56.299C269.513 58.2655 269.513 60.2656 269.514 62.2993C269.514 62.3046 269.513 62.3098 269.511 62.3147C269.509 62.3196 269.506 62.324 269.503 62.3278C269.499 62.3315 269.494 62.3345 269.489 62.3365C269.485 62.3385 269.479 62.3396 269.474 62.3396H236.878C236.868 62.3396 236.858 62.3357 236.851 62.3287C236.843 62.3217 236.839 62.3122 236.839 62.3023V42.3639C236.839 42.253 236.861 42.2486 236.904 42.3508C237.357 43.4321 238.047 44.374 238.972 45.1765C240.47 46.4756 242.217 47.1739 244.214 47.2713C244.215 47.2711 244.216 47.2712 244.216 47.2717C244.217 47.2721 244.217 47.2729 244.217 47.2738C244.217 47.2748 244.217 47.2758 244.216 47.2766C244.216 47.2775 244.215 47.2781 244.214 47.2784C243.196 47.3671 242.356 47.9065 242.028 48.8168C241.94 49.0594 241.896 49.4364 241.896 49.9479C241.897 51.989 241.897 54.433 241.897 57.2799C241.897 57.2916 241.902 57.3029 241.91 57.3112C241.918 57.3196 241.929 57.3242 241.94 57.3242H264.449C264.461 57.3242 264.474 57.319 264.483 57.3098C264.492 57.3005 264.497 57.2879 264.497 57.2748C264.497 56.5571 264.462 55.8927 264.553 55.2435C264.992 52.1425 267.603 49.7523 270.785 49.7745C272.342 49.7852 273.702 50.297 274.867 51.3098C275.981 52.2796 276.68 53.5048 276.961 54.9854C277.031 55.3517 277.064 56.0174 277.061 56.9825C277.055 58.3441 277.056 60.9417 277.063 64.7752C277.063 64.8115 277.081 64.8296 277.118 64.8296H284.552C284.567 64.8296 284.581 64.8354 284.591 64.8456C284.601 64.8558 284.607 64.8696 284.607 64.8841C284.608 67.3754 284.607 69.4212 284.606 71.0214C284.605 71.5961 284.825 71.9983 285.264 72.2281C285.761 72.4872 286.38 72.4066 286.77 72.0033C287.026 71.7406 287.151 71.4217 287.145 71.0466C287.134 70.2341 287.13 67.3449 287.134 62.3789C287.134 62.3685 287.13 62.3585 287.123 62.3511C287.115 62.3437 287.105 62.3396 287.095 62.3396H279.641C279.607 62.3396 279.59 62.3228 279.59 62.2892C279.589 59.6594 279.587 58.1425 279.584 57.7386C279.578 56.8965 279.621 56.2624 279.712 55.8363C280.378 52.695 282.795 50.3713 285.97 49.8572C286.148 49.8289 286.538 49.8047 287.14 49.7846C289.149 49.7174 290.806 48.9008 292.11 47.3349C292.138 47.3013 292.153 47.3063 292.153 47.35V64.7681C292.153 64.8091 292.173 64.8296 292.214 64.8296H294.589C294.625 64.8296 294.644 64.8115 294.644 64.7752C294.643 56.9872 294.642 52.2894 294.642 50.6818C294.642 49.7355 294.676 49.0668 294.743 48.6756C294.957 47.441 295.508 46.36 296.395 45.4326C297.422 44.3593 298.695 43.7251 300.213 43.5302C300.398 43.5067 300.567 43.4966 300.72 43.5C301.163 43.5111 301.557 43.4153 301.857 43.0917C302.282 42.633 302.3 41.9828 301.946 41.4737C301.925 41.4435 301.933 41.425 301.97 41.4183C303.706 41.1118 305.13 40.2747 306.242 38.9071C306.264 38.8782 306.285 38.8798 306.304 38.9121C306.686 39.5754 306.945 40.2283 307.08 40.8709C307.393 42.3622 307.218 43.7584 306.554 45.0596C306.25 45.657 305.855 46.196 305.37 46.6766C304.21 47.8265 302.77 48.4387 301.051 48.5133C300.74 48.5268 300.513 48.5698 300.369 48.6424C300.113 48.7728 299.926 48.9677 299.809 49.2271C299.735 49.3931 299.697 49.6471 299.697 49.9892C299.698 56.6071 299.698 63.2311 299.697 69.8611C299.697 69.8667 299.695 69.8721 299.691 69.8761C299.687 69.88 299.682 69.8823 299.676 69.8823H292.188C292.178 69.8823 292.169 69.8861 292.162 69.8929C292.155 69.8997 292.152 69.9089 292.152 69.9186C292.155 70.5658 292.194 71.4358 292.08 72.09C291.87 73.2944 291.389 74.3274 290.638 75.189C289.376 76.6353 287.803 77.3756 285.918 77.4098C284.321 77.4394 282.908 76.9038 281.678 75.8029C280.553 74.7961 279.877 73.5313 279.649 72.0084C279.549 71.344 279.597 70.6363 279.588 69.9387C279.588 69.9011 279.569 69.8823 279.531 69.8823ZM285.34 55.5308C284.884 55.9875 284.601 56.6196 284.615 57.2708C284.616 57.3078 284.634 57.3263 284.671 57.3263C285.463 57.3242 286.273 57.3222 287.101 57.3202C287.108 57.3202 287.116 57.3158 287.125 57.3071C287.134 57.2984 287.138 57.2903 287.138 57.2829C287.136 56.4549 287.135 55.6454 287.133 54.8544C287.133 54.8174 287.115 54.7986 287.078 54.7979C286.426 54.7868 285.795 55.0731 285.34 55.5308Z" fill="black"/>
<path d="M118.072 64.8296C118.078 64.8296 118.083 64.8275 118.087 64.8237C118.091 64.8199 118.093 64.8148 118.093 64.8095C118.093 55.5785 118.092 50.836 118.092 50.582C118.09 49.6478 118.13 48.9794 118.212 48.5769C118.411 47.6024 118.788 46.7535 119.342 46.0304C120.533 44.4745 122.105 43.6331 124.056 43.5061C124.514 43.4765 124.814 43.4284 124.957 43.3619C125.269 43.2181 125.479 42.9634 125.588 42.5978C125.707 42.1965 125.645 41.8202 125.4 41.4687C125.381 41.4398 125.388 41.4223 125.422 41.4162C127.155 41.1138 128.578 40.2788 129.69 38.9111C129.714 38.8829 129.735 38.8845 129.754 38.9161C130.017 39.3584 130.22 39.8013 130.36 40.2448C130.837 41.7483 130.791 43.1979 130.221 44.5938C129.97 45.2088 129.62 45.7773 129.172 46.2995C127.996 47.6679 126.461 48.4045 124.568 48.5093C124.194 48.5302 123.942 48.5752 123.813 48.6444C123.551 48.7849 123.36 48.9912 123.242 49.2634C123.18 49.4072 123.149 49.6697 123.149 50.0507C123.151 59.4967 123.151 66.0884 123.149 69.8258C123.149 69.8635 123.13 69.8823 123.093 69.8823H115.65C115.644 69.8823 115.639 69.8834 115.634 69.8855C115.629 69.8877 115.624 69.8908 115.62 69.8947C115.616 69.8987 115.613 69.9034 115.611 69.9085C115.609 69.9136 115.608 69.9191 115.608 69.9246C115.62 70.465 115.613 70.9408 115.588 71.3521C115.486 73.0814 114.825 74.5243 113.604 75.6809C112.405 76.8181 110.988 77.3951 109.353 77.4119C107.772 77.4287 106.379 76.9082 105.174 75.8503C103.828 74.6688 102.993 72.8824 103.035 71.0436C103.041 70.8205 103.043 70.4482 103.041 69.9266C103.041 69.9149 103.037 69.9036 103.028 69.8953C103.02 69.887 103.009 69.8823 102.997 69.8823H75.4169C75.3813 69.8823 75.38 69.8756 75.4129 69.8621C76.1189 69.5819 76.7811 69.1773 77.3997 68.6484C79.2574 67.0603 80.2649 65.0262 80.4222 62.5463C80.4222 62.5382 80.4229 62.5382 80.4242 62.5463C80.515 63.384 80.9224 64.1986 81.699 64.5736C82.052 64.7443 82.3767 64.8296 82.6732 64.8296C96.4933 64.829 104.936 64.8293 108.002 64.8306C108.036 64.8306 108.054 64.8481 108.054 64.8831C108.059 66.3919 108.059 68.3926 108.054 70.8854C108.053 71.2906 108.099 71.5739 108.192 71.7352C108.839 72.8602 110.585 72.4268 110.587 71.0971C110.589 68.7918 110.589 65.8868 110.588 62.3819C110.588 62.3537 110.574 62.3396 110.546 62.3396H103.071C103.062 62.3396 103.054 62.3362 103.048 62.3301C103.043 62.3241 103.039 62.3159 103.039 62.3073C103.041 60.0445 103.04 58.5269 103.035 57.7547C103.031 56.9018 103.075 56.2573 103.167 55.8211C103.849 52.6335 106.342 50.2896 109.564 49.84C109.773 49.8105 110.048 49.7926 110.389 49.7866C110.781 49.7785 111.056 49.7641 111.212 49.7432C113.009 49.506 114.457 48.6951 115.556 47.3107C115.589 47.269 115.605 47.2747 115.605 47.3278V64.8024C115.605 64.8096 115.608 64.8166 115.613 64.8217C115.618 64.8268 115.625 64.8296 115.633 64.8296H118.072ZM108.779 55.5147C108.354 55.9388 108.111 56.5067 108.05 57.2184C108.044 57.2883 108.076 57.3232 108.146 57.3232L110.548 57.3253C110.554 57.3253 110.56 57.3226 110.566 57.3172C110.569 57.3158 110.571 57.3142 110.573 57.3121C110.575 57.3101 110.577 57.3078 110.578 57.3051C110.583 57.299 110.586 57.293 110.586 57.2869L110.589 54.8866C110.589 54.8161 110.554 54.7838 110.484 54.7899C109.772 54.8497 109.204 55.0913 108.779 55.5147Z" fill="black"/>
<path d="M212.898 43.6512C214.167 43.6512 215.195 42.6235 215.195 41.3557C215.195 40.088 214.167 39.0603 212.898 39.0603C211.63 39.0603 210.602 40.088 210.602 41.3557C210.602 42.6235 211.63 43.6512 212.898 43.6512Z" fill="black"/>
<path d="M324.136 43.7218C325.401 43.7218 326.426 42.6968 326.426 41.4324C326.426 40.168 325.401 39.1429 324.136 39.1429C322.871 39.1429 321.846 40.168 321.846 41.4324C321.846 42.6968 322.871 43.7218 324.136 43.7218Z" fill="black"/>
<path d="M111.314 43.7661C112.583 43.7661 113.611 42.7384 113.611 41.4707C113.611 40.2029 112.583 39.1752 111.314 39.1752C110.046 39.1752 109.018 40.2029 109.018 41.4707C109.018 42.7384 110.046 43.7661 111.314 43.7661Z" fill="black"/>
<path d="M283.035 43.8044C284.303 43.8044 285.331 42.7767 285.331 41.509C285.331 40.2412 284.303 39.2135 283.035 39.2135C281.766 39.2135 280.738 40.2412 280.738 41.509C280.738 42.7767 281.766 43.8044 283.035 43.8044Z" fill="black"/>
<path d="M289.048 43.8428C290.317 43.8428 291.345 42.8151 291.345 41.5473C291.345 40.2795 290.317 39.2518 289.048 39.2518C287.78 39.2518 286.752 40.2795 286.752 41.5473C286.752 42.8151 287.78 43.8428 289.048 43.8428Z" fill="black"/>
<path d="M59.2573 43.8811C60.5256 43.8811 61.5537 42.8534 61.5537 41.5856C61.5537 40.3178 60.5256 39.2901 59.2573 39.2901C57.9891 39.2901 56.9609 40.3178 56.9609 41.5856C56.9609 42.8534 57.9891 43.8811 59.2573 43.8811Z" fill="black"/>
<path d="M52.0557 43.9194C53.3239 43.9194 54.3521 42.8917 54.3521 41.6239C54.3521 40.3561 53.3239 39.3284 52.0557 39.3284C50.7874 39.3284 49.7593 40.3561 49.7593 41.6239C49.7593 42.8917 50.7874 43.9194 52.0557 43.9194Z" fill="black"/>
<path d="M66.3443 43.9194C67.6125 43.9194 68.6406 42.8917 68.6406 41.6239C68.6406 40.3561 67.6125 39.3284 66.3443 39.3284C65.076 39.3284 64.0479 40.3561 64.0479 41.6239C64.0479 42.8917 65.076 43.9194 66.3443 43.9194Z" fill="black"/>
<path d="M324.136 49.465C325.401 49.465 326.426 48.44 326.426 47.1756C326.426 45.9112 325.401 44.8862 324.136 44.8862C322.871 44.8862 321.846 45.9112 321.846 47.1756C321.846 48.44 322.871 49.465 324.136 49.465Z" fill="black"/>
<path d="M307.244 64.7943C307.244 64.803 307.247 64.8113 307.253 64.8175C307.26 64.8237 307.268 64.8274 307.276 64.8276C308.602 64.8568 309.541 63.9677 309.705 62.6763C309.723 62.5332 309.737 62.5335 309.747 62.6773C309.913 65.0914 310.909 67.0844 312.736 68.6564C313.336 69.1726 313.986 69.5704 314.686 69.85C314.738 69.8715 314.736 69.8823 314.68 69.8823H302.207C302.204 69.8823 302.202 69.8818 302.199 69.8808C302.197 69.8799 302.195 69.8785 302.193 69.8767C302.191 69.8749 302.19 69.8728 302.189 69.8705C302.188 69.8681 302.187 69.8656 302.187 69.8631C302.188 61.9931 302.188 55.2217 302.187 49.5487C302.187 49.4243 302.11 49.2449 301.955 49.0103C301.936 48.9815 301.943 48.964 301.978 48.9579C303.712 48.6542 305.133 47.8174 306.243 46.4477C306.264 46.4208 306.284 46.4222 306.301 46.4518C306.703 47.1339 306.977 47.8588 307.123 48.6263C307.202 49.0362 307.241 49.7056 307.241 50.6344C307.243 55.3564 307.244 60.0764 307.244 64.7943Z" fill="black"/>
<path d="M130.766 64.8336C131.919 64.8094 132.68 64.2557 133.049 63.1723C133.095 63.0362 133.136 62.8194 133.153 62.6803C133.154 62.6764 133.156 62.6728 133.159 62.6703C133.163 62.6678 133.166 62.6664 133.171 62.6664C133.175 62.6664 133.179 62.6678 133.182 62.6703C133.185 62.6728 133.187 62.6764 133.188 62.6803C133.196 62.7556 133.231 62.9979 133.292 63.4072C133.599 65.4617 134.507 67.1627 136.017 68.5102C136.663 69.0869 137.38 69.5358 138.167 69.8571C138.208 69.8739 138.207 69.8823 138.163 69.8823H125.693C125.661 69.8823 125.644 69.8661 125.644 69.8339C125.642 66.7954 125.641 60.0424 125.642 49.5749C125.642 49.4364 125.564 49.2476 125.408 49.0083C125.39 48.9801 125.398 48.9629 125.432 48.9569C127.158 48.6572 128.578 47.8221 129.692 46.4517C129.715 46.4235 129.736 46.4252 129.753 46.4568C130.384 47.559 130.699 48.674 130.698 49.8017C130.691 58.9083 130.694 63.8998 130.706 64.7762C130.707 64.8158 130.727 64.835 130.766 64.8336Z" fill="black"/>
<path d="M55.418 53.9803C55.4307 53.9595 55.4496 53.9538 55.4744 53.9632C55.4617 53.9786 55.4428 53.9844 55.418 53.9803Z" fill="black"/>
<path d="M159.777 69.9347C159.599 74.1194 156.532 76.9774 152.468 77.3715C151.506 77.465 150.608 77.4186 149.775 77.2324C147.973 76.8305 146.466 75.934 145.253 74.5428C144.144 73.2705 143.485 71.7533 143.275 69.9912C143.195 69.3157 143.209 68.6457 143.32 67.981C143.652 65.9634 144.71 64.374 146.492 63.2126C146.63 63.1232 146.875 62.9028 147.227 62.5513C147.58 62.1978 147.805 61.9592 147.901 61.8355C148.758 60.7286 149.015 59.2638 148.099 58.1065C147.87 57.8175 147.57 57.5517 147.197 57.3091C147.136 57.2688 147.141 57.2557 147.213 57.2698C148.733 57.5622 149.786 58.4231 149.932 60.028C149.984 60.5872 149.922 61.144 149.747 61.6984C149.735 61.7341 149.748 61.7552 149.784 61.762C150.002 61.8043 150.14 61.8342 150.197 61.8517C150.827 62.0446 151.25 62.4545 151.466 63.0816C151.477 63.1111 151.467 63.1242 151.435 63.1209C149.807 62.9361 148.347 63.2627 147.057 64.1008C145.016 65.4264 143.943 67.5576 144.221 69.9912C144.433 71.834 145.49 73.3824 147.136 74.2041C148.175 74.7222 149.305 74.8721 150.528 74.6537C152.778 74.2504 154.485 72.3995 154.785 70.1323C154.874 69.4683 154.841 68.8039 154.685 68.1393C154.363 66.7655 153.584 65.6727 152.348 64.8609C152.315 64.8394 152.311 64.8142 152.337 64.7853C153.642 63.2765 154.422 61.4659 154.676 59.3536C154.767 58.5928 154.807 57.9372 154.795 57.3867C154.793 57.337 154.807 57.3323 154.836 57.3726C155.945 58.8949 156.883 60.3398 157.65 61.7075C158.174 62.6437 158.635 63.6693 159.032 64.7843C159.043 64.8145 159.065 64.8296 159.097 64.8296H161.483C161.517 64.8296 161.533 64.8132 161.533 64.7802C161.526 63.8514 161.526 63.3134 161.532 63.1662C161.563 62.4283 161.788 61.6017 162.122 60.9091C162.813 59.4809 163.884 58.4527 165.336 57.8243C165.745 57.6468 166.028 57.5007 166.185 57.3857C166.836 56.9052 167.317 56.3144 167.626 55.6135C167.713 55.4186 167.766 55.2327 167.787 55.056C167.797 54.9787 167.808 54.9784 167.822 55.055C167.992 56.0026 168.699 56.8595 169.463 57.4049C169.658 57.544 169.859 57.6556 170.066 57.7396C170.355 57.8572 170.502 57.9167 170.505 57.918C172.616 58.9503 173.934 60.9051 174.089 63.259C174.095 63.3591 174.101 63.8467 174.106 64.7218C174.118 66.8327 174.935 68.5405 176.556 69.845C176.587 69.8699 176.582 69.8823 176.542 69.8823H159.832C159.796 69.8823 159.778 69.8998 159.777 69.9347ZM169.068 63.5866C169.068 63.2538 168.936 62.9345 168.7 62.6991C168.465 62.4638 168.146 62.3315 167.813 62.3315C167.48 62.3315 167.16 62.4638 166.925 62.6991C166.689 62.9345 166.557 63.2538 166.557 63.5866C166.557 63.9195 166.689 64.2387 166.925 64.4741C167.16 64.7095 167.48 64.8417 167.813 64.8417C168.146 64.8417 168.465 64.7095 168.7 64.4741C168.936 64.2387 169.068 63.9195 169.068 63.5866Z" fill="black"/>
<path d="M227.344 62.4132C227.281 62.4031 227.227 62.3849 227.182 62.3587C227.15 62.3399 227.153 62.3292 227.19 62.3265C228.637 62.2337 229.97 61.8016 231.191 61.03C232.586 60.1476 233.624 58.957 234.306 57.4583C234.336 57.3924 234.35 57.3955 234.35 57.4674C234.349 57.839 234.349 62.5147 234.349 71.4942C234.349 72.2214 234.312 72.7608 234.239 73.1123C233.808 75.1507 232.181 76.7324 230.222 77.2455C227.971 77.8342 225.643 76.8786 224.37 74.9762C224.347 74.9426 224.353 74.9369 224.387 74.9591C225.116 75.4215 225.874 75.5925 226.661 75.4722C227.891 75.2847 228.87 74.4601 229.203 73.2554C229.285 72.957 229.327 72.4593 229.329 71.7624C229.338 68.1628 229.337 65.8495 229.327 64.8226C229.315 63.5994 228.724 62.808 227.555 62.4485C227.552 62.4471 227.481 62.4353 227.344 62.4132Z" fill="black"/>
<path d="M149.37 71.5285C150.733 71.5285 151.839 70.4236 151.839 69.0607C151.839 67.6977 150.733 66.5928 149.37 66.5928C148.006 66.5928 146.901 67.6977 146.901 69.0607C146.901 70.4236 148.006 71.5285 149.37 71.5285Z" fill="black"/>
<path d="M199.569 77.425C200.837 77.425 201.865 76.3972 201.865 75.1295C201.865 73.8617 200.837 72.834 199.569 72.834C198.301 72.834 197.272 73.8617 197.272 75.1295C197.272 76.3972 198.301 77.425 199.569 77.425Z" fill="black"/>
<path d="M194.32 77.4633C195.589 77.4633 196.617 76.4355 196.617 75.1678C196.617 73.9 195.589 72.8723 194.32 72.8723C193.052 72.8723 192.024 73.9 192.024 75.1678C192.024 76.4355 193.052 77.4633 194.32 77.4633Z" fill="black"/>
<path d="M349.876 77.4955C351.141 77.4955 352.167 76.4705 352.167 75.2061C352.167 73.9417 351.141 72.9167 349.876 72.9167C348.611 72.9167 347.586 73.9417 347.586 75.2061C347.586 76.4705 348.611 77.4955 349.876 77.4955Z" fill="black"/>
<path d="M344.629 77.5338C345.894 77.5338 346.92 76.5088 346.92 75.2444C346.92 73.98 345.894 72.955 344.629 72.955C343.364 72.955 342.339 73.98 342.339 75.2444C342.339 76.5088 343.364 77.5338 344.629 77.5338Z" fill="black"/>
</svg>
