<?xml version="1.0" encoding="UTF-8" standalone="no"?>
<!DOCTYPE svg PUBLIC "-//W3C//DTD SVG 1.1//EN" "http://www.w3.org/Graphics/SVG/1.1/DTD/svg11.dtd">
<svg xmlns="http://www.w3.org/2000/svg" version="1.1" viewBox="0.00 0.00 512.00 512.00">
<path fill="#ffffff" d="
  M 215.67 17.66
  C 188.75 19.25 164.47 31.04 146.34 50.41
  Q 143.83 53.09 142.32 53.64
  Q 139.55 54.66 136.82 52.24
  Q 134.52 50.19 135.03 47.20
  Q 135.32 45.52 137.54 43.10
  C 157.71 21.12 185.33 7.98 214.99 6.23
  C 244.65 4.47 273.63 14.27 296.25 33.72
  Q 298.74 35.86 299.22 37.50
  Q 300.08 40.41 298.04 42.71
  Q 295.61 45.44 292.74 44.75
  Q 291.18 44.38 288.37 42.02
  C 268.08 24.92 242.58 16.07 215.67 17.66
  Z"
/>
<path fill="#ffffff" d="
  M 217.39 45.84
  C 236.30 44.74 254.38 50.79 268.84 62.54
  Q 271.95 65.07 272.70 66.84
  C 274.36 70.74 270.59 75.25 266.14 74.35
  Q 264.71 74.06 262.24 71.98
  C 249.88 61.56 234.09 56.39 218.06 57.33
  C 202.03 58.26 186.95 65.23 175.89 77.01
  Q 173.67 79.37 172.29 79.82
  C 167.97 81.23 163.70 77.19 164.90 73.12
  Q 165.44 71.28 168.23 68.41
  C 181.23 55.05 198.49 46.94 217.39 45.84
  Z"
/>
<path fill="#ffffff" d="
  M 396.82 115.06
  C 408.55 126.79 413.85 143.52 410.64 159.92
  Q 406.48 181.15 387.56 193.38
  Q 387.14 193.66 387.34 194.11
  Q 406.50 237.20 397.47 282.25
  Q 390.44 317.31 366.62 345.88
  Q 362.16 351.23 352.71 360.46
  Q 338.75 374.08 328.20 385.45
  Q 306.21 409.15 290.04 438.11
  Q 288.04 441.71 286.67 442.71
  Q 283.97 444.69 280.25 442.31
  Q 277.55 440.58 277.96 437.51
  Q 278.18 435.88 279.81 432.95
  Q 296.52 402.96 319.38 378.12
  Q 330.53 366.00 344.66 352.41
  Q 350.25 347.03 356.70 339.75
  C 377.09 316.73 388.15 287.06 388.84 256.51
  C 389.64 220.95 375.82 186.50 350.60 161.29
  C 325.38 136.07 290.93 122.26 255.37 123.07
  C 224.82 123.77 195.15 134.83 172.13 155.23
  Q 164.86 161.68 159.48 167.27
  Q 145.89 181.41 133.77 192.56
  Q 108.94 215.43 78.95 232.14
  Q 76.02 233.77 74.39 233.99
  Q 71.32 234.40 69.59 231.70
  Q 67.21 227.99 69.19 225.29
  Q 70.19 223.91 73.79 221.91
  Q 102.75 205.74 126.44 183.74
  Q 137.81 173.19 151.43 159.22
  Q 160.65 149.77 166.00 145.31
  Q 194.57 121.48 229.62 114.45
  Q 274.67 105.40 317.77 124.55
  Q 318.22 124.75 318.50 124.33
  Q 330.72 105.41 351.95 101.25
  C 368.35 98.03 385.08 103.33 396.82 115.06
  Z"
/>
<path fill="#ffffff" d="
  M 505.79 296.99
  C 504.03 326.63 490.78 354.21 468.96 374.31
  Q 466.49 376.58 464.67 376.93
  C 460.66 377.69 456.87 373.31 458.41 369.42
  Q 459.00 367.93 461.61 365.50
  C 481.09 347.35 492.78 322.77 494.35 296.31
  C 495.93 269.84 487.23 244.05 470.04 223.72
  Q 467.74 221.00 467.33 219.45
  C 466.26 215.40 470.55 211.50 474.44 212.73
  Q 476.20 213.30 478.39 215.84
  C 497.67 238.39 507.56 267.34 505.79 296.99
  Z"
/>
<rect fill="#ffffff" x="-26.67" y="-189.50" transform="translate(147.88,364.11) rotate(-45.0)" width="53.34" height="379.00" rx="26.41"/>
<path fill="#ffffff" d="
  M 466.10 294.66
  C 464.96 313.67 456.73 330.93 443.22 343.97
  Q 440.49 346.61 438.60 347.16
  Q 435.45 348.08 432.81 344.75
  Q 431.03 342.52 432.02 339.76
  Q 432.53 338.32 434.91 336.08
  C 446.62 325.06 453.65 309.94 454.61 293.97
  C 455.56 278.00 450.39 262.15 440.08 249.81
  Q 437.98 247.30 437.65 245.81
  Q 436.99 242.95 439.03 240.95
  Q 442.05 237.96 445.06 239.25
  Q 446.87 240.02 449.27 242.97
  C 461.13 257.53 467.24 275.64 466.10 294.66
  Z"
/>
<path fill="#ffffff" d="
  M 88.47 423.48
  C 105.00 440.00 129.48 443.43 149.36 430.37
  Q 152.80 428.11 154.59 427.79
  C 158.67 427.06 162.30 431.92 160.33 435.91
  Q 159.60 437.41 157.11 439.05
  Q 146.71 445.91 137.46 448.16
  C 116.50 453.26 95.48 446.65 80.39 431.57
  C 65.30 416.49 58.67 395.47 63.76 374.51
  Q 66.01 365.26 72.86 354.85
  Q 74.50 352.36 76.00 351.63
  C 79.99 349.66 84.85 353.28 84.12 357.36
  Q 83.80 359.15 81.54 362.60
  C 68.50 382.48 71.94 406.96 88.47 423.48
  Z"
/>
</svg>
