<svg viewBox="0 0 512 512" xmlns="http://www.w3.org/2000/svg"><g fill="#fff"><path d="m96.69 303.98q6.11.1 13.28-.03c7.51-.15 13.62 2.88 16.69 9.81q1.39 3.15 1.38 8.47-.06 28.63-.08 61.99c0 8.61-7.2 15.58-15.93 15.72q-8.1.12-15.68.04a.35.35 0 0 0 -.35.35q-.04 27.88.05 59.67.02 6.11-1 9.23c-2.86 8.8-13.09 13.11-21.55 9.29-7.12-3.21-9.6-9.33-9.57-17.11q.14-31.17.05-60.77a.64.64 0 0 0 -.63-.64q-8.39 0-15.14-.01c-9.18 0-16.28-7.37-16.24-16.56q.12-27.8-.07-58.32-.05-7.49 1.07-10.53c3.07-8.32 10.17-10.92 18.89-10.64q6.24.2 11.69-.01a.45.45 0 0 0 .44-.45q.02-128.7.01-254.94c0-9.49 7.32-17.02 16.99-16.47 8.39.48 15.01 7.69 15.01 16.04q-.01 129.53.01 255.17 0 .69.68.7zm-.69 32.8a.78.78 0 0 0 -.78-.78h-30.44a.78.78 0 0 0 -.78.78v30.44a.78.78 0 0 0 .78.78h30.44a.78.78 0 0 0 .78-.78z"/><path d="m208.69 111.98q6.14.1 13.21-.03c7.57-.14 13.72 2.86 16.81 9.91q1.45 3.33 1.38 10.32-.26 27.25-.01 54.34.07 7.93-1.11 11.01c-3.01 7.8-9.66 10.72-18.01 10.51q-6.44-.15-12.69.01a.21.21 0 0 0 -.2.21q-.22 123.28.03 251 .01 6.63-1.02 9.85c-2.83 8.81-12.97 13.24-21.45 9.46-6.05-2.7-9.64-8.38-9.64-14.97q-.05-126.97.05-254.91a.6.59-89 0 0 -.57-.6q-5.93-.22-12.27-.03-5.78.17-9.36-1.38c-6.71-2.91-9.84-8.69-9.83-15.94q.02-30.11-.06-61.83c-.02-7.02 3.47-12.91 10.03-15.7q3.32-1.41 10.65-1.28 5.25.1 10.85.05a.49.48-.6 0 0 .48-.48q.16-29.79-.06-58.82-.04-6.12.9-9.45c1.98-6.94 8.91-11.61 16.17-11.16 7.27.45 13.44 5.94 14.74 13.02q.41 2.2.35 9.62-.21 28.32 0 56.63.01.63.63.64zm-.69 32.8a.78.78 0 0 0 -.78-.78h-30.44a.78.78 0 0 0 -.78.78v30.44a.78.78 0 0 0 .78.78h30.44a.78.78 0 0 0 .78-.78z"/><path d="m307.02 399.42q3.61-17.81 7.28-36.51c1.44-7.33 5.74-12.12 13.05-13.92 9.24-2.28 17.32-5.83 27.06-11.27q8.81-4.91 17.67 1.02 15.5 10.37 31.2 20.83.49.33.91-.09l3.3-3.3q.37-.38.08-.82-9.28-14.18-19.44-29.08c-4.57-6.71-6.56-12.93-2.36-20.09 5.4-9.22 8.99-18.13 11.55-27.9 1.68-6.41 6.68-10.62 13.08-11.87q18.59-3.61 37.02-7.37.58-.12.58-.71v-4.68q0-.62-.61-.74-18.19-3.62-37.67-7.53c-6.63-1.32-11.17-6.23-12.73-12.71-2.23-9.34-6.16-18.32-11.09-26.66-4.14-7.02-2.56-13.09 1.85-19.64q10.21-15.15 19.83-29.71a.67.66-51.4 0 0 -.09-.84l-3.31-3.32q-.41-.4-.89-.08-16.09 10.73-31.55 21.05c-7.3 4.87-13.68 3.31-21.04-1.14-6.76-4.08-15.13-7.31-23.36-9.33-6.48-1.59-11.37-6.05-12.74-12.73q-3.75-18.27-7.54-37.64-.12-.64-.77-.64h-4.59q-.59 0-.71.58-3.37 16.44-7 35.18c-1.46 7.52-4.97 13.08-12.36 14.93q-13.06 3.28-25.26 10.26a.25.24-15 0 1 -.37-.21v-34.44q0-.5.46-.69l7.05-2.87q.42-.17.51-.62 3.47-16.48 6.95-34.87 1.74-9.16 3.79-12.16c4.08-5.95 10.1-7.32 17.11-7.19q12.28.24 25.97.05 10.24-.14 14.96 6.51 2.57 3.63 4.21 12.5 3.22 17.47 6.99 35.17.1.48.58.64 8.46 2.74 16.48 6.83.44.22.86-.05 15.45-9.95 30.85-20.61 6.33-4.38 10.26-5.09c6.66-1.21 11.7 1.76 16.33 6.54q8.92 9.21 18.1 18.13 4.4 4.27 5.79 7.81c2.5 6.42.63 11.67-3.17 17.28q-11.56 17.08-21.65 32.46a.83.82-42 0 0 -.05.82q4.07 8.05 6.92 16.72.1.31.41.37 17.58 3.67 37.81 7.55 6.25 1.2 9.27 3.19c5.79 3.82 7.35 9.52 7.25 16.27q-.16 11.87.04 24.81.11 7.24-1.43 10.55c-2.85 6.13-7.54 8.62-13.93 9.86q-19.93 3.86-38.81 7.74-.51.11-.68.61-2.76 8.46-6.83 16.48-.25.5.06.96 10.98 16.5 22.62 33.93 5.19 7.77 2.26 15.55-1.53 4.07-8.56 10.73-6.9 6.54-12.9 12.85-6.39 6.74-9.61 8.01c-7.38 2.93-12.69.63-18.84-3.59q-15.45-10.59-31.52-21.06a.79.78-41.7 0 0 -.79-.04q-8.05 4.05-16.74 6.94-.33.11-.4.45-3.65 17.48-6.95 34.96-1.7 8.97-3.7 11.99c-4.19 6.29-10.31 7.57-17.64 7.36q-11-.32-21.98.02-8.05.25-12.28-1.61-7.52-3.3-9.35-12.53-4.03-20.34-8.01-40.13a.77.76 3.5 0 0 -.5-.56q-8.61-2.82-16.62-6.88-.5-.26-.96.05l-21.47 14.34q-.52.35-.52-.28v-37.23q0-.63.54-.97 4.56-2.86 9.27-6.21c7.21-5.13 13.52-6.25 21.11-1.74q12.25 7.27 26.1 10.77c8.02 2.02 11.49 7.38 13 15.21q3.38 17.53 6.96 35.08.12.59.73.59h4.59q.6 0 .72-.58z"/><path d="m367.94 255.99a63.94 63.94 0 0 1 -63.94 63.94 63.94 63.94 0 0 1 -63.94-63.94 63.94 63.94 0 0 1 63.94-63.94 63.94 63.94 0 0 1 63.94 63.94zm-31.94.01a32 32 0 0 0 -32-32 32 32 0 0 0 -32 32 32 32 0 0 0 32 32 32 32 0 0 0 32-32z"/></g></svg>