<svg height="1080" viewBox="0 0 2443 1080" width="2443" xmlns="http://www.w3.org/2000/svg"><path d="m285.6 555.8c0-49.1 18.3-95.7 50.8-137.5v-64.1h66.2c7-5.3 14.1-10.5 21.6-15.5v-15.9c0-52.1 42.3-94.3 94.4-94.3h1407.1c52.2 0 94.4 42.2 94.4 94.3v15.9c7.5 5 14.7 10.2 21.7 15.5h66.1v64.1c32.6 41.8 50.9 88.4 50.9 137.5q0 1 0 2.1 0 1.1 0 2.1c0 49.1-18.3 95.7-50.9 137.5v64.2h-66.1c-7 5.2-14.2 10.4-21.7 15.4v15.9c0 52.1-42.2 94.4-94.4 94.4h-1407.1c-52.1 0-94.4-42.3-94.4-94.4v-15.9c-7.5-5-14.6-10.2-21.6-15.4h-66.2v-64.2c-32.5-41.8-50.8-88.4-50.8-137.5q-.1-1 0-2.1-.1-1.1 0-2.1z" fill="#8fa47c"/><path d="m277.4 560v-2.1-2.1c0-48.9 17.1-96.1 50.9-140.2v-61.4c0-4.5 3.6-8.2 8.1-8.2h63.5c5.5-4.1 10.9-8 16.2-11.6v-11.6c0-56.5 46-102.5 102.5-102.5h1407.1c56.6 0 102.6 46 102.6 102.5v11.6c5.3 3.6 10.6 7.4 16.2 11.6h63.4c4.5 0 8.1 3.7 8.1 8.2v61.4c33.8 44.1 50.9 91.3 50.9 140.2v2.2 2c0 49-17.1 96.1-50.9 140.3v61.4c0 4.4-3.6 8.1-8.1 8.1h-63.4c-5.5 4.1-10.9 8-16.2 11.7v11.5c0 56.5-46 102.5-102.6 102.5h-1407.1c-56.5 0-102.5-46-102.5-102.5v-11.5c-5.3-3.7-10.7-7.5-16.2-11.7h-63.5c-4.5 0-8.1-3.7-8.1-8.1v-61.4c-33.8-44.2-50.9-91.3-50.9-140.3zm16.3-2.1q0 .1 0 .1v2c0 46.1 16.5 90.6 49.2 132.5 1.1 1.4 1.7 3.2 1.7 5v56h58c1.8 0 3.5.6 4.9 1.7 7.4 5.6 14.3 10.5 21.3 15.2 2.2 1.5 3.6 4 3.6 6.7v15.9c0 47.5 38.7 86.2 86.2 86.2h1407.1c47.6 0 86.3-38.7 86.3-86.2v-15.9c0-2.7 1.3-5.2 3.6-6.7 7-4.7 13.9-9.7 21.3-15.2 1.4-1.1 3.1-1.7 4.9-1.7h58v-56c0-1.8.6-3.6 1.7-5 32.6-41.9 49.2-86.4 49.2-132.5v-2-2.2c0-46.1-16.6-90.6-49.2-132.5-1.1-1.4-1.7-3.2-1.7-5v-56h-58c-1.8 0-3.5-.6-5-1.7-7.3-5.6-14.3-10.5-21.2-15.2-2.3-1.5-3.6-4-3.6-6.7v-15.9c0-47.5-38.7-86.2-86.3-86.2h-1407.1c-47.5 0-86.2 38.7-86.2 86.2v15.9c0 2.7-1.4 5.2-3.6 6.7-7 4.7-13.9 9.7-21.3 15.2-1.4 1.1-3.1 1.7-4.9 1.7h-58v56c0 1.9-.6 3.6-1.7 5-32.7 41.9-49.2 86.4-49.2 132.5v2q0 0 0 .1z" fill="#8fa47c" fill-rule="evenodd"/><path d="m308.4 560v-4.2c0-42.7 15.5-84.2 46.1-123.4 3.1-4 4.8-9 4.8-14.1v-39.2c0-1.2.9-2.1 2-2.1h41.3c5 0 9.9-1.6 13.8-4.6 7.2-5.4 13.9-10.2 20.5-14.7 6.4-4.3 10.2-11.4 10.2-19v-15.9c0-39.4 32.1-71.5 71.5-71.5h1407.1c39.5 0 71.6 32.1 71.6 71.5v15.9c0 7.6 3.8 14.7 10.1 19 6.7 4.5 13.4 9.3 20.5 14.7 4 3 8.9 4.6 13.9 4.6h41.2c1.1 0 2 .9 2 2.1v39.2c0 5.1 1.8 10.1 4.9 14.1 30.5 39.2 46 80.7 46 123.4v4.2c0 42.7-15.5 84.2-46 123.4-3.1 4-4.9 9-4.9 14.1v39.3c0 1.1-.9 2-2 2h-41.2c-5 0-9.9 1.6-13.8 4.6-7.1 5.4-13.9 10.2-20.6 14.7-6.4 4.3-10.1 11.4-10.1 19v15.9c0 39.4-32.1 71.5-71.6 71.5h-1407.1c-39.4 0-71.5-32.1-71.5-71.5v-15.9c0-7.6-3.8-14.7-10.1-19-6.8-4.5-13.5-9.3-20.6-14.7-3.9-3-8.9-4.6-13.8-4.6h-41.3c-1.1 0-2-.9-2-2v-39.3c0-5.1-1.7-10.1-4.8-14.1-30.6-39.2-46.1-80.7-46.1-123.4zm55-178.9v37.2c0 6-2 11.9-5.7 16.6-30 38.5-45.2 79.1-45.2 120.9v4.2c0 41.8 15.2 82.5 45.2 120.9 3.7 4.7 5.7 10.6 5.7 16.6v37.2h39.2c5.8 0 11.6 2 16.3 5.5 7 5.3 13.6 10.1 20.3 14.6 7.5 5 12 13.3 12 22.3v15.9c0 37.2 30.2 67.4 67.4 67.4h1407.1c37.2 0 67.5-30.2 67.5-67.4v-15.9c0-9 4.5-17.3 11.9-22.3 6.7-4.5 13.4-9.3 20.4-14.6 4.7-3.5 10.4-5.5 16.3-5.5h39.2v-37.2c0-6 2-11.9 5.7-16.6 30-38.4 45.2-79.1 45.2-120.9v-4.2c0-41.8-15.2-82.4-45.2-120.9-3.7-4.7-5.7-10.6-5.7-16.6v-37.2h-39.2c-5.9 0-11.7-1.9-16.3-5.5-7.1-5.3-13.7-10.1-20.4-14.5-7.4-5-11.9-13.4-11.9-22.4v-15.9c0-37.2-30.3-67.4-67.5-67.4h-1407.1c-37.2 0-67.4 30.2-67.4 67.4v15.9c0 9-4.5 17.4-12 22.4-6.6 4.4-13.2 9.1-20.3 14.5-4.7 3.6-10.5 5.5-16.3 5.5z" fill="#f7aa55" fill-rule="evenodd"/><path d="m1064.8 862-10.7-17.7-27.2-50.9-62.8-27.3-73.4-18.9-113.6-58-35.6-34.4-22.5-54.4-5.9-75.8 9.5-48.5 37.9-59.2 53.3-37.9 50.9-16.6 30.8-42.6 62.7-45 52.1-22.5 424.4-.2 37.4 16.8 50.9 30.7 86.4 69.9 45 24.9 42.6 42.6 21.3 48.5 10.7 56.9-7.1 50.9-36.7 82.8-67.5 32-67.5 41.5-105.4 13-67.4 99.8z" fill="#fff"/><g fill="#ba6930" stroke="#000" stroke-linecap="round" stroke-linejoin="round" stroke-width=".4"><path d="m1582.1 313.3s-13.4-65.8 23.6-60.8c37.6 5.1 42.1 30.1 42.1 36.4 0 6.2-2.8 17-39.8 39.7 0 0-4.5-10.8-25.9-15.3z"/><path d="m1555.1 328.5s-61.9-24.2-37.7-52.9c24.7-29.3 47.9-19.5 53-16.1 5.2 3.4 12.7 11.6 11.4 55.4 0 0-11.4-2-26.7 13.6z"/><path d="m1608.2 329.4s45.2-49.1 62.6-15.7c17.6 34 .1 52.2-5 55.8-5 3.6-15.3 7.5-55.1-9.9 0 0 6.1-10-2.5-30.2z"/><path d="m1574.5 778.9s65.7 9.4 48.5 43c-17.4 34-42.2 29.9-48 27.8s-14.9-8.5-23.5-51.4c0 0 11.6-.7 23-19.4z"/><path d="m1569.4 748s43.5-50.8 62-18c18.9 33.3 2 52.1-2.9 55.9s-15.1 8.1-55.4-7.9c0 0 5.7-10.2-3.7-30z"/><path d="m1550.7 798.2s30.4 59.7-6.5 65c-37.6 5.3-48.6-17.6-50.2-23.6-1.7-6-1.9-17.1 27.8-49.1 0 0 7.1 9.2 28.9 7.7z"/></g><path d="m1547.9 329.2s19.1-23.8 49.4-14.8c0 0 23 14.8 17.4 50l-47.7-11.9z" fill="#90a57d"/><path d="m1571.3 740.9s15.7 26.2-3 52c0 0-21.5 16.9-52.4-.3l2.9-31.6z" fill="#90a57c"/><path d="m1586.7 307.6s-2.3-31.8.5-38c2.8-6.3 11.8-19.4 38.2-4 19.3 11.2 20.2 25 2.8 41.5-17.4 16.4-19.7 14.7-19.7 14.7l-3.4-6.2s19.2-27.3 12.4-39.2c0 0-10.1-.6-20.2 32.4z" fill="#f8ab55"/><path d="m1552.8 321.7s-27.6-15.4-31.3-21.2c-3.6-5.8-9.6-20.5 17.4-34.6 19.8-10.3 31.7-3.6 36 20.1 4.2 23.8 1.6 24.7 1.6 24.7l-7-.5s-12.3-31-25.9-31.8c0 0-5.9 8.3 16 34.8z" fill="#f8ab55"/><path d="m1615.3 329.8s24.4-20.2 31-21.5c6.7-1.3 22.4-1.5 25.3 29.2 2.1 22.4-8.4 31.1-31.8 26.3-23.3-4.9-23.2-7.7-23.2-7.7l3.1-6.4s33 0 38.7-12.5c0 0-5.4-8.6-37.8 2.1z" fill="#f8ab55"/><path d="m1578.3 785.1s30.3 8.6 35.1 13.3c4.9 4.8 14 17.8-9.1 37.7-17 14.6-30.1 10.9-39.6-11.3-9.4-22.1-7.1-23.7-7.1-23.7l7-1.1s18.9 27.4 32.3 25c0 0 3.9-9.4-23.3-30.2z" fill="#f8ab55"/><path d="m1576.6 748.1s23.6-21.1 30.2-22.7c6.6-1.5 22.3-2.2 26.3 28.3 2.9 22.3-7.3 31.4-30.8 27.5-23.5-4-23.5-6.9-23.5-6.9l2.8-6.5s33-1.2 38.3-13.9c0 0-5.7-8.4-37.7 3.5z" fill="#f8ab55"/><path d="m1547.9 804.9s10.6 30 9.6 36.8c-1.1 6.8-6.2 21.8-35.7 14.2-21.6-5.5-26.1-18.5-13.7-39.1 12.3-20.6 15-19.6 15-19.6l4.8 5.1s-11.1 31.4-1.4 41.1c0 0 9.9-2.2 10.8-36.7z" fill="#f8ab55"/><path d="m834.5 328.6c-37-22.7-39.8-33.5-39.8-39.7 0-6.3 4.5-31.3 42.1-36.4 36.9-5 23.6 60.8 23.6 60.8-21.4 4.5-25.9 15.3-25.9 15.3z" fill="#ba6930" stroke="#000" stroke-linecap="round" stroke-linejoin="round" stroke-width=".4"/><path d="m860.7 314.9c-1.3-43.8 6.2-52 11.3-55.4 5.2-3.4 28.4-13.2 53 16.1 24.3 28.7-37.6 52.9-37.6 52.9-15.3-15.6-26.7-13.6-26.7-13.6z" fill="#ba6930" stroke="#000" stroke-linecap="round" stroke-linejoin="round" stroke-width=".4"/><path d="m831.7 359.6c-39.7 17.4-50 13.5-55 9.9-5.1-3.6-22.6-21.8-5-55.8 17.4-33.4 62.6 15.7 62.6 15.7-8.7 20.2-2.6 30.2-2.6 30.2z" fill="#ba6930" stroke="#000" stroke-linecap="round" stroke-linejoin="round" stroke-width=".4"/><path d="m891 798.3c-8.6 42.9-17.7 49.3-23.5 51.4s-30.6 6.2-48-27.8c-17.2-33.6 48.5-43 48.5-43 11.4 18.7 23 19.4 23 19.4z" fill="#ba6930" stroke="#000" stroke-linecap="round" stroke-linejoin="round" stroke-width=".4"/><path d="m869.4 778c-40.3 16-50.5 11.7-55.4 7.9s-21.8-22.6-3-55.9c18.6-32.8 62 18 62 18-9.3 19.8-3.6 30-3.6 30z" fill="#ba6930" stroke="#000" stroke-linecap="round" stroke-linejoin="round" stroke-width=".4"/><path d="m920.7 790.5c29.6 32 29.5 43.1 27.8 49.1-1.6 6-12.6 28.9-50.2 23.6-36.9-5.3-6.5-65-6.5-65 21.7 1.5 28.9-7.7 28.9-7.7z" fill="#ba6930" stroke="#000" stroke-linecap="round" stroke-linejoin="round" stroke-width=".4"/><path d="m875.5 352.5-47.7 11.9c-5.6-35.2 17.4-50 17.4-50 30.3-9 49.4 14.8 49.4 14.8z" fill="#90a57d"/><path d="m923.7 762.9 2.9 29.7c-30.9 17.2-52.4.3-52.4.3-18.7-25.8-3-52-3-52z" fill="#90a57c"/><path d="m845.2 308.8c-10.1-33-20.2-32.4-20.2-32.4-6.7 11.9 12.3 39.2 12.3 39.2l-3.3 6.2s-2.3 1.7-19.7-14.7c-17.4-16.5-16.5-30.3 2.8-41.5 26.4-15.4 35.4-2.3 38.2 4 2.8 6.2.5 38 .5 38z" fill="#f8ab55"/><path d="m882.9 313.2c21.9-26.5 16-34.8 16-34.8-13.6.8-25.9 31.8-25.9 31.8l-7 .5s-2.6-.9 1.6-24.7c4.3-23.7 16.2-30.4 36-20.1 27 14.1 21 28.8 17.3 34.6-3.6 5.8-31.2 21.2-31.2 21.2z" fill="#f8ab55"/><path d="m821.9 339.3c-32.4-10.7-37.8-2.1-37.8-2.1 5.7 12.5 38.7 12.5 38.7 12.5l3.1 6.4s.1 2.8-23.3 7.7c-23.3 4.8-33.9-3.9-31.7-26.3 2.9-30.7 18.6-30.5 25.2-29.2 6.7 1.3 31 21.5 31 21.5z" fill="#f8ab55"/><path d="m868.9 794.8c-27.2 20.8-23.3 30.2-23.3 30.2 13.4 2.4 32.3-25 32.3-25l6.9 1.1s2.4 1.6-7.1 23.7c-9.4 22.2-22.5 25.9-39.5 11.3-23.1-19.9-14-32.9-9.2-37.7 4.9-4.7 35.2-13.3 35.2-13.3z" fill="#f8ab55"/><path d="m860.3 757.4c-32-11.9-37.7-3.5-37.7-3.5 5.3 12.7 38.3 13.9 38.3 13.9l2.8 6.5s0 2.9-23.5 6.9c-23.5 3.9-33.8-5.2-30.8-27.5 3.9-30.5 19.7-29.8 26.3-28.3 6.6 1.6 30.2 22.7 30.2 22.7z" fill="#f8ab55"/><path d="m905.2 806.7c.9 34.5 10.8 36.7 10.8 36.7 9.7-9.7-1.5-41.1-1.5-41.1l4.9-5.1s2.7-1 15 19.6c12.4 20.6 7.9 33.6-13.7 39.1-29.5 7.6-34.6-7.4-35.7-14.2-1-6.8 9.6-36.8 9.6-36.8z" fill="#f8ab55"/><path d="m1379.7 815.8c8.9-45.4 69.6-72.7 102.5-72.7s230.4-37.8 230.4-192.3c0-168.2-151.1-175.8-151.1-175.8-6-21.2-31.4-60.5-77.8-84.8-46.4-24.2-71.2-53.9-71.2-53.9l13-15.3s26.5 25.7 74.6 48.4c56.7 26.7 77.9 73.8 77.9 78.4 0 0 149.6 15.1 172.1 177.2 6.4 46.5-10.5 97-10.5 97s58.3-10.6 62.8 66.6c0 0-58.5-29.9-85.3 21.2-13.4 25.8-31.4 40.9-58.3 40.9-27 0-22.5-27.2-22.5-27.2s-37.4 43.9-103.2 43.9c0 0 38.9 21.2 38.9 83.3s-53.9 97-100.3 97-55.1 9.2-52.9 27.2c1.7 14.2 14 9.1 14 9.1s-12 3-10.5-12.1c1-9.5 10.9-12.3 18.4-12.3 15.1 0 22.9 15.5 20.5 28.9-2.6 14.8-11.6 25.6-38.5 25.6-18.6 0-33.3-24-33.3-39.2 0-75.7 130.2-42.4 130.2-127.2 0-65.2-139.5-54.3-139.9 34.8-.1 18.6-7.9-26.8 0-66.7z" fill="#90a57c"/><path d="m1063.6 882.5c-.4-89.1-139.9-100-139.9-34.8 0 84.8 130.2 51.5 130.2 127.2 0 15.2-14.7 39.2-33.3 39.2-26.9 0-35.9-10.8-38.5-25.6-2.4-13.4 5.4-28.9 20.5-28.9 7.5 0 17.4 2.8 18.4 12.3 1.5 15.1-10.5 12.1-10.5 12.1s12.3 5.1 14-9.1c2.1-18-6.5-27.2-52.9-27.2s-100.3-34.9-100.3-97 38.9-83.3 38.9-83.3c-65.8 0-103.2-43.9-103.2-43.9s4.5 27.2-22.5 27.2c-26.9 0-44.8-15.1-58.3-40.9-26.8-51.1-85.3-21.2-85.3-21.2 4.5-77.2 62.8-66.6 62.8-66.6s-16.9-50.5-10.4-97c22.4-162.1 172.1-177.2 172.1-177.2 0-4.6 21.1-51.7 77.8-78.4 48.1-22.7 73.5-47.7 73.5-47.7l12.9 14.3s-23.6 30-70 54.2c-46.4 24.3-71.8 63.6-77.8 84.8 0 0-151.1 7.6-151.1 175.8 0 154.5 197.5 192.3 230.4 192.3s93.6 27.3 102.5 72.7c7.9 39.9.1 85.3 0 66.7z" fill="#90a57c"/><path d="m256.1 627c26.7-28 17-69.4 17-69.4s9.7-41.4-17-69.4c0 0 48.8-4.7 131.2 69.4-82.4 74.1-131.2 69.4-131.2 69.4z" fill="#39412a"/><path d="m249.5 613.2c-17.1 9.5-15.8 18.1-15.8 24.2 0 8.4 6.2 21.9 27.8 17.9 0 0-24.3 1.1-24.3-18s16.6-20.4 21.1-20.4c4.6 0 31.3-.8 26.2 37.1-2.8 20.8-17.3 28.9-39.8 28.9-14.2 0-41.7-12.1-41.7-43 0-10.1 3.1-21.3 3.1-21.3s-35.2 14.6-59.1-20.8c-23.9-35.3-46-40.2-46-40.2s22.1-4.9 46-40.2c23.9-35.4 59.1-20.8 59.1-20.8s-3.1-11.2-3.1-21.3c0-30.9 27.5-43.1 41.7-43.1 22.5 0 37 8.2 39.8 29 5.1 37.9-21.6 37.1-26.2 37.1-4.5 0-21.1-1.3-21.1-20.4s24.3-18.1 24.3-18.1c-21.6-3.9-27.8 9.6-27.8 18 0 6.1-1.3 14.7 15.8 24.2 19.2 10.8 17.4 55.6 17.4 55.6s1.8 44.8-17.4 55.6z" fill="#39412a"/><path d="m199.8 591.6c-26.1 0-24.4-30.1-38-34 13.6-3.9 11.9-34.1 38-34.1 26.2 0 46.6 34.1 46.6 34.1s-20.4 34-46.6 34z" fill="#cdba72"/><path d="m2185.8 488.2c-26.7 28-17.1 69.4-17.1 69.4s-9.6 41.4 17.1 69.4c0 0-48.9 4.7-131.2-69.4 82.3-74.1 131.2-69.4 131.2-69.4z" fill="#39412a"/><path d="m2192.4 502c17-9.5 15.8-18.1 15.8-24.2 0-8.4-6.2-21.9-27.8-18 0 0 24.3-1 24.3 18.1s-16.6 20.4-21.2 20.4c-4.5 0-31.2.8-26.1-37.1 2.8-20.8 17.2-29 39.8-29 14.2 0 41.7 12.2 41.7 43.1 0 10.1-3.1 21.3-3.1 21.3s35.2-14.6 59 20.8c23.9 35.3 46.1 40.2 46.1 40.2s-22.2 4.9-46.1 40.2c-23.8 35.4-59 20.8-59 20.8s3.1 11.2 3.1 21.3c0 30.9-27.5 43-41.7 43-22.6 0-37-8.1-39.8-29-5.1-37.8 21.6-37 26.1-37 4.6 0 21.2 1.3 21.2 20.4s-24.3 18.1-24.3 18.1c21.6 3.9 27.8-9.6 27.8-18 0-6.1 1.2-14.7-15.8-24.2-19.2-10.8-17.4-55.6-17.4-55.6s-1.8-44.8 17.4-55.6z" fill="#39412a"/><path d="m2242 523.5c26.2 0 24.5 30.2 38.1 34.1-13.6 3.9-11.9 34.1-38.1 34.1-26.1 0-46.5-34.1-46.5-34.1s20.4-34.1 46.5-34.1z" fill="#cdba72"/><path d="m969.5 874.3c7.3 36.5 2.2 44.5-1.6 48.1-3.9 3.6-21.9 15.2-46.7-5.7-24.4-20.5 24-49.9 24-49.9 15.1 10.9 24.3 7.5 24.3 7.5z" fill="#cdba72"/><path d="m944.8 866.8c-33.7 15.1-42.5 11.8-46.8 8.7-4.3-3-19.3-18.4-4.4-47.4 14.6-28.5 53.3 13.1 53.3 13.1-7.3 17.2-2.1 25.6-2.1 25.6z" fill="#cdba72"/><path d="m946.7 841.8c-25.8-26.5-25.8-36-24.6-41.2 1.3-5.1 10.2-24.7 42.3-21 31.4 3.7 6.8 55.1 6.8 55.1-18.5-.8-24.5 7.1-24.5 7.1z" fill="#cdba72"/><path d="m985.7 854.6c36.1 7.4 41.4 15.2 43.1 20.2 1.8 5 5.3 26.3-23.3 41.3-28.2 14.8-36.1-41.7-36.1-41.7 15.7-9.9 16.3-19.8 16.3-19.8z" fill="#cdba72"/><path d="m970.1 835c13.9-34.5 22.5-38.3 27.6-39.1 5.2-.9 26.5-.4 35.8 30.8 9.2 30.8-47.2 28.2-47.2 28.2-6.7-17.5-16.2-19.9-16.2-19.9z" fill="#cdba72"/><path d="m950.7 836.4c8.5-6.3 22.3-8.3 32.2 7.8s1.5 23.3-9.3 30.1-27.1.3-31.1-6.2c-4.1-6.6-3.1-23.5 8.2-31.7z" fill="#39412a"/><path d="m951.1 879c-14.6 25.4-8.4 31.5-8.4 31.5 11.3-2.6 17.1-30.4 17.1-30.4l5.8-1.5s2.4.4 2.2 21c-.2 20.4-9.2 27.8-27.2 22-24.7-7.8-21.8-21-19.6-26.4 2.3-5.4 23.3-22.3 23.3-22.3z" fill="#90a57c"/><path d="m936.3 849.6c-27.5-8.9-32.1-1.6-32.1-1.6 4.9 10.6 33 10.5 33 10.5l2.7 5.4s0 2.4-19.8 6.6c-19.8 4.3-28.8-3.1-27.1-22.2 2.3-26.1 15.7-26 21.3-24.9 5.7 1.1 26.5 18.2 26.5 18.2z" fill="#90a57c"/><path d="m959.6 827.7c-1.5-29.3-9.9-30.9-9.9-30.9-8 8.3 2.1 34.9 2.1 34.9l-4.1 4.4s-2.2.9-13.2-16.3c-10.9-17.3-7.3-28.4 10.9-33.6 25-7 29.6 5.6 30.7 11.4 1 5.7-7.5 31.4-7.5 31.4z" fill="#90a57c"/><path d="m982.8 873.6c17.4 23.4 25.3 20 25.3 20 2-11.5-21-27.8-21-27.8l1-5.9s1.3-2 19.9 6.1 21.7 19.4 9.5 34c-16.8 19.9-27.7 12.1-31.7 7.9s-11.2-30.3-11.2-30.3z" fill="#90a57c"/><path d="m988 841.4c26-13 24.2-21.5 24.2-21.5-10.8-4.1-30.9 15.8-30.9 15.8l-5.6-2.1s-1.8-1.6 9.6-18.6c11.3-17 22.8-18.1 34.8-3.2 16.2 20.4 6.6 29.7 1.8 32.9-4.8 3.3-31.5 5.6-31.5 5.6z" fill="#90a57c"/><path d="m1499.8 864.5s48.4 29.4 24 49.9c-24.8 20.8-42.8 9.3-46.7 5.7-3.8-3.6-8.9-11.6-1.6-48.1 0 0 9.2 3.3 24.3-7.5z" fill="#cdba72"/><path d="m1498.1 838.8s38.7-41.6 53.3-13.1c14.8 29-.1 44.4-4.4 47.4-4.3 3.1-13.1 6.4-46.8-8.6 0 0 5.2-8.5-2.1-25.7z" fill="#cdba72"/><path d="m1473.8 832.3s-24.7-51.4 6.8-55c32.1-3.8 41 15.8 42.2 21 1.4 5.1 1.3 14.6-24.5 41.2 0 0-6-8-24.5-7.2z" fill="#cdba72"/><path d="m1475.6 872s-7.9 56.5-36 41.8c-28.7-15-25.2-36.3-23.4-41.3 1.7-5 7-12.9 43.1-20.3 0 0 .6 10 16.3 19.8z" fill="#cdba72"/><path d="m1458.7 852.5s-56.4 2.6-47.2-28.1c9.3-31.3 30.6-31.8 35.8-30.9 5.2.8 13.7 4.6 27.6 39.1 0 0-9.5 2.4-16.2 19.9z" fill="#cdba72"/><path d="m1500.8 870.6s20.9 16.9 23.1 22.3c2.3 5.3 5.2 18.5-19.5 26.4-18 5.7-27.1-1.6-27.2-22.1-.2-20.5 2.2-20.9 2.2-20.9l5.8 1.4s5.8 27.8 17.1 30.4c0 0 6.1-6.1-8.4-31.4z" fill="#90a57c"/><path d="m1504.2 839.2s20.8-17.1 26.5-18.2c5.6-1.1 19-1.1 21.3 25 1.7 19-7.3 26.4-27.1 22.2s-19.7-6.6-19.7-6.6l2.6-5.5s28.1.2 33-10.4c0 0-4.6-7.4-32.2 1.6z" fill="#90a57c"/><path d="m1476.3 826.7s-8.4-25.7-7.4-31.5c1.1-5.7 5.7-18.4 30.6-11.3 18.3 5.1 21.9 16.2 10.9 33.5-10.9 17.3-13.1 16.3-13.1 16.3l-4.1-4.4s10.1-26.5 2.1-34.9c0 0-8.5 1.7-9.9 31z" fill="#90a57c"/><path d="m1470.4 875.2s-7.2 26.1-11.2 30.3-14.9 12-31.7-7.9c-12.2-14.6-9.1-25.9 9.5-34s19.9-6.1 19.9-6.1l1 6s-23 16.2-21 27.8c0 0 7.9 3.3 25.3-20.1z" fill="#90a57c"/><path d="m1454.6 848s-26.7-2.4-31.5-5.6-14.4-12.6 1.9-33c11.8-14.9 23.4-13.8 34.7 3.2s9.6 18.7 9.6 18.7l-5.6 2s-20-19.9-30.9-15.8c0 0-1.8 8.6 24.2 21.6z" fill="#90a57c"/><path d="m1502.5 865.7c-4 6.6-20.3 13-31.1 6.2s-19.2-13.9-9.3-30.1c9.9-16.1 23.6-14 32.2-7.8 11.4 8.3 12.2 25.1 8.2 31.7z" fill="#39412a"/></svg>