<svg fill="none" height="24" viewBox="0 0 21 24" width="21" xmlns="http://www.w3.org/2000/svg"><path d="m4 1.08124c-.04477.14774-.14925.27438-.14925.40102-.00995 7.02835-.01493 14.05674-.01493 21.08504 0 .1267.10448.2586.14925.4063-.56716.0211-1.13433.0264-1.71641.0264-.59702 0-.98508-.1055-1.11941-.3113-.07463-.1108-.1194-.2216-.1194-.3377 0-6.8859.01493-13.77179-.02985-20.66296 0-.55404 1.1194-.838969 3-.6068z" fill="#cdad80"/><path d="m16.985 1.0294c-.015.24277-.12.46443-.12.68609-.01 6.92419-.015 13.84841-.015 20.77261 0 .1583.105.3114.15.4855-.525.0211-1.0499.0264-1.5749.0264-.8399-.0053-1.1699-.095-1.3349-.3853-.075-.1161-.06-.2427-.06-.3641-.015-6.7817.015-13.55814-.03-20.33984-.015-.83386.765-.98691 2.9848-.88136z" fill="#cdad80"/><g clip-rule="evenodd" fill="#404c6e" fill-rule="evenodd"><path d="m7.99467 10.7008c0 3.8687-.00533 7.7062.00533 11.5489 0 1.1009-.84744 1.7656-1.79081 1.75-1.48168-.0207-2.96868-.0104-4.45036-.0052-1.023322.0052-1.75883159-.6698-1.75883149-1.7448l.00000118-13.49628c.0000002-2.31949.0000004-4.63724.00000061-6.95327.00000004-.52968.1279157-1.002228.5436387-1.376115.303797-.264838.660891-.4102383 1.055291-.41543117 1.59894-.01038563 3.19787-.01038581 4.79681-.00519278.88474.00519296 1.59893.75816195 1.59893 1.66691895zm-5.75616-9.49264c-.66622-.20771-1.06596.0727-1.06596.61795.01599 6.78191.01066 13.55859.01066 20.33539 0 .1142.01599.2232.04264.3323.04797.2025.18654.3064.39973.3064.20786 0 .41039-.0052.66089 0h3.91739c.43705 0 .56496-.1247.56496-.5557 0-6.8269 0-13.65379 0-20.4807 0-.4362-.13324-.56603-.58627-.56603h-3.62425c-.1066.0052-.20787.03636-.31979.01039z"/><path d="m20.9987 6.28973c0 5.32867.0053 10.63657-.0054 15.93927 0 .9244-.4582 1.5477-1.3855 1.7502-.0852.0156-.1758.0208-.2611.0208-1.556 0-3.1103 0-4.6628 0-.9379 0-1.6732-.7167-1.6786-1.636-.0053-1.0128 0-2.0255 0-3.0383 0-5.8584.0054-11.71679-.0053-17.5752 0-1.049112.7833-1.7658334 1.7905-1.7502524 1.4814.0207746 2.9629.0103878 4.4496.00519434 1.0179-.01038717 1.7532.67517206 1.7586 1.71389806zm-5.7073 16.51577h3.9168c.4369 0 .5648-.1247.5648-.5558 0-6.8296-.0053-13.66439.0054-20.4992.0053-.38433-.2239-.55572-.5862-.55052-1.3109.00519-2.6272 0-3.9701-.03117-.7726-.08829-1.0497.06233-1.0444.88292.016 6.67381.0053 13.34247.0106 20.01627 0 .1194-.0053.2441.0214.3583.0586.2857.1758.374.4742.3792.1865 0 .3731-.0052.6075 0z"/></g></svg>