<svg fill="none" height="27" viewBox="0 0 27 27" width="27" xmlns="http://www.w3.org/2000/svg"><path d="m5.21548.785736c.24257-.384961.55371-.638086 1.0125-.564258.27421.042188.50625.221485.76992.358594.14238.047461.2584.100195.36914.205664 1.3289.801564 2.55762 1.713864 3.73886 2.694724.8648.71719 1.7139 1.45547 2.5629 2.19375 1.35 1.17071 2.7211 2.3045 4.1291 3.41192 1.0125.79629 2.0408 1.56617 3.0744 2.33617.4799.3533.9281.7593 1.2551 1.2814.4166.6645.3639 1.3184-.1846 1.8773-.6486.654-1.408 1.1708-2.1094 1.7561-.7066.5959-1.4291 1.1707-2.1462 1.7561-.7014.5695-1.4028 1.1443-2.1041 1.7191-.6258.5098-1.2534 1.0195-1.8827 1.5293-.8226.6645-1.64 1.3236-2.4574 1.9934-.7119.5748-1.41327 1.1601-2.11991 1.7402-.54843.4482-1.08105.9176-1.65586 1.3183-.48515.3428-1.02832.5485-1.65058.4008-.27949-.0685-.45352-.2531-.64336-.4588-.01582-.0316-.03164-.0421-.05274-.0632-.01054-.0106-.00527-.0106-.00527-.0106-.01055-.0105-.02109-.0211-.04746-.0422-.01055-.0105-.00527-.0105-.00527-.0105-.0211-.0211-.02637-.058-.04219-.1002-.27949-.4852-.35332-1.0125-.42715-1.5399-.11602-.8226-.13711-1.6558-.10547-2.489.03692-1.0653.0791-2.1305.16348-3.1905.06328-.849.10547-1.6927.09492-2.5417-.00527-.1319-.02637-.2637-.05273-.3903-.1002-.3955.03691-.7752.05273-1.1654.03691-1.0231-.03164-2.0514-.06328-3.0744-.02637-.8227-.05801-1.6453-.10547-2.46272-.03691-.58008.01055-1.16016-.04746-1.73496-.08438-.81211-.06328-1.6295-.03692-2.44161.02637-.92285.08438-1.8457.23204-2.76328.058-.37441.18984-.71718.29003-1.09687.04747-.1582.06329-.311135.2004-.432424z" fill="#414d6e"/><path d="m17.1176 9.26016c.2109.03691.3375.18457.4851.31113.0158.16875-.1002.22676-.2004.29531-.9597.6592-1.967 1.2445-2.758 1.7455.8016-.4851 1.7824-1.1232 2.8002-1.68749.1266-.06856.2531-.12129.4113-.12656.211.06328.3586.18984.4905.35335-.0159.0632-.0528.0843-.095.1265-.0474.0422-.0949.0264-.1476.0475-.0264.0264-.0475.0422-.0633.058.0158-.0158.0264-.0264.0527-.0475.0475-.0369.095-.0211.1477-.0474.0422-.0422.0791-.0633.1424-.0686.2215.0158.3375.174.4851.3006.0264.1582-.0685.2268-.1634.29-.9493.6276-1.909 1.2446-2.8846 1.8299-.2426.1477-.4852.2971-.7277.4483 1.1654-.7278 2.3414-1.4397 3.5384-2.12.1635-.0896.3164-.2214.5432-.174.1951.0528.3111.1846.443.3164.0369.2215-.1424.2637-.2584.3323-.6856.4166-1.3764.8384-2.0619 1.255-.1741.1002-.3428.211-.5168.3112.9017-.5537 1.814-1.0916 2.7158-1.6506.0949-.058.1845-.0949.3111-.0475.1899.0528.2953.1846.4113.3217.0264.174-.0949.2162-.1898.2742-.6486.3903-1.3078.7805-1.967 1.1971-.0475.0527-.0949.0527-.1529.0633-.0369.0211-.058.0422-.0739.058.0159-.0158.0264-.0264.0528-.0475.058-.0263.1054-.0105.1582-.058.6855-.443 1.3711-.8437 2.0513-1.2551.0686-.0422.1372-.0896.2374-.0685.3533.174.5589.4693.7541.791-.037.1318-.1108.2109-.211.2742-1.0336.6803-2.0883 1.3236-3.1482 1.9617-.2584.1582-.5168.3217-.7067.4272 1.2498-.7488 2.5576-1.5662 3.9076-2.3151.095-.0527.1793-.1054.3112-.0632.1476.1582.2109.3375.1687.5589-.0843.1688-.2109.269-.3586.3534-1.0072.6117-2.025 1.2129-3.0427 1.8509-.0475.0528-.095.0528-.153.0633-.0369.0211-.058.0422-.0738.058.0158-.0158.0264-.0263.0527-.0474.058-.0264.1055-.0106.1582-.058 1.0442-.6592 2.0936-1.2815 3.1377-1.909.0739-.0422.1477-.0949.2584-.0422.037.4377-.232.7488-.4746 1.0494-.5537.6908-1.2234 1.2498-1.9564 1.7455-.0897.0633-.1846.1266-.2848.2057-.0685.0685-.1371.0949-.2267.116-.0159.0053-.0317.0053-.0317.0053s-.0105.0105-.0105.0158c-.058.1635-.2637.174-.3217.348-.0475.116-.1424.1635-.2268.2268-3.2326 2.4363-6.4388 4.9043-9.52379 7.5305-.37969.3216-.75938.6486-1.14434.9703-.21094.174-.44824.3111-.71719.3744-.17402.0422-.34804.0474-.50097-.1055.04746-.1793.20039-.2267.30586-.2953-.13184.0264-.20567.2162-.40078.174-.23731-.0738-.27422-.2689-.33223-.464.01582-.037.02109-.058.00527-.095-.21621-.3322-.24258-.6855-.22676-1.0652.08438-.2268.29004-.2689.44825-.3691.50625-.3164 1.02304-.6223 1.41855-.8596-.43769.2742-1.00723.5959-1.56094.9492-.0791.0475-.16347.1108-.28476.0686-.20567-.2426-.06856-.5221-.12129-.7752-.0211-.116 0-.2373 0-.3797.06855-.2531.2584-.3481.43769-.4535.95977-.5801 1.91954-1.1602 2.71055-1.6348-.8332.5063-1.84043 1.1074-2.84238 1.7191-.0791.0475-.16875.095-.28477.037-.01582-.2057-.02109-.4008-.01582-.617.10547-.2004.2584-.3217.43242-.4325 1.21289-.7962 2.46797-1.5293 3.70196-2.2939-1.21817.7436-2.42578 1.4977-3.67032 2.199-.11601.0633-.22675.174-.40078.1002-.0791-.4113-.02636-.8015.03164-1.2129.05801-.1318.13711-.2004.24258-.2584.37442-.2215.74883-.4377 1.1127-.675-.3375.2215-.68555.4166-1.02832.6223-.08965.0527-.16875.1371-.30059.0896-.03691-.2109-.04219-.4113.0211-.6275.06855-.1529.16347-.2426.29003-.3164.53262-.327 1.07051-.6486 1.41856-.8648-.33223.2056-.8543.522-1.37637.8384-.08437.0528-.16875.1371-.30586.0739-.03691-.2268-.04746-.443.03164-.675.07383-.1741.20039-.2637.33223-.3534 1.10742-.7541 2.27812-1.4185 3.40664-2.1357-1.12852.7014-2.25176 1.4027-3.40137 2.0619-.08965.0527-.18457.1108-.31113.0527-.1002-.2056-.03164-.406-.02109-.6275.02109-.0475.03164-.0738.01054-.1107-.01582-.2057-.08437-.4061-.01582-.6223.03164-.1687.14766-.232.2584-.3059.81738-.5537 1.68223-1.0388 2.35723-1.4765-.5959.3691-1.34473.8385-2.10938 1.2867-.1582.0896-.30586.2373-.53789.1793-.10019-.2109-.0791-.4166-.01582-.6381.11074-.1476.26367-.2109.40606-.3217.04746-.0474.09492-.0369.14765-.0527.03692-.0264.05274-.0422.06856-.058-.01055.0105-.02637.0264-.05274.0474-.05273.0264-.10019.0106-.15293.0528-.13183.0844-.23203.1951-.3955.2215-.03164-.0211-.05274-.0369-.05274-.0475 0-.4166-.04219-.8332.02637-1.2709.06855-.1951.20039-.3006.35332-.3955.63808-.3955 1.28144-.7857 1.91426-1.1918-.64864.4113-1.30254.8174-1.96172 1.2182-.0791.0474-.15821.1054-.27949.0527-.1002-.2268-.09493-.443-.01055-.6803.05801-.1371.13183-.2267.24258-.29.41133-.232.79629-.501 1.20234-.7383-.39023.2268-.76992.4852-1.16016.7172-.0791.0422-.1582.116-.27949.0475-.10019-.211-.0791-.4114-.02109-.6329.02109-.0369.02637-.058.01055-.0791-.07911-.2162-.07383-.4271-.01055-.6591.08437-.1952.2584-.2584.40078-.3534.18457-.1212.37969-.2214.55371-.348-.2373.1582-.47988.3111-.72773.4535-.06329.0317-.11075.0844-.20567.0369-.07383-.0527-.06328-.116-.06328-.174.00527-.7172.01582-1.4291.01582-2.14629 0-.22148-.05273-.44824.02637-.69082.01582-.02637.02109-.03164.01582-.0791-.1002-.44297-.07383-.8543-.01055-1.28672.05801-.1582.19512-.20039.30586-.27422-.08965.04219-.1582.13184-.29004.11075-.10019-.22676-.0791-.44297-.02109-.68028.06855-.25312.29004-.3164.44824-.44297.08438-.06328.18457-.10019.2584-.17402-.14238.10019-.29004.19512-.42715.29004-.07383.04746-.14238.10547-.2584.05801-.10547-.24258-.0791-.47461-.01582-.73301.06328-.08438.1002-.16348.1582-.20039-.02636.02109-.06328.05273-.1371.03691-.07383-.05273-.06856-.11601-.06856-.17402 0-.90352 0-1.80703 0-2.71055 0-.04746.02637-.10019.04746-.16875.03164-.05801.04746-.10019.01055-.1582-.22676-.64863.19512-1.307814.86484-1.339454.05801.158203.16875.073828.26895.068554.2373.026367.39551.16348.54844.3375.08437.24785-.12129.30586-.24258.42715-.01055.00527-.02637.02109-.01582.01055.14238-.08965.23203-.26895.45351-.21094.22676.06328.3586.21621.48516.39551-.00527.03691.00527.05273.03691.06328.25313.04218.36914.26367.54844.3955.13184.09493.24785.21622.37441.34278.0211.08437-.01582.12656-.06855.1793-.01055.00527-.02637.02636-.01582.01582.04746-.04219.0791-.08965.1582-.08438.22149.05273.34278.21621.49571.36387.04746.26367-.19512.25312-.28477.35859.13184-.04219.22676-.22148.43242-.18457.21621.05274.33223.21621.49043.35332.03692.13711-.01582.21621-.11601.27949-.17403.10547-.34278.23203-.46934.31641.22676-.09492.41133-.39551.76994-.37969.2215.05274.348.20039.4904.35332.0211.20039-.1635.19512-.2267.27422.0896-.04746.1793-.14238.3269-.13711.3744.14766.6381.4166.9018.70664 0 .04746-.0053.06856-.0211.08965.0316-.01055.0633-.01582.1107-.02109.3955.20566.7014.51152 1.0389.76465.4008.31113.791.62753 1.1918.95976-.0053.14766-.1055.18985-.1951.24258-.2532.1582-.4957.32168-.7541.46934.2742-.15821.5431-.33751.8173-.50626.0686-.04746.1319-.08437.2321-.0791.2373.03692.3691.20039.5273.34805.0053.04219-.0053.05801-.0422.08438-.0369.03164-.0633.058-.0949.08964-.0527.04219-.1055.03692-.1424.06329.0264-.01583.058-.02637.1108-.03692.0474-.04219.0791-.07383.1213-.11601.0316-.02637.0527-.03165.0896-.0211.2162.05801.3586.18985.4904.3586.0106.16875-.1054.22148-.2056.29003-.559.36915-1.1391.70137-1.6981 1.05997.5643-.3586 1.1391-.70137 1.7086-1.05997.1108-.06855.2215-.15293.3797-.11601.232.01582.3481.18984.5063.31113.0474.20039-.095.26367-.211.3375-.6908.45879-1.408.88594-2.1146 1.32891-.0686.04219-.1371.0791-.1951.13185.8015-.51154 1.6031-1.01779 2.4205-1.49767.1054-.06328.2109-.07383.3427-.08438.211.06856.3586.18985.4905.35332 0 .04219.0105.04746.0474.03692.1899.06328.3322.18984.4799.33222-.058.19512-.2426.21094-.3428.29532.1371-.02637.2321-.21094.4325-.18457z" fill="#cdad80"/><path d="m5 2c1.10457 0 2 .89543 2 2v19c0 1.1046-.89543 2-2 2z" fill="#404c6e"/></svg>