<svg width="124" height="124" viewBox="0 0 124 124" fill="none" xmlns="http://www.w3.org/2000/svg">
<path d="M86.9738 54L82.699 54C80.9284 53.9437 79.9788 52.2562 80.0004 49.275C80.0436 46.0687 80.6912 45 82.6774 45C95.53 45 108.376 45 121.215 45C123.33 45 123.978 46.0125 124 49.3311C124.021 52.4249 123.071 54 121.107 54L99.4521 54L86.9738 54Z" fill="#CDAD80"/>
<path d="M64.2532 31L57.3552 31C54.4981 30.9437 52.9657 29.2562 53.0006 26.275C53.0703 23.0687 54.1154 22 57.3204 22C78.0598 22 98.7887 22 119.505 22C122.919 22 123.965 23.0125 123.999 26.3311C124.034 29.4249 122.501 31 119.331 31L84.3886 31L64.2532 31Z" fill="#CDAD80"/>
<path d="M41.5326 8.99999L32.0114 8.99999C28.0678 8.9437 25.9527 7.25615 26.0008 4.27496C26.097 1.06874 27.5396 1.50229e-07 31.9633 5.36966e-07C60.5896 3.03955e-06 89.2013 5.54087e-06 117.796 8.04072e-06C122.509 8.45268e-06 123.951 1.01246 123.999 4.33113C124.047 7.4249 121.932 9 117.556 9L69.3252 9L41.5326 8.99999Z" fill="#CDAD80"/>
<path d="M86.9738 78L82.699 78C80.9284 77.9437 79.9788 76.2562 80.0004 73.275C80.0436 70.0687 80.6912 69 82.6774 69C95.53 69 108.376 69 121.215 69C123.33 69 123.978 70.0125 124 73.3311C124.021 76.4249 123.071 78 121.107 78L99.4521 78L86.9738 78Z" fill="#CDAD80"/>
<path d="M64.2532 101L57.3552 101C54.4981 100.944 52.9657 99.2562 53.0006 96.275C53.0703 93.0687 54.1154 92 57.3204 92C78.0598 92 98.7887 92 119.505 92C122.919 92 123.965 93.0125 123.999 96.3311C124.034 99.4249 122.501 101 119.331 101L84.3886 101L64.2532 101Z" fill="#CDAD80"/>
<path d="M41.5326 124L32.0114 124C28.0678 123.944 25.9527 122.256 26.0008 119.275C26.097 116.069 27.5396 115 31.9633 115C60.5896 115 89.2013 115 117.796 115C122.509 115 123.951 116.012 123.999 119.331C124.047 122.425 121.932 124 117.556 124L69.3252 124L41.5326 124Z" fill="#CDAD80"/>
<path d="M3.26837 6.45451C4.31395 4.77669 5.68129 3.73804 7.61165 4.05763C8.81801 4.21742 9.86358 5.01638 10.9895 5.57565C11.633 5.81534 12.1155 5.97512 12.5981 6.45451C18.389 9.96992 23.6971 13.8848 28.8445 18.1193C32.6246 21.2353 36.3243 24.431 40.0241 27.547C45.8953 32.6604 51.8469 37.534 57.9594 42.3277C62.383 45.7633 66.8065 49.119 71.3104 52.3947C73.4016 53.9127 75.3317 55.6704 76.7795 57.9874C78.6294 60.7837 78.3882 63.66 75.9752 66.0568C73.1603 68.8533 69.8628 71.0904 66.8064 73.647C63.7501 76.2037 60.6136 78.6804 57.4769 81.2371C54.4206 83.6872 51.3642 86.1639 48.308 88.6674C45.627 90.8513 42.8926 93.0617 40.1044 95.2988C36.5656 98.1751 33.0268 100.971 29.488 103.848C26.3513 106.324 23.2951 108.881 20.2386 111.358C17.8259 113.355 15.574 115.353 13.0003 117.11C10.9092 118.548 8.57673 119.427 5.84207 118.788C4.63571 118.548 3.91189 117.749 3.0271 116.871C3.0271 116.711 2.94681 116.631 2.86632 116.551C2.78584 116.551 2.78583 116.551 2.78583 116.551C2.78583 116.471 2.70553 116.391 2.62505 116.311C2.54456 116.311 2.54456 116.311 2.54456 116.311C2.46426 116.231 2.46426 116.072 2.38378 115.832C1.17742 113.755 0.855659 111.518 0.5339 109.201C0.0513566 105.685 -0.029129 102.09 0.0513573 98.4147C0.212143 93.8607 0.453411 89.2267 0.77517 84.6727C1.09693 80.9974 1.25772 77.3221 1.17742 73.7268C1.17742 73.0877 1.09693 72.5284 1.01644 71.9691C0.5339 70.2914 1.17742 68.6934 1.17742 66.9357C1.33821 62.5414 1.09693 58.1471 0.935955 53.673C0.855656 50.1576 0.694684 46.5623 0.453412 43.0468C0.292626 40.57 0.533898 38.0134 0.292627 35.5367C-0.109431 32.0213 -0.0291313 28.5057 0.131841 24.9903C0.212141 20.9956 0.453416 17.0008 1.09693 13.0859C1.3382 11.488 1.90123 9.96992 2.38378 8.37201C2.54456 7.65295 2.62504 7.01378 3.26837 6.45451Z" fill="#414D6E"/>
<path d="M55.125 42.8297C56.0973 42.9905 56.5833 43.6339 57.2313 44.1967C57.3124 44.9205 56.8263 45.1618 56.4212 45.4833C52.2088 48.3782 47.7533 50.8712 44.3509 53.1228C47.8343 50.9515 52.1278 48.2175 56.5833 45.7247C57.1504 45.4833 57.7173 45.2421 58.3655 45.1618C59.3376 45.4833 59.9857 46.0462 60.5527 46.7699C60.4718 47.0113 60.3096 47.0916 60.1477 47.2526C59.9047 47.4938 59.6617 47.4133 59.4997 47.4938C59.3376 47.601 59.2295 47.6813 59.1756 47.735C59.2567 47.6546 59.3376 47.6546 59.4186 47.5741C59.6617 47.4133 59.8236 47.4133 60.0666 47.3328C60.2288 47.1721 60.3907 47.0916 60.7148 47.0113C61.6869 47.0916 62.1729 47.8153 62.8211 48.3782C62.9019 49.0216 62.497 49.3432 62.092 49.5846C57.9605 52.3186 53.748 54.9723 49.4544 57.5456C48.3743 58.1888 47.3212 58.8322 46.2952 59.4754C51.3987 56.3392 56.5023 53.2835 61.7679 50.3083C62.497 49.9061 63.1451 49.3432 64.1172 49.5041C65.0082 49.7453 65.4942 50.3083 66.0614 50.8712C66.2235 51.8361 65.4942 52.0774 64.9273 52.3186C61.9299 54.1682 58.9326 56.0177 55.9351 57.7868C55.2061 58.2693 54.396 58.7517 53.6669 59.1537C57.6365 56.7414 61.6058 54.4094 65.5753 51.9969C65.9805 51.7557 66.3854 51.5949 66.9525 51.7557C67.7627 51.9969 68.2487 52.5598 68.7347 53.203C68.8158 53.9269 68.3298 54.0877 67.9246 54.4094C65.0893 56.098 62.1729 57.7868 59.2567 59.5559C59.0946 59.7971 58.8515 59.7971 58.6085 59.8776C58.4466 59.9579 58.3655 60.0384 58.2844 60.1188C58.3655 60.0384 58.3655 59.9579 58.5275 59.8776C58.7705 59.7971 59.0135 59.8776 59.1756 59.6364C62.1729 57.7063 65.2512 55.9372 68.1676 54.1682C68.4917 54.0072 68.8158 53.766 69.2207 53.9269C70.7599 54.6506 71.6511 55.9372 72.5421 57.3043C72.3802 57.8671 72.0561 58.2693 71.6511 58.5105C67.1145 61.4857 62.497 64.3002 57.7984 67.0344C56.6644 67.7581 55.5302 68.4818 54.7201 68.884C60.2288 65.6673 65.8994 62.1292 71.8131 58.8322C72.2991 58.591 72.6232 58.3496 73.1903 58.591C73.8383 59.2342 74.1623 60.0384 73.9193 61.0033C73.5952 61.727 73.0281 62.1292 72.3802 62.5311C67.9246 65.1849 63.469 67.8386 59.0135 70.5726C58.8515 70.8138 58.6085 70.8138 58.3655 70.8138C58.2036 70.9746 58.1225 71.0551 58.0414 71.1355C58.1225 71.0551 58.2036 70.9746 58.2844 70.8943C58.5275 70.8138 58.7705 70.8138 59.0135 70.6531C63.5501 67.7581 68.1676 65.1044 72.7042 62.3704C73.0281 62.1292 73.3522 61.9682 73.8383 62.1292C74.0004 64.059 72.8662 65.4261 71.8131 66.7127C69.3827 69.7684 66.3854 72.1809 63.226 74.352C62.8211 74.5932 62.4159 74.8345 61.9299 75.2367C61.6869 75.4779 61.3628 75.6386 60.9578 75.7191C60.8767 75.7191 60.7959 75.7191 60.7959 75.7191V75.7996C60.5528 76.5233 59.6617 76.5233 59.3376 77.3274C59.1756 77.8099 58.7705 78.0511 58.3655 78.2924C44.1889 88.9071 30.1743 99.6021 16.6456 111.021C15.0254 112.468 13.3243 113.835 11.623 115.283C10.732 116.007 9.67884 116.65 8.54464 116.891C7.73452 117.052 7.00548 117.132 6.3575 116.409C6.51944 115.685 7.16742 115.444 7.65365 115.122C7.08654 115.283 6.76246 116.087 5.87127 115.926C4.8992 115.605 4.73725 114.72 4.41317 113.916C4.49424 113.755 4.57512 113.675 4.49424 113.514C3.52217 112.066 3.4411 110.458 3.4411 108.85C3.84607 107.885 4.73725 107.644 5.4663 107.241C7.65364 105.874 9.92186 104.507 11.623 103.542C9.75972 104.668 7.24849 106.116 4.81832 107.644C4.49424 107.804 4.08909 108.126 3.60305 107.965C2.63099 106.839 3.27896 105.633 3.03595 104.588C2.95507 104.025 3.03595 103.542 3.03595 102.899C3.36003 101.773 4.17016 101.371 4.98027 100.969C9.19281 98.3959 13.3243 95.9032 16.8076 93.8124C13.1621 96.0639 8.78766 98.6372 4.41317 101.291C4.0082 101.532 3.60305 101.693 3.11702 101.452C3.03595 100.567 3.03595 99.6826 3.03595 98.7979C3.52217 97.9135 4.17016 97.3505 4.98027 96.8681C10.2459 93.4102 15.7544 90.274 21.1821 86.8968C15.8355 90.1937 10.5698 93.4102 5.06134 96.4659C4.57511 96.7876 4.08908 97.2701 3.36003 96.9484C2.95507 95.099 3.19809 93.4102 3.4411 91.6411C3.76519 91.0782 4.08909 90.7566 4.57512 90.5152C6.19536 89.5503 7.8156 88.5854 9.43583 87.6205C7.89666 88.5854 6.43837 89.3896 4.8992 90.274C4.49424 90.5152 4.17016 90.9174 3.60305 90.6762C3.44111 89.7915 3.4411 88.9071 3.68412 87.942C4.0082 87.2988 4.41317 86.8968 4.98027 86.5751C7.24849 85.1275 9.67885 83.7606 11.1369 82.7955C9.67885 83.6801 7.41062 85.1275 5.14222 86.4946C4.73725 86.7358 4.41317 87.0575 3.76519 86.8163C3.60305 85.7709 3.60305 84.8863 3.92714 83.8409C4.25122 83.1172 4.81832 82.7152 5.38523 82.313C10.2459 79.0161 15.3495 76.1211 20.2911 73.0654C15.3495 76.1211 10.489 79.0965 5.38523 81.9915C5.06134 82.2327 4.57512 82.4739 4.08908 82.2327C3.60305 81.3481 3.92714 80.4636 3.92714 79.4985C4.08909 79.2573 4.08908 79.177 4.0082 79.0161C3.92713 78.1316 3.60305 77.247 3.92714 76.282C4.08909 75.5584 4.57511 75.3171 5.06134 74.9954C8.62571 72.5829 12.4331 70.4921 15.4306 68.5623C12.7572 70.1706 9.51671 72.1809 6.19535 74.1913C5.4663 74.513 4.81832 75.1562 3.76519 74.9149C3.36003 74.0305 3.4411 73.1459 3.76519 72.1809C4.25122 71.5375 4.8992 71.2158 5.54737 70.7334C5.70932 70.5726 5.95234 70.5726 6.19535 70.5726C6.35749 70.4118 6.35749 70.3314 6.43837 70.2509C6.38445 70.3046 6.30338 70.3849 6.19535 70.4921C6.03341 70.5726 5.79039 70.5726 5.54737 70.7334C4.98027 71.0551 4.57512 71.5375 3.84607 71.6985C3.68412 71.5912 3.60305 71.5108 3.60305 71.4572C3.60305 69.688 3.4411 67.8386 3.68412 65.9086C4.0082 65.1044 4.57512 64.6219 5.22329 64.2199C8.05861 62.5311 10.8939 60.8425 13.6482 59.0734C10.7859 60.8425 7.92362 62.6116 5.06134 64.3807C4.73725 64.5415 4.3321 64.7827 3.84607 64.5415C3.36004 63.5765 3.4411 62.6116 3.76519 61.6467C4.0082 61.0033 4.3321 60.6013 4.81832 60.3601C6.60051 59.3147 8.30163 58.1888 10.0838 57.1434C8.3827 58.1083 6.76245 59.2342 5.06134 60.2796C4.65618 60.4404 4.3321 60.7621 3.76519 60.4403C3.36003 59.5559 3.4411 58.6713 3.68412 57.7063C3.76518 57.5456 3.84607 57.4651 3.76519 57.3846C3.4411 56.4197 3.4411 55.5351 3.68412 54.4897C4.08908 53.6857 4.81832 53.364 5.4663 52.9618C6.27642 52.4794 7.08654 51.9969 7.89666 51.434C6.87048 52.1309 5.81735 52.8011 4.73725 53.4445C4.41317 53.6052 4.25122 53.766 3.76519 53.6052C3.4411 53.364 3.52217 53.1228 3.52217 52.8011C3.52217 49.7453 3.60305 46.6092 3.60305 43.473C3.60305 42.508 3.36003 41.5431 3.68412 40.4977C3.76518 40.4172 3.76519 40.3368 3.76519 40.176C3.36003 38.2462 3.4411 36.4769 3.76519 34.547C4.0082 33.9036 4.57511 33.6624 5.06134 33.3409C4.65618 33.5821 4.41317 33.9036 3.76519 33.8234C3.36003 32.8584 3.4411 31.8933 3.68412 30.9284C4.0082 29.8025 4.98027 29.481 5.70932 28.9985C6.0334 28.6768 6.51944 28.5159 6.76245 28.1944C6.19535 28.6768 5.54737 29.0788 4.8992 29.481C4.57512 29.6418 4.3321 29.9635 3.76519 29.7222C3.36003 28.6768 3.4411 27.6314 3.76519 26.5056C4.0082 26.1839 4.17015 25.8624 4.41317 25.7014C4.3321 25.7819 4.17015 25.8624 3.84607 25.8624C3.52217 25.6211 3.52217 25.2994 3.52217 25.0582C3.52217 21.1447 3.52217 17.2312 3.52217 13.3177C3.52217 13.0764 3.60305 12.8352 3.76519 12.5136C3.84607 12.2723 3.92713 12.1115 3.76519 11.8702C2.79293 9.05573 4.65619 6.16083 7.57257 6C7.81559 6.72373 8.30163 6.32167 8.70678 6.32167C9.75973 6.48248 10.489 7.0454 11.1369 7.76911C11.5421 8.89492 10.6509 9.13615 10.0838 9.69905C10.0029 9.69905 10.0029 9.77946 10.0029 9.69905C10.6509 9.29698 11.0559 8.57325 12.0281 8.8145C13.0002 9.05573 13.5673 9.69905 14.1344 10.5032C14.1344 10.664 14.1344 10.7444 14.2963 10.7444C15.4306 10.9857 15.9166 11.9507 16.7267 12.5136C17.2936 12.9156 17.7798 13.4785 18.3467 13.961C18.4278 14.3631 18.2659 14.5239 18.0229 14.7652C17.9418 14.7652 17.9418 14.926 17.9418 14.8456C18.1848 14.6847 18.2659 14.4435 18.6708 14.4435C19.6429 14.6847 20.1289 15.4085 20.8582 16.0518C21.0201 17.1776 19.967 17.1776 19.562 17.5796C20.1289 17.4188 20.5341 16.6147 21.5062 16.7755C22.3973 17.0167 22.9644 17.7405 23.6124 18.3838C23.7744 18.9467 23.5314 19.2684 23.1264 19.59C22.3163 19.9921 21.5872 20.555 21.0201 20.957C22.0733 20.555 22.8834 19.1879 24.4225 19.2684C25.3946 19.5096 25.9617 20.1529 26.6097 20.7962C26.6908 21.6808 25.8806 21.6808 25.5567 22.0024C25.9617 21.8416 26.3667 21.4395 27.0148 21.4395C28.6351 22.0828 29.7691 23.2086 30.9844 24.4953C30.9844 24.7365 30.9033 24.817 30.9033 24.8972C30.9844 24.817 31.1463 24.817 31.3893 24.817C33.0905 25.7014 34.3866 26.988 35.926 28.1139C37.6271 29.481 39.4093 30.8479 41.1106 32.2955C41.1106 32.9387 40.6243 33.0997 40.3005 33.3409C39.1662 34.0646 38.1131 34.7078 36.9789 35.3512C38.1942 34.7078 39.3282 33.9036 40.5435 33.1799C40.8674 32.9387 41.1106 32.778 41.5966 32.8584C42.5687 33.0192 43.2167 33.7429 43.8648 34.3863C43.8648 34.547 43.8648 34.6275 43.7029 34.7078C43.5407 34.8687 43.3788 34.949 43.2977 35.11C43.0547 35.2707 42.8117 35.2707 42.6497 35.3512C42.7306 35.3512 42.8928 35.2707 43.1358 35.1903C43.3788 35.0295 43.4597 34.8687 43.7029 34.7078C43.7838 34.6275 43.8648 34.547 44.0268 34.6275C44.999 34.8688 45.647 35.4317 46.2141 36.1554C46.2141 36.9595 45.7281 37.1203 45.3229 37.442C42.8928 39.0501 40.3004 40.4977 37.8701 42.0256C40.3004 40.4977 42.8928 38.9699 45.3229 37.442C45.809 37.1203 46.2952 36.7986 47.0242 36.9595C47.9963 37.0398 48.5634 37.7635 49.2114 38.3265C49.4544 39.1306 48.8064 39.4523 48.3204 39.774C45.242 41.7843 42.1635 43.6339 39.0852 45.5638C38.7613 45.7247 38.4372 45.8855 38.1942 46.1267C41.6775 43.8751 45.242 41.7039 48.8064 39.6131C49.2924 39.2916 49.6974 39.2916 50.2645 39.2111C51.2366 39.5328 51.8847 40.0955 52.4518 40.739C52.4518 40.9802 52.4518 40.9802 52.6138 40.8997C53.505 41.2214 54.0721 41.7844 54.7201 42.3473C54.4771 43.2317 53.6669 43.3122 53.262 43.6339C53.8289 43.5534 54.234 42.7493 55.125 42.8297Z" fill="#CDAD80"/>
<path d="M3 12C7.44442 12 11 15.823 11 20.6018V102.398C11 107.177 7.44442 111 3 111V12Z" fill="#404C6E"/>
</svg>
