<svg height="512" viewBox="0 0 512 512" width="512" xmlns="http://www.w3.org/2000/svg"><path d="m98.9 14.9c4.6-7.3 10.5-12.1 19.2-10.7 5.2.8 9.6 4.2 14.6 6.8 2.7.9 4.9 1.9 7 3.9 25.2 15.2 48.5 32.5 70.9 51.1 16.4 13.6 32.5 27.6 48.6 41.6 25.6 22.2 51.6 43.7 78.3 64.7 19.2 15.1 38.7 29.7 58.3 44.3 9.1 6.7 17.6 14.4 23.8 24.3 7.9 12.6 6.9 25-3.5 35.6-12.3 12.4-26.7 22.2-40 33.3-13.4 11.3-27.1 22.2-40.7 33.3-13.3 10.8-26.6 21.7-39.9 32.6q-17.8 14.5-35.7 29c-15.6 12.6-31.1 25.1-46.6 37.8-13.5 10.9-26.8 22-40.2 33-10.4 8.5-20.5 17.4-31.4 25-9.2 6.5-19.5 10.4-31.3 7.6-5.3-1.3-8.6-4.8-12.2-8.7-.3-.6-.6-.8-1-1.2-.2-.2-.1-.2-.1-.2-.2-.2-.4-.4-.9-.8-.2-.2-.1-.2-.1-.2-.4-.4-.5-1.1-.8-1.9-5.3-9.2-6.7-19.2-8.1-29.2-2.2-15.6-2.6-31.4-2-47.2.7-20.2 1.5-40.4 3.1-60.5 1.2-16.1 2-32.1 1.8-48.2-.1-2.5-.5-5-1-7.4-1.9-7.5.7-14.7 1-22.1.7-19.4-.6-38.9-1.2-58.3-.5-15.6-1.1-31.2-2-46.7-.7-11 .2-22-.9-32.9-1.6-15.4-1.2-30.9-.7-46.3.5-17.5 1.6-35 4.4-52.4 1.1-7.1 3.6-13.6 5.5-20.8.9-3 1.2-5.9 3.8-8.2z" fill="#414d6e"/><path d="m324.6 175.6c4 .7 6.4 3.5 9.2 5.9.3 3.2-1.9 4.3-3.8 5.6-18.2 12.5-37.3 23.6-52.3 33.1 15.2-9.2 33.8-21.3 53.1-32 2.4-1.3 4.8-2.3 7.8-2.4 4 1.2 6.8 3.6 9.3 6.7-.3 1.2-1 1.6-1.8 2.4-.9.8-1.8.5-2.8.9-.5.5-.9.8-1.2 1.1.3-.3.5-.5 1-.9.9-.7 1.8-.4 2.8-.9.8-.8 1.5-1.2 2.7-1.3 4.2.3 6.4 3.3 9.2 5.7.5 3-1.3 4.3-3.1 5.5-18 11.9-36.2 23.6-54.7 34.7q-6.9 4.2-13.8 8.5c22.1-13.8 44.4-27.3 67.1-40.2 3.1-1.7 6-4.2 10.3-3.3 3.7 1 5.9 3.5 8.4 6 .7 4.2-2.7 5-4.9 6.3-13 7.9-26.1 15.9-39.1 23.8-3.3 1.9-6.5 4-9.8 5.9 17.1-10.5 34.4-20.7 51.5-31.3 1.8-1.1 3.5-1.8 5.9-.9 3.6 1 5.6 3.5 7.8 6.1.5 3.3-1.8 4.1-3.6 5.2-12.3 7.4-24.8 14.8-37.3 22.7-.9 1-1.8 1-2.9 1.2-.7.4-1.1.8-1.4 1.1.3-.3.5-.5 1-.9 1.1-.5 2-.2 3-1.1 13-8.4 26-16 38.9-23.8 1.3-.8 2.6-1.7 4.5-1.3 6.7 3.3 10.6 8.9 14.3 15-.7 2.5-2.1 4-4 5.2-19.6 12.9-39.6 25.1-59.7 37.2-4.9 3-9.8 6.1-13.4 8.1 23.7-14.2 48.5-29.7 74.1-43.9 1.8-1 3.4-2 5.9-1.2 2.8 3 4 6.4 3.2 10.6-1.6 3.2-4 5.1-6.8 6.7-19.1 11.6-38.4 23-57.7 35.1-.9 1-1.8 1-2.9 1.2-.7.4-1.1.8-1.4 1.1.3-.3.5-.5 1-.9 1.1-.5 2-.2 3-1.1 19.8-12.5 39.7-24.3 59.5-36.2 1.4-.8 2.8-1.8 4.9-.8.7 8.3-4.4 14.2-9 19.9-10.5 13.1-23.2 23.7-37.1 33.1-1.7 1.2-3.5 2.4-5.4 3.9-1.3 1.3-2.6 1.8-4.3 2.2-.3.1-.6.1-.6.1s-.2.2-.2.3c-1.1 3.1-5 3.3-6.1 6.6-.9 2.2-2.7 3.1-4.3 4.3-61.3 46.2-122.1 93-180.6 142.8-7.2 6.1-14.4 12.3-21.7 18.4-4 3.3-8.5 5.9-13.6 7.1-3.3.8-6.6.9-9.5-2 .9-3.4 3.8-4.3 5.8-5.6-2.5.5-3.9 4.1-7.6 3.3-4.5-1.4-5.2-5.1-6.3-8.8.3-.7.4-1.1.1-1.8-4.1-6.3-4.6-13-4.3-20.2 1.6-4.3 5.5-5.1 8.5-7 9.6-6 19.4-11.8 26.9-16.3-8.3 5.2-19.1 11.3-29.6 18-1.5.9-3.1 2.1-5.4 1.3-3.9-4.6-1.3-9.9-2.3-14.7-.4-2.2 0-4.5 0-7.2 1.3-4.8 4.9-6.6 8.3-8.6 18.2-11 36.4-22 51.4-31-15.8 9.6-34.9 21-53.9 32.6-1.5.9-3.2 1.8-5.4.7-.3-3.9-.4-7.6-.3-11.7 2-3.8 4.9-6.1 8.2-8.2 23-15.1 46.8-29 70.2-43.5-23.1 14.1-46 28.4-69.6 41.7-2.2 1.2-4.3 3.3-7.6 1.9-1.5-7.8-.5-15.2.6-23 1.1-2.5 2.6-3.8 4.6-4.9 7.1-4.2 14.2-8.3 21.1-12.8-6.4 4.2-13 7.9-19.5 11.8-1.7 1-3.2 2.6-5.7 1.7-.7-4-.8-7.8.4-11.9 1.3-2.9 3.1-4.6 5.5-6 10.1-6.2 20.3-12.3 26.9-16.4-6.3 3.9-16.2 9.9-26.1 15.9-1.6 1-3.2 2.6-5.8 1.4-.7-4.3-.9-8.4.6-12.8 1.4-3.3 3.8-5 6.3-6.7 21-14.3 43.2-26.9 64.6-40.5-21.4 13.3-42.7 26.6-64.5 39.1-1.7 1-3.5 2.1-5.9 1-1.9-3.9-.6-7.7-.4-11.9.4-.9.6-1.4.2-2.1-.3-3.9-1.6-7.7-.3-11.8.6-3.2 2.8-4.4 4.9-5.8 15.5-10.5 31.9-19.7 44.7-28-11.3 7-25.5 15.9-40 24.4-3 1.7-5.8 4.5-10.2 3.4-1.9-4-1.5-7.9-.3-12.1 2.1-2.8 5-4 7.7-6.1.9-.9 1.8-.7 2.8-1 .7-.5 1-.8 1.3-1.1-.2.2-.5.5-1 .9-1 .5-1.9.2-2.9 1-2.5 1.6-4.4 3.7-7.5 4.2-.6-.4-1-.7-1-.9 0-7.9-.8-15.8.5-24.1 1.3-3.7 3.8-5.7 6.7-7.5 12.1-7.5 24.3-14.9 36.3-22.6-12.3 7.8-24.7 15.5-37.2 23.1-1.5.9-3 2-5.3 1-1.9-4.3-1.8-8.4-.2-12.9 1.1-2.6 2.5-4.3 4.6-5.5 7.8-4.4 15.1-9.5 22.8-14-7.4 4.3-14.6 9.2-22 13.6-1.5.8-3 2.2-5.3.9-1.9-4-1.5-7.8-.4-12 .4-.7.5-1.1.2-1.5-1.5-4.1-1.4-8.1-.2-12.5 1.6-3.7 4.9-4.9 7.6-6.7 3.5-2.3 7.2-4.2 10.5-6.6-4.5 3-9.1 5.9-13.8 8.6-1.2.6-2.1 1.6-3.9.7-1.4-1-1.2-2.2-1.2-3.3.1-13.6.3-27.1.3-40.7 0-4.2-1-8.5.5-13.1.3-.5.4-.6.3-1.5-1.9-8.4-1.4-16.2-.2-24.4 1.1-3 3.7-3.8 5.8-5.2-1.7.8-3 2.5-5.5 2.1-1.9-4.3-1.5-8.4-.4-12.9 1.3-4.8 5.5-6 8.5-8.4 1.6-1.2 3.5-1.9 4.9-3.3-2.7 1.9-5.5 3.7-8.1 5.5-1.4.9-2.7 2-4.9 1.1-2-4.6-1.5-9-.3-13.9 1.2-1.6 1.9-3.1 3-3.8-.5.4-1.2 1-2.6.7-1.4-1-1.3-2.2-1.3-3.3q0-25.7 0-51.4c0-.9.5-1.9.9-3.2.6-1.1.9-1.9.2-3-4.3-12.3 3.7-24.8 16.4-25.4 1.1 3 3.2 1.4 5.1 1.3 4.5.5 7.5 3.1 10.4 6.4 1.6 4.7-2.3 5.8-4.6 8.1-.2.1-.5.4-.3.2 2.7-1.7 4.4-5.1 8.6-4 4.3 1.2 6.8 4.1 9.2 7.5-.1.7.1 1 .7 1.2 4.8.8 7 5 10.4 7.5 2.5 1.8 4.7 4.1 7.1 6.5.4 1.6-.3 2.4-1.3 3.4-.2.1-.5.5-.3.3.9-.8 1.5-1.7 3-1.6 4.2 1 6.5 4.1 9.4 6.9.9 5-3.7 4.8-5.4 6.8 2.5-.8 4.3-4.2 8.2-3.5 4.1 1 6.3 4.1 9.3 6.7.7 2.6-.3 4.1-2.2 5.3-3.3 2-6.5 4.4-8.9 6 4.3-1.8 7.8-7.5 14.6-7.2 4.2 1 6.6 3.8 9.3 6.7.4 3.8-3.1 3.7-4.3 5.2 1.7-.9 3.4-2.7 6.2-2.6 7.1 2.8 12.1 7.9 17.1 13.4 0 .9-.1 1.3-.4 1.7.6-.2 1.2-.3 2.1-.4 7.5 3.9 13.3 9.7 19.7 14.5 7.6 5.9 15 11.9 22.6 18.2-.1 2.8-2 3.6-3.7 4.6-4.8 3-9.4 6.1-14.3 8.9 5.2-3 10.3-6.4 15.5-9.6 1.3-.9 2.5-1.6 4.4-1.5 4.5.7 7 3.8 10 6.6.1.8-.1 1.1-.8 1.6-.7.6-1.2 1.1-1.8 1.7-1 .8-2 .7-2.7 1.2.5-.3 1.1-.5 2.1-.7.9-.8 1.5-1.4 2.3-2.2.6-.5 1-.6 1.7-.4 4.1 1.1 6.8 3.6 9.3 6.8.2 3.2-2 4.2-3.9 5.5-10.6 7-21.6 13.3-32.2 20.1 10.7-6.8 21.6-13.3 32.4-20.1 2.1-1.3 4.2-2.9 7.2-2.2 4.4.3 6.6 3.6 9.6 5.9.9 3.8-1.8 5-4 6.4-13.1 8.7-26.7 16.8-40.1 25.2-1.3.8-2.6 1.5-3.7 2.5 15.2-9.7 30.4-19.3 45.9-28.4 2-1.2 4-1.4 6.5-1.6 4 1.3 6.8 3.6 9.3 6.7 0 .8.2.9.9.7 3.6 1.2 6.3 3.6 9.1 6.3-1.1 3.7-4.6 4-6.5 5.6 2.6-.5 4.4-4 8.2-3.5z" fill="#cdad80"/></svg>