<svg height="1117" viewBox="0 0 1175 1117" width="1175" xmlns="http://www.w3.org/2000/svg" xmlns:xlink="http://www.w3.org/1999/xlink"><clipPath id="a"><path d="m29 0h1117v1117h-1117z"/></clipPath><g clip-path="url(#a)"><path d="m607.5 30.8c28.4 49.9 71.5 69.5 111.7 105.8 12.7 10.8 21.5 22.5 27.4 35.3 13.7-4.9 28.4-6.9 45.1-5.9 53.9 2.9 99 19.6 152.8 3.9 8.9-2 17.7 1 23.6 6.9 5.8 5.8 8.8 14.6 6.8 23.5-15.7 53.9 1 98.9 3.9 152.8 1 16.7-.9 31.4-5.8 45.1 12.7 5.9 24.4 14.7 35.2 27.4 36.3 40.2 55.9 83.3 105.9 111.7 7.8 3.9 11.7 12.8 11.7 20.6s-3.9 16.7-11.7 20.6c-50 28.4-69.6 71.5-105.9 111.7-10.8 12.7-22.5 21.5-35.2 27.4 4.9 13.7 6.8 28.4 5.8 45.1-2.9 53.9-19.6 99-3.9 152.8 2 8.9-1 17.7-6.8 23.6-5.9 5.8-14.7 8.8-23.6 6.8-53.8-15.7-98.9 1-152.8 3.9-16.7 1-31.4-.9-45.1-5.8-5.9 12.7-14.7 24.4-27.4 35.2-40.2 36.3-83.3 55.9-111.7 105.9-3.9 7.8-12.8 11.7-20.6 11.7s-16.7-3.9-20.6-11.7c-28.4-50-71.5-69.6-111.7-105.9-2.3-1.9-3.1-106.3-3-125.8 27.7 45.4 89.2 68.6 135.9 68.6 47 0 94.1-23.5 121.5-69.6 52.9 12.8 101.9-3.9 135.2-37.2s50-82.3 37.2-135.2c46.1-27.4 69.6-74.5 69.6-121.5s-23.5-94.1-69.6-121.5c12.8-52.9-3.9-101.9-37.2-135.2s-82.3-50-135.2-37.2c-27.4-46.1-74.5-69.6-121.5-69.6s-94.1 23.5-121.5 69.6c-52.9-12.8-101.9 3.9-135.2 37.2s-50 82.3-37.2 135.2c-46.1 27.4-69.6 74.5-69.6 121.5 0 13.6 14.7 41.3 36.8 74.7-8.6-12.1-14.3-20.9-15.9-24.7-19.5 15.9-64.2 56.4-88.9 71.4-36.2-40.1-46.3-73-96.2-101.4-7.9-3.9-11.8-12.8-11.8-20.6s3.9-16.7 11.8-20.6c49.9-28.4 69.5-71.5 105.8-111.7 10.8-12.7 22.5-21.5 35.3-27.4-4.9-13.7-6.9-28.4-5.9-45.1 2.9-53.9 19.6-98.9 3.9-152.8-2-8.9 1-17.7 6.9-23.5 5.8-5.9 14.6-8.9 23.5-6.9 53.9 15.7 98.9-1 152.8-3.9 16.7-1 31.4 1 45.1 5.9 5.9-12.8 14.7-24.5 27.4-35.3 40.2-36.3 83.3-55.9 111.7-105.8 3.9-7.9 12.8-11.8 20.6-11.8s16.7 3.9 20.6 11.8zm-155.9 822.6q-.2-.5-.5-.9-2.8-1.6-6.1-4 4 2.6 6.6 3 0 .7 0 1.9zm.2-1.9q-.1 0-.2 0c.1-1.6.1-1.7.2 0zm-6.8-3c-5.8-3.7-13.7-10.5-23-19.6 8.8 8.3 16.6 15 23 19.6zm-184.2-215.3c34.5 48.5 115.1 150.3 161.2 195.7-45.6-43.3-117.7-130.3-161.2-195.7zm327.7-544q0 0-1-1-1 1-1 1 0 0 1 0 1 0 1 0zm331.2 138.1q0-1 0-1 0 0-1 0 0 0 0 1 1 0 1 0zm137.1 332.2q0 0 1-1-1-1-1-1 0 0 0 1 0 1 0 1zm-138.1 331.2q1 0 1 0 0 0 0-1 0 0-1 0 0 1 0 1zm-332.2 137.1q0 0 1 1 1-1 1-1 0 0-1 0-1 0-1 0zm-330.2-138.1q0 1 0 1-1 0-1 0 0 0 0-1 0 0 1 0zm-138.1-332.2q0 0-1 1 1 1 1 1 0 0 0-1 0-1 0-1zm138.1-331.2q-1 0-1 0 0 0 0 1 0 0 1 0 0-1 0-1z" fill="#404c6e" fill-rule="evenodd"/></g><path d="m410.8 560c-4.9-7.7-11.2-12.8-20.4-11.4-5.6.9-10.2 4.5-15.5 7.3-2.9.9-5.3 2-7.5 4.1-26.8 16.2-51.5 34.6-75.3 54.3-17.5 14.5-34.6 29.4-51.7 44.2-27.2 23.6-54.8 46.5-83.2 68.8-20.4 16.1-41.1 31.6-62 47.1-9.7 7.1-18.7 15.3-25.3 25.8-8.4 13.4-7.3 26.6 3.7 37.9 13.1 13.1 28.4 23.6 42.6 35.4 14.2 12 28.8 23.5 43.2 35.3 14.2 11.5 28.3 23.1 42.4 34.7q18.9 15.4 38 30.8c16.5 13.4 33 26.7 49.5 40.2 14.3 11.6 28.5 23.4 42.7 35.1 11.1 9 21.8 18.5 33.4 26.5 9.8 6.9 20.7 11.1 33.3 8.1 5.6-1.4 9.1-5.1 12.9-9.2.3-.7.7-.9 1.1-1.3.2-.2.1-.2.1-.2.2-.2.4-.4 1-.9.2-.2.1-.2.1-.2.4-.4.5-1.2.8-2 5.6-9.8 7.1-20.4 8.6-31 2.4-16.6 2.8-33.4 2.1-50.2-.7-21.5-1.5-42.9-3.2-64.3-1.3-17.1-2.2-34.1-2-51.2.1-2.7.6-5.3 1.1-7.9 2-8-.7-15.6-1.1-23.5-.7-20.6.7-41.3 1.3-62 .5-16.5 1.2-33.1 2.1-49.6.8-11.7-.2-23.4 1-35 1.7-16.3 1.3-32.8.7-49.2-.5-18.6-1.7-37.2-4.6-55.7-1.2-7.5-3.9-14.4-5.9-22.1-.9-3.2-1.3-6.2-4-8.7z" fill="#414d6e"/><path d="m170.9 730.8c-4.3.8-6.8 3.7-9.8 6.3-.3 3.4 2 4.6 4.1 5.9 19.3 13.3 39.6 25.1 55.5 35.2-16.1-9.8-35.9-22.6-56.4-34-2.5-1.4-5.1-2.4-8.3-2.5-4.2 1.2-7.2 3.8-9.9 7.1.4 1.3 1.1 1.7 1.9 2.5 1 .9 2 .6 3 1 .6.5 1 .8 1.3 1.2-.3-.4-.5-.6-1.1-1-.9-.7-1.9-.4-2.9-1-.9-.8-1.6-1.2-2.9-1.3-4.5.3-6.8 3.5-9.8 6-.5 3.2 1.4 4.6 3.3 5.9 19.1 12.6 38.5 25 58.1 36.8q7.4 4.5 14.7 9.1c-23.5-14.7-47.2-29-71.3-42.7-3.3-1.9-6.4-4.5-11-3.6-3.9 1.1-6.2 3.8-8.9 6.4-.7 4.5 2.9 5.3 5.2 6.7 13.8 8.4 27.8 16.9 41.6 25.3 3.5 2 6.9 4.3 10.4 6.3-18.2-11.2-36.6-22-54.7-33.3-2-1.2-3.8-1.9-6.3-.9-3.8 1-6 3.7-8.3 6.4-.5 3.6 1.9 4.4 3.8 5.6 13.1 7.8 26.4 15.7 39.7 24.1.9 1.1 1.9 1.1 3.1 1.3.7.4 1.1.8 1.4 1.1-.3-.3-.5-.5-1-.9-1.2-.5-2.1-.2-3.2-1.2-13.8-8.9-27.6-17-41.4-25.3-1.3-.8-2.7-1.8-4.7-1.4-7.2 3.5-11.3 9.5-15.2 16 .7 2.6 2.2 4.2 4.2 5.5 20.8 13.7 42.1 26.7 63.5 39.5 5.2 3.2 10.4 6.5 14.2 8.7-25.2-15.1-51.5-31.6-78.7-46.7-2-1.1-3.7-2.1-6.3-1.3-3 3.2-4.3 6.8-3.4 11.3 1.7 3.4 4.2 5.4 7.2 7.1 20.3 12.3 40.8 24.5 61.3 37.3 1 1.1 1.9 1.1 3.1 1.3.8.4 1.2.8 1.5 1.2-.3-.4-.5-.6-1.1-1-1.1-.5-2.1-.2-3.1-1.2-21.1-13.3-42.2-25.8-63.3-38.4-1.5-.9-3-2-5.2-.9-.7 8.8 4.7 15.1 9.6 21.2 11.1 13.9 24.6 25.1 39.4 35.1 1.8 1.3 3.7 2.6 5.7 4.2 1.4 1.4 2.8 1.9 4.6 2.3.3.1.6.1.6.1s.3.2.3.3c1.1 3.3 5.3 3.6 6.4 7.1 1 2.3 2.9 3.3 4.6 4.5 65.2 49.1 129.8 98.9 192 151.8 7.6 6.5 15.3 13.1 23 19.6 4.3 3.5 9.1 6.2 14.5 7.5 3.5.9 7 1 10.1-2.1-1-3.6-4.1-4.6-6.2-6 2.7.6 4.2 4.4 8.1 3.5 4.8-1.4 5.5-5.4 6.7-9.3-.3-.8-.4-1.2-.1-1.9 4.3-6.7 4.9-13.8 4.6-21.5-1.7-4.6-5.9-5.4-9.1-7.4-10.2-6.4-20.6-12.6-28.6-17.4 8.9 5.6 20.3 12.1 31.5 19.2 1.6.9 3.3 2.2 5.7 1.4 4.2-4.9 1.4-10.6 2.5-15.7.4-2.3 0-4.8 0-7.6-1.4-5.1-5.2-7-8.8-9.2-19.4-11.7-38.7-23.3-54.7-32.9 16.8 10.2 37.1 22.3 57.3 34.6 1.6 1 3.4 2 5.7.8.4-4.2.5-8.1.4-12.5-2.2-4-5.2-6.4-8.7-8.7-24.5-16-49.8-30.8-74.7-46.2 24.6 15 48.9 30.2 74 44.3 2.4 1.3 4.6 3.5 8.1 2 1.6-8.3.5-16.1-.6-24.4-1.2-2.7-2.8-4-4.9-5.2-7.6-4.5-15.1-8.8-22.5-13.6 6.8 4.4 13.9 8.4 20.8 12.5 1.8 1.1 3.4 2.8 6 1.8.8-4.2.9-8.3-.4-12.6-1.4-3.1-3.3-4.9-5.8-6.4-10.8-6.6-21.6-13.1-28.6-17.4 6.7 4.1 17.2 10.5 27.7 16.9 1.7 1 3.4 2.7 6.2 1.5.7-4.6.9-9-.7-13.6-1.5-3.6-4-5.4-6.7-7.2-22.3-15.2-45.9-28.6-68.6-43 22.7 14.1 45.4 28.3 68.5 41.5 1.8 1.1 3.7 2.3 6.3 1.1 2-4.1.6-8.2.4-12.6-.4-1-.6-1.5-.2-2.3.3-4.1 1.7-8.2.3-12.5-.6-3.4-2.9-4.7-5.2-6.2-16.5-11.1-33.9-20.9-47.5-29.7 12 7.4 27.1 16.9 42.5 25.9 3.2 1.8 6.2 4.8 10.9 3.6 2-4.2 1.6-8.4.3-12.9-2.2-2.9-5.3-4.2-8.2-6.4-1-1-1.9-.8-3-1.1-.7-.5-1-.8-1.4-1.2.3.2.6.6 1.1 1 1.1.5 2 .2 3.1 1.1 2.6 1.7 4.7 3.9 8 4.4.6-.4 1-.7 1-.9 0-8.4.9-16.8-.5-25.7-1.4-3.9-4-6-7.1-7.9-12.9-8-25.9-15.9-38.6-24q19.6 12.4 39.5 24.5c1.6 1 3.2 2.1 5.7 1.1 2-4.6 1.9-9 .2-13.7-1.2-2.8-2.7-4.6-4.9-5.9-8.3-4.7-16.1-10.1-24.2-14.9 7.8 4.6 15.5 9.8 23.3 14.5 1.6.8 3.2 2.3 5.7.9 2-4.2 1.6-8.2.4-12.7-.4-.8-.5-1.2-.2-1.6 1.6-4.4 1.5-8.6.2-13.3-1.7-3.9-5.2-5.2-8.1-7.1-3.7-2.5-7.6-4.5-11.1-7 4.7 3.2 9.6 6.2 14.6 9.1 1.3.7 2.3 1.7 4.2.8 1.5-1.1 1.2-2.4 1.2-3.5-.1-14.5-.3-28.9-.3-43.3 0-4.5 1.1-9-.5-13.9-.3-.6-.4-.7-.3-1.6 2-9 1.5-17.2.2-26-1.2-3.1-3.9-4-6.2-5.5 1.8.9 3.2 2.7 5.9 2.2 2-4.5 1.6-8.9.4-13.7-1.4-5.1-5.9-6.3-9-8.9-1.7-1.3-3.8-2-5.2-3.5 2.8 2 5.8 3.9 8.6 5.8 1.4 1 2.8 2.2 5.2 1.2 2.1-4.9 1.6-9.5.3-14.8-1.3-1.7-2-3.3-3.2-4 .5.4 1.3 1.1 2.8.7 1.4-1 1.3-2.3 1.3-3.5q0-27.3 0-54.6c0-.9-.5-2-.9-3.4-.7-1.2-1-2-.2-3.2 4.5-13.1-4-26.3-17.5-27-1.1 3.2-3.4 1.5-5.4 1.4-4.8.5-7.9 3.3-11 6.8-1.7 5 2.4 6.2 4.9 8.6.2.1.5.4.3.2-2.9-1.8-4.7-5.4-9.2-4.2-4.5 1.3-7.2 4.3-9.7 7.9.1.8-.1 1.1-.8 1.3-5.1.9-7.4 5.3-11 8-2.7 1.9-5 4.4-7.6 6.9-.4 1.7.3 2.6 1.4 3.6.2.1.5.5.3.3-.9-.8-1.6-1.8-3.2-1.7-4.4 1.1-6.9 4.4-10 7.4-.9 5.3 4 5.1 5.8 7.2-2.7-.9-4.6-4.5-8.7-3.7-4.4 1-6.7 4.3-9.9 7.1-.8 2.8.3 4.4 2.3 5.6 3.5 2.2 6.9 4.7 9.5 6.4-4.6-1.9-8.3-8-15.5-7.6-4.5 1-7.1 4-9.9 7.1-.5 4 3.3 3.9 4.5 5.5-1.8-1-3.6-2.9-6.5-2.8-7.6 3-12.9 8.4-18.2 14.3 0 .9.1 1.4.4 1.8-.6-.2-1.3-.3-2.2-.4-8 4.1-14.2 10.3-21 15.4-8 6.2-15.9 12.6-24 19.3.1 3 2.1 3.8 3.9 4.9 5.1 3.2 10 6.5 15.2 9.5-5.5-3.2-10.9-6.8-16.4-10.2-1.4-1-2.7-1.7-4.7-1.6-4.8.7-7.4 4-10.6 7-.1.8.1 1.2.8 1.7.8.6 1.3 1.2 1.9 1.8 1.1.8 2.2.7 2.9 1.3-.5-.4-1.2-.6-2.2-.8-1-.8-1.6-1.5-2.5-2.3-.6-.5-1-.7-1.8-.4-4.3 1.1-7.2 3.8-9.9 7.2-.2 3.4 2.2 4.5 4.2 5.8 11.2 7.5 22.9 14.2 34.2 21.4-11.4-7.2-23-14.1-34.4-21.4-2.3-1.3-4.5-3-7.7-2.3-4.7.3-7 3.8-10.2 6.3-1 4 1.9 5.3 4.3 6.8 13.9 9.2 28.3 17.8 42.6 26.8 1.4.8 2.7 1.5 3.9 2.6-16.1-10.3-32.3-20.5-48.8-30.2-2.1-1.3-4.2-1.5-6.9-1.7-4.2 1.4-7.2 3.9-9.9 7.1 0 .9-.2 1-.9.8-3.9 1.3-6.7 3.8-9.7 6.7 1.2 3.9 4.9 4.2 6.9 5.9-2.8-.5-4.7-4.2-8.7-3.7z" fill="#cdad80"/><path d="m415.1 584.5c-22.2 0-40.3 18-40.3 40.3v382.9c0 22.3 18.1 40.3 40.3 40.3z" fill="#404c6e"/></svg>