<svg fill="none" height="22" viewBox="0 0 22 22" width="22" xmlns="http://www.w3.org/2000/svg" xmlns:xlink="http://www.w3.org/1999/xlink"><clipPath id="a"><path d="m0 0h22v22h-22z"/></clipPath><g clip-path="url(#a)"><g fill="#cdad80"><path d="m21.8711 17.209c-.4426.2191-.9367.1461-1.4137.1461-3.5062.0043-7.0082.0043-10.51445.0043-.45117 0-.64453-.1375-.60586-.4211.02579-.1676.15899-.2535.39961-.2664.06016-.0043.12461 0 .18907 0 3.78553 0 7.57543 0 11.36093.0043.1848 0 .3652.073.5672.0945.0172.1332.0172.275.0172.4383z"/><path d="m21.8711 11.2363c-.4082.0516-.8121.1032-1.2203.1032-3.575.0085-7.1543.0043-10.73356.0043-.44258 0-.57578-.0774-.58008-.3352 0-.2363.18906-.3523.58437-.3523 3.78987 0 7.57537-.0043 11.36097.0085.1847 0 .3695.0946.5715.1332.0171.1333.0171.275.0171.4383z"/><path d="m21.8712 9.3457c-.434.19766-.9153.15039-1.3836.15039-3.4719 0-6.9438 0-10.4157 0-.12458 0-.24919-.00859-.3652-.03007-.32657-.06446-.42539-.17618-.36524-.4168.04297-.18477.23203-.24063.48985-.24063h3.27419c2.7371 0 5.4742 0 8.2157.0043.1718 0 .3394.07305.5328.09453.0172.13321.0172.275.0172.43828z"/><path d="m21.8711 3.37305c-.4253.05156-.855.10312-1.2804.10312-3.5664.0086-7.1328.0043-10.69495.0043-.37812 0-.55859-.11172-.55859-.34375 0-.21914.19336-.34375.55859-.34375 3.80705 0 7.61405 0 11.42105.00859.1719 0 .3481.09453.5372.13321.0171.1332.0171.275.0171.43828z"/><path d="m21.8711 19.0996c-.4082.0516-.8121.1031-1.2203.1031-3.575.0086-7.1543.0043-10.72927.0043-.45117 0-.58007-.073-.58437-.3351 0-.2321.18476-.3524.58437-.3524 3.78557 0 7.57537-.0043 11.36097.0086.1847 0 .3695.0946.5715.1332.0171.1332.0171.275.0171.4383z"/><path d="m21.871 1.48242c-.3308.05156-.6617.10313-.9968.10313-3.6395.00859-7.2789.00429-10.92269.00429-.21054 0-.44258.03008-.55859-.15039-.11602-.17617-.06016-.32656.09023-.481247 4.11645-.012891 8.25005-.012891 12.38785-.012891z"/><path d="m9.49176 21.0547c-.06875-.1074-.1375-.2106-.15039-.318-.02149-.2234.1289-.3222.45976-.3265.36527-.0043.73477 0 1.09997 0h6.6301c.2192-.0043.4598-.0086.5328.1461.0731.1589.0989.3437-.116.4855-2.7973.0129-5.6117.0129-8.45624.0129z"/><path d="m16.7062 4.64062h.8508c.3524.0043.5414.13321.5371.36094-.0086.24492-.1375.32656-.5328.32656-2.558 0-5.1147 0-7.6699 0-.42109 0-.55-.07734-.55429-.33085-.0043-.23633.18476-.35665.57578-.35665h4.30981z"/><path d="m10.6605 13.1914c-.3137 0-.5972 0-.88084 0-.24062 0-.4082-.073-.43398-.2363-.03008-.1719-.01719-.3481.30078-.4082.11601-.0215.24062-.043.36094-.043h7.4293c.4555 0 .6574.1074.6574.3438-.0043.2535-.1289.3437-.507.3437-2.2988 0-4.5977 0-6.9266 0z"/></g><path d="m4.12066.133196c.05586-.0902347.12891-.1460941.23204-.12890662.06445.00859372.12031.05156252.18046.08164062.03438.0128906.06016.021484.08594.047266.30938.189062.59297.399609.86797.627343.20195.167579.39961.339451.59727.507031.31367.275.63164.53711.9582.79492.23633.18477.47266.36524.71328.54141.11172.08164.21484.17617.29219.30078.09883.15039.08594.30508-.04297.43398-.15039.1504-.32656.27071-.48985.40821-.16328.1375-.33085.2707-.49843.4082-.16328.13177-.32657.26497-.48985.39961-.14323.11745-.28932.23633-.43828.35664-.18906.15469-.37812.30508-.56718.45977-.16758.1332-.33086.2707-.49415.4039-.1289.10742-.24921.21485-.38671.30938-.11172.07734-.23633.12461-.38243.09023-.06445-.01289-.10312-.05586-.15039-.10312 0-.0086-.00429-.01289-.00859-.01719-.0043 0-.0043 0-.0043 0 0-.0043-.00429-.00859-.00859-.01289-.0043 0-.0043 0-.0043 0-.00429-.0043-.00429-.01289-.00859-.02578-.06445-.11172-.08164-.23203-.09883-.35664-.02578-.18907-.03008-.38242-.02578-.58008.00859-.24492.02148-.49414.03867-.73906.01719-.19766.02578-.39532.02149-.58868 0-.03437-.0043-.06445-.0086-.09453-.02578-.09023.0086-.17617.0086-.2707.00859-.23633-.0043-.47266-.0129-.71328-.00429-.18906-.01289-.38242-.02578-.57149-.00859-.1332.0043-.2707-.00859-.4039-.02148-.18906-.01719-.37813-.00859-.56719.00429-.214843.01718-.429687.05156-.640234.01289-.085937.04297-.167578.06875-.253515.00859-.038672.01289-.073047.04726-.103125z" fill="#414d6e"/><path d="m6.88357 2.10118c.05157.00859.07735.04297.11172.07304.0043.03868-.02148.05157-.04297.06875-.22343.15469-.45976.2879-.64023.40821.18477-.11602.4125-.26211.64883-.39531.03008-.0129.06015-.02579.09453-.03008.05156.01718.08594.04726.11601.08593-.00429.0129-.01289.01719-.02148.02579-.01289.01289-.02578.00859-.03437.01289-.0086.00573-.01433.01002-.01719.01289.0043-.0043.00859-.0043.01289-.0086.01289-.00859.02148-.00859.03437-.01289.0086-.00859.01719-.01289.03438-.01718.05156.00429.07734.04296.11172.07304.00429.03438-.01719.05156-.03867.06446-.21914.14609-.44258.28789-.67032.42539-.05729.03437-.11315.06875-.16757.10312.2707-.16758.5414-.33086.8207-.48984.03867-.02149.07305-.05157.12461-.04297.04726.01289.07304.04297.10312.07305.0086.05156-.03008.06445-.06015.07734-.15899.09883-.31797.19766-.47696.29219-.03867.02578-.08164.05156-.12031.07304.21055-.1289.42109-.25351.63164-.38242.02149-.01289.04297-.02148.07305-.01289.04297.01289.06875.04297.09453.07734.0043.03868-.02148.04727-.04297.06446-.15039.09023-.30508.18047-.45976.275-.0086.01289-.02149.01289-.03438.01719-.00859.00429-.01289.00859-.01719.01289.0043-.0043.0043-.0086.01289-.01289.01289-.0043.02578 0 .03438-.01289.15898-.10313.32226-.19766.47695-.29219.01719-.0086.03438-.02149.05586-.01289.08164.03867.12891.10742.17617.18047-.00859.03007-.02578.05156-.04726.06445-.24063.15898-.48555.30937-.73477.45547-.06015.03867-.12031.07734-.16328.09883.29219-.17188.59297-.36094.90664-.53711.02578-.01289.04297-.02579.07305-.01289.03437.03437.05156.07734.03867.1289-.01719.03867-.04727.06016-.08164.08164-.23633.1418-.47266.2836-.70899.42969-.00859.01289-.02148.01289-.03437.01289-.00859.00859-.01289.01289-.01719.01719.0043-.0043.0086-.0086.01289-.01289.01289-.0043.02578-.0043.03867-.01289.24063-.15469.48555-.29649.72618-.44258.01718-.01289.03437-.02149.06015-.01289.0086.10312-.05156.17617-.10742.24492-.12891.16328-.28789.29219-.45547.4082-.02148.01289-.04297.02578-.06875.04727-.01289.01289-.03008.02148-.05156.02578-.0043 0-.00859 0-.00859 0v.0043c-.01289.03867-.06016.03867-.07735.08164-.00859.02578-.03008.03867-.05156.05156-.75195.56719-1.49531 1.13867-2.21289 1.74883-.08594.07734-.17617.15039-.26641.22773-.04726.03867-.10312.07305-.16328.08594-.04297.00859-.08164.01289-.11601-.02578.00859-.03867.04296-.05156.06875-.06875-.03008.00859-.04727.05156-.09454.04297-.05156-.01719-.06015-.06446-.07734-.10742.0043-.0086.00859-.0129.0043-.02149-.05156-.07734-.05586-.16328-.05586-.24922.02148-.05156.06875-.06445.10742-.08594.11602-.07304.23633-.14609.32656-.19765-.09883.06015-.23203.1375-.36093.21914-.01719.00859-.03868.02578-.06446.01719-.05156-.06016-.01719-.12461-.03008-.18047-.00429-.03008 0-.05586 0-.09024.01719-.06015.06016-.08164.10313-.10312.22344-.1375.44258-.2707.62734-.38242-.19336.12031-.42539.25781-.65742.39961-.02148.01289-.04297.02148-.06875.00859-.0043-.04727-.0043-.09453-.0043-.1418.02579-.04726.06016-.07734.10313-.10312.2793-.18477.57148-.35235.85937-.53281-.28359.17617-.56289.34804-.85507.51132-.02579.01719-.05157.04297-.09024.02578-.02148-.09882-.00859-.18906.0043-.28359.01719-.03008.03437-.04726.06015-.06016.08594-.05156.17188-.10312.25782-.15468-.08164.05156-.15899.09453-.24063.14179-.02148.01289-.03867.03438-.06875.02149-.00859-.04727-.00859-.09453.0043-.1461.01719-.03437.03867-.05585.06875-.07304.12031-.07735.24922-.15039.32656-.20196-.07734.04727-.19765.12461-.31797.19766-.02148.01289-.03867.03008-.07304.01719-.0086-.05586-.0086-.10313.00859-.15899.01719-.03867.04727-.06015.07734-.08164.25782-.17617.52852-.33086.79063-.49414-.26211.16328-.51992.32227-.79063.47696-.01718.01289-.04297.02578-.06875.01289-.02578-.04727-.00859-.09453-.00859-.1461.00859-.01289.00859-.01718.0043-.02578-.0043-.04726-.02149-.09453-.0043-.14609.00859-.03867.03437-.05156.06016-.06875.18906-.12891.39101-.24063.55-.34375-.1418.08594-.31368.19336-.48985.30078-.03867.01719-.07304.05156-.1289.03867-.02149-.04726-.01719-.09453 0-.14609.02578-.03438.06015-.05157.09453-.07735.00859-.00859.02148-.00859.03437-.00859.0086-.00859.0086-.01289.01289-.01719-.00286.00287-.00716.00716-.01289.01289-.00859.0043-.02148.0043-.03437.01289-.03008.01719-.05157.04297-.09024.05157-.00859-.00573-.01289-.01003-.01289-.01289 0-.09454-.00859-.19336.0043-.29649.01719-.04297.04726-.06875.08164-.09023.15039-.09024.30078-.18047.44687-.275-.15182.09453-.30364.18906-.45546.28359-.01719.00859-.03868.02148-.06446.00859-.02578-.05156-.02148-.10312-.00429-.15468.01289-.03438.03007-.05586.05586-.06875.09453-.05586.18476-.11602.27929-.17188-.09023.05156-.17617.11172-.2664.16758-.02149.00859-.03868.02578-.06875.00859-.02149-.04726-.01719-.09453-.0043-.14609.0043-.00859.00859-.01289.0043-.01719-.01719-.05156-.01719-.09883-.0043-.15469.02148-.04296.06016-.06015.09453-.08164.04297-.02578.08594-.05156.12891-.08164-.05443.03724-.11029.07305-.16758.10743-.01719.00859-.02578.01718-.05156.00859-.01719-.01289-.01289-.02578-.01289-.04297 0-.16328.00429-.33086.00429-.49844 0-.05156-.01289-.10312.0043-.15898.0043-.0043.0043-.0086.0043-.01719-.02149-.10312-.01719-.19766 0-.30078.01289-.03438.04296-.04727.06875-.06445-.02149.01289-.03438.03007-.06875.02578-.02149-.05156-.01719-.10313-.0043-.15469.01719-.06016.06875-.07734.10742-.10312.01719-.01719.04297-.02579.05586-.04297-.03008.02578-.06445.04726-.09883.06875-.01719.00859-.03008.02578-.06015.01289-.02149-.05586-.01719-.11172 0-.17188.01289-.01719.02148-.03437.03437-.04297-.0043.0043-.01289.0086-.03008.0086-.01718-.01289-.01718-.03008-.01718-.04297 0-.209116 0-.418231 0-.627345 0-.012891.00429-.025781.01289-.042969.00429-.012891.00859-.021484 0-.034375-.05157-.150391.04726-.305078.20195-.313672.01289.038672.03867.017188.06016.017188.05585.008593.09453.038672.1289.077343.02149.060157-.02578.073047-.05586.103125-.00429 0-.00429.004297-.00429 0 .03437-.021484.05585-.060156.10742-.047265.05156.01289.08164.047265.11172.090234 0 .008594 0 .012891.00859.012891.06016.01289.08594.064453.12891.094531.03007.021484.05586.051563.08593.077344.0043.021484-.00429.030078-.01718.042969-.0043 0-.0043.008593-.0043.004296.01289-.008593.01719-.021484.03867-.021484.05156.012891.07734.051563.11602.085938.00859.060156-.04727.060156-.06875.08164.03007-.008594.05156-.051562.10312-.042969.04727.012891.07735.051563.11172.085938.00859.030078-.0043.047266-.02578.064453-.04297.021484-.08164.051563-.11172.073047.05586-.021484.09883-.094531.18047-.090234.05156.01289.08164.047265.11601.08164.0043.047266-.03867.047266-.05585.064453.02148-.008593.04296-.030078.07734-.030078.08594.034375.14609.094531.21055.163281 0 .01289-.0043.01719-.0043.02148.0043-.00429.01289-.00429.02578-.00429.09023.04726.15898.11601.24063.17617.09023.07305.18476.14609.275.22344 0 .03437-.02579.04297-.04297.05586-.06016.03867-.11602.07304-.17618.10742.06446-.03438.12461-.07735.18907-.11602.01718-.01289.03008-.02148.05586-.01718.05156.00859.08593.04726.12031.08164 0 .00859 0 .01289-.00859.01718-.0086.0086-.01719.01289-.02149.02149-.01289.00859-.02578.00859-.03437.01289.00429 0 .01289-.0043.02578-.0086.01289-.00859.01718-.01718.03008-.02578.00429-.00429.00859-.00859.01718-.00429.05157.01289.08594.04297.11602.08164 0 .04297-.02578.05156-.04727.06875-.1289.08593-.2664.16328-.39531.24492.12891-.08164.26641-.16328.39531-.24492.02578-.01719.05157-.03438.09024-.02578.05156.00429.08164.04296.11601.07304.01289.04297-.02148.06016-.04726.07735-.16328.10742-.32657.20625-.48985.30937-.01718.0086-.03437.01719-.04726.03008.18476-.12031.37383-.23633.56289-.34805.02578-.01718.04726-.01718.07734-.02148.05156.01719.08594.04726.11602.08164 0 .01289 0 .01289.00859.00859.04727.01719.07735.04727.11172.07735-.01289.04726-.05586.05156-.07734.06875.03007-.0043.05156-.04727.09882-.04297z" fill="#cdad80"/><path d="m4.06909.416794c.25781 0 .46406.20625.46406.464062v4.412894c0 .25781-.20625.46406-.46406.46406z" fill="#404c6e"/><path d="m2.64687 2.79297h.21915c.09453.0043.14179.1332.14179.36094 0 .24492-.03437.32656-.1375.32656-.66458 0-1.3306 0-1.998044 0-.107422 0-.141797-.07734-.141797-.33086 0-.23633.047265-.35664.15039-.35664h1.121481z" fill="#414d6e"/><path d="m1.52539 2.35898c0-.07734 0-.15039 0-.21914.0043-.09453.1332-.14179.36094-.14179.24492 0 .32656.03437.32656.1375v1.99804c0 .10743-.07734.1418-.33086.1418-.23633 0-.35664-.04726-.35664-.15039 0-.3724 0-.74622 0-1.12148 0-.20912 0-.42396 0-.64454z" fill="#414d6e"/><path d="m4.12066 8.03945c.05586-.09024.12891-.1461.23204-.12891.06445.00859.12031.05156.18046.08164.03438.01289.06016.02148.08594.04727.30938.18906.59297.3996.86797.62734.20195.16758.39961.33945.59727.50703.31367.275.63164.53711.9582.79492.23633.18476.47266.36526.71328.54136.11172.0817.21484.1762.29219.3008.09883.1504.08594.3051-.04297.434-.15039.1504-.32656.2707-.48985.4082-.16328.1375-.33085.2707-.49843.4082-.16328.1318-.32657.265-.48985.3996-.14323.1175-.28932.2364-.43828.3567-.18906.1547-.37812.305-.56718.4597-.16758.1332-.33086.2707-.49415.4039-.1289.1075-.24921.2149-.38671.3094-.11172.0774-.23633.1246-.38243.0903-.06445-.0129-.10312-.0559-.15039-.1032 0-.0086-.00429-.0129-.00859-.0172-.0043 0-.0043 0-.0043 0 0-.0043-.00429-.0086-.00859-.0129-.0043 0-.0043 0-.0043 0-.00429-.0042-.00429-.0128-.00859-.0257-.06445-.1118-.08164-.2321-.09883-.3567-.02578-.189-.03008-.3824-.02578-.5801.00859-.2449.02148-.4941.03867-.739.01719-.1977.02578-.3953.02149-.5887 0-.0344-.0043-.0644-.0086-.0945-.02578-.0903.0086-.1762.0086-.2707.00859-.2363-.0043-.4727-.0129-.7133-.00429-.1891-.01289-.3824-.02578-.5715-.00859-.13319.0043-.27069-.00859-.40389-.02148-.18906-.01719-.37813-.00859-.56719.00429-.21484.01718-.42969.05156-.64023.01289-.08594.04297-.16758.06875-.25352.00859-.03867.01289-.07305.04726-.10312z" fill="#414d6e"/><path d="m6.88357 10.0074c.05157.0086.07735.043.11172.0731.0043.0386-.02148.0515-.04297.0687-.22343.1547-.45976.2879-.64023.4082.18477-.116.4125-.2621.64883-.3953.03008-.0129.06015-.0258.09453-.0301.05156.0172.08594.0473.11601.086-.00429.0129-.01289.0172-.02148.0258-.01289.0128-.02578.0085-.03437.0128-.0086.0058-.01433.0101-.01719.0129.0043-.0043.00859-.0043.01289-.0086.01289-.0086.02148-.0086.03437-.0128.0086-.0086.01719-.0129.03438-.0172.05156.0043.07734.0429.11172.073.00429.0344-.01719.0516-.03867.0645-.21914.1461-.44258.2879-.67032.4254-.05729.0343-.11315.0687-.16757.1031.2707-.1676.5414-.3309.8207-.4899.03867-.0214.07305-.0515.12461-.0429.04726.0129.07304.0429.10312.073.0086.0516-.03008.0645-.06015.0774-.15899.0988-.31797.1976-.47696.2921-.03867.0258-.08164.0516-.12031.0731.21055-.1289.42109-.2535.63164-.3824.02149-.0129.04297-.0215.07305-.0129.04297.0129.06875.0429.09453.0773.0043.0387-.02148.0473-.04297.0645-.15039.0902-.30508.1804-.45976.275-.0086.0129-.02149.0129-.03438.0172-.00859.0043-.01289.0086-.01719.0129.0043-.0043.0043-.0086.01289-.0129.01289-.0043.02578 0 .03438-.0129.15898-.1032.32226-.1977.47695-.2922.01719-.0086.03438-.0215.05586-.0129.08164.0387.12891.1074.17617.1805-.00859.03-.02578.0515-.04726.0644-.24063.159-.48555.3094-.73477.4555-.06015.0387-.12031.0773-.16328.0988.29219-.1719.59297-.3609.90664-.5371.02578-.0129.04297-.0258.07305-.0129.03437.0344.05156.0774.03867.1289-.01719.0387-.04727.0602-.08164.0817-.23633.1418-.47266.2836-.70899.4296-.00859.0129-.02148.0129-.03437.0129-.00859.0086-.01289.0129-.01719.0172.0043-.0043.0086-.0086.01289-.0129.01289-.0043.02578-.0043.03867-.0129.24063-.1546.48555-.2964.72618-.4425.01718-.0129.03437-.0215.06015-.0129.0086.1031-.05156.1761-.10742.2449-.12891.1633-.28789.2922-.45547.4082-.02148.0129-.04297.0258-.06875.0473-.01289.0129-.03008.0215-.05156.0257-.0043 0-.00859 0-.00859 0v.0043c-.01289.0387-.06016.0387-.07735.0817-.00859.0258-.03008.0387-.05156.0515-.75195.5672-1.49531 1.1387-2.21289 1.7489-.08594.0773-.17617.1504-.26641.2277-.04726.0387-.10312.0731-.16328.0859-.04297.0086-.08164.0129-.11601-.0257.00859-.0387.04296-.0516.06875-.0688-.03008.0086-.04727.0516-.09454.043-.05156-.0172-.06015-.0645-.07734-.1074.0043-.0086.00859-.0129.0043-.0215-.05156-.0774-.05586-.1633-.05586-.2492.02148-.0516.06875-.0645.10742-.086.11602-.073.23633-.1461.32656-.1976-.09883.0601-.23203.1375-.36093.2191-.01719.0086-.03868.0258-.06446.0172-.05156-.0602-.01719-.1246-.03008-.1805-.00429-.03 0-.0558 0-.0902.01719-.0602.06016-.0816.10313-.1031.22344-.1375.44258-.2707.62734-.3825-.19336.1204-.42539.2579-.65742.3997-.02148.0128-.04297.0214-.06875.0085-.0043-.0472-.0043-.0945-.0043-.1417.02579-.0473.06016-.0774.10313-.1032.2793-.1847.57148-.3523.85937-.5328-.28359.1762-.56289.3481-.85507.5113-.02579.0172-.05157.043-.09024.0258-.02148-.0988-.00859-.189.0043-.2836.01719-.03.03437-.0472.06015-.0601.08594-.0516.17188-.1032.25782-.1547-.08164.0515-.15899.0945-.24063.1418-.02148.0129-.03867.0344-.06875.0215-.00859-.0473-.00859-.0946.0043-.1461.01719-.0344.03867-.0559.06875-.0731.12031-.0773.24922-.1504.32656-.2019-.07734.0472-.19765.1246-.31797.1976-.02148.0129-.03867.0301-.07304.0172-.0086-.0558-.0086-.1031.00859-.159.01719-.0386.04727-.0601.07734-.0816.25782-.1762.52852-.3309.79063-.4941-.26211.1632-.51992.3222-.79063.4769-.01718.0129-.04297.0258-.06875.0129-.02578-.0473-.00859-.0945-.00859-.1461.00859-.0129.00859-.0172.0043-.0258-.0043-.0472-.02149-.0945-.0043-.1461.00859-.0386.03437-.0515.06016-.0687.18906-.1289.39101-.2406.55-.3438-.1418.086-.31368.1934-.48985.3008-.03867.0172-.07304.0516-.1289.0387-.02149-.0473-.01719-.0946 0-.1461.02578-.0344.06015-.0516.09453-.0774.00859-.0086.02148-.0086.03437-.0086.0086-.0085.0086-.0128.01289-.0171-.00286.0028-.00716.0071-.01289.0129-.00859.0042-.02148.0042-.03437.0128-.03008.0172-.05157.043-.09024.0516-.00859-.0057-.01289-.01-.01289-.0129 0-.0945-.00859-.1933.0043-.2965.01719-.0429.04726-.0687.08164-.0902.15039-.0902.30078-.1805.44687-.275-.15182.0945-.30364.1891-.45546.2836-.01719.0086-.03868.0215-.06446.0086-.02578-.0516-.02148-.1031-.00429-.1547.01289-.0344.03007-.0559.05586-.0688.09453-.0558.18476-.116.27929-.1718-.09023.0515-.17617.1117-.2664.1675-.02149.0086-.03868.0258-.06875.0086-.02149-.0472-.01719-.0945-.0043-.1461.0043-.0085.00859-.0128.0043-.0171-.01719-.0516-.01719-.0989-.0043-.1547.02148-.043.06016-.0602.09453-.0817.04297-.0257.08594-.0515.12891-.0816-.05443.0372-.11029.073-.16758.1074-.01719.0086-.02578.0172-.05156.0086-.01719-.0129-.01289-.0258-.01289-.043 0-.1632.00429-.3308.00429-.4984 0-.05156-.01289-.10312.0043-.15898.0043-.0043.0043-.0086.0043-.01719-.02149-.10312-.01719-.19766 0-.30078.01289-.03438.04296-.04727.06875-.06445-.02149.01289-.03438.03007-.06875.02578-.02149-.05156-.01719-.10313-.0043-.15469.01719-.06016.06875-.07734.10742-.10312.01719-.01719.04297-.02579.05586-.04297-.03008.02578-.06445.04726-.09883.06875-.01719.00859-.03008.02578-.06015.01289-.02149-.05586-.01719-.11172 0-.17188.01289-.01719.02148-.03437.03437-.04297-.0043.0043-.01289.0086-.03008.0086-.01718-.01289-.01718-.03008-.01718-.04297 0-.20912 0-.41823 0-.62735 0-.01289.00429-.02578.01289-.04296.00429-.01289.00859-.02149 0-.03438-.05157-.15039.04726-.30508.20195-.31367.01289.03867.03867.01719.06016.01719.05585.00859.09453.03867.1289.07734.02149.06016-.02578.07305-.05586.10313-.00429 0-.00429.00429-.00429 0 .03437-.02149.05585-.06016.10742-.04727.05156.01289.08164.04727.11172.09023 0 .0086 0 .01289.00859.01289.06016.0129.08594.06446.12891.09454.03007.02148.05586.05156.08593.07734.0043.02148-.00429.03008-.01718.04297-.0043 0-.0043.00859-.0043.0043.01289-.0086.01719-.02149.03867-.02149.05156.01289.07734.05156.11602.08594.00859.06015-.04727.06015-.06875.08164.03007-.00859.05156-.05156.10312-.04297.04727.01289.07735.05156.11172.08594.00859.03008-.0043.04726-.02578.06445-.04297.02149-.08164.05156-.11172.07305.05586-.02149.09883-.09453.18047-.09024.05156.01289.08164.04727.11601.08164.0043.04727-.03867.04727-.05585.06446.02148-.0086.04296-.03008.07734-.03008.08594.03437.14609.09453.21055.16328 0 .01289-.0043.01719-.0043.02148.0043-.00429.01289-.00429.02578-.00429.09023.04726.15898.11601.24063.17617.09023.07305.18476.14609.275.22344 0 .03437-.02579.04297-.04297.05586-.06016.03867-.11602.07304-.17618.10742.06446-.03438.12461-.07735.18907-.11602.01718-.01289.03008-.02148.05586-.01718.05156.00859.08593.04726.12031.08164 0 .00859 0 .01289-.00859.01718-.0086.0086-.01719.01289-.02149.02149-.01289.00859-.02578.00859-.03437.01289.00429 0 .01289-.0043.02578-.0086.01289-.00859.01718-.01718.03008-.02578.00429-.00429.00859-.00859.01718-.00429.05157.01289.08594.04297.11602.08164 0 .04297-.02578.05156-.04727.06875-.1289.08593-.2664.16328-.39531.24492.12891-.08164.26641-.16328.39531-.24492.02578-.01719.05157-.03438.09024-.02578.05156.00429.08164.04296.11601.07304.01289.04297-.02148.06016-.04726.07735-.16328.10742-.32657.20625-.48985.30935-.01718.0086-.03437.0172-.04726.0301.18476-.1203.37383-.23633.56289-.34805.02578-.01719.04726-.01719.07734-.02148.05156.01719.08594.04726.11602.08164 0 .01289 0 .01289.00859.00859.04727.01719.07735.04727.11172.07735-.01289.04725-.05586.05155-.07734.06875.03007-.0043.05156-.0473.09882-.043z" fill="#cdad80"/><path d="m4.06909 8.32304c.25781 0 .46406.20625.46406.46407v4.41289c0 .2578-.20625.4641-.46406.4641z" fill="#404c6e"/><path d="m2.64687 10.7422h.21915c.09453.0043.14179.1332.14179.3609 0 .2449-.03437.3266-.1375.3266-.66458 0-1.3306 0-1.998044 0-.107422 0-.141797-.0774-.141797-.3309 0-.2363.047265-.3566.15039-.3566h1.121481z" fill="#414d6e"/><path d="m1.52539 10.3082c0-.0773 0-.1504 0-.2191.0043-.09457.1332-.14183.36094-.14183.24492 0 .32656.03437.32656.13753v1.998c0 .1074-.07734.1418-.33086.1418-.23633 0-.35664-.0473-.35664-.1504 0-.3724 0-.7462 0-1.1215 0-.2091 0-.4239 0-.6445z" fill="#414d6e"/><path d="m4.12066 15.9887c.05586-.0903.12891-.1461.23204-.1289.06445.0086.12031.0515.18046.0816.03438.0129.06016.0215.08594.0473.30938.189.59297.3996.86797.6273.20195.1676.39961.3395.59727.507.31367.275.63164.5371.9582.795.23633.1847.47266.3652.71328.5414.11172.0816.21484.1761.29219.3007.09883.1504.08594.3051-.04297.434-.15039.1504-.32656.2707-.48985.4082-.16328.1375-.33085.2707-.49843.4082-.16328.1318-.32657.265-.48985.3996-.14323.1175-.28932.2364-.43828.3567-.18906.1547-.37812.3051-.56718.4598-.16758.1332-.33086.2707-.49415.4039-.1289.1074-.24921.2148-.38671.3093-.11172.0774-.23633.1246-.38243.0903-.06445-.0129-.10312-.0559-.15039-.1032 0-.0085-.00429-.0128-.00859-.0171-.0043 0-.0043 0-.0043 0 0-.0043-.00429-.0086-.00859-.0129-.0043 0-.0043 0-.0043 0-.00429-.0043-.00429-.0129-.00859-.0258-.06445-.1117-.08164-.232-.09883-.3567-.02578-.189-.03008-.3824-.02578-.58.00859-.245.02148-.4942.03867-.7391.01719-.1977.02578-.3953.02149-.5887 0-.0343-.0043-.0644-.0086-.0945-.02578-.0902.0086-.1762.0086-.2707.00859-.2363-.0043-.4727-.0129-.7133-.00429-.189-.01289-.3824-.02578-.5715-.00859-.1332.0043-.2707-.00859-.4039-.02148-.189-.01719-.3781-.00859-.5672.00429-.2148.01718-.4296.05156-.6402.01289-.0859.04297-.1676.06875-.2535.00859-.0387.01289-.0731.04726-.1031z" fill="#414d6e"/><path d="m6.88357 17.9566c.05157.0086.07735.043.11172.0731.0043.0387-.02148.0516-.04297.0687-.22343.1547-.45976.2879-.64023.4082.18477-.116.4125-.2621.64883-.3953.03008-.0129.06015-.0257.09453-.03.05156.0171.08594.0472.11601.0859-.00429.0129-.01289.0172-.02148.0258-.01289.0129-.02578.0086-.03437.0129-.0086.0057-.01433.01-.01719.0129.0043-.0043.00859-.0043.01289-.0086.01289-.0086.02148-.0086.03437-.0129.0086-.0086.01719-.0129.03438-.0172.05156.0043.07734.043.11172.073.00429.0344-.01719.0516-.03867.0645-.21914.1461-.44258.2879-.67032.4254-.05729.0344-.11315.0687-.16757.1031.2707-.1676.5414-.3309.8207-.4898.03867-.0215.07305-.0516.12461-.043.04726.0129.07304.043.10312.073.0086.0516-.03008.0645-.06015.0774-.15899.0988-.31797.1976-.47696.2922-.03867.0257-.08164.0515-.12031.073.21055-.1289.42109-.2535.63164-.3824.02149-.0129.04297-.0215.07305-.0129.04297.0129.06875.043.09453.0773.0043.0387-.02148.0473-.04297.0645-.15039.0902-.30508.1805-.45976.275-.0086.0129-.02149.0129-.03438.0172-.00859.0043-.01289.0086-.01719.0129.0043-.0043.0043-.0086.01289-.0129.01289-.0043.02578 0 .03438-.0129.15898-.1031.32226-.1977.47695-.2922.01719-.0086.03438-.0215.05586-.0129.08164.0387.12891.1074.17617.1805-.00859.0301-.02578.0515-.04726.0644-.24063.159-.48555.3094-.73477.4555-.06015.0387-.12031.0773-.16328.0988.29219-.1718.59297-.3609.90664-.5371.02578-.0129.04297-.0258.07305-.0129.03437.0344.05156.0774.03867.1289-.01719.0387-.04727.0602-.08164.0817-.23633.1418-.47266.2836-.70899.4297-.00859.0129-.02148.0129-.03437.0129-.00859.0086-.01289.0128-.01719.0171.0043-.0043.0086-.0085.01289-.0128.01289-.0043.02578-.0043.03867-.0129.24063-.1547.48555-.2965.72618-.4426.01718-.0129.03437-.0215.06015-.0129.0086.1031-.05156.1762-.10742.2449-.12891.1633-.28789.2922-.45547.4082-.02148.0129-.04297.0258-.06875.0473-.01289.0129-.03008.0215-.05156.0258-.0043 0-.00859 0-.00859 0v.0043c-.01289.0386-.06016.0386-.07735.0816-.00859.0258-.03008.0387-.05156.0516-.75195.5672-1.49531 1.1386-2.21289 1.7488-.08594.0773-.17617.1504-.26641.2277-.04726.0387-.10312.0731-.16328.086-.04297.0086-.08164.0129-.11601-.0258.00859-.0387.04296-.0516.06875-.0688-.03008.0086-.04727.0516-.09454.043-.05156-.0172-.06015-.0644-.07734-.1074.0043-.0086.00859-.0129.0043-.0215-.05156-.0773-.05586-.1633-.05586-.2492.02148-.0516.06875-.0645.10742-.086.11602-.073.23633-.1461.32656-.1976-.09883.0601-.23203.1375-.36093.2191-.01719.0086-.03868.0258-.06446.0172-.05156-.0601-.01719-.1246-.03008-.1805-.00429-.03 0-.0558 0-.0902.01719-.0601.06016-.0816.10313-.1031.22344-.1375.44258-.2707.62734-.3824-.19336.1203-.42539.2578-.65742.3996-.02148.0129-.04297.0215-.06875.0086-.0043-.0473-.0043-.0946-.0043-.1418.02579-.0473.06016-.0774.10313-.1032.2793-.1847.57148-.3523.85937-.5328-.28359.1762-.56289.3481-.85507.5114-.02579.0171-.05157.0429-.09024.0257-.02148-.0988-.00859-.189.0043-.2836.01719-.03.03437-.0472.06015-.0601.08594-.0516.17188-.1031.25782-.1547-.08164.0516-.15899.0945-.24063.1418-.02148.0129-.03867.0344-.06875.0215-.00859-.0473-.00859-.0945.0043-.1461.01719-.0344.03867-.0559.06875-.0731.12031-.0773.24922-.1503.32656-.2019-.07734.0473-.19765.1246-.31797.1977-.02148.0128-.03867.03-.07304.0171-.0086-.0558-.0086-.1031.00859-.1589.01719-.0387.04727-.0602.07734-.0817.25782-.1762.52852-.3308.79063-.4941-.26211.1633-.51992.3222-.79063.4769-.01718.0129-.04297.0258-.06875.0129-.02578-.0473-.00859-.0945-.00859-.1461.00859-.0129.00859-.0172.0043-.0258-.0043-.0472-.02149-.0945-.0043-.1461.00859-.0386.03437-.0515.06016-.0687.18906-.1289.39101-.2406.55-.3438-.1418.086-.31368.1934-.48985.3008-.03867.0172-.07304.0516-.1289.0387-.02149-.0473-.01719-.0945 0-.1461.02578-.0344.06015-.0516.09453-.0773.00859-.0086.02148-.0086.03437-.0086.0086-.0086.0086-.0129.01289-.0172-.00286.0028-.00716.0071-.01289.0129-.00859.0043-.02148.0043-.03437.0129-.03008.0171-.05157.0429-.09024.0515-.00859-.0057-.01289-.01-.01289-.0129 0-.0945-.00859-.1933.0043-.2965.01719-.0429.04726-.0687.08164-.0902.15039-.0902.30078-.1805.44687-.275-.15182.0945-.30364.1891-.45546.2836-.01719.0086-.03868.0215-.06446.0086-.02578-.0516-.02148-.1031-.00429-.1547.01289-.0344.03007-.0558.05586-.0687.09453-.0559.18476-.116.27929-.1719-.09023.0516-.17617.1117-.2664.1676-.02149.0086-.03868.0257-.06875.0086-.02149-.0473-.01719-.0946-.0043-.1461.0043-.0086.00859-.0129.0043-.0172-.01719-.0516-.01719-.0988-.0043-.1547.02148-.043.06016-.0602.09453-.0816.04297-.0258.08594-.0516.12891-.0817-.05443.0373-.11029.0731-.16758.1074-.01719.0086-.02578.0172-.05156.0086-.01719-.0129-.01289-.0258-.01289-.0429 0-.1633.00429-.3309.00429-.4985 0-.0515-.01289-.1031.0043-.159.0043-.0043.0043-.0086.0043-.0172-.02149-.1031-.01719-.1976 0-.3007.01289-.0344.04296-.0473.06875-.0645-.02149.0129-.03438.0301-.06875.0258-.02149-.0516-.01719-.1031-.0043-.1547.01719-.0601.06875-.0773.10742-.1031.01719-.0172.04297-.0258.05586-.043-.03008.0258-.06445.0473-.09883.0688-.01719.0086-.03008.0257-.06015.0129-.02149-.0559-.01719-.1118 0-.1719.01289-.0172.02148-.0344.03437-.043-.0043.0043-.01289.0086-.03008.0086-.01718-.0129-.01718-.0301-.01718-.043 0-.2091 0-.4182 0-.6273 0-.0129.00429-.0258.01289-.043.00429-.0129.00859-.0215 0-.0344-.05157-.1503.04726-.305.20195-.3136.01289.0386.03867.0172.06016.0172.05585.0086.09453.0386.1289.0773.02149.0602-.02578.0731-.05586.1031-.00429 0-.00429.0043-.00429 0 .03437-.0214.05585-.0601.10742-.0472.05156.0129.08164.0472.11172.0902 0 .0086 0 .0129.00859.0129.06016.0129.08594.0644.12891.0945.03007.0215.05586.0516.08593.0774.0043.0215-.00429.03-.01718.0429-.0043 0-.0043.0086-.0043.0043.01289-.0086.01719-.0215.03867-.0215.05156.0129.07734.0516.11602.086.00859.0601-.04727.0601-.06875.0816.03007-.0086.05156-.0515.10312-.0429.04727.0128.07735.0515.11172.0859.00859.0301-.0043.0473-.02578.0644-.04297.0215-.08164.0516-.11172.0731.05586-.0215.09883-.0945.18047-.0902.05156.0129.08164.0472.11601.0816.0043.0473-.03867.0473-.05585.0645.02148-.0086.04296-.0301.07734-.0301.08594.0344.14609.0945.21055.1633 0 .0128-.0043.0171-.0043.0214.0043-.0043.01289-.0043.02578-.0043.09023.0473.15898.1161.24063.1762.09023.0731.18476.1461.275.2235 0 .0343-.02579.0429-.04297.0558-.06016.0387-.11602.0731-.17618.1074.06446-.0343.12461-.0773.18907-.116.01718-.0129.03008-.0215.05586-.0172.05156.0086.08593.0473.12031.0817 0 .0086 0 .0129-.00859.0172-.0086.0086-.01719.0129-.02149.0214-.01289.0086-.02578.0086-.03437.0129.00429 0 .01289-.0043.02578-.0086.01289-.0086.01718-.0171.03008-.0257.00429-.0043.00859-.0086.01718-.0043.05157.0129.08594.0429.11602.0816 0 .043-.02578.0516-.04727.0688-.1289.0859-.2664.1632-.39531.2449.12891-.0817.26641-.1633.39531-.2449.02578-.0172.05157-.0344.09024-.0258.05156.0043.08164.0429.11601.073.01289.043-.02148.0602-.04726.0774-.16328.1074-.32657.2062-.48985.3093-.01718.0086-.03437.0172-.04726.0301.18476-.1203.37383-.2363.56289-.348.02578-.0172.04726-.0172.07734-.0215.05156.0172.08594.0473.11602.0816 0 .0129 0 .0129.00859.0086.04727.0172.07735.0473.11172.0774-.01289.0472-.05586.0515-.07734.0687.03007-.0043.05156-.0473.09882-.043z" fill="#cdad80"/><path d="m4.06909 16.2723c.25781 0 .46406.2062.46406.464v4.4129c0 .2578-.20625.4641-.46406.4641z" fill="#404c6e"/><path d="m2.64687 18.6914h.21915c.09453.0043.14179.1332.14179.3609 0 .245-.03437.3266-.1375.3266-.66458 0-1.3306 0-1.998044 0-.107422 0-.141797-.0773-.141797-.3309 0-.2363.047265-.3566.15039-.3566h1.121481z" fill="#414d6e"/><path d="m1.52539 18.2574c0-.0773 0-.1504 0-.2191.0043-.0946.1332-.1418.36094-.1418.24492 0 .32656.0344.32656.1375v1.998c0 .1075-.07734.1418-.33086.1418-.23633 0-.35664-.0472-.35664-.1504 0-.3724 0-.7462 0-1.1214 0-.212 0-.4269 0-.6446z" fill="#414d6e"/></g></svg>