<svg fill="none" height="27" viewBox="0 0 23 27" width="23" xmlns="http://www.w3.org/2000/svg"><path d="m12.0723 2.25176c.4111.39024.8277.78047 1.2333 1.18125.0833.0791.1722.19512.1833.30059.0278.17929.0667.40078-.1889.49043-.25.09492-.4722.07382-.6722-.12129-.9167-.87012-1.8333-1.74024-2.74999-2.61563-.12222-.11601-.24444-.17402-.42777-.17402-2.40556.00527-4.81667 0-7.22223.00527-.58333.00528-.72777.13711-.72777.6961 0 6.05918 0 12.12364.00555 18.18804 0 .2268-.08333.3692-.29444.4483-.19445.0685-.388892.0211-.511115-.1424-.066666-.0844-.083333-.2057-.083333-.3111-.005556-2.3098-.005556-4.6248-.005556-6.9346 0-3.86543.005556-7.73086-.005555-11.60156 0-.64336.577779-1.191801 1.261109-1.191801 2.48334.010547 4.96667.021094 7.44445-.005274.65-.005273 1.23335.126563 1.82225.358594 1.3444.537891 2.7 1.038871 4.05 1.555661 1.2389.47989 2.4777.97032 3.7166 1.4502.2667.10019.3778.26894.3778.53262v4.00781c0 .21621-.0944.37441-.3222.45879-.2056.07383-.3889.04219-.5167-.11602-.0666-.0791-.1-.20039-.1-.30586-.0055-1.11269-.0055-2.23066-.0055-3.34863 0-.09492 0-.18984 0-.32168-.4778.1002-.8611.31641-1.1611.64336-.3723.39023-.5723.84902-.5667 1.38691.0055.22149-.1611.36914-.3611.44297-.2167.08438-.3889-.04746-.5334-.18457-.5592-.52383-1.1148-1.05117-1.6666-1.58203-.0667-.06855-.1278-.1582-.15-.24258-.0556-.22676.0111-.44297.2333-.53261.1945-.07383.4167-.06329.5889.10019.2963.28125.5907.56074.8833.83848.0667.06328.1334.12129.2056.18457.2889-.71192.7778-1.24981 1.4833-1.64004-1.7333-.65391-3.4333-1.29199-5.1611-1.95117-.05-.0211-.0778-.0211-.1-.02637.0148.02812.0296.05449.0445.0791z" fill="#414d6e"/><path d="m10.1667 25.7871h7.4389c.0666 0 .1333.0053.1944 0 .4111-.0264.5667-.174.5889-.5642.0055-.0633 0-.1213 0-.1846 0-2.1446 0-4.2891 0-6.4336 0-.3322.0833-.4113.4389-.4113.3611 0 .45.0791.45.4007 0 2.3045.0055 4.6038 0 6.9082-.0056.6118-.5389 1.1233-1.1834 1.1286-5.4333.0035-10.86662.0035-16.29995 0-.64445-.0053-1.166672-.5116-1.183338-1.1233-.005556-.3533 0-.7066 0-1.0547.005555-.2742.111111-.3533.449998-.3533.33334 0 .43334.0844.43889.3586 0 .2268-.01111.4588 0 .6855.03333.5221.13889.617.67222.6381.46111.0211.92223.0053 1.38334.0053z" fill="#414d6e"/><path d="m14.8111 8.45332c.1-.15293.2278-.25312.4222-.22148.1111.01582.2111.08965.3167.14238.0611.01582.1111.03691.1555.0791.5556.31641 1.0667.68028 1.5556 1.06524.3611.28476.7111.57484 1.0667.86484.5611.4641 1.1333.9123 1.7166 1.35.4222.3111.85.617 1.2778.9229.2.1371.3889.3005.5222.5062.1778.2637.1556.5168-.0722.7383-.2722.2584-.5889.464-.8778.6961-.2944.232-.5944.464-.8944.6908-.2926.225-.5852.4518-.8778.6803-.2593.2004-.5204.4025-.7833.6064-.3389.2584-.6834.5221-1.0223.7858-.2944.2267-.5888.4587-.8833.6855-.2278.1793-.4444.3639-.6889.5221-.2.1371-.4278.2162-.6833.1582-.1167-.0264-.1889-.1002-.2667-.1793-.0055-.0158-.0166-.0211-.0222-.0264s-.0056-.0053-.0056-.0053c0-.0052-.0055-.0052-.0166-.0158-.0056-.0053-.0056-.0053-.0056-.0053-.0055-.0052-.0111-.021-.0166-.0369-.1167-.1951-.1445-.4007-.1778-.6117-.0445-.3217-.0556-.6539-.0445-.9808.0167-.4219.0334-.8438.0723-1.2604.0222-.3375.0388-.6697.0388-1.002-.0055-.0527-.0111-.1054-.0222-.1582-.0444-.1529.0167-.3058.0222-.4587.0112-.4008-.0166-.8069-.0277-1.2129-.0111-.327-.0223-.6487-.0445-.9756-.0166-.2268.0056-.4535-.0166-.6803-.0389-.3217-.0278-.6434-.0167-.965.0111-.3639.0333-.73304.0944-1.09163.0223-.14766.0778-.28477.1223-.43242.0166-.06329.0277-.12657.0833-.17403z" fill="#414d6e"/><path d="m19.7611 11.8019c.0889.0159.1389.0739.2055.1213.0056.0686-.0444.0897-.0833.1161-.4.2636-.8222.4904-1.15.6908.3333-.1899.7389-.443 1.1667-.6645.05-.0316.1055-.0474.1666-.0527.0889.0264.15.0738.2056.1424-.0056.0211-.0222.0316-.0389.0474s-.0389.0106-.0611.0211c-.0111.0106-.0167.0158-.0278.0211.0111-.0053.0111-.0105.0222-.0211.0222-.0105.0389-.0053.0611-.0158.0167-.0158.0334-.0264.0611-.0264.0945.0053.1389.0686.2.1161.0112.0632-.0277.0896-.0666.116-.3945.2478-.7945.4904-1.2.7224-.1.0598-.2.1196-.3.1793.4833-.29.9722-.5695 1.4722-.8385.0667-.0369.1278-.0896.2222-.0685.0834.0211.1334.0738.1834.1213.0166.0896-.0556.1055-.1056.1318-.2833.1688-.5722.3322-.8556.4957-.0722.0422-.1444.0844-.2166.1266.3722-.2215.7555-.4324 1.1278-.6539.0388-.0211.0777-.0369.1333-.0211.0778.0211.1222.0738.1667.1318.0111.0686-.0389.0844-.0778.1055-.2667.1529-.5445.3111-.8167.4746-.0222.0211-.0389.0211-.0667.0264-.0111.0052-.0222.0158-.0277.0211.0055-.0053.0111-.0106.0222-.0211.0222-.0106.0444 0 .0667-.0211.2833-.1741.5666-.3323.85-.4957.0277-.0159.0611-.0369.1-.0264.15.0686.2333.1846.3166.3111-.0166.0528-.05.0844-.0889.1108-.4333.2689-.8722.522-1.3111.7752-.1055.058-.2166.1265-.2944.1687.5222-.3006 1.0666-.6222 1.6278-.9176.0388-.0211.0722-.0421.1277-.0263.0611.0633.0889.1371.0723.2215-.0389.0685-.0889.1054-.15.1423-.4223.2426-.8445.4799-1.2667.7278-.0222.0211-.0389.0211-.0667.0263-.0111.0106-.0222.0159-.0278.0211.0056-.0052.0112-.0105.0223-.0158.0222-.0105.0444-.0053.0666-.0211.4334-.2636.8723-.5062 1.3056-.7541.0278-.0211.0611-.0422.1055-.0211.0167.1741-.0944.2953-.1944.4166-.2333.2742-.5111.4957-.8167.6909-.0389.021-.0777.0474-.1166.0791-.0278.0263-.0611.0369-.0945.0474-.0055 0-.0166 0-.0166 0v.0053c-.0278.0685-.1112.0685-.1389.1371-.0167.0475-.0556.0685-.0945.0896-1.3444.9651-2.6778 1.9407-3.9611 2.9743-.1555.1265-.3167.2584-.4722.3849-.0889.0686-.1889.1213-.3.1477-.0722.0158-.1445.0211-.2111-.0422.0222-.0686.0833-.0897.1278-.116-.0556.0105-.0834.0844-.1667.0685-.1-.0263-.1111-.1054-.1389-.1845.0111-.0106.0111-.0211.0056-.037-.0889-.1318-.1-.2689-.0945-.4218.0333-.0897.1167-.1055.1833-.1424.2112-.1266.4278-.2479.5945-.3428-.1833.1108-.4222.2373-.65.3797-.0333.0158-.0722.0422-.1222.0264-.0834-.095-.0278-.2057-.05-.3059-.0056-.0474 0-.0949 0-.1529.0277-.1002.1111-.1371.1833-.1793.4-.2268.8-.4588 1.1278-.6434-.3445.2004-.7667.4377-1.1834.6803-.0333.0158-.0666.0369-.1166.0105-.0056-.0791-.0111-.1582-.0056-.2425.0445-.0791.1056-.1266.1778-.1688.5056-.3164 1.0278-.6064 1.5389-.907-.5056.2953-1.0056.5906-1.5278.8701-.0444.0211-.0944.0686-.1667.0369-.0333-.1635-.0111-.3164.0167-.4799.0222-.0527.0556-.0791.1-.1002.1556-.0896.3111-.174.4611-.2689-.1389.0896-.2833.1687-.4278.2478-.0333.0211-.0666.0528-.1222.037-.0166-.0844-.0166-.1635.0056-.2479.0278-.0633.0722-.0949.1222-.1266.2222-.1265.4444-.2584.5889-.3427-.1389.0843-.3556.2056-.5722.3322-.0334.0211-.0667.0527-.1278.0316-.0111-.0896-.0167-.1793.0167-.2689.0277-.0686.0833-.1055.1388-.1371.4556-.3006.9445-.5643 1.4167-.8438-.4722.2743-.9389.5537-1.4167.8121-.0388.0211-.0777.0422-.1277.0211-.0445-.0791-.0167-.1582-.0111-.2478.0111-.0211.0111-.0317.0055-.0422-.0055-.0844-.0333-.1635-.0055-.2479.0111-.0685.0611-.0896.1055-.1212.3389-.2163.7-.4114.9833-.5801-.25.1424-.5611.3269-.8777.5062-.0667.0369-.1278.095-.2278.0686-.0389-.0791-.0333-.1635-.0056-.2479.0445-.058.1111-.0843.1667-.1318.0222-.0158.0444-.0105.0667-.0158.0111-.0106.0222-.0211.0277-.0264-.0037.0035-.0111.0106-.0222.0211-.0222.0106-.0444.0053-.0666.0211-.0556.0316-.0945.0738-.1612.0844-.0166-.0053-.0222-.0106-.0222-.0158 0-.1635-.0166-.3323.0111-.501.0278-.0791.0834-.1213.1445-.1582.2666-.1582.5333-.3112.8-.4694-.2704.1618-.5426.3217-.8167.4799-.0333.0158-.0667.0422-.1167.0211-.0444-.0896-.0388-.174-.0055-.2689.0222-.0528.0555-.0897.1-.116.1722-.0897.3333-.1952.5-.2901-.1611.0897-.3222.1899-.4833.2848-.0334.0158-.0667.0422-.1167.0158-.0389-.0844-.0333-.1635-.0056-.2479.0056-.0158.0111-.0263 0-.0316-.0277-.0844-.0277-.1687 0-.2637.0334-.0738.1056-.1002.1667-.1371.0778-.0474.1556-.0896.2278-.1371-.0963.0633-.1963.1231-.3.1793-.0278.0106-.05.0317-.0889.0158-.0278-.0211-.0222-.0474-.0222-.0685 0-.2848.0055-.5643.0055-.849 0-.0897-.0222-.1793.0111-.2743.0056-.0105.0056-.0105.0056-.0316-.0445-.174-.0333-.3375-.0056-.5063.0223-.0632.0834-.0791.1278-.1107-.0389.0211-.0667.0527-.1222.0475-.0389-.0897-.0333-.1793-.0056-.269.0278-.1002.1167-.1265.1834-.174.0389-.0264.0777-.0422.1111-.0686-.0611.037-.1222.0739-.1778.1108-.0333.0211-.0611.0422-.1111.0264-.0445-.1002-.0333-.1899-.0056-.2901.0278-.0369.0445-.0685.0667-.0791-.0111.0053-.0278.0211-.0556.0106-.0333-.0211-.0277-.0422-.0277-.0686 0-.35508 0-.71191 0-1.07051 0-.01582.0111-.03691.0166-.06328.0111-.02636.0223-.04218.0056-.06328-.0945-.2584.0778-.5168.3611-.52734.0222.05801.0667.02636.1111.02636.1.01055.1611.06329.2278.13184.0333.1002-.05.12129-.1.16875-.0056 0-.0111.01055-.0056.00527.0556-.03691.0945-.10546.1834-.08437.0944.02637.15.08437.2055.1582-.0055.01055 0 .0211.0167.0211.1055.02109.15.10547.2278.1582.0555.03691.1.08437.1555.13711.0056.03164-.0111.04746-.0278.06855-.0055 0-.0111.01055-.0111.00528.0223-.01582.0334-.03164.0667-.03164.0944.02109.1444.08437.2056.14238.0222.10547-.0778.10019-.1167.14238.0555-.01582.0944-.08965.1778-.07383.0944.0211.1389.08438.2055.14239.0167.05273-.0055.08437-.05.11074-.0722.04219-.1389.08965-.1944.12129.0944-.03692.1722-.15293.3222-.14766.0944.0211.1444.0791.2056.13711.0055.0791-.0723.0791-.0945.11074.0333-.02109.0722-.058.1333-.05273.1556.05801.2667.16345.3778.27945 0 .0159-.0055.0264-.0111.0317.0167-.0053.0278-.0053.0445-.0053.1666.0791.2944.2004.4333.3006.1667.1213.3278.2478.4944.3797 0 .058-.0389.0738-.0777.0949-.1056.0633-.2056.1266-.3167.1846.1167-.0633.2278-.1319.3444-.2004.0278-.0158.05-.0317.0945-.0317.1.0159.1555.0791.2166.1372.0056.021 0 .0263-.0166.0369-.0111.0105-.0222.0211-.0389.0316-.0222.0211-.0445.0158-.0556.0264.0111-.0053.0223-.0106.0445-.0158.0166-.0159.0333-.0264.05-.0422.0111-.0106.0222-.0159.0389-.0106.0889.0211.1444.0738.2.1424.0055.0686-.0445.0897-.0834.116-.2333.1424-.4722.2742-.7055.4166.2333-.1424.4722-.2742.7111-.4166.0444-.0263.0889-.0633.1555-.0474.1.0052.1445.0738.2112.1212.0222.0791-.0389.1055-.0889.1372-.2834.1793-.5834.348-.8778.522-.0278.0158-.0556.0317-.0833.0528.3333-.2004.6666-.4008 1.0111-.5907.0389-.0263.0833-.0316.1389-.0369.0888.0317.15.0791.2055.1424 0 .0158.0056.0158.0222.0158.0778.0211.1334.0739.1945.1319-.0222.0738-.1.0791-.1389.116.0555-.0106.0944-.0844.1778-.0739z" fill="#cdad80"/><path d="m14.7222 8.9332c.4555 0 .8277.35332.8277.79101v7.50409c0 .4377-.3722.791-.8277.791z" fill="#404c6e"/><g fill="#cdad80"><path d="m11.5555 22.4121c-2.93333 0-5.83888 0-8.74444-.0053-.13333 0-.35-.0791-.38333-.1687-.05556-.1582-.03889-.3639.02778-.5221.03333-.0844.23889-.1424.36666-.1424 2.25-.0052 4.5-.0052 6.74445-.0052h7.49448c.3666 0 .4389.0738.4389.4377 0 .3269-.0889.406-.45.406-1.8223 0-3.6445 0-5.4945 0z"/><path d="m2.79997 8.06836h10.70553c.3945 0 .6222.35332.4056.66973-.0611.09492-.2556.16347-.3889.16875-1.6278.01054-3.2556.00527-4.88334.00527-1.95185 0-3.9037 0-5.85556 0-.28333 0-.38889-.09492-.39444-.35332-.00556-.37969.06111-.46934.41111-.49043z"/><path d="m13.5889 12.2871c-3.60557 0-7.1889 0-10.76668-.0053-.13888 0-.35555-.0738-.38888-.1634-.06112-.153-.05-.3639.01666-.5221.03334-.0844.23889-.1477.36667-.1477 2.28333-.0052 4.56667-.0052 6.85555-.0052h3.88338c.2277 0 .3722.0685.3888.3005.0278.3903-.0388.4905-.3555.5432z"/><path d="m3.00558 14.8184c3.52222 0 7.02222 0 10.51662.0052.1334 0 .35.0791.3834.1688.0555.1582.0278.3586-.0222.5273-.0223.0686-.1889.1371-.2945.1371-3.61665.0053-7.23332.0053-10.84998.0053-.25 0-.35-.116-.35-.3902 0-.3428.07777-.443.33888-.4535z"/><path d="m4.38892 19.0371c-.55556 0-1.08334 0-1.61112 0-.29444 0-.38888-.1002-.38888-.406 0-.3428.08333-.4377.38333-.4377h10.76665c.3278 0 .4056.0896.4056.4482 0 .3111-.0945.3955-.4278.3955-3.0333 0-6.06667 0-9.12778 0z"/><path d="m10.1667 4.69336h1.6111c.3056 0 .3889.09492.3889.43242 0 .32168-.0889.41133-.4111.41133-2.98891 0-5.97594 0-8.96113 0-.31667 0-.40555-.08965-.40555-.4166 0-.33223.08333-.42715.4-.42715z"/></g><path d="m3.27777 3.60703c-.15.21621-.49445.3375-.68889.22148-.09444-.05273-.18333-.18457-.18889-.28477-.02222-.35859-.01667-.71718-.01111-1.07578.00556-.20039.12222-.30586.32778-.30586.37222 0 .73889-.00527 1.11111 0 .26667.00528.33889.11075.33889.45352 0 .27422-.1.38496-.35.39023-.16667.00528-.33334 0-.53889 0z" fill="#414d6e"/><path d="m17.1499 23.2559c.25.0105.35.1265.35.3375v1.023c0 .2109-.1166.3217-.3388.327-.3667 0-.7389.0052-1.1056 0-.2389-.0053-.3333-.1266-.3333-.4061 0-.3111.0889-.4271.3277-.4377.1778-.0053.35 0 .5334 0 .1222-.3269-.2167-.9123.5666-.8437z" fill="#414d6e"/><path d="m5.05554 2.40468c.08334-.20039.22222-.25312.42222-.24785.32778.01582.66112.00527.99445.00527.26111.00528.36111.11602.36111.40606 0 .32695-.08333.43242-.35556.43769-.32222.00528-.64444 0-.96666 0-.37222 0-.45556-.07382-.45556-.42187 0-.05274 0-.10547 0-.1793z" fill="#414d6e"/><path d="m1.50002 22.9025c-.13333.3323-.555557.3955-.766668.1688-.061111-.0633-.111111-.1582-.116666-.2426-.011111-.3058-.005556-.6117-.005556-.9176.005556-.2478.122222-.3427.42778-.3427.34444 0 .45555.0791.46111.3375.00555.3269 0 .6486 0 .9966z" fill="#414d6e"/><path d="m12.0834 2.24121c-.0278-.01582-.0389-.04219-.0556-.06856.0223.00528.05.00528.0834.02637-.0056.01582-.0111.02637-.0278.04219z" fill="#000"/></svg>