<svg height="512" viewBox="0 0 512 512" width="512" xmlns="http://www.w3.org/2000/svg"><path d="m277.5 401.4c-4.6 5.6-10.8 8-16.9 8v-308.8c6.5 0 12.7 2.8 16.9 7.8m-84 58c4.9-.2 10 1.3 14.2 4.5 5.8 4.4 8.7 11 8.7 17.7v1.5c-.2 4.1-1.7 8.2-4.4 11.6-23.7 31.6-23.7 74.8 0 106.3 2.7 3.5 4.2 7.6 4.4 11.7v1.5c0 6.7-2.9 13.3-8.7 17.7-9.7 7.4-23.5 5.4-30.8-4.4-17.8-23.5-26.7-51.5-26.7-79.6s8.9-56.1 26.7-79.7c4-5.4 10.2-8.5 16.6-8.8z" fill="#f7aa55"/><path d="m118 121.8c4.2 0 8.6 1.3 12.3 3.8 10.1 6.8 12.8 20.6 6 30.6-40.3 59.8-40.3 137.7 0 197.4 6.8 10.1 4.1 23.8-6 30.7-10 6.8-23.7 4.1-30.6-6-25.1-37.3-37.7-80.3-37.7-123.4s12.6-86.1 37.7-123.4c4.3-6.3 11.3-9.7 18.3-9.7z" fill="#f7aa55" opacity=".3"/><g fill="#f4f2e1"><path d="m432.9 84h18.1v344h-18.1z"/><path d="m396.7 84h18.1v126.7h-18.1z"/><path d="m360.5 210.7v-18.1h54.3v18.1z"/><path d="m324.3 174.5v-18.1h54.3v18.1z"/><path d="m360.5 120.2h18.1v54.3h-18.1z"/><path d="m324.3 138.3v-18.1h54.3v18.1z"/><path d="m342.4 174.5h-18.1v-54.3h18.1z"/><path d="m360.8 172h18v38.2h-18z"/><path d="m362.8 192.6v18.1h-74.7v-18.1z"/><path d="m378.6 84v18.1h-36.2v-18.1z"/><path d="m288.1 156.4h18.1v54.3h-18.1z"/></g><path d="m288.1 246.9v-18.1h126.7v18.1z" fill="#f7aa55"/><path d="m414.8 391.8h-18.1v-126.7h18.1z" fill="#f4f2e1"/><path d="m414.8 373.7v18.1h-54.3v-18.1z" fill="#f4f2e1"/><path d="m378.6 391.8h-18.1v-54.3h18.1z" fill="#f4f2e1"/><path d="m378.6 337.5v18.1h-72.4v-18.1z" fill="#f4f2e1"/><path d="m324.3 355.6h-18.1v-54.3h18.1z" fill="#f4f2e1"/><path d="m306.2 319.4v-18.1h72.4v18.1z" fill="#f4f2e1"/><path d="m290.8 391.8v-18.1h87.8v18.1z" fill="#f4f2e1"/><path d="m306.2 283.2v-18.1h72.4v18.1z" fill="#f7aa55"/><path d="m306.2 428v-18.1h108.6v18.1z" fill="#f7aa55"/></svg>