<svg width="188" height="331" viewBox="0 0 188 331" fill="none" xmlns="http://www.w3.org/2000/svg">
<path d="M60.7803 30.2363V18.0234H86.25V30.2363H60.7803Z" stroke="white"/>
<path d="M47.4868 64.0294L47.4868 64.0299C47.4233 70.363 47.3525 76.762 47.2744 83.2269C47.2741 83.2673 47.2818 83.3073 47.2971 83.3447C47.3125 83.3823 47.3352 83.4165 47.3639 83.4452L47.0104 83.7987L47.3639 83.4452C47.3926 83.4739 47.4268 83.4966 47.4644 83.512C47.502 83.5273 47.5422 83.5351 47.5829 83.5347L73.5119 83.264C73.5146 83.2639 73.5173 83.2638 73.52 83.2637C73.612 83.2615 73.7035 83.2773 73.7894 83.3102M47.4868 64.0294L73.7894 83.3102M47.4868 64.0294C47.5076 61.7349 47.4586 59.1529 47.4076 56.4635C47.332 52.4724 47.2518 48.2449 47.3884 44.3698C60.695 44.5779 73.6733 44.5758 86.3235 44.3634M47.4868 64.0294L86.3235 44.3634M73.7894 83.3102C73.8779 83.3441 73.9587 83.3955 74.0269 83.4614C74.095 83.5272 74.1492 83.606 74.1862 83.6933C74.2232 83.7805 74.2423 83.8744 74.2422 83.9693M73.7894 83.3102L74.2422 83.9693M74.2422 83.9693L73.7422 83.9688H74.2422V83.9693ZM86.3235 44.3634L86.4111 96.8374L86.3235 44.3634ZM112.751 18.0308H112.751L100.58 18.0235V96.6836C100.58 96.9211 100.486 97.1488 100.318 97.3168C100.15 97.4847 99.9223 97.579 99.6849 97.5791C99.6848 97.5791 99.6847 97.5791 99.6846 97.5791L87.1605 97.5864H87.1602C86.9615 97.5864 86.771 97.5075 86.6306 97.3671C86.4902 97.2268 86.4114 97.0366 86.4111 96.8382L112.751 18.0308ZM112.751 18.0308C112.762 18.0308 112.773 18.0352 112.781 18.0431C112.789 18.0509 112.793 18.0616 112.793 18.0728V109.873L20.8345 109.858L21.0318 84.2143V84.2104M112.751 18.0308L21.0318 84.2104M21.0318 84.2104C21.0318 83.9991 20.9786 83.7487 20.7846 83.5548C20.5906 83.3608 20.3403 83.3076 20.1289 83.3076H7.61182C7.40276 83.3076 7.15367 83.359 6.9594 83.5497C6.76344 83.7421 6.70899 83.9919 6.70899 84.2031V84.2039L6.78944 136.35L-111.617 136.306V124.085H-6.23828C-6.07332 124.085 -5.85777 124.044 -5.68698 123.873C-5.51619 123.702 -5.4746 123.487 -5.4746 123.322V123.321L-5.56982 70.9976C-5.56982 70.9973 -5.56982 70.9971 -5.56982 70.9969C-5.56982 70.99 -5.56967 70.9837 -5.56944 70.9779C-5.56345 70.9777 -5.55692 70.9775 -5.5498 70.9775H33.3518M21.0318 84.2104L33.8472 70.8511C33.979 74.1714 33.9961 77.3892 33.8985 80.5044C33.7373 85.6704 33.6861 91.0952 33.7446 96.7788M33.7446 96.7788H33.2446C33.2446 96.7796 33.2446 96.7805 33.2446 96.7813M33.7446 96.7788L33.2447 96.784C33.2447 96.7831 33.2446 96.7822 33.2446 96.7813M33.7446 96.7788L33.2446 96.7813M33.2446 96.7813C33.186 91.0924 33.2374 85.6616 33.3987 80.4887C33.4949 77.4194 33.4793 74.249 33.3518 70.9775M33.3518 70.9775H33.4517C33.4676 70.9775 33.474 70.9787 33.4734 70.9787C33.4727 70.9786 33.4645 70.9771 33.4517 70.9714C33.4378 70.9652 33.4185 70.9541 33.3977 70.9344C33.3733 70.9114 33.3591 70.8875 33.3518 70.8707C33.3518 70.8707 33.3517 70.8706 33.3517 70.8705C33.3508 70.8685 33.3501 70.8667 33.3494 70.8649C33.347 70.8585 33.3462 70.8548 33.3461 70.8544C33.346 70.8539 33.3471 70.8588 33.3475 70.8707L33.3476 70.8709C33.349 70.9065 33.3504 70.942 33.3518 70.9775ZM73.7924 56.9999L73.4394 57.354L73.7923 56.9998C73.6338 56.8419 73.4189 56.7533 73.195 56.7537L60.5534 56.7757C60.3295 56.7761 60.1149 56.8654 59.9569 57.0241C59.7989 57.1827 59.7103 57.3975 59.7107 57.6214L59.7328 70.263C59.7332 70.487 59.8225 70.7015 59.9811 70.8595L60.334 70.5053L59.9811 70.8595C60.1397 71.0175 60.3545 71.1061 60.5784 71.1057L73.22 71.0837C73.444 71.0832 73.6585 70.9939 73.8166 70.8353C73.9746 70.6767 74.0631 70.4619 74.0628 70.238L74.0407 57.5964C74.0403 57.3724 73.9509 57.1578 73.7924 56.9999Z" stroke="white"/>
<path d="M127.064 268.977V18.0234H139.292V268.977H127.064Z" stroke="white"/>
<mask id="path-4-inside-1_9_737" fill="white">
<path d="M47.375 203.251L86.5669 203.017C86.6146 203.016 86.6621 203.024 86.7065 203.042C86.7508 203.06 86.7913 203.087 86.8254 203.121C86.8595 203.155 86.8866 203.196 86.9051 203.241C86.9236 203.286 86.9331 203.334 86.9331 203.383L86.7134 229.267C86.7134 229.391 86.7628 229.51 86.8507 229.598C86.9386 229.686 87.0578 229.735 87.1821 229.735H99.7358C99.8271 229.735 99.9147 229.698 99.9792 229.632C100.044 229.566 100.08 229.477 100.08 229.384V150.612C100.08 150.324 100.222 150.18 100.505 150.18H112.788C113.125 150.18 113.293 150.348 113.293 150.685V242.714C113.293 242.943 113.181 243.056 112.956 243.051L20.8174 242.904C20.5537 242.904 20.4219 243.036 20.4219 243.3L20.6855 269.088C20.6855 269.347 20.5562 269.477 20.2974 269.477H-111.751C-111.995 269.477 -112.117 269.352 -112.117 269.103V256.652C-112.117 256.601 -112.107 256.55 -112.088 256.503C-112.069 256.456 -112.041 256.413 -112.006 256.377C-111.97 256.341 -111.928 256.313 -111.882 256.293C-111.836 256.274 -111.786 256.264 -111.736 256.264H6.89406C6.97953 256.264 7.0615 256.23 7.12193 256.169C7.18237 256.109 7.21632 256.027 7.21632 255.941V216.999C7.21632 216.642 7.39453 216.464 7.75098 216.464H20.0484C20.3267 216.464 20.4658 216.603 20.4658 216.881V229.193C20.4658 229.337 20.5229 229.475 20.6246 229.577C20.7262 229.678 20.8641 229.735 21.0078 229.735H73.2661C73.3399 229.735 73.4107 229.706 73.4629 229.654C73.5151 229.602 73.5444 229.531 73.5444 229.457L73.5518 216.72C73.5518 216.671 73.5419 216.621 73.5227 216.576C73.5034 216.53 73.4752 216.488 73.4398 216.453C73.4043 216.419 73.3623 216.391 73.3161 216.373C73.2699 216.355 73.2206 216.346 73.1709 216.347L34.0376 216.581C33.73 216.581 33.5786 216.427 33.5835 216.12C33.6519 209.513 33.7105 203.18 33.7593 197.121C33.8032 190.705 33.459 183.681 33.6787 177.023C33.6885 176.725 33.8423 176.576 34.1401 176.576L86.4204 176.723C86.5085 176.725 86.5923 176.76 86.6539 176.822C86.7155 176.883 86.75 176.966 86.75 177.052V189.503C86.75 189.782 86.6109 189.921 86.3325 189.921H47.4189C47.1455 189.921 47.0088 190.058 47.0088 190.331V202.768C47.0088 203.09 47.1309 203.251 47.375 203.251Z"/>
</mask>
<path d="M47.375 203.251V204.251L47.381 204.251L47.375 203.251ZM86.5669 203.017L86.5729 204.017L86.5801 204.017L86.5873 204.016L86.5669 203.017ZM86.9331 203.383L87.9331 203.391V203.383L86.9331 203.383ZM86.7134 229.267L85.7134 229.258V229.267H86.7134ZM87.1821 229.735V230.735V229.735ZM99.7358 229.735V230.735V229.735ZM112.956 243.051L112.978 242.051L112.968 242.051L112.958 242.051L112.956 243.051ZM20.8174 242.904L20.819 241.904H20.8174V242.904ZM20.4219 243.3H19.4218L19.4219 243.31L20.4219 243.3ZM20.6855 269.088H21.6856L21.6855 269.078L20.6855 269.088ZM-111.736 256.264V257.264V256.264ZM73.2661 229.735V230.735V229.735ZM73.5444 229.457L72.5444 229.456V229.457H73.5444ZM73.5518 216.72L74.5518 216.721V216.72L73.5518 216.72ZM73.1709 216.347L73.1769 217.347L73.1905 217.346L73.1709 216.347ZM34.0376 216.581V217.581L34.0436 217.581L34.0376 216.581ZM33.5835 216.12L34.5834 216.135L34.5835 216.13L33.5835 216.12ZM33.7593 197.121L34.7593 197.129V197.127L33.7593 197.121ZM33.6787 177.023L34.6782 177.056L34.6782 177.056L33.6787 177.023ZM34.1401 176.576L34.1429 175.576H34.1401V176.576ZM86.4204 176.723L86.4422 175.723L86.4327 175.723L86.4232 175.723L86.4204 176.723ZM86.75 177.052H87.75V177.052L86.75 177.052ZM47.381 204.251L86.5729 204.017L86.5609 202.017L47.369 202.251L47.381 204.251ZM86.5873 204.016C86.4991 204.018 86.412 204.002 86.3312 203.969L87.0817 202.115C86.9122 202.047 86.7302 202.013 86.5465 202.017L86.5873 204.016ZM86.3312 203.969C86.2506 203.937 86.1783 203.888 86.1183 203.828L87.5325 202.414C87.4042 202.286 87.2511 202.184 87.0817 202.115L86.3312 203.969ZM86.1183 203.828C86.0584 203.769 86.0119 203.698 85.9804 203.622L87.8297 202.86C87.7613 202.694 87.6605 202.542 87.5325 202.414L86.1183 203.828ZM85.9804 203.622C85.9491 203.546 85.9331 203.465 85.9331 203.383L87.9331 203.383C87.9331 203.204 87.8981 203.026 87.8297 202.86L85.9804 203.622ZM85.9332 203.374L85.7134 229.258L87.7133 229.275L87.9331 203.391L85.9332 203.374ZM85.7134 229.267C85.7134 229.656 85.8682 230.03 86.1436 230.305L87.5578 228.891C87.6574 228.991 87.7134 229.126 87.7134 229.267H85.7134ZM86.1436 230.305C86.4191 230.581 86.7926 230.735 87.1821 230.735V228.735C87.323 228.735 87.4581 228.791 87.5578 228.891L86.1436 230.305ZM87.1821 230.735H99.7358V228.735H87.1821V230.735ZM99.7358 230.735C100.099 230.735 100.443 230.588 100.694 230.332L99.2647 228.933C99.3861 228.809 99.5552 228.735 99.7358 228.735V230.735ZM100.694 230.332C100.943 230.077 101.08 229.736 101.08 229.384H99.0801C99.0801 229.219 99.1442 229.056 99.2647 228.933L100.694 230.332ZM101.08 229.384V150.612H99.0801V229.384H101.08ZM101.08 150.612C101.08 150.618 101.079 150.807 100.899 150.989C100.717 151.174 100.522 151.18 100.505 151.18V149.18C100.205 149.18 99.797 149.257 99.4732 149.587C99.1525 149.913 99.0801 150.318 99.0801 150.612H101.08ZM100.505 151.18H112.788V149.18H100.505V151.18ZM112.788 151.18C112.802 151.18 112.629 151.183 112.46 151.013C112.29 150.844 112.293 150.671 112.293 150.685H114.293C114.293 150.362 114.212 149.937 113.874 149.599C113.536 149.261 113.11 149.18 112.788 149.18V151.18ZM112.293 150.685V242.714H114.293V150.685H112.293ZM112.293 242.714C112.293 242.682 112.301 242.464 112.502 242.263C112.707 242.058 112.932 242.05 112.978 242.051L112.934 244.051C113.204 244.056 113.598 243.995 113.916 243.677C114.229 243.364 114.293 242.975 114.293 242.714H112.293ZM112.958 242.051L20.819 241.904L20.8158 243.904L112.954 244.051L112.958 242.051ZM20.8174 241.904C20.5314 241.904 20.1332 241.976 19.8136 242.296C19.494 242.616 19.4219 243.014 19.4219 243.3H21.4219C21.4219 243.322 21.4156 243.522 21.2279 243.71C21.0401 243.898 20.8397 243.904 20.8174 243.904V241.904ZM19.4219 243.31L19.6856 269.099L21.6855 269.078L21.4218 243.29L19.4219 243.31ZM19.6855 269.088C19.6855 269.064 19.6924 268.861 19.8814 268.672C20.0704 268.483 20.2726 268.477 20.2974 268.477V270.477C20.5809 270.477 20.9772 270.405 21.2956 270.087C21.614 269.768 21.6855 269.372 21.6855 269.088H19.6855ZM20.2974 268.477H-111.751V270.477H20.2974V268.477ZM-111.751 268.477C-111.714 268.477 -111.503 268.487 -111.312 268.683C-111.123 268.875 -111.117 269.078 -111.117 269.103H-113.117C-113.117 269.377 -113.05 269.767 -112.74 270.083C-112.426 270.403 -112.032 270.477 -111.751 270.477V268.477ZM-111.117 269.103V256.652H-113.117V269.103H-111.117ZM-111.117 256.652C-111.117 256.73 -111.132 256.807 -111.162 256.88L-113.015 256.127C-113.082 256.294 -113.117 256.472 -113.117 256.652H-111.117ZM-111.162 256.88C-111.191 256.953 -111.235 257.02 -111.292 257.078L-112.719 255.677C-112.847 255.807 -112.947 255.96 -113.015 256.127L-111.162 256.88ZM-111.292 257.078C-111.348 257.135 -111.417 257.182 -111.493 257.214L-112.271 255.372C-112.44 255.443 -112.592 255.547 -112.719 255.677L-111.292 257.078ZM-111.493 257.214C-111.57 257.247 -111.652 257.264 -111.736 257.264V255.264C-111.92 255.264 -112.102 255.301 -112.271 255.372L-111.493 257.214ZM-111.736 257.264H6.89406V255.264H-111.736V257.264ZM6.89406 257.264C7.24476 257.264 7.58108 257.124 7.82904 256.876L6.41483 255.462C6.54192 255.335 6.71429 255.264 6.89406 255.264V257.264ZM7.82904 256.876C8.077 256.628 8.21632 256.292 8.21632 255.941H6.21632C6.21632 255.762 6.28774 255.589 6.41483 255.462L7.82904 256.876ZM8.21632 255.941V216.999H6.21632V255.941H8.21632ZM8.21632 216.999C8.21632 216.974 8.22167 217.14 8.05711 217.305C7.89254 217.469 7.72691 217.464 7.75098 217.464V215.464C7.4186 215.464 6.98564 215.548 6.64285 215.89C6.30008 216.233 6.21632 216.666 6.21632 216.999H8.21632ZM7.75098 217.464H20.0484V215.464H7.75098V217.464ZM20.0484 217.464C20.0334 217.464 19.8385 217.459 19.6544 217.275C19.4703 217.091 19.4658 216.896 19.4658 216.881H21.4658C21.4658 216.588 21.3918 216.184 21.0686 215.861C20.7453 215.538 20.3417 215.464 20.0484 215.464V217.464ZM19.4658 216.881V229.193H21.4658V216.881H19.4658ZM19.4658 229.193C19.4658 229.602 19.6283 229.995 19.9175 230.284L21.3317 228.869C21.4176 228.955 21.4658 229.072 21.4658 229.193H19.4658ZM19.9175 230.284C20.2067 230.573 20.5989 230.735 21.0078 230.735V228.735C21.1293 228.735 21.2458 228.784 21.3317 228.869L19.9175 230.284ZM21.0078 230.735H73.2661V228.735H21.0078V230.735ZM73.2661 230.735C73.6051 230.735 73.9303 230.601 74.17 230.361L72.7558 228.947C72.8912 228.811 73.0748 228.735 73.2661 228.735V230.735ZM74.17 230.361C74.4098 230.121 74.5444 229.796 74.5444 229.457H72.5444C72.5444 229.266 72.6205 229.082 72.7558 228.947L74.17 230.361ZM74.5444 229.458L74.5518 216.721L72.5518 216.72L72.5444 229.456L74.5444 229.458ZM74.5518 216.72C74.5518 216.538 74.5155 216.357 74.4447 216.188L72.6006 216.963C72.5683 216.886 72.5517 216.803 72.5518 216.72L74.5518 216.72ZM74.4447 216.188C74.3739 216.02 74.2702 215.867 74.14 215.74L72.7396 217.167C72.6803 217.109 72.6329 217.04 72.6006 216.963L74.4447 216.188ZM74.14 215.74C74.0097 215.612 73.8551 215.511 73.6852 215.444L72.947 217.302C72.8694 217.272 72.7989 217.226 72.7396 217.167L74.14 215.74ZM73.6852 215.444C73.5155 215.376 73.334 215.343 73.1513 215.347L73.1905 217.346C73.1072 217.348 73.0244 217.333 72.947 217.302L73.6852 215.444ZM73.1649 215.347L34.0316 215.581L34.0436 217.581L73.1769 217.347L73.1649 215.347ZM34.0376 215.581C34.0409 215.581 34.0855 215.581 34.1539 215.604C34.2275 215.629 34.3207 215.678 34.4061 215.764C34.4915 215.851 34.5388 215.945 34.5623 216.019C34.5841 216.088 34.5834 216.132 34.5834 216.135L32.5836 216.104C32.5788 216.41 32.6492 216.83 32.9806 217.167C33.3121 217.504 33.731 217.581 34.0376 217.581V215.581ZM34.5835 216.13C34.6518 209.523 34.7104 203.189 34.7593 197.129L32.7593 197.113C32.7105 203.171 32.6519 209.504 32.5836 216.109L34.5835 216.13ZM34.7593 197.127C34.8039 190.608 34.4582 183.722 34.6782 177.056L32.6793 176.99C32.4598 183.639 32.8026 190.801 32.7593 197.114L34.7593 197.127ZM34.6782 177.056C34.6779 177.063 34.6692 177.24 34.497 177.406C34.3246 177.573 34.148 177.576 34.1401 177.576V175.576C33.8344 175.576 33.4319 175.654 33.1058 175.969C32.7797 176.285 32.6893 176.685 32.6792 176.99L34.6782 177.056ZM34.1373 177.576L86.4176 177.723L86.4232 175.723L34.1429 175.576L34.1373 177.576ZM86.3986 177.722C86.2321 177.719 86.0695 177.652 85.9468 177.529L87.361 176.115C87.115 175.869 86.7848 175.73 86.4422 175.723L86.3986 177.722ZM85.9468 177.529C85.8233 177.405 85.7501 177.235 85.75 177.053L87.75 177.052C87.7499 176.697 87.6077 176.361 87.361 176.115L85.9468 177.529ZM85.75 177.052V189.503H87.75V177.052H85.75ZM85.75 189.503C85.75 189.488 85.7544 189.294 85.9385 189.109C86.1226 188.925 86.3175 188.921 86.3325 188.921V190.921C86.6258 190.921 87.0295 190.847 87.3528 190.524C87.676 190.2 87.75 189.797 87.75 189.503H85.75ZM86.3325 188.921H47.4189V190.921H86.3325V188.921ZM47.4189 188.921C47.1281 188.921 46.7263 188.994 46.4042 189.316C46.0822 189.638 46.0088 190.04 46.0088 190.331H48.0088C48.0088 190.348 48.0038 190.545 47.8184 190.731C47.6331 190.916 47.4364 190.921 47.4189 190.921V188.921ZM46.0088 190.331V202.768H48.0088V190.331H46.0088ZM46.0088 202.768C46.0088 203.026 46.0528 203.403 46.3033 203.734C46.5934 204.117 47.0127 204.251 47.375 204.251V202.251C47.4228 202.251 47.5116 202.259 47.6175 202.305C47.7292 202.355 47.8263 202.432 47.8974 202.526C48.0258 202.696 48.0088 202.831 48.0088 202.768H46.0088Z" fill="white" mask="url(#path-4-inside-1_9_737)"/>
<path d="M34.2959 162.922V150.68H86.25V162.922H34.2959Z" stroke="#CDAD80"/>
<path d="M34.2886 268.977V256.764H112.786V268.977H34.2886Z" stroke="#CDAD80"/>
<path d="M7.76758 202.692V150.68H19.9658V202.692H7.76758Z" stroke="#CDAD80"/>
<path d="M20.9951 136.32V124.078H112.793V136.32H20.9951Z" stroke="#CDAD80"/>
<path d="M-5.50391 56.7646V44.5664H33.2373V56.7646H-5.50391Z" stroke="#CDAD80"/>
<path d="M-111.617 30.251V18.0234H46.5088V30.251H-111.617Z" stroke="#CDAD80"/>
</svg>
