<svg height="512" viewBox="0 0 512 512" width="512" xmlns="http://www.w3.org/2000/svg"><g fill="#f4f2e1"><path d="m432.9 84h18.1v344h-18.1z"/><path d="m396.7 84h18.1v126.7h-18.1z"/><path d="m360.5 210.7v-18.1h54.3v18.1z"/><path d="m324.3 174.5v-18.1h54.3v18.1z"/><path d="m360.5 120.2h18.1v54.3h-18.1z"/><path d="m324.3 138.3v-18.1h54.3v18.1z"/><path d="m342.4 174.5h-18.1v-54.3h18.1z"/><path d="m360.8 172h18v38.2h-18z"/><path d="m362.8 192.6v18.1h-74.7v-18.1z"/><path d="m378.6 84v18.1h-36.2v-18.1z"/><path d="m288.1 156.4h18.1v54.3h-18.1z"/></g><path d="m288.1 246.9v-18.1h126.7v18.1z" fill="#f7aa55"/><path d="m414.8 391.8h-18.1v-126.7h18.1z" fill="#f4f2e1"/><path d="m414.8 373.7v18.1h-54.3v-18.1z" fill="#f4f2e1"/><path d="m378.6 391.8h-18.1v-54.3h18.1z" fill="#f4f2e1"/><path d="m378.6 337.5v18.1h-72.4v-18.1z" fill="#f4f2e1"/><path d="m324.3 355.6h-18.1v-54.3h18.1z" fill="#f4f2e1"/><path d="m306.2 319.4v-18.1h72.4v18.1z" fill="#f4f2e1"/><path d="m290.8 391.8v-18.1h87.8v18.1z" fill="#f4f2e1"/><path d="m306.2 283.2v-18.1h72.4v18.1z" fill="#f7aa55"/><path d="m306.2 428v-18.1h108.6v18.1z" fill="#f7aa55"/><path d="m71.1 102.1c-5 0-9.1-4-9.1-9s4.1-9.1 9.1-9.1h208.2v18.1z" fill="#f7aa55"/><path d="m71.1 222.1c-5 0-9.1-4-9.1-9s4.1-9.1 9.1-9.1h208.2v18.1z" fill="#f7aa55"/><path d="m131.8 262.1c-5 0-9-4-9-9s4-9.1 9-9.1h147.5v18.1z" fill="#f7aa55"/><path d="m71.1 302.1c-5 0-9.1-4-9.1-9s4.1-9.1 9.1-9.1h208.2v18.1z" fill="#f7aa55"/><path d="m71.1 382.1c-5 0-9.1-4-9.1-9s4.1-9.1 9.1-9.1h208.2v18.1z" fill="#f7aa55"/><path d="m71.1 426.1c-5 0-9.1-4-9.1-9s4.1-9.1 9.1-9.1h208.2v18.1z" fill="#f7aa55"/><path d="m126.8 342.1c-5 0-9-4-9-9s4-9.1 9-9.1h152.5v18.1z" fill="#f7aa55"/><path d="m87.8 142.1c-5 0-9-4-9-9s4-9.1 9-9.1h191.5v18.1z" fill="#f7aa55"/><path d="m100.8 182.1c-5 0-9-4-9-9s4-9.1 9-9.1h178.5v18.1z" fill="#f7aa55"/></svg>