<svg height="109" viewBox="0 0 109 109" width="109" xmlns="http://www.w3.org/2000/svg"><path d="m58.9 83.3c-.9 1.1-2.2 1.6-3.5 1.6v-60.6c1.3 0 2.6.5 3.5 1.5m-17.5 11.4c1-.1 2.1.2 3 .9 1.2.8 1.8 2.1 1.8 3.4v.3c-.1.8-.4 1.6-.9 2.3-5 6.2-5 14.7 0 20.9.5.6.8 1.5.9 2.3v.3c0 1.3-.6 2.6-1.8 3.4-2.1 1.5-4.9 1.1-6.5-.8-3.7-4.7-5.5-10.1-5.5-15.7 0-5.5 1.8-11 5.5-15.6.9-1.1 2.2-1.7 3.5-1.7z" fill="#cdad80"/><path d="m25.7 28.4c.8 0 1.8.3 2.5.8 2.1 1.3 2.7 4 1.3 6-8.4 11.7-8.4 27 0 38.7 1.4 2 .8 4.7-1.3 6-2 1.4-4.9.8-6.3-1.1-5.3-7.4-7.9-15.8-7.9-24.3 0-8.4 2.6-16.9 7.9-24.2.9-1.2 2.3-1.9 3.8-1.9z" fill="#cdad80" opacity=".3"/><g fill="#fff"><path d="m91.3 21h3.8v67.5h-3.8z"/><path d="m83.8 21h3.7v24.9h-3.7z"/><path d="m76.2 42.3h11.3v3.6h-11.3z"/><path d="m68.7 35.2h11.3v3.6h-11.3z"/><path d="m76.2 28.1h3.8v10.7h-3.8z"/><path d="m68.7 28.1h11.3v3.6h-11.3z"/><path d="m68.7 28.1h3.7v10.7h-3.7z"/><path d="m76.3 38.3h3.7v7.5h-3.7z"/><path d="m61.1 42.3h15.6v3.6h-15.6z"/><path d="m72.4 21h7.6v3.6h-7.6z"/><path d="m61.1 35.2h3.8v10.7h-3.8z"/></g><path d="m61.1 49.4h26.4v3.6h-26.4z" fill="#cdad80"/><path d="m83.8 56.5h3.7v24.9h-3.7z" fill="#fff"/><path d="m76.2 77.9h11.3v3.5h-11.3z" fill="#fff"/><path d="m76.2 70.7h3.8v10.7h-3.8z" fill="#fff"/><path d="m64.9 70.7h15.1v3.6h-15.1z" fill="#fff"/><path d="m64.9 63.6h3.8v10.7h-3.8z" fill="#fff"/><path d="m64.9 63.6h15.1v3.6h-15.1z" fill="#fff"/><path d="m61.7 77.9h18.3v3.5h-18.3z" fill="#fff"/><path d="m64.9 56.5h15.1v3.6h-15.1z" fill="#cdad80"/><path d="m64.9 85h22.6v3.5h-22.6z" fill="#cdad80"/></svg>