<svg height="512" viewBox="0 0 512 512" width="512" xmlns="http://www.w3.org/2000/svg"><g fill="#f4f2e1"><path d="m428.1 84h18.1v344h-18.1z"/><path d="m391.9 84h18.1v126.7h-18.1z"/><path d="m355.7 210.7v-18.1h54.3v18.1z"/><path d="m319.5 174.5v-18.1h54.3v18.1z"/><path d="m355.7 120.2h18.1v54.3h-18.1z"/><path d="m319.5 138.3v-18.1h54.3v18.1z"/><path d="m337.6 174.5h-18.1v-54.3h18.1z"/><path d="m356 172h18v38.2h-18z"/><path d="m358 192.6v18.1h-74.7v-18.1z"/><path d="m373.8 84v18.1h-36.2v-18.1z"/><path d="m247.1 156.4h18.1v90.5h-18.1z"/><path d="m102.2 246.9v-18.1h163v18.1z"/><path d="m283.3 156.4h18.1v54.3h-18.1z"/><path d="m247.1 174.5v-18.1h54.3v18.1z"/><path d="m210.8 120.2h18.1v90.5h-18.1z"/><path d="m174.6 156.4h18.1v54.3h-18.1z"/><path d="m102.2 210.7v-18.1h90.5v18.1z"/><path d="m102.2 156.4h18.1v54.3h-18.1z"/><path d="m156.5 156.4v18.1h-54.3v-18.1z"/><path d="m192.7 120.2v18.1h-18.1v-18.1z"/></g><path d="m283.3 246.9v-18.1h126.7v18.1z" fill="#f7aa55"/><path d="m102.2 102.1v-18.1h217.3v18.1z" fill="#f7aa55"/><path d="m247.1 138.3v-18.1h54.3v18.1z" fill="#f7aa55"/><path d="m174.6 102.1v-18.1h18.1v18.1z" fill="#f7aa55"/><path d="m156.5 120.2v18.1h-54.3v-18.1z" fill="#f7aa55"/><path d="m120.3 319.4h-18.1v-54.3h18.1z" fill="#f7aa55"/><path d="m410 391.8h-18.1v-126.7h18.1z" fill="#f4f2e1"/><path d="m410 373.7v18.1h-54.3v-18.1z" fill="#f4f2e1"/><path d="m373.8 391.8h-18.1v-54.3h18.1z" fill="#f4f2e1"/><path d="m373.8 337.5v18.1h-72.4v-18.1z" fill="#f4f2e1"/><path d="m319.5 355.6h-18.1v-54.3h18.1z" fill="#f4f2e1"/><path d="m301.4 319.4v-18.1h72.4v18.1z" fill="#f4f2e1"/><path d="m265.2 391.8v-18.1h108.6v18.1z" fill="#f4f2e1"/><path d="m265.2 355.6h18.1v72.4h-18.1z" fill="#f4f2e1"/><path d="m283.3 409.9v18.1h-181.1v-18.1z" fill="#f4f2e1"/><path d="m247.1 355.6h-18.2v-54.3h18.2z" fill="#f4f2e1"/><path d="m192.7 355.6v-18.1h54.4v18.1z" fill="#f4f2e1"/><path d="m210.8 391.8v-18.1h36.3v18.1z" fill="#f4f2e1"/><path d="m174.6 301.3h18.1v54.3h-18.1z" fill="#f4f2e1"/><path d="m138.4 319.4v-18.1h54.3v18.1z" fill="#f4f2e1"/><path d="m156.5 355.6h-18.1v-54.3h18.1z" fill="#f4f2e1"/><path d="m138.4 355.6v-18.1h54.3v18.1z" fill="#f4f2e1"/><path d="m102.2 355.6v-18.1h54.3v18.1z" fill="#f4f2e1"/><path d="m120.3 391.8h-18.1v-54.3h18.1z" fill="#f4f2e1"/><path d="m102 391.8v-18.1h91v18.1z" fill="#f4f2e1"/><path d="m138.4 283.2v-18.1h108.7v18.1z" fill="#f7aa55"/><path d="m301.4 283.2v-18.1h72.4v18.1z" fill="#f7aa55"/><path d="m84.1 428h-18.1v-344h18.1z" fill="#f7aa55"/><path d="m283.3 337.5h-18.1v-72.4h18.1z" fill="#f7aa55"/><path d="m301.4 428v-18.1h108.6v18.1z" fill="#f7aa55"/></svg>