<svg height="331" viewBox="0 0 188 331" width="188" xmlns="http://www.w3.org/2000/svg"><g fill="none" stroke-miterlimit="100"><path d="m143.3 90.5v32c-39.6 0-79.1 0-118.7 0 0-11.2 0-22.3 0-33.5-5.6 0-11 0-16.6 0v67.3c-50.9 0-101.6 0-152.5 0 0-5.6 0-11.2 0-17h135.2c0-22.6 0-45 0-67.6h51v33.5h50.8c0-5.4 0-10.8 0-16.4-11.4 0-22.6 0-34 0 0-17.1 0-34 0-50.9h51.1v67.4h16.3c0-33.7 0-67.4 0-101.2h17.4zm-51.1-34.2c-.5-.4-1-.9-1.6-1.2-.4-.1-.9.2-1.4.2-4.4.1-8.9 0-13.4 0q0 8 0 16.1h16.4c0-3.7 0-7.2 0-10.7 0-1.4 0-2.8 0-4.4z" stroke="#fff" stroke-width="3"/><path d="m92.6 224.1c-11.2 0-22.3 0-33.4 0v16.9h50.6v33.8h16.5c0-33.9 0-67.6 0-101.6h17.2v118.9c-39.3 0-78.7 0-118.3 0v33.6c-56.5 0-112.8 0-169.3 0 0-5.7 0-11.2 0-16.9h152c0-17 0-33.8 0-50.7h17.3v16.7h67.2c0-5.5 0-10.8 0-16.4-16.8 0-33.5 0-50.5 0 0-17.2 0-34.2 0-51.4h67.7v17.1q-8.3 0-17 0z" stroke="#fff" stroke-width="3"/><path d="m-29.6 258c-32.5.1-64.8.3-97.3.5v16.3h67.7c.1.7.2 1.2.2 1.7v13.9c0 1.4-.5 1.8-1.9 1.8q-41-.1-82.2-.1c-.4 0-.8 0-1.3-.1 0-16.9 0-33.8 0-50.9h33.9c0-11.4 0-22.6 0-34h51.1v33.9h33.5c0-11.4 0-22.6 0-34h17.2q0 25.6 0 51c-6.9 0-13.8 0-20.9 0zm-53.9-33.9q-4.8 0-9.5 0v16.8h16.3c0-5.6 0-11.1 0-16.8-2.2 0-4.4 0-6.8 0z" stroke="#404c6e" stroke-width="5"/><path d="m-160.8 219.1v106.8c-5.8 0-11.4 0-17.2 0q0-160.9 0-321.9h17.2z" stroke="#cdad80" stroke-width="5"/><path d="m159.9 116.2c0-37.5 0-74.7 0-112.2h17.1v322q-4.2 0-8.4 0c-2.8 0-5.6 0-8.7 0 0-70 0-139.8 0-209.8z" stroke="#fff" stroke-width="3"/><path d="m-40.7 21.2c-34.6 0-69 0-103.5 0 0-5.8 0-11.4 0-17.2h203.2v17.2c-33.2 0-66.4 0-99.7 0z" stroke="#cdad80" stroke-width="3"/><path d="m-103.7 71.6h10.1v17.2c-11.3 0-22.4 0-33.6 0v16.5h50.2c0-11.2 0-22.3 0-33.6h17.2v50.8c-28.2 0-56.3 0-84.6 0 0-16.8 0-33.7 0-50.9z" stroke="#404c6e" stroke-width="5"/><path d="m24.9 142c0-1 0-1.8 0-2.7h118.6v17.1c-39.4 0-78.9 0-118.6 0 0-4.8 0-9.5 0-14.4z" stroke="#cdad80" stroke-width="3"/><path d="m143.2 308.8c.3.2.4.5.4.7v16.3c-33.9 0-67.7 0-101.7 0 0-5.5 0-11.2 0-17.1 33.7 0 67.4 0 101.3.1z" stroke="#cdad80" stroke-width="3"/><path d="m-83.4 173.4h74.7v16.8c-33.8 0-67.7 0-101.6 0 0-5.5 0-11.1 0-16.8z" stroke="#cdad80" stroke-width="5"/><path d="m-28.6 37.7h2.6v84.8c-5.6 0-11.2 0-17 0 0-28.2 0-56.4 0-84.8z" stroke="#404c6e" stroke-width="5"/><g stroke="#cdad80"><path d="m25.2 223.1v18.2c-5.7 0-11.4 0-17.1 0q0-34 0-68.1h17.1z" stroke-width="3"/><path d="m59.7 190.3c-6 0-11.8 0-17.8 0 0-5.7 0-11.4 0-17.1h67.8v17.1c-16.6 0-33.2 0-50 0z" stroke-width="3"/><path d="m-8.9 49.2c0-3.9 0-7.5 0-11.4h50.9v17.1c-16.9 0-33.8 0-50.9 0 0-1.8 0-3.7 0-5.7z" stroke-width="3"/><path d="m-130.7 173.1h3.6v50.9c-5.7 0-11.3 0-17.1 0 0-16.9 0-33.8 0-50.9z" stroke-width="5"/><path d="m-108.7 37.7h15.4v17.2q-25.4 0-50.9 0c0-5.7 0-11.3 0-17.2z" stroke-width="5"/></g><path d="m75.3 11c0-2.4 0-4.6 0-7h34v17c-11.2 0-22.4 0-34 0 0-3.2 0-6.5 0-10z" stroke="#fff" stroke-width="3"/><path d="m-8.6 277.3v14.3c-11.4 0-22.7 0-34 0 0-5.5 0-11 0-16.6h34z" stroke="#404c6e" stroke-width="5"/><path d="m-59.8 38.2c.1 5.6.1 11.1.1 16.6-5.7 0-11.4 0-17.1 0 0-5.6 0-11.1 0-16.9.3 0 .7-.2 1.1-.2q7.3 0 14.7 0c.4.1.8.3 1.2.5z" stroke="#404c6e" stroke-width="5"/></g></svg>