<svg width="355" height="355" viewBox="0 0 355 355" fill="none" xmlns="http://www.w3.org/2000/svg">
<path d="M197.019 336.286C192.17 336.749 187.648 337.482 183.108 337.617C165.331 338.147 147.828 335.764 130.918 330.518C114.661 325.475 99.1877 318.367 85.6434 307.787C78.1968 301.971 70.5717 296.211 64.0056 289.473C48.0731 273.121 36.0549 254.17 28.3612 232.526C24.2088 220.845 21.1339 208.978 20.0992 196.616C19.585 190.473 18.9417 184.327 18.7832 178.171C18.6036 171.196 23.6847 167.038 31.7184 167.1C37.4241 167.143 41.5267 171.852 41.6137 178.266C41.872 197.314 45.6322 215.606 53.3877 233.062C59.5234 246.873 67.7414 259.217 77.9068 270.435C89.7678 283.524 103.709 293.705 119.492 301.311C131.114 306.911 143.306 311.169 156.228 312.666C164.492 313.623 172.817 314.696 181.107 314.64C192.579 314.561 203.919 312.711 215.013 309.567C232.537 304.601 248.522 296.52 262.739 285.232C276.862 274.019 288.352 260.46 297.25 244.662C304.709 231.417 309.917 217.342 312.467 202.489C314.16 192.63 314.982 182.43 314.593 172.445C313.79 151.842 308.382 132.208 298.588 114C293.152 103.891 286.422 94.6459 278.638 86.0879C266.839 73.1147 253.025 62.991 237.37 55.3509C224.083 48.8664 210.103 44.462 195.315 42.9958C189.525 42.4219 183.712 41.6374 177.914 41.6797C159.58 41.8136 141.905 45.3705 125.001 52.6357C110.254 58.9736 96.8984 67.38 85.3681 78.6049C82.7142 81.1886 80.0079 83.7184 76.6038 86.9604C80.9208 87.401 84.1306 87.9907 87.3442 88.0119C102.481 88.1122 117.619 88.0553 132.756 88.0572C139.299 88.0581 144.101 92.6521 144.217 99.0155C144.332 105.281 139.496 110.141 133.026 110.243C118.05 110.479 103.066 111.113 88.103 110.779C79.6574 110.591 71.0402 110.565 62.8441 107.515C50.6304 102.969 42.7123 94.4423 39.6582 81.9095C38.1909 75.8885 37.6494 69.5321 37.5368 63.3123C37.2502 47.4868 37.4351 31.6527 37.4444 15.8221C37.4485 8.85823 42.2249 4.15837 49.2577 4.16016C55.7563 4.1618 60.3161 8.9675 60.3196 15.8561C60.328 32.3801 60.316 48.904 60.3356 65.428C60.3371 66.6216 60.5282 67.815 60.6831 69.6121C64.6763 66.0201 68.1706 62.9425 71.5928 59.7868C85.342 47.108 100.894 37.2034 118.357 30.6115C127.607 27.1202 137.203 24.4087 146.822 22.086C153.291 20.524 160.06 20.1321 166.719 19.458C171.273 18.997 175.878 18.6377 180.444 18.7747C200.891 19.3883 220.713 23.0275 239.647 31.1115C256.722 38.4014 272.074 48.1633 285.827 60.7092C304.588 77.823 318.146 98.2659 327.335 121.836C331.675 132.968 334.503 144.488 336.084 156.217C337.351 165.609 337.948 175.227 337.516 184.685C336.385 209.446 330.139 232.975 318.111 254.769C312.006 265.831 304.565 275.944 296.118 285.406C286.236 296.474 274.903 305.678 262.403 313.491C247.134 323.035 230.828 330.155 213.035 333.526C207.816 334.515 202.57 335.367 197.019 336.286Z" fill="#404C6E"/>
<path d="M221.114 185.116C227.493 189.195 231.951 194.586 233.258 201.855C234.003 205.996 233.667 210.35 233.64 214.607C233.593 222.009 234.441 229.497 231.598 236.657C225.94 250.904 215.784 259.835 200.632 262.735C197.629 263.31 194.504 263.436 191.435 263.446C172.373 263.507 153.308 263.286 134.252 263.592C128.504 263.685 122.492 258.381 122.458 252.571C122.422 246.455 128.175 240.394 134.548 240.49C154.068 240.781 173.595 240.465 193.117 240.661C200.743 240.738 210.851 233.311 210.826 224.298C210.814 219.61 211.392 214.921 211.431 210.231C211.469 205.718 210.144 204.542 205.776 204.542C187.292 204.54 168.806 204.382 150.325 204.597C138.099 204.74 126.118 197.459 123.291 184.697C123.049 183.604 122.757 182.49 122.75 181.383C122.701 174.337 122.491 167.28 122.777 160.245C123.265 148.187 128.639 138.471 138.042 131.069C145.813 124.952 154.712 122.463 164.684 122.635C183.047 122.95 201.419 122.721 219.788 122.726C226.306 122.728 230.197 126.936 230.195 133.954C230.194 140.684 226.221 144.908 219.862 144.91C201.956 144.916 184.049 144.83 166.144 144.967C161.378 145.003 156.756 145.922 152.717 148.983C148.465 152.205 146.029 156.303 145.631 161.553C145.275 166.233 145.015 170.927 144.948 175.618C144.878 180.447 146.219 181.657 151.055 181.658C170.001 181.663 188.947 181.703 207.893 181.63C212.573 181.611 216.87 182.662 221.114 185.116Z" fill="#404C6E"/>
</svg>
