<svg width="138" height="176" viewBox="0 0 138 176" fill="none" xmlns="http://www.w3.org/2000/svg">
<g clip-path="url(#clip0_398_30)">
<mask id="mask0_398_30" style="mask-type:luminance" maskUnits="userSpaceOnUse" x="0" y="0" width="138" height="176">
<path d="M138 0H0V176H138V0Z" fill="white"/>
</mask>
<g mask="url(#mask0_398_30)">
<path d="M2 4C2 2.89543 2.89543 2 4 2H6V174H4C2.89543 174 2 173.105 2 172V4Z" fill="#FFFBF8"/>
<path d="M51 135H138V171H51V135Z" fill="#FFFBF8"/>
<path d="M40.8267 135H37.1478C37.1306 135 37.1167 135.014 37.1167 135.031V136.836C37.1167 136.854 37.1306 136.867 37.1478 136.867H40.8267C40.8439 136.867 40.8578 136.854 40.8578 136.836V135.031C40.8578 135.014 40.8439 135 40.8267 135Z" fill="white"/>
<path d="M39.0196 146.186V144.391C39.0196 144.387 39.0188 144.383 39.0173 144.38C39.0158 144.376 39.0135 144.373 39.0107 144.37C39.0079 144.367 39.0046 144.365 39.001 144.364C38.9973 144.362 38.9935 144.362 38.9896 144.362L35.323 144.4C35.3079 144.4 35.2929 144.398 35.2789 144.392C35.2649 144.386 35.2522 144.378 35.2415 144.367C35.2308 144.356 35.2223 144.343 35.2166 144.329C35.2109 144.315 35.208 144.3 35.2081 144.285C35.2192 143.372 35.2292 142.467 35.2382 141.572C35.2454 140.772 35.1916 139.699 35.2247 138.78C35.2252 138.765 35.2318 138.75 35.2431 138.74C35.2543 138.729 35.2693 138.723 35.2847 138.723C37.1749 138.753 39.0182 138.753 40.8145 138.722C40.8216 138.722 40.8285 138.724 40.8351 138.726C40.8416 138.729 40.8475 138.733 40.8525 138.738C40.8576 138.742 40.8615 138.748 40.8643 138.755C40.867 138.761 40.8684 138.768 40.8684 138.775L40.8808 146.21C40.8808 146.219 40.8845 146.228 40.8911 146.235C40.8977 146.241 40.9067 146.245 40.916 146.245L42.6861 146.244C42.7009 146.244 42.7152 146.238 42.7256 146.227C42.7361 146.217 42.742 146.203 42.742 146.188V135.054C42.742 135.018 42.76 135 42.7958 135L44.5328 135.001C44.5531 135.001 44.5726 135.009 44.587 135.023C44.6014 135.038 44.6094 135.057 44.6094 135.078V148.07C44.6094 148.105 44.5918 148.123 44.5566 148.123L31.5313 148.121C31.5233 148.121 31.5154 148.119 31.5081 148.116C31.5007 148.113 31.494 148.108 31.4884 148.103C31.4829 148.097 31.4785 148.09 31.4755 148.083C31.4725 148.075 31.4711 148.068 31.4712 148.06L31.4992 144.425C31.4992 144.387 31.4802 144.368 31.4422 144.368H29.6732C29.6352 144.368 29.6162 144.387 29.6162 144.424L29.6276 151.804C29.6276 151.844 29.6069 151.865 29.5655 151.865L12.7898 151.859C12.7796 151.859 12.7699 151.855 12.7627 151.847C12.7555 151.84 12.7515 151.83 12.7515 151.82V150.052C12.7515 150.011 12.7722 149.99 12.8136 149.99H27.7157C27.7405 149.99 27.7529 149.978 27.7529 149.953L27.7395 142.558C27.7395 142.509 27.764 142.484 27.813 142.484H33.3252C33.3611 142.484 33.3797 142.502 33.3811 142.537C33.3997 143.006 33.4021 143.461 33.3883 143.901C33.3656 144.631 33.3583 145.398 33.3666 146.201C33.3666 146.23 33.3807 146.244 33.409 146.244H38.9616C38.977 146.244 38.9917 146.238 39.0026 146.227C39.0135 146.216 39.0196 146.201 39.0196 146.186ZM38.9911 140.664C38.9911 140.651 38.9859 140.638 38.9768 140.629C38.9677 140.62 38.9553 140.615 38.9424 140.615L37.1557 140.618C37.1428 140.618 37.1304 140.623 37.1213 140.633C37.1122 140.642 37.1071 140.654 37.1071 140.667L37.1103 142.454C37.1103 142.467 37.1154 142.479 37.1246 142.488C37.1337 142.497 37.1461 142.502 37.159 142.502L38.9457 142.499C38.9586 142.499 38.9709 142.494 38.98 142.485C38.9891 142.476 38.9943 142.463 38.9942 142.45L38.9911 140.664Z" fill="white"/>
<path d="M48.3254 135H46.5138C46.4978 135 46.4849 135.013 46.4849 135.029V170.58C46.4849 170.596 46.4978 170.609 46.5138 170.609H48.3254C48.3414 170.609 48.3544 170.596 48.3544 170.58V135.029C48.3544 135.013 48.3414 135 48.3254 135Z" fill="white"/>
<path d="M22.0852 138.751H20.2737C20.2571 138.751 20.2437 138.765 20.2437 138.781V140.587C20.2437 140.603 20.2571 140.617 20.2737 140.617H22.0852C22.1018 140.617 22.1152 140.603 22.1152 140.587V138.781C22.1152 138.765 22.1018 138.751 22.0852 138.751Z" fill="white"/>
<path d="M25.8256 138.751H24.0244C24.0055 138.751 23.9902 138.767 23.9902 138.786V148.081C23.9902 148.1 24.0055 148.115 24.0244 148.115H25.8256C25.8444 148.115 25.8597 148.1 25.8597 148.081V138.786C25.8597 138.767 25.8444 138.751 25.8256 138.751Z" fill="white"/>
<path d="M14.6663 146.244H20.1961C20.2093 146.244 20.2219 146.239 20.2312 146.229C20.2405 146.22 20.2458 146.207 20.2458 146.194L20.2396 142.541C20.2396 142.528 20.2448 142.515 20.2541 142.506C20.2634 142.497 20.2761 142.491 20.2893 142.491L22.0604 142.499C22.0736 142.499 22.0862 142.504 22.0955 142.513C22.1049 142.523 22.1101 142.535 22.1101 142.548L22.1329 148.073C22.1329 148.08 22.1316 148.086 22.1291 148.092C22.1266 148.098 22.1229 148.104 22.1183 148.108C22.1137 148.113 22.1082 148.116 22.1022 148.119C22.0962 148.121 22.0897 148.123 22.0832 148.123H12.7875C12.781 148.123 12.7745 148.121 12.7685 148.119C12.7624 148.116 12.757 148.113 12.7523 148.108C12.7477 148.104 12.7441 148.098 12.7416 148.092C12.7391 148.086 12.7378 148.08 12.7378 148.073V142.524C12.7378 142.51 12.743 142.498 12.7523 142.488C12.7617 142.479 12.7743 142.474 12.7875 142.474L18.3194 142.509C18.3259 142.509 18.3323 142.51 18.3384 142.513C18.3444 142.515 18.3499 142.519 18.3545 142.524C18.3591 142.528 18.3628 142.534 18.3653 142.54C18.3678 142.546 18.369 142.552 18.369 142.559L18.367 144.317C18.367 144.324 18.3657 144.33 18.3632 144.336C18.3607 144.342 18.357 144.348 18.3524 144.353C18.3478 144.357 18.3423 144.361 18.3363 144.363C18.3303 144.366 18.3238 144.367 18.3173 144.367L14.6663 144.368C14.6531 144.368 14.6405 144.373 14.6312 144.383C14.6218 144.392 14.6166 144.405 14.6166 144.418V146.194C14.6166 146.207 14.6218 146.22 14.6312 146.229C14.6405 146.239 14.6531 146.244 14.6663 146.244Z" fill="white"/>
<path d="M35.293 161.249L40.8321 161.216C40.8389 161.216 40.8456 161.217 40.8519 161.22C40.8581 161.223 40.8639 161.226 40.8687 161.231C40.8735 161.236 40.8773 161.242 40.8799 161.248C40.8826 161.254 40.8839 161.261 40.8839 161.268L40.8528 164.926C40.8528 164.944 40.8598 164.961 40.8723 164.973C40.8847 164.986 40.9015 164.993 40.9191 164.993H42.6934C42.7063 164.993 42.7186 164.987 42.7278 164.978C42.7369 164.969 42.742 164.956 42.742 164.943V153.81C42.742 153.769 42.762 153.749 42.8021 153.749H44.538C44.5856 153.749 44.6094 153.773 44.6094 153.82V166.827C44.6094 166.859 44.5936 166.875 44.5618 166.875L31.5395 166.854C31.5023 166.854 31.4837 166.872 31.4837 166.91L31.5209 170.555C31.5209 170.591 31.5026 170.609 31.4661 170.609H12.8032C12.7687 170.609 12.7515 170.592 12.7515 170.557V168.797C12.7515 168.79 12.7529 168.782 12.7556 168.776C12.7583 168.769 12.7622 168.763 12.7672 168.758C12.7722 168.753 12.7782 168.749 12.7847 168.746C12.7912 168.743 12.7982 168.742 12.8053 168.742H29.5717C29.5838 168.742 29.5954 168.737 29.6039 168.729C29.6125 168.72 29.6173 168.708 29.6173 168.696V163.192C29.6173 163.142 29.6425 163.117 29.6928 163.117H31.4309C31.4702 163.117 31.4899 163.137 31.4899 163.176V164.916C31.4899 164.936 31.4979 164.956 31.5123 164.97C31.5267 164.985 31.5461 164.993 31.5665 164.993H38.9523C38.9627 164.993 38.9727 164.988 38.9801 164.981C38.9875 164.974 38.9916 164.964 38.9916 164.953L38.9927 163.153C38.9927 163.146 38.9913 163.139 38.9886 163.133C38.9858 163.126 38.9819 163.12 38.9768 163.115C38.9718 163.111 38.9659 163.107 38.9594 163.104C38.9528 163.101 38.9459 163.1 38.9388 163.1L33.408 163.133C33.3645 163.133 33.3431 163.112 33.3438 163.068C33.3535 162.135 33.3618 161.239 33.3687 160.383C33.3749 159.476 33.3262 158.484 33.3573 157.543C33.3587 157.5 33.3804 157.479 33.4225 157.479L40.8114 157.5C40.8239 157.5 40.8357 157.505 40.8444 157.514C40.8531 157.523 40.858 157.535 40.858 157.547V159.307C40.858 159.346 40.8384 159.366 40.799 159.366H35.2992C35.2606 159.366 35.2413 159.385 35.2413 159.423V161.181C35.2413 161.227 35.2585 161.249 35.293 161.249Z" fill="white"/>
<path d="M22.1807 161.241H25.8069C25.8483 161.241 25.869 161.22 25.869 161.178V157.546C25.869 157.512 25.8859 157.495 25.9197 157.495L27.6867 157.494C27.7191 157.494 27.7354 157.51 27.7354 157.543L27.755 163.062C27.755 163.111 27.7305 163.136 27.6815 163.137C27.2012 163.14 26.5391 163.134 25.6951 163.119C24.4453 163.096 22.9522 163.101 21.2159 163.132C20.335 163.149 19.3682 163.072 18.4314 163.126C17.811 163.163 17.1561 163.163 16.4666 163.126C15.9228 163.098 15.3273 163.094 14.68 163.115C14.6379 163.116 14.6168 163.138 14.6168 163.18V164.928C14.6168 164.971 14.6382 164.993 14.681 164.993H22.1196C22.1268 164.993 22.1336 164.995 22.1387 165C22.1437 165.005 22.1465 165.012 22.1465 165.018V166.803C22.1465 166.836 22.13 166.853 22.0969 166.853L12.7939 166.871C12.7573 166.871 12.7384 166.853 12.737 166.817C12.7049 165.897 12.7546 164.834 12.7484 164.072C12.7422 163.159 12.7346 162.239 12.7256 161.311C12.7255 161.297 12.728 161.284 12.733 161.272C12.7381 161.259 12.7455 161.248 12.755 161.239C12.7644 161.229 12.7757 161.222 12.7881 161.217C12.8004 161.212 12.8137 161.209 12.827 161.209L16.4252 161.247C16.436 161.248 16.4467 161.246 16.4567 161.241C16.4667 161.237 16.4758 161.231 16.4834 161.224C16.491 161.216 16.497 161.207 16.5011 161.197C16.5051 161.187 16.5072 161.176 16.507 161.166L16.4698 157.555C16.4696 157.546 16.4714 157.536 16.475 157.527C16.4785 157.519 16.4839 157.511 16.4906 157.504C16.4973 157.497 16.5054 157.492 16.5142 157.488C16.5231 157.484 16.5326 157.483 16.5422 157.483H22.0492C22.061 157.483 22.0727 157.485 22.0836 157.489C22.0944 157.494 22.1043 157.501 22.1126 157.509C22.1208 157.517 22.1274 157.527 22.1318 157.538C22.1362 157.549 22.1384 157.561 22.1383 157.573L22.1114 161.172C22.1107 161.218 22.1338 161.241 22.1807 161.241ZM20.2439 159.405C20.2439 159.394 20.2398 159.384 20.2324 159.377C20.225 159.37 20.215 159.366 20.2046 159.366H18.4076C18.3971 159.366 18.3871 159.37 18.3797 159.377C18.3724 159.384 18.3682 159.394 18.3682 159.405V161.202C18.3682 161.212 18.3724 161.222 18.3797 161.23C18.3871 161.237 18.3971 161.241 18.4076 161.241H20.2046C20.215 161.241 20.225 161.237 20.2324 161.23C20.2398 161.222 20.2439 161.212 20.2439 161.202V159.405Z" fill="white"/>
<path d="M27.7085 164.993H24.0213C24.0041 164.993 23.9902 165.007 23.9902 165.024V166.827C23.9902 166.844 24.0041 166.858 24.0213 166.858H27.7085C27.7257 166.858 27.7396 166.844 27.7396 166.827V165.024C27.7396 165.007 27.7257 164.993 27.7085 164.993Z" fill="white"/>
<path d="M40.8292 153.749H33.403C33.387 153.749 33.374 153.762 33.374 153.778V155.591C33.374 155.607 33.387 155.62 33.403 155.62H40.8292C40.8452 155.62 40.8582 155.607 40.8582 155.591V153.778C40.8582 153.762 40.8452 153.749 40.8292 153.749Z" fill="#CDAD80"/>
<path d="M44.5698 168.742H33.4109C33.3897 168.742 33.3726 168.759 33.3726 168.78V170.571C33.3726 170.592 33.3897 170.609 33.4109 170.609H44.5698C44.591 170.609 44.6081 170.592 44.6081 170.571V168.78C44.6081 168.759 44.591 168.742 44.5698 168.742Z" fill="#CDAD80"/>
<path d="M31.4526 153.749H29.6618C29.6412 153.749 29.6245 153.765 29.6245 153.786V161.204C29.6245 161.225 29.6412 161.241 29.6618 161.241H31.4526C31.4732 161.241 31.4899 161.225 31.4899 161.204V153.786C31.4899 153.765 31.4732 153.749 31.4526 153.749Z" fill="#CDAD80"/>
<path d="M27.7134 153.749H16.5275C16.512 153.749 16.4995 153.761 16.4995 153.777V155.592C16.4995 155.608 16.512 155.62 16.5275 155.62H27.7134C27.7288 155.62 27.7413 155.608 27.7413 155.592V153.777C27.7413 153.761 27.7288 153.749 27.7134 153.749Z" fill="#CDAD80"/>
<path d="M14.5796 153.749H12.7887C12.7681 153.749 12.7515 153.765 12.7515 153.786V159.328C12.7515 159.349 12.7681 159.366 12.7887 159.366H14.5796C14.6001 159.366 14.6168 159.349 14.6168 159.328V153.786C14.6168 153.765 14.6001 153.749 14.5796 153.749Z" fill="#CDAD80"/>
<path d="M44.5816 149.989H31.5221C31.5067 149.989 31.4941 150.002 31.4941 150.017V151.833C31.4941 151.848 31.5067 151.861 31.5221 151.861H44.5816C44.5971 151.861 44.6096 151.848 44.6096 151.833V150.017C44.6096 150.002 44.5971 149.989 44.5816 149.989Z" fill="#CDAD80"/>
<path d="M33.3384 138.751H27.7755C27.7606 138.751 27.7485 138.763 27.7485 138.778V140.59C27.7485 140.605 27.7606 140.617 27.7755 140.617H33.3384C33.3532 140.617 33.3653 140.605 33.3653 140.59V138.778C33.3653 138.763 33.3532 138.751 33.3384 138.751Z" fill="#CDAD80"/>
<path d="M18.3403 138.751H12.7794C12.764 138.751 12.7515 138.764 12.7515 138.779V140.589C12.7515 140.604 12.764 140.617 12.7794 140.617H18.3403C18.3557 140.617 18.3682 140.604 18.3682 140.589V138.779C18.3682 138.764 18.3557 138.751 18.3403 138.751Z" fill="#CDAD80"/>
<path d="M35.2133 135H12.7794C12.764 135 12.7515 135.013 12.7515 135.028V136.842C12.7515 136.857 12.764 136.869 12.7794 136.869H35.2133C35.2288 136.869 35.2413 136.857 35.2413 136.842V135.028C35.2413 135.013 35.2288 135 35.2133 135Z" fill="#CDAD80"/>
<path d="M10.8374 135H9.03002C9.01344 135 9 135.013 9 135.03V170.579C9 170.596 9.01344 170.609 9.03002 170.609H10.8374C10.854 170.609 10.8674 170.596 10.8674 170.579V135.03C10.8674 135.013 10.854 135 10.8374 135Z" fill="#CDAD80"/>
<path d="M128.15 143.769H130.25V158.631H128.15V143.769Z" fill="#404C6E"/>
<path d="M123.95 143.769H126.05V158.631H123.95V143.769Z" fill="#404C6E"/>
<path d="M119.75 158.631V156.508H126.05V158.631H119.75Z" fill="#404C6E"/>
<path d="M117.65 154.385H119.75V158.631H117.65V154.385Z" fill="#404C6E"/>
<path d="M119.75 156.508V158.631H111.35V156.508H119.75Z" fill="#404C6E"/>
<path d="M119.75 150.138V152.262H115.55V150.138H119.75Z" fill="#404C6E"/>
<path d="M107.15 154.385V152.262H113.45V154.385H107.15Z" fill="#404C6E"/>
<path d="M111.35 148.015H113.45V154.385H111.35V148.015Z" fill="#404C6E"/>
<path d="M107.15 150.138V148.015H113.45V150.138H107.15Z" fill="#404C6E"/>
<path d="M109.25 154.385H107.15V148.015H109.25V154.385Z" fill="#404C6E"/>
<path d="M111.35 154.385H113.45V158.631H111.35V154.385Z" fill="#404C6E"/>
<path d="M113.45 156.508V158.631H105.05V156.508H113.45Z" fill="#404C6E"/>
<path d="M113.45 143.769V145.892H111.35V143.769H113.45Z" fill="#404C6E"/>
<path d="M102.95 152.262H105.05V158.631H102.95V152.262Z" fill="#404C6E"/>
<path d="M90.3501 158.631V156.508H109.25V158.631H90.3501Z" fill="#404C6E"/>
<path d="M98.75 152.262H100.85V158.631H98.75V152.262Z" fill="#404C6E"/>
<path d="M94.5498 152.262H96.6498V158.631H94.5498V152.262Z" fill="#404C6E"/>
<path d="M90.3501 152.262H92.4501V158.631H90.3501V152.262Z" fill="#404C6E"/>
<path d="M90.3501 158.631V156.508H96.6501V158.631H90.3501Z" fill="#404C6E"/>
<path d="M92.4499 152.262V154.385H86.1499V152.262H92.4499Z" fill="#404C6E"/>
<path d="M86.1499 152.262H88.2499V158.631H86.1499V152.262Z" fill="#404C6E"/>
<path d="M88.2502 156.508V158.631H81.9502V156.508H88.2502Z" fill="#404C6E"/>
<path d="M77.75 152.262H79.85V162.877H77.75V152.262Z" fill="#404C6E"/>
<path d="M77.75 162.877V160.754H86.15V162.877H77.75Z" fill="#404C6E"/>
<path d="M88.25 162.877V160.754H92.45V162.877H88.25Z" fill="#404C6E"/>
<path d="M81.9502 152.262H84.0502V158.631H81.9502V152.262Z" fill="#404C6E"/>
<path d="M77.75 154.385V152.262H84.05V154.385H77.75Z" fill="#404C6E"/>
<path d="M94.5498 162.877V160.754H130.25V162.877H94.5498Z" fill="#CDAD80"/>
<path d="M77.75 145.892V143.769H109.25V145.892H77.75Z" fill="#CDAD80"/>
<path d="M77.75 150.138V148.015H105.05V150.138H77.75Z" fill="#CDAD80"/>
<path d="M115.55 145.892V143.769H121.85V145.892H115.55Z" fill="#CDAD80"/>
</g>
</g>
<defs>
<clipPath id="clip0_398_30">
<rect width="138" height="176" fill="white"/>
</clipPath>
</defs>
</svg>
