<svg height="800" viewBox="0 0 555 800" width="555" xmlns="http://www.w3.org/2000/svg"><g fill-rule="evenodd"><path d="m459 367c-7.9 8.9-15.8 17.4-23.5 26.1-1.4 1.6-2.4 4.1-2.4 6.1-.1 89.2-.1 178.4-.2 267.5 0 6.2 5 8.9 8.1 12.5 14.9 17.3 30.5 34.1 45.8 51.1 13.1 14.7 26.1 29.4 39.2 44.2 4.7 5.3 9.2 10.8 14.5 16.9-176 0-351.1 0-527.1 0 4.8-5.6 9.2-10.8 13.7-15.9 14.2-16.4 28.5-32.7 42.9-48.9 8.9-10.1 18-20 26.9-30 7.2-8.2 14.5-16.3 21.5-24.7 1.2-1.4 1.5-3.9 1.5-6 .1-24 .1-48 .1-72 0-64.3 0-128.6.1-193 0-3.7-1.1-6.3-3.7-9.2-12.9-14.2-25.5-28.7-38.3-43-9.2-10.4-18.7-20.7-27.9-31.1-12.5-13.9-24.8-28-37.5-42.4 1.2-1.4 2.2-2.6 3.4-3.8 58.8-59.1 117.7-118.3 176.5-177.5 26.4-26.6 52.7-53.3 79-80 4.9-4.9 4.9-4.9 9.7-.1 20.2 20.2 40.5 40.5 60.8 60.8q97.8 98.3 195.6 196.6c1.1 1.1 2.1 2.2 3.8 4-27.5 30.5-54.9 61-82.5 91.8zm-183.9-318.5c-22.5 22.9-45.1 45.8-67.7 68.6-44.2 44.6-88.4 89.1-132.7 133.7-6.8 6.8-13.7 13.6-20.5 20.5-1.1 1.1-2.1 2.4-3.6 4 10.2 11.5 20.2 22.7 30.2 34 8.8 9.9 17.7 19.7 26.5 29.6 12.1 13.6 24 27.4 36.2 40.9 3 3.3 4.6 6.4 4.6 11q-.2 141.7 0 283.4c0 4.2-1.4 7.3-4 10.3q-10.8 12-21.3 24.3-17.6 20.5-35.1 41.1c-4.4 5-8.6 10.2-13 15.5h403.6c-8.5-10.1-16.4-19.7-24.5-29.1-15.1-17.5-30.4-34.9-45.4-52.6-1.9-2.3-3.2-5.9-3.2-8.9-.4-12.5-.2-25-.2-37.5 0-82.1 0-164.3.1-246.4 0-2.8.6-6.1 2.1-8.4 2.5-3.6 5.9-6.7 8.8-10 11.4-12.8 22.8-25.5 34.2-38.2 16.4-18.2 32.9-36.3 49.5-54.4 3-3.3 3.5-5.4 0-8.9-25.9-25.9-51.5-52.1-77.3-78.1-47.3-47.4-94.7-94.7-142.1-142.1-1.2-1.1-3-1.7-5.2-2.3z" fill="#fff"/><path d="m275.5 48.3c1.8.8 3.6 1.4 4.8 2.5 47.4 47.4 94.8 94.7 142.1 142.1 25.8 26 51.4 52.2 77.3 78.1 3.5 3.5 3 5.6 0 8.9-16.6 18.1-33.1 36.2-49.5 54.4-11.4 12.7-22.8 25.4-34.2 38.2-2.9 3.3-6.3 6.4-8.8 10-1.5 2.3-2.1 5.6-2.1 8.4-.1 82.1-.1 164.3-.1 246.4 0 12.5-.2 25 .2 37.5 0 3 1.3 6.6 3.2 8.9 15 17.7 30.3 35.1 45.4 52.6 8.1 9.4 16 19 24.5 29.1-134.8 0-268.9 0-403.6 0 4.4-5.3 8.6-10.5 13-15.5q17.5-20.6 35.1-41.1 10.5-12.3 21.3-24.3c2.6-3 4-6.1 4-10.3q-.2-141.7 0-283.4c0-4.6-1.6-7.7-4.6-11-12.2-13.5-24.1-27.3-36.2-40.9-8.8-9.9-17.7-19.7-26.5-29.6-10-11.3-20-22.5-30.2-34 1.5-1.6 2.5-2.9 3.6-4 6.8-6.9 13.7-13.7 20.5-20.5 44.3-44.6 88.5-89.1 132.7-133.7 22.6-22.8 45.2-45.7 68.1-68.8zm110.5 523.2q0-44.5 0-89c0-40.5 0-81 .1-121.5 0-2.1.6-4.7 1.9-6.3 4.9-6 10.2-11.7 15.3-17.5 16.2-18.2 32.3-36.5 48.7-54.5 3.1-3.4 3.2-5.1-.1-8.4-41.1-41.3-82.1-82.7-123.2-124.1-15.4-15.5-30.9-30.9-46.3-46.3-4.9-4.9-4.9-4.9-9.7-.1-29.5 29.8-58.9 59.7-88.5 89.5-27 27.1-54.2 54.2-81.3 81.3-2.4 2.4-3.7 4-.7 7.3 11.9 13.2 23.6 26.8 35.4 40.2 9 10.2 18.2 20.2 27.3 30.3 2.9 3.3 4.2 7 4.2 11.6-.1 120.7-.1 241.4-.1 362v7.7h217c0-54 0-107.6 0-162.2z" fill="#cdad80"/><path d="m386 572v161.7c-72.6 0-144.4 0-217 0 0-2.8 0-5.3 0-7.7 0-120.6 0-241.3.1-362 0-4.6-1.3-8.3-4.2-11.6-9.1-10.1-18.3-20.1-27.3-30.3-11.8-13.4-23.5-27-35.4-40.2-3-3.3-1.7-4.9.7-7.3 27.1-27.1 54.3-54.2 81.3-81.3 29.6-29.8 59-59.7 88.5-89.5 4.8-4.8 4.8-4.8 9.7.1 15.4 15.4 30.9 30.8 46.3 46.3 41.1 41.4 82.1 82.8 123.2 124.1 3.3 3.3 3.2 5 .1 8.4-16.4 18-32.5 36.3-48.7 54.5-5.1 5.8-10.4 11.5-15.3 17.5-1.3 1.6-1.9 4.2-1.9 6.3-.1 40.5-.1 81-.1 121.5zm-174.5 132h149.5c0-3 0-5.2 0-7.5q0-79.5 0-159c0-64.2 0-128.3.1-192.5 0-2.6.6-5.8 2.2-7.7 12.1-13.8 24.6-27.3 36.9-41 6.3-7 12.6-14 19.1-21.3-1.5-1.6-2.7-2.9-4-4.2-44.8-44.8-89.6-89.5-134.2-134.4-3.6-3.6-5.6-3.6-9.2 0-44.6 44.9-89.4 89.6-134.2 134.4-1.3 1.3-2.5 2.6-4 4.2 9.9 11 19.5 21.7 29.1 32.3 8.3 9.1 16.7 18 25 27.1 3 3.2 4.3 6.9 4.3 11.6-.1 116.7-.1 233.3-.1 350v8z" fill="#fff"/><path d="m211 704c-6.4 0-12.4 0-19 0 0-3.1 0-5.6 0-8 0-116.7 0-233.3.1-350 0-4.7-1.3-8.4-4.3-11.6-8.3-9.1-16.7-18-25-27.1-9.6-10.6-19.2-21.3-29.1-32.3 1.5-1.6 2.7-2.9 4-4.2 44.8-44.8 89.6-89.5 134.2-134.4 3.6-3.6 5.6-3.6 9.2 0 44.6 44.9 89.4 89.6 134.2 134.4 1.3 1.3 2.5 2.6 4 4.2-6.5 7.3-12.8 14.3-19.1 21.3-12.3 13.7-24.8 27.2-36.9 41-1.6 1.9-2.2 5.1-2.2 7.7-.1 64.2-.1 128.3-.1 192.5q0 79.5 0 159v7.5c-50.3 0-99.9 0-150 0zm88.5-36q15.2 0 30.5 0c8 0 8 0 8-7.8q0-162.3 0-324.5c0-4.6-.5-9.3-.5-13.9 0-1.1.8-2.4 1.6-3.3 11.3-12.1 22.8-24.2 34.1-36.3 2.2-2.2 3.9-4.8 5.8-7.1-11.4-12-22.3-23.7-33.6-35.1-13.6-13.7-27.7-26.9-41.3-40.6-7.4-7.4-14.1-15.4-21.3-23-5.3-5.6-7.2-5.6-12.6-.1q-29.6 30-59.2 60.2c-11.6 11.9-23.2 23.8-34.7 35.8-.6.6-1.6 1.1-1.7 1.8-.1 1.3-.1 3 .6 3.8 11.5 12.2 23 24.4 34.7 36.4 3.5 3.6 5.2 7.4 5.2 12.7-.1 111-.1 222-.1 333v8z" fill="#cdad80"/><path d="m299 668c-28.1 0-55.7 0-84 0 0-3.1 0-5.6 0-8 0-111 0-222 .1-333 0-5.3-1.7-9.1-5.2-12.7-11.7-12-23.2-24.2-34.7-36.4-.7-.8-.7-2.5-.6-3.8.1-.7 1.1-1.2 1.7-1.8 11.5-12 23.1-23.9 34.7-35.8q29.6-30.2 59.2-60.2c5.4-5.5 7.3-5.5 12.6.1 7.2 7.6 13.9 15.6 21.3 23 13.6 13.7 27.7 26.9 41.3 40.6 11.3 11.4 22.2 23.1 33.6 35.1-1.9 2.3-3.6 4.9-5.8 7.1-11.3 12.1-22.8 24.2-34.1 36.3-.8.9-1.6 2.2-1.6 3.3 0 4.6.5 9.3.5 13.9q0 162.2 0 324.5c0 7.8 0 7.8-8 7.8-10.2 0-20.3 0-31 0zm-47.5-446c-4 4.3-7.8 8.6-11.8 12.8-11.2 11.6-22.5 23.1-33.7 34.8-1.8 1.8-3.1 4-4.8 6.2 8.7 9.6 16.9 19.1 25.5 28.3 5.3 5.7 7.5 11.7 7.5 19.9-.3 105.6-.2 211.2-.2 316.9 0 2.2.2 4.4.3 6.5h84.3c-.2-3.1-.6-6-.6-8.9 0-106.6 0-213.3-.1-319.9 0-4.6 1.3-7.8 4.7-10.8 2.4-2.1 4.3-5 6.5-7.4 6.2-6.6 12.3-13.1 18.6-19.5 5.5-5.7 5.6-6-.2-11.9q-33.1-33.6-66.2-67.2c-1.5-1.5-2.9-3.1-3.8-4-8.6 8-17 15.9-26 24.2z" fill="#fff"/></g><path d="m251.7 221.8c8.8-8.1 17.2-16 25.8-24 .9.9 2.3 2.5 3.8 4q33.1 33.6 66.2 67.2c5.8 5.9 5.7 6.2.2 11.9-6.3 6.4-12.4 12.9-18.6 19.5-2.2 2.4-4.1 5.3-6.5 7.4-3.4 3-4.7 6.2-4.7 10.8.1 106.6.1 213.3.1 319.9 0 2.9.4 5.8.6 8.9-28 0-55.8 0-84.3 0-.1-2.1-.3-4.3-.3-6.5 0-105.7-.1-211.3.2-316.9 0-8.2-2.2-14.2-7.5-19.9-8.6-9.2-16.8-18.7-25.5-28.3 1.7-2.2 3-4.4 4.8-6.2 11.2-11.7 22.5-23.2 33.7-34.8 4-4.2 7.8-8.5 12-13z" fill="#cdad80"/></svg>