<svg fill="none" height="33" viewBox="0 0 33 33" width="33" xmlns="http://www.w3.org/2000/svg"><path d="m10.8178 2.31377c.3943-.06404.7594-.16208 1.1281-.17832 1.4574-.06419 2.9093-.01332 4.3079.45808 1.2507.42153 2.4038 1.02485 3.4469 1.85097 1.3217 1.04673 2.3377 2.32577 3.0594 3.83907.5064 1.06189.8453 2.17483.9645 3.35493.182 1.8021.0194 3.5544-.643 5.2517-.3865.9903-.9112 1.8976-1.5498 2.7454-.0752.0999-.1103.3152-.0542.4156.4585.8196.9634 1.6108 1.6483 2.2661.4249.4067.6633.4055 1.1006.0237.675-.5893 1.9587-.5546 2.6185.0938 1.0034.9862 2.0009 1.9787 2.9844 2.9847.9602.9822 1.0228 2.7932.191 3.8963-.6543.8676-1.5248 1.2871-2.583 1.29-.8152.0023-1.5409-.2927-2.1289-.8819-.8877-.8894-1.7518-1.8043-2.6727-2.6579-.8524-.7901-.9591-2.1481-.1441-3.0206-.0418-.0543-.0799-.1169-.1303-.1674-.7733-.7759-1.5507-1.5478-2.3208-2.3269-.1465-.1483-.2419-.1709-.4253-.0244-.8288.662-1.7502 1.1631-2.7361 1.5609-1.5704.6336-3.2068.7846-4.8704.6861-1.1542-.0683-2.26118-.3836-3.32914-.8333-1.35632-.5711-2.5454-1.3916-3.55441-2.4526-1.5366-1.6158-2.55023-3.5179-2.85815-5.7399-.12698-.9163-.19075-1.8615-.1195-2.781.14903-1.9228.81631-3.67686 1.93311-5.26849 1.08099-1.54058 2.47301-2.69496 4.14354-3.52486.81223-.40351 1.66751-.7002 2.59355-.85978zm10.5187 8.22183c-.4805-1.63638-1.3624-3.00853-2.646-4.13911-.8536-.75175-1.8085-1.31337-2.8722-1.68754-1.3048-.45899-2.6487-.5686-4.0227-.3972-1.0168.12685-1.97672.42762-2.87463.90635-1.14055.6081-2.11432 1.41805-2.90508 2.45458-1.0025 1.31407-1.6045 2.79122-1.74782 4.42262-.15909 1.8109.16509 3.5433 1.08856 5.1452.88284 1.5314 2.10205 2.707 3.6672 3.5066 1.59607.8153 3.29677 1.0757 5.07907.8514 1.9096-.2403 3.5378-1.0609 4.9153-2.3752.8305-.7924 1.4777-1.7256 1.935-2.7914.8179-1.9063.9352-3.8508.3833-5.8963zm7.0807 17.2483c.1529-.4124.0207-.74-.2804-1.037-.8105-.7996-1.6118-1.6085-2.4177-2.4128-.0811-.081-.1681-.1562-.2181-.2025-.4693.4635-.9168.9054-1.3801 1.363.0631.067.1405.1537.2226.2357.7897.7901 1.5802 1.5794 2.3703 2.369.603.6026 1.2913.4935 1.7034-.3154z" fill="#404c6e"/><path d="m11.5988 17.3405c.3434.0653.6604.128.9774.1907.3057.0606.6324.0724.9123.193.4393.1892.6315.7092.4889 1.2258-.1158.4192-.5411.7097-.9666.7195-1.6306.0373-3.07505-.4728-4.31832-1.4883-1.18195-.9654-1.9907-2.2095-2.29942-3.7218-.1155-.5658-.13218-1.1589-.12874-1.7392.00223-.3777.27336-.6542.63166-.7524.60539-.1659 1.31925-.0085 1.42141.8549.07974.6739.13608 1.3444.43197 1.9849.41372.8957 1.02884 1.5855 1.86144 2.0856.301.1808.6399.2984.988.4473z" fill="#cdad80"/></svg>