<svg fill="none" height="25" viewBox="0 0 25 25" width="25" xmlns="http://www.w3.org/2000/svg"><path d="m17.0657 7.23921c-.0025-.00316-.0062-.00535-.0101-.00621-.004-.00087-.0083-.00035-.0121.00146-2.1409 1.07122-4.2626 2.13276-6.365 3.18464-.2763.1382-.5579.1545-.83847.0026-.48146-.2615-.56321-.88801-.222-1.29354.06503-.077.23378-.18352.50627-.31958 2.0292-1.0146 4.0818-2.04152 6.1578-3.08073.0125-.00634.0172-.01635.0137-.03007-.5823-2.27496.7509-4.55309 3.0243-5.155309 1.1907-.315879 2.4779-.068555 3.4688.625959 1.7498 1.2266 2.3298 3.60862 1.2846 5.47751-1.4775 2.64252-5.0966 2.97054-7.0078.59327zm5.8382-2.61405c0-.6709-.2665-1.31434-.7409-1.78875-.4744-.4744-1.1178-.74091-1.7888-.74091-.6709 0-1.3143.26651-1.7887.74091-.4744.47441-.7409 1.11785-.7409 1.78875 0 .67092.2665 1.31435.7409 1.78875.4744.47441 1.1178.74092 1.7887.74092.671 0 1.3144-.26651 1.7888-.74092.4744-.4744.7409-1.11783.7409-1.78875z" fill="#404c6e"/><path d="m7.93686 15.1093c-1.2287 1.5288-3.29589 2.0398-5.07357 1.2177-2.530722-1.1702-3.266368-4.4403-1.44018-6.56497 1.76239-2.05139 4.96864-1.95962 6.59866.24147.75884 1.0252.99298 2.3246.68502 3.5559-.00599.0243.0021.0419.02425.0528 2.05386 1.0262 4.17036 2.0839 6.34976 3.1735.4181.2088.6159.6318.4513 1.0763-.175.4736-.7213.6718-1.1669.4489-2.1115-1.0559-4.2483-2.1245-6.41041-3.2059-.00294-.0014-.00633-.0019-.00961-.0011-.00327.0008-.00621.0027-.00832.0054zm-.78204-2.6093c0-.6712-.26664-1.3149-.74123-1.7895-.47462-.4746-1.11831-.74124-1.7895-.74124s-1.31489.26664-1.7895.74124c-.47459.4746-.74123 1.1183-.74123 1.7895s.26664 1.3149.74123 1.7895c.23501.235.51399.4214.82104.5486.30704.1271.63612.1926.96846.1926.67119 0 1.31488-.2666 1.7895-.7412.47459-.4746.74123-1.1183.74123-1.7895z" fill="#cdad80"/><path d="m24.5916 20.3748c0 1.1183-.4443 2.1908-1.235 2.9816-.7908.7908-1.8634 1.235-2.9816 1.235-1.1185 0-2.191-.4442-2.9816-1.235-.7908-.7908-1.2352-1.8633-1.2352-2.9816s.4444-2.1908 1.2352-2.9816c.7906-.7908 1.8631-1.235 2.9816-1.235 1.1182 0 2.1908.4442 2.9816 1.235.7907.7908 1.235 1.8633 1.235 2.9816zm-1.6875.0006c0-.671-.2665-1.3144-.7409-1.7888s-1.1178-.7409-1.7889-.7409c-.6708 0-1.3142.2665-1.7886.7409s-.7409 1.1178-.7409 1.7888c0 .6709.2665 1.3143.7409 1.7887s1.1178.7409 1.7886.7409c.6711 0 1.3145-.2665 1.7889-.7409s.7409-1.1178.7409-1.7887z" fill="#404c6e"/></svg>