<svg width="17" height="17" viewBox="0 0 17 17" fill="none" xmlns="http://www.w3.org/2000/svg">
<g clip-path="url(#clip0_26_2389)">
<path d="M11.3747 5.18766C11.3731 5.18567 11.3708 5.18429 11.3683 5.18375C11.3658 5.1832 11.3631 5.18353 11.3607 5.18467C10.0127 5.85914 8.67681 6.52752 7.35311 7.18981C7.17913 7.2768 7.00182 7.28709 6.82518 7.19147C6.52204 7.02678 6.47057 6.63233 6.6854 6.377C6.72635 6.32852 6.8326 6.26145 7.00415 6.17578C8.2818 5.53696 9.57418 4.89038 10.8813 4.23606C10.8892 4.23207 10.8921 4.22577 10.8899 4.21713C10.5233 2.78475 11.3627 1.35037 12.7941 0.971195C13.5438 0.772308 14.3543 0.928031 14.9782 1.36532C16.0799 2.13762 16.4451 3.63741 15.787 4.81412C14.8567 6.47793 12.578 6.68446 11.3747 5.18766ZM15.0506 3.54178C15.0506 3.11936 14.8828 2.71423 14.5841 2.41553C14.2854 2.11683 13.8803 1.94903 13.4578 1.94903C13.0354 1.94903 12.6303 2.11683 12.3316 2.41553C12.0329 2.71423 11.8651 3.11936 11.8651 3.54178C11.8651 3.96421 12.0329 4.36933 12.3316 4.66803C12.6303 4.96673 13.0354 5.13453 13.4578 5.13453C13.8803 5.13453 14.2854 4.96673 14.5841 4.66803C14.8828 4.36933 15.0506 3.96421 15.0506 3.54178Z" fill="#404C6E"/>
<path d="M5.62689 10.1429C4.85326 11.1055 3.5517 11.4272 2.43242 10.9096C0.839001 10.1728 0.375817 8.11385 1.52564 6.7761C2.63529 5.48449 4.65404 5.54227 5.68035 6.92817C6.15814 7.57364 6.30556 8.39176 6.11166 9.16705C6.10789 9.18233 6.11298 9.19339 6.12693 9.20026C7.42008 9.84639 8.75274 10.5124 10.1249 11.1984C10.3882 11.3299 10.5127 11.5962 10.4091 11.8761C10.2989 12.1743 9.95492 12.2991 9.67435 12.1587C8.3449 11.4939 6.99951 10.8211 5.63818 10.1402C5.63633 10.1393 5.63419 10.139 5.63213 10.1395C5.63007 10.14 5.62822 10.1412 5.62689 10.1429ZM5.13449 8.5C5.13449 8.0774 4.96661 7.67211 4.66779 7.37329C4.36896 7.07446 3.96367 6.90658 3.54107 6.90658C3.11847 6.90658 2.71318 7.07446 2.41435 7.37329C2.11553 7.67211 1.94765 8.0774 1.94765 8.5C1.94765 8.9226 2.11553 9.32789 2.41435 9.62672C2.56232 9.77468 2.73797 9.89205 2.9313 9.97213C3.12462 10.0522 3.33182 10.0934 3.54107 10.0934C3.96367 10.0934 4.36896 9.92554 4.66779 9.62672C4.96661 9.32789 5.13449 8.9226 5.13449 8.5Z" fill="#CDAD80"/>
<path d="M16.1132 13.4582C16.1132 14.1623 15.8335 14.8376 15.3356 15.3355C14.8377 15.8334 14.1624 16.1131 13.4583 16.1131C12.7541 16.1131 12.0788 15.8334 11.581 15.3355C11.0831 14.8376 10.8033 14.1623 10.8033 13.4582C10.8033 12.7541 11.0831 12.0788 11.581 11.5809C12.0788 11.083 12.7541 10.8033 13.4583 10.8033C14.1624 10.8033 14.8377 11.083 15.3356 11.5809C15.8335 12.0788 16.1132 12.7541 16.1132 13.4582ZM15.0507 13.4586C15.0507 13.0361 14.8829 12.631 14.5842 12.3323C14.2855 12.0336 13.8804 11.8658 13.4579 11.8658C13.0355 11.8658 12.6304 12.0336 12.3317 12.3323C12.033 12.631 11.8652 13.0361 11.8652 13.4586C11.8652 13.881 12.033 14.2861 12.3317 14.5848C12.6304 14.8835 13.0355 15.0513 13.4579 15.0513C13.8804 15.0513 14.2855 14.8835 14.5842 14.5848C14.8829 14.2861 15.0507 13.881 15.0507 13.4586Z" fill="#404C6E"/>
</g>
<defs>
<clipPath id="clip0_26_2389">
<rect width="17" height="17" fill="white"/>
</clipPath>
</defs>
</svg>
