<svg width="34" height="34" viewBox="0 0 34 34" fill="none" xmlns="http://www.w3.org/2000/svg">
<g clip-path="url(#clip0_48_246)">
<path d="M17.5965 15.5386C17.7556 15.6778 17.9047 15.817 18.0439 15.9561C18.1831 16.0953 18.3222 16.2444 18.4614 16.4035C18.4614 16.6023 18.4714 16.8012 18.4912 17C18.4714 17.1988 18.4614 17.3977 18.4614 17.5965C18.3222 17.7556 18.1831 17.9047 18.0439 18.0439C17.9047 18.183 17.7556 18.3222 17.5965 18.4614C17.3977 18.4614 17.1988 18.4713 17 18.4912C16.8012 18.4713 16.6024 18.4614 16.4035 18.4614C16.2445 18.3222 16.0953 18.183 15.9562 18.0439C15.817 17.9047 15.6778 17.7556 15.5386 17.5965C15.5386 17.3977 15.5287 17.1988 15.5088 17C15.5287 16.8012 15.5386 16.6023 15.5386 16.4035C15.6778 16.2444 15.817 16.0953 15.9562 15.9561C16.0953 15.817 16.2445 15.6778 16.4035 15.5386C16.6024 15.5386 16.8012 15.5287 17 15.5088C17.1988 15.5287 17.3977 15.5386 17.5965 15.5386Z" fill="#404C6E"/>
<path d="M17.7755 14.1368C17.6562 14.5246 17.3282 14.6737 17.0001 14.6439C16.672 14.6737 16.344 14.5246 16.2247 14.1368C15.7176 12.7649 14.0475 7.87369 17.0001 7.87369C19.9527 7.87369 18.2826 12.7649 17.7755 14.1368Z" fill="#404C6E"/>
<path d="M19.565 15.5386C19.2071 15.7175 18.8791 15.5684 18.6703 15.3298C18.4317 15.1211 18.2826 14.793 18.4615 14.4351C19.0878 13.093 21.3545 8.47018 23.4422 10.5579C25.5299 12.6456 20.9071 14.9123 19.565 15.5386Z" fill="#404C6E"/>
<path d="M19.8632 17.7754C19.4755 17.6561 19.3264 17.3281 19.3562 17C19.3264 16.6719 19.4755 16.3439 19.8632 16.2246C21.2352 15.7175 26.1264 14.0474 26.1264 17C26.1264 19.9526 21.2352 18.2825 19.8632 17.7754Z" fill="#404C6E"/>
<path d="M18.4615 19.5649C18.2826 19.207 18.4317 18.879 18.6703 18.6702C18.8791 18.4316 19.2071 18.2825 19.565 18.4614C20.9071 19.0877 25.5299 21.3544 23.4422 23.4421C21.3545 25.5298 19.0878 20.907 18.4615 19.5649Z" fill="#404C6E"/>
<path d="M16.2247 19.8632C16.344 19.4754 16.672 19.3263 17.0001 19.3561C17.3282 19.3263 17.6562 19.4754 17.7755 19.8632C18.2826 21.2351 19.9527 26.1263 17.0001 26.1263C14.0475 26.1263 15.7176 21.2351 16.2247 19.8632Z" fill="#404C6E"/>
<path d="M14.4352 18.4614C14.7931 18.2825 15.1212 18.4316 15.33 18.6702C15.5686 18.879 15.7177 19.207 15.5387 19.5649C14.9124 20.907 12.6458 25.5298 10.558 23.4421C8.47032 21.3544 13.0931 19.0877 14.4352 18.4614Z" fill="#404C6E"/>
<path d="M14.1369 16.2246C14.5247 16.3439 14.6738 16.6719 14.644 17C14.6738 17.3281 14.5247 17.6561 14.1369 17.7754C12.765 18.2825 7.87378 19.9526 7.87378 17C7.87378 14.0474 12.765 15.7175 14.1369 16.2246Z" fill="#404C6E"/>
<path d="M15.5387 14.4351C15.7177 14.793 15.5686 15.1211 15.33 15.3298C15.1212 15.5684 14.7931 15.7175 14.4352 15.5386C13.0931 14.9123 8.47032 12.6456 10.558 10.5579C12.6458 8.47018 14.9124 13.093 15.5387 14.4351Z" fill="#404C6E"/>
<path fill-rule="evenodd" clip-rule="evenodd" d="M17.6263 0.954391C18.4912 2.47544 19.8035 3.07194 21.0263 4.17544C21.414 4.50351 21.6824 4.86141 21.8613 5.24913C22.2789 5.10001 22.7263 5.04036 23.2333 5.07018C24.8736 5.15965 26.2456 5.66667 27.8859 5.18948C28.1543 5.12983 28.4228 5.2193 28.6017 5.39825C28.7806 5.5772 28.8701 5.84562 28.8105 6.11404C28.3333 7.75439 28.8403 9.12632 28.9298 10.7667C28.9596 11.2737 28.8999 11.7211 28.7508 12.1386C29.1385 12.3175 29.4964 12.586 29.8245 12.9737C30.928 14.1965 31.5245 15.5088 33.0456 16.3737C33.2842 16.493 33.4035 16.7614 33.4035 17C33.4035 17.2386 33.2842 17.507 33.0456 17.6263C31.5245 18.4912 30.928 19.8035 29.8245 21.0263C29.4964 21.414 29.1385 21.6825 28.7508 21.8614C28.8999 22.279 28.9596 22.7263 28.9298 23.2333C28.8403 24.8737 28.3333 26.2456 28.8105 27.886C28.8701 28.1544 28.7806 28.4228 28.6017 28.6018C28.4228 28.7807 28.1543 28.8702 27.8859 28.8105C26.2456 28.3333 24.8736 28.8404 23.2333 28.9298C22.7263 28.9597 22.2789 28.9 21.8613 28.7509C21.6824 29.1386 21.414 29.4965 21.0263 29.8246C19.8035 30.9281 18.4912 31.5246 17.6263 33.0456C17.507 33.2842 17.2385 33.4035 16.9999 33.4035C16.7613 33.4035 16.4929 33.2842 16.3736 33.0456C15.5087 31.5246 14.1964 30.9281 12.9736 29.8246C12.5859 29.4965 12.3175 29.1386 12.1385 28.7509C11.721 28.9 11.2736 28.9597 10.7666 28.9298C9.12626 28.8404 7.75433 28.3333 6.11398 28.8105C5.84556 28.8702 5.57714 28.7807 5.39819 28.6018C5.21924 28.4228 5.12977 28.1544 5.18942 27.886C5.66661 26.2456 5.15959 24.8737 5.07012 23.2333C5.0403 22.7263 5.09994 22.279 5.24907 21.8614C4.86135 21.6825 4.50345 21.414 4.17538 21.0263C3.07187 19.8035 2.47538 18.4912 0.95433 17.6263C0.715734 17.507 0.596436 17.2386 0.596436 17C0.596436 16.7614 0.715734 16.493 0.95433 16.3737C2.47538 15.5088 3.07187 14.1965 4.17538 12.9737C4.50345 12.586 4.86135 12.3175 5.24907 12.1386C5.09994 11.7211 5.0403 11.2737 5.07012 10.7667C5.15959 9.12632 5.66661 7.75439 5.18942 6.11404C5.12977 5.84562 5.21924 5.5772 5.39819 5.39825C5.57714 5.2193 5.84556 5.12983 6.11398 5.18948C7.75433 5.66667 9.12626 5.15965 10.7666 5.07018C11.2736 5.04036 11.721 5.10001 12.1385 5.24913C12.3175 4.86141 12.5859 4.50351 12.9736 4.17544C14.1964 3.07194 15.5087 2.47544 16.3736 0.954391C16.4929 0.715795 16.7613 0.596497 16.9999 0.596497C17.2385 0.596497 17.507 0.715795 17.6263 0.954391ZM9.18591 9.18597C8.17187 10.2 7.66486 11.6912 8.05258 13.3018C6.65082 14.1368 5.93503 15.5684 5.93503 17C5.93503 18.4316 6.65082 19.8632 8.05258 20.6983C7.66486 22.3088 8.17187 23.8 9.18591 24.814C10.1999 25.8281 11.6912 26.3351 13.3017 25.9474C14.1368 27.3491 15.5684 28.0649 16.9999 28.0649C18.4315 28.0649 19.8631 27.3491 20.6982 25.9474C22.3087 26.3351 23.7999 25.8281 24.814 24.814C25.828 23.8 26.335 22.3088 25.9473 20.6983C27.3491 19.8632 28.0649 18.4316 28.0649 17C28.0649 15.5684 27.3491 14.1368 25.9473 13.3018C26.335 11.6912 25.828 10.2 24.814 9.18597C23.7999 8.17193 22.3087 7.66492 20.6982 8.05264C19.8631 6.65088 18.4315 5.93509 16.9999 5.93509C15.5684 5.93509 14.1368 6.65088 13.3017 8.05264C11.6912 7.66492 10.1999 8.17193 9.18591 9.18597ZM17.0298 2.71404C17.0298 2.71404 17.0198 2.7041 16.9999 2.68422C16.9801 2.7041 16.9701 2.71404 16.9701 2.71404C16.9701 2.71404 16.9801 2.71404 16.9999 2.71404C17.0198 2.71404 17.0298 2.71404 17.0298 2.71404ZM27.1105 6.9193C27.1105 6.89942 27.1105 6.88948 27.1105 6.88948C27.1105 6.88948 27.1005 6.88948 27.0806 6.88948C27.0806 6.88948 27.0806 6.89942 27.0806 6.9193C27.1005 6.9193 27.1105 6.9193 27.1105 6.9193ZM31.2859 17.0298C31.2859 17.0298 31.2959 17.0199 31.3157 17C31.2959 16.9801 31.2859 16.9702 31.2859 16.9702C31.2859 16.9702 31.2859 16.9801 31.2859 17C31.2859 17.0199 31.2859 17.0298 31.2859 17.0298ZM27.0806 27.1105C27.1005 27.1105 27.1105 27.1105 27.1105 27.1105C27.1105 27.1105 27.1105 27.1006 27.1105 27.0807C27.1105 27.0807 27.1005 27.0807 27.0806 27.0807C27.0806 27.1006 27.0806 27.1105 27.0806 27.1105ZM16.9701 31.286C16.9701 31.286 16.9801 31.2959 16.9999 31.3158C17.0198 31.2959 17.0298 31.286 17.0298 31.286C17.0298 31.286 17.0198 31.286 16.9999 31.286C16.9801 31.286 16.9701 31.286 16.9701 31.286ZM6.88942 27.0807C6.88942 27.1006 6.88942 27.1105 6.88942 27.1105C6.88942 27.1105 6.89936 27.1105 6.91924 27.1105C6.91924 27.1105 6.91924 27.1006 6.91924 27.0807C6.89936 27.0807 6.88942 27.0807 6.88942 27.0807ZM2.71398 16.9702C2.71398 16.9702 2.70404 16.9801 2.68415 17C2.70404 17.0199 2.71398 17.0298 2.71398 17.0298C2.71398 17.0298 2.71398 17.0199 2.71398 17C2.71398 16.9801 2.71398 16.9702 2.71398 16.9702ZM6.91924 6.88948C6.89936 6.88948 6.88942 6.88948 6.88942 6.88948C6.88942 6.88948 6.88942 6.89942 6.88942 6.9193C6.88942 6.9193 6.89936 6.9193 6.91924 6.9193C6.91924 6.89942 6.91924 6.88948 6.91924 6.88948Z" fill="#CDAD80"/>
</g>
<defs>
<clipPath id="clip0_48_246">
<rect width="34" height="34" fill="white"/>
</clipPath>
</defs>
</svg>
