<svg height="114" viewBox="0 0 114 114" width="114" xmlns="http://www.w3.org/2000/svg"><g fill="#f7aa55"><path d="m59 52.1q.8.7 1.5 1.4.7.7 1.4 1.5 0 1 .1 2-.1 1-.1 2-.7.8-1.4 1.5-.7.7-1.5 1.4-1 0-2 .1-1-.1-2-.1-.8-.7-1.5-1.4-.7-.7-1.4-1.5 0-1-.1-2 .1-1 .1-2 .7-.8 1.4-1.5.7-.7 1.5-1.4 1 0 2-.1 1 .1 2 .1z"/><path d="m59.6 47.4c-.4 1.3-1.5 1.8-2.6 1.7q0 0 0 0c-1.1.1-2.2-.4-2.6-1.7-1.7-4.6-7.3-21 2.6-21s4.3 16.4 2.6 21z"/><path d="m65.6 52.1c-1.2.6-2.3.1-3-.7q0 0 0 0c-.8-.7-1.3-1.8-.7-3 2.1-4.5 9.7-20 16.7-13s-8.5 14.6-13 16.7z"/><path d="m66.6 59.6c-1.3-.4-1.8-1.5-1.7-2.6q0 0 0 0c-.1-1.1.4-2.2 1.7-2.6 4.6-1.7 21-7.3 21 2.6s-16.4 4.3-21 2.6z"/><path d="m61.9 65.6c-.6-1.2-.1-2.3.7-3q0 0 0 0c.7-.8 1.8-1.3 3-.7 4.5 2.1 20 9.7 13 16.7s-14.6-8.5-16.7-13z"/><path d="m54.4 66.6c.4-1.3 1.5-1.8 2.6-1.7q0 0 0 0c1.1-.1 2.2.4 2.6 1.7 1.7 4.6 7.3 21-2.6 21s-4.3-16.4-2.6-21z"/><path d="m48.4 61.9c1.2-.6 2.3-.1 3 .7q0 0 0 0c.8.7 1.3 1.8.7 3-2.1 4.5-9.7 20-16.7 13s8.5-14.6 13-16.7z"/><path d="m47.4 54.4c1.3.4 1.8 1.5 1.7 2.6q0 0 0 0c.1 1.1-.4 2.2-1.7 2.6-4.6 1.7-21 7.3-21-2.6s16.4-4.3 21-2.6z"/><path d="m52.1 48.4c.6 1.2.1 2.3-.7 3q0 0 0 0c-.7.8-1.8 1.3-3 .7-4.5-2.1-20-9.7-13-16.7s14.6 8.5 16.7 13z"/></g><path d="m59.1 3.2c2.9 5.1 7.3 7.1 11.4 10.8 1.3 1.1 2.2 2.3 2.8 3.6 1.4-.5 2.9-.7 4.6-.6 5.5.3 10.1 2 15.6.4.9-.2 1.8.1 2.4.7s.9 1.5.7 2.4c-1.6 5.5.1 10.1.4 15.6.1 1.7-.1 3.2-.6 4.6 1.3.6 2.5 1.5 3.6 2.8 3.7 4.1 5.7 8.5 10.8 11.4.8.4 1.2 1.3 1.2 2.1s-.4 1.7-1.2 2.1c-5.1 2.9-7.1 7.3-10.8 11.4-1.1 1.3-2.3 2.2-3.6 2.8.5 1.4.7 2.9.6 4.6-.3 5.5-2 10.1-.4 15.6.2.9-.1 1.8-.7 2.4s-1.5.9-2.4.7c-5.5-1.6-10.1.1-15.6.4-1.7.1-3.2-.1-4.6-.6-.6 1.3-1.5 2.5-2.8 3.6-4.1 3.7-8.5 5.7-11.4 10.8-.4.8-1.3 1.2-2.1 1.2s-1.7-.4-2.1-1.2c-2.9-5.1-7.3-7.1-11.4-10.8-1.3-1.1-2.2-2.3-2.8-3.6-1.4.5-2.9.7-4.6.6-5.5-.3-10.1-2-15.6-.4-.9.2-1.8-.1-2.4-.7s-.9-1.5-.7-2.4c1.6-5.5-.1-10.1-.4-15.6-.1-1.7.1-3.2.6-4.6-1.3-.6-2.5-1.5-3.6-2.8-3.7-4.1-5.7-8.5-10.8-11.4-.8-.4-1.2-1.3-1.2-2.1s.4-1.7 1.2-2.1c5.1-2.9 7.1-7.3 10.8-11.4 1.1-1.3 2.3-2.2 3.6-2.8-.5-1.4-.7-2.9-.6-4.6.3-5.5 2-10.1.4-15.6-.2-.9.1-1.8.7-2.4s1.5-.9 2.4-.7c5.5 1.6 10.1-.1 15.6-.4 1.7-.1 3.2.1 4.6.6.6-1.3 1.5-2.5 2.8-3.6 4.1-3.7 8.5-5.7 11.4-10.8.4-.8 1.3-1.2 2.1-1.2s1.7.4 2.1 1.2zm-28.3 27.6c-3.4 3.4-5.1 8.4-3.8 13.8-4.7 2.8-7.1 7.6-7.1 12.4s2.4 9.6 7.1 12.4c-1.3 5.4.4 10.4 3.8 13.8s8.4 5.1 13.8 3.8c2.8 4.7 7.6 7.1 12.4 7.1s9.6-2.4 12.4-7.1c5.4 1.3 10.4-.4 13.8-3.8s5.1-8.4 3.8-13.8c4.7-2.8 7.1-7.6 7.1-12.4s-2.4-9.6-7.1-12.4c1.3-5.4-.4-10.4-3.8-13.8s-8.4-5.1-13.8-3.8c-2.8-4.7-7.6-7.1-12.4-7.1s-9.6 2.4-12.4 7.1c-5.4-1.3-10.4.4-13.8 3.8zm26.3-21.7q0 0-.1-.1-.1.1-.1.1 0 0 .1 0 .1 0 .1 0zm33.8 14.1q0-.1 0-.1 0 0-.1 0 0 0 0 .1.1 0 .1 0zm14 33.9q0 0 .1-.1-.1-.1-.1-.1 0 0 0 .1 0 .1 0 .1zm-14.1 33.8q.1 0 .1 0 0 0 0-.1 0 0-.1 0 0 .1 0 .1zm-33.9 14q0 0 .1.1.1-.1.1-.1 0 0-.1 0-.1 0-.1 0zm-33.8-14.1q0 .1 0 .1 0 0 .1 0 0 0 0-.1-.1 0-.1 0zm-14-33.9q0 0-.1.1.1.1.1.1 0 0 0-.1 0-.1 0-.1zm14.1-33.8q-.1 0-.1 0 0 0 0 .1 0 0 .1 0 0-.1 0-.1z" fill="#39412a" fill-rule="evenodd"/></svg>