<svg height="289" viewBox="0 0 167 289" width="167" xmlns="http://www.w3.org/2000/svg"><path d="m137.2 122.8c-.2-45.2-28.5-67.7-77.1-10.1-37 43.9-52.5 31.1-52.5 31.1h-1.5s22-3.4 39.7-32.6 28.2-48.4 53.6-46.4c0 0-41.1-13.6-10.2-61.8 0 0 13.9 37.9 47.5 43.1 33.7 5.3 26.9 99.2 26.9 99.2m-.3-.2s8.6 93.6-24.9 98.4c-33.5 4.7-46.8 42.5-46.8 42.5-31.8-48.9 9.2-61.7 9.2-61.7-25.3 1.6-36.3-17.8-54.4-47.2-18-29.5-40.3-33.3-40.3-33.3h1.5s14.6-13.5 53.2 31.9c49.4 58.5 78.5 35.1 75.6-8.8" style="fill-rule:evenodd;fill:#91a57d;stroke:#f3efdf;stroke-linecap:round;stroke-linejoin:round;stroke-width:6"/><path d="m151.4 144.9s-22.3 42.3-50.7 38.7c0 0 5.8 7.3 6.9 23.9.9 12.6-9.6 23.6-22.2 22.6-15.2-1.2-23.9-15.6-28.2-23.5-8.3-15.8-38 .8-14.2 23.4 11.1 10.7 26.9 14.7 39.6 15 12.5.2 41.2-15.6 31.2-53.7 0 0 23-2.7 49.2-46.4-26.2-43.6-49.2-46.3-49.2-46.3 10-38.1-18.7-53.9-31.2-53.7-12.7.2-28.5 4.3-39.6 14.9-23.8 22.8 5.9 39.3 14.2 23.5 4.3-8 13-22.4 28.2-23.6 12.6-1 23.1 9.9 22.2 22.7-1.1 16.5-6.9 23.8-6.9 23.8 28.4-3.4 50.7 38.7 50.7 38.7z" fill="#d7b77d"/></svg>