<svg width="52" height="53" viewBox="0 0 52 53" fill="none" xmlns="http://www.w3.org/2000/svg">
<path fill-rule="evenodd" clip-rule="evenodd" d="M27.0784 2.41418C28.3948 4.72931 30.3922 5.63721 32.2534 7.31681C32.8435 7.81615 33.252 8.36089 33.5244 8.95102C34.1599 8.72405 34.8409 8.63326 35.6126 8.67865C38.1093 8.81484 40.1974 9.58655 42.6941 8.86023C43.1027 8.76944 43.5112 8.90563 43.7836 9.17799C44.056 9.45036 44.1922 9.85892 44.1014 10.2675C43.3751 12.7642 44.1468 14.8523 44.283 17.349C44.3284 18.1208 44.2376 18.8017 44.0106 19.4372C44.6007 19.7096 45.1455 20.1181 45.6448 20.7083C47.3244 22.5694 48.2323 24.5668 50.5474 25.8833C50.9106 26.0648 51.0922 26.4734 51.0922 26.8365C51.0922 27.1997 50.9106 27.6083 50.5474 27.7898C48.2323 29.1063 47.3244 31.1037 45.6448 32.9648C45.1455 33.555 44.6007 33.9635 44.0106 34.2359C44.2376 34.8714 44.3284 35.5523 44.283 36.324C44.1468 38.8208 43.3751 40.9089 44.1014 43.4056C44.1922 43.8142 44.056 44.2227 43.7836 44.4951C43.5112 44.7675 43.1027 44.9037 42.6941 44.8129C40.1974 44.0865 38.1093 44.8583 35.6126 44.9944C34.8409 45.0398 34.1599 44.949 33.5244 44.7221C33.252 45.3122 32.8435 45.8569 32.2534 46.3563C30.3922 48.0359 28.3948 48.9438 27.0784 51.2589C26.8968 51.6221 26.4882 51.8037 26.1251 51.8037C25.7619 51.8037 25.3534 51.6221 25.1718 51.2589C23.8553 48.9438 21.858 48.0359 19.9968 46.3563C19.4066 45.8569 18.9981 45.3122 18.7257 44.7221C18.0902 44.949 17.4093 45.0398 16.6376 44.9944C14.1409 44.8583 12.0527 44.0865 9.55599 44.8129C9.14743 44.9037 8.73888 44.7675 8.46651 44.4951C8.19414 44.2227 8.05796 43.8142 8.14875 43.4056C8.87506 40.9089 8.10335 38.8208 7.96717 36.324C7.92177 35.5523 8.01256 34.8714 8.23954 34.2359C7.64941 33.9635 7.10467 33.555 6.60533 32.9648C4.92572 31.1037 4.01783 29.1063 1.7027 27.7898C1.33954 27.6083 1.15796 27.1997 1.15796 26.8365C1.15796 26.4734 1.33954 26.0648 1.7027 25.8833C4.01783 24.5668 4.92572 22.5694 6.60533 20.7083C7.10467 20.1181 7.64941 19.7096 8.23954 19.4372C8.01256 18.8017 7.92177 18.1208 7.96717 17.349C8.10335 14.8523 8.87506 12.7642 8.14875 10.2675C8.05796 9.85892 8.19414 9.45036 8.46651 9.17799C8.73888 8.90563 9.14743 8.76944 9.55599 8.86023C12.0527 9.58655 14.1409 8.81484 16.6376 8.67865C17.4093 8.63326 18.0902 8.72405 18.7257 8.95102C18.9981 8.36089 19.4066 7.81615 19.9968 7.31681C21.858 5.63721 23.8553 4.72931 25.1718 2.41418C25.3534 2.05102 25.7619 1.86944 26.1251 1.86944C26.4882 1.86944 26.8968 2.05102 27.0784 2.41418ZM14.2316 14.9431C12.6882 16.4865 11.9165 18.7563 12.5066 21.2076C10.3731 22.4787 9.28362 24.6576 9.28362 26.8365C9.28362 29.0155 10.3731 31.1944 12.5066 32.4655C11.9165 34.9168 12.6882 37.1865 14.2316 38.73C15.7751 40.2734 18.0448 41.0451 20.4961 40.455C21.7672 42.5885 23.9461 43.678 26.1251 43.678C28.304 43.678 30.483 42.5885 31.754 40.455C34.2053 41.0451 36.4751 40.2734 38.0185 38.73C39.5619 37.1865 40.3336 34.9168 39.7435 32.4655C41.877 31.1944 42.9665 29.0155 42.9665 26.8365C42.9665 24.6576 41.877 22.4787 39.7435 21.2076C40.3336 18.7563 39.5619 16.4865 38.0185 14.9431C36.4751 13.3997 34.2053 12.628 31.754 13.2181C30.483 11.0846 28.304 9.9951 26.1251 9.9951C23.9461 9.9951 21.7672 11.0846 20.4961 13.2181C18.0448 12.628 15.7751 13.3997 14.2316 14.9431ZM26.1705 5.09247C26.1705 5.09247 26.1553 5.07734 26.1251 5.04707C26.0948 5.07734 26.0797 5.09247 26.0797 5.09247C26.0797 5.09247 26.0948 5.09247 26.1251 5.09247C26.1553 5.09247 26.1705 5.09247 26.1705 5.09247ZM41.5139 11.4931C41.5139 11.4629 41.5139 11.4477 41.5139 11.4477C41.5139 11.4477 41.4987 11.4477 41.4685 11.4477C41.4685 11.4477 41.4685 11.4629 41.4685 11.4931C41.4987 11.4931 41.5139 11.4931 41.5139 11.4931ZM47.8691 26.8819C47.8691 26.8819 47.8843 26.8668 47.9145 26.8365C47.8843 26.8063 47.8691 26.7912 47.8691 26.7912C47.8691 26.7912 47.8691 26.8063 47.8691 26.8365C47.8691 26.8668 47.8691 26.8819 47.8691 26.8819ZM41.4685 42.2254C41.4987 42.2254 41.5139 42.2254 41.5139 42.2254C41.5139 42.2254 41.5139 42.2102 41.5139 42.18C41.5139 42.18 41.4987 42.18 41.4685 42.18C41.4685 42.2102 41.4685 42.2254 41.4685 42.2254ZM26.0797 48.5806C26.0797 48.5806 26.0948 48.5958 26.1251 48.626C26.1553 48.5958 26.1705 48.5806 26.1705 48.5806C26.1705 48.5806 26.1553 48.5806 26.1251 48.5806C26.0948 48.5806 26.0797 48.5806 26.0797 48.5806ZM10.7362 42.18C10.7362 42.2102 10.7362 42.2254 10.7362 42.2254C10.7362 42.2254 10.7514 42.2254 10.7816 42.2254C10.7816 42.2254 10.7816 42.2102 10.7816 42.18C10.7514 42.18 10.7362 42.18 10.7362 42.18ZM4.38099 26.7912C4.38099 26.7912 4.36585 26.8063 4.33559 26.8365C4.36585 26.8668 4.38099 26.8819 4.38099 26.8819C4.38099 26.8819 4.38099 26.8668 4.38099 26.8365C4.38099 26.8063 4.38099 26.7912 4.38099 26.7912ZM10.7816 11.4477C10.7514 11.4477 10.7362 11.4477 10.7362 11.4477C10.7362 11.4477 10.7362 11.4629 10.7362 11.4931C10.7362 11.4931 10.7514 11.4931 10.7816 11.4931C10.7816 11.4629 10.7816 11.4477 10.7816 11.4477Z" fill="#404C6E"/>
</svg>
