<svg height="512" viewBox="0 0 512 512" width="512" xmlns="http://www.w3.org/2000/svg"><path d="m436.9 372.4c-15.7-9.7-16.9-14.2-16.9-16.9 0-2.6 1.9-13.2 17.8-15.4 15.7-2.1 10 25.8 10 25.8-9 1.9-10.9 6.5-10.9 6.5z" fill="#ba6930" stroke="#000" stroke-linecap="round" stroke-linejoin="round" stroke-width=".4"/><path d="m448 366.6c-.6-18.6 2.6-22.1 4.8-23.5 2.2-1.5 12-5.6 22.4 6.8 10.3 12.1-15.9 22.4-15.9 22.4-6.5-6.6-11.3-5.7-11.3-5.7z" fill="#ba6930" stroke="#000" stroke-linecap="round" stroke-linejoin="round" stroke-width=".4"/><path d="m435.7 385.5c-16.8 7.4-21.2 5.7-23.4 4.2-2.1-1.6-9.5-9.3-2-23.7 7.3-14.1 26.5 6.7 26.5 6.7-3.7 8.6-1.1 12.8-1.1 12.8z" fill="#ba6930" stroke="#000" stroke-linecap="round" stroke-linejoin="round" stroke-width=".4"/><path d="m454.2 382.5-20.2 5c-2.4-14.9 7.4-21.2 7.4-21.2 12.8-3.8 20.9 6.3 20.9 6.3z" fill="#90a57d"/><path d="m441.4 363.9c-4.3-13.9-8.6-13.7-8.6-13.7-2.8 5.1 5.3 16.6 5.3 16.6l-1.5 2.7s-.9.7-8.3-6.3-7-12.8 1.2-17.6c11.2-6.5 15-.9 16.2 1.7 1.2 2.7.2 16.2.2 16.2z" fill="#f8ab55"/><path d="m457.4 365.8c9.3-11.2 6.7-14.7 6.7-14.7-5.7.3-10.9 13.5-10.9 13.5l-3 .2s-1.1-.4.7-10.5q2.7-15.1 15.2-8.5c11.5 6 9 12.2 7.4 14.6-1.5 2.5-13.3 9-13.3 9z" fill="#f8ab55"/><path d="m431.5 376.9c-13.7-4.6-16-.9-16-.9 2.4 5.3 16.4 5.3 16.4 5.3l1.3 2.7s.1 1.2-9.8 3.3c-9.9 2-14.4-1.7-13.5-11.2 1.2-13 7.9-12.9 10.7-12.4 2.8.6 13.1 9.2 13.1 9.2z" fill="#f8ab55"/><path d="m450.7 145.1c4.3 17.9 1.9 22 0 23.9-1.9 1.8-10.7 8-23.5-1.8-12.6-9.5 11.1-25.2 11.1-25.2 7.8 5 12.4 3.1 12.4 3.1z" fill="#ba6930" stroke="#000" stroke-linecap="round" stroke-linejoin="round" stroke-width=".4"/><path d="m438.7 141.4c-12.7 13.5-17.4 13.7-20 13.2-2.6-.6-12.4-4.6-11.1-20.7 1.4-15.9 27.2-4.6 27.2-4.6-.1 9.3 3.9 12.1 3.9 12.1z" fill="#ba6930" stroke="#000" stroke-linecap="round" stroke-linejoin="round" stroke-width=".4"/><path d="m460.8 136.7c17.1 6.6 19.1 10.9 19.5 13.5s.2 13.3-15.3 18.2c-15.2 4.8-14-23.5-14-23.5 8.6-3.4 9.8-8.2 9.8-8.2z" fill="#ba6930" stroke="#000" stroke-linecap="round" stroke-linejoin="round" stroke-width=".4"/><path d="m445.6 125.7 17.8 10.7c-8.8 12.2-20.2 9.8-20.2 9.8-11.8-6.4-10.3-19.3-10.3-19.3z" fill="#90a57d"/><path d="m441.5 147.9c-6.8 12.8-3.6 15.7-3.6 15.7 5.6-1.5 8-15.4 8-15.4l2.9-.9s1.2.2 1.5 10.3c.3 10.2-4.1 14-13.3 11.6-12.5-3.3-11.3-9.9-10.2-12.6 1-2.7 11.2-11.6 11.2-11.6z" fill="#f8ab55"/><path d="m431.5 135.2c-14.4 1.4-15.1 5.7-15.1 5.7 4.3 3.8 17.2-1.8 17.2-1.8l2.3 1.9s.5 1.1-7.9 6.9q-12.6 8.8-16.8-4.7c-3.9-12.3 2.3-14.9 5.2-15.6 2.8-.6 15.7 3.1 15.7 3.1z" fill="#f8ab55"/><path d="m457.7 145.7c6.5 12.9 10.7 11.9 10.7 11.9 2-5.4-7.9-15.3-7.9-15.3l1-2.9s.8-.8 9.3 4.7c8.4 5.6 9 11.3 1.6 17.4-10 8.3-14.7 3.6-16.3 1.2s-2.8-15.8-2.8-15.8z" fill="#f8ab55"/><path d="m71.7 139.6c15.7 9.7 16.9 14.2 16.9 16.9 0 2.6-1.9 13.2-17.8 15.4-15.7 2.1-10-25.8-10-25.8 9-1.9 10.9-6.5 10.9-6.5z" fill="#ba6930" stroke="#000" stroke-linecap="round" stroke-linejoin="round" stroke-width=".4"/><path d="m60.7 145.4c.5 18.6-2.7 22.1-4.9 23.5-2.2 1.5-12 5.6-22.4-6.8-10.3-12.1 15.9-22.4 15.9-22.4 6.5 6.6 11.4 5.7 11.4 5.7z" fill="#ba6930" stroke="#000" stroke-linecap="round" stroke-linejoin="round" stroke-width=".4"/><path d="m72.9 126.5c16.9-7.4 21.2-5.7 23.4-4.2 2.1 1.6 9.5 9.3 2.1 23.7-7.4 14.1-26.6-6.7-26.6-6.7 3.7-8.6 1.1-12.8 1.1-12.8z" fill="#ba6930" stroke="#000" stroke-linecap="round" stroke-linejoin="round" stroke-width=".4"/><path d="m54.4 129.5 20.2-5c2.4 14.9-7.4 21.2-7.4 21.2-12.8 3.8-20.9-6.3-20.9-6.3z" fill="#90a57d"/><path d="m67.2 148.1c4.3 13.9 8.6 13.7 8.6 13.7 2.8-5.1-5.2-16.6-5.2-16.6l1.4-2.7s.9-.7 8.3 6.3 7 12.8-1.2 17.6c-11.2 6.5-15 .9-16.2-1.7-1.1-2.7-.2-16.2-.2-16.2z" fill="#f8ab55"/><path d="m51.2 146.2c-9.2 11.2-6.7 14.7-6.7 14.7 5.7-.3 10.9-13.5 10.9-13.5l3-.2s1.1.4-.7 10.5q-2.7 15.1-15.2 8.5c-11.5-6-8.9-12.2-7.4-14.6 1.6-2.5 13.3-9 13.3-9z" fill="#f8ab55"/><path d="m77.1 135.1c13.7 4.6 16 .9 16 .9-2.4-5.3-16.4-5.3-16.4-5.3l-1.3-2.7s0-1.2 9.9-3.3c9.8-2 14.3 1.7 13.4 11.2-1.2 13-7.9 12.9-10.7 12.4-2.8-.6-13.1-9.2-13.1-9.2z" fill="#f8ab55"/><path d="m62.7 366.5c-4.3-17.9-1.9-22 0-23.9 1.8-1.8 10.7-8 23.5 1.8 12.6 9.5-11.2 25.2-11.2 25.2-7.7-5-12.3-3.1-12.3-3.1z" fill="#ba6930" stroke="#000" stroke-linecap="round" stroke-linejoin="round" stroke-width=".4"/><path d="m74.6 370.2c12.8-13.5 17.5-13.7 20.1-13.2 2.5.5 12.4 4.6 11 20.7-1.3 15.9-27.1 4.6-27.1 4.6.1-9.3-4-12.1-4-12.1z" fill="#ba6930" stroke="#000" stroke-linecap="round" stroke-linejoin="round" stroke-width=".4"/><path d="m52.6 374.9c-17.2-6.6-19.1-10.9-19.5-13.5s-.2-13.3 15.2-18.2c15.3-4.8 14.1 23.5 14.1 23.5-8.7 3.4-9.8 8.2-9.8 8.2z" fill="#ba6930" stroke="#000" stroke-linecap="round" stroke-linejoin="round" stroke-width=".4"/><path d="m67.8 385.9-17.9-10.7c8.9-12.2 20.2-9.8 20.2-9.8 11.8 6.4 10.4 19.3 10.4 19.3z" fill="#90a57d"/><path d="m71.8 363.7c6.9-12.9 3.7-15.7 3.7-15.7-5.6 1.5-8.1 15.4-8.1 15.4l-2.8.9s-1.2-.2-1.5-10.3c-.3-10.2 4.1-14 13.3-11.6 12.5 3.3 11.2 9.9 10.2 12.6s-11.2 11.6-11.2 11.6z" fill="#f8ab55"/><path d="m81.8 376.4c14.5-1.4 15.2-5.7 15.2-5.7-4.3-3.8-17.3 1.8-17.3 1.8l-2.2-1.9s-.5-1.1 7.9-7q12.5-8.7 16.8 4.8c3.8 12.3-2.3 14.9-5.2 15.6-2.8.6-15.7-3.1-15.7-3.1z" fill="#f8ab55"/><path d="m55.7 365.9c-6.5-12.9-10.7-11.9-10.7-11.9-2 5.4 7.9 15.3 7.9 15.3l-1 2.9s-.9.8-9.3-4.7c-8.4-5.6-9-11.3-1.6-17.4 10-8.3 14.7-3.6 16.3-1.2s2.8 15.7 2.8 15.7z" fill="#f8ab55"/><path d="m27.4 173.8c-.1-.8-.3-1.7-.3-2.9s-.2-2.6-.1-4.1c.1-1.6.2-3.3.5-5.1.1-1 .2-1.9.4-2.9q.4-1.5.8-3.1c1.1-4.2 2.8-8.9 5.4-13.8 2.7-4.8 6.3-9.6 11-14.1q1.8-1.6 3.7-3.3c1.3-.9 2.7-2 4.1-3 1.4-.9 2.9-1.9 4.5-2.7q1.1-.6 2.3-1.2l.6-.3.3-.1.1-.1.4-.1.2-.1 1.1-.5q2.2-.9 4.4-1.8 2.7-.8 5.4-1.6l1.4-.3c.5-.2.9-.2 1.3-.3q1.4-.3 2.7-.6 1.3-.2 2.6-.5l2.7-.3c3.5-.5 7-.8 10.6-1 3.4-.2 6.9-.3 10.3-.3 6.8-.1 13.4 0 19.7-.2q2.3-.1 4.6-.3 2.3-.1 4.5-.4 4.5-.5 8.7-1.3c2.7-.6 5.4-1.3 7.9-2.2s4.8-1.9 7-3.1l.5-.2.1-.1c-.5.4-.1.1-.2.2v-.1l.3-.1.9-.6.9-.6.4-.3.4-.2c.8-.6 1.6-1.2 2.5-2 1.9-1.5 3.3-3.2 4.8-4.9 2.8-3.5 4.7-7.2 5.9-10.8 1.2-3.5 1.6-6.8 1.6-9.6 0-.7-.1-1.3-.2-2 0-.6-.1-1.2-.2-1.7q-.2-.9-.3-1.6-.1-.3-.2-.6-.1-.4-.2-.6c-.5-1.5-.8-2.4-.8-2.4s.6.7 1.7 1.9c1 1.3 2.4 3.3 3.6 6.3 1.1 3 1.8 6.9 1.6 11.5-.3 4.6-1.5 9.7-4 14.8-1.3 2.6-2.8 5.2-4.8 7.6-.9 1.2-2.2 2.5-3.4 3.8l-.5.4-.4.4-.8.7-.8.7-.2.2h-.1c-.1.1.2-.1-.2.2l-.2.1-.5.4c-2.5 2.1-5.5 3.8-8.5 5.4-3.1 1.6-6.4 2.8-9.7 3.9s-6.8 1.9-10.2 2.5c-3.5.7-7 1.1-10.4 1.4-7 .7-14 .6-20.6.7-6.7 0-13.1.2-19.2.7l-2.3.2-2.2.3-2.3.3c-.3 0-.7.1-1.1.1l-.9.2q-2 .4-4 .8-2.3.7-4.6 1.3l-1.1.4h-.2c.2 0-.4.2.3-.1l-.3.1-.4.2q-1 .4-1.9.7c-.7.2-1.2.5-1.9.8q-.9.4-1.8.9c-1.2.5-2.3 1.2-3.5 1.8q-1.6 1.1-3.2 2.2c-4.3 2.9-8 6.3-11.1 9.8s-5.5 7.1-7.5 10.5q-.7 1.3-1.4 2.5-.6 1.3-1.1 2.4c-.8 1.6-1.3 3.1-1.9 4.4-.9 2.7-1.7 4.9-2.1 6.5-.3 1.6-.6 2.4-.6 2.4s-.1-.9-.3-2.5z" fill="#39412a"/><path d="m27.7 335s.3.9.6 2.4c.4 1.6 1.2 3.8 2.1 6.5.6 1.4 1.1 2.9 1.9 4.4q.5 1.2 1.1 2.4.7 1.2 1.4 2.5c2 3.4 4.4 7 7.5 10.5 3.1 3.6 6.8 6.9 11.1 9.9q1.6 1 3.2 2.1c1.2.6 2.3 1.3 3.5 1.9q.9.4 1.8.8c.7.3 1.2.6 1.9.8q.9.4 1.9.7l.4.2.3.1c-.7-.2-.1 0-.3-.1l.2.1 1.1.3q2.3.7 4.6 1.4 2 .3 4 .7l.9.2c.4.1.8.1 1.1.2l2.3.2 2.2.4 2.3.2c6.1.5 12.5.6 19.2.6 6.6.1 13.6.1 20.6.8 3.4.3 6.9.7 10.4 1.3 3.4.7 6.9 1.4 10.2 2.5s6.6 2.4 9.7 4c3 1.6 6 3.3 8.5 5.3l.5.4.2.1c.4.4.1.1.2.2l.1.1.2.1.8.8.8.7.4.3.5.5c1.2 1.3 2.5 2.5 3.4 3.7 2 2.5 3.5 5.1 4.8 7.6 2.5 5.1 3.7 10.3 4 14.8.2 4.6-.5 8.5-1.6 11.5-1.2 3-2.6 5.1-3.6 6.3-1.1 1.3-1.7 1.9-1.7 1.9s.3-.8.8-2.3q.1-.3.2-.6.1-.3.2-.7.1-.7.3-1.5c.1-.5.2-1.2.2-1.8.1-.6.2-1.3.2-2 0-2.8-.4-6.1-1.6-9.6s-3.1-7.3-5.9-10.7c-1.5-1.7-2.9-3.5-4.8-4.9-.9-.9-1.7-1.4-2.5-2.1l-.4-.2-.4-.3-.9-.6-.9-.5-.3-.2c.1 0-.3-.2.2.1h-.1l-.5-.3c-2.2-1.2-4.5-2.2-7-3.1-2.5-.8-5.2-1.6-7.9-2.2q-4.2-.8-8.7-1.3-2.2-.2-4.5-.4-2.3-.1-4.6-.2c-6.3-.3-12.9-.2-19.7-.2-3.4-.1-6.9-.2-10.3-.3-3.6-.2-7.1-.5-10.6-1l-2.7-.4q-1.3-.2-2.6-.5-1.3-.3-2.7-.5c-.4-.1-.8-.2-1.3-.3l-1.4-.4q-2.7-.8-5.4-1.6-2.2-.9-4.4-1.8l-1.1-.5h-.2l-.4-.2h-.1l-.3-.2-.6-.3q-1.2-.6-2.3-1.2c-1.6-.8-3.1-1.8-4.5-2.7-1.4-1-2.8-2-4.1-3q-1.9-1.6-3.7-3.2c-4.7-4.5-8.3-9.4-11-14.2-2.6-4.8-4.3-9.5-5.4-13.7q-.4-1.6-.8-3.1c-.2-1-.3-2-.4-2.9-.3-1.9-.4-3.6-.5-5.1s.1-3 .1-4.1c0-1.2.2-2.2.3-3 .2-1.6.3-2.5.3-2.5z" fill="#39412a"/><path d="m485.6 337.4c.1.8.3 1.8.3 3s.1 2.6 0 4.1c-.1 1.6-.1 3.3-.4 5.1-.2 1-.3 1.9-.5 2.9q-.3 1.5-.7 3.1c-1.1 4.2-2.8 8.9-5.5 13.8-2.6 4.8-6.3 9.6-10.9 14.1q-1.8 1.6-3.7 3.3c-1.4.9-2.7 2-4.1 3-1.5.9-2.9 1.9-4.5 2.7q-1.2.6-2.4 1.2l-.6.3-.3.1v.1l-.5.1-.1.1-1.1.5q-2.2.8-4.4 1.8-2.7.7-5.5 1.5l-1.4.4c-.4.1-.8.2-1.3.3q-1.3.3-2.6.6-1.3.2-2.7.5l-2.6.3c-3.6.5-7.1.8-10.6 1-3.5.1-7 .3-10.3.3-6.9.1-13.4 0-19.7.2-1.6.1-3.1.2-4.6.3q-2.3.1-4.6.4-4.4.4-8.6 1.3c-2.7.6-5.4 1.3-7.9 2.2s-4.9 1.9-7.1 3.1l-.4.2-.1.1c.5-.4.1-.1.2-.2l-.1.1-.2.1-.9.6-.9.6-.5.3-.3.2c-.8.6-1.7 1.2-2.6 2-1.8 1.5-3.3 3.2-4.7 4.9-2.8 3.5-4.8 7.2-5.9 10.8-1.2 3.5-1.7 6.8-1.6 9.6 0 .7.1 1.3.2 2 0 .6 0 1.2.2 1.7q.2.9.3 1.6.1.3.1.6.2.3.3.6c.5 1.5.7 2.3.7 2.3s-.5-.6-1.6-1.8c-1-1.3-2.4-3.3-3.6-6.3-1.1-3-1.8-6.9-1.6-11.5s1.4-9.7 4-14.8c1.3-2.6 2.8-5.2 4.8-7.6.9-1.3 2.2-2.5 3.4-3.8l.5-.4.4-.4.8-.7.8-.7.2-.2c.1-.1-.2.1.3-.2l.1-.1.5-.4c2.6-2.1 5.5-3.8 8.6-5.4s6.3-2.8 9.7-3.9c3.3-1.1 6.7-1.9 10.2-2.5 3.4-.7 6.9-1.1 10.4-1.4 7-.7 13.9-.6 20.6-.7 6.7 0 13.1-.2 19.2-.7l2.3-.2 2.2-.3 2.2-.3c.4 0 .8-.1 1.1-.1l1-.2q2-.4 4-.8 2.3-.7 4.5-1.3l1.2-.4h.1c-.1 0 .4-.2-.3.1h.1l.2-.1.5-.2q.9-.4 1.9-.7c.6-.2 1.2-.6 1.8-.8q.9-.4 1.8-.9c1.2-.5 2.4-1.2 3.5-1.8q1.7-1.1 3.3-2.2c4.3-2.9 8-6.3 11-9.8 3.1-3.5 5.6-7.2 7.5-10.5q.8-1.3 1.4-2.5.6-1.3 1.2-2.4c.8-1.6 1.3-3.1 1.8-4.4 1-2.7 1.8-4.9 2.1-6.5.4-1.6.7-2.4.7-2.4s.1.9.3 2.4z" fill="#39412a"/><path d="m485.3 176.2s-.3-.8-.7-2.3c-.3-1.6-1.1-3.8-2.1-6.5-.5-1.4-1-2.9-1.8-4.4q-.6-1.2-1.2-2.4-.6-1.2-1.4-2.5c-1.9-3.4-4.4-7-7.5-10.5-3-3.6-6.7-6.9-11-9.9q-1.6-1-3.3-2.1c-1.1-.6-2.3-1.3-3.5-1.9q-.9-.4-1.8-.8c-.6-.3-1.2-.6-1.8-.8q-1-.4-1.9-.7l-.5-.2-.2-.1h-.1c.7.2.2 0 .3.1l-.1-.1-1.2-.3q-2.2-.7-4.5-1.4-2-.3-4-.7l-1-.2c-.3-.1-.7-.1-1.1-.2l-2.2-.3-2.2-.3-2.3-.2c-6.1-.5-12.5-.6-19.2-.6-6.7-.1-13.6-.1-20.6-.8-3.5-.3-7-.7-10.4-1.3-3.5-.7-6.9-1.4-10.2-2.5-3.4-1.2-6.6-2.4-9.7-4s-6-3.3-8.6-5.3l-.5-.4-.1-.1c-.5-.4-.2-.1-.3-.2v-.1l-.2-.1-.8-.8-.8-.7-.4-.3-.5-.5c-1.2-1.3-2.5-2.5-3.4-3.7-2-2.5-3.5-5.1-4.8-7.6-2.6-5.1-3.8-10.3-4-14.8-.2-4.6.5-8.6 1.6-11.5 1.2-3 2.6-5.1 3.6-6.3 1.1-1.3 1.6-1.9 1.6-1.9s-.2.8-.7 2.3q-.1.3-.3.6 0 .3-.1.7-.1.7-.3 1.5c-.2.5-.2 1.1-.2 1.8-.1.6-.2 1.3-.2 2-.1 2.7.4 6.1 1.6 9.6 1.1 3.5 3.1 7.3 5.9 10.7 1.4 1.7 2.9 3.5 4.7 4.9.9.9 1.8 1.4 2.6 2.1l.3.2.5.3.9.6.9.5.2.2h.1c-.1 0 .3.2-.2-.1h.1l.4.3c2.2 1.2 4.6 2.2 7.1 3.1 2.5.8 5.2 1.6 7.9 2.2q4.2.8 8.6 1.3 2.3.2 4.6.4 2.3.1 4.6.2c6.3.3 12.8.2 19.7.2 3.3.1 6.8.2 10.3.3 3.5.2 7 .5 10.6 1l2.6.4q1.4.2 2.7.5 1.3.3 2.6.5c.5.1.9.2 1.3.3l1.4.4q2.8.8 5.5 1.6 2.2.9 4.4 1.8l1.1.4.1.1.5.2.3.2.6.3q1.2.6 2.4 1.2c1.6.8 3 1.8 4.5 2.7 1.4 1 2.7 2 4.1 3q1.9 1.6 3.7 3.2c4.6 4.5 8.3 9.4 10.9 14.2 2.7 4.8 4.4 9.5 5.5 13.7q.4 1.6.7 3.1c.2 1 .3 2 .5 2.9.3 1.9.3 3.6.4 5.1s0 3 0 4.1c0 1.2-.2 2.2-.3 3-.2 1.6-.3 2.4-.3 2.4z" fill="#39412a"/><g fill="#cdba72"><path d="m350.9 438.9c3.4 16.8 1.1 20.5-.7 22.1-1.8 1.7-10.1 7-21.5-2.6-11.3-9.4 11-23 11-23 7 5 11.2 3.5 11.2 3.5z"/><path d="m339.6 435.4c-15.6 6.9-19.6 5.4-21.6 4s-8.9-8.5-2.1-21.8c6.8-13.2 24.6 6 24.6 6-3.3 7.9-.9 11.8-.9 11.8z"/><path d="m340.5 423.9c-11.9-12.3-12-16.6-11.4-19s4.7-11.4 19.5-9.7c14.5 1.7 3.1 25.4 3.1 25.4-8.5-.4-11.2 3.3-11.2 3.3z"/><path d="m358.4 429.8c16.6 3.4 19.1 7 19.9 9.3s2.4 12.1-10.8 19c-13 6.8-16.6-19.2-16.6-19.2 7.3-4.6 7.5-9.1 7.5-9.1z"/><path d="m351.2 420.7c6.4-15.9 10.4-17.6 12.7-18 2.4-.4 12.3-.2 16.5 14.2 4.3 14.2-21.7 13-21.7 13-3.1-8.1-7.5-9.2-7.5-9.2z"/></g><path d="m342.3 421.4c3.9-2.9 10.2-3.9 14.8 3.6 4.6 7.4.7 10.7-4.3 13.8-4.9 3.2-12.5.2-14.3-2.8-1.9-3.1-1.5-10.8 3.8-14.6z" fill="#39412a"/><path d="m342.5 441c-6.7 11.7-3.9 14.5-3.9 14.5 5.2-1.2 7.9-14 7.9-14l2.6-.7s1.1.2 1.1 9.7c-.1 9.4-4.3 12.8-12.6 10.2-11.4-3.7-10-9.7-9-12.2s10.7-10.3 10.7-10.3z" fill="#90a57c"/><path d="m335.7 427.5c-12.7-4.2-14.8-.8-14.8-.8 2.2 4.9 15.2 4.9 15.2 4.9l1.2 2.5s0 1.1-9.1 3c-9.2 2-13.3-1.4-12.5-10.2 1-12 7.2-12 9.8-11.5s12.2 8.4 12.2 8.4z" fill="#90a57c"/><path d="m346.4 417.4c-.7-13.5-4.6-14.3-4.6-14.3-3.7 3.9 1 16.1 1 16.1l-1.9 2s-1 .5-6.1-7.5c-5-7.9-3.3-13.1 5.1-15.4 11.4-3.3 13.6 2.6 14.1 5.2.4 2.6-3.5 14.5-3.5 14.5z" fill="#90a57c"/><path d="m357.1 438.5c8 10.8 11.6 9.3 11.6 9.3 1-5.4-9.6-12.9-9.6-12.9l.4-2.7s.6-.9 9.2 2.8c8.5 3.8 10 9 4.4 15.7-7.8 9.2-12.8 5.6-14.6 3.6-1.9-1.9-5.2-13.9-5.2-13.9z" fill="#90a57c"/><path d="m359.5 423.7c11.9-6 11.1-9.9 11.1-9.9-5-1.9-14.2 7.2-14.2 7.2l-2.6-.9s-.8-.8 4.4-8.6q7.8-11.8 16-1.5c7.5 9.4 3.1 13.8.9 15.2-2.2 1.5-14.5 2.6-14.5 2.6z" fill="#90a57c"/><path d="m175.9 438.9c3.4 16.8 1.1 20.5-.7 22.1-1.8 1.7-10.1 7-21.5-2.6-11.3-9.4 11-23 11-23 7 5 11.2 3.5 11.2 3.5z" fill="#cdba72"/><path d="m164.6 435.4c-15.6 6.9-19.6 5.4-21.6 4s-8.9-8.5-2.1-21.8c6.8-13.2 24.6 6 24.6 6-3.3 7.9-.9 11.8-.9 11.8z" fill="#cdba72"/><path d="m165.5 423.9c-11.9-12.3-12-16.6-11.4-19s4.7-11.4 19.5-9.7c14.5 1.7 3.1 25.4 3.1 25.4-8.5-.4-11.2 3.3-11.2 3.3z" fill="#cdba72"/><path d="m183.4 429.8c16.6 3.4 19.1 7 19.9 9.3s2.4 12.1-10.8 19c-13 6.8-16.6-19.2-16.6-19.2 7.3-4.6 7.5-9.1 7.5-9.1z" fill="#cdba72"/><path d="m176.2 420.7c6.4-15.9 10.4-17.6 12.7-18 2.4-.4 12.3-.2 16.5 14.2 4.3 14.2-21.7 13-21.7 13-3.1-8.1-7.5-9.2-7.5-9.2z" fill="#cdba72"/><path d="m167.3 421.4c3.9-2.9 10.2-3.9 14.8 3.6 4.6 7.4.7 10.7-4.3 13.8-4.9 3.2-12.5.2-14.3-2.8-1.9-3.1-1.5-10.8 3.8-14.6z" fill="#39412a"/><path d="m167.5 441c-6.7 11.7-3.9 14.5-3.9 14.5 5.2-1.2 7.9-14 7.9-14l2.6-.7s1.1.2 1.1 9.7c-.1 9.4-4.3 12.8-12.6 10.2-11.4-3.7-10-9.7-9-12.2s10.7-10.3 10.7-10.3z" fill="#90a57c"/><path d="m160.7 427.5c-12.7-4.2-14.8-.8-14.8-.8 2.2 4.9 15.2 4.9 15.2 4.9l1.2 2.5s0 1.1-9.1 3c-9.2 2-13.3-1.4-12.5-10.2 1-12 7.2-12 9.8-11.5s12.2 8.4 12.2 8.4z" fill="#90a57c"/><path d="m171.4 417.4c-.7-13.5-4.6-14.3-4.6-14.3-3.7 3.9 1 16.1 1 16.1l-1.9 2s-1 .5-6.1-7.5c-5-7.9-3.3-13.1 5.1-15.4 11.4-3.3 13.6 2.6 14.1 5.2.4 2.6-3.5 14.5-3.5 14.5z" fill="#90a57c"/><path d="m182.1 438.5c8 10.8 11.6 9.3 11.6 9.3 1-5.4-9.6-12.9-9.6-12.9l.4-2.7s.6-.9 9.2 2.8c8.5 3.8 10 9 4.4 15.7-7.8 9.2-12.8 5.6-14.6 3.6-1.9-1.9-5.2-13.9-5.2-13.9z" fill="#90a57c"/><path d="m184.5 423.7c11.9-6 11.1-9.9 11.1-9.9-5-1.9-14.2 7.2-14.2 7.2l-2.6-.9s-.8-.8 4.4-8.6q7.8-11.8 16-1.5c7.5 9.4 3.1 13.8.9 15.2-2.2 1.5-14.5 2.6-14.5 2.6z" fill="#90a57c"/><path d="m175.9 88.9c3.4 16.8 1.1 20.5-.7 22.1-1.8 1.7-10.1 7-21.5-2.6-11.3-9.4 11-23 11-23 7 5 11.2 3.5 11.2 3.5z" fill="#cdba72"/><path d="m164.6 85.4c-15.6 6.9-19.6 5.4-21.6 4s-8.9-8.5-2.1-21.8c6.8-13.2 24.6 6 24.6 6-3.3 7.9-.9 11.8-.9 11.8z" fill="#cdba72"/><path d="m165.5 73.9c-11.9-12.3-12-16.6-11.4-19s4.7-11.4 19.5-9.7c14.5 1.7 3.1 25.4 3.1 25.4-8.5-.4-11.2 3.3-11.2 3.3z" fill="#cdba72"/><path d="m183.4 79.8c16.6 3.4 19.1 7 19.9 9.3s2.4 12.1-10.8 19c-13 6.8-16.6-19.2-16.6-19.2 7.3-4.6 7.5-9.1 7.5-9.1z" fill="#cdba72"/><path d="m176.2 70.7c6.4-15.9 10.4-17.6 12.7-18 2.4-.4 12.3-.2 16.5 14.2 4.3 14.2-21.7 13-21.7 13-3.1-8.1-7.5-9.2-7.5-9.2z" fill="#cdba72"/><path d="m167.3 71.4c3.9-2.9 10.2-3.9 14.8 3.6 4.6 7.4.7 10.7-4.3 13.8-4.9 3.2-12.5.2-14.3-2.8-1.9-3.1-1.5-10.8 3.8-14.6z" fill="#39412a"/><path d="m167.5 91c-6.7 11.7-3.9 14.5-3.9 14.5 5.2-1.2 7.9-14 7.9-14l2.6-.7s1.1.2 1.1 9.7c-.1 9.4-4.3 12.8-12.6 10.2-11.4-3.7-10-9.7-9-12.2s10.7-10.3 10.7-10.3z" fill="#90a57c"/><path d="m160.7 77.5c-12.7-4.2-14.8-.8-14.8-.8 2.2 4.9 15.2 4.9 15.2 4.9l1.2 2.5s0 1.1-9.1 3c-9.2 2-13.3-1.4-12.5-10.2 1-12 7.2-12 9.8-11.5s12.2 8.4 12.2 8.4z" fill="#90a57c"/><path d="m171.4 67.4c-.7-13.5-4.6-14.3-4.6-14.3-3.7 3.9 1 16.1 1 16.1l-1.9 2s-1 .5-6.1-7.5c-5-7.9-3.3-13.1 5.1-15.4 11.4-3.3 13.6 2.6 14.1 5.2.4 2.6-3.5 14.5-3.5 14.5z" fill="#90a57c"/><path d="m182.1 88.5c8 10.8 11.6 9.3 11.6 9.3 1-5.4-9.6-12.9-9.6-12.9l.4-2.7s.6-.9 9.2 2.8c8.5 3.8 10 9 4.4 15.7-7.8 9.2-12.8 5.6-14.6 3.6-1.9-1.9-5.2-13.9-5.2-13.9z" fill="#90a57c"/><path d="m184.5 73.7c11.9-6 11.1-9.9 11.1-9.9-5-1.9-14.2 7.2-14.2 7.2l-2.6-.9s-.8-.8 4.4-8.6q7.8-11.8 16-1.5c7.5 9.4 3.1 13.8.9 15.2-2.2 1.5-14.5 2.6-14.5 2.6z" fill="#90a57c"/><path d="m350.9 88.9c3.4 16.8 1.1 20.5-.7 22.1-1.8 1.7-10.1 7-21.5-2.6-11.3-9.4 11-23 11-23 7 5 11.2 3.5 11.2 3.5z" fill="#cdba72"/><path d="m339.6 85.4c-15.6 6.9-19.6 5.4-21.6 4s-8.9-8.5-2.1-21.8c6.8-13.2 24.6 6 24.6 6-3.3 7.9-.9 11.8-.9 11.8z" fill="#cdba72"/><path d="m340.5 73.9c-11.9-12.3-12-16.6-11.4-19s4.7-11.4 19.5-9.7c14.5 1.7 3.1 25.4 3.1 25.4-8.5-.4-11.2 3.3-11.2 3.3z" fill="#cdba72"/><path d="m358.4 79.8c16.6 3.4 19.1 7 19.9 9.3s2.4 12.1-10.8 19c-13 6.8-16.6-19.2-16.6-19.2 7.3-4.6 7.5-9.1 7.5-9.1z" fill="#cdba72"/><path d="m351.2 70.7c6.4-15.9 10.4-17.6 12.7-18 2.4-.4 12.3-.2 16.5 14.2 4.3 14.2-21.7 13-21.7 13-3.1-8.1-7.5-9.2-7.5-9.2z" fill="#cdba72"/><path d="m342.3 71.4c3.9-2.9 10.2-3.9 14.8 3.6 4.6 7.4.7 10.7-4.3 13.8-4.9 3.2-12.5.2-14.3-2.8-1.9-3.1-1.5-10.8 3.8-14.6z" fill="#39412a"/><path d="m342.5 91c-6.7 11.7-3.9 14.5-3.9 14.5 5.2-1.2 7.9-14 7.9-14l2.6-.7s1.1.2 1.1 9.7c-.1 9.4-4.3 12.8-12.6 10.2-11.4-3.7-10-9.7-9-12.2s10.7-10.3 10.7-10.3z" fill="#90a57c"/><path d="m335.7 77.5c-12.7-4.2-14.8-.8-14.8-.8 2.2 4.9 15.2 4.9 15.2 4.9l1.2 2.5s0 1.1-9.1 3c-9.2 2-13.3-1.4-12.5-10.2 1-12 7.2-12 9.8-11.5s12.2 8.4 12.2 8.4z" fill="#90a57c"/><path d="m346.4 67.4c-.7-13.5-4.6-14.3-4.6-14.3-3.7 3.9 1 16.1 1 16.1l-1.9 2s-1 .5-6.1-7.5c-5-7.9-3.3-13.1 5.1-15.4 11.4-3.3 13.6 2.6 14.1 5.2.4 2.6-3.5 14.5-3.5 14.5z" fill="#90a57c"/><path d="m357.1 88.5c8 10.8 11.6 9.3 11.6 9.3 1-5.4-9.6-12.9-9.6-12.9l.4-2.7s.6-.9 9.2 2.8c8.5 3.8 10 9 4.4 15.7-7.8 9.2-12.8 5.6-14.6 3.6-1.9-1.9-5.2-13.9-5.2-13.9z" fill="#90a57c"/><path d="m359.5 73.7c11.9-6 11.1-9.9 11.1-9.9-5-1.9-14.2 7.2-14.2 7.2l-2.6-.9s-.8-.8 4.4-8.6q7.8-11.8 16-1.5c7.5 9.4 3.1 13.8.9 15.2-2.2 1.5-14.5 2.6-14.5 2.6z" fill="#90a57c"/></svg>