<svg height="125" viewBox="0 0 180 125" width="180" xmlns="http://www.w3.org/2000/svg" xmlns:xlink="http://www.w3.org/1999/xlink"><clipPath id="a"><path d="m90 29c.82 1.2 4.06 4.92 12.7 4.92 10.3 0 25.31-2.11 25.31 4.01 0 0 1.86-3.5 6.06-2.73 3.58.65 3.9 2.94 3.9 5.79 0 0 9.73-1.85 16.68 0 5.18 1.38 4.77 10.05 6.09 12.96 1.2 2.64 5.54 6.78 11.26 8.05-5.72 1.27-10.06 5.41-11.26 8.05-1.32 2.91-.91 11.58-6.09 12.96-6.95 1.85-16.68 0-16.68 0 0 2.85-.32 5.14-3.9 5.79-4.2.77-6.06-2.73-6.06-2.73 0 6.12-15.01 4.01-25.31 4.01-8.64 0-11.88 3.72-12.7 4.92-.82-1.2-4.06-4.92-12.7-4.92-10.3 0-25.31 2.11-25.31-4.01 0 0-1.86 3.5-6.06 2.73-3.58-.65-3.9-2.94-3.9-5.79 0 0-9.73 1.85-16.69 0-5.17-1.38-4.76-10.05-6.08-12.96-1.2-2.64-5.54-6.78-11.26-8.05 5.72-1.27 10.06-5.41 11.26-8.05 1.32-2.91.91-11.58 6.08-12.96 6.96-1.85 16.69 0 16.69 0 0-2.85.32-5.14 3.9-5.79 4.2-.77 6.06 2.73 6.06 2.73 0-6.12 15.01-4.01 25.31-4.01 8.64 0 11.88-3.72 12.7-4.92z"/></clipPath><path d="m90 25.1c.9 1.3 4.2 5.5 13.3 5.5 10.8 0 26.5-2.4 26.5 4.4 0 0 2-3.9 6.4-3 3.7.7 4 3.3 4 6.4 0 0 10.2-2 17.5 0 5.4 1.6 5 11.2 6.4 14.5 1.3 2.9 5.8 7.5 11.8 8.9-6 1.4-10.5 6-11.8 9-1.4 3.2-1 12.8-6.4 14.4-7.3 2-17.5 0-17.5 0 0 3.1-.3 5.7-4 6.4-4.4.9-6.4-3-6.4-3 0 6.8-15.7 4.4-26.5 4.4-9.1 0-12.4 4.2-13.3 5.5-.9-1.3-4.2-5.5-13.3-5.5-10.8 0-26.5 2.4-26.5-4.4 0 0-2 3.9-6.4 3-3.7-.7-4-3.3-4-6.4 0 0-10.2 2-17.5 0-5.4-1.6-5-11.2-6.4-14.4-1.3-3-5.8-7.6-11.8-9 6-1.4 10.5-6 11.8-8.9 1.4-3.3 1-12.9 6.4-14.5 7.3-2 17.5 0 17.5 0 0-3.1.3-5.7 4-6.4 4.4-.9 6.4 3 6.4 3 0-6.8 15.7-4.4 26.5-4.4 9.1 0 12.4-4.2 13.3-5.5z" fill="#fff"/><path d="m90 99.6c-.4 0-.7-.2-.9-.5-.8-1.2-3.9-5-12.4-5-2.2 0-4.5.1-6.9.2-8.3.4-16.1.7-19.3-2.4q-.5-.4-.8-.9c-1.3 1.2-3.4 2.2-6.1 1.7-4-.8-4.8-3.4-4.9-6.2-3.1.5-10.7 1.4-16.7-.3-4.6-1.3-5.5-7-6.3-11.2-.2-1.6-.5-3-.8-3.8-1.1-2.6-5.4-7-11-8.3-.5-.1-.9-.6-.9-1.1s.4-1 .9-1.1c5.6-1.3 9.9-5.7 11-8.3.3-.8.6-2.2.8-3.8.8-4.2 1.7-9.9 6.3-11.2 6-1.7 13.6-.8 16.7-.3.1-2.8.9-5.4 4.9-6.2 2.7-.5 4.8.5 6.1 1.7q.3-.5.8-.9c3.2-3.1 11-2.7 19.3-2.4 2.4.1 4.7.2 6.9.2 8.5 0 11.6-3.8 12.4-5 .2-.3.5-.5.9-.5s.7.2.9.5c.8 1.2 3.9 5 12.4 5 2.2 0 4.5-.1 6.9-.2 8.3-.3 16.1-.7 19.3 2.4q.5.4.8.9c1.3-1.2 3.4-2.2 6.1-1.7 4 .8 4.8 3.4 4.9 6.2 3.1-.5 10.7-1.4 16.7.3 4.6 1.3 5.5 7 6.3 11.2.2 1.6.5 3 .8 3.8 1.1 2.6 5.4 7 11 8.3.5.1.9.6.9 1.1s-.4 1-.9 1.1c-5.6 1.3-9.9 5.7-11 8.3-.3.8-.6 2.2-.8 3.8-.8 4.2-1.7 9.9-6.3 11.2-6 1.7-13.6.8-16.7.3-.1 2.8-.9 5.4-4.9 6.2-2.7.5-4.8-.5-6.1-1.7q-.3.5-.8.9c-3.2 3.1-11 2.8-19.3 2.4-2.4-.1-4.7-.2-6.9-.2-8.5 0-11.6 3.8-12.4 5-.2.3-.5.5-.9.5zm-13.3-7.7c7.7 0 11.6 2.9 13.3 4.8 1.7-1.9 5.6-4.8 13.3-4.8 2.2 0 4.6.1 7 .2 7.1.3 15.2.6 17.7-1.8.5-.5.7-1 .7-1.7 0-.5.4-1 .9-1.1s1 .1 1.2.6c.1.1 1.7 3.1 5.1 2.4 2.8-.5 3.2-2 3.2-5.3 0-.4.2-.7.4-.9.3-.2.6-.3 1-.2.1 0 10 2 16.9 0 3.2-.9 4-5.7 4.7-9.5.3-1.7.5-3.2 1-4.3 1.1-2.5 4.5-6.4 9.3-8.5-4.8-2.1-8.2-6-9.3-8.5-.5-1.1-.7-2.6-1-4.3-.7-3.8-1.5-8.6-4.7-9.5-6.9-2-16.8 0-16.9 0-.4.1-.7 0-1-.2-.2-.2-.4-.5-.4-.9 0-3.3-.4-4.8-3.2-5.3-3.4-.7-5 2.3-5.1 2.4-.2.5-.8.7-1.2.6-.5-.1-.9-.5-.9-1.1 0-.7-.2-1.2-.7-1.7-2.5-2.4-10.6-2.1-17.7-1.8-2.4.1-4.8.2-7 .2-7.7 0-11.6-2.9-13.3-4.8-1.7 1.9-5.6 4.8-13.3 4.8-2.2 0-4.6-.1-7-.2-7.1-.3-15.2-.6-17.7 1.8-.5.5-.7 1-.7 1.7 0 .6-.4 1-.9 1.1s-1-.1-1.2-.6c-.1-.1-1.7-3.1-5.1-2.4-2.8.5-3.2 2-3.2 5.3 0 .4-.2.7-.4.9-.3.2-.6.3-1 .2-.1 0-10-2-16.9 0-3.2.9-4 5.7-4.7 9.5-.3 1.7-.5 3.2-1 4.3-1.1 2.5-4.5 6.4-9.3 8.5 4.8 2.1 8.2 6 9.3 8.5.5 1.1.7 2.6 1 4.3.7 3.8 1.5 8.6 4.7 9.5 6.9 2 16.8 0 16.9 0 .4-.1.7 0 1 .2.2.2.4.5.4.9 0 3.3.4 4.8 3.2 5.3 3.5.7 5.1-2.4 5.1-2.4.2-.5.7-.7 1.2-.6s.9.6.9 1.1c0 .7.2 1.2.7 1.7 2.5 2.4 10.6 2.1 17.7 1.8 2.4-.1 4.8-.2 7-.2z" fill="#8fa47c" fill-rule="evenodd"/><g clip-path="url(#a)"><path d="m90 29c.8 1.2 4.1 4.9 12.7 4.9 10.3 0 25.3-2.1 25.3 4 0 0 1.9-3.5 6.1-2.7 3.5.7 3.9 2.9 3.9 5.8 0 0 9.7-1.9 16.7 0 5.1 1.4 4.7 10 6 12.9 1.2 2.7 5.6 6.8 11.3 8.1-5.7 1.3-10.1 5.4-11.3 8.1-1.3 2.9-.9 11.5-6 12.9-7 1.9-16.7 0-16.7 0 0 2.9-.4 5.1-3.9 5.8-4.2.8-6.1-2.7-6.1-2.7 0 6.1-15 4-25.3 4-8.6 0-11.9 3.7-12.7 4.9-.8-1.2-4.1-4.9-12.7-4.9-10.3 0-25.3 2.1-25.3-4 0 0-1.9 3.5-6.1 2.7-3.5-.7-3.9-2.9-3.9-5.8 0 0-9.7 1.9-16.7 0-5.1-1.4-4.7-10-6-12.9-1.2-2.7-5.6-6.8-11.3-8.1 5.7-1.3 10.1-5.4 11.3-8.1 1.3-2.9.9-11.5 6-12.9 7-1.9 16.7 0 16.7 0 0-2.9.4-5.1 3.9-5.8 4.2-.8 6.1 2.7 6.1 2.7 0-6.1 15-4 25.3-4 8.6 0 11.9-3.7 12.7-4.9z" fill="#fff"/><g fill="#f7aa55" opacity=".2"><path d="m174.3 38.4 3.5-.4v49l-3.5-.5z"/><path d="m167.7 39 3.3-.3v17.4h-3.3z"/><path d="m161.5 56.1v-2.3l9.5-.2v2.5z"/><path d="m155.8 51.6v-2.3l8.8-.4v2.4z"/><path d="m161.5 44.4 3.1-.3v7.2l-3.1.1z"/><path d="m155.8 47.1v-2.3l8.8-.7v2.4z"/><path d="m158.6 51.5-2.8.1v-6.8l2.8-.2z"/><path d="m161.6 51.1 3-.1v5.1h-3z"/><path d="m161.9 53.8v2.3l-11.5.1v-2.2z"/><path d="m164.6 39.3v2.4l-6 .6v-2.4z"/><path d="m145.3 49.8 2.5-.1v10.9l-2.5-.1z"/><path d="m127.9 60.1v-1.9l19.9.2v2.2z"/><path d="m150.4 49.6 2.6-.1v6.7h-2.6z"/><path d="m145.3 52v-2.2l7.7-.3v2.2z"/><path d="m140.6 45.9 2.3-.2v10.6h-2.3z"/><path d="m136.1 50.3 2.2-.1v6.1h-2.2z"/><path d="m127.9 56.3v-1.9l10.4-.2v2.1z"/><path d="m127.9 50.6 2-.1v5.8h-2z"/><path d="m134 50.4v1.9l-6.1.2v-1.9z"/><path d="m138.3 46.1v2l-2.2.1v-2z"/><path d="m150.4 60.6v-2.2l20.6.2v2.5z"/><path d="m127.9 44.9v-1.9l27.9-2.8v2.3z"/><path d="m145.3 47.7v-2.2l7.7-.5v2.2z"/><path d="m136.1 44.2v-2l2.2-.2v2z"/><path d="m134 46.4v2l-6.1.3v-1.9z"/><path d="m129.9 67.9-2-.2v-5.7l2 .1z"/><path d="m171 80.9-3.3-.4v-17.1l3.3.1z"/><path d="m171 78.5v2.4l-9.5-1.2v-2.3z"/><path d="m164.6 80.1-3.1-.4v-7l3.1.2z"/><path d="m164.6 72.9v2.4l-11.6-1.2v-2.2z"/><path d="m155.8 74.4-2.8-.3v-6.7l2.8.2z"/><path d="m153 69.7v-2.3l11.6.7v2.4z"/><path d="m147.8 77.9v-2.1l16.8 1.9v2.4z"/><path d="m147.8 73.6 2.6.3v8.8l-2.6-.4z"/><path d="m150.4 80.5v2.2l-22.5-3.5v-1.9z"/><path d="m145.3 73.3-2.4-.2v-6.3l2.4.1z"/><path d="m138.3 72.6v-2l7 .6v2.1z"/><path d="m140.6 77v-2.1l4.7.6v2.1z"/><path d="m136.1 66.4 2.2.1v6.1l-2.2-.2z"/><path d="m131.9 68.1v-2l6.4.4v2z"/><path d="m134 72.2-2.1-.2v-5.9l2.1.1z"/><path d="m131.9 72v-2l6.4.6v2z"/><path d="m127.9 71.6v-1.9l6.1.5v2z"/><path d="m129.9 75.6-2-.2v-5.7l2 .1z"/><path d="m127.9 75.4v-1.9l10.4 1.2v2z"/><path d="m131.9 64.1v-1.9l13.4.5v2.1z"/><path d="m153 65.2v-2.3l11.6.4v2.4z"/><path d="m126 78.9-1.9-.3v-35.2l1.9-.2z"/><path d="m150.4 71.7-2.6-.3v-8.7l2.6.1z"/><path d="m153 83.1v-2.2l18 2.5v2.5z"/></g></g><path d="m90 93.9q-.1 0-.2-.1c-2.2-1.8-6.3-3.9-13.1-3.9-2.3 0-4.7.1-7.1.2s-4.9.2-7.2.2c-7.4 0-8.8-1.1-9.1-1.5q0-.1 0-.2c0-1.4-1-2.7-2.4-3q-.4-.1-.7-.1c-1.2 0-2.3.6-2.8 1.7-.1.1-.9 1.4-2.3 1.4q-.3 0-.7 0c-1.3-.3-1.5-.6-1.5-3.4 0-1-.5-1.8-1.2-2.4s-1.7-.9-2.6-.7c0 0-4.3.9-9.1.9-2.7 0-5-.3-6.9-.8-1.9-.6-2.7-4.8-3.2-7.9-.3-1.9-.6-3.5-1.1-4.8-1.1-2.5-3.6-5.3-6.7-7.5q-.2-.1-.2-.2 0-.1.2-.2c3.1-2.1 5.6-4.9 6.7-7.5.5-1.3.8-2.9 1.1-4.7.5-3.2 1.3-7.4 3.2-8 1.9-.5 4.2-.8 6.9-.8 4.6 0 8.7.8 9.1.9 1 .2 1.9-.1 2.6-.7.7-.5 1.2-1.4 1.2-2.4 0-2.8.2-3.1 1.5-3.3q.4-.1.7-.1c1.5 0 2.3 1.4 2.3 1.4.5 1.1 1.6 1.8 2.8 1.8q.4 0 .7-.1c1.4-.4 2.4-1.6 2.4-3.1q0 0 0-.1c.1-.2 1.1-1.6 9.1-1.6 2.3 0 4.8.1 7.2.2h.1c2.3.1 4.8.2 7 .2 6.8 0 10.9-2.1 13.1-3.9.1-.1.3-.1.4 0 2.2 1.8 6.3 3.9 13.1 3.9 2.2 0 4.7-.1 7-.2h.1c2.4-.1 4.9-.2 7.2-.2 7.4 0 8.8 1.2 9.1 1.5q0 .1 0 .2c0 1.4 1 2.7 2.4 3q.4.1.7.1c1.2 0 2.3-.6 2.8-1.7.1-.1.9-1.4 2.3-1.4q.3 0 .7.1c1.3.2 1.5.5 1.5 3.3 0 1 .5 1.9 1.2 2.5.7.5 1.7.8 2.6.6.1 0 4.4-.9 9.1-.9 2.7 0 5 .3 6.9.8 1.9.6 2.7 4.8 3.2 8 .3 1.8.6 3.4 1.1 4.7 1.1 2.6 3.6 5.4 6.7 7.5q.2.1.2.2 0 .1-.2.2c-3.1 2.2-5.6 5-6.7 7.5-.5 1.3-.8 2.9-1.1 4.7-.5 3.2-1.3 7.4-3.2 8-1.9.5-4.2.8-6.9.8-4.7 0-9-.8-9.1-.9-.9-.2-1.9.1-2.6.7s-1.2 1.4-1.2 2.4c0 2.8-.2 3.1-1.5 3.3q-.4.1-.7.1c-1.5 0-2.2-1.3-2.3-1.5-.6-1-1.6-1.7-2.8-1.7q-.4 0-.7.1c-1.4.3-2.4 1.6-2.4 3.1q0 0 0 .1c-.1.2-1.1 1.6-9.1 1.6-2.3 0-4.8-.1-7.2-.2h-.1c-2.3-.1-4.8-.2-7-.2-6.8 0-10.9 2.1-13.1 3.9q-.1.1-.2.1zm-13.3-4.5c6.8 0 11 2 13.3 3.8 2.3-1.8 6.5-3.8 13.3-3.8 2.2 0 4.7.1 7.1.1v.1c2.4 0 4.9.1 7.2.1 7.1 0 8.4-1 8.5-1.2.1-1.7 1.2-3.1 2.9-3.5q.4-.1.8-.1c1.4 0 2.6.7 3.3 2 0 .1.7 1.2 1.8 1.2q.3 0 .6-.1c1-.2 1.1-.2 1.1-2.8 0-1.1.5-2.2 1.3-2.9.9-.7 2-.9 3.1-.7.2 0 4.3.8 9 .8q4 0 6.7-.8c1.7-.4 2.4-4.8 2.9-7.4.3-1.9.6-3.6 1.1-4.9 1.1-2.6 3.6-5.3 6.6-7.5-3-2.1-5.5-4.9-6.6-7.5-.5-1.3-.8-3-1.1-4.8-.5-2.7-1.2-7.1-2.9-7.5-1.8-.5-4.1-.8-6.7-.8-4.7 0-8.8.8-9 .8-1.1.3-2.2 0-3.1-.7-.8-.7-1.3-1.8-1.3-2.9 0-2.6-.1-2.6-1.1-2.8q-.3-.1-.6-.1c-1.1 0-1.8 1.1-1.8 1.2-.6 1.2-1.9 2-3.3 2q-.4 0-.8-.1c-1.6-.4-2.8-1.9-2.8-3.5-.3-.3-1.9-1.2-8.6-1.2-2.3 0-4.8.1-7.2.2s-4.9.2-7.1.2c-6.8 0-11-2.1-13.3-3.9-2.3 1.8-6.5 3.9-13.3 3.9-2.2 0-4.7-.1-7.1-.2s-4.9-.2-7.2-.2c-7.1 0-8.4 1-8.5 1.2-.1 1.7-1.2 3.1-2.9 3.5q-.4.1-.8.1c-1.4 0-2.7-.8-3.3-2 0 0-.6-1.2-1.8-1.2q-.3 0-.6.1c-1 .2-1.1.2-1.1 2.8 0 1.1-.5 2.2-1.3 2.9-.9.7-2 .9-3.1.7-.4-.1-4.4-.8-9-.8-2.6 0-4.9.3-6.7.8-1.7.4-2.4 4.8-2.9 7.4-.3 1.9-.6 3.6-1.1 4.9-1.1 2.6-3.6 5.4-6.6 7.5 3 2.2 5.5 4.9 6.6 7.5.5 1.3.8 3 1.1 4.9.5 2.6 1.2 7 2.9 7.4 1.8.6 4.1.8 6.7.8 4.8 0 9-.8 9-.8 1.1-.2 2.2 0 3.1.7.8.7 1.3 1.8 1.3 2.9 0 2.6.1 2.6 1.1 2.8q.3.1.6.1c1.1 0 1.7-1.1 1.8-1.2.6-1.2 1.9-2 3.3-2q.4 0 .8.1c1.6.4 2.8 1.9 2.8 3.5.3.3 1.9 1.2 8.6 1.2 2.3 0 4.8-.1 7.2-.1 2.4-.1 4.8-.2 7.1-.2z" fill="#f7aa55" fill-rule="evenodd"/></svg>