<svg height="512" viewBox="0 0 512 512" width="512" xmlns="http://www.w3.org/2000/svg"><path d="m93.3 345h324.7v47.6h-324.7z" fill="#606c38"/><path d="m93.3 118h324.7v47.6h-324.7z" fill="#606c38"/><path d="m257 76.6c27-.1 49.4-26.2 55.3-18.2 12.4 16.7 26.3 28.5 41.1 41.8 4.4 4 7.7 8.3 10.1 13 5-1.7 10.3-2.4 16.3-2.1 19.9 1.1 36.4 7.3 56.5 1.7 3.2-.9 6.4.2 8.6 2.3 2.2 2.2 3.3 5.4 2.4 8.6-5.7 20.1.6 36.6 1.6 56.5.3 6-.4 11.4-2 16.3 4.6 2.4 9 5.7 13 10.2 13.3 14.7 20.6 30.9 38.8 41.1 2.9 1.6 4.3 4.7 4.3 7.7 0 3.1-1.4 6.1-4.3 7.8-18.2 10.2-25.5 26.3-38.8 41.1-4 4.4-8.4 7.7-13 10.1 1.6 5 2.3 10.3 2 16.3-1 19.9-7.3 36.4-1.6 56.5.9 3.2-.2 6.4-2.4 8.6s-5.4 3.3-8.6 2.4c-20.1-5.7-36.6.6-56.5 1.6-6 .3-11.3-.4-16.3-2-2.4 4.6-5.7 9-10.1 13-14.8 13.3-28.4 25.4-41.1 41.8-8 10.1-26.8-19.2-54.1-19.3-23.7-.1-49.3 20.6-50.7 20.6-3 0-6.1-1.4-7.7-4.3-10.2-18.2-26.4-25.5-41.1-38.8-4.5-4-7.8-8.4-10.2-13-4.9 1.6-10.3 2.3-16.3 2-19.9-1-36.4-7.3-56.5-1.6-3.2.9-6.4-.2-8.6-2.4-2.1-2.2-3.2-5.4-2.3-8.6 5.6-20.1-.6-36.6-1.7-56.5-.3-6 .4-11.3 2.1-16.3-4.7-2.4-9-5.7-13-10.1-13.3-14.8-20.6-30.9-38.8-41.1-2.9-1.7-4.4-4.7-4.4-7.8 0-3 1.5-6.1 4.4-7.7 18.2-10.2 25.5-26.4 38.8-41.1 4-4.5 8.3-7.8 13-10.2-1.7-4.9-2.4-10.3-2.1-16.3 1.1-19.9 7.3-36.4 1.7-56.5-.9-3.2.2-6.4 2.3-8.6 2.2-2.1 5.4-3.2 8.6-2.3 20.1 5.6 36.6-.6 56.5-1.7 6-.3 11.4.4 16.3 2.1 2.4-4.7 5.7-9 10.2-13 14.7-13.3 30.9-20.6 41.1-38.8 1.6-2.9 4.7-4.4 7.7-4.4 1.5 0 25.4 19.7 49.5 19.6zm-144.2 84.2c-12.2 12.3-18.4 30.6-13.5 49.9-17.1 10.2-25.7 27.5-25.7 44.8s8.6 34.7 25.7 44.8c-4.9 19.4 1.3 37.7 13.5 49.9 12.3 12.3 30.6 18.5 49.9 13.5 10.2 17.2 27.5 25.7 44.8 25.7s131.7-8.5 141.8-25.7c19.4 5 37.7-1.2 49.9-13.5 12.3-12.2 18.5-30.5 13.5-49.9 17.2-10.1 25.7-27.5 25.7-44.8s-8.5-34.6-25.7-44.8c5-19.3-1.2-37.6-13.5-49.9-12.2-12.2-31.4-17.9-50.7-13-10.2-17.1-123.7-26.2-141-26.2s-34.6 8.6-44.8 25.7c-19.3-4.9-37.6 1.3-49.9 13.5zm314.1-27.2q.1-.3.1-.6-.3.1-.6.1.2.1.3.3.1.1.2.2zm50.4 122.3q.2-.2.4-.4-.2-.2-.4-.3 0 .1 0 .3 0 .2 0 .4zm-50.9 122q.3.1.6.1 0-.3-.1-.6-.1.2-.2.3-.1.1-.3.2zm-341.3-.5q0 .3-.1.6.3 0 .6-.1-.1-.1-.2-.2-.2-.1-.3-.3zm-50.3-122.2q-.3.1-.5.3.2.2.5.4-.1-.2-.1-.4 0-.2.1-.3zm50.8-122.1q-.3 0-.6-.1.1.3.1.6.1-.1.3-.2.1-.2.2-.3z" fill="#606c38" fill-rule="evenodd"/><path d="m147.5 63.3c8.8 6.4 14.6 16.7 8.2 27-2.8 4.3-6.6 7.8-11 10.6-5.1 1-10.3 1.3-15.3.1-11.8-2.8-14.9-14.3-13-25 1.7-7.2 5.4-13.8 11.2-16.9 6.3-1.8 13.6.2 19.9 4.2zm348.2 130.5c-6.4 8.8-16.7 14.6-27 8.1-4.3-2.7-7.8-6.5-10.6-10.9-1-5.2-1.3-10.3-.1-15.3 2.8-11.8 14.2-14.9 25-13.1 7.2 1.8 13.8 5.5 16.8 11.3 1.9 6.3-.2 13.6-4.1 19.9zm-128.7 251.9c-8.9-6.4-14.7-16.7-8.2-27 2.7-4.3 6.6-7.8 10.9-10.6 5.2-1 10.3-1.3 15.3-.1 11.8 2.8 14.9 14.2 13.1 25-1.7 7.2-5.5 13.8-11.3 16.8-6.3 1.9-13.6-.2-19.8-4.1zm-350-128.7c6.4-8.9 16.8-14.7 27-8.2 4.3 2.7 7.8 6.6 10.7 10.9 1 5.2 1.2 10.3 0 15.3-2.8 11.8-14.2 14.9-25 13.1-7.2-1.7-13.8-5.5-16.8-11.3-1.9-6.3.2-13.6 4.1-19.8zm124.8-246.2c-4.4-2.7-7.8-3.4-10.5-2.6-2.4 1.3-4.4 4.2-5.6 9.1-2.2 13.1 5.4 15.6 15.2 14.3 7.9-5.9 11.6-13 .9-20.8zm346.4 117.2c2.7-4.3 3.4-7.7 2.6-10.4-1.3-2.5-4.2-4.4-9.1-5.6-13.1-2.2-15.6 5.4-14.3 15.2 5.9 7.9 13 11.6 20.8.8zm-115.5 250.2c4.3 2.7 7.7 3.4 10.4 2.6 2.5-1.3 4.5-4.2 5.6-9.1 2.3-13.1-5.4-15.6-15.1-14.3-8 5.9-11.7 13-.9 20.8zm-348.2-115.5c-2.7 4.3-3.4 7.7-2.6 10.4 1.3 2.5 4.2 4.5 9.2 5.6 13.1 2.3 15.6-5.4 14.2-15.1-5.9-8-13-11.7-20.8-.9z" fill="#ba6830" fill-rule="evenodd"/><path d="m398.4 77.5c1.7 10.8-1.5 22.2-13.3 24.9-5 1.1-10.1.9-15.3-.2-4.3-2.9-8.1-6.4-10.8-10.8-6.4-10.3-.5-20.6 8.4-26.9 6.3-3.9 13.6-5.9 19.9-3.9 5.8 3.1 9.5 9.7 11.1 16.9zm84.8 270.9c-10.8 1.7-22.2-1.5-24.9-13.3-1.1-5-.8-10.1.2-15.3 2.9-4.3 6.4-8.1 10.8-10.8 10.3-6.4 20.6-.5 26.9 8.4 3.9 6.3 5.9 13.6 3.9 19.9-3.1 5.8-9.7 9.5-16.9 11.1zm-368 84.8c-1.8-10.8 1.5-22.2 13.3-24.9 5-1.1 10.1-.8 15.3.2 4.3 2.9 8.1 6.4 10.8 10.8 6.4 10.3.5 20.6-8.4 26.9-6.3 3.9-13.7 5.9-19.9 3.9-5.8-3.1-9.5-9.7-11.1-16.9zm-85.7-270.9c10.8-1.7 22.2 1.5 24.9 13.3 1.1 5 .9 10.2-.2 15.3-2.9 4.3-6.4 8.1-10.8 10.8-10.3 6.4-20.6.5-26.9-8.4-3.9-6.3-5.9-13.6-3.9-19.9 3.1-5.8 9.7-9.5 16.9-11.1zm359.6-83.5c-1.2-5-3.1-7.9-5.6-9.2-2.7-.8-6.1-.2-10.4 2.5-10.8 7.7-7.2 14.8.7 20.8 9.7 1.4 17.4-1 15.3-14.1zm92.8 260.3c5-1.2 7.9-3.1 9.2-5.6.8-2.7.2-6.1-2.5-10.4-7.6-10.8-14.8-7.2-20.7.7-1.5 9.7.9 17.4 14 15.3zm-357.4 92.8c1.2 5 3.1 7.9 5.6 9.2 2.6.8 6.1.2 10.4-2.5 10.8-7.6 7.2-14.8-.7-20.7-9.7-1.5-17.4.9-15.3 14zm-93.7-260.2c-5 1.1-7.9 3-9.2 5.5-.8 2.7-.2 6.1 2.5 10.4 7.7 10.9 14.8 7.2 20.8-.6 1.4-9.8-1-17.4-14.1-15.3z" fill="#ba6830" fill-rule="evenodd"/><g fill="#cdba72"><path d="m245.6 68.6s-33.1 9.6-22 25.5c11.3 16.1 23.7 12.2 26.5 10.7 2.9-1.5 7.1-5.4 8.6-28 0 0-6 .5-13.1-8.2z"/><path d="m250.6 53.8s-16.2-30.5-29.2-16.1c-13.3 14.7-6.9 26.1-4.9 28.5 2.1 2.5 6.7 5.8 28.9 2.3 0 0-1.8-5.8 5.2-14.7z"/><path d="m265.9 53.8s22.5-26.3 4.6-33.4c-18.2-7.3-26.5 2.9-28 5.7-1.6 2.8-3.1 8.4 7.9 28 0 0 4.7-3.7 15.5-.3z"/><path d="m258.6 76.8s-4.3 34.4 14.6 30.2c19.2-4.3 20.5-17.4 20.2-20.6-.2-3.2-2.1-8.6-22.1-18.7 0 0-1.9 5.8-12.7 9.1z"/><path d="m271.6 68s32.7 10.4 32.1-9.1c-.5-19.8-12.9-23.4-16.1-23.7-3.2-.4-8.8.5-22.4 18.6 0 0 5.2 2.9 6.4 14.2z"/></g><path d="m253.6 51.5c6-2.3 14.4-1.3 17.7 9.7 3.2 11-2.8 13.9-10.2 16.2s-16-4.1-17.3-8.5c-1.3-4.5 1.8-14.3 9.8-17.4z" fill="#606c38"/><path d="m244.1 72s-15 6.6-17.2 9.4c-2.1 2.8-5.9 10.1 7.3 18.6 9.7 6.2 16.2 3.3 19.5-8.7s2-12.6 2-12.6l-3.6-.1s-7.8 15.4-14.8 15.2c0 0-2.7-4.5 9.8-17.1z" fill="#90a57c"/><path d="m247 53.1s-9.5-13.4-12.7-14.9-11-3.7-16.5 11.3c-4 10.9.2 16.7 12.5 17.3s12.6-.8 12.6-.8l-.7-3.6s-16.5-4.3-17.7-11.3c0 0 3.8-3.6 18.6 6z" fill="#90a57c"/><path d="m265.3 50.1s9-13.8 9.3-17.3c.3-3.6-.5-11.7-16.2-11.5-11.5.1-15.4 6.1-11.7 17.9 3.7 11.9 5.2 11.7 5.2 11.7l3.1-2s-1.8-17.1 4.2-20.8c0 0 4.7 2.3 1 19.8z" fill="#90a57c"/><path d="m261.1 79.5s.2 16.5 1.9 19.5c1.7 3.1 6.8 9.5 19.8.4 9.5-6.6 9.4-13.8-.2-21.5-9.7-7.7-10.8-6.7-10.8-6.7l-1.5 3.4s11 13.1 8 19.6c0 0-5.2.7-11.7-15.8z" fill="#90a57c"/><path d="m274.7 66s16 2.8 19.4 1.7c3.3-1.2 10.4-5.2 4.1-19.7-4.7-10.6-11.6-11.8-20.9-3.6-9.4 8.2-8.6 9.5-8.6 9.5l3 2s14.9-8.5 20.6-4.3c0 0-.3 5.2-17.6 8.8z" fill="#90a57c"/><path d="m250.9 457.3s-20.4 27.7-2 33.6c18.8 6 26.2-4.6 27.6-7.5 1.3-2.9 2.3-8.6-10.2-27.5 0 0-4.4 4.1-15.4 1.4z" fill="#cdba72"/><path d="m246 442.5s-31.4-14.5-33 4.9c-1.7 19.7 10.3 24.9 13.4 25.7 3.1.7 8.8.5 24.3-15.7 0 0-4.9-3.5-4.7-14.9z" fill="#cdba72"/><path d="m258.1 433.2s2.1-34.5-16.5-29.4c-18.9 5.3-19.3 18.4-18.9 21.6.5 3.2 2.7 8.5 23.3 17.5 0 0 1.6-5.8 12.1-9.7z" fill="#cdba72"/><path d="m266.3 456s17.4 30 29.9 15.2c12.6-15.1 5.8-26.2 3.6-28.6-2.1-2.4-6.9-5.6-28.9-1.5 0 0 2 5.7-4.6 14.9z" fill="#cdba72"/><path d="m271.3 441.2s32.3-11.6 20.1-26.8c-12.4-15.4-24.5-10.8-27.3-9.1-2.7 1.6-6.6 5.8-6.5 28.4 0 0 5.9-.9 13.7 7.5z" fill="#cdba72"/><path d="m247 438.9c3.4-5.5 10.6-9.8 19.9-3s6.2 12.7 1.7 19.1c-4.5 6.3-15.1 6.4-18.9 3.6-3.8-2.7-7.2-12.4-2.7-19.7z" fill="#606c38"/><path d="m251.8 461s-7.9 14.3-7.9 17.8c0 3.6 1.4 11.7 17 10.4 11.5-.9 14.9-7.1 10.3-18.7-4.7-11.6-6.1-11.3-6.1-11.3l-2.9 2.2s3.1 17-2.6 21c0 0-4.9-2-2.6-19.6z" fill="#90a57c"/><path d="m242.6 444.1s-15.6-4.8-19-4.1c-3.5.7-11 3.7-6.3 18.9 3.4 11.1 10.2 13.2 20.4 6.3 10.1-7 9.6-8.3 9.6-8.3l-2.8-2.4s-15.8 6.5-21 1.7c0 0 .9-5.2 18.5-6.5z" fill="#90a57c"/><path d="m255.4 430.7s-1.1-16.5-3-19.4c-1.9-3-7.5-9.1-19.9.6-9 7.1-8.5 14.2 1.6 21.4s11.1 6.2 11.1 6.2l1.3-3.5s-11.8-12.6-9.2-19.1c0 0 5.2-1 12.8 15.1z" fill="#90a57c"/><path d="m269.9 456.6s10.1 13 13.3 14.5c3.2 1.4 11.2 3.3 16-11.8 3.5-11-.8-16.6-13.2-16.9-12.3-.3-12.6 1.1-12.6 1.1l.9 3.6s16.7 3.9 18.2 10.8c0 0-3.7 3.7-18.9-5.4z" fill="#90a57c"/><path d="m272.5 437.6s14.5-7.4 16.5-10.4c1.9-2.9 5.2-10.4-8.6-18.1-10.2-5.6-16.4-2.4-18.9 9.8-2.4 12.2-1.1 12.7-1.1 12.7l3.7-.1s6.7-15.8 13.7-16c0 0 3 4.4-8.6 17.7z" fill="#90a57c"/></svg>