<svg height="168" viewBox="0 0 1863 168" width="1863" xmlns="http://www.w3.org/2000/svg"><path d="m1005 83.8c0-2.4 1.9-4.3 4.2-4.3h110.6c2.4 0 4.3 1.9 4.3 4.3 0 2.3-1.9 4.2-4.3 4.2h-110.6c-2.3 0-4.2-1.9-4.2-4.2z" fill="#39412a"/><path d="m735.6 83.8c0-2.4 1.9-4.3 4.3-4.3h116.3c2.3 0 4.2 1.9 4.2 4.3 0 2.3-1.9 4.2-4.2 4.2h-116.3c-2.4 0-4.3-1.9-4.3-4.2z" fill="#39412a"/><path d="m40 84.3c0-1.1.9-2 2-2h583.1c1.1 0 2 .9 2 2s-.9 2-2 2h-583.1c-1.1 0-2-.9-2-2z" fill="#39412a"/><path d="m1234.3 84.7c0-1.1.9-2 2-2h584.5c1.1 0 2 .9 2 2s-.9 2-2 2h-584.5c-1.1 0-2-.9-2-2z" fill="#39412a"/><g fill="#f7aa55"><path d="m934.1 78.5q.8.8 1.6 1.6.8.8 1.5 1.6.1 1.1.1 2.3 0 1.1-.1 2.2-.7.8-1.5 1.6-.8.8-1.6 1.6-1.2 0-2.3.1-1.1-.1-2.2-.1-.9-.8-1.7-1.6-.8-.8-1.5-1.6-.1-1.1-.1-2.2 0-1.2.1-2.3.7-.8 1.5-1.6.8-.8 1.7-1.6 1.1 0 2.2 0 1.1 0 2.3 0z"/><path d="m934.7 73.3c-.5 1.4-1.7 2-2.9 1.9q0 0 0 0c-1.2.1-2.4-.5-2.9-1.9-1.8-5.1-8.1-23.2 2.9-23.2s4.8 18.1 2.9 23.2z"/><path d="m941.4 78.5c-1.4.7-2.6.2-3.4-.7q0 0 0 0c-.9-.8-1.4-2.1-.7-3.4 2.3-5 10.7-22.2 18.5-14.4 7.7 7.8-9.5 16.2-14.4 18.5z"/><path d="m942.4 86.9c-1.4-.5-1.9-1.8-1.8-2.9q0 0 0 0 0 0 0-.1c-.1-1.1.4-2.4 1.8-2.9 5.2-1.8 23.3-8 23.3 3 0 10.9-18.1 4.7-23.3 2.9z"/><path d="m937.3 93.5c-.7-1.3-.2-2.6.7-3.3q0 0 0-.1 0 0 0 0c.8-.9 2-1.3 3.4-.7 4.9 2.4 22.1 10.8 14.4 18.5-7.8 7.8-16.2-9.4-18.5-14.4z"/><path d="m928.9 94.6c.5-1.4 1.7-2 2.9-1.9q0 0 0 0c1.2-.1 2.4.5 2.9 1.9 1.9 5.1 8.1 23.3-2.9 23.3s-4.7-18.2-2.9-23.3z"/><path d="m922.2 89.4c1.4-.6 2.6-.2 3.4.7q0 0 0 0 0 .1 0 .1c.9.7 1.4 2 .8 3.3-2.4 5-10.8 22.2-18.6 14.4-7.7-7.7 9.5-16.1 14.4-18.5z"/><path d="m921.2 81c1.4.5 1.9 1.8 1.9 2.9q0 .1 0 .1c0 1.1-.5 2.4-1.9 2.9-5.2 1.8-23.3 8-23.3-2.9 0-11 18.1-4.8 23.3-3z"/><path d="m926.4 74.4c.6 1.3.1 2.6-.8 3.4q0 0 0 0c-.8.9-2 1.4-3.4.7-4.9-2.3-22.1-10.7-14.4-18.5 7.8-7.8 16.2 9.4 18.6 14.4z"/></g><path d="m934.2 24.3c3.1 5.6 8.1 7.9 12.6 12 1.4 1.2 2.4 2.5 3.1 3.9 1.5-.5 3.2-.7 5-.6 6.1.3 11.2 2.3 17.4.5 1-.3 2 .1 2.6.8.7.6 1 1.6.8 2.6-1.8 6.2.1 11.2.5 17.3.1 1.9-.2 3.5-.7 5.1 1.5.7 2.8 1.7 4 3.1 4.1 4.5 6.3 9.4 11.9 12.6.9.5 1.4 1.4 1.4 2.4 0 .9-.5 1.8-1.4 2.3-5.6 3.2-7.8 8.1-11.9 12.7-1.2 1.3-2.5 2.3-4 3.1.5 1.5.8 3.1.7 5-.4 6.1-2.3 11.2-.5 17.3.2 1-.1 2-.8 2.7-.6.6-1.6 1-2.6.7-6.2-1.7-11.3.2-17.4.5-1.8.1-3.5-.1-5-.6-.7 1.4-1.7 2.7-3.1 4-4.5 4.1-9.5 6.3-12.6 11.9-.5.9-1.4 1.3-2.4 1.3-.9 0-1.9-.4-2.4-1.3-3.1-5.6-8-7.8-12.6-11.9-1.4-1.3-2.4-2.6-3.1-4-1.5.5-3.2.7-5 .6-6.1-.3-11.2-2.2-17.4-.5-1 .3-1.9-.1-2.6-.7-.7-.7-1-1.7-.7-2.7 1.7-6.1-.2-11.2-.5-17.3-.1-1.9.1-3.5.6-5-1.4-.8-2.8-1.8-4-3.1-4.1-4.6-6.3-9.5-11.9-12.7-.9-.5-1.3-1.4-1.3-2.3 0-1 .4-1.9 1.3-2.4 5.6-3.2 7.8-8.1 11.9-12.6 1.2-1.4 2.6-2.4 4-3.1-.5-1.6-.7-3.2-.6-5.1.3-6.1 2.2-11.1.5-17.3-.3-1 0-2 .7-2.6.7-.7 1.6-1.1 2.6-.8 6.2 1.8 11.3-.2 17.4-.5 1.8-.1 3.5.1 5 .6.7-1.4 1.7-2.7 3.1-3.9 4.6-4.1 9.5-6.4 12.6-12 .5-.9 1.5-1.3 2.4-1.3 1 0 1.9.4 2.4 1.3zm-31.5 30.6c-3.7 3.7-5.6 9.4-4.1 15.3-5.3 3.1-7.9 8.4-7.9 13.8 0 5.3 2.6 10.6 7.9 13.7-1.5 6 .4 11.6 4.1 15.3 3.8 3.8 9.4 5.7 15.3 4.2 3.2 5.3 8.5 7.9 13.8 7.9s10.6-2.6 13.8-7.9c5.9 1.5 11.5-.4 15.3-4.2 3.8-3.7 5.7-9.3 4.1-15.3 5.3-3.1 7.9-8.4 7.9-13.7 0-5.4-2.6-10.7-7.9-13.8 1.6-5.9-.3-11.6-4.1-15.3-3.8-3.8-9.4-5.7-15.3-4.2-3.2-5.2-8.5-7.9-13.8-7.9s-10.6 2.7-13.8 7.9c-5.9-1.5-11.5.4-15.3 4.2zm29.2-24q0-.1-.1-.1 0 0-.1.1.1 0 .1 0 .1 0 .1 0zm37.5 15.6q0-.1 0-.2-.1.1-.2.1.1 0 .1 0 .1.1.1.1zm15.5 37.6q0-.1.1-.1-.1-.1-.1-.2 0 .1 0 .2 0 0 0 .1zm-15.7 37.5q.1 0 .2 0 0-.1 0-.2 0 0-.1.1 0 0-.1.1zm-37.5 15.4q.1.1.1.1.1 0 .1-.1 0 0-.1 0 0 0-.1 0zm-37.5-15.6q0 .1 0 .2.1 0 .2 0-.1-.1-.1-.1 0-.1-.1-.1zm-15.4-37.6q-.1.1-.2.2.1 0 .2.1 0-.1 0-.1 0-.1 0-.2zm15.6-37.4q-.1 0-.2-.1 0 .1 0 .2.1 0 .1-.1 0 0 .1 0z" fill="#39412a" fill-rule="evenodd"/><path d="m694.1 63.9c.9 3 .8 5.9-.2 8.6 2.7-1 5.6-1.1 8.6-.2 4.8 1.5 7.7 6.9 8.6 11.7-.9 4.7-3.8 10.2-8.6 11.6-3 .9-5.9.8-8.6-.1 1 2.6 1.1 5.5.2 8.5-1.5 4.8-6.9 7.7-11.7 8.7-4.7-1-10.2-3.9-11.6-8.7-.9-3-.8-5.9.1-8.5-2.6.9-5.5 1-8.5.1-4.8-1.4-7.7-6.9-8.7-11.6 1-4.8 3.9-10.2 8.7-11.7 3-.9 5.9-.8 8.5.2-.9-2.7-1-5.6-.1-8.6 1.4-4.8 6.9-7.7 11.6-8.6 4.8.9 10.2 3.8 11.7 8.6zm-4.2 1.9c-.9-3.5-4-5.6-7.5-6.8-3.4 1.2-6.5 3.3-7.5 6.8-1.7 6.4 2.3 11.9 7.5 15.9 5.3-4 9.3-9.5 7.5-15.9zm-25.7 10.6c-3.4 1-5.6 4.1-6.7 7.6 1.1 3.4 3.3 6.5 6.7 7.5 6.5 1.7 11.9-2.3 15.9-7.5-4-5.3-9.4-9.3-15.9-7.6zm10.7 25.8c1 3.4 4.1 5.6 7.5 6.7 3.5-1.1 6.6-3.3 7.5-6.7 1.8-6.5-2.2-11.9-7.5-15.9-5.2 4-9.2 9.4-7.5 15.9zm25.7-10.7c3.5-1 5.6-4.1 6.7-7.5-1.1-3.5-3.2-6.6-6.7-7.6-6.4-1.7-11.9 2.3-15.9 7.6 4 5.2 9.5 9.2 15.9 7.5zm-15.8-24.3c1 2.6-.7 5.7-2.4 7.7-1.7-2-3.3-5.1-2.4-7.7.5-1.1 1.4-2 2.4-2.7 1.1.7 2 1.6 2.4 2.7zm-19.1 14.4c2.6-1 5.7.6 7.7 2.4-2 1.7-5.1 3.3-7.7 2.3-1.2-.4-2-1.3-2.7-2.3.7-1.1 1.5-2 2.7-2.4zm14.3 19.1c-.9-2.6.7-5.7 2.4-7.7 1.7 2 3.4 5.1 2.4 7.7-.4 1.2-1.3 2-2.4 2.7-1-.7-1.9-1.5-2.4-2.7zm19.2-14.4c-2.6 1-5.7-.6-7.7-2.3 2-1.8 5.1-3.4 7.7-2.4 1.1.4 2 1.3 2.7 2.4-.7 1-1.6 1.9-2.7 2.3z" fill="#f7aa55" fill-rule="evenodd"/><path d="m687.6 42c1.8 2.8 2.2 6.5-.8 8.6-1.3.9-2.8 1.5-4.4 1.8-1.5-.3-3-.9-4.3-1.8-3.1-2.1-2.6-5.8-.8-8.6 1.3-1.8 3.1-3.3 5.1-3.5 2 .2 3.9 1.7 5.2 3.5zm36.8 47.1c-2.9 1.8-6.5 2.2-8.6-.8-.9-1.3-1.5-2.8-1.8-4.3.3-1.6.9-3.1 1.8-4.4 2.1-3 5.7-2.6 8.6-.8 1.8 1.3 3.3 3.2 3.5 5.2-.2 2-1.7 3.8-3.5 5.1zm-47.1 36.8c-1.8-2.8-2.3-6.4.8-8.6 1.3-.9 2.8-1.5 4.3-1.8 1.6.3 3.1.9 4.4 1.8 3 2.2 2.6 5.8.8 8.6-1.3 1.9-3.2 3.3-5.2 3.5-2-.2-3.8-1.6-5.1-3.5zm-36.8-47.1c2.8-1.8 6.4-2.2 8.6.8.9 1.3 1.5 2.8 1.8 4.4-.3 1.5-.9 3-1.8 4.3-2.2 3-5.8 2.6-8.6.8-1.9-1.3-3.3-3.1-3.5-5.1.2-2 1.6-3.9 3.5-5.2zm44.6-35.3c-.9-1.3-1.8-1.9-2.7-2-.8.1-1.7.7-2.6 2-2.2 3.4-.3 5 2.6 5.8 3-.8 4.9-2.4 2.7-5.8zm37.8 43.1c1.3-.9 1.9-1.8 2-2.6-.1-.9-.7-1.8-2-2.7-3.4-2.2-5-.3-5.8 2.7.8 2.9 2.4 4.8 5.8 2.6zm-43.1 37.9c.9 1.2 1.8 1.8 2.6 1.9.9-.1 1.8-.7 2.7-1.9 2.2-3.5.3-5.1-2.7-5.9-2.9.8-4.8 2.4-2.6 5.9zm-37.9-43.2c-1.2.9-1.8 1.8-1.9 2.7.1.8.7 1.7 1.9 2.6 3.5 2.2 5.1.3 5.9-2.6-.8-3-2.4-4.9-5.9-2.7z" fill="#39412a" fill-rule="evenodd"/><path d="m683.6 43.4q.1.1.2.1.1.1.1.1c.2.1.4.2.5.4q0 0 0 0 .1.1.1.2 0 .1.1.1 0 .1 0 .1 0 .1 0 .1 0 .1 0 .1 0 .1 0 .2.1 0 .1 0c0 1-.6 1.7-1.3 2.3q-.4.3-1 .4-.5-.1-1-.4c-.7-.6-1.2-1.3-1.2-2.3q0 0 0 0 0-.1 0-.2 0 0 .1-.1 0 0 0-.1 0 0 0-.1 0 0 0-.1.1-.1.2-.2 0 0 0 0c.1-.2.3-.3.4-.4q.1 0 .2-.1.1 0 .2-.1c.4-.1.7-.1 1.1-.1s.8 0 1.2.1zm39.3 41.7q0 .1 0 .2-.1.1-.1.2c-.1.1-.2.3-.4.4q0 0 0 0-.1.1-.3.2 0 0 0 0-.1 0-.2 0 0 0 0 0-.1.1-.1.1-.1 0-.2 0 0 0 0 0c-1 0-1.8-.5-2.3-1.2q-.3-.5-.4-1 .1-.6.4-1c.5-.7 1.3-1.3 2.3-1.3q0 0 0 0 .1 0 .2.1 0 0 .1 0 0 0 0 0 .1 0 .2 0 0 .1 0 .1.2 0 .3.1 0 0 0 0c.2.1.3.3.4.5q0 0 .1.1 0 .1 0 .2c.2.4.2.8.2 1.2s0 .7-.2 1.1zm-41.6 39.4q-.1-.1-.2-.1-.1 0-.2-.1c-.1 0-.3-.2-.4-.4q0 0 0 0-.1-.1-.2-.2 0-.1 0-.1 0-.1 0-.1 0-.1 0-.1-.1 0-.1-.1 0-.1 0-.1 0-.1 0-.1c0-.9.5-1.7 1.2-2.3q.5-.3 1-.4.6.1 1 .4c.7.6 1.3 1.4 1.3 2.3q0 0-.1.1 0 0 0 .1 0 .1 0 .1 0 0 0 .1 0 0 0 .1-.1 0-.1.1 0 .1-.1.2 0 0 0 0c-.1.2-.3.4-.5.4q0 .1-.1.1-.1 0-.2.1c-.4.1-.8.1-1.2.1s-.7 0-1.1-.1zm-39.4-41.7q.1-.1.1-.2 0-.1.1-.1c0-.2.2-.4.4-.5q0 0 0 0 .1-.1.2-.1.1 0 .1-.1.1 0 .1 0 .1 0 .1 0 0 0 .1 0 .1-.1.1-.1.1 0 .1 0c.9 0 1.7.6 2.3 1.3q.3.4.4 1-.1.5-.4 1c-.6.7-1.4 1.2-2.3 1.2q0 0-.1 0 0 0-.1 0-.1 0-.1-.1 0 0-.1 0 0 0-.1 0 0 0-.1 0-.1-.1-.2-.2 0 0 0 0c-.2-.1-.4-.3-.4-.4q-.1-.1-.1-.2 0-.1-.1-.2c-.1-.4-.1-.7-.1-1.1s0-.8.1-1.2zm40.4-36.5q0 0-.1-.1 0 0 0 0 .1.1.1.1zm-37.5 37.8q-.1 0-.1.1 0 0 0 0 0-.1.1-.1zm37.8 37.5q0 .1.1.1 0 0 0 0-.1 0-.1-.1zm37.5-37.8q0 0 .1-.1 0 0-.1 0 0 .1 0 .1zm-37.4-37.6q0 0 0 0-.1.1-.1.1 0 0 .1-.1zm-38 37.5q0 0 0 0 0 .1.1.1-.1 0-.1-.1zm37.5 38q0 0 0 0 .1 0 .1-.1 0 .1-.1.1zm37.9-37.5q.1 0 .1 0-.1-.1-.1-.1 0 0 0 .1zm-37.7-38.1q-.1 0-.3.1 0 0 0 0 .2 0 .3-.1zm-37.8 37.9q0 .1.1.3 0 0 0 0-.1-.2-.1-.3zm37.9 37.8q.1 0 .2-.1 0 0 0 0-.1.1-.2.1zm37.8-37.9q0-.1-.1-.2 0 0 0 0 0 .1.1.2zm-37.6-37.7q0 0 0 0-.1-.1-.2-.1.1.1.2.1zm-38 37.5q0 0 0 0-.1.1-.1.2 0-.1.1-.2zm37.4 38q0 0 0 0 .2.1.3.1-.1 0-.3-.1zm38.1-37.4q0 0 0 0 .1-.2.1-.3-.1.1-.1.3z" fill="#39412a" fill-rule="evenodd"/><path d="m1190.6 63.9c1 3 .8 5.9-.1 8.6 2.6-1 5.5-1.1 8.5-.2 4.8 1.5 7.7 6.9 8.7 11.7-1 4.7-3.9 10.2-8.7 11.6-3 .9-5.9.8-8.5-.1.9 2.6 1.1 5.5.1 8.5-1.4 4.8-6.9 7.7-11.6 8.7-4.8-1-10.2-3.9-11.7-8.7-.9-3-.7-5.9.2-8.5-2.7.9-5.5 1-8.6.1-4.8-1.4-7.7-6.9-8.6-11.6.9-4.8 3.8-10.2 8.6-11.7 3.1-.9 5.9-.8 8.6.2-.9-2.7-1.1-5.6-.2-8.6 1.5-4.8 6.9-7.7 11.7-8.6 4.7.9 10.2 3.8 11.6 8.6zm-4.1 1.9c-.9-3.5-4.1-5.6-7.5-6.8-3.5 1.2-6.6 3.3-7.5 6.8-1.8 6.4 2.3 11.9 7.5 15.9 5.2-4 9.3-9.5 7.5-15.9zm-25.7 10.6c-3.4 1-5.6 4.1-6.7 7.6 1.1 3.4 3.3 6.5 6.7 7.5 6.5 1.7 11.9-2.3 15.9-7.5-4-5.3-9.4-9.3-15.9-7.6zm10.7 25.8c.9 3.4 4 5.6 7.5 6.7 3.4-1.1 6.6-3.3 7.5-6.7 1.8-6.5-2.3-11.9-7.5-15.9-5.2 4-9.3 9.4-7.5 15.9zm25.7-10.7c3.4-1 5.6-4.1 6.7-7.5-1.1-3.5-3.3-6.6-6.7-7.6-6.5-1.7-11.9 2.3-15.9 7.6 4 5.2 9.4 9.2 15.9 7.5zm-15.8-24.3c.9 2.6-.7 5.7-2.4 7.7-1.7-2-3.4-5.1-2.4-7.7.4-1.1 1.3-2 2.4-2.7 1 .7 1.9 1.6 2.4 2.7zm-19.2 14.4c2.6-1 5.7.6 7.7 2.4-2 1.7-5.1 3.3-7.7 2.3-1.1-.4-2-1.3-2.6-2.3.6-1.1 1.5-2 2.6-2.4zm14.4 19.1c-1-2.6.7-5.7 2.4-7.7 1.7 2 3.3 5.1 2.4 7.7-.5 1.2-1.4 2-2.4 2.7-1.1-.7-2-1.5-2.4-2.7zm19.1-14.4c-2.6 1-5.7-.6-7.7-2.3 2-1.8 5.1-3.4 7.7-2.4 1.2.4 2.1 1.3 2.7 2.4-.6 1-1.5 1.9-2.7 2.3z" fill="#f7aa55" fill-rule="evenodd"/><path d="m1184.1 42c1.8 2.8 2.3 6.5-.8 8.6-1.3.9-2.7 1.5-4.3 1.8-1.6-.3-3.1-.9-4.4-1.8-3-2.1-2.6-5.8-.8-8.6 1.3-1.8 3.2-3.3 5.2-3.5 2 .2 3.8 1.7 5.1 3.5zm36.8 47.1c-2.8 1.8-6.4 2.2-8.6-.8-.9-1.3-1.4-2.8-1.8-4.3.4-1.6.9-3.1 1.8-4.4 2.2-3 5.8-2.6 8.6-.8 1.9 1.3 3.3 3.2 3.5 5.2-.2 2-1.6 3.8-3.5 5.1zm-47.1 36.8c-1.8-2.8-2.2-6.4.8-8.6 1.3-.9 2.8-1.5 4.4-1.8 1.6.3 3 .9 4.3 1.8 3.1 2.2 2.6 5.8.8 8.6-1.3 1.9-3.1 3.3-5.1 3.5-2-.2-3.9-1.6-5.2-3.5zm-36.8-47.1c2.9-1.8 6.5-2.2 8.6.8 1 1.3 1.5 2.8 1.8 4.4-.3 1.5-.8 3-1.8 4.3-2.1 3-5.7 2.6-8.6.8-1.8-1.3-3.3-3.1-3.5-5.1.2-2 1.7-3.9 3.5-5.2zm44.6-35.3c-.9-1.3-1.8-1.9-2.6-2-.9.1-1.8.7-2.7 2-2.1 3.4-.3 5 2.7 5.8 2.9-.8 4.8-2.4 2.6-5.8zm37.9 43.1c1.2-.9 1.8-1.8 1.9-2.6-.1-.9-.7-1.8-1.9-2.7-3.5-2.2-5.1-.3-5.8 2.7.7 2.9 2.3 4.8 5.8 2.6zm-43.2 37.9c.9 1.2 1.8 1.8 2.7 1.9.8-.1 1.7-.7 2.6-1.9 2.2-3.5.3-5.1-2.6-5.9-3 .8-4.8 2.4-2.7 5.9zm-37.8-43.2c-1.3.9-1.9 1.8-2 2.7.1.8.7 1.7 2 2.6 3.4 2.2 5 .3 5.8-2.6-.8-3-2.4-4.9-5.8-2.7z" fill="#39412a" fill-rule="evenodd"/><path d="m1180.1 43.4q.1.1.3.1 0 .1.1.1c.2.1.3.2.4.4q0 0 0 0 .1.1.2.2 0 .1 0 .1 0 .1 0 .1.1.1.1.1 0 .1 0 .1 0 .1 0 .2 0 0 0 0c0 1-.5 1.7-1.2 2.3q-.5.3-1 .4-.6-.1-1-.4c-.7-.6-1.3-1.3-1.2-2.3q0 0 0 0 0-.1 0-.2 0 0 0-.1 0 0 0-.1 0 0 .1-.1 0 0 0-.1 0-.1.1-.2 0 0 0 0c.1-.2.3-.3.5-.4q0 0 .1-.1.1 0 .2-.1c.4-.1.8-.1 1.2-.1s.7 0 1.1.1zm39.4 41.7q0 .1-.1.2 0 .1 0 .2c-.1.1-.3.3-.5.4q0 0 0 0-.1.1-.2.2 0 0-.1 0-.1 0-.1 0 0 0-.1 0 0 .1-.1.1-.1 0-.1 0-.1 0-.1 0c-.9 0-1.7-.5-2.3-1.2q-.3-.5-.4-1 .1-.6.4-1c.6-.7 1.4-1.3 2.3-1.3q0 0 .1 0 0 0 .1.1.1 0 .1 0 .1 0 .1 0 0 0 .1 0 .1.1.1.1.1 0 .2.1 0 0 0 0c.2.1.4.3.5.5q0 0 0 .1.1.1.1.2c.1.4.2.8.1 1.2.1.4 0 .7-.1 1.1zm-41.7 39.4q-.1-.1-.2-.1-.1 0-.1-.1c-.2 0-.4-.2-.5-.4q0 0 0 0-.1-.1-.1-.2 0-.1 0-.1-.1-.1-.1-.1 0-.1 0-.1 0 0 0-.1 0-.1 0-.1 0-.1 0-.1c-.1-.9.5-1.7 1.2-2.3q.4-.3 1-.4.5.1 1 .4c.7.6 1.2 1.4 1.2 2.3q0 0 0 .1 0 0 0 .1 0 .1 0 .1 0 0-.1.1 0 0 0 .1 0 0 0 .1-.1.1-.2.2 0 0 0 0c-.1.2-.2.4-.4.4q-.1.1-.1.1-.2 0-.3.1c-.4.1-.7.1-1.1.1s-.8 0-1.2-.1zm-39.3-41.7q0-.1 0-.2.1-.1.1-.1c.1-.2.2-.4.4-.5q0 0 .1 0 .1-.1.2-.1 0 0 0-.1.1 0 .2 0 0 0 0 0 .1 0 .1 0 .1-.1.2-.1 0 0 0 0c1 0 1.8.6 2.3 1.3q.4.4.4 1 0 .5-.4 1c-.5.7-1.3 1.2-2.3 1.2q0 0 0 0-.1 0-.2 0 0 0-.1-.1 0 0 0 0-.1 0-.2 0 0 0 0 0-.1-.1-.2-.2-.1 0-.1 0c-.2-.1-.3-.3-.4-.4q0-.1-.1-.2 0-.1 0-.2c-.2-.4-.2-.7-.2-1.1s0-.8.2-1.2zm40.3-36.5q0 0-.1-.1.1 0 .1 0 0 .1 0 .1zm-37.5 37.8q0 0-.1.1.1 0 .1 0 0-.1 0-.1zm37.8 37.5q0 .1.1.1 0 0 0 0 0 0-.1-.1zm37.6-37.8q0 0 0-.1 0 0 0 0 0 .1 0 .1zm-37.5-37.6q0 0 0 0-.1.1-.1.1.1 0 .1-.1zm-37.9 37.5q0 0-.1 0 .1.1.1.1 0 0 0-.1zm37.5 38q0 0-.1 0 .1 0 .1-.1 0 .1 0 .1zm37.9-37.5q0 0 0 0 0-.1 0-.1 0 0 0 .1zm-37.8-38.1q-.1 0-.2.1 0 0 0 0 .1 0 .2-.1zm-37.8 37.9q.1.1.1.3 0 0 0 0 0-.2-.1-.3zm37.9 37.8q.1 0 .3-.1 0 0 0 0-.2.1-.3.1zm37.9-37.9q-.1-.1-.1-.2 0 0 0 0 0 .1.1.2zm-37.6-37.7q0 0 0 0-.2-.1-.3-.1.1.1.3.1zm-38.1 37.5q0 0 0 0 0 .1-.1.2.1-.1.1-.2zm37.5 38q0 0 0 0 .1.1.2.1-.1 0-.2-.1zm38.1-37.4q0 0 0 0 0-.2.1-.3-.1.1-.1.3z" fill="#39412a" fill-rule="evenodd"/></svg>