<svg height="512" viewBox="0 0 512 512" width="512" xmlns="http://www.w3.org/2000/svg"><path d="m17 20h478v478h-478z" fill="#39412a"/><g fill="#f4f2e1"><path d="m428.1 84h18.1v344h-18.1z"/><path d="m391.9 84h18.1v126.7h-18.1z"/><path d="m355.7 210.7v-18.1h54.3v18.1z"/><path d="m319.5 174.5v-18.1h54.3v18.1z"/><path d="m355.7 120.2h18.1v54.3h-18.1z"/><path d="m319.5 138.3v-18.1h54.3v18.1z"/><path d="m337.6 174.5h-18.1v-54.3h18.1z"/><path d="m356 172h18v38.2h-18z"/><path d="m358 192.6v18.1h-74.7v-18.1z"/><path d="m373.8 84v18.1h-36.2v-18.1z"/><path d="m247.1 156.4h18.1v90.5h-18.1z"/><path d="m102.2 246.9v-18.1h163v18.1z"/><path d="m283.3 156.4h18.1v54.3h-18.1z"/><path d="m247.1 174.5v-18.1h54.3v18.1z"/><path d="m210.8 120.2h18.1v90.5h-18.1z"/><path d="m174.6 156.4h18.1v54.3h-18.1z"/><path d="m102.2 210.7v-18.1h90.5v18.1z"/><path d="m102.2 156.4h18.1v54.3h-18.1z"/><path d="m156.5 156.4v18.1h-54.3v-18.1z"/><path d="m192.7 120.2v18.1h-18.1v-18.1z"/></g><path d="m283.3 246.9v-18.1h126.7v18.1z" fill="#f7aa55"/><path d="m102.2 102.1v-18.1h217.3v18.1z" fill="#f7aa55"/><path d="m247.1 138.3v-18.1h54.3v18.1z" fill="#f7aa55"/><path d="m174.6 102.1v-18.1h18.1v18.1z" fill="#f7aa55"/><path d="m156.5 120.2v18.1h-54.3v-18.1z" fill="#f7aa55"/><path d="m120.3 319.4h-18.1v-54.3h18.1z" fill="#f7aa55"/><path d="m410 391.8h-18.1v-126.7h18.1z" fill="#f4f2e1"/><path d="m410 373.7v18.1h-54.3v-18.1z" fill="#f4f2e1"/><path d="m373.8 391.8h-18.1v-54.3h18.1z" fill="#f4f2e1"/><path d="m373.8 337.5v18.1h-72.4v-18.1z" fill="#f4f2e1"/><path d="m319.5 355.6h-18.1v-54.3h18.1z" fill="#f4f2e1"/><path d="m301.4 319.4v-18.1h72.4v18.1z" fill="#f4f2e1"/><path d="m265.2 391.8v-18.1h108.6v18.1z" fill="#f4f2e1"/><path d="m265.2 355.6h18.1v72.4h-18.1z" fill="#f4f2e1"/><path d="m283.3 409.9v18.1h-181.1v-18.1z" fill="#f4f2e1"/><path d="m247.1 355.6h-18.2v-54.3h18.2z" fill="#f4f2e1"/><path d="m192.7 355.6v-18.1h54.4v18.1z" fill="#f4f2e1"/><path d="m210.8 391.8v-18.1h36.3v18.1z" fill="#f4f2e1"/><path d="m174.6 301.3h18.1v54.3h-18.1z" fill="#f4f2e1"/><path d="m138.4 319.4v-18.1h54.3v18.1z" fill="#f4f2e1"/><path d="m156.5 355.6h-18.1v-54.3h18.1z" fill="#f4f2e1"/><path d="m138.4 355.6v-18.1h54.3v18.1z" fill="#f4f2e1"/><path d="m102.2 355.6v-18.1h54.3v18.1z" fill="#f4f2e1"/><path d="m120.3 391.8h-18.1v-54.3h18.1z" fill="#f4f2e1"/><path d="m102 391.8v-18.1h91v18.1z" fill="#f4f2e1"/><path d="m138.4 283.2v-18.1h108.7v18.1z" fill="#f7aa55"/><path d="m301.4 283.2v-18.1h72.4v18.1z" fill="#f7aa55"/><path d="m84.1 428h-18.1v-344h18.1z" fill="#f7aa55"/><path d="m283.3 337.5h-18.1v-72.4h18.1z" fill="#f7aa55"/><path d="m301.4 428v-18.1h108.6v18.1z" fill="#f7aa55"/><path d="m13.6 13.6h484.7v484.7h-484.7zm477.9 478.5c-5.3-9.9-9.2-20.7-11.8-31.6-6.6-28-5.3-57.2-4-86 1.9-40.9 3.8-81.8 5.7-122.7 2.2-49.1 4.5-98.2 1.1-147.2-1.3-19.5-3.5-39.1-.5-58.3 1-6.7 2.9-13.4 5.4-19.7-31.8 17.9-98.9 8.9-98.9 8.9-29.4-4.7-132.5-4.7-132.5-4.7l-223 7c.7 2.8 1.3 5.6 1.8 8.5 2.9 19.2.8 38.8-.6 58.3-3.3 49-1.1 98.1 1.2 147.2 1.9 40.9 3.7 81.8 5.6 122.7 1.3 28.8 2.6 58-4 86-2.6 11.1-6.6 22.1-12 32.1 0 0 .4-.2 1.1-.5 7-3.3 14.6-5.7 22.3-7 27.6-6.8 80.5-14.4 163.1-5.6 0 0 48.4 4.5 100.2 2.1q33.3-1.5 66.5-3.1c28.8-1.3 58-2.6 86.1 4 9.3 2.2 18.5 5.4 27.2 9.6z" fill="#f4f2e1" fill-rule="evenodd"/></svg>