<svg height="1081" viewBox="0 0 1081 1081" width="1081" xmlns="http://www.w3.org/2000/svg"><g fill="none" stroke-miterlimit="100" stroke-width="7"><path d="m965 323v94.7c-117.2 0-233.7 0-350.9 0 0-33.2 0-66.1 0-99.3-16.6 0-32.5 0-49 0v199.2c-150.5 0-300.4 0-450.7 0 0-16.6 0-33.2 0-50.4h399.4c0-66.8 0-133.1 0-199.7h150.9v99h150c0-16 0-31.9 0-48.5-33.5 0-66.8 0-100.4 0 0-50.5 0-100.4 0-150.6h151v199.2h48.4c0-99.5 0-199.1 0-299.1h51.3zm-151-101.2c-1.6-1.2-3-2.7-4.8-3.4-1.1-.4-2.7.6-4 .6-13.2.1-26.4 0-39.7 0v47.6h48.5c0-10.9 0-21.3 0-31.8 0-4.1 0-8.1 0-13z" stroke="#404c6e"/><path d="m815 718c-33.1 0-65.7 0-98.7 0v49.9h149.6v99.7h48.9c0-100 0-199.8 0-300.2h50.8v351.4c-116.3 0-232.6 0-349.6 0v99.5c-167.1 0-333.6 0-500.6 0 0-16.9 0-33.2 0-50h449.4c0-50.3 0-100 0-150h51.1v49.3h198.7c0-16 0-31.9 0-48.4-49.6 0-99.2 0-149.2 0 0-50.9 0-101.1 0-151.8h200.1v50.6c-16.5 0-33.3 0-50.5 0z" stroke="#404c6e"/><path d="m454 818c-96.1.5-191.7.9-287.6 1.4v48.4h200.1c.2 2 .5 3.4.5 4.9 0 13.6-.1 27.3.1 41 0 4.2-1.5 5.4-5.6 5.4-80.9-.1-161.9-.1-242.9-.1-1.3 0-2.6-.2-3.9-.3 0-50.1 0-100 0-150.5h100c0-33.8 0-67 0-100.7h151.3v100.2h98.9c0-33.5 0-66.7 0-100.3h50.7q0 75.5 0 150.6c-20.4 0-40.8 0-61.6 0zm-159.5-100c-9.4 0-18.8 0-28.1 0v49.6h48.3c0-16.6 0-32.8 0-49.6-6.6 0-12.9 0-20.2 0z" stroke="#404c6e"/><path d="m66 703v315.7c-17 0-33.7 0-50.7 0 0-317 0-634.1 0-951.4h50.7z" stroke="#cdad80"/><path d="m1014 399c0-110.8 0-221 0-331.7h50.6v951.7q-12.4 0-24.8 0c-8.3 0-16.6 0-25.8 0 0-206.8 0-413.1 0-620z" stroke="#404c6e"/><path d="m421 118c-102.1 0-203.7 0-305.7 0 0-17 0-33.7 0-50.7h600.4v50.7c-98.1 0-196.1 0-294.7 0z" stroke="#cdad80"/><path d="m235 267h29.7v50.9c-33.2 0-66.1 0-99.3 0v48.7h148.4c0-33 0-65.9 0-99.2h50.8v150.2c-83.2 0-166.4 0-250.1 0 0-49.8 0-99.7 0-150.6z" stroke="#404c6e"/><path d="m615 475.1c0-2.8 0-5.2 0-7.8h350.7v50.4c-116.7 0-233.3 0-350.7 0 0-14 0-28.1 0-42.6z" stroke="#cdad80"/><path d="m964.7 968.1c.8.8 1.3 1.5 1.3 2.2v48.3c-100.2 0-200.2 0-300.6 0 0-16.4 0-33.2 0-50.6 99.5 0 199.2 0 299.3.1z" stroke="#cdad80"/><path d="m295 568h220.7v49.7c-100 0-200 0-300.4 0 0-16.3 0-32.7 0-49.7z" stroke="#cdad80"/><path d="m456.9 167h7.7v250.6c-16.6 0-33.1 0-50.2 0 0-83.3 0-166.6 0-250.6z" stroke="#404c6e"/><g stroke="#cdad80"><path d="m616 715v53.7c-17 0-33.7 0-50.7 0 0-67 0-134.1 0-201.4h50.7z"/><path d="m718 618c-17.8 0-35.1 0-52.7 0 0-17 0-33.7 0-50.7h200.4v50.7c-49.1 0-98.1 0-147.7 0z"/><path d="m515 201c0-11.5 0-22.4 0-33.7h150.7v50.4c-50 0-100 0-150.7 0 0-5.4 0-10.8 0-16.7z"/><path d="m155 567h10.7v150.7c-16.7 0-33.4 0-50.4 0 0-50 0-100 0-150.7z"/><path d="m220 167h45.7v50.7c-50 0-100.1 0-150.4 0 0-16.7 0-33.4 0-50.7z"/></g><path d="m764 88c0-7.1 0-13.7 0-20.7h100.6v50.3c-33.2 0-66.4 0-100.6 0 0-9.6 0-19.4 0-29.6z" stroke="#404c6e"/><path d="m516 875.1v42.4c-33.6 0-67 0-100.6 0 0-16.3 0-32.5 0-49.1h100.6z" stroke="#404c6e"/><path d="m364.8 168.4c.1 16.6.1 32.7.1 49.2-16.9 0-33.5 0-50.5 0 0-16.6 0-33.1 0-50 1-.2 2.1-.6 3.2-.6q21.7 0 43.4 0c1.2.1 2.5.7 3.8 1.4z" stroke="#404c6e"/></g></svg>