<svg width="142" height="265" viewBox="0 0 142 265" fill="none" xmlns="http://www.w3.org/2000/svg">
<g clip-path="url(#clip0_155_30)">
<path d="M-95.2948 246.613C-95.2946 243.672 -95.2722 240.853 -95.3072 238.034C-95.3181 237.156 -95.044 236.716 -94.1163 236.804C-93.7519 236.838 -93.3814 236.809 -93.0137 236.809C-57.6316 236.809 -22.2495 236.809 13.1325 236.809C13.6962 236.809 14.2599 236.809 14.9779 236.809C14.9779 224.536 14.9779 212.386 14.9779 200.137C19.6819 200.137 24.2318 200.137 28.9388 200.137C28.9388 204.126 28.9388 208.106 28.9388 212.189C44.7578 212.189 60.4209 212.189 76.1929 212.189C76.1929 208.791 76.1929 205.384 76.1929 201.817C64.0608 201.817 51.9114 201.817 39.6484 201.817C39.6484 188.938 39.6484 176.217 39.6484 163.38C56.3484 163.38 73.0732 163.38 89.914 163.38C89.914 167.816 89.914 172.285 89.914 176.953C77.856 176.953 65.7584 176.953 53.583 176.953C53.583 180.639 53.583 184.127 53.583 187.769C65.8036 187.769 77.9538 187.769 90.2579 187.769C90.2579 195.987 90.2579 204.052 90.2579 212.205C93.8184 212.205 97.2243 212.205 100.786 212.205C100.786 187.756 100.786 163.349 100.786 138.847C105.489 138.847 110.039 138.847 114.714 138.847C114.738 139.301 114.78 139.735 114.78 140.168C114.784 168.36 114.776 196.551 114.812 224.742C114.814 226.042 114.352 226.29 113.171 226.289C85.7565 226.261 58.3415 226.267 30.9265 226.267C30.3578 226.267 29.789 226.267 29.0653 226.267C29.0653 234.333 29.0653 242.316 29.0653 250.417C-12.4096 250.417 -53.7294 250.417 -95.2948 250.417C-95.2948 249.222 -95.2948 247.979 -95.2948 246.613ZM41.9232 200.281C53.3626 200.281 64.802 200.295 76.2413 200.261C77.3893 200.258 77.8304 200.554 77.7947 201.769C77.7131 204.545 77.7671 207.325 77.7662 210.104C77.7658 211.194 77.7661 212.283 77.7661 213.438C60.956 213.438 44.3131 213.438 27.5149 213.438C27.5149 209.46 27.5149 205.562 27.5149 201.627C23.7603 201.627 20.1621 201.627 16.4096 201.627C16.4096 213.896 16.4096 226.046 16.4096 238.35C-20.41 238.35 -57.0738 238.35 -93.718 238.35C-93.718 241.995 -93.718 245.483 -93.718 248.959C-53.2673 248.959 -12.9266 248.959 27.5691 248.959C27.5691 240.871 27.5691 232.888 27.5691 224.752C56.2164 224.752 84.709 224.752 113.222 224.752C113.222 196.431 113.222 168.266 113.222 140.07C109.555 140.07 105.986 140.07 102.262 140.07C102.262 164.57 102.262 188.977 102.262 213.433C97.7194 213.433 93.3329 213.433 88.7917 213.433C88.7917 205.365 88.7917 197.381 88.7917 189.245C76.4876 189.245 64.3374 189.245 52.1106 189.245C52.1106 184.621 52.1106 180.153 52.1106 175.485C64.3665 175.485 76.546 175.485 88.6887 175.485C88.6887 171.715 88.6887 168.145 88.6887 164.603C72.7468 164.603 56.9202 164.603 41.001 164.603C41.001 165.2 41.001 165.686 41.001 166.173C41.001 172.26 41.0009 178.348 41.001 184.436C41.001 189.298 40.9938 194.16 41.0123 199.022C41.0142 199.521 40.727 200.263 41.9232 200.281Z" fill="white"/>
<path d="M66.2507 78.9363C61.3197 78.9363 56.5113 78.9363 51.6235 78.9363C51.6235 66.1411 51.6235 53.5019 51.6235 40.7781C64.4117 40.7781 77.1327 40.7781 90.0081 40.7781C90.0081 56.987 90.0081 73.1406 90.0081 89.3853C93.5675 89.3853 96.9734 89.3853 100.534 89.3853C100.534 65.0275 100.534 40.7029 100.534 16.2791C105.237 16.2791 109.787 16.2791 114.441 16.2791C114.441 45.271 114.441 74.2528 114.441 103.343C85.3793 103.343 56.316 103.343 27.0967 103.343C27.0967 95.2938 27.0967 87.2292 27.0967 79.0511C23.5374 79.0511 20.1308 79.0511 16.5254 79.0511C16.5254 95.1974 16.5254 111.38 16.5254 127.641C-20.9064 127.641 -58.1405 127.641 -95.5398 127.641C-95.5398 126.439 -95.5398 125.308 -95.5398 124.176C-95.5398 121.276 -95.4869 118.374 -95.5647 115.475C-95.5974 114.258 -95.151 113.969 -94.0063 113.971C-76.7653 114.001 -59.5243 113.992 -42.2832 113.992C-27.902 113.992 -13.5209 113.992 0.860274 113.992C1.3436 113.992 1.82692 113.992 2.46391 113.992C2.46391 97.7267 2.46391 81.5731 2.46391 65.3141C15.3387 65.3141 28.0598 65.3141 40.9362 65.3141C40.9362 73.2863 40.9362 81.2692 40.9362 89.3642C52.7494 89.3642 64.4084 89.3642 76.1847 89.3642C76.1847 85.9915 76.1847 82.5854 76.1847 78.9363C72.9435 78.9363 69.6584 78.9363 66.2507 78.9363ZM59.9995 41.9197C57.6942 41.9197 55.3888 41.9197 53.129 41.9197C53.129 53.9015 53.129 65.6416 53.129 77.5368C61.3899 77.5368 69.5358 77.5368 77.6622 77.5368C77.6622 81.9985 77.6622 86.3032 77.6622 90.5974C64.9128 90.5974 52.2738 90.5974 39.4809 90.5974C39.4809 82.5101 39.4809 74.5274 39.4809 66.5315C27.5859 66.5315 15.8455 66.5315 3.95134 66.5315C3.95134 82.863 3.95134 99.0979 3.95134 115.485C-28.7791 115.485 -61.3556 115.485 -94.0731 115.485C-94.0731 117.422 -94.0731 119.21 -94.0731 120.997C-94.0731 122.781 -94.0731 124.565 -94.0731 126.416C-57.6518 126.416 -21.3985 126.416 15.052 126.416C15.052 110.157 15.052 93.9748 15.052 77.8235C19.6369 77.8235 24.0237 77.8235 28.5625 77.8235C28.5625 85.9184 28.5625 93.9012 28.5625 101.876C56.7993 101.876 84.8816 101.876 112.975 101.876C112.975 73.6901 112.975 45.6078 112.975 17.4998C109.307 17.4998 105.737 17.4998 102.016 17.4998C102.016 41.9177 102.016 66.2416 102.016 90.6169C97.4757 90.6169 93.0895 90.6169 88.5497 90.6169C88.5497 74.3783 88.5497 58.2252 88.5497 41.9197C79.0126 41.9197 69.6286 41.9197 59.9995 41.9197Z" fill="white"/>
<path d="M125.084 23.5338C125.084 20.9721 125.084 18.533 125.084 16.0017C125.671 15.9746 126.108 15.9374 126.546 15.9368C130.182 15.9321 133.818 15.9323 137.453 15.935C139.055 15.9361 139.055 15.9403 139.054 17.5945C139.054 17.8805 139.052 18.1665 139.052 18.4524C139.053 95.3365 139.053 172.221 139.054 249.105C139.054 249.59 139.054 250.075 139.054 250.671C134.405 250.671 129.857 250.671 125.084 250.671C125.084 175.011 125.084 99.3335 125.084 23.5338ZM137.587 79.3039C137.587 58.6985 137.587 38.093 137.587 17.519C133.783 17.519 130.213 17.519 126.652 17.519C126.652 94.8164 126.652 172 126.652 249.219C130.317 249.219 133.886 249.219 137.587 249.219C137.587 192.601 137.587 136.075 137.587 79.3039Z" fill="white"/>
<path d="M-23.7169 187.78C-18.9495 187.78 -14.3048 187.78 -9.50765 187.78C-9.50765 179.564 -9.50765 171.5 -9.50765 163.351C-4.80521 163.351 -0.256413 163.351 4.38306 163.351C4.38306 176.046 4.38306 188.684 4.38306 201.586C-24.1432 201.586 -52.6247 201.586 -81.2155 201.586C-81.2155 205.253 -81.2155 208.659 -81.2155 212.294C-80.73 212.294 -80.221 212.294 -79.712 212.294C-64.4336 212.294 -49.1552 212.294 -33.8768 212.294C-32.179 212.295 -32.0625 212.393 -32.0561 214.068C-32.0434 217.377 -32.0449 220.686 -32.0552 223.995C-32.0602 225.598 -32.7419 226.264 -34.3843 226.265C-54.238 226.269 -74.0917 226.262 -93.9455 226.283C-94.9267 226.284 -95.319 226.021 -95.3165 224.972C-95.2879 212.921 -95.2986 200.87 -95.295 188.819C-95.2949 188.539 -95.2515 188.259 -95.2158 187.829C-87.1229 187.829 -79.059 187.829 -70.8424 187.829C-70.8424 179.613 -70.8424 171.549 -70.8424 163.376C-57.969 163.376 -45.2487 163.376 -32.3733 163.376C-32.3733 171.411 -32.3733 179.475 -32.3733 187.78C-29.4298 187.78 -26.6347 187.78 -23.7169 187.78ZM-66.7396 200.282C-43.5335 200.18 -20.3275 200.078 2.91487 199.976C2.91487 188.108 2.91487 176.369 2.91487 164.576C-0.743117 164.576 -4.31188 164.576 -8.03443 164.576C-8.03443 172.804 -8.03443 180.949 -8.03443 189.133C-16.6886 189.133 -25.188 189.133 -33.8399 189.133C-33.8399 180.87 -33.8399 172.725 -33.8399 164.598C-45.7323 164.598 -57.4711 164.598 -69.3626 164.598C-69.3626 172.848 -69.3626 180.992 -69.3626 189.289C-77.578 189.289 -85.6413 189.289 -93.7391 189.289C-93.7391 201.181 -93.7391 212.919 -93.7391 224.716C-73.6593 224.716 -53.669 224.716 -33.6423 224.716C-33.6423 221.037 -33.6423 217.44 -33.6423 213.765C-34.2904 213.765 -34.8189 213.765 -35.3474 213.765C-50.624 213.765 -65.9006 213.766 -81.1773 213.764C-82.7866 213.764 -82.7902 213.759 -82.7916 212.119C-82.7943 208.893 -82.7926 205.666 -82.7927 202.439C-82.7927 201.841 -82.7927 201.242 -82.7927 200.282C-77.4074 200.282 -72.196 200.282 -66.7396 200.282Z" fill="white"/>
<path d="M-18.5689 29.9074C-44.1786 29.9074 -69.6658 29.9074 -95.2257 29.9074C-95.2257 25.2386 -95.2257 20.6483 -95.2257 15.9961C-45.6955 15.9961 3.80784 15.9961 53.4071 15.9961C53.4071 20.5598 53.4071 25.15 53.4071 29.9074C29.4807 29.9074 5.5172 29.9074 -18.5689 29.9074ZM-19.9172 17.4054C-44.5283 17.4054 -69.1395 17.4054 -93.746 17.4054C-93.746 21.1604 -93.746 24.7696 -93.746 28.3641C-45.1245 28.3641 3.41525 28.3641 51.9506 28.3641C51.9506 24.6816 51.9506 21.0725 51.9506 17.4054C28.0219 17.4054 4.17495 17.4054 -19.9172 17.4054Z" fill="#CDAD80"/>
<path d="M96.4033 127.965C73.3271 127.965 50.3734 127.965 27.3464 127.965C27.3464 123.298 27.3464 118.708 27.3464 114.055C56.4456 114.055 85.5201 114.055 114.692 114.055C114.692 118.614 114.692 123.204 114.692 127.965C108.663 127.965 102.594 127.965 96.4033 127.965ZM113.318 117.078C113.318 116.563 113.318 116.048 113.318 115.53C85.0567 115.53 56.9445 115.53 28.8189 115.53C28.8189 119.206 28.8189 122.814 28.8189 126.426C57.0066 126.426 85.1188 126.426 113.318 126.426C113.318 123.346 113.318 120.332 113.318 117.078Z" fill="#CDAD80"/>
<path d="M-40.3867 138.751C-25.3999 138.751 -10.5357 138.751 4.40138 138.751C4.40138 143.339 4.40138 147.847 4.40138 152.417C-20.6195 152.417 -45.6085 152.417 -70.6909 152.417C-70.6909 147.935 -70.6909 143.427 -70.6909 138.751C-60.6541 138.751 -50.5817 138.751 -40.3867 138.751ZM-3.9829 151.008C-1.67317 151.008 0.636552 151.008 2.91496 151.008C2.91496 147.319 2.91496 143.792 2.91496 140.303C-21.2001 140.303 -45.2263 140.303 -69.2248 140.303C-69.2248 143.911 -69.2248 147.438 -69.2248 151.008C-47.5002 151.008 -25.8641 151.008 -3.9829 151.008Z" fill="#CDAD80"/>
<path d="M114.789 239.308C114.789 243.09 114.789 246.755 114.789 250.478C89.6698 250.478 64.6567 250.478 39.5885 250.478C39.5885 245.943 39.5885 241.464 39.5885 236.809C40.05 236.809 40.5204 236.809 40.9908 236.809C64.8032 236.809 88.6157 236.809 112.428 236.809C114.487 236.809 114.786 237.11 114.789 239.308ZM109.762 238.279C86.8722 238.279 63.9821 238.279 41.0746 238.279C41.0746 242.019 41.0746 245.628 41.0746 249.245C65.1747 249.245 89.2011 249.245 113.245 249.245C113.245 245.57 113.245 241.962 113.245 238.279C112.117 238.279 111.062 238.279 109.762 238.279Z" fill="#CDAD80"/>
<path d="M28.9888 154.685C28.9888 166.323 28.9888 177.837 28.9888 189.424C24.3193 189.424 19.7289 189.424 15.077 189.424C15.077 172.495 15.077 155.594 15.077 138.6C19.6405 138.6 24.2313 138.6 28.9888 138.6C28.9888 143.896 28.9888 149.229 28.9888 154.685ZM27.5181 178.587C27.5181 165.745 27.5181 152.903 27.5181 140.052C23.7727 140.052 20.1652 140.052 16.5554 140.052C16.5554 156.065 16.5554 172.002 16.5554 187.949C20.232 187.949 23.8394 187.949 27.5181 187.949C27.5181 184.86 27.5181 181.846 27.5181 178.587Z" fill="#CDAD80"/>
<path d="M43.2083 138.506C58.9299 138.506 74.5291 138.506 90.2014 138.506C90.2014 143.178 90.2014 147.768 90.2014 152.418C73.3527 152.418 56.5349 152.418 39.6237 152.418C39.6237 147.852 39.6237 143.262 39.6237 138.506C40.7522 138.506 41.919 138.506 43.2083 138.506ZM42.8572 139.977C42.2613 139.977 41.6653 139.977 41.0837 139.977C41.0837 143.737 41.0837 147.344 41.0837 150.932C57.0224 150.932 72.8785 150.932 88.7205 150.932C88.7205 147.247 88.7205 143.639 88.7205 139.977C73.4574 139.977 58.2775 139.977 42.8572 139.977Z" fill="#CDAD80"/>
<path d="M41.2459 42.9087C41.2459 46.7803 41.2459 50.531 41.2459 54.3513C28.3971 54.3513 15.6363 54.3513 2.81702 54.3513C2.81702 49.7539 2.81702 45.1926 2.81702 40.5399C15.5607 40.5399 28.3217 40.5399 41.2459 40.5399C41.2459 41.2675 41.2459 42.0276 41.2459 42.9087ZM20.5315 41.9197C15.1211 41.9197 9.71078 41.9197 4.31008 41.9197C4.31008 45.6774 4.31008 49.2842 4.31008 52.8758C16.1617 52.8758 27.9323 52.8758 39.6945 52.8758C39.6945 49.1934 39.6945 45.5865 39.6945 41.9197C33.3349 41.9197 27.0557 41.9197 20.5315 41.9197Z" fill="#CDAD80"/>
<path d="M63.7991 18.3961C63.7991 17.5516 63.7991 16.8277 63.7991 16.0042C64.3747 15.9765 64.8107 15.9373 65.2468 15.9371C72.9634 15.9334 80.6801 15.9335 88.3968 15.9352C90.0257 15.9355 90.0253 15.9398 90.0252 17.5651C90.0249 21.5214 90.0251 25.4776 90.0251 29.548C81.2737 29.548 72.6142 29.548 63.7991 29.548C63.7991 25.8411 63.7991 22.1789 63.7991 18.3961ZM88.5585 27.2827C88.5585 24.0336 88.5585 20.7844 88.5585 17.4851C80.7258 17.4851 73.0766 17.4851 65.3861 17.4851C65.3861 21.1615 65.3861 24.7571 65.3861 28.4321C72.9261 28.4321 80.3508 28.4268 87.7754 28.4407C88.4728 28.442 88.5956 28.0749 88.5585 27.2827Z" fill="white"/>
<path d="M3.20346 212.539C3.67163 212.572 4.02262 212.604 4.41879 212.641C4.41879 217.017 4.41879 221.289 4.41879 225.67C-4.25357 225.67 -12.8818 225.67 -21.6311 225.67C-21.6311 221.368 -21.6311 217.039 -21.6311 212.539C-13.3727 212.539 -5.14319 212.539 3.20346 212.539ZM-0.552363 224.551C0.610107 224.551 1.77258 224.551 2.89278 224.551C2.89278 220.828 2.89278 217.342 2.89278 213.862C-4.86678 213.862 -12.5151 213.862 -20.1958 213.862C-20.1958 217.445 -20.1958 220.929 -20.1958 224.551C-13.6708 224.551 -7.23396 224.551 -0.552363 224.551Z" fill="white"/>
<path d="M77.5273 60.5505C77.5273 62.4578 77.5273 64.2426 77.5273 66.1062C73.0744 66.1062 68.7724 66.1062 64.3798 66.1062C64.3798 61.8333 64.3798 57.6129 64.3798 53.2669C64.8351 53.2426 65.2679 53.2063 65.7013 53.1983C68.9568 53.1383 72.2124 53.0841 75.468 53.0276C76.2815 53.0135 77.5153 54.1987 77.5219 55.0398C77.5361 56.8358 77.5269 58.6319 77.5273 60.5505ZM66.6679 54.6674C66.3174 54.6998 65.9669 54.7322 65.6058 54.7656C65.6058 58.1913 65.6058 61.5102 65.6058 64.8844C69.097 64.8844 72.4973 64.8844 76.039 64.8844C76.039 61.6415 76.062 58.4747 75.9929 55.31C75.9877 55.0719 75.3296 54.6541 74.97 54.6487C72.2819 54.6082 69.5925 54.6507 66.6679 54.6674Z" fill="white"/>
</g>
<defs>
<clipPath id="clip0_155_30">
<rect width="142" height="265" fill="white"/>
</clipPath>
</defs>
</svg>
