<svg width="74" height="74" viewBox="0 0 74 74" fill="none" xmlns="http://www.w3.org/2000/svg">
<path d="M61.1021 12.8146H63.6752V61.7178H61.1021V12.8146Z" fill="white"/>
<path d="M55.9559 12.8146H58.529V30.8263H55.9559V12.8146Z" fill="white"/>
<path d="M50.8097 30.8263V28.2532H58.529V30.8263H50.8097Z" fill="white"/>
<path d="M45.6635 25.6801V23.107H53.3828V25.6801H45.6635Z" fill="white"/>
<path d="M50.8097 17.9608H53.3828V25.6801H50.8097V17.9608Z" fill="white"/>
<path d="M45.6635 20.5339V17.9608H53.3828V20.5339H45.6635Z" fill="white"/>
<path d="M48.2366 25.6801H45.6635V17.9608H48.2366V25.6801Z" fill="white"/>
<path d="M50.8523 25.3247H53.4112V30.7552H50.8523V25.3247Z" fill="white"/>
<path d="M51.1367 28.2532V30.8263H40.5173V28.2532H51.1367Z" fill="white"/>
<path d="M53.3828 12.8146V15.3877H48.2366V12.8146H53.3828Z" fill="white"/>
<path d="M35.3711 23.107H37.9442V35.9725H35.3711V23.107Z" fill="white"/>
<path d="M14.772 35.9725V33.3994H37.9442V35.9725H14.772Z" fill="white"/>
<path d="M40.5173 23.107H43.0904V30.8263H40.5173V23.107Z" fill="white"/>
<path d="M35.3711 25.6801V23.107H43.0904V25.6801H35.3711Z" fill="white"/>
<path d="M30.2106 17.9608H32.7837V30.8263H30.2106V17.9608Z" fill="white"/>
<path d="M25.0645 23.107H27.6376V30.8263H25.0645V23.107Z" fill="white"/>
<path d="M14.772 30.8263V28.2532H27.6375V30.8263H14.772Z" fill="white"/>
<path d="M14.772 23.107H17.3451V30.8263H14.772V23.107Z" fill="white"/>
<path d="M22.4913 23.107V25.6801H14.772V23.107H22.4913Z" fill="white"/>
<path d="M27.6376 17.9608V20.5339H25.0645V17.9608H27.6376Z" fill="white"/>
<path d="M40.5172 35.9725V33.3994H58.5289V35.9725H40.5172Z" fill="#CDAD80"/>
<path d="M14.772 15.3877V12.8146H45.6635V15.3877H14.772Z" fill="#CDAD80"/>
<path d="M35.371 20.5339V17.9608H43.0903V20.5339H35.371Z" fill="#CDAD80"/>
<path d="M25.0644 15.3877V12.8146H27.6375V15.3877H25.0644Z" fill="#CDAD80"/>
<path d="M22.4913 17.9608V20.5339H14.772V17.9608H22.4913Z" fill="#CDAD80"/>
<path d="M17.3451 46.2791H14.772V38.5598H17.3451V46.2791Z" fill="#CDAD80"/>
<path d="M58.529 56.5716H55.9559V38.5598H58.529V56.5716Z" fill="white"/>
<path d="M58.5289 53.9984V56.5715H50.8096V53.9984H58.5289Z" fill="white"/>
<path d="M53.3827 56.5715H50.8096V48.8522H53.3827V56.5715Z" fill="white"/>
<path d="M53.3827 48.8522V51.4253H43.0903V48.8522H53.3827Z" fill="white"/>
<path d="M45.6634 51.4253H43.0903V43.706H45.6634V51.4253Z" fill="white"/>
<path d="M43.0903 46.2791V43.706H53.3827V46.2791H43.0903Z" fill="white"/>
<path d="M37.9442 56.5715V53.9984H53.3828V56.5715H37.9442Z" fill="white"/>
<path d="M37.9442 51.4254H40.5173V61.7178H37.9442V51.4254Z" fill="white"/>
<path d="M40.5173 59.1447V61.7178H14.772V59.1447H40.5173Z" fill="white"/>
<path d="M35.371 51.4253H32.7837V43.706H35.371V51.4253Z" fill="white"/>
<path d="M27.6375 51.4253V48.8522H35.371V51.4253H27.6375Z" fill="white"/>
<path d="M30.2106 56.5715V53.9984H35.3711V56.5715H30.2106Z" fill="white"/>
<path d="M25.0644 43.706H27.6375V51.4253H25.0644V43.706Z" fill="white"/>
<path d="M19.9182 46.2791V43.706H27.6375V46.2791H19.9182Z" fill="white"/>
<path d="M22.4913 51.4253H19.9182V43.706H22.4913V51.4253Z" fill="white"/>
<path d="M19.9182 51.4253V48.8522H27.6375V51.4253H19.9182Z" fill="white"/>
<path d="M14.772 51.4253V48.8522H22.4913V51.4253H14.772Z" fill="white"/>
<path d="M17.3451 56.5715H14.772V48.8522H17.3451V56.5715Z" fill="white"/>
<path d="M14.7436 56.5715V53.9984H27.6802V56.5715H14.7436Z" fill="white"/>
<path d="M19.9182 41.1329V38.5598H35.371V41.1329H19.9182Z" fill="#CDAD80"/>
<path d="M43.0903 41.1329V38.5598H53.3827V41.1329H43.0903Z" fill="#CDAD80"/>
<path d="M12.1989 61.7178H9.62579V12.8146H12.1989V61.7178Z" fill="#CDAD80"/>
<path d="M40.5173 48.8523H37.9442V38.5598H40.5173V48.8523Z" fill="#CDAD80"/>
<path d="M43.0903 61.7178V59.1447H58.5289V61.7178H43.0903Z" fill="#CDAD80"/>
</svg>
