<svg width="265" height="265" viewBox="0 0 265 265" fill="none" xmlns="http://www.w3.org/2000/svg">
<path d="M27.7052 246.613C27.7054 243.672 27.7278 240.853 27.6928 238.034C27.6819 237.156 27.956 236.716 28.8837 236.804C29.2481 236.838 29.6186 236.809 29.9863 236.809C65.3684 236.809 100.75 236.809 136.133 236.809C136.696 236.809 137.26 236.809 137.978 236.809C137.978 224.536 137.978 212.386 137.978 200.137C142.682 200.137 147.232 200.137 151.939 200.137C151.939 204.126 151.939 208.106 151.939 212.189C167.758 212.189 183.421 212.189 199.193 212.189C199.193 208.791 199.193 205.384 199.193 201.817C187.061 201.817 174.911 201.817 162.648 201.817C162.648 188.938 162.648 176.217 162.648 163.38C179.348 163.38 196.073 163.38 212.914 163.38C212.914 167.816 212.914 172.285 212.914 176.953C200.856 176.953 188.758 176.953 176.583 176.953C176.583 180.639 176.583 184.127 176.583 187.769C188.804 187.769 200.954 187.769 213.258 187.769C213.258 195.987 213.258 204.052 213.258 212.205C216.818 212.205 220.224 212.205 223.786 212.205C223.786 187.756 223.786 163.349 223.786 138.847C228.489 138.847 233.039 138.847 237.714 138.847C237.738 139.301 237.78 139.735 237.78 140.168C237.784 168.36 237.776 196.551 237.812 224.742C237.814 226.042 237.352 226.29 236.171 226.289C208.756 226.261 181.342 226.267 153.927 226.267C153.358 226.267 152.789 226.267 152.065 226.267C152.065 234.333 152.065 242.316 152.065 250.417C110.59 250.417 69.2706 250.417 27.7052 250.417C27.7052 249.222 27.7052 247.979 27.7052 246.613ZM164.923 200.281C176.363 200.281 187.802 200.295 199.241 200.261C200.389 200.258 200.83 200.554 200.795 201.769C200.713 204.545 200.767 207.325 200.766 210.104C200.766 211.194 200.766 212.283 200.766 213.438C183.956 213.438 167.313 213.438 150.515 213.438C150.515 209.46 150.515 205.562 150.515 201.627C146.76 201.627 143.162 201.627 139.41 201.627C139.41 213.896 139.41 226.046 139.41 238.35C102.59 238.35 65.9262 238.35 29.282 238.35C29.282 241.995 29.282 245.483 29.282 248.959C69.7327 248.959 110.073 248.959 150.569 248.959C150.569 240.871 150.569 232.888 150.569 224.752C179.216 224.752 207.709 224.752 236.222 224.752C236.222 196.431 236.222 168.266 236.222 140.07C232.555 140.07 228.986 140.07 225.262 140.07C225.262 164.57 225.262 188.977 225.262 213.433C220.719 213.433 216.333 213.433 211.792 213.433C211.792 205.365 211.792 197.381 211.792 189.245C199.488 189.245 187.337 189.245 175.111 189.245C175.111 184.621 175.111 180.153 175.111 175.485C187.366 175.485 199.546 175.485 211.689 175.485C211.689 171.715 211.689 168.145 211.689 164.603C195.747 164.603 179.92 164.603 164.001 164.603C164.001 165.2 164.001 165.686 164.001 166.173C164.001 172.26 164.001 178.348 164.001 184.436C164.001 189.298 163.994 194.16 164.012 199.022C164.014 199.521 163.727 200.263 164.923 200.281Z" fill="#404C6E"/>
<path d="M189.251 78.9363C184.32 78.9363 179.511 78.9363 174.623 78.9363C174.623 66.1411 174.623 53.5019 174.623 40.7781C187.412 40.7781 200.133 40.7781 213.008 40.7781C213.008 56.987 213.008 73.1406 213.008 89.3853C216.567 89.3853 219.973 89.3853 223.534 89.3853C223.534 65.0275 223.534 40.7029 223.534 16.2791C228.237 16.2791 232.787 16.2791 237.441 16.2791C237.441 45.271 237.441 74.2528 237.441 103.343C208.379 103.343 179.316 103.343 150.097 103.343C150.097 95.2938 150.097 87.2292 150.097 79.0511C146.537 79.0511 143.131 79.0511 139.525 79.0511C139.525 95.1974 139.525 111.38 139.525 127.641C102.094 127.641 64.8595 127.641 27.4602 127.641C27.4602 126.439 27.4602 125.308 27.4602 124.176C27.4602 121.276 27.5131 118.374 27.4353 115.475C27.4026 114.258 27.849 113.969 28.9937 113.971C46.2347 114.001 63.4757 113.992 80.7168 113.992C95.098 113.992 109.479 113.992 123.86 113.992C124.344 113.992 124.827 113.992 125.464 113.992C125.464 97.7267 125.464 81.5731 125.464 65.3141C138.339 65.3141 151.06 65.3141 163.936 65.3141C163.936 73.2863 163.936 81.2692 163.936 89.3642C175.749 89.3642 187.408 89.3642 199.185 89.3642C199.185 85.9915 199.185 82.5854 199.185 78.9363C195.944 78.9363 192.658 78.9363 189.251 78.9363ZM183 41.9197C180.694 41.9197 178.389 41.9197 176.129 41.9197C176.129 53.9015 176.129 65.6416 176.129 77.5368C184.39 77.5368 192.536 77.5368 200.662 77.5368C200.662 81.9985 200.662 86.3032 200.662 90.5974C187.913 90.5974 175.274 90.5974 162.481 90.5974C162.481 82.5101 162.481 74.5274 162.481 66.5315C150.586 66.5315 138.846 66.5315 126.951 66.5315C126.951 82.863 126.951 99.0979 126.951 115.485C94.2209 115.485 61.6444 115.485 28.9269 115.485C28.9269 117.422 28.9269 119.21 28.9269 120.997C28.9269 122.781 28.9269 124.565 28.9269 126.416C65.3482 126.416 101.601 126.416 138.052 126.416C138.052 110.157 138.052 93.9748 138.052 77.8235C142.637 77.8235 147.024 77.8235 151.562 77.8235C151.562 85.9184 151.562 93.9012 151.562 101.876C179.799 101.876 207.882 101.876 235.975 101.876C235.975 73.6901 235.975 45.6078 235.975 17.4998C232.307 17.4998 228.737 17.4998 225.016 17.4998C225.016 41.9177 225.016 66.2416 225.016 90.6169C220.476 90.6169 216.09 90.6169 211.55 90.6169C211.55 74.3783 211.55 58.2252 211.55 41.9197C202.013 41.9197 192.629 41.9197 183 41.9197Z" fill="#404C6E"/>
<path d="M17.1599 123.062C17.1599 165.661 17.1599 208.138 17.1599 250.698C12.514 250.698 7.92423 250.698 3.2605 250.698C3.2605 172.504 3.2605 94.3023 3.2605 16.0176C7.83249 16.0176 12.4223 16.0176 17.1599 16.0176C17.1599 51.6535 17.1599 87.2964 17.1599 123.062ZM4.65791 162.407C4.65791 191.351 4.65791 220.295 4.65791 249.226C8.41821 249.226 12.0278 249.226 15.6141 249.226C15.6141 171.92 15.6141 94.699 15.6141 17.49C11.9288 17.49 8.3193 17.49 4.65791 17.49C4.65791 65.7705 4.65791 113.966 4.65791 162.407Z" fill="#CDAD80"/>
<path d="M248.084 23.5338C248.084 20.9721 248.084 18.533 248.084 16.0017C248.671 15.9746 249.108 15.9374 249.546 15.9368C253.182 15.9321 256.818 15.9323 260.453 15.935C262.055 15.9361 262.055 15.9403 262.054 17.5945C262.054 17.8805 262.052 18.1665 262.052 18.4524C262.053 95.3365 262.053 172.221 262.054 249.105C262.054 249.59 262.054 250.075 262.054 250.671C257.405 250.671 252.857 250.671 248.084 250.671C248.084 175.011 248.084 99.3335 248.084 23.5338ZM260.587 79.3039C260.587 58.6985 260.587 38.093 260.587 17.519C256.783 17.519 253.213 17.519 249.652 17.519C249.652 94.8164 249.652 172 249.652 249.219C253.317 249.219 256.886 249.219 260.587 249.219C260.587 192.601 260.587 136.075 260.587 79.3039Z" fill="#404C6D"/>
<path d="M99.2831 187.78C104.05 187.78 108.695 187.78 113.492 187.78C113.492 179.564 113.492 171.5 113.492 163.351C118.195 163.351 122.744 163.351 127.383 163.351C127.383 176.046 127.383 188.684 127.383 201.586C98.8568 201.586 70.3753 201.586 41.7845 201.586C41.7845 205.253 41.7845 208.659 41.7845 212.294C42.27 212.294 42.779 212.294 43.288 212.294C58.5664 212.294 73.8448 212.294 89.1232 212.294C90.821 212.295 90.9375 212.393 90.9439 214.068C90.9566 217.377 90.9551 220.686 90.9448 223.995C90.9398 225.598 90.2581 226.264 88.6157 226.265C68.762 226.269 48.9083 226.262 29.0545 226.283C28.0733 226.284 27.681 226.021 27.6835 224.972C27.7121 212.921 27.7014 200.87 27.705 188.819C27.7051 188.539 27.7485 188.259 27.7842 187.829C35.8771 187.829 43.941 187.829 52.1576 187.829C52.1576 179.613 52.1576 171.549 52.1576 163.376C65.031 163.376 77.7513 163.376 90.6267 163.376C90.6267 171.411 90.6267 179.475 90.6267 187.78C93.5702 187.78 96.3653 187.78 99.2831 187.78ZM56.2604 200.282C79.4665 200.18 102.672 200.078 125.915 199.976C125.915 188.108 125.915 176.369 125.915 164.576C122.257 164.576 118.688 164.576 114.966 164.576C114.966 172.804 114.966 180.949 114.966 189.133C106.311 189.133 97.812 189.133 89.1601 189.133C89.1601 180.87 89.1601 172.725 89.1601 164.598C77.2677 164.598 65.5289 164.598 53.6374 164.598C53.6374 172.848 53.6374 180.992 53.6374 189.289C45.422 189.289 37.3587 189.289 29.2609 189.289C29.2609 201.181 29.2609 212.919 29.2609 224.716C49.3407 224.716 69.331 224.716 89.3577 224.716C89.3577 221.037 89.3577 217.44 89.3577 213.765C88.7096 213.765 88.1811 213.765 87.6526 213.765C72.376 213.765 57.0994 213.766 41.8227 213.764C40.2134 213.764 40.2098 213.759 40.2084 212.119C40.2057 208.893 40.2074 205.666 40.2073 202.439C40.2073 201.841 40.2073 201.242 40.2073 200.282C45.5926 200.282 50.804 200.282 56.2604 200.282Z" fill="#404C6E"/>
<path d="M104.431 29.9074C78.8214 29.9074 53.3342 29.9074 27.7743 29.9074C27.7743 25.2386 27.7743 20.6483 27.7743 15.9961C77.3045 15.9961 126.808 15.9961 176.407 15.9961C176.407 20.5598 176.407 25.15 176.407 29.9074C152.481 29.9074 128.517 29.9074 104.431 29.9074ZM103.083 17.4054C78.4717 17.4054 53.8605 17.4054 29.254 17.4054C29.254 21.1604 29.254 24.7696 29.254 28.3641C77.8755 28.3641 126.415 28.3641 174.951 28.3641C174.951 24.6816 174.951 21.0725 174.951 17.4054C151.022 17.4054 127.175 17.4054 103.083 17.4054Z" fill="#CDAD80"/>
<path d="M62.0213 89.4771C66.8703 89.4771 71.5967 89.4771 76.4752 89.4771C76.4752 81.3436 76.4752 73.3613 76.4752 65.2944C81.1772 65.2944 85.726 65.2944 90.3649 65.2944C90.3649 77.9056 90.3649 90.4614 90.3649 103.112C69.5127 103.112 48.7049 103.112 27.799 103.112C27.799 90.4471 27.799 77.8088 27.799 65.0665C40.4475 65.0665 53.0855 65.0665 65.8336 65.0665C65.8336 69.6113 65.8336 74.1606 65.8336 78.866C57.7873 78.866 49.7237 78.866 41.5452 78.866C41.5452 82.4241 41.5452 85.8301 41.5452 89.4771C48.3032 89.4771 55.101 89.4771 62.0213 89.4771ZM46.4547 101.979C60.6061 101.979 74.7574 101.979 88.8737 101.979C88.8737 90.0024 88.8737 78.2627 88.8737 66.5436C85.1897 66.5436 81.6201 66.5436 77.899 66.5436C77.899 74.6342 77.899 82.6165 77.899 90.6006C65.1886 90.6006 52.6327 90.6006 40.0615 90.6006C40.0615 86.193 40.0615 81.8888 40.0615 77.4298C48.2226 77.4298 56.2862 77.4298 64.3808 77.4298C64.3808 73.7041 64.3808 70.135 64.3808 66.5209C52.5492 66.5209 40.8096 66.5209 29.0089 66.5209C29.0089 78.3472 29.0089 90.0867 29.0089 101.979C34.796 101.979 40.5028 101.979 46.4547 101.979Z" fill="#404C6E"/>
<path d="M219.403 127.965C196.327 127.965 173.373 127.965 150.346 127.965C150.346 123.298 150.346 118.708 150.346 114.055C179.446 114.055 208.52 114.055 237.692 114.055C237.692 118.614 237.692 123.204 237.692 127.965C231.663 127.965 225.594 127.965 219.403 127.965ZM236.318 117.078C236.318 116.563 236.318 116.048 236.318 115.53C208.057 115.53 179.944 115.53 151.819 115.53C151.819 119.206 151.819 122.814 151.819 126.426C180.007 126.426 208.119 126.426 236.318 126.426C236.318 123.346 236.318 120.332 236.318 117.078Z" fill="#CDAD80"/>
<path d="M82.6133 138.751C97.6001 138.751 112.464 138.751 127.401 138.751C127.401 143.339 127.401 147.847 127.401 152.417C102.381 152.417 77.3915 152.417 52.3091 152.417C52.3091 147.935 52.3091 143.427 52.3091 138.751C62.3459 138.751 72.4183 138.751 82.6133 138.751ZM119.017 151.008C121.327 151.008 123.637 151.008 125.915 151.008C125.915 147.319 125.915 143.792 125.915 140.303C101.8 140.303 77.7737 140.303 53.7752 140.303C53.7752 143.911 53.7752 147.438 53.7752 151.008C75.4998 151.008 97.1359 151.008 119.017 151.008Z" fill="#CDAD80"/>
<path d="M237.789 239.308C237.789 243.09 237.789 246.755 237.789 250.478C212.67 250.478 187.657 250.478 162.589 250.478C162.589 245.943 162.589 241.464 162.589 236.809C163.05 236.809 163.52 236.809 163.991 236.809C187.803 236.809 211.616 236.809 235.428 236.809C237.487 236.809 237.786 237.11 237.789 239.308ZM232.762 238.279C209.872 238.279 186.982 238.279 164.075 238.279C164.075 242.019 164.075 245.628 164.075 249.245C188.175 249.245 212.201 249.245 236.245 249.245C236.245 245.57 236.245 241.962 236.245 238.279C235.117 238.279 234.062 238.279 232.762 238.279Z" fill="#CDAD80"/>
<path d="M111.538 40.4478C112.71 40.4478 113.759 40.4478 114.887 40.4478C114.887 61.4071 114.887 82.2069 114.887 103.107C110.3 103.107 105.754 103.107 101.105 103.107C101.105 82.2914 101.105 61.4915 101.105 40.4478C104.523 40.4478 107.969 40.4478 111.538 40.4478ZM102.471 56.0153C102.471 71.3049 102.471 86.5946 102.471 101.873C106.261 101.873 109.829 101.873 113.412 101.873C113.412 81.865 113.412 61.9621 113.412 42.0042C109.755 42.0042 106.187 42.0042 102.471 42.0042C102.471 46.6475 102.471 51.2088 102.471 56.0153Z" fill="#3F4B6D"/>
<path d="M151.989 154.685C151.989 166.323 151.989 177.837 151.989 189.424C147.319 189.424 142.729 189.424 138.077 189.424C138.077 172.495 138.077 155.594 138.077 138.6C142.641 138.6 147.231 138.6 151.989 138.6C151.989 143.896 151.989 149.229 151.989 154.685ZM150.518 178.587C150.518 165.745 150.518 152.903 150.518 140.052C146.773 140.052 143.165 140.052 139.555 140.052C139.555 156.065 139.555 172.002 139.555 187.949C143.232 187.949 146.839 187.949 150.518 187.949C150.518 184.86 150.518 181.846 150.518 178.587Z" fill="#CDAD80"/>
<path d="M166.208 138.506C181.93 138.506 197.529 138.506 213.201 138.506C213.201 143.178 213.201 147.768 213.201 152.418C196.353 152.418 179.535 152.418 162.624 152.418C162.624 147.852 162.624 143.262 162.624 138.506C163.752 138.506 164.919 138.506 166.208 138.506ZM165.857 139.977C165.261 139.977 164.665 139.977 164.084 139.977C164.084 143.737 164.084 147.344 164.084 150.932C180.022 150.932 195.878 150.932 211.721 150.932C211.721 147.247 211.721 143.639 211.721 139.977C196.457 139.977 181.277 139.977 165.857 139.977Z" fill="#CDAD80"/>
<path d="M41.6743 162.775C41.6743 167.548 41.6743 172.198 41.6743 176.92C37.002 176.92 32.4121 176.92 27.7617 176.92C27.7617 164.159 27.7617 151.426 27.7617 138.6C32.3266 138.6 36.9169 138.6 41.6743 138.6C41.6743 146.594 41.6743 154.623 41.6743 162.775ZM40.2035 159.221C40.2035 152.831 40.2035 146.441 40.2035 140.056C36.4486 140.056 32.8418 140.056 29.246 140.056C29.246 151.906 29.246 163.677 29.246 175.443C32.9271 175.443 36.5339 175.443 40.2035 175.443C40.2035 170.065 40.2035 164.765 40.2035 159.221Z" fill="#CDAD80"/>
<path d="M66.1886 50.009C66.1886 51.5134 66.1886 52.8954 66.1886 54.3489C53.3448 54.3489 40.5839 54.3489 27.7622 54.3489C27.7622 49.7594 27.7622 45.198 27.7622 40.5426C40.4988 40.5426 53.2599 40.5426 66.1886 40.5426C66.1886 43.6316 66.1886 46.759 66.1886 50.009ZM54.0542 41.9194C45.7867 41.9194 37.5192 41.9194 29.2491 41.9194C29.2491 45.6693 29.2491 49.276 29.2491 52.8796C41.0967 52.8796 52.8673 52.8796 64.6411 52.8796C64.6411 49.2011 64.6411 45.5944 64.6411 41.9194C61.1429 41.9194 57.7211 41.9194 54.0542 41.9194Z" fill="#CDAD80"/>
<path d="M164.246 42.9087C164.246 46.7803 164.246 50.531 164.246 54.3513C151.397 54.3513 138.636 54.3513 125.817 54.3513C125.817 49.7539 125.817 45.1926 125.817 40.5399C138.561 40.5399 151.322 40.5399 164.246 40.5399C164.246 41.2675 164.246 42.0276 164.246 42.9087ZM143.531 41.9197C138.121 41.9197 132.711 41.9197 127.31 41.9197C127.31 45.6774 127.31 49.2842 127.31 52.8758C139.162 52.8758 150.932 52.8758 162.695 52.8758C162.695 49.1934 162.695 45.5865 162.695 41.9197C156.335 41.9197 150.056 41.9197 143.531 41.9197Z" fill="#CDAD80"/>
<path d="M186.799 18.3961C186.799 17.5516 186.799 16.8277 186.799 16.0042C187.375 15.9765 187.811 15.9373 188.247 15.9371C195.963 15.9334 203.68 15.9335 211.397 15.9352C213.026 15.9355 213.025 15.9398 213.025 17.5651C213.025 21.5214 213.025 25.4776 213.025 29.548C204.274 29.548 195.614 29.548 186.799 29.548C186.799 25.8411 186.799 22.1789 186.799 18.3961ZM211.559 27.2827C211.559 24.0336 211.559 20.7844 211.559 17.4851C203.726 17.4851 196.077 17.4851 188.386 17.4851C188.386 21.1615 188.386 24.7571 188.386 28.4321C195.926 28.4321 203.351 28.4268 210.775 28.4407C211.473 28.442 211.596 28.0749 211.559 27.2827Z" fill="#404C6E"/>
<path d="M126.203 212.539C126.672 212.572 127.023 212.604 127.419 212.641C127.419 217.017 127.419 221.289 127.419 225.67C118.746 225.67 110.118 225.67 101.369 225.67C101.369 221.368 101.369 217.039 101.369 212.539C109.627 212.539 117.857 212.539 126.203 212.539ZM122.448 224.551C123.61 224.551 124.773 224.551 125.893 224.551C125.893 220.828 125.893 217.342 125.893 213.862C118.133 213.862 110.485 213.862 102.804 213.862C102.804 217.445 102.804 220.929 102.804 224.551C109.329 224.551 115.766 224.551 122.448 224.551Z" fill="#404C6E"/>
<path d="M76.5261 41.0791C77.1908 40.7972 77.8327 40.483 78.4796 40.4726C81.7014 40.4207 84.9246 40.4408 88.1472 40.4517C90.0255 40.458 90.4569 40.8954 90.4573 42.7243C90.4582 46.4715 90.4576 50.2187 90.4576 54.071C85.8101 54.071 81.2653 54.071 76.5055 54.071C76.5055 49.791 76.5055 45.489 76.5261 41.0791ZM88.9865 51.7969C88.9865 48.5493 88.9865 45.3017 88.9865 41.9997C85.2423 41.9997 81.6773 41.9997 78.0692 41.9997C78.0692 45.6745 78.0692 49.2685 78.0692 52.9463C81.523 52.9463 84.8638 52.9353 88.2044 52.9553C88.902 52.9595 89.0234 52.5884 88.9865 51.7969Z" fill="#404C6E"/>
<path d="M200.527 60.5505C200.527 62.4578 200.527 64.2426 200.527 66.1062C196.074 66.1062 191.772 66.1062 187.38 66.1062C187.38 61.8333 187.38 57.6129 187.38 53.2669C187.835 53.2426 188.268 53.2063 188.701 53.1983C191.957 53.1383 195.212 53.0841 198.468 53.0276C199.281 53.0135 200.515 54.1987 200.522 55.0398C200.536 56.8358 200.527 58.6319 200.527 60.5505ZM189.668 54.6674C189.317 54.6998 188.967 54.7322 188.606 54.7656C188.606 58.1913 188.606 61.5102 188.606 64.8844C192.097 64.8844 195.497 64.8844 199.039 64.8844C199.039 61.6415 199.062 58.4747 198.993 55.31C198.988 55.0719 198.33 54.6541 197.97 54.6487C195.282 54.6082 192.592 54.6507 189.668 54.6674Z" fill="#404C6E"/>
<path d="M64.7218 181.406C64.7218 179.419 64.7218 177.554 64.7218 175.607C69.2503 175.607 73.63 175.607 78.1053 175.607C78.1053 180.032 78.1053 184.412 78.1053 188.9C73.7169 188.9 69.3365 188.9 64.7218 188.9C64.7218 186.46 64.7218 183.994 64.7218 181.406ZM66.1888 181.774C66.1888 183.751 66.1888 185.728 66.1888 187.674C69.8243 187.674 73.2256 187.674 76.635 187.674C76.635 184.085 76.635 180.602 76.635 177.078C73.1386 177.078 69.7377 177.078 66.1888 177.078C66.1888 178.616 66.1888 180.072 66.1888 181.774Z" fill="#404C6E"/>
</svg>
