<svg width="109" height="109" viewBox="0 0 109 109" fill="none" xmlns="http://www.w3.org/2000/svg">
<path d="M91.1385 17.8828H94.9918V91.1172H91.1385V17.8828Z" fill="#404C6E"/>
<path d="M83.4318 17.8828H87.2852V44.8561H83.4318V17.8828Z" fill="#404C6E"/>
<path d="M75.7252 44.8561V41.0027H87.2852V44.8561H75.7252Z" fill="#404C6E"/>
<path d="M68.0186 37.1494V33.2961H79.5785V37.1494H68.0186Z" fill="#404C6E"/>
<path d="M75.7252 25.5895H79.5785V37.1494H75.7252V25.5895Z" fill="#404C6E"/>
<path d="M68.0186 29.4428V25.5895H79.5785V29.4428H68.0186Z" fill="#404C6E"/>
<path d="M71.8719 37.1494H68.0186V25.5895H71.8719V37.1494Z" fill="#404C6E"/>
<path d="M75.7891 36.6172H79.6211V44.7496H75.7891V36.6172Z" fill="#404C6E"/>
<path d="M76.2148 41.0027V44.8561H60.3119V41.0027H76.2148Z" fill="#404C6E"/>
<path d="M79.5785 17.8828V21.7361H71.8719V17.8828H79.5785Z" fill="#404C6E"/>
<path d="M52.6053 33.2961H56.4586V52.5627H52.6053V33.2961Z" fill="#404C6E"/>
<path d="M21.7574 52.5627V48.7094H56.4586V52.5627H21.7574Z" fill="#404C6E"/>
<path d="M60.3119 33.2961H64.1652V44.8561H60.3119V33.2961Z" fill="#404C6E"/>
<path d="M52.6053 37.1494V33.2961H64.1652V37.1494H52.6053Z" fill="#404C6E"/>
<path d="M44.8773 25.5895H48.7307V44.8561H44.8773V25.5895Z" fill="#404C6E"/>
<path d="M37.1707 33.2961H41.024V44.8561H37.1707V33.2961Z" fill="#404C6E"/>
<path d="M21.7574 44.8561V41.0027H41.024V44.8561H21.7574Z" fill="#404C6E"/>
<path d="M21.7574 33.2961H25.6107V44.8561H21.7574V33.2961Z" fill="#404C6E"/>
<path d="M33.3174 33.2961V37.1494H21.7574V33.2961H33.3174Z" fill="#404C6E"/>
<path d="M41.024 25.5895V29.4428H37.1707V25.5895H41.024Z" fill="#404C6E"/>
<path d="M60.3119 52.5627V48.7094H87.2852V52.5627H60.3119Z" fill="#CDAD80"/>
<path d="M21.7574 21.7361V17.8828H68.0186V21.7361H21.7574Z" fill="#CDAD80"/>
<path d="M52.6053 29.4428V25.5894H64.1652V29.4428H52.6053Z" fill="#CDAD80"/>
<path d="M37.1707 21.7361V17.8828H41.024V21.7361H37.1707Z" fill="#CDAD80"/>
<path d="M33.3174 25.5894V29.4428H21.7574V25.5894H33.3174Z" fill="#CDAD80"/>
<path d="M25.6107 67.9973H21.7574V56.4373H25.6107V67.9973Z" fill="#CDAD80"/>
<path d="M87.2852 83.4105H83.4318V56.4373H87.2852V83.4105Z" fill="#404C6E"/>
<path d="M87.2852 79.5572V83.4105H75.7252V79.5572H87.2852Z" fill="#404C6E"/>
<path d="M79.5785 83.4105H75.7252V71.8506H79.5785V83.4105Z" fill="#404C6E"/>
<path d="M79.5785 71.8506V75.7039H64.1652V71.8506H79.5785Z" fill="#404C6E"/>
<path d="M68.0186 75.7039H64.1652V64.1439H68.0186V75.7039Z" fill="#404C6E"/>
<path d="M64.1652 67.9973V64.1439H79.5785V67.9973H64.1652Z" fill="#404C6E"/>
<path d="M56.4586 83.4105V79.5572H79.5785V83.4105H56.4586Z" fill="#404C6E"/>
<path d="M56.4586 75.7039H60.3119V91.1172H56.4586V75.7039Z" fill="#404C6E"/>
<path d="M60.3119 87.2639V91.1172H21.7574V87.2639H60.3119Z" fill="#404C6E"/>
<path d="M52.6053 75.7039H48.7307V64.1439H52.6053V75.7039Z" fill="#404C6E"/>
<path d="M41.024 75.7039V71.8506H52.6053V75.7039H41.024Z" fill="#404C6E"/>
<path d="M44.8773 83.4105V79.5572H52.6053V83.4105H44.8773Z" fill="#404C6E"/>
<path d="M37.1707 64.1439H41.024V75.7039H37.1707V64.1439Z" fill="#404C6E"/>
<path d="M29.4641 67.9973V64.1439H41.024V67.9973H29.4641Z" fill="#404C6E"/>
<path d="M33.3174 75.7039H29.4641V64.1439H33.3174V75.7039Z" fill="#404C6E"/>
<path d="M29.4641 75.7039V71.8506H41.024V75.7039H29.4641Z" fill="#404C6E"/>
<path d="M21.7574 75.7039V71.8506H33.3174V75.7039H21.7574Z" fill="#404C6E"/>
<path d="M25.6107 83.4105H21.7574V71.8506H25.6107V83.4105Z" fill="#404C6E"/>
<path d="M21.7148 83.4105V79.5572H41.0879V83.4105H21.7148Z" fill="#404C6E"/>
<path d="M29.4641 60.2906V56.4373H52.6053V60.2906H29.4641Z" fill="#CDAD80"/>
<path d="M64.1652 60.2906V56.4373H79.5785V60.2906H64.1652Z" fill="#CDAD80"/>
<path d="M17.9041 91.1172H14.0508V17.8828H17.9041V91.1172Z" fill="#CDAD80"/>
<path d="M60.3119 71.8506H56.4586V56.4373H60.3119V71.8506Z" fill="#CDAD80"/>
<path d="M64.1652 91.1172V87.2639H87.2852V91.1172H64.1652Z" fill="#CDAD80"/>
</svg>
