<svg height="252" viewBox="0 0 970 252" width="970" xmlns="http://www.w3.org/2000/svg"><path d="m743.9 241h-524m0-231.4h520.6" fill="none" stroke="#91a57d" stroke-linecap="round" stroke-linejoin="round" stroke-width="14"/><path d="m745.9 91.8s5.1-6.3 6-20.8c.8-11.1-8.3-20.6-19.3-19.7-13.2 1-20.8 13.6-24.6 20.5-7.2 13.8-33-.5-12.3-20.4 9.6-9.3 23.4-12.8 34.4-13s36 13.6 27.2 46.8c0 0 20.1 2.3 42.9 40.3-22.8 38.1-42.9 40.4-42.9 40.4 8.8 33.2-16.2 47-27.2 46.8s-24.8-3.7-34.4-13c-20.7-19.8 5.1-34.2 12.3-20.4 3.8 6.9 11.4 19.5 24.6 20.5 11 .8 20.1-8.7 19.3-19.7-.9-14.5-6-20.9-6-20.9 24.8 3.2 44.2-33.7 44.2-33.7s-19.4-36.7-44.2-33.7z" fill="#d7b77d"/><path d="m851.5 125.9c-24.5-33.2-44.8-19.6-44.8-19.6-.1-39.4-43.8-59.1-86.1-8.8-32.2 38.2-45.8 27.1-45.8 27.1l-1.3-.1s19.2-2.9 34.6-28.3c15.4-25.5 24.6-42.2 46.7-40.5 0 0-35.8-11.8-8.9-53.8 0 0 12.2 33 41.4 37.5 29.4 4.7 41.5 46.4 41.5 46.4s18.5-23.4 35 14.1c0 0 12.4 1.4 20.6 15.7 8.2 14.4 16.3-1.1 16.2-4.9-.1-3.6 12.7 6.6 1.4 16.1 11.2 7.1-1.1 18.9-1.1 15.2s-8.2-19.4-16.2-5.2c-8 14.3-20.4 15.5-20.4 15.5-15.9 37.2-34.8 13.4-34.8 13.4s-11.5 41.6-40.7 45.8c-29.2 4-40.8 37-40.8 37-27.7-42.6 8-53.8 8-53.8-22.1 1.4-31.6-15.5-47.4-41.2-15.7-25.7-35.1-29-35.1-29l1.3.1s12.8-11.8 46.3 27.7c43.1 51 87.4 30.6 85-7.6 0 0 21.6 14.1 45.5-18.7" fill="#91a57d"/><path d="m788.4 159.2s-5.1 6.4-6 20.8c-.8 11.1 8.3 20.7 19.3 19.7 13.2-1 20.8-13.5 24.5-20.5 7.3-13.7 33.1.6 12.4 20.5-9.7 9.2-23.4 12.8-34.5 13-10.9.2-35.9-13.6-27.1-46.8 0 0-20.1-2.4-42.9-40.4 22.8-38 42.9-40.3 42.9-40.3-8.8-33.3 16.2-47.1 27.1-46.8 11.1.2 24.8 3.6 34.5 13 20.7 19.7-5.1 34.2-12.4 20.4-3.7-6.9-11.3-19.5-24.5-20.5-11-.9-20.1 8.7-19.3 19.7.9 14.5 6 20.8 6 20.8-24.8-3.1-44.2 33.7-44.2 33.7s19.4 36.7 44.2 33.7z" fill="#d7b77d" stroke="#f3efdf" stroke-linecap="round" stroke-linejoin="round" stroke-width="3"/><path d="m937.8 119.1c14.2 4.5 20.1 7.9 20.1 7.9s-7.8 3.9-19.9 7.5c-12.1 3.7-19.7-1.5-20.1-8.5.4-7 7.7-10.7 19.9-6.9z" fill="#91a57d"/><path d="m215.5 158.5s-5.1 6.4-6 20.8c-.8 11.1 8.4 20.6 19.3 19.7 13.2-1 20.8-13.5 24.6-20.5 7.3-13.8 33.1.6 12.4 20.5-9.7 9.2-23.5 12.8-34.5 13-11 .1-35.9-13.7-27.2-46.9 0 0-20.1-2.3-42.9-40.3 22.8-38.1 42.9-40.4 42.9-40.4-8.7-33.2 16.2-47 27.2-46.8 11 .3 24.8 3.7 34.5 13 20.7 19.8-5.1 34.3-12.4 20.5-3.8-6.9-11.4-19.5-24.6-20.5-10.9-.9-20.1 8.7-19.3 19.7.9 14.4 6 20.8 6 20.8-24.7-3.1-44.2 33.7-44.2 33.7s19.5 36.7 44.2 33.7z" fill="#d7b77d"/><path d="m109.9 124.4c24.5 33.2 44.8 19.7 44.8 19.7.2 39.4 43.9 59 86.2 8.8 32.2-38.3 45.7-27.1 45.7-27.1h1.3s-19.2 3-34.6 28.4-24.5 42.1-46.7 40.4c0 0 35.8 11.8 8.9 53.9 0 0-12.1-33.1-41.4-37.6-29.3-4.6-41.4-46.4-41.4-46.4s-18.5 23.5-35.1-14c0 0-12.4-1.4-20.6-15.8-8.1-14.4-16.2 1.2-16.1 4.9 0 3.7-12.8-6.6-1.5-16-11.1-7.1 1.1-19 1.1-15.2.1 3.6 8.2 19.4 16.2 5.1s20.4-15.4 20.4-15.4c15.9-37.3 34.8-13.4 34.8-13.4s11.5-41.6 40.7-45.8c29.2-4.1 40.8-37 40.8-37 27.7 42.6-8 53.8-8 53.8 22.1-1.4 31.6 15.5 47.4 41.1 15.7 25.7 35.1 29 35.1 29h-1.3s-12.7 11.8-46.3-27.8c-43.1-51-87.4-30.6-84.9 7.7 0 0-21.6-14.1-45.6 18.6" fill="#91a57d"/><path d="m173.1 91.1s5-6.3 6-20.8c.7-11.1-8.4-20.6-19.3-19.7-13.3 1-20.9 13.6-24.6 20.5-7.3 13.8-33.1-.6-12.4-20.5 9.7-9.2 23.5-12.7 34.5-13 10.9-.1 35.9 13.7 27.1 46.9 0 0 20.2 2.3 43 40.3-22.8 38.1-43 40.4-43 40.4 8.8 33.2-16.2 47-27.1 46.8-11-.2-24.8-3.7-34.5-13-20.7-19.8 5.1-34.2 12.4-20.4 3.7 6.9 11.3 19.4 24.6 20.4 10.9.9 20-8.7 19.3-19.7-1-14.4-6-20.8-6-20.8 24.7 3.1 44.2-33.7 44.2-33.7s-19.5-36.7-44.2-33.7z" fill="#d7b77d" stroke="#f3efdf" stroke-linecap="round" stroke-linejoin="round" stroke-width="3"/><path d="m31.7 131.2c-14.3-4.5-20.2-7.9-20.2-7.9s7.8-3.8 19.9-7.5c12.1-3.6 19.7 1.5 20.1 8.5-.3 7-7.7 10.7-19.8 6.9z" fill="#91a57d"/></svg>