<svg fill="none" height="39" viewBox="0 0 373 39" width="373" xmlns="http://www.w3.org/2000/svg"><rect fill="#404c6e" height="37" rx="2" stroke="#1e1e1e" stroke-width="2" width="304" x="35" y="1"/><path d="m36.102.222656s-3.322 1.070014-3.6743 3.424044c0 0-3.3723.68481-3.473 3.55244 0 0-4.9829 2.05443-4.5802 7.06206 0 0-2.4664 1.5836-2.4664 5.2217 0 3.6808 2.4664 5.2645 2.4664 5.2645-.4027 5.0076 4.5802 7.062 4.5802 7.062.1007 2.8677 3.473 3.5525 3.473 3.5525.3523 2.354 3.6743 3.638 3.6743 3.638z" fill="#1e1e1e"/><path d="m36.102 36.8172s-2.0637-.0856-2.869-2.6537c0 0-2.4663.0428-3.2716-3.5096 0 0-4.3287-1.1984-4.1777-6.5913 0 0-2.5166-1.5408-2.5166-4.5797 0-2.996 2.5166-4.5368 2.5166-4.5368-.151-5.39288 4.1777-6.5913 4.1777-6.5913.8053-3.59524 3.2716-3.50964 3.2716-3.50964.8053-2.56803 2.869-2.65363 2.869-2.65363z" fill="#404c6e"/><path d="m4.79496 12.5492c.50333.1712.70466.6849 1.00666 1.1557.25166.214.453.3852.60399.642h-.05033c1.66099 1.712 3.47297 3.2528 4.63062 5.3072 0-.0856-.4027-.0856-.9563-.0856v.1284c.4026 0 .8221.0143 1.2583.0428-.1007.5136-.2517 1.0272-.5033 1.498-.3524.5993-.80535.7277-1.40935.8133-.20133.4708-.60399.856-1.05699 1.2412-.10066 0-.21811.0142-.35233.0428-1.10732 1.3268-2.36564 2.568-3.01997 3.2528.90599.0428 1.45965.1712 1.45965.1712s-.15099-.9844.95633-.7704c1.10732.1712.453 1.07.453 1.07 1.86231.428 4.68096 2.4396 7.34856 2.4396 3.2213 0 4.379-2.4824 4.379-2.4824s-1.1073.0428-.755-.7276c.453-.9844 1.208-.214 1.208-.214.3523-.9416.2013-2.5252.2013-2.5252 1.4597.1712 2.567-.856 2.567-.856-.5033.0856-.9563-.3852-.2013-.9416 1.0066-.7705 1.3086.214 1.3086.214 2.5167-2.2257 3.775-2.5253 3.775-2.5253s-1.2583-.2568-3.775-2.4824c0 0-.302.9844-1.3086.214-.755-.5564-.302-1.0272.2013-.9416 0 0-1.1073-1.0272-2.567-.856 0 0 .151-1.5836-.2013-2.5253 0 0-.755.7705-1.208-.214-.3523-.8132.755-.7276.755-.7276s-1.1577-2.4824-4.379-2.4824c-2.6676 0-5.48625 2.0116-7.34856 2.4396 0 0 .65432.856-.453 1.07-1.10732.2141-.95633-.7704-.95633-.7704s-.65432.1284-1.66098.214v.1712z" fill="#404c6e"/><path d="m10.0295 19.5685v.1284c.4027 0 .8221.0142 1.2584.0428-.1007.5136-.2517 1.0272-.5034 1.498-.3523.5992-.8053.7276-1.40929.8132-.151.2996-.35233.5992-.604.856 5.38559 1.4124 5.38559 6.7625 5.38559 6.7625 2.8187-5.0077 1.812-7.0621 1.812-7.0621 3.4227 1.07 4.983-1.8832 4.983-1.8832 2.5166-.1284 3.3219-1.07 3.3219-1.07-1.0569-1.5837-3.3219-1.284-3.3219-1.284-2.265-3.3813-5.0836-1.7549-5.0836-1.7549.8556-3.7236-1.7617-7.36166-1.7617-7.36166-.1007 3.42406-2.5166 5.73526-2.5166 5.73526-.8054.1712-2.01336.6848-3.32202 1.284 1.00666 1.0272 2.01332 2.0973 2.71802 3.3813 0-.0856-.4027-.0856-.9564-.0856z" fill="#1e1e1e"/><path d="m9.17389 22.3933c.03355.0285.06711.0428.10066.0428 3.42265 1.4552 3.42265 3.6808 3.42265 3.6808-.453-.0428-1.1073.2568-.8053.9416.302.642 1.208.2996 1.208.2996 1.0066.9416.5536 3.0817.5536 3.0817 1.1073-3.0817-.2013-4.9649-.2013-4.9649s.5536-.1284.3523-.7704c-.302-.7704-1.0066-.3852-1.0066-.3852-.2014-.5136-1.4094-1.4124-1.4094-1.4124 1.359-.0856 1.359-1.0272 1.359-1.0272.302 0 1.0067-.0856 1.8623-.3852.9564-.3425 1.9127-1.0701 1.9127-1.0701s.2013.428.5033.428.6543-.1712.604-.5564c-.0503-.3424-.453-.8988-1.5603-.2568-1.7617 1.07-3.926 1.284-3.926 1.284s-.755 1.2413-1.7616.3853c-.2517.214-.60402.2996-1.00668.3424-.06711.1141-.13422.2282-.20133.3424z" fill="#cdad80"/><path d="m8.51959 23.1637c.10067.0285.20133.0571.302.0856 3.52331 1.0272 3.87561 2.8676 3.87561 2.8676s.151-2.2684-3.67428-3.5096c-.16778.1712-.33555.3567-.50333.5564z" fill="#cdad80"/><path d="m8.51956 16.5296c4.32864-1.1984 4.17764-3.6808 4.17764-3.6808s-.3523 1.8404-3.87564 2.8676c-.302.0856-.57044.1712-.80532.2568.16777.1712.33555.3567.50332.5564z" fill="#cdad80"/><path d="m9.67721 17.7709c.23489-.1141.46979-.2711.70469-.4708 1.0066-.9416 1.7616.3424 1.7616.3424s2.1643.214 3.926 1.284c1.1073.642 1.51.0856 1.5603-.2568.0503-.3852-.302-.5564-.604-.5564s-.5033.428-.5033.428-.9563-.7276-1.9127-1.07c-.8556-.2996-1.5603-.3852-1.8623-.3852 0 0 0-.9416-1.359-1.0272 0 0 1.208-.8988 1.4094-1.4124 0 0 .7046.3852 1.0066-.3852.2013-.642-.3523-.7704-.3523-.7704s1.3086-1.8833.2013-4.9649c0 0 .453 2.14-.5537 3.0816 0 0-.9059-.3424-1.2079.2996-.302.6849.3523.9845.8053.9417 0 0 0 2.2684-3.42265 3.6808-.20133.0856-.38589.1569-.55366.214.33555.3424.65432.6848.95632 1.0272z" fill="#cdad80"/><path d="m11.4389 19.0549c5.6373-2.0116 4.7313-5.0076 4.7816-6.1204.0504-1.1129 1.4597-1.2413 1.4597-1.2413s-.906.3424-.6543 1.5837c.3523 1.6264-.755 2.9104-.755 2.9104s1.5099-1.0272 3.9763.8132c0 0-2.6174-1.3696-4.0267-.214-.6543.5564-2.0133 2.3968-4.4796 2.6964 2.4663.2996 3.8253 2.1401 4.4796 2.6965 1.4093 1.1556 4.0267-.214 4.0267-.214-2.4664 1.8404-3.9763.8132-3.9763.8132s1.1073 1.284.755 2.9104c-.2517 1.2412.6543 1.6264.6543 1.6264s-1.4093-.1712-1.4597-1.284c-.0503-1.1128.8557-4.1088-4.7816-6.1205z" fill="#cdad80"/><path d="m23.6698 19.4828c-.9563-1.0272-3.02-.8132-3.02-.8132-.0503-1.498-1.8623-1.5408-1.8623-1.5408s0 .428-.5537.5136c-.5536.0856-.7046-.1284-.8556-.428-.1007-.214.0503-.856.7046-.856.6544 0 2.567.3424 3.2213 1.7548 0 0 2.265-.214 3.473 1.3696-1.208 1.5837-3.473 1.3697-3.473 1.3697-.6543 1.4552-2.5669 1.7548-3.2213 1.7548-.6543 0-.8053-.642-.7046-.8988.151-.214.302-.4708.8556-.3852.5537.0856.5537.5136.5537.5136s1.812-.0428 1.8623-1.5409c0 0 2.0637.214 3.02-.8132z" fill="#cdad80"/><path d="m10.5832 18.9692c.6544-.3852.7047-1.1556.7047-1.1556s-.604.1712-1.208.5136c.1678.1997.3355.4137.5033.642z" fill="#404c6e"/><path d="m11.2879 19.7397c-.0336.0856-.0504.1569-.0504.214.4027 0 .906-.1284 1.4094-.4708-.755-.5992-1.6107-.5564-2.0134-.4708.1343.1997.2517.4137.3524.642 0-.0856-.4027-.0856-.9564-.0856v.1284c.4027 0 .8221.0142 1.2584.0428z" fill="#404c6e"/><path d="m36.102 25.5605c-.0504.6849-1.359 3.6381-3.8757 3.6381-2.5669 0-3.4226-2.0116-3.4226-2.0116s.8557 1.1128 2.416 1.1128c.8053 0 .8053-.642 1.4596-.642.6544 0 .755.642.3524.9416 0 0 1.963-.428 2.8689-3.0389z" fill="#cdad80"/><path d="m36.102 29.0703s-2.5166-1.1556-2.3656-2.9533c0 0-2.8187.0856-2.8187-1.1556 0-1.284 2.869-1.3696 2.3153-2.1828-.5033-.7276-1.3086.214-2.6173.2996-1.6106.0856-2.8186-.7704-2.718-1.9688 0 0-1.7113-.214-2.0133-.7704-.4026-.642-1.057-.856-1.057-.856s.6544-.2568 1.057-.8561c.302-.5564 2.0133-.7704 2.0133-.7704-.1006-1.1984 1.1074-2.0544 2.718-1.9688 1.3087.0856 2.114 1.0272 2.6173.2996.5537-.8132-2.3153-.8988-2.3153-2.14 0-1.284 2.8187-1.1984 2.8187-1.1984-.151-1.7976 2.3656-2.95326 2.3656-2.95326l-.2517-.214s-2.3656.81316-2.6676 2.65366c0 0-3.8253-.1712-3.0703 3.1244 0 0-2.6173-.214-2.718 2.0544 0 0-1.6106.214-2.0636 1.07-.5034.8561-1.4094.8989-1.4094.8989s.906.0428 1.4094.8988c.453.856 2.0636 1.07 2.0636 1.07.1007 2.2684 2.718 2.0544 2.718 2.0544-.755 3.2957 3.0703 3.1244 3.0703 3.1244.302 1.8405 2.6676 2.6537 2.6676 2.6537z" fill="#cdad80"/><path d="m36.102 13.4053c-.0504-.6849-1.359-3.63809-3.8757-3.63809-2.5669 0-3.4226 2.05439-3.4226 2.05439s.8557-1.1128 2.416-1.1128c.8053 0 .8053.5992 1.4596.5992.6544 0 .755-.5992.3524-.9416 0 0 1.963.428 2.8689 3.0389z" fill="#cdad80"/><path d="m30.7164 19.4401c-.1007 1.3268-2.3154 1.5408-2.3154 1.5408 0-.7704 1.0067-1.0272 1.0067-1.0272-1.3087.2996-2.0636-.5992-2.0636-.5992s.7549-.642 2.0636-.2996c0 0-1.0067-.2568-1.0067-1.0272 0 0 2.2147.0428 2.3154 1.4124z" fill="#404c6e"/><path d="m4.09026 10.666s-.35233 1.712.45299 2.5252c0 0 .755-.2996 1.00666.2569.25167.5136-.302.7704-.65433.7276 0 0 0 1.8404 2.81865 2.996.80532.3424 1.25832.5136 1.10732.9416-.151.4708-1.15766.428-2.01332-.2996-.85566-.7704-1.45965.2568-1.45965.2568s-1.76165.214-3.17097 1.07c-.90599.5136-1.258324.0428-1.308657-.214-.050333-.2996.251667-.4708.503327-.4708.25167 0 .40266.3852.40266.3852s.80533-.5992 1.56032-.8988c.70467-.2568 1.25833-.2996 1.50999-.2996 0 0 0-.7704 1.10733-.856 0 0-1.00666-.7276-1.15766-1.1128 0 0-.55366.2996-.80533-.3424-.151-.5136.25167-.642.25167-.642s-1.00666-1.4981-.151-4.0233z" fill="#cdad80"/><path d="m9.97922 19.5685c.30198-.0428.70468-.1284.90598-.9416.2517-.856-.5537-1.4552-2.81863-2.0972-2.91931-.856-3.17097-2.354-3.17097-2.354s-.10067 2.0972 3.57363 3.0388c1.56037.428 1.66097.7704 1.66097 1.284 0 .5564-.85564.9416-2.06363.7704v.642c1.20799-.1712 2.06363.214 2.06363.7704 0 .5136-.1006.856-1.66097 1.2841-3.6743.9416-3.57363 3.0388-3.57363 3.0388s.25166-1.498 3.17097-2.354c2.26493-.642 3.07033-1.2413 2.81863-2.0973-.2013-.8132-.604-.8988-.90598-.9844z" fill="#cdad80"/><path d="m4.09026 28.5138s-.35233-1.712.45299-2.5252c0 0 .755.2996 1.00666-.214.25167-.5564-.302-.8132-.65433-.7704 0 0 0-1.8405 2.81865-2.9961.80532-.3424 1.25832-.5136 1.10732-.9416-.151-.4708-1.15766-.428-2.01332.2996-.85566.7704-1.45965-.2568-1.45965-.2568s-1.76165-.214-3.17097-1.0272c-.90599-.5564-1.258324-.0856-1.308657.1712-.050333.2996.251667.4708.503327.4708.25167 0 .40266-.3852.40266-.3852s.80533.5992 1.56032.8988c.70467.2568 1.25833.2996 1.50999.2996 0 0 0 .7704 1.10733.856 0 0-1.00666.7276-1.15766 1.1128 0 0-.55366-.2996-.80533.3425-.151.5136.25167.642.25167.642s-1.00666 1.498-.151 4.0232z" fill="#cdad80"/><path d="m14.3582 19.5684c-1.4094 1.3268-3.624 1.7976-3.624 1.7976.2013-.214.2013-.7276.2013-.7276s1.2583-.1284 2.5167-1.07c-1.2584-.8988-2.5167-1.0272-2.5167-1.0272s0-.5136-.2013-.7276c0 0 2.2146.4708 3.624 1.7548z" fill="#cdad80"/><path d="m7.8149 19.5685c0 .9416-1.76165 1.3696-1.76165 1.3696s.05033-.7704.75499-1.0272c0 0-1.00666.3424-1.86232-.3424.90599-.5992 1.86232-.2996 1.86232-.2996-.70466-.2568-.75499-1.0272-.75499-1.0272s1.76165.3852 1.76165 1.3268z" fill="#404c6e"/><path d="m7.36194 19.1406c0-.5136.65433-.5136.65433 0v1.1128c0 .5136-.65433.5136-.65433 0z" fill="#cdad80"/><path d="m31.1191 19.3545c4.1273 1.07 4.9829 3.9804 4.9829 3.9804l-.3523.0428s-1.1073-2.6536-4.681-3.6808z" fill="#cdad80"/><path d="m33.686 20.9809-.5033-.2996c-.2517 1.9688-3.322 2.3968-3.322 2.3968s3.2717.1712 3.8253-2.0972z" fill="#cdad80"/><path d="m31.1191 19.6113c4.1273-1.0701 4.9829-3.9805 4.9829-3.9805l-.3523-.0428s-1.1073 2.6536-4.681 3.6809z" fill="#cdad80"/><path d="m33.686 17.9848-.5033.2996c-.2517-1.9688-3.322-2.3968-3.322-2.3968s3.2717-.1712 3.8253 2.0972z" fill="#cdad80"/><path d="m35.5986 19.3973c-.5536-1.07-1.2583-1.3696-1.2583-1.3696l-.3523.2568s.7047.3424 1.057 1.1128c-.3523.7704-1.1577 1.2412-1.1577 1.2412l.4027.2996s.755-.4708 1.3086-1.5408z" fill="#cdad80"/><path d="m36.102 29.327c-1.7617.856-2.2147 2.6537-2.2147 2.6537.9564.0856 1.359-.8132 1.359-.8132-.2516 1.0272.8557 2.1828.8557 2.1828z" fill="#404c6e"/><path d="m36.102 23.335c-1.661.0856-1.9127 1.926-1.9127 1.926.906 0 1.208-.8132 1.208-.8132-.3523 1.0272.7047 1.712.7047 1.712z" fill="#404c6e"/><path d="m36.102 9.63873c-1.7617-.89881-2.2147-2.65364-2.2147-2.65364.9564-.0856 1.359.81321 1.359.81321-.2516-1.02721.8557-2.18282.8557-2.18282z" fill="#404c6e"/><path d="m36.102 15.6309c-1.661-.0856-1.9127-1.9261-1.9127-1.9261.906 0 1.208.8133 1.208.8133-.3523-1.0273.7047-1.7121.7047-1.7121z" fill="#404c6e"/><path d="m31.1694 20.1248c0 .6421-.8053.6849-.8053 0v-1.3268c0-.642.8053-.642.8053 0z" fill="#cdad80"/><path d="m36.102 29.8834h-1.1073c-.906 0-.8557-.8132 0-.8132h1.1073z" fill="#cdad80"/><path d="m36.102 15.9733h-.906c-.8053 0-.8053-.6848 0-.6848h.906z" fill="#cdad80"/><path d="m36.102 23.5918h-.906c-.8053 0-.8053-.6848 0-.6848h.906z" fill="#cdad80"/><path d="m36.102 9.03955h-1.1073c-.906 0-.8557.77041 0 .77041h1.1073z" fill="#cdad80"/><path d="m337.747.222656s3.322 1.070014 3.674 3.424044c0 0 3.322.68481 3.423 3.55244 0 0 4.983 2.05443 4.631 7.06206 0 0 2.466 1.5836 2.466 5.2217 0 3.6808-2.466 5.2645-2.466 5.2645.352 5.0076-4.631 7.062-4.631 7.062-.101 2.8677-3.423 3.5525-3.423 3.5525-.352 2.354-3.674 3.638-3.674 3.638z" fill="#1e1e1e"/><path d="m337.747 36.8172s2.013-.0856 2.819-2.6537c0 0 2.466.0428 3.271-3.5096 0 0 4.379-1.1984 4.178-6.5913 0 0 2.567-1.5408 2.567-4.5797 0-2.996-2.567-4.5368-2.567-4.5368.201-5.39288-4.178-6.5913-4.178-6.5913-.805-3.59524-3.271-3.50964-3.271-3.50964-.806-2.56803-2.819-2.65363-2.819-2.65363z" fill="#404c6e"/><path d="m349.777 22.3078s.302-.9844 1.308-.214c.755.5564.302 1.0272-.201.9416 0 0 1.107 1.07 2.567.856 0 0-.151 1.6264.201 2.5252 0 0 .755-.7704 1.208.214.352.8132-.755.7276-.755.7276s1.158 2.4825 4.379 2.4825c2.668 0 5.486-2.0117 7.349-2.4397 0 0-.655-.856.453-1.07 1.107-.1712.956.7704.956.7704s.755-.1284 1.963-.214c-.034-.057-.067-.1141-.101-.1712-.453-.6848-1.057-1.3268-1.711-1.926-1.661-1.6264-3.372-3.21-4.933-4.8793-.302 0-.453 0-.453 0 0-.0285 0-.0428 0-.0428.604-1.5408 2.114-2.6964 3.473-3.7236.269-.1997.571-.3995.906-.5992h-.503c.503-.5564 1.057-1.1984 1.711-1.6692.235-.2854.47-.5564.705-.8132.134-.1142.285-.2426.453-.3853-.956-.0428-1.51-.1712-1.51-.1712s.151.9845-.956.7705c-1.108-.1712-.453-1.0701-.453-1.0701-1.863-.428-4.681-2.43959-7.349-2.43959-3.221 0-4.379 2.48239-4.379 2.48239s1.107-.0428.755.7277c-.453.9844-1.208.214-1.208.214-.352.9416-.201 2.5252-.201 2.5252-1.46-.1712-2.567.856-2.567.856.503-.0856.956.3852.201.9416-1.006.7704-1.308-.214-1.308-.214-2.517 2.2256-3.775 2.5252-3.775 2.5252s1.258.2996 3.775 2.4825z" fill="#404c6e"/><path d="m352.696 20.8953c2.265 3.3812 5.083 1.7548 5.083 1.7548-.855 3.7237 1.762 7.3617 1.762 7.3617.101-3.424 2.517-5.7353 2.517-5.7353.805-.1712 2.114-.6848 3.473-1.3268-1.057-.9844-2.114-2.0116-3.071-3.0388-.302 0-.453 0-.453 0 0-.0286 0-.0428 0-.0428.554-1.3696 1.863-2.4825 3.121-3.4241-5.637-1.3268-5.637-6.84805-5.637-6.84805-2.819 5.00765-1.812 7.06205-1.812 7.06205-3.423-1.07-4.983 1.8833-4.983 1.8833-2.517.1284-3.322 1.07-3.322 1.07 1.057 1.5836 3.322 1.284 3.322 1.284z" fill="#1e1e1e"/><path d="m356.018 18.9693c.05.3424.453.8988 1.56.2568 1.762-1.07 3.926-1.284 3.926-1.284s.755-1.284 1.762-.3424c.1.057.184.1141.251.1712.336-.3139.671-.6135 1.007-.8988-.034 0-.084-.0143-.151-.0428-3.423-1.4125-3.423-3.6809-3.423-3.6809.453.0428 1.108-.2568.806-.9416-.302-.642-1.208-.2996-1.208-.2996-1.007-.9416-.554-3.08164-.554-3.08164-1.107 3.08164.201 4.96484.201 4.96484s-.553.1284-.352.7704c.302.7704 1.007.3852 1.007.3852.201.5136 1.409 1.4125 1.409 1.4125-1.359.0856-1.359 1.0272-1.359 1.0272-.302 0-1.007.0856-1.862.3852-.957.3852-1.913 1.07-1.913 1.07s-.201-.428-.503-.428-.655.1712-.604.5564z" fill="#cdad80"/><path d="m365.229 22.693c-4.43 1.1984-4.279 3.7236-4.279 3.7236s.353-1.8404 3.876-2.8676c.369-.1141.705-.214 1.007-.2996-.202-.1712-.403-.3567-.604-.5564z" fill="#cdad80"/><path d="m364.725 16.7009c.235-.1712.47-.3424.705-.5136-.201-.0571-.403-.1142-.604-.1712-3.523-1.0272-3.876-2.8677-3.876-2.8677s-.151 2.3541 3.775 3.5525z" fill="#cdad80"/><path d="m356.622 21.1521c.302 0 .503-.428.503-.428s.956.7276 1.913 1.07c.855.2996 1.56.3852 1.862.3852 0 0 0 .9417 1.359 1.0273 0 0-1.208.8988-1.409 1.4124 0 0-.705-.3852-1.007.3852-.201.642.352.7704.352.7704s-1.308 1.8832-.201 4.9649c0 0-.453-2.1401.554-3.0817 0 0 .906.3424 1.208-.2996.302-.6848-.353-.9844-.806-.9416 0 0 0-2.2256 3.423-3.6808.235-.0856.453-.1712.654-.2568-.335-.3139-.671-.6421-1.006-.9845-.235.1142-.487.2711-.755.4708-1.007.9417-1.762-.3424-1.762-.3424s-2.164-.214-3.926-1.2412c-1.107-.6848-1.51-.1284-1.56.214-.051.3852.302.5564.604.5564z" fill="#cdad80"/><path d="m353.401 17.3s2.617-1.3696 4.026-.214c.654.5564 2.013 2.3968 4.48 2.6964-2.467.2997-3.826 2.1401-4.48 2.6965-1.409 1.1556-4.026-.214-4.026-.214 2.466 1.8404 3.976.8132 3.976.8132s-1.108 1.284-.755 2.9104c.251 1.2412-.654 1.6264-.654 1.6264s1.409-.1712 1.459-1.284-.856-4.1088 4.782-6.1204v-.2997c-.134 0-.202 0-.202 0s0-.0142 0-.0428c.068-.1426.135-.271.202-.3852v-.1284c-5.638-2.0116-4.732-5.0076-4.782-6.1204s-1.459-1.284-1.459-1.284.905.3852.654 1.6264c-.353 1.6264.755 2.9104.755 2.9104s-1.51-1.0272-3.976.8132z" fill="#cdad80"/><path d="m349.978 19.7825c.956 1.0272 3.02.8132 3.02.8132.05 1.498 1.862 1.5408 1.862 1.5408s0-.428.554-.5136.705.1712.856.428c.1.214-.051.8561-.705.8561s-2.567-.2996-3.221-1.7549c0 0-2.265.214-3.473-1.3696 1.208-1.5836 3.473-1.3696 3.473-1.3696.654-1.4124 2.567-1.7548 3.221-1.7548s.805.642.705.8988c-.151.214-.302.4708-.856.3852s-.554-.5136-.554-.5136-1.812.0428-1.862 1.5408c0 0-2.064-.214-3.02.8132z" fill="#cdad80"/><path d="m363.518 20.981c-.202-.1712-.403-.3567-.604-.5564-.504.3852-.554 1.0272-.554 1.0272s.604-.1712 1.158-.4708z" fill="#404c6e"/><path d="m362.008 19.9109c0-.0286 0-.0428 0-.0428.1-.1998.184-.3853.251-.5565-.352.0428-.805.1712-1.258.4709.604.5136 1.308.5564 1.812.5136-.134-.1427-.252-.2711-.353-.3852-.302 0-.452 0-.452 0z" fill="#404c6e"/><path d="m337.747 29.4554s2.517-1.1985 2.366-2.9961c0 0 2.768.0856 2.768-1.1556 0-1.284-2.869-1.3696-2.315-2.1828.503-.7276 1.359.214 2.617.2996 1.661.0856 2.869-.7704 2.718-1.9688 0 0 1.711-.214 2.064-.7704.402-.5993 1.006-.8561 1.006-.8561s-.604-.214-1.006-.856c-.353-.5564-2.064-.7276-2.064-.7276.151-1.2412-1.057-2.0972-2.718-1.9688-1.258.0428-2.114.9844-2.617.2996-.554-.856 2.315-.9416 2.315-2.1828 0-1.284-2.768-1.1556-2.768-1.1556.151-1.8405-2.366-2.9961-2.366-2.9961l.201-.214s2.366.8132 2.718 2.6965c0 0 3.775-.214 3.071 3.0816 0 0 2.617-.214 2.718 2.0544 0 0 1.56.214 2.063 1.07.453.856 1.41.8988 1.41.8988s-.957.0428-1.41.8989c-.503.856-2.063 1.07-2.063 1.07-.101 2.2684-2.718 2.0972-2.718 2.0972.704 3.2528-3.071 3.0816-3.071 3.0816-.352 1.8405-2.718 2.6965-2.718 2.6965z" fill="#cdad80"/><path d="m369.255 28.6422s.353-1.7548-.453-2.5252c0 0-.704.2568-.956-.2568-.252-.5564.302-.7704.604-.7276 0 0 .05-1.8832-2.768-3.0389-.806-.2996-1.259-.4708-1.108-.9416s1.158-.428 2.014.3424c.855.7276 1.459-.2996 1.459-.2996s1.762-.1712 3.171-1.0272c.906-.5564 1.259-.0856 1.309.214.05.2568-.252.428-.503.428-.252 0-.403-.3424-.403-.3424s-.805.5564-1.56.856c-.705.2568-1.309.2996-1.561.3424 0 0 0 .7704-1.057.8132 0 0 .957.7277 1.108 1.1557 0 0 .604-.2996.805.3424.201.5136-.252.5992-.252.5992s1.057 1.5408.151 4.066z" fill="#cdad80"/><path d="m363.417 19.6969c-.302.0856-.705.1712-.957.9416-.201.8988.554 1.4552 2.869 2.14 2.869.8132 3.121 2.3541 3.121 2.3541s.151-2.1401-3.523-3.0817c-1.611-.3852-1.712-.7276-1.712-1.284 0-.5136.856-.9416 2.114-.7704v-.5992c-1.258.1712-2.114-.2568-2.114-.7704 0-.5564.101-.8988 1.712-1.284 3.674-.9844 3.523-3.0817 3.523-3.0817s-.252 1.5408-3.121 2.3541c-2.315.6848-3.07 1.2412-2.869 2.0972.252.8132.655.8988.957.9844z" fill="#cdad80"/><path d="m369.255 10.7516s.353 1.7548-.453 2.5252c0 0-.704-.2996-.956.2568-.252.5136.302.7704.604.7276 0 0 .05 1.8405-2.768 3.0389-.806.2996-1.259.4708-1.108.9416.151.428 1.158.3852 2.014-.3424.855-.7276 1.459.2996 1.459.2996s1.762.1712 3.171 1.0272c.906.5564 1.259.0856 1.309-.214s-.252-.428-.503-.428c-.252 0-.403.3424-.403.3424s-.805-.5992-1.56-.856c-.705-.2568-1.309-.3424-1.561-.3424 0 0 0-.7704-1.057-.8132 0 0 .957-.7276 1.108-1.1557 0 0 .604.2997.805-.3424.201-.5136-.252-.5992-.252-.5992s1.057-1.5408.151-4.066z" fill="#cdad80"/><path d="m359.038 19.6968c1.409-1.3268 3.573-1.7548 3.573-1.7548-.201.214-.201.6848-.201.6848s-1.208.1712-2.466 1.07c1.258.8988 2.466 1.0701 2.466 1.0701s0 .4708.201.6848c0 0-2.164-.428-3.573-1.7549z" fill="#cdad80"/><path d="m365.581 19.6969c0-.8988 1.762-1.3696 1.762-1.3696s-.101.7704-.755 1.0272c0 0 1.006-.3424 1.862.3424-.906.5992-1.862.3424-1.862.3424.654.2568.755.9844.755.9844s-1.762-.3852-1.762-1.3268z" fill="#404c6e"/><path d="m366.034 20.1249c0 .5136-.705.5136-.705 0v-1.07c0-.5564.705-.5136.705 0z" fill="#cdad80"/><path d="m337.747 25.903c.05.7276 1.309 3.638 3.876 3.638 2.516 0 3.372-2.0116 3.372-2.0116s-.856 1.1128-2.416 1.1128c-.755 0-.755-.5992-1.46-.5992-.654 0-.704.5992-.352.8988 0 0-1.913-.428-2.819-3.0388z" fill="#cdad80"/><path d="m342.73 19.7396c-4.127 1.07-4.983 3.9377-4.983 3.9377l.352.0428s1.108-2.6109 4.681-3.6809z" fill="#cdad80"/><path d="m340.163 21.3661.453-.3424c.252 1.9688 3.372 2.3968 3.372 2.3968s-3.271.1712-3.825-2.0544z" fill="#cdad80"/><path d="m337.747 13.7905c.05-.7276 1.309-3.6809 3.876-3.6809 2.516 0 3.372 2.0544 3.372 2.0544s-.856-1.1128-2.416-1.1128c-.755 0-.755.5992-1.46.5992-.654 0-.704-.5992-.352-.8988 0 0-1.913.3852-2.819 3.0389z" fill="#cdad80"/><path d="m342.73 19.9537c-4.127-1.07-4.983-3.9805-4.983-3.9805l.352-.0428s1.108 2.6537 4.681 3.7237z" fill="#cdad80"/><path d="m340.163 18.3273.453.3424c.252-2.0116 3.372-2.3969 3.372-2.3969s-3.271-.214-3.825 2.0545z" fill="#cdad80"/><path d="m338.2 19.7397c.604-1.07 1.258-1.3696 1.258-1.3696l.353.2568s-.705.3424-1.057 1.1128c.352.7704 1.208 1.2412 1.208 1.2412l-.403.2997s-.755-.4709-1.359-1.5409z" fill="#cdad80"/><path d="m337.747 29.7123c1.711.856 2.215 2.6536 2.215 2.6536-.957.0856-1.41-.856-1.41-.856.302 1.0272-.805 2.1828-.805 2.1828z" fill="#404c6e"/><path d="m337.747 23.6774c1.611.0856 1.862 1.926 1.862 1.926-.906 0-1.208-.8132-1.208-.8132.403 1.07-.654 1.712-.654 1.712z" fill="#404c6e"/><path d="m343.082 19.7825c.151 1.3697 2.316 1.5409 2.316 1.5409 0-.7705-.957-1.0273-.957-1.0273 1.259.2996 2.064-.5564 2.064-.5564s-.805-.642-2.064-.3424c0 0 .957-.2568.957-1.0272 0 0-2.165.0428-2.316 1.4124z" fill="#404c6e"/><path d="m337.747 9.98118c1.711-.85601 2.215-2.65363 2.215-2.65363-.957-.0856-1.41.85601-1.41.85601.302-1.07001-.805-2.18283-.805-2.18283z" fill="#404c6e"/><path d="m337.747 16.0161c1.611-.1284 1.862-1.9261 1.862-1.9261-.906 0-1.208.8133-1.208.8133.403-1.0701-.654-1.7549-.654-1.7549z" fill="#404c6e"/><path d="m342.68 20.5101c0 .642.805.642.805 0v-1.3268c0-.642-.805-.642-.805 0z" fill="#cdad80"/><path d="m337.747 30.2687h1.057c.956 0 .906-.8133 0-.8133h-1.057z" fill="#cdad80"/><path d="m337.747 16.3584h.906c.755 0 .805-.6848 0-.6848h-.906z" fill="#cdad80"/><path d="m337.747 23.9769h.906c.755 0 .805-.6848 0-.6848h-.906z" fill="#cdad80"/><path d="m337.747 9.4248h1.057c.956 0 .906.7704 0 .7704h-1.057z" fill="#cdad80"/><g fill="#1e1e1e"><path d="m93 19.0658 15.5-16.0658h160l13.5 16.0658-14.5 16.9342h-158.5z"/><path d="m82.6096 37.9608c2.3657-.1256 12.1302-3.1836 12.1302-9.1738 0-5.9903-6.7446-7.9591-6.7446-7.9591s3.7247 1.9688 3.7247 5.697c0 1.8432-2.0133 1.8432-2.0133 3.3931 0 1.5918 2.0133 1.7175 3.0199.8797 0 0-1.359 4.5241-10.1169 6.7023z"/><path d="m62 25.8474c3.4699 10.8301 12.8045 13.1274 12.8045 13.1274l.1955-.9377s-8.5526-2.9537-11.9737-12.3303z"/><path d="m67.4594 32.2219-1.1073-1.0891c6.5936-.5865 8.0029-7.9172 8.0029-7.9172s.604 7.7077-6.8956 9.0063z"/><path d="m94.3875 37.9608s-3.8756-5.9484-9.9156-5.6132c0 0 .3524-6.5349-3.8756-6.5349s-4.4796 6.7443-7.2479 5.4038c-2.3657-1.131.7549-3.1417 1.0066-6.1159.3523-3.8539-2.5166-6.7024-6.5433-6.4091 0 0-.7046-4.0634-2.5669-4.8593-2.0637-.9215-2.8187-2.4296-2.8187-2.4296s-.8053 1.5081-2.869 2.4296c-1.8119.7959-2.5166 4.8593-2.5166 4.8593-4.0266-.2933-6.8956 2.5552-6.5433 6.4091.2517 2.9742 3.3723 4.9849 1.0067 6.1159-2.8187 1.3405-3.02-5.4038-7.248-5.4038-4.2279 0-3.8756 6.5349-3.8756 6.5349-6.0903-.3352-9.9659 5.6132-9.9659 5.6132l-.6543-.5446s2.7683-5.5713 8.9089-6.3672c0 0-.6543-8.9645 10.2679-7.247 0 0-.6543-6.1159 6.9459-6.4091 0 0 .6544-3.7282 3.5233-4.8593 2.869-1.131 3.02-3.26736 3.02-3.26736s.151 2.13636 3.02 3.26736c2.8186 1.1311 3.5233 4.8593 3.5233 4.8593 7.6003.2932 6.8956 6.4091 6.8956 6.4091 10.9726-1.7175 10.2679 7.247 10.2679 7.247 6.191.7959 8.9593 6.3672 8.9593 6.3672z"/><path d="m63 25.8474c-3.6981 10.8301-13.8415 13.1274-13.8415 13.1274l-.1585-.9377s9.2453-2.9537 12.9434-12.3303z"/><path d="m57.3928 32.2219 1.057-1.0891c-6.5433-.5865-7.9526-7.9172-7.9526-7.9172s-.6543 7.7077 6.8956 9.0063z"/><path d="m62.0738 36.8298c-3.5233-1.3824-4.5803-2.9742-4.5803-2.9742l.906-.8797s1.1576 1.6756 3.6743 2.5134c2.5669-.8378 4.1776-2.7228 4.1776-2.7228l1.057.8797s-1.661 1.8012-5.2346 3.1836z"/><path d="m63 12.3069c-3.7368-10.19715-13.7895-12.3069-13.7895-12.3069l-.2105.835109s9.2105 2.813001 12.8947 11.603591z"/><path d="m57.3928 6.16638 1.1073 1.08914c-6.5936.58646-8.0029 7.87528-8.0029 7.87528s-.604-7.70772 6.8956-8.96442z"/><path d="m30.4647.427368s3.8757 5.906472 9.9156 5.613242c0 0-.3523 6.53479 3.8756 6.53479 4.228 0 4.4797-6.74424 7.248-5.40376 2.3656 1.13102-.755 3.14176-1.0067 6.11596-.3523 3.8538 2.5167 6.7023 6.5433 6.4091 0 0 .7047 4.0214 2.567 4.8592 2.0636.8797 2.8186 2.3878 2.8186 2.3878s.8053-1.5081 2.869-2.3878c1.812-.8378 2.5166-4.8592 2.5166-4.8592 4.0267.2932 6.8956-2.5553 6.5433-6.4091-.2517-2.9742-3.3723-4.98494-1.0066-6.11596 2.7683-1.34048 3.0199 5.40376 7.2479 5.40376s3.8756-6.53479 3.8756-6.53479c6.0903.29323 9.9659-5.613242 9.9659-5.613242l.6544.544569s-2.7683 5.571353-8.909 6.325373c0 0 .6544 8.96439-10.2679 7.28879 0 0 .6544 6.116-6.9459 6.4092 0 0-.6543 3.6863-3.5233 4.8173-2.869 1.1311-3.02 3.2674-3.02 3.2674s-.151-2.1363-3.02-3.2674c-2.8186-1.131-3.5233-4.8173-3.5233-4.8173-7.6002-.2932-6.8956-6.4092-6.8956-6.4092-10.9725 1.6756-10.2679-7.28879-10.2679-7.28879-6.1909-.75402-8.9592-6.325373-8.9592-6.325373z"/><path d="m82.6096.427368c2.3657.12567 12.1302 3.183632 12.1302 9.173882 0 5.94835-6.7446 7.95905-6.7446 7.95905s3.7247-2.0107 3.7247-5.697c0-1.8432-2.0133-1.8432-2.0133-3.43497 0-1.54992 2.0133-1.67559 3.0199-.83779 0 0-1.3086-4.566-10.1169-6.702383z"/><path d="m62 12.3069c3.434-10.19715 12.8528-12.3069 12.8528-12.3069l.1472.835109s-8.5849 2.813001-12.0189 11.603591z"/><path d="m67.4594 6.16638-1.057 1.08914c6.5433.58646 7.9526 7.87528 7.9526 7.87528s.6543-7.70772-6.8956-8.96442z"/><path d="m62.7784 1.55847c3.5233 1.38237 4.5803 2.97418 4.5803 2.97418l-.906.8378s-1.1576-1.67559-3.6743-2.51339c-2.5669.8378-4.1776 2.76473-4.1776 2.76473l-1.057-.87969s1.661-1.80126 5.2346-3.18363z"/></g><path d="m91.8205 6.6272s-.453 2.42961.6543 3.5187c0 0 1.057-.41885 1.4094.3352.4026.754-.4027 1.0891-.906 1.0472 0 0-.0504 2.5553 3.9763 4.189 1.1576.4608 1.7616.6702 1.5603 1.3405-.2014.6283-1.6107.5445-2.8187-.4608-1.2079-1.0473-2.0636.377-2.0636.377s-2.567.2932-4.5803 1.4661c-1.2583.7541-1.7617.0838-1.812-.2932-.1007-.4189.3523-.6283.7047-.6283.3523 0 .5536.5026.5536.5026s1.1577-.8378 2.2147-1.2148c1.0066-.377 1.8623-.4608 2.2146-.4608 0 0 0-1.0891 1.51-1.1729 0 0-1.4093-1.0053-1.6106-1.5918 0 0-.8054.4189-1.1074-.4608-.2516-.7121.3524-.8378.3524-.8378s-1.51-2.1364-.2517-5.6551z" fill="#cdad80"/><path d="m100.176 19.0684c.453-.1257 1.006-.2095 1.308-1.3405.353-1.2148-.755-2.0107-4.0262-2.9323-4.1273-1.131-4.4797-3.2674-4.4797-3.2674s-.2013 2.9323 5.0333 4.2309c2.2646.5864 2.4156 1.0472 2.4156 1.8012 0 .7541-1.2076 1.3405-2.9692 1.0892v.8378c1.7616-.2095 2.9692.3351 2.9692 1.0891s-.151 1.2148-2.4156 1.8013c-5.2346 1.3405-5.0333 4.2309-5.0333 4.2309s.3524-2.0945 4.4797-3.2675c3.2712-.9215 4.3792-1.7174 4.0262-2.9322-.302-1.1311-.855-1.2149-1.308-1.3405z" fill="#cdad80"/><path d="m91.8205 31.5097s-.453-2.4296.6543-3.5188c0 0 1.057.4189 1.4094-.3351.4026-.754-.4027-1.0891-.906-1.0472 0 0-.0504-2.5553 3.9763-4.189 1.1576-.4608 1.7616-.6703 1.5603-1.2986-.2014-.6284-1.6107-.5865-2.8187.4608-1.2079 1.0053-2.0636-.4189-2.0636-.4189s-2.567-.2514-4.5803-1.4243c-1.2583-.754-1.7617-.1257-1.812.2932-.1007.3771.3523.6284.7047.6284.3523 0 .5536-.5446.5536-.5446s1.1577.8378 2.2147 1.2148c1.0066.377 1.8623.4608 2.2146.4608 0 0 0 1.0892 1.51 1.1729 0 0-1.4093 1.0054-1.6106 1.5918 0 0-.8054-.4188-1.1074.4608-.2516.7122.3524.8797.3524.8797s-1.51 2.0945-.2517 5.6133z" fill="#cdad80"/><path d="m106.417 19.0684c-2.013 1.8432-5.134 2.4715-5.134 2.4715.302-.2932.302-1.0053.302-1.0053s1.762-.2095 3.523-1.4662c-1.761-1.2567-3.523-1.4661-3.523-1.4661s0-.6703-.302-.9635c0 0 3.121.5865 5.134 2.4296z" fill="#cdad80"/><path d="m97.1055 19.0684c0 1.2567-2.5167 1.885-2.5167 1.885s.1007-1.0472 1.1073-1.4242c0 0-1.4596.5027-2.6676-.4608 1.2583-.8797 2.6676-.4608 2.6676-.4608-1.0066-.3351-1.1073-1.4243-1.1073-1.4243s2.5167.5446 2.5167 1.8851z" fill="#404c6e"/><path d="m96.5015 18.4819c0-.7121.906-.754.906 0v1.5081c0 .754-.906.7121-.906 0z" fill="#cdad80"/><path d="m311.863 25.8474c3.751 10.8301 13.842 13.1274 13.842 13.1274l.158-.9377s-9.192-2.9537-12.89-12.3303z" fill="#1e1e1e"/><path d="m317.427 32.2219-1.057-1.0891c6.543-.5865 8.003-7.9172 8.003-7.9172s.604 7.7077-6.946 9.0063z" fill="#1e1e1e"/><path d="m344.405 37.9608s-3.875-5.9484-9.915-5.6132c0 0 .302-6.5349-3.876-6.5349-4.228 0-4.479 6.7443-7.248 5.4038-2.365-1.131.755-3.1417 1.007-6.1159.352-3.8539-2.517-6.7024-6.594-6.4091 0 0-.654-4.0634-2.516-4.8593-2.064-.9215-2.869-2.4296-2.869-2.4296s-.755 1.5081-2.819 2.4296c-1.812.7959-2.517 4.8593-2.517 4.8593-4.026-.2933-6.895 2.5552-6.543 6.4091.252 2.9742 3.322 4.9849.956 6.1159-2.768 1.3405-3.02-5.4038-7.197-5.4038-4.228 0-3.876 6.5349-3.876 6.5349-6.09-.3352-9.966 5.6132-9.966 5.6132l-.654-.5446s2.718-5.5713 8.909-6.3672c0 0-.654-8.9645 10.268-7.247 0 0-.655-6.1159 6.946-6.4091 0 0 .654-3.7282 3.523-4.8593 2.869-1.131 2.97-3.26736 2.97-3.26736s.151 2.13636 3.07 3.26736c2.819 1.1311 3.523 4.8593 3.523 4.8593 7.55.2932 6.896 6.4091 6.896 6.4091 10.922-1.7175 10.268 7.247 10.268 7.247 6.191.7959 8.959 6.3672 8.959 6.3672z" fill="#1e1e1e"/><path d="m292.21 37.9608c-2.315-.1256-12.13-3.1836-12.13-9.1738 0-5.9903 6.745-7.9591 6.745-7.9591s-3.675 1.9688-3.675 5.697c0 1.8432 2.014 1.8432 2.014 3.3931 0 1.5918-2.014 1.7175-3.02.8797 0 0 1.308 4.5241 10.066 6.7023z" fill="#1e1e1e"/><path d="m312.863 25.8474c-3.434 10.8301-12.852 13.1274-12.852 13.1274l-.148-.9377s8.536-2.9537 12.019-12.3303z" fill="#1e1e1e"/><path d="m307.411 32.2219 1.057-1.0891c-6.544-.5865-7.953-7.9172-7.953-7.9172s-.654 7.7077 6.896 9.0063z" fill="#1e1e1e"/><path d="m312.092 36.8298c-3.524-1.3824-4.581-2.9742-4.581-2.9742l.856-.8797s1.208 1.6756 3.725 2.5134c2.567-.8378 4.127-2.7228 4.127-2.7228l1.057.8797s-1.661 1.8012-5.184 3.1836z" fill="#1e1e1e"/><path d="m292.26.427368c-2.365.12567-12.13 3.183632-12.13 9.173882 0 5.94835 6.745 7.95905 6.745 7.95905s-3.725-2.0107-3.725-5.697c0-1.8432 2.014-1.8432 2.014-3.43497 0-1.54992-2.014-1.67559-3.02-.83779 0 0 1.359-4.566 10.116-6.702383z" fill="#1e1e1e"/><path d="m312.863 12.3069c-3.434-10.19715-12.803-12.3069-12.803-12.3069l-.197.835109s8.585 2.813001 12.019 11.603591z" fill="#1e1e1e"/><path d="m307.411 6.16638 1.057 1.08914c-6.544.58646-7.953 7.87528-7.953 7.87528s-.654-7.70772 6.896-8.96442z" fill="#1e1e1e"/><path d="m280.432.427368s3.926 5.906472 9.966 5.613242c0 0-.352 6.53479 3.876 6.53479 4.177 0 4.479-6.74424 7.248-5.40376 2.365 1.13102-.755 3.14176-1.007 6.11596-.352 3.8538 2.517 6.7023 6.543 6.4091 0 0 .705 4.0214 2.517 4.8592 2.064.8797 2.869 2.3878 2.869 2.3878s.805-1.5081 2.819-2.3878c1.862-.8378 2.567-4.8592 2.567-4.8592 4.026.2932 6.895-2.5553 6.543-6.4091-.252-2.9742-3.372-4.98494-1.007-6.11596 2.769-1.34048 3.02 5.40376 7.248 5.40376s3.876-6.53479 3.876-6.53479c6.04.29323 9.966-5.613242 9.966-5.613242l.654.544569s-2.768 5.571353-8.959 6.325373c0 0 .704 8.96439-10.268 7.28879 0 0 .654 6.116-6.896 6.4092 0 0-.654 3.6863-3.523 4.8173-2.869 1.1311-3.02 3.2674-3.02 3.2674s-.151-2.1363-3.02-3.2674c-2.869-1.131-3.523-4.8173-3.523-4.8173-7.601-.2932-6.896-6.4092-6.896-6.4092-10.972 1.6756-10.318-7.28879-10.318-7.28879-6.141-.75402-8.909-6.325373-8.909-6.325373z" fill="#1e1e1e"/><path d="m311.863 12.3069c3.699-10.19715 13.842-12.3069 13.842-12.3069l.158.835109s-9.245 2.813001-12.943 11.603591z" fill="#1e1e1e"/><path d="m317.477 6.16638-1.107 1.08914c6.594.58646 8.003 7.87528 8.003 7.87528s.604-7.70772-6.896-8.96442z" fill="#1e1e1e"/><path d="m312.746 1.55847c3.523 1.38237 4.58 2.97418 4.58 2.97418l-.855.8378s-1.158-1.67559-3.725-2.51339c-2.517.8378-4.127 2.76473-4.127 2.76473l-1.057-.87969s1.661-1.80126 5.184-3.18363z" fill="#1e1e1e"/><path d="m282.546 31.5097s.504-2.4296-.654-3.5188c0 0-1.057.4189-1.409-.3351-.353-.754.402-1.0891.906-1.0472 0 0 .05-2.5553-3.977-4.189-1.107-.4608-1.761-.6703-1.56-1.2986.201-.6284 1.661-.5865 2.869.4608 1.208 1.0053 2.013-.4189 2.013-.4189s2.567-.2514 4.581-1.4243c1.258-.754 1.761-.1257 1.812.2932.1.3771-.353.6284-.705.6284s-.554-.5446-.554-.5446-1.157.8378-2.214 1.2567c-1.007.3351-1.863.4189-2.165.4189 0 0-.05 1.0892-1.56 1.1729 0 0 1.409 1.0054 1.611 1.5918 0 0 .855-.4188 1.157.4608.202.7122-.402.8797-.402.8797s1.51 2.0945.251 5.6133z" fill="#cdad80"/><path d="m274.191 19.0684c-.453.1256-1.007.2513-1.309 1.3405-.352 1.2148.755 2.0107 4.027 2.9322 4.127 1.173 4.48 3.2675 4.48 3.2675s.201-2.9323-5.034-4.2309c-2.265-.5865-2.416-1.0473-2.416-1.8013s1.208-1.2986 2.97-1.0891v-.8378c-1.762.2094-2.97-.3351-2.97-1.0892 0-.754.151-1.2148 2.416-1.8012 5.235-1.2986 5.034-4.2309 5.034-4.2309s-.353 2.1364-4.48 3.2674c-3.272.9216-4.379 1.7175-4.027 2.9323.302 1.131.856 1.2148 1.309 1.3405z" fill="#cdad80"/><path d="m282.546 6.6272s.504 2.42961-.654 3.5187c0 0-1.057-.41885-1.409.3352-.353.754.402 1.0891.906 1.0472 0 0 .05 2.5553-3.977 4.189-1.107.4608-1.761.6702-1.56 1.3405.201.6283 1.661.5445 2.869-.4608 1.208-1.0473 2.013.377 2.013.377s2.567.2932 4.581 1.4243c1.258.7959 1.761.1256 1.812-.2514.1-.4189-.353-.6283-.705-.6283s-.554.5026-.554.5026-1.157-.8378-2.214-1.2148c-1.007-.377-1.863-.4608-2.165-.4608 0 0-.05-1.0891-1.56-1.1729 0 0 1.409-1.0053 1.611-1.5918 0 0 .855.4189 1.157-.4608.202-.7121-.402-.8378-.402-.8378s1.51-2.1364.251-5.6551z" fill="#cdad80"/><path d="m268 19.0684c1.963-1.8431 5.084-2.4296 5.084-2.4296-.302.2513-.302.9635-.302.9635s-1.762.2094-3.524 1.4661c1.762 1.2567 3.524 1.4662 3.524 1.4662s0 .7121.302 1.0053c0 0-3.121-.6283-5.084-2.4715z" fill="#cdad80"/><path d="m277.261 19.0684c0-1.2567 2.517-1.8851 2.517-1.8851s-.101 1.0892-1.107 1.4243c0 0 1.459-.4608 2.718.4608-1.309.8797-2.718.4608-2.718.4608 1.006.377 1.107 1.4242 1.107 1.4242s-2.517-.5445-2.517-1.885z" fill="#404c6e"/><path d="m277.916 19.6549c0 .754-.957.754-.957 0v-1.4662c0-.754.957-.7121.957 0z" fill="#cdad80"/></svg>