<svg fill="none" height="25" viewBox="0 0 25 25" width="25" xmlns="http://www.w3.org/2000/svg" xmlns:xlink="http://www.w3.org/1999/xlink"><clipPath id="a"><path d="m0 0h25v25h-25z"/></clipPath><g clip-path="url(#a)"><path d="m12.5259.0488281c.0942.0793849.1619.1623069.2371.2376409 2.0926 2.093881 4.1851 4.187791 6.2806 6.278701.1659.16555.2439.35445.2439.58422-.0005 5.01781.0141 10.03561-.0114 15.05331-.0059 1.1406-.7269 2.1907-1.8486 2.6473-.1307.0532-.261.1076-.389.1802-4.9139.0186-9.83025.0186-14.76679.0002-.06699-.0448-.11108-.0791-.16108-.0965-.95993-.3325-1.613705-.9699-1.942969-1.9362-.018996-.0557-.0782921-.0977-.1188329-.1461.0000001-6.8533.0000001-13.7065.018399-20.57987.0448169-.06699.0792989-.11108.0964599-.16111.330119-.96237.970283-1.613375 1.936213-1.942926.05576-.019024.09778-.0783147.14619-.1188658 3.41899 0 6.83798 0 10.27981-.0000001zm-9.44868 23.7785719c4.40221.0003 8.80438-.0006 13.20658.0023.4887.0003.8979-.1825 1.2404-.5132.4244-.4099.5388-.947.5394-1.5069.005-4.6056.0029-9.2113.0023-13.81692 0-.08624-.0073-.17248-.0121-.27771-.1127 0-.2009 0-.2892 0-1.0171-.00001-2.0343.0031-3.0514-.00248-.2172-.00119-.438-.0145-.6508-.05521-1.4232-.27225-2.4905-1.5535-2.4442-2.97174.0175-.53647.0023-1.074.0058-1.65651 0-.59048 0-1.18097 0-1.78342-.0839-.00439-.1397-.00985-.1954-.00986-2.78282-.00041-5.56561-.0015-8.3484.00248-.16883.00024-.34228.02321-.5056.06603-.83965.22014-1.3396.91841-1.33984 1.86351-.00097 3.8243-.00044 7.64863-.00043 11.47293 0 2.441.00098 4.8821-.00058 7.3231-.00038.5947.19349 1.105.66164 1.4828.32692.2639.69427.4437 1.18183.3808zm10.20408-21.26395c-.1351-.13118-.2701-.26236-.4395-.42688 0 .61982-.0059 1.17997.002 1.73992.0055.38756.0004.77887.0523 1.16139.1037.76323.8757 1.40686 1.6442 1.40733.7882.00048 1.5763.00048 2.3645-.00055.0668-.00008.1336-.00958.2404-.01777-1.3011-1.30091-2.5703-2.56997-3.8639-3.86344z" fill="#404c6e"/><path d="m11.6221 3.05175c-2.00741.00706-4.01293-.01641-6.0185-.02018-.73814-.00139-1.41124.21475-1.91971.78448-.34751.38939-.59987.83586-.60585 1.37651-.02074 1.87549-.0453 3.75105-.04829 5.62664-.0069 4.3203-.00197 8.6407.00025 12.9838-.44033.0873-.80767-.0925-1.1346-.3564-.46815-.3779-.66202-.8881-.66163-1.4828.00156-2.441.00057-4.8821.00057-7.3231-.00001-3.8243-.00054-7.64864.00043-11.47294.00025-.9451.5002-1.64337 1.33984-1.86351.16332-.04282.33678-.06579.5056-.06603 2.78279-.00398 5.56558-.00289 8.34839-.00248.0557.00001.1115.00547.1954.00986 0 .60245 0 1.19294-.0019 1.80615z" fill="#d3e0f3"/><g fill="#cdad80"><path d="m10.3516 16.0645c-1.77359 0-3.52274-.004-5.27183.0039-.28653.0013-.54965-.1996-.62356-.4601-.07679-.2706.03181-.5434.28798-.6968.06987-.0418.16214-.065.24416-.065 3.49012-.0032 6.98025-.0013 10.47035-.0048.3886-.0004.6019.2553.6048.6173.0025.3286-.2745.6041-.611.6046-1.383.0021-2.7661.0009-4.1491.0009-.3091 0-.6183 0-.9518 0z"/><path d="m5.18306 19.3359c3.4224 0 6.82134.0019 10.22034-.0036.2731-.0004.4813.1099.5969.3283.1149.217.1217.4791-.0766.6643-.1161.1084-.2884.2217-.4358.2222-3.4884.0123-6.97681.0099-10.46524.0089-.33501-.0001-.57721-.252-.57928-.5919-.00223-.3642.23067-.621.56989-.628.04877-.001.09758-.0002.16979-.0002z"/><path d="m8.34965 10.3028c.62581 0 1.2273-.0069 1.82855.0024.3908.006.6643.2008.7175.528.0628.3864-.1797.7344-.5799.736-1.74722.0071-3.49454.0079-5.24178-.0012-.33399-.0017-.66344-.2237-.62904-.6561.03267-.4106.26236-.5995.71082-.605 1.05634-.013 2.11294-.0041 3.19385-.0041z"/></g></g></svg>