<svg height="520" viewBox="0 0 1280 520" width="1280" xmlns="http://www.w3.org/2000/svg"><g fill="#E0E1E0"><path d="m1192 40h48v336h-48z"/><path d="m1096 40h48v336h-48z"/><path d="m1000 376v-48h144v48z"/><path d="m952 280h48v96h-48z"/><path d="m1000 328v48h-192v-48z"/><path d="m1000 184v48h-96v-48z"/><path d="m712 280v-48h144v48z"/><path d="m808 136h48v144h-48z"/><path d="m712 184v-48h144v48z"/><path d="m760 280h-48v-144h48z"/><path d="m808 280h48v96h-48z"/><path d="m856 328v48h-192v-48z"/><path d="m856 40v48h-48v-48z"/><path d="m616 232h48v144h-48z"/><path d="m328 376v-48h432v48z"/><path d="m520 232h48v144h-48z"/><path d="m424 232h48v144h-48z"/><path d="m328 232h48v144h-48z"/><path d="m328 376v-48h144v48z"/><path d="m376 232v48h-144v-48z"/><path d="m232 232h48v144h-48z"/><path d="m280 328v48h-144v-48z"/><path d="m40 232h48v240h-48z"/><path d="m40 472v-48h192v48z"/><path d="m280 472v-48h96v48z"/><path d="m136 232h48v144h-48z"/><path d="m40 280v-48h144v48z"/></g><path d="m424 472v-48h816v48z" fill="#CDAD80"/><path d="m40 88v-48h720v48z" fill="#CDAD80"/><path d="m40 184v-48h624v48z" fill="#CDAD80"/><path d="m904 88v-48h144v48z" fill="#CDAD80"/></svg>