<svg height="850" viewBox="0 0 610 850" width="610" xmlns="http://www.w3.org/2000/svg"><path d="m0 0h610v850h-610z" fill="#f3efdf"/><path d="m0 259h610v591h-610z" fill="#39412a"/><path d="m0 260h45v139h-45z" fill="#f7aa55"/><path d="m533 711h77v139h-77z" fill="#f7aa55"/><path d="m0 245h610v10h-610z" fill="#f7aa55"/><g fill="#f3efdf"><path d="m539.7 459h20.4v143.1h-20.4z"/><path d="m498.8 459h20.4v143.1h-20.4z"/><path d="m457.9 602.1v-20.4h61.3v20.4z"/><path d="m437.4 561.2h20.5v40.9h-20.5z"/><path d="m457.9 581.7v20.4h-81.8v-20.4z"/><path d="m457.9 520.3v20.5h-40.9v-20.5z"/><path d="m335.2 561.2v-20.4h61.4v20.4z"/><path d="m376.1 499.9h20.5v61.3h-20.5z"/><path d="m335.2 520.3v-20.4h61.4v20.4z"/><path d="m355.7 561.2h-20.5v-61.3h20.5z"/><path d="m376.1 561.2h20.5v40.9h-20.5z"/><path d="m396.6 581.7v20.4h-81.8v-20.4z"/><path d="m396.6 459v20.4h-20.5v-20.4z"/><path d="m294.3 540.8h20.5v61.3h-20.5z"/><path d="m171.7 602.1v-20.4h184v20.4z"/><path d="m253.4 540.8h20.5v61.3h-20.5z"/><path d="m212.6 540.8h20.4v61.3h-20.4z"/><path d="m171.7 540.8h20.4v61.3h-20.4z"/><path d="m171.7 602.1v-20.4h61.3v20.4z"/><path d="m192.1 540.8v20.4h-61.3v-20.4z"/><path d="m130.8 540.8h20.4v61.3h-20.4z"/><path d="m151.2 581.7v20.4h-61.3v-20.4z"/><path d="m49 540.8h20.4v102.2h-20.4z"/><path d="m49 643v-20.4h81.8v20.4z"/><path d="m151.2 643v-20.4h40.9v20.4z"/><path d="m89.9 540.8h20.4v61.3h-20.4z"/><path d="m49 561.2v-20.4h61.3v20.4z"/></g><path d="m212.6 643v-20.4h347.5v20.4z" fill="#cdba72"/><path d="m49 479.4v-20.4h306.7v20.4z" fill="#cdba72"/><path d="m49 520.3v-20.4h265.8v20.4z" fill="#cdba72"/><path d="m417 479.4v-20.4h61.3v20.4z" fill="#cdba72"/><path d="m274.1 72.2c7.8 5.2 17 15.1 23.1 24.3 17.9 28.1 9.2 65.9-16.2 71.7-6.4 1.4-16.5 2.3-16.8 1.4 0-.2 1.5-.8 8.1-4 16.8-7.5 19.1-9 23.7-13.6 6.1-5.5 7.8-9.2 7.8-17.6 0-11.9-4-22.6-13.3-34.7-7.2-9.8-18.2-19.9-18.2-17.1 0 7.6-.3 25.2-.3 26.3-1.1 11-2.9 15.7-7.2 20.6-1.2 1.1-1.7 2-1.4 2 .2 0 1.7.3 3.1.9 1.8.3 5.5 1.4 8.7 2 7.5 2 15.9 3.7 20.5 4.6 5.5.6 5.8.9 4.4 3.2 0 .3-.9 1.4-1.5 2.9-1.4 2.6-1.4 2.6-5.5 2.3-10.4-.9-13.6-.3-29.2 5.5-17 6.1-24.8 7.2-32.1 4.6-3.7-1.1-4.9-2.3-12.7-10.7-3.2-3.5-6-6.1-6.3-5.8 0 0 .3 1.8.8 3.5 1.2 3.8 1.2 4.6.6 6.9-1.1 3.2-3.5 6.4-6.1 8.1-1.1.9-1.1.9-.2 2.1 4.6 5.7 1.7 16.1-5.2 17.9-4.4 1.1-11.6-5.2-13.3-12.5l-.6-1.7-.9 1.7c-3.5 7.9-9.2 10.5-17.6 8.7-4.9-1.1-6.7-2.9-10.1-9.5-3.2-7-4.4-7.5-8.7-5.2-4.1 2-6.7 5.2-11.6 14.4-4.6 8.1-7.2 11-10.7 11-8.1 0-11.8-17.3-7.2-32.4l.6-2.3-.6-.8c-2.9-2.6-1.7-10.2 3.2-20.9q2.3-4.9 2.9-5.2c.3 0 .3 0-.9 2.9-4.3 9-5.8 16.8-3.7 19.1q1.7 1.7 3.4-1.7c1.5-2.9 1.5 0 0 3.2-.6 1.1-1.1 2.3-1.7 2.6l-1.2.8-.5 4.7c-2.7 15.6.5 25.1 7.8 22.8 2.3-.9 3.7-2.6 8-10.1 6.7-11.3 11.3-16.5 16.2-17.4 3.2-.8 4.7.3 7.8 6.7 3.2 6.3 5 7.8 10.2 8.9 7.2 1.5 12.4-1.4 16.4-9.5.9-1.4 1.8-2 2.6-1.4.3 0 .6 0 .9-.9.6-1.2 1.2-1.5 5.2-2 7.8-.6 13.6-2.1 13.3-3.5-1.7-6.9-14.5-20.2-37.3-39.6-5.2-4.3-4.9-3.8-4.3-7.2 1.1-5.5 3.2-9.3 5.5-11 12.4-8.1 55.5-22 65-20.8 7.8.8 5.2 8.9-6.4 19.6-4.3 4.1-6.3 6.1-8 8.7q-1.5 2.3-.6-.9c1.1-3.1 3.7-6.3 9.5-12.1 6.4-6.4 6.7-6.9 3.5-7.8-7.2-1.7-48.6 11.3-63.6 20.2-2.6 1.8-2.6 1.8-.3 2.9 7.8 3.5 30.1 21.7 46 37 10.7 10.4 12.4 11.3 21.4 11 6-.3 10.6-1.2 18.5-4.1 2.3-.5 5.7-1.7 7.5-2.3 1.7-.5 3.1-1.1 3.1-1.1 0-.3-24.2-6.4-27.7-7-2.9-.5-2.9-.2-.6-4.9 1.2-2.6 1.2-2.6 9-4 4.3-.6 9.2-1.8 13-2.6 1.4-.6 1.4 2 1.7-32.1l.3-11.3 2-4c1.2-2.3 2.1-4.4 2.1-4.4 0-.3 0-.5.2-.8.6-.6.6-.6 2.7.8zm-134.2-1.1c.3 0 .3.3-.6 1.7-2.3 4.6-4 10.7-4 13.9-.3 4.3 2 5.5 3.5 2.3 1.4-2.9 1.7-.6.3 2.6-1.2 2-2.1 2.9-3.2 2.9-4.1 0-3.2-9.5 2.3-20.8.9-1.5 1.4-2.6 1.7-2.6zm320.3 19.9c-3.8 4.4-6.1 7.5-7.2 9.9-.3.8-.6 1.4-.9 1.4-.3-.6.6-3.5 2-6.4 1.8-3.4 2.1-3.7 6.7-9.2 5.5-6.7 5.8-7.2 1.7-7.8-6.6-.9-41.9 14.7-57.8 25.4-5.2 3.5-5.5 3.8-3.5 4.6 1.8.6 12.8 7.9 20.8 13.3 11.3 8.1 20.3 15.4 31 24.9 5.2 4.3 8.6 5.8 14.4 5.2 3.8-.3 3.8 0 3.8-3.8 0-10.1 5.2-21.6 9.8-21.6 5.5 0 8.1 13.6 4.1 21.9-1.5 2.9-6.1 7.3-10.4 9.3l-1.2.6v1.7c0 2.3-.9 2.3-1.2.3-.2-1.5-.2-1.5-1.4-.9-2.6 1.5-7.5 1.8-10.7.6-4-1.2-5.8-2.3-13.3-9.5-5.8-5.5-6.6-6.1-5.8-4.4 3.5 7.8 2.6 13.3-3.2 19.1-6.3 6.4-16.4 4.6-17.6-3.5-.6-2.6-.6-2.9-2.9-1.1-7.5 5.8-16.2 8.9-23.1 8.6-7.8-.5-15-4.9-17.9-10.4-1.2-2.3-1.2-2.3-2-.5-3.8 5.7-9.9 8.9-17.1 8.6h-4.3l-2.1-.8c-2.6-1.5-4-2.9-6.9-7.8-3.2-4.9-3.8-5.5-6.1-5.2-4 .8-8.4 5.7-11.5 13.5-2.3 5.8-3.5 8.1-4.7 10.2-8.6 15.3-21.1-4.9-16.4-26.9 1.1-6.1 2.3-6.4 1.7-.6-1.7 16.2 1.2 25.7 7.8 25.7 3.2 0 4.6-1.7 8.4-9.8 6.1-13 9.2-17.9 13.9-19.9 4-2.1 5.5-1.2 9.2 4.9 4.4 6.9 7.8 8.9 15.3 8.1 6.4-.9 9-2.3 15.1-9.3 2.3-2.9 2.9-2.6 2.6.3q-.5 7.4 10.4 10.4c8.9 2.3 24.3-1.7 32.3-8.7 1.8-1.7 2.9-1.1 2.4.9-1.8 5.8 0 8.1 6 8.1 3.2 0 4.7-.6 7.8-2.6 3.2-2.3 3.2-2.6 1.5-5.8-3.2-6.3-7.5-10.4-28.1-27.2-14.7-11.8-13.5-10.4-13.3-14.7.6-6.1 1.5-9 3.8-11 9.8-8.4 49.4-26.6 60.7-27.7 9.5-1.2 8.7 7.2-2.6 19.6zm-88.2-19.3c-.2 1.4-1.4 2.6-2.6 3.1-4.9 1.5-33.5 12.5-37.8 14.2-6.1 2.6-6.7 3.5-2.9 4.9l2 .6.3 2c0 2 0 2-2.6 1.2-3.8-1.5-4.6-2.9-2.6-6.7 2.3-4.3 1.1-3.7 37.3-17 9.5-3.5 9.2-3.2 8.9-2.3zm-192.2 5.7c-.3.6-.3.6-1.4-.2-1.8-1.5-2.6-.6-3.5 3.7-1.4 7.2-2.6 9.8-3.2 6.7-.3-3.5-2.9-8.4-4-7.8-.6.2-1.5.2-2.3-.9-.6-.3-.9-.6-.9-.3 0 0-.3.6-.9 1.4-2.3 4.4-6.9 7.8-14.7 10.7-5.8 2.3-6.1 2.1-.9-1.1 11.3-6.7 15.3-9.8 17.1-13.3.8-1.5 1.4-2 1.7-2l.6.3c1.7 0 4.9 5.4 4.9 8.6 0 .9.6.9.9 0 1.1-6 2.3-9.2 3.4-10.1 2.1-1.7 5 2 3.2 4.3zm218-4c4 1.2 4.3 1.7 1.4 6.1q-4.9 7.5-9.5 9.2c-3.2.9-11.6 3.5-11.6 3.2-.6-.3 3.5-2.9 10.7-6.4 7.5-4 6.9-4.3-4.3-4.6-3.8 0-7-.3-7-.3 0-.6 3.5-6 4.1-6.6.3-.3 1.1-.6 2-.9 1.7-.3 11.9-.3 14.2.3zm16.2 2.3c.5.3.8.3.8.3.3 0 .9 1.7.9 2.9 0 2.6-3.2 7.2-6.7 9.8-2 1.5-1.7 1.2.3-1.4 2.9-3.2 3.8-4.4 4.1-5.8 0-1.7-.9-2.3-2.9-1.7-1.2.5-1.2.2-.6-1.8.6-1.4 1.2-2 2.3-2.3zm-149.7 8.4c.3 1.7-5.5 8.7-7.8 9.8-1.5.6-10.4 3.5-10.4 3.5-.6-.6 1.7-2 7.8-4.9 6.6-3.5 6.3-4.1-3.5-4.1-2.6 0-4.9-.3-4.9-.3 0-.3 2.6-4.9 3.2-5.2 0 0 .6-.5 1.1-.5 4.1-1.5 14.5 0 14.5 1.7zm54.3 5.8c-.3.5-.5.5-1.1-.3-2.3-2.6-3.5-1.5-4.9 5.5-1.2 6.6-2.6 8.9-2.9 5.8-.6-3.8-3.8-9.9-4.7-8.7-.8.6-2.8-.6-3.7-2-.3-.9 1.4-4.4 2.6-4.4 2.3 0 5.2 4.1 6.1 9 .5 2.6.8 2.9 1.1.9.9-5.3 2.6-10.5 4.1-11.3 2.9-1.5 5.5 2.9 3.4 5.5zm-102.3 2.6q-2.6 7.5-.9 9.5 1.5 1.7 2.9-1.4c1.2-2.3 1.2.3 0 2.9-2.9 5.7-6.3.5-4.3-6.4.3-1.7 2-6.1 2.6-6.9.6-1.2.6 0-.3 2.3zm140.8-.3c5.2 4.3 7.2 12.1 4.6 17.6-.9 2-.9 1.5-.9-1.7.3-4.6-.8-7.5-4.9-11.9-2-2.3-2-2-1.1-3.7.8-1.8.5-1.8 2.3-.3zm132.1 2c-.6 1.2.6.6-17.1 7.2-15.9 6.1-22.2 8.4-26 10.1-3.5 1.5-3.2 1.5-2.6-.8.6-1.8.9-1.8 1.7-2 .6-.3 10.7-4.1 22.6-8.7 24.8-9.3 23.1-8.7 21.4-5.8zm-287.3.9c-.9 2-.9 2.6-.3 2.9 2 .5 4 4 3.7 6.6-.6 6.9-8.7 9.6-8.7 3.2 0-3.5 3.5-14.5 5-15.3 1.1-.9 1.4.3.3 2.6zm79.7 2.6c4.7 4.6 5.8 12.1 2.9 19.3-.3 1.2-.6 1.8-.3 1.8.6.3 3.2 2.9 3.5 4 2.3 4.6-2.6 11.6-6.9 9.3-2.1-1.2-1.8-4.4 1.4-12.5 3.2-8.3 2.6-13-2.3-18.7-1.7-1.8-1.7-1.5-.9-3.2.9-2 .9-2 2.6 0zm157.9 5.8c-.3.2-.6 0-1.5-.9-2.3-2.3-2.9-1.2-4.9 8.7-.9 3.7-2 5.5-2.6 3.7-.6-4.9-3.5-10.4-4.6-9.5-.9.8-3.8-.9-3.8-2.3 0-.9 1.7-3.8 2.3-3.8 2.6-.3 5.5 3.8 6.7 8.7.3 2.6.6 2.9.8 1.4.9-5.2 2.6-10.4 4.1-11.5 2.6-2.1 6.1 3.1 3.5 5.5zm-295.2 1.4-.5.6-.6-.9c-1.8-1.4-2.9-.6-3.5 3.2-1.2 4-1.7 6.6-1.7 6.9-.3.6 0 .6.8 1.2 5.2 2.3 5.2 6.1.3 7.5-4.3 1.2-4.9 1.7-4 3.8 1.7 4 2.6 13.3 1.7 17.6-.3 2.3-.6 1.7-.6-1.2 0-3.1-.5-7.2-1.7-12.4-1.4-6.9-.9-9.5 2.6-10.4 1.4-.6 1.4-.9.6-1.4l-1.2-.3-2 2v-1.5c.3-1.4 1.2-3.4 1.7-3.7.6-.3.3-1.5-1.1-4.9-1.5-3.5-2-4.7-2.6-4.1-.6.9-3.5-.6-3.2-1.7 0-.9.9-2.9 1.4-3.2 1.8-1.1 5 2.3 5.8 6.4.3.8.6 2 .6 2.3 0 .8.6.6.6-.3 0-2.3 2-8.7 3.2-9.5 2.3-2.1 5.5 1.7 3.4 4zm190.8-4c1.5.5 2 3.7.9 6.6-.6 2-.6 2 0 2 .3 0 .8.3 1.4.9 1.2.9 1.2 1.4-.3 3.2l-.8 1.1-1.2-.8c-1.1-1.2-1.1-1.2-2.3.5q-5.2 6.1-16.5 10.4c-6.6 2.6-6.3 2.1 1.8-2.8 7.2-4.4 11.2-7 13-8.7l1.4-1.2-1.4-.8c-4.1-2.6-3.2-7.8 1.7-10.2 1.4-.5 1.4-.5 2.3-.2zm-91.6 5.2-.6.5-.9-.8c-2-2.1-2.6-1.2-4 4.9-.3 1.7-.9 3.7-.9 4.3-.3.6-.6 1.2-.3 1.2 1.8.8 4.9 3.2 4.9 4.3.6 1.7-.8 3.2-3.7 3.8-2 .5-4.6 2-4.6 2.3 0 0 .2.8.5 1.7 1.8 3.5 2.6 12.2 2.1 15.9-.6 4.3-.9 4.3-.9.3 0-3.5-.6-6.9-1.7-12.4-1.2-5.5-.9-7.5.5-9 .6-.9.9-.9 2.9-1.7l.9-.3-.9-.3c-.8-.9-1.4-.9-2.6.3l-.8 1.1.2-1.4c0-1.4.9-3.2 1.5-3.8.9-.5.3-2.3-1.7-6.6-.9-2.3-1.5-2.9-1.8-2.3-.8.6-3.4-.9-3.4-2 0-.6.8-2.4 1.1-2.9 1.7-1.8 5.2 1.7 6.1 6 .8 4.1.8 4.1 2-1.1.9-3.8 1.5-5.2 2.6-6.4 1.7-2 5.2 2 3.5 4.4zm-45.4-1.2q-.3 3.8 4 1.7c2.4-1.4 2.1-2.3-.8-4.3-2.3-1.2-2.9-.9-3.2 2.6zm133.8 0c-1.4.6-1.4 1.4.3 2.6 1.8 1.2 2 1.2 2-.6 0-1.1 0-1.7-.5-2-.6-.6-.6-.6-1.8 0zm-76.9 0s-.3 1.2-.8 2.3c-1.5 4.9-1.8 8.7-.6 9.8q1.1 1.2 2.6-1.7c.3-.3.6-.9.9-.9.5 0-.9 4.4-2.1 5.5-.8.9-2 .9-2.6.3-2-1.4-1.4-8.1 1.8-14.7.3-.9.8-1.2.8-.6zm135.3-.3c1.2 0-.6 2.9-2 3.8-.9 0-8.7 3.1-17.4 6.3-15.8 6.1-22.8 8.7-25.7 10.1l-1.4.6.3-1.7c.3-.9.8-2 .8-2s10.4-4.1 22.6-8.7c12.4-4.6 22.5-8.4 22.8-8.4zm-228.3 4.1-.9 2 .6.3c5.5 3.7 4.9 12.1-.9 13.6q-5.6 1.3-3.5-7.8c.9-4.1 3.5-10.5 4.4-10.7 1.4-1.2 1.4 0 .3 2.6zm320.8.8q1.2 1.8 0 3.8l-.6.9-1.1-1.2c-1.2-1.2-1.2-1.2-2-.9-.6.3-1.5 2.6-2.4 7.3-1.1 5.4-2.8 8.9-2.8 6s-3.8-10.4-4.7-9.5c-.8.6-4-1.2-4-2.3 0-.9 1.7-3.8 2.6-3.8 2.3-.3 5.2 3.5 6.3 8.4.6 2.9.6 3.2.9 2.3q2-10.4 4.1-12.1c1.1-.9 2.3-.6 3.7 1.1zm-257.8 8.1c-.6.9-.9.9-2-.3-1.8-1.4-2.6-.3-3.5 5.2-1.2 5.5-2.3 8.1-2.9 6.1-.3-2.3-.6-3.2-1.7-5.5-1.2-2.9-1.5-3.5-2.4-2.9-1.1.6-3.4-1.1-3.1-2.6 1.1-5.5 6.6-2 7.5 4.9.3 1.8.6 2.3.8 1.5 1.8-7.5 2.7-10.1 4.1-10.7 2-.9 4 2 3.2 4.3zm-66.2-1.7c-.6 1.7-.6 4.3.3 4.6.8.3 3.2-.3 4-1.1l1.2-.9-.6-.9c-.3-.3-1.4-1.1-2.3-1.7-2-1.5-2-1.5-2.6 0zm283.5 15.6c-1.4.9-1.4.6-.2-.6 2.3-2 4.9-6.1 4.9-7.2 0-1.5-1.5-2-2.9-1.2-1.2.6-1.2.3-.6-1.4.3-1.5 1.4-2.6 2.3-2.9 6.1-1.2 3.5 8.4-3.5 13.3zm-258.1-7.2c.9 2.3-2.3 7.8-6.3 10.7q-3.1 2.1 0-.9c4-4.6 4.9-6.4 3.7-7.8-.3-.3-2-.6-2.6 0s-.9.3-.6-.9q.6-2.3 1.8-2.9c1.7-1.1 3.4-.3 4 1.8zm209.6 3.1c-.6.9-.9.9-2-.2-1.8-2.1-2.9-.3-4.4 6.3-.8 5.2-2.9 9.3-2.9 6.4 0-3.2-3.7-10.7-4.6-9.6-.9.9-4.3-1.4-3.7-2.6.5-2 1.7-3.4 2.3-3.4 2.3-.3 5.2 3.4 6 7.8.9 2.9.9 3.2 1.2 2.9 0 0 .3-.3.3-.9 0-2.6 2.3-10.1 3.7-11.3 2.4-1.7 5.5 1.8 4.1 4.6zm-110.4-4.3-1.2-.6-.3 1.2q-2.3 4.9 1.5 4.6c3.1-.3 4-1.7 2.3-3.5-.6-.5-1.8-1.4-2.3-1.7zm80 3.5c0 .3-.5 1.1-.8 2-2.1 3.8-3.5 9.5-3.2 12.1.6 3.2 2.3 3.8 3.7.9 1.5-2.9 1.8-.6.3 2.6-2.3 4.9-5.7 3.8-5.7-2 0-3.8 2.6-11.9 4.6-14.8.6-.8 1.1-1.1 1.1-.8zm99.2 2c-2.3 6.4-2.9 11.3-1.2 12.4 1.2.9 1.8.3 2.9-1.4 1.2-2.3 1.5-2 .6 1.1-2 6.7-6.7 5.5-6.4-1.4.3-3.5 2.3-9.8 4.1-12.1.6-1.2.6-.3 0 1.4zm-127.2 1.7c5.8 3.5 5.8 3.5 3.5 7.6-1.8 3.1-1.5 2.8-4.1 1.1-2.3-1.7-4.3-2.9-4.3-2.9-.3 0-.9 1.2-1.5 2.3-.5 1.2-1.1 2.3-1.1 2.6-.3.3-.9 0-7-4.3l-.5-.6.8-2c.6-1.2 1.5-2.6 1.5-2.9.6-2.3 3.2-1.4 7.2 2.3l.9.9.8-2c.3-.9.9-1.8.9-2.1 0 0 0-.5.3-.8.6-.6.6-.6 2.6.8zm-174.9 6.7c2.6 1.7 2.6 1.7.6 5.5-2 3.2-1.7 3.2-3.5 2-1.7-1.4-5.2-3.8-5.2-3.8-.3 0-.8 1.2-1.4 2.6-1.5 2.9-1.2 2.9-3.5 1.2-.9-.6-2.3-1.7-3.2-2.3-2-1.5-2-1.2-.8-3.5.3-.8.8-2 1.1-2.9.3-.8.9-1.4.9-1.7.6 0 4.9 2.9 6.3 4l.9.9.6-1.1c.3-.6.6-1.8 1.1-2.6.6-2.1.6-2.1 6.1 1.7zm252.1-.9c3.4 2.6 4.6 3.5 4.6 4.1 0 .3-3.2 6-3.5 6 0 0-1.7-.8-3.4-2.3-1.8-1.1-3.5-2-3.5-2s-.6 1.2-1.2 2.3c-.5 1.2-1.1 2.3-1.4 2.6 0 0-3.2-2-6.7-4.3l-.5-.6 1.1-2.6c.9-1.4 1.5-2.9 1.5-3.2s.3-.8.5-.8c.3 0 5 2.6 6.1 4l.9.9.8-1.8c.6-1.1.9-2 .9-2 0-.3.3-.6.3-.9.9-.8 1.2-.8 3.5.6zm60.4 12.4v2.4h.6c2.3-.9 8.9-4.7 10.1-6.1 1.4-1.7-.6-8.1-2.9-9.3-3.2-1.7-7.2 5.2-7.8 13zm-285.9-1.7c-.6.3-.6.3-1.4-.6-2.3-2.3-3.2-1.1-4.7 6.4-.8 4-1.4 5.8-2.3 6.6-.6.3-.6.3-.8-1.7-.3-3.5-3.2-9.2-4.4-8.7-1.1.9-2.9 0-3.7-1.7-.3-.9 1.4-4.3 2.3-4.3 2.9 0 5.5 3.7 6.3 8.9.6 2.6.9 2.9 1.2.9.6-4.6 2.6-10.4 3.8-11.3 2.8-1.7 6 3.2 3.7 5.5zm300.9 24.3c-1.1 2.3-2.9 2-6.3-.9l-1.5-1.1-.6 1.4c-2.3 5.8-10.7 12.2-18.2 13.9-1.4.3-4.3.9-6.6 1.4q-10 2.6-1.8-.8c18.3-7.8 23.2-10.7 26.1-16.2 1.1-2 1.7-2.9 2-2.9s.8-.6 1.1-1.2c.6-.8 1.2-1.4 1.5-1.7 3.5-2 6.3 3.8 4.3 8.1zm-292.8-5.2c3.5 4.6 10.4 7.2 8.4 2.9-1.2-2-3.5-3.8-6.7-4.9-3.1-.9-3.4-.6-1.7 2zm61.9 1.4c1.4 1.5.8 2.9-4.4 8.4-3.7 4.1-4.3 4.6-4 5.8.6 1.7 6.3 2 12.1.6 4.4-1.2 4.4-.9 1.2 1.4-4.1 2.6-10.1 3.8-12.5 2.3-4-2-3.1-5.7 2.4-11.5 3.4-3.8 3.4-4.1.2-4.4-1.7-.3-2.3-.3-3.4 0-1.5.6-1.5.6-.6-1.1.9-1.8 1.2-2 2.3-2.3 2-.6 5.5-.3 6.7.8zm226.3-.5c-.6.5-.6.5 0 .8.6.6 2.9 1.8 3.5 1.8.5 0 0-1.8-1.2-2.6-.9-.9-1.4-.9-2.3 0zm-324.6 8.1c-.9 1.7-1.2 1.7-3.2 1.4h-2l-.9 1.2c-2 2.3-6.6 5.4-11 6.9-.8.3-2 .9-2.9 1.1-.8.3-1.4.6-1.4.3s.6-.5 7.5-4.6c7.2-4.3 8.1-5.2 6.4-5.5-1.5-.6-2.3-2.3-1.5-4.3.3-.6.3-1.8.3-2.6-.3-1.2 0-1.2.6-1.8 2.9-2 9.8 4.4 8.1 7.9zm286.4-5.5c-.3 1.1-.8 1.4-1.4.8-1.2-.8-4.9.9-8.1 4.4q-3.2 3.1 6.9 1.4c6.7-1.4 10.2 1.2 7.8 5.8-.5 1.7-1.1 1.7-4.6 2.9-9.5 2.3-13 2.3-15.6-.6-1.1-1.2-1.4-2-.6-1.7 2.9 1.1 5.2 1.1 11.6 0 9.5-1.8 9.2-1.5 7.5-2.9-1.2-.9-3.5-.9-7.2-.3q-8.1 1.4-8.7-.9c-.6-2.6 5.2-9.8 9-11.3 2.9-1.1 4.6 0 3.4 2.4zm-213-.3c1.2 1.1 1.7 2 1.2 3.4-.3 1.8-.9 1.8-2.1.6-2-2-3.1-.6-4.3 6.1-1.4 6.3-3.2 9.8-3.2 5.8 0-.9-1.7-5.2-2.6-7.5-.8-1.5-1.7-1.8-2-1.2-.6.9-3.8-1.2-3.8-2.3 0-.6 1.5-3.8 2.1-4.1 2-1.1 5.7 3.8 6.6 8.7.6 2.9.9 3.2 1.2 1.5.8-6.1 2.9-11.3 4.6-11.9.9-.3 1.1-.3 2.3.9zm69.1 4.6c-.6.9-.6.9-1.7-.3-1.8-2.3-2.9-.9-4.4 6.1-.9 4.3-1.4 6-2 6.6q-.9 1.2-.9-.3c0-1.4-2.9-8.6-4-9.5-.3-.3-.3-.3-.9 0-.9.9-3.7-.9-3.7-2 0-.9 2-4.1 2.6-4.1 2.6 0 5.2 3.8 6.3 8.4.3 2.6.6 3.2.9 2.3 1.7-8.4 2.9-11.3 4.3-12.4 2.3-1.2 5.2 2.6 3.5 5.2zm-150-2.6c-.9 1.2-.9 1.7.3 2q2.8 1.2 1.7-1.7-.6-1.8-2-.3zm3.1 1.7c0 .9 0 1.2.6 1.2 2 .3 2.6.6 2.6.3s-.6-1.5-1.1-2c-1.5-1.8-1.8-1.5-2.1.5zm33.3.3c-1.5 5.2-2 8.4-.9 9.8q.9 1.8 2.6-.8 2-2.9.6.8c-1.2 4.1-3.8 5.2-4.9 2.4-1.2-2.6.6-10.7 2.6-13.6.9-1.2.9-.9 0 1.4zm148.9-.8c-2.4 5.7-2.9 10.4-1.2 11.2.6.3 1.2 0 1.7-1.1 1.5-2.1 1.8-1.5.6 1.7-.6 1.7-1.7 2.6-2.9 2.6-2.6-.3-2.6-6.6.6-13.3.6-1.4 1.7-2.6 1.2-1.1zm28.9 3.4c-.3 1.2-.6 1.5-1.5.3-1.7-1.7-2.6-.6-3.7 4.6-.6 3.8-1.2 4.9-1.8 5.5-.3.9-.8.6-.8-.6 0-1.4-2.4-6.9-2.9-7.2q-.5 0-.9 0c-.6.6-2.6-.6-2.6-1.7-.3-.9.9-3.2 1.7-3.2 2.3 0 4.7 3.5 5.2 7.5q.3 2.6.9-.3c1.2-4.9 2.3-8.1 3.2-8.6 1.7-.9 4 1.7 3.2 3.7zm55.2.6-.6.6-.9-.9c-1.4-1.7-2.3-.6-3.4 4.9q-1.2 5.5-2.1 5.8-.3 0-.3-.6c0-.3-.5-1.7-.8-3.2-1.5-3.7-2.3-5.2-3.2-4.6-.3.6-1.2.3-2-.8l-.9-.9.6-1.5c.8-1.7 1.1-2 2.6-1.4 1.7.9 2.9 2.6 3.7 6.4.3 1.4.9 2.3.9 2 0 0 .3-1.8.9-3.5.8-4 1.7-5.8 2.6-6.3 2-1.2 4.3 2 2.9 4zm-28.1-1.7q-1.7 4.9-1.4 7.2c.6 2.3 2.3 2.6 3.2 0 .5-1.2 1.1-.9.8.3-.8 4-2.9 5.8-4.6 4-.9-.8-.9-5.5 0-8.1.6-2 1.7-5.2 2.3-5.7.6-.6.3 0-.3 2.3zm-14.4 3.4c2.9 1.8 2.9 2.1.8 5.5-2 3.5-1.4 3.2-5.2.6-1.7-1.2-3.4-2.3-3.4-2.3-.3 0-.3-.6.5-2.3.6-1.2 1.2-2.6 1.5-3.2.9-2 1.2-1.7 5.8 1.7z" fill="#39412a" fill-rule="evenodd"/><path d="m267.1 49.1v.9q-.3.6-.3-.3c0-.6 0-.9.3-.6zm-.3 23.1v1.2q-.3.6-.3-.6c0-.6 0-.9.3-.6zm-41.9 46.6q-.9-.5-.9-.9s.3 0 .9.9zm79.2 6.6v2.6c0 .6 0 0 0-1.4 0-1.2 0-1.8 0-1.2zm85.6 22.9v.8q0 .3 0-.3 0-.8 0-.5z" fill="#39412a" fill-rule="evenodd"/><path d="m267.1 51.1v1.2c-.3.6-.3.3-.3-.6 0-.6 0-.9.3-.6zm-.3 23.2v.8q-.3.6-.3-.3c0-.5 0-.8.3-.5zm204.1 39.9q.4.8 0 1.7 0 .9 0-.9 0-1.3 0-.8zm-286.2 33.5v1.1q-.3.3-.3-.5c0-.6 0-.9.3-.6z" fill="#39412a" fill-rule="evenodd"/><path d="m267.1 54.3v1.5c-.3.5-.3.3-.3-.6s0-1.2.3-.9zm-53.8 12.7v.9q-.2.6-.2-.3c0-.6 0-.9.2-.6zm53.5 9.6v1.7c-.3.6-.3.3-.3-.9 0-1.1 0-1.4.3-.8zm18.8 36.1c.6 0 .9 0 .6 0-.3.3-.6.3-1.2 0q-.3 0 .6 0zm87 13.9q.5 0-.8.8c.2-.5.8-.8.8-.8zm-14.7 6.6c.8 0 1.1 0 .6.3-.3 0-.9 0-1.2 0-.3-.3 0-.3.6-.3zm-54.1-34.7v1.2q0 .3 0-.6c0-.6 0-.8 0-.6z" fill="#39412a" fill-rule="evenodd"/></svg>