<svg width="297" height="365" viewBox="0 0 297 365" fill="none" xmlns="http://www.w3.org/2000/svg">
<path d="M149.119 130.065C149.141 130.173 149.193 130.189 149.273 130.111C151.87 127.631 154.449 125.063 156.792 122.336C162.221 116.023 167.242 109.899 171.704 103.324C171.716 103.307 171.723 103.287 171.727 103.267C171.73 103.246 171.728 103.225 171.722 103.205C171.716 103.185 171.706 103.167 171.691 103.151C171.677 103.136 171.66 103.124 171.641 103.116C168.283 101.744 165 100.398 161.791 99.0804C159.779 98.2551 157.808 97.3185 155.998 96.1148C153.839 94.6793 152 92.6336 150.387 90.4432C148.267 87.5629 146.951 84.4934 147.083 80.9473C147.304 75.0327 150.058 69.5151 152.283 64.1959C152.65 63.3192 153.089 62.3721 153.601 61.3545C154.072 60.4173 154.567 59.4677 155.085 58.5057C158.204 52.7303 162.318 47.2942 167.22 42.9469C171.516 39.1374 176.9 35.8694 182.7 35.5393C186.511 35.3241 189.944 36.9563 192.179 40.061C193.341 41.6745 194.205 43.6096 194.772 45.8661C195.461 48.6172 195.811 51.5878 195.821 54.7778C195.844 63.1783 194.56 71.4569 191.967 79.6138C191.35 81.5575 190.69 83.5432 189.987 85.571C189.978 85.5959 189.979 85.6232 189.99 85.6473C190.001 85.6714 190.02 85.6905 190.045 85.7008C196.092 88.2658 201.696 91.6914 205.475 97.1405C205.486 97.1571 205.493 97.176 205.495 97.1957C205.497 97.2153 205.495 97.2352 205.488 97.2536C202.996 104.079 200.544 110.798 198.133 117.412C198.048 117.643 197.909 117.824 197.716 117.955C197.08 118.389 196.557 117.996 196.157 117.451C192.477 112.421 186.526 109.034 180.601 106.753C180.566 106.74 180.527 106.74 180.492 106.753C180.457 106.767 180.428 106.792 180.411 106.826C177.247 112.833 173.825 118.823 170.143 124.794C169.498 125.842 168.835 126.855 168.157 127.833C163.135 135.088 157.655 141.877 151.719 148.202C151.615 148.313 151.541 148.435 151.55 148.591C152.001 156.072 151.864 163.502 151.139 170.882C150.67 175.648 149.962 180.13 149.013 184.329C148.476 186.704 147.823 188.902 147.053 190.922C146.536 192.276 145.411 194.999 143.475 194.513C141.528 194.025 141.556 190.564 141.591 189.067C141.658 186.121 141.732 183.137 141.812 180.115C141.92 176.094 141.676 172.051 141.182 168.113C140.816 165.204 140.435 162.317 140.038 159.454C140.037 159.445 140.033 159.437 140.027 159.43C140.022 159.423 140.015 159.418 140.006 159.414C139.998 159.411 139.99 159.41 139.981 159.412C139.973 159.413 139.965 159.417 139.958 159.422C132.493 165.817 124.288 171.34 114.891 174.382C109.832 176.02 104.272 176.819 99.0643 176.033C87.2903 174.256 80.2252 165.43 78.2334 154.098C77.6606 150.838 77.3649 147.377 77.3463 143.715C77.3265 139.53 77.5465 135.266 78.0065 130.925C78.6537 124.821 79.5706 118.767 80.7571 112.762C81.2815 110.114 81.7743 107.581 82.2356 105.164C82.8028 102.206 83.9633 94.1804 80.8501 92.2756C79.7509 91.6042 78.1795 91.6005 76.8981 91.6673C75.3347 91.7501 73.8742 91.9208 72.5166 92.1792C65.5116 93.5121 58.9795 95.9603 52.9205 99.5237C51.3323 100.458 49.7776 101.625 48.2526 102.695C47.6928 103.088 46.9396 103.279 46.3278 102.912C45.724 102.552 45.5386 101.948 45.7717 101.1C45.856 100.796 45.9533 100.496 46.0637 100.199C46.1802 99.8835 46.3104 99.5781 46.4542 99.2826C46.603 98.976 46.7598 98.6792 46.9247 98.3924C48.1125 96.3275 49.5234 94.2564 51.1575 92.1792C55.849 86.2146 61.1474 81.1383 67.0527 76.9505C72.1762 73.3172 78.1162 70.3181 84.1418 69.0384C85.9321 68.6576 87.7441 68.7868 89.5778 69.426C94.4224 71.1119 96.9033 75.4964 97.1971 80.4799C97.4222 84.2672 96.5834 88.1527 95.3448 91.7879C91.988 101.631 89.4495 111.939 89.7954 122.368C89.9832 128.012 91.047 133.761 93.2787 138.822C95.6312 144.158 99.6148 148.248 105.43 149.576C109.404 150.483 113.62 150.11 117.597 149.114C124.057 147.495 130.219 144.385 135.833 140.824C135.847 140.815 135.857 140.802 135.863 140.787C135.868 140.772 135.868 140.755 135.863 140.74C134.322 136.516 132.404 132.316 130.109 128.138C123.932 116.896 116.233 106.856 107.013 98.0177C106.632 97.6505 106.412 97.2499 106.505 96.7232C108.328 86.4334 110.161 76.0652 112.006 65.6184C112.151 64.7968 113.022 64.2311 113.801 64.5909C114.008 64.6874 114.211 64.8295 114.409 65.0175C124.535 74.6099 132.583 85.6724 138.554 98.205C143.371 108.315 146.839 119.094 149.119 130.065ZM180.11 81.513C180.117 81.2063 180.157 80.7142 180.229 80.0366C180.614 76.3774 180.608 72.6383 179.771 69.1274C179.367 67.431 178.752 65.951 177.926 64.6874C176.766 62.9143 174.731 61.2154 172.593 61.2377C167.402 61.2896 162.286 63.9306 158.213 67.1059C158.193 67.1218 158.179 67.1433 158.171 67.1676C158.163 67.192 158.162 67.2182 158.169 67.2431C158.373 68.0023 158.67 68.6644 159.059 69.2295C160.752 71.6813 163.017 74.0238 165.68 75.4908C167.041 76.2414 168.342 76.8664 169.582 77.3659C173.088 78.7829 176.54 80.2023 179.937 81.6242C180.048 81.6712 180.106 81.6341 180.11 81.513Z" fill="black"/>
<path d="M210.331 210.285C208.54 209.832 206.826 209.248 205.187 208.532C198.399 205.568 196.818 197.297 197.608 190.8C197.908 188.324 198.218 185.863 198.538 183.414C198.756 181.744 198.938 180.52 199.083 179.744C200.061 174.514 202.039 169.569 205.017 164.91C206.802 162.118 208.741 159.595 210.837 157.341C210.977 157.189 211.056 157.012 211.075 156.809C211.439 152.957 211.816 149.043 212.205 145.065C212.572 141.306 213.477 136.766 216.552 134.297C218.789 132.5 221.686 132.283 224.433 132.951C225.543 133.221 226.674 133.811 227.693 134.347C230.485 135.816 233.403 137.702 236.445 140.004C242.452 144.549 248.013 149.717 253.129 155.507C257.622 160.594 261.717 166.207 264.654 172.186C266.627 176.202 268.139 180.617 268.271 184.956C268.303 185.993 268.231 187.151 268.053 188.429C267.231 194.362 265.487 200.407 262.694 205.52C260.958 208.694 258.589 211.739 255.342 213.161C254.927 213.343 254.428 213.479 253.845 213.568C248.388 214.406 242.837 214.51 237.051 214.228C232.39 214 227.688 213.539 222.947 212.844C222.827 212.826 222.735 212.869 222.672 212.974C219.87 217.653 216.788 222.207 213.427 226.638C210.878 229.997 208.375 232.961 205.918 235.529C204.923 236.569 203.811 237.606 202.581 238.641C201.902 239.213 201.209 239.704 200.504 240.112C197.387 241.909 194.413 243.602 191.053 245.288C183.919 248.866 176.646 252.21 169.234 255.318C169.179 255.341 169.131 255.377 169.095 255.424C169.059 255.471 169.036 255.527 169.028 255.585C168.732 257.685 168.355 259.922 167.661 261.936C167.41 262.666 166.967 263.644 166.242 263.991C164.83 264.664 164.07 263.06 163.824 261.98C163.539 260.715 163.356 259.387 163.274 257.996C163.272 257.968 163.264 257.941 163.25 257.916C163.236 257.892 163.216 257.872 163.192 257.856C163.168 257.841 163.14 257.832 163.112 257.83C163.083 257.827 163.055 257.832 163.028 257.842C160.64 258.82 158.226 259.704 155.785 260.493C154.975 260.754 154.158 260.974 153.334 261.155C153.296 261.163 153.263 261.183 153.239 261.213C153.215 261.242 153.202 261.278 153.202 261.316C153.163 263.841 152.983 266.158 152.66 268.268C152.497 269.336 152.089 271.474 151.046 272.036C148.785 273.253 147.76 268.919 147.421 267.609C146.325 263.374 145.151 259.402 143.899 255.693C142.517 251.603 140.637 247.818 138.826 243.83C136.367 238.422 133.074 233.5 128.986 229.282C127.385 227.632 125.707 226.212 123.952 225.024C123.871 224.968 123.801 224.979 123.741 225.057C119.757 230.294 115.663 235.248 111.46 239.919C110.664 240.804 109.8 241.704 108.869 242.617C108.03 243.441 107.087 244.225 106.042 244.971C104.334 246.19 102.79 247.211 101.41 248.035C95.213 251.734 88.5112 254.767 81.3041 257.134C76.8537 258.595 72.355 259.28 67.4639 259.282C57.1405 259.289 47.0477 255.181 45.0448 243.899C44.5854 241.31 44.5278 238.454 45.0262 235.837C46.116 230.122 48.3514 224.826 51.3084 219.849C54.6894 214.154 59.017 208.573 63.4803 203.411C66.7212 199.661 70.0527 195.927 73.4746 192.207C73.5242 192.153 73.5192 192.105 73.4597 192.065C67.6276 188.094 60.1551 186.141 53.2648 186.556C52.0163 186.632 50.5855 186.797 48.9725 187.051C47.1091 187.346 45.2723 187.825 43.4621 188.489C43.2929 188.55 43.0995 188.557 42.9265 188.628C42.0202 188.995 41.143 189.266 40.295 189.44C39.406 189.622 38.819 189.36 38.5338 188.656C38.3237 188.136 38.5785 187.402 38.8072 186.901C39.1271 186.196 39.486 185.524 39.884 184.885C39.9881 184.718 40.0811 184.549 40.163 184.377C40.2485 184.195 40.344 184.016 40.4494 183.841C42.7096 180.094 44.8644 176.542 46.9138 173.182C47.4804 172.254 48.0606 171.358 48.6545 170.497C50.1033 168.395 51.7063 166.906 54.2282 166.336C56.3185 165.865 58.4088 165.352 60.5903 165.32C67.5519 165.221 73.9271 166.919 79.7159 170.413C82.7584 172.251 85.8548 174.914 87.218 178.219C87.2887 178.388 87.3222 178.514 87.2571 178.696C85.1593 184.499 83.077 190.283 81.0102 196.048C80.7486 196.777 80.4424 197.435 80.0915 198.024C78.6056 200.518 76.7049 202.987 74.8712 205.164C72.5019 207.978 70.1804 210.73 67.9065 213.419C65.5856 216.164 63.6514 218.735 62.1041 221.131C61.5425 222.003 60.9871 223.052 60.4378 224.28C59.8446 225.606 59.4429 227.153 59.7702 228.589C59.9394 229.332 59.9729 230.085 60.196 230.825C62.0595 236.996 69.7607 238.379 75.2525 238.216C83.9561 237.957 92.2058 235.011 99.9665 231.159C103.243 229.535 106.352 227.865 109.291 226.152C109.656 225.939 110.04 225.742 110.444 225.56C110.597 225.492 110.592 225.438 110.429 225.397C108.035 224.79 106.358 223.451 105.399 221.38C104.564 219.575 104.543 217.72 104.465 215.749C104.245 210.247 103.985 204.293 103.686 197.888C103.638 196.827 103.662 195.923 103.759 195.175C104.473 189.718 107.078 183.531 113.792 184.11C117.824 184.459 121.305 187.155 124.223 189.794C130.097 195.106 135.254 201.134 139.692 207.877C143.713 213.985 146.908 220.563 148.948 227.619C151.699 237.131 152.984 247.338 153.218 257.392C153.219 257.402 153.222 257.412 153.227 257.421C153.232 257.429 153.24 257.436 153.249 257.441C153.258 257.446 153.269 257.448 153.279 257.447C153.289 257.447 153.299 257.444 153.307 257.438C154.602 256.543 155.946 255.602 157.339 254.615C159.086 253.38 160.873 252.299 162.662 251.119C162.71 251.088 162.738 251.044 162.746 250.986C162.779 250.715 162.785 250.445 162.764 250.177C162.144 241.96 161.653 233.773 161.289 225.617C160.836 215.429 160.674 205.803 160.804 196.738C160.841 194.167 161.112 190.665 161.617 186.233C162.102 181.973 162.831 177.987 163.806 174.276C165.944 166.136 170.144 156.861 179.074 154.405C180.631 153.976 182.024 153.797 183.251 153.868C184.268 153.924 185.325 154.264 186.424 154.888C189.398 156.572 191.425 159.686 192.457 162.955C193.651 166.733 193.697 170.717 193.067 174.71C192.89 175.836 192.671 177.057 192.412 178.373C191.832 181.333 191.299 184.084 190.813 186.625C190.597 187.757 190.164 188.942 189.513 190.178C188.003 193.044 185.312 193.086 182.751 191.64C181.686 191.038 180.634 190.434 179.597 189.828C178.95 189.449 177.728 188.889 176.997 189.303C175.769 189.997 174.657 191.597 173.971 192.78C172.94 194.562 172.126 196.488 171.529 198.558C169.835 204.433 169.437 210.791 169.755 216.913C170.27 226.814 170.458 236.341 169.924 245.986C169.924 245.993 169.926 246.001 169.929 246.008C169.933 246.014 169.939 246.02 169.946 246.024C169.952 246.027 169.96 246.029 169.968 246.029C169.976 246.028 169.983 246.025 169.989 246.021C179.308 239.307 188.212 232.122 196.701 224.468C198.224 223.094 199.779 221.593 201.363 219.964C203.343 217.932 205.332 215.869 207.331 213.777C208.303 212.76 209.315 211.635 210.368 210.404C210.42 210.344 210.408 210.305 210.331 210.285ZM204.069 183.828C207.526 186.206 211.335 187.274 215.525 188.19C219.282 189.011 222.737 189.69 225.891 190.227C225.959 190.239 226.019 190.221 226.07 190.173C226.398 189.856 226.594 189.493 226.657 189.082C227.34 184.694 227.541 180.46 226.105 176.329C224.95 173.006 222.903 169.708 219.185 169.467C216.702 169.306 214.357 170.495 212.289 171.708C210.08 173.004 208.322 174.933 206.773 177.177C205.489 179.037 204.349 181.017 203.355 183.119C203.338 183.155 203.334 183.195 203.342 183.233C203.351 183.27 203.371 183.304 203.401 183.329C203.616 183.503 203.838 183.67 204.069 183.828ZM233.14 188.711C233.146 189.03 232.893 189.498 232.778 189.804C232.69 190.039 232.506 190.184 232.534 190.451C232.544 190.54 232.53 190.625 232.491 190.707L232.317 191.085C232.267 191.192 232.301 191.254 232.419 191.273C236.664 191.943 240.911 192.475 245.16 192.869C248.621 193.19 252.017 193.148 255.591 192.994C256.778 192.942 257.902 192.782 258.963 192.515C258.975 192.512 258.986 192.505 258.995 192.496C259.004 192.487 259.01 192.476 259.013 192.463C259.016 192.451 259.015 192.438 259.011 192.426C259.007 192.414 259 192.403 258.991 192.395C258.26 191.783 257.57 191.167 256.967 190.408C251.624 183.659 245.491 177.466 238.251 172.789C238.24 172.782 238.228 172.778 238.215 172.777C238.202 172.777 238.189 172.779 238.178 172.785C238.166 172.79 238.156 172.798 238.149 172.808C238.142 172.818 238.137 172.83 238.136 172.843C237.976 174.177 237.715 175.527 237.353 176.893C237.061 177.99 236.671 179.195 236.183 180.508C235.403 182.608 234.643 184.692 233.903 186.762C233.692 187.353 233.444 187.973 233.159 188.622C233.147 188.651 233.14 188.68 233.14 188.711Z" fill="black"/>
<path d="M69.0987 300.648C69.9839 306.246 69.6343 312.047 68.4682 317.628C67.7913 320.864 67.1032 323.711 66.1268 326.714C65.8912 327.441 65.6402 328.082 65.3736 328.637C64.9012 329.62 63.6608 329.954 63.0545 328.899C62.8128 328.48 62.6107 327.913 62.4482 327.2C61.0237 320.951 59.2941 314.731 55.954 309.161C53.0008 304.241 49.404 299.81 45.1601 296.108C43.0698 294.284 40.8567 292.579 38.5209 290.993C34.7158 288.407 31.8519 286.527 28.9748 283.902C28.7535 283.7 28.6196 283.309 28.6996 283.018C31.4334 273.024 34.1734 262.996 36.9196 252.935C37.1335 252.152 37.8607 251.904 38.545 252.325C62.3255 266.897 89.831 274.152 117.496 276.363C141.578 278.288 166.378 276.604 190.197 271.786C201.047 269.592 212.072 266.673 222.267 262.681C226.892 260.87 231.849 258.706 237.135 256.19C242.385 253.691 248.087 250.927 254.241 247.898C256.726 246.675 259.53 245.346 262.223 244.454C263.605 243.997 265.863 243.569 266.063 245.659C266.158 246.629 265.156 248.13 264.577 248.933C263.733 250.103 262.862 251.212 261.965 252.258C260.327 254.168 258.716 256.004 257.131 257.766C246.28 269.832 233.555 279.508 218.956 286.794C215.346 288.595 212.118 290.105 209.273 291.323C205.968 292.738 202.653 293.977 199.325 295.042C197.037 295.774 194.751 296.474 192.466 297.143C192.172 297.228 191.87 297.306 191.56 297.375C190.83 297.536 190.121 297.8 189.381 297.954C188.804 298.074 188.226 298.271 187.653 298.413C166.708 303.637 145.395 306.368 123.715 306.606C105.388 306.808 86.8982 304.966 69.1954 300.559C69.1829 300.556 69.1698 300.556 69.1573 300.559C69.1448 300.562 69.1333 300.569 69.1237 300.577C69.1141 300.586 69.1068 300.597 69.1025 300.61C69.0981 300.622 69.0968 300.635 69.0987 300.648Z" fill="black"/>
</svg>
