<svg width="337" height="230" viewBox="0 0 337 230" fill="none" xmlns="http://www.w3.org/2000/svg">
<path d="M231.845 47.656L229.261 52.1318C229.064 52.4721 228.762 52.7386 228.401 52.8908C214.431 58.7696 206.666 62.0494 205.106 62.7302C200.775 64.63 196.697 66.378 192.701 68.7562C191.993 69.1794 191.147 70.058 190.449 70.4766C189.735 70.9029 189.566 70.7465 189.943 70.0074C191.083 67.7856 192.453 65.5224 194.775 64.0044C196.335 62.9863 197.849 62.123 199.317 61.4146C203.47 59.4182 207.62 57.5552 211.767 55.8256C219.102 52.7681 225.73 49.9729 231.652 47.4398C231.681 47.4263 231.714 47.4227 231.746 47.4293C231.778 47.436 231.806 47.4526 231.828 47.4767C231.85 47.5009 231.863 47.5313 231.866 47.5636C231.869 47.5958 231.862 47.6282 231.845 47.656Z" fill="#404C6E"/>
<path d="M206.798 116.858C206.819 116.85 206.837 116.836 206.851 116.819C206.866 116.801 206.875 116.781 206.879 116.759C206.883 116.737 206.881 116.714 206.873 116.694C206.865 116.674 206.852 116.656 206.834 116.642C202.635 113.358 199.006 109.613 195.947 105.409C191.736 99.6176 189.759 93.7434 190.904 86.802C191.397 83.8212 192.551 81.0459 194.366 78.476C197.869 73.508 202.274 70.3984 208.011 68.4066C209.807 67.7841 212.388 67.2459 215.754 66.792C216.52 66.6908 219.586 66.2829 224.953 65.5684C227.767 65.1912 230.78 64.4383 233.992 63.3098C237.321 62.1414 240.265 60.352 242.824 57.9416C243.685 57.1289 244.044 57.3114 243.9 58.489C243.869 58.7374 243.681 59.1821 243.334 59.823C240.157 65.6926 235.091 70.3708 228.893 72.864C226.478 73.8361 223.933 74.6105 221.257 75.187C217.634 75.969 214.134 76.6498 210.756 77.2294C205.843 78.0697 201.474 79.6337 197.649 81.9214C196.944 82.3446 196.259 82.8981 195.593 83.582C195.486 83.6955 195.423 83.8289 195.405 83.9822C195.347 84.5311 195.379 84.9819 195.501 85.3346C198.412 93.587 203.878 100.607 210.706 106.016C214.163 108.758 219.137 110.878 223.482 109.862C226.838 109.077 230.178 108.123 233.5 107.001C241.482 104.302 249.679 101.09 258.092 97.3636C258.457 97.2011 258.555 97.3007 258.387 97.6626L254.258 106.522C254.175 106.7 254.044 106.829 253.863 106.909C241.532 112.281 230.647 116.946 221.206 120.902C213.403 124.174 206.255 126.876 199.763 129.007C196.551 130.062 193.334 130.669 190.113 130.829C188.823 130.89 187.227 130.657 185.327 130.129C182.449 129.332 180.199 127.756 178.578 125.401C177.819 124.297 177.424 122.903 176.872 121.343C176.843 121.258 176.791 121.182 176.722 121.123C176.654 121.065 176.57 121.026 176.481 121.01C176.392 120.994 176.3 121.002 176.214 121.033C176.129 121.064 176.053 121.117 175.994 121.187C175.363 121.951 174.745 122.921 174.141 124.099C172.413 127.461 169.535 130.612 165.686 131.969C160.974 133.63 156.078 132.181 154.202 127.241C153.793 126.169 153.76 125.069 153.462 124.067C153.305 123.53 153.088 123.505 152.809 123.993C152.064 125.293 151.362 126.403 150.703 127.323C147.02 132.462 142.124 135.507 135.798 135.318C135.47 135.309 134.849 135.173 133.936 134.909C131.706 134.26 129.669 132.894 127.936 131.39C127.826 131.295 126.81 130.197 124.888 128.096C122.276 125.244 118.929 123.124 115.021 123.036C113.737 123.009 112.117 123.301 110.162 123.915C103.583 125.98 97.7485 129.803 92.3142 134.113C86.7849 138.495 81.3368 143.66 75.9699 149.606C74.3761 151.372 70.4023 155.833 64.0485 162.987C61.7374 165.594 59.1889 168.139 56.4028 170.623C52.4719 174.119 46.9686 177.082 41.5757 175.95C36.2303 174.828 32.4618 171.802 30.2703 166.874C27.9026 161.557 27.6957 154.588 29.0198 148.782C29.4918 146.703 30.3761 144.064 31.6726 140.866C32.8373 137.986 34.2549 135.286 35.9253 132.765C36.0081 132.639 36.0157 132.511 35.9483 132.379C34.9981 130.523 34.6502 128.524 34.9046 126.38C35.1284 124.482 35.5744 122.61 36.2425 120.764C37.8884 116.216 38.9106 113.33 39.3091 112.107C39.4041 111.821 39.542 111.156 39.7229 110.11C39.7352 110.042 39.774 109.981 39.8309 109.942C39.8878 109.902 39.958 109.887 40.0263 109.899L40.1734 109.922C40.2424 109.935 40.3043 109.972 40.3482 110.027C40.392 110.082 40.4148 110.15 40.4125 110.221C40.3481 111.564 40.2485 112.464 40.1137 112.921C39.1298 116.242 38.3191 119.119 37.6816 121.55C37.0808 123.838 37.067 125.881 37.6402 127.678C38.1045 129.14 39.4608 130.047 41.001 129.435C42.8538 128.694 43.4561 126.463 43.6078 124.6C43.612 124.546 43.6332 124.493 43.6689 124.448C43.7046 124.402 43.7535 124.366 43.8101 124.343C43.8377 124.33 43.8745 124.32 43.9204 124.31C44.0461 124.289 44.1166 124.341 44.1319 124.467C44.558 127.613 43.9863 130.467 42.417 133.027C42.086 133.57 41.4669 134.065 40.5596 134.513C39.2539 135.157 38.0861 134.915 37.0563 133.786C36.903 133.618 36.7896 133.642 36.7161 133.86C36.6333 134.105 36.4985 134.42 36.3115 134.803C34.5215 138.446 33.1116 141.816 32.0817 144.914C30.6013 149.379 30.1584 153.796 30.7531 158.166C31.3415 162.463 33.6403 166.253 38.1689 167.067C41.0531 167.586 44.063 167.189 47.1985 165.876C50.5608 164.465 53.7147 162.377 56.6602 159.611C59.7069 156.747 62.2095 154.23 64.168 152.062C64.2048 152.022 68.2322 147.543 76.2504 138.626C78.5399 136.08 81.7506 132.891 85.8822 129.058C89.7533 125.46 93.9203 122.174 98.3829 119.2C103.031 116.099 107.826 113.979 112.856 112.787C114.588 112.376 116.393 112.271 118.272 112.47C122.676 112.935 125.297 115.304 127.853 118.731C128.837 120.046 130.135 121.287 131.747 122.452C135.925 125.476 140.3 125.844 144.873 123.556C146.912 122.535 148.809 120.831 150.565 118.445C151.279 117.473 152.812 115.328 155.163 112.01C155.972 110.863 156.968 110.083 158.151 109.669C158.256 109.632 158.369 109.627 158.477 109.653C158.585 109.68 158.683 109.737 158.759 109.817C158.836 109.897 158.888 109.998 158.909 110.107C158.93 110.216 158.919 110.329 158.877 110.432C158.709 110.846 158.419 111.628 158.008 112.778C157.405 114.468 157.239 115.992 157.512 117.351C158.146 120.509 160.007 122.176 163.093 122.351C165.221 122.47 167.32 121.885 169.392 120.594C173.231 118.197 175.461 113.937 178.086 109.65C178.454 109.049 178.91 108.666 179.456 108.5C179.533 108.477 179.615 108.476 179.693 108.496C179.771 108.515 179.842 108.556 179.898 108.613C179.954 108.67 179.994 108.741 180.012 108.818C180.031 108.895 180.028 108.976 180.003 109.052C179.697 110.034 179.511 110.969 179.447 111.858C179.389 112.705 179.632 113.588 180.178 114.508C180.889 115.713 181.45 116.495 181.861 116.854C184.978 119.583 188.654 120.779 192.89 120.442C197.667 120.065 202.044 118.588 206.798 116.858Z" fill="#404C6E"/>
<path d="M246.346 76.038C246.612 78.2322 248.456 80.178 250.635 78.5496C251.447 77.9424 251.972 77.1711 252.208 76.2358C252.269 75.9905 252.43 75.2146 252.69 73.9082C252.712 73.8009 252.776 73.7503 252.883 73.7564C252.935 73.7595 252.981 73.7809 253.021 73.8208C253.055 73.8515 253.075 73.8913 253.081 73.9404C253.394 75.9583 253.228 78.0083 252.585 80.0906C252.073 81.7558 251.178 83.0055 249.9 83.8396C246.502 86.0614 244.143 81.1624 243.863 78.5082C243.504 75.1088 244.562 71.898 245.955 68.195C247.371 64.4199 248.341 61.5143 248.865 59.478C248.876 59.4373 248.897 59.4002 248.927 59.3705C248.956 59.3408 248.994 59.3195 249.035 59.3088C249.076 59.298 249.119 59.2983 249.16 59.3094C249.201 59.3205 249.239 59.3422 249.27 59.3722L249.398 59.501C249.42 59.5225 249.429 59.5485 249.426 59.5792C249.375 60.5958 249.215 61.87 248.966 62.7256C247.832 66.5927 247.064 69.3358 246.663 70.955C246.246 72.6447 246.14 74.3391 246.346 76.038Z" fill="#404C6E"/>
<path d="M263.881 82.0824C263.866 82.5792 263.895 83.1312 263.968 83.7384C264.088 84.7075 264.152 85.2487 264.161 85.3622C264.931 94.8842 266.105 109.67 267.683 129.72C267.95 133.081 268.154 136.838 268.295 140.99C268.377 143.456 268.325 146.025 268.138 148.7C267.887 152.324 267.088 155.741 265.743 158.948C264.86 161.049 263.423 162.753 261.43 164.059C257.481 166.649 252.465 167.219 248.153 165.108C245.601 163.861 243.656 160.752 242.783 158.061C242.642 157.625 242.534 157.634 242.461 158.088C241.811 162.035 242.102 165.879 243.334 169.62C245.21 175.324 250.291 178.117 256.332 178.411C259.918 178.583 263.38 178.163 266.718 177.151C272.406 175.427 277.773 173.093 282.818 170.149C290.206 165.835 296.652 161.115 301.668 154.841C301.815 154.66 301.847 154.459 301.765 154.238C300.143 149.761 298.1 145.581 295.636 141.698C293.898 138.957 291.14 135.81 287.981 135.369C286.675 135.188 285.534 135.315 284.556 135.751C283.312 136.306 282.45 137.27 281.972 138.644C281.947 138.718 281.939 138.797 281.949 138.875C281.959 138.952 281.988 139.026 282.032 139.09C283.471 141.234 287.903 140.599 290.942 140.466C293.53 140.355 295.346 142.973 296.422 145.148C297.455 147.24 298.516 149.503 299.604 151.938C299.699 152.15 299.633 152.229 299.406 152.177C299.244 152.14 299.072 152.007 298.891 151.777C298.123 150.806 295.926 150.461 294.836 150.517C292.01 150.658 289.848 150.736 288.349 150.751C285.394 150.785 283.267 150.507 281.968 149.919C278.253 148.235 276.942 145.001 277.002 141.008C277.09 135.143 279.89 128.644 285.103 125.718C288.974 123.542 293.176 126.265 295.94 129.099C301.168 134.456 303.961 141.038 304.316 148.842C304.381 150.308 304.388 152.306 304.339 154.836C304.29 157.136 303.978 159.022 303.401 160.494C301.452 165.453 297.65 169.331 293.512 172.689C285.186 179.446 274.639 185.375 264.41 187.947C262.019 188.548 259.788 188.845 257.716 188.839C255.726 188.836 253.76 188.335 251.817 187.335C245.955 184.317 242.686 178.218 241.39 171.856C240.24 166.207 240.317 160.718 241.62 155.388C241.773 154.75 241.797 154.2 241.693 153.737C241.558 153.154 241.356 152.628 241.086 152.159C241.053 152.101 241.006 152.052 240.95 152.017C240.894 151.981 240.83 151.96 240.764 151.955C240.698 151.95 240.633 151.962 240.572 151.988C240.512 152.015 240.46 152.056 240.42 152.108C238.13 155.025 236.015 157.513 234.075 159.574C232.515 161.233 230.736 162.566 228.737 163.571C227.284 164.298 225.229 165.071 222.572 165.89C215.955 167.926 209.32 168.642 202.669 168.038C197.915 167.606 194.066 165.674 191.12 162.242C189.171 159.976 187.769 157.263 186.913 154.105C186.077 151.02 185.588 148.256 185.447 145.815C185.159 140.823 184.869 135.93 184.578 131.137C184.577 131.121 184.58 131.105 184.586 131.09C184.592 131.075 184.601 131.062 184.613 131.051C184.625 131.041 184.639 131.033 184.655 131.029C184.67 131.024 184.686 131.024 184.702 131.026L189.368 131.841C189.423 131.851 189.473 131.88 189.509 131.923C189.545 131.966 189.565 132.019 189.566 132.075C189.643 135.326 189.919 138.564 190.394 141.79C190.915 145.323 191.678 148.195 192.683 150.406C194.504 154.408 197.998 156.561 202.196 157.375C204.933 157.903 207.723 158.097 210.568 157.959C216.039 157.699 221.614 156.589 227.294 154.629C230.907 153.384 234.05 151.237 236.723 148.189C239.431 145.107 240.576 143.529 242.58 141.915C242.644 141.863 242.714 141.821 242.787 141.79C243.842 141.355 244.328 141.643 244.245 142.655C243.905 146.712 245.126 150.236 247.909 153.226C249.037 154.437 250.49 155.236 252.267 155.623C256.482 156.536 260.407 155.684 264.042 153.065C264.134 153.001 264.175 152.912 264.166 152.798C263.81 146.883 263.413 141.071 262.975 135.364C262.071 123.53 260.899 108.923 259.458 91.5446C258.799 83.5835 258.413 79.1706 258.299 78.3058C258.033 76.2297 257.424 74.2179 256.474 72.2706C256.411 72.142 256.375 72.0013 256.371 71.8577C256.366 71.7141 256.392 71.571 256.447 71.438L260.148 62.445C260.295 62.0862 260.442 62.0862 260.589 62.445C263.289 68.9954 265.757 75.5887 267.991 82.225C268.334 83.2462 268.578 84.4713 268.722 85.9004C268.753 86.2009 268.75 86.3727 268.713 86.4156C268.471 86.6916 268.209 86.6962 267.927 86.4294C266.538 85.0985 265.254 83.6295 264.074 82.0226C263.951 81.857 263.887 81.8769 263.881 82.0824Z" fill="#404C6E"/>
<path d="M170.955 82.11C170.949 82.2296 171.001 82.5516 171.112 83.076C171.2 83.4961 171.253 83.8013 171.268 83.9914C172.007 93.3478 172.805 103.612 173.663 114.784C173.673 114.93 173.652 115.076 173.601 115.212C173.551 115.349 173.471 115.473 173.369 115.575L169.254 119.692C169.235 119.712 169.21 119.725 169.183 119.731C169.156 119.737 169.128 119.735 169.102 119.725C169.077 119.715 169.054 119.698 169.038 119.676C169.022 119.654 169.012 119.628 169.01 119.6C168.054 105.395 166.975 91.8114 165.774 78.8486C165.657 77.6005 165.401 76.4259 165.006 75.325C164.583 74.1505 164.183 73.0679 163.806 72.0774C163.754 71.9363 163.755 71.7968 163.811 71.6588L167.535 62.6106C167.682 62.2518 167.826 62.2533 167.967 62.6152C170.581 69.3588 172.77 75.6102 174.532 81.3694C175.081 83.1573 175.485 84.8547 175.746 86.4616C175.755 86.5192 175.75 86.579 175.732 86.6364C175.573 87.1117 175.326 87.1562 174.992 86.7698C174.535 86.2331 173.761 85.2947 172.67 83.9546C172.252 83.4394 171.806 82.5884 171.18 82.0226C171.046 81.8969 170.971 81.926 170.955 82.11Z" fill="#404C6E"/>
<path d="M181.645 63.825C184.21 72.7398 185.723 81.9214 186.674 91.1996C187.618 100.393 188.34 109.616 188.84 118.869C188.841 118.899 188.835 118.93 188.821 118.958C188.808 118.986 188.788 119.01 188.762 119.028C188.737 119.045 188.708 119.057 188.677 119.06C188.647 119.064 188.615 119.06 188.587 119.048L184.012 117.167C183.903 117.121 183.809 117.046 183.74 116.95C183.671 116.854 183.63 116.741 183.622 116.624C183.027 108.089 182.304 100.144 181.451 92.7866C180.652 85.9004 179.419 79.7088 177.525 73.3424C177.463 73.1281 177.474 72.8995 177.557 72.6938L181.217 63.802C181.383 63.4033 181.525 63.411 181.645 63.825Z" fill="#404C6E"/>
<path d="M157.484 87.216C158.658 87.1823 159.609 86.7959 160.335 86.0568C160.841 85.5416 161.052 84.5848 161.245 83.8396C161.567 82.6068 161.812 82.6206 161.981 83.881C162.189 85.4266 162.12 86.8265 161.774 88.0808C161.048 90.712 157.645 94.3414 154.795 91.6504C150.947 88.021 154.712 80.1688 156.422 76.015C157.026 74.5522 157.475 72.8287 157.77 70.8446C157.806 70.6023 157.946 70.5027 158.188 70.5456L158.372 70.5778C158.451 70.5901 158.491 70.6376 158.491 70.7204C158.494 73.0664 158.215 75.0061 157.655 76.5394C156.49 79.7195 155.788 81.8953 155.549 83.0668C155.241 84.5572 155.42 87.2712 157.484 87.216Z" fill="#404C6E"/>
<path d="M131.145 83.9592C130.028 81.5166 127.232 82.3308 125.642 83.743C124.385 84.8593 123.455 86.1595 122.851 87.6438C122.817 87.7266 122.759 87.7833 122.676 87.814L122.479 87.8876C122.435 87.9037 122.388 87.9077 122.342 87.8992C122.297 87.8908 122.254 87.8701 122.219 87.8395C122.185 87.8089 122.159 87.7694 122.144 87.7252C122.13 87.6811 122.128 87.6339 122.138 87.5886C122.638 85.4542 123.324 83.421 124.198 81.489C124.937 79.8545 125.94 78.4193 127.209 77.1834C128.402 76.0273 129.543 75.3664 130.635 75.2008C134.129 74.6718 135.264 79.2534 135.264 82.0272C135.261 83.6771 134.992 85.4343 134.455 87.2988C133.477 90.6813 131.779 93.955 129.361 97.1198C127.409 99.6682 125.332 101.959 123.131 103.992C123.076 104.044 123.015 104.05 122.947 104.011L122.768 103.909C122.735 103.89 122.706 103.864 122.684 103.832C122.661 103.801 122.646 103.765 122.639 103.727C122.631 103.689 122.632 103.65 122.641 103.613C122.65 103.575 122.666 103.54 122.69 103.509C125.458 99.8783 127.234 97.4924 128.019 96.3516C130.002 93.4751 131.218 90.3041 131.669 86.8388C131.752 86.181 131.389 84.4882 131.145 83.9592Z" fill="#404C6E"/>
<path d="M103.128 87.0504L102.493 87.8508C102.398 87.9735 102.276 88.0179 102.125 87.9842C100.139 87.5426 96.8429 85.928 98.1256 83.4394C98.6681 82.3875 99.0712 81.6362 99.3348 81.1854C99.457 80.9753 99.6476 80.8134 99.875 80.7264C100.102 80.6394 100.353 80.6326 100.585 80.707C102.719 81.3909 104.395 82.6666 105.615 84.5342C107.371 87.2175 108.57 90.1953 109.21 93.4674C109.385 94.3629 109.497 94.9394 109.546 95.197C109.816 96.577 110.03 96.5678 110.19 95.1694C110.536 92.0935 110.999 88.8889 111.578 85.5554C111.904 83.6832 113.302 75.8448 116.81 78.568C117.754 79.3009 118.611 80.2838 119.38 81.5166C119.398 81.5448 119.409 81.5771 119.41 81.6103C119.412 81.6434 119.405 81.6762 119.389 81.7052C119.095 82.3185 118.723 83.214 118.272 84.3916C118.268 84.4023 118.261 84.4117 118.253 84.419C118.244 84.4262 118.233 84.431 118.222 84.4329C118.211 84.4348 118.2 84.4336 118.189 84.4296C118.178 84.4256 118.169 84.4188 118.162 84.41C117.343 83.4624 116.425 82.7816 115.408 82.3676C113.624 81.6408 112.783 84.594 112.548 85.8314C112.214 87.6377 111.871 90.0067 111.518 92.9384C111.166 95.8579 110.623 98.6516 109.891 101.32C108.925 104.834 106.521 108.289 104.24 111.095C101.773 114.124 98.6605 116.484 94.9027 118.174C90.7343 120.048 86.2732 121.618 81.5193 122.884C80.9461 123.038 80.8435 122.883 81.2113 122.42C81.2235 122.404 81.3461 122.34 81.5791 122.227C87.5528 119.322 92.6362 116.424 96.8291 113.533C101.681 110.187 105.62 106.035 108.645 101.076C108.783 100.848 108.83 100.575 108.774 100.312C107.849 95.8318 106.282 90.9742 103.491 87.0596C103.374 86.894 103.253 86.8909 103.128 87.0504Z" fill="#404C6E"/>
<path d="M152.211 87.101L147.972 96.1998C147.96 96.2256 147.942 96.2486 147.921 96.2676C147.9 96.2865 147.875 96.3009 147.848 96.3099C147.821 96.3189 147.792 96.3224 147.763 96.3201C147.735 96.3177 147.707 96.3097 147.682 96.2964L138.248 91.4388C138.2 91.4133 138.164 91.3705 138.147 91.3191C138.13 91.2678 138.133 91.2118 138.156 91.1628L142.39 82.0686C142.403 82.0428 142.42 82.0198 142.441 82.0008C142.463 81.9819 142.488 81.9675 142.515 81.9585C142.542 81.9495 142.57 81.946 142.599 81.9483C142.627 81.9507 142.655 81.9587 142.68 81.972L152.119 86.825C152.166 86.8505 152.203 86.8934 152.22 86.9447C152.237 86.996 152.234 87.052 152.211 87.101Z" fill="#404C6E"/>
<path d="M271.889 86.71C271.897 86.6648 271.917 86.6225 271.946 86.5873C271.975 86.5522 272.013 86.5255 272.056 86.51C272.1 86.4946 272.146 86.4909 272.191 86.4993C272.236 86.5078 272.278 86.5281 272.312 86.5582C280.777 93.955 285.503 104.31 284.924 115.501C284.77 118.43 284.298 121.343 283.507 124.241C283.486 124.33 283.431 124.387 283.342 124.412C283.271 124.433 283.209 124.439 283.153 124.43C282.997 124.405 282.921 124.313 282.924 124.154C282.97 121.606 283.009 118.981 283.043 116.279C283.158 107.01 277.59 99.7326 270.855 93.9596C270.794 93.9078 270.747 93.8407 270.72 93.7648C270.692 93.6889 270.685 93.607 270.699 93.5272L271.889 86.71Z" fill="#404C6E"/>
<path d="M87.7166 97.6166C87.7451 97.5969 87.7673 97.5694 87.7805 97.5374C87.7937 97.5054 87.7973 97.4703 87.791 97.4362C87.7847 97.4022 87.7687 97.3707 87.7448 97.3455C87.721 97.3204 87.6905 97.3027 87.6568 97.2946C82.2501 96.1293 76.8679 96.0572 71.5103 97.0784C71.4833 97.0839 71.4553 97.0815 71.4297 97.0715C71.404 97.0614 71.3819 97.0442 71.3658 97.0218C71.3498 96.9994 71.3405 96.9729 71.3392 96.9454C71.338 96.9179 71.3447 96.8906 71.3585 96.8668L75.7446 89.2584C75.8335 89.1081 75.9622 89.0115 76.1308 88.9686C76.6426 88.8429 77.5101 88.7371 78.733 88.6512C83.1405 88.3415 87.1817 88.6405 90.8567 89.5482C91.8651 89.7966 92.8107 90.1738 93.6934 90.6798C93.7323 90.702 93.7663 90.7317 93.7936 90.7673C93.8209 90.803 93.8409 90.8437 93.8524 90.8873C93.864 90.9309 93.8668 90.9764 93.8608 91.0214C93.8548 91.0663 93.8401 91.1096 93.8175 91.149C93.5172 91.6795 92.5149 93.4352 90.8107 96.416C89.7993 98.1885 88.9503 99.4857 88.2637 100.308C86.6822 102.194 84.7926 104.135 82.3053 104.411C77.6403 104.923 73.6037 105.453 70.1954 106.002C70.0911 106.021 70.0298 105.978 70.0115 105.874L69.9885 105.754C69.9609 105.601 70.0206 105.499 70.1678 105.45C76.1584 103.454 82.6777 100.929 87.7166 97.6166Z" fill="#404C6E"/>
<path d="M56.1224 107.98C56.3431 109.397 56.5393 109.394 56.7109 107.971C57.0787 104.972 57.5032 102.008 57.9844 99.0794C58.3093 97.0891 58.7415 95.2982 59.2809 93.7066C59.7131 92.4324 60.6004 90.643 62.136 90.781C63.6072 90.9098 65.0233 92.8418 65.8508 94.0884C65.9336 94.2141 65.9474 94.346 65.8922 94.484L64.9175 96.8484C64.9052 96.8778 64.8859 96.9038 64.8611 96.9239C64.8364 96.9441 64.8069 96.9579 64.7753 96.9643C64.7437 96.9706 64.7109 96.9692 64.6796 96.9603C64.6483 96.9513 64.6195 96.935 64.5957 96.9128C63.3498 95.7214 60.8947 93.6008 59.7729 96.3976C59.3192 97.5261 59.0035 98.739 58.8258 100.036C58.0871 105.375 57.6059 108.701 57.3821 110.014C57.2442 110.823 56.95 111.67 56.7201 112.452C56.668 112.633 56.7324 112.751 56.9132 112.806C59.4924 113.574 61.782 116.306 63.2762 118.62C63.359 118.743 63.3819 118.876 63.3452 119.02L62.559 122.144C62.5253 122.282 62.4379 122.342 62.2969 122.323C59.992 122.032 57.9323 122.012 56.1178 122.263C54.0459 122.549 52.4704 123.538 51.3915 125.23C51.3088 125.362 51.272 125.506 51.2812 125.663C51.3364 126.675 51.4099 127.409 51.5019 127.866C52.4827 132.764 53.4543 137.663 54.4167 142.563C54.7723 144.373 55.0711 147.26 55.3132 151.225C55.4941 154.236 55.2274 157.15 54.5133 159.965C54.4992 160.019 54.4721 160.068 54.4344 160.109C54.3967 160.15 54.3496 160.181 54.2972 160.2C54.1439 160.255 54.0229 160.224 53.934 160.108C53.888 160.043 53.8696 159.942 53.8788 159.804C54.0842 156.161 53.9202 152.464 53.3869 148.713C52.6451 143.488 51.6321 138.276 50.3479 133.078C50.1579 132.296 49.9954 131.453 49.8606 130.548C49.4974 128.105 49.2721 126.261 49.9341 123.906C50.9364 120.359 53.9846 118.662 57.5109 118.565C58.0595 118.55 58.1055 118.387 57.6488 118.077C56.6833 117.424 55.1385 116.555 53.9662 117.07C52.9547 117.516 52.4582 118.381 51.7639 119.43C51.6873 119.546 51.577 119.629 51.4329 119.678C51.3908 119.692 51.3459 119.694 51.3025 119.686C51.2592 119.677 51.219 119.657 51.1859 119.628C51.1529 119.599 51.1281 119.562 51.1142 119.521C51.1003 119.48 51.0976 119.436 51.1065 119.393C51.3057 118.39 51.6766 117.171 52.2191 115.736C52.7861 114.239 53.7087 113.226 54.9868 112.695C55.1339 112.634 55.1906 112.528 55.1569 112.378C54.1761 107.582 52.4781 103.367 50.0629 99.7326C50.0344 99.6908 49.9958 99.6568 49.9507 99.634C49.9056 99.6111 49.8554 99.6001 49.8049 99.602C49.7544 99.6038 49.7051 99.6184 49.6618 99.6445C49.6185 99.6706 49.5825 99.7072 49.5571 99.751L49.102 100.538C49.0641 100.602 49.0075 100.653 48.9399 100.683C48.8723 100.714 48.7972 100.722 48.725 100.708C47.0009 100.349 44.578 99.268 44.3987 97.3084C44.3159 96.37 45.0929 95.358 45.6492 94.323C45.8944 93.8661 46.1228 93.5655 46.3342 93.4214C46.4722 93.3294 46.6193 93.3049 46.7756 93.3478C48.6054 93.8231 50.0782 94.714 51.1938 96.0204C53.9064 99.2082 55.4742 103.771 56.1224 107.98Z" fill="#404C6E"/>
<path d="M149.282 101.821L154.257 93.2006C154.273 93.1721 154.295 93.1471 154.321 93.1271C154.347 93.107 154.376 93.0923 154.408 93.0837C154.44 93.0752 154.473 93.073 154.505 93.0772C154.538 93.0815 154.569 93.0922 154.597 93.1086L163.792 98.417C163.847 98.4481 163.887 98.4985 163.906 98.5582C163.925 98.6179 163.92 98.6824 163.893 98.739L159.673 107.801C159.658 107.832 159.638 107.86 159.612 107.883C159.586 107.906 159.555 107.923 159.523 107.933C159.49 107.944 159.455 107.947 159.421 107.943C159.386 107.94 159.353 107.929 159.324 107.911L149.374 102.161C149.346 102.145 149.321 102.123 149.301 102.098C149.281 102.072 149.266 102.042 149.258 102.01C149.249 101.979 149.247 101.946 149.251 101.913C149.255 101.881 149.266 101.849 149.282 101.821Z" fill="#404C6E"/>
<path d="M149.158 102.221L144.243 110.736C144.208 110.798 144.149 110.843 144.08 110.862C144.011 110.881 143.938 110.872 143.875 110.837L134.975 105.694C134.916 105.66 134.872 105.606 134.851 105.541C134.831 105.476 134.836 105.406 134.864 105.345L139.03 96.3976C139.046 96.3635 139.068 96.3332 139.097 96.3084C139.125 96.2837 139.158 96.2651 139.194 96.2538C139.23 96.2426 139.268 96.2389 139.305 96.2431C139.343 96.2472 139.379 96.2591 139.411 96.278L149.057 101.853C149.119 101.889 149.164 101.948 149.183 102.016C149.202 102.085 149.193 102.159 149.158 102.221Z" fill="#404C6E"/>
<path d="M272.359 122.539C273.195 123.956 274.979 124.048 276.175 123.009C276.938 122.343 277.447 121.4 277.701 120.18C277.814 119.631 277.894 119.08 277.94 118.528C277.942 118.485 277.961 118.444 277.993 118.414C278.025 118.384 278.067 118.367 278.11 118.367H278.285C278.463 118.367 278.553 118.458 278.556 118.639C278.575 119.605 278.552 120.652 278.487 121.78C278.345 124.297 277.209 127.714 274.648 128.717C273.364 129.217 272.239 128.926 271.274 127.843C268.754 125.019 268.855 121.33 269.669 117.788C270.034 116.193 271.097 113.111 272.86 108.542C273.163 107.757 273.594 106.281 274.152 104.116C274.188 103.985 274.261 103.911 274.368 103.896C274.536 103.874 274.625 103.949 274.634 104.121C274.705 105.139 274.651 105.969 274.474 106.61C273.839 108.934 273.13 111.446 272.345 114.144C271.922 115.601 271.651 117.16 271.531 118.823C271.43 120.193 271.706 121.432 272.359 122.539Z" fill="#404C6E"/>
<path d="M72.8896 130.484C74.5999 129.6 75.1424 127.489 75.3033 125.621C75.3125 125.511 75.3708 125.442 75.478 125.414C75.524 125.402 75.5669 125.402 75.6068 125.414C75.6589 125.43 75.6957 125.46 75.7171 125.506C75.9991 126.107 75.9838 127.618 75.6711 130.037C75.3539 132.494 73.7632 135.856 70.9035 135.971C68.6461 136.063 66.9634 132.816 66.6967 131.045C66.2584 128.165 66.6492 125.111 67.8691 121.882C67.9917 121.557 68.9863 118.79 70.8529 113.583C71.1012 112.893 71.2161 112.033 71.4322 111.269C71.4456 111.221 71.4694 111.175 71.5021 111.136C71.5348 111.098 71.5755 111.066 71.6214 111.045C71.6674 111.024 71.7174 111.012 71.7681 111.012C71.8188 111.012 71.8689 111.023 71.9149 111.044L72.0667 111.118C72.0987 111.132 72.1254 111.156 72.1427 111.187C72.1601 111.218 72.1673 111.253 72.1632 111.288C71.9732 112.738 71.8368 113.614 71.754 113.914C71.0429 116.543 70.3579 118.964 69.6989 121.178C68.9357 123.731 68.0484 128.648 70.4529 130.364C71.2008 130.898 72.013 130.937 72.8896 130.484Z" fill="#404C6E"/>
<path d="M222.089 140.682C221.497 141.111 220.924 141.547 220.369 141.988C220.346 142.008 220.32 142.022 220.291 142.03C220.262 142.039 220.231 142.041 220.201 142.037C220.171 142.033 220.142 142.023 220.115 142.008C220.089 141.992 220.066 141.971 220.048 141.947C219.968 141.843 219.959 141.72 220.02 141.579C220.317 140.892 220.999 139.7 222.066 138.005C223.781 135.277 226.176 133.768 229.252 132.084C231.768 130.707 234.45 129.406 237.298 128.179C245.824 124.514 251.593 122.023 254.603 120.704C255.007 120.526 255.099 120.63 254.879 121.017L251.913 126.155C251.683 126.549 251.331 126.856 250.911 127.029C249.136 127.762 243.043 130.372 232.631 134.858C228.518 136.631 225.004 138.572 222.089 140.682Z" fill="#404C6E"/>
<path d="M170.987 149.316L169.884 131.353C169.875 131.181 169.924 131.029 170.031 130.898L174.196 125.635C174.353 125.436 174.438 125.463 174.454 125.718C174.678 129.07 174.774 133.202 174.743 138.115C174.71 143.249 174.137 148.284 173.024 153.221C172.727 154.546 172.172 155.837 171.36 157.095C169.162 160.499 166.373 163.527 162.992 166.18C154.441 172.886 144.778 176.99 134.005 178.489C132.935 178.636 131.795 178.71 130.584 178.71C130.087 178.71 128.935 178.699 127.127 178.678C126.281 178.666 125.118 178.463 123.637 178.071C116.635 176.212 111.265 171.014 108.516 164.33C106.867 160.325 106.079 155.965 106.153 151.248C106.278 143.235 107.831 135.651 110.81 128.496C111.147 127.69 111.634 126.811 112.272 125.861C112.364 125.723 112.491 125.67 112.654 125.704C112.877 125.747 112.978 125.894 112.957 126.146C112.957 126.164 112.954 126.183 112.948 126.201C112.562 127.642 111.926 130.126 111.04 133.653C110.123 137.293 109.589 140.893 109.435 144.454C109.218 149.572 110.551 154.362 113.435 158.824C117.037 164.393 122.043 167.54 128.455 168.263C132.195 168.687 136.463 168.326 141.26 167.182C151.094 164.836 160.799 159.924 168.003 152.918C169.079 151.872 170.028 150.82 170.849 149.762C170.95 149.63 170.996 149.482 170.987 149.316Z" fill="#404C6E"/>
<path d="M253.403 146.285C254.31 146.493 255.132 146.191 255.867 145.378C256.695 144.458 257.133 143.591 257.182 142.775C257.216 142.165 257.239 141.844 257.251 141.813C257.653 140.676 257.901 140.712 257.996 141.924C258.226 144.834 257.616 147.458 256.166 149.794C255.976 150.101 255.549 150.484 254.883 150.944C253.357 152.012 251.679 151.717 250.507 150.236C247.583 146.533 248.465 141.744 249.937 137.595C250.482 136.047 251.491 133.251 252.962 129.209C253.201 128.542 253.339 127.535 253.582 126.744C253.604 126.675 253.65 126.618 253.713 126.583C253.775 126.548 253.849 126.538 253.918 126.555C254.191 126.626 254.293 126.877 254.226 127.31C253.794 130.116 253.1 132.19 251.656 137.269C250.982 139.645 250.847 141.829 251.251 143.819C251.533 145.196 252.251 146.018 253.403 146.285Z" fill="#404C6E"/>
<path d="M211.298 148.161C211.421 147.993 211.502 147.74 211.542 147.402C212.017 143.545 212.554 139.892 213.151 136.445C213.542 134.196 215.133 125.769 219.165 129.596C220.026 130.415 220.751 131.298 221.339 132.245C221.398 132.34 221.405 132.44 221.362 132.544L220.333 135.056C220.317 135.095 220.292 135.129 220.259 135.156C220.227 135.182 220.189 135.201 220.148 135.209C220.107 135.217 220.065 135.215 220.025 135.203C219.985 135.19 219.948 135.169 219.919 135.139C219.076 134.299 218.169 133.656 217.197 133.211C215.045 132.227 214.172 136.487 213.96 137.839C213.681 139.627 213.329 142.191 212.903 145.53C212.645 147.545 212.241 149.566 211.689 151.593C211.514 152.237 211.101 152.453 210.623 152.886C210.592 152.914 210.554 152.933 210.513 152.942C210.473 152.95 210.43 152.948 210.39 152.934C210.351 152.921 210.315 152.897 210.287 152.865C210.259 152.833 210.24 152.794 210.232 152.752C209.481 148.723 208.262 144.975 206.577 141.51C206.074 140.473 205.406 139.383 204.572 138.239C204.538 138.194 204.494 138.158 204.442 138.134C204.391 138.11 204.335 138.099 204.279 138.102C204.222 138.105 204.168 138.122 204.121 138.152C204.073 138.182 204.034 138.223 204.007 138.271L203.575 139.021C203.538 139.084 203.483 139.134 203.417 139.163C203.351 139.193 203.278 139.201 203.207 139.187C201.736 138.88 200.568 138.343 199.703 137.577C198.579 136.586 198.286 135.541 198.825 134.44C199.362 133.339 199.884 132.402 200.393 131.629C200.457 131.534 200.548 131.46 200.653 131.418C200.759 131.375 200.875 131.365 200.986 131.39C205.988 132.452 208.453 137.623 209.869 142.131C210.558 144.327 210.974 146.32 211.115 148.111C211.127 148.301 211.188 148.318 211.298 148.161Z" fill="#404C6E"/>
<path d="M119.122 149.96C120.226 149.997 121.099 149.506 121.743 148.488C122.313 147.583 122.642 146.444 122.731 145.07C122.741 144.932 122.81 144.843 122.938 144.803C122.981 144.791 123.032 144.794 123.09 144.813C123.179 144.846 123.228 144.909 123.237 145.001C123.651 148.497 122.851 154.496 118.511 155.103C117.895 155.189 117.222 154.885 116.492 154.192C113.279 151.138 113.987 145.999 115.348 141.988C116.043 139.943 116.954 137.425 118.079 134.435C118.483 133.368 118.787 132.002 119.03 131.059C119.079 130.868 119.2 130.806 119.394 130.87C119.547 130.919 119.62 131.023 119.614 131.183C119.59 132.121 119.476 132.972 119.274 133.736C118.716 135.83 118.077 138.103 117.357 140.553C116.652 142.939 116.41 145.101 116.63 147.039C116.768 148.244 117.665 149.914 119.122 149.96Z" fill="#404C6E"/>
<path d="M153.797 143.916C153.772 144.054 153.714 144.282 153.622 144.601C153.549 144.874 153.464 145.102 153.369 145.286C151.745 148.525 149.324 149.612 146.105 148.548C144.352 147.968 143.474 147.678 143.471 147.678C140.988 147.416 138.804 149.003 137.218 150.742C135.652 152.462 134.596 153.591 134.05 154.128C132.276 155.866 130.221 157.306 127.729 158.01C125.807 158.553 123.89 158.956 121.977 159.22C121.951 159.224 121.924 159.222 121.899 159.215C121.873 159.208 121.85 159.195 121.829 159.178C121.809 159.161 121.792 159.14 121.781 159.117C121.769 159.093 121.762 159.067 121.761 159.04C121.752 158.835 121.876 158.668 122.134 158.539C124.538 157.338 128.17 156.115 130.437 154.486C132.251 153.186 133.368 152.289 133.788 151.795C134.582 150.863 135.981 149.278 137.986 147.039C139.27 145.604 140.674 144.586 142.197 143.985C144.275 143.166 145.714 144.928 147.494 145.139C148.992 145.317 150.307 145.007 151.438 144.21C152.597 143.391 153.549 141.036 154.201 139.716C154.227 139.665 154.272 139.623 154.331 139.594C154.39 139.566 154.46 139.552 154.533 139.555L154.652 139.564C154.697 139.566 154.74 139.58 154.778 139.602C154.817 139.625 154.849 139.656 154.873 139.694C154.896 139.731 154.91 139.774 154.913 139.818C154.917 139.862 154.909 139.906 154.891 139.946C154.56 140.679 154.605 141.274 155.024 141.731C156.013 142.807 158.325 142.476 159.893 142.246C159.971 142.234 160.046 142.206 160.113 142.164C160.18 142.121 160.237 142.065 160.281 141.999C160.324 141.933 160.354 141.859 160.367 141.781C160.38 141.703 160.377 141.623 160.358 141.547C160.186 140.887 159.881 140.263 159.443 139.674C159.351 139.552 159.325 139.415 159.365 139.265C159.573 138.483 159.708 137.975 159.769 137.742C160.051 136.638 160.404 136.617 160.827 137.678C161.544 139.481 161.447 141.435 160.537 143.538C160.151 144.431 159.525 144.937 158.661 145.056C157.138 145.265 156.048 145.259 155.392 145.038C155.107 144.943 154.672 144.544 154.087 143.842C153.939 143.661 153.843 143.686 153.797 143.916Z" fill="#404C6E"/>
<path d="M97.445 154.284C97.6442 155.704 97.8235 155.701 97.9829 154.275C98.3293 151.199 98.8411 147.807 99.5185 144.1C99.8281 142.401 100.361 140.864 101.118 139.49C101.805 138.248 102.801 137.998 104.107 138.741C104.76 139.112 105.526 140.003 106.406 141.413C106.491 141.548 106.504 141.689 106.442 141.836L105.564 143.971C105.552 144 105.532 144.026 105.508 144.047C105.483 144.067 105.453 144.08 105.422 144.086C105.39 144.092 105.358 144.09 105.327 144.081C105.297 144.071 105.269 144.054 105.247 144.031C103.997 142.724 101.739 140.926 100.718 143.828C100.231 145.208 99.8848 146.876 99.6794 148.833C99.3637 151.829 98.8794 154.885 98.2266 158.001C97.7699 160.181 97.0604 162.083 96.0979 163.705C94.5654 166.29 93.1203 168.319 91.7624 169.791C89.3319 172.425 86.3297 174.478 82.7559 175.95C78.9951 177.499 75.1914 178.807 71.3447 179.874C71.1271 179.935 71.0383 179.855 71.0781 179.635L71.1195 179.395C71.1253 179.361 71.1391 179.329 71.1599 179.301C71.1807 179.273 71.2078 179.25 71.239 179.234C75.199 177.342 79.084 175.258 82.8938 172.983C88.5273 169.613 93.0927 165.174 96.5899 159.666C96.7254 159.456 96.7733 159.202 96.7232 158.958C95.8727 154.804 94.3692 149.992 91.7395 146.607C91.7182 146.579 91.6907 146.558 91.6592 146.543C91.6276 146.529 91.5931 146.523 91.5587 146.525C91.5242 146.528 91.4908 146.538 91.4614 146.557C91.432 146.575 91.4075 146.6 91.39 146.63L90.9855 147.329C90.915 147.448 90.8108 147.499 90.6728 147.481C89.3211 147.301 86.7189 146.183 86.6546 144.573C86.6301 144.003 86.6454 143.664 86.7006 143.557C87.2063 142.588 87.6691 141.747 88.089 141.036C88.1802 140.882 88.3212 140.764 88.4891 140.7C88.6569 140.637 88.8417 140.632 89.0131 140.686C91.5019 141.505 93.4022 143.201 94.7141 145.774C96.127 148.555 97.0374 151.392 97.445 154.284Z" fill="#404C6E"/>
<path d="M177.451 166.396C178.237 167.638 180.242 167.541 181.148 166.635C182.257 165.531 182.821 164.074 182.84 162.265C182.843 162.148 182.899 162.081 183.01 162.063L183.207 162.026C183.228 162.022 183.249 162.023 183.269 162.028C183.289 162.033 183.307 162.041 183.324 162.053C183.34 162.065 183.354 162.081 183.364 162.098C183.374 162.115 183.38 162.135 183.382 162.155C183.695 164.58 183.425 166.886 182.573 169.073C181.828 170.977 179.856 173.172 177.658 172.44C175.815 171.824 174.477 169.064 174.261 167.458C173.923 164.916 174.208 162.288 175.116 159.574C175.747 157.694 176.863 154.586 178.463 150.25C178.625 149.808 178.798 149.009 178.982 147.853C178.995 147.775 179.035 147.704 179.095 147.652C179.155 147.601 179.23 147.573 179.309 147.573H179.442C179.546 147.573 179.598 147.625 179.598 147.729C179.617 148.98 179.549 149.87 179.396 150.397C178.305 154.132 177.474 157.139 176.904 159.418C176.763 159.994 176.619 160.989 176.472 162.403C176.331 163.811 176.657 165.142 177.451 166.396Z" fill="#404C6E"/>
<path d="M80.5304 155.236C78.4017 153.47 75.2156 155.77 73.8961 157.555C73.7337 157.772 73.5314 157.892 73.2892 157.913C73.2574 157.916 73.2255 157.91 73.1965 157.897C73.1675 157.884 73.1425 157.863 73.1239 157.837C73.1054 157.811 73.0939 157.781 73.0906 157.749C73.0874 157.717 73.0924 157.685 73.1053 157.656C74.3804 154.81 76.0554 152.53 78.1304 150.816C79.1879 149.942 80.9028 149.137 82.259 149.127C84.3325 149.114 85.1325 151.363 85.1003 153.125C84.9578 161.184 77.1098 167.495 70.7514 171.111C70.7154 171.132 70.6739 171.142 70.6321 171.14C70.5903 171.138 70.5502 171.123 70.5167 171.098C70.4833 171.073 70.458 171.038 70.4441 170.999C70.4302 170.959 70.4284 170.917 70.4388 170.876L70.5077 170.6C70.5227 170.544 70.5549 170.494 70.5997 170.458C74.6363 167.155 78.535 164.34 80.6729 159.592C80.9212 159.04 81.0713 158.223 81.1234 157.141C81.1664 156.233 80.9687 155.598 80.5304 155.236Z" fill="#404C6E"/>
<path d="M276.285 156.271C274.666 155.324 272.326 156.874 271.499 158.258C270.996 159.089 270.624 159.674 270.382 160.011C269.821 160.784 269.64 160.703 269.839 159.767C270.63 156.073 272.487 151.749 276.17 150.153C276.642 149.948 277.149 149.911 277.692 150.043C279.485 150.471 280.321 153.056 280.404 154.73C280.554 157.797 279.859 160.793 278.317 163.719C276.429 167.297 273.879 170.531 270.667 173.42C270.507 173.564 270.366 173.583 270.244 173.475C270.194 173.431 270.162 173.369 270.155 173.303C270.149 173.237 270.167 173.17 270.207 173.116C272.503 170.028 273.753 168.348 273.958 168.075C275.715 165.72 277.31 162.532 277.407 159.602C277.443 158.433 277.315 156.874 276.285 156.271Z" fill="#404C6E"/>
<path d="M225.487 174.404L230.351 165.977C230.369 165.946 230.393 165.918 230.422 165.896C230.451 165.874 230.483 165.858 230.518 165.848C230.553 165.839 230.59 165.837 230.626 165.841C230.662 165.846 230.697 165.858 230.728 165.876L239.895 171.175C239.955 171.209 240 171.264 240.022 171.33C240.043 171.396 240.039 171.467 240.01 171.529L235.882 180.384C235.865 180.419 235.842 180.45 235.813 180.475C235.784 180.501 235.75 180.52 235.713 180.531C235.676 180.542 235.637 180.546 235.599 180.541C235.561 180.536 235.524 180.524 235.491 180.504L225.588 174.782C225.556 174.763 225.529 174.739 225.507 174.711C225.485 174.682 225.469 174.649 225.459 174.614C225.45 174.579 225.447 174.542 225.452 174.506C225.457 174.47 225.469 174.436 225.487 174.404Z" fill="#404C6E"/>
<path d="M225.119 174.68L220.301 183.025C220.282 183.058 220.257 183.086 220.227 183.109C220.198 183.132 220.164 183.149 220.127 183.159C220.091 183.169 220.053 183.172 220.016 183.167C219.978 183.162 219.942 183.149 219.91 183.131L211.014 177.992C210.952 177.957 210.906 177.899 210.885 177.831C210.863 177.763 210.868 177.689 210.899 177.624L214.986 168.857C215.003 168.821 215.027 168.788 215.057 168.762C215.087 168.736 215.122 168.716 215.161 168.705C215.199 168.693 215.239 168.689 215.278 168.694C215.318 168.699 215.356 168.712 215.39 168.733L225.013 174.289C225.046 174.308 225.075 174.333 225.098 174.363C225.121 174.392 225.138 174.427 225.147 174.463C225.157 174.499 225.16 174.537 225.155 174.574C225.15 174.612 225.138 174.648 225.119 174.68Z" fill="#404C6E"/>
</svg>
