<svg height="1000" viewBox="0 0 1865 1000" width="1865" xmlns="http://www.w3.org/2000/svg" xmlns:xlink="http://www.w3.org/1999/xlink"><linearGradient id="a" gradientUnits="userSpaceOnUse" x1="-5" x2="-5" y1="1000" y2="0"><stop offset=".3" stop-color="#fefefe"/><stop offset=".7" stop-color="#fcd08e"/><stop offset="1" stop-color="#f5988e"/></linearGradient><radialGradient id="b" cx="1021" cy="361" gradientUnits="userSpaceOnUse" r="241"><stop offset=".3" stop-color="#fefefe"/><stop offset=".7" stop-color="#fcd08e" stop-opacity="0"/><stop offset="1" stop-color="#f5988e" stop-opacity="0"/></radialGradient><linearGradient id="c"><stop offset=".3" stop-color="#fefefe" stop-opacity="0"/><stop offset="1" stop-color="#fbe3a4"/></linearGradient><linearGradient id="d" gradientUnits="userSpaceOnUse" x1="1870" x2="1870" xlink:href="#c" y1="378" y2="516.9"/><linearGradient id="e" gradientUnits="userSpaceOnUse" x1="1870" x2="1870" xlink:href="#c" y1="508" y2="646.9"/><linearGradient id="f"><stop offset="0" stop-color="#e44d4b"/><stop offset="1" stop-color="#9e1f21"/></linearGradient><linearGradient id="g" gradientUnits="userSpaceOnUse" x1="1100.5" x2="1865" xlink:href="#f" y1="450" y2="450"/><linearGradient id="h" gradientUnits="userSpaceOnUse" x1="244" x2="764.7" xlink:href="#f" y1="539" y2="539"/><linearGradient id="i" gradientUnits="userSpaceOnUse" x1="1504" x2="1504" xlink:href="#c" y1="646" y2="834.9"/><linearGradient id="j"><stop offset="0" stop-color="#861430"/><stop offset="1" stop-color="#41101a"/></linearGradient><linearGradient id="k" gradientUnits="userSpaceOnUse" x1="-4.7" x2="-4.7" xlink:href="#j" y1="1000" y2="648"/><linearGradient id="l" gradientUnits="userSpaceOnUse" x1="693.2" x2="937" xlink:href="#j" y1="885.9" y2="495.7"/><path d="m0 0h1865v1000h-1865z" fill="url(#a)"/><path d="m1262 361c0 133.1-107.9 241-241 241s-241-107.9-241-241 107.9-241 241-241 241 107.9 241 241z" fill="url(#b)"/><path d="m1230 328s52-62 100-44 50 38 50 38 28-12 48 6c0 0 34 2 40 14s10 14 10 14h-164s-256 4-244 0 68-8 68-8 40-34 92-20z" fill="#fec78e" opacity=".5"/><path d="m1128.5 88.6s36-42.8 69.2-30.4c33.2 12.5 34.5 26.3 34.5 26.3s19.4-8.3 33.2 4.1c0 0 23.5 1.4 27.7 9.7 4.1 8.3 6.9 9.7 6.9 9.7h-113.4s-177 2.8-168.7 0 47-5.5 47-5.5 27.7-23.5 63.6-13.9z" fill="#fec78e" opacity=".5"/><path d="m0 363.5s225.3 77.3 322.1 58.6c96.8-18.6 214-94.6 403.5-86.6s254.3 88 471.2 90 673.2-180 673.2-180v358.5l-1870 10.2z" fill="#ffa874"/><path d="m-.2 378h1865.2v138.9h-1865.2z" fill="url(#d)" opacity=".6"/><path d="m0 344.2s69-36.3 138-21.3c68.9 14.9 275.9 136.5 424.4 140.8 148.6 4.3 265.3-29.9 289.2-23.5s156.5 51.2 209.6 47c53-4.3 84.9-38.4 153.8-25.6 69 12.8 230.8 55.4 278.6 55.4 47.7 0 220.2-87.4 244.1-87.4 23.8 0 106.1-59.8 127.3-51.2v302.9h-1865z" fill="#fa7c5a"/><path d="m-.2 508h1865.2v138.9h-1865.2z" fill="url(#e)" opacity=".6"/><path d="m0 571.5s224.7 77.3 321.2 58.6c96.6-18.6 213.4-94.6 402.4-86.6s253.7 88 470 90 671.4-180 671.4-180v358.5l-1865 10.2z" fill="#e3534c"/><path d="m1860.4 455.1c3-.7 4.6-1.1 4.6-1.1v358l-485.7 2.3c-124.1-72.2-233-144-278.8-180.9 242.3-4.7 708.7-160.9 759.9-178.3z" fill="url(#g)"/><path d="m244 820.9c5.9-77.5 13.1-139.9 20.1-188.5 16.6 1.2 31.8.7 44.2-2.3 77.7-18.6 171.6-94.5 323.5-86.6q.1.2.2.5s-48 80 12 118c56.8 36 131.4 71.9 125.8 155.3z" fill="url(#h)"/><path d="m1500 834.9h-1500.2v-188.9h1500.2z" fill="url(#i)" opacity=".6"/><path d="m0 764s353.1-120 417.8-118c64.6 2 350.6 96 544.5 118 128.1 14.5 428-108.8 517.5-101.2 61.9 5.2 241.6 38.4 385.2 115.2v222h-1865z" fill="#87092f"/><path d="m467.1 1000h-467.1v-236s342.6-120 405.3-118c0 0-202.7 88-132.7 158s208 124 194.5 196z" fill="url(#k)"/><path d="m1619 1000h-694.2s162.1-82 35.2-158c-81.7-49-169.2-56.4-206.4-81.2 11.9 1.2 23.5 2.3 34.9 3.2 169.2 13.9 555.6-98.6 696.4-101.5 1.6.5 211.9 61.7 102.6 123.5-109.7 62-132.5 166 31.5 214z" fill="url(#l)"/><g fill="#fec78e"><path d="m242.7 177.2s13-41.5 37.9-29.6c24.9 11.8 33.2 34.4 33.2 34.4s49.9-2.4 64.1 8.3c14.2 10.6 34.4 16.6 40.3 17.7 5.9 1.2 40.3 2.4 43.9 4.8s22.5 11.9 13 23.7c0 0 71.2 0 68.8 5.9-2.3 6-132.8-4.7-142.3 0-9.5 4.8-274 4.8-271.6 0 2.4-4.7 52.2-4.7 52.2-4.7s-13.1-14.2 3.5-19c16.6-4.7 24.9-4.7 24.9-4.7s-27.2-40.4 32.1-36.8z" opacity=".5"/><path d="m1198.7 77.2s13-41.5 37.9-29.6c24.9 11.8 33.2 34.4 33.2 34.4s49.9-2.4 64.1 8.3c14.2 10.6 34.4 16.6 40.3 17.7 5.9 1.2 40.3 2.4 43.9 4.8s22.5 11.9 13 23.7c0 0 71.2 0 68.8 5.9-2.3 6-132.8-4.7-142.3 0-9.5 4.8-274 4.8-271.6 0 2.4-4.7 52.2-4.7 52.2-4.7s-13.1-14.2 3.5-19c16.6-4.7 24.9-4.7 24.9-4.7s-27.2-40.4 32.1-36.8z" opacity=".5"/><path d="m424 254s52-62 100-44 50 38 50 38 28-12 48 6c0 0 34 2 40 14s10 14 10 14h-164s-256 4-244 0 68-8 68-8 40-34 92-20z" opacity=".5"/></g></svg>