<svg height="512" viewBox="0 0 512 512" width="512" xmlns="http://www.w3.org/2000/svg"><g fill="#39412a"><path d="m486 60c11 0 20 9 20 20v280h-20z"/><path d="m446 60h20v140h-20z"/><path d="m406 60h20v140h-20z"/><path d="m466 180v20h-100v-20z"/><path d="m466 140v20h-60v-20z"/><path d="m406 180v20h-100v-20z"/><path d="m366 200h-20v-60c11 0 20 9 20 20z"/><path d="m346 140c11 0 20 9 20 20h-60v-20z"/><path d="m326 100v20h-20v-20z"/><path d="m286 180v20h-160v-20z"/><path d="m286 140v20h-100v-20z"/><path d="m266 100c11 0 20 9 20 20h-100v-20z"/><path d="m186 100h20v60h-20z"/><path d="m266 140h20v60h-20z"/><path d="m126 60h20v140h-20z"/><path d="m86 100c11 0 20 9 20 20v80h-20z"/><path d="m106 180v20h-60v-20z"/><path d="m446 220c11 0 20 9 20 20v80h-20z"/><path d="m406 320v-20h60v20z"/><path d="m366 320v-20h60v20z"/><path d="m426 360h-20v-60h20z"/><path d="m386 360h-20v-60h20z"/><path d="m326 360v-20h100v20z"/><path d="m226 360v-20h140v20z"/><path d="m346 360h-20v-60c11 0 20 9 20 20z"/><path d="m306 360h-20v-60h20z"/><path d="m286 320v-20h40c11 0 20 9 20 20z"/><path d="m306 280v-20h20v20z"/><path d="m186 280v-20h20v20z"/><path d="m106 360v-20h160v20z"/><path d="m166 320v-20h80c11 0 20 9 20 20z"/><path d="m246 300c11 0 20 9 20 20v40h-20z"/><path d="m166 300h20v60h-20z"/><path d="m126 300c11 0 20 9 20 20v40h-20z"/><path d="m86 220h20v140h-20z"/><path d="m66 360v-20h60v20z"/><path d="m6 360v-20h80v20z"/><path d="m46 260c11 0 20 9 20 20v80h-20z"/><path d="m6 280v-20h40c11 0 20 9 20 20z"/><path d="m6 320v-20h60v20z"/><path d="m6 300h20v60h-20z"/></g><path d="m166 80v-20h220v20z" fill="#f7aa55"/><path d="m346 120v-20h40v20z" fill="#f7aa55"/><path d="m26 240h-20v-160c0-11 9-20 20-20z" fill="#f7aa55"/><path d="m6 80c0-11 9-20 20-20h80v20z" fill="#f7aa55"/><path d="m46 100h20v60h-20z" fill="#f7aa55"/><path d="m46 220h20v20h-20z" fill="#f7aa55"/><path d="m126 220h300v20h-300z" fill="#f7aa55"/><path d="m126 260h40v20h-40z" fill="#f7aa55"/><path d="m226 260h60v20h-60z" fill="#f7aa55"/><path d="m346 260h80v20h-80z" fill="#f7aa55"/><path d="m446 340h20v20h-20z" fill="#f7aa55"/><path d="m29.3 442 .3-6.7q-2.2 1.9-4.2 3-1.9 1-4 1-2.1 0-3.6-1.2-1.3-1.3-1.4-3.8 0-1.5.4-3 .4-1.5 1.2-2.8l-3.6 4.2q2.3-1.8 4.6-3.2 2.4-1.4 4.9-2.4 2.5-1.1 5.1-2l2.3-8.6q-5.9 2-10.2 3.9-4.2 1.9-7 3.8-2.8 1.8-4.5 3.7-1.5 1.8-2.2 3.9-.6 2.1-.6 4.5 0 3.5 1.6 6 1.6 2.6 4.2 3.9 2.6 1.4 5.7 1.4 2.9 0 5.1-.9 2.2-1 3.7-2.3 1.5-1.3 2.2-2.4zm-1 5.5 15.2-.2 1.2-1.2-.1-7.6-11.8.1 4.3 4.2-.4-29.5h-.6l-9.7 1.2.3 27.3 1.5-2.5zm-.9-37.4q-1.9.1-3.3-1.2-1.4-1.2-1.4-3.4-.1-2.2 1.3-3.4 1.4-1.3 3.3-1.3 2 0 3.4 1.2 1.3 1.2 1.4 3.4 0 2.2-1.4 3.5-1.3 1.2-3.3 1.2zm-10.7 1.4q-1.9 0-3.3-1.2-1.4-1.2-1.4-3.4 0-2.3 1.3-3.5 1.4-1.3 3.3-1.3 2 0 3.3 1.2 1.4 1.2 1.4 3.5.1 2.2-1.3 3.4-1.3 1.3-3.3 1.3zm50.6 35.6-25 .3-.1-7.6 1.2-1.2 11.6-.1-3.4 1.6q-.8-.7-1.1-2.4-.3-1.7-.3-4.2l-.4-30 9.8-1.2h.7l.4 40.4-4.3-4.3 12-.1.1 7.6zm73.9-.8-23.5.2-.1-8.7 24.6-.3.1 7.6zm-57.5.6-.1-8.8 35.7-.4q3.7 0 5.2-1.1 1.4-1.1 1.4-3.2 0-1.7-.8-3.3-.8-1.7-1.9-2.7l4.3.3q-2.5.6-4.2.9-1.8.3-3.3.5-1.5.1-3.3.1l-32.7.4 3.3-8.8 31-.4q2.8 0 5.5-.2 2.7-.2 4.4-.6h.7q1.5 1.3 3 3.4 1.6 2 2.7 4.4 1.1 2.4 1.1 4.9 0 2.7-1.1 5.1-1.1 2.4-3.9 4.4l-1.8 3.3q-1.6.6-3.7 1-2 .4-4.6.4zm-16.4-7.4 1.1-1.2 10.9-.1-3.4 1.6q-.7-.7-1-2.3-.3-1.7-.3-4.2l-.2-13.4 9.8-1.2h.6l.2 23.7-4.2-4.2 12-.2.1 7.6-1.2 1.2-24.4.3zm37.1-23.1q-2 .1-3.3-1.2-1.4-1.2-1.4-3.4-.1-2.3 1.3-3.5 1.3-1.2 3.3-1.2 1.9-.1 3.3 1.2 1.4 1.1 1.4 3.4 0 2.2-1.3 3.5-1.4 1.2-3.3 1.2zm57.3-3.7q4.7-.1 8.3 1.7 3.6 1.7 5.6 4.8 2 3.1 2 6.9.1 4.3-1.9 7.5-1.9 3.2-5 5.8l-2.1-2.2 13.9-.2.1 7.7-1.1 1.1-10.5.2q-4.1 0-7-1-2.9-1.1-5-3l7.6-.3q-3.2 2.4-6.7 3.4-3.6 1-7.9 1.1l-10.7.1-.1-7.6 1.2-1.2 13.9-.2-2.3 2.3q-3.3-2.6-5.7-6-2.2-3.4-2.3-7.4 0-2.9 1.2-5.3 1.2-2.4 3.4-4.2 2.1-1.9 5-2.9 2.8-1.1 6.1-1.1zm-8.6 15.5.9-7.7q.5 3.4 1.8 6.2 1.2 2.8 2.7 4.9 1.5 2.1 3 3.5 1.5 1.4 2.6 2l-3.1.9q1.9-1.1 3.3-2.8 1.5-1.7 2.3-3.7.9-2.1.8-4.1 0-1.7-.6-3.1-.7-1.5-2-2.3-1.3-1-3.1-1-1.5.1-3.1.8-1.6.7-3.1 2.2-1.3 1.6-2.4 4.2zm8.1-19q-1.9 0-3.3-1.2-1.4-1.2-1.4-3.5 0-2.2 1.3-3.4 1.4-1.3 3.3-1.3 2 0 3.3 1.2 1.4 1.2 1.4 3.4.1 2.3-1.3 3.5-1.3 1.3-3.3 1.3zm20.2 27.9 10.2-.2 2.5 8.8-13.8.2-.1-7.7zm42.3 7.2-1.1 1.2q-4.1 0-6.8-1.1-2.7-1.2-4.7-3.6-1.9-2.4-3.7-6.2l-4.7-10.6 3.6 1q-2.4 0-4.4.8-2 .8-3.5 2-1.5 1.1-2.2 2.7-.8 1.5-.7 3.1 0 2 1.2 3.4 1.2 1.4 3.1 2.1 1.9.7 3.9.6 2.6 0 4.9-.6 2.4-.6 3.8-1.4l1.2.6-2.4 8.5q-2.3 1-4.7 1.6-2.4.6-4.5.6-1.9 0-4.1-.4-2.2-.4-4.4-1.4-2.1-1-3.9-2.7-1.7-1.6-2.8-4.1-1.1-2.5-1.1-5.8-.1-4.7 1.9-8.2 2-3.5 5.4-5.9 3.4-2.4 7.6-3.6 4.2-1.3 8.5-1.3l1.2.6 5 12.9q1.4 3.8 3.5 5.7 2.1 1.9 4.8 1.9zm6.6 1.1-7.7.1-.1-7.6 1.2-1.2 10.9-.2-3.4 1.7q-.8-.7-1.1-2.4-.2-1.7-.3-4.2l-.3-30 9.7-1.2h.7l.4 33.9q0 1.2 0 2.9.1 1.8.2 3.5.1 1.6.3 2.7v.4q-1.7.8-4.3 1.2-2.5.3-6.2.4zm19.4-.2-.5-43.8 10.7-1.2.2.5q-.3 1-.4 2.6 0 1.6 0 3.3 0 1.6 0 2.8l.4 35.6zm30.3 13.6 2.7-8.1q1.5.3 3 .6 1.6.2 3.1.2 2.4 0 4.2-.7 1.9-.6 2.7-1.2l-2.4 2.5q1-1.5 1.7-3.8.6-2.3 1-5.3.3-3.2.2-7.1 0-5.1-.5-9.6-.6-4.6-1.2-8.7l10-1.2h.7q.5 4 .9 8.9.5 4.8.5 9.8.1 6.7-1.2 11.5-1.3 4.8-3.9 7.7-2.5 3-6.1 4.4-3.6 1.4-8.2 1.5-1.5 0-3.2-.2-1.7-.2-2.8-.4-1.2-.2-1.2-.2zm52.4-14.5-8.4.1-.1-8.8 9.6-.1.1 7.6zm-16.9.2-.5-43.8 10.7-1.1.2.4q-.2 1.1-.3 2.7-.1 1.6-.1 3.2 0 1.7 0 2.9l.4 35.6zm67.9-.8-51 .6v-7.6l1.1-1.2 49.8-.6q4.1 0 5.6-.9 1.5-1 1.5-3 0-1.7-.8-3.6-.8-1.8-1.9-2.8l4.3.3q-2.5.6-4.2.9-1.8.3-3.3.5-1.5.1-3.3.1l-36.5.4q-2.8.1-4.8-1.4-2-1.5-2.3-5.3l23.7-21.8h.6l4.1 6.2-18.1 16.2-1.5-2.7 36.5-.4q2.8 0 5.5-.2 2.7-.2 4.5-.6h.7q1.5 1.3 3 3.5 1.6 2.3 2.7 5 1.2 2.8 1.2 5.8 0 2.5-.8 4.7-.8 2.3-2.7 4.1-2 1.7-5.3 2.7-3.3 1.1-8.3 1.1zm22.5-.2v-.7l3-8.1 19.7-.3q2.5 0 3.9-.5 1.5-.6 2.1-1.5.7-1 .7-2.3-.1-1.7-.9-3.3-.9-1.6-1.9-2.7l4.3.2q-2.4.6-4.2.9-1.8.3-3.3.4-1.5.2-3.3.2h-2.3q-1.8 0-4-.1-2.2 0-4.4-.4-2.2-.4-4.2-1.2l2.4-8.1h.6q2.5.7 5.7 1 3.1.2 6 .1h1.9q2.8 0 5.5-.2 2.7-.2 4.4-.6h.7q1.6 1.4 3.2 3.7 1.5 2.2 2.6 4.8 1.2 2.7 1.2 5.4 0 2.6-.8 4.9-.7 2.3-2.5 4.1-1.7 1.8-4.7 2.9-3 1.1-7.3 1.1zm20.6-31.8q-1.9 0-3.3-1.2-1.4-1.3-1.4-3.5 0-2.2 1.3-3.4 1.4-1.3 3.3-1.3 2 0 3.3 1.2 1.4 1.1 1.4 3.4.1 2.2-1.3 3.5-1.3 1.2-3.3 1.3zm52.7 31-20.6.2q-3.3.1-5.1-2.1-1.8-2.2-1.9-6.2 1-.5 2-1.5.9-.9 2.2-2.8 1.4-1.9 3.2-5.3l4.2-7.3.1 7.4-10.9-18.3v-.7l9.9-.1 5.5 9.7-3.9.6 10.4-18.4 10-.1v.6l-16.4 30.1q-1.3 2.3-2.2 3.6-.9 1.3-1.8 1.9-.8.6-1.7 1.1l-2.6-1 16.1-.2.2 6.9-5.6-9.7 3-5.3h.5l9.4 15.4v.5q-.6.5-1.6.8-1 .2-2.4.2zm-29.1-47.8q-.1-2.3 1.1-4.2 1.2-2 3.4-3.1 2.2-1.2 5.3-1.3h3.5v.5l-1.7 5.5h-1.7q-1.8 0-3 .7-1.2.6-1.7 2.6l-.2-2q.6 1.5 1.7 2 1.1.5 2.5.5l4.2-.1v.6l-1.7 5.3h-4q-2.2.1-4-.9-1.7-1-2.8-2.5-.9-1.7-.9-3.6zm39.1 47.7-.5-43.8 10.7-1.2.1.5q-.2 1.1-.3 2.7 0 1.6-.1 3.2 0 1.7.1 2.8l.4 35.7z" fill="#39412a"/></svg>