<svg height="72" viewBox="0 0 128 72" width="128" xmlns="http://www.w3.org/2000/svg"><g fill="#f3efdf"><path d="m109.5 31.4q0 4.8-6.6 8.2-6.2 3.3-14.5 3.3-3.6 0-5.5-.7-.3-.1-.7-.4l-5 5.9-.1-2.2 3-4.4q-.2-.1-.4-.3-1.3-1-2.6-3.9-6.1 3.8-10.4 5.2-3.5 1.1-7.5 1.1-2.1 0-4.4-1.2-2.3-1.3-3.4-2.9-1.6 1.9-3.8 3.1-2.8 1.4-6 1.4-1.5.1-2.9-.2-1.4-.4-2.5-1.1 0 1.4-.4 2.7-.4 1.4-.9 2.2-2.7 3.7-8.9 7.4-6.9 4.1-12 4.1-5.2 0-8.2-3.2-2.8-2.9-2.8-6.8 0-2.5 1.1-6.2.1-.6.6-1.6h1q-.2 1.8-.3 2.8-.3 3-.3 4.2 0 1.9 2 3.7 2.6 2.3 7.1 2.3 5.9 0 12.8-4.6 5-3.3 7.4-6.4 0-.8-1.7-3.2-.9-1-1.6-2.1l1.6-4.7q2 2 3.9 3.9 2.5 2 6.1 2 1.4 0 3.2-.7 2.6-1.2 3.6-2.2-.8-1.6-1.5-3.4-.5-1.7-.5-3.2 0-2.4 1.4-4.6 1.4-2.1 3.6-2.1 1.7 0 3.1 1.5 1.6 1.9 1.6 5 0 2.8-.6 4.3-.5 1.5-2.1 3.2.7.7 1.7 1.1 1.9 1 3.9 1 3.7 0 8.2-1.6 5.1-1.8 10.8-5.5 0 2.2.4 3 .6 1.2 2.9 2.6 4.1-4.4 8.1-8.8 4.4-3.6 8.6-3.6 3.9 0 6.9 1.7 3.5 2 3.5 4.9zm-84.8-9.5q0 3.6-2.7 5.8-1.3 1-3.1 1.5-1.8.5-3.9.5-4.4 0-7.1-2.1-2.8-2.2-2.8-5.6 0-2.4 1.5-4.3 1.3-1.5 3.3-2.4 2.3-1.1 5.1-1.1 1.2 0 2.9.4.2.1.8.3-2.4 0-4.7 1.1-3.2 1.6-3.2 4.4 0 1.9 1.8 3.4 1.8 1.5 4.4 1.5 2.6 0 4.4-1.6 2.3-2.1 2.3-4.7.2.3.3.6.7 1.5.7 2.3zm-1.3 1.1q-1 1.8-3 2.7-1.6.7-3.4.7-2.9 0-5.2-1.7-2.3-1.7-2.3-4.3 0-1.5 1-2.9.9-1.4 3-2.2-1.4 0-3 .8-1.5.8-2.4 1.7-.8.9-1.2 2-.5 1-.5 2.2 0 2.8 2.4 4.7 2.4 2 6.1 2 3 0 5.4-1.3 1.2-.7 2.2-2 .9-1.2.9-2.4zm31.5-14q-.4 1.5-1.5 2-.3.3-.6.3l-18.6 5q-.3.2-1 .6-.7.4-1 .5.3-1 1-1.6.8-.7 1.7-1l18.3-4.9q.3-.1.8-.4.5-.3.9-.5zm-6.2 10.4-3.5 2.8-4.1-3.2 3.6-2.9zm6.7 11q0-1.2-2.2-2.1-.4-.2-1.1-.4-.4 0-1.7.8-1.3.7-1.3.9 0 .7 1.4 2.4.9 1.2 1.9 2.2 1.1-.9 2.1-2.2.9-1.2.9-1.6zm14.6-16.8q-.5.1-.9.2-.3-.2-.4-.5-.5-.6-.9-.6-.8 0-1.3 1.1-.9 1.5-2 6.1h-.8q-1.2-4.3-2.7-4.1-1.4 0-2.2-.3-1.4-.5-1.4-1.9 0-1.6 1.6-1.6 2.2 0 3.8 2.7.7 1.4 1.5 2.6.5-2.6 1.1-4 1.1-3 2.7-3 .6 0 1.2.5.3.2.7.8zm32.8-2.7q-.4 1.5-1.5 2-.3.3-.6.4l-32.4 9.3q-.3.1-1 .6-.7.4-.9.5.2-1 1-1.7.7-.6 1.6-.9l32.1-9.3q.3-.1.8-.4.6-.3.9-.5zm4.1 22.3q-1-1.4-3.6-2.5-2.5-1-5.5-1-3.5 0-7.4 3.1-2.7 2.5-5.4 5 .8 0 2.4.5.9.3 1.5.3 4.7 0 9.6-1.5 6.2-1.9 8.4-3.9z" fill-rule="evenodd"/><path d="m85.7 61.1c.5.3 1.4.5 2.1.5 1.1 0 1.7-.6 1.7-1.4 0-.9-.6-1.4-1.6-2.1-1.8-1-2.4-2.3-2.4-3.4 0-2 1.3-3.7 3.9-3.7.9 0 1.6.2 2 .4l-.4 2.1c-.3-.2-.9-.4-1.6-.4-1 0-1.5.6-1.5 1.3s.4 1.1 1.7 1.9c1.7 1 2.3 2.3 2.3 3.6 0 2.3-1.7 3.8-4.2 3.8-1 0-1.9-.3-2.3-.5z"/><path d="m95.3 60.7-.6 2.9h-2.3l2.7-12.5h2.9l2.4 12.5h-2.4l-.5-2.9zm2-1.9-.4-2.6c-.1-.7-.3-2-.4-2.8h-.1c-.1.8-.3 2.1-.4 2.8l-.5 2.6z" fill-rule="evenodd"/><path d="m101.8 51.1h5.4v2.1h-3v3.2h2.8v2h-2.8v5.2h-2.4z"/><g fill-rule="evenodd"><path d="m110.4 60.7-.6 2.9h-2.4l2.7-12.5h3l2.4 12.5h-2.4l-.5-2.9zm2-1.9-.4-2.6c-.1-.7-.3-2-.4-2.8h-.1c-.1.8-.3 2.1-.4 2.8l-.5 2.6z"/><path d="m116.9 51.3c.7-.2 1.7-.3 2.6-.3 1.3 0 2.5.2 3.3 1 .8.7 1 1.5 1 2.6 0 1.3-.6 2.5-1.9 3.1.8.4 1.3 1.2 1.5 2.5.3 1.4.6 2.9.8 3.4h-2.5c-.2-.4-.5-1.6-.6-3-.3-1.6-.7-2-1.5-2h-.3v5h-2.4zm2.4 5.4h.4c1.1 0 1.7-.8 1.7-1.9s-.5-1.8-1.5-1.9c-.2 0-.5 0-.6.1z"/></g></g></svg>