<svg height="30" viewBox="0 0 70 30" width="70" xmlns="http://www.w3.org/2000/svg"><g fill="#191c4f"><path d="m16.2 21.6c-.1.1-.1.1-.1.3-.1.2-.2.3-.4.4s-2.6 1.4-2.7 1.5c-.4.2-.3.1-.3 0q0 0 0-.3c0-.2.1-.2.3-.4.3-.1 2.7-1.4 2.9-1.6.3-.1.3 0 .3.1z"/><path d="m24.6 21.1 1.1.7q0 .1 0 .1l-.6.9q-.1 0-.1 0l-1.1-.8q0 0 0-.1l.6-.8q.1 0 .1 0z"/><path d="m20.9 20.9s-.1.3-.2.5c-.3.9-.1 1.3 0 1.4.2.5.6.2.7-.1.1-.2.2-.1.1 0q0 .1 0 .3c-.2.5-.4.7-.6.7-.4 0-.6-.5-.6-.7-.1-1 .3-1.9.4-2.2.1-.2.2-.1.2.1z"/><path d="m32.3 20.7s-.1.2-.1.4c-.3.9-.2 1.3-.1 1.4.2.4.5.2.7-.1 0-.2.1-.1 0-.1q0 .1 0 .3c-.2.5-.4.7-.6.7-.3 0-.4-.5-.4-.7-.1-.9.3-1.7.4-2 .1-.2.2-.1.1.1z"/><path d="m64.9 19.5v.6c0 .2-.1.5-.2.8-.1.4-.8.5-1.2.2-.8 1.1-1.5.6-1.8.4-.7-.3-.9.2-1.1.4-.8 1-2.4.9-2.8.9-.3.1 0-.1.1-.2 1.3-.5 2-.5 3.1-1.6.5-.4.8-.2 1-.1 1 .4 1.1 0 1.3-.2.1-.1.3-.6.4-.8s.2 0 .1.1c0 .1-.1.3-.1.4.4.3.9 0 1 0 0 0-.1-.4-.1-.5q0-.1.1-.5c.1-.3.2 0 .2.1z"/><path d="m31.3 13.1 1.1.8q0 0 0 .1l-.6.8q-.1 0-.1 0l-1-.7q-.1-.1-.1-.1l.6-.9q.1 0 .1 0z"/><path d="m11.4 13s-.1.3-.2.5c-.3.9-.1 1.4 0 1.5.3.4.6.2.8-.2 0-.2.1-.1.1 0q-.1.1-.1.3c-.2.6-.4.7-.6.7-.4 0-.6-.4-.6-.7-.1-1 .4-1.9.5-2.1.1-.3.2-.2.1 0z"/><path d="m45.9 18.1c-.4 1-1.8 1.6-2.1 1.7-1.3.4-1.4-.9-1.3-1.8.1-1 .7-2.2.7-2.2s-1.4-1.1-1.5-1.2-.2-.2-.3-.3c-.2-.1-.2-.2-.2-.2s.1-.9.1-1c0-.2 0-.1.1-.1.1.1 1.6.7 1.8.8.1 0 .1.1 0 .2-.1 0-.6.1-.6.1l1.2.9s1.7-2.2 1.9-2.4c.1-.2.1-.1.1.1-.1.2-.4 1.2-.5 1.3 0 .2-.9 1.3-.9 1.3s1.1.7 1.4 1.1c.5.7.2 1.3.1 1.7zm-2.1-1.9s-.8 1.3-.9 1.5c-.3.8.4.9.7.9.3-.1 1.3-.6 1.8-1 .4-.4-1.4-1.3-1.6-1.4z" fill-rule="evenodd"/><path d="m66.4 16.9c0 .2-.3 1.2-1.6.9-.4 0-1.1-.2-1.4-.9-.3.4-1.1 1.7-2.6 1.5-.4-.1-1.5-.5-1.5-1.9 0 0-1.3 1-1.9 1.4.1.5 0 1-.2 1.6-.2.7-3 3.8-5.2 4.3-.8.1-3.6.7-3.8-2.5 0-.7.1-1.2.1-1.6-1.8 1.4-3.9 2.5-4.5 2.8-1 .4-4.2.9-4.8 1.1-.4 0-.5-.1-.2-.2.2-.2 7.5-2.6 11.3-6.6q.1-.2-.1-.5c-.1-.2-1.2-2.4-1.4-2.7-.1-.3-.2-.7-.3-.8q-.1-.2 0-.4c0-.1.1-.7.1-.8.1-.2.1-.1.2 0s1.3 1.3 1.4 1.4c.2.2 0 .3 0 .3-.1 0-.6-.1-.6-.1s.7 1.4 1 1.9c.5 1 .2 1.9 0 2.3-.3.7-1 1.4-1.7 2-.1.6-.4 3.2 2.1 3.3.4 0 1.6.1 4.1-1.9.6-.5 1.2-1 1.8-1.8.2-.3.4-.9-.1-.8-.4 0-2.9 1-3.3-.6-.1-.4.1-4.1 2.6-2.2.3.1.8.6 1.2 1.3.4-.2 1.2-.7 2.1-1.5.3-.2.6-.3.6 0 0 .4-.2 2.5 2.1 1.9.2-.1 1.2-.3 1.9-2.1.2-.4.5-.4.4 0-.2.4-.5.8-.2 1 .2.3.8.7 1.7.6.2 0 .4-.1.3-.4-.1-.2-.4-.7-.4-.7.1-.3.2-.7.2-.9.1-.1.1-.2.2-.1s.9 1.1.4 2.4zm-10.4.1c-.9-1.1-1.8-.5-2-.3-.1.1-.1.4.7.5.9 0 1.3-.2 1.3-.2z" fill-rule="evenodd"/><path d="m26.3 11.3c.1.2 0 .6 0 .9-.1.1-.2 0-.3-.1 0 0-.2-.2-.3-.3-.5-.4-.6.5-.6.9 0 .3 0 1.2-.1 1.8 0 .2-.1.2-.2.1-.4-1.2-1-1.7-1.1-1.8-.1-.2-.2 0-.2.1s-.1.1-.2 0c0 0-.4-.2-.5-.3-.1-.2-.1-.6-.1-.8 0-.3.2-.4.3-.4 1.2.7 1.7 2.1 1.8 2.3 0-1 0-2 .4-2.7.4-.5 1 .2 1.1.3z"/><path d="m15.3 11s-.1.5-.2.8c-.5 1.7-.2 2.4-.2 2.6.5.8 1 .4 1.2-.2.1-.4.2-.2.1-.1q0 .2 0 .6c-.3 1-.6 1.2-.9 1.2-.6 0-.8-.8-.9-1.2-.1-1.8.5-3.4.7-3.8.1-.5.3-.3.2.1z"/><path d="m44.5 10.3 1 .7q0 .1 0 .1l-.6.8q0 .1-.1 0l-1-.7-.5.7q0 .1-.1 0l-1-.7q-.1 0 0-.1l.6-.8q0-.1 0 0l1.1.7.5-.7q0-.1.1 0z"/><path d="m63.8 10.3s-.1.3-.1.5c-.4.9-.2 1.3-.1 1.4.2.4.5.2.7-.2 0-.1.1 0 .1 0q0 .1-.1.3c-.2.6-.4.7-.6.7-.3 0-.5-.5-.5-.7 0-1 .4-1.8.5-2 .1-.3.2-.2.1 0z"/><path d="m53.5 9.8s-.1.3-.1.5c-.4.9-.2 1.4-.1 1.5.2.5.6.2.7-.2.1-.1.2 0 .1 0q0 .1 0 .3c-.2.6-.5.8-.6.8-.4 0-.6-.5-.6-.8-.1-1 .4-1.9.5-2.2s.2-.1.1.1z"/><path d="m31.6 9.4s.1.5.3.8c.1.2.2.5.2.9-.1.5-.3.8-.5.8-.3.1-.7.1-1-.3-.4.7-.9.9-1.3.7-.3-.2-.3-.7-.3-.9s0-.8 0-.9c-.1-.2 0-.3.1-.4.1-.2.1-.1.1.1s-.1 1 .1 1.3c.3.4 1 0 1.1-.2.1-.3-.2-1.1-.2-1.2q0-.1 0-.1c0-.1 0-.3.1-.5q.1-.1.2.1c0 .1 0 .3.2 1.1.1.8.8.6 1 .5.2 0 .2-.1.1-.2 0-.1-.3-.8-.4-1-.1-.3-.1-.5 0-.8.1-.2.1 0 .2.2z"/><path d="m20.3 6.8c.6.1.4.4.3.5-.5.7-1 1-1.5 1.2-.4.2-.2-.2.1-.3 0 0 .2-.2.6-.5s-.6-.2-1.1-.2c-.4 0-.5.1-.6.3-.2.1-.3 0-.2-.2.1-.1.2-.3.5-.7.3-.3 1.3-.2 1.9-.1z"/><path d="m12.7 7.1c.2.2.1.6 0 .8s-.2 0-.3-.1c0 0-.2-.2-.3-.3-.5-.4-.7.5-.8.9 0 .3-.1 1.2-.1 1.8-.1.2-.2.2-.3 0-.3-1.2-1-1.7-1.1-1.8q-.1-.1-.1-.1.1.2.1.5c-.3 1.5-1.8 2-2 2.2-.3.1-.3.1 0-.2.2-.3 1.3-1.5 1.6-1.7.5-.5-.5-.9-.6-1s-.1-.6-.1-.8c.1-.3.3-.4.4-.3 1.4.7 1.8 2.1 1.9 2.3 0-1 .1-1.9.6-2.6.5-.6 1.1.3 1.1.4z"/><path d="m32 5.8c0 .2 0 .2-.1.4 0 .3-.2.3-.4.5s-11.7 5.3-11.9 5.4c-.4.3-.4.2-.3 0q0 0 0-.3c0-.2.1-.3.4-.5.3-.1 11.8-5.4 12-5.5.4-.2.4-.1.3 0z"/><path d="m52.6 5.6c0 .1 0 .1-.1.3s-.2.2-.4.3-5.5 3.3-5.6 3.3c-.4.2-.3.1-.3 0q0-.1.1-.3c0-.2.1-.2.3-.4.2-.1 5.6-3.2 5.8-3.3.3-.2.3-.1.2.1z"/><path d="m59.2 5.9c.1.2 0 .6-.1.9-.1.2-.2 0-.4-.1 0 0-.1-.2-.2-.3-.6-.4-.8.4-.8.9-.1.3-.1 1.3-.2 1.9 0 .2-.2.2-.3 0-.3-1.2-1-1.8-1.2-1.9-.1-.2-.2 0-.2.1s-.1.1-.2 0c0 0-.4-.3-.6-.4-.1-.1-.1-.6 0-.8 0-.3.2-.5.3-.4 1.5.8 1.9 2.2 2 2.5.1-1.1.1-2 .7-2.8.4-.6 1.1.3 1.2.4z"/><path d="m64.5 8.2c-.1.1-.1 0-.3-.1 0-.1-.2-.3-.4-.4-.2.5-.2.5-1.1 1.3-2 1.7-4.1 2.3-4.2 2.4-.2 0-.2-.1 0-.2.7-.6 3.5-1.8 5-3.6 0 0-.5-.2-.8-.4-.3-.3-.1-1 .1-1.4.5-.9 1-.4 1.1-.3.5.8.2 1.7.2 1.7.3.1.6.4.4 1zm-1-2.2c-.1 0-.2 0-.5.4-.1.1 0 .2.2.3s.6.3.6.3c0-.2.1-.7-.3-1z" fill-rule="evenodd"/><path d="m34.4 5.2c.1.1 1.3 3.1 1.4 3.3.1.1-.1.2-.2.1s-.7-.7-.7-.7 1.2 8.3 1.3 9.2c.1 1.7-.6 2.4-.8 2.5-2.1 1.2-2.9-.4-3.2-1-1.1 1.6-2.4 1.9-2.9 1.9-2.6 0-2.1-1.9-2.1-2.5-.9.1-1.9.3-2.6.9-2.6 1.6-5 1.4-5.6 1.3v1.2c0 .3-.3.3-.5.3-.1 0-.3-.1-.8-.4-.7-.4-.9-1.4-.9-2.1-2.3-.9-5.6 2.6-6.3 3.3-1.4 1.6-2.6 1.8-3.1 1.6-1.2-.3-1.5-1.4-1.4-2.4.2-1.5 1.3-3.1 1.6-3.5-.3-.3-.5-.8-.5-1.1-.2-1.9.5-3.4.6-3.9.2-.4.3-.2.2.2 0 0-.1.4-.2.8-.5 1.7-.2 2.4-.1 2.6.4.8.9.4 1.1-.3.1-.3.2-.1.2 0q0 .2-.1.5c-.2 1.1-.6 1.3-.9 1.3q0 0-.1 0c-1.7 2.7-1.5 3.8-1.2 4.2.9 1.4 2.3.3 2.9-.3.7-.5 1.7-1.8 3.6-3.2 1.8-1.3 3.3-1.1 3.7-1.1 0 0 .1-.1.2-.2s.1 0 .4.2c.9.7 1.9 1 2.9 1 2.1 0 4-1.2 4.4-1.3 0 0-2.1-.9-3-1 0 0-.1.2-.1.2q0 .1-.2.1c-.2 0-2.4.1-2.5 0-.2 0 .3-1 .3-1.1.1-.2 1.6-.5 2-.6.3-.1.5-.1.7 0 .4.2 2.1.8 2.7 1 2.2.6 5.3.7 5.3.7l-.6 1.2s-.7-.1-1.7-.1c.1 1 .8 1.2 1.1 1.3 2.6.3 3.5-1.8 3.7-2.1.2-.2.3.1.3.2v.2c.3 1.4 1.8 1.3 2.4 1.1.5-.2.4-.6.4-.8 0-.3-.1-1.4-.1-2-.1-.3-1.3-8.4-1.4-9 0-.5-.1-.7-.1-.8 0 0 .4-.9.4-1 .1-.1.1 0 .1.1z"/><path d="m38 5.2c0 .1 1.3 3.1 1.3 3.2.1.2 0 .3-.1.2s-.7-.7-.7-.7 1 7.3 1 7.7c.7 4.3.2 5.5.1 5.7s-.2.1-.2-.1c0-1.8-1-8.2-1.1-8.6 0-.4-.7-6-.8-6.6 0 0 .3-.8.3-.9.1-.1.1 0 .2.1z"/><path d="m44.2 7.9c-.1.1-.1 0-.2-.1s-.5-.4-.5-.4-.4 1-1.1 1.5c-1.3 1-2.5 1.2-2.6 1.2s-.1-.1.1-.2c.8-.5 1.8-.8 3.3-2.6 0 0-.5-.2-.8-.4-.3-.3-.1-1 .1-1.4.5-.8 1-.4 1.1-.3.5.9.2 1.7.2 1.7.3.1.6.4.4 1zm-1-2.2c-.1 0-.2 0-.5.4-.1.1 0 .2.2.3s.6.3.6.3c0-.2.1-.6-.3-1z" fill-rule="evenodd"/></g></svg>