<svg height="30" viewBox="0 0 70 30" width="70" xmlns="http://www.w3.org/2000/svg"><g fill="#191c4f"><path d="m24.3 23.7 1.1.8q0 0 0 .1l-.7.9q0 0-.1 0l-1.1-.8q0-.1 0-.1l.7-.9q0-.1.1 0z"/><path d="m15.7 23.4c.3.1.3.5.3.7-.2.8-.8 1.4-.9 1.5-.2.2-.2.1-.1 0 0 0 .1-.2.2-.4.5-.6.5-1 .5-1.1-.1-.4-.5-.3-.7-.1 0 .2-.1.1 0 0q0-.1.1-.2c.3-.4.5-.5.6-.4z"/><path d="m64 21v.5c0 .2-.1.5-.2.8s-.8.4-1.3.1c-.8 1.1-1.5.5-1.9.4-.7-.2-.9.2-1.1.3-.9.9-2.5.9-2.9.9s-.1-.2.1-.2c1.3-.4 2.1-.5 3.2-1.4.5-.4.9-.2 1-.2 1.1.4 1.3 0 1.4-.1s.3-.6.4-.7c.1-.2.2-.1.1.1 0 .1 0 .2-.1.3.5.3.9.1 1 0 0 0 0-.3 0-.4q0-.1.1-.5c.1-.2.2 0 .2.1z"/><path d="m7.7 21.1v.2c-.1.2-.1.2-.3.3s-2.1 1.1-2.2 1.2c-.2.1-.2.1-.2 0q0-.1 0-.3c.1-.1.1-.1.3-.2.2-.2 2.1-1.2 2.3-1.3s.2 0 .1.1z"/><path d="m33.7 20.8v.5c0 .3-.1.6-.2.9s-.8.4-1.2.1c-.7 1.2-1.4.6-1.7.5-.7-.3-.9.1-1.1.3-.8 1-2.3.9-2.7 1-.3 0 0-.2.1-.3 1.2-.4 1.9-.5 3-1.5.5-.5.8-.2 1-.2.9.5 1.1 0 1.2-.1.2-.1.3-.6.4-.8s.2 0 .1.1c0 .1 0 .3-.1.4.4.3.9 0 1-.1 0 0-.1-.3-.1-.4q0-.1.1-.5c.1-.3.2 0 .2.1z"/><path d="m43.3 19.5c-.3 1.1-1.9 1.7-2.3 1.9-1.3.4-1.5-1-1.4-2s.9-2.3.9-2.3c-.1-.1-1.6-1.2-1.7-1.4-.1-.1-.2-.2-.4-.3-.1-.1-.1-.2-.1-.2s0-1 0-1.1c0-.2.1-.1.2-.1.1.1 1.7.7 1.9.8s.1.2 0 .2c-.1.1-.6.2-.6.2l1.3.9s1.8-2.3 2-2.6c.2-.2.1-.1.1.2 0 .2-.4 1.2-.5 1.4 0 .1-1 1.4-1 1.4s1.2.8 1.5 1.2c.6.7.2 1.4.1 1.8zm-2.3-2.1s-.8 1.4-.9 1.7c-.4.8.5 1 .8.9.3 0 1.4-.6 1.9-1s-1.5-1.4-1.8-1.6z" fill-rule="evenodd"/><path d="m65.7 18.2c-.1.3-.4 1.3-1.9 1-.3-.1-1.1-.2-1.4-1-.4.4-1.2 1.9-2.9 1.6-.4-.1-1.6-.5-1.6-2 0 0-1.4 1.1-2 1.5 0 .5 0 1.1-.3 1.8-.2.7-3.2 4-5.7 4.6-.8.2-3.9.7-4-2.7q0-1.1.1-1.7c-1.9 1.5-4.3 2.6-4.9 3-1.1.4-4.6 1-5.2 1.1-.5.1-.5 0-.3-.1.3-.2 8.2-2.8 12.3-7.2q.1-.2-.1-.5c-.1-.2-1.3-2.7-1.5-3-.1-.3-.3-.7-.3-.8q-.1-.2-.1-.4c.1-.2.2-.8.2-1 .1-.1.1 0 .2.1s1.4 1.4 1.5 1.5c.2.2.1.3 0 .3s-.7-.1-.7-.1.9 1.5 1.1 2c.5 1.2.3 2.1.1 2.6-.4.7-1.1 1.5-1.9 2.1-.1.6-.4 3.5 2.3 3.6.4 0 1.7.2 4.4-2 .7-.6 1.4-1.2 2-2 .2-.4.4-.9-.1-.9-.4.1-3.2 1.1-3.6-.6-.1-.4.1-4.4 2.9-2.5.2.2.8.7 1.2 1.5.4-.2 1.3-.7 2.3-1.6.4-.2.6-.4.6 0s-.2 2.7 2.3 2c.3-.1 1.4-.3 2.1-2.3.2-.4.5-.4.4 0-.2.5-.5.9-.2 1.2.2.2.9.7 1.8.6.3 0 .5-.2.4-.4-.1-.3-.4-.8-.4-.8 0-.3.2-.8.2-.9 0-.2.1-.3.2-.2s.9 1.2.5 2.6zm-11.4.2c-.9-1.2-2-.6-2.1-.4-.1.1-.2.4.7.5 1 .1 1.4-.1 1.4-.1z" fill-rule="evenodd"/><path d="m12.6 15.3s0 .4-.1.6c-.4 1.2-.1 1.8 0 1.9.3.6.8.3.9-.2.1-.2.2-.1.1 0q0 .1 0 .4c-.2.7-.5.9-.7.9-.5 0-.7-.5-.7-.9-.2-1.3.3-2.4.4-2.8.1-.3.2-.2.1.1z"/><path d="m18.5 14.5s0 .3-.1.5c-.3 1.1-.1 1.6 0 1.7.3.5.7.2.8-.2.1-.2.2-.1.1 0q0 .1 0 .3c-.2.7-.4.8-.6.8-.4.1-.6-.4-.7-.7-.1-1.2.3-2.2.4-2.5s.2-.2.1.1z"/><path d="m28.9 11.5s.1.6.3.9c.1.3.2.6.2 1-.1.5-.4.8-.6.9s-.7.1-1.1-.4c-.4.8-.9 1-1.3.8s-.4-.8-.4-1 0-.8 0-1c0-.1 0-.2.1-.4s.2-.1.2.1-.1 1.1 0 1.4c.4.5 1.1 0 1.3-.2.1-.3-.2-1.2-.2-1.3q-.1 0-.1-.1c.1-.1.1-.3.1-.5q.1-.2.2 0c.1.2.1.4.3 1.3.1.8.9.6 1.1.6.2-.1.1-.2.1-.3-.1-.1-.4-.8-.5-1.1s0-.5 0-.8c.1-.3.2-.1.3.1z"/><path d="m21.1 11.3c.7.1.5.4.4.7-.6.8-1.2 1.1-1.8 1.3-.5.3-.2-.1.1-.4 0 0 .3-.2.7-.5.5-.3-.7-.3-1.3-.3-.5 0-.6.2-.8.4-.1.2-.3.1-.2-.2.1-.2.3-.4.6-.9.4-.4 1.6-.2 2.3-.1z"/><path d="m41.8 11 1.1.8q.1.1 0 .1l-.6.9q-.1.1-.1 0l-1.1-.8-.6.8q0 .1-.1 0l-1.1-.8q0 0 0-.1l.7-.9q0 0 0 0l1.1.8.6-.8q0 0 .1 0z"/><path d="m62.8 11.1s-.1.3-.2.4c-.3 1-.1 1.5-.1 1.6.3.5.7.2.8-.2.1-.1.1 0 .1 0q0 .1 0 .3c-.2.6-.5.8-.7.8-.3 0-.5-.5-.5-.8-.1-1 .4-1.9.5-2.2s.2-.1.1.1z"/><path d="m51.6 10.5s-.1.3-.1.5c-.4 1.1-.2 1.6-.2 1.7.3.5.7.2.9-.2.1-.2.1-.1.1 0q0 .1-.1.3c-.2.7-.4.8-.6.8-.4 0-.6-.5-.6-.8-.1-1.1.4-2.1.5-2.4s.2-.1.1.1z"/><path d="m8.2 8.8 1.2.9q0 0 0 0l-.7.9q0 .1-.1.1l-1.1-.8-.5.7q-.1.1-.1.1l-1.2-.9q0 0 0 0l.7-.9q0-.1.1-.1l1.1.8.5-.7q.1-.1.1-.1z"/><path d="m29.9 8.2c0 .2 0 .2-.1.4s-.3.3-.5.4-6 2.4-6.1 2.4c-.4.3-.3.1-.3 0q0-.1.1-.4c.1-.2.2-.2.4-.3.3-.2 6-2.4 6.3-2.6.4-.2.3 0 .2.1z"/><path d="m19.7 7s0 .3-.1.5c-.3 1.1-.1 1.6 0 1.7.3.5.7.2.8-.2.1-.2.1-.1.1 0q0 .1 0 .3c-.2.7-.4.8-.6.9-.4 0-.7-.5-.7-.8-.1-1.2.3-2.2.4-2.5s.2-.1.1.1z"/><path d="m50.6 5.9c0 .2 0 .2-.1.4s-.2.2-.4.3c-.2.2-6 3.5-6.1 3.6-.4.2-.4.1-.3 0q0-.1.1-.3c0-.2.1-.3.3-.4.2-.2 6.1-3.5 6.3-3.7.3-.2.3 0 .2.1z"/><path d="m57.8 6.3c.1.2 0 .7-.1 1-.1.1-.3 0-.4-.2 0 0-.1-.1-.3-.3-.6-.5-.8.5-.8 1-.1.3-.2 1.4-.2 2-.1.3-.3.3-.3.1-.4-1.4-1.2-2-1.3-2.1-.2-.2-.3 0-.3.1s-.1.1-.2 0c0 0-.5-.3-.6-.4-.2-.2-.1-.7-.1-.9 0-.4.2-.5.4-.4 1.5.9 2 2.4 2.1 2.6.1-1.1.1-2.1.8-2.9.5-.7 1.2.3 1.3.4z"/><path d="m63.5 8.7c0 .2-.1.1-.2-.1-.1-.1-.3-.2-.5-.3-.2.5-.2.5-1.2 1.4-2.1 1.8-4.5 2.5-4.6 2.5-.2 0-.2-.1 0-.2.8-.6 3.9-2 5.4-3.9 0 0-.5-.2-.8-.4-.3-.3-.2-1.1.1-1.5.6-1 1.1-.5 1.2-.3.5.9.2 1.8.2 1.8.3.1.6.5.4 1zm-1-2.3c-.1 0-.3-.1-.6.4-.1.1 0 .2.2.3s.7.3.7.3c0-.1.1-.6-.3-1z" fill-rule="evenodd"/><path d="m32.4 14.2c.1.5.3 2.4.1 2.9-.5 2-1.6 1.9-1.9 1.8-1-.1-1.4-.9-1.4-.9-.2 1-1.6 2.1-2.5.4-.6.8-1.6.8-1.9.8-1.5-.3-1.6-2-1.7-2.3-.1-.4-.2-.2-.5-.1-.3.2-.7.9-1 1.3-.2.4-1.1 1.4-1.3 1.6 2.4.8 7.6.7 7.8.8 0 0-.5.9-.6 1.1-1.3-.2-3.2.3-3.7.6-2.5 1.4-4.1 1.8-4.7 1.8-1.9.2-2.4-1.3-2.6-1.8 0-.2-.3-1.2-.6-2.2-.2 1-1.5 2.1-1.9 2.5-2.8 2.6-4.6 2.5-4.9 2.4-2.2-.6-1.1-4.4-.7-5.5q-.4.1-.6.2c-1.3.4-1.5-1-1.4-2s.9-2.3.9-2.3c-.1 0-1.6-1.2-1.7-1.3s-.2-.3-.4-.4c-.1-.1-.1-.1-.1-.1s0-1.1 0-1.2.1-.1.2 0c.1 0 1.7.7 1.9.7.2.1.1.3 0 .3s-.6.1-.6.1l1.3 1s1.8-2.4 2-2.6.1-.1.1.1c0 .3-.4 1.3-.5 1.4-.1.2-1 1.5-1 1.5s1.2.7 1.5 1.1c.6.8.2 1.5.1 1.9-.2.6-.8 1.1-1.3 1.4-.1.5-.4 2-.5 2.4-.3 2.5 1.7 2 2.1 1.8 4.1-1.7 5.1-4.3 5.2-4.7q0 0 0 0c-.2-.6-.3-1.2-.4-1.5-.2-1.1-1.3-4.1-1.4-4.4-.2-.3 0-1.2 0-1.5.1-.2.2-.1.3.1.2.2.9 1.8 1.1 2.3.9 2.2 1.3 5.5 1.4 6.1.4 2.1 1.2 2.6 1.7 2.8 1.4.6 4.3-.9 4.5-1-3.3-.9-5-.9-5.1-.9s-.2-.1-.1-.2c0-.2.3-.7.5-.9 3-1.5 3.3-2.2 3.5-2.6.2-.3.5-.8 1.2-1.4s.8.5.9.8c.4 1.3 1.2 1.5 1.5 1.6.9.1 1.8-1.1 1.9-1.3.2-.2.3 0 .2.1 0 .1 0 .2-.1.4.1.5.5.7.8.7.9.1 1.3-1.2 1.5-1.5.1-.3.2 0 .2.1 0 .2 0 .1-.1.4.6 1.2 2.1.7 2.2.6.2 0 .1-.2.1-.3s-.4-3.8-.4-3.8c-.3-2.2-.8-5.6-.8-6.2-.1-.4-.2-.7-.2-.8 0 0 .4-.9.5-1.1 0-.1.1 0 .1.1.1.1 1.4 3.4 1.5 3.6s-.1.3-.2.1c-.1-.1-.8-.7-.8-.7s.8 5.3.8 5.8zm-22.8 3.1c.5-.5-1.5-1.5-1.8-1.6 0 0-.8 1.4-.9 1.6-.4.9.5 1 .8 1 .3-.1 1.3-.6 1.9-1z" fill-rule="evenodd"/><path d="m34.4 5.4c0 .1 1.4 3.4 1.5 3.6 0 .2-.1.3-.2.1-.1-.1-.8-.7-.8-.7s1.1 8 1.2 8.4c.7 4.8.1 6.1 0 6.3s-.2.1-.1-.1c-.1-1.9-1.2-9-1.2-9.4-.1-.4-.9-6.6-.9-7.2 0 0 .3-.9.3-1.1.1-.1.1 0 .2.1z"/><path d="m41.5 8.4c-.1.2-.1.1-.3-.1 0 0-.4-.4-.4-.4s-.5 1-1.3 1.6c-1.4 1.1-2.6 1.3-2.7 1.3-.2.1-.2 0 0-.2 1-.5 2-.9 3.6-2.8 0 0-.5-.2-.8-.5-.4-.2-.2-1.1 0-1.4.7-1 1.2-.5 1.3-.4.5.9.2 1.8.2 1.8.3.2.6.6.4 1.1zm-1-2.3c-.1-.1-.3-.1-.6.4-.1.1 0 .2.2.3s.7.3.7.3c0-.1 0-.7-.3-1z" fill-rule="evenodd"/><path d="m27 5.6c.2.2.1.6.1.9-.1.2-.2 0-.4-.1 0 0-.1-.1-.2-.2-.6-.4-.7.5-.7.9 0 .3.1 1.2 0 1.8 0 .2-.1.2-.2.1-.5-1.2-1.2-1.6-1.3-1.7-.2-.2-.2 0-.2.1s-.1.1-.2.1c0-.1-.5-.3-.6-.4s-.1-.5-.1-.7c-.1-.3.1-.5.2-.4 1.5.6 2 1.9 2.1 2.1 0-1-.1-1.9.4-2.7.3-.6 1.1.2 1.1.2z"/><path d="m10.7 5.4s0 .3-.1.6c-.3 1 0 1.5 0 1.6.3.5.7.2.8-.2.1-.2.2-.1.2 0q-.1.1-.1.3c-.1.7-.4.9-.6.9-.4 0-.6-.5-.7-.8-.1-1.1.3-2.1.4-2.4s.2-.2.1 0z"/><path d="m20.6 5.2c-.1.2-.1.2-.2.5-.1.2-.2.3-.5.5-.2.1-7.9 3.9-8.1 4-.4.3-.4.1-.3 0q0-.1.1-.4c0-.3.1-.3.4-.5s8-4 8.2-4.2c.5-.2.4 0 .4.1z"/></g></svg>