<svg width="660" height="486" viewBox="0 0 660 486" fill="none" xmlns="http://www.w3.org/2000/svg">
<mask id="path-1-inside-1_488_74" fill="#ffffff">
<path d="M77.226 176.718C66.5353 176.718 56.548 175.663 47.264 173.553C37.98 171.443 29.751 168.348 22.577 164.269C15.5437 160.049 9.98733 154.844 5.908 148.655C1.96933 142.325 0 135.01 0 126.711C0 117.427 2.532 108.917 7.596 101.18C12.66 93.4434 20.467 87.1837 31.017 82.401C32.9863 81.557 34.7447 80.924 36.292 80.502C37.98 79.9393 39.5273 79.658 40.934 79.658C42.622 79.658 44.0287 80.2207 45.154 81.346C46.42 82.3307 47.4047 84.1594 48.108 86.832C48.3893 87.9573 48.53 89.2234 48.53 90.63C48.53 91.896 48.1783 93.0917 47.475 94.217C46.9123 95.2017 45.787 95.9754 44.099 96.538C39.879 98.0854 35.7997 99.914 31.861 102.024C28.063 103.993 24.898 106.666 22.366 110.042C19.834 113.277 18.568 117.568 18.568 122.913C18.568 128.118 20.1153 132.689 23.21 136.628C26.3047 140.426 30.595 143.591 36.081 146.123C41.7077 148.655 48.1783 150.554 55.493 151.82C62.8077 153.086 70.685 153.719 79.125 153.719C89.253 153.719 99.0997 152.875 108.665 151.187C118.23 149.358 126.811 146.826 134.407 143.591C142.003 140.215 147.981 136.206 152.342 131.564C156.843 126.922 159.094 121.647 159.094 115.739C159.094 111.941 158.039 108.635 155.929 105.822C153.819 102.868 151.146 100.547 147.911 98.859C144.676 97.171 141.3 96.327 137.783 96.327C134.126 96.327 130.609 97.171 127.233 98.859C123.998 100.406 121.325 102.657 119.215 105.611C117.246 108.565 116.261 111.941 116.261 115.739C116.261 121.366 118.23 126.5 122.169 131.142C126.248 135.784 131.523 139.863 137.994 143.38C144.605 146.756 151.85 149.429 159.727 151.398C167.745 153.227 175.693 154.141 183.57 154.141L187.368 157.306V173.342L183.57 175.452C176.255 175.452 168.73 174.467 160.993 172.498C153.256 170.388 145.801 167.434 138.627 163.636C131.453 159.838 124.982 155.407 119.215 150.343C113.588 145.279 109.087 139.723 105.711 133.674C102.335 127.625 100.647 121.295 100.647 114.684C100.647 107.229 102.335 100.617 105.711 94.85C109.087 89.0827 113.588 84.5814 119.215 81.346C124.842 77.97 131.031 76.282 137.783 76.282C144.254 76.282 150.302 77.97 155.929 81.346C161.556 84.722 166.057 89.2937 169.433 95.061C172.95 100.828 174.708 107.369 174.708 114.684C174.708 123.827 171.965 132.197 166.479 139.793C161.134 147.389 153.819 153.93 144.535 159.416C135.251 164.902 124.771 169.192 113.096 172.287C101.561 175.241 89.6047 176.718 77.226 176.718ZM136.939 51.806C134.97 51.806 133.282 51.2433 131.875 50.118C130.609 48.9927 129.624 47.586 128.921 45.898C128.358 44.21 128.077 42.4517 128.077 40.623C128.077 37.1063 128.991 34.2227 130.82 31.972C132.649 29.5807 134.829 28.385 137.361 28.385C139.893 28.385 141.933 29.018 143.48 30.284C145.168 31.4093 146.364 32.8863 147.067 34.715C147.911 36.403 148.333 38.2317 148.333 40.201C148.333 43.999 147.208 46.8827 144.957 48.852C142.847 50.8213 140.174 51.806 136.939 51.806Z"/>
<path d="M319.884 175.452C314.68 175.452 309.897 174.186 305.536 171.654C301.316 169.122 297.589 165.676 294.353 161.315C291.259 156.954 288.797 152.031 286.968 146.545C285.28 140.918 284.296 135.01 284.014 128.821L296.463 125.023C296.604 129.946 297.659 134.659 299.628 139.16C301.598 143.661 304.341 147.319 307.857 150.132C311.374 152.805 315.383 154.141 319.884 154.141L323.682 157.517V172.92L319.884 175.452ZM183.578 175.452L179.78 172.92V157.517L183.578 154.141C193.988 154.141 203.694 153.156 212.696 151.187C221.84 149.077 230.42 146.475 238.438 143.38C246.597 140.145 254.334 136.839 261.648 133.463C269.104 129.946 276.348 126.852 283.381 124.179C278.599 123.194 273.605 121.717 268.4 119.748C263.196 117.779 257.991 115.739 252.786 113.629C247.582 111.378 242.588 109.479 237.805 107.932C233.163 106.385 228.943 105.611 225.145 105.611C222.332 105.611 219.448 106.455 216.494 108.143C213.681 109.69 211.008 112.082 208.476 115.317C207.492 116.724 206.155 117.427 204.467 117.427C203.201 117.427 201.865 117.005 200.458 116.161C199.052 115.317 197.786 114.192 196.66 112.785C195.676 111.378 195.043 109.901 194.761 108.354C194.621 106.666 195.113 105.048 196.238 103.501C200.177 98.1557 204.678 93.9357 209.742 90.841C214.806 87.6057 220.011 85.988 225.356 85.988C229.717 85.988 234.429 86.832 239.493 88.52C244.698 90.208 250.043 92.2477 255.529 94.639C261.156 97.0304 266.783 99.4217 272.409 101.813C278.177 104.204 283.733 106.103 289.078 107.51C294.424 108.917 299.488 109.479 304.27 109.198C305.536 109.198 306.591 109.761 307.435 110.886C308.42 112.011 309.123 113.559 309.545 115.528C310.108 117.357 310.319 119.326 310.178 121.436C310.178 123.405 309.827 125.304 309.123 127.133C308.42 128.821 307.365 130.087 305.958 130.931C296.393 135.151 287.672 139.371 279.794 143.591C271.917 147.811 264.321 151.82 257.006 155.618C249.832 159.416 242.588 162.792 235.273 165.746C227.959 168.7 220.081 171.091 211.641 172.92C203.342 174.608 193.988 175.452 183.578 175.452Z"/>
<path d="M506.51 175.452C502.712 175.452 498.985 174.749 495.327 173.342C491.67 171.935 488.294 169.755 485.199 166.801C482.105 163.847 479.432 160.049 477.181 155.407C474.931 150.624 473.313 144.857 472.328 138.105L483.933 126.711C483.933 131.634 484.918 136.206 486.887 140.426C488.857 144.505 491.529 147.811 494.905 150.343C498.422 152.875 502.29 154.141 506.51 154.141L510.308 157.517V172.92L506.51 175.452ZM390.882 190.433C390.742 192.402 389.827 193.879 388.139 194.864C386.451 195.849 384.623 196.341 382.653 196.341C381.106 196.341 379.629 195.989 378.222 195.286C376.816 194.583 375.69 193.528 374.846 192.121C374.143 190.855 374.002 189.167 374.424 187.057C376.253 174.96 378.855 163.566 382.231 152.875C385.748 142.044 389.898 132.267 394.68 123.546C399.604 114.825 405.019 107.299 410.927 100.969C416.976 94.4984 423.376 89.575 430.128 86.199C436.88 82.6824 443.843 80.924 451.017 80.924C458.051 80.924 464.17 82.7527 469.374 86.41C474.579 89.9267 478.588 94.7094 481.401 100.758C484.355 106.807 485.832 113.559 485.832 121.014C485.832 130.017 484.074 137.683 480.557 144.013C477.181 150.343 472.328 155.548 465.998 159.627C459.668 163.706 452.213 166.942 443.632 169.333C435.192 171.584 425.908 173.201 415.78 174.186C405.652 175.03 395.032 175.452 383.919 175.452C375.761 175.452 368.798 173.553 363.03 169.755C357.263 165.816 353.395 160.33 351.425 153.297C348.753 159.768 344.533 165.113 338.765 169.333C333.139 173.412 326.879 175.452 319.986 175.452L316.188 172.287V157.306L319.986 154.141C324.347 154.141 328.356 153.227 332.013 151.398C335.811 149.429 338.906 146.475 341.297 142.536C343.689 138.457 344.884 133.182 344.884 126.711C344.884 124.179 345.025 121.999 345.306 120.17C345.728 118.341 346.502 116.935 347.627 115.95C348.753 114.965 350.581 114.473 353.113 114.473C356.208 114.473 358.388 115.317 359.654 117.005C361.061 118.552 361.624 120.381 361.342 122.491C360.78 126.57 360.428 130.509 360.287 134.307C360.287 138.105 360.92 141.481 362.186 144.435C363.593 147.389 365.984 149.78 369.36 151.609C372.736 153.297 377.589 154.141 383.919 154.141C393.203 154.141 402.136 153.86 410.716 153.297C419.297 152.734 427.174 151.75 434.348 150.343C441.522 148.936 447.782 146.967 453.127 144.435C458.473 141.903 462.622 138.738 465.576 134.94C468.53 131.001 470.007 126.289 470.007 120.803C470.007 117.146 469.304 113.77 467.897 110.675C466.491 107.58 464.381 105.119 461.567 103.29C458.754 101.321 455.097 100.336 450.595 100.336C444.687 100.336 438.639 102.376 432.449 106.455C426.26 110.534 420.352 116.442 414.725 124.179C409.099 131.916 404.175 141.34 399.955 152.453C395.735 163.566 392.711 176.226 390.882 190.433Z"/>
<path d="M574.408 203.937C565.968 203.937 558.794 201.546 552.886 196.763C546.978 191.98 542.266 185.228 538.749 176.507C535.232 167.926 532.63 157.798 530.942 146.123C529.395 134.448 528.621 121.717 528.621 107.932C528.621 98.7887 528.902 89.4344 529.465 79.869C530.028 70.163 530.801 60.3867 531.786 50.54C532.771 40.6933 533.966 30.917 535.373 21.211C535.795 18.3977 536.78 16.2877 538.327 14.881C539.874 13.3337 541.984 12.56 544.657 12.56C552.112 12.56 555.277 15.7954 554.152 22.266C552.886 30.9873 551.69 40.3417 550.565 50.329C549.58 60.3163 548.736 70.6554 548.033 81.346C547.33 92.0367 546.978 103.009 546.978 114.262C546.978 123.968 547.47 133.041 548.455 141.481C549.44 149.921 550.987 157.376 553.097 163.847C555.348 170.177 558.302 175.1 561.959 178.617C565.616 182.274 570.188 184.103 575.674 184.103C581.863 184.103 586.857 182.204 590.655 178.406C594.594 174.749 596.563 169.755 596.563 163.425C596.563 156.814 594.875 151.398 591.499 147.178C588.123 142.817 583.34 140.637 577.151 140.637C572.368 140.637 567.726 141.833 563.225 144.224C558.864 146.475 554.504 149.358 550.143 152.875C545.782 156.251 541.281 159.697 536.639 163.214C532.138 166.731 527.355 169.685 522.291 172.076C517.368 174.327 512.022 175.452 506.255 175.452L502.668 173.342V157.095L506.466 154.141C511.952 154 517.086 152.805 521.869 150.554C526.652 148.163 531.294 145.279 535.795 141.903C540.437 138.527 545.009 135.221 549.51 131.986C554.011 128.751 558.724 126.008 563.647 123.757C568.711 121.506 574.056 120.381 579.683 120.381C586.013 120.381 591.64 122.139 596.563 125.656C601.627 129.173 605.636 134.166 608.59 140.637C611.544 146.967 613.021 154.422 613.021 163.003C613.021 171.162 611.403 178.336 608.168 184.525C604.933 190.714 600.361 195.497 594.453 198.873C588.686 202.249 582.004 203.937 574.408 203.937Z"/>
<path d="M646.951 176.929C645.966 176.929 644.7 176.718 643.153 176.296C641.605 175.874 640.269 175.03 639.144 173.764C638.018 172.498 637.456 170.529 637.456 167.856C637.456 161.104 637.526 153.789 637.667 145.912C637.807 137.894 637.948 129.595 638.089 121.014C638.37 112.293 638.651 103.431 638.933 94.428C639.214 85.4254 639.495 76.5633 639.777 67.842C640.058 58.98 640.339 50.4697 640.621 42.311C640.902 34.0117 641.183 26.275 641.465 19.101C641.605 16.2877 642.52 14.248 644.208 12.982C646.036 11.716 648.146 11.083 650.538 11.083C653.632 11.083 655.883 11.927 657.29 13.615C658.696 15.303 659.329 17.413 659.189 19.945C659.048 26.1343 658.837 32.9567 658.556 40.412C658.274 47.7267 657.993 55.393 657.712 63.411C657.571 71.2884 657.36 79.3063 657.079 87.465C656.657 101.813 656.305 115.598 656.024 128.821C655.883 141.903 655.672 154.633 655.391 167.012C655.391 168.559 655.109 170.107 654.547 171.654C653.984 173.201 653.07 174.467 651.804 175.452C650.678 176.437 649.061 176.929 646.951 176.929Z"/>
</mask>
<path d="M77.226 176.718C66.5353 176.718 56.548 175.663 47.264 173.553C37.98 171.443 29.751 168.348 22.577 164.269C15.5437 160.049 9.98733 154.844 5.908 148.655C1.96933 142.325 0 135.01 0 126.711C0 117.427 2.532 108.917 7.596 101.18C12.66 93.4434 20.467 87.1837 31.017 82.401C32.9863 81.557 34.7447 80.924 36.292 80.502C37.98 79.9393 39.5273 79.658 40.934 79.658C42.622 79.658 44.0287 80.2207 45.154 81.346C46.42 82.3307 47.4047 84.1594 48.108 86.832C48.3893 87.9573 48.53 89.2234 48.53 90.63C48.53 91.896 48.1783 93.0917 47.475 94.217C46.9123 95.2017 45.787 95.9754 44.099 96.538C39.879 98.0854 35.7997 99.914 31.861 102.024C28.063 103.993 24.898 106.666 22.366 110.042C19.834 113.277 18.568 117.568 18.568 122.913C18.568 128.118 20.1153 132.689 23.21 136.628C26.3047 140.426 30.595 143.591 36.081 146.123C41.7077 148.655 48.1783 150.554 55.493 151.82C62.8077 153.086 70.685 153.719 79.125 153.719C89.253 153.719 99.0997 152.875 108.665 151.187C118.23 149.358 126.811 146.826 134.407 143.591C142.003 140.215 147.981 136.206 152.342 131.564C156.843 126.922 159.094 121.647 159.094 115.739C159.094 111.941 158.039 108.635 155.929 105.822C153.819 102.868 151.146 100.547 147.911 98.859C144.676 97.171 141.3 96.327 137.783 96.327C134.126 96.327 130.609 97.171 127.233 98.859C123.998 100.406 121.325 102.657 119.215 105.611C117.246 108.565 116.261 111.941 116.261 115.739C116.261 121.366 118.23 126.5 122.169 131.142C126.248 135.784 131.523 139.863 137.994 143.38C144.605 146.756 151.85 149.429 159.727 151.398C167.745 153.227 175.693 154.141 183.57 154.141L187.368 157.306V173.342L183.57 175.452C176.255 175.452 168.73 174.467 160.993 172.498C153.256 170.388 145.801 167.434 138.627 163.636C131.453 159.838 124.982 155.407 119.215 150.343C113.588 145.279 109.087 139.723 105.711 133.674C102.335 127.625 100.647 121.295 100.647 114.684C100.647 107.229 102.335 100.617 105.711 94.85C109.087 89.0827 113.588 84.5814 119.215 81.346C124.842 77.97 131.031 76.282 137.783 76.282C144.254 76.282 150.302 77.97 155.929 81.346C161.556 84.722 166.057 89.2937 169.433 95.061C172.95 100.828 174.708 107.369 174.708 114.684C174.708 123.827 171.965 132.197 166.479 139.793C161.134 147.389 153.819 153.93 144.535 159.416C135.251 164.902 124.771 169.192 113.096 172.287C101.561 175.241 89.6047 176.718 77.226 176.718ZM136.939 51.806C134.97 51.806 133.282 51.2433 131.875 50.118C130.609 48.9927 129.624 47.586 128.921 45.898C128.358 44.21 128.077 42.4517 128.077 40.623C128.077 37.1063 128.991 34.2227 130.82 31.972C132.649 29.5807 134.829 28.385 137.361 28.385C139.893 28.385 141.933 29.018 143.48 30.284C145.168 31.4093 146.364 32.8863 147.067 34.715C147.911 36.403 148.333 38.2317 148.333 40.201C148.333 43.999 147.208 46.8827 144.957 48.852C142.847 50.8213 140.174 51.806 136.939 51.806Z" fill="#ffffff"/>
<path d="M319.884 175.452C314.68 175.452 309.897 174.186 305.536 171.654C301.316 169.122 297.589 165.676 294.353 161.315C291.259 156.954 288.797 152.031 286.968 146.545C285.28 140.918 284.296 135.01 284.014 128.821L296.463 125.023C296.604 129.946 297.659 134.659 299.628 139.16C301.598 143.661 304.341 147.319 307.857 150.132C311.374 152.805 315.383 154.141 319.884 154.141L323.682 157.517V172.92L319.884 175.452ZM183.578 175.452L179.78 172.92V157.517L183.578 154.141C193.988 154.141 203.694 153.156 212.696 151.187C221.84 149.077 230.42 146.475 238.438 143.38C246.597 140.145 254.334 136.839 261.648 133.463C269.104 129.946 276.348 126.852 283.381 124.179C278.599 123.194 273.605 121.717 268.4 119.748C263.196 117.779 257.991 115.739 252.786 113.629C247.582 111.378 242.588 109.479 237.805 107.932C233.163 106.385 228.943 105.611 225.145 105.611C222.332 105.611 219.448 106.455 216.494 108.143C213.681 109.69 211.008 112.082 208.476 115.317C207.492 116.724 206.155 117.427 204.467 117.427C203.201 117.427 201.865 117.005 200.458 116.161C199.052 115.317 197.786 114.192 196.66 112.785C195.676 111.378 195.043 109.901 194.761 108.354C194.621 106.666 195.113 105.048 196.238 103.501C200.177 98.1557 204.678 93.9357 209.742 90.841C214.806 87.6057 220.011 85.988 225.356 85.988C229.717 85.988 234.429 86.832 239.493 88.52C244.698 90.208 250.043 92.2477 255.529 94.639C261.156 97.0304 266.783 99.4217 272.409 101.813C278.177 104.204 283.733 106.103 289.078 107.51C294.424 108.917 299.488 109.479 304.27 109.198C305.536 109.198 306.591 109.761 307.435 110.886C308.42 112.011 309.123 113.559 309.545 115.528C310.108 117.357 310.319 119.326 310.178 121.436C310.178 123.405 309.827 125.304 309.123 127.133C308.42 128.821 307.365 130.087 305.958 130.931C296.393 135.151 287.672 139.371 279.794 143.591C271.917 147.811 264.321 151.82 257.006 155.618C249.832 159.416 242.588 162.792 235.273 165.746C227.959 168.7 220.081 171.091 211.641 172.92C203.342 174.608 193.988 175.452 183.578 175.452Z" fill="#ffffff"/>
<path d="M506.51 175.452C502.712 175.452 498.985 174.749 495.327 173.342C491.67 171.935 488.294 169.755 485.199 166.801C482.105 163.847 479.432 160.049 477.181 155.407C474.931 150.624 473.313 144.857 472.328 138.105L483.933 126.711C483.933 131.634 484.918 136.206 486.887 140.426C488.857 144.505 491.529 147.811 494.905 150.343C498.422 152.875 502.29 154.141 506.51 154.141L510.308 157.517V172.92L506.51 175.452ZM390.882 190.433C390.742 192.402 389.827 193.879 388.139 194.864C386.451 195.849 384.623 196.341 382.653 196.341C381.106 196.341 379.629 195.989 378.222 195.286C376.816 194.583 375.69 193.528 374.846 192.121C374.143 190.855 374.002 189.167 374.424 187.057C376.253 174.96 378.855 163.566 382.231 152.875C385.748 142.044 389.898 132.267 394.68 123.546C399.604 114.825 405.019 107.299 410.927 100.969C416.976 94.4984 423.376 89.575 430.128 86.199C436.88 82.6824 443.843 80.924 451.017 80.924C458.051 80.924 464.17 82.7527 469.374 86.41C474.579 89.9267 478.588 94.7094 481.401 100.758C484.355 106.807 485.832 113.559 485.832 121.014C485.832 130.017 484.074 137.683 480.557 144.013C477.181 150.343 472.328 155.548 465.998 159.627C459.668 163.706 452.213 166.942 443.632 169.333C435.192 171.584 425.908 173.201 415.78 174.186C405.652 175.03 395.032 175.452 383.919 175.452C375.761 175.452 368.798 173.553 363.03 169.755C357.263 165.816 353.395 160.33 351.425 153.297C348.753 159.768 344.533 165.113 338.765 169.333C333.139 173.412 326.879 175.452 319.986 175.452L316.188 172.287V157.306L319.986 154.141C324.347 154.141 328.356 153.227 332.013 151.398C335.811 149.429 338.906 146.475 341.297 142.536C343.689 138.457 344.884 133.182 344.884 126.711C344.884 124.179 345.025 121.999 345.306 120.17C345.728 118.341 346.502 116.935 347.627 115.95C348.753 114.965 350.581 114.473 353.113 114.473C356.208 114.473 358.388 115.317 359.654 117.005C361.061 118.552 361.624 120.381 361.342 122.491C360.78 126.57 360.428 130.509 360.287 134.307C360.287 138.105 360.92 141.481 362.186 144.435C363.593 147.389 365.984 149.78 369.36 151.609C372.736 153.297 377.589 154.141 383.919 154.141C393.203 154.141 402.136 153.86 410.716 153.297C419.297 152.734 427.174 151.75 434.348 150.343C441.522 148.936 447.782 146.967 453.127 144.435C458.473 141.903 462.622 138.738 465.576 134.94C468.53 131.001 470.007 126.289 470.007 120.803C470.007 117.146 469.304 113.77 467.897 110.675C466.491 107.58 464.381 105.119 461.567 103.29C458.754 101.321 455.097 100.336 450.595 100.336C444.687 100.336 438.639 102.376 432.449 106.455C426.26 110.534 420.352 116.442 414.725 124.179C409.099 131.916 404.175 141.34 399.955 152.453C395.735 163.566 392.711 176.226 390.882 190.433Z" fill="#ffffff"/>
<path d="M574.408 203.937C565.968 203.937 558.794 201.546 552.886 196.763C546.978 191.98 542.266 185.228 538.749 176.507C535.232 167.926 532.63 157.798 530.942 146.123C529.395 134.448 528.621 121.717 528.621 107.932C528.621 98.7887 528.902 89.4344 529.465 79.869C530.028 70.163 530.801 60.3867 531.786 50.54C532.771 40.6933 533.966 30.917 535.373 21.211C535.795 18.3977 536.78 16.2877 538.327 14.881C539.874 13.3337 541.984 12.56 544.657 12.56C552.112 12.56 555.277 15.7954 554.152 22.266C552.886 30.9873 551.69 40.3417 550.565 50.329C549.58 60.3163 548.736 70.6554 548.033 81.346C547.33 92.0367 546.978 103.009 546.978 114.262C546.978 123.968 547.47 133.041 548.455 141.481C549.44 149.921 550.987 157.376 553.097 163.847C555.348 170.177 558.302 175.1 561.959 178.617C565.616 182.274 570.188 184.103 575.674 184.103C581.863 184.103 586.857 182.204 590.655 178.406C594.594 174.749 596.563 169.755 596.563 163.425C596.563 156.814 594.875 151.398 591.499 147.178C588.123 142.817 583.34 140.637 577.151 140.637C572.368 140.637 567.726 141.833 563.225 144.224C558.864 146.475 554.504 149.358 550.143 152.875C545.782 156.251 541.281 159.697 536.639 163.214C532.138 166.731 527.355 169.685 522.291 172.076C517.368 174.327 512.022 175.452 506.255 175.452L502.668 173.342V157.095L506.466 154.141C511.952 154 517.086 152.805 521.869 150.554C526.652 148.163 531.294 145.279 535.795 141.903C540.437 138.527 545.009 135.221 549.51 131.986C554.011 128.751 558.724 126.008 563.647 123.757C568.711 121.506 574.056 120.381 579.683 120.381C586.013 120.381 591.64 122.139 596.563 125.656C601.627 129.173 605.636 134.166 608.59 140.637C611.544 146.967 613.021 154.422 613.021 163.003C613.021 171.162 611.403 178.336 608.168 184.525C604.933 190.714 600.361 195.497 594.453 198.873C588.686 202.249 582.004 203.937 574.408 203.937Z" fill="#ffffff"/>
<path d="M646.951 176.929C645.966 176.929 644.7 176.718 643.153 176.296C641.605 175.874 640.269 175.03 639.144 173.764C638.018 172.498 637.456 170.529 637.456 167.856C637.456 161.104 637.526 153.789 637.667 145.912C637.807 137.894 637.948 129.595 638.089 121.014C638.37 112.293 638.651 103.431 638.933 94.428C639.214 85.4254 639.495 76.5633 639.777 67.842C640.058 58.98 640.339 50.4697 640.621 42.311C640.902 34.0117 641.183 26.275 641.465 19.101C641.605 16.2877 642.52 14.248 644.208 12.982C646.036 11.716 648.146 11.083 650.538 11.083C653.632 11.083 655.883 11.927 657.29 13.615C658.696 15.303 659.329 17.413 659.189 19.945C659.048 26.1343 658.837 32.9567 658.556 40.412C658.274 47.7267 657.993 55.393 657.712 63.411C657.571 71.2884 657.36 79.3063 657.079 87.465C656.657 101.813 656.305 115.598 656.024 128.821C655.883 141.903 655.672 154.633 655.391 167.012C655.391 168.559 655.109 170.107 654.547 171.654C653.984 173.201 653.07 174.467 651.804 175.452C650.678 176.437 649.061 176.929 646.951 176.929Z" fill="#ffffff"/>
<path d="M77.226 176.718C66.5353 176.718 56.548 175.663 47.264 173.553C37.98 171.443 29.751 168.348 22.577 164.269C15.5437 160.049 9.98733 154.844 5.908 148.655C1.96933 142.325 0 135.01 0 126.711C0 117.427 2.532 108.917 7.596 101.18C12.66 93.4434 20.467 87.1837 31.017 82.401C32.9863 81.557 34.7447 80.924 36.292 80.502C37.98 79.9393 39.5273 79.658 40.934 79.658C42.622 79.658 44.0287 80.2207 45.154 81.346C46.42 82.3307 47.4047 84.1594 48.108 86.832C48.3893 87.9573 48.53 89.2234 48.53 90.63C48.53 91.896 48.1783 93.0917 47.475 94.217C46.9123 95.2017 45.787 95.9754 44.099 96.538C39.879 98.0854 35.7997 99.914 31.861 102.024C28.063 103.993 24.898 106.666 22.366 110.042C19.834 113.277 18.568 117.568 18.568 122.913C18.568 128.118 20.1153 132.689 23.21 136.628C26.3047 140.426 30.595 143.591 36.081 146.123C41.7077 148.655 48.1783 150.554 55.493 151.82C62.8077 153.086 70.685 153.719 79.125 153.719C89.253 153.719 99.0997 152.875 108.665 151.187C118.23 149.358 126.811 146.826 134.407 143.591C142.003 140.215 147.981 136.206 152.342 131.564C156.843 126.922 159.094 121.647 159.094 115.739C159.094 111.941 158.039 108.635 155.929 105.822C153.819 102.868 151.146 100.547 147.911 98.859C144.676 97.171 141.3 96.327 137.783 96.327C134.126 96.327 130.609 97.171 127.233 98.859C123.998 100.406 121.325 102.657 119.215 105.611C117.246 108.565 116.261 111.941 116.261 115.739C116.261 121.366 118.23 126.5 122.169 131.142C126.248 135.784 131.523 139.863 137.994 143.38C144.605 146.756 151.85 149.429 159.727 151.398C167.745 153.227 175.693 154.141 183.57 154.141L187.368 157.306V173.342L183.57 175.452C176.255 175.452 168.73 174.467 160.993 172.498C153.256 170.388 145.801 167.434 138.627 163.636C131.453 159.838 124.982 155.407 119.215 150.343C113.588 145.279 109.087 139.723 105.711 133.674C102.335 127.625 100.647 121.295 100.647 114.684C100.647 107.229 102.335 100.617 105.711 94.85C109.087 89.0827 113.588 84.5814 119.215 81.346C124.842 77.97 131.031 76.282 137.783 76.282C144.254 76.282 150.302 77.97 155.929 81.346C161.556 84.722 166.057 89.2937 169.433 95.061C172.95 100.828 174.708 107.369 174.708 114.684C174.708 123.827 171.965 132.197 166.479 139.793C161.134 147.389 153.819 153.93 144.535 159.416C135.251 164.902 124.771 169.192 113.096 172.287C101.561 175.241 89.6047 176.718 77.226 176.718ZM136.939 51.806C134.97 51.806 133.282 51.2433 131.875 50.118C130.609 48.9927 129.624 47.586 128.921 45.898C128.358 44.21 128.077 42.4517 128.077 40.623C128.077 37.1063 128.991 34.2227 130.82 31.972C132.649 29.5807 134.829 28.385 137.361 28.385C139.893 28.385 141.933 29.018 143.48 30.284C145.168 31.4093 146.364 32.8863 147.067 34.715C147.911 36.403 148.333 38.2317 148.333 40.201C148.333 43.999 147.208 46.8827 144.957 48.852C142.847 50.8213 140.174 51.806 136.939 51.806Z" stroke="#ffffff" stroke-width="1" mask="url(#path-1-inside-1_488_74)"/>
<path d="M319.884 175.452C314.68 175.452 309.897 174.186 305.536 171.654C301.316 169.122 297.589 165.676 294.353 161.315C291.259 156.954 288.797 152.031 286.968 146.545C285.28 140.918 284.296 135.01 284.014 128.821L296.463 125.023C296.604 129.946 297.659 134.659 299.628 139.16C301.598 143.661 304.341 147.319 307.857 150.132C311.374 152.805 315.383 154.141 319.884 154.141L323.682 157.517V172.92L319.884 175.452ZM183.578 175.452L179.78 172.92V157.517L183.578 154.141C193.988 154.141 203.694 153.156 212.696 151.187C221.84 149.077 230.42 146.475 238.438 143.38C246.597 140.145 254.334 136.839 261.648 133.463C269.104 129.946 276.348 126.852 283.381 124.179C278.599 123.194 273.605 121.717 268.4 119.748C263.196 117.779 257.991 115.739 252.786 113.629C247.582 111.378 242.588 109.479 237.805 107.932C233.163 106.385 228.943 105.611 225.145 105.611C222.332 105.611 219.448 106.455 216.494 108.143C213.681 109.69 211.008 112.082 208.476 115.317C207.492 116.724 206.155 117.427 204.467 117.427C203.201 117.427 201.865 117.005 200.458 116.161C199.052 115.317 197.786 114.192 196.66 112.785C195.676 111.378 195.043 109.901 194.761 108.354C194.621 106.666 195.113 105.048 196.238 103.501C200.177 98.1557 204.678 93.9357 209.742 90.841C214.806 87.6057 220.011 85.988 225.356 85.988C229.717 85.988 234.429 86.832 239.493 88.52C244.698 90.208 250.043 92.2477 255.529 94.639C261.156 97.0304 266.783 99.4217 272.409 101.813C278.177 104.204 283.733 106.103 289.078 107.51C294.424 108.917 299.488 109.479 304.27 109.198C305.536 109.198 306.591 109.761 307.435 110.886C308.42 112.011 309.123 113.559 309.545 115.528C310.108 117.357 310.319 119.326 310.178 121.436C310.178 123.405 309.827 125.304 309.123 127.133C308.42 128.821 307.365 130.087 305.958 130.931C296.393 135.151 287.672 139.371 279.794 143.591C271.917 147.811 264.321 151.82 257.006 155.618C249.832 159.416 242.588 162.792 235.273 165.746C227.959 168.7 220.081 171.091 211.641 172.92C203.342 174.608 193.988 175.452 183.578 175.452Z" stroke="#ffffff" stroke-width="1" mask="url(#path-1-inside-1_488_74)"/>
<path d="M506.51 175.452C502.712 175.452 498.985 174.749 495.327 173.342C491.67 171.935 488.294 169.755 485.199 166.801C482.105 163.847 479.432 160.049 477.181 155.407C474.931 150.624 473.313 144.857 472.328 138.105L483.933 126.711C483.933 131.634 484.918 136.206 486.887 140.426C488.857 144.505 491.529 147.811 494.905 150.343C498.422 152.875 502.29 154.141 506.51 154.141L510.308 157.517V172.92L506.51 175.452ZM390.882 190.433C390.742 192.402 389.827 193.879 388.139 194.864C386.451 195.849 384.623 196.341 382.653 196.341C381.106 196.341 379.629 195.989 378.222 195.286C376.816 194.583 375.69 193.528 374.846 192.121C374.143 190.855 374.002 189.167 374.424 187.057C376.253 174.96 378.855 163.566 382.231 152.875C385.748 142.044 389.898 132.267 394.68 123.546C399.604 114.825 405.019 107.299 410.927 100.969C416.976 94.4984 423.376 89.575 430.128 86.199C436.88 82.6824 443.843 80.924 451.017 80.924C458.051 80.924 464.17 82.7527 469.374 86.41C474.579 89.9267 478.588 94.7094 481.401 100.758C484.355 106.807 485.832 113.559 485.832 121.014C485.832 130.017 484.074 137.683 480.557 144.013C477.181 150.343 472.328 155.548 465.998 159.627C459.668 163.706 452.213 166.942 443.632 169.333C435.192 171.584 425.908 173.201 415.78 174.186C405.652 175.03 395.032 175.452 383.919 175.452C375.761 175.452 368.798 173.553 363.03 169.755C357.263 165.816 353.395 160.33 351.425 153.297C348.753 159.768 344.533 165.113 338.765 169.333C333.139 173.412 326.879 175.452 319.986 175.452L316.188 172.287V157.306L319.986 154.141C324.347 154.141 328.356 153.227 332.013 151.398C335.811 149.429 338.906 146.475 341.297 142.536C343.689 138.457 344.884 133.182 344.884 126.711C344.884 124.179 345.025 121.999 345.306 120.17C345.728 118.341 346.502 116.935 347.627 115.95C348.753 114.965 350.581 114.473 353.113 114.473C356.208 114.473 358.388 115.317 359.654 117.005C361.061 118.552 361.624 120.381 361.342 122.491C360.78 126.57 360.428 130.509 360.287 134.307C360.287 138.105 360.92 141.481 362.186 144.435C363.593 147.389 365.984 149.78 369.36 151.609C372.736 153.297 377.589 154.141 383.919 154.141C393.203 154.141 402.136 153.86 410.716 153.297C419.297 152.734 427.174 151.75 434.348 150.343C441.522 148.936 447.782 146.967 453.127 144.435C458.473 141.903 462.622 138.738 465.576 134.94C468.53 131.001 470.007 126.289 470.007 120.803C470.007 117.146 469.304 113.77 467.897 110.675C466.491 107.58 464.381 105.119 461.567 103.29C458.754 101.321 455.097 100.336 450.595 100.336C444.687 100.336 438.639 102.376 432.449 106.455C426.26 110.534 420.352 116.442 414.725 124.179C409.099 131.916 404.175 141.34 399.955 152.453C395.735 163.566 392.711 176.226 390.882 190.433Z" stroke="#ffffff" stroke-width="1" mask="url(#path-1-inside-1_488_74)"/>
<path d="M574.408 203.937C565.968 203.937 558.794 201.546 552.886 196.763C546.978 191.98 542.266 185.228 538.749 176.507C535.232 167.926 532.63 157.798 530.942 146.123C529.395 134.448 528.621 121.717 528.621 107.932C528.621 98.7887 528.902 89.4344 529.465 79.869C530.028 70.163 530.801 60.3867 531.786 50.54C532.771 40.6933 533.966 30.917 535.373 21.211C535.795 18.3977 536.78 16.2877 538.327 14.881C539.874 13.3337 541.984 12.56 544.657 12.56C552.112 12.56 555.277 15.7954 554.152 22.266C552.886 30.9873 551.69 40.3417 550.565 50.329C549.58 60.3163 548.736 70.6554 548.033 81.346C547.33 92.0367 546.978 103.009 546.978 114.262C546.978 123.968 547.47 133.041 548.455 141.481C549.44 149.921 550.987 157.376 553.097 163.847C555.348 170.177 558.302 175.1 561.959 178.617C565.616 182.274 570.188 184.103 575.674 184.103C581.863 184.103 586.857 182.204 590.655 178.406C594.594 174.749 596.563 169.755 596.563 163.425C596.563 156.814 594.875 151.398 591.499 147.178C588.123 142.817 583.34 140.637 577.151 140.637C572.368 140.637 567.726 141.833 563.225 144.224C558.864 146.475 554.504 149.358 550.143 152.875C545.782 156.251 541.281 159.697 536.639 163.214C532.138 166.731 527.355 169.685 522.291 172.076C517.368 174.327 512.022 175.452 506.255 175.452L502.668 173.342V157.095L506.466 154.141C511.952 154 517.086 152.805 521.869 150.554C526.652 148.163 531.294 145.279 535.795 141.903C540.437 138.527 545.009 135.221 549.51 131.986C554.011 128.751 558.724 126.008 563.647 123.757C568.711 121.506 574.056 120.381 579.683 120.381C586.013 120.381 591.64 122.139 596.563 125.656C601.627 129.173 605.636 134.166 608.59 140.637C611.544 146.967 613.021 154.422 613.021 163.003C613.021 171.162 611.403 178.336 608.168 184.525C604.933 190.714 600.361 195.497 594.453 198.873C588.686 202.249 582.004 203.937 574.408 203.937Z" stroke="#ffffff" stroke-width="1" mask="url(#path-1-inside-1_488_74)"/>
<path d="M646.951 176.929C645.966 176.929 644.7 176.718 643.153 176.296C641.605 175.874 640.269 175.03 639.144 173.764C638.018 172.498 637.456 170.529 637.456 167.856C637.456 161.104 637.526 153.789 637.667 145.912C637.807 137.894 637.948 129.595 638.089 121.014C638.37 112.293 638.651 103.431 638.933 94.428C639.214 85.4254 639.495 76.5633 639.777 67.842C640.058 58.98 640.339 50.4697 640.621 42.311C640.902 34.0117 641.183 26.275 641.465 19.101C641.605 16.2877 642.52 14.248 644.208 12.982C646.036 11.716 648.146 11.083 650.538 11.083C653.632 11.083 655.883 11.927 657.29 13.615C658.696 15.303 659.329 17.413 659.189 19.945C659.048 26.1343 658.837 32.9567 658.556 40.412C658.274 47.7267 657.993 55.393 657.712 63.411C657.571 71.2884 657.36 79.3063 657.079 87.465C656.657 101.813 656.305 115.598 656.024 128.821C655.883 141.903 655.672 154.633 655.391 167.012C655.391 168.559 655.109 170.107 654.547 171.654C653.984 173.201 653.07 174.467 651.804 175.452C650.678 176.437 649.061 176.929 646.951 176.929Z" stroke="#ffffff" stroke-width="1" mask="url(#path-1-inside-1_488_74)"/>
<path d="M95.3136 29.8672C98.9672 29.8672 101.926 31.1905 104.138 33.8447C106.342 36.4893 107.419 39.9896 107.419 44.293C107.419 48.7512 106.195 52.7223 103.74 56.1875L103.739 56.1865C101.433 59.5001 98.2679 62.0858 94.2589 63.9473C90.3881 65.8098 86.0949 66.7373 81.3878 66.7373C78.1015 66.7373 74.6801 66.2366 71.1251 65.2412C67.5567 64.242 64.134 62.6733 60.8585 60.5371L60.8546 60.5342C59.5012 59.6319 58.6365 58.4749 58.3224 57.0615L58.3165 57.0322L58.3136 57.0029C58.1647 55.5143 58.3863 54.1516 58.9962 52.9316C59.5972 51.7297 60.4425 50.8656 61.5411 50.3867C62.7826 49.766 64.1362 49.9041 65.5392 50.667L65.8204 50.8271L65.8302 50.833C68.4618 52.4951 71.1576 53.7393 73.9181 54.5693C76.8353 55.2632 79.6059 55.6093 82.2316 55.6094C84.9942 55.6094 87.5399 55.1952 89.8722 54.3721C91.663 53.74 93.1538 52.9509 94.3566 52.0146C92.2046 51.928 90.1638 51.0922 88.2462 49.5342C85.8539 47.5903 84.6857 44.7597 84.6857 41.1279C84.6857 37.9277 85.6352 35.2681 87.5626 33.1924L87.5636 33.1914C89.6299 30.9775 92.2248 29.8673 95.3136 29.8672Z" fill="#DDA15E" stroke="#DDA15E"/>
<path d="M268.103 32.8457C269.623 32.0859 271.117 31.9931 272.538 32.625C273.925 33.2411 274.989 34.317 275.737 35.8125C276.489 37.1756 276.716 38.6264 276.412 40.1436C276.095 41.728 275.063 42.9633 273.418 43.8604C269.732 46.1264 265.278 48.2453 260.063 50.2188L260.052 50.2227C254.827 52.0585 249.321 53.6118 243.536 54.8818L243.526 54.8838C237.873 56.0143 232.359 56.6505 226.983 56.792H226.97C225.18 56.792 223.705 56.2665 222.608 55.1689L222.596 55.1572L222.584 55.1445C221.535 53.9457 220.927 52.5827 220.776 51.0664L220.775 51.0625C220.628 49.4443 220.845 48.0102 221.458 46.7842L221.463 46.7744L221.469 46.7656C222.259 45.343 223.539 44.5548 225.237 44.4004L225.264 44.3984C232.477 44.1361 239.754 43.0135 247.096 41.0283L248.566 40.6191C256.419 38.2348 262.924 35.6451 268.088 32.8535L268.095 32.8496L268.103 32.8457Z" fill="#DDA15E" stroke="#DDA15E"/>
<path d="M432.097 17.5C438.261 17.5 443.12 19.512 446.606 23.5752L446.939 23.9551C450.32 27.9114 452.009 32.6164 452.009 38.0449C452.009 43.3691 450.277 47.8571 446.806 51.4736L446.805 51.4727C443.459 54.9639 438.959 56.6914 433.362 56.6914C427.902 56.6913 423.408 54.9617 419.927 51.4805L419.92 51.4727C416.593 48.0012 414.928 43.797 414.928 38.8887C414.928 34.0006 416.369 29.8711 419.271 26.5342L419.271 26.5332C421.589 23.8842 424.456 22.2422 427.851 21.6035C427.96 20.7208 428.249 19.916 428.727 19.1992L428.731 19.1934L428.736 19.1865C429.539 18.0635 430.678 17.5 432.097 17.5ZM435.831 27.998C435.671 28.5317 435.403 29.03 435.022 29.4893C434.313 30.5232 432.979 30.9492 431.253 30.9492C429.01 30.9492 427.26 31.7966 425.952 33.4971C424.743 35.1107 424.157 36.7643 424.157 38.4668C424.157 41.0076 425.019 43.0481 426.731 44.6328C428.458 46.0901 430.587 46.829 433.151 46.8291C435.86 46.8291 438.133 46.0877 440.001 44.626C441.842 43.0469 442.779 40.8748 442.779 38.0449C442.779 35.3714 441.782 32.9587 439.75 30.791L439.739 30.7793L439.729 30.7666C438.67 29.4814 437.375 28.5565 435.831 27.998Z" fill="#DDA15E" stroke="#DDA15E"/>
<path d="M598.719 56.8672C602.372 56.8672 605.331 58.1905 607.543 60.8447C609.747 63.4893 610.824 66.9896 610.824 71.293C610.824 75.7512 609.6 79.7223 607.146 83.1875L607.145 83.1865C604.839 86.5001 601.673 89.0858 597.664 90.9473C593.793 92.8098 589.5 93.7373 584.793 93.7373C581.507 93.7373 578.085 93.2366 574.53 92.2412C570.962 91.242 567.539 89.6733 564.264 87.5371L564.26 87.5342C562.906 86.6319 562.042 85.4749 561.728 84.0615L561.722 84.0322L561.719 84.0029C561.57 82.5143 561.791 81.1516 562.401 79.9316C563.002 78.7297 563.848 77.8656 564.946 77.3867C566.188 76.766 567.541 76.9041 568.944 77.667L569.226 77.8271L569.235 77.833C571.867 79.4951 574.563 80.7393 577.323 81.5693C580.24 82.2632 583.011 82.6094 585.637 82.6094C588.399 82.6094 590.945 82.1952 593.277 81.3721C595.068 80.74 596.559 79.9509 597.762 79.0146C595.61 78.928 593.569 78.0922 591.651 76.5342C589.259 74.5903 588.091 71.7597 588.091 68.1279C588.091 64.9277 589.04 62.2681 590.968 60.1924L590.969 60.1914C593.035 57.9775 595.63 56.8673 598.719 56.8672Z" fill="#DDA15E" stroke="#DDA15E"/>
<path d="M543.427 0.5C549.591 0.5 554.45 2.51199 557.937 6.5752L558.27 6.95508C561.65 10.9115 563.339 15.6164 563.339 21.0449C563.339 26.369 561.608 30.8571 558.136 34.4736L558.135 34.4727C554.789 37.9639 550.289 39.6914 544.692 39.6914C539.232 39.6913 534.738 37.9617 531.257 34.4805L531.25 34.4727C527.923 31.0013 526.258 26.797 526.258 21.8887C526.258 17.0006 527.699 12.8711 530.601 9.53418L530.602 9.5332C532.919 6.8842 535.786 5.24216 539.181 4.60352C539.29 3.72079 539.579 2.91602 540.057 2.19922L540.062 2.19336L540.066 2.18652C540.869 1.06354 542.008 0.500016 543.427 0.5ZM547.161 10.998C547.001 11.5317 546.733 12.03 546.353 12.4893C545.643 13.5233 544.309 13.9492 542.583 13.9492C540.34 13.9492 538.59 14.7966 537.282 16.4971C536.073 18.1107 535.487 19.7643 535.487 21.4668C535.487 24.0076 536.349 26.0481 538.062 27.6328C539.788 29.0901 541.917 29.829 544.481 29.8291C547.19 29.8291 549.463 29.0877 551.331 27.626C553.172 26.0469 554.109 23.8748 554.109 21.0449C554.109 18.3714 553.112 15.9587 551.08 13.791L551.069 13.7793L551.059 13.7666C550 12.4814 548.705 11.5565 547.161 10.998Z" fill="#DDA15E" stroke="#DDA15E"/>
<mask id="path-7-inside-2_488_74" fill="#ffffff">
<path d="M52.284 346.013C53.128 344.466 54.0423 343.411 55.027 342.848C56.0117 342.145 57.137 341.793 58.403 341.793C60.2317 341.793 61.9197 342.426 63.467 343.692C65.0143 344.817 66.1397 346.224 66.843 347.912C67.687 349.6 67.6167 351.288 66.632 352.976C62.1307 361.697 59.88 370.278 59.88 378.718C59.88 386.033 61.99 392.644 66.21 398.552C70.43 404.601 76.0567 409.313 83.09 412.689C90.1233 416.206 97.9303 417.964 106.511 417.964C116.358 417.964 125.079 416.557 132.675 413.744C140.271 410.931 146.249 407.133 150.61 402.35C155.111 397.567 157.362 392.292 157.362 386.525C157.362 382.305 155.463 377.944 151.665 373.443C148.008 368.942 141.959 364.511 133.519 360.15C131.69 358.884 130.635 357.337 130.354 355.508C130.213 353.539 130.565 351.64 131.409 349.811C132.253 347.842 133.449 346.224 134.996 344.958C136.543 343.692 138.231 343.059 140.06 343.059C141.045 343.059 142.24 343.411 143.647 344.114C148.711 346.646 153.142 348.826 156.94 350.655C160.738 352.484 164.395 353.89 167.912 354.875C171.429 355.719 175.227 356.141 179.306 356.141L183.104 358.884V375.342L179.306 377.452C177.055 377.452 174.945 377.311 172.976 377.03C171.147 376.749 169.319 376.327 167.49 375.764C171.71 380.406 173.82 385.962 173.82 392.433C173.82 399.185 171.991 405.445 168.334 411.212C164.817 417.12 159.894 422.254 153.564 426.615C147.375 430.976 140.06 434.352 131.62 436.743C123.18 439.275 114.107 440.541 104.401 440.541C92.585 440.541 82.035 437.868 72.751 432.523C63.467 427.178 56.1523 419.933 50.807 410.79C45.6023 401.787 43 391.8 43 380.828C43 375.483 43.7033 369.856 45.11 363.948C46.5167 358.04 48.908 352.062 52.284 346.013ZM92.585 484.64C88.2243 485.625 84.989 485.203 82.879 483.374C80.769 481.686 79.714 479.154 79.714 475.778C79.714 472.824 81.0503 470.714 83.723 469.448C86.5363 468.182 90.053 467.197 94.273 466.494C98.915 465.509 103.487 464.947 107.988 464.806C112.63 464.806 116.709 464.947 120.226 465.228C122.477 465.369 124.305 466.002 125.712 467.127C127.119 468.393 128.033 469.87 128.455 471.558C128.877 473.246 128.877 474.934 128.455 476.622C128.033 478.31 127.119 479.717 125.712 480.842C124.305 481.967 122.477 482.53 120.226 482.53C116.147 482.53 111.645 482.6 106.722 482.741C101.799 482.882 97.0863 483.515 92.585 484.64Z"/>
<path d="M179.372 377.452V356.141C185.983 356.141 191.258 354.453 195.197 351.077C199.276 347.56 202.301 343.059 204.27 337.573C206.239 332.087 207.505 326.249 208.068 320.06C208.631 313.871 208.771 307.963 208.49 302.336C208.349 299.523 208.982 297.342 210.389 295.795C211.936 294.107 214.046 293.263 216.719 293.263C219.814 293.263 222.064 294.248 223.471 296.217C225.018 298.186 225.862 301.14 226.003 305.079C226.284 315.77 225.511 325.546 223.682 334.408C221.853 343.27 218.97 350.936 215.031 357.407C211.092 363.737 206.169 368.66 200.261 372.177C194.353 375.694 187.39 377.452 179.372 377.452ZM179.372 377.452L175.574 375.131V358.673L179.372 356.141V377.452ZM205.747 267.943C201.386 268.928 198.151 268.576 196.041 266.888C193.931 265.059 192.876 262.457 192.876 259.081C192.876 256.127 194.212 254.017 196.885 252.751C199.698 251.485 203.215 250.5 207.435 249.797C212.077 248.812 216.649 248.32 221.15 248.32C225.792 248.179 229.871 248.25 233.388 248.531C235.639 248.672 237.467 249.375 238.874 250.641C240.281 251.766 241.195 253.173 241.617 254.861C242.039 256.549 242.039 258.237 241.617 259.925C241.195 261.613 240.281 263.02 238.874 264.145C237.467 265.27 235.639 265.833 233.388 265.833C229.309 265.833 224.807 265.903 219.884 266.044C214.961 266.185 210.248 266.818 205.747 267.943Z"/>
<path d="M241.307 436.743C236.806 436.884 233.711 436.18 232.023 434.633C230.194 433.086 229.21 430.624 229.069 427.248C229.069 423.591 229.702 421.059 230.968 419.652C232.093 418.245 234.203 417.401 237.298 417.12C252.349 415.01 265.572 410.368 276.966 403.194C288.501 396.161 296.73 386.947 301.653 375.553C291.525 374.709 282.663 372.529 275.067 369.012C267.471 365.355 261.493 360.431 257.132 354.242C252.912 347.912 250.802 340.527 250.802 332.087C250.802 325.335 252.138 319.286 254.811 313.941C257.484 308.596 261.141 304.376 265.783 301.281C270.425 298.046 275.559 296.428 281.186 296.428C286.672 296.428 291.877 297.905 296.8 300.859C301.864 303.672 306.225 307.752 309.882 313.097C313.68 318.442 316.564 324.772 318.533 332.087C320.643 339.261 321.487 347.279 321.065 356.141H335.413V377.452H317.478C314.946 385.611 311.148 393.136 306.084 400.029C301.161 407.062 295.253 413.181 288.36 418.386C281.608 423.591 274.223 427.74 266.205 430.835C258.187 434.07 249.888 436.04 241.307 436.743ZM265.572 331.454C265.572 336.096 266.627 340.035 268.737 343.27C270.988 346.365 274.012 348.897 277.81 350.866C281.749 352.835 286.18 354.312 291.103 355.297C296.167 356.282 301.512 356.844 307.139 356.985C307.561 348.686 306.576 341.441 304.185 335.252C301.934 328.922 298.769 323.999 294.69 320.482C290.751 316.965 286.391 315.207 281.608 315.207C276.544 315.207 272.605 316.825 269.792 320.06C266.979 323.295 265.572 327.093 265.572 331.454ZM335.413 377.452V356.141L339.633 359.728V374.076L335.413 377.452Z"/>
<path d="M521.879 377.452C518.081 377.452 514.354 376.749 510.696 375.342C507.039 373.935 503.663 371.755 500.568 368.801C497.474 365.847 494.801 362.049 492.55 357.407C490.3 352.624 488.682 346.857 487.697 340.105L499.302 328.711C499.302 333.634 500.287 338.206 502.256 342.426C504.226 346.505 506.898 349.811 510.274 352.343C513.791 354.875 517.659 356.141 521.879 356.141L525.677 359.517V374.92L521.879 377.452ZM406.251 392.433C406.111 394.402 405.196 395.879 403.508 396.864C401.82 397.849 399.992 398.341 398.022 398.341C396.475 398.341 394.998 397.989 393.591 397.286C392.185 396.583 391.059 395.528 390.215 394.121C389.512 392.855 389.371 391.167 389.793 389.057C391.622 376.96 394.224 365.566 397.6 354.875C401.117 344.044 405.267 334.267 410.049 325.546C414.973 316.825 420.388 309.299 426.296 302.969C432.345 296.498 438.745 291.575 445.497 288.199C452.249 284.682 459.212 282.924 466.386 282.924C473.42 282.924 479.539 284.753 484.743 288.41C489.948 291.927 493.957 296.709 496.77 302.758C499.724 308.807 501.201 315.559 501.201 323.014C501.201 332.017 499.443 339.683 495.926 346.013C492.55 352.343 487.697 357.548 481.367 361.627C475.037 365.706 467.582 368.942 459.001 371.333C450.561 373.584 441.277 375.201 431.149 376.186C421.021 377.03 410.401 377.452 399.288 377.452C391.13 377.452 384.167 375.553 378.399 371.755C372.632 367.816 368.764 362.33 366.794 355.297C364.122 361.768 359.902 367.113 354.134 371.333C348.508 375.412 342.248 377.452 335.355 377.452L331.557 374.287V359.306L335.355 356.141C339.716 356.141 343.725 355.227 347.382 353.398C351.18 351.429 354.275 348.475 356.666 344.536C359.058 340.457 360.253 335.182 360.253 328.711C360.253 326.179 360.394 323.999 360.675 322.17C361.097 320.341 361.871 318.935 362.996 317.95C364.122 316.965 365.95 316.473 368.482 316.473C371.577 316.473 373.757 317.317 375.023 319.005C376.43 320.552 376.993 322.381 376.711 324.491C376.149 328.57 375.797 332.509 375.656 336.307C375.656 340.105 376.289 343.481 377.555 346.435C378.962 349.389 381.353 351.78 384.729 353.609C388.105 355.297 392.958 356.141 399.288 356.141C408.572 356.141 417.505 355.86 426.085 355.297C434.666 354.734 442.543 353.75 449.717 352.343C456.891 350.936 463.151 348.967 468.496 346.435C473.842 343.903 477.991 340.738 480.945 336.94C483.899 333.001 485.376 328.289 485.376 322.803C485.376 319.146 484.673 315.77 483.266 312.675C481.86 309.58 479.75 307.119 476.936 305.29C474.123 303.321 470.466 302.336 465.964 302.336C460.056 302.336 454.008 304.376 447.818 308.455C441.629 312.534 435.721 318.442 430.094 326.179C424.468 333.916 419.544 343.34 415.324 354.453C411.104 365.566 408.08 378.226 406.251 392.433Z"/>
<path d="M521.835 377.452L518.037 375.131V359.306L521.835 356.141C529.29 356.141 534.987 353.961 538.926 349.6C542.865 345.239 545.115 338.769 545.678 330.188C546.24 323.436 546.592 316.825 546.733 310.354C547.014 303.743 547.225 296.569 547.366 288.832C547.506 281.095 547.577 272.304 547.577 262.457C547.718 252.751 547.788 244.241 547.788 236.926C547.788 229.611 547.858 224.547 547.999 221.734C548.28 216.107 551.094 213.294 556.439 213.294C559.393 213.294 561.573 213.927 562.98 215.193C564.527 216.459 565.301 218.428 565.301 221.101C565.301 227.15 565.231 233.198 565.09 239.247C565.09 245.296 565.02 250.922 564.879 256.127C564.879 261.332 564.879 265.833 564.879 269.631C564.879 274.132 564.809 279.407 564.668 285.456C564.668 291.364 564.527 297.694 564.246 304.446C564.105 311.057 563.754 317.739 563.191 324.491C562.769 331.243 562.206 337.573 561.503 343.481C560.377 350.092 558.197 356 554.962 361.205C551.726 366.269 547.366 370.278 541.88 373.232C536.534 376.045 529.853 377.452 521.835 377.452Z"/>
<path d="M603.348 378.929C602.223 378.929 601.098 378.718 599.972 378.296C598.847 377.874 597.862 377.03 597.018 375.764C596.315 374.498 595.823 372.529 595.541 369.856C595.26 363.104 595.049 355.86 594.908 348.123C594.768 340.386 594.768 332.298 594.908 323.858C595.049 315.418 595.26 306.837 595.541 298.116C595.823 289.395 596.174 280.814 596.596 272.374C597.018 263.793 597.44 255.564 597.862 247.687C598.425 239.669 598.988 232.214 599.55 225.321C599.832 222.508 600.746 220.468 602.293 219.202C603.981 217.936 606.091 217.303 608.623 217.303C611.718 217.303 614.039 218.147 615.586 219.835C617.134 221.523 617.767 223.563 617.485 225.954C616.923 230.174 616.36 236.012 615.797 243.467C615.375 250.922 614.953 259.292 614.531 268.576C614.109 277.719 613.758 287.285 613.476 297.272C613.195 307.119 612.984 316.754 612.843 326.179C612.843 335.463 612.843 343.833 612.843 351.288C612.984 358.743 613.195 364.651 613.476 369.012C613.758 372.388 613.054 374.92 611.366 376.608C609.819 378.155 607.146 378.929 603.348 378.929Z"/>
</mask>
<path d="M52.284 346.013C53.128 344.466 54.0423 343.411 55.027 342.848C56.0117 342.145 57.137 341.793 58.403 341.793C60.2317 341.793 61.9197 342.426 63.467 343.692C65.0143 344.817 66.1397 346.224 66.843 347.912C67.687 349.6 67.6167 351.288 66.632 352.976C62.1307 361.697 59.88 370.278 59.88 378.718C59.88 386.033 61.99 392.644 66.21 398.552C70.43 404.601 76.0567 409.313 83.09 412.689C90.1233 416.206 97.9303 417.964 106.511 417.964C116.358 417.964 125.079 416.557 132.675 413.744C140.271 410.931 146.249 407.133 150.61 402.35C155.111 397.567 157.362 392.292 157.362 386.525C157.362 382.305 155.463 377.944 151.665 373.443C148.008 368.942 141.959 364.511 133.519 360.15C131.69 358.884 130.635 357.337 130.354 355.508C130.213 353.539 130.565 351.64 131.409 349.811C132.253 347.842 133.449 346.224 134.996 344.958C136.543 343.692 138.231 343.059 140.06 343.059C141.045 343.059 142.24 343.411 143.647 344.114C148.711 346.646 153.142 348.826 156.94 350.655C160.738 352.484 164.395 353.89 167.912 354.875C171.429 355.719 175.227 356.141 179.306 356.141L183.104 358.884V375.342L179.306 377.452C177.055 377.452 174.945 377.311 172.976 377.03C171.147 376.749 169.319 376.327 167.49 375.764C171.71 380.406 173.82 385.962 173.82 392.433C173.82 399.185 171.991 405.445 168.334 411.212C164.817 417.12 159.894 422.254 153.564 426.615C147.375 430.976 140.06 434.352 131.62 436.743C123.18 439.275 114.107 440.541 104.401 440.541C92.585 440.541 82.035 437.868 72.751 432.523C63.467 427.178 56.1523 419.933 50.807 410.79C45.6023 401.787 43 391.8 43 380.828C43 375.483 43.7033 369.856 45.11 363.948C46.5167 358.04 48.908 352.062 52.284 346.013ZM92.585 484.64C88.2243 485.625 84.989 485.203 82.879 483.374C80.769 481.686 79.714 479.154 79.714 475.778C79.714 472.824 81.0503 470.714 83.723 469.448C86.5363 468.182 90.053 467.197 94.273 466.494C98.915 465.509 103.487 464.947 107.988 464.806C112.63 464.806 116.709 464.947 120.226 465.228C122.477 465.369 124.305 466.002 125.712 467.127C127.119 468.393 128.033 469.87 128.455 471.558C128.877 473.246 128.877 474.934 128.455 476.622C128.033 478.31 127.119 479.717 125.712 480.842C124.305 481.967 122.477 482.53 120.226 482.53C116.147 482.53 111.645 482.6 106.722 482.741C101.799 482.882 97.0863 483.515 92.585 484.64Z" fill="#ffffff"/>
<path d="M179.372 377.452V356.141C185.983 356.141 191.258 354.453 195.197 351.077C199.276 347.56 202.301 343.059 204.27 337.573C206.239 332.087 207.505 326.249 208.068 320.06C208.631 313.871 208.771 307.963 208.49 302.336C208.349 299.523 208.982 297.342 210.389 295.795C211.936 294.107 214.046 293.263 216.719 293.263C219.814 293.263 222.064 294.248 223.471 296.217C225.018 298.186 225.862 301.14 226.003 305.079C226.284 315.77 225.511 325.546 223.682 334.408C221.853 343.27 218.97 350.936 215.031 357.407C211.092 363.737 206.169 368.66 200.261 372.177C194.353 375.694 187.39 377.452 179.372 377.452ZM179.372 377.452L175.574 375.131V358.673L179.372 356.141V377.452ZM205.747 267.943C201.386 268.928 198.151 268.576 196.041 266.888C193.931 265.059 192.876 262.457 192.876 259.081C192.876 256.127 194.212 254.017 196.885 252.751C199.698 251.485 203.215 250.5 207.435 249.797C212.077 248.812 216.649 248.32 221.15 248.32C225.792 248.179 229.871 248.25 233.388 248.531C235.639 248.672 237.467 249.375 238.874 250.641C240.281 251.766 241.195 253.173 241.617 254.861C242.039 256.549 242.039 258.237 241.617 259.925C241.195 261.613 240.281 263.02 238.874 264.145C237.467 265.27 235.639 265.833 233.388 265.833C229.309 265.833 224.807 265.903 219.884 266.044C214.961 266.185 210.248 266.818 205.747 267.943Z" fill="#ffffff"/>
<path d="M241.307 436.743C236.806 436.884 233.711 436.18 232.023 434.633C230.194 433.086 229.21 430.624 229.069 427.248C229.069 423.591 229.702 421.059 230.968 419.652C232.093 418.245 234.203 417.401 237.298 417.12C252.349 415.01 265.572 410.368 276.966 403.194C288.501 396.161 296.73 386.947 301.653 375.553C291.525 374.709 282.663 372.529 275.067 369.012C267.471 365.355 261.493 360.431 257.132 354.242C252.912 347.912 250.802 340.527 250.802 332.087C250.802 325.335 252.138 319.286 254.811 313.941C257.484 308.596 261.141 304.376 265.783 301.281C270.425 298.046 275.559 296.428 281.186 296.428C286.672 296.428 291.877 297.905 296.8 300.859C301.864 303.672 306.225 307.752 309.882 313.097C313.68 318.442 316.564 324.772 318.533 332.087C320.643 339.261 321.487 347.279 321.065 356.141H335.413V377.452H317.478C314.946 385.611 311.148 393.136 306.084 400.029C301.161 407.062 295.253 413.181 288.36 418.386C281.608 423.591 274.223 427.74 266.205 430.835C258.187 434.07 249.888 436.04 241.307 436.743ZM265.572 331.454C265.572 336.096 266.627 340.035 268.737 343.27C270.988 346.365 274.012 348.897 277.81 350.866C281.749 352.835 286.18 354.312 291.103 355.297C296.167 356.282 301.512 356.844 307.139 356.985C307.561 348.686 306.576 341.441 304.185 335.252C301.934 328.922 298.769 323.999 294.69 320.482C290.751 316.965 286.391 315.207 281.608 315.207C276.544 315.207 272.605 316.825 269.792 320.06C266.979 323.295 265.572 327.093 265.572 331.454ZM335.413 377.452V356.141L339.633 359.728V374.076L335.413 377.452Z" fill="#ffffff"/>
<path d="M521.879 377.452C518.081 377.452 514.354 376.749 510.696 375.342C507.039 373.935 503.663 371.755 500.568 368.801C497.474 365.847 494.801 362.049 492.55 357.407C490.3 352.624 488.682 346.857 487.697 340.105L499.302 328.711C499.302 333.634 500.287 338.206 502.256 342.426C504.226 346.505 506.898 349.811 510.274 352.343C513.791 354.875 517.659 356.141 521.879 356.141L525.677 359.517V374.92L521.879 377.452ZM406.251 392.433C406.111 394.402 405.196 395.879 403.508 396.864C401.82 397.849 399.992 398.341 398.022 398.341C396.475 398.341 394.998 397.989 393.591 397.286C392.185 396.583 391.059 395.528 390.215 394.121C389.512 392.855 389.371 391.167 389.793 389.057C391.622 376.96 394.224 365.566 397.6 354.875C401.117 344.044 405.267 334.267 410.049 325.546C414.973 316.825 420.388 309.299 426.296 302.969C432.345 296.498 438.745 291.575 445.497 288.199C452.249 284.682 459.212 282.924 466.386 282.924C473.42 282.924 479.539 284.753 484.743 288.41C489.948 291.927 493.957 296.709 496.77 302.758C499.724 308.807 501.201 315.559 501.201 323.014C501.201 332.017 499.443 339.683 495.926 346.013C492.55 352.343 487.697 357.548 481.367 361.627C475.037 365.706 467.582 368.942 459.001 371.333C450.561 373.584 441.277 375.201 431.149 376.186C421.021 377.03 410.401 377.452 399.288 377.452C391.13 377.452 384.167 375.553 378.399 371.755C372.632 367.816 368.764 362.33 366.794 355.297C364.122 361.768 359.902 367.113 354.134 371.333C348.508 375.412 342.248 377.452 335.355 377.452L331.557 374.287V359.306L335.355 356.141C339.716 356.141 343.725 355.227 347.382 353.398C351.18 351.429 354.275 348.475 356.666 344.536C359.058 340.457 360.253 335.182 360.253 328.711C360.253 326.179 360.394 323.999 360.675 322.17C361.097 320.341 361.871 318.935 362.996 317.95C364.122 316.965 365.95 316.473 368.482 316.473C371.577 316.473 373.757 317.317 375.023 319.005C376.43 320.552 376.993 322.381 376.711 324.491C376.149 328.57 375.797 332.509 375.656 336.307C375.656 340.105 376.289 343.481 377.555 346.435C378.962 349.389 381.353 351.78 384.729 353.609C388.105 355.297 392.958 356.141 399.288 356.141C408.572 356.141 417.505 355.86 426.085 355.297C434.666 354.734 442.543 353.75 449.717 352.343C456.891 350.936 463.151 348.967 468.496 346.435C473.842 343.903 477.991 340.738 480.945 336.94C483.899 333.001 485.376 328.289 485.376 322.803C485.376 319.146 484.673 315.77 483.266 312.675C481.86 309.58 479.75 307.119 476.936 305.29C474.123 303.321 470.466 302.336 465.964 302.336C460.056 302.336 454.008 304.376 447.818 308.455C441.629 312.534 435.721 318.442 430.094 326.179C424.468 333.916 419.544 343.34 415.324 354.453C411.104 365.566 408.08 378.226 406.251 392.433Z" fill="#ffffff"/>
<path d="M521.835 377.452L518.037 375.131V359.306L521.835 356.141C529.29 356.141 534.987 353.961 538.926 349.6C542.865 345.239 545.115 338.769 545.678 330.188C546.24 323.436 546.592 316.825 546.733 310.354C547.014 303.743 547.225 296.569 547.366 288.832C547.506 281.095 547.577 272.304 547.577 262.457C547.718 252.751 547.788 244.241 547.788 236.926C547.788 229.611 547.858 224.547 547.999 221.734C548.28 216.107 551.094 213.294 556.439 213.294C559.393 213.294 561.573 213.927 562.98 215.193C564.527 216.459 565.301 218.428 565.301 221.101C565.301 227.15 565.231 233.198 565.09 239.247C565.09 245.296 565.02 250.922 564.879 256.127C564.879 261.332 564.879 265.833 564.879 269.631C564.879 274.132 564.809 279.407 564.668 285.456C564.668 291.364 564.527 297.694 564.246 304.446C564.105 311.057 563.754 317.739 563.191 324.491C562.769 331.243 562.206 337.573 561.503 343.481C560.377 350.092 558.197 356 554.962 361.205C551.726 366.269 547.366 370.278 541.88 373.232C536.534 376.045 529.853 377.452 521.835 377.452Z" fill="#ffffff"/>
<path d="M603.348 378.929C602.223 378.929 601.098 378.718 599.972 378.296C598.847 377.874 597.862 377.03 597.018 375.764C596.315 374.498 595.823 372.529 595.541 369.856C595.26 363.104 595.049 355.86 594.908 348.123C594.768 340.386 594.768 332.298 594.908 323.858C595.049 315.418 595.26 306.837 595.541 298.116C595.823 289.395 596.174 280.814 596.596 272.374C597.018 263.793 597.44 255.564 597.862 247.687C598.425 239.669 598.988 232.214 599.55 225.321C599.832 222.508 600.746 220.468 602.293 219.202C603.981 217.936 606.091 217.303 608.623 217.303C611.718 217.303 614.039 218.147 615.586 219.835C617.134 221.523 617.767 223.563 617.485 225.954C616.923 230.174 616.36 236.012 615.797 243.467C615.375 250.922 614.953 259.292 614.531 268.576C614.109 277.719 613.758 287.285 613.476 297.272C613.195 307.119 612.984 316.754 612.843 326.179C612.843 335.463 612.843 343.833 612.843 351.288C612.984 358.743 613.195 364.651 613.476 369.012C613.758 372.388 613.054 374.92 611.366 376.608C609.819 378.155 607.146 378.929 603.348 378.929Z" fill="#ffffff"/>
<path d="M222.112 396.307C223.632 395.547 225.126 395.454 226.548 396.086C227.917 396.695 228.982 397.687 229.735 399.043L229.741 399.053L229.746 399.062C230.494 400.558 230.727 402.078 230.422 403.604C230.105 405.189 229.072 406.424 227.427 407.321C223.737 409.59 219.28 411.639 214.061 413.473C208.832 415.451 203.322 417.004 197.533 418.134C191.882 419.404 186.368 420.111 180.992 420.253H180.979C179.168 420.253 177.686 419.643 176.594 418.395V418.394C175.532 417.32 174.933 415.95 174.784 414.312L174.785 414.312C174.637 412.822 174.861 411.4 175.459 410.055L175.472 410.022L175.491 409.993C176.292 408.712 177.573 408.013 179.246 407.861L179.273 407.859C186.964 407.58 194.729 406.252 202.567 403.872L202.575 403.869C210.43 401.625 216.934 399.105 222.097 396.314L222.104 396.311L222.112 396.307Z" fill="#DDA15E" stroke="#DDA15E"/>
<path d="M124.528 277.977C125.587 277.977 126.579 278.204 127.495 278.663C128.414 279.122 129.042 279.874 129.377 280.878L129.44 281.083L129.441 281.086C130.864 286.207 131.292 291.196 130.722 296.048C130.15 300.906 128.574 304.94 125.971 308.123C123.331 311.349 119.663 312.948 115.033 312.948C112.248 312.948 109.616 312.066 107.149 310.325L107.143 310.32L107.138 310.316C105.177 308.846 103.733 306.963 102.802 304.679C101.83 307.101 100.233 309.061 98.0087 310.543C95.3974 312.284 92.5584 313.159 89.5028 313.159C85.8503 313.159 82.764 311.837 80.2772 309.205C77.798 306.58 76.2189 302.959 75.5048 298.388L75.5028 298.379L75.5018 298.372C74.9297 293.651 75.433 288.171 76.9901 281.943C77.298 280.711 77.9355 279.797 78.9393 279.295C79.8557 278.837 80.8474 278.61 81.9061 278.61C83.2712 278.61 84.4996 278.991 85.5731 279.758C86.149 280.17 86.5409 280.703 86.7147 281.355C86.8861 281.998 86.8341 282.712 86.6053 283.474V283.475C85.2179 288.054 84.8057 292.335 85.3534 296.327L85.4208 296.691C85.7788 298.479 86.4247 299.778 87.3182 300.642C88.262 301.554 89.5345 302.031 91.1903 302.031C93.6231 302.031 95.1838 301.293 96.0438 299.942L96.0497 299.932C97.1143 298.335 97.7282 296.317 97.8651 293.852C98.0043 291.347 97.9349 288.914 97.6571 286.553L97.6532 286.524V286.495C97.6532 285.871 97.7706 285.309 98.0311 284.832C98.2903 284.356 98.6769 283.993 99.1718 283.74L99.5653 283.529C100.487 283.068 101.424 282.83 102.373 282.83C103.576 282.83 104.652 283.13 105.582 283.744C106.073 283.996 106.458 284.359 106.716 284.832C106.976 285.309 107.094 285.871 107.094 286.495C107.094 288.863 107.232 291.302 107.511 293.813C107.923 296.139 108.605 298.104 109.543 299.721C110.563 301.113 112.017 301.82 113.978 301.82C115.249 301.82 116.304 301.569 117.164 301.091C118.021 300.615 118.712 299.898 119.234 298.919C120.314 296.755 120.863 294.166 120.863 291.137C120.863 288.097 120.38 285.125 119.412 282.222L119.396 282.175L119.391 282.126C119.31 281.486 119.387 280.89 119.65 280.364C119.911 279.843 120.334 279.428 120.885 279.109C121.953 278.353 123.173 277.977 124.528 277.977ZM113.978 228.814C117.632 228.814 120.591 230.137 122.803 232.792C125.006 235.436 126.084 238.936 126.084 243.24C126.084 247.696 124.859 251.665 122.406 255.129L122.407 255.13C120.102 258.444 116.936 261.028 112.929 262.89L112.93 262.891C109.057 264.756 104.762 265.684 100.053 265.684C96.7664 265.684 93.3449 265.183 89.7899 264.188C86.2215 263.189 82.7988 261.62 79.5233 259.484L79.5194 259.481C78.166 258.579 77.3013 257.422 76.9872 256.008L76.9803 255.979L76.9774 255.95C76.8286 254.461 77.051 253.098 77.661 251.878C78.262 250.676 79.1072 249.812 80.2059 249.333L80.4559 249.219C81.7117 248.699 83.0755 248.929 84.4843 249.774L84.494 249.78C87.1257 251.442 89.8223 252.686 92.5829 253.516C95.5001 254.21 98.2707 254.556 100.896 254.556C103.659 254.556 106.205 254.142 108.537 253.319C110.328 252.687 111.819 251.898 113.021 250.961C110.869 250.875 108.829 250.039 106.911 248.481C104.519 246.537 103.35 243.707 103.35 240.075C103.351 236.874 104.3 234.215 106.227 232.139V232.138C108.294 229.924 110.889 228.814 113.978 228.814Z" fill="#DDA15E" stroke="#DDA15E"/>
<path d="M279.531 234.5C285.695 234.5 290.554 236.512 294.041 240.575L294.374 240.955C297.754 244.911 299.443 249.616 299.443 255.045C299.443 260.369 297.712 264.857 294.24 268.474L294.239 268.473C290.893 271.964 286.393 273.691 280.797 273.691C275.336 273.691 270.842 271.962 267.361 268.48L267.354 268.473C264.027 265.001 262.362 260.797 262.362 255.889C262.362 251.001 263.803 246.871 266.705 243.534L266.706 243.533C269.024 240.884 271.89 239.242 275.285 238.604C275.394 237.721 275.683 236.916 276.161 236.199L276.166 236.193L276.171 236.187C276.973 235.064 278.112 234.5 279.531 234.5ZM283.265 244.998C283.105 245.532 282.837 246.03 282.457 246.489C281.747 247.523 280.413 247.949 278.687 247.949C276.444 247.949 274.694 248.797 273.386 250.497C272.177 252.111 271.591 253.764 271.591 255.467C271.591 258.008 272.453 260.048 274.166 261.633C275.892 263.09 278.021 263.829 280.586 263.829C283.294 263.829 285.568 263.088 287.435 261.626C289.277 260.047 290.214 257.875 290.214 255.045C290.213 252.371 289.216 249.959 287.184 247.791L287.173 247.779L287.163 247.767C286.104 246.481 284.809 245.557 283.265 244.998Z" fill="#DDA15E" stroke="#DDA15E"/>
<path d="M411.73 270.977C412.789 270.977 413.781 271.204 414.697 271.663L414.877 271.759C415.699 272.225 416.266 272.942 416.579 273.878L416.643 274.083L416.644 274.086C418.066 279.207 418.495 284.196 417.924 289.048C417.352 293.906 415.776 297.94 413.173 301.123C410.533 304.349 406.865 305.949 402.235 305.949C399.45 305.949 396.819 305.066 394.352 303.325L394.346 303.321L394.34 303.316C392.38 301.846 390.935 299.963 390.004 297.679C389.032 300.101 387.435 302.061 385.211 303.543C382.6 305.284 379.761 306.16 376.705 306.16C373.052 306.16 369.966 304.838 367.479 302.205C365 299.58 363.421 295.959 362.707 291.388L362.705 291.38L362.704 291.372C362.132 286.651 362.635 281.171 364.192 274.943C364.5 273.712 365.138 272.798 366.142 272.296C367.058 271.838 368.05 271.61 369.108 271.61C370.473 271.61 371.702 271.991 372.775 272.758C373.351 273.17 373.743 273.703 373.917 274.355C374.088 274.998 374.036 275.712 373.808 276.474V276.475C372.42 281.054 372.008 285.336 372.556 289.328L372.623 289.691C372.981 291.479 373.627 292.778 374.521 293.642C375.464 294.554 376.737 295.032 378.393 295.032C380.825 295.032 382.386 294.293 383.246 292.942L383.252 292.933C384.317 291.336 384.93 289.318 385.067 286.853C385.207 284.348 385.137 281.915 384.859 279.553L384.855 279.525V279.496C384.855 278.872 384.973 278.309 385.233 277.832C385.493 277.356 385.879 276.993 386.374 276.74L386.768 276.529C387.689 276.068 388.627 275.831 389.575 275.831C390.779 275.831 391.855 276.131 392.785 276.745C393.276 276.997 393.66 277.359 393.918 277.832C394.179 278.309 394.296 278.872 394.296 279.496C394.296 281.863 394.434 284.303 394.713 286.813C395.125 289.14 395.806 291.106 396.745 292.723C397.765 294.115 399.22 294.82 401.181 294.82C402.451 294.82 403.506 294.57 404.366 294.092C405.223 293.616 405.914 292.899 406.437 291.92C407.516 289.756 408.065 287.166 408.065 284.137C408.065 281.097 407.582 278.125 406.614 275.222L406.599 275.175L406.593 275.126C406.513 274.486 406.589 273.891 406.853 273.364C407.113 272.843 407.535 272.429 408.086 272.11C409.154 271.353 410.375 270.977 411.73 270.977ZM409.187 237.903C410.706 237.143 412.2 237.05 413.622 237.682C415.008 238.298 416.073 239.374 416.82 240.87C417.572 242.233 417.8 243.684 417.496 245.201C417.179 246.785 416.147 248.02 414.502 248.917C410.815 251.184 406.362 253.302 401.146 255.276L401.136 255.28C395.911 257.116 390.405 258.669 384.619 259.939L384.609 259.941C378.957 261.071 373.442 261.708 368.066 261.849H368.054C366.263 261.849 364.789 261.324 363.691 260.226L363.68 260.214L363.668 260.202C362.619 259.003 362.011 257.64 361.859 256.124L361.858 256.12C361.711 254.501 361.929 253.067 362.542 251.841L362.547 251.832L362.553 251.823C363.343 250.4 364.622 249.612 366.32 249.458L366.348 249.456C373.561 249.193 380.838 248.071 388.18 246.085L389.649 245.676C397.502 243.292 404.007 240.702 409.172 237.911L409.179 237.907L409.187 237.903Z" fill="#DDA15E" stroke="#DDA15E"/>
</svg>
