<svg width="660" height="485" viewBox="0 0 660 485" fill="none" xmlns="http://www.w3.org/2000/svg">
<path d="M77.226 175.718C66.5353 175.718 56.548 174.663 47.264 172.553C37.98 170.443 29.751 167.348 22.577 163.269C15.5437 159.049 9.98733 153.844 5.908 147.655C1.96933 141.325 0 134.01 0 125.711C0 116.427 2.532 107.917 7.596 100.18C12.66 92.4434 20.467 86.1837 31.017 81.401C32.9863 80.557 34.7447 79.924 36.292 79.502C37.98 78.9393 39.5273 78.658 40.934 78.658C42.622 78.658 44.0287 79.2207 45.154 80.346C46.42 81.3307 47.4047 83.1594 48.108 85.832C48.3893 86.9573 48.53 88.2234 48.53 89.63C48.53 90.896 48.1783 92.0917 47.475 93.217C46.9123 94.2017 45.787 94.9754 44.099 95.538C39.879 97.0854 35.7997 98.914 31.861 101.024C28.063 102.993 24.898 105.666 22.366 109.042C19.834 112.277 18.568 116.568 18.568 121.913C18.568 127.118 20.1153 131.689 23.21 135.628C26.3047 139.426 30.595 142.591 36.081 145.123C41.7077 147.655 48.1783 149.554 55.493 150.82C62.8077 152.086 70.685 152.719 79.125 152.719C89.253 152.719 99.0997 151.875 108.665 150.187C118.23 148.358 126.811 145.826 134.407 142.591C142.003 139.215 147.981 135.206 152.342 130.564C156.843 125.922 159.094 120.647 159.094 114.739C159.094 110.941 158.039 107.635 155.929 104.822C153.819 101.868 151.146 99.547 147.911 97.859C144.676 96.171 141.3 95.327 137.783 95.327C134.126 95.327 130.609 96.171 127.233 97.859C123.998 99.4064 121.325 101.657 119.215 104.611C117.246 107.565 116.261 110.941 116.261 114.739C116.261 120.366 118.23 125.5 122.169 130.142C126.248 134.784 131.523 138.863 137.994 142.38C144.605 145.756 151.85 148.429 159.727 150.398C167.745 152.227 175.693 153.141 183.57 153.141L187.368 156.306V172.342L183.57 174.452C176.255 174.452 168.73 173.467 160.993 171.498C153.256 169.388 145.801 166.434 138.627 162.636C131.453 158.838 124.982 154.407 119.215 149.343C113.588 144.279 109.087 138.723 105.711 132.674C102.335 126.625 100.647 120.295 100.647 113.684C100.647 106.229 102.335 99.6174 105.711 93.85C109.087 88.0827 113.588 83.5814 119.215 80.346C124.842 76.97 131.031 75.282 137.783 75.282C144.254 75.282 150.302 76.97 155.929 80.346C161.556 83.722 166.057 88.2937 169.433 94.061C172.95 99.8284 174.708 106.369 174.708 113.684C174.708 122.827 171.965 131.197 166.479 138.793C161.134 146.389 153.819 152.93 144.535 158.416C135.251 163.902 124.771 168.192 113.096 171.287C101.561 174.241 89.6047 175.718 77.226 175.718ZM136.939 50.806C134.97 50.806 133.282 50.2433 131.875 49.118C130.609 47.9927 129.624 46.586 128.921 44.898C128.358 43.21 128.077 41.4517 128.077 39.623C128.077 36.1063 128.991 33.2227 130.82 30.972C132.649 28.5807 134.829 27.385 137.361 27.385C139.893 27.385 141.933 28.018 143.48 29.284C145.168 30.4093 146.364 31.8863 147.067 33.715C147.911 35.403 148.333 37.2317 148.333 39.201C148.333 42.999 147.208 45.8827 144.957 47.852C142.847 49.8213 140.174 50.806 136.939 50.806Z" fill="white"/>
<path d="M319.884 174.452C314.68 174.452 309.897 173.186 305.536 170.654C301.316 168.122 297.589 164.676 294.353 160.315C291.259 155.954 288.797 151.031 286.968 145.545C285.28 139.918 284.296 134.01 284.014 127.821L296.463 124.023C296.604 128.946 297.659 133.659 299.628 138.16C301.598 142.661 304.341 146.319 307.857 149.132C311.374 151.805 315.383 153.141 319.884 153.141L323.682 156.517V171.92L319.884 174.452ZM183.578 174.452L179.78 171.92V156.517L183.578 153.141C193.988 153.141 203.694 152.156 212.696 150.187C221.84 148.077 230.42 145.475 238.438 142.38C246.597 139.145 254.334 135.839 261.648 132.463C269.104 128.946 276.348 125.852 283.381 123.179C278.599 122.194 273.605 120.717 268.4 118.748C263.196 116.779 257.991 114.739 252.786 112.629C247.582 110.378 242.588 108.479 237.805 106.932C233.163 105.385 228.943 104.611 225.145 104.611C222.332 104.611 219.448 105.455 216.494 107.143C213.681 108.69 211.008 111.082 208.476 114.317C207.492 115.724 206.155 116.427 204.467 116.427C203.201 116.427 201.865 116.005 200.458 115.161C199.052 114.317 197.786 113.192 196.66 111.785C195.676 110.378 195.043 108.901 194.761 107.354C194.621 105.666 195.113 104.048 196.238 102.501C200.177 97.1557 204.678 92.9357 209.742 89.841C214.806 86.6057 220.011 84.988 225.356 84.988C229.717 84.988 234.429 85.832 239.493 87.52C244.698 89.208 250.043 91.2477 255.529 93.639C261.156 96.0304 266.783 98.4217 272.409 100.813C278.177 103.204 283.733 105.103 289.078 106.51C294.424 107.917 299.488 108.479 304.27 108.198C305.536 108.198 306.591 108.761 307.435 109.886C308.42 111.011 309.123 112.559 309.545 114.528C310.108 116.357 310.319 118.326 310.178 120.436C310.178 122.405 309.827 124.304 309.123 126.133C308.42 127.821 307.365 129.087 305.958 129.931C296.393 134.151 287.672 138.371 279.794 142.591C271.917 146.811 264.321 150.82 257.006 154.618C249.832 158.416 242.588 161.792 235.273 164.746C227.959 167.7 220.081 170.091 211.641 171.92C203.342 173.608 193.988 174.452 183.578 174.452Z" fill="white"/>
<path d="M506.51 174.452C502.712 174.452 498.985 173.749 495.327 172.342C491.67 170.935 488.294 168.755 485.199 165.801C482.105 162.847 479.432 159.049 477.181 154.407C474.931 149.624 473.313 143.857 472.328 137.105L483.933 125.711C483.933 130.634 484.918 135.206 486.887 139.426C488.857 143.505 491.529 146.811 494.905 149.343C498.422 151.875 502.29 153.141 506.51 153.141L510.308 156.517V171.92L506.51 174.452ZM390.882 189.433C390.742 191.402 389.827 192.879 388.139 193.864C386.451 194.849 384.623 195.341 382.653 195.341C381.106 195.341 379.629 194.989 378.222 194.286C376.816 193.583 375.69 192.528 374.846 191.121C374.143 189.855 374.002 188.167 374.424 186.057C376.253 173.96 378.855 162.566 382.231 151.875C385.748 141.044 389.898 131.267 394.68 122.546C399.604 113.825 405.019 106.299 410.927 99.969C416.976 93.4984 423.376 88.575 430.128 85.199C436.88 81.6824 443.843 79.924 451.017 79.924C458.051 79.924 464.17 81.7527 469.374 85.41C474.579 88.9267 478.588 93.7094 481.401 99.758C484.355 105.807 485.832 112.559 485.832 120.014C485.832 129.017 484.074 136.683 480.557 143.013C477.181 149.343 472.328 154.548 465.998 158.627C459.668 162.706 452.213 165.942 443.632 168.333C435.192 170.584 425.908 172.201 415.78 173.186C405.652 174.03 395.032 174.452 383.919 174.452C375.761 174.452 368.798 172.553 363.03 168.755C357.263 164.816 353.395 159.33 351.425 152.297C348.753 158.768 344.533 164.113 338.765 168.333C333.139 172.412 326.879 174.452 319.986 174.452L316.188 171.287V156.306L319.986 153.141C324.347 153.141 328.356 152.227 332.013 150.398C335.811 148.429 338.906 145.475 341.297 141.536C343.689 137.457 344.884 132.182 344.884 125.711C344.884 123.179 345.025 120.999 345.306 119.17C345.728 117.341 346.502 115.935 347.627 114.95C348.753 113.965 350.581 113.473 353.113 113.473C356.208 113.473 358.388 114.317 359.654 116.005C361.061 117.552 361.624 119.381 361.342 121.491C360.78 125.57 360.428 129.509 360.287 133.307C360.287 137.105 360.92 140.481 362.186 143.435C363.593 146.389 365.984 148.78 369.36 150.609C372.736 152.297 377.589 153.141 383.919 153.141C393.203 153.141 402.136 152.86 410.716 152.297C419.297 151.734 427.174 150.75 434.348 149.343C441.522 147.936 447.782 145.967 453.127 143.435C458.473 140.903 462.622 137.738 465.576 133.94C468.53 130.001 470.007 125.289 470.007 119.803C470.007 116.146 469.304 112.77 467.897 109.675C466.491 106.58 464.381 104.119 461.567 102.29C458.754 100.321 455.097 99.336 450.595 99.336C444.687 99.336 438.639 101.376 432.449 105.455C426.26 109.534 420.352 115.442 414.725 123.179C409.099 130.916 404.175 140.34 399.955 151.453C395.735 162.566 392.711 175.226 390.882 189.433Z" fill="white"/>
<path d="M574.408 202.937C565.968 202.937 558.794 200.546 552.886 195.763C546.978 190.98 542.266 184.228 538.749 175.507C535.232 166.926 532.63 156.798 530.942 145.123C529.395 133.448 528.621 120.717 528.621 106.932C528.621 97.7887 528.902 88.4344 529.465 78.869C530.028 69.163 530.801 59.3867 531.786 49.54C532.771 39.6933 533.966 29.917 535.373 20.211C535.795 17.3977 536.78 15.2877 538.327 13.881C539.874 12.3337 541.984 11.56 544.657 11.56C552.112 11.56 555.277 14.7954 554.152 21.266C552.886 29.9873 551.69 39.3417 550.565 49.329C549.58 59.3163 548.736 69.6554 548.033 80.346C547.33 91.0367 546.978 102.009 546.978 113.262C546.978 122.968 547.47 132.041 548.455 140.481C549.44 148.921 550.987 156.376 553.097 162.847C555.348 169.177 558.302 174.1 561.959 177.617C565.616 181.274 570.188 183.103 575.674 183.103C581.863 183.103 586.857 181.204 590.655 177.406C594.594 173.749 596.563 168.755 596.563 162.425C596.563 155.814 594.875 150.398 591.499 146.178C588.123 141.817 583.34 139.637 577.151 139.637C572.368 139.637 567.726 140.833 563.225 143.224C558.864 145.475 554.504 148.358 550.143 151.875C545.782 155.251 541.281 158.697 536.639 162.214C532.138 165.731 527.355 168.685 522.291 171.076C517.368 173.327 512.022 174.452 506.255 174.452L502.668 172.342V156.095L506.466 153.141C511.952 153 517.086 151.805 521.869 149.554C526.652 147.163 531.294 144.279 535.795 140.903C540.437 137.527 545.009 134.221 549.51 130.986C554.011 127.751 558.724 125.008 563.647 122.757C568.711 120.506 574.056 119.381 579.683 119.381C586.013 119.381 591.64 121.139 596.563 124.656C601.627 128.173 605.636 133.166 608.59 139.637C611.544 145.967 613.021 153.422 613.021 162.003C613.021 170.162 611.403 177.336 608.168 183.525C604.933 189.714 600.361 194.497 594.453 197.873C588.686 201.249 582.004 202.937 574.408 202.937Z" fill="white"/>
<path d="M646.951 175.929C645.966 175.929 644.7 175.718 643.153 175.296C641.605 174.874 640.269 174.03 639.144 172.764C638.018 171.498 637.456 169.529 637.456 166.856C637.456 160.104 637.526 152.789 637.667 144.912C637.807 136.894 637.948 128.595 638.089 120.014C638.37 111.293 638.651 102.431 638.933 93.428C639.214 84.4254 639.495 75.5633 639.777 66.842C640.058 57.98 640.339 49.4697 640.621 41.311C640.902 33.0117 641.183 25.275 641.465 18.101C641.605 15.2877 642.52 13.248 644.208 11.982C646.036 10.716 648.146 10.083 650.538 10.083C653.632 10.083 655.883 10.927 657.29 12.615C658.696 14.303 659.329 16.413 659.189 18.945C659.048 25.1343 658.837 31.9567 658.556 39.412C658.274 46.7267 657.993 54.393 657.712 62.411C657.571 70.2884 657.36 78.3063 657.079 86.465C656.657 100.813 656.305 114.598 656.024 127.821C655.883 140.903 655.672 153.633 655.391 166.012C655.391 167.559 655.109 169.107 654.547 170.654C653.984 172.201 653.07 173.467 651.804 174.452C650.678 175.437 649.061 175.929 646.951 175.929Z" fill="white"/>
<path d="M61.1319 59.1182C59.8659 58.2742 59.0922 57.2192 58.8109 55.9532C58.6702 54.5465 58.8812 53.2805 59.4439 52.1552C60.0065 51.0298 60.7802 50.2562 61.7649 49.8342C62.8902 49.2715 64.1562 49.4122 65.5629 50.2562C68.2355 51.9442 70.9785 53.2102 73.7919 54.0542C76.7459 54.7575 79.5592 55.1092 82.2319 55.1092C85.0452 55.1092 87.6476 54.6872 90.0389 53.8432C92.4302 52.9992 94.3292 51.8739 95.7359 50.4672C93.2039 50.7485 90.8125 49.9749 88.5619 48.1462C86.3112 46.3175 85.1859 43.6449 85.1859 40.1282C85.1859 37.0335 86.1002 34.5015 87.9289 32.5322C89.8982 30.4222 92.3599 29.3672 95.3139 29.3672C98.8306 29.3672 101.644 30.6332 103.754 33.1652C105.864 35.6972 106.919 39.0732 106.919 43.2932C106.919 47.6539 105.723 51.5222 103.332 54.8982C101.081 58.1335 97.9865 60.6655 94.0479 62.4942C90.2499 64.3229 86.0299 65.2372 81.3879 65.2372C78.1525 65.2372 74.7765 64.7449 71.2599 63.7602C67.7432 62.7755 64.3672 61.2282 61.1319 59.1182Z" fill="#DDA15E"/>
<path d="M225.282 43.8981C233.019 43.6168 240.826 42.3508 248.703 40.1001C256.58 37.7088 263.121 35.1065 268.326 32.2931C269.733 31.5898 271.069 31.5195 272.335 32.0821C273.601 32.6448 274.586 33.6295 275.289 35.0361C275.992 36.3022 276.203 37.6385 275.922 39.0451C275.641 40.4518 274.726 41.5771 273.179 42.4211C269.522 44.6718 265.091 46.7818 259.886 48.7511C254.681 50.5798 249.195 52.1271 243.428 53.3931C237.801 54.5185 232.315 55.1515 226.97 55.2921C225.282 55.2921 223.946 54.7998 222.961 53.8151C221.976 52.6898 221.414 51.4238 221.273 50.0171C221.132 48.4698 221.343 47.1335 221.906 46.0081C222.609 44.7421 223.735 44.0388 225.282 43.8981Z" fill="#DDA15E"/>
<path d="M432.097 17C438.145 17 442.858 18.9693 446.234 22.908C449.75 26.8467 451.509 31.559 451.509 37.045C451.509 42.2497 449.821 46.6103 446.445 50.127C443.209 53.503 438.849 55.191 433.363 55.191C428.017 55.191 423.657 53.503 420.281 50.127C417.045 46.751 415.428 42.6717 415.428 37.889C415.428 33.1063 416.834 29.0973 419.648 25.862C422.602 22.486 426.47 20.798 431.253 20.798C432.378 20.798 433.292 21.22 433.996 22.064C434.84 22.908 435.332 23.963 435.473 25.229C435.613 26.3543 435.332 27.339 434.629 28.183C434.066 29.027 432.941 29.449 431.253 29.449C428.861 29.449 426.962 30.3633 425.556 32.192C424.29 33.88 423.657 35.6383 423.657 37.467C423.657 40.1397 424.571 42.32 426.4 44.008C428.228 45.5553 430.479 46.329 433.152 46.329C435.965 46.329 438.356 45.5553 440.326 44.008C442.295 42.32 443.28 39.999 443.28 37.045C443.28 34.2317 442.225 31.6997 440.115 29.449C438.145 27.0577 435.402 25.862 431.886 25.862C430.76 25.862 429.846 25.44 429.143 24.596C428.58 23.6113 428.299 22.5563 428.299 21.431C428.299 20.3057 428.58 19.321 429.143 18.477C429.846 17.4923 430.831 17 432.097 17Z" fill="#DDA15E"/>
<path d="M564.537 86.1182C563.271 85.2742 562.497 84.2192 562.216 82.9532C562.075 81.5465 562.286 80.2805 562.849 79.1552C563.412 78.0298 564.185 77.2562 565.17 76.8342C566.295 76.2715 567.561 76.4122 568.968 77.2562C571.641 78.9442 574.384 80.2102 577.197 81.0542C580.151 81.7575 582.964 82.1092 585.637 82.1092C588.45 82.1092 591.053 81.6872 593.444 80.8432C595.835 79.9992 597.734 78.8739 599.141 77.4672C596.609 77.7485 594.218 76.9748 591.967 75.1462C589.716 73.3175 588.591 70.6449 588.591 67.1282C588.591 64.0335 589.505 61.5015 591.334 59.5322C593.303 57.4222 595.765 56.3672 598.719 56.3672C602.236 56.3672 605.049 57.6332 607.159 60.1652C609.269 62.6972 610.324 66.0732 610.324 70.2932C610.324 74.6539 609.128 78.5222 606.737 81.8982C604.486 85.1335 601.392 87.6655 597.453 89.4942C593.655 91.3229 589.435 92.2372 584.793 92.2372C581.558 92.2372 578.182 91.7449 574.665 90.7602C571.148 89.7755 567.772 88.2282 564.537 86.1182Z" fill="#DDA15E"/>
<path d="M543.427 0C549.475 0 554.188 1.96933 557.564 5.908C561.081 9.84667 562.839 14.559 562.839 20.045C562.839 25.2497 561.151 29.6103 557.775 33.127C554.54 36.503 550.179 38.191 544.693 38.191C539.347 38.191 534.987 36.503 531.611 33.127C528.376 29.751 526.758 25.6717 526.758 20.889C526.758 16.1063 528.165 12.0973 530.978 8.862C533.932 5.486 537.8 3.798 542.583 3.798C543.708 3.798 544.622 4.22 545.326 5.06401C546.17 5.90801 546.662 6.96301 546.803 8.22901C546.943 9.35433 546.662 10.339 545.959 11.183C545.396 12.027 544.271 12.449 542.583 12.449C540.191 12.449 538.292 13.3633 536.886 15.192C535.62 16.88 534.987 18.6383 534.987 20.467C534.987 23.1397 535.901 25.32 537.73 27.008C539.558 28.5553 541.809 29.329 544.482 29.329C547.295 29.329 549.686 28.5553 551.656 27.008C553.625 25.32 554.61 22.999 554.61 20.045C554.61 17.2317 553.555 14.6997 551.445 12.449C549.475 10.0577 546.732 8.862 543.216 8.862C542.09 8.862 541.176 8.44 540.473 7.596C539.91 6.61134 539.629 5.55634 539.629 4.43101C539.629 3.30567 539.91 2.321 540.473 1.47701C541.176 0.492335 542.161 0 543.427 0Z" fill="#DDA15E"/>
<path d="M52.284 345.013C53.128 343.466 54.0423 342.411 55.027 341.848C56.0117 341.145 57.137 340.793 58.403 340.793C60.2317 340.793 61.9197 341.426 63.467 342.692C65.0143 343.817 66.1397 345.224 66.843 346.912C67.687 348.6 67.6167 350.288 66.632 351.976C62.1307 360.697 59.88 369.278 59.88 377.718C59.88 385.033 61.99 391.644 66.21 397.552C70.43 403.601 76.0567 408.313 83.09 411.689C90.1233 415.206 97.9303 416.964 106.511 416.964C116.358 416.964 125.079 415.557 132.675 412.744C140.271 409.931 146.249 406.133 150.61 401.35C155.111 396.567 157.362 391.292 157.362 385.525C157.362 381.305 155.463 376.944 151.665 372.443C148.008 367.942 141.959 363.511 133.519 359.15C131.69 357.884 130.635 356.337 130.354 354.508C130.213 352.539 130.565 350.64 131.409 348.811C132.253 346.842 133.449 345.224 134.996 343.958C136.543 342.692 138.231 342.059 140.06 342.059C141.045 342.059 142.24 342.411 143.647 343.114C148.711 345.646 153.142 347.826 156.94 349.655C160.738 351.484 164.395 352.89 167.912 353.875C171.429 354.719 175.227 355.141 179.306 355.141L183.104 357.884V374.342L179.306 376.452C177.055 376.452 174.945 376.311 172.976 376.03C171.147 375.749 169.319 375.327 167.49 374.764C171.71 379.406 173.82 384.962 173.82 391.433C173.82 398.185 171.991 404.445 168.334 410.212C164.817 416.12 159.894 421.254 153.564 425.615C147.375 429.976 140.06 433.352 131.62 435.743C123.18 438.275 114.107 439.541 104.401 439.541C92.585 439.541 82.035 436.868 72.751 431.523C63.467 426.178 56.1523 418.933 50.807 409.79C45.6023 400.787 43 390.8 43 379.828C43 374.483 43.7033 368.856 45.11 362.948C46.5167 357.04 48.908 351.062 52.284 345.013ZM92.585 483.64C88.2243 484.625 84.989 484.203 82.879 482.374C80.769 480.686 79.714 478.154 79.714 474.778C79.714 471.824 81.0503 469.714 83.723 468.448C86.5363 467.182 90.053 466.197 94.273 465.494C98.915 464.509 103.487 463.947 107.988 463.806C112.63 463.806 116.709 463.947 120.226 464.228C122.477 464.369 124.305 465.002 125.712 466.127C127.119 467.393 128.033 468.87 128.455 470.558C128.877 472.246 128.877 473.934 128.455 475.622C128.033 477.31 127.119 478.717 125.712 479.842C124.305 480.967 122.477 481.53 120.226 481.53C116.147 481.53 111.645 481.6 106.722 481.741C101.799 481.882 97.0863 482.515 92.585 483.64Z" fill="white"/>
<path d="M179.372 376.452V355.141C185.983 355.141 191.258 353.453 195.197 350.077C199.276 346.56 202.301 342.059 204.27 336.573C206.239 331.087 207.505 325.249 208.068 319.06C208.631 312.871 208.771 306.963 208.49 301.336C208.349 298.523 208.982 296.342 210.389 294.795C211.936 293.107 214.046 292.263 216.719 292.263C219.814 292.263 222.064 293.248 223.471 295.217C225.018 297.186 225.862 300.14 226.003 304.079C226.284 314.77 225.511 324.546 223.682 333.408C221.853 342.27 218.97 349.936 215.031 356.407C211.092 362.737 206.169 367.66 200.261 371.177C194.353 374.694 187.39 376.452 179.372 376.452ZM179.372 376.452L175.574 374.131V357.673L179.372 355.141V376.452ZM205.747 266.943C201.386 267.928 198.151 267.576 196.041 265.888C193.931 264.059 192.876 261.457 192.876 258.081C192.876 255.127 194.212 253.017 196.885 251.751C199.698 250.485 203.215 249.5 207.435 248.797C212.077 247.812 216.649 247.32 221.15 247.32C225.792 247.179 229.871 247.25 233.388 247.531C235.639 247.672 237.467 248.375 238.874 249.641C240.281 250.766 241.195 252.173 241.617 253.861C242.039 255.549 242.039 257.237 241.617 258.925C241.195 260.613 240.281 262.02 238.874 263.145C237.467 264.27 235.639 264.833 233.388 264.833C229.309 264.833 224.807 264.903 219.884 265.044C214.961 265.185 210.248 265.818 205.747 266.943Z" fill="white"/>
<path d="M241.307 435.743C236.806 435.884 233.711 435.18 232.023 433.633C230.194 432.086 229.21 429.624 229.069 426.248C229.069 422.591 229.702 420.059 230.968 418.652C232.093 417.245 234.203 416.401 237.298 416.12C252.349 414.01 265.572 409.368 276.966 402.194C288.501 395.161 296.73 385.947 301.653 374.553C291.525 373.709 282.663 371.529 275.067 368.012C267.471 364.355 261.493 359.431 257.132 353.242C252.912 346.912 250.802 339.527 250.802 331.087C250.802 324.335 252.138 318.286 254.811 312.941C257.484 307.596 261.141 303.376 265.783 300.281C270.425 297.046 275.559 295.428 281.186 295.428C286.672 295.428 291.877 296.905 296.8 299.859C301.864 302.672 306.225 306.752 309.882 312.097C313.68 317.442 316.564 323.772 318.533 331.087C320.643 338.261 321.487 346.279 321.065 355.141H335.413V376.452H317.478C314.946 384.611 311.148 392.136 306.084 399.029C301.161 406.062 295.253 412.181 288.36 417.386C281.608 422.591 274.223 426.74 266.205 429.835C258.187 433.07 249.888 435.04 241.307 435.743ZM265.572 330.454C265.572 335.096 266.627 339.035 268.737 342.27C270.988 345.365 274.012 347.897 277.81 349.866C281.749 351.835 286.18 353.312 291.103 354.297C296.167 355.282 301.512 355.844 307.139 355.985C307.561 347.686 306.576 340.441 304.185 334.252C301.934 327.922 298.769 322.999 294.69 319.482C290.751 315.965 286.391 314.207 281.608 314.207C276.544 314.207 272.605 315.825 269.792 319.06C266.979 322.295 265.572 326.093 265.572 330.454ZM335.413 376.452V355.141L339.633 358.728V373.076L335.413 376.452Z" fill="white"/>
<path d="M521.879 376.452C518.081 376.452 514.354 375.749 510.696 374.342C507.039 372.935 503.663 370.755 500.568 367.801C497.474 364.847 494.801 361.049 492.55 356.407C490.3 351.624 488.682 345.857 487.697 339.105L499.302 327.711C499.302 332.634 500.287 337.206 502.256 341.426C504.226 345.505 506.898 348.811 510.274 351.343C513.791 353.875 517.659 355.141 521.879 355.141L525.677 358.517V373.92L521.879 376.452ZM406.251 391.433C406.111 393.402 405.196 394.879 403.508 395.864C401.82 396.849 399.992 397.341 398.022 397.341C396.475 397.341 394.998 396.989 393.591 396.286C392.185 395.583 391.059 394.528 390.215 393.121C389.512 391.855 389.371 390.167 389.793 388.057C391.622 375.96 394.224 364.566 397.6 353.875C401.117 343.044 405.267 333.267 410.049 324.546C414.973 315.825 420.388 308.299 426.296 301.969C432.345 295.498 438.745 290.575 445.497 287.199C452.249 283.682 459.212 281.924 466.386 281.924C473.42 281.924 479.539 283.753 484.743 287.41C489.948 290.927 493.957 295.709 496.77 301.758C499.724 307.807 501.201 314.559 501.201 322.014C501.201 331.017 499.443 338.683 495.926 345.013C492.55 351.343 487.697 356.548 481.367 360.627C475.037 364.706 467.582 367.942 459.001 370.333C450.561 372.584 441.277 374.201 431.149 375.186C421.021 376.03 410.401 376.452 399.288 376.452C391.13 376.452 384.167 374.553 378.399 370.755C372.632 366.816 368.764 361.33 366.794 354.297C364.122 360.768 359.902 366.113 354.134 370.333C348.508 374.412 342.248 376.452 335.355 376.452L331.557 373.287V358.306L335.355 355.141C339.716 355.141 343.725 354.227 347.382 352.398C351.18 350.429 354.275 347.475 356.666 343.536C359.058 339.457 360.253 334.182 360.253 327.711C360.253 325.179 360.394 322.999 360.675 321.17C361.097 319.341 361.871 317.935 362.996 316.95C364.122 315.965 365.95 315.473 368.482 315.473C371.577 315.473 373.757 316.317 375.023 318.005C376.43 319.552 376.993 321.381 376.711 323.491C376.149 327.57 375.797 331.509 375.656 335.307C375.656 339.105 376.289 342.481 377.555 345.435C378.962 348.389 381.353 350.78 384.729 352.609C388.105 354.297 392.958 355.141 399.288 355.141C408.572 355.141 417.505 354.86 426.085 354.297C434.666 353.734 442.543 352.75 449.717 351.343C456.891 349.936 463.151 347.967 468.496 345.435C473.842 342.903 477.991 339.738 480.945 335.94C483.899 332.001 485.376 327.289 485.376 321.803C485.376 318.146 484.673 314.77 483.266 311.675C481.86 308.58 479.75 306.119 476.936 304.29C474.123 302.321 470.466 301.336 465.964 301.336C460.056 301.336 454.008 303.376 447.818 307.455C441.629 311.534 435.721 317.442 430.094 325.179C424.468 332.916 419.544 342.34 415.324 353.453C411.104 364.566 408.08 377.226 406.251 391.433Z" fill="white"/>
<path d="M521.835 376.452L518.037 374.131V358.306L521.835 355.141C529.29 355.141 534.987 352.961 538.926 348.6C542.865 344.239 545.115 337.769 545.678 329.188C546.24 322.436 546.592 315.825 546.733 309.354C547.014 302.743 547.225 295.569 547.366 287.832C547.506 280.095 547.577 271.304 547.577 261.457C547.718 251.751 547.788 243.241 547.788 235.926C547.788 228.611 547.858 223.547 547.999 220.734C548.28 215.107 551.094 212.294 556.439 212.294C559.393 212.294 561.573 212.927 562.98 214.193C564.527 215.459 565.301 217.428 565.301 220.101C565.301 226.15 565.231 232.198 565.09 238.247C565.09 244.296 565.02 249.922 564.879 255.127C564.879 260.332 564.879 264.833 564.879 268.631C564.879 273.132 564.809 278.407 564.668 284.456C564.668 290.364 564.527 296.694 564.246 303.446C564.105 310.057 563.754 316.739 563.191 323.491C562.769 330.243 562.206 336.573 561.503 342.481C560.377 349.092 558.197 355 554.962 360.205C551.726 365.269 547.366 369.278 541.88 372.232C536.534 375.045 529.853 376.452 521.835 376.452Z" fill="white"/>
<path d="M603.348 377.929C602.223 377.929 601.098 377.718 599.972 377.296C598.847 376.874 597.862 376.03 597.018 374.764C596.315 373.498 595.823 371.529 595.541 368.856C595.26 362.104 595.049 354.86 594.908 347.123C594.768 339.386 594.768 331.298 594.908 322.858C595.049 314.418 595.26 305.837 595.541 297.116C595.823 288.395 596.174 279.814 596.596 271.374C597.018 262.793 597.44 254.564 597.862 246.687C598.425 238.669 598.988 231.214 599.55 224.321C599.832 221.508 600.746 219.468 602.293 218.202C603.981 216.936 606.091 216.303 608.623 216.303C611.718 216.303 614.039 217.147 615.586 218.835C617.134 220.523 617.767 222.563 617.485 224.954C616.923 229.174 616.36 235.012 615.797 242.467C615.375 249.922 614.953 258.292 614.531 267.576C614.109 276.719 613.758 286.285 613.476 296.272C613.195 306.119 612.984 315.754 612.843 325.179C612.843 334.463 612.843 342.833 612.843 350.288C612.984 357.743 613.195 363.651 613.476 368.012C613.758 371.388 613.054 373.92 611.366 375.608C609.819 377.155 607.146 377.929 603.348 377.929Z" fill="white"/>
<path d="M179.291 407.359C187.028 407.078 194.835 405.741 202.712 403.35C210.59 401.099 217.131 398.567 222.335 395.754C223.742 395.051 225.078 394.98 226.344 395.543C227.61 396.106 228.595 397.02 229.298 398.286C230.002 399.693 230.213 401.099 229.931 402.506C229.65 403.913 228.736 405.038 227.188 405.882C223.531 408.133 219.1 410.172 213.895 412.001C208.691 413.97 203.205 415.518 197.437 416.643C191.811 417.909 186.325 418.612 180.979 418.753C179.291 418.753 177.955 418.19 176.97 417.065C175.986 416.08 175.423 414.814 175.282 413.267C175.142 411.86 175.353 410.524 175.915 409.258C176.619 408.133 177.744 407.5 179.291 407.359Z" fill="#DDA15E"/>
<path d="M89.5024 311.659C85.9857 311.659 83.0317 310.393 80.6404 307.861C78.249 305.329 76.7017 301.812 75.9984 297.311C75.4357 292.669 75.928 287.253 77.4754 281.064C77.7567 279.939 78.3194 279.165 79.1634 278.743C80.0074 278.321 80.9217 278.11 81.9064 278.11C83.1724 278.11 84.2977 278.462 85.2824 279.165C86.267 279.868 86.5484 280.923 86.1264 282.33C84.7197 286.972 84.2977 291.333 84.8604 295.412C85.5637 299.491 87.6737 301.531 91.1904 301.531C93.7224 301.531 95.4807 300.757 96.4654 299.21C97.5907 297.522 98.2237 295.412 98.3644 292.88C98.505 290.348 98.4347 287.886 98.1534 285.495C98.1534 284.37 98.5754 283.596 99.4194 283.174C100.404 282.611 101.389 282.33 102.373 282.33C103.499 282.33 104.483 282.611 105.327 283.174C106.171 283.596 106.593 284.37 106.593 285.495C106.593 287.886 106.734 290.348 107.015 292.88C107.437 295.271 108.141 297.311 109.125 298.999C110.251 300.546 111.868 301.32 113.978 301.32C116.651 301.32 118.55 300.265 119.675 298.155C120.801 295.904 121.363 293.232 121.363 290.137C121.363 287.042 120.871 284.018 119.886 281.064C119.746 279.939 120.168 279.095 121.152 278.532C122.137 277.829 123.262 277.477 124.528 277.477C125.513 277.477 126.427 277.688 127.271 278.11C128.115 278.532 128.678 279.235 128.959 280.22C130.366 285.284 130.788 290.207 130.225 294.99C129.663 299.773 128.115 303.711 125.583 306.806C123.051 309.901 119.535 311.448 115.033 311.448C112.361 311.448 109.829 310.604 107.437 308.916C105.187 307.228 103.639 304.977 102.795 302.164C101.951 305.118 100.263 307.439 97.7314 309.127C95.1994 310.815 92.4564 311.659 89.5024 311.659ZM79.7964 258.065C78.5304 257.221 77.7567 256.166 77.4754 254.9C77.3347 253.493 77.5457 252.227 78.1084 251.102C78.671 249.977 79.4447 249.203 80.4294 248.781C81.5547 248.218 82.8207 248.359 84.2274 249.203C86.9 250.891 89.643 252.157 92.4564 253.001C95.4104 253.704 98.2237 254.056 100.896 254.056C103.71 254.056 106.312 253.634 108.703 252.79C111.095 251.946 112.994 250.821 114.4 249.414C111.868 249.695 109.477 248.922 107.226 247.093C104.976 245.264 103.85 242.592 103.85 239.075C103.85 235.98 104.765 233.448 106.593 231.479C108.563 229.369 111.024 228.314 113.978 228.314C117.495 228.314 120.308 229.58 122.418 232.112C124.528 234.644 125.583 238.02 125.583 242.24C125.583 246.601 124.388 250.469 121.996 253.845C119.746 257.08 116.651 259.612 112.712 261.441C108.914 263.27 104.694 264.184 100.052 264.184C96.8171 264.184 93.441 263.692 89.9244 262.707C86.4077 261.722 83.0317 260.175 79.7964 258.065Z" fill="#DDA15E"/>
<path d="M279.531 234C285.58 234 290.292 235.969 293.668 239.908C297.185 243.847 298.943 248.559 298.943 254.045C298.943 259.25 297.255 263.61 293.879 267.127C290.644 270.503 286.283 272.191 280.797 272.191C275.452 272.191 271.091 270.503 267.715 267.127C264.48 263.751 262.862 259.672 262.862 254.889C262.862 250.106 264.269 246.097 267.082 242.862C270.036 239.486 273.904 237.798 278.687 237.798C279.812 237.798 280.727 238.22 281.43 239.064C282.274 239.908 282.766 240.963 282.907 242.229C283.048 243.354 282.766 244.339 282.063 245.183C281.5 246.027 280.375 246.449 278.687 246.449C276.296 246.449 274.397 247.363 272.99 249.192C271.724 250.88 271.091 252.638 271.091 254.467C271.091 257.14 272.005 259.32 273.834 261.008C275.663 262.555 277.913 263.329 280.586 263.329C283.399 263.329 285.791 262.555 287.76 261.008C289.729 259.32 290.714 256.999 290.714 254.045C290.714 251.232 289.659 248.7 287.549 246.449C285.58 244.058 282.837 242.862 279.32 242.862C278.195 242.862 277.28 242.44 276.577 241.596C276.014 240.611 275.733 239.556 275.733 238.431C275.733 237.306 276.014 236.321 276.577 235.477C277.28 234.492 278.265 234 279.531 234Z" fill="#DDA15E"/>
<path d="M376.705 304.659C373.188 304.659 370.234 303.393 367.843 300.861C365.451 298.329 363.904 294.813 363.201 290.311C362.638 285.669 363.13 280.254 364.678 274.064C364.959 272.939 365.522 272.165 366.366 271.743C367.21 271.321 368.124 271.11 369.109 271.11C370.375 271.11 371.5 271.462 372.485 272.165C373.469 272.869 373.751 273.924 373.329 275.33C371.922 279.972 371.5 284.333 372.063 288.412C372.766 292.492 374.876 294.531 378.393 294.531C380.925 294.531 382.683 293.758 383.668 292.21C384.793 290.522 385.426 288.412 385.567 285.88C385.707 283.348 385.637 280.887 385.356 278.495C385.356 277.37 385.778 276.596 386.622 276.174C387.606 275.612 388.591 275.33 389.576 275.33C390.701 275.33 391.686 275.612 392.53 276.174C393.374 276.596 393.796 277.37 393.796 278.495C393.796 280.887 393.936 283.348 394.218 285.88C394.64 288.272 395.343 290.311 396.328 291.999C397.453 293.547 399.071 294.32 401.181 294.32C403.853 294.32 405.752 293.265 406.878 291.155C408.003 288.905 408.566 286.232 408.566 283.137C408.566 280.043 408.073 277.018 407.089 274.064C406.948 272.939 407.37 272.095 408.355 271.532C409.339 270.829 410.465 270.477 411.731 270.477C412.715 270.477 413.63 270.688 414.474 271.11C415.318 271.532 415.88 272.236 416.162 273.22C417.568 278.284 417.99 283.208 417.428 287.99C416.865 292.773 415.318 296.712 412.786 299.806C410.254 302.901 406.737 304.448 402.236 304.448C399.563 304.448 397.031 303.604 394.64 301.916C392.389 300.228 390.842 297.978 389.998 295.164C389.154 298.118 387.466 300.439 384.934 302.127C382.402 303.815 379.659 304.659 376.705 304.659ZM366.366 248.955C374.102 248.674 381.909 247.408 389.787 245.157C397.664 242.766 404.205 240.164 409.41 237.35C410.816 236.647 412.153 236.577 413.419 237.139C414.685 237.702 415.669 238.687 416.373 240.093C417.076 241.359 417.287 242.696 417.006 244.102C416.724 245.509 415.81 246.634 414.263 247.478C410.605 249.729 406.174 251.839 400.97 253.808C395.765 255.637 390.279 257.184 384.512 258.45C378.885 259.576 373.399 260.209 368.054 260.349C366.366 260.349 365.029 259.857 364.045 258.872C363.06 257.747 362.497 256.481 362.357 255.074C362.216 253.527 362.427 252.191 362.99 251.065C363.693 249.799 364.818 249.096 366.366 248.955Z" fill="#DDA15E"/>
</svg>
