<svg width="38" height="38" viewBox="0 0 38 38" fill="none" xmlns="http://www.w3.org/2000/svg">
<path d="M17.0937 36.0298C17.6128 36.0795 18.0971 36.1581 18.5833 36.1726C20.4869 36.2294 22.3612 35.974 24.1721 35.4117C25.9129 34.871 27.5698 34.1091 29.0201 32.975C29.8176 32.3514 30.6341 31.7341 31.3372 31.0118C33.0433 29.259 34.3303 27.2276 35.1542 24.9075C35.5988 23.6554 35.9281 22.3833 36.0389 21.0582C36.0939 20.3996 36.1628 19.7409 36.1798 19.081C36.199 18.3333 35.6549 17.8877 34.7946 17.8942C34.1836 17.8989 33.7443 18.4036 33.735 19.0911C33.7074 21.133 33.3047 23.0938 32.4743 24.965C31.8171 26.4454 30.9371 27.7686 29.8486 28.971C28.5785 30.3742 27.0857 31.4656 25.3955 32.2808C24.151 32.881 22.8454 33.3375 21.4618 33.498C20.5767 33.6005 19.6853 33.7156 18.7976 33.7095C17.5691 33.7011 16.3549 33.5028 15.1667 33.1657C13.2903 32.6335 11.5786 31.7672 10.0561 30.5572C8.5438 29.3552 7.31343 27.9018 6.36063 26.2084C5.56185 24.7887 5.00413 23.2798 4.73108 21.6878C4.54983 20.631 4.46172 19.5375 4.5034 18.4672C4.58941 16.2587 5.16856 14.1541 6.21725 12.2023C6.79942 11.1187 7.52008 10.1277 8.35357 9.21032C9.61708 7.81968 11.0963 6.73449 12.7727 5.91553C14.1956 5.22043 15.6925 4.74831 17.2762 4.59115C17.8961 4.52962 18.5186 4.44553 19.1395 4.45007C21.1027 4.46442 22.9955 4.8457 24.8057 5.62447C26.3847 6.30386 27.8149 7.20496 29.0497 8.4082C29.3339 8.68515 29.6236 8.95632 29.9881 9.30385C29.5259 9.35107 29.1822 9.41428 28.838 9.41656C27.2171 9.42731 25.5962 9.42121 23.9752 9.42142C23.2745 9.42152 22.7603 9.91397 22.7479 10.5961C22.7356 11.2676 23.2534 11.7886 23.9463 11.7995C25.5499 11.8249 27.1545 11.8928 28.7568 11.857C29.6612 11.8369 30.5839 11.8341 31.4615 11.5071C32.7695 11.0198 33.6174 10.1059 33.9444 8.76243C34.1015 8.11701 34.1595 7.43566 34.1716 6.76894C34.2023 5.07255 34.1824 3.37524 34.1815 1.67831C34.1811 0.931825 33.6696 0.428032 32.9165 0.428223C32.2206 0.428399 31.7323 0.943537 31.7319 1.68196C31.7311 3.4532 31.7324 5.22447 31.7302 6.99572C31.73 7.12367 31.7096 7.2516 31.693 7.44423C31.2654 7.05919 30.8912 6.7293 30.5247 6.39102C29.0525 5.03194 27.3871 3.97023 25.5171 3.26363C24.5266 2.88938 23.4989 2.59873 22.4689 2.34975C21.7763 2.18231 21.0514 2.1403 20.3382 2.06805C19.8507 2.01864 19.3575 1.98011 18.8686 1.99481C16.679 2.06057 14.5564 2.45068 12.5289 3.31722C10.7005 4.09865 9.05653 5.14507 7.58379 6.4899C5.57483 8.32438 4.12296 10.5157 3.13898 13.0422C2.67423 14.2355 2.37141 15.4703 2.20204 16.7277C2.06643 17.7344 2.0025 18.7655 2.04875 19.7792C2.16983 22.4334 2.83874 24.9556 4.12672 27.2918C4.78043 28.4776 5.57729 29.5616 6.48184 30.5758C7.53998 31.7623 8.7536 32.7489 10.0921 33.5864C11.7271 34.6094 13.4732 35.3727 15.3786 35.734C15.9375 35.84 16.4992 35.9314 17.0937 36.0298Z" fill="#283618"/>
<path d="M23.6685 19.8155C24.3514 20.2521 24.8286 20.8292 24.9685 21.6072C25.0482 22.0505 25.0122 22.5166 25.0093 22.9722C25.0043 23.7646 25.0951 24.5661 24.7908 25.3325C24.1851 26.8576 23.098 27.8135 21.4761 28.124C21.1546 28.1855 20.8201 28.199 20.4916 28.2001C18.4512 28.2066 16.4104 28.183 14.3706 28.2157C13.7553 28.2257 13.1118 27.6579 13.1082 27.036C13.1043 26.3813 13.7201 25.7325 14.4023 25.7428C16.4918 25.774 18.582 25.7401 20.6717 25.7611C21.488 25.7694 22.57 24.9744 22.5673 24.0096C22.566 23.5078 22.6279 23.0059 22.632 22.5038C22.6361 22.0207 22.4943 21.8949 22.0267 21.8949C20.0482 21.8947 18.0694 21.8777 16.0911 21.9008C14.7824 21.9161 13.4999 21.1367 13.1973 19.7706C13.1714 19.6536 13.1402 19.5344 13.1394 19.4159C13.1342 18.6617 13.1117 17.9063 13.1423 17.1532C13.1946 15.8625 13.7698 14.8225 14.7763 14.0301C15.6081 13.3754 16.5607 13.1089 17.6281 13.1274C19.5938 13.1611 21.5603 13.1366 23.5266 13.1371C24.2243 13.1373 24.6408 13.5877 24.6406 14.339C24.6405 15.0594 24.2152 15.5115 23.5345 15.5117C21.6178 15.5124 19.701 15.5032 17.7844 15.5178C17.2743 15.5217 16.7795 15.62 16.3472 15.9477C15.892 16.2926 15.6313 16.7313 15.5887 17.2932C15.5506 17.7942 15.5227 18.2966 15.5156 18.7988C15.5081 19.3157 15.6516 19.4452 16.1693 19.4453C18.1973 19.4458 20.2253 19.4501 22.2533 19.4423C22.7543 19.4403 23.2142 19.5528 23.6685 19.8155Z" fill="#283618"/>
</svg>
