<svg width="32" height="32" viewBox="0 0 32 32" fill="none" xmlns="http://www.w3.org/2000/svg">
<g clip-path="url(#clip0_416_1296)">
<path d="M24 24.0003C24 19.5816 20.4187 16.0003 16 16.0003C11.5813 16.0003 8 19.5816 8 24.0003C8 28.419 11.5813 32.0003 16 32.0003C20.4187 32.0003 24 28.419 24 24.0003ZM19.9987 25.1696C19.9987 25.475 19.88 25.7736 19.656 25.9976L17.656 27.9976C16.7427 28.911 15.256 28.911 14.3427 27.9976L12.3427 25.9976C12.0067 25.663 11.904 25.159 12.0893 24.7216C12.2707 24.2843 12.6973 24.0003 13.172 24.0003H14.6667V20.0003C14.6667 19.2643 15.2627 18.667 16 18.667C16.7373 18.667 17.3333 19.2643 17.3333 20.0003V24.0003H18.828C19.3013 24.0003 19.7293 24.2843 19.9107 24.7216C19.9707 24.867 20 25.019 20 25.1696H19.9987ZM32 16.6616C32 20.5403 29.776 23.903 26.54 25.5603C26.6147 25.0496 26.6667 24.531 26.6667 23.999C26.6667 18.1083 21.8907 13.3323 16 13.3323C10.1093 13.3323 5.33333 18.1083 5.33333 23.999C5.33333 24.8443 5.44267 25.663 5.628 26.4523C2.40533 25.6803 0 22.783 0 19.327C0 17.2656 0.874667 15.2883 2.40133 13.9003C2.76533 13.5696 2.94133 13.1096 2.86267 12.699C2.61733 11.4376 2.60267 10.1403 2.81867 8.84562C3.54667 4.46162 6.96667 0.978951 11.3293 0.178951C16.1187 -0.702383 20.9067 1.73495 22.976 6.09628C23.1627 6.49095 23.5227 6.76695 23.9653 6.85495C28.6213 7.78295 32 11.9069 32 16.6603V16.6616Z" fill="#283618"/>
</g>
<defs>
<clipPath id="clip0_416_1296">
<rect width="32" height="32" fill="white"/>
</clipPath>
</defs>
</svg>
