<svg width="29" height="33" viewBox="0 0 29 33" fill="none" xmlns="http://www.w3.org/2000/svg">
<path d="M19.56 7.67875C19.875 9.46375 20.25 12.4368 20.25 16.5048C20.25 20.5728 19.8765 23.5472 19.5615 25.3292C18.1905 25.6007 16.3035 25.8512 14.019 25.8512C11.7345 25.8512 9.8475 25.6022 8.478 25.3307C8.163 23.5457 7.788 20.5728 7.788 16.5048C7.788 12.4368 8.1615 9.46225 8.4765 7.68025C9.8475 7.40875 11.7345 7.15825 14.019 7.15825C16.3035 7.15825 18.189 7.40725 19.56 7.67875ZM28.038 16.5048C28.038 17.8308 28.0035 19.1313 27.9315 20.4828C27.888 21.3528 27.129 22.0098 26.2635 21.9573C26.1795 22.9713 26.0775 23.8787 25.9665 24.6917L26.814 25.5392C27.171 25.8947 27.333 26.4032 27.249 26.9012C26.796 29.5817 26.31 30.9827 26.289 31.0413C26.136 31.4762 25.7985 31.8212 25.3665 31.9847C25.308 32.0057 23.895 32.5308 21.4575 32.9807C20.958 33.0737 20.436 32.9147 20.073 32.5502L19.224 31.7012C17.76 31.9172 16.026 32.0822 14.019 32.0822C12.012 32.0822 10.278 31.9172 8.814 31.7012L7.9665 32.5487C7.605 32.9132 7.0815 33.0723 6.582 32.9792C4.143 32.5293 2.73 32.0042 2.6715 31.9832C2.2395 31.8197 1.902 31.4747 1.749 31.0397C1.728 30.9812 1.242 29.5787 0.7905 26.8982C0.7065 26.4017 0.8685 25.8947 1.224 25.5377L2.0715 24.6887C1.9605 23.8757 1.8585 22.9683 1.7745 21.9543C0.909 22.0083 0.15 21.3498 0.1065 20.4798C0.0344998 19.1283 0 17.8278 0 16.5018C0 15.1758 0.0344998 13.8753 0.1065 12.5238C0.15 11.6538 0.909 10.9968 1.7745 11.0493C1.8585 10.0368 1.9605 9.12775 2.0715 8.31475L1.224 7.46575C0.8685 7.11025 0.7065 6.60175 0.7905 6.10525C1.242 3.42475 1.7295 2.02225 1.749 1.96375C1.902 1.52875 2.2395 1.18375 2.6715 1.02025C2.73 0.999252 4.143 0.474252 6.582 0.0242524C7.0845 -0.0627476 7.605 0.0917524 7.9665 0.454752L8.814 1.30225C10.278 1.08625 12.012 0.921252 14.019 0.921252C16.026 0.921252 17.76 1.08625 19.224 1.30225L20.0715 0.454752C20.4345 0.0917524 20.9505 -0.0642476 21.456 0.0242524C23.895 0.474252 25.3065 0.999252 25.365 1.02025C25.797 1.18375 26.1345 1.52725 26.2875 1.96225C26.3085 2.02225 26.796 3.42325 27.2475 6.10525C27.3315 6.60175 27.1695 7.10875 26.814 7.46575L25.9665 8.31475C26.0775 9.12775 26.1795 10.0353 26.2635 11.0493C27.129 10.9968 27.888 11.6538 27.9315 12.5238C28.0035 13.8753 28.038 15.1758 28.038 16.5018V16.5048ZM23.3655 16.5048C23.3655 11.5473 22.851 8.08525 22.4175 6.05275C22.293 5.46775 21.843 5.00425 21.261 4.86325C19.7175 4.48975 17.208 4.04275 14.019 4.04275C10.83 4.04275 8.319 4.48975 6.7755 4.86475C6.1935 5.00575 5.7435 5.46925 5.619 6.05425C5.187 8.08375 4.6725 11.5443 4.6725 16.5048C4.6725 21.4653 5.187 24.9242 5.6205 26.9567C5.745 27.5417 6.195 28.0052 6.777 28.1462C8.3175 28.5197 10.8255 28.9667 14.019 28.9667C17.2125 28.9667 19.719 28.5198 21.2625 28.1448C21.8445 28.0037 22.2945 27.5402 22.419 26.9552C22.851 24.9257 23.3655 21.4653 23.3655 16.5048Z" fill="black"/>
</svg>
