<svg width="39" height="39" viewBox="0 0 39 39" fill="none" xmlns="http://www.w3.org/2000/svg">
<path d="M35.5761 7.22C35.0789 5.97363 33.6668 5.36913 32.4204 5.86313C31.1724 6.3555 30.5581 7.76925 31.0456 9.0205C31.0603 9.05788 32.5 12.8344 32.5 19.5001C32.5 26.1659 31.0603 29.9424 31.0489 29.97C30.5484 31.2196 31.1561 32.6383 32.4058 33.1388C32.7031 33.2574 33.0086 33.3143 33.3109 33.3143C34.2778 33.3143 35.1943 32.7341 35.5745 31.7819C35.6476 31.5983 37.3734 27.1945 37.3734 19.5018C37.3734 11.809 35.6476 7.40525 35.5745 7.22163L35.5761 7.22Z" fill="#283618"/>
<path d="M6.93388 5.74601C6.25625 5.55913 5.53638 5.82563 5.14638 6.41226C5.00338 6.62838 1.625 11.7991 1.625 19.5C1.625 27.2009 5.005 32.3749 5.148 32.591C5.45512 33.0493 5.96537 33.3125 6.5 33.3125C6.63975 33.3125 6.78112 33.2946 6.92087 33.2573C18.0911 30.2656 23.9021 20.7383 24.1442 20.3353C24.4481 19.8283 24.4514 19.1945 24.154 18.6826C23.9216 18.2845 18.356 8.90826 6.93225 5.74601H6.93388Z" fill="#283618"/>
</svg>
