<svg width="18" height="30" viewBox="0 0 18 30" fill="none" xmlns="http://www.w3.org/2000/svg">
<path d="M16.334 29.5648C17.678 29.0346 18.3395 27.5121 17.8145 26.1646C17.7987 26.1243 16.2482 22.0573 16.2482 14.8788C16.2482 7.70033 17.7987 3.63333 17.811 3.60358C18.35 2.25783 17.6955 0.73008 16.3497 0.19108C16.0295 0.0633295 15.7005 0.00207881 15.375 0.00207878C14.3337 0.00207869 13.3467 0.626827 12.9372 1.65233C12.8585 1.85008 11 6.59258 11 14.8771C11 23.1616 12.8585 27.9041 12.9372 28.1018C13.4727 29.4441 14.9952 30.0951 16.3357 29.5631L16.334 29.5648Z" fill="#DDA15E"/>
<path d="M5.0643 1.64671C4.5288 0.304455 3.00805 -0.346545 1.6658 0.185455C0.321803 0.715705 -0.339698 2.23821 0.185302 3.58571C0.201052 3.62596 1.75155 7.69296 1.75155 14.8715C1.75155 22.05 0.201054 26.117 0.188804 26.1467C-0.350196 27.4925 0.304302 29.0202 1.65005 29.5592C1.9703 29.687 2.2993 29.7482 2.6248 29.7482C3.66605 29.7482 4.65305 29.1235 5.06255 28.098C5.1413 27.9002 6.9998 23.1577 6.9998 14.8732C6.9998 6.58871 5.1413 1.8462 5.06255 1.64845L5.0643 1.64671Z" fill="#DDA15E"/>
</svg>
