<svg width="14" height="30" viewBox="0 0 14 30" fill="none" xmlns="http://www.w3.org/2000/svg">
<path d="M1.6658 0.185659C0.321803 0.715909 -0.339698 2.23841 0.185302 3.58591C0.201052 3.62616 1.75155 7.69316 1.75155 14.8717C1.75155 22.0502 0.201053 26.1172 0.188803 26.1469C-0.350197 27.4927 0.304304 29.0204 1.65005 29.5594C1.9703 29.6872 2.2993 29.7484 2.6248 29.7484C3.66605 29.7484 4.65305 29.1237 5.06255 28.0982C5.1413 27.9004 6.9998 23.1579 6.9998 14.8734C6.9998 6.58891 5.1413 1.84641 5.06255 1.64866C4.52705 0.306408 3.00455 -0.344592 1.66405 0.187408L1.6658 0.185659Z" fill="#DDA15E"/>
<path d="M12.0643 1.64671C11.5288 0.304455 10.0081 -0.346545 8.6658 0.185455C7.3218 0.715705 6.6603 2.23821 7.1853 3.58571C7.20105 3.62596 8.75155 7.69295 8.75155 14.8715C8.75155 22.05 7.20105 26.117 7.1888 26.1467C6.6498 27.4925 7.3043 29.0202 8.65005 29.5592C8.9703 29.687 9.2993 29.7482 9.6248 29.7482C10.6661 29.7482 11.6531 29.1235 12.0626 28.098C12.1413 27.9002 13.9998 23.1577 13.9998 14.8732C13.9998 6.58871 12.1413 1.8462 12.0626 1.64845L12.0643 1.64671Z" fill="#DDA15E"/>
</svg>
