<svg width="24" height="24" viewBox="0 0 24 24" fill="none" xmlns="http://www.w3.org/2000/svg">
<path d="M20.426 10.097C19.195 8.65196 17.011 6.47496 13.594 4.31796C10.784 2.54396 8.28299 1.60196 6.67899 1.12396C5.77899 0.855961 4.82499 1.02296 4.06699 1.58796C3.30899 2.15396 2.87399 3.01996 2.87399 3.96496V20.035C2.87399 20.98 3.30999 21.846 4.06699 22.412C4.58799 22.8 5.20199 23.001 5.82799 23.001C6.11199 23.001 6.39799 22.959 6.67999 22.876C8.28399 22.398 10.785 21.456 13.595 19.682C17.012 17.524 19.196 15.348 20.427 13.902C21.365 12.8 21.364 11.199 20.426 10.097Z" fill="#DDA15E"/>
</svg>
