<svg width="21" height="21" viewBox="0 0 21 21" fill="none" xmlns="http://www.w3.org/2000/svg">
<g clip-path="url(#clip0_406_26)">
<path d="M18.2 3.7565C18.0331 3.60772 17.8155 3.52848 17.592 3.53505C17.3685 3.54162 17.156 3.6335 16.9982 3.79183C16.8403 3.95016 16.749 4.16292 16.7431 4.38644C16.7371 4.60995 16.817 4.82726 16.9662 4.99375C18.4242 6.45542 19.2429 8.43564 19.2429 10.5001C19.2429 12.5646 18.4242 14.5448 16.9662 16.0065C16.8774 16.0857 16.8056 16.1822 16.7553 16.2901C16.7051 16.398 16.6773 16.515 16.6738 16.634C16.6703 16.7529 16.6912 16.8714 16.735 16.982C16.7789 17.0927 16.8448 17.1932 16.9289 17.2775C17.0129 17.3618 17.1133 17.428 17.2238 17.4722C17.3343 17.5164 17.4527 17.5375 17.5717 17.5344C17.6907 17.5312 17.8078 17.5038 17.9158 17.4538C18.0238 17.4039 18.1205 17.3324 18.2 17.2437C19.986 15.4539 20.9891 13.0286 20.9891 10.5001C20.9891 7.9716 19.986 5.54634 18.2 3.7565Z" fill="#283618"/>
<path d="M15.8314 6.38139C15.7507 6.29781 15.6541 6.23115 15.5474 6.1853C15.4406 6.13944 15.3258 6.1153 15.2096 6.11429C15.0934 6.11328 14.9782 6.13542 14.8707 6.17942C14.7632 6.22341 14.6655 6.28838 14.5833 6.37054C14.5012 6.4527 14.4362 6.55039 14.3922 6.65793C14.3482 6.76546 14.326 6.88068 14.3271 6.99686C14.3281 7.11304 14.3522 7.22786 14.3981 7.33461C14.4439 7.44137 14.5106 7.53792 14.5942 7.61863C15.3568 8.38362 15.7851 9.41978 15.7851 10.5C15.7851 11.5802 15.3568 12.6164 14.5942 13.3814C14.5106 13.4621 14.4439 13.5587 14.3981 13.6654C14.3522 13.7722 14.3281 13.887 14.3271 14.0032C14.326 14.1193 14.3482 14.2346 14.3922 14.3421C14.4362 14.4496 14.5012 14.5473 14.5833 14.6295C14.6655 14.7116 14.7632 14.7766 14.8707 14.8206C14.9782 14.8646 15.0934 14.8867 15.2096 14.8857C15.3258 14.8847 15.4406 14.8606 15.5474 14.8147C15.6541 14.7689 15.7507 14.7022 15.8314 14.6186C16.922 13.5254 17.5344 12.0442 17.5344 10.5C17.5344 8.95581 16.922 7.47465 15.8314 6.38139Z" fill="#283618"/>
<path d="M12.0916 0.180956C9.43296 0.679991 7.06763 2.18138 5.4845 4.37483H4.375C3.2151 4.37622 2.10311 4.8376 1.28294 5.65777C0.462772 6.47794 0.00138938 7.58994 0 8.74983L0 12.2498C0.00138938 13.4097 0.462772 14.5217 1.28294 15.3419C2.10311 16.1621 3.2151 16.6234 4.375 16.6248H5.48537C7.06805 18.8184 9.43315 20.3198 12.0916 20.8187C12.2178 20.8419 12.3475 20.8371 12.4716 20.8046C12.5957 20.7721 12.7112 20.7127 12.8098 20.6307C12.9084 20.5486 12.9877 20.4459 13.0422 20.3297C13.0967 20.2136 13.1249 20.0869 13.125 19.9586V1.04108C13.1249 0.912795 13.0967 0.786091 13.0422 0.669946C12.9877 0.5538 12.9084 0.451053 12.8098 0.368984C12.7112 0.286914 12.5957 0.22753 12.4716 0.195036C12.3475 0.162543 12.2178 0.157736 12.0916 0.180956Z" fill="#283618"/>
</g>
<defs>
<clipPath id="clip0_406_26">
<rect width="21" height="21" fill="white"/>
</clipPath>
</defs>
</svg>
