<svg width="25" height="22" viewBox="0 0 25 22" fill="none" xmlns="http://www.w3.org/2000/svg">
<g clip-path="url(#clip0_406_30)">
<path d="M12.0916 0.180956C9.43296 0.679991 7.06763 2.18138 5.4845 4.37483H4.375C3.2151 4.37622 2.10311 4.8376 1.28294 5.65777C0.462772 6.47794 0.00138938 7.58994 0 8.74983L0 12.2498C0.00138938 13.4097 0.462772 14.5217 1.28294 15.3419C2.10311 16.1621 3.2151 16.6234 4.375 16.6248H5.48537C7.06805 18.8184 9.43315 20.3198 12.0916 20.8187C12.2178 20.8419 12.3475 20.8371 12.4716 20.8046C12.5957 20.7721 12.7112 20.7127 12.8098 20.6307C12.9084 20.5486 12.9877 20.4459 13.0422 20.3297C13.0967 20.2136 13.1249 20.0869 13.125 19.9586V1.04108C13.1249 0.912795 13.0967 0.786091 13.0422 0.669946C12.9877 0.5538 12.9084 0.451053 12.8098 0.368984C12.7112 0.286914 12.5957 0.22753 12.4716 0.195036C12.3475 0.162543 12.2178 0.157736 12.0916 0.180956Z" fill="#283618"/>
<path d="M23.3663 1.55366C22.9838 0.594909 21.8975 0.12991 20.9388 0.50991C19.9788 0.88866 19.5063 1.97616 19.8813 2.93866C19.8925 2.96741 21 5.87241 21 10.9999C21 16.1274 19.8925 19.0324 19.8838 19.0537C19.4988 20.0149 19.9663 21.1062 20.9275 21.4912C21.1563 21.5824 21.3913 21.6262 21.6238 21.6262C22.3675 21.6262 23.0725 21.1799 23.365 20.4474C23.4213 20.3062 24.7488 16.9187 24.7488 11.0012C24.7488 5.08366 23.4213 1.69616 23.365 1.55491L23.3663 1.55366Z" fill="#283618"/>
<path d="M15.9388 0.510124C14.9788 0.888874 14.5063 1.97637 14.8813 2.93887C14.8925 2.96762 16 5.87262 16 11.0001C16 16.1276 14.8925 19.0326 14.8838 19.0539C14.4988 20.0151 14.9663 21.1064 15.9275 21.4914C16.1563 21.5826 16.3913 21.6264 16.6238 21.6264C17.3675 21.6264 18.0725 21.1801 18.365 20.4476C18.4213 20.3064 19.7488 16.9189 19.7488 11.0014C19.7488 5.08388 18.4213 1.69637 18.365 1.55512C17.9825 0.596374 16.895 0.131374 15.9375 0.511374L15.9388 0.510124Z" fill="#283618"/>
</g>
<defs>
<clipPath id="clip0_406_30">
<rect width="25" height="22" fill="white"/>
</clipPath>
</defs>
</svg>
