<svg width="39" height="39" viewBox="0 0 39 39" fill="none" xmlns="http://www.w3.org/2000/svg">
<path d="M3.42388 31.78C3.92113 33.0264 5.33326 33.6309 6.57963 33.1369C7.82763 32.6445 8.44188 31.2308 7.95438 29.9795C7.93976 29.9421 6.50001 26.1656 6.50001 19.4999C6.50001 12.8341 7.93976 9.05763 7.95113 9.03C8.45163 7.78038 7.84389 6.36175 6.59426 5.86125C6.29689 5.74263 5.99138 5.68575 5.68913 5.68575C4.72226 5.68575 3.80576 6.26588 3.42551 7.21813C3.35238 7.40175 1.62663 11.8055 1.62663 19.4983C1.62663 27.191 3.35238 31.5948 3.42551 31.7784L3.42388 31.78Z" fill="#283618"/>
<path d="M32.0661 33.254C32.7437 33.4409 33.4636 33.1744 33.8536 32.5877C33.9966 32.3716 37.375 27.2009 37.375 19.5C37.375 11.7991 33.995 6.62512 33.852 6.409C33.5449 5.95075 33.0346 5.6875 32.5 5.6875C32.3603 5.6875 32.2189 5.70537 32.0791 5.74275C20.9089 8.73437 15.0979 18.2617 14.8558 18.6647C14.5519 19.1717 14.5486 19.8055 14.846 20.3174C15.0784 20.7155 20.644 30.0917 32.0678 33.254L32.0661 33.254Z" fill="#283618"/>
</svg>
