<svg width="38" height="38" viewBox="0 0 38 38" fill="none" xmlns="http://www.w3.org/2000/svg">
<path d="M21.0894 35.9968C20.5703 36.0464 20.0863 36.1248 19.6003 36.1393C17.6974 36.196 15.8239 35.9409 14.0138 35.3794C12.2736 34.8396 10.6173 34.0787 9.16749 32.9462C8.37039 32.3237 7.55418 31.7071 6.85133 30.9858C5.14588 29.2355 3.85943 27.2069 3.03588 24.8901C2.59139 23.6397 2.26225 22.3695 2.15149 21.0462C2.09645 20.3887 2.02759 19.7308 2.01063 19.0718C1.9914 18.3252 2.53529 17.8801 3.39524 17.8868C4.00599 17.8914 4.44514 18.3954 4.45445 19.082C4.4821 21.1209 4.8846 23.079 5.71477 24.9475C6.37155 26.4258 7.25122 27.7472 8.33935 28.948C9.60898 30.349 11.1013 31.4388 12.7907 32.253C14.0348 32.8524 15.3398 33.3082 16.723 33.4685C17.6076 33.5709 18.4987 33.6858 19.3861 33.6798C20.6141 33.6713 21.828 33.4733 23.0155 33.1367C24.8913 32.6052 26.6024 31.7402 28.1242 30.5319C29.636 29.3316 30.8659 27.8802 31.8183 26.1892C32.6168 24.7714 33.1742 23.2648 33.4472 21.6749C33.6284 20.6195 33.7164 19.5277 33.6748 18.4589C33.5888 16.2535 33.0099 14.1518 31.9616 12.2028C31.3797 11.1207 30.6593 10.1311 29.8261 9.21504C28.5631 7.82636 27.0844 6.7427 25.4086 5.92488C23.9864 5.23077 22.4899 4.75931 20.907 4.60237C20.2872 4.54094 19.665 4.45696 19.0443 4.46149C17.0818 4.47582 15.1899 4.85656 13.3804 5.63424C11.8019 6.31267 10.3723 7.21251 9.13802 8.41405C8.85394 8.69061 8.56426 8.96141 8.19987 9.30844C8.66197 9.3556 9.00556 9.41872 9.34955 9.42099C10.9698 9.43173 12.5902 9.42564 14.2105 9.42584C14.9109 9.42594 15.4249 9.91769 15.4373 10.5988C15.4497 11.2695 14.932 11.7897 14.2394 11.8007C12.6364 11.8259 11.0324 11.8938 9.43077 11.858C8.52674 11.8379 7.60433 11.8351 6.727 11.5086C5.41962 11.022 4.57205 10.1093 4.24513 8.76778C4.08807 8.12328 4.03011 7.44287 4.01805 6.77709C3.98737 5.08309 4.00717 3.38818 4.00816 1.69363C4.0086 0.948205 4.51988 0.445121 5.27268 0.445313C5.96831 0.445488 6.4564 0.959901 6.45678 1.69727C6.45767 3.46604 6.45639 5.23479 6.45849 7.00356C6.45865 7.13133 6.4791 7.25907 6.49569 7.45144C6.92313 7.06694 7.29716 6.73751 7.66348 6.39971C9.13523 5.04255 10.8 3.98234 12.6692 3.27672C13.6594 2.90301 14.6865 2.61276 15.7162 2.36413C16.4086 2.19693 17.1332 2.15499 17.846 2.08283C18.3335 2.03348 18.8264 1.99502 19.3152 2.00969C21.5039 2.07537 23.6256 2.46492 25.6524 3.33024C27.4801 4.11057 29.1234 5.15551 30.5956 6.49845C32.6038 8.33035 34.0551 10.5186 35.0387 13.0416C35.5033 14.2332 35.806 15.4663 35.9752 16.7218C36.1108 17.7272 36.1747 18.7567 36.1285 19.7691C36.0074 22.4196 35.3389 24.9382 34.0513 27.271C33.3979 28.4551 32.6014 29.5377 31.6972 30.5505C30.6394 31.7352 29.4263 32.7205 28.0882 33.5568C26.4538 34.5784 24.7084 35.3405 22.8038 35.7014C22.2451 35.8072 21.6836 35.8984 21.0894 35.9968Z" fill="#283618"/>
<path d="M23.6685 19.8155C24.3514 20.2521 24.8286 20.8292 24.9685 21.6072C25.0482 22.0505 25.0122 22.5166 25.0093 22.9722C25.0043 23.7646 25.0951 24.5661 24.7908 25.3325C24.1851 26.8576 23.098 27.8135 21.4761 28.124C21.1546 28.1855 20.8201 28.199 20.4916 28.2001C18.4512 28.2066 16.4104 28.183 14.3706 28.2157C13.7553 28.2257 13.1118 27.6579 13.1082 27.036C13.1043 26.3813 13.7201 25.7325 14.4023 25.7428C16.4918 25.774 18.582 25.7401 20.6717 25.7611C21.488 25.7694 22.57 24.9744 22.5673 24.0096C22.566 23.5078 22.6279 23.0059 22.632 22.5038C22.6361 22.0207 22.4943 21.8949 22.0267 21.8949C20.0482 21.8947 18.0694 21.8777 16.0911 21.9008C14.7824 21.9161 13.4999 21.1367 13.1973 19.7706C13.1714 19.6536 13.1402 19.5344 13.1394 19.4159C13.1342 18.6617 13.1117 17.9063 13.1423 17.1532C13.1946 15.8625 13.7698 14.8225 14.7763 14.0301C15.6081 13.3754 16.5607 13.1089 17.6281 13.1274C19.5938 13.1611 21.5603 13.1366 23.5266 13.1371C24.2243 13.1373 24.6408 13.5877 24.6406 14.339C24.6405 15.0594 24.2152 15.5115 23.5345 15.5117C21.6178 15.5124 19.701 15.5032 17.7844 15.5178C17.2743 15.5217 16.7795 15.62 16.3472 15.9477C15.892 16.2926 15.6313 16.7313 15.5887 17.2932C15.5506 17.7942 15.5227 18.2966 15.5156 18.7988C15.5081 19.3157 15.6516 19.4452 16.1693 19.4453C18.1973 19.4458 20.2253 19.4501 22.2533 19.4423C22.7543 19.4403 23.2142 19.5528 23.6685 19.8155Z" fill="#283618"/>
</svg>
