<svg width="583" height="256" viewBox="0 0 583 256" fill="none" xmlns="http://www.w3.org/2000/svg">
<path d="M407.484 255.285C398.763 255.285 390.534 253.456 382.797 249.799C375.06 246.282 368.801 241.148 364.018 234.396C359.235 227.785 356.844 219.978 356.844 210.975C356.844 205.208 357.688 199.511 359.376 193.884C361.205 188.117 363.807 182.842 367.183 178.059C370.559 173.276 374.638 169.408 379.421 166.454C380.687 165.751 382.023 165.399 383.43 165.399C385.118 165.399 386.736 165.891 388.283 166.876C389.83 167.72 391.026 168.916 391.87 170.463C392.714 171.87 393.066 173.347 392.925 174.894C392.925 176.301 392.151 177.567 390.604 178.692C386.525 180.943 383.289 183.756 380.898 187.132C378.647 190.508 377.03 194.025 376.045 197.682C375.06 201.339 374.568 204.645 374.568 207.599C374.568 212.804 376.045 217.305 378.999 221.103C382.094 224.901 386.173 227.855 391.237 229.965C396.301 232.075 401.787 233.13 407.695 233.13C416.698 233.13 424.153 231.653 430.061 228.699C436.11 225.886 440.892 221.877 444.409 216.672C448.066 211.608 450.739 205.77 452.427 199.159C454.256 192.407 455.451 185.163 456.014 177.426C456.577 169.689 456.858 161.812 456.858 153.794C456.858 144.651 456.858 135.718 456.858 126.997C456.858 118.276 456.858 109.836 456.858 101.677C456.858 93.5185 456.858 85.8521 456.858 78.6781C456.858 71.3635 456.858 64.6818 456.858 58.6331C456.858 55.6791 457.632 53.5691 459.179 52.3031C460.726 51.0371 462.836 50.4041 465.509 50.4041C468.744 50.4041 470.995 51.0371 472.261 52.3031C473.527 53.5691 474.16 55.9605 474.16 59.4771C474.16 64.9631 474.09 70.9415 473.949 77.4121C473.949 83.8828 473.949 90.6348 473.949 97.6681C473.949 104.701 473.879 111.805 473.738 118.979C473.738 126.012 473.738 132.905 473.738 139.657C473.738 144.018 473.738 148.308 473.738 152.528C473.879 156.607 473.879 160.616 473.738 164.555C474.301 169.478 475.637 174.05 477.747 178.27C479.857 182.349 482.67 185.655 486.187 188.187C489.844 190.578 494.064 191.774 498.847 191.774L502.645 194.728V210.553L498.847 213.085C493.924 213.085 488.578 211.538 482.811 208.443C477.184 205.208 472.753 200.566 469.518 194.517C468.252 204.364 465.931 213.085 462.555 220.681C459.32 228.277 455.029 234.607 449.684 239.671C444.479 244.876 438.29 248.744 431.116 251.276C424.083 253.949 416.205 255.285 407.484 255.285Z" fill="white"/>
<path d="M498.779 213.085L494.981 210.975V194.939L498.779 191.774C507.501 191.493 514.323 188.328 519.246 182.279C524.17 176.09 526.631 168.072 526.631 158.225C526.631 153.02 525.717 147.253 523.888 140.923C522.06 134.593 519.387 127.982 515.87 121.089C512.354 114.196 507.923 107.304 502.577 100.411C501.171 98.3011 500.467 96.0505 500.467 93.6591C500.608 91.1271 501.311 88.8061 502.577 86.6961C503.843 84.4455 505.602 82.8278 507.852 81.8431C515.448 78.7485 522.13 75.9351 527.897 73.4031C533.665 70.8711 538.869 68.4798 543.511 66.2291C548.153 63.9785 552.514 61.6575 556.593 59.2661C560.813 56.7341 565.104 54.0615 569.464 51.2481C571.434 49.9821 573.051 49.3491 574.317 49.3491C576.005 49.3491 577.553 49.9821 578.959 51.2481C580.366 52.3735 581.421 53.8504 582.124 55.6791C582.828 57.5078 583.039 59.3365 582.757 61.1651C582.476 62.9938 581.562 64.4708 580.014 65.5961C572.418 70.9415 563.486 76.2165 553.217 81.4211C543.089 86.4851 531.555 91.5491 518.613 96.6131C526.631 107.304 532.75 118.205 536.97 129.318C541.19 140.431 543.3 150.981 543.3 160.968C543.3 171.94 541.331 181.294 537.392 189.031C533.594 196.768 528.319 202.746 521.567 206.966C514.815 211.045 507.219 213.085 498.779 213.085Z" fill="white"/>
<path d="M451.769 88.2918C448.253 88.2918 445.299 87.0258 442.907 84.4938C440.516 81.9618 438.969 78.4451 438.265 73.9438C437.703 69.3018 438.195 63.8861 439.742 57.6968C440.024 56.5715 440.586 55.7978 441.43 55.3758C442.274 54.9538 443.189 54.7428 444.173 54.7428C445.439 54.7428 446.565 55.0944 447.549 55.7978C448.534 56.5011 448.815 57.5561 448.393 58.9628C446.987 63.6048 446.565 67.9655 447.127 72.0448C447.831 76.1241 449.941 78.1638 453.457 78.1638C455.989 78.1638 457.748 77.3901 458.732 75.8428C459.858 74.1548 460.491 72.0448 460.631 69.5128C460.772 66.9808 460.702 64.5191 460.42 62.1278C460.42 61.0024 460.842 60.2288 461.686 59.8068C462.671 59.2441 463.656 58.9628 464.64 58.9628C465.766 58.9628 466.75 59.2441 467.594 59.8068C468.438 60.2288 468.86 61.0024 468.86 62.1278C468.86 64.5191 469.001 66.9808 469.282 69.5128C469.704 71.9041 470.408 73.9438 471.392 75.6318C472.518 77.1791 474.135 77.9528 476.245 77.9528C478.918 77.9528 480.817 76.8978 481.942 74.7878C483.068 72.5371 483.63 69.8645 483.63 66.7698C483.63 63.6751 483.138 60.6508 482.153 57.6968C482.013 56.5715 482.435 55.7275 483.419 55.1648C484.404 54.4615 485.529 54.1098 486.795 54.1098C487.78 54.1098 488.694 54.3208 489.538 54.7428C490.382 55.1648 490.945 55.8681 491.226 56.8528C492.633 61.9168 493.055 66.8401 492.492 71.6228C491.93 76.4055 490.382 80.3441 487.85 83.4388C485.318 86.5335 481.802 88.0808 477.3 88.0808C474.628 88.0808 472.096 87.2368 469.704 85.5488C467.454 83.8608 465.906 81.6101 465.062 78.7968C464.218 81.7508 462.53 84.0718 459.998 85.7598C457.466 87.4478 454.723 88.2918 451.769 88.2918ZM442.063 34.6978C440.797 33.8538 440.024 32.7988 439.742 31.5328C439.602 30.1261 439.813 28.8601 440.375 27.7348C440.938 26.6094 441.712 25.8358 442.696 25.4138C443.822 24.8511 445.088 24.9918 446.494 25.8358C449.167 27.5238 451.91 28.7898 454.723 29.6338C457.677 30.3371 460.491 30.6888 463.163 30.6888C465.977 30.6888 468.579 30.2668 470.97 29.4228C473.362 28.5788 475.261 27.4534 476.667 26.0468C474.135 26.3281 471.744 25.5544 469.493 23.7258C467.243 21.8971 466.117 19.2244 466.117 15.7078C466.117 12.6131 467.032 10.0811 468.86 8.11179C470.83 6.00178 473.291 4.94678 476.245 4.94678C479.762 4.94678 482.575 6.21278 484.685 8.74478C486.795 11.2768 487.85 14.6528 487.85 18.8728C487.85 23.2334 486.655 27.1018 484.263 30.4778C482.013 33.7131 478.918 36.2451 474.979 38.0738C471.181 39.9024 466.961 40.8168 462.319 40.8168C459.084 40.8168 455.708 40.3244 452.191 39.3398C448.675 38.3551 445.299 36.8078 442.063 34.6978Z" fill="#DDA15E"/>
<path d="M511.93 35.751C510.664 34.907 509.891 33.852 509.609 32.586C509.469 31.1793 509.68 29.9133 510.242 28.788C510.805 27.6627 511.579 26.889 512.563 26.467C513.689 25.9043 514.955 26.045 516.361 26.889C519.034 28.577 521.777 29.843 524.59 30.687C527.544 31.3903 530.358 31.742 533.03 31.742C535.844 31.742 538.446 31.32 540.837 30.476C543.229 29.632 545.128 28.5067 546.534 27.1C544.002 27.3813 541.611 26.6077 539.36 24.779C537.11 22.9503 535.984 20.2777 535.984 16.761C535.984 13.6663 536.899 11.1343 538.727 9.165C540.697 7.055 543.158 6 546.112 6C549.629 6 552.442 7.266 554.552 9.798C556.662 12.33 557.717 15.706 557.717 19.926C557.717 24.2867 556.522 28.155 554.13 31.531C551.88 34.7663 548.785 37.2983 544.846 39.127C541.048 40.9557 536.828 41.87 532.186 41.87C528.951 41.87 525.575 41.3777 522.058 40.393C518.542 39.4083 515.166 37.861 511.93 35.751Z" fill="#DDA15E"/>
<path d="M70.685 188.984C57.3217 188.984 45.2947 187.225 34.604 183.709C23.9133 180.051 15.4733 174.636 9.284 167.462C3.09467 160.147 0 151.004 0 140.032C0 131.17 2.67267 122.66 8.018 114.501C13.3633 106.342 21.522 99.8715 32.494 95.0888C33.9007 94.5262 35.237 94.1042 36.503 93.8228C37.769 93.4008 38.8943 93.1898 39.879 93.1898C41.4263 93.1898 42.7627 93.8932 43.888 95.2998C45.0133 96.5658 45.8573 98.1132 46.42 99.9418C47.1233 101.63 47.475 103.177 47.475 104.584C47.475 105.991 46.9827 107.257 45.998 108.382C45.154 109.367 43.888 110.211 42.2 110.914C33.9007 114.009 27.852 117.736 24.054 122.097C20.3967 126.458 18.568 131.311 18.568 136.656C18.568 143.408 20.9593 149.035 25.742 153.536C30.5247 158.037 36.9953 161.413 45.154 163.664C53.4533 165.774 62.7373 166.829 73.006 166.829C82.8527 166.829 92.3477 165.985 101.491 164.297C110.634 162.609 118.863 160.077 126.178 156.701C133.633 153.184 139.682 148.964 144.324 144.041C148.966 138.977 151.709 133.139 152.553 126.528C152.834 123.011 153.678 120.62 155.085 119.354C156.492 118.088 158.953 117.455 162.47 117.455C165.424 117.455 167.464 118.51 168.589 120.62C169.855 122.589 170.347 124.91 170.066 127.583C169.925 129.13 169.644 130.537 169.222 131.803C168.941 133.069 168.659 134.264 168.378 135.39C167.253 141.298 167.393 146.573 168.8 151.215C170.347 155.716 172.95 159.303 176.607 161.976C180.264 164.508 184.766 165.774 190.111 165.774L193.909 169.15V184.342L190.111 187.085C184.062 187.085 178.717 185.749 174.075 183.076C169.433 180.263 165.635 176.605 162.681 172.104C159.868 167.462 158.039 162.468 157.195 157.123C153.538 162.187 148.614 166.688 142.425 170.627C136.376 174.565 129.484 177.942 121.747 180.755C114.151 183.428 105.992 185.467 97.271 186.874C88.5497 188.281 79.6877 188.984 70.685 188.984ZM74.272 242.789C72.3027 242.789 70.6147 242.226 69.208 241.101C67.942 239.976 66.9573 238.569 66.254 236.881C65.6913 235.193 65.41 233.435 65.41 231.606C65.41 228.089 66.3243 225.135 68.153 222.744C69.9817 220.493 72.162 219.368 74.694 219.368C77.226 219.368 79.2657 219.931 80.813 221.056C82.501 222.322 83.6967 223.799 84.4 225.487C85.244 227.316 85.666 229.215 85.666 231.184C85.666 234.982 84.5407 237.866 82.29 239.835C80.18 241.804 77.5073 242.789 74.272 242.789Z" fill="white"/>
<path d="M190.172 187.085L186.374 183.92V168.939L190.172 165.774C194.533 165.774 198.401 164.86 201.777 163.031C205.294 161.062 208.177 157.967 210.428 153.747C212.819 149.386 214.507 143.76 215.492 136.867C215.492 132.506 215.703 128.849 216.125 125.895C216.547 122.8 217.461 120.479 218.868 118.932C220.415 117.244 222.596 116.4 225.409 116.4C228.222 116.4 230.332 117.103 231.739 118.51C233.146 119.776 233.849 121.323 233.849 123.152C233.849 125.121 233.638 127.091 233.216 129.06C232.794 130.889 232.372 132.858 231.95 134.968C231.528 137.078 231.317 139.328 231.317 141.72C231.317 146.221 232.302 150.301 234.271 153.958C236.24 157.615 238.913 160.499 242.289 162.609C245.665 164.719 249.463 165.774 253.683 165.774L257.481 168.728V184.553L253.683 187.085C245.946 187.085 239.335 184.764 233.849 180.122C228.363 175.48 224.495 169.361 222.244 161.765C220.837 166.688 218.516 171.049 215.281 174.847C212.186 178.645 208.459 181.669 204.098 183.92C199.878 186.03 195.236 187.085 190.172 187.085ZM215.492 89.6028C211.131 90.5875 207.896 90.2358 205.786 88.5478C203.676 86.7192 202.621 84.1168 202.621 80.7408C202.621 77.7868 203.957 75.6768 206.63 74.4108C209.443 73.1448 212.96 72.1602 217.18 71.4568C221.822 70.4722 226.394 69.9798 230.895 69.9798C235.537 69.8392 239.616 69.9095 243.133 70.1908C245.384 70.3315 247.212 71.0348 248.619 72.3008C250.026 73.4262 250.94 74.8328 251.362 76.5208C251.784 78.2088 251.784 79.8968 251.362 81.5848C250.94 83.2728 250.026 84.6795 248.619 85.8048C247.212 86.9302 245.384 87.4928 243.133 87.4928C239.054 87.4928 234.552 87.5632 229.629 87.7038C224.706 87.8445 219.993 88.4775 215.492 89.6028Z" fill="white"/>
<path d="M253.637 187.085L249.839 184.975V168.939L253.637 165.774C258.42 165.774 262.851 164.86 266.93 163.031C271.15 161.202 274.666 158.741 277.48 155.646C280.434 152.411 282.474 148.753 283.599 144.674C284.724 140.595 284.654 136.304 283.388 131.803L263.976 76.0988C263.132 73.1448 262.78 70.4018 262.921 67.8698C263.062 65.1972 263.765 62.8058 265.031 60.6958C266.437 58.5858 268.407 56.9682 270.939 55.8428C280.223 52.1855 288.241 48.8798 294.993 45.9258C301.745 42.8312 308.005 39.7365 313.772 36.6418C319.539 33.5472 325.447 30.1712 331.496 26.5138C333.184 25.5292 334.661 25.0368 335.927 25.0368C337.615 25.0368 339.162 25.7402 340.569 27.1468C341.976 28.4128 342.96 30.0305 343.523 31.9998C344.226 33.9692 344.437 35.9385 344.156 37.9078C343.875 39.7365 342.96 41.2135 341.413 42.3388C332.41 47.9655 322.634 53.3108 312.084 58.3748C301.674 63.4388 290.843 68.0105 279.59 72.0898L302.167 136.023C305.684 145.448 309.622 152.762 313.983 157.967C318.484 163.172 323.759 165.774 329.808 165.774L333.606 169.15V184.553L329.808 187.085C325.447 187.085 321.016 185.889 316.515 183.498C312.154 181.106 308.004 177.59 304.066 172.948C300.127 168.165 296.822 162.257 294.149 155.224C290.632 165.492 285.146 173.37 277.691 178.856C270.376 184.342 262.358 187.085 253.637 187.085Z" fill="white"/>
<path d="M329.877 187.085L326.079 184.764V168.939L329.877 165.774C337.332 165.774 343.029 163.594 346.968 159.233C350.907 154.872 353.157 148.401 353.72 139.821C354.283 133.069 354.634 126.457 354.775 119.987C355.056 113.375 355.267 106.201 355.408 98.4648C355.549 90.7282 355.619 81.9365 355.619 72.0898C355.76 62.3838 355.83 53.8735 355.83 46.5588C355.83 39.2442 355.9 34.1802 356.041 31.3668C356.322 25.7402 359.136 22.9268 364.481 22.9268C367.435 22.9268 369.615 23.5598 371.022 24.8258C372.569 26.0918 373.343 28.0612 373.343 30.7338C373.343 36.7825 373.273 42.8312 373.132 48.8798C373.132 54.9285 373.062 60.5552 372.921 65.7598C372.921 70.9645 372.921 75.4658 372.921 79.2638C372.921 83.7652 372.851 89.0402 372.71 95.0888C372.71 100.997 372.569 107.327 372.288 114.079C372.147 120.69 371.796 127.372 371.233 134.124C370.811 140.876 370.248 147.206 369.545 153.114C368.42 159.725 366.239 165.633 363.004 170.838C359.769 175.902 355.408 179.911 349.922 182.865C344.577 185.678 337.895 187.085 329.877 187.085Z" fill="white"/>
<path d="M413.079 188.562C412.094 188.562 410.828 188.351 409.281 187.929C407.733 187.507 406.397 186.663 405.272 185.397C404.146 184.131 403.584 182.162 403.584 179.489C403.584 172.737 403.654 165.422 403.795 157.545C403.935 149.527 404.076 141.228 404.217 132.647C404.498 123.926 404.779 115.064 405.061 106.061C405.342 97.0582 405.623 88.1962 405.905 79.4748C406.186 70.6128 406.467 62.1025 406.749 53.9438C407.03 45.6445 407.311 37.9078 407.593 30.7338C407.733 27.9205 408.648 25.8808 410.336 24.6148C412.164 23.3488 414.274 22.7158 416.666 22.7158C419.76 22.7158 422.011 23.5598 423.418 25.2478C424.824 26.9358 425.457 29.0458 425.317 31.5778C425.176 37.7672 424.965 44.5895 424.684 52.0448C424.402 59.3595 424.121 67.0258 423.84 75.0438C423.699 82.9212 423.488 90.9392 423.207 99.0978C422.785 113.446 422.433 127.231 422.152 140.454C422.011 153.536 421.8 166.266 421.519 178.645C421.519 180.192 421.237 181.74 420.675 183.287C420.112 184.834 419.198 186.1 417.932 187.085C416.806 188.07 415.189 188.562 413.079 188.562Z" fill="white"/>
<path d="M93.8891 197.992C101.626 197.711 109.433 196.374 117.31 193.983C125.187 191.732 131.728 189.2 136.933 186.387C138.34 185.684 139.676 185.613 140.942 186.176C142.208 186.739 143.193 187.653 143.896 188.919C144.599 190.326 144.81 191.732 144.529 193.139C144.248 194.546 143.333 195.671 141.786 196.515C138.129 198.766 133.698 200.805 128.493 202.634C123.288 204.603 117.802 206.151 112.035 207.276C106.408 208.542 100.922 209.245 95.5771 209.386C93.8891 209.386 92.5528 208.823 91.5681 207.698C90.5834 206.713 90.0208 205.447 89.8801 203.9C89.7394 202.493 89.9504 201.157 90.5131 199.891C91.2164 198.766 92.3418 198.133 93.8891 197.992Z" fill="#DDA15E"/>
<path d="M203.735 40.751C202.469 39.907 201.696 38.852 201.414 37.586C201.274 36.1793 201.485 34.9133 202.047 33.788C202.61 32.6627 203.384 31.889 204.368 31.467C205.494 30.9043 206.76 31.045 208.166 31.889C210.839 33.577 213.582 34.843 216.395 35.687C219.349 36.3903 222.163 36.742 224.835 36.742C227.649 36.742 230.251 36.32 232.642 35.476C235.034 34.632 236.933 33.5067 238.339 32.1C235.807 32.3813 233.416 31.6077 231.165 29.779C228.915 27.9503 227.789 25.2777 227.789 21.761C227.789 18.6663 228.704 16.1343 230.532 14.165C232.502 12.055 234.963 11 237.917 11C241.434 11 244.247 12.266 246.357 14.798C248.467 17.33 249.522 20.706 249.522 24.926C249.522 29.2867 248.327 33.155 245.935 36.531C243.685 39.7663 240.59 42.2983 236.651 44.127C232.853 45.9557 228.633 46.87 223.991 46.87C220.756 46.87 217.38 46.3777 213.863 45.393C210.347 44.4083 206.971 42.861 203.735 40.751Z" fill="#DDA15E"/>
<path d="M274.618 29.751C273.352 28.907 272.579 27.852 272.297 26.586C272.157 25.1793 272.368 23.9133 272.93 22.788C273.493 21.6627 274.267 20.889 275.251 20.467C276.377 19.9043 277.643 20.045 279.049 20.889C281.722 22.577 284.465 23.843 287.278 24.687C290.232 25.3903 293.046 25.742 295.718 25.742C298.532 25.742 301.134 25.32 303.525 24.476C305.917 23.632 307.816 22.5067 309.222 21.1C306.69 21.3813 304.299 20.6077 302.048 18.779C299.798 16.9503 298.672 14.2777 298.672 10.761C298.672 7.66633 299.587 5.13433 301.415 3.165C303.385 1.055 305.846 0 308.8 0C312.317 0 315.13 1.266 317.24 3.798C319.35 6.32999 320.405 9.70599 320.405 13.926C320.405 18.2867 319.21 22.155 316.818 25.531C314.568 28.7663 311.473 31.2983 307.534 33.127C303.736 34.9557 299.516 35.87 294.874 35.87C291.639 35.87 288.263 35.3777 284.746 34.393C281.23 33.4083 277.854 31.861 274.618 29.751Z" fill="#DDA15E"/>
<path d="M362.656 9.63281C368.705 9.63281 373.417 11.6021 376.793 15.5408C380.31 19.4795 382.068 24.1918 382.068 29.6778C382.068 34.8825 380.38 39.2432 377.004 42.7598C373.769 46.1358 369.408 47.8238 363.922 47.8238C358.577 47.8238 354.216 46.1358 350.84 42.7598C347.605 39.3838 345.987 35.3045 345.987 30.5218C345.987 25.7391 347.394 21.7301 350.207 18.4948C353.161 15.1188 357.03 13.4308 361.812 13.4308C362.938 13.4308 363.852 13.8528 364.555 14.6968C365.399 15.5408 365.892 16.5958 366.032 17.8618C366.173 18.9871 365.892 19.9718 365.188 20.8158C364.626 21.6598 363.5 22.0818 361.812 22.0818C359.421 22.0818 357.522 22.9961 356.115 24.8248C354.849 26.5128 354.216 28.2712 354.216 30.0998C354.216 32.7725 355.131 34.9528 356.959 36.6408C358.788 38.1881 361.039 38.9618 363.711 38.9618C366.525 38.9618 368.916 38.1881 370.885 36.6408C372.855 34.9528 373.839 32.6318 373.839 29.6778C373.839 26.8645 372.784 24.3325 370.674 22.0818C368.705 19.6905 365.962 18.4948 362.445 18.4948C361.32 18.4948 360.406 18.0728 359.702 17.2288C359.14 16.2442 358.858 15.1892 358.858 14.0638C358.858 12.9385 359.14 11.9538 359.702 11.1098C360.406 10.1251 361.39 9.63281 362.656 9.63281Z" fill="#DDA15E"/>
</svg>
