<svg fill="none" height="350" viewBox="0 0 1100 350" width="1100" xmlns="http://www.w3.org/2000/svg"><g fill="#fff"><path d="m1100 0h50v150h-50z" transform="matrix(0 1 -1 0 1100 -1100)"/><path d="m500 0h50v150h-50z" transform="matrix(0 1 -1 0 500 -500)"/><path d="m1100 100h50v150h-50z" transform="matrix(0 1 -1 0 1200 -1000)"/><path d="m500 100h50v150h-50z" transform="matrix(0 1 -1 0 600 -400)"/><path d="m1100 200h50v250h-50z" transform="matrix(0 1 -1 0 1300 -900)"/><path d="m850 0h50v350h-50z"/><path d="m900 300h50v150h-50z" transform="matrix(0 1 -1 0 1200 -600)"/><path d="m750 200h50v150h-50z"/><path d="m650 0h50v350h-50z"/><path d="m550 0h50v250h-50z"/><path d="m0 250h50v600h-50z" transform="matrix(0 -1 1 0 -250 250)"/><path d="m950 0h50v150h-50z"/><path d="m350 0h50v150h-50z"/><path d="m250 100h50v150h-50z"/><path d="m150 100h50v150h-50z"/><path d="m0 100h50v150h-50z"/><path d="m1050 100h50v150h-50z"/><path d="m450 100h50v150h-50z"/></g><path d="m200 350v-50h400v50z" fill="#cdad80"/><path d="m100 350v-50h50v50z" fill="#fff"/><path d="m200 50v-50h100v50z" fill="#fff"/><path d="m0 50v-50h150v50z" fill="#cdad80"/><path d="m950 350v-50h150v50z" fill="#cdad80"/><path d="m750-.00000219 50 .00000219v150h-50z" fill="#cdad80"/><path d="m0 350v-50h50v50z" fill="#cdad80"/></svg>