<svg width="573" height="236" viewBox="0 0 573 236" fill="none" xmlns="http://www.w3.org/2000/svg">
<path d="M41.778 190.773C36.292 190.773 31.017 189.999 25.953 188.452C21.0297 186.764 16.5987 184.302 12.66 181.067C8.72133 177.691 5.62667 173.541 3.376 168.618C1.12533 163.695 0 157.998 0 151.527C0 143.79 1.40667 136.616 4.22 130.005C7.03333 123.253 10.8313 116.923 15.614 111.015C20.3967 105.107 25.8123 99.4098 31.861 93.9238C38.0503 88.2972 44.4507 82.8112 51.062 77.4658C52.1873 76.4812 53.383 75.9888 54.649 75.9888C56.1963 75.9888 57.603 76.5515 58.869 77.6768C60.2757 78.8022 61.3307 80.2088 62.034 81.8968C62.878 83.4442 63.3 85.0618 63.3 86.7498C63.3 88.2972 62.667 89.5632 61.401 90.5478C52.3983 97.4405 44.4507 104.122 37.558 110.593C30.806 117.064 25.531 123.534 21.733 130.005C18.0757 136.476 16.247 143.157 16.247 150.05C16.247 156.943 18.7087 162.288 23.632 166.086C28.696 169.884 34.7447 171.783 41.778 171.783C49.9367 171.783 56.337 169.743 60.979 165.664C65.621 161.585 67.942 156.45 67.942 150.261C67.942 144.494 66.1837 138.375 62.667 131.904C59.291 125.433 54.5083 119.174 48.319 113.125C42.1297 106.935 34.815 101.661 26.375 97.2998C24.5463 96.1745 23.5617 94.6975 23.421 92.8688C23.421 91.0402 23.843 89.2115 24.687 87.3828C25.6717 85.4135 26.9377 83.7958 28.485 82.5298C30.173 81.1232 31.7907 80.4198 33.338 80.4198C34.7447 80.4198 35.9403 80.9122 36.925 81.8968C42.833 85.8355 48.53 90.4072 54.016 95.6118C59.6427 100.816 64.6363 106.514 68.997 112.703C73.4983 118.752 77.0853 125.082 79.758 131.693C82.4307 138.164 83.767 144.775 83.767 151.527C83.767 157.716 82.6417 163.272 80.391 168.196C78.1403 172.978 75.0457 177.058 71.107 180.434C67.309 183.81 62.878 186.412 57.814 188.241C52.75 189.929 47.4047 190.773 41.778 190.773ZM31.017 58.8978C26.6563 59.8825 23.421 59.5308 21.311 57.8428C19.201 56.0142 18.146 53.4118 18.146 50.0358C18.146 47.0818 19.4823 44.9718 22.155 43.7058C24.9683 42.4398 28.485 41.4552 32.705 40.7518C37.347 39.7672 41.9187 39.2748 46.42 39.2748C51.062 39.1342 55.1413 39.2045 58.658 39.4858C60.9087 39.6265 62.7373 40.3298 64.144 41.5958C65.5507 42.7212 66.465 44.1278 66.887 45.8158C67.309 47.5038 67.309 49.1918 66.887 50.8798C66.465 52.5678 65.5507 53.9745 64.144 55.0998C62.7373 56.2252 60.9087 56.7878 58.658 56.7878C54.5787 56.7878 50.0773 56.8582 45.154 56.9988C40.2307 57.1395 35.5183 57.7725 31.017 58.8978Z" fill="white"/>
<path d="M142.822 169.462C148.308 169.462 153.302 169.11 157.803 168.407C162.445 167.563 165.962 166.156 168.353 164.187C170.885 162.077 171.659 159.193 170.674 155.536C168.424 147.377 165.962 139.57 163.289 132.115C160.757 124.66 158.085 117.556 155.271 110.804C154.287 108.413 154.146 106.373 154.849 104.685C155.693 102.997 156.959 101.66 158.647 100.676C160.476 99.6912 162.305 99.1988 164.133 99.1988C165.54 99.1988 166.736 99.4802 167.72 100.043C168.846 100.605 169.69 101.59 170.252 102.997C173.488 111.156 176.512 119.033 179.325 126.629C182.279 134.225 184.882 141.68 187.132 148.995C189.102 155.466 192.196 160.248 196.416 163.343C200.777 166.297 205.278 167.774 209.92 167.774L213.718 170.728V186.553L209.92 189.085C204.856 189.085 199.933 187.749 195.15 185.076C190.508 182.263 186.64 178.465 183.545 173.682C181.857 177.621 178.903 180.786 174.683 183.177C170.463 185.568 165.47 187.327 159.702 188.452C154.076 189.437 148.168 189.929 141.978 189.929C137.477 189.929 133.116 189.507 128.896 188.663C124.676 187.678 120.738 186.131 117.08 184.021C113.564 181.77 110.328 178.746 107.374 174.948C105.264 171.994 104.28 169.321 104.42 166.93C104.561 164.539 105.757 162.288 108.007 160.178C108.992 159.334 109.977 158.701 110.961 158.279C111.946 157.716 112.931 157.435 113.915 157.435C115.744 157.435 117.221 158.208 118.346 159.756C121.16 163.272 124.465 165.805 128.263 167.352C132.061 168.759 136.914 169.462 142.822 169.462Z" fill="white"/>
<path d="M209.909 189.085L206.111 185.92V170.939L209.909 167.774C214.269 167.774 218.138 166.86 221.514 165.031C225.03 163.062 227.914 159.967 230.165 155.747C232.556 151.386 234.244 145.76 235.229 138.867C235.229 134.506 235.44 130.849 235.862 127.895C236.284 124.8 237.198 122.479 238.605 120.932C240.152 119.244 242.332 118.4 245.146 118.4C247.959 118.4 250.069 119.103 251.476 120.51C252.882 121.776 253.586 123.323 253.586 125.152C253.586 127.121 253.375 129.091 252.953 131.06C252.531 132.889 252.109 134.858 251.687 136.968C251.265 139.078 251.054 141.328 251.054 143.72C251.054 148.221 252.038 152.301 254.008 155.958C255.977 159.615 258.65 162.499 262.026 164.609C265.402 166.719 269.2 167.774 273.42 167.774L277.218 170.728V186.553L273.42 189.085C265.683 189.085 259.072 186.764 253.586 182.122C248.1 177.48 244.231 171.361 241.981 163.765C240.574 168.688 238.253 173.049 235.018 176.847C231.923 180.645 228.195 183.669 223.835 185.92C219.615 188.03 214.973 189.085 209.909 189.085ZM229.743 234.661C225.382 235.646 222.147 235.224 220.037 233.395C217.927 231.707 216.872 229.175 216.872 225.799C216.872 222.845 218.208 220.735 220.881 219.469C223.694 218.203 227.211 217.218 231.431 216.515C236.073 215.53 240.644 214.968 245.146 214.827C249.788 214.827 253.867 214.968 257.384 215.249C259.634 215.39 261.463 216.023 262.87 217.148C264.276 218.414 265.191 219.891 265.613 221.579C266.035 223.267 266.035 224.955 265.613 226.643C265.191 228.331 264.276 229.738 262.87 230.863C261.463 231.988 259.634 232.551 257.384 232.551C253.304 232.551 248.803 232.621 243.88 232.762C238.956 232.903 234.244 233.536 229.743 234.661Z" fill="white"/>
<path d="M273.374 189.085L269.576 186.553V170.306L273.374 167.774C278.86 167.774 284.627 167.141 290.676 165.875C296.865 164.609 302.914 162.851 308.822 160.6C314.73 158.349 320.075 155.676 324.858 152.582C329.64 149.346 333.438 145.9 336.252 142.243C339.206 138.445 340.683 134.506 340.683 130.427C340.683 126.488 339.698 123.042 337.729 120.088C335.9 116.993 333.368 114.532 330.133 112.703C326.897 110.874 323.24 109.96 319.161 109.96C313.112 109.96 308.048 111.859 303.969 115.657C299.889 119.455 297.85 124.378 297.85 130.427C297.85 135.913 299.819 140.907 303.758 145.408C307.837 149.909 313.182 153.848 319.794 157.224C326.405 160.6 333.649 163.202 341.527 165.031C349.545 166.86 357.422 167.774 365.159 167.774L368.957 170.939V186.975L365.159 189.085C357.844 189.085 350.248 188.1 342.371 186.131C334.634 184.021 327.179 181.137 320.005 177.48C312.831 173.823 306.36 169.532 300.593 164.609C294.966 159.545 290.465 154.059 287.089 148.151C283.853 142.243 282.236 136.054 282.236 129.583C282.236 121.987 283.783 115.235 286.878 109.327C290.113 103.278 294.544 98.5658 300.171 95.1898C305.797 91.6732 312.127 89.9148 319.161 89.9148C326.194 89.9148 332.454 91.6732 337.94 95.1898C343.566 98.7065 347.997 103.489 351.233 109.538C354.609 115.446 356.297 122.128 356.297 129.583C356.297 136.194 354.609 142.524 351.233 148.573C347.857 154.481 343.215 159.897 337.307 164.82C331.539 169.743 325.069 174.034 317.895 177.691C310.721 181.348 303.265 184.162 295.529 186.131C287.933 188.1 280.548 189.085 273.374 189.085ZM308.4 62.6958C304.039 63.6805 300.804 63.3288 298.694 61.6408C296.584 59.8122 295.529 57.2098 295.529 53.8338C295.529 50.8798 296.865 48.7698 299.538 47.5038C302.351 46.2378 305.868 45.2532 310.088 44.5498C314.73 43.5652 319.301 43.0728 323.803 43.0728C328.445 42.9322 332.524 43.0025 336.041 43.2838C338.291 43.4245 340.12 44.1278 341.527 45.3938C342.933 46.5192 343.848 47.9258 344.27 49.6138C344.692 51.3018 344.692 52.9898 344.27 54.6778C343.848 56.3658 342.933 57.7725 341.527 58.8978C340.12 60.0232 338.291 60.5858 336.041 60.5858C331.961 60.5858 327.46 60.6562 322.537 60.7968C317.613 60.9375 312.901 61.5705 308.4 62.6958Z" fill="white"/>
<path d="M364.857 189.085L361.27 185.92V170.728L365.068 167.774C375.055 167.774 384.761 166.227 394.186 163.132C403.751 159.897 412.543 155.747 420.561 150.683C428.72 145.478 435.894 139.852 442.083 133.803C448.272 127.754 453.055 121.916 456.431 116.29C452.492 115.164 447.78 114.32 442.294 113.758C436.949 113.054 431.674 112.703 426.469 112.703C422.249 112.703 417.888 112.914 413.387 113.336C409.026 113.617 404.877 114.11 400.938 114.813C397.14 115.376 393.764 116.079 390.81 116.923C396.155 120.158 401.149 124.026 405.791 128.528C410.574 132.888 415.286 137.39 419.928 142.032C424.57 146.533 429.564 150.753 434.909 154.692C440.395 158.63 446.514 161.796 453.266 164.187C460.018 166.578 467.825 167.774 476.687 167.774L480.696 170.306V185.92L476.898 189.085C466.77 189.085 457.978 187.749 450.523 185.076C443.068 182.263 436.386 178.605 430.478 174.104C424.57 169.462 419.014 164.468 413.809 159.123C408.745 153.637 403.54 148.221 398.195 142.876C392.85 137.39 386.942 132.466 380.471 128.106C378.783 126.98 377.658 125.081 377.095 122.409C376.673 119.736 376.743 116.923 377.306 113.969C377.869 110.874 378.853 108.413 380.26 106.584C382.229 104.052 385.394 101.942 389.755 100.254C394.256 98.4252 399.602 97.0888 405.791 96.2448C412.121 95.2602 418.943 94.7678 426.258 94.7678C435.12 94.7678 442.997 95.5415 449.89 97.0888C456.783 98.4955 462.48 100.746 466.981 103.841C470.076 106.514 471.553 109.749 471.412 113.547C471.412 117.204 470.357 120.932 468.247 124.73C463.183 132.748 456.853 140.625 449.257 148.362C441.802 155.958 433.432 162.851 424.148 169.04C415.005 175.229 405.369 180.153 395.241 183.81C385.113 187.327 374.985 189.085 364.857 189.085Z" fill="white"/>
<path d="M476.956 189.085L473.158 186.764V170.939L476.956 167.774C484.411 167.774 490.108 165.594 494.047 161.233C497.985 156.872 500.236 150.401 500.799 141.821C501.361 135.069 501.713 128.457 501.854 121.987C502.135 115.375 502.346 108.201 502.487 100.465C502.627 92.7282 502.698 83.9365 502.698 74.0898C502.838 64.3838 502.909 55.8735 502.909 48.5588C502.909 41.2442 502.979 36.1802 503.12 33.3668C503.401 27.7402 506.214 24.9268 511.56 24.9268C514.514 24.9268 516.694 25.5598 518.101 26.8258C519.648 28.0918 520.422 30.0612 520.422 32.7338C520.422 38.7825 520.351 44.8312 520.211 50.8798C520.211 56.9285 520.14 62.5552 520 67.7598C520 72.9645 520 77.4658 520 81.2638C520 85.7652 519.929 91.0402 519.789 97.0888C519.789 102.997 519.648 109.327 519.367 116.079C519.226 122.69 518.874 129.372 518.312 136.124C517.89 142.876 517.327 149.206 516.624 155.114C515.498 161.725 513.318 167.633 510.083 172.838C506.847 177.902 502.487 181.911 497.001 184.865C491.655 187.678 484.974 189.085 476.956 189.085Z" fill="white"/>
<path d="M560.157 190.562C559.172 190.562 557.907 190.351 556.359 189.929C554.812 189.507 553.476 188.663 552.35 187.397C551.225 186.131 550.662 184.162 550.662 181.489C550.662 174.737 550.733 167.422 550.873 159.545C551.014 151.527 551.155 143.228 551.295 134.647C551.576 125.926 551.858 117.064 552.139 108.061C552.421 99.0582 552.702 90.1962 552.983 81.4748C553.265 72.6128 553.546 64.1025 553.827 55.9438C554.109 47.6445 554.39 39.9078 554.671 32.7338C554.812 29.9205 555.726 27.8808 557.414 26.6148C559.243 25.3488 561.353 24.7158 563.744 24.7158C566.839 24.7158 569.09 25.5598 570.496 27.2478C571.903 28.9358 572.536 31.0458 572.395 33.5778C572.255 39.7672 572.044 46.5895 571.762 54.0448C571.481 61.3595 571.2 69.0258 570.918 77.0438C570.778 84.9212 570.567 92.9392 570.285 101.098C569.863 115.446 569.512 129.231 569.23 142.454C569.09 155.536 568.879 168.266 568.597 180.645C568.597 182.192 568.316 183.74 567.753 185.287C567.191 186.834 566.276 188.1 565.01 189.085C563.885 190.07 562.267 190.562 560.157 190.562Z" fill="white"/>
<path d="M19.2719 29.751C18.0059 28.907 17.2322 27.852 16.9509 26.586C16.8102 25.1793 17.0212 23.9133 17.5839 22.788C18.1466 21.6627 18.9202 20.889 19.9049 20.467C21.0302 19.9043 22.2962 20.045 23.7029 20.889C26.3756 22.577 29.1186 23.843 31.9319 24.687C34.8859 25.3903 37.6992 25.742 40.3719 25.742C43.1852 25.742 45.7876 25.32 48.1789 24.476C50.5702 23.632 52.4692 22.5067 53.8759 21.1C51.3439 21.3813 48.9526 20.6077 46.7019 18.779C44.4512 16.9503 43.3259 14.2777 43.3259 10.761C43.3259 7.66633 44.2402 5.13433 46.0689 3.165C48.0382 1.055 50.4999 0 53.4539 0C56.9706 0 59.7839 1.266 61.8939 3.798C64.0039 6.32999 65.0589 9.70599 65.0589 13.926C65.0589 18.2867 63.8632 22.155 61.4719 25.531C59.2212 28.7663 56.1266 31.2983 52.1879 33.127C48.3899 34.9557 44.1699 35.87 39.5279 35.87C36.2926 35.87 32.9166 35.3777 29.3999 34.393C25.8832 33.4083 22.5072 31.861 19.2719 29.751Z" fill="#DDA15E"/>
<path d="M132.513 61.531C140.25 61.2496 148.057 59.9836 155.934 57.733C163.811 55.3416 170.352 52.7393 175.557 49.926C176.964 49.2226 178.3 49.1523 179.566 49.715C180.832 50.2776 181.817 51.2623 182.52 52.669C183.223 53.935 183.434 55.2713 183.153 56.678C182.872 58.0846 181.957 59.2099 180.41 60.0539C176.753 62.3046 172.322 64.4146 167.117 66.384C161.912 68.2126 156.426 69.76 150.659 71.026C145.032 72.1513 139.546 72.7843 134.201 72.925C132.513 72.925 131.177 72.4326 130.192 71.448C129.207 70.3226 128.645 69.0566 128.504 67.65C128.363 66.1026 128.574 64.7663 129.137 63.641C129.84 62.3749 130.966 61.6716 132.513 61.531Z" fill="#DDA15E"/>
<path d="M297.607 218.992C305.344 218.711 313.151 217.374 321.028 214.983C328.906 212.732 335.447 210.2 340.651 207.387C342.058 206.684 343.394 206.613 344.66 207.176C345.926 207.739 346.911 208.653 347.614 209.919C348.318 211.326 348.529 212.732 348.247 214.139C347.966 215.546 347.052 216.671 345.504 217.515C341.847 219.766 337.416 221.805 332.211 223.634C327.007 225.603 321.521 227.151 315.753 228.276C310.127 229.542 304.641 230.245 299.295 230.386C297.607 230.386 296.271 229.823 295.286 228.698C294.302 227.713 293.739 226.447 293.598 224.9C293.458 223.493 293.669 222.157 294.231 220.891C294.935 219.766 296.06 219.133 297.607 218.992Z" fill="#DDA15E"/>
<path d="M395.233 58.531C402.969 58.2496 410.776 56.9836 418.654 54.733C426.531 52.3416 433.072 49.7393 438.277 46.926C439.683 46.2226 441.02 46.1523 442.286 46.715C443.552 47.2776 444.536 48.2623 445.24 49.669C445.943 50.935 446.154 52.2713 445.873 53.678C445.591 55.0846 444.677 56.2099 443.13 57.0539C439.472 59.3046 435.041 61.4146 429.837 63.384C424.632 65.2126 419.146 66.76 413.379 68.026C407.752 69.1513 402.266 69.7843 396.921 69.925C395.233 69.925 393.896 69.4326 392.912 68.448C391.927 67.3226 391.364 66.0566 391.224 64.65C391.083 63.1026 391.294 61.7663 391.857 60.641C392.56 59.3749 393.685 58.6716 395.233 58.531Z" fill="#DDA15E"/>
<path d="M509.735 12.6328C515.784 12.6328 520.496 14.6021 523.872 18.5408C527.389 22.4795 529.147 27.1918 529.147 32.6778C529.147 37.8825 527.459 42.2432 524.083 45.7598C520.848 49.1358 516.487 50.8238 511.001 50.8238C505.656 50.8238 501.295 49.1358 497.919 45.7598C494.684 42.3838 493.066 38.3045 493.066 33.5218C493.066 28.7391 494.473 24.7301 497.286 21.4948C500.24 18.1188 504.108 16.4308 508.891 16.4308C510.016 16.4308 510.931 16.8528 511.634 17.6968C512.478 18.5408 512.97 19.5958 513.111 20.8618C513.252 21.9871 512.97 22.9718 512.267 23.8158C511.704 24.6598 510.579 25.0818 508.891 25.0818C506.5 25.0818 504.601 25.9961 503.194 27.8248C501.928 29.5128 501.295 31.2712 501.295 33.0998C501.295 35.7725 502.209 37.9528 504.038 39.6408C505.867 41.1881 508.117 41.9618 510.79 41.9618C513.603 41.9618 515.995 41.1881 517.964 39.6408C519.933 37.9528 520.918 35.6318 520.918 32.6778C520.918 29.8645 519.863 27.3325 517.753 25.0818C515.784 22.6905 513.041 21.4948 509.524 21.4948C508.399 21.4948 507.484 21.0728 506.781 20.2288C506.218 19.2442 505.937 18.1892 505.937 17.0638C505.937 15.9385 506.218 14.9538 506.781 14.1098C507.484 13.1251 508.469 12.6328 509.735 12.6328Z" fill="#DDA15E"/>
</svg>
