<?xml version="1.0" encoding="UTF-8"?>
<svg xmlns="http://www.w3.org/2000/svg" id="Layer_1" data-name="Layer 1" viewBox="0 0 24 24" width="512" height="512"><path d="M24,6.59L6.59,24h-1.59c-1.02,0-1.97-.31-2.76-.83L23.17,2.24c.52,.79,.83,1.74,.83,2.76v1.59ZM0,14.59L14.59,0h-5.17L0,9.41v5.17Zm24-5.17l-14.59,14.59h5.17l9.41-9.41v-5.17ZM19,0h-1.59L0,17.41v1.59c0,1.02,.31,1.97,.83,2.76L21.76,.83c-.79-.52-1.74-.83-2.76-.83ZM6.59,0h-1.59C2.24,0,0,2.24,0,5v1.59L6.59,0Zm10.83,24h1.59c2.76,0,5-2.24,5-5v-1.59l-6.59,6.59Z"/></svg>
