<svg width="654" height="239" viewBox="0 0 654 239" fill="none" xmlns="http://www.w3.org/2000/svg">
<path d="M138.838 177.452C135.743 177.452 132.438 176.819 128.921 175.553C125.404 174.287 122.028 172.388 118.793 169.856C115.558 167.183 112.815 163.948 110.564 160.15C108.454 156.211 107.118 151.64 106.555 146.435L113.307 128.922C113.87 133.845 115.206 138.417 117.316 142.637C119.426 146.716 122.31 150.022 125.967 152.554C129.624 154.945 133.915 156.141 138.838 156.141L142.636 159.095V174.92L138.838 177.452ZM48.741 202.772C38.8943 202.772 30.3137 200.381 22.999 195.598C15.6843 190.956 9.98733 184.767 5.908 177.03C1.96933 169.293 0 160.924 0 151.921C0 145.169 1.19567 138.417 3.587 131.665C5.97833 124.913 9.63567 118.583 14.559 112.675C19.4823 106.767 25.8123 101.844 33.549 97.905C35.659 96.7797 37.4877 96.217 39.035 96.217C41.0043 96.217 42.6923 96.9204 44.099 98.327C45.6463 99.593 46.7717 101.211 47.475 103.18C48.1783 105.149 48.3893 107.048 48.108 108.877C47.8267 110.706 46.842 112.112 45.154 113.097C39.3867 115.348 34.4633 118.302 30.384 121.959C26.3047 125.616 23.21 129.696 21.1 134.197C18.99 138.698 17.935 143.481 17.935 148.545C17.935 154.594 19.201 160.15 21.733 165.214C24.265 170.137 27.852 174.076 32.494 177.03C37.2767 179.984 42.9033 181.461 49.374 181.461C58.7987 181.461 66.6057 179.421 72.795 175.342C79.125 171.263 84.189 165.706 87.987 158.673C91.9257 151.499 94.8797 143.34 96.849 134.197C98.8183 125.054 100.084 115.418 100.647 105.29C101.35 95.0214 101.702 84.7527 101.702 74.484C101.702 68.998 101.561 63.3713 101.28 57.604C101.139 51.8367 100.928 46.2803 100.647 40.935C100.506 35.5897 100.295 30.807 100.014 26.587C99.8733 23.9144 100.717 21.8747 102.546 20.468C104.515 19.0613 106.625 18.358 108.876 18.358C110.986 18.358 112.885 18.991 114.573 20.257C116.402 21.523 117.386 23.4923 117.527 26.165C117.808 33.4797 118.019 41.146 118.16 49.164C118.441 57.182 118.582 65.4814 118.582 74.062C118.582 86.4407 118.09 98.8194 117.105 111.198C116.12 123.436 114.292 135.041 111.619 146.013C108.946 156.985 105.008 166.761 99.803 175.342C94.739 183.782 87.987 190.464 79.547 195.387C71.2477 200.31 60.979 202.772 48.741 202.772Z" fill="white"/>
<path d="M214.172 193.488C214.172 195.317 213.398 196.794 211.851 197.919C210.444 199.044 208.756 199.607 206.787 199.607C204.677 199.607 202.637 198.904 200.668 197.497C198.839 196.231 197.995 194.121 198.136 191.167C198.136 175.553 199.894 161.486 203.411 148.967C207.068 136.307 212.062 125.546 218.392 116.684C224.862 107.822 232.318 101 240.758 96.217C249.338 91.4344 258.482 89.043 268.188 89.043C275.362 89.043 281.762 90.5904 287.389 93.685C293.015 96.639 297.446 100.929 300.682 106.556C303.917 112.183 305.535 118.935 305.535 126.812C305.535 137.081 302.159 146.154 295.407 154.031C288.655 161.908 278.949 168.098 266.289 172.599C253.769 176.96 238.718 179.14 221.135 179.14C208.475 179.14 197.784 177.171 189.063 173.232C180.482 169.293 174.574 163.104 171.339 154.664C168.666 161.416 164.305 166.902 158.257 171.122C152.349 175.342 145.878 177.452 138.845 177.452L135.047 174.287V159.306L138.845 156.141C143.487 156.141 147.777 155.086 151.716 152.976C155.654 150.725 158.679 147.279 160.789 142.637C163.039 137.854 163.602 131.735 162.477 124.28C163.18 123.295 164.305 122.522 165.853 121.959C167.541 121.256 169.299 120.904 171.128 120.904C173.097 120.904 174.855 121.326 176.403 122.17C178.091 123.014 178.935 124.421 178.935 126.39C178.935 131.173 179.357 135.533 180.201 139.472C181.185 143.27 183.084 146.576 185.898 149.389C188.711 152.062 192.931 154.172 198.558 155.719C204.184 157.126 211.78 157.829 221.346 157.829C235.272 157.829 247.299 156.563 257.427 154.031C267.695 151.499 275.643 147.982 281.27 143.481C286.896 138.98 289.71 133.845 289.71 128.078C289.71 122.17 287.74 117.598 283.802 114.363C279.863 110.987 274.307 109.299 267.133 109.299C259.959 109.299 253.136 111.128 246.666 114.785C240.195 118.442 234.498 123.858 229.575 131.032C224.651 138.065 220.783 146.857 217.97 157.407C215.297 167.816 214.031 179.843 214.172 193.488Z" fill="white"/>
<path d="M342.755 178.929C341.629 178.929 340.504 178.718 339.379 178.296C338.253 177.874 337.269 177.03 336.425 175.764C335.721 174.498 335.229 172.529 334.948 169.856C334.666 163.104 334.455 155.86 334.315 148.123C334.174 140.386 334.174 132.298 334.315 123.858C334.455 115.418 334.666 106.837 334.948 98.116C335.229 89.3947 335.581 80.814 336.003 72.374C336.425 63.7934 336.847 55.5644 337.269 47.687C337.831 39.669 338.394 32.2137 338.957 25.321C339.238 22.5077 340.152 20.468 341.7 19.202C343.388 17.936 345.498 17.303 348.03 17.303C351.124 17.303 353.445 18.147 354.993 19.835C356.54 21.523 357.173 23.5627 356.892 25.954C356.329 30.174 355.766 36.0117 355.204 43.467C354.782 50.9223 354.36 59.292 353.938 68.576C353.516 77.7193 353.164 87.2847 352.883 97.272C352.601 107.119 352.39 116.754 352.25 126.179C352.25 135.463 352.25 143.833 352.25 151.288C352.39 158.743 352.601 164.651 352.883 169.012C353.164 172.388 352.461 174.92 350.773 176.608C349.225 178.155 346.553 178.929 342.755 178.929Z" fill="white"/>
<path d="M375.69 238.431C373.299 238.853 371.33 238.501 369.782 237.376C368.094 236.391 366.828 234.985 365.984 233.156C365.14 231.327 364.718 229.358 364.718 227.248C364.718 225.279 365.211 223.45 366.195 221.762C367.039 220.215 368.376 219.23 370.204 218.808C379.91 217.261 388.983 214.658 397.423 211.001C405.863 207.484 413.248 202.702 419.578 196.653C425.908 190.745 430.55 183.571 433.504 175.131C424.08 175.131 415.78 173.724 408.606 170.911C401.432 168.098 395.806 163.948 391.726 158.462C387.788 152.976 385.818 146.294 385.818 138.417C385.818 130.821 387.225 124.21 390.038 118.583C392.992 112.816 396.861 108.385 401.643 105.29C406.426 102.055 411.701 100.437 417.468 100.437C424.22 100.437 430.269 102.899 435.614 107.822C441.1 112.605 445.391 119.638 448.485 128.922C451.58 138.065 452.916 149.248 452.494 162.471C452.072 173.443 449.4 183.43 444.476 192.433C439.694 201.436 433.504 209.172 425.908 215.643C418.453 222.254 410.294 227.459 401.432 231.257C392.711 235.196 384.13 237.587 375.69 238.431ZM438.568 155.086C438.428 142.426 436.529 133.212 432.871 127.445C429.214 121.537 424.15 118.583 417.679 118.583C412.193 118.583 407.833 120.341 404.597 123.858C401.362 127.234 399.744 131.595 399.744 136.94C399.744 143.411 402.839 148.053 409.028 150.866C415.218 153.679 425.064 155.086 438.568 155.086ZM445.953 177.452L449.962 156.141H466.42V177.452H445.953ZM466.42 177.452V156.141L470.218 158.673V174.076L466.42 177.452Z" fill="white"/>
<path d="M466.472 177.452L462.674 174.92V158.673L466.472 156.141C471.958 156.141 477.725 155.508 483.774 154.242C489.963 152.976 496.012 151.218 501.92 148.967C507.828 146.716 513.173 144.044 517.956 140.949C522.738 137.714 526.536 134.267 529.35 130.61C532.304 126.812 533.781 122.873 533.781 118.794C533.781 114.855 532.796 111.409 530.827 108.455C528.998 105.36 526.466 102.899 523.231 101.07C519.995 99.2414 516.338 98.327 512.259 98.327C506.21 98.327 501.146 100.226 497.067 104.024C492.987 107.822 490.948 112.745 490.948 118.794C490.948 124.28 492.917 129.274 496.856 133.775C500.935 138.276 506.28 142.215 512.892 145.591C519.503 148.967 526.747 151.569 534.625 153.398C542.643 155.227 550.52 156.141 558.257 156.141L562.055 159.306V175.342L558.257 177.452C550.942 177.452 543.346 176.467 535.469 174.498C527.732 172.388 520.277 169.504 513.103 165.847C505.929 162.19 499.458 157.899 493.691 152.976C488.064 147.912 483.563 142.426 480.187 136.518C476.951 130.61 475.334 124.421 475.334 117.95C475.334 110.354 476.881 103.602 479.976 97.694C483.211 91.6453 487.642 86.933 493.269 83.557C498.895 80.0404 505.225 78.282 512.259 78.282C519.292 78.282 525.552 80.0404 531.038 83.557C536.664 87.0737 541.095 91.8564 544.331 97.905C547.707 103.813 549.395 110.495 549.395 117.95C549.395 124.561 547.707 130.891 544.331 136.94C540.955 142.848 536.313 148.264 530.405 153.187C524.637 158.11 518.167 162.401 510.993 166.058C503.819 169.715 496.363 172.529 488.627 174.498C481.031 176.467 473.646 177.452 466.472 177.452ZM511.415 53.806C509.445 53.806 507.757 53.2433 506.351 52.118C505.085 50.9927 504.1 49.586 503.397 47.898C502.834 46.21 502.553 44.4517 502.553 42.623C502.553 39.1063 503.467 36.2227 505.296 33.972C507.124 31.5807 509.305 30.385 511.837 30.385C514.369 30.385 516.408 31.018 517.956 32.284C519.644 33.4093 520.839 34.8863 521.543 36.715C522.387 38.403 522.809 40.2317 522.809 42.201C522.809 45.999 521.683 48.8827 519.433 50.852C517.323 52.8213 514.65 53.806 511.415 53.806Z" fill="white"/>
<path d="M558.166 177.452L554.368 175.131V159.306L558.166 156.141C565.621 156.141 571.318 153.961 575.257 149.6C579.196 145.239 581.446 138.769 582.009 130.188C582.572 123.436 582.923 116.825 583.064 110.354C583.345 103.743 583.556 96.5687 583.697 88.832C583.838 81.0953 583.908 72.3037 583.908 62.457C584.049 52.751 584.119 44.2407 584.119 36.926C584.119 29.6113 584.189 24.5473 584.33 21.734C584.611 16.1073 587.425 13.294 592.77 13.294C595.724 13.294 597.904 13.927 599.311 15.193C600.858 16.459 601.632 18.4283 601.632 21.101C601.632 27.1497 601.562 33.1983 601.421 39.247C601.421 45.2957 601.351 50.9223 601.21 56.127C601.21 61.3317 601.21 65.833 601.21 69.631C601.21 74.1323 601.14 79.4074 600.999 85.456C600.999 91.364 600.858 97.694 600.577 104.446C600.436 111.057 600.085 117.739 599.522 124.491C599.1 131.243 598.537 137.573 597.834 143.481C596.709 150.092 594.528 156 591.293 161.205C588.058 166.269 583.697 170.278 578.211 173.232C572.866 176.045 566.184 177.452 558.166 177.452Z" fill="white"/>
<path d="M641.367 178.929C640.383 178.929 639.117 178.718 637.569 178.296C636.022 177.874 634.686 177.03 633.56 175.764C632.435 174.498 631.872 172.529 631.872 169.856C631.872 163.104 631.943 155.789 632.083 147.912C632.224 139.894 632.365 131.595 632.505 123.014C632.787 114.293 633.068 105.431 633.349 96.428C633.631 87.4254 633.912 78.5633 634.193 69.842C634.475 60.98 634.756 52.4697 635.037 44.311C635.319 36.0117 635.6 28.275 635.881 21.101C636.022 18.2877 636.936 16.248 638.624 14.982C640.453 13.716 642.563 13.083 644.954 13.083C648.049 13.083 650.3 13.927 651.706 15.615C653.113 17.303 653.746 19.413 653.605 21.945C653.465 28.1343 653.254 34.9567 652.972 42.412C652.691 49.7267 652.41 57.393 652.128 65.411C651.988 73.2884 651.777 81.3064 651.495 89.465C651.073 103.813 650.722 117.598 650.44 130.821C650.3 143.903 650.089 156.633 649.807 169.012C649.807 170.559 649.526 172.107 648.963 173.654C648.401 175.201 647.486 176.467 646.22 177.452C645.095 178.437 643.477 178.929 641.367 178.929Z" fill="white"/>
<path d="M90.9674 33.1182C89.7014 32.2742 88.9278 31.2192 88.6464 29.9532C88.5058 28.5465 88.7168 27.2805 89.2795 26.1552C89.8421 25.0298 90.6158 24.2562 91.6005 23.8342C92.7258 23.2715 93.9918 23.4122 95.3985 24.2562C98.0711 25.9442 100.814 27.2102 103.627 28.0542C106.581 28.7575 109.395 29.1092 112.067 29.1092C114.881 29.1092 117.483 28.6872 119.874 27.8432C122.266 26.9992 124.165 25.8739 125.571 24.4672C123.039 24.7485 120.648 23.9749 118.397 22.1462C116.147 20.3175 115.021 17.6449 115.021 14.1282C115.021 11.0335 115.936 8.50152 117.764 6.53218C119.734 4.42219 122.195 3.36719 125.149 3.36719C128.666 3.36719 131.479 4.63319 133.589 7.16519C135.699 9.69718 136.754 13.0732 136.754 17.2932C136.754 21.6539 135.559 25.5222 133.167 28.8982C130.917 32.1335 127.822 34.6655 123.883 36.4942C120.085 38.3229 115.865 39.2372 111.223 39.2372C107.988 39.2372 104.612 38.7449 101.095 37.7602C97.5788 36.7755 94.2028 35.2282 90.9674 33.1182Z" fill="#DDA15E"/>
<path d="M229.222 209.359C236.958 209.078 244.765 207.741 252.643 205.35C260.52 203.099 267.061 200.567 272.266 197.754C273.672 197.051 275.009 196.98 276.275 197.543C277.541 198.106 278.525 199.02 279.229 200.286C279.932 201.693 280.143 203.099 279.862 204.506C279.58 205.913 278.666 207.038 277.119 207.882C273.461 210.133 269.03 212.172 263.826 214.001C258.621 215.97 253.135 217.518 247.368 218.643C241.741 219.909 236.255 220.612 230.91 220.753C229.222 220.753 227.885 220.19 226.901 219.065C225.916 218.08 225.353 216.814 225.213 215.267C225.072 213.86 225.283 212.524 225.846 211.258C226.549 210.133 227.674 209.5 229.222 209.359Z" fill="#DDA15E"/>
<path d="M392.167 63.8982C399.903 63.6168 407.71 62.3508 415.588 60.1001C423.465 57.7088 430.006 55.1065 435.211 52.2931C436.617 51.5898 437.954 51.5195 439.22 52.0821C440.486 52.6448 441.47 53.6295 442.174 55.0362C442.877 56.3022 443.088 57.6385 442.807 59.0451C442.525 60.4518 441.611 61.5771 440.064 62.4211C436.406 64.6718 431.975 66.7818 426.771 68.7512C421.566 70.5798 416.08 72.1271 410.313 73.3931C404.686 74.5185 399.2 75.1515 393.855 75.2922C392.167 75.2922 390.83 74.7998 389.846 73.8151C388.861 72.6898 388.298 71.4238 388.158 70.0171C388.017 68.4698 388.228 67.1335 388.791 66.0081C389.494 64.7421 390.619 64.0388 392.167 63.8982Z" fill="#DDA15E"/>
<path d="M486.952 18.8981C494.688 18.6168 502.495 17.3508 510.373 15.1001C518.25 12.7088 524.791 10.1065 529.996 7.29314C531.402 6.58981 532.739 6.51948 534.005 7.08214C535.271 7.64481 536.255 8.62948 536.959 10.0361C537.662 11.3021 537.873 12.6385 537.592 14.0451C537.31 15.4518 536.396 16.5771 534.849 17.4211C531.191 19.6718 526.76 21.7818 521.556 23.7511C516.351 25.5798 510.865 27.1271 505.098 28.3931C499.471 29.5185 493.985 30.1515 488.64 30.2921C486.952 30.2921 485.615 29.7998 484.631 28.8151C483.646 27.6898 483.083 26.4238 482.943 25.0171C482.802 23.4698 483.013 22.1335 483.576 21.0081C484.279 19.7421 485.404 19.0388 486.952 18.8981Z" fill="#DDA15E"/>
<path d="M590.945 0C596.994 0 601.706 1.96933 605.082 5.908C608.599 9.84667 610.357 14.559 610.357 20.045C610.357 25.2497 608.669 29.6103 605.293 33.127C602.058 36.503 597.697 38.191 592.211 38.191C586.866 38.191 582.505 36.503 579.129 33.127C575.894 29.751 574.276 25.6717 574.276 20.889C574.276 16.1063 575.683 12.0973 578.496 8.862C581.45 5.486 585.318 3.798 590.101 3.798C591.226 3.798 592.141 4.22 592.844 5.06401C593.688 5.90801 594.18 6.96301 594.321 8.22901C594.462 9.35433 594.18 10.339 593.477 11.183C592.914 12.027 591.789 12.449 590.101 12.449C587.71 12.449 585.811 13.3633 584.404 15.192C583.138 16.88 582.505 18.6383 582.505 20.467C582.505 23.1397 583.419 25.32 585.248 27.008C587.077 28.5553 589.327 29.329 592 29.329C594.813 29.329 597.205 28.5553 599.174 27.008C601.143 25.32 602.128 22.999 602.128 20.045C602.128 17.2317 601.073 14.6997 598.963 12.449C596.994 10.0577 594.251 8.862 590.734 8.862C589.609 8.862 588.694 8.44 587.991 7.596C587.428 6.61134 587.147 5.55634 587.147 4.43101C587.147 3.30567 587.428 2.321 587.991 1.47701C588.694 0.492335 589.679 0 590.945 0Z" fill="#DDA15E"/>
</svg>
