<svg fill="none" height="350" viewBox="0 0 1100 350" width="1100" xmlns="http://www.w3.org/2000/svg"><g fill="#fff"><path d="m1050 0h50v250h-50z"/><path d="m450 0h50v250h-50z"/><path d="m100 0h50v350h-50z"/><path d="m350 100h50v150h-50z"/><path d="m200 100h50v150h-50z"/><path d="m0 200h50v150h-50z"/><path d="m150 300h50v150h-50z" transform="matrix(0 1 -1 0 450 150)"/><path d="m400 100h50v200h-50z" transform="matrix(0 1 -1 0 500 -300)"/><path d="m400 200h50v300h-50z" transform="matrix(0 1 -1 0 600 -200)"/><path d="m950 0h50v250h-50z"/><path d="m1000 200h50v350h-50z" transform="matrix(0 1 -1 0 1200 -800)"/><path d="m750 150v-50h150v50z"/><path d="m550 200v-50h150v50z"/><path d="m750 50v-50h150v50z"/><path d="m550 100v-50h150v50z"/><path d="m800 150h-50v-150h50z"/><path d="m600 200h-50v-150h50z"/><path d="m850 0h50v250h-50z"/><path d="m650 50h50v300h-50z"/></g><path d="m500 300v50h-300v-50z" fill="#cdad80"/><path d="m400 0v50h-200v-50.00000874z" fill="#cdad80"/><path d="m0 0h50v150h-50z" fill="#cdad80"/><path d="m1100 300v50h-350v-50z" fill="#cdad80"/><path d="m700 300v50h-150v-50z" fill="#fff"/><path d="m900 0v50h-50v-50z" fill="#cdad80"/></svg>