<svg width="594" height="223" viewBox="0 0 594 223" fill="none" xmlns="http://www.w3.org/2000/svg">
<path d="M70.685 178.351C57.3217 178.351 45.2947 176.593 34.604 173.076C23.9133 169.419 15.4733 164.003 9.284 156.829C3.09467 149.514 0 140.371 0 129.399C0 120.537 2.67267 112.027 8.018 103.868C13.3633 95.7094 21.522 89.2387 32.494 84.456C33.9007 83.8934 35.237 83.4714 36.503 83.19C37.769 82.768 38.8943 82.557 39.879 82.557C41.4263 82.557 42.7627 83.2604 43.888 84.667C45.0133 85.933 45.8573 87.4804 46.42 89.309C47.1233 90.997 47.475 92.5444 47.475 93.951C47.475 95.3577 46.9827 96.6237 45.998 97.749C45.154 98.7337 43.888 99.5777 42.2 100.281C33.9007 103.376 27.852 107.103 24.054 111.464C20.3967 115.825 18.568 120.678 18.568 126.023C18.568 132.775 20.9593 138.402 25.742 142.903C30.5247 147.404 36.9953 150.78 45.154 153.031C53.4533 155.141 62.7373 156.196 73.006 156.196C82.8527 156.196 92.3477 155.352 101.491 153.664C110.634 151.976 118.863 149.444 126.178 146.068C133.633 142.551 139.682 138.331 144.324 133.408C148.966 128.344 151.709 122.506 152.553 115.895C152.834 112.378 153.678 109.987 155.085 108.721C156.492 107.455 158.953 106.822 162.47 106.822C165.424 106.822 167.464 107.877 168.589 109.987C169.855 111.956 170.347 114.277 170.066 116.95C169.925 118.497 169.644 119.904 169.222 121.17C168.941 122.436 168.659 123.632 168.378 124.757C167.253 130.665 167.393 135.94 168.8 140.582C170.347 145.083 172.95 148.67 176.607 151.343C180.264 153.875 184.766 155.141 190.111 155.141L193.909 158.517V173.709L190.111 176.452C184.062 176.452 178.717 175.116 174.075 172.443C169.433 169.63 165.635 165.972 162.681 161.471C159.868 156.829 158.039 151.835 157.195 146.49C153.538 151.554 148.614 156.055 142.425 159.994C136.376 163.933 129.484 167.309 121.747 170.122C114.151 172.795 105.992 174.834 97.271 176.241C88.5497 177.648 79.6877 178.351 70.685 178.351ZM78.281 80.869C77.5777 82.2757 76.6633 83.3307 75.538 84.034C74.5533 84.5967 73.4983 84.878 72.373 84.878C70.4037 84.878 68.6453 84.1044 67.098 82.557C65.6913 80.869 65.4803 78.759 66.465 76.227C70.5443 65.677 75.327 57.5887 80.813 51.962C86.299 46.1947 91.6443 43.311 96.849 43.311C99.381 43.311 101.983 44.0143 104.656 45.421C107.329 46.687 109.931 48.9377 112.463 52.173C114.995 55.2677 117.175 59.4877 119.004 64.833C119.848 67.0837 119.918 69.053 119.215 70.741C118.652 72.2883 117.738 73.484 116.472 74.328C115.206 75.0313 113.87 75.383 112.463 75.383C111.338 75.383 110.283 75.1017 109.298 74.539C108.454 73.9763 107.821 73.2027 107.399 72.218C105.43 67.7167 103.531 64.411 101.702 62.301C100.014 60.191 98.115 59.136 96.005 59.136C93.6137 59.136 90.8707 61.1757 87.776 65.255C84.6813 69.3343 81.5163 74.539 78.281 80.869Z" fill="white"/>
<path d="M190.172 176.452V155.141C196.783 155.141 202.058 153.453 205.997 150.077C210.076 146.56 213.101 142.059 215.07 136.573C217.039 131.087 218.305 125.249 218.868 119.06C219.431 112.871 219.571 106.963 219.29 101.336C219.149 98.5227 219.782 96.3424 221.189 94.795C222.736 93.107 224.846 92.263 227.519 92.263C230.614 92.263 232.864 93.2477 234.271 95.217C235.818 97.1864 236.662 100.14 236.803 104.079C237.084 114.77 236.311 124.546 234.482 133.408C232.653 142.27 229.77 149.936 225.831 156.407C221.892 162.737 216.969 167.66 211.061 171.177C205.153 174.694 198.19 176.452 190.172 176.452ZM190.172 176.452L186.374 174.131V157.673L190.172 155.141V176.452ZM200.933 222.028C196.572 223.013 193.337 222.591 191.227 220.762C189.117 219.074 188.062 216.542 188.062 213.166C188.062 210.212 189.398 208.102 192.071 206.836C194.884 205.57 198.401 204.585 202.621 203.882C207.263 202.897 211.835 202.335 216.336 202.194C220.978 202.194 225.057 202.335 228.574 202.616C230.825 202.757 232.653 203.39 234.06 204.515C235.467 205.781 236.381 207.258 236.803 208.946C237.225 210.634 237.225 212.322 236.803 214.01C236.381 215.698 235.467 217.105 234.06 218.23C232.653 219.355 230.825 219.918 228.574 219.918C224.495 219.918 219.993 219.988 215.07 220.129C210.147 220.27 205.434 220.903 200.933 222.028Z" fill="white"/>
<path d="M290.822 177.296C286.462 177.296 282.242 177.155 278.162 176.874C274.083 176.733 270.215 176.311 266.557 175.608C264.869 175.327 263.533 174.412 262.548 172.865C261.704 171.318 261.142 169.559 260.86 167.59C260.72 165.48 260.86 163.511 261.282 161.682C261.704 159.713 262.478 158.095 263.603 156.829C264.729 155.422 266.206 154.719 268.034 154.719C269.16 154.719 271.551 155 275.208 155.563C278.866 155.985 284.563 156.196 292.299 156.196C296.379 156.196 300.317 155.985 304.115 155.563C307.913 155.141 311.219 154.508 314.032 153.664C316.986 152.679 319.096 151.554 320.362 150.288C321.769 148.881 321.98 147.264 320.995 145.435C316.775 136.995 313.329 128.414 310.656 119.693C308.124 110.972 306.085 102.532 304.537 94.373C304.256 92.685 304.537 91.208 305.381 89.942C306.366 88.676 307.632 87.6914 309.179 86.988C310.727 86.144 312.274 85.722 313.821 85.722C315.369 85.722 316.705 86.144 317.83 86.988C319.096 87.6914 319.94 89.0277 320.362 90.997C321.91 98.8744 323.949 106.681 326.481 114.418C329.013 122.014 332.038 129.329 335.554 136.362C338.649 142.411 342.095 147.053 345.893 150.288C349.832 153.523 354.122 155.141 358.764 155.141L362.562 158.095V173.92L358.764 176.452C352.997 176.171 347.933 174.834 343.572 172.443C339.212 169.911 335.625 166.254 332.811 161.471C330.983 165.41 327.888 168.575 323.527 170.966C319.307 173.217 314.314 174.834 308.546 175.819C302.92 176.804 297.012 177.296 290.822 177.296Z" fill="white"/>
<path d="M497.352 176.452C491.725 176.452 486.52 175.186 481.738 172.654C477.096 170.122 473.016 166.676 469.5 162.315C466.124 157.954 463.451 152.961 461.482 147.334C459.512 141.567 458.457 135.518 458.317 129.188L470.555 124.335C470.695 130.384 471.891 135.729 474.142 140.371C476.533 145.013 479.698 148.67 483.637 151.343C487.716 153.875 492.288 155.141 497.352 155.141L501.15 158.517V173.92L497.352 176.452ZM358.725 176.452L354.927 173.92V158.517L358.725 155.141C369.134 155.141 379.051 153.805 388.476 151.132C397.9 148.459 406.903 145.083 415.484 141.004C424.205 136.925 432.504 132.775 440.382 128.555C448.259 124.194 455.785 120.396 462.959 117.161C457.473 116.317 451.846 114.91 446.079 112.941C440.452 110.972 434.825 108.932 429.199 106.822C423.713 104.712 418.508 102.883 413.585 101.336C408.661 99.7887 404.371 99.015 400.714 99.015C396.353 99.015 393.188 100.07 391.219 102.18C389.39 104.29 388.476 106.963 388.476 110.198C388.476 111.183 388.546 112.308 388.687 113.574C388.968 114.699 389.249 115.825 389.531 116.95C390.093 118.357 389.953 119.693 389.109 120.959C388.265 122.225 387.069 123.28 385.522 124.124C384.115 124.827 382.568 125.179 380.88 125.179C379.192 125.179 377.644 124.757 376.238 123.913C374.831 122.928 373.917 121.381 373.495 119.271C373.073 117.302 372.721 115.332 372.44 113.363C372.158 111.253 372.018 109.284 372.018 107.455C372.018 102.391 372.932 97.8194 374.761 93.74C376.589 89.52 379.403 86.2143 383.201 83.823C386.999 81.291 391.852 80.025 397.76 80.025C401.698 80.025 406.2 80.7283 411.264 82.135C416.468 83.5417 422.025 85.3704 427.933 87.621C433.841 89.731 439.96 91.9114 446.29 94.162C452.62 96.272 458.95 98.1007 465.28 99.648C471.61 101.195 477.658 102.039 483.426 102.18C484.692 102.18 485.747 102.813 486.591 104.079C487.435 105.345 488.068 106.892 488.49 108.721C488.912 110.55 489.052 112.519 488.912 114.629C488.771 116.598 488.349 118.427 487.646 120.115C487.083 121.803 486.169 122.999 484.903 123.702C475.478 128.063 466.757 132.705 458.739 137.628C450.721 142.411 442.914 147.123 435.318 151.765C427.862 156.407 420.266 160.627 412.53 164.425C404.793 168.082 396.564 171.036 387.843 173.287C379.121 175.397 369.415 176.452 358.725 176.452Z" fill="white"/>
<path d="M497.4 176.452L493.602 174.131V158.306L497.4 155.141C504.855 155.141 510.552 152.961 514.491 148.6C518.429 144.239 520.68 137.769 521.243 129.188C521.805 122.436 522.157 115.825 522.298 109.354C522.579 102.743 522.79 95.5687 522.931 87.832C523.071 80.0953 523.142 71.3037 523.142 61.457C523.282 51.751 523.353 43.2407 523.353 35.926C523.353 28.6113 523.423 23.5473 523.564 20.734C523.845 15.1073 526.658 12.294 532.004 12.294C534.958 12.294 537.138 12.927 538.545 14.193C540.092 15.459 540.866 17.4283 540.866 20.101C540.866 26.1497 540.795 32.1983 540.655 38.247C540.655 44.2957 540.584 49.9223 540.444 55.127C540.444 60.3317 540.444 64.833 540.444 68.631C540.444 73.1323 540.373 78.4074 540.233 84.456C540.233 90.364 540.092 96.694 539.811 103.446C539.67 110.057 539.318 116.739 538.756 123.491C538.334 130.243 537.771 136.573 537.068 142.481C535.942 149.092 533.762 155 530.527 160.205C527.291 165.269 522.931 169.278 517.445 172.232C512.099 175.045 505.418 176.452 497.4 176.452Z" fill="white"/>
<path d="M580.601 177.929C579.757 177.929 578.772 177.788 577.647 177.507C576.522 177.226 575.396 176.733 574.271 176.03C573.286 175.327 572.442 174.272 571.739 172.865C571.176 171.318 570.965 169.419 571.106 167.168C571.106 160.416 571.247 153.172 571.528 145.435C571.809 137.558 572.161 129.399 572.583 120.959C573.005 112.519 573.427 104.009 573.849 95.428C574.271 86.7067 574.623 78.126 574.904 69.686C575.326 61.1054 575.537 52.806 575.537 44.788C575.678 36.77 575.537 29.174 575.115 22C574.974 18.4833 575.748 15.9513 577.436 14.404C579.265 12.8567 581.304 12.083 583.555 12.083C586.79 12.083 589.111 12.927 590.518 14.615C592.065 16.303 592.909 18.3427 593.05 20.734C593.472 25.2353 593.613 31.3543 593.472 39.091C593.472 46.8277 593.261 55.4787 592.839 65.044C592.558 74.6093 592.206 84.456 591.784 94.584C591.362 104.712 590.87 114.559 590.307 124.124C589.885 133.549 589.533 142.129 589.252 149.866C589.111 157.462 589.041 163.511 589.041 168.012C589.041 171.388 588.408 173.92 587.142 175.608C585.876 177.155 583.696 177.929 580.601 177.929Z" fill="white"/>
<path d="M71.4483 121.118C70.1823 120.274 69.4086 119.219 69.1273 117.953C68.9866 116.547 69.1976 115.281 69.7603 114.155C70.3229 113.03 71.0966 112.256 72.0813 111.834C73.2066 111.272 74.4726 111.412 75.8793 112.256C78.5519 113.944 81.295 115.21 84.1083 116.054C87.0623 116.758 89.8756 117.109 92.5483 117.109C95.3616 117.109 97.964 116.687 100.355 115.843C102.747 114.999 104.646 113.874 106.052 112.467C103.52 112.749 101.129 111.975 98.8783 110.146C96.6276 108.318 95.5023 105.645 95.5023 102.128C95.5023 99.0335 96.4166 96.5015 98.2453 94.5322C100.215 92.4222 102.676 91.3672 105.63 91.3672C109.147 91.3672 111.96 92.6332 114.07 95.1652C116.18 97.6972 117.235 101.073 117.235 105.293C117.235 109.654 116.04 113.522 113.648 116.898C111.398 120.134 108.303 122.666 104.364 124.494C100.566 126.323 96.3463 127.237 91.7043 127.237C88.469 127.237 85.0929 126.745 81.5763 125.76C78.0596 124.776 74.6836 123.228 71.4483 121.118Z" fill="#DDA15E"/>
<path d="M276.222 206.359C283.959 206.078 291.766 204.741 299.643 202.35C307.52 200.099 314.061 197.567 319.266 194.754C320.673 194.051 322.009 193.98 323.275 194.543C324.541 195.106 325.526 196.02 326.229 197.286C326.932 198.693 327.143 200.099 326.862 201.506C326.581 202.913 325.666 204.038 324.119 204.882C320.462 207.133 316.031 209.172 310.826 211.001C305.621 212.97 300.135 214.518 294.368 215.643C288.741 216.909 283.255 217.612 277.91 217.753C276.222 217.753 274.886 217.19 273.901 216.065C272.916 215.08 272.354 213.814 272.213 212.267C272.072 210.86 272.283 209.524 272.846 208.258C273.549 207.133 274.675 206.5 276.222 206.359Z" fill="#DDA15E"/>
<path d="M404.55 33.8981C412.286 33.6168 420.093 32.3508 427.971 30.1001C435.848 27.7088 442.389 25.1065 447.594 22.2931C449 21.5898 450.337 21.5195 451.603 22.0821C452.869 22.6448 453.853 23.6295 454.557 25.0361C455.26 26.3021 455.471 27.6385 455.19 29.0451C454.908 30.4518 453.994 31.5771 452.447 32.4211C448.789 34.6718 444.358 36.7818 439.154 38.7511C433.949 40.5798 428.463 42.1271 422.696 43.3932C417.069 44.5185 411.583 45.1515 406.238 45.2921C404.55 45.2921 403.213 44.7998 402.229 43.8151C401.244 42.6898 400.681 41.4238 400.541 40.0171C400.4 38.4698 400.611 37.1335 401.174 36.0081C401.877 34.7421 403.002 34.0388 404.55 33.8981Z" fill="#DDA15E"/>
<path d="M530.179 0C536.227 0 540.94 1.96933 544.316 5.908C547.832 9.84667 549.591 14.559 549.591 20.045C549.591 25.2497 547.903 29.6103 544.527 33.127C541.291 36.503 536.931 38.191 531.445 38.191C526.099 38.191 521.739 36.503 518.363 33.127C515.127 29.751 513.51 25.6717 513.51 20.889C513.51 16.1063 514.916 12.0973 517.73 8.862C520.684 5.486 524.552 3.798 529.335 3.798C530.46 3.798 531.374 4.22 532.078 5.06401C532.922 5.90801 533.414 6.96301 533.555 8.22901C533.695 9.35433 533.414 10.339 532.711 11.183C532.148 12.027 531.023 12.449 529.335 12.449C526.943 12.449 525.044 13.3633 523.638 15.192C522.372 16.88 521.739 18.6383 521.739 20.467C521.739 23.1397 522.653 25.32 524.482 27.008C526.31 28.5553 528.561 29.329 531.234 29.329C534.047 29.329 536.438 28.5553 538.408 27.008C540.377 25.32 541.362 22.999 541.362 20.045C541.362 17.2317 540.307 14.6997 538.197 12.449C536.227 10.0577 533.484 8.862 529.968 8.862C528.842 8.862 527.928 8.44 527.225 7.596C526.662 6.61134 526.381 5.55634 526.381 4.43101C526.381 3.30567 526.662 2.321 527.225 1.47701C527.928 0.492335 528.913 0 530.179 0Z" fill="#DDA15E"/>
</svg>
