<svg fill="none" height="350" viewBox="0 0 1100 350" width="1100" xmlns="http://www.w3.org/2000/svg"><g fill="#fff"><path d="m1050 0h50v250h-50z"/><path d="m950 0h50v250h-50z"/><path d="m500 250h50v500h-50z" transform="matrix(0 -1 1 0 250 750)"/><path d="m900 250h50v150h-50z" transform="matrix(-1 0 0 -1 1800 500)"/><path d="m900 100h50v150h-50z" transform="matrix(0 1 -1 0 1000 -800)"/><path d="m650 250h50v150h-50z" transform="matrix(-1 0 0 -1 1300 500)"/><path d="m450 250h50v150h-50z" transform="matrix(-1 0 0 -1 900 500)"/><path d="m350 250h50v150h-50z" transform="matrix(-1 0 0 -1 700 500)"/><path d="m50 250h50v150h-50z" transform="matrix(-1 0 0 -1 100 500)"/><path d="m100 150h50v150h-50z" transform="matrix(0 -1 1 0 -50 250)"/><path d="m0 250h50v350h-50z" transform="matrix(0 -1 1 0 -250 250)"/><path d="m300 250h50v150h-50z" transform="matrix(0 -1 1 0 50 550)"/><path d="m500 150h50v150h-50z" transform="matrix(0 -1 1 0 350 650)"/></g><path d="m0 350h50v300h-50z" fill="#cdad80" transform="matrix(0 -1 1 0 -350 350)"/><path d="m350 350h50v100h-50z" fill="#fff" transform="matrix(0 -1 1 0 0 700)"/><path d="m0 50h50v900h-50z" fill="#cdad80" transform="matrix(0 -1 1 0 -50 50)"/><path d="m500 350h50v600h-50z" fill="#cdad80" transform="matrix(0 -1 1 0 150 850)"/></svg>