<svg fill="none" height="950" viewBox="0 0 1250 950" width="1250" xmlns="http://www.w3.org/2000/svg"><path d="m999.999 200h50v150h-50z" fill="#fff"/><path d="m899.999 200h50v150h-50z" fill="#fff"/><path d="m1000 300h50v1000h-50z" fill="#fff" transform="matrix(0 1 -1 0 1300 -700)"/><path d="m1150 200h50v250h-50z" fill="#fff" transform="matrix(0 1 -1 0 1350 -950)"/><path d="m1050 300h50v100h-50z" fill="#fff" transform="matrix(0 1 -1 0 1350 -750)"/><path d="m749.999 200h50v150h-50z" fill="#fff"/><path d="m799.999 200h50v250h-50z" fill="#fff" transform="matrix(0 1 -1 0 999.999 -599.999)"/><path d="m799.999 100h50v250h-50z" fill="#fff" transform="matrix(0 1 -1 0 899.999 -699.999)"/><path d="m599.999 250h50v150h-50z" fill="#fff" transform="matrix(-1 0 0 -1 1199.998 500)"/><path d="m499.999 350h50v150h-50z" fill="#fff" transform="matrix(-1 0 0 -1 999.998 700)"/><path d="m299.999 350h50v150h-50z" fill="#fff" transform="matrix(-1 0 0 -1 599.998 700)"/><path d="m150 350h50v250h-50z" fill="#fff" transform="matrix(-1 0 0 -1 300 700)"/><path d="m150 850h50v250h-50z" fill="#fff" transform="matrix(-1 0 0 -1 300 1700)"/><path d="m50.0005 350h50v150h-50z" fill="#fff" transform="matrix(-1 0 0 -1 100.001 700)"/><path d="m50.0005 850h50v150h-50z" fill="#fff" transform="matrix(-1 0 0 -1 100.001 1700)"/><path d="m.000488 250h50v150h-50z" fill="#fff" transform="matrix(0 -1 1 0 -249.999512 250.000488)"/><path d="m.000488 750h50v150h-50z" fill="#fff" transform="matrix(0 -1 1 0 -749.999512 750.000488)"/><path d="m0 450h50v200h-50z" fill="#cdad80" transform="matrix(0 -1 1 0 -450 450)"/><path d="m0 550h50v450h-50z" fill="#cdad80" transform="matrix(0 -1 1 0 -550 550)"/><path d="m700 550h50v250h-50z" fill="#cdad80" transform="matrix(0 -1 1 0 150 1250)"/><path d="m700 650h50v250h-50z" fill="#cdad80" transform="matrix(0 -1 1 0 50 1350)"/><path d="m200 650h50v250h-50z" fill="#cdad80" transform="matrix(0 -1 1 0 -450 850)"/><path d="m0 950h50v100h-50z" fill="#cdad80" transform="matrix(0 -1 1 0 -950 950)"/><path d="m250 450h50v50h-50z" fill="#fff" transform="matrix(0 -1 1 0 -200 700)"/><path d="m150 950h50v100h-50z" fill="#fff" transform="matrix(0 -1 1 0 -800 1100)"/><path d="m350 450h50v800h-50z" fill="#cdad80" transform="matrix(0 -1 1 0 -100 800)"/><path d="m300 950h50v950h-50z" fill="#cdad80" transform="matrix(0 -1 1 0 -650 1250)"/><path d="m400 150h50v100h-50z" fill="#fff" transform="matrix(0 -1 1 0 250 550)"/><path d="m200 150h50v150h-50z" fill="#cdad80" transform="matrix(0 -1 1 0 50 350)"/><path d="m850 150h50v200h-50z" fill="#cdad80" transform="matrix(0 -1 1 0 700 1000)"/><path d="m0 50h50v1050h-50z" fill="#cdad80" transform="matrix(0 -1 1 0 -50 50)"/><g fill="#fff"><path d="m.000488 150h50v150h-50z" transform="matrix(0 -1 1 0 -149.999512 150.000488)"/><path d="m.000488 650h50v150h-50z" transform="matrix(0 -1 1 0 -649.999512 650.000488)"/><path d="m1250 850h50.0001v850h-50.0001z" transform="matrix(-1 0 0 -1 2500 1700)"/><path d="m1150 850h50v350h-50z" transform="matrix(-1 0 0 -1 2300 1700)"/><path d="m650 850h50v350h-50z" transform="matrix(-1 0 0 -1 1300 1700)"/><path d="m1050 850h50v350h-50z" transform="matrix(-1 0 0 -1 2100 1700)"/><path d="m550 850h50v350h-50z" transform="matrix(-1 0 0 -1 1100 1700)"/><path d="m949.999 850h50v150h-50z" transform="matrix(-1 0 0 -1 1899.998 1700)"/><path d="m849.999 850h50v150h-50z" transform="matrix(-1 0 0 -1 1699.998 1700)"/><path d="m749.999 850h50v150h-50z" transform="matrix(-1 0 0 -1 1499.998 1700)"/><path d="m949.999 800h50v450h-50z" transform="matrix(0 1 -1 0 1749.999 -149.999)"/><path d="m999.999 750h50v150h-50z" transform="matrix(0 -1 1 0 249.999 1749.999)"/><path d="m499.999 750h50v150h-50z" transform="matrix(0 -1 1 0 -250.001 1249.999)"/><path d="m299.999 750h50v150h-50z" transform="matrix(0 -1 1 0 -450.001 1049.999)"/><path d="m.000488 850h50v450h-50z" transform="matrix(0 -1 1 0 -849.999512 850.000488)"/><path d="m399.999 700h50v150h-50z"/><path d="m299.999 700h50v150h-50z"/><path d="m200 700h50v150h-50z"/><path d="m999.999 850h50v150h-50z" transform="matrix(0 -1 1 0 149.999 1849.999)"/><path d="m1150 250h50v250h-50z" transform="matrix(-1 0 0 -1 2300 500)"/></g></svg>