<svg width="752" height="438" viewBox="0 0 752 438" fill="none" xmlns="http://www.w3.org/2000/svg">
<path d="M187.677 171.811C179.518 171.811 172.133 170.545 165.522 168.013C158.911 165.481 153.636 161.824 149.697 157.041C145.899 152.118 144 146.35 144 139.739C144 130.596 146.743 122.718 152.229 116.107C157.715 109.355 165.381 103.939 175.228 99.86C185.215 95.64 196.961 92.7563 210.465 91.209L209.621 108.3C199.493 109.003 190.701 110.691 183.246 113.364C175.931 116.037 170.234 119.483 166.155 123.703C162.216 127.782 160.247 132.565 160.247 138.051C160.247 142.693 162.709 146.632 167.632 149.867C172.555 152.962 179.8 154.509 189.365 154.509C192.6 154.509 196.047 154.087 199.704 153.243C203.361 152.399 207.089 151.274 210.887 149.867C214.685 148.32 218.413 146.632 222.07 144.803C225.727 142.974 229.103 141.005 232.198 138.895C233.886 137.629 235.504 137.418 237.051 138.262C238.739 138.965 240.075 140.231 241.06 142.06C242.185 143.748 242.678 145.577 242.537 147.546C242.537 149.515 241.763 151.063 240.216 152.188C234.589 156.267 228.752 159.784 222.703 162.738C216.795 165.692 210.887 167.943 204.979 169.49C199.071 171.037 193.304 171.811 187.677 171.811ZM251.61 199.452C244.999 199.452 239.091 198.327 233.886 196.076C228.681 193.685 224.25 189.887 220.593 184.682C216.936 179.477 214.052 172.585 211.942 164.004C209.832 155.423 208.636 144.944 208.355 132.565L207.511 105.979C207.511 105.276 207.441 104.01 207.3 102.181C207.3 100.352 207.3 98.383 207.3 96.273C207.3 94.163 207.23 92.1937 207.089 90.365C207.089 88.5363 207.089 87.2 207.089 86.356C207.089 83.1207 207.863 80.7293 209.41 79.182C211.098 77.6347 213.067 76.861 215.318 76.861C217.991 76.861 220.101 77.494 221.648 78.76C223.195 79.8853 223.969 81.8547 223.969 84.668C223.969 85.6527 223.899 87.1297 223.758 89.099C223.758 91.0684 223.688 93.1783 223.547 95.429C223.547 97.539 223.547 99.5083 223.547 101.337C223.547 103.166 223.547 104.432 223.547 105.135L224.391 132.143C224.672 141.286 225.305 148.882 226.29 154.931C227.415 160.839 229.033 165.481 231.143 168.857C233.394 172.233 236.137 174.624 239.372 176.031C242.748 177.438 246.827 178.141 251.61 178.141L255.408 181.095V197.553L251.61 199.452ZM172.696 61.88C168.335 62.8647 165.1 62.513 162.99 60.825C160.88 58.9963 159.825 56.394 159.825 53.018C159.825 50.064 161.161 47.954 163.834 46.688C166.647 45.422 170.164 44.4373 174.384 43.734C179.026 42.7493 183.598 42.257 188.099 42.257C192.741 42.1163 196.82 42.1867 200.337 42.468C202.588 42.6087 204.416 43.312 205.823 44.578C207.23 45.7033 208.144 47.11 208.566 48.798C208.988 50.486 208.988 52.174 208.566 53.862C208.144 55.55 207.23 56.9567 205.823 58.082C204.416 59.2073 202.588 59.77 200.337 59.77C196.258 59.77 191.756 59.8403 186.833 59.981C181.91 60.1217 177.197 60.7547 172.696 61.88Z" fill="white"/>
<path d="M251.658 199.452L247.86 196.287V181.306L251.658 178.141C256.018 178.141 259.887 177.227 263.263 175.398C266.779 173.429 269.663 170.334 271.914 166.114C274.305 161.753 275.993 156.127 276.978 149.234C276.978 144.873 277.189 141.216 277.611 138.262C278.033 135.167 278.947 132.846 280.354 131.299C281.901 129.611 284.081 128.767 286.895 128.767C289.708 128.767 291.818 129.47 293.225 130.877C294.631 132.143 295.335 133.69 295.335 135.519C295.335 137.488 295.124 139.458 294.702 141.427C294.28 143.256 293.858 145.225 293.436 147.335C293.014 149.445 292.803 151.696 292.803 154.087C292.803 158.588 293.787 162.668 295.757 166.325C297.726 169.982 300.399 172.866 303.775 174.976C307.151 177.086 310.949 178.141 315.169 178.141L318.967 181.095V196.92L315.169 199.452C307.432 199.452 300.821 197.131 295.335 192.489C289.849 187.847 285.98 181.728 283.73 174.132C282.323 179.055 280.002 183.416 276.767 187.214C273.672 191.012 269.944 194.036 265.584 196.287C261.364 198.397 256.722 199.452 251.658 199.452ZM281.198 253.257C279.228 253.257 277.54 252.694 276.134 251.569C274.868 250.444 273.883 249.037 273.18 247.349C272.617 245.661 272.336 243.903 272.336 242.074C272.336 238.557 273.25 235.603 275.079 233.212C276.907 230.961 279.088 229.836 281.62 229.836C284.152 229.836 286.191 230.399 287.739 231.524C289.427 232.79 290.622 234.267 291.326 235.955C292.17 237.784 292.592 239.683 292.592 241.652C292.592 245.45 291.466 248.334 289.216 250.303C287.106 252.272 284.433 253.257 281.198 253.257Z" fill="white"/>
<path d="M315.123 199.452L311.325 196.287V181.306L315.123 178.141C319.483 178.141 323.352 177.227 326.728 175.398C330.244 173.429 333.128 170.334 335.379 166.114C337.77 161.753 339.458 156.127 340.443 149.234C340.443 144.873 340.654 141.216 341.076 138.262C341.498 135.167 342.412 132.846 343.819 131.299C345.366 129.611 347.546 128.767 350.36 128.767C353.173 128.767 355.283 129.47 356.69 130.877C358.096 132.143 358.8 133.69 358.8 135.519C358.8 137.488 358.589 139.458 358.167 141.427C357.745 143.256 357.323 145.225 356.901 147.335C356.479 149.445 356.268 151.696 356.268 154.087C356.268 158.588 357.252 162.668 359.222 166.325C361.191 169.982 363.864 172.866 367.24 174.976C370.616 177.086 374.414 178.141 378.634 178.141L382.432 181.095V196.92L378.634 199.452C370.897 199.452 364.286 197.131 358.8 192.489C353.314 187.847 349.445 181.728 347.195 174.132C345.788 179.055 343.467 183.416 340.232 187.214C337.137 191.012 333.409 194.036 329.049 196.287C324.829 198.397 320.187 199.452 315.123 199.452ZM340.443 101.97C336.082 102.955 332.847 102.603 330.737 100.915C328.627 99.0864 327.572 96.484 327.572 93.108C327.572 90.154 328.908 88.044 331.581 86.778C334.394 85.512 337.911 84.5273 342.131 83.824C346.773 82.8393 351.344 82.347 355.846 82.347C360.488 82.2063 364.567 82.2767 368.084 82.558C370.334 82.6987 372.163 83.402 373.57 84.668C374.976 85.7933 375.891 87.2 376.313 88.888C376.735 90.576 376.735 92.264 376.313 93.952C375.891 95.64 374.976 97.0467 373.57 98.172C372.163 99.2973 370.334 99.86 368.084 99.86C364.004 99.86 359.503 99.9303 354.58 100.071C349.656 100.212 344.944 100.845 340.443 101.97Z" fill="white"/>
<path d="M378.587 199.452L374.789 197.342V181.306L378.587 178.141C383.37 178.141 387.801 177.227 391.88 175.398C396.1 173.569 399.617 171.108 402.43 168.013C405.384 164.778 407.424 161.12 408.549 157.041C409.675 152.962 409.605 148.671 408.339 144.17L388.926 88.466C388.082 85.512 387.731 82.769 387.871 80.237C388.012 77.5643 388.715 75.173 389.981 73.063C391.388 70.953 393.357 69.3353 395.889 68.21C405.173 64.5527 413.191 61.247 419.943 58.293C426.695 55.1983 432.955 52.1037 438.723 49.009C444.49 45.9143 450.398 42.5383 456.447 38.881C458.135 37.8963 459.612 37.404 460.878 37.404C462.566 37.404 464.113 38.1073 465.52 39.514C466.926 40.78 467.911 42.3977 468.474 44.367C469.177 46.3363 469.388 48.3057 469.107 50.275C468.825 52.1037 467.911 53.5807 466.363 54.706C457.361 60.3327 447.584 65.678 437.034 70.742C426.625 75.806 415.794 80.3777 404.54 84.457L427.117 148.39C430.634 157.815 434.573 165.129 438.934 170.334C443.435 175.539 448.71 178.141 454.758 178.141L458.556 181.517V196.92L454.758 199.452C450.398 199.452 445.967 198.256 441.465 195.865C437.105 193.474 432.955 189.957 429.016 185.315C425.078 180.532 421.772 174.624 419.099 167.591C415.583 177.86 410.097 185.737 402.641 191.223C395.327 196.709 387.309 199.452 378.587 199.452Z" fill="white"/>
<path d="M522.77 227.937C514.33 227.937 507.156 225.546 501.248 220.763C495.34 215.98 490.627 209.228 487.111 200.507C483.594 191.926 480.992 181.798 479.304 170.123C477.756 158.448 476.983 145.717 476.983 131.932C476.983 122.789 477.264 113.434 477.827 103.869C478.389 94.163 479.163 84.3867 480.148 74.54C481.132 64.6933 482.328 54.917 483.735 45.211C484.157 42.3977 485.141 40.2877 486.689 38.881C488.236 37.3337 490.346 36.56 493.019 36.56C500.474 36.56 503.639 39.7954 502.514 46.266C501.248 54.9873 500.052 64.3417 498.927 74.329C497.942 84.3163 497.098 94.6554 496.395 105.346C495.691 116.037 495.34 127.009 495.34 138.262C495.34 147.968 495.832 157.041 496.817 165.481C497.801 173.921 499.349 181.376 501.459 187.847C503.709 194.177 506.663 199.1 510.321 202.617C513.978 206.274 518.55 208.103 524.036 208.103C530.225 208.103 535.219 206.204 539.017 202.406C542.955 198.749 544.925 193.755 544.925 187.425C544.925 180.814 543.237 175.398 539.861 171.178C536.485 166.817 531.702 164.637 525.513 164.637C520.73 164.637 516.088 165.833 511.587 168.224C507.226 170.475 502.865 173.358 498.505 176.875C494.144 180.251 489.643 183.697 485.001 187.214C480.499 190.731 475.717 193.685 470.653 196.076C465.729 198.327 460.384 199.452 454.617 199.452L451.03 197.342V181.095L454.828 178.141C460.314 178 465.448 176.805 470.231 174.554C475.013 172.163 479.655 169.279 484.157 165.903C488.799 162.527 493.37 159.221 497.872 155.986C502.373 152.751 507.085 150.008 512.009 147.757C517.073 145.506 522.418 144.381 528.045 144.381C534.375 144.381 540.001 146.139 544.925 149.656C549.989 153.173 553.998 158.166 556.952 164.637C559.906 170.967 561.383 178.422 561.383 187.003C561.383 195.162 559.765 202.336 556.53 208.525C553.294 214.714 548.723 219.497 542.815 222.873C537.047 226.249 530.366 227.937 522.77 227.937Z" fill="white"/>
<path d="M595.313 200.929C594.328 200.929 593.062 200.718 591.515 200.296C589.967 199.874 588.631 199.03 587.506 197.764C586.38 196.498 585.818 194.529 585.818 191.856C585.818 185.104 585.888 177.789 586.029 169.912C586.169 161.894 586.31 153.595 586.451 145.014C586.732 136.293 587.013 127.431 587.295 118.428C587.576 109.425 587.857 100.563 588.139 91.842C588.42 82.98 588.701 74.4697 588.983 66.311C589.264 58.0117 589.545 50.275 589.827 43.101C589.967 40.2877 590.882 38.248 592.57 36.982C594.398 35.716 596.508 35.083 598.9 35.083C601.994 35.083 604.245 35.927 605.652 37.615C607.058 39.303 607.691 41.413 607.551 43.945C607.41 50.1343 607.199 56.9567 606.918 64.412C606.636 71.7267 606.355 79.393 606.074 87.411C605.933 95.2883 605.722 103.306 605.441 111.465C605.019 125.813 604.667 139.598 604.386 152.821C604.245 165.903 604.034 178.633 603.753 191.012C603.753 192.559 603.471 194.107 602.909 195.654C602.346 197.201 601.432 198.467 600.166 199.452C599.04 200.437 597.423 200.929 595.313 200.929Z" fill="white"/>
<path d="M160.957 32.1182C159.691 31.2742 158.918 30.2192 158.636 28.9532C158.496 27.5465 158.707 26.2805 159.269 25.1552C159.832 24.0298 160.606 23.2562 161.59 22.8342C162.716 22.2715 163.982 22.4122 165.388 23.2562C168.061 24.9442 170.804 26.2102 173.617 27.0542C176.571 27.7575 179.385 28.1092 182.057 28.1092C184.871 28.1092 187.473 27.6872 189.864 26.8432C192.256 25.9992 194.155 24.8739 195.561 23.4672C193.029 23.7485 190.638 22.9749 188.387 21.1462C186.137 19.3175 185.011 16.6449 185.011 13.1282C185.011 10.0335 185.926 7.50152 187.754 5.53218C189.724 3.42219 192.185 2.36719 195.139 2.36719C198.656 2.36719 201.469 3.63319 203.579 6.16519C205.689 8.69718 206.744 12.0732 206.744 16.2932C206.744 20.6539 205.549 24.5222 203.157 27.8982C200.907 31.1335 197.812 33.6655 193.873 35.4942C190.075 37.3229 185.855 38.2372 181.213 38.2372C177.978 38.2372 174.602 37.7449 171.085 36.7602C167.569 35.7755 164.193 34.2282 160.957 32.1182Z" fill="#DDA15E"/>
<path d="M262.453 90.8981C270.19 90.6168 277.997 89.3508 285.874 87.1001C293.752 84.7088 300.293 82.1065 305.497 79.2931C306.904 78.5898 308.24 78.5195 309.506 79.0821C310.772 79.6448 311.757 80.6295 312.46 82.0361C313.164 83.3021 313.375 84.6385 313.093 86.0451C312.812 87.4518 311.898 88.5771 310.35 89.4211C306.693 91.6718 302.262 93.7818 297.057 95.7511C291.853 97.5798 286.367 99.1271 280.599 100.393C274.973 101.518 269.487 102.151 264.141 102.292C262.453 102.292 261.117 101.8 260.132 100.815C259.148 99.6898 258.585 98.4238 258.444 97.0171C258.304 95.4698 258.515 94.1335 259.077 93.0081C259.781 91.7421 260.906 91.0388 262.453 90.8981Z" fill="#DDA15E"/>
<path d="M325.918 48.8981C333.655 48.6168 341.462 47.3508 349.339 45.1001C357.217 42.7088 363.758 40.1065 368.962 37.2931C370.369 36.5898 371.705 36.5195 372.971 37.0821C374.237 37.6448 375.222 38.6295 375.925 40.0361C376.629 41.3021 376.84 42.6385 376.558 44.0451C376.277 45.4518 375.363 46.5771 373.815 47.4211C370.158 49.6718 365.727 51.7818 360.522 53.7511C355.318 55.5798 349.832 57.1271 344.064 58.3931C338.438 59.5185 332.952 60.1515 327.606 60.2921C325.918 60.2921 324.582 59.7998 323.597 58.8151C322.613 57.6898 322.05 56.4238 321.909 55.0171C321.769 53.4698 321.98 52.1335 322.542 51.0081C323.246 49.7421 324.371 49.0388 325.918 48.8981Z" fill="#DDA15E"/>
<path d="M420.433 0C426.482 0 431.194 1.96933 434.57 5.908C438.087 9.84667 439.845 14.559 439.845 20.045C439.845 25.2497 438.157 29.6103 434.781 33.127C431.546 36.503 427.185 38.191 421.699 38.191C416.354 38.191 411.993 36.503 408.617 33.127C405.382 29.751 403.764 25.6717 403.764 20.889C403.764 16.1063 405.171 12.0973 407.984 8.862C410.938 5.486 414.806 3.798 419.589 3.798C420.714 3.798 421.629 4.22 422.332 5.06401C423.176 5.90801 423.668 6.96301 423.809 8.22901C423.95 9.35433 423.668 10.339 422.965 11.183C422.402 12.027 421.277 12.449 419.589 12.449C417.198 12.449 415.299 13.3633 413.892 15.192C412.626 16.88 411.993 18.6383 411.993 20.467C411.993 23.1397 412.907 25.32 414.736 27.008C416.565 28.5553 418.815 29.329 421.488 29.329C424.301 29.329 426.693 28.5553 428.662 27.008C430.631 25.32 431.616 22.999 431.616 20.045C431.616 17.2317 430.561 14.6997 428.451 12.449C426.482 10.0577 423.739 8.862 420.222 8.862C419.097 8.862 418.182 8.44 417.479 7.596C416.916 6.61134 416.635 5.55634 416.635 4.43101C416.635 3.30567 416.916 2.321 417.479 1.47701C418.182 0.492335 419.167 0 420.433 0Z" fill="#DDA15E"/>
<path d="M491.789 24C497.837 24 502.55 25.9693 505.926 29.908C509.442 33.8467 511.201 38.559 511.201 44.045C511.201 49.2497 509.513 53.6103 506.137 57.127C502.901 60.503 498.541 62.191 493.055 62.191C487.709 62.191 483.349 60.503 479.973 57.127C476.737 53.751 475.12 49.6717 475.12 44.889C475.12 40.1063 476.526 36.0973 479.34 32.862C482.294 29.486 486.162 27.798 490.945 27.798C492.07 27.798 492.984 28.22 493.688 29.064C494.532 29.908 495.024 30.963 495.165 32.229C495.305 33.3543 495.024 34.339 494.321 35.183C493.758 36.027 492.633 36.449 490.945 36.449C488.553 36.449 486.654 37.3633 485.248 39.192C483.982 40.88 483.349 42.6383 483.349 44.467C483.349 47.1397 484.263 49.32 486.092 51.008C487.92 52.5553 490.171 53.329 492.844 53.329C495.657 53.329 498.048 52.5553 500.018 51.008C501.987 49.32 502.972 46.999 502.972 44.045C502.972 41.2317 501.917 38.6997 499.807 36.449C497.837 34.0577 495.094 32.862 491.578 32.862C490.452 32.862 489.538 32.44 488.835 31.596C488.272 30.6113 487.991 29.5563 487.991 28.431C487.991 27.3057 488.272 26.321 488.835 25.477C489.538 24.4923 490.523 24 491.789 24Z" fill="#DDA15E"/>
<path d="M510.131 107.898C517.868 107.617 525.675 106.351 533.552 104.1C541.429 101.709 547.971 99.1065 553.175 96.2931C554.582 95.5898 555.918 95.5195 557.184 96.0821C558.45 96.6448 559.435 97.6295 560.138 99.0361C560.841 100.302 561.052 101.638 560.771 103.045C560.49 104.452 559.575 105.577 558.028 106.421C554.371 108.672 549.94 110.782 544.735 112.751C539.53 114.58 534.044 116.127 528.277 117.393C522.65 118.518 517.164 119.151 511.819 119.292C510.131 119.292 508.795 118.8 507.81 117.815C506.825 116.69 506.263 115.424 506.122 114.017C505.981 112.47 506.192 111.133 506.755 110.008C507.458 108.742 508.584 108.039 510.131 107.898Z" fill="#DDA15E"/>
<path d="M43.677 363.811C35.5183 363.811 28.1333 362.545 21.522 360.013C14.9107 357.481 9.63567 353.824 5.697 349.041C1.899 344.118 0 338.35 0 331.739C0 322.596 2.743 314.718 8.229 308.107C13.715 301.355 21.3813 295.939 31.228 291.86C41.2153 287.64 52.961 284.756 66.465 283.209L65.621 300.3C55.493 301.003 46.7013 302.691 39.246 305.364C31.9313 308.037 26.2343 311.483 22.155 315.703C18.2163 319.782 16.247 324.565 16.247 330.051C16.247 334.693 18.7087 338.632 23.632 341.867C28.5553 344.962 35.7997 346.509 45.365 346.509C48.6003 346.509 52.0467 346.087 55.704 345.243C59.3613 344.399 63.089 343.274 66.887 341.867C70.685 340.32 74.4127 338.632 78.07 336.803C81.7273 334.974 85.1033 333.005 88.198 330.895C89.886 329.629 91.5037 329.418 93.051 330.262C94.739 330.965 96.0753 332.231 97.06 334.06C98.1853 335.748 98.6777 337.577 98.537 339.546C98.537 341.515 97.7633 343.063 96.216 344.188C90.5893 348.267 84.7517 351.784 78.703 354.738C72.795 357.692 66.887 359.943 60.979 361.49C55.071 363.037 49.3037 363.811 43.677 363.811ZM107.61 391.452C100.999 391.452 95.0907 390.327 89.886 388.076C84.6813 385.685 80.2503 381.887 76.593 376.682C72.9357 371.477 70.052 364.585 67.942 356.004C65.832 347.423 64.6363 336.944 64.355 324.565L63.511 297.979C63.511 297.276 63.4407 296.01 63.3 294.181C63.3 292.352 63.3 290.383 63.3 288.273C63.3 286.163 63.2297 284.194 63.089 282.365C63.089 280.536 63.089 279.2 63.089 278.356C63.089 275.121 63.8627 272.729 65.41 271.182C67.098 269.635 69.0673 268.861 71.318 268.861C73.9907 268.861 76.1007 269.494 77.648 270.76C79.1953 271.885 79.969 273.855 79.969 276.668C79.969 277.653 79.8987 279.13 79.758 281.099C79.758 283.068 79.6877 285.178 79.547 287.429C79.547 289.539 79.547 291.508 79.547 293.337C79.547 295.166 79.547 296.432 79.547 297.135L80.391 324.143C80.6723 333.286 81.3053 340.882 82.29 346.931C83.4153 352.839 85.033 357.481 87.143 360.857C89.3937 364.233 92.1367 366.624 95.372 368.031C98.748 369.438 102.827 370.141 107.61 370.141L111.408 373.095V389.553L107.61 391.452ZM28.696 253.88C24.3353 254.865 21.1 254.513 18.99 252.825C16.88 250.996 15.825 248.394 15.825 245.018C15.825 242.064 17.1613 239.954 19.834 238.688C22.6473 237.422 26.164 236.437 30.384 235.734C35.026 234.749 39.5977 234.257 44.099 234.257C48.741 234.116 52.8203 234.187 56.337 234.468C58.5877 234.609 60.4163 235.312 61.823 236.578C63.2297 237.703 64.144 239.11 64.566 240.798C64.988 242.486 64.988 244.174 64.566 245.862C64.144 247.55 63.2297 248.957 61.823 250.082C60.4163 251.207 58.5877 251.77 56.337 251.77C52.2577 251.77 47.7563 251.84 42.833 251.981C37.9097 252.122 33.1973 252.755 28.696 253.88Z" fill="white"/>
<path d="M107.658 391.452L103.86 388.287V373.306L107.658 370.141C112.018 370.141 115.887 369.227 119.263 367.398C122.779 365.429 125.663 362.334 127.914 358.114C130.305 353.753 131.993 348.127 132.978 341.234C132.978 336.873 133.189 333.216 133.611 330.262C134.033 327.167 134.947 324.846 136.354 323.299C137.901 321.611 140.081 320.767 142.895 320.767C145.708 320.767 147.818 321.47 149.225 322.877C150.631 324.143 151.335 325.69 151.335 327.519C151.335 329.488 151.124 331.458 150.702 333.427C150.28 335.256 149.858 337.225 149.436 339.335C149.014 341.445 148.803 343.696 148.803 346.087C148.803 350.588 149.787 354.668 151.757 358.325C153.726 361.982 156.399 364.866 159.775 366.976C163.151 369.086 166.949 370.141 171.169 370.141L174.967 373.095V388.92L171.169 391.452C163.432 391.452 156.821 389.131 151.335 384.489C145.849 379.847 141.98 373.728 139.73 366.132C138.323 371.055 136.002 375.416 132.767 379.214C129.672 383.012 125.944 386.036 121.584 388.287C117.364 390.397 112.722 391.452 107.658 391.452ZM127.492 437.028C123.131 438.013 119.896 437.591 117.786 435.762C115.676 434.074 114.621 431.542 114.621 428.166C114.621 425.212 115.957 423.102 118.63 421.836C121.443 420.57 124.96 419.585 129.18 418.882C133.822 417.897 138.393 417.335 142.895 417.194C147.537 417.194 151.616 417.335 155.133 417.616C157.383 417.757 159.212 418.39 160.619 419.515C162.025 420.781 162.94 422.258 163.362 423.946C163.784 425.634 163.784 427.322 163.362 429.01C162.94 430.698 162.025 432.105 160.619 433.23C159.212 434.355 157.383 434.918 155.133 434.918C151.053 434.918 146.552 434.988 141.629 435.129C136.705 435.27 131.993 435.903 127.492 437.028Z" fill="white"/>
<path d="M242.019 395.039C232.594 395.039 223.943 391.733 216.066 385.122C208.329 378.37 202.491 369.016 198.553 357.059L208.47 341.656C211.424 351.221 215.855 358.958 221.763 364.866C227.671 370.774 234.352 373.728 241.808 373.728C248.56 373.728 253.835 371.759 257.633 367.82C261.571 363.881 263.541 358.817 263.541 352.628C263.541 348.127 262.486 344.118 260.376 340.601C258.406 336.944 255.734 334.06 252.358 331.95C249.122 329.699 245.465 328.574 241.386 328.574C237.869 328.574 234.423 329.348 231.047 330.895C227.811 332.302 224.646 334.904 221.552 338.702C218.457 342.359 215.433 347.564 212.479 354.316C207.274 366.273 201.225 375.486 194.333 381.957C187.44 388.287 179.563 391.452 170.701 391.452L167.325 389.342V373.306L171.123 370.141C175.343 370.141 179 369.297 182.095 367.609C185.189 365.78 188.143 362.756 190.957 358.536C193.911 354.316 197.076 348.549 200.452 341.234C204.39 332.653 208.47 326.042 212.69 321.4C216.91 316.617 221.411 313.241 226.194 311.272C230.976 309.303 235.97 308.318 241.175 308.318C248.771 308.318 255.452 310.428 261.22 314.648C266.987 318.727 271.488 324.143 274.724 330.895C277.959 337.647 279.577 345.032 279.577 353.05C279.577 360.787 278.029 367.82 274.935 374.15C271.981 380.48 267.69 385.544 262.064 389.342C256.437 393.14 249.755 395.039 242.019 395.039Z" fill="white"/>
<path d="M399.22 346.087C399.22 348.76 399.924 351.503 401.33 354.316C402.878 357.129 404.847 359.732 407.238 362.123C409.63 364.514 412.302 366.484 415.256 368.031C418.21 369.438 421.235 370.141 424.329 370.141L428.127 373.517V388.92L424.329 391.452C421.094 391.452 417.507 390.749 413.568 389.342C409.77 387.935 406.043 385.825 402.385 383.012C398.869 380.058 395.774 376.33 393.101 371.829C390.429 367.328 388.53 361.982 387.404 355.793L399.22 346.087ZM343.938 394.195C338.452 394.195 332.474 393.773 326.003 392.929C319.533 392.226 313.554 391.171 308.068 389.764C306.38 389.061 305.114 387.865 304.27 386.177C303.567 384.348 303.215 382.379 303.215 380.269C303.356 378.159 303.778 376.19 304.481 374.361C305.325 372.392 306.38 370.915 307.646 369.93C309.053 368.805 310.6 368.453 312.288 368.875C318.9 369.86 324.526 370.633 329.168 371.196C333.951 371.759 338.241 372.04 342.039 372.04C349.917 372.04 356.598 370.844 362.084 368.453C367.711 366.062 372.283 362.264 375.799 357.059C379.316 351.714 381.918 344.821 383.606 336.381C385.435 327.8 386.56 317.391 386.982 305.153C387.123 300.23 387.264 294.673 387.404 288.484C387.545 282.154 387.615 275.754 387.615 269.283C387.756 262.672 387.826 256.482 387.826 250.715C387.967 244.807 388.037 239.813 388.037 235.734C388.459 230.248 391.202 227.435 396.266 227.294C399.22 227.153 401.471 227.786 403.018 229.193C404.706 230.459 405.55 232.428 405.55 235.101C405.55 236.789 405.48 239.462 405.339 243.119C405.339 246.636 405.269 250.715 405.128 255.357C405.128 259.999 405.058 264.852 404.917 269.916C404.917 274.98 404.847 279.903 404.706 284.686C404.706 289.469 404.636 293.759 404.495 297.557C404.495 301.214 404.425 304.098 404.284 306.208C403.722 326.605 401.26 343.344 396.899 356.426C392.539 369.367 385.998 378.933 377.276 385.122C368.696 391.171 357.583 394.195 343.938 394.195ZM338.874 355.582C336.483 355.582 334.373 354.738 332.544 353.05C330.856 351.221 330.012 348.549 330.012 345.032C329.872 338.139 329.801 331.739 329.801 325.831C329.942 319.782 330.012 313.874 330.012 308.107C330.153 302.34 330.294 296.502 330.434 290.594C330.575 284.545 330.716 278.145 330.856 271.393C331.138 264.5 331.419 256.975 331.7 248.816C332.122 243.471 335.076 240.798 340.562 240.798C343.376 240.798 345.626 241.572 347.314 243.119C349.002 244.666 349.706 246.776 349.424 249.449C349.284 253.247 349.073 258.381 348.791 264.852C348.651 271.182 348.51 278.145 348.369 285.741C348.229 293.196 348.088 300.792 347.947 308.529C347.807 316.125 347.666 323.229 347.525 329.84C347.525 336.451 347.525 341.867 347.525 346.087C347.103 352.417 344.22 355.582 338.874 355.582Z" fill="white"/>
<path d="M482.389 392.085C478.732 392.085 475.004 391.1 471.206 389.131C467.549 387.162 464.313 384.348 461.5 380.691C458.687 377.034 456.788 372.673 455.803 367.609C453.412 374.783 449.473 380.55 443.987 384.911C438.501 389.272 431.96 391.452 424.364 391.452L420.566 388.92V373.517L424.364 370.141C430.272 370.141 434.984 368.805 438.501 366.132C442.158 363.459 445.112 359.38 447.363 353.894C449.614 348.267 451.513 341.164 453.06 332.583C453.341 331.176 454.185 330.121 455.592 329.418C457.139 328.715 458.757 328.363 460.445 328.363C462.555 328.363 464.454 328.926 466.142 330.051C467.83 331.176 468.393 332.935 467.83 335.326C465.72 342.922 465.298 349.252 466.564 354.316C467.83 359.38 470.01 363.178 473.105 365.71C476.34 368.242 479.716 369.508 483.233 369.508C490.407 369.508 495.682 366.695 499.058 361.068C502.434 355.301 504.122 347.634 504.122 338.069C504.122 336.522 504.052 334.974 503.911 333.427C503.911 331.88 503.911 330.403 503.911 328.996C504.052 326.886 504.825 325.339 506.232 324.354C507.639 323.369 509.186 322.877 510.874 322.877C512.843 322.877 514.672 323.44 516.36 324.565C518.048 325.55 518.822 327.027 518.681 328.996C518.54 330.403 518.4 331.739 518.259 333.005C518.259 334.13 518.259 335.256 518.259 336.381C518.259 346.65 520.017 354.738 523.534 360.646C527.191 366.413 532.185 369.297 538.515 369.297C542.313 369.297 545.619 367.961 548.432 365.288C551.245 362.475 553.426 358.606 554.973 353.683C556.52 348.76 557.224 343.063 557.083 336.592C557.083 333.919 556.942 331.176 556.661 328.363C556.38 325.409 555.887 322.385 555.184 319.29C555.325 317.743 556.169 316.406 557.716 315.281C559.404 314.156 561.162 313.593 562.991 313.593C565.242 313.593 567.141 314.226 568.688 315.492C570.235 316.758 571.29 319.149 571.853 322.666C572.416 325.62 572.767 328.433 572.908 331.106C573.189 333.638 573.33 336.1 573.33 338.491C573.33 349.463 571.994 358.958 569.321 366.976C566.648 374.853 562.85 380.902 557.927 385.122C553.144 389.342 547.377 391.452 540.625 391.452C533.732 391.452 527.613 388.99 522.268 384.067C516.923 379.144 513.125 372.743 510.874 364.866C510.171 369.93 508.553 374.502 506.021 378.581C503.489 382.66 500.183 385.966 496.104 388.498C492.165 390.889 487.594 392.085 482.389 392.085Z" fill="white"/>
<path d="M638.184 394.195C632.698 394.195 626.72 393.773 620.249 392.929C613.779 392.226 607.8 391.171 602.314 389.764C600.626 389.061 599.36 387.865 598.516 386.177C597.813 384.348 597.461 382.379 597.461 380.269C597.602 378.159 598.024 376.19 598.727 374.361C599.571 372.392 600.626 370.915 601.892 369.93C603.299 368.805 604.846 368.453 606.534 368.875C613.146 369.86 618.772 370.633 623.414 371.196C628.197 371.759 632.487 372.04 636.285 372.04C644.163 372.04 650.844 370.844 656.33 368.453C661.957 366.062 666.529 362.264 670.045 357.059C673.562 351.714 676.164 344.821 677.852 336.381C679.681 327.8 680.806 317.391 681.228 305.153C681.369 300.23 681.51 294.673 681.65 288.484C681.791 282.154 681.861 275.754 681.861 269.283C682.002 262.672 682.072 256.482 682.072 250.715C682.213 244.807 682.283 239.813 682.283 235.734C682.705 230.248 685.448 227.435 690.512 227.294C693.466 227.153 695.717 227.786 697.264 229.193C698.952 230.459 699.796 232.428 699.796 235.101C699.796 236.789 699.726 239.462 699.585 243.119C699.585 246.636 699.515 250.715 699.374 255.357C699.374 259.999 699.304 264.852 699.163 269.916C699.163 274.98 699.093 279.903 698.952 284.686C698.952 289.469 698.882 293.759 698.741 297.557C698.741 301.214 698.671 304.098 698.53 306.208C697.968 326.605 695.506 343.344 691.145 356.426C686.785 369.367 680.244 378.933 671.522 385.122C662.942 391.171 651.829 394.195 638.184 394.195ZM633.12 355.582C630.729 355.582 628.619 354.738 626.79 353.05C625.102 351.221 624.258 348.549 624.258 345.032C624.118 338.139 624.047 331.739 624.047 325.831C624.188 319.782 624.258 313.874 624.258 308.107C624.399 302.34 624.54 296.502 624.68 290.594C624.821 284.545 624.962 278.145 625.102 271.393C625.384 264.5 625.665 256.975 625.946 248.816C626.368 243.471 629.322 240.798 634.808 240.798C637.622 240.798 639.872 241.572 641.56 243.119C643.248 244.666 643.952 246.776 643.67 249.449C643.53 253.247 643.319 258.381 643.037 264.852C642.897 271.182 642.756 278.145 642.615 285.741C642.475 293.196 642.334 300.792 642.193 308.529C642.053 316.125 641.912 323.229 641.771 329.84C641.771 336.451 641.771 341.867 641.771 346.087C641.349 352.417 638.466 355.582 633.12 355.582Z" fill="white"/>
<path d="M739.377 392.929C738.392 392.929 737.126 392.718 735.579 392.296C734.032 391.874 732.695 391.03 731.57 389.764C730.445 388.498 729.882 386.529 729.882 383.856C729.882 377.104 729.952 369.789 730.093 361.912C730.234 353.894 730.374 345.595 730.515 337.014C730.796 328.293 731.078 319.431 731.359 310.428C731.64 301.425 731.922 292.563 732.203 283.842C732.484 274.98 732.766 266.47 733.047 258.311C733.328 250.012 733.61 242.275 733.891 235.101C734.032 232.288 734.946 230.248 736.634 228.982C738.463 227.716 740.573 227.083 742.964 227.083C746.059 227.083 748.309 227.927 749.716 229.615C751.123 231.303 751.756 233.413 751.615 235.945C751.474 242.134 751.263 248.957 750.982 256.412C750.701 263.727 750.419 271.393 750.138 279.411C749.997 287.288 749.786 295.306 749.505 303.465C749.083 317.813 748.731 331.598 748.45 344.821C748.309 357.903 748.098 370.633 747.817 383.012C747.817 384.559 747.536 386.107 746.973 387.654C746.41 389.201 745.496 390.467 744.23 391.452C743.105 392.437 741.487 392.929 739.377 392.929Z" fill="white"/>
<path d="M16.9574 224.118C15.6914 223.274 14.9178 222.219 14.6364 220.953C14.4958 219.547 14.7068 218.281 15.2694 217.155C15.8321 216.03 16.6058 215.256 17.5904 214.834C18.7158 214.272 19.9818 214.412 21.3884 215.256C24.0611 216.944 26.8041 218.21 29.6174 219.054C32.5714 219.758 35.3848 220.109 38.0574 220.109C40.8708 220.109 43.4731 219.687 45.8644 218.843C48.2558 217.999 50.1548 216.874 51.5614 215.467C49.0294 215.749 46.6381 214.975 44.3874 213.146C42.1368 211.318 41.0114 208.645 41.0114 205.128C41.0114 202.034 41.9258 199.502 43.7544 197.532C45.7238 195.422 48.1854 194.367 51.1394 194.367C54.6561 194.367 57.4694 195.633 59.5794 198.165C61.6894 200.697 62.7444 204.073 62.7444 208.293C62.7444 212.654 61.5488 216.522 59.1574 219.898C56.9068 223.134 53.8121 225.666 49.8734 227.494C46.0754 229.323 41.8554 230.237 37.2134 230.237C33.9781 230.237 30.6021 229.745 27.0854 228.76C23.5688 227.776 20.1928 226.228 16.9574 224.118Z" fill="#DDA15E"/>
<path d="M131.324 293.659C127.808 293.659 124.854 292.393 122.462 289.861C120.071 287.329 118.524 283.813 117.82 279.311C117.258 274.669 117.75 269.254 119.297 263.064C119.579 261.939 120.141 261.165 120.985 260.743C121.829 260.321 122.744 260.11 123.728 260.11C124.994 260.11 126.12 260.462 127.104 261.165C128.089 261.869 128.37 262.924 127.948 264.33C126.542 268.972 126.12 273.333 126.682 277.412C127.386 281.492 129.496 283.531 133.012 283.531C135.544 283.531 137.303 282.758 138.287 281.21C139.413 279.522 140.046 277.412 140.186 274.88C140.327 272.348 140.257 269.887 139.975 267.495C139.975 266.37 140.397 265.596 141.241 265.174C142.226 264.612 143.211 264.33 144.195 264.33C145.321 264.33 146.305 264.612 147.149 265.174C147.993 265.596 148.415 266.37 148.415 267.495C148.415 269.887 148.556 272.348 148.837 274.88C149.259 277.272 149.963 279.311 150.947 280.999C152.073 282.547 153.69 283.32 155.8 283.32C158.473 283.32 160.372 282.265 161.497 280.155C162.623 277.905 163.185 275.232 163.185 272.137C163.185 269.043 162.693 266.018 161.708 263.064C161.568 261.939 161.99 261.095 162.974 260.532C163.959 259.829 165.084 259.477 166.35 259.477C167.335 259.477 168.249 259.688 169.093 260.11C169.937 260.532 170.5 261.236 170.781 262.22C172.188 267.284 172.61 272.208 172.047 276.99C171.485 281.773 169.937 285.712 167.405 288.806C164.873 291.901 161.357 293.448 156.855 293.448C154.183 293.448 151.651 292.604 149.259 290.916C147.009 289.228 145.461 286.978 144.617 284.164C143.773 287.118 142.085 289.439 139.553 291.127C137.021 292.815 134.278 293.659 131.324 293.659ZM120.985 237.955C128.722 237.674 136.529 236.408 144.406 234.157C152.284 231.766 158.825 229.164 164.029 226.35C165.436 225.647 166.772 225.577 168.038 226.139C169.304 226.702 170.289 227.687 170.992 229.093C171.696 230.359 171.907 231.696 171.625 233.102C171.344 234.509 170.43 235.634 168.882 236.478C165.225 238.729 160.794 240.839 155.589 242.808C150.385 244.637 144.899 246.184 139.131 247.45C133.505 248.576 128.019 249.209 122.673 249.349C120.985 249.349 119.649 248.857 118.664 247.872C117.68 246.747 117.117 245.481 116.976 244.074C116.836 242.527 117.047 241.191 117.609 240.065C118.313 238.799 119.438 238.096 120.985 237.955Z" fill="#DDA15E"/>
<path d="M217.816 426.359C225.553 426.078 233.36 424.741 241.237 422.35C249.115 420.099 255.656 417.567 260.86 414.754C262.267 414.051 263.603 413.98 264.869 414.543C266.135 415.106 267.12 416.02 267.823 417.286C268.527 418.693 268.738 420.099 268.456 421.506C268.175 422.913 267.261 424.038 265.713 424.882C262.056 427.133 257.625 429.172 252.42 431.001C247.216 432.97 241.73 434.518 235.962 435.643C230.336 436.909 224.85 437.612 219.504 437.753C217.816 437.753 216.48 437.19 215.495 436.065C214.511 435.08 213.948 433.814 213.807 432.267C213.667 430.86 213.878 429.524 214.44 428.258C215.144 427.133 216.269 426.5 217.816 426.359Z" fill="#DDA15E"/>
<path d="M370.458 256.898C378.195 256.617 386.002 255.351 393.879 253.1C401.757 250.709 408.298 248.106 413.502 245.293C414.909 244.59 416.245 244.519 417.511 245.082C418.777 245.645 419.762 246.629 420.465 248.036C421.169 249.302 421.38 250.638 421.098 252.045C420.817 253.452 419.903 254.577 418.355 255.421C414.698 257.672 410.267 259.782 405.062 261.751C399.858 263.58 394.372 265.127 388.604 266.393C382.978 267.518 377.492 268.151 372.146 268.292C370.458 268.292 369.122 267.8 368.137 266.815C367.153 265.69 366.59 264.424 366.449 263.017C366.309 261.47 366.52 260.133 367.082 259.008C367.786 257.742 368.911 257.039 370.458 256.898Z" fill="#DDA15E"/>
<path d="M601.889 389.51C600.445 388.49 599.265 387.311 598.35 385.973C596.522 383.3 595.607 380.487 595.607 377.533C595.607 373.172 597.225 369.163 600.46 365.506C603.836 361.989 608.127 360.231 613.331 360.231C616.285 360.231 619.028 360.794 621.56 361.919C624.092 363.185 626.132 365.225 627.679 368.038C628.383 369.163 628.523 370.429 628.101 371.836C627.679 373.243 626.976 374.438 625.991 375.423C625.147 376.548 624.163 377.111 623.037 377.111C622.193 377.111 621.42 376.619 620.716 375.634C619.872 374.227 618.817 373.313 617.551 372.891C616.285 372.469 614.949 372.258 613.542 372.258C611.292 372.258 609.393 372.891 607.845 374.157C606.298 375.564 605.524 377.111 605.524 378.799C605.524 381.05 607.353 383.16 611.01 385.129C612.694 386.002 614.89 386.557 617.598 386.794C621.904 386.387 626.109 386.184 630.211 386.184C631.337 386.184 632.181 386.817 632.743 388.083C633.447 389.349 633.798 390.756 633.798 392.303C633.939 393.85 633.798 395.187 633.376 396.312C632.954 397.578 632.321 398.211 631.477 398.211C625.569 398.07 619.521 398.422 613.331 399.266C607.142 400.251 601.093 401.798 595.185 403.908C594.201 404.33 593.286 404.049 592.442 403.064C591.739 402.079 591.247 400.813 590.965 399.266C590.684 397.719 590.684 396.242 590.965 394.835C591.387 393.428 592.231 392.514 593.497 392.092C596.249 391.109 599.046 390.249 601.889 389.51Z" fill="#DDA15E"/>
<path d="M593.647 426.359C601.384 426.078 609.191 424.741 617.068 422.35C624.946 420.099 631.487 417.567 636.691 414.754C638.098 414.051 639.434 413.98 640.7 414.543C641.966 415.106 642.951 416.02 643.654 417.286C644.358 418.693 644.569 420.099 644.287 421.506C644.006 422.913 643.092 424.038 641.544 424.882C637.887 427.133 633.456 429.172 628.251 431.001C623.047 432.97 617.561 434.518 611.793 435.643C606.167 436.909 600.681 437.612 595.335 437.753C593.647 437.753 592.311 437.19 591.326 436.065C590.342 435.08 589.779 433.814 589.638 432.267C589.498 430.86 589.709 429.524 590.271 428.258C590.975 427.133 592.1 426.5 593.647 426.359Z" fill="#DDA15E"/>
<path d="M509.214 312C515.263 312 519.975 313.969 523.351 317.908C526.868 321.847 528.626 326.559 528.626 332.045C528.626 337.25 526.938 341.61 523.562 345.127C520.327 348.503 515.966 350.191 510.48 350.191C505.135 350.191 500.774 348.503 497.398 345.127C494.163 341.751 492.545 337.672 492.545 332.889C492.545 328.106 493.952 324.097 496.765 320.862C499.719 317.486 503.588 315.798 508.37 315.798C509.496 315.798 510.41 316.22 511.113 317.064C511.957 317.908 512.45 318.963 512.59 320.229C512.731 321.354 512.45 322.339 511.746 323.183C511.184 324.027 510.058 324.449 508.37 324.449C505.979 324.449 504.08 325.363 502.673 327.192C501.407 328.88 500.774 330.638 500.774 332.467C500.774 335.14 501.689 337.32 503.517 339.008C505.346 340.555 507.597 341.329 510.269 341.329C513.083 341.329 515.474 340.555 517.443 339.008C519.413 337.32 520.397 334.999 520.397 332.045C520.397 329.232 519.342 326.7 517.232 324.449C515.263 322.058 512.52 320.862 509.003 320.862C507.878 320.862 506.964 320.44 506.26 319.596C505.698 318.611 505.416 317.556 505.416 316.431C505.416 315.306 505.698 314.321 506.26 313.477C506.964 312.492 507.948 312 509.214 312Z" fill="#DDA15E"/>
</svg>
