<svg width="512" height="280" viewBox="0 0 512 280" fill="none" xmlns="http://www.w3.org/2000/svg">
<path d="M9.284 140.561C10.128 139.014 11.0423 137.959 12.027 137.396C13.0117 136.693 14.137 136.341 15.403 136.341C17.2317 136.341 18.9197 136.974 20.467 138.24C22.0143 139.365 23.1397 140.772 23.843 142.46C24.687 144.148 24.6167 145.836 23.632 147.524C19.1307 156.245 16.88 164.826 16.88 173.266C16.88 180.581 18.99 187.192 23.21 193.1C27.43 199.149 33.0567 203.861 40.09 207.237C47.1233 210.754 54.9303 212.512 63.511 212.512C73.3577 212.512 82.079 211.105 89.675 208.292C97.271 205.479 103.249 201.681 107.61 196.898C112.111 192.115 114.362 186.84 114.362 181.073C114.362 176.853 112.463 172.492 108.665 167.991C105.008 163.49 98.959 159.059 90.519 154.698C88.6903 153.432 87.6353 151.885 87.354 150.056C87.2133 148.087 87.565 146.188 88.409 144.359C89.253 142.39 90.4487 140.772 91.996 139.506C93.5433 138.24 95.2313 137.607 97.06 137.607C98.0447 137.607 99.2403 137.959 100.647 138.662C105.711 141.194 110.142 143.374 113.94 145.203C117.738 147.032 121.395 148.438 124.912 149.423C128.429 150.267 132.227 150.689 136.306 150.689L140.104 153.432V169.89L136.306 172C134.055 172 131.945 171.859 129.976 171.578C128.147 171.297 126.319 170.875 124.49 170.312C128.71 174.954 130.82 180.51 130.82 186.981C130.82 193.733 128.991 199.993 125.334 205.76C121.817 211.668 116.894 216.802 110.564 221.163C104.375 225.524 97.06 228.9 88.62 231.291C80.18 233.823 71.107 235.089 61.401 235.089C49.585 235.089 39.035 232.416 29.751 227.071C20.467 221.726 13.1523 214.481 7.807 205.338C2.60233 196.335 0 186.348 0 175.376C0 170.031 0.703333 164.404 2.11 158.496C3.51667 152.588 5.908 146.61 9.284 140.561ZM49.585 279.188C45.2243 280.173 41.989 279.751 39.879 277.922C37.769 276.234 36.714 273.702 36.714 270.326C36.714 267.372 38.0503 265.262 40.723 263.996C43.5363 262.73 47.053 261.745 51.273 261.042C55.915 260.057 60.4867 259.495 64.988 259.354C69.63 259.354 73.7093 259.495 77.226 259.776C79.4767 259.917 81.3053 260.55 82.712 261.675C84.1187 262.941 85.033 264.418 85.455 266.106C85.877 267.794 85.877 269.482 85.455 271.17C85.033 272.858 84.1187 274.265 82.712 275.39C81.3053 276.515 79.4767 277.078 77.226 277.078C73.1467 277.078 68.6453 277.148 63.722 277.289C58.7987 277.43 54.0863 278.063 49.585 279.188Z" fill="white"/>
<path d="M136.372 172L132.574 168.835V153.854L136.372 150.689C140.733 150.689 144.601 149.775 147.977 147.946C151.494 145.977 154.377 142.882 156.628 138.662C159.019 134.301 160.707 128.675 161.692 121.782C161.692 117.421 161.903 113.764 162.325 110.81C162.747 107.715 163.661 105.394 165.068 103.847C166.615 102.159 168.796 101.315 171.609 101.315C174.422 101.315 176.532 102.018 177.939 103.425C179.346 104.691 180.049 106.238 180.049 108.067C180.049 110.036 179.838 112.006 179.416 113.975C178.994 115.804 178.572 117.773 178.15 119.883C177.728 121.993 177.517 124.244 177.517 126.635C177.517 131.136 178.502 135.216 180.471 138.873C182.44 142.53 185.113 145.414 188.489 147.524C191.865 149.634 195.663 150.689 199.883 150.689L203.681 153.643V169.468L199.883 172C192.146 172 185.535 169.679 180.049 165.037C174.563 160.395 170.695 154.276 168.444 146.68C167.037 151.603 164.716 155.964 161.481 159.762C158.386 163.56 154.659 166.584 150.298 168.835C146.078 170.945 141.436 172 136.372 172ZM161.692 74.5181C157.331 75.5028 154.096 75.1511 151.986 73.4631C149.876 71.6344 148.821 69.0321 148.821 65.6561C148.821 62.7021 150.157 60.5921 152.83 59.3261C155.643 58.0601 159.16 57.0754 163.38 56.3721C168.022 55.3874 172.594 54.8951 177.095 54.8951C181.737 54.7544 185.816 54.8248 189.333 55.1061C191.584 55.2468 193.412 55.9501 194.819 57.2161C196.226 58.3414 197.14 59.7481 197.562 61.4361C197.984 63.1241 197.984 64.8121 197.562 66.5001C197.14 68.1881 196.226 69.5948 194.819 70.7201C193.412 71.8454 191.584 72.4081 189.333 72.4081C185.254 72.4081 180.752 72.4784 175.829 72.6191C170.906 72.7598 166.193 73.3928 161.692 74.5181Z" fill="white"/>
<path d="M199.837 172L196.039 168.835V153.854L199.837 150.689C204.197 150.689 208.066 149.775 211.442 147.946C214.958 145.977 217.842 142.882 220.093 138.662C222.484 134.301 224.172 128.675 225.157 121.782C225.157 117.421 225.368 113.764 225.79 110.81C226.212 107.715 227.126 105.394 228.533 103.847C230.08 102.159 232.26 101.315 235.074 101.315C237.887 101.315 239.997 102.018 241.404 103.425C242.81 104.691 243.514 106.238 243.514 108.067C243.514 110.036 243.303 112.006 242.881 113.975C242.459 115.804 242.037 117.773 241.615 119.883C241.193 121.993 240.982 124.244 240.982 126.635C240.982 131.136 241.966 135.216 243.936 138.873C245.905 142.53 248.578 145.414 251.954 147.524C255.33 149.634 259.128 150.689 263.348 150.689L267.146 153.643V169.468L263.348 172C255.611 172 249 169.679 243.514 165.037C238.028 160.395 234.159 154.276 231.909 146.68C230.502 151.603 228.181 155.964 224.946 159.762C221.851 163.56 218.123 166.584 213.763 168.835C209.543 170.945 204.901 172 199.837 172ZM229.377 225.805C227.407 225.805 225.719 225.242 224.313 224.117C223.047 222.992 222.062 221.585 221.359 219.897C220.796 218.209 220.515 216.451 220.515 214.622C220.515 211.105 221.429 208.151 223.258 205.76C225.086 203.509 227.267 202.384 229.799 202.384C232.331 202.384 234.37 202.947 235.918 204.072C237.606 205.338 238.801 206.815 239.505 208.503C240.349 210.332 240.771 212.231 240.771 214.2C240.771 217.998 239.645 220.882 237.395 222.851C235.285 224.82 232.612 225.805 229.377 225.805Z" fill="white"/>
<path d="M263.302 172L259.504 168.835V153.854L263.302 150.689C267.662 150.689 271.531 149.775 274.907 147.946C278.423 145.977 281.307 142.882 283.558 138.662C285.949 134.301 287.637 128.675 288.622 121.782C288.622 117.421 288.833 113.764 289.255 110.81C289.677 107.715 290.591 105.394 291.998 103.847C293.545 102.159 295.725 101.315 298.539 101.315C301.352 101.315 303.462 102.018 304.869 103.425C306.275 104.691 306.979 106.238 306.979 108.067C306.979 110.036 306.768 112.006 306.346 113.975C305.924 115.804 305.502 117.773 305.08 119.883C304.658 121.993 304.447 124.244 304.447 126.635C304.447 131.136 305.431 135.216 307.401 138.873C309.37 142.53 312.043 145.414 315.419 147.524C318.795 149.634 322.593 150.689 326.813 150.689L330.611 153.643V169.468L326.813 172C319.076 172 312.465 169.679 306.979 165.037C301.493 160.395 297.624 154.276 295.374 146.68C293.967 151.603 291.646 155.964 288.411 159.762C285.316 163.56 281.588 166.584 277.228 168.835C273.008 170.945 268.366 172 263.302 172ZM288.622 74.5181C284.261 75.5028 281.026 75.1511 278.916 73.4631C276.806 71.6344 275.751 69.0321 275.751 65.6561C275.751 62.7021 277.087 60.5921 279.76 59.3261C282.573 58.0601 286.09 57.0754 290.31 56.3721C294.952 55.3874 299.523 54.8951 304.025 54.8951C308.667 54.7544 312.746 54.8248 316.263 55.1061C318.513 55.2468 320.342 55.9501 321.749 57.2161C323.155 58.3414 324.07 59.7481 324.492 61.4361C324.914 63.1241 324.914 64.8121 324.492 66.5001C324.07 68.1881 323.155 69.5948 321.749 70.7201C320.342 71.8454 318.513 72.4081 316.263 72.4081C312.183 72.4081 307.682 72.4784 302.759 72.6191C297.835 72.7598 293.123 73.3928 288.622 74.5181Z" fill="white"/>
<path d="M326.766 172L322.968 169.89V153.854L326.766 150.689C331.83 150.689 336.402 149.775 340.481 147.946C344.701 145.977 348.218 143.374 351.031 140.139C353.845 136.904 355.744 133.317 356.728 129.378C357.854 125.299 357.783 121.079 356.517 116.718L337.105 61.0141C335.699 56.5128 335.488 52.5038 336.472 48.9871C337.598 45.4704 339.848 42.6571 343.224 40.5471C352.368 34.7798 362.285 29.4344 372.975 24.5111C383.807 19.4471 395.412 15.1568 407.79 11.6401C409.197 11.2181 410.533 11.4994 411.799 12.4841C413.065 13.3281 414.05 14.5238 414.753 16.0711C415.597 17.6184 416.09 19.3064 416.23 21.1351C416.512 22.9638 416.301 24.5814 415.597 25.9881C415.035 27.3948 413.98 28.3091 412.432 28.7311C402.445 31.6851 392.176 35.4831 381.626 40.1251C371.217 44.7671 361.441 49.8311 352.297 55.3171L374.452 118.406C377.406 126.424 380.29 132.824 383.103 137.607C385.917 142.249 388.941 145.625 392.176 147.735C395.412 149.704 398.999 150.689 402.937 150.689L406.735 154.065V169.468L402.937 172C395.623 172 388.73 169.187 382.259 163.56C375.929 157.793 370.936 150.056 367.278 140.35C365.028 146.68 361.863 152.236 357.783 157.019C353.845 161.802 349.203 165.529 343.857 168.202C338.512 170.734 332.815 172 326.766 172Z" fill="white"/>
<path d="M473.903 175.587C464.337 175.587 455.686 172.492 447.95 166.303C440.213 159.973 434.305 151.322 430.226 140.35L440.143 125.369C443.097 134.231 447.387 141.264 453.014 146.469C458.64 151.674 464.9 154.276 471.793 154.276C479.248 154.276 485.156 152.166 489.517 147.946C494.018 143.726 496.269 138.099 496.269 131.066C496.269 126.143 495.284 121.782 493.315 117.984C491.345 114.186 488.743 111.232 485.508 109.122C482.272 106.871 478.756 105.746 474.958 105.746C471.16 105.746 467.502 106.801 463.986 108.911C460.61 110.88 457.234 114.327 453.858 119.25C450.622 124.033 447.106 130.644 443.308 139.084C438.525 149.775 432.687 157.933 425.795 163.56C419.043 169.187 411.306 172 402.585 172L399.209 169.89V153.854L403.007 150.689C407.086 150.689 410.743 150.056 413.979 148.79C417.214 147.383 420.238 144.922 423.052 141.405C426.006 137.748 428.96 132.613 431.914 126.002C436.556 115.733 441.057 107.645 445.418 101.737C449.919 95.8291 454.561 91.6794 459.344 89.2881C464.267 86.7561 469.542 85.4901 475.169 85.4901C481.921 85.4901 488.04 87.5298 493.526 91.6091C499.012 95.5478 503.372 100.963 506.608 107.856C509.843 114.749 511.461 122.626 511.461 131.488C511.461 140.209 509.843 147.876 506.608 154.487C503.513 161.098 499.152 166.303 493.526 170.101C487.899 173.758 481.358 175.587 473.903 175.587Z" fill="white"/>
<path d="M145.358 202.907C153.094 202.626 160.901 201.289 168.779 198.898C176.656 196.647 183.197 194.115 188.402 191.302C189.808 190.599 191.145 190.528 192.411 191.091C193.677 191.654 194.661 192.568 195.365 193.834C196.068 195.241 196.279 196.647 195.998 198.054C195.716 199.461 194.802 200.586 193.255 201.43C189.597 203.681 185.166 205.72 179.962 207.549C174.757 209.518 169.271 211.066 163.504 212.191C157.877 213.457 152.391 214.16 147.046 214.301C145.358 214.301 144.021 213.738 143.037 212.613C142.052 211.628 141.489 210.362 141.349 208.815C141.208 207.408 141.419 206.072 141.982 204.806C142.685 203.681 143.81 203.048 145.358 202.907Z" fill="#DDA15E"/>
<path d="M210.632 63.446C218.369 63.1647 226.176 61.8987 234.053 59.648C241.931 57.2567 248.472 54.6543 253.676 51.841C255.083 51.1377 256.419 51.0673 257.685 51.63C258.951 52.1927 259.936 53.1773 260.639 54.584C261.343 55.85 261.554 57.1863 261.272 58.593C260.991 59.9997 260.077 61.125 258.529 61.969C254.872 64.2197 250.441 66.3297 245.236 68.299C240.032 70.1277 234.546 71.675 228.778 72.941C223.152 74.0663 217.666 74.6993 212.32 74.84C210.632 74.84 209.296 74.3477 208.311 73.363C207.327 72.2377 206.764 70.9717 206.623 69.565C206.483 68.0177 206.694 66.6813 207.256 65.556C207.96 64.29 209.085 63.5867 210.632 63.446Z" fill="#DDA15E"/>
<path d="M274.097 21.446C281.834 21.1647 289.641 19.8987 297.518 17.648C305.396 15.2567 311.937 12.6543 317.141 9.84099C318.548 9.13766 319.884 9.06733 321.15 9.63C322.416 10.1927 323.401 11.1773 324.104 12.584C324.808 13.85 325.019 15.1863 324.737 16.593C324.456 17.9997 323.542 19.125 321.994 19.969C318.337 22.2197 313.906 24.3297 308.701 26.299C303.497 28.1277 298.011 29.675 292.243 30.941C286.617 32.0663 281.131 32.6993 275.785 32.84C274.097 32.84 272.761 32.3477 271.776 31.363C270.792 30.2377 270.229 28.9717 270.088 27.565C269.948 26.0177 270.159 24.6813 270.721 23.556C271.425 22.29 272.55 21.5867 274.097 21.446Z" fill="#DDA15E"/>
<path d="M405.33 0C411.379 0 416.091 1.96933 419.467 5.908C422.984 9.84667 424.742 14.559 424.742 20.045C424.742 25.2497 423.054 29.6103 419.678 33.127C416.443 36.503 412.082 38.191 406.596 38.191C401.251 38.191 396.89 36.503 393.514 33.127C390.279 29.751 388.661 25.6717 388.661 20.889C388.661 16.1063 390.068 12.0973 392.881 8.862C395.835 5.486 399.703 3.798 404.486 3.798C405.611 3.798 406.526 4.22 407.229 5.06401C408.073 5.90801 408.565 6.96301 408.706 8.22901C408.847 9.35433 408.565 10.339 407.862 11.183C407.299 12.027 406.174 12.449 404.486 12.449C402.095 12.449 400.196 13.3633 398.789 15.192C397.523 16.88 396.89 18.6383 396.89 20.467C396.89 23.1397 397.804 25.32 399.633 27.008C401.462 28.5553 403.712 29.329 406.385 29.329C409.198 29.329 411.59 28.5553 413.559 27.008C415.528 25.32 416.513 22.999 416.513 20.045C416.513 17.2317 415.458 14.6997 413.348 12.449C411.379 10.0577 408.636 8.862 405.119 8.862C403.994 8.862 403.079 8.44 402.376 7.596C401.813 6.61134 401.532 5.55634 401.532 4.43101C401.532 3.30567 401.813 2.321 402.376 1.47701C403.079 0.492335 404.064 0 405.33 0Z" fill="#DDA15E"/>
<path d="M448.419 50.446C456.156 50.1647 463.963 48.8987 471.84 46.648C479.718 44.2567 486.259 41.6543 491.463 38.841C492.87 38.1377 494.206 38.0673 495.472 38.63C496.738 39.1927 497.723 40.1773 498.426 41.584C499.13 42.85 499.341 44.1863 499.059 45.593C498.778 46.9997 497.864 48.125 496.316 48.969C492.659 51.2197 488.228 53.3297 483.023 55.299C477.819 57.1277 472.333 58.675 466.565 59.941C460.939 61.0663 455.453 61.6993 450.107 61.84C448.419 61.84 447.083 61.3477 446.098 60.363C445.114 59.2377 444.551 57.9717 444.41 56.565C444.27 55.0177 444.481 53.6813 445.043 52.556C445.747 51.29 446.872 50.5867 448.419 50.446Z" fill="#DDA15E"/>
</svg>
