<svg fill="none" height="350" viewBox="0 0 1100 350" width="1100" xmlns="http://www.w3.org/2000/svg"><g fill="#fff"><path d="m1050 0h50v150h-50z"/><path d="m950 0h50v250h-50z"/><path d="m1000 200h50v900h-50z" transform="matrix(0 1 -1 0 1200 -800)"/><path d="m1100 0h50v150h-50z" transform="matrix(0 1 -1 0 1100 -1100)"/><path d="m1100 100h50v150h-50z" transform="matrix(0 1 -1 0 1200 -1000)"/><path d="m850 100h50v150h-50z"/><path d="m900 100h50v250h-50z" transform="matrix(0 1 -1 0 1000 -800)"/><path d="m900 0h50v250h-50z" transform="matrix(0 1 -1 0 900 -900)"/><path d="m700 150h50v150h-50z" transform="matrix(-1 0 0 -1 1400 300)"/><path d="m600 250h50v150h-50z" transform="matrix(-1 0 0 -1 1200 500)"/><path d="m450 250h50v150h-50z" transform="matrix(-1 0 0 -1 900 500)"/><path d="m300 250h50v150h-50z" transform="matrix(-1 0 0 -1 600 500)"/><path d="m150 250h50v150h-50z" transform="matrix(-1 0 0 -1 300 500)"/><path d="m0 150h50v150h-50z" transform="matrix(0 -1 1 0 -150 150)"/></g><path d="m0 350h50v50h-50z" fill="#d9d9d9" transform="matrix(0 -1 1 0 -350 350)"/><path d="m100 350h50v100h-50z" fill="#fff" transform="matrix(0 -1 1 0 -250 450)"/><path d="m250 350h50v100h-50z" fill="#cdad80" transform="matrix(0 -1 1 0 -100 600)"/><path d="m400 350h50v50h-50z" fill="#fff" transform="matrix(0 -1 1 0 50 750)"/><path d="m500 350h50v600h-50z" fill="#cdad80" transform="matrix(0 -1 1 0 150 850)"/><path d="m500 50h50v100h-50z" fill="#fff" transform="matrix(0 -1 1 0 450 550)"/><path d="m350 50h50v100h-50z" fill="#cdad80" transform="matrix(0 -1 1 0 300 400)"/><path d="m200 50h50v100h-50z" fill="#fff" transform="matrix(0 -1 1 0 150 250)"/><path d="m0 50h50v150h-50z" fill="#cdad80" transform="matrix(0 -1 1 0 -50 50)"/><path d="m50 350h50v250h-50z" fill="#fff" transform="matrix(-1 0 0 -1 100 700)"/></svg>