<svg width="581" height="239" viewBox="0 0 581 239" fill="none" xmlns="http://www.w3.org/2000/svg">
<path d="M7.4905 235.521C5.3805 235.521 3.76283 234.747 2.6375 233.2C1.3715 231.793 0.597834 230.035 0.3165 227.925C-0.1055 225.815 -0.1055 223.705 0.3165 221.595C0.7385 219.485 1.51217 217.727 2.6375 216.32C3.76283 214.913 5.1695 214.21 6.8575 214.21C15.0162 214.632 21.9088 213.788 27.5355 211.678C33.3028 209.568 37.9448 206.403 41.4615 202.183C44.9782 198.104 47.6508 193.251 49.4795 187.624C51.4488 181.857 52.7148 175.527 53.2775 168.634C53.9808 161.601 54.2622 154.286 54.1215 146.69C53.9808 143.173 54.8248 140.712 56.6535 139.305C58.4822 137.758 60.5218 136.984 62.7725 136.984C64.8825 136.984 66.7112 137.617 68.2585 138.883C69.9465 140.149 70.7905 141.907 70.7905 144.158C70.7905 148.8 71.4235 153.231 72.6895 157.451C73.9555 161.53 76.1358 164.906 79.2305 167.579C82.4658 170.111 86.7562 171.377 92.1015 171.377L95.8995 174.331V190.156L92.1015 192.688C86.8968 192.688 82.1142 191.281 77.7535 188.468C73.5335 185.655 70.2278 182.279 67.8365 178.34C66.5705 191.141 63.1242 201.831 57.4975 210.412C52.0115 219.133 44.9782 225.604 36.3975 229.824C27.8168 234.044 18.1812 235.943 7.4905 235.521Z" fill="white"/>
<path d="M92.1262 192.688L88.3282 189.523V174.542L92.1262 171.377C96.4869 171.377 100.355 170.463 103.731 168.634C107.248 166.665 110.132 163.57 112.382 159.35C114.774 154.989 116.462 149.363 117.446 142.47C117.446 138.109 117.657 134.452 118.079 131.498C118.501 128.403 119.416 126.082 120.822 124.535C122.37 122.847 124.55 122.003 127.363 122.003C130.177 122.003 132.287 122.706 133.693 124.113C135.1 125.379 135.803 126.926 135.803 128.755C135.803 130.724 135.592 132.694 135.17 134.663C134.748 136.492 134.326 138.461 133.904 140.571C133.482 142.681 133.271 144.932 133.271 147.323C133.271 151.824 134.256 155.904 136.225 159.561C138.195 163.218 140.867 166.102 144.243 168.212C147.619 170.322 151.417 171.377 155.637 171.377L159.435 174.331V190.156L155.637 192.688C147.901 192.688 141.289 190.367 135.803 185.725C130.317 181.083 126.449 174.964 124.198 167.368C122.792 172.291 120.471 176.652 117.235 180.45C114.141 184.248 110.413 187.272 106.052 189.523C101.832 191.633 97.1902 192.688 92.1262 192.688ZM111.96 238.264C107.6 239.249 104.364 238.827 102.254 236.998C100.144 235.31 99.0892 232.778 99.0892 229.402C99.0892 226.448 100.426 224.338 103.098 223.072C105.912 221.806 109.428 220.821 113.648 220.118C118.29 219.133 122.862 218.571 127.363 218.43C132.005 218.43 136.085 218.571 139.601 218.852C141.852 218.993 143.681 219.626 145.087 220.751C146.494 222.017 147.408 223.494 147.83 225.182C148.252 226.87 148.252 228.558 147.83 230.246C147.408 231.934 146.494 233.341 145.087 234.466C143.681 235.591 141.852 236.154 139.601 236.154C135.522 236.154 131.021 236.224 126.097 236.365C121.174 236.506 116.462 237.139 111.96 238.264Z" fill="white"/>
<path d="M216.359 192.899C209.466 192.899 203.558 190.578 198.635 185.936C193.712 181.153 190.265 175.527 188.296 169.056C186.045 175.949 182.107 181.646 176.48 186.147C170.853 190.508 163.89 192.688 155.591 192.688L151.793 190.156V174.753L155.591 171.377C161.218 171.377 165.719 170.322 169.095 168.212C172.612 165.961 175.284 163.148 177.113 159.772C179.082 156.255 180.419 152.457 181.122 148.378C181.825 144.158 182.247 140.149 182.388 136.351C182.529 132.834 183.091 130.162 184.076 128.333C185.061 126.364 187.1 125.379 190.195 125.379C193.008 125.379 195.048 126.153 196.314 127.7C197.58 129.247 198.072 131.428 197.791 134.241C196.806 143.244 197.158 150.418 198.846 155.763C200.534 160.968 203.066 164.766 206.442 167.157C209.818 169.408 213.475 170.533 217.414 170.533C222.9 170.533 227.401 168.212 230.918 163.57C234.575 158.787 236.756 152.457 237.459 144.58C237.459 143.173 237.459 141.556 237.459 139.727C237.459 137.758 237.67 135.366 238.092 132.553C238.373 129.458 239.147 127.137 240.413 125.59C241.679 123.902 243.719 123.058 246.532 123.058C249.345 123.058 251.315 124.043 252.44 126.012C253.706 127.841 254.198 130.162 253.917 132.975C253.354 137.758 252.932 142.4 252.651 146.901C252.51 151.402 252.862 155.482 253.706 159.139C254.55 162.656 256.238 165.469 258.77 167.579C261.302 169.548 264.959 170.533 269.742 170.533C274.947 170.533 279.096 168.775 282.191 165.258C285.426 161.741 287.747 157.029 289.154 151.121C290.701 145.072 291.475 138.25 291.475 130.654C291.475 127.7 292.178 125.449 293.585 123.902C295.132 122.214 297.172 121.37 299.704 121.37C301.955 121.37 303.713 122.284 304.979 124.113C306.386 125.801 307.019 128.685 306.878 132.764C306.737 144.58 305.331 154.989 302.658 163.992C299.985 172.995 296.047 180.028 290.842 185.092C285.637 190.156 279.167 192.688 271.43 192.688C264.537 192.688 258.559 190.578 253.495 186.358C248.572 181.997 245.336 176.3 243.789 169.267C241.538 176.582 238.022 182.349 233.239 186.569C228.456 190.789 222.83 192.899 216.359 192.899ZM329.455 192.688C324.954 192.688 320.945 191.844 317.428 190.156C313.911 188.468 310.817 186.217 308.144 183.404C305.471 180.45 303.15 177.285 301.181 173.909C299.352 170.392 297.735 166.876 296.328 163.359C295.062 159.842 293.937 156.537 292.952 153.442L303.713 151.121C305.964 157.592 309.41 162.585 314.052 166.102C318.835 169.619 323.969 171.377 329.455 171.377L333.253 174.331V190.156L329.455 192.688Z" fill="white"/>
<path d="M329.501 192.688L325.703 190.156V173.909L329.501 171.377C334.987 171.377 340.755 170.744 346.803 169.478C352.993 168.212 359.041 166.454 364.949 164.203C370.857 161.952 376.203 159.28 380.985 156.185C385.768 152.95 389.566 149.503 392.379 145.846C395.333 142.048 396.81 138.109 396.81 134.03C396.81 130.091 395.826 126.645 393.856 123.691C392.028 120.596 389.496 118.135 386.26 116.306C383.025 114.477 379.368 113.563 375.288 113.563C369.24 113.563 364.176 115.462 360.096 119.26C356.017 123.058 353.977 127.981 353.977 134.03C353.977 139.516 355.947 144.51 359.885 149.011C363.965 153.512 369.31 157.451 375.921 160.827C382.533 164.203 389.777 166.805 397.654 168.634C405.672 170.463 413.55 171.377 421.286 171.377L425.084 174.542V190.578L421.286 192.688C413.972 192.688 406.376 191.703 398.498 189.734C390.762 187.624 383.306 184.74 376.132 181.083C368.958 177.426 362.488 173.135 356.72 168.212C351.094 163.148 346.592 157.662 343.216 151.754C339.981 145.846 338.363 139.657 338.363 133.186C338.363 125.59 339.911 118.838 343.005 112.93C346.241 106.881 350.672 102.169 356.298 98.7929C361.925 95.2762 368.255 93.5179 375.288 93.5179C382.322 93.5179 388.581 95.2762 394.067 98.7929C399.694 102.31 404.125 107.092 407.36 113.141C410.736 119.049 412.424 125.731 412.424 133.186C412.424 139.797 410.736 146.127 407.36 152.176C403.984 158.084 399.342 163.5 393.434 168.423C387.667 173.346 381.196 177.637 374.022 181.294C366.848 184.951 359.393 187.765 351.656 189.734C344.06 191.703 336.675 192.688 329.501 192.688ZM374.444 69.0419C372.475 69.0419 370.787 68.4792 369.38 67.3539C368.114 66.2285 367.13 64.8218 366.426 63.1339C365.864 61.4458 365.582 59.6875 365.582 57.8588C365.582 54.3422 366.497 51.4585 368.325 49.2079C370.154 46.8165 372.334 45.6208 374.866 45.6208C377.398 45.6208 379.438 46.2539 380.985 47.5199C382.673 48.6452 383.869 50.1222 384.572 51.9508C385.416 53.6388 385.838 55.4675 385.838 57.4369C385.838 61.2349 384.713 64.1185 382.462 66.0879C380.352 68.0572 377.68 69.0419 374.444 69.0419Z" fill="white"/>
<path d="M421.196 192.688L417.398 189.523V174.542L421.196 171.377C425.556 171.377 429.425 170.463 432.801 168.634C436.317 166.665 439.201 163.57 441.452 159.35C443.843 154.989 445.531 149.363 446.516 142.47C446.516 138.109 446.727 134.452 447.149 131.498C447.571 128.403 448.485 126.082 449.892 124.535C451.439 122.847 453.619 122.003 456.433 122.003C459.246 122.003 461.356 122.706 462.763 124.113C464.169 125.379 464.873 126.926 464.873 128.755C464.873 130.724 464.662 132.694 464.24 134.663C463.818 136.492 463.396 138.461 462.974 140.571C462.552 142.681 462.341 144.932 462.341 147.323C462.341 151.824 463.325 155.904 465.295 159.561C467.264 163.218 469.937 166.102 473.313 168.212C476.689 170.322 480.487 171.377 484.707 171.377L488.505 174.331V190.156L484.707 192.688C476.97 192.688 470.359 190.367 464.873 185.725C459.387 181.083 455.518 174.964 453.268 167.368C451.861 172.291 449.54 176.652 446.305 180.45C443.21 184.248 439.482 187.272 435.122 189.523C430.902 191.633 426.26 192.688 421.196 192.688ZM446.516 95.2059C442.155 96.1905 438.92 95.8389 436.81 94.1509C434.7 92.3222 433.645 89.7199 433.645 86.3439C433.645 83.3899 434.981 81.2798 437.654 80.0138C440.467 78.7478 443.984 77.7632 448.204 77.0598C452.846 76.0752 457.417 75.5829 461.919 75.5829C466.561 75.4422 470.64 75.5125 474.157 75.7939C476.407 75.9345 478.236 76.6378 479.643 77.9038C481.049 79.0292 481.964 80.4359 482.386 82.1238C482.808 83.8119 482.808 85.4999 482.386 87.1879C481.964 88.8759 481.049 90.2825 479.643 91.4079C478.236 92.5332 476.407 93.0958 474.157 93.0958C470.077 93.0958 465.576 93.1662 460.653 93.3069C455.729 93.4475 451.017 94.0805 446.516 95.2059Z" fill="white"/>
<path d="M484.66 192.688L480.862 190.367V174.542L484.66 171.377C492.116 171.377 497.813 169.197 501.751 164.836C505.69 160.475 507.941 154.005 508.503 145.424C509.066 138.672 509.418 132.061 509.558 125.59C509.84 118.979 510.051 111.805 510.191 104.068C510.332 96.3312 510.402 87.5395 510.402 77.6929C510.543 67.9869 510.613 59.4765 510.613 52.1619C510.613 44.8472 510.684 39.7832 510.824 36.9698C511.106 31.3432 513.919 28.5298 519.264 28.5298C522.218 28.5298 524.399 29.1628 525.805 30.4288C527.353 31.6948 528.126 33.6642 528.126 36.3368C528.126 42.3855 528.056 48.4342 527.915 54.4828C527.915 60.5315 527.845 66.1582 527.704 71.3628C527.704 76.5675 527.704 81.0689 527.704 84.8669C527.704 89.3682 527.634 94.6432 527.493 100.692C527.493 106.6 527.353 112.93 527.071 119.682C526.931 126.293 526.579 132.975 526.016 139.727C525.594 146.479 525.032 152.809 524.328 158.717C523.203 165.328 521.023 171.236 517.787 176.441C514.552 181.505 510.191 185.514 504.705 188.468C499.36 191.281 492.678 192.688 484.66 192.688Z" fill="white"/>
<path d="M567.862 194.165C566.877 194.165 565.611 193.954 564.064 193.532C562.517 193.11 561.18 192.266 560.055 191C558.93 189.734 558.367 187.765 558.367 185.092C558.367 178.34 558.437 171.025 558.578 163.148C558.719 155.13 558.859 146.831 559 138.25C559.281 129.529 559.563 120.667 559.844 111.664C560.125 102.661 560.407 93.7992 560.688 85.0778C560.969 76.2158 561.251 67.7055 561.532 59.5468C561.813 51.2475 562.095 43.5108 562.376 36.3368C562.517 33.5235 563.431 31.4839 565.119 30.2178C566.948 28.9518 569.058 28.3188 571.449 28.3188C574.544 28.3188 576.794 29.1628 578.201 30.8509C579.608 32.5388 580.241 34.6488 580.1 37.1808C579.959 43.3702 579.748 50.1925 579.467 57.6479C579.186 64.9625 578.904 72.6289 578.623 80.6469C578.482 88.5242 578.271 96.5422 577.99 104.701C577.568 119.049 577.216 132.834 576.935 146.057C576.794 159.139 576.583 171.869 576.302 184.248C576.302 185.795 576.021 187.343 575.458 188.89C574.895 190.437 573.981 191.703 572.715 192.688C571.59 193.673 569.972 194.165 567.862 194.165Z" fill="white"/>
<path d="M35.631 98.354C34.365 97.51 33.5914 96.455 33.31 95.189C33.1694 93.7824 33.3804 92.5164 33.943 91.391C34.5057 90.2657 35.2794 89.492 36.264 89.07C37.3894 88.5074 38.6554 88.648 40.062 89.492C42.7347 91.18 45.4777 92.446 48.291 93.29C51.245 93.9934 54.0584 94.345 56.731 94.345C59.5444 94.345 62.1467 93.923 64.538 93.079C66.9294 92.235 68.8284 91.1097 70.235 89.703C67.703 89.9844 65.3117 89.2107 63.061 87.382C60.8104 85.5534 59.685 82.8807 59.685 79.364C59.685 76.2694 60.5994 73.7374 62.428 71.768C64.3974 69.658 66.859 68.603 69.813 68.603C73.3297 68.603 76.143 69.869 78.253 72.401C80.363 74.933 81.418 78.309 81.418 82.529C81.418 86.8897 80.2224 90.758 77.831 94.134C75.5804 97.3694 72.4857 99.9014 68.547 101.73C64.749 103.559 60.529 104.473 55.887 104.473C52.6517 104.473 49.2757 103.981 45.759 102.996C42.2424 102.011 38.8664 100.464 35.631 98.354Z" fill="#DDA15E"/>
<path d="M221.036 227.595C228.772 227.314 236.579 225.977 244.457 223.586C252.334 221.335 258.875 218.803 264.08 215.99C265.486 215.287 266.823 215.216 268.089 215.779C269.355 216.342 270.339 217.256 271.043 218.522C271.746 219.929 271.957 221.335 271.676 222.742C271.394 224.149 270.48 225.274 268.933 226.118C265.275 228.369 260.844 230.408 255.64 232.237C250.435 234.206 244.949 235.754 239.182 236.879C233.555 238.145 228.069 238.848 222.724 238.989C221.036 238.989 219.699 238.426 218.715 237.301C217.73 236.316 217.167 235.05 217.027 233.503C216.886 232.096 217.097 230.76 217.66 229.494C218.363 228.369 219.488 227.736 221.036 227.595Z" fill="#DDA15E"/>
<path d="M373.613 0.23584C379.662 0.23584 384.374 2.20517 387.75 6.14384C391.267 10.0825 393.025 14.7948 393.025 20.2808C393.025 25.4855 391.337 29.8462 387.961 33.3628C384.726 36.7388 380.365 38.4268 374.879 38.4268C369.534 38.4268 365.173 36.7388 361.797 33.3628C358.562 29.9868 356.944 25.9075 356.944 21.1248C356.944 16.3422 358.351 12.3332 361.164 9.09784C364.118 5.72184 367.987 4.03384 372.769 4.03384C373.895 4.03384 374.809 4.45584 375.512 5.29985C376.356 6.14385 376.849 7.19885 376.989 8.46485C377.13 9.59017 376.849 10.5748 376.145 11.4188C375.583 12.2628 374.457 12.6848 372.769 12.6848C370.378 12.6848 368.479 13.5992 367.072 15.4278C365.806 17.1158 365.173 18.8742 365.173 20.7028C365.173 23.3755 366.088 25.5558 367.916 27.2438C369.745 28.7912 371.996 29.5648 374.668 29.5648C377.482 29.5648 379.873 28.7912 381.842 27.2438C383.812 25.5558 384.796 23.2348 384.796 20.2808C384.796 17.4675 383.741 14.9355 381.631 12.6848C379.662 10.2935 376.919 9.09784 373.402 9.09784C372.277 9.09784 371.363 8.67584 370.659 7.83184C370.097 6.84718 369.815 5.79218 369.815 4.66685C369.815 3.54151 370.097 2.55684 370.659 1.71285C371.363 0.728175 372.347 0.23584 373.613 0.23584Z" fill="#DDA15E"/>
<path d="M444.862 67.8951C441.345 67.8951 438.391 66.6291 436 64.0971C433.609 61.5651 432.061 58.0484 431.358 53.5471C430.795 48.9051 431.288 43.4894 432.835 37.3001C433.116 36.1748 433.679 35.4011 434.523 34.9791C435.367 34.5571 436.281 34.3461 437.266 34.3461C438.532 34.3461 439.657 34.6978 440.642 35.4011C441.627 36.1044 441.908 37.1594 441.486 38.5661C440.079 43.2081 439.657 47.5688 440.22 51.6481C440.923 55.7274 443.033 57.7671 446.55 57.7671C449.082 57.7671 450.84 56.9934 451.825 55.4461C452.95 53.7581 453.583 51.6481 453.724 49.1161C453.865 46.5841 453.794 44.1224 453.513 41.7311C453.513 40.6058 453.935 39.8321 454.779 39.4101C455.764 38.8474 456.748 38.5661 457.733 38.5661C458.858 38.5661 459.843 38.8474 460.687 39.4101C461.531 39.8321 461.953 40.6058 461.953 41.7311C461.953 44.1224 462.094 46.5841 462.375 49.1161C462.797 51.5074 463.5 53.5471 464.485 55.2351C465.61 56.7824 467.228 57.5561 469.338 57.5561C472.011 57.5561 473.91 56.5011 475.035 54.3911C476.16 52.1404 476.723 49.4678 476.723 46.3731C476.723 43.2784 476.231 40.2541 475.246 37.3001C475.105 36.1748 475.527 35.3308 476.512 34.7681C477.497 34.0648 478.622 33.7131 479.888 33.7131C480.873 33.7131 481.787 33.9241 482.631 34.3461C483.475 34.7681 484.038 35.4714 484.319 36.4561C485.726 41.5201 486.148 46.4434 485.585 51.2261C485.022 56.0088 483.475 59.9474 480.943 63.0421C478.411 66.1368 474.894 67.6841 470.393 67.6841C467.72 67.6841 465.188 66.8401 462.797 65.1521C460.546 63.4641 458.999 61.2134 458.155 58.4001C457.311 61.3541 455.623 63.6751 453.091 65.3631C450.559 67.0511 447.816 67.8951 444.862 67.8951ZM434.523 12.1911C442.26 11.9098 450.067 10.6438 457.944 8.39311C465.821 6.00177 472.362 3.39944 477.567 0.58611C478.974 -0.117223 480.31 -0.187555 481.576 0.375113C482.842 0.937772 483.827 1.92244 484.53 3.32911C485.233 4.59511 485.444 5.93145 485.163 7.33811C484.882 8.74478 483.967 9.87011 482.42 10.7141C478.763 12.9648 474.332 15.0748 469.127 17.0441C463.922 18.8728 458.436 20.4201 452.669 21.6861C447.042 22.8114 441.556 23.4444 436.211 23.5851C434.523 23.5851 433.187 23.0928 432.202 22.1081C431.217 20.9828 430.655 19.7168 430.514 18.3101C430.373 16.7628 430.584 15.4264 431.147 14.3011C431.85 13.0351 432.976 12.3318 434.523 12.1911Z" fill="#DDA15E"/>
</svg>
