<svg fill="none" height="350" viewBox="0 0 1100 350" width="1100" xmlns="http://www.w3.org/2000/svg"><g fill="#fff"><path d="m1050 0h50v250h-50z"/><path d="m950 0h50v250h-50z"/><path d="m100 250v-50h900v50z"/><path d="m850 100h50v150h-50z"/><path d="m900 0v50h-100v-50z"/><path d="m600 150v-50h150v50z"/><path d="m600 50v-50h150v50z"/><path d="m650 150h-50v-150h50z"/><path d="m700 0h50v250h-50z"/></g><path d="m750 0v50h-50v-50z" fill="#cdad80"/><path d="m500 100h50v150h-50z" fill="#fff"/><path d="m400 100h50v150h-50z" fill="#fff"/><path d="m300 100h50v150h-50z" fill="#fff"/><path d="m200 150h50v100h-50z" fill="#fff"/><path d="m0 100h50v250h-50z" fill="#fff"/><path d="m0 350v-50h100v50z" fill="#fff"/><path d="m150 350v-50h100v50z" fill="#fff"/><path d="m100 100h50v150h-50z" fill="#fff"/><path d="m0 150v-50h150v50z" fill="#fff"/><path d="m300 350v-50h800v50z" fill="#cdad80"/><path d="m0 50v-50h550v50z" fill="#cdad80"/></svg>