<svg height="30" viewBox="0 0 70 30" width="70" xmlns="http://www.w3.org/2000/svg"><g fill="#191c4f"><path d="m15.1 23c-.1.1-.1.2-.2.4 0 .2-.1.2-.3.4-.3.1-4 2-4.2 2.1-.3.2-.3.1-.3-.1q0 0 .1-.3c0-.2.1-.2.3-.4.3-.1 4.1-2 4.3-2.1.3-.2.3-.1.3 0z"/><path d="m29.4 22.5c.3.1.3.6.2.8-.3 1-1 1.7-1.2 1.9-.1.2-.2 0 0-.1 0 0 .1-.3.3-.4.6-.8.6-1.2.6-1.3-.1-.6-.5-.4-.8-.2-.1.2-.1.1-.1 0q.1-.1.2-.2c.3-.5.6-.5.8-.5z"/><path d="m35.7 21.6c.3.1.3.6.3.8-.3 1-1 1.6-1.2 1.8s-.2.1-.1-.1c0 0 .2-.2.3-.4.6-.7.6-1.2.6-1.3-.1-.5-.5-.4-.7-.1-.2.1-.2 0-.1 0q0-.1.1-.3c.4-.5.6-.5.8-.4z"/><path d="m64 20.9v.5c0 .3-.1.6-.3 1-.1.3-.8.4-1.3.1-.8 1.3-1.5.6-1.9.5-.7-.3-.9.2-1.1.4-.9 1-2.6 1-3 1s0-.2.1-.3c1.3-.4 2.1-.5 3.3-1.6.5-.5.9-.3 1-.2 1.1.5 1.3 0 1.4-.1.2-.2.4-.7.4-.9.1-.2.2-.1.2.1 0 .1-.1.3-.1.4.4.3.9.1 1 0 0 0 0-.4-.1-.5q0-.2.2-.6c.1-.3.1 0 .2.2z"/><path d="m43.7 19.4c-.3 1-1.9 1.6-2.2 1.7-1.4.5-1.5-.9-1.4-1.9s.8-2.2.8-2.2c-.1-.1-1.5-1.2-1.6-1.3-.1-.2-.3-.3-.4-.4s-.1-.1-.1-.1 0-1.1 0-1.2.1-.1.2 0c.1 0 1.7.7 1.8.7.2.1.1.2.1.3-.1 0-.7.1-.7.1l1.3.9s1.8-2.3 2-2.5c.1-.2.1-.1.1.1 0 .3-.4 1.3-.5 1.4-.1.2-1 1.4-1 1.4s1.2.7 1.5 1.2c.5.7.2 1.4.1 1.8zm-2.2-2.1s-.8 1.4-1 1.6c-.3.8.5 1 .8 1 .3-.1 1.4-.6 1.9-1 .5-.5-1.4-1.4-1.7-1.6z" fill-rule="evenodd"/><path d="m65.6 18.1c-.1.2-.4 1.2-1.8 1-.4-.1-1.1-.3-1.4-1.1-.4.5-1.2 1.9-2.9 1.6-.3 0-1.5-.5-1.5-1.9 0 0-1.4 1.1-2 1.4 0 .5 0 1.1-.2 1.8-.3.7-3.2 4-5.6 4.5-.8.2-3.9.7-4-2.7q0-1 .1-1.6c-1.9 1.5-4.2 2.6-4.8 2.9-1 .5-4.5 1-5.1 1.2-.4 0-.5-.1-.2-.2.2-.2 7.9-2.8 12-7q.1-.2-.1-.5c-.1-.2-1.3-2.6-1.4-3-.2-.3-.3-.7-.4-.8q-.1-.2 0-.4c0-.1.1-.7.1-.9.1-.1.1-.1.2 0s1.4 1.4 1.5 1.6c.2.1 0 .2 0 .2-.1 0-.7 0-.7 0s.8 1.4 1.1 1.9c.5 1.2.2 2.1.1 2.5-.4.8-1.1 1.5-1.9 2.1-.1.6-.4 3.4 2.2 3.5.4 0 1.8.2 4.4-2 .6-.5 1.3-1.1 1.9-1.9.3-.3.4-.9 0-.8-.5 0-3.2 1-3.6-.7-.1-.4.1-4.3 2.8-2.4.3.2.8.7 1.2 1.4.5-.2 1.3-.6 2.3-1.5.3-.2.6-.4.6 0s-.2 2.6 2.2 2c.3-.1 1.4-.3 2.1-2.3.2-.4.5-.4.4 0-.2.5-.5.9-.3 1.2.3.2 1 .7 1.9.6.3-.1.4-.2.3-.4-.1-.3-.4-.8-.4-.8.1-.3.2-.8.2-.9.1-.2.1-.3.2-.2.1.2.9 1.2.5 2.6zm-11.2.1c-.8-1.2-1.9-.5-2-.4-.1.2-.2.5.7.6 1 0 1.3-.2 1.3-.2z" fill-rule="evenodd"/><path d="m42.2 11 1.1.8q0 .1 0 .1l-.6.9q-.1 0-.1 0l-1.1-.8-.5.8q-.1 0-.1 0l-1.1-.8q-.1 0 0-.1l.6-.9q0 0 .1 0l1.1.8.5-.8q.1 0 .1 0z"/><path d="m10.8 13.9s-.2.6-.3 1c-.6 1.8-.3 2.7-.2 2.9.4 1 1 .5 1.3-.2.1-.4.2-.2.1 0q0 .1-.1.5c-.3 1.2-.7 1.4-1 1.4-.7 0-.9-.9-.9-1.4-.1-2.1.7-3.8.9-4.3s.3-.3.2.1z"/><path d="m62.8 11.1s-.1.3-.2.4c-.3 1-.1 1.5-.1 1.5.3.5.6.3.8-.1 0-.2.1-.1.1 0q0 .1-.1.3c-.2.6-.4.7-.6.7-.3 0-.5-.5-.5-.7-.1-1 .3-1.9.5-2.2.1-.2.1-.1.1.1z"/><path d="m51.8 10.5s0 .3-.1.5c-.4 1.1-.2 1.5-.1 1.6.3.6.6.3.8-.1.1-.2.1-.1.1 0q0 .1-.1.3c-.2.6-.4.8-.6.8-.4 0-.6-.5-.6-.8-.1-1.1.4-2.1.5-2.4.1-.2.2-.1.1.1z"/><path d="m11.1 6.9c.1.2.1.7 0 1-.1.1-.2 0-.4-.2 0 0-.1-.1-.3-.2-.6-.5-.7.5-.7.9-.1.4 0 1.5-.1 2.1q0 0 0 .1c-.1.5-.2 1.1-1 1.8-1 .8-1.1.8-1.2.8-.1.1-.2 0 0-.2.1 0 2.1-1.9 1.8-2.7-.3-1-1.1-1.7-1.3-1.7-.1-.2-.2 0-.2.1s-.1.1-.2.1c0-.1-.5-.3-.6-.5-.2-.1-.2-.6-.2-.8 0-.4.2-.5.4-.4 1.5.7 2.1 2.2 2.2 2.4 0-1.1 0-2.1.5-2.9.5-.7 1.2.2 1.3.3z"/><path d="m25.5 15.3s-.1.3-.2.6c-.4 1.2-.1 1.7-.1 1.9.4.5.9.2 1.1-.3 0-.2.1-.1.1 0q0 .1 0 .4c-.2.7-.6.9-.8.9-.5.1-.8-.5-.8-.8-.2-1.3.4-2.5.5-2.8s.2-.2.2.1z"/><path d="m28.8 14.6 1.1.8q0 .1 0 .1l-.7.9q0 .1 0 0l-1.1-.8q-.1 0 0-.1l.6-.8q0-.1.1-.1z"/><path d="m22.5 14.7c.8.1.6.4.4.6-.5.8-1.2 1.2-1.7 1.4-.6.2-.3-.2 0-.4 0 0 .3-.2.8-.5.4-.4-.8-.3-1.3-.3s-.7.1-.8.3c-.2.2-.4.1-.2-.1.1-.2.2-.5.6-.9.3-.4 1.5-.2 2.2-.1z"/><path d="m29.1 10.3s.2.6.4.9c.1.2.2.5.1 1 0 .5-.3.8-.5.9-.3.1-.7.1-1.1-.4-.4.8-.9.9-1.3.8-.3-.2-.4-.8-.3-1 0-.2-.1-.8-.1-1 0-.1.1-.2.2-.4s.1-.1.1.1-.1 1 .1 1.4c.3.5 1 0 1.2-.2.1-.3-.2-1.2-.2-1.3q-.1 0 0-.1c0-.1 0-.3.1-.5q0-.2.2 0c0 .2 0 .4.2 1.2.1.9.9.7 1.1.6.1 0 .1-.2.1-.2-.1-.1-.4-.8-.5-1.1s-.1-.5 0-.8.2-.1.2.1z"/><path d="m20.5 6.6c.1.2 0 .7-.1.9s-.2 0-.3-.1c0 0-.2-.2-.3-.3-.5-.4-.7.4-.8.9 0 .3-.1 1.2-.1 1.8-.1.2-.2.2-.3.1-.4-1.3-1.1-1.8-1.2-2-.1-.1-.2.1-.2.2s-.1.1-.2 0c0 0-.4-.3-.5-.4-.2-.1-.1-.6-.1-.8 0-.3.2-.4.3-.4 1.4.8 1.9 2.2 1.9 2.4.1-1 .2-1.9.7-2.6.5-.6 1.1.2 1.2.3z"/><path d="m30.5 6.2c-.1.2-.1.2-.2.4 0 .3-.2.3-.4.5-.2.1-12.1 6.7-12.8 7.2-.8.5-.7.8-.5.9.6.1.9.5.6 1.2-.1 0-.1 0-.1 0-.1-.1-.3-.3-.6-.3-.4-.1-.6-.7-.5-1.3.1-.4.4-.9.7-1.1.6-.6 13.3-7.4 13.5-7.6.4-.2.3-.1.3.1z"/><path d="m50.9 6c-.1.2-.1.2-.2.4 0 .2-.2.2-.3.3-.2.2-6 3.5-6.1 3.5-.3.3-.3.1-.2 0q0 0 0-.3c.1-.2.1-.2.4-.4.2-.1 5.9-3.4 6.1-3.5.4-.2.3-.1.3 0z"/><path d="m57.8 6.4c.2.2.1.7 0 .9s-.3 0-.4-.1c0 0-.1-.2-.3-.3-.5-.5-.8.5-.8.9-.1.4-.1 1.4-.2 2.1-.1.2-.2.2-.3 0-.4-1.3-1.2-1.9-1.3-2.1-.1-.1-.2.1-.2.2-.1.1-.1.1-.2 0-.1 0-.5-.3-.7-.4-.1-.2 0-.7 0-.9 0-.4.2-.5.3-.4 1.6.9 2.1 2.4 2.2 2.6 0-1.1.1-2.1.7-2.9.5-.6 1.2.3 1.2.4z"/><path d="m63.5 8.8c-.1.2-.1 0-.3-.1 0-.1-.2-.3-.4-.4-.2.5-.2.6-1.2 1.4-2.1 1.8-4.4 2.5-4.5 2.5s-.2-.1 0-.2c.8-.6 3.8-1.9 5.3-3.8 0 0-.5-.2-.8-.5-.3-.2-.1-1 .1-1.4.6-.9 1.1-.5 1.2-.3.5.9.2 1.7.2 1.7.3.2.6.5.4 1.1zm-1-2.3c-.1 0-.3 0-.6.4-.1.1 0 .2.2.3s.7.3.7.3c0-.1 0-.6-.3-1z" fill-rule="evenodd"/><path d="m41.9 8.5c-.1.1-.1 0-.2-.1s-.5-.4-.5-.4-.4 1-1.2 1.6c-1.4 1.1-2.6 1.2-2.7 1.3-.1 0-.2-.1.1-.3.9-.5 1.9-.9 3.4-2.7 0 0-.4-.2-.8-.5-.3-.2-.1-1.1.1-1.4.6-.9 1.1-.5 1.2-.3.5.8.2 1.7.2 1.7.3.2.6.5.4 1.1zm-1-2.3c-.1 0-.3-.1-.6.4 0 .1.1.2.3.3s.6.3.6.3c0-.1.1-.7-.3-1z" fill-rule="evenodd"/><path d="m32.2 5.1c0 .1 1.4 3.4 1.4 3.6.1.1 0 .2-.1.1s-.8-.7-.8-.7l1.2 6.7s.5 3.7.6 4.2c.1 2.8-1.8 3-2.2 3-2.3 0-2.2-2.1-2.2-2.1-3.2 3.1-6.5 2.5-7.1 2.3 0 0-.1 1.3-.1 1.6-.1.3-.4.3-.7.2-2.1-.5-1.9-2.5-1.9-2.9-.9 1.6-2.1 1.8-2.7 1.8-1.3 0-2.1-1.1-2.5-1.9-.3-.7-.7-1.4-.7-1.4 0 .7-.6 1.4-.9 1.6-3.1 3.3-5.8 3-6.1 2.8-3.8-1.1-1.9-6.6-1.7-7.1q0 0 0 0c-.5-.2-.7-1-.7-1.4-.1-2.1.7-3.8.9-4.3s.4-.3.2.1c0 0-.1.6-.3.9-.6 1.9-.3 2.8-.2 3 .4.9 1 .5 1.3-.2.1-.4.2-.2.2-.1q-.1.2-.1.6c-.3.9-.6 1.3-.9 1.4-1.9 5 1.1 5.7 1.5 5.7 3 .7 5.8-2.4 6.1-2.9.4-.5.4-.7.4-1.1.1-1.6-1.5-10.7-1.6-11.3 0 0 .2-.6.4-1 .1-.3.2-.2.2 0 .6 1.7 1.4 8.2 1.4 8.2s.6 4.1.7 4.6c1 3 2.9 2.5 3.6 2.3.7-.3 1.4-1.7 1.5-1.8q.2-.3.4-.2c1.7 1.9 3.8 1.7 4.4 1.7 2.8-.2 4.8-2.2 5.2-2.5s.4.1.4.3c0 .1-.1.1-.1.4.2 1.6 1.6 1.4 1.9 1.4 1.6-.4 1.3-1 1.3-1.6-.1-.5-1.6-10.2-2-12.4-.1-.3-.2-.5-.2-.5s.4-1 .5-1.1c0-.2 0-.1.1 0z"/><path d="m35.4 5.1c.1.1 1.4 3.4 1.5 3.6 0 .1-.1.2-.2.1s-.8-.7-.8-.7 1.1 7.8 1.2 8.2c.7 4.7.1 6 0 6.1-.1.2-.2.2-.1 0-.1-1.9-1.2-8.8-1.2-9.3-.1-.4-.8-6.5-.9-7 0 0 .3-.9.4-1 0-.2.1-.1.1 0z"/></g></svg>