<svg height="30" viewBox="0 0 70 30" width="70" xmlns="http://www.w3.org/2000/svg"><g fill="#191c4f"><path d="m10.3 24.9c0 .1-.1.1-.2.3s-.2.3-.4.4c-.3.1-3.3 1.2-3.5 1.3-.5.1-.4 0-.3-.1q0 0 .1-.3c0-.2.1-.3.4-.4s3.4-1.2 3.6-1.3c.4-.2.4-.1.3.1z"/><path d="m13.4 23.2 1.2.9q.1 0 0 .1l-.7.9q0 .1-.1.1l-1.2-.9q0-.1 0-.1l.7-1q0-.1.1 0z"/><path d="m8.2 22.5v.3c-.1.1-.2.3-.3.4q-.1.1-.2 0c-.2-.3-.5-.2-.7-.1-.3.2-.3.3-.2.4.1.2.5.5.8.5.3.1 1-.1 1.3-.3.3-.1.1.2 0 .3 0 0-.1.3-.3.4-1.4.3-1.9.7-2.1.9-.2.1-.2 0-.2-.1.1-.1.1-.1.1-.3q.2-.2.4-.3 0 0-.4-.4c-.5-.4.5-1.4 1-1.8.4-.3.7.1.8.1z"/><path d="m23.8 22.2s-.1.3-.1.5c-.4 1.1-.2 1.5-.2 1.6.3.6.7.3.9-.1 0-.2.1-.1.1 0q-.1.1-.1.3c-.2.6-.4.8-.6.8-.4 0-.6-.5-.6-.8-.1-1.1.4-2.1.5-2.3.1-.3.2-.2.1 0z"/><path d="m31.6 21.2s-.1.3-.2.5c-.3 1-.1 1.5-.1 1.6.3.5.7.2.8-.1.1-.2.2-.1.1-.1q0 .1 0 .4c-.2.6-.5.7-.7.7-.4 0-.5-.5-.5-.7-.1-1.2.3-2.1.5-2.4.1-.2.2-.1.1.1z"/><path d="m63.8 20.2v.6c0 .2-.2.6-.3 1s-.9.5-1.4.2c-.9 1.4-1.7.7-2.2.5-.8-.3-1 .2-1.2.4-1 1.2-2.9 1.1-3.3 1.2-.4 0-.1-.3.1-.4 1.5-.5 2.4-.6 3.7-1.8.5-.5.9-.3 1.1-.2 1.2.6 1.4 0 1.5-.1.2-.2.4-.8.5-1s.2-.1.2.1c-.1.1-.1.4-.2.5.5.3 1 0 1.2-.1 0 0-.1-.4-.1-.5q0-.2.2-.6c.1-.3.1 0 .2.2z"/><path d="m41.3 18.5c-.4 1.2-2.1 1.8-2.5 1.9-1.5.5-1.6-1-1.5-2.1s.9-2.5.9-2.5c-.1-.1-1.7-1.3-1.8-1.4-.1-.2-.3-.4-.4-.4-.2-.1-.2-.2-.2-.2s.1-1.1.1-1.3c0-.1 0-.1.2 0 .1 0 1.8.7 2 .8s.1.3 0 .3-.7.2-.7.2l1.5 1s1.9-2.6 2.1-2.8c.2-.3.2-.2.2.1-.1.3-.4 1.4-.5 1.5-.1.2-1.2 1.6-1.2 1.6s1.4.8 1.7 1.3c.6.8.2 1.5.1 2zm-2.5-2.3s-.9 1.5-1 1.8c-.4.9.5 1.1.8 1 .3 0 1.5-.6 2.1-1.1.5-.4-1.6-1.5-1.9-1.7z" fill-rule="evenodd"/><path d="m65.6 17.1c-.1.2-.4 1.4-2 1-.4 0-1.2-.2-1.6-1.1-.4.5-1.3 2-3.1 1.8-.4-.1-1.7-.6-1.8-2.2 0 0-1.5 1.2-2.2 1.6.1.6 0 1.2-.2 2-.3.7-3.6 4.4-6.2 5-.9.2-4.3.8-4.4-3-.1-.8 0-1.4.1-1.8-2.1 1.6-4.6 2.8-5.4 3.2-1.1.5-4.9 1.2-5.6 1.3-.5.1-.6 0-.3-.2s8.9-3.1 13.3-7.8c.2-.1.1-.3 0-.5-.1-.3-1.5-2.9-1.6-3.3-.2-.3-.4-.8-.4-.9q-.1-.2-.1-.4c0-.2.2-.9.2-1 .1-.2.1-.1.2 0s1.5 1.5 1.7 1.7c.1.2 0 .2 0 .2-.1 0-.8 0-.8 0s.9 1.6 1.2 2.2c.6 1.3.3 2.3.1 2.7-.4.9-1.2 1.7-2.1 2.4-.1.7-.4 3.8 2.5 3.8.5.1 1.9.2 4.9-2.2.6-.5 1.4-1.2 2.1-2.1.2-.4.4-1-.1-.9-.5 0-3.5 1.1-3.9-.7-.1-.5.1-4.8 3.1-2.7.2.2.9.7 1.3 1.6.5-.2 1.4-.8 2.6-1.7.3-.3.6-.4.6 0s-.2 2.9 2.5 2.1c.3 0 1.5-.3 2.3-2.4.2-.5.5-.5.4 0-.2.5-.5 1-.3 1.2.3.3 1.1.8 2 .7.4 0 .6-.2.4-.5-.1-.2-.4-.8-.4-.8.1-.3.2-.9.2-1 .1-.2.1-.3.3-.2.1.2 1 1.3.5 2.9zm-12.4.1c-1-1.3-2.1-.6-2.3-.4-.1.1-.2.5.8.5 1.1.1 1.5-.1 1.5-.1z" fill-rule="evenodd"/><path d="m39.6 9.2 1.2.9q.1 0 .1.1l-.8 1q0 0 0 0l-1.2-.9-.7.9q0 0 0 0l-1.3-.9q0 0 0-.1l.7-1q.1 0 .1 0l1.2.9.6-.9q.1 0 .1 0z"/><path d="m62.5 9.3s-.1.3-.2.5c-.4 1.1-.2 1.6-.1 1.7.3.5.7.2.8-.2.1-.2.1-.1.1 0q0 .1 0 .3c-.2.7-.5.8-.7.8-.4 0-.6-.5-.6-.8-.1-1.1.4-2.1.5-2.4s.2-.2.2.1z"/><path d="m50.3 8.6s-.1.4-.2.6c-.4 1.2-.1 1.7-.1 1.8.3.6.8.3.9-.2.1-.2.2-.1.1 0q0 .1 0 .4c-.2.7-.5.9-.8.9-.4 0-.6-.6-.6-.9-.1-1.3.4-2.3.6-2.6.1-.3.2-.2.1 0z"/><path d="m49.2 3.7c0 .1 0 .2-.1.4s-.2.2-.4.4c-.2.1-6.6 3.8-6.7 3.8-.4.3-.4.1-.3 0q0-.1.1-.4c0-.2.1-.2.3-.4.3-.1 6.6-3.8 6.9-3.9.3-.2.3-.1.2.1z"/><path d="m57 4.1c.1.2 0 .7-.1 1-.1.2-.3 0-.4-.1 0 0-.2-.2-.3-.3-.7-.6-.9.5-1 1 0 .3-.1 1.5-.2 2.2 0 .3-.2.3-.3.1-.4-1.5-1.3-2.2-1.4-2.3-.2-.2-.3 0-.3.1s-.1.1-.2.1c-.1-.1-.5-.4-.7-.5-.2-.2-.1-.8-.1-1 0-.4.3-.5.4-.4 1.7.9 2.3 2.6 2.4 2.9.1-1.3.1-2.4.8-3.3.5-.7 1.3.3 1.4.5z"/><path d="m63.2 6.7c0 .2-.1.1-.2-.1-.1-.1-.3-.3-.5-.4-.3.6-.3.6-1.3 1.6-2.4 2-4.9 2.7-5.1 2.7-.1.1-.1-.1.1-.2.8-.7 4.2-2.2 5.9-4.2 0 0-.6-.3-.9-.5-.4-.3-.2-1.2 0-1.6.7-1.1 1.3-.5 1.4-.4.6 1 .2 2 .2 2 .3.2.7.5.4 1.1zm-1.1-2.5c-.1 0-.3-.1-.6.4-.1.2 0 .3.2.4.3.1.7.3.7.3.1-.1.1-.7-.3-1.1z" fill-rule="evenodd"/><path d="m24.2 13.5 1.2.9q.1 0 0 0l-.7 1q0 .1-.1 0l-1.2-.8q0-.1 0-.1l.7-1q.1-.1.1 0z"/><path d="m10.9 13.1s-.1.4-.2.6c-.3 1.4-.1 2 0 2.2.4.7.9.3 1-.3.1-.2.2-.1.1 0q0 .1 0 .4c-.2.9-.5 1.1-.8 1.1-.4 0-.7-.6-.7-1-.2-1.5.3-2.8.4-3.1.2-.4.3-.3.2.1z"/><path d="m18.8 13s-.1.4-.2.8c-.4 1.6-.1 2.4 0 2.5.4.8 1 .4 1.1-.3.1-.3.2-.1.2 0q0 .2-.1.5c-.2 1-.5 1.3-.8 1.3-.6 0-.9-.8-.9-1.2-.2-1.8.4-3.3.5-3.8.1-.4.3-.2.2.2z"/><path d="m24.7 9.3s.1.6.3.9c.1.3.2.6.2 1.1-.1.4-.4.8-.6.9-.2 0-.7 0-1.1-.4-.4.8-.9.9-1.3.8-.4-.2-.4-.9-.4-1.1s0-.8 0-1c0-.1 0-.2.1-.4.1-.1.2-.1.2.1s-.1 1.1 0 1.4c.4.5 1.1.1 1.3-.2.1-.2-.2-1.2-.2-1.2q-.1-.1-.1-.2s.1-.3.1-.5q.1-.2.2.1c.1.1.1.3.3 1.2.1.8.9.7 1.1.6s.1-.2.1-.3c-.1-.1-.4-.8-.5-1.1s0-.5 0-.8c.1-.3.2-.1.3.1z"/><path d="m25.5 5.6c-.1.2-.1.3-.2.5s-.2.3-.5.5c-.2.2-11 6.6-11.1 6.7-.4.3-.4.1-.3 0q0-.1 0-.4c.1-.3.1-.4.5-.5.3-.2 10.9-6.7 11.2-6.9.5-.2.4 0 .4.1z"/><path d="m12.6 4.5c.2.2.1.6.1.9-.1.2-.3 0-.4-.1 0 0-.2-.1-.3-.2-.6-.4-.7.5-.7 1 0 .3.1 1.4.1 2 0 .2-.2.2-.3.1-.6-1.3-1.4-1.8-1.5-1.9-.2-.1-.2.1-.3.2 0 .1 0 .1-.1.1-.1-.1-.6-.3-.7-.4-.2-.1-.2-.6-.2-.8 0-.4.2-.5.3-.5 1.6.6 2.3 2.1 2.4 2.3-.1-1.1-.2-2.1.3-3 .4-.6 1.2.2 1.3.3z"/><path d="m20.7 4.1c0 .2-.1.2-.2.5-.1.2-.2.3-.4.5-.3.2-11 6.6-11.2 6.7-.4.3-.4.1-.3 0q0-.1 0-.5c.1-.2.2-.3.5-.5.3-.1 11-6.6 11.3-6.8.4-.2.3-.1.3.1z"/><path d="m27.7 3.3c.1.1 1.5 3.6 1.6 3.8s-.1.3-.2.2c-.1-.2-.8-.7-.8-.7l1.3 8.6c.2 1.3.3 3.4.3 3.8-.2 2.4-2.4 2.7-2.7 2.7-1.9-.1-2.3-2.2-2.3-2.2-3.9 3-7.7 2.8-8.1 2.8-3.1-.2-3.9-2.2-3.9-2.2-1 1.8-2.2 2.2-2.7 2.2-3.3.2-3.5-3.3-3.6-4.3-.1-.9-.9-9.3-1.6-13 0-.3 0-.4.1-.6 0-.3.2-.8.3-.9 0-.2.1-.3.2 0 .7 1.6 1.6 12.9 1.7 13.9.5 4.4 3.2 3.5 4 3.2s1.4-1.6 1.8-2.1c.3-.5.4.1.4.4.8 1.9 3.5 1.9 4.1 1.9 3.4.2 7.3-2.7 7.7-2.9s.4.1.3.2v.3c0 1 .7 1.5.9 1.6 1.2.5 2.5-.5 2.7-.6.1-.1.1-.5 0-1.2-.1-.6-1.3-8.4-1.3-8.4-.3-1.3-.6-4-.6-4.5-.1-.5-.3-.8-.3-.8s.5-1.1.6-1.2c0-.2.1-.1.1 0z"/><path d="m32 3.3c0 .1 1.5 3.7 1.6 3.9 0 .2-.1.3-.2.2-.1-.2-.9-.8-.9-.8s1.1 8.1 1.1 8.3c.3 2 .4 3.3.3 4.3-.1 1.2-.3 1.6-.3 1.7-.1.2-.2.2-.2-.1 0-.7-.2-2-.4-3.4-.3-2.9-1.3-10.6-1.5-12.2 0-.2-.2-.6-.2-.7 0 0 .5-1.1.5-1.2.1-.2.1-.1.2 0z"/><path d="m39.3 6.4c-.1.2-.1 0-.3-.1 0-.1-.5-.4-.5-.4s-.5 1.1-1.3 1.7c-1.6 1.2-2.9 1.4-3 1.4-.2.1-.2-.1 0-.2 1-.6 2.2-1 3.9-3.1 0 0-.5-.2-.9-.5-.3-.3-.2-1.2.1-1.6.7-1 1.2-.5 1.3-.3.6.9.3 1.9.3 1.9.3.2.6.6.4 1.2zm-1.1-2.5c-.1-.1-.3-.1-.6.4-.1.1 0 .2.2.3s.7.4.7.4c0-.2.1-.8-.3-1.1z" fill-rule="evenodd"/></g></svg>