<svg height="72" viewBox="0 0 128 72" width="128" xmlns="http://www.w3.org/2000/svg"><g fill="#f3efdf"><g fill-rule="evenodd"><path d="m27.9 35.3q0 .5-.4 1.4-.4 1-.5 1.3-1.4 3.2-5.9 5.7-.1.8-.1 1.3 0 1.8 1.7 3.1 1.6 1.2 3.9 1.2 1.4 0 3.5-.6 2-.5 4.1-1.7 2.1-1.1 3.6-2 1.8-1.3 3.3-3-.1-.3-.2-.4-.7-1.1-2.2-1.1h-3.3q-1.2 0-1.9-.7-.6-.7-.6-2.4 0-1.6 1.1-3.1 1.1-1.4 2.5-1.4 1.9 0 3.7 1.9 2 2.3 2 5.8 0 .2-.1 1.4-.1 1.1-.2 1.6-.2.4-.3.7-1.1 1.7-4.8 4.3-2.6 1.8-4.8 2.7-2.7 1.2-5.5 1.2-3.4 0-5.1-2.3-1.3-1.8-1.3-4.6 0-.7.1-1.4-4.9 2.5-9 2.5-3.7 0-5.6-2.3-1.6-2-1.6-4.8 0-1.5.5-3.3.7-2.3 1.9-3.6v1.2q-.4.6-.8 2.8-.2 1.2-.2 2 0 1.8 1.2 3 1.6 1.7 4.6 1.7 1.8 0 3.9-.5 2-.5 4.3-1.6 2.4-1 4.8-2.6 2.3-1.7 2.3-2.2l-4-21.7-.2-1.2q-.1-.5-.2-.9 0-.1-.2-.3.1-.3.5-1.3.4-1.1.8-1.9.5.5 1.8 3.3.4.9 1.3 2.7v.8q-.4-.2-.8-.5-.3-.3-.7-.7l-.1.7q.4 2 .8 4.1 1.1 5.4 1.6 8.5.8 5.2.8 7.2zm-12.1-10.4q-.3.1-.6.2-.2-.2-.3-.4-.2-.4-.5-.4-.5 0-.9.7-.5 1.1-1.3 4.1h-.5q-.8-2.8-1.8-2.7-.9 0-1.4-.2-1-.4-1-1.3 0-1 1.1-1 1.4 0 2.5 1.8.5.9 1 1.7.3-1.7.7-2.6.7-2.1 1.8-2.1.4 0 .8.4.2.1.5.5zm22.6 2q0 1.2-.7 1.6-.4.2-1 .2-.5 0-.9-.4-.4-.4-.5-.6-.5 1.4-1.9 1.4-.6 0-1-.5-.4-.4-.4-1.7 0-.3 0-.6 0-.2 0-.5-.5.3-.6.5v-.6q.2-.3.5-.7.2-.4 1-.7 0 .4 0 .8 0 .4 0 .8 0 .9.1 1.4.2.5.8.5.5 0 .9-.4.4-.3.4-.6 0-.4-.3-1.2 0-.2-.3-.8.1-.2.4-.5.1-.1.4-.4.4.7.6 2 .1 1.4 1 1.7.2-.1.4-.2.3-.1.3-.3 0-.5-.3-1.2-.3-.6-.6-1.3.2-.2.3-.3.3-.5.5-.5.3.7.6 1.5.3.8.3 1.6zm.1 10.4q-.4-.6-1.2-1-.9-.3-1.3-.3-.5 0-.9.4-.4.4-.6.9zm7.9-26.5q-.1.4-.2.6-.2.3-.4.4-1.1 1-3.3 2.2-2.3 1.2-3.3 1.4v-1l1.2-.9q-.6-.2-.8-.4-.7-.4-.7-1.2 0-.8 1.5-2.1 1.5-1.2 2.4-1.2 1.4 0 1.4 1 0 .2-.1.6-.2.3-.3.6l-.9-.1q-.2-.2-.3-.3-.4-.1-.9.1-.5.3-1 .6.6.8 1.8.8.8 0 1.5-.3.2-.1 1.4-.8zm.9 28.5q0 1.8-.3 3.2-.4 1.4-1 2.3v-1.7q0-1.9-.3-3.2l-3.7-20.2q-.1-.6-.3-1.2-.2-.7-.2-.7 0-.2.4-1.3.4-1.1.8-2 .5.6 1.9 3.4.5.9 1.4 2.6v1.3l-1.5-1.2-.1.3q.4 1.9.7 3.8 1 5 1.4 7.9.8 4.9.8 6.7zm19.9-3.4q-2.2 0-4.4-1.4-1.5-1.1-3-2.2-3.7 2.4-5.6 4.9-2.4 3-2.4 6 0 4 5.1 5.8 3.9 1.4 10.5 1.4 3.3 0 6.7-.3 2-.2 5.7-.8v.8q-4.2 1.5-8.3 2.5-4.1 1-6.7 1-6.8 0-10.5-2.7-3.7-2.6-3.7-7.7 0-4 2.4-7.7 1.7-2.6 4.5-4.8-1.4-1-2.3-1.3-1-.4-1.9-.4-.6 0-.9 0-.9.2-1.8.4l.2-.7q.7-1.8 1-2.3.4-.6 1-1.3 1.2-.5 3.2-.9 2-.3 4-.3 2.3 0 5.1.6 2.8.6 2.9 1.1.1.3-.5 1.6-.6 1.4-1.2 2.1-.9.3-1.7.5-.8.3-1.7.8.9.7 2.2 1.3 1.9.8 3.6.8 2.3 0 4.5-1.8 2.8-2.3 3.8-2.7 0 1.4 1 2.8 1.2 1.8 3.2 1.8 1.8 0 3.6-.7 1.5-.5 2.7-1.3-1-.8-2.5-2.7-1.1-1.5-1.7-2.7-.5-.8-.8-1.1-.1-.1-.3-.2 0-.4.2-1.6.1-1.2.2-1.8.9.6 2.5 2.2.5.5 1.4 1.4v.6q-.5-.2-.7-.3-.5-.2-.8-.2 0 .1.1.2 0 .1 0 .3 2 1.7 2.7 2.9.5.8.5 1.8 0 .5 0 .8 0 2.5-2.7 4.1-2.4 1.5-5.5 1.5-1.6 0-2.9-1-1.3-1-2.3-3.1-1.7 1.8-3.3 2.7-2.2 1.3-4.4 1.3zm-4.1-8.4q-.9-.4-1.9-.6-1.1-.3-1.9-.3-.6 0-1.3.1-.8.1-1.5.2v.1q1 .4 2.1.8 1.1.5 1.8 1.1.1-.1 1.2-.7 1.1-.6 1.5-.7zm13.1-14.4q0 2.4-1.8 3.9-.8.6-2 1-1.2.3-2.6.3-2.9 0-4.7-1.4-1.8-1.4-1.8-3.7 0-1.6 1-2.9.8-1 2.2-1.6 1.5-.7 3.3-.7.8 0 1.9.2.2.1.5.2-1.5 0-3 .8-2.1 1-2.1 2.9 0 1.3 1.2 2.3 1.1 1 2.8 1 1.7 0 2.9-1.1 1.5-1.4 1.5-3.2.2.3.2.4.5 1.1.5 1.6zm-.8.8q-.7 1.1-2 1.7-1.1.5-2.3.5-1.9 0-3.4-1.1-1.5-1.2-1.5-2.9 0-1 .6-1.9.6-1 2-1.5-.9 0-1.9.5-1 .6-1.6 1.2-.6.6-.8 1.3-.3.7-.3 1.5 0 1.9 1.5 3.1 1.6 1.3 4.1 1.3 1.9 0 3.5-.8.8-.5 1.4-1.3.7-.9.7-1.6zm-.8 27.6-2.3 1.9-2.1-1.7-2.6 2-2.6-2.1 2.3-2 2.2 1.8 2.5-2zm27.2-2.9q0 2.3-1.2 3.9-1.2 1.5-4.4 3.6-2.8 1.8-4.6 2.5-2.6 1-5.4 1-3.5 0-5.2-2.2-1.5-1.8-1.5-4.7 0-1.3.3-2.3.2-1.1.9-1.8v1q-.2.4-.3.8 0 .5 0 1.2 0 1.9 1.7 3.2 1.7 1.3 4.1 1.3 2.3 0 4.5-.7 1.3-.4 3-1.3 3-1.6 5.1-3.3 1.7-1.4 1.7-1.8 0-.4-1-1.5-2.2-2.9-2.6-3.8l-.8-1.7q-.1-.3.2-1.4.1-.3.4-1.1h.3l3.9 3.1v.6q-.5-.2-.8-.2-1-.1-1.3-.1 1.1 1.2 2.1 2.5.9 1.2.9 3.2zm-2.9-26.9q-.3 1-1 1.4-.2.1-.4.2l-12.3 3.3q-.1.1-.6.4-.5.3-.6.3.1-.6.6-1.1.5-.4 1.1-.6l12-3.3q.3 0 .6-.2.3-.2.6-.4zm-9.1 28.6-2.4 1.9-2.7-2.1 2.4-1.9z"/><path d="m71.4 55.9c.5-.1 1.1-.2 1.6-.2.9 0 1.6.1 2.1.6.5.4.6.9.6 1.6 0 .8-.4 1.6-1.2 2 .5.2.8.7 1 1.5.1.9.3 1.8.5 2.1h-1.6c-.1-.2-.3-1-.4-1.8-.1-1-.4-1.3-.9-1.3h-.2v3.1h-1.5zm1.5 3.4h.3c.6 0 1-.5 1-1.2 0-.6-.3-1.1-1-1.1-.1 0-.2 0-.3 0z"/><path d="m78 61.8-.3 1.7h-1.5l1.7-7.7h1.8l1.5 7.7h-1.4l-.4-1.7zm1.3-1.2-.3-1.6c-.1-.5-.2-1.3-.2-1.8h-.1c0 .5-.2 1.3-.2 1.8l-.3 1.6z"/><path d="m82.1 55.9c.4-.1 1-.2 1.7-.2s1.4.1 2 .6c.4.3.6.8.6 1.4 0 .7-.4 1.3-1.2 1.7.9.3 1.4 1 1.4 1.9q0 .9-.6 1.5c-.4.5-1.2.8-2.5.8q-.9 0-1.4-.1zm1.5 3.1h.3c.6 0 1-.5 1-1.1s-.3-1-.9-1q-.3 0-.4 0zm0 3.5q.1 0 .3 0c.6 0 1.1-.4 1.1-1.2 0-.7-.5-1.1-1.1-1.1h-.3z"/></g><path d="m87.6 55.8h1.6v7.7h-1.6z"/><path d="m92 55.8v5c0 1.2.3 1.5.7 1.5s.8-.3.8-1.5v-5h1.5v4.7c0 2-.8 3.1-2.3 3.1-1.6 0-2.2-1.1-2.2-3v-4.8z"/><path d="m96.3 55.8h1.5v6.5h2v1.2h-3.5z"/><path d="m103.7 61.8-.3 1.7h-1.5l1.7-7.7h1.8l1.5 7.7h-1.5l-.3-1.7zm1.3-1.2-.3-1.6c-.1-.5-.2-1.3-.2-1.8h-.1c-.1.5-.2 1.3-.3 1.8l-.2 1.6z" fill-rule="evenodd"/><path d="m108.3 63.5-1.3-7.7h1.6l.3 3.1c.1.8.2 1.7.3 2.7.1-1 .3-1.8.5-2.7l.5-3.1h1.3l.5 3c.1.9.3 1.8.3 2.8h.1c.1-1 .2-1.9.3-2.8l.3-3h1.5l-1.4 7.7h-1.5l-.5-2.5c-.1-.7-.2-1.6-.3-2.6q-.2 1.4-.5 2.6l-.5 2.5z"/><path d="m116.4 61.8-.4 1.7h-1.4l1.7-7.7h1.8l1.5 7.7h-1.5l-.3-1.7zm1.2-1.2-.2-1.6c-.1-.5-.2-1.3-.3-1.8-.1.5-.2 1.3-.3 1.8l-.3 1.6z" fill-rule="evenodd"/><path d="m120.4 55.8h1.5v6.5h2v1.2h-3.5z"/></g></svg>