<svg height="30" viewBox="0 0 70 30" width="70" xmlns="http://www.w3.org/2000/svg"><g fill="#191c4f"><path d="m13.7 22.2c-.1.1-.1.2-.2.3 0 .2-.1.2-.3.3s-4.6 1.6-4.7 1.7c-.4.1-.3 0-.3-.1q0 0 .1-.2c0-.2.1-.2.3-.3.3-.1 4.6-1.7 4.9-1.8s.2 0 .2.1z"/><path d="m21.4 21.8s0 .3-.1.4c-.3.8-.1 1.2-.1 1.3.2.4.5.2.7-.1 0-.2.1-.1 0 0q0 0 0 .2c-.1.5-.4.6-.5.6-.3 0-.4-.4-.5-.6 0-.9.4-1.6.4-1.8.1-.2.2-.2.1 0z"/><path d="m36.2 20.7s-.1.2-.1.4c-.3.8-.1 1.2-.1 1.3.2.4.5.2.6-.2.1-.1.1 0 .1 0q0 .1 0 .3c-.2.5-.4.6-.5.6-.3 0-.5-.4-.5-.6 0-.9.3-1.6.4-1.8.1-.3.2-.2.1 0z"/><path d="m64.2 20.7v.4c0 .2-.1.5-.2.8s-.7.5-1.1.2c-.7 1.1-1.4.5-1.7.4-.7-.3-.9.2-1 .3-.8.9-2.3.9-2.6.9-.3.1-.1-.2.1-.2 1.1-.4 1.8-.5 2.9-1.4.4-.5.7-.3.9-.2.9.4 1 0 1.2-.1.1-.1.3-.7.3-.8.1-.2.2 0 .2.1-.1.1-.1.3-.1.3.4.3.8.1.8 0 0 0 0-.3 0-.4q0-.1.1-.5c.1-.2.2 0 .2.2z"/><path d="m15.6 15.9c.1.2.7 1 .9 1.4.4.8-.1 1.7-.2 1.9-.8 1-2.6 1.7-3.8 2-5.2 1.5-6.6.3-6.7.1-1.7-1.6-.1-4 0-4.2.2-.2.4-.1.3.1-.3.5-.5 1.4-.5 1.7-.1 1.9 2.5 1.9 3 1.8 5-.3 7.1-2 7.4-2.2.2-.2-.7-1.3-.9-1.5 0 0 .1-.9.2-1.1q.1-.2.3 0z"/><path d="m11.8 15.8 1 .7q0 0 0 0l-.6.8q0 0-.1 0l-.9-.7-.5.7q0 0 0 0l-1-.7q0 0 0-.1l.5-.7q.1-.1.1 0l1 .6.4-.6q.1-.1.1 0z"/><path d="m46.5 19.3c-.3 1-1.7 1.5-2 1.6-1.2.4-1.3-.8-1.2-1.7s.7-2 .7-2-1.3-1-1.4-1.1-.2-.3-.3-.3c-.1-.1-.1-.2-.1-.2s0-.9 0-1 .1 0 .2 0c.1.1 1.4.6 1.6.7.1 0 .1.2 0 .2s-.6.1-.6.1l1.2.8s1.5-2 1.7-2.2c.1-.2.1-.1.1.1-.1.2-.3 1.1-.4 1.2s-.9 1.2-.9 1.2 1 .7 1.3 1c.4.7.2 1.3.1 1.6zm-2-1.8s-.7 1.2-.8 1.4c-.3.8.4.9.7.9.2-.1 1.2-.6 1.6-.9.4-.4-1.2-1.2-1.5-1.4z" fill-rule="evenodd"/><path d="m65.6 18.2c-.1.2-.3 1.1-1.6.9-.3-.1-.9-.2-1.2-.9-.3.4-1 1.6-2.5 1.4-.3-.1-1.3-.5-1.4-1.8 0 0-1.1 1-1.7 1.3.1.5 0 1-.2 1.6-.2.5-2.8 3.4-4.9 3.9-.7.1-3.3.6-3.4-2.3 0-.7 0-1.1 0-1.5-1.6 1.3-3.6 2.3-4.2 2.6-.8.4-3.9.9-4.4 1-.4 0-.4-.1-.2-.2s7-2.4 10.5-6.1q.1-.2 0-.4c-.1-.2-1.2-2.3-1.3-2.6-.2-.3-.3-.6-.4-.7q0-.2 0-.3c0-.2.1-.7.2-.9 0-.1.1 0 .1.1.1.1 1.2 1.2 1.3 1.3.2.2.1.2 0 .2h-.6s.7 1.2 1 1.7c.4 1 .2 1.8 0 2.2-.3.6-.9 1.2-1.6 1.8-.1.5-.3 3 2 3.1.3 0 1.5.1 3.8-1.8.5-.4 1.1-.9 1.6-1.7.3-.3.4-.7 0-.7s-2.8.9-3.1-.5c-.1-.4.1-3.8 2.4-2.1.2.1.7.5 1.1 1.2.4-.2 1.1-.6 2-1.3.3-.3.5-.4.5 0 0 .3-.2 2.2 2 1.7.2-.1 1.1-.3 1.8-2 .2-.4.4-.3.3 0-.2.4-.4.8-.2 1s.8.6 1.6.5c.2 0 .4-.1.3-.3s-.4-.7-.4-.7c.1-.3.2-.7.2-.8.1-.1.1-.2.2-.1s.8 1 .4 2.2zm-9.7.1c-.8-1-1.7-.4-1.8-.3s-.2.4.6.4c.8.1 1.2-.1 1.2-.1z" fill-rule="evenodd"/><path d="m45.2 12 .9.7q.1.1 0 .1l-.5.8q-.1 0-.1 0l-.9-.7-.5.7q-.1 0-.1 0l-1-.7q0 0 0-.1l.6-.8q0 0 .1 0l.9.7.5-.7q0 0 .1 0z"/><path d="m63.1 12.1s0 .2-.1.4c-.3.8-.1 1.2-.1 1.3.3.4.6.2.7-.1 0-.2.1-.1.1 0q0 .1-.1.2c-.1.6-.3.7-.5.7-.3 0-.5-.5-.5-.7 0-.9.3-1.7.4-1.9s.2-.1.1.1z"/><path d="m5.8 12.2s-.1.4-.1.7c-.4 1.5-.1 2.2-.1 2.3.5.8.9.4 1.1-.2 0-.3.1-.2.1 0q0 .1-.1.4c-.1 1-.5 1.2-.7 1.2-.5 0-.8-.7-.8-1.1-.2-1.6.3-3 .5-3.4.1-.4.2-.2.1.1z"/><path d="m53.6 11.6s-.1.2-.2.4c-.3.9-.1 1.3-.1 1.4.3.5.6.3.8-.1 0-.2.1-.1.1 0q-.1.1-.1.3c-.2.5-.4.7-.6.7-.3 0-.5-.5-.5-.7 0-1 .4-1.8.5-2.1.1-.2.2-.1.1.1z"/><path d="m11.1 11.6s-.1.3-.1.5c-.4 1-.1 1.4-.1 1.5.3.5.7.2.9-.2 0-.2.1-.1.1 0q0 .1-.1.3c-.1.6-.4.8-.6.8-.4 0-.6-.4-.7-.7-.1-1.1.4-2 .5-2.3s.2-.1.1.1z"/><path d="m39.5 8.1c0 .1 1.2 2.9 1.2 3 .1.2 0 .2-.1.2-.1-.1-.7-.7-.7-.7s1.1 7.7 1.1 7.9q.3 2.2.2 3.3c0 1-.2 1.3-.3 1.4 0 .2-.1.1-.1-.1 0-.5-.1-1.5-.3-2.7-.3-2.3-1.3-9.6-1.4-10.9-.1-.1-.2-.5-.2-.5s.4-.9.4-1c.1-.1.1 0 .2.1z"/><path d="m33.9 15c.5.1.4.4.3.5-.5.7-1 .9-1.4 1.1s-.2-.1 0-.3c0 0 .3-.2.6-.4.4-.3-.6-.2-1-.3-.3 0-.4.2-.6.3-.1.2-.3.1-.1-.1 0-.1.1-.3.4-.7.3-.3 1.2-.1 1.8-.1z"/><path d="m27.2 13.5s0 .3-.1.5c-.4 1.1-.1 1.6-.1 1.7.4.5.8.2 1-.2 0-.2.1-.1.1 0q0 .1-.1.3c-.1.7-.4.8-.7.8-.4 0-.6-.5-.6-.7-.2-1.2.3-2.2.4-2.4.1-.3.2-.2.1 0z"/><path d="m34.3 12.7c-.1.2-.1.1-.2 0 0-.1-.3-.4-.3-.4s-1 1.5-2 2.2c-1.1.8-2.1 1.1-2.2 1.1-.1.1-.1 0 .1-.1.7-.4 2.5-1.8 3.8-3.3 0 0-.4-.1-.7-.3-.2-.2-.1-.9.1-1.2.5-.7.9-.3 1-.2.4.7.1 1.4.1 1.4.2.1.5.4.3.8zm-.8-1.8s-.2-.1-.4.3c-.1.1 0 .2.1.2.2.1.5.3.5.3.1-.1.1-.5-.2-.8z" fill-rule="evenodd"/><path d="m33.1 8.6c-.1.1-.1.2-.2.4s-.2.3-.4.4c-.3.1-9.8 5.3-9.9 5.4-.4.2-.4.1-.3-.1q0 0 .1-.3c0-.2.1-.3.4-.4.2-.2 9.7-5.4 10-5.5.4-.2.3-.1.3.1z"/><path d="m39.6 19.7c-.5 1.4-1.8.6-1.9.5-.3-.3-.6-.7-.8-1.1q-.2.2-.4.2c-1.1.6-2.1.6-2.6.5 0 .7-.1 1.4-.2 1.9-.2.5-1.5 1.7-1.9 1.9-2.2 1.6-3.8 1.3-4 1.2-2-.7-1.4-3.4-1.4-3.7q0 0 0-.1c-.2-.1-.5-.3-.7-.8-.9 1.2-1.9 1.2-2.2 1.3-2-.1-2.6-2.8-2.7-3 0 0 0 1.5-1.3 2.9-1 1.4-4.1 2.1-4.2 2.2-.2 0-.3-.1-.1-.2.1-.1 2.8-1.7 3.1-1.9 1.1-.8 1.6-1.7 1.9-2.4 0-.3-.1-.8-.3-1.1-1.2-2.1-3.5-3.7-3.7-3.9-1.4-1.2-3.2-3.4-3.3-3.6-.1-.1-.2-.2-.3-.3-.1 0-.1-.1-.1-.3-.1-.2-.1-.8-.1-.9.1-.1.1-.1.2 0 .1.2 1.8 1.3 2 1.5s.1.3-.1.2c-.2 0-.3 0-.6-.1 0 0 2.1 2.3 3.3 3.2.4.2 1.6 1.3 2.3 2.2.6.8.8 1.9.9 2.6.2-.5.2-.9.2-1 0-.4-.3-2.3-.4-2.8-.1-.4-.8-4.5-1-5.3-.1-.8 0-1.1.1-1.4q.1-.4.2-.1c.7 1.6 1.4 6.9 1.4 6.9s.4 2.5.5 2.9c.2 1.2.9 2 1.2 2.1 1.3.9 2.5-.1 2.7-.3.2-.3.6-.9.8-1.2.2-.2.2.1.2.3q-.1.2-.2.5c.3 1.3 1.6.6 1.8.5.4-.3.8-1.6.9-1.8.2-.2.3-.1.2.1 0 .2-.1.4-.1.5.2.9 1.3.7 1.5.7.2-.1.2-.3.1-.5 0-.1-.2-.5-.2-.6 0-.2-.1-.3 0-.4 0-.2 0-.4.1-.5 0-.1.1-.1.2 0 .1.2.4.8.4 1.1.1 1.4-.6 1.9-.8 2-.8.2-1.5-.3-1.6-.5-.5 1-1 1.1-1.1 1.2-.1 0-.5.2-.8.1q0 .1 0 .2c0 .1-.1.6 0 .9.1 2 2.6 1.5 2.9 1.4 1.8-.4 3.6-2.3 3.7-2.5.2-.1.2-.3.1-.5-.1-.8-.7-2-.7-2-.1-.1-.1-.1-.1-.2 0-.2.2-.7.2-.8.1-.1.1 0 .2.1 0 .1.4.7.4.7.8.6 2 .2 2.4.1.1-.1.4-.2.7-.3q-.2-.5-.3-.7c-.1-.5-1.4-7.5-1.5-7.9 0-.4-.1-.6-.1-.7 0 0 .4-.8.4-.9.1-.1.1 0 .1.1.1.1 1.3 2.8 1.3 2.9.1.2-.1.3-.1.2-.1-.1-.7-.7-.7-.7s1 5.4 1.2 6.3q.2.6.4 1 0 0 .1 0c1-.5 1.7-.1 1.9 0 .7.5.5 1.7.4 1.9zm-1-.9q-.4-.2-.8-.1.1.1.1.2c.1.2.5.6 1 .5s-.1-.5-.3-.6z" fill-rule="evenodd"/><path d="m26.3 8.2c.2.2.1.5 0 .7 0 .2-.1 0-.3-.1 0 0-.1-.1-.2-.2-.5-.3-.6.5-.6.8v1.6c0 .2-.2.2-.2.1-.4-1.1-1.1-1.5-1.2-1.6s-.1.1-.2.1c0 .1 0 .1-.1.1 0 0-.4-.2-.5-.3s-.1-.5-.1-.7c0-.3.1-.4.2-.3 1.3.5 1.8 1.7 1.8 1.9 0-.9 0-1.7.4-2.4.4-.5 1 .2 1 .3z"/><path d="m10.8 8.3c.1.2 0 .6-.1.8 0 .2-.2 0-.3-.1 0 0-.1-.2-.2-.3-.5-.4-.7.4-.8.8 0 .3 0 1.3-.1 1.8q0 0 0 .1c-.1.4-.3 1-1 1.5-1 .6-1 .6-1.1.7-.1 0-.2-.1 0-.2.1-.1 1.9-1.6 1.8-2.3-.3-.9-1-1.5-1.1-1.6s-.2.1-.2.1c0 .1-.1.1-.1.1-.1-.1-.5-.3-.6-.4s-.1-.6 0-.8c0-.3.2-.4.3-.3 1.3.7 1.7 2 1.8 2.3.1-1 .1-1.9.6-2.6.4-.5 1.1.3 1.1.4z"/><path d="m52.7 7.7c0 .1 0 .1-.1.3 0 .1-.1.2-.3.3s-5.2 3-5.3 3c-.3.2-.2.1-.2 0q0 0 0-.3c.1-.1.1-.2.4-.3.2-.1 5.1-3 5.3-3.1.3-.2.3-.1.2.1z"/><path d="m58.8 8c.1.2.1.6 0 .8s-.2 0-.3-.1c0 0-.2-.2-.3-.2-.5-.5-.7.3-.7.7-.1.3-.1 1.3-.2 1.8 0 .2-.2.2-.2.1-.4-1.2-1.1-1.8-1.2-1.9s-.2.1-.2.2h-.1c-.1 0-.5-.3-.6-.4s-.1-.6-.1-.8c0-.3.2-.4.3-.3 1.4.7 1.8 2.1 1.9 2.3.1-1 .1-1.9.6-2.6.5-.5 1.1.3 1.1.4z"/><path d="m63.8 10.1c-.1.1-.1 0-.2-.1s-.2-.2-.4-.3c-.2.4-.2.5-1.1 1.2-1.8 1.6-3.8 2.1-3.9 2.1-.1.1-.2 0 0-.1.7-.5 3.3-1.7 4.6-3.4 0 0-.4-.1-.7-.3-.3-.3-.1-1 .1-1.3.5-.8 1-.4 1-.3.5.8.3 1.5.3 1.5.2.2.4.5.3 1zm-.9-2c-.1-.1-.2-.1-.5.3-.1.1 0 .2.2.3s.5.3.5.3c.1-.1.1-.6-.2-.9z" fill-rule="evenodd"/><path d="m44.9 9.8c0 .1-.1 0-.2-.1 0 0-.4-.3-.4-.3s-.4.9-1.1 1.4c-1.2.9-2.3 1.1-2.3 1.1-.1 0-.2-.1 0-.2.8-.5 1.7-.8 3.1-2.4 0 0-.4-.2-.7-.4s-.2-1 0-1.3c.6-.8 1-.4 1.1-.3.4.8.2 1.6.2 1.6.2.1.5.4.3.9zm-.9-2c-.1 0-.2 0-.5.3 0 .1 0 .3.2.3.2.1.6.3.6.3 0-.1 0-.6-.3-.9z" fill-rule="evenodd"/><path d="m21.1 6.1c-.1.2-.1.2-.2.3 0 .2-.1.3-.3.4s-4.5 2.1-4.6 2.2c-.3.1-.3 0-.3-.1q.1 0 .1-.2c0-.2.1-.3.3-.4s4.5-2.1 4.7-2.2c.3-.2.3-.1.3 0z"/></g></svg>