<svg height="30" viewBox="0 0 70 30" width="70" xmlns="http://www.w3.org/2000/svg"><path d="m30.4 4.2c0 .1 1.6 3.9 1.7 4.1s-.1.3-.2.2c-.2-.1-.9-.9-.9-.9l1 8.3c.3 2 .3 2.5.1 3.4-.6 2.2-1.9 2.2-2.4 2.2-2 0-2.6-1.3-2.9-1.7-1.6 2.4-4.3 1.9-4.7 1.8-1.5-.4-2.2-2.1-2.2-2.1-.3.1-3.9 1.2-4.9 1.5-1.5.5-3.3 2.1-3.7 2.4-2.1 2-3.3 1.8-3.7 1.6-2.5-1.3-1.2-4.5-.8-5.4-.4.2-.8.2-1 .3-1.3.2-1.2-1.2-1.2-1.5.1-1.5 1-2.9 1.2-3.2 0 0-1.4-1.3-1.5-1.4-.1 0-.1-.1-.1-.3 0-.1 0-1.1.1-1.3 0-.2.1-.1.2 0s1.3.7 1.4.7c.2.1.2.2.1.2s-.4.1-.4.1-.1.1 0 .2.8.7 1 .8c0 0 1.6-2.3 1.8-2.5.1-.2.2-.1.1.1 0 .2-.3 1.1-.4 1.2 0 .2-1 1.6-1 1.6 1 .8 1.4 1.3 1.5 1.7.3 1.5 0 2.1-.2 2.2-.3.4-.6.7-.9.9 0 0 0 .1-.1.2-1.5 3.2-.4 3.9-.2 4.1 1.4.8 3.4-1.1 3.8-1.5 2.4-2.3 4.5-2.9 5-3 1.7-.5 3.4-1.1 3.4-1.1-.4-.6-.5-2.4.2-3.5.8-1.1 1.4-.7 1.7-.5 1.4 1.3 1 2.9.8 3.5-.1.7-1.2 1.4-1.2 1.4 1.1 1.3 2.3 1.3 2.7 1.3 2.4-.1 3.6-2 3.9-2.4.3-.3.3.1.2.6-.1.4.6 1.1.8 1.1 1.7.9 2.7.1 2.9-.1.3-.3.2-.6.2-.8-.1-1-1.8-13.1-1.8-13.4 0 0 .4-1.1.4-1.2.1-.2.1-.1.2.1zm-12.4 17.1s-.1.3-.1.6c-.4 1.2-.1 1.7-.1 1.8.4.6.8.3 1-.2.1-.1.1-.1.1 0q0 .2 0 .4c-.2.7-.5.9-.7.9-.5 0-.7-.6-.8-.9-.2-1.2.4-2.4.5-2.7s.2-.2.1.1zm28-9.6c.1.1 1.4 1.5 1.5 1.6.2.2.1.3 0 .3h-.7s.9 1.4 1.1 1.9c.5 1.2.2 2.2.1 2.5-.4.8-1.1 1.5-1.9 2.2-.1.7-.4 3.5 2.3 3.6.4 0 1.7.1 4.4-2.1.7-.5 1.3-1.1 1.9-1.9.3-.4.4-1 0-.9-.4 0-3.2 1-3.6-.7-.1-.4.1-4.4 2.8-2.4.2.2.8.6 1.2 1.4.5-.2 1.4-.7 2.4-1.5.3-.3.6-.4.6 0-.1.3-.3 2.6 2.3 2 .2-.1 1.3-.3 2-2.3.2-.5.5-.4.4 0-.2.5-.5.9-.2 1.1.2.3.9.8 1.8.7.3-.1.4-.2.3-.5-.1-.2-.3-.7-.3-.7.1-.4.2-.9.2-1 0-.2.1-.3.2-.2.1.2.9 1.2.5 2.7-.1.2-.3 1.2-1.8.9-.4 0-1.1-.2-1.4-1-.4.5-1.2 1.9-2.9 1.6-.4 0-1.6-.5-1.6-1.9 0 0-1.4 1.1-2 1.4 0 .6 0 1.2-.3 1.9-.2.7-3.2 4-5.6 4.5-.9.2-3.9.8-4.1-2.7 0-.7.1-1.2.1-1.6-1.9 1.4-4.2 2.6-4.9 2.9-1 .5-4.5 1.1-5.1 1.2-.5.1-.5 0-.3-.2.3-.1 8.1-2.8 12.2-7.1.1-.1 0-.3-.1-.5-.1-.3-1.4-2.7-1.5-3-.1-.4-.3-.8-.3-.9-.1-.1-.1-.2-.1-.4.1-.1.2-.8.2-.9.1-.2.1-.1.2 0zm-12.4 8.2s-.1.4-.2.6c-.4 1.4-.1 1.9 0 2.1.4.6.9.2 1-.3.1-.2.2-.1.2 0s0 .2-.1.4c-.2.8-.5 1-.8 1-.5 0-.7-.5-.8-.9-.1-1.4.4-2.7.5-3s.3-.2.2.1zm9.2-7c0 .2-.3 1.2-.4 1.4-.1.1-1.1 1.4-1.1 1.4s1.3.7 1.6 1.1c.5.7.2 1.5.1 1.9-.4 1-1.9 1.7-2.3 1.8-1.4.4-1.5-1-1.4-2s.8-2.3.8-2.3c-.1-.1-1.5-1.2-1.6-1.3s-.3-.3-.4-.4-.1-.1-.1-.1 0-1.1 0-1.2c.1-.2.1-.1.2-.1.2.1 1.7.7 1.9.8.1.1.1.2 0 .3-.1 0-.6.1-.6.1l1.3 1-.1.1s1.8-2.4 2-2.7c.2-.2.2-.1.1.2zm-2 3.7c-.1.1-.9 1.3-1 1.6-.3.8.5 1 .8.9.3 0 1.4-.5 1.9-1 .5-.4-1.3-1.3-1.7-1.5zm11.1.6c-.1.1-.2.5.7.5 1 .1 1.3-.1 1.3-.1-.8-1.2-1.9-.6-2-.4zm11.7 2.9v.2.5c0 .3-.2.6-.3 1-.1.3-.8.4-1.3.1-.9 1.3-1.6.7-2 .5-.7-.3-.9.2-1.1.4-1 1-2.6 1-3 1-.4.1-.1-.2.1-.3 1.3-.5 2.1-.5 3.3-1.6.5-.6.9-.3 1.1-.2 1.1.5 1.2 0 1.4-.2.1-.1.3-.7.4-.9s.2 0 .2.1-.1.3-.1.4c.4.4.9.1 1 0 0 0 0-.4 0-.5q0-.2.1-.6c.1-.3.2-.1.2.1zm-46.6-6.5c-.1.1-.1.2-.2.4s-.3.2-.5.4c-.2.1-5.3 2.3-5.5 2.4-.4.3-.4.1-.3 0 0 0 .1-.2.1-.4.1-.2.2-.3.5-.4.2-.2 5.3-2.4 5.6-2.5.4-.3.3-.1.3.1zm12.9-.7c0 .1-.1.2-.2.4s-.2.2-.5.4c-.2.1-5.3 2.3-5.4 2.4-.5.3-.4.1-.4 0s.1-.2.1-.4c.1-.3.2-.3.5-.5v.1c.3-.2 5.3-2.4 5.6-2.5.4-.3.4-.1.3.1zm11.2-2.7 1.1.8v.1l-.6.9h-.1l-1.1-.8-.5.8h-.1l-1.2-.8v-.1l.7-.9h.1l1 .8.6-.8zm-21.9.1 1.3.9.6-.9h.1l1.3 1v.1l-.7 1h-.1l-1.3-.9-.6.8h-.1l-1.3-.9v-.1l.7-1zm43.2-.3s-.1.3-.1.5h-.1c-.3 1-.1 1.5-.1 1.6.3.4.7.2.8-.2.1-.2.1-.1.1 0q0 .1 0 .3c-.2.6-.4.7-.6.7-.4 0-.6-.4-.6-.7 0-1 .4-2 .5-2.2.1-.3.2-.2.1 0zm-55.4-1.5 1.2 1v.1l-.7 1h-.1l-1.3-.9-.7 1h-.1l-1.3-.9v-.1l.7-1.1h.1l1.3 1 .8-1.1zm44.1.5s0 .4-.1.7c-.4 1.3-.1 1.9-.1 2 .4.6.9.2 1.1-.2.1-.3.1-.1.1 0v.3c-.2.9-.6 1.1-.8 1.1-.5 0-.8-.6-.8-1-.2-1.4.3-2.6.5-3 .1-.3.2-.2.1.1zm-25.2-1.8s0 .4-.1.7c-.4 1.3-.1 1.8-.1 2 .4.6.9.2 1-.3.1-.2.2-.1.2 0s0 .2-.1.4c-.2.9-.5 1.1-.8 1.1-.4 0-.7-.6-.7-1-.2-1.4.3-2.6.5-3 .1-.3.2-.2.1.1zm24.3-2.6c-.1.1-.1.1-.2.3s-.2.3-.4.4-6 3.5-6.1 3.5c-.3.2-.3.1-.3 0h.1q-.1 0 0-.3c.1-.2.1-.3.4-.4.2-.2 6-3.5 6.2-3.6.4-.2.3-.1.3.1zm7.3.2c.1.3 0 .7-.1 1-.1.2-.2 0-.4-.1 0 0-.1-.2-.3-.3-.6-.5-.8.5-.9.9 0 .4-.1 1.5-.2 2.1 0 .3-.2.3-.3.1-.4-1.4-1.1-2.1-1.2-2.2-.2-.1-.3.1-.3.2s-.1.1-.2 0c0 0-.5-.3-.6-.5-.1-.1-.1-.6-.1-.8 0-.4.3-.5.4-.5 1.5.9 2 2.4 2.1 2.7.1-1.2.2-2.2.8-3 .5-.6 1.2.3 1.3.4zm-51.5-.6s-.1.4-.2.6c-.3 1 0 1.5 0 1.6.3.5.7.2.8-.2.1-.2.1-.1.1 0q.1.1 0 .3c-.2.7-.4.9-.6.9-.4 0-.6-.5-.7-.8-.1-1.2.3-2.2.4-2.4.1-.3.2-.2.2 0zm14.2 11.5c-.3.3-.6.6-.5 1.1.2.5.6 1.1.6 1.1.2-.1 1.8-.8 1.2-1.4-.2-.3-1-1.1-1.3-.8zm-13.8-.1c-.1.3-1.1 1.6-1.2 2-.1.6.4 1.1.9.9.6-.1 1.6-.6 1.8-.9 0 0 .3-.3.2-.5-.5-.7-1.7-1.5-1.7-1.5zm20.5 7.2 1.3.9v.1l-.8 1h-.1l-1.3-.9v-.1l.8-1zm13.7-18.5c.6.9.3 1.7.3 1.7.2.2.5.5.3 1.1 0 .2-.1.1-.2-.1-.1 0-.5-.4-.5-.4s-.4 1-1.2 1.6c-1.5 1.1-2.7 1.3-2.8 1.3s-.1-.1.1-.3v.1c.9-.5 2-.9 3.5-2.8 0 0-.4-.2-.8-.5-.3-.2-.1-1.1.1-1.4.6-1 1.1-.5 1.2-.3zm-.9.8c-.1.2 0 .3.2.3.1.1.6.3.6.3 0-.1.1-.6-.3-.9-.1-.1-.2-.1-.5.3zm23.6-.8c.5.9.2 1.7.2 1.7.3.2.5.5.4 1.1-.1.2-.2.1-.3-.1-.1-.1-.2-.3-.4-.4-.3.6-.2.6-1.2 1.5-2.1 1.8-4.5 2.4-4.6 2.5-.2 0-.2-.1 0-.3.8-.5 3.8-1.9 5.4-3.8 0 0-.5-.2-.8-.5-.3-.2-.2-1.1.1-1.4h-.1c.7-1 1.2-.5 1.3-.3zm-1 .9c-.1.1 0 .2.2.3h.1c.2.1.6.3.6.3 0-.1.1-.6-.3-1-.1-.1-.3-.1-.6.4zm-37.1-.9c-.1.1-.1.2-.3.4 0 .3-.2.4-.5.5-.3.2-12.1 5.9-12.3 6-.5.3-.4.1-.3-.1 0 0 0-.2.1-.4 0-.3.1-.3.4-.5h.1c.3-.2 12.1-5.9 12.4-6.1.5-.2.5 0 .4.2zm-10.5.3c.1.1 0 .6-.1.8 0 .2-.2 0-.3-.1 0 0-.1-.2-.3-.3-.5-.4-.7.4-.8.8 0 .4-.1 1.3-.2 1.9 0 .2-.1.2-.2 0-.3-1.2-1-1.8-1.1-1.9-.2-.1-.2.1-.2.2-.1.1-.2.1-.2 0-.1 0-.5-.2-.6-.4s0-.6 0-.8c0-.3.2-.4.3-.3 1.3.8 1.8 2.1 1.9 2.3.1-1 .1-1.9.6-2.6.5-.6 1.1.3 1.2.4zm19.6-.5c0 .2 1.4 3.4 1.5 3.6 0 .2-.1.3-.2.2-.2-.1-.8-.8-.8-.8s1.2 8.9 1.3 9.2c.2 1.7.3 3 .2 3.8 0 1.1-.2 1.5-.3 1.6-.1.2-.1.1-.1-.1 0-.6-.2-1.8-.3-3.1-.4-2.7-1.6-11.2-1.8-12.6 0-.2-.1-.6-.1-.7 0 0 .4-1 .4-1.1.1-.2.1-.1.2 0z" fill="#191c4f" fill-rule="evenodd"/></svg>