<svg width="78" height="78" viewBox="0 0 78 78" fill="none" xmlns="http://www.w3.org/2000/svg">
<g clip-path="url(#clip0_447_3)">
<path d="M0.094281 36.283C-0.669469 47.5572 3.46128 58.6267 11.4433 66.5957C19.4253 74.5647 30.4785 78.6857 41.7755 77.9025C62.426 76.4725 78 58.2335 78 35.4802L78 16.25C78 7.2897 70.7103 -4.83181e-05 61.75 -4.79264e-05L40.105 -4.69803e-05C19.0483 -4.60599e-05 1.47553 15.9347 0.094281 36.283ZM47.4143 23.7022L55.653 31.941C57.5543 33.8422 58.5033 36.3415 58.5033 38.8375L58.5033 39C58.5033 39.0682 58.5 39.1365 58.4935 39.208C58.4058 41.5805 57.46 43.927 55.653 45.7307L47.086 54.2977C45.8185 55.5685 43.7613 55.5685 42.4905 54.2977C41.2198 53.027 41.2198 50.973 42.4905 49.7022L49.9428 42.25L22.75 42.25C20.956 42.25 19.5 40.794 19.5 39C19.5 37.206 20.956 35.75 22.75 35.75L50.2678 35.75L42.8155 28.2977C41.5448 27.027 41.5448 24.973 42.8155 23.7022C44.0863 22.4315 46.1435 22.4315 47.4143 23.7022Z" fill="black"/>
</g>
<defs>
<clipPath id="clip0_447_3">
<rect width="78" height="78" fill="white" transform="translate(3.40949e-06 78) rotate(-90)"/>
</clipPath>
</defs>
</svg>
