<svg width="35" height="35" viewBox="0 0 35 35" fill="none" xmlns="http://www.w3.org/2000/svg">
<path d="M12.5067 9.90478H15.6042C16.8117 9.90478 17.7917 8.92624 17.7917 7.71728C17.7917 6.50833 16.8117 5.52979 15.6042 5.52979L12.5067 5.52979C11.2992 5.52979 10.3192 6.50833 10.3192 7.71728C10.3192 8.92624 11.2992 9.90478 12.5067 9.90478Z" fill="#283618"/>
<path d="M15.6042 15.3125L12.5067 15.3125C11.2992 15.3125 10.3192 16.291 10.3192 17.5C10.3192 18.709 11.2992 19.6875 12.5067 19.6875H15.6042C16.8117 19.6875 17.7917 18.709 17.7917 17.5C17.7917 16.291 16.8117 15.3125 15.6042 15.3125Z" fill="#283618"/>
<path d="M4.57479 4.58057C2.59583 4.58057 1.45833 5.7239 1.45833 7.71744C1.45833 9.71098 2.59438 10.8558 4.57479 10.8558C6.55521 10.8558 7.69125 9.71244 7.69125 7.71744C7.69125 5.72244 6.55521 4.58057 4.57479 4.58057Z" fill="#283618"/>
<path d="M4.57479 20.6385C6.29597 20.6385 7.69125 19.2334 7.69125 17.5002C7.69125 15.7669 6.29597 14.3618 4.57479 14.3618C2.85362 14.3618 1.45833 15.7669 1.45833 17.5002C1.45833 19.2334 2.85362 20.6385 4.57479 20.6385Z" fill="#283618"/>
<path d="M4.57479 24.144C2.59583 24.144 1.45833 25.2874 1.45833 27.2824C1.45833 29.2774 2.59438 30.4193 4.57479 30.4193C6.55521 30.4193 7.69125 29.2759 7.69125 27.2824C7.69125 25.2888 6.55521 24.144 4.57479 24.144Z" fill="#283618"/>
<path d="M31.3542 25.0952L12.5067 25.0952C11.2992 25.0952 10.3192 26.0738 10.3192 27.2827C10.3192 28.4917 11.2992 29.4702 12.5067 29.4702L31.3542 29.4702C32.5617 29.4702 33.5417 28.4917 33.5417 27.2827C33.5417 26.0738 32.5617 25.0952 31.3542 25.0952Z" fill="#283618"/>
<path d="M31.4105 9.09246C31.1172 7.26612 29.825 5.80596 28.1194 5.37218C27.2387 5.1484 26.3154 5.03355 25.373 5.03027C24.4339 5.0329 23.5112 5.14774 22.6306 5.37218C20.925 5.80596 19.6328 7.26612 19.3395 9.09246C18.9103 11.7634 18.9595 18.9668 19.4904 22.1142C19.6276 22.9306 20.2103 23.5698 21.0129 23.7752C21.9612 24.018 22.748 23.5691 23.1497 23.0677C23.5651 22.5493 25.1506 20.5294 25.1506 20.5294C25.2254 20.4342 25.3238 20.4198 25.375 20.4198C25.4262 20.4198 25.5246 20.4336 25.5994 20.5294C25.5994 20.5294 27.1856 22.55 27.6003 23.0677C28.1175 23.7122 28.9358 23.9839 29.7371 23.7752C30.5384 23.5672 31.1218 22.9306 31.2589 22.1149C31.7898 18.9675 31.8397 11.7641 31.4099 9.09312L31.4105 9.09246Z" fill="#606C38"/>
</svg>
