<svg width="26" height="26" viewBox="0 0 26 26" fill="none" xmlns="http://www.w3.org/2000/svg">
<g clip-path="url(#clip0_413_254)">
<path d="M24.0954 5.71133L20.2874 1.90342C19.06 0.676 17.4274 0 15.6919 0H10.3067C8.5712 0 6.93861 0.676 5.71011 1.90342L1.9022 5.71133C0.674779 6.93983 -0.0012207 8.57242 -0.0012207 10.3079V15.6932C-0.0012207 17.4287 0.674779 19.0613 1.9022 20.2898L5.71011 24.0977C6.93861 25.3251 8.5712 26.0011 10.3067 26.0011H15.6919C17.4285 26.0011 19.06 25.3251 20.2874 24.0977L24.0954 20.2908C25.3239 19.0634 25.9999 17.4308 25.9999 15.6943V10.309C25.9999 8.57242 25.3239 6.93875 24.0954 5.71133ZM17.8088 16.3161C18.2324 16.7397 18.2324 17.4243 17.8088 17.8479C17.5975 18.0592 17.3202 18.1653 17.0429 18.1653C16.7655 18.1653 16.4882 18.0592 16.2769 17.8479L12.9804 14.5513L9.68378 17.8479C9.47253 18.0592 9.1952 18.1653 8.91786 18.1653C8.64053 18.1653 8.3632 18.0592 8.15195 17.8479C7.72836 17.4243 7.72836 16.7397 8.15195 16.3161L11.4485 13.0195L8.15195 9.72292C7.72836 9.29933 7.72836 8.61467 8.15195 8.19108C8.57553 7.7675 9.2602 7.7675 9.68378 8.19108L12.9804 11.4877L16.2769 8.19108C16.7005 7.7675 17.3852 7.7675 17.8088 8.19108C18.2324 8.61467 18.2324 9.29933 17.8088 9.72292L14.5122 13.0195L17.8088 16.3161Z" fill="#283618"/>
</g>
<defs>
<clipPath id="clip0_413_254">
<rect width="26" height="26" fill="white"/>
</clipPath>
</defs>
</svg>
