<svg width="29" height="34" viewBox="0 0 29 34" fill="none" xmlns="http://www.w3.org/2000/svg">
<path d="M7.57808 30.6937C5.47439 30.6937 3.83455 30.1553 2.65854 29.0787C1.49901 28.0185 0.919308 26.5361 0.919308 24.6312C0.919308 23.5546 1.14292 22.5275 1.59015 21.5503C2.05399 20.5564 2.71647 19.6702 3.57785 18.8917C3.95878 18.5439 4.36468 18.2209 4.79531 17.9227C5.22593 17.608 5.69801 17.3264 6.21154 17.078C5.83061 16.9289 5.47439 16.7964 5.14315 16.6804C4.81192 16.5644 4.48891 16.4734 4.17415 16.4071C3.876 16.3408 3.56961 16.3077 3.25485 16.3077C2.77453 16.3077 2.35215 16.3823 1.98769 16.5314C1.62324 16.6638 1.15116 16.9123 0.571461 17.2767C0.422384 17.1277 0.289915 16.9123 0.173922 16.6307C0.05793 16.3326 0 16.051 0 15.786C0 15.0406 0.298154 14.4525 0.894462 14.0219C1.49077 13.5747 2.29408 13.351 3.30454 13.351C3.85115 13.351 4.42261 13.4173 5.01892 13.5498C5.61523 13.6823 6.36885 13.9143 7.27992 14.2455C8.17438 14.5767 8.96122 14.817 9.64031 14.966C10.3194 15.1151 10.9738 15.1897 11.6032 15.1897L13.8642 15.14L12.8455 17.9227C12.6301 17.9558 12.3319 17.9807 11.951 17.9973C11.5865 18.0139 11.2139 18.0221 10.8329 18.0221C10.452 18.0055 10.1206 17.989 9.83908 17.9724C9.29246 18.0552 8.69615 18.2127 8.05015 18.4445C7.40415 18.6764 6.77476 18.958 6.16185 19.2893C5.54893 19.604 4.99408 19.9601 4.49715 20.3577C3.76838 20.9374 3.19691 21.5585 2.78277 22.2211C2.38523 22.8837 2.18646 23.5628 2.18646 24.2585C2.18646 25.0039 2.41831 25.6417 2.88215 26.1717C3.34599 26.7017 3.98362 27.1076 4.79531 27.3891C5.62347 27.6873 6.56762 27.8364 7.62777 27.8364C8.47254 27.8364 9.39185 27.7701 10.3857 27.6376C11.3795 27.5216 12.4562 27.3312 13.6157 27.0661L13.9635 28.1097C13.0525 28.6232 12.1746 29.0704 11.3298 29.4514C10.4851 29.8489 9.73145 30.1553 9.06885 30.3707C8.42284 30.586 7.92592 30.6937 7.57808 30.6937ZM6.75815 11.9348C5.91338 11.2391 5.27562 10.6428 4.845 10.1459C5.22593 9.76497 5.56554 9.41712 5.86369 9.10236C6.17845 8.77112 6.46 8.45636 6.70846 8.1582C6.89062 8.35697 7.13085 8.60543 7.429 8.90359C7.72715 9.20174 8.08324 9.54959 8.49738 9.94713C8.29861 10.2287 8.05015 10.5352 7.752 10.8664C7.47045 11.1977 7.13908 11.5539 6.75815 11.9348Z" fill="#FEFAE0" fill-opacity="0.8"/>
<path d="M18.6275 31.6461C15.8595 31.6461 13.7018 30.9377 12.1544 29.5211C10.6288 28.1262 9.86599 26.1756 9.86599 23.6691C9.86599 22.2525 10.1602 20.9011 10.7487 19.6153C11.3588 18.3076 12.2307 17.1415 13.3641 16.1172C13.8653 15.6595 14.3992 15.2345 14.966 14.8422C15.5326 14.4281 16.1538 14.0576 16.8294 13.7307C16.3281 13.5345 15.8595 13.3602 15.4237 13.2076C14.9877 13.055 14.5627 12.9352 14.1487 12.848C13.7564 12.7608 13.3531 12.7172 12.9391 12.7172C12.3069 12.7172 11.7512 12.8153 11.2718 13.0114C10.7922 13.1858 10.1711 13.5127 9.4083 13.9922C9.21214 13.7961 9.03769 13.5127 8.88522 13.1422C8.73261 12.7499 8.65637 12.3794 8.65637 12.0307C8.65637 11.0499 9.04868 10.2761 9.83329 9.70952C10.6179 9.12106 11.6749 8.82683 13.0044 8.82683C13.7237 8.82683 14.4756 8.91406 15.2602 9.08837C16.0448 9.26269 17.0365 9.5679 18.2352 10.0038C19.4121 10.4396 20.4473 10.7557 21.341 10.9518C22.2345 11.148 23.0954 11.2461 23.9237 11.2461L26.8987 11.1807L25.5583 14.8422C25.2749 14.8858 24.8826 14.9185 24.3814 14.9403C23.9018 14.9621 23.4115 14.973 22.9102 14.973C22.4088 14.9511 21.973 14.9294 21.6025 14.9076C20.8833 15.0165 20.0987 15.2237 19.2487 15.5288C18.3987 15.8338 17.5704 16.2044 16.7641 16.6403C15.9576 17.0544 15.2275 17.523 14.5737 18.0461C13.6146 18.8088 12.8627 19.6261 12.3179 20.498C11.7948 21.3698 11.5333 22.2634 11.5333 23.1788C11.5333 24.1595 11.8384 24.9987 12.4487 25.6961C13.0588 26.3935 13.898 26.9275 14.966 27.298C16.0557 27.6903 17.298 27.8864 18.6929 27.8864C19.8044 27.8864 21.0141 27.7992 22.3218 27.6249C23.6294 27.4723 25.0461 27.2217 26.5718 26.873L27.0294 28.2461C25.8307 28.9217 24.6756 29.5102 23.5641 30.0114C22.4525 30.5345 21.4608 30.9377 20.5891 31.2211C19.7391 31.5044 19.0852 31.6461 18.6275 31.6461ZM17.5487 6.96337C16.4371 6.04799 15.598 5.26337 15.0314 4.60953C15.5326 4.10829 15.9794 3.6506 16.3718 3.23645C16.7858 2.8006 17.1564 2.38645 17.4833 1.99414C17.723 2.25568 18.0391 2.5826 18.4314 2.97491C18.8237 3.36722 19.2922 3.82491 19.8371 4.34799C19.5756 4.71846 19.2487 5.12175 18.8564 5.5576C18.4858 5.99346 18.0499 6.46213 17.5487 6.96337Z" fill="#FEFAE0"/>
</svg>
