<?xml version="1.0" encoding="UTF-8"?>
<svg xmlns="http://www.w3.org/2000/svg" id="Layer_1" data-name="Layer 1" viewBox="0 0 24 24">
  <path d="M13.075,6.979c-.809-.187-1.613,.319-1.797,1.127-.308,1.343-.408,2.707-.298,4.052,.026,.315,.15,.614,.356,.854,.661,.771,1.416,1.469,2.242,2.074,.267,.196,.577,.29,.885,.29,.462,0,.918-.213,1.211-.613,.49-.669,.345-1.607-.324-2.097-.507-.372-.979-.789-1.409-1.243-.028-.88,.059-1.768,.26-2.648,.185-.808-.319-1.612-1.127-1.797Z"/>
  <path d="M22.136,6.925c-.662-1.937-2.231-3.48-4.197-4.129-3.412-1.124-6.872-1.124-10.284,0-1.966,.648-3.535,2.192-4.197,4.129-.113,.332-.216,.664-.307,.998-.404-.194-.891-.205-1.324,.011-.74,.372-1.039,1.273-.667,2.014,.598,1.191,.979,1.656,2.036,2.488,.27,.212,.598,.321,.928,.321,.22,0,.441-.048,.646-.146,1.221-.583,1.7-.953,2.562-1.978,.534-.633,.452-1.58-.181-2.113-.276-.232-.61-.347-.944-.352,.029-.091,.059-.182,.09-.273,.36-1.053,1.218-1.894,2.297-2.25,2.829-.933,5.579-.933,8.405,0,1.079,.355,1.938,1.196,2.298,2.25,.943,2.762,.943,5.447,0,8.209-.36,1.054-1.219,1.895-2.297,2.25-2.829,.931-5.579,.932-8.406,0-1.079-.355-1.938-1.196-2.297-2.249-.09-.264-.171-.527-.244-.791-.22-.799-1.048-1.262-1.845-1.047-.799,.221-1.268,1.047-1.047,1.846,.088,.32,.188,.641,.297,.962,.662,1.938,2.231,3.48,4.197,4.129,1.706,.562,3.424,.843,5.142,.843s3.436-.281,5.142-.843c1.966-.648,3.535-2.191,4.197-4.13,1.15-3.366,1.15-6.781,0-10.149Z"/>
</svg>
