<svg width="35" height="35" viewBox="0 0 35 35" fill="none" xmlns="http://www.w3.org/2000/svg">
<path d="M31.3002 9.49221C31.201 9.31575 31.0654 9.16117 30.9035 9.04013C28.5264 7.26096 20.5333 1.45825 17.5 1.45825C14.4666 1.45825 6.47352 7.26096 4.09644 9.04013C3.93456 9.16117 3.79894 9.31575 3.69977 9.49221C3.6079 9.65408 1.45831 13.558 1.45831 21.1458C1.45831 25.7045 2.92831 30.1699 2.99102 30.3566C3.12227 30.7518 3.41685 31.0712 3.8004 31.236C4.0206 31.3308 9.27352 33.5416 17.5 33.5416C25.7264 33.5416 30.9794 31.3308 31.1996 31.236C31.5816 31.0726 31.8762 30.7518 32.0089 30.3566C32.0716 30.1685 33.5416 25.7045 33.5416 21.1458C33.5416 13.558 31.3921 9.65554 31.3002 9.49221Z" fill="#283618"/>
</svg>
