<svg width="670" height="304" viewBox="0 0 670 304" fill="none" xmlns="http://www.w3.org/2000/svg">
<path d="M198.453 161.626C194.515 161.626 190.224 161.415 185.582 160.993C181.081 160.712 176.58 160.219 172.078 159.516C169.265 158.953 167.155 157.687 165.748 155.718C164.342 153.749 163.427 151.498 163.005 148.966C162.583 146.293 162.654 143.691 163.216 141.159C163.779 138.627 164.764 136.587 166.17 135.04C167.718 133.352 169.546 132.508 171.656 132.508C172.641 132.508 175.454 132.789 180.096 133.352C184.879 133.915 190.576 134.196 197.187 134.196C206.19 134.196 212.52 133.071 216.177 130.82C219.835 128.429 221.663 125.053 221.663 120.692C221.663 117.738 220.608 114.081 218.498 109.72C216.529 105.219 213.786 100.295 210.269 94.95C206.893 89.464 203.095 83.8373 198.875 78.07C197.328 75.538 196.976 73.1467 197.82 70.896C198.664 68.6453 200.212 66.8167 202.462 65.41C204.713 63.8627 206.964 63.089 209.214 63.089C212.028 63.089 214.208 64.2143 215.755 66.465C224.055 77.5777 230.596 88.409 235.378 98.959C240.161 109.368 242.552 118.793 242.552 127.233C242.552 134.829 240.864 141.229 237.488 146.434C234.253 151.498 229.33 155.296 222.718 157.828C216.248 160.36 208.159 161.626 198.453 161.626Z" fill="white"/>
<path d="M277.697 161.626C276.431 161.626 275.095 161.345 273.688 160.782C272.281 160.36 271.086 159.446 270.101 158.039C269.116 156.492 268.413 154.1 267.991 150.865C267.71 144.816 267.499 137.994 267.358 130.398C267.217 122.802 267.217 114.714 267.358 106.133C267.639 97.5523 267.921 88.831 268.202 79.969C268.483 71.107 268.835 62.456 269.257 54.016C269.82 45.4353 270.312 37.347 270.734 29.751C271.297 22.155 271.859 15.403 272.422 9.495C272.844 6.25967 274.04 3.86834 276.009 2.32101C278.119 0.773669 280.792 0 284.027 0C288.106 0 291.06 1.055 292.889 3.165C294.858 5.275 295.632 7.73667 295.21 10.55C294.647 14.6293 294.085 20.3263 293.522 27.641C293.1 34.815 292.678 42.9033 292.256 51.906C291.834 60.768 291.482 69.9817 291.201 79.547C290.92 89.1123 290.709 98.4667 290.568 107.61C290.427 116.753 290.357 124.982 290.357 132.297C290.498 139.612 290.709 145.52 290.99 150.021C291.271 153.819 290.427 156.703 288.458 158.672C286.489 160.641 282.902 161.626 277.697 161.626Z" fill="white"/>
<path d="M351.552 161.626C346.347 161.626 341.283 161.485 336.36 161.204C331.577 160.923 327.076 160.29 322.856 159.305C320.887 158.742 319.269 157.547 318.003 155.718C316.878 153.749 316.174 151.498 315.893 148.966C315.612 146.293 315.752 143.761 316.315 141.37C316.878 138.838 317.792 136.798 319.058 135.251C320.324 133.563 321.871 132.719 323.7 132.719C324.825 132.719 327.639 133 332.14 133.563C336.782 133.985 343.112 134.196 351.13 134.196C359.711 134.196 365.83 133.211 369.487 131.242C373.285 129.273 374.41 126.319 372.863 122.38C369.909 114.784 367.166 107.118 364.634 99.381C362.243 91.5037 360.062 84.189 358.093 77.437C357.53 75.0457 357.741 73.006 358.726 71.318C359.851 69.4893 361.399 68.0827 363.368 67.098C365.337 66.1133 367.307 65.621 369.276 65.621C371.105 65.621 372.793 66.1837 374.34 67.309C376.028 68.2937 377.224 69.9113 377.927 72.162C380.178 79.4767 382.499 86.8617 384.89 94.317C387.281 101.772 389.673 108.665 392.064 114.995C395.018 121.606 398.394 126.459 402.192 129.554C405.99 132.649 410.069 134.196 414.43 134.196L418.228 137.15V157.617L414.43 160.36C408.522 160.079 403.247 158.672 398.605 156.14C394.104 153.467 390.446 149.669 387.633 144.746C385.523 150.513 381.444 154.804 375.395 157.617C369.487 160.29 361.539 161.626 351.552 161.626Z" fill="white"/>
<path d="M490.787 164.369C486.427 164.369 481.785 163.455 476.861 161.626C472.079 159.797 467.296 157.336 462.513 154.241C457.731 151.006 453.37 147.137 449.431 142.636C445.493 138.135 442.328 133.141 439.936 127.655L452.174 108.243C454.425 113.588 457.731 118.582 462.091 123.224C466.452 127.725 471.024 131.383 475.806 134.196C480.589 136.869 484.809 138.205 488.466 138.205C493.249 138.205 497.047 136.306 499.86 132.508C502.674 128.569 504.08 123.505 504.08 117.316C504.08 113.237 503.166 109.509 501.337 106.133C499.649 102.757 497.258 100.155 494.163 98.326C491.209 96.3567 487.974 95.372 484.457 95.372C481.644 95.372 478.76 96.1457 475.806 97.693C472.993 99.2403 470.109 102.054 467.155 106.133C464.342 110.212 461.318 116.05 458.082 123.646C453.159 135.462 446.899 144.535 439.303 150.865C431.707 157.195 423.267 160.36 413.983 160.36L410.607 158.25V137.361L414.405 134.196C418.485 134.196 422.142 133.493 425.377 132.086C428.613 130.539 431.637 127.796 434.45 123.857C437.404 119.918 440.429 114.292 443.523 106.977C447.462 97.693 451.541 90.4487 455.761 85.244C459.981 79.8987 464.483 76.1007 469.265 73.85C474.189 71.5993 479.393 70.474 484.879 70.474C492.475 70.474 499.298 72.584 505.346 76.804C511.395 81.024 516.178 86.721 519.694 93.895C523.352 100.928 525.18 108.946 525.18 117.949C525.18 126.952 523.774 134.97 520.96 142.003C518.288 149.036 514.349 154.522 509.144 158.461C504.08 162.4 497.961 164.369 490.787 164.369Z" fill="white"/>
<path d="M17.3252 137.523C19.2945 137.523 21.3344 137.945 23.4444 138.789C25.5543 139.633 27.1725 141.109 28.2979 143.219L75.1397 238.802C85.8302 223.188 96.2393 207.504 106.367 191.75C116.495 175.995 126.201 160.592 135.485 145.541C137.173 142.868 138.932 141.18 140.761 140.477C142.589 139.633 144.418 139.211 146.246 139.21C148.356 139.21 150.396 139.633 152.365 140.477C154.335 141.18 155.953 142.306 157.219 143.853C157.415 144.093 157.592 144.349 157.754 144.62C157.691 146.317 157.795 148.027 158.066 149.746L158.07 149.766L158.073 149.788C158.25 150.848 158.498 151.88 158.815 152.88L157.852 179.3C157.289 198.009 156.585 216.859 155.741 235.849C155.038 254.698 154.405 273.055 153.843 290.919C153.702 294.155 152.507 296.687 150.256 298.516C148.146 300.345 145.473 301.329 142.237 301.469C139.284 301.61 136.541 300.696 134.009 298.727C131.477 296.758 130.281 294.084 130.422 290.708C130.563 289.302 130.703 286.489 130.844 282.269C130.984 277.908 131.195 272.633 131.477 266.444C131.758 260.255 132.039 253.573 132.32 246.399C132.602 239.225 132.883 232.05 133.164 224.876C133.586 217.562 133.938 210.669 134.22 204.199C134.501 197.728 134.712 192.101 134.853 187.319C129.367 195.899 123.74 204.621 117.973 213.483C112.346 222.345 106.649 231.137 100.882 239.858C95.2552 248.439 89.5574 256.667 83.7901 264.544C82.1021 267.076 80.2037 268.835 78.0938 269.82C76.1244 270.804 74.436 271.296 73.0293 271.296C70.2161 271.296 67.614 269.96 65.2227 267.288C62.8313 264.615 60.7915 261.45 59.1035 257.792C58.1189 255.682 56.5006 252.447 54.25 248.086C52.1401 243.585 49.6082 238.31 46.6543 232.261C43.8411 226.213 40.8163 219.813 37.5811 213.061C34.3458 206.309 31.1103 199.557 27.875 192.805C27.5937 203.918 27.2423 215.101 26.8203 226.354C26.539 237.607 26.0471 248.861 25.3438 260.114C24.7811 271.367 24.0774 282.55 23.2334 293.663C23.0928 297.179 21.8267 299.711 19.4356 301.258C17.0442 302.806 14.371 303.58 11.417 303.58C9.58858 303.58 7.76009 303.228 5.93166 302.525C4.10299 301.822 2.62535 300.696 1.50002 299.149C0.374731 297.602 -0.117201 295.632 0.0234574 293.241C0.867455 281.565 1.64141 269.398 2.34475 256.738C3.04808 243.937 3.61025 231.206 4.03225 218.546C4.45424 205.746 4.80658 193.437 5.08791 181.622C5.36924 169.665 5.50979 158.763 5.50979 148.917C5.50981 146.103 6.07198 143.923 7.19729 142.375C8.32261 140.688 9.80028 139.492 11.6289 138.789C13.598 137.945 15.4968 137.523 17.3252 137.523ZM210.389 181.833C213.343 181.833 216.016 182.677 218.407 184.365C220.798 185.912 221.854 188.303 221.572 191.539C221.01 196.603 220.446 201.667 219.884 206.731C219.321 211.795 218.9 217.211 218.618 222.978C218.337 228.605 218.196 234.934 218.196 241.967C218.196 246.469 218.267 250.971 218.407 255.472C218.548 259.833 218.759 264.193 219.04 268.553C219.321 272.914 219.673 277.204 220.095 281.424C220.517 285.644 220.938 289.654 221.36 293.452C221.642 295.702 221.08 297.531 219.673 298.938C218.407 300.345 216.718 301.4 214.608 302.103C212.639 302.947 210.741 303.369 208.912 303.369C205.114 303.369 202.16 301.259 200.05 297.039C198.081 292.678 196.674 286.7 195.83 279.104C195.127 271.367 194.774 262.576 194.774 252.729C194.774 246.399 194.845 240.069 194.985 233.739C195.267 227.268 195.619 221.149 196.041 215.381C196.463 209.474 196.885 204.34 197.307 199.979C197.729 195.478 198.151 192.102 198.573 189.851C199.136 187.601 199.979 185.912 201.105 184.787C202.371 183.661 203.848 182.887 205.536 182.465C207.224 182.043 208.842 181.833 210.389 181.833ZM595.625 126.55C598.298 126.55 600.548 127.043 602.377 128.028C604.346 128.872 605.824 130.559 606.809 133.091C607.793 135.623 608.285 139.211 608.285 143.853C608.285 154.262 607.723 164.671 606.598 175.081C605.613 185.49 604.558 195.9 603.433 206.309C602.307 216.718 601.744 227.127 601.744 237.537C601.744 246.117 602.378 253.573 603.644 259.903C604.91 266.232 606.738 271.226 609.129 274.883C611.52 278.541 614.334 280.933 617.569 282.058C622.211 283.465 624.532 286.841 624.532 292.186C624.532 295.421 623.477 298.094 621.367 300.204C619.398 302.313 616.515 303.369 612.717 303.369C606.527 303.369 600.83 301.54 595.625 297.882C590.561 294.084 586.342 288.247 582.966 280.37C581.419 283.605 579.519 286.559 577.269 289.232C575.018 291.764 572.486 293.944 569.673 295.773C566.86 297.602 563.905 299.008 560.811 299.993C557.716 300.977 554.551 301.469 551.315 301.469C542.735 301.469 534.998 299.078 528.105 294.295C521.354 289.513 515.938 282.831 511.858 274.25C507.779 265.529 505.739 255.472 505.739 244.078C505.739 235.638 507.146 227.69 509.959 220.235C512.913 212.78 516.922 206.238 521.986 200.612C527.05 194.985 532.818 190.624 539.288 187.53C545.759 184.435 552.511 182.887 559.544 182.887C563.342 182.887 566.93 183.45 570.306 184.576C573.682 185.701 576.987 187.46 580.223 189.851C581.067 183.24 581.769 176.769 582.332 170.439C582.895 163.968 583.317 157.919 583.599 152.292C583.88 146.525 583.81 141.18 583.388 136.256C583.388 134.287 583.95 132.529 585.075 130.982C586.201 129.435 587.678 128.309 589.507 127.606C591.335 126.903 593.375 126.55 595.625 126.55ZM327.029 165.216C329.944 165.687 332.957 166.012 336.066 166.195L336.075 166.196C341.022 166.478 346.102 166.621 351.312 166.625C350.384 181.891 349.55 197.299 348.813 212.85C347.688 239.436 346.563 265.811 345.438 291.975C345.297 295.492 343.889 297.953 341.217 299.36C338.685 300.907 335.872 301.681 332.777 301.681C329.542 301.681 326.799 300.907 324.548 299.36C322.438 297.672 321.453 295.491 321.594 292.819C321.734 291.131 321.805 289.583 321.805 288.176C321.945 286.629 322.087 284.941 322.228 283.113C322.368 281.284 322.509 279.104 322.649 276.572C319.696 281.917 316.249 286.418 312.311 290.076C308.372 293.733 304.081 296.547 299.439 298.516C294.938 300.345 290.295 301.258 285.513 301.258C279.042 301.258 273.486 299.711 268.844 296.617C264.202 293.381 260.334 289.231 257.239 284.167C254.285 279.104 252.035 273.617 250.487 267.709C249.081 261.661 248.377 255.823 248.377 250.197C248.377 241.898 249.713 233.809 252.386 225.932C255.058 217.914 258.716 210.74 263.358 204.41C268.141 198.08 273.768 193.086 280.238 189.428C286.849 185.63 294.094 183.732 301.971 183.732C305.769 183.732 309.638 184.294 313.576 185.419C317.656 186.404 321.665 188.022 325.604 190.273C326.026 183.802 326.377 177.331 326.658 170.861C326.781 168.973 326.906 167.092 327.029 165.216ZM457.867 183.732C460.821 183.732 463.493 184.717 465.885 186.686C468.417 188.655 469.684 191.609 469.684 195.547C469.684 201.455 469.331 207.012 468.628 212.216C468.065 217.28 467.433 222.837 466.73 228.885C466.167 234.793 465.885 242.038 465.885 250.619C465.885 258.074 466.167 264.404 466.73 269.609C467.292 274.813 468.488 278.822 470.316 281.635C471.582 280.791 472.778 279.948 473.903 279.104C475.029 278.26 476.084 277.346 477.068 276.361C478.194 275.376 479.178 274.391 480.022 273.407C480.866 272.563 481.78 271.929 482.765 271.507C483.749 271.085 484.876 270.875 486.142 270.875C488.533 270.875 490.642 271.719 492.471 273.407C494.44 275.095 495.425 277.275 495.425 279.948C495.425 281.214 495.073 282.55 494.37 283.957C493.807 285.222 492.752 286.559 491.205 287.965C486.704 292.326 482.413 295.632 478.334 297.882C474.255 300.133 470.457 301.258 466.94 301.258C463.846 301.258 460.891 300.345 458.078 298.516C455.405 296.547 453.085 293.944 451.115 290.708C449.287 287.333 447.95 283.605 447.106 279.526C444.715 283.465 441.831 287.051 438.455 290.287C435.079 293.522 431.281 296.124 427.062 298.093C422.842 299.922 418.269 300.836 413.346 300.836C404.906 300.836 397.592 298.515 391.402 293.874C385.213 289.232 380.5 283.254 377.265 275.939C374.17 268.484 372.623 260.606 372.623 252.307C372.623 244.008 373.819 235.849 376.21 227.831C378.601 219.813 381.977 212.569 386.338 206.098C390.839 199.487 396.255 194.212 402.585 190.273C408.915 186.334 416.019 184.365 423.897 184.365C427.132 184.365 430.859 184.927 435.079 186.052C439.299 187.178 443.238 189.147 446.896 191.96C447.599 188.866 448.935 186.756 450.904 185.63C452.874 184.364 455.195 183.732 457.867 183.732ZM561.022 203.355C555.817 203.355 550.893 205.113 546.251 208.629C541.609 212.146 537.811 216.929 534.857 222.978C532.044 229.027 530.638 235.779 530.638 243.234C530.638 249.845 531.623 255.964 533.592 261.59C535.561 267.217 538.233 271.718 541.609 275.094C545.126 278.47 549.135 280.159 553.637 280.159C556.731 280.159 559.544 279.455 562.076 278.048C564.749 276.642 567.07 274.532 569.039 271.718C571.149 268.905 572.908 265.318 574.314 260.958C575.862 256.597 576.987 251.603 577.69 245.977C577.409 242.601 577.269 238.803 577.269 234.583C577.269 230.222 577.409 226.002 577.69 221.922C577.972 217.703 578.253 214.045 578.534 210.951C575.721 208.559 572.908 206.73 570.095 205.464C567.281 204.058 564.257 203.355 561.022 203.355ZM304.292 204.41C299.509 204.41 294.727 206.168 289.944 209.685C285.162 213.202 281.152 218.336 277.917 225.087C274.822 231.839 273.275 240.139 273.275 249.986C273.275 254.909 273.908 259.692 275.174 264.333C276.581 268.835 278.48 272.563 280.871 275.517C283.403 278.33 286.217 279.737 289.312 279.737C293.531 279.737 297.47 278.33 301.127 275.517C304.784 272.563 308.02 268.835 310.833 264.333C313.646 259.832 315.967 255.19 317.796 250.408C319.625 245.625 320.68 241.335 320.961 237.537C321.102 236.693 321.312 235.989 321.594 235.426C321.875 234.864 322.368 234.301 323.071 233.739L324.337 212.005C321.102 209.333 317.726 207.434 314.209 206.309C310.692 205.043 307.387 204.41 304.292 204.41ZM425.584 204.832C420.379 204.832 415.667 206.731 411.447 210.529C407.368 214.327 404.062 219.672 401.53 226.565C399.139 233.458 397.873 241.405 397.732 250.408C397.592 259.269 399.209 266.373 402.585 271.718C405.961 277.064 410.392 279.737 415.878 279.737C420.52 279.737 424.389 278.26 427.483 275.306C430.719 272.212 433.321 268.202 435.29 263.279C437.259 258.215 438.806 252.658 439.932 246.61C441.198 240.561 442.112 234.512 442.675 228.463C443.378 222.274 443.941 216.577 444.363 211.373C442.535 209.825 440.495 208.63 438.244 207.786C435.993 206.801 433.743 206.097 431.492 205.675C429.382 205.113 427.413 204.832 425.584 204.832ZM340.795 123.596C344.593 123.596 347.688 124.44 350.079 126.128C351.326 126.89 352.23 127.909 352.795 129.182C352.255 129.191 351.7 129.196 351.13 129.196C343.217 129.196 337.085 128.987 332.668 128.589C331.955 128.5 331.275 128.421 330.629 128.344C331.189 127.367 331.904 126.558 332.777 125.917C335.028 124.37 337.7 123.596 340.795 123.596Z" fill="white"/>
<path d="M612.438 238.869C611.28 238.976 610.311 238.707 609.53 238.061C608.729 237.463 607.995 236.338 607.328 234.686C606.773 233.309 606.66 232.234 606.988 231.461C607.317 230.688 607.791 230.176 608.411 229.926C609.065 229.662 609.761 229.502 610.498 229.444C611.236 229.387 611.98 229.347 612.731 229.324C616.199 229.287 619.563 229.291 622.824 229.337C626.098 229.417 629.263 229.522 632.317 229.651C635.42 229.8 638.429 229.968 641.346 230.152C644.262 230.337 647.093 230.556 649.837 230.81C651.361 230.916 652.572 231.289 653.47 231.927C654.416 232.586 655.125 233.501 655.597 234.672C656.194 236.152 656.409 237.527 656.24 238.796C656.071 240.064 655.574 241.065 654.749 241.799C654.529 242.047 653.804 242.68 652.573 243.697C651.39 244.734 649.877 246.045 648.034 247.629C646.226 249.199 644.266 250.89 642.155 252.702C640.057 254.549 637.984 256.406 635.935 258.273C633.921 260.126 632.075 261.851 630.397 263.449C628.734 265.08 627.452 266.418 626.552 267.461C626.291 267.807 625.947 268.146 625.521 268.478C625.143 268.83 624.816 269.062 624.541 269.173C623.783 269.479 622.928 269.343 621.975 268.767C621.001 268.239 620.237 267.287 619.682 265.909C619.307 264.98 619.087 264.088 619.022 263.233C618.937 262.427 619.252 261.619 619.967 260.811C621.671 258.883 623.678 256.912 625.989 254.899C628.299 252.887 630.682 250.905 633.138 248.954C635.641 247.023 638.007 245.149 640.236 243.329C642.478 241.544 644.4 239.908 646.002 238.422C641.706 238.193 637.567 238.101 633.582 238.147C629.632 238.179 625.886 238.269 622.343 238.417C618.814 238.599 615.512 238.75 612.438 238.869ZM620.872 237.449C620.629 236.947 620.793 236.26 621.362 235.39C621.966 234.506 622.768 233.863 623.766 233.46C624.592 233.127 625.344 233.104 626.02 233.391C626.745 233.7 627.377 234.125 627.916 234.668C628.504 235.232 628.967 235.785 629.306 236.329C629.86 237.106 630.418 238.042 630.979 239.137C631.541 240.231 632.099 241.467 632.655 242.844C633.224 244.256 633.718 245.778 634.136 247.41C634.227 247.734 634.456 248.302 634.823 249.115C635.239 249.948 635.683 250.849 636.155 251.82C636.675 252.811 637.16 253.716 637.61 254.535C638.075 255.389 638.4 255.998 638.587 256.363C639.08 257.285 639.168 258.15 638.853 258.957C638.587 259.785 637.92 260.415 636.853 260.845C635.889 261.234 634.941 261.216 634.009 260.791C633.077 260.366 632.182 259.687 631.325 258.752C630.516 257.837 629.796 256.846 629.166 255.78C628.584 254.734 628.119 253.78 627.772 252.919C626.98 250.957 626.244 249.132 625.564 247.445C624.932 245.779 624.238 244.157 623.482 242.581C622.761 240.991 621.89 239.28 620.872 237.449Z" fill="#DDA15E"/>
<path d="M662.067 261.43C663.093 261.096 663.979 261.259 664.725 261.919C665.472 262.578 666.067 263.459 666.512 264.561C667.081 265.972 667.308 267.181 667.194 268.188C667.08 269.195 666.451 269.869 665.308 270.21C659.467 272.005 653.506 273.949 647.425 276.042C641.378 278.12 635.477 280.26 629.72 282.462C628.639 282.858 627.728 282.685 626.989 281.942C626.228 281.248 625.591 280.264 625.078 278.991C624.605 277.82 624.427 276.731 624.541 275.725C624.635 274.766 625.325 274.047 626.613 273.568C632.163 271.449 637.962 269.351 644.008 267.272C650.055 265.194 656.074 263.246 662.067 261.43Z" fill="#DDA15E"/>
<path d="M197.518 135.624C195.127 138.156 193.931 140.969 193.931 144.064C193.931 146.314 194.494 148.354 195.619 150.183C196.744 152.011 198.01 153.418 199.417 154.403C200.683 156.794 202.441 158.763 204.692 160.311C206.943 161.858 209.475 162.632 212.288 162.632C214.679 162.632 216.86 161.858 218.829 160.311C220.939 158.763 222.557 156.864 223.682 154.614C224.948 152.222 225.581 149.901 225.581 147.651C225.581 144.134 224.737 141.25 223.049 139C221.361 136.608 219.181 134.78 216.508 133.514C213.976 132.248 211.303 131.615 208.49 131.615C203.707 131.615 200.05 132.951 197.518 135.624Z" fill="#DDA15E"/>
</svg>
