<svg id="Layer_1" height="512" viewBox="0 0 24 24" width="512" xmlns="http://www.w3.org/2000/svg" data-name="Layer 1"><path d="m2.31 17.192 5.5 5.5a4.22 4.22 0 0 1 -5.5-5.5zm5.017-15.212a1 1 0 0 0 -.4-1.96 10.689 10.689 0 0 0 -6.714 4.125 1 1 0 0 0 1.607 1.189 8.641 8.641 0 0 1 5.507-3.354zm15.873 14.043a1 1 0 0 0 -1.191.762 8.638 8.638 0 0 1 -3.317 5.407 1 1 0 0 0 1.18 1.616 10.7 10.7 0 0 0 4.09-6.593 1 1 0 0 0 -.762-1.192zm-3.033-10.776 1.54-1.54a1 1 0 1 0 -1.414-1.414l-1.542 1.542a8.456 8.456 0 0 0 -9.822-.5l-5.5 3.4a5.026 5.026 0 0 0 -.912 7.829l6.959 6.959a5.026 5.026 0 0 0 7.839-.926l3.6-5.876a8.543 8.543 0 0 0 -.748-9.474z"/></svg>