<svg width="471" height="449" viewBox="0 0 471 449" fill="none" xmlns="http://www.w3.org/2000/svg">
<path d="M46.2845 36.1182C45.0185 35.2742 44.2449 34.2192 43.9635 32.9532C43.8229 31.5465 44.0339 30.2805 44.5965 29.1552C45.1592 28.0299 45.9329 27.2562 46.9175 26.8342C48.0429 26.2715 49.3089 26.4122 50.7155 27.2562C53.3882 28.9442 56.1312 30.2102 58.9445 31.0542C61.8985 31.7575 64.7119 32.1092 67.3845 32.1092C70.1979 32.1092 72.8002 31.6872 75.1915 30.8432C77.5829 29.9992 79.4819 28.8739 80.8885 27.4672C78.3565 27.7485 75.9652 26.9749 73.7145 25.1462C71.4639 23.3175 70.3385 20.6449 70.3385 17.1282C70.3385 14.0335 71.2529 11.5015 73.0815 9.53218C75.0509 7.42219 77.5125 6.36719 80.4665 6.36719C83.9832 6.36719 86.7965 7.63319 88.9065 10.1652C91.0165 12.6972 92.0715 16.0732 92.0715 20.2932C92.0715 24.6539 90.8759 28.5222 88.4845 31.8982C86.2339 35.1335 83.1392 37.6655 79.2005 39.4942C75.4025 41.3229 71.1825 42.2372 66.5405 42.2372C63.3052 42.2372 59.9292 41.7449 56.4125 40.7602C52.8959 39.7755 49.5199 38.2282 46.2845 36.1182Z" fill="#DDA15E"/>
<path d="M68.0076 88.1912C66.0383 88.1912 64.3503 87.6285 62.9436 86.5032C61.6776 85.3779 60.693 83.9712 59.9896 82.2832C59.427 80.5952 59.1456 78.8368 59.1456 77.0082C59.1456 73.4915 60.06 70.6078 61.8886 68.3572C63.7173 65.9658 65.8976 64.7702 68.4296 64.7702C70.9616 64.7702 73.0013 65.4032 74.5486 66.6692C76.2366 67.7945 77.4323 69.2715 78.1356 71.1002C78.9796 72.7882 79.4016 74.6169 79.4016 76.5862C79.4016 80.3842 78.2763 83.2679 76.0256 85.2372C73.9156 87.2065 71.243 88.1912 68.0076 88.1912Z" fill="white"/>
<path d="M65.741 219.652C55.4724 219.652 46.2587 217.12 38.1 212.056C30.082 207.133 23.752 200.24 19.11 191.378C14.6087 182.657 12.358 172.67 12.358 161.416C12.358 155.227 13.0614 149.038 14.468 142.848C16.0154 136.518 17.9847 130.751 20.376 125.546C22.908 120.201 25.651 115.911 28.605 112.675C29.7304 111.55 30.8557 110.706 31.981 110.143C33.247 109.581 34.513 109.299 35.779 109.299C37.7484 109.299 39.5067 109.862 41.054 110.987C42.742 111.972 43.797 113.379 44.219 115.207C44.7817 116.895 44.3597 118.794 42.953 120.904C39.155 125.546 35.99 131.103 33.458 137.573C31.0667 144.044 29.871 150.866 29.871 158.04C29.871 165.636 31.4184 172.318 34.513 178.085C37.7484 183.853 42.1794 188.354 47.806 191.589C53.4327 194.825 59.9034 196.442 67.218 196.442C75.3767 196.442 82.199 194.614 87.685 190.956C93.3117 187.299 97.5317 182.305 100.345 175.975C103.299 169.645 104.776 162.612 104.776 154.875C104.776 149.389 104.002 143.622 102.455 137.573C101.048 131.525 98.868 125.476 95.914 119.427C95.07 117.88 94.648 116.333 94.648 114.785C94.648 112.816 95.492 110.987 97.18 109.299C98.868 107.611 100.837 106.767 103.088 106.767C106.042 106.767 108.293 107.682 109.84 109.51C111.387 111.339 112.653 113.871 113.638 117.106C116.451 123.858 118.491 130.61 119.757 137.362C121.164 143.974 121.867 150.444 121.867 156.774C121.867 168.309 119.757 178.859 115.537 188.424C111.458 197.99 105.268 205.586 96.969 211.212C88.6697 216.839 78.2604 219.652 65.741 219.652Z" fill="white"/>
<path d="M161.049 178.929C160.064 178.929 158.798 178.718 157.251 178.296C155.703 177.874 154.367 177.03 153.242 175.764C152.116 174.498 151.554 172.529 151.554 169.856C151.554 162.964 151.624 155.86 151.765 148.545C152.046 141.09 152.257 133.424 152.398 125.546C152.679 117.669 152.96 109.581 153.242 101.281C153.664 92.9819 154.015 84.5419 154.297 75.9612C154.719 67.2398 155.141 58.3779 155.563 49.3752C155.703 46.5619 156.618 44.5222 158.306 43.2562C160.134 41.8495 162.244 41.1462 164.636 41.1462C167.73 41.1462 169.981 42.0605 171.388 43.8892C172.794 45.5772 173.427 47.6168 173.287 50.0082C173.005 56.6195 172.724 63.0198 172.443 69.2092C172.161 75.3985 171.88 81.9395 171.599 88.8322C171.317 95.5842 171.036 103.251 170.755 111.831C170.473 122.522 170.262 132.58 170.122 142.004C169.981 151.429 169.77 160.432 169.489 169.012C169.489 170.56 169.207 172.107 168.645 173.654C168.082 175.202 167.168 176.468 165.902 177.452C164.776 178.437 163.159 178.929 161.049 178.929Z" fill="white"/>
<path d="M230.962 55.0002C237.011 55.0002 241.723 56.9695 245.099 60.9082C248.616 64.8468 250.374 69.5592 250.374 75.0452C250.374 80.2498 248.686 84.6105 245.31 88.1272C242.075 91.5032 237.714 93.1912 232.228 93.1912C226.883 93.1912 222.522 91.5032 219.146 88.1272C215.911 84.7512 214.293 80.6719 214.293 75.8892C214.293 71.1065 215.7 67.0975 218.513 63.8622C221.467 60.4862 225.336 58.7982 230.118 58.7982C231.244 58.7982 232.158 59.2202 232.861 60.0642C233.705 60.9082 234.198 61.9632 234.338 63.2292C234.479 64.3545 234.198 65.3392 233.494 66.1832C232.932 67.0272 231.806 67.4492 230.118 67.4492C227.727 67.4492 225.828 68.3635 224.421 70.1922C223.155 71.8802 222.522 73.6385 222.522 75.4672C222.522 78.1398 223.437 80.3202 225.265 82.0082C227.094 83.5555 229.345 84.3292 232.017 84.3292C234.831 84.3292 237.222 83.5555 239.191 82.0082C241.161 80.3202 242.145 77.9992 242.145 75.0452C242.145 72.2318 241.09 69.6999 238.98 67.4492C237.011 65.0579 234.268 63.8622 230.751 63.8622C229.626 63.8622 228.712 63.4402 228.008 62.5962C227.446 61.6115 227.164 60.5565 227.164 59.4312C227.164 58.3058 227.446 57.3212 228.008 56.4772C228.712 55.4925 229.696 55.0002 230.962 55.0002Z" fill="#DDA15E"/>
<path d="M181.958 220.285C179.848 220.285 178.23 219.512 177.105 217.964C175.839 216.558 175.065 214.799 174.784 212.689C174.362 210.579 174.362 208.469 174.784 206.359C175.206 204.249 175.979 202.491 177.105 201.084C178.23 199.678 179.637 198.974 181.325 198.974C189.483 199.396 196.376 198.552 202.003 196.442C207.77 194.332 212.412 191.167 215.929 186.947C219.445 182.868 222.118 178.015 223.947 172.388C225.916 166.621 227.182 160.291 227.745 153.398C228.448 146.365 228.729 139.05 228.589 131.454C228.448 127.938 229.292 125.476 231.121 124.069C232.949 122.522 234.989 121.748 237.24 121.748C239.35 121.748 241.178 122.381 242.726 123.647C244.414 124.913 245.258 126.672 245.258 128.922C245.258 133.564 245.891 137.995 247.157 142.215C248.423 146.295 250.603 149.671 253.698 152.343C256.933 154.875 261.223 156.141 266.569 156.141L270.367 159.095V174.92L266.569 177.452C261.364 177.452 256.581 176.046 252.221 173.232C248.001 170.419 244.695 167.043 242.304 163.104C241.038 175.905 237.591 186.596 231.965 195.176C226.479 203.898 219.445 210.368 210.865 214.588C202.284 218.808 192.648 220.707 181.958 220.285Z" fill="white"/>
<path d="M266.593 177.452L262.795 174.92V158.673L266.593 156.141C272.079 156.141 277.847 155.508 283.895 154.242C290.085 152.976 296.133 151.218 302.041 148.967C307.949 146.717 313.295 144.044 318.077 140.949C322.86 137.714 326.658 134.268 329.471 130.61C332.425 126.812 333.902 122.874 333.902 118.794C333.902 114.856 332.918 111.409 330.948 108.455C329.12 105.361 326.588 102.899 323.352 101.07C320.117 99.2415 316.46 98.3272 312.38 98.3272C306.332 98.3272 301.268 100.226 297.188 104.024C293.109 107.822 291.069 112.746 291.069 118.794C291.069 124.28 293.039 129.274 296.977 133.775C301.057 138.277 306.402 142.215 313.013 145.591C319.625 148.967 326.869 151.57 334.746 153.398C342.764 155.227 350.642 156.141 358.378 156.141L362.176 159.306V175.342L358.378 177.452C351.064 177.452 343.468 176.468 335.59 174.498C327.854 172.388 320.398 169.505 313.224 165.847C306.05 162.19 299.58 157.9 293.812 152.976C288.186 147.912 283.684 142.426 280.308 136.518C277.073 130.61 275.455 124.421 275.455 117.95C275.455 110.354 277.003 103.602 280.097 97.6942C283.333 91.6455 287.764 86.9332 293.39 83.5572C299.017 80.0405 305.347 78.2822 312.38 78.2822C319.414 78.2822 325.673 80.0405 331.159 83.5572C336.786 87.0739 341.217 91.8565 344.452 97.9052C347.828 103.813 349.516 110.495 349.516 117.95C349.516 124.562 347.828 130.892 344.452 136.94C341.076 142.848 336.434 148.264 330.526 153.187C324.759 158.111 318.288 162.401 311.114 166.058C303.94 169.716 296.485 172.529 288.748 174.498C281.152 176.468 273.767 177.452 266.593 177.452ZM301.619 51.0632C297.259 52.0479 294.023 51.6962 291.913 50.0082C289.803 48.1795 288.748 45.5772 288.748 42.2012C288.748 39.2472 290.085 37.1372 292.757 35.8712C295.571 34.6052 299.087 33.6205 303.307 32.9172C307.949 31.9325 312.521 31.4402 317.022 31.4402C321.664 31.2995 325.744 31.3699 329.26 31.6512C331.511 31.7918 333.34 32.4952 334.746 33.7612C336.153 34.8865 337.067 36.2932 337.489 37.9812C337.911 39.6692 337.911 41.3572 337.489 43.0452C337.067 44.7332 336.153 46.1399 334.746 47.2652C333.34 48.3905 331.511 48.9532 329.26 48.9532C325.181 48.9532 320.68 49.0235 315.756 49.1642C310.833 49.3048 306.121 49.9379 301.619 51.0632Z" fill="white"/>
<path d="M358.288 177.452L354.49 175.131V159.306L358.288 156.141C365.743 156.141 371.44 153.961 375.379 149.6C379.317 145.24 381.568 138.769 382.131 130.188C382.693 123.436 383.045 116.825 383.186 110.354C383.467 103.743 383.678 96.5688 383.819 88.8322C383.959 81.0955 384.03 72.3038 384.03 62.4572C384.17 52.7512 384.241 44.2409 384.241 36.9262C384.241 29.6115 384.311 24.5475 384.452 21.7342C384.733 16.1075 387.546 13.2942 392.892 13.2942C395.846 13.2942 398.026 13.9272 399.433 15.1932C400.98 16.4592 401.754 18.4285 401.754 21.1012C401.754 27.1498 401.683 33.1985 401.543 39.2472C401.543 45.2958 401.472 50.9225 401.332 56.1272C401.332 61.3318 401.332 65.8332 401.332 69.6312C401.332 74.1325 401.261 79.4075 401.121 85.4562C401.121 91.3642 400.98 97.6942 400.699 104.446C400.558 111.058 400.206 117.739 399.644 124.491C399.222 131.243 398.659 137.573 397.956 143.481C396.83 150.093 394.65 156.001 391.415 161.205C388.179 166.269 383.819 170.278 378.333 173.232C372.987 176.046 366.306 177.452 358.288 177.452Z" fill="white"/>
<path d="M441.489 178.929C440.504 178.929 439.238 178.718 437.691 178.296C436.144 177.874 434.807 177.03 433.682 175.764C432.557 174.498 431.994 172.529 431.994 169.856C431.994 163.104 432.065 155.79 432.205 147.912C432.346 139.894 432.487 131.595 432.627 123.014C432.909 114.293 433.19 105.431 433.471 96.4282C433.753 87.4255 434.034 78.5635 434.315 69.8422C434.597 60.9802 434.878 52.4699 435.159 44.3112C435.441 36.0119 435.722 28.2752 436.003 21.1012C436.144 18.2878 437.058 16.2482 438.746 14.9822C440.575 13.7162 442.685 13.0832 445.076 13.0832C448.171 13.0832 450.422 13.9272 451.828 15.6152C453.235 17.3032 453.868 19.4132 453.727 21.9452C453.587 28.1345 453.376 34.9569 453.094 42.4122C452.813 49.7269 452.532 57.3932 452.25 65.4112C452.11 73.2885 451.899 81.3065 451.617 89.4652C451.195 103.813 450.844 117.599 450.562 130.821C450.422 143.903 450.211 156.634 449.929 169.012C449.929 170.56 449.648 172.107 449.085 173.654C448.523 175.202 447.608 176.468 446.342 177.452C445.217 178.437 443.599 178.929 441.489 178.929Z" fill="white"/>
<path d="M289.841 32.1182C288.575 31.2742 287.802 30.2192 287.52 28.9532C287.38 27.5465 287.591 26.2805 288.153 25.1552C288.716 24.0298 289.49 23.2562 290.474 22.8342C291.6 22.2715 292.866 22.4122 294.272 23.2562C296.945 24.9442 299.688 26.2102 302.501 27.0542C305.455 27.7575 308.269 28.1092 310.941 28.1092C313.755 28.1092 316.357 27.6872 318.748 26.8432C321.14 25.9992 323.039 24.8739 324.445 23.4672C321.913 23.7485 319.522 22.9749 317.271 21.1462C315.021 19.3175 313.895 16.6449 313.895 13.1282C313.895 10.0335 314.81 7.50152 316.638 5.53218C318.608 3.42219 321.069 2.36719 324.023 2.36719C327.54 2.36719 330.353 3.63319 332.463 6.16519C334.573 8.69718 335.628 12.0732 335.628 16.2932C335.628 20.6539 334.433 24.5222 332.041 27.8982C329.791 31.1335 326.696 33.6655 322.757 35.4942C318.959 37.3229 314.739 38.2372 310.097 38.2372C306.862 38.2372 303.486 37.7449 299.969 36.7602C296.453 35.7755 293.077 34.2282 289.841 32.1182Z" fill="#DDA15E"/>
<path d="M391.067 0C397.115 0 401.828 1.96933 405.204 5.908C408.72 9.84667 410.479 14.559 410.479 20.045C410.479 25.2497 408.791 29.6103 405.415 33.127C402.179 36.503 397.819 38.191 392.333 38.191C386.987 38.191 382.627 36.503 379.251 33.127C376.015 29.751 374.398 25.6717 374.398 20.889C374.398 16.1063 375.804 12.0973 378.618 8.862C381.572 5.486 385.44 3.798 390.223 3.798C391.348 3.798 392.262 4.22 392.966 5.06401C393.81 5.90801 394.302 6.96301 394.443 8.22901C394.583 9.35433 394.302 10.339 393.599 11.183C393.036 12.027 391.911 12.449 390.223 12.449C387.831 12.449 385.932 13.3633 384.526 15.192C383.26 16.88 382.627 18.6383 382.627 20.467C382.627 23.1397 383.541 25.32 385.37 27.008C387.198 28.5553 389.449 29.329 392.122 29.329C394.935 29.329 397.326 28.5553 399.296 27.008C401.265 25.32 402.25 22.999 402.25 20.045C402.25 17.2317 401.195 14.6997 399.085 12.449C397.115 10.0577 394.372 8.862 390.856 8.862C389.73 8.862 388.816 8.44 388.113 7.596C387.55 6.61134 387.269 5.55634 387.269 4.43101C387.269 3.30567 387.55 2.321 388.113 1.47701C388.816 0.492335 389.801 0 391.067 0Z" fill="#DDA15E"/>
<path d="M141.215 29.7522C142.481 29.4709 143.325 28.7675 143.747 27.6422C145.013 23.9849 146.56 21.3825 148.389 19.8352C150.217 18.2879 152.046 17.5142 153.875 17.5142C155.985 17.5142 158.095 18.2879 160.205 19.8352C162.315 21.3825 164.706 22.9298 167.379 24.4772C170.051 26.0245 173.216 26.7982 176.874 26.7982C180.531 26.7982 183.766 25.3212 186.58 22.3672C189.393 19.2725 192.136 14.7712 194.809 8.86319C195.231 7.73785 195.09 6.68286 194.387 5.69819C193.824 4.57286 192.91 3.72886 191.644 3.16619C190.518 2.60352 189.323 2.46285 188.057 2.74418C186.791 2.88485 185.806 3.72885 185.103 5.27618C183.274 8.37085 181.727 10.6215 180.461 12.0282C179.335 13.4349 177.788 14.1382 175.819 14.1382C173.427 14.1382 171.036 13.3645 168.645 11.8172C166.253 10.2698 163.792 8.79285 161.26 7.38618C158.868 5.83885 156.196 5.06519 153.242 5.06519C149.725 5.06519 146.419 6.33119 143.325 8.86319C140.23 11.2545 137.346 15.5449 134.674 21.7342C133.97 23.5629 133.97 25.1102 134.674 26.3762C135.236 27.6422 136.151 28.5565 137.417 29.1192C138.823 29.6819 140.089 29.8928 141.215 29.7522Z" fill="#DDA15E"/>
<path d="M146.012 359.452C143.058 359.452 139.893 358.96 136.517 357.975C133.282 356.85 130.117 355.091 127.022 352.7C123.927 350.309 121.114 347.144 118.582 343.205C116.05 339.266 114.01 334.413 112.463 328.646L123.435 318.729C124.842 322.386 126.67 325.692 128.921 328.646C131.312 331.6 133.915 333.921 136.728 335.609C139.682 337.297 142.777 338.141 146.012 338.141L149.81 341.095V356.92L146.012 359.452ZM15.403 448.494C12.5897 448.494 10.4093 447.65 8.862 445.962C7.31467 444.415 6.40033 442.234 6.119 439.421C5.697 431.122 5.13433 422.893 4.431 414.734C3.72767 406.575 3.02433 398.276 2.321 389.836C1.61767 381.537 1.055 372.886 0.633 363.883C0.211 355.021 0 345.737 0 336.031C0 320.136 2.46167 307.194 7.385 297.207C12.3083 287.22 19.9747 279.905 30.384 275.263C40.7933 270.48 54.227 268.089 70.685 268.089C81.9383 268.089 91.5037 270.129 99.381 274.208C107.258 278.287 113.307 283.984 117.527 291.299C121.747 298.614 123.857 307.194 123.857 317.041C123.857 326.184 122.099 334.202 118.582 341.095C115.206 347.847 110.423 353.122 104.234 356.92C98.0447 360.577 90.73 362.406 82.29 362.406C74.5533 362.406 67.6607 360.648 61.612 357.131C55.704 353.614 50.9917 348.761 47.475 342.572C44.099 336.383 42.411 329.349 42.411 321.472C42.411 314.017 43.888 307.335 46.842 301.427C49.9367 295.519 54.227 290.666 59.713 286.868C65.199 282.929 71.74 280.468 79.336 279.483L82.923 288.978C74.6237 291.651 68.4343 295.589 64.355 300.794C60.2757 305.999 58.236 311.836 58.236 318.307C58.236 323.09 59.291 327.38 61.401 331.178C63.511 334.976 66.465 338 70.263 340.251C74.061 342.502 78.3513 343.627 83.134 343.627C91.0113 343.627 97.1303 341.165 101.491 336.242C105.992 331.178 108.243 324.918 108.243 317.463C108.243 308.32 104.937 301.286 98.326 296.363C91.7147 291.299 82.29 288.767 70.052 288.767C57.392 288.767 47.264 290.314 39.668 293.409C32.072 296.504 26.5157 301.568 22.999 308.601C19.623 315.634 17.935 324.989 17.935 336.664C17.935 339.337 18.0053 343.346 18.146 348.691C18.4273 354.036 18.7087 360.155 18.99 367.048C19.412 373.941 19.834 381.115 20.256 388.57C20.678 396.025 21.1 403.129 21.522 409.881C21.944 416.633 22.366 422.541 22.788 427.605C23.21 432.669 23.5617 436.326 23.843 438.577C24.265 441.531 23.5617 443.922 21.733 445.751C20.045 447.58 17.935 448.494 15.403 448.494Z" fill="white"/>
<path d="M145.948 359.452V338.141C152.559 338.141 157.834 336.453 161.773 333.077C165.852 329.56 168.876 325.059 170.846 319.573C172.815 314.087 174.081 308.249 174.644 302.06C175.206 295.871 175.347 289.963 175.066 284.336C174.925 281.523 175.558 279.342 176.965 277.795C178.512 276.107 180.622 275.263 183.295 275.263C186.389 275.263 188.64 276.248 190.047 278.217C191.594 280.186 192.438 283.14 192.579 287.079C192.86 297.77 192.086 307.546 190.258 316.408C188.429 325.27 185.545 332.936 181.607 339.407C177.668 345.737 172.745 350.66 166.837 354.177C160.929 357.694 153.966 359.452 145.948 359.452ZM145.948 359.452L142.15 357.131V340.673L145.948 338.141V359.452ZM156.709 405.028C152.348 406.013 149.113 405.591 147.003 403.762C144.893 402.074 143.838 399.542 143.838 396.166C143.838 393.212 145.174 391.102 147.847 389.836C150.66 388.57 154.177 387.585 158.397 386.882C163.039 385.897 167.61 385.335 172.112 385.194C176.754 385.194 180.833 385.335 184.35 385.616C186.6 385.757 188.429 386.39 189.836 387.515C191.242 388.781 192.157 390.258 192.579 391.946C193.001 393.634 193.001 395.322 192.579 397.01C192.157 398.698 191.242 400.105 189.836 401.23C188.429 402.355 186.6 402.918 184.35 402.918C180.27 402.918 175.769 402.988 170.846 403.129C165.922 403.27 161.21 403.903 156.709 405.028Z" fill="white"/>
<path d="M214.411 402.285C212.301 402.285 210.683 401.511 209.558 399.964C208.292 398.557 207.518 396.799 207.237 394.689C206.815 392.579 206.815 390.469 207.237 388.359C207.659 386.249 208.432 384.491 209.558 383.084C210.683 381.677 212.09 380.974 213.778 380.974C221.936 381.396 228.829 380.552 234.456 378.442C240.223 376.332 244.865 373.167 248.382 368.947C251.898 364.868 254.571 360.015 256.4 354.388C258.369 348.621 259.635 342.291 260.198 335.398C260.901 328.365 261.182 321.05 261.042 313.454C260.901 309.937 261.745 307.476 263.574 306.069C265.402 304.522 267.442 303.748 269.693 303.748C271.803 303.748 273.631 304.381 275.179 305.647C276.867 306.913 277.711 308.671 277.711 310.922C277.711 315.564 278.344 319.995 279.61 324.215C280.876 328.294 283.056 331.67 286.151 334.343C289.386 336.875 293.676 338.141 299.022 338.141L302.82 341.095V356.92L299.022 359.452C293.817 359.452 289.034 358.045 284.674 355.232C280.454 352.419 277.148 349.043 274.757 345.104C273.491 357.905 270.044 368.595 264.418 377.176C258.932 385.897 251.898 392.368 243.318 396.588C234.737 400.808 225.101 402.707 214.411 402.285Z" fill="white"/>
<path d="M299.046 359.452L295.248 357.342V341.306L299.046 338.141C303.829 338.141 308.26 337.227 312.339 335.398C316.559 333.569 320.076 331.108 322.889 328.013C325.843 324.778 327.883 321.12 329.008 317.041C330.134 312.962 330.063 308.671 328.797 304.17L309.385 248.466C308.541 245.512 308.19 242.769 308.33 240.237C308.471 237.564 309.174 235.173 310.44 233.063C311.847 230.953 313.816 229.335 316.348 228.21C325.632 224.553 333.65 221.247 340.402 218.293C347.154 215.198 353.414 212.104 359.181 209.009C364.949 205.914 370.857 202.538 376.905 198.881C378.593 197.896 380.07 197.404 381.336 197.404C383.024 197.404 384.572 198.107 385.978 199.514C387.385 200.78 388.37 202.398 388.932 204.367C389.636 206.336 389.847 208.306 389.565 210.275C389.284 212.104 388.37 213.581 386.822 214.706C377.82 220.333 368.043 225.678 357.493 230.742C347.084 235.806 336.253 240.378 324.999 244.457L347.576 308.39C351.093 317.815 355.032 325.129 359.392 330.334C363.894 335.539 369.169 338.141 375.217 338.141L379.015 341.517V356.92L375.217 359.452C370.857 359.452 366.426 358.256 361.924 355.865C357.564 353.474 353.414 349.957 349.475 345.315C345.537 340.532 342.231 334.624 339.558 327.591C336.042 337.86 330.556 345.737 323.1 351.223C315.786 356.709 307.768 359.452 299.046 359.452Z" fill="white"/>
<path d="M375.287 359.452L371.489 357.131V341.306L375.287 338.141C382.742 338.141 388.439 335.961 392.378 331.6C396.316 327.239 398.567 320.769 399.13 312.188C399.692 305.436 400.044 298.825 400.185 292.354C400.466 285.743 400.677 278.569 400.818 270.832C400.958 263.095 401.029 254.304 401.029 244.457C401.169 234.751 401.24 226.241 401.24 218.926C401.24 211.611 401.31 206.547 401.451 203.734C401.732 198.107 404.545 195.294 409.891 195.294C412.845 195.294 415.025 195.927 416.432 197.193C417.979 198.459 418.753 200.428 418.753 203.101C418.753 209.15 418.682 215.198 418.542 221.247C418.542 227.296 418.471 232.922 418.331 238.127C418.331 243.332 418.331 247.833 418.331 251.631C418.331 256.132 418.26 261.407 418.12 267.456C418.12 273.364 417.979 279.694 417.698 286.446C417.557 293.057 417.205 299.739 416.643 306.491C416.221 313.243 415.658 319.573 414.955 325.481C413.829 332.092 411.649 338 408.414 343.205C405.178 348.269 400.818 352.278 395.332 355.232C389.986 358.045 383.305 359.452 375.287 359.452Z" fill="white"/>
<path d="M456.8 360.929C455.675 360.929 454.549 360.718 453.424 360.296C452.299 359.874 451.314 359.03 450.47 357.764C449.767 356.498 449.275 354.529 448.993 351.856C448.712 345.104 448.501 337.86 448.36 330.123C448.22 322.386 448.22 314.298 448.36 305.858C448.501 297.418 448.712 288.837 448.993 280.116C449.275 271.395 449.626 262.814 450.048 254.374C450.47 245.793 450.892 237.564 451.314 229.687C451.877 221.669 452.44 214.214 453.002 207.321C453.284 204.508 454.198 202.468 455.745 201.202C457.433 199.936 459.543 199.303 462.075 199.303C465.17 199.303 467.491 200.147 469.038 201.835C470.586 203.523 471.219 205.563 470.937 207.954C470.375 212.174 469.812 218.012 469.249 225.467C468.827 232.922 468.405 241.292 467.983 250.576C467.561 259.719 467.21 269.285 466.928 279.272C466.647 289.119 466.436 298.754 466.295 308.179C466.295 317.463 466.295 325.833 466.295 333.288C466.436 340.743 466.647 346.651 466.928 351.012C467.21 354.388 466.506 356.92 464.818 358.608C463.271 360.155 460.598 360.929 456.8 360.929Z" fill="white"/>
<path d="M213.247 411.359C220.983 411.078 228.79 409.741 236.668 407.35C244.545 405.099 251.086 402.567 256.291 399.754C257.697 399.051 259.034 398.98 260.3 399.543C261.566 400.106 262.55 401.02 263.254 402.286C263.957 403.693 264.168 405.099 263.887 406.506C263.605 407.913 262.691 409.038 261.144 409.882C257.486 412.133 253.055 414.172 247.851 416.001C242.646 417.97 237.16 419.518 231.393 420.643C225.766 421.909 220.28 422.612 214.935 422.753C213.247 422.753 211.91 422.19 210.926 421.065C209.941 420.08 209.378 418.814 209.238 417.267C209.097 415.86 209.308 414.524 209.871 413.258C210.574 412.133 211.699 411.5 213.247 411.359Z" fill="#DDA15E"/>
<path d="M48.0354 251.118C46.7694 250.274 45.9958 249.219 45.7144 247.953C45.5738 246.547 45.7848 245.281 46.3474 244.155C46.9101 243.03 47.6838 242.256 48.6684 241.834C49.7938 241.272 51.0598 241.412 52.4664 242.256C55.1391 243.944 57.8821 245.21 60.6954 246.054C63.6494 246.758 66.4628 247.109 69.1354 247.109C71.9488 247.109 74.5511 246.687 76.9424 245.843C79.3338 244.999 81.2328 243.874 82.6394 242.467C80.1074 242.749 77.7161 241.975 75.4654 240.146C73.2148 238.318 72.0894 235.645 72.0894 232.128C72.0894 229.034 73.0038 226.502 74.8324 224.532C76.8018 222.422 79.2634 221.367 82.2174 221.367C85.7341 221.367 88.5474 222.633 90.6574 225.165C92.7674 227.697 93.8224 231.073 93.8224 235.293C93.8224 239.654 92.6268 243.522 90.2354 246.898C87.9848 250.134 84.8901 252.666 80.9514 254.494C77.1534 256.323 72.9334 257.237 68.2914 257.237C65.0561 257.237 61.6801 256.745 58.1634 255.76C54.6468 254.776 51.2708 253.228 48.0354 251.118Z" fill="#DDA15E"/>
<path d="M317.26 197.898C324.997 197.617 332.804 196.351 340.681 194.1C348.558 191.709 355.099 189.106 360.304 186.293C361.711 185.59 363.047 185.519 364.313 186.082C365.579 186.645 366.564 187.629 367.267 189.036C367.97 190.302 368.181 191.638 367.9 193.045C367.619 194.452 366.704 195.577 365.157 196.421C361.5 198.672 357.069 200.782 351.864 202.751C346.659 204.58 341.173 206.127 335.406 207.393C329.779 208.518 324.293 209.151 318.948 209.292C317.26 209.292 315.924 208.8 314.939 207.815C313.954 206.69 313.392 205.424 313.251 204.017C313.11 202.47 313.321 201.133 313.884 200.008C314.587 198.742 315.713 198.039 317.26 197.898Z" fill="#DDA15E"/>
<path d="M408.066 182C414.114 182 418.827 183.969 422.203 187.908C425.719 191.847 427.478 196.559 427.478 202.045C427.478 207.25 425.79 211.61 422.414 215.127C419.178 218.503 414.818 220.191 409.332 220.191C403.986 220.191 399.626 218.503 396.25 215.127C393.014 211.751 391.397 207.672 391.397 202.889C391.397 198.106 392.803 194.097 395.617 190.862C398.571 187.486 402.439 185.798 407.222 185.798C408.347 185.798 409.261 186.22 409.965 187.064C410.809 187.908 411.301 188.963 411.442 190.229C411.582 191.354 411.301 192.339 410.598 193.183C410.035 194.027 408.91 194.449 407.222 194.449C404.83 194.449 402.931 195.363 401.525 197.192C400.259 198.88 399.626 200.638 399.626 202.467C399.626 205.14 400.54 207.32 402.369 209.008C404.197 210.555 406.448 211.329 409.121 211.329C411.934 211.329 414.325 210.555 416.295 209.008C418.264 207.32 419.249 204.999 419.249 202.045C419.249 199.232 418.194 196.7 416.084 194.449C414.114 192.058 411.371 190.862 407.855 190.862C406.729 190.862 405.815 190.44 405.112 189.596C404.549 188.611 404.268 187.556 404.268 186.431C404.268 185.306 404.549 184.321 405.112 183.477C405.815 182.492 406.8 182 408.066 182Z" fill="#DDA15E"/>
</svg>
