<svg width="165" height="189" viewBox="0 0 165 189" fill="none" xmlns="http://www.w3.org/2000/svg">
<path d="M106.767 183.972V183.973V183.972ZM83.3037 0.424759C85.022 -0.198424 87.1455 -0.136118 89.6748 0.613235C98.3961 3.2859 106.134 7.43579 112.886 13.0625C119.638 18.5484 125.335 25.0896 129.977 32.6855C134.618 40.1407 138.135 48.229 140.526 56.9501C143.058 65.6714 144.324 74.4633 144.324 83.3251C144.324 93.8684 142.847 103.756 139.894 112.986L139.404 112.996C137.284 113.046 135.119 113.122 132.909 113.222C129.974 113.354 126.949 113.514 123.835 113.702L123.825 113.703H123.816C122.382 113.798 120.925 113.901 119.444 114.012C122.948 105.675 124.701 95.587 124.701 83.747C124.701 76.4326 123.716 69.1884 121.747 62.0146C119.918 54.8408 117.105 48.1589 113.308 41.9697C109.51 35.7804 104.656 30.5051 98.748 26.1445C94.9501 23.3312 91.5038 21.0805 88.4092 19.3925C87.8046 19.0628 87.2242 18.733 86.668 18.4033C86.2138 18.4682 85.7392 18.5178 85.2441 18.5488C74.5535 18.5488 65.0581 20.3768 56.7588 24.0341C48.6003 27.5508 41.7779 32.545 36.292 39.0156C30.8061 45.3455 26.6561 52.731 23.8428 61.1709C21.0296 69.6107 19.623 78.6838 19.623 88.3896C19.6231 102.315 21.8738 113.85 26.375 122.993C30.8763 132.136 36.6444 138.96 43.6777 143.461C50.8515 147.962 58.166 150.213 65.6211 150.213C71.4438 150.213 77.4362 149.24 83.6006 147.304L85.5439 151.19L85.5752 151.247C87.6775 155.031 89.7808 158.886 91.8838 162.811L91.9053 162.852C92.105 163.212 92.3015 163.573 92.5 163.933C84.3592 166.741 75.4704 168.147 65.832 168.147C54.2975 168.147 44.3803 165.897 36.0811 161.395C27.7818 156.753 20.9596 150.634 15.6143 143.038C10.2691 135.442 6.32983 127.073 3.79785 117.93C1.26586 108.786 9.729e-06 99.572 0 90.288C3.91241e-05 79.3163 1.75886 68.5556 5.27539 58.0058C8.79205 47.3152 13.9267 37.6792 20.6787 29.0986C27.4307 20.3773 35.6593 13.4136 45.3652 8.20894C55.2118 3.00436 66.3949 0.402323 78.9141 0.402298H82.29C82.6345 0.402298 82.9724 0.41158 83.3037 0.424759ZM96.0977 164.243L97.6406 167.092C97.1308 166.142 96.6163 165.193 96.0977 164.244L94.5283 161.395C95.0557 162.345 95.5791 163.294 96.0977 164.243ZM112.719 129.899C113.2 130.638 113.644 131.351 114.049 132.035L114.065 132.062L114.082 132.089C114.959 133.501 115.783 134.965 116.554 136.479L118.522 140.156C118.433 140.253 118.342 140.349 118.252 140.446C116.1 142.775 114.232 145.053 112.659 147.278C112.433 147.598 112.225 147.939 112.046 148.298C110.82 146.054 109.595 143.836 108.369 141.646C107.26 139.429 106.149 137.238 105.04 135.071C106.624 133.624 108.128 132.066 109.55 130.394C110.584 130.235 111.64 130.07 112.719 129.899ZM128.022 134.729V134.73C127.965 134.621 127.913 134.522 127.869 134.433L127.857 134.406C127.904 134.502 127.959 134.61 128.022 134.729ZM129.027 129.542C128.831 129.14 128.63 128.746 128.423 128.359C128.322 128.171 128.219 127.987 128.118 127.804C129.09 127.696 130.072 127.594 131.064 127.5C130.4 128.173 129.72 128.853 129.027 129.542ZM123.404 125.815L123.712 126.271C123.569 126.055 123.425 125.846 123.284 125.644C123.324 125.7 123.364 125.757 123.404 125.815ZM123.168 125.477C123.145 125.444 123.121 125.414 123.099 125.382C123.1 125.382 123.101 125.381 123.102 125.381C123.124 125.412 123.145 125.445 123.168 125.477ZM107.006 184.418C106.974 184.361 106.94 184.305 106.909 184.247C106.94 184.305 106.974 184.361 107.006 184.418Z" fill="white"/>
<path d="M77.0152 125.947C76.0306 123.415 76.4526 120.954 78.2812 118.562C80.1099 116.03 82.5716 114.694 85.6662 114.553C87.6356 114.272 89.1829 114.483 90.3082 115.186C91.5742 115.749 92.6292 116.593 93.4732 117.718C94.3172 118.844 95.0206 120.18 95.5832 121.727C96.9899 125.244 98.5373 128.761 100.225 132.277C102.054 135.794 103.883 139.381 105.711 143.038C107.681 146.555 109.65 150.142 111.619 153.799C113.729 157.316 115.699 160.833 117.527 164.349C119.497 167.866 121.396 171.453 123.224 175.11C124.772 178.627 124.772 181.651 123.224 184.183C121.677 186.715 119.215 188.122 115.839 188.403C113.87 188.685 112.041 188.403 110.353 187.559C108.806 186.856 107.61 185.66 106.766 183.972C104.797 180.315 102.757 176.587 100.647 172.789C98.6779 168.991 96.6382 165.193 94.5282 161.395C92.4182 157.457 90.3082 153.588 88.1982 149.79C86.2289 145.852 84.2596 141.913 82.2902 137.974C80.4616 133.895 78.7032 129.886 77.0152 125.947Z" fill="#DDA15E"/>
<path d="M105.25 128.012C104.111 128.243 103.118 128.08 102.272 127.523C101.411 127.015 100.559 125.976 99.7179 124.406C99.0168 123.097 98.7877 122.04 99.0309 121.236C99.274 120.432 99.6901 119.872 100.279 119.557C100.901 119.224 101.575 118.989 102.302 118.852C103.029 118.715 103.765 118.595 104.509 118.491C107.952 118.079 111.297 117.719 114.544 117.412C117.808 117.137 120.965 116.899 124.015 116.697C127.116 116.51 130.126 116.35 133.045 116.219C135.964 116.087 138.802 115.998 141.558 115.954C143.084 115.895 144.328 116.134 145.29 116.671C146.302 117.224 147.106 118.057 147.702 119.169C148.456 120.577 148.817 121.92 148.787 123.2C148.757 124.479 148.371 125.528 147.63 126.346C147.438 126.617 146.785 127.325 145.672 128.469C144.608 129.628 143.246 131.095 141.585 132.869C139.957 134.626 138.192 136.519 136.289 138.549C134.404 140.611 132.544 142.682 130.709 144.759C128.907 146.82 127.258 148.735 125.763 150.504C124.286 152.306 123.157 153.774 122.375 154.909C122.153 155.281 121.848 155.655 121.46 156.031C121.122 156.423 120.822 156.688 120.56 156.829C119.84 157.214 118.975 157.172 117.966 156.702C116.941 156.283 116.078 155.418 115.377 154.11C114.903 153.226 114.588 152.363 114.432 151.52C114.26 150.728 114.486 149.891 115.109 149.01C116.594 146.909 118.376 144.733 120.456 142.482C122.535 140.231 124.689 138.003 126.919 135.798C129.199 133.608 131.349 131.488 133.367 129.438C135.403 127.421 137.137 125.587 138.569 123.936C134.274 124.173 130.148 124.53 126.192 125.006C122.269 125.465 118.554 125.96 115.048 126.491C111.56 127.054 108.294 127.561 105.25 128.012ZM113.481 125.688C113.185 125.214 113.274 124.514 113.746 123.588C114.251 122.643 114.978 121.917 115.927 121.409C116.712 120.988 117.456 120.884 118.16 121.097C118.914 121.325 119.588 121.679 120.183 122.161C120.828 122.658 121.349 123.158 121.745 123.661C122.379 124.374 123.035 125.244 123.712 126.272C124.388 127.299 125.077 128.467 125.778 129.776C126.497 131.118 127.153 132.578 127.745 134.155C127.87 134.467 128.159 135.007 128.613 135.775C129.116 136.558 129.655 137.407 130.229 138.321C130.853 139.25 131.433 140.097 131.97 140.863C132.523 141.661 132.913 142.231 133.139 142.574C133.728 143.437 133.909 144.287 133.684 145.124C133.508 145.976 132.914 146.674 131.899 147.217C130.983 147.708 130.039 147.793 129.066 147.471C128.094 147.15 127.131 146.571 126.177 145.734C125.274 144.912 124.451 144.005 123.709 143.013C123.017 142.036 122.452 141.139 122.014 140.32C121.015 138.455 120.086 136.721 119.227 135.117C118.418 133.529 117.553 131.992 116.631 130.507C115.742 129.004 114.692 127.397 113.481 125.688Z" fill="#DDA15E"/>
<path d="M157.028 145.071C158.012 144.628 158.911 144.694 159.724 145.269C160.538 145.844 161.225 146.655 161.786 147.702C162.505 149.044 162.862 150.222 162.857 151.235C162.852 152.248 162.3 152.986 161.2 153.449C155.588 155.865 149.872 158.443 144.053 161.181C138.267 163.901 132.632 166.667 127.147 169.479C126.115 169.99 125.191 169.916 124.375 169.258C123.545 168.65 122.805 167.741 122.156 166.53C121.56 165.418 121.265 164.355 121.269 163.341C121.259 162.378 121.868 161.589 123.096 160.973C128.384 158.267 133.922 155.553 139.708 152.833C145.494 150.112 151.268 147.525 157.028 145.071Z" fill="#DDA15E"/>
</svg>
