<?xml version="1.0" encoding="UTF-8"?>
<!-- Generator: Adobe Illustrator 25.0.0, SVG Export Plug-In . SVG Version: 6.00 Build 0)  -->
<svg xmlns="http://www.w3.org/2000/svg" xmlns:xlink="http://www.w3.org/1999/xlink" version="1.1" id="Capa_1" x="0px" y="0px" viewBox="0 0 512 512" style="enable-background:new 0 0 512 512;" xml:space="preserve" width="512" height="512">
<g>
	<path d="M448,85.333h-66.133C371.66,35.703,328.002,0.064,277.333,0h-42.667c-50.669,0.064-94.327,35.703-104.533,85.333H64   c-11.782,0-21.333,9.551-21.333,21.333S52.218,128,64,128h21.333v277.333C85.404,464.214,133.119,511.93,192,512h128   c58.881-0.07,106.596-47.786,106.667-106.667V128H448c11.782,0,21.333-9.551,21.333-21.333S459.782,85.333,448,85.333z    M234.667,362.667c0,11.782-9.551,21.333-21.333,21.333C201.551,384,192,374.449,192,362.667v-128   c0-11.782,9.551-21.333,21.333-21.333c11.782,0,21.333,9.551,21.333,21.333V362.667z M320,362.667   c0,11.782-9.551,21.333-21.333,21.333c-11.782,0-21.333-9.551-21.333-21.333v-128c0-11.782,9.551-21.333,21.333-21.333   c11.782,0,21.333,9.551,21.333,21.333V362.667z M174.315,85.333c9.074-25.551,33.238-42.634,60.352-42.667h42.667   c27.114,0.033,51.278,17.116,60.352,42.667H174.315z"/>
</g>















</svg>
