<svg width="39" height="39" viewBox="0 0 39 39" fill="none" xmlns="http://www.w3.org/2000/svg">
<path d="M37.375 19.4903C37.3587 16.7132 35.9352 15.0443 33.1451 14.5325C32.968 14.1961 32.7714 13.8565 32.5536 13.5185C34.2713 11.1346 34.1234 8.90671 32.1132 6.89658C30.1031 4.88321 27.872 4.73046 25.5044 6.45458C25.1647 6.24171 24.8267 6.04671 24.492 5.87608C23.9866 3.09571 22.2609 1.62671 19.5 1.62671C16.7391 1.62671 15.0117 3.09571 14.5047 5.87283C14.1716 6.04833 13.8336 6.24333 13.507 6.45458C11.1231 4.73208 8.89525 4.87996 6.8835 6.89821C4.87663 8.90671 4.72875 11.1346 6.44475 13.5103C6.23025 13.8532 6.03363 14.1928 5.85813 14.5308C3.06475 15.0427 1.63962 16.7132 1.625 19.4903V19.5098C1.64125 22.287 3.06475 23.9558 5.85488 24.471C6.03362 24.8073 6.23025 25.147 6.44475 25.4817C4.72875 27.8656 4.87663 30.0935 6.8835 32.1036C8.89687 34.117 11.1231 34.2681 13.4956 32.5456C13.8336 32.7585 14.1716 32.9518 14.5064 33.1241C15.0118 35.9045 16.7391 37.3735 19.5 37.3735C22.2609 37.3735 23.9883 35.9045 24.4904 33.129C24.8267 32.9535 25.1648 32.7568 25.4914 32.5456C27.8736 34.2665 30.1031 34.1153 32.1132 32.1036C34.1217 30.0935 34.2696 27.8656 32.5569 25.485C32.7698 25.1437 32.9664 24.8041 33.1386 24.4693C35.9336 23.9575 37.3571 22.287 37.3717 19.492L37.375 19.4903ZM14.625 11.3751C14.625 10.4765 15.353 9.75008 16.25 9.75008C17.147 9.75008 17.875 10.4765 17.875 11.3751V14.6251C17.875 15.5237 17.147 16.2501 16.25 16.2501C15.353 16.2501 14.625 15.5237 14.625 14.6251V11.3751ZM17.875 24.8805V27.6251C17.875 28.5221 17.1486 29.2501 16.2516 29.2501C15.3546 29.2501 14.6266 28.5237 14.6266 27.6251V24.8788C13.6663 24.4628 13.0293 23.5788 12.9984 21.9376C13.0406 19.5261 14.4186 18.699 16.25 18.6876C18.0749 18.699 19.461 19.5765 19.5016 21.9376C19.4708 23.5837 18.837 24.4661 17.8766 24.8805H17.875ZM24.375 27.6251C24.375 28.5237 23.6486 29.2501 22.75 29.2501C21.8514 29.2501 21.125 28.5237 21.125 27.6251V24.3751C21.125 23.4765 21.8514 22.7501 22.75 22.7501C23.6486 22.7501 24.375 23.4765 24.375 24.3751V27.6251ZM22.7516 20.3126C20.9268 20.3012 19.5406 19.4237 19.5 17.0626C19.5309 15.4165 20.1646 14.5341 21.125 14.1197V11.3751C21.125 10.4781 21.8514 9.75008 22.75 9.75008C23.6486 9.75008 24.375 10.4765 24.375 11.3751V14.1213C25.3354 14.5373 25.9724 15.4213 26.0033 17.0626C25.961 19.4741 24.583 20.3012 22.7516 20.3126Z" fill="#283618"/>
</svg>
