<?xml version="1.0" encoding="UTF-8"?>
<svg xmlns="http://www.w3.org/2000/svg" id="Layer_1" data-name="Layer 1" viewBox="0 0 24 24" width="512" height="512"><path d="m15,17c0-.551.448-1,1-1s1,.449,1,1-.448,1-1,1-1-.449-1-1Zm-8-6c-.552,0-1,.449-1,1s.448,1,1,1,1-.449,1-1-.448-1-1-1Zm9-3c.552,0,1-.449,1-1s-.448-1-1-1-1,.449-1,1,.448,1,1,1Zm8-3v14c0,2.757-2.243,5-5,5H5c-2.757,0-5-2.243-5-5V5C0,2.243,2.243,0,5,0h14c2.757,0,5,2.243,5,5Zm-14.042,6.5l4.057-2.254c.529.468,1.224.753,1.985.753,1.654,0,3-1.346,3-3s-1.346-3-3-3-3,1.346-3,3c0,.17.015.337.042.5l-4.057,2.254c-.529-.468-1.224-.753-1.985-.753-1.654,0-3,1.346-3,3s1.346,3,3,3c.761,0,1.456-.285,1.985-.753l4.057,2.254c-.027.163-.042.329-.042.5,0,1.654,1.346,3,3,3s3-1.346,3-3-1.346-3-3-3c-.761,0-1.456.285-1.985.753l-4.057-2.254c.027-.163.042-.329.042-.5s-.015-.337-.042-.5Z"/></svg>
