<svg width="35" height="35" viewBox="0 0 35 35" fill="none" xmlns="http://www.w3.org/2000/svg">
<path d="M22.4934 25.0952L3.64585 25.0952C2.43835 25.0952 1.45835 26.0738 1.45835 27.2827C1.45835 28.4917 2.43835 29.4702 3.64585 29.4702L22.4934 29.4702C23.7009 29.4702 24.6809 28.4917 24.6809 27.2827C24.6809 26.0738 23.7009 25.0952 22.4934 25.0952Z" fill="#283618"/>
<path d="M3.64585 19.6875L22.4934 19.6875C23.7009 19.6875 24.6809 18.709 24.6809 17.5C24.6809 16.291 23.7009 15.3125 22.4934 15.3125L3.64585 15.3125C2.43835 15.3125 1.45835 16.291 1.45835 17.5C1.45835 18.709 2.43835 19.6875 3.64585 19.6875Z" fill="#283618"/>
<path d="M30.4252 30.4194C32.4042 30.4194 33.5417 29.2761 33.5417 27.2826C33.5417 25.289 32.4056 24.1442 30.4252 24.1442C28.4448 24.1442 27.3087 25.2876 27.3087 27.2826C27.3087 29.2776 28.4448 30.4194 30.4252 30.4194Z" fill="#283618"/>
<path d="M30.4252 14.3615C28.704 14.3615 27.3087 15.7666 27.3087 17.4998C27.3087 19.2331 28.704 20.6382 30.4252 20.6382C32.1464 20.6382 33.5417 19.2331 33.5417 17.4999C33.5417 15.7666 32.1464 14.3615 30.4252 14.3615Z" fill="#283618"/>
<path d="M30.4252 10.856C32.4042 10.856 33.5417 9.71262 33.5417 7.71762C33.5417 5.72262 32.4056 4.58075 30.4252 4.58075C28.4448 4.58075 27.3087 5.72408 27.3087 7.71762C27.3087 9.71116 28.4448 10.856 30.4252 10.856Z" fill="#283618"/>
<path d="M3.64585 9.90478L22.4934 9.90478C23.7009 9.90479 24.6809 8.92624 24.6809 7.71729C24.6809 6.50833 23.7009 5.52979 22.4934 5.52979L3.64585 5.52978C2.43835 5.52978 1.45835 6.50833 1.45835 7.71728C1.45835 8.92624 2.43835 9.90478 3.64585 9.90478Z" fill="#283618"/>
</svg>
