<svg width="600" height="759" viewBox="0 0 600 759" fill="none" xmlns="http://www.w3.org/2000/svg">
<path d="M300 734.586C266.23 734.586 233.843 721.171 209.964 697.293L209.962 697.291L46.2921 533.536L46.293 533.536C42.3936 529.635 39.3001 525.004 37.1905 519.907C35.081 514.811 33.9959 509.349 33.9972 503.833C33.9985 498.317 35.0863 492.855 37.1983 487.76C39.3104 482.664 42.4056 478.035 46.3067 474.136C50.2079 470.236 54.8391 467.144 59.9356 465.034C65.0321 462.925 70.494 461.839 76.0098 461.84C81.5257 461.841 86.9876 462.929 92.0831 465.041C97.1785 467.153 101.808 470.248 105.707 474.149L105.708 474.15L269.355 637.903L270.118 638.648C273.978 642.324 278.485 645.258 283.414 647.3C288.672 649.478 294.308 650.6 300 650.6C305.692 650.6 311.328 649.478 316.586 647.3C321.515 645.258 326.022 642.324 329.882 638.648L330.646 637.903L494.293 474.236L494.292 474.235C500.159 468.365 507.634 464.364 515.774 462.738C523.913 461.113 532.351 461.935 540.024 465.102C547.696 468.268 554.258 473.636 558.881 480.529C563.504 487.422 565.982 495.531 566 503.831L566 503.834C566.011 509.354 564.929 514.822 562.816 519.923C560.704 525.023 557.604 529.656 553.692 533.552L390.038 697.291L390.036 697.293C366.157 721.171 333.77 734.586 300 734.586Z" fill="black" stroke="black" stroke-width="20"/>
<path d="M300 548.481C277.557 548.481 256.03 539.582 240.139 523.734L240.131 523.727L46.296 329.998L46.1944 329.896L46.0958 329.792C38.5858 321.841 34.4732 311.274 34.6329 300.339C34.7927 289.403 39.2122 278.96 46.9513 271.232C54.6902 263.504 65.1385 259.1 76.0743 258.956C87.0103 258.812 97.5716 262.939 105.512 270.46L105.61 270.554L105.706 270.649L299.518 464.482L299.619 464.565C299.728 464.638 299.857 464.678 299.989 464.678C300.166 464.678 300.336 464.607 300.461 464.482L494.294 270.649C500.166 264.775 507.648 260.772 515.794 259.149C523.941 257.526 532.387 258.356 540.063 261.533C547.738 264.71 554.299 270.092 558.916 276.998C563.533 283.904 565.998 292.024 566 300.331L565.999 300.332C566.001 305.847 564.918 311.309 562.81 316.405C560.701 321.503 557.608 326.135 553.708 330.037L553.703 330.042L359.868 523.728L359.861 523.734C343.97 539.582 322.443 548.481 300 548.481Z" fill="black" stroke="black" stroke-width="20"/>
<path d="M300 338.481C277.557 338.481 256.03 329.582 240.139 313.734L240.131 313.727L46.296 119.998L46.1944 119.896L46.0958 119.792C38.5858 111.841 34.4732 101.274 34.6329 90.3388C34.7927 79.4031 39.2122 68.9605 46.9513 61.2324C54.6902 53.5045 65.1385 49.1004 76.0743 48.956C87.0103 48.8117 97.5716 52.9387 105.512 60.4599L105.61 60.5537L105.706 60.6494L299.518 254.482L299.619 254.565C299.728 254.638 299.857 254.678 299.989 254.678C300.166 254.678 300.336 254.607 300.461 254.482L494.294 60.6494C500.166 54.7745 507.648 50.7723 515.794 49.1494C523.941 47.5264 532.387 48.3562 540.063 51.5332C547.738 54.7102 554.299 60.092 558.916 66.998C563.533 73.904 565.998 82.0239 566 90.3311L565.999 90.332C566.001 95.8473 564.918 101.309 562.81 106.405C560.701 111.503 557.608 116.135 553.708 120.037L553.703 120.042L359.868 313.728L359.861 313.734C343.97 329.582 322.443 338.481 300 338.481Z" fill="black" stroke="black" stroke-width="20"/>
</svg>
