<svg width="120" height="237" viewBox="0 0 120 237" fill="none" xmlns="http://www.w3.org/2000/svg">
<path d="M58.6963 135.778C64.6799 141.934 73.0281 141.08 73.0976 141.072C67.6642 175.262 95.9453 173.301 96.0801 173.291C96.9241 179.787 99.4637 185.063 102.468 189.21C98.5007 192.888 95.4374 193.776 95.4228 193.78C98.0633 190.626 97.6672 184.319 92.6504 184.319C87.7653 184.319 87.7651 190.626 81.956 190.626C70.2055 190.626 64 179.116 64 179.116C64 179.116 70.2053 200.245 89.0849 200.245C95.3313 200.245 100.565 196.878 104.788 192.111C110.27 198.334 116.232 201.225 116.273 201.245L116.784 200.637C116.753 200.834 116.718 201.043 116.677 201.264C116.374 202.892 115.796 205.105 114.702 207.441C112.533 212.071 108.345 217.202 100.07 219.31L99.9892 219.33L99.9111 219.357C95.1379 221.003 90.3179 219.284 85.999 216.415C82.603 214.159 79.8455 211.426 77.9248 209.523C77.3964 208.999 76.9309 208.538 76.5332 208.167C74.7957 206.545 71.9689 204.167 69.6113 202.221C68.4252 201.242 67.3457 200.362 66.5625 199.727C66.1708 199.409 65.8528 199.152 65.6328 198.975L65.3789 198.771L65.3603 198.756C65.3586 198.754 65.3562 198.752 65.3545 198.751C65.2998 198.7 65.2272 198.633 65.1367 198.556C64.956 198.402 64.7018 198.201 64.3808 197.984C63.7438 197.555 62.8092 197.045 61.6299 196.743C59.141 196.104 55.9306 196.491 52.6006 199.532C49.7764 202.111 45.4519 205.839 41.8164 208.936C40.0022 210.481 38.3656 211.865 37.1826 212.861C36.5915 213.36 36.114 213.761 35.7842 214.038L35.4043 214.357L35.3057 214.439L35.2812 214.46L35.2744 214.465L35.2734 214.467L35.1699 214.553L35.0849 214.647L35.083 214.648L35.0801 214.651L35.0791 214.653C35.0714 214.661 35.0556 214.677 35.0332 214.7C34.988 214.746 34.9129 214.821 34.8096 214.919C34.6025 215.115 34.2812 215.404 33.8516 215.744C32.9904 216.426 31.7061 217.305 30.0439 218.066C26.747 219.577 21.9276 220.649 15.8301 218.74L15.7451 218.713L15.6582 218.694C10.6589 217.604 7.26505 213.716 5.06054 209.343C3.47542 206.197 2.6214 203.019 2.25389 200.951C3.8281 200.075 8.55405 197.209 12.9687 192.149C17.1133 196.897 22.2494 200.245 28.3789 200.245C46.7799 200.245 53 179.116 53 179.116C53 179.116 46.7801 190.785 35.3769 190.785C29.6753 190.785 29.6748 184.478 24.751 184.478C19.9564 184.478 19.5675 190.786 22.1592 193.938C22.1592 193.938 19.1285 193.024 15.2178 189.316C18.2293 185.142 20.7758 179.826 21.5791 173.291C21.6509 173.296 49.7301 175.299 44.4736 140.913C44.4736 140.913 52.7479 141.866 58.6963 135.778ZM116.994 170.787L116.998 191.119L117 196.769V198.491C115.14 197.133 111.003 193.838 107.294 188.968C112.235 182.125 115.469 173.608 116.993 167.726C116.993 168.766 116.994 169.787 116.994 170.787ZM2.01268 171.372C3.73648 176.829 6.56215 183.458 10.4873 188.987C7.42438 193.05 4.08505 196.024 2.01659 197.681C1.99635 194.188 1.99754 185.754 2.00487 177.59C2.00678 175.465 2.01021 173.362 2.01268 171.372ZM33.25 101.963C34.7288 103.339 36.211 105.331 37.3623 108.221C40.9492 117.223 52.7724 119.276 52.7724 119.276C52.9651 124.217 53.9523 128.046 55.3935 131.012C52.7881 133.68 49.338 135.46 45.3545 136.051C41.6334 135.144 23.0499 129.713 21.4023 111.245L18 114.562C19.3318 122.601 22.9848 127.674 27.2285 130.87C24.7011 129.819 22.6941 129.863 21.1846 133.017C16.974 141.704 38.1582 142.652 38.1582 155.76C38.158 168.997 17.7205 167.925 17.6318 167.92C17.98 175.084 15.5446 181.3 12.3818 186.261C8.75019 181.849 4.83318 175.027 2.0205 164.579C2.02054 164.55 2.02143 164.522 2.02147 164.493C2.02418 162.732 2.02655 161.273 2.02831 160.255L2.03026 159.075V158.765L2.03124 158.686V158.661L2.11522 134.53C5.40816 127.207 14.5254 110.849 33.25 101.963ZM83.5254 102.203C104.5 111.747 114.04 129.208 116.984 135.714C116.987 145.217 116.99 154.2 116.992 162.245H116.548C113.604 174.008 109.299 181.48 105.344 186.18C102.194 181.248 99.8016 175.071 100.199 167.92C100.199 167.92 79.4748 169.026 79.4746 155.76C79.4746 142.652 100.863 141.861 96.6123 133.175C94.9625 129.761 92.7231 129.957 89.8672 131.239C94.4818 128.069 98.5253 122.918 100 114.562L96.4932 111.245C94.8244 129.39 76.1957 134.951 71.8857 136C67.9756 135.359 64.5902 133.586 62.0244 130.962C63.4434 128.011 64.4153 124.199 64.6055 119.276C64.6673 119.265 76.1932 117.199 79.7363 108.221C80.8029 105.518 82.1566 103.586 83.5254 102.203ZM35.2344 134.862C38.5753 135.878 41.6429 136.166 43.6416 136.229C42.5893 136.292 41.5052 136.277 40.3945 136.176C38.5578 136.02 36.8391 135.514 35.2344 134.862ZM83.6152 134.376C81.6636 135.253 79.532 135.982 77.2158 136.176C76.0294 136.283 74.8731 136.294 73.7529 136.217C76.1268 136.122 79.7702 135.726 83.6152 134.376ZM116.978 107.603C116.98 114.499 116.981 121.337 116.982 127.984C114.651 123.574 111.116 118.201 105.909 113.017C107.735 111.22 111.02 107.24 114 99.7041C110.731 91.4359 106.728 86.3995 104.863 84.334C110.632 78.4526 114.479 72.2699 116.964 67.25C116.968 80.2638 116.974 94.0472 116.978 107.603ZM2.34569 68.6455C4.51914 73.1561 7.6697 78.4339 12.1377 83.5303C10.8796 84.542 6.70447 88.4171 2.99999 97.7861C6.17084 105.805 10.0319 110.785 11.9629 112.962C7.44676 117.785 4.29301 122.768 2.14159 126.982L2.34569 68.6455ZM58.7285 71.3193C60.1452 74.3486 60.8124 77.9217 60.5264 81.8457C60.5264 81.8457 73.157 84.0571 75.7891 89.9004C77.0468 92.776 78.7145 94.8659 80.1572 96.29C79.7748 96.4484 79.3894 96.6053 79 96.7578L79.2422 98.6553L79 100.34C79.4996 100.525 79.9933 100.714 80.4814 100.908C78.9697 102.352 77.1423 104.576 75.7891 107.747C73.1602 113.426 60.5561 115.638 60.5264 115.644C60.8132 119.579 60.1417 123.161 58.7168 126.196C57.2782 123.161 56.601 119.579 56.8906 115.644C56.884 115.642 44.0042 113.432 41.4805 107.747C39.9277 104.307 37.8497 102.026 36.2432 100.644C36.4939 100.541 36.7461 100.44 37 100.34L36.7793 98.6914L37 96.9238C36.8692 96.8687 36.7393 96.8118 36.6094 96.7559C38.156 95.3122 40.0436 93.0839 41.4805 89.9004C44.0049 84.0571 56.8906 82.0039 56.8906 82.0039C56.6002 78.0085 57.2816 74.3828 58.7285 71.3193ZM101.763 87.291C103.471 88.9155 107.615 93.3324 109.711 99.7041C107.887 105.142 104.819 108.654 103.047 110.344C98.6317 106.473 93.2028 102.825 86.5508 99.9102C88.504 98.8512 90 98.7451 90 98.7451C89.996 98.7448 88.3891 98.6288 86.332 97.457C92.4503 94.5829 97.5399 91.0549 101.763 87.291ZM14.7353 86.3125C18.9458 90.5514 24.1481 94.5345 30.5547 97.6787C28.552 98.7892 27.0081 98.9018 27 98.9023C27 98.9023 28.3362 98.9667 30.1367 99.8252C24.0484 102.66 19.0608 106.196 14.9883 109.958C13.1258 108.142 9.16215 103.771 7.15429 97.7861C9.35962 91.0813 13.3796 87.4051 14.7353 86.3125ZM4.56151 2C9.99016 6.9968 18.2538 16.769 17.6318 29.5693C17.7237 29.5645 38.1582 28.4938 38.1582 41.7305C38.1582 54.9969 16.9744 55.7865 21.1846 64.4727C22.7111 67.6623 24.7466 67.6715 27.3144 66.584C23.0338 69.7586 19.3409 74.7995 18 82.791L21.4023 86.2451C23.0465 67.7841 41.5567 62.3537 45.331 61.4346C49.3378 62.0238 52.8063 63.8167 55.4199 66.5049C53.9645 69.4576 52.9663 73.2762 52.7724 78.2139C52.7724 78.2139 40.9493 80.4245 37.3623 89.2686C36.2966 91.99 34.9464 93.9423 33.5791 95.3457C15.1047 86.0856 5.89128 69.0143 2.37304 60.8408L2.58007 2H4.56151ZM116.933 2C116.943 10.8754 116.953 32.8361 116.962 59.0146C113.976 66.071 104.345 84.8758 83.1933 94.9414C81.9394 93.5868 80.7167 91.7529 79.7363 89.2686C76.1935 80.2921 64.6707 78.2255 64.6055 78.2139C64.4147 73.3077 63.4372 69.5064 62.0107 66.5615C64.5811 63.9132 67.9768 62.1298 71.8994 61.4883C76.2344 62.5676 94.8261 68.2265 96.4932 86.2451L100 82.9482C98.532 74.68 94.519 69.5485 89.9307 66.3682C92.7564 67.6607 94.9748 67.8615 96.6123 64.4727C100.862 55.7868 79.4746 54.9968 79.4746 41.7305C79.4746 28.6219 100.199 29.5693 100.199 29.5693C99.4757 16.6665 107.989 6.91289 113.497 2H116.933ZM73.6807 61.2783C74.8233 61.1953 76.0038 61.2049 77.2158 61.3145C79.6527 61.5185 81.8854 62.3246 83.9189 63.2783C79.9237 61.8118 76.1141 61.3848 73.6807 61.2783ZM40.3945 61.3145C41.5254 61.2112 42.6289 61.1958 43.6992 61.2637C41.6295 61.336 38.3809 61.6546 34.8652 62.7793C36.5745 62.0537 38.4164 61.4817 40.3945 61.3145ZM108.208 2C103.19 6.5531 97.4392 13.8982 96.0801 24.3574C95.9442 24.3478 67.6641 22.3868 73.0976 56.5762C73.0299 56.5691 64.6995 55.7144 58.7168 61.8018C52.7738 55.697 44.4926 56.5742 44.4736 56.5762C49.7297 22.192 21.6532 24.3517 21.5791 24.3574C20.3038 13.898 14.6406 6.55307 9.68554 2H108.208Z" fill="#FEFAE0"/>
<path d="M97.2076 191.971C97.2076 191.971 89.7893 190.441 86.4639 193.961C86.4639 193.961 87.7429 197.176 85.4407 198.247C83.1385 199.318 82.1153 197.023 82.2432 195.492C82.2432 195.492 74.4412 195.338 69.4531 207.584C68.0462 210.951 67.4066 212.941 65.4881 212.329C63.5696 211.716 63.6975 207.277 66.895 203.604C69.9647 199.931 65.616 197.482 65.616 197.482C65.616 197.482 64.8486 189.675 61.2674 183.553C58.9652 179.727 60.8837 178.196 62.1627 178.044C63.3138 177.737 64.0812 179.114 64.0812 180.186C64.0812 181.258 62.4185 181.87 62.4185 181.87C62.4185 181.87 64.9765 185.39 66.2555 188.604C67.2787 191.665 67.5345 194.268 67.5345 195.186C67.5345 195.186 70.86 195.338 71.1158 199.931C71.1158 199.931 74.1854 195.645 75.976 195.033C75.976 195.033 74.697 192.43 77.3829 191.512C79.5572 190.9 80.0688 192.737 80.0688 192.737C80.0688 192.737 86.4639 188.145 97.2076 191.971Z" fill="#CDAD80"/>
<path d="M59.2209 217.38C59.6046 218.758 59.9883 220.441 63.3137 221.359C67.0229 222.431 69.453 219.063 72.2668 209.115C75.848 196.564 82.2431 195.492 82.2431 195.492C82.2431 195.492 73.29 194.88 69.3251 210.798C67.5345 217.686 66.1276 218.145 63.8253 218.145C61.5231 218.145 59.8604 214.472 60.4999 209.115H57.9419C58.5814 214.472 56.9187 218.145 54.6165 218.145C52.3143 218.145 50.9073 217.686 49.1167 210.798C45.1518 194.88 36.1987 195.492 36.1987 195.492C36.1987 195.492 42.7217 196.564 46.175 209.115C48.9888 219.063 51.4189 222.431 55.1281 221.359C58.5814 220.441 58.8372 218.758 59.2209 217.38Z" fill="#CDAD80"/>
<path d="M21.2344 191.971C21.2344 191.971 28.6527 190.441 31.9781 193.961C31.9781 193.961 30.6991 197.176 33.0013 198.247C35.3035 199.318 36.3267 197.023 36.1988 195.492C36.1988 195.492 44.0008 195.338 48.9889 207.584C50.3958 210.951 51.0353 212.941 53.0818 212.329C55.0003 211.716 54.7445 207.277 51.6749 203.604C48.4773 199.931 52.826 197.482 52.826 197.482C52.826 197.482 53.7213 189.675 57.1746 183.553C59.6047 179.727 57.5583 178.196 56.4072 178.044C55.1282 177.737 54.4887 179.114 54.4887 180.186C54.4887 181.258 56.0235 181.87 56.0235 181.87C56.0235 181.87 53.4655 185.39 52.3144 188.604C51.1632 191.665 50.9074 194.268 50.9074 195.186C50.9074 195.186 47.582 195.338 47.3262 199.931C47.3262 199.931 44.2566 195.645 42.466 195.033C42.466 195.033 43.745 192.43 41.0591 191.512C38.8848 190.9 38.5011 192.737 38.5011 192.737C38.5011 192.737 31.9781 188.145 21.2344 191.971Z" fill="#CDAD80"/>
<path d="M59.221 236.206C53.5933 230.237 51.8027 220.748 51.8027 220.748C52.5701 221.666 54.7444 221.666 54.7444 221.666C54.7444 221.666 55.3839 227.022 59.221 232.379C63.058 227.022 63.6975 221.666 63.6975 221.666C63.6975 221.666 65.8718 221.666 66.7671 220.748C66.7671 220.748 64.8486 230.237 59.221 236.206Z" fill="#CDAD80"/>
<path d="M59.2209 208.043C55.3838 208.043 53.4653 200.39 53.4653 200.39C53.4653 200.39 56.7908 200.696 57.814 203.758C57.814 203.758 56.4071 199.319 59.2209 195.492C61.9068 199.472 60.6278 203.758 60.6278 203.758C61.7789 200.696 64.9764 200.39 64.9764 200.39C64.9764 200.39 63.3137 208.043 59.2209 208.043Z" fill="#404C6E"/>
<path d="M61.0115 206.053C63.3138 206.053 63.3138 208.961 61.0115 208.961H56.535C54.2328 208.961 54.3607 206.053 56.535 206.053H61.0115Z" fill="#CDAD80"/>
<path d="M97.2076 191.792C97.2076 191.792 89.7893 190.256 86.4639 193.79C86.4639 193.79 87.7429 197.018 85.4407 198.093C83.1385 199.169 82.1153 196.864 82.2432 195.327C82.2432 195.327 74.4412 195.173 69.4531 207.468C68.0462 210.849 67.4066 212.847 65.4881 212.232C63.5696 211.617 63.6975 207.16 66.895 203.472C69.9647 199.784 65.616 197.325 65.616 197.325C65.616 197.325 64.8486 189.487 61.2674 183.34C58.9652 179.498 60.8837 177.961 62.1627 177.808C63.3138 177.5 64.0812 178.883 64.0812 179.959C64.0812 181.035 62.4185 181.65 62.4185 181.65C62.4185 181.65 64.9765 185.184 66.2555 188.411C67.2787 191.485 67.5345 194.098 67.5345 195.02C67.5345 195.02 70.86 195.173 71.1158 199.784C71.1158 199.784 74.1854 195.481 75.976 194.866C75.976 194.866 74.697 192.253 77.3829 191.331C79.5572 190.717 80.0688 192.561 80.0688 192.561C80.0688 192.561 86.4639 187.95 97.2076 191.792Z" fill="#CDAD80"/>
<path d="M59.2209 217.304C59.6046 218.687 59.9883 220.377 63.3137 221.299C67.0229 222.375 69.453 218.994 72.2668 209.005C75.848 196.403 82.2431 195.327 82.2431 195.327C82.2431 195.327 73.29 194.713 69.3251 210.695C67.5345 217.611 66.1276 218.072 63.8253 218.072C61.5231 218.072 59.8604 214.384 60.4999 209.005H57.9419C58.5814 214.384 56.9187 218.072 54.6165 218.072C52.3143 218.072 50.9073 217.611 49.1167 210.695C45.1518 194.713 36.1987 195.327 36.1987 195.327C36.1987 195.327 42.7217 196.403 46.175 209.005C48.9888 218.994 51.4189 222.375 55.1281 221.299C58.5814 220.377 58.8372 218.687 59.2209 217.304Z" fill="#CDAD80"/>
<path d="M21.2344 191.792C21.2344 191.792 28.6527 190.256 31.9781 193.79C31.9781 193.79 30.6991 197.018 33.0013 198.093C35.3035 199.169 36.3267 196.864 36.1988 195.327C36.1988 195.327 44.0008 195.173 48.9889 207.468C50.3958 210.849 51.0353 212.847 53.0818 212.232C55.0003 211.617 54.7445 207.16 51.6749 203.472C48.4773 199.784 52.826 197.325 52.826 197.325C52.826 197.325 53.7213 189.487 57.1746 183.34C59.6047 179.498 57.5583 177.961 56.4072 177.808C55.1282 177.5 54.4887 178.883 54.4887 179.959C54.4887 181.035 56.0235 181.65 56.0235 181.65C56.0235 181.65 53.4655 185.184 52.3144 188.411C51.1632 191.485 50.9074 194.098 50.9074 195.02C50.9074 195.02 47.582 195.173 47.3262 199.784C47.3262 199.784 44.2566 195.481 42.466 194.866C42.466 194.866 43.745 192.253 41.0591 191.331C38.8848 190.717 38.5011 192.561 38.5011 192.561C38.5011 192.561 31.9781 187.95 21.2344 191.792Z" fill="#CDAD80"/>
<path d="M59.221 236.206C53.5933 230.213 51.8027 220.685 51.8027 220.685C52.5701 221.607 54.7444 221.607 54.7444 221.607C54.7444 221.607 55.3839 226.985 59.221 232.364C63.058 226.985 63.6975 221.607 63.6975 221.607C63.6975 221.607 65.8718 221.607 66.7671 220.685C66.7671 220.685 64.8486 230.213 59.221 236.206Z" fill="#CDAD80"/>
<path d="M59.2209 207.929C55.3838 207.929 53.4653 200.245 53.4653 200.245C53.4653 200.245 56.7908 200.552 57.814 203.626C57.814 203.626 56.4071 199.169 59.2209 195.327C61.9068 199.323 60.6278 203.626 60.6278 203.626C61.7789 200.552 64.9764 200.245 64.9764 200.245C64.9764 200.245 63.3137 207.929 59.2209 207.929Z" fill="#404C6E"/>
<path d="M61.0115 205.931C63.3138 205.931 63.3138 208.851 61.0115 208.851H56.535C54.2328 208.851 54.3607 205.931 56.535 205.931H61.0115Z" fill="#CDAD80"/>
</svg>
