<svg width="32" height="32" viewBox="0 0 32 32" fill="none" xmlns="http://www.w3.org/2000/svg">
<path d="M28.2627 9.58537C27.6667 5.8747 25.0414 2.90803 21.576 2.0267C19.7867 1.57203 17.9107 1.3387 15.996 1.33203C14.088 1.33736 12.2134 1.5707 10.424 2.0267C6.95869 2.90803 4.33336 5.8747 3.73736 9.58537C2.86536 15.012 2.96536 20.7587 4.04403 27.1534C4.32269 28.812 5.50669 30.1107 7.13736 30.528C9.06403 31.0214 10.6627 30.1094 11.4787 29.0907C12.3227 28.0374 15.544 23.9334 15.544 23.9334C15.696 23.74 15.896 23.7107 16 23.7107C16.104 23.7107 16.304 23.7387 16.456 23.9334C16.456 23.9334 19.6787 28.0387 20.5214 29.0907C21.572 30.4 23.2347 30.952 24.8627 30.528C26.4907 30.1054 27.676 28.812 27.9547 27.1547C29.0334 20.76 29.1347 15.0134 28.2614 9.5867L28.2627 9.58537Z" fill="#FEFAE0"/>
</svg>
