<svg width="30" height="30" viewBox="0 0 30 30" fill="none" xmlns="http://www.w3.org/2000/svg">
<g clip-path="url(#clip0_403_4)">
<path d="M20 18.75C20 16.6825 21.6825 15 23.75 15H29.9813C29.9938 14.8413 30 14.6813 30 14.52V6.25C30 2.80375 27.1963 0 23.75 0H11.25C7.80375 0 5 2.80375 5 6.25V18.75C5 22.1963 7.80375 25 11.25 25H20V18.75ZM23.75 17.5C23.06 17.5 22.5 18.06 22.5 18.75V24.3538C22.8875 24.1337 23.2488 23.8587 23.5725 23.535L28.1688 18.9387C28.6012 18.5063 28.9625 18.0225 29.2463 17.5H23.75ZM18.75 30H11.25C5.0475 30 0 24.9538 0 18.75V10C0 9.30875 0.56 8.75 1.25 8.75C1.94 8.75 2.5 9.30875 2.5 10V18.75C2.5 23.5737 6.425 27.5 11.25 27.5H18.75C19.4412 27.5 20 28.0588 20 28.75C20 29.4412 19.4412 30 18.75 30Z" fill="#FEFAE0"/>
</g>
<defs>
<clipPath id="clip0_403_4">
<rect width="30" height="30" fill="white"/>
</clipPath>
</defs>
</svg>
