<svg width="537" height="182" viewBox="0 0 537 182" fill="none" xmlns="http://www.w3.org/2000/svg">
<path d="M43.677 150.444C35.5183 150.444 28.1333 149.178 21.522 146.646C14.9107 144.114 9.63567 140.457 5.697 135.674C1.899 130.751 0 124.983 0 118.372C0 109.229 2.743 101.351 8.229 94.7398C13.715 87.9878 21.3813 82.5722 31.228 78.4928C41.2153 74.2728 52.961 71.3892 66.465 69.8418L65.621 86.9328C55.493 87.6362 46.7013 89.3242 39.246 91.9968C31.9313 94.6695 26.2343 98.1158 22.155 102.336C18.2163 106.415 16.247 111.198 16.247 116.684C16.247 121.326 18.7087 125.264 23.632 128.5C28.5553 131.594 35.7997 133.142 45.365 133.142C48.6003 133.142 52.0467 132.72 55.704 131.876C59.3613 131.032 63.089 129.906 66.887 128.5C70.685 126.952 74.4127 125.265 78.07 123.436C81.7273 121.607 85.1033 119.638 88.198 117.528C89.886 116.262 91.5037 116.051 93.051 116.895C94.739 117.598 96.0753 118.864 97.06 120.693C98.1853 122.381 98.6777 124.209 98.537 126.179C98.537 128.148 97.7633 129.695 96.216 130.821C90.5893 134.9 84.7517 138.417 78.703 141.371C72.795 144.325 66.887 146.575 60.979 148.123C55.071 149.67 49.3037 150.444 43.677 150.444ZM107.61 178.085C100.999 178.085 95.0907 176.959 89.886 174.709C84.6813 172.317 80.2503 168.52 76.593 163.315C72.9357 158.11 70.052 151.218 67.942 142.637C65.832 134.056 64.6363 123.577 64.355 111.198L63.511 84.6118C63.511 83.9085 63.4407 82.6425 63.3 80.8138C63.3 78.9852 63.3 77.0158 63.3 74.9058C63.3 72.7958 63.2297 70.8265 63.089 68.9978C63.089 67.1692 63.089 65.8328 63.089 64.9888C63.089 61.7535 63.8627 59.3622 65.41 57.8148C67.098 56.2675 69.0673 55.4938 71.318 55.4938C73.9907 55.4938 76.1007 56.1268 77.648 57.3928C79.1953 58.5182 79.969 60.4875 79.969 63.3008C79.969 64.2855 79.8987 65.7625 79.758 67.7318C79.758 69.7012 79.6877 71.8112 79.547 74.0618C79.547 76.1718 79.547 78.1412 79.547 79.9698C79.547 81.7985 79.547 83.0645 79.547 83.7678L80.391 110.776C80.6723 119.919 81.3053 127.515 82.29 133.564C83.4153 139.472 85.033 144.114 87.143 147.49C89.3937 150.866 92.1367 153.257 95.372 154.664C98.748 156.071 102.827 156.774 107.61 156.774L111.408 159.728V176.186L107.61 178.085Z" fill="#ffffff"/>
<path d="M107.236 178.085L103.86 175.975V159.939L107.658 156.774C113.847 156.774 119.192 154.383 123.694 149.6C128.195 144.677 132.485 137.432 136.565 127.867C140.503 119.005 144.442 111.831 148.381 106.345C152.319 100.859 156.539 96.9202 161.041 94.5288C165.542 91.9968 170.606 90.7308 176.233 90.7308C182 90.7308 186.923 92.0672 191.003 94.7398C195.082 97.4125 198.599 101.07 201.553 105.712C204.507 110.354 207.179 115.629 209.571 121.537C212.103 127.304 214.635 133.282 217.167 139.472C219.699 144.676 222.723 148.897 226.24 152.132C229.897 155.227 234.117 156.774 238.9 156.774L242.698 159.728V175.553L238.9 178.085C230.741 178.085 223.637 175.553 217.589 170.489C211.681 165.284 206.898 157.548 203.241 147.279C201.553 142.778 199.865 138.347 198.177 133.986C196.629 129.625 194.871 125.757 192.902 122.381C190.932 118.864 188.611 116.121 185.939 114.152C183.407 112.042 180.312 110.987 176.655 110.987C171.028 110.987 166.034 113.026 161.674 117.106C157.454 121.045 153.515 127.656 149.858 136.94C144.653 150.163 138.534 160.361 131.501 167.535C124.608 174.568 116.52 178.085 107.236 178.085ZM175.6 181.672C167.019 181.672 159.423 179.14 152.812 174.076C146.2 168.871 140.855 161.346 136.776 151.499L146.06 137.573C148.592 144.747 152.46 150.374 157.665 154.453C163.01 158.392 168.988 160.361 175.6 160.361C182.633 160.361 188.471 158.462 193.113 154.664C197.895 150.725 200.568 145.521 201.131 139.05L211.259 151.71C210.133 157.618 207.883 162.823 204.507 167.324C201.131 171.825 196.911 175.342 191.847 177.874C186.923 180.406 181.508 181.672 175.6 181.672Z" fill="#ffffff"/>
<path d="M238.915 178.085L235.117 174.92V159.939L238.915 156.774C243.275 156.774 247.144 155.86 250.52 154.031C254.036 152.062 256.92 148.967 259.171 144.747C261.562 140.386 263.25 134.76 264.235 127.867C264.235 123.506 264.446 119.849 264.868 116.895C265.29 113.8 266.204 111.479 267.611 109.932C269.158 108.244 271.338 107.4 274.152 107.4C276.965 107.4 279.075 108.103 280.482 109.51C281.888 110.776 282.592 112.323 282.592 114.152C282.592 116.121 282.381 118.091 281.959 120.06C281.537 121.889 281.115 123.858 280.693 125.968C280.271 128.078 280.06 130.328 280.06 132.72C280.06 137.221 281.044 141.301 283.014 144.958C284.983 148.615 287.656 151.499 291.032 153.609C294.408 155.719 298.206 156.774 302.426 156.774L306.224 159.728V175.553L302.426 178.085C294.689 178.085 288.078 175.764 282.592 171.122C277.106 166.48 273.237 160.361 270.987 152.765C269.58 157.688 267.259 162.049 264.024 165.847C260.929 169.645 257.201 172.669 252.841 174.92C248.621 177.03 243.979 178.085 238.915 178.085ZM264.235 80.6028C259.874 81.5875 256.639 81.2358 254.529 79.5478C252.419 77.7192 251.364 75.1168 251.364 71.7408C251.364 68.7868 252.7 66.6768 255.373 65.4108C258.186 64.1448 261.703 63.1602 265.923 62.4568C270.565 61.4722 275.136 60.9798 279.638 60.9798C284.28 60.8392 288.359 60.9095 291.876 61.1908C294.126 61.3315 295.955 62.0348 297.362 63.3008C298.768 64.4262 299.683 65.8328 300.105 67.5208C300.527 69.2088 300.527 70.8968 300.105 72.5848C299.683 74.2728 298.768 75.6795 297.362 76.8048C295.955 77.9302 294.126 78.4928 291.876 78.4928C287.796 78.4928 283.295 78.5632 278.372 78.7038C273.448 78.8445 268.736 79.4775 264.235 80.6028Z" fill="#ffffff"/>
<path d="M441.007 178.085C435.38 178.085 430.175 176.819 425.392 174.287C420.75 171.755 416.671 168.309 413.154 163.948C409.778 159.587 407.106 154.594 405.136 148.967C403.167 143.2 402.112 137.151 401.971 130.821L414.21 125.968C414.35 132.017 415.546 137.362 417.797 142.004C420.188 146.646 423.353 150.303 427.291 152.976C431.371 155.508 435.943 156.774 441.007 156.774L444.804 160.15V175.553L441.007 178.085ZM302.379 178.085L298.581 175.553V160.15L302.379 156.774C312.789 156.774 322.706 155.437 332.13 152.765C341.555 150.092 350.558 146.716 359.138 142.637C367.86 138.558 376.159 134.408 384.036 130.188C391.914 125.827 399.439 122.029 406.613 118.794C401.127 117.95 395.501 116.543 389.733 114.574C384.107 112.605 378.48 110.565 372.853 108.455C367.367 106.345 362.163 104.516 357.24 102.969C352.316 101.422 348.026 100.648 344.368 100.648C340.008 100.648 336.843 101.703 334.873 103.813C333.045 105.923 332.13 108.596 332.13 111.831C332.13 112.816 332.201 113.941 332.341 115.207C332.623 116.332 332.904 117.458 333.185 118.583C333.748 119.99 333.607 121.326 332.763 122.592C331.919 123.858 330.724 124.913 329.176 125.757C327.77 126.46 326.222 126.812 324.534 126.812C322.846 126.812 321.299 126.39 319.892 125.546C318.486 124.561 317.571 123.014 317.149 120.904C316.727 118.935 316.376 116.965 316.094 114.996C315.813 112.886 315.672 110.916 315.672 109.088C315.672 104.024 316.587 99.4522 318.415 95.3728C320.244 91.1528 323.057 87.8472 326.855 85.4558C330.653 82.9238 335.506 81.6578 341.414 81.6578C345.353 81.6578 349.854 82.3612 354.918 83.7678C360.123 85.1745 365.679 87.0032 371.587 89.2538C377.495 91.3638 383.614 93.5442 389.944 95.7948C396.274 97.9048 402.604 99.7335 408.934 101.281C415.264 102.828 421.313 103.672 427.08 103.813C428.346 103.813 429.401 104.446 430.245 105.712C431.089 106.978 431.723 108.525 432.145 110.354C432.567 112.183 432.707 114.152 432.566 116.262C432.426 118.231 432.004 120.06 431.3 121.748C430.738 123.436 429.823 124.632 428.557 125.335C419.133 129.696 410.411 134.338 402.393 139.261C394.375 144.044 386.568 148.756 378.972 153.398C371.517 158.04 363.921 162.26 356.184 166.058C348.448 169.715 340.219 172.669 331.497 174.92C322.776 177.03 313.07 178.085 302.379 178.085ZM372.642 48.5308C370.673 48.5308 368.985 47.9682 367.578 46.8428C366.312 45.7175 365.328 44.3108 364.624 42.6228C364.062 40.9348 363.78 39.1765 363.78 37.3478C363.78 33.8312 364.695 30.9475 366.523 28.6968C368.352 26.3055 370.532 25.1098 373.064 25.1098C375.596 25.1098 377.636 25.7428 379.184 27.0088C380.872 28.1342 382.067 29.6112 382.77 31.4398C383.614 33.1278 384.036 34.9565 384.036 36.9258C384.036 40.7238 382.911 43.6075 380.66 45.5768C378.55 47.5462 375.878 48.5308 372.642 48.5308Z" fill="#ffffff"/>
<path d="M441.054 178.085L437.256 175.764V159.939L441.054 156.774C448.51 156.774 454.207 154.594 458.145 150.233C462.084 145.872 464.335 139.401 464.897 130.821C465.46 124.069 465.812 117.457 465.952 110.987C466.234 104.375 466.445 97.2015 466.585 89.4648C466.726 81.7282 466.796 72.9365 466.796 63.0898C466.937 53.3838 467.007 44.8735 467.007 37.5588C467.007 30.2442 467.078 25.1802 467.218 22.3668C467.5 16.7402 470.313 13.9268 475.658 13.9268C478.612 13.9268 480.793 14.5598 482.199 15.8258C483.747 17.0918 484.52 19.0612 484.52 21.7338C484.52 27.7825 484.45 33.8312 484.309 39.8798C484.309 45.9285 484.239 51.5552 484.098 56.7598C484.098 61.9645 484.098 66.4658 484.098 70.2638C484.098 74.7652 484.028 80.0402 483.887 86.0888C483.887 91.9968 483.747 98.3268 483.465 105.079C483.325 111.69 482.973 118.372 482.41 125.124C481.988 131.876 481.426 138.206 480.722 144.114C479.597 150.725 477.417 156.633 474.181 161.838C470.946 166.902 466.585 170.911 461.099 173.865C455.754 176.678 449.072 178.085 441.054 178.085Z" fill="#ffffff"/>
<path d="M524.256 179.562C523.271 179.562 522.005 179.351 520.458 178.929C518.911 178.507 517.574 177.663 516.449 176.397C515.324 175.131 514.761 173.162 514.761 170.489C514.761 163.737 514.831 156.422 514.972 148.545C515.113 140.527 515.253 132.228 515.394 123.647C515.675 114.926 515.957 106.064 516.238 97.0608C516.519 88.0582 516.801 79.1962 517.082 70.4748C517.363 61.6128 517.645 53.1025 517.926 44.9438C518.207 36.6445 518.489 28.9078 518.77 21.7338C518.911 18.9205 519.825 16.8808 521.513 15.6148C523.342 14.3488 525.452 13.7158 527.843 13.7158C530.938 13.7158 533.188 14.5598 534.595 16.2478C536.002 17.9358 536.635 20.0458 536.494 22.5778C536.353 28.7672 536.142 35.5895 535.861 43.0448C535.58 50.3595 535.298 58.0258 535.017 66.0438C534.876 73.9212 534.665 81.9392 534.384 90.0978C533.962 104.446 533.61 118.231 533.329 131.454C533.188 144.536 532.977 157.266 532.696 169.645C532.696 171.192 532.415 172.74 531.852 174.287C531.289 175.834 530.375 177.1 529.109 178.085C527.984 179.07 526.366 179.562 524.256 179.562Z" fill="#ffffff"/>
<path d="M18.99 58.4577C21.1 60.1457 24.3353 60.4974 28.696 59.5127C33.1973 58.3874 37.9096 57.7544 42.833 57.6137C47.7563 57.473 52.2576 57.4027 56.337 57.4027C58.5876 57.4027 60.4163 56.84 61.823 55.7147C63.2296 54.5893 64.144 53.1827 64.566 51.4947C64.988 49.8067 64.988 48.1187 64.566 46.4307C64.144 44.7427 63.2296 43.336 61.823 42.2107C60.4163 40.9447 58.5876 40.2413 56.337 40.1007C52.8203 39.8193 48.741 39.749 44.099 39.8897C39.5976 39.8897 35.026 40.382 30.384 41.3667C26.164 42.07 22.6473 43.0547 19.834 44.3207C17.1613 45.5867 15.825 47.6967 15.825 50.6507C15.825 54.0267 16.88 56.629 18.99 58.4577Z" fill="#ffffff"/>
<path d="M151.422 54.531C159.159 54.2496 166.966 52.9836 174.843 50.733C182.721 48.3416 189.262 45.7393 194.466 42.926C195.873 42.2226 197.209 42.1523 198.475 42.715C199.741 43.2776 200.726 44.2623 201.429 45.669C202.132 46.935 202.344 48.2713 202.062 49.678C201.781 51.0846 200.867 52.2099 199.319 53.0539C195.662 55.3046 191.231 57.4146 186.026 59.384C180.821 61.2126 175.336 62.76 169.568 64.026C163.942 65.1513 158.455 65.7843 153.11 65.925C151.422 65.925 150.086 65.4326 149.101 64.448C148.116 63.3226 147.554 62.0566 147.413 60.65C147.273 59.1026 147.484 57.7663 148.046 56.641C148.75 55.3749 149.875 54.6716 151.422 54.531Z" fill="#DDA15E"/>
<path d="M16.9574 29.751C15.6914 28.907 14.9178 27.852 14.6364 26.586C14.4958 25.1793 14.7068 23.9133 15.2694 22.788C15.8321 21.6627 16.6058 20.889 17.5904 20.467C18.7158 19.9043 19.9818 20.045 21.3884 20.889C24.0611 22.577 26.8041 23.843 29.6174 24.687C32.5714 25.3903 35.3848 25.742 38.0574 25.742C40.8708 25.742 43.4731 25.32 45.8644 24.476C48.2558 23.632 50.1548 22.5067 51.5614 21.1C49.0294 21.3813 46.6381 20.6077 44.3874 18.779C42.1368 16.9503 41.0114 14.2777 41.0114 10.761C41.0114 7.66633 41.9258 5.13433 43.7544 3.165C45.7238 1.055 48.1854 0 51.1394 0C54.6561 0 57.4694 1.266 59.5794 3.798C61.6894 6.32999 62.7444 9.70599 62.7444 13.926C62.7444 18.2867 61.5488 22.155 59.1574 25.531C56.9068 28.7663 53.8121 31.2983 49.8734 33.127C46.0754 34.9557 41.8554 35.87 37.2134 35.87C33.9781 35.87 30.6021 35.3777 27.0854 34.393C23.5688 33.4083 20.1928 31.861 16.9574 29.751Z" fill="#DDA15E"/>
<path d="M273.342 2.63281C279.391 2.63281 284.103 4.60215 287.479 8.54081C290.996 12.4795 292.754 17.1918 292.754 22.6778C292.754 27.8825 291.066 32.2431 287.69 35.7598C284.455 39.1358 280.094 40.8238 274.608 40.8238C269.263 40.8238 264.902 39.1358 261.526 35.7598C258.291 32.3838 256.673 28.3045 256.673 23.5218C256.673 18.7391 258.08 14.7301 260.893 11.4948C263.847 8.11881 267.716 6.43081 272.498 6.43081C273.624 6.43081 274.538 6.85282 275.241 7.69682C276.085 8.54082 276.578 9.59582 276.718 10.8618C276.859 11.9871 276.578 12.9718 275.874 13.8158C275.312 14.6598 274.186 15.0818 272.498 15.0818C270.107 15.0818 268.208 15.9961 266.801 17.8248C265.535 19.5128 264.902 21.2712 264.902 23.0998C264.902 25.7725 265.817 27.9528 267.645 29.6408C269.474 31.1882 271.725 31.9618 274.397 31.9618C277.211 31.9618 279.602 31.1882 281.571 29.6408C283.541 27.9528 284.525 25.6318 284.525 22.6778C284.525 19.8645 283.47 17.3325 281.36 15.0818C279.391 12.6905 276.648 11.4948 273.131 11.4948C272.006 11.4948 271.092 11.0728 270.388 10.2288C269.826 9.24415 269.544 8.18916 269.544 7.06382C269.544 5.93848 269.826 4.95382 270.388 4.10982C271.092 3.12515 272.076 2.63281 273.342 2.63281Z" fill="#DDA15E"/>
<path d="M348.204 13.531C355.941 13.2496 363.748 11.9836 371.625 9.73295C379.503 7.34162 386.044 4.73928 391.248 1.92595C392.655 1.22262 393.991 1.15229 395.257 1.71496C396.523 2.27762 397.508 3.26229 398.211 4.66896C398.915 5.93496 399.126 7.27129 398.844 8.67795C398.563 10.0846 397.649 11.2099 396.101 12.0539C392.444 14.3046 388.013 16.4146 382.808 18.384C377.604 20.2126 372.118 21.76 366.35 23.026C360.724 24.1513 355.238 24.7843 349.892 24.925C348.204 24.925 346.868 24.4326 345.883 23.448C344.899 22.3226 344.336 21.0566 344.195 19.6499C344.055 18.1026 344.266 16.7663 344.828 15.641C345.532 14.375 346.657 13.6716 348.204 13.531Z" fill="#DDA15E"/>
<path d="M473.833 0.632812C479.882 0.632812 484.594 2.60215 487.97 6.54081C491.487 10.4795 493.245 15.1918 493.245 20.6778C493.245 25.8825 491.557 30.2432 488.181 33.7598C484.946 37.1358 480.585 38.8238 475.099 38.8238C469.754 38.8238 465.393 37.1358 462.017 33.7598C458.782 30.3838 457.164 26.3045 457.164 21.5218C457.164 16.7391 458.571 12.7301 461.384 9.49481C464.338 6.11881 468.207 4.43081 472.989 4.43081C474.115 4.43081 475.029 4.85282 475.732 5.69682C476.576 6.54082 477.069 7.59582 477.209 8.86182C477.35 9.98715 477.069 10.9718 476.365 11.8158C475.803 12.6598 474.677 13.0818 472.989 13.0818C470.598 13.0818 468.699 13.9961 467.292 15.8248C466.026 17.5128 465.393 19.2712 465.393 21.0998C465.393 23.7725 466.308 25.9528 468.136 27.6408C469.965 29.1881 472.216 29.9618 474.888 29.9618C477.702 29.9618 480.093 29.1881 482.062 27.6408C484.032 25.9528 485.016 23.6318 485.016 20.6778C485.016 17.8645 483.961 15.3325 481.851 13.0818C479.882 10.6905 477.139 9.49481 473.622 9.49481C472.497 9.49481 471.583 9.07281 470.879 8.22882C470.317 7.24415 470.035 6.18915 470.035 5.06382C470.035 3.93848 470.317 2.95382 470.879 2.10982C471.583 1.12515 472.567 0.632812 473.833 0.632812Z" fill="#DDA15E"/>
</svg>
