<svg id="Layer_1" viewBox="0 0 24 24" xmlns="http://www.w3.org/2000/svg" data-name="Layer 1"><path d="m22.561 20.439-1.926-1.926c.234-.584.366-1.253.366-2.013 0-2.817-1.683-4.5-4.5-4.5s-4.5 1.683-4.5 4.5 1.683 4.5 4.5 4.5c.76 0 1.429-.132 2.013-.366l1.926 1.926c.586.586 1.535.586 2.121 0s.586-1.535 0-2.121zm-6.068-1.582c-.159.095-.337.143-.515.143-.187 0-.372-.052-.536-.155-.723-.459-1.293-.976-1.744-1.579-.33-.443-.239-1.069.203-1.4.442-.33 1.068-.239 1.4.203.192.259.416.491.686.71.569-.454 1.092-1.079 1.67-1.983.297-.466.918-.602 1.381-.305.466.298.602.916.305 1.381-.616.965-1.497 2.175-2.85 2.986zm-6.493-2.357c0-1.847.564-3.383 1.563-4.5h-.563c-.553 0-1-.447-1-1s.447-1 1-1h5.5c1.338 0 2.51.299 3.482.84-.124-4.497-.917-7.915-.953-8.07-.085-.359-.361-.643-.718-.737-.159-.042-3.948-1.033-7.812-1.033s-7.652.991-7.812 1.033c-.356.095-.633.378-.718.737-.039.168-.971 4.171-.971 9.229s.932 9.062.971 9.229c.085.359.361.643.718.737.159.042 3.948 1.033 7.812 1.033 1.352 0 2.69-.122 3.871-.282-2.711-.763-4.371-3.035-4.371-6.218zm1-10.5h5c.553 0 1 .447 1 1s-.447 1-1 1h-5c-.553 0-1-.447-1-1s.447-1 1-1zm-4 10h-2c-.553 0-1-.447-1-1s.447-1 1-1h2c.553 0 1 .447 1 1s-.447 1-1 1zm0-4h-2c-.553 0-1-.447-1-1s.447-1 1-1h2c.553 0 1 .447 1 1s-.447 1-1 1zm0-4h-2c-.553 0-1-.447-1-1s.447-1 1-1h2c.553 0 1 .447 1 1s-.447 1-1 1z"/></svg>