<svg width="32" height="32" viewBox="0 0 32 32" fill="none" xmlns="http://www.w3.org/2000/svg">
<path d="M13.02 23.6722V23.5255C13.1134 18.3762 16.5014 15.0282 21.652 14.9975C24.4574 15.0148 26.736 16.0002 28.2547 17.7122C28.28 17.0575 28.2934 16.3815 28.2934 15.6868C28.2934 8.96816 27.0094 4.02683 26.9534 3.82016C26.8387 3.3815 26.512 3.0335 26.0907 2.89483C25.896 2.83083 21.2467 1.3335 15.752 1.3335C10.2574 1.3335 5.60936 2.83083 5.41336 2.8935C4.98936 3.03216 4.66269 3.3815 4.54803 3.82283C4.49336 4.03216 3.21069 9.02283 3.21069 15.6855C3.21069 22.4042 4.49336 27.3442 4.54803 27.5522C4.66403 27.9922 4.99069 28.3402 5.41203 28.4788C5.60669 28.5415 10.1614 30.0068 15.58 30.0375C13.9827 28.5588 13.0707 26.3775 13.02 23.6722ZM10.9814 10.1242C10.9814 9.37216 11.5907 8.76283 12.3427 8.76283H18.3227C19.0747 8.76283 19.684 9.37216 19.684 10.1242C19.684 10.8762 19.0747 11.4855 18.3227 11.4855H12.3427C11.5907 11.4855 10.9814 10.8762 10.9814 10.1242Z" fill="#FEFAE0"/>
<path d="M28.3854 28.3361L26.8987 26.8681C27.3814 25.9787 27.6414 24.8774 27.6654 23.5747C27.5987 19.8427 25.4187 17.6881 21.6667 17.6641C17.9334 17.6867 15.7534 19.8414 15.6854 23.5734C15.6854 23.5734 15.2254 29.5321 21.6827 29.5321C22.9787 29.5321 24.08 29.2734 24.9707 28.7934L26.4694 30.2734C27.3134 31.0227 28.1294 30.5321 28.396 30.2614C28.924 29.7267 28.92 28.8641 28.3854 28.3361Z" fill="#FEFAE0"/>
</svg>
