<svg width="42" height="42" viewBox="0 0 42 42" fill="none" xmlns="http://www.w3.org/2000/svg">
<path d="M27.9142 6.31408C26.5702 6.84433 25.9087 8.36683 26.4337 9.71433C26.4495 9.75458 28 13.8216 28 21.0001C28 28.1786 26.4495 32.2456 26.4372 32.2753C25.8982 33.6211 26.5527 35.1488 27.8985 35.6878C28.2187 35.8156 28.5477 35.8768 28.8732 35.8768C29.9145 35.8768 30.9015 35.2521 31.311 34.2266C31.3897 34.0288 33.2482 29.2863 33.2482 21.0018C33.2482 12.7173 31.3897 7.97483 31.311 7.77708C30.7755 6.43483 29.253 5.78383 27.9125 6.31583L27.9142 6.31408Z" fill="#FEFAE0"/>
<path d="M38.3127 7.77512C37.7772 6.43287 36.2565 5.78187 34.9142 6.31387C33.5702 6.84412 32.9087 8.36662 33.4337 9.71412C33.4495 9.75437 35 13.8214 35 20.9999C35 28.1784 33.4495 32.2454 33.4372 32.2751C32.8982 33.6209 33.5527 35.1486 34.8985 35.6876C35.2187 35.8154 35.5477 35.8766 35.8732 35.8766C36.9145 35.8766 37.9015 35.2519 38.311 34.2264C38.3897 34.0286 40.2482 29.2861 40.2482 21.0016C40.2482 12.7171 38.3897 7.97462 38.311 7.77687L38.3127 7.77512Z" fill="#FEFAE0"/>
<path d="M7.46725 6.18804C6.7375 5.98679 5.96225 6.27379 5.54225 6.90554C5.38825 7.13829 1.75 12.7068 1.75 21C1.75 29.2933 5.39 34.8653 5.544 35.098C5.87475 35.5915 6.42425 35.875 7 35.875C7.1505 35.875 7.30275 35.8558 7.45325 35.8155C19.4827 32.5938 25.7407 22.3335 26.0015 21.8995C26.3288 21.3535 26.3323 20.671 26.012 20.1198C25.7618 19.691 19.768 9.59354 7.4655 6.18804H7.46725Z" fill="#FEFAE0"/>
</svg>
