<svg width="373" height="39" viewBox="0 0 373 39" fill="none" xmlns="http://www.w3.org/2000/svg">
<g clip-path="url(#clip0_19_118)">
<path d="M48.2959 20.3076C49.318 20.7783 50.6253 21.0986 52.2969 21.1631C52.2969 21.1631 53.074 25.2307 56.1836 26.4785C57.1566 26.8621 57.8464 27.3503 58.335 27.8428C55.3005 34.15 49.9985 37.5131 46.9785 39H37.9834C36.4937 38.9999 35.2663 37.9076 35.0352 36.4863C34.4048 36.1549 33.6502 35.4929 33.2334 34.1641C33.2334 34.1641 32.8415 34.1677 32.3184 33.9502C33.2165 33.7357 34.1771 33.6325 35.1934 33.6885C35.1917 33.6569 34.8146 26.4786 39.4688 26.4785C44.1334 26.4785 44.356 33.9194 47.4658 32.4404C48.6518 31.8732 48.5849 31.1068 48.1357 30.1299C49.2534 31.6893 51.0574 33.0501 53.9629 33.5498L55.1289 32.3477C48.6707 31.7688 46.7462 25.2351 46.4121 23.8643C46.6423 22.441 47.3086 21.217 48.2959 20.3076ZM64.4082 35.5801C65.8666 37.0756 67.3724 38.1868 68.7158 39H49.7139C51.1495 38.1983 52.754 37.1061 54.3096 35.6426C54.8139 36.204 56.1979 37.4846 59.127 38.6338C61.8991 37.5614 63.6259 36.2579 64.4082 35.5801ZM70.7363 20.3096C71.7228 21.2188 72.3881 22.4418 72.6182 23.8643C72.2834 25.2356 70.3547 31.7685 63.8477 32.3477L65.0693 33.5498C68.0187 33.039 69.8309 31.6287 70.9434 30.0264C70.4517 31.0527 70.3385 31.8534 71.5664 32.4404C74.6203 33.9188 74.898 26.4785 79.5625 26.4785C84.2168 26.4786 83.8396 33.657 83.8379 33.6885C86.3266 33.5504 88.4828 34.3789 90.207 35.4717C88.7299 36.6922 86.495 38.0038 83.1416 39H71.2832C68.4814 37.5088 63.555 34.1309 60.752 27.7881C61.2368 27.3143 61.9109 26.8478 62.8477 26.4785C66.0129 25.2307 66.7344 21.1631 66.7344 21.1631C68.4034 21.0987 69.7114 20.7791 70.7363 20.3096ZM91.1836 36.1523C92.5161 37.1592 93.5142 38.2575 94.1162 39H85.4932C87.3055 38.3785 89.4042 37.4278 91.1836 36.1523ZM279.868 0C280.388 0.788043 281.282 1.96441 282.574 3.07812C280.891 4.55938 279.703 6.39783 279.703 8.59277C279.703 15.1357 287.1 17.3607 287.145 17.374C287.118 17.3596 283.035 15.1424 283.035 11.0889C283.035 9.05535 285.257 9.05488 285.257 7.29883C285.257 5.58884 283.035 5.4497 281.925 6.37402C281.93 6.35582 282.263 5.26523 283.582 3.86719C285.039 4.9022 286.883 5.77318 289.144 6.05078C289.144 6.05078 288.422 15.9412 300.527 14.0928C300.523 14.13 300.199 17.0878 302.419 19.1689C300.151 21.2639 300.473 24.2607 300.473 24.2607C288.439 22.3684 289.142 32.229 289.144 32.2559C286.866 32.5488 285.015 33.4293 283.559 34.4707C282.24 33.0661 281.925 31.9785 281.925 31.9785C283.035 32.9028 285.257 32.764 285.257 31.0078C285.257 29.298 283.035 29.2979 283.035 27.2646C283.035 23.1514 287.09 20.9785 287.09 20.9785C287.09 20.9785 279.649 23.1511 279.648 29.7598C279.648 31.9565 280.845 33.7955 282.536 35.2773C280.82 36.7704 279.822 38.3675 279.466 39H95.4023C95.0398 38.367 94.0256 36.7679 92.2939 35.2734C93.977 33.7921 95.167 31.9548 95.167 29.7598C95.1667 23.1573 87.7397 20.9826 87.7256 20.9785C87.7256 20.9785 91.835 23.1514 91.835 27.2646C91.8348 29.2979 89.6133 29.298 89.6133 31.0078C89.6133 32.764 91.8347 32.9028 92.9453 31.9785C92.9422 31.9888 92.6104 33.0761 91.2793 34.4775C89.8132 33.4333 87.9536 32.5493 85.6709 32.2559C85.6726 32.2344 86.4352 22.3681 74.3428 24.2607C74.3428 24.2607 74.6858 21.277 72.4502 19.1826C74.7048 17.0993 74.4009 14.126 74.3975 14.0928C86.4478 15.9414 85.7266 6.05078 85.7266 6.05078C87.9926 5.77248 89.8404 4.89696 91.2988 3.8584C92.6154 5.25786 92.9387 6.35126 92.9453 6.37402C91.8347 5.44989 89.6133 5.58895 89.6133 7.29883C89.6134 9.05488 91.835 9.05535 91.835 11.0889C91.8347 15.1487 87.7396 17.3665 87.7256 17.374C87.7555 17.3651 95.167 15.1422 95.167 8.59277C95.167 6.3974 93.9774 4.55953 92.2939 3.07812C93.587 1.96415 94.4818 0.788268 95.002 0H279.868ZM283.643 36.1494C285.429 37.4265 287.534 38.3779 289.346 39H280.699C281.303 38.257 282.303 37.1567 283.643 36.1494ZM304.135 20.3076C305.157 20.7783 306.464 21.0986 308.136 21.1631C308.136 21.1631 308.857 25.2307 312.022 26.4785C312.974 26.8535 313.653 27.3293 314.14 27.8105C311.295 34.1391 306.373 37.5107 303.576 39H291.673C288.319 38.003 286.092 36.6902 284.625 35.4688C286.357 34.3773 288.524 33.5506 291.031 33.6885C291.029 33.6513 290.655 26.4788 295.308 26.4785C299.916 26.4785 300.194 33.9192 303.248 32.4404C304.488 31.8479 304.372 31.0382 303.882 29.998C304.992 31.6123 306.815 33.036 309.802 33.5498L310.968 32.3477C304.508 31.7686 302.585 25.2327 302.252 23.8633C302.482 22.4405 303.148 21.2168 304.135 20.3076ZM320.359 35.4355C321.983 37.0045 323.669 38.1607 325.168 39H306.127C307.421 38.2218 308.864 37.1712 310.269 35.7715C310.856 36.3836 312.243 37.5657 314.966 38.6338C317.911 37.478 319.677 36.0561 320.359 35.4355ZM326.561 20.3027C327.556 21.2124 328.225 22.4379 328.456 23.8633C328.113 25.2323 326.145 31.7687 319.686 32.3477L320.853 33.5498C323.863 33.0319 325.698 31.5898 326.814 29.96C326.296 31.0181 326.151 31.8408 327.404 32.4404C330.459 33.9194 330.737 26.4785 335.401 26.4785C339.999 26.4789 339.679 33.6517 339.678 33.6885C340.411 33.6478 341.115 33.6916 341.788 33.8008C341.129 34.164 340.583 34.1643 340.566 34.1641C340.192 35.3574 339.554 36.0113 338.981 36.373C338.799 37.8491 337.549 38.9999 336.02 39H327.896C324.887 37.5105 319.597 34.1387 316.568 27.8096C317.055 27.3284 317.735 26.8535 318.687 26.4785C321.852 25.2307 322.573 21.1631 322.573 21.1631C324.238 21.0984 325.541 20.7756 326.561 20.3027ZM59.9297 28.8672C60.9081 31.1163 62.1213 32.969 63.4141 34.4893C62.7818 35.1173 61.2513 36.4609 59.127 37.1543C57.0101 36.4496 55.7662 35.2066 55.2939 34.6562C56.7272 33.1277 58.0746 31.2551 59.1543 28.9688C59.4757 29.5996 59.5148 30.0716 59.5156 30.083C59.5165 30.0711 59.5589 29.548 59.9297 28.8672ZM314.938 28.8652C315.31 29.5472 315.354 30.0711 315.354 30.083C315.355 30.0716 315.393 29.5978 315.716 28.9658C316.736 31.1094 317.988 32.8894 319.322 34.3633C318.798 34.919 317.243 36.4112 314.966 37.1543C312.997 36.499 311.757 35.3776 311.2 34.7812C312.592 33.2075 313.901 31.2615 314.938 28.8652ZM93.6162 19.0654L109.512 37H266.975L281.38 19.0654L267.968 2H109.016L93.6162 19.0654ZM31.3799 5.63672C32.0012 5.82124 32.6605 5.96553 33.3604 6.05078C33.3604 6.05078 32.5832 15.9412 44.6885 14.0928C44.6842 14.1307 44.3602 17.0881 46.5801 19.1689C44.3126 21.2639 44.6338 24.2607 44.6338 24.2607C32.5987 22.3682 33.3029 32.2311 33.3047 32.2559C32.444 32.3674 31.6433 32.564 30.9014 32.8223C30.5211 32.3152 30.1793 31.6173 29.9609 30.6543C29.9165 30.6419 25.634 29.4275 25.7842 24.0625C25.7842 24.0625 24.6289 23.3553 23.8838 21.9541C23.8795 21.9578 23.8753 21.9621 23.8711 21.9658C23.8711 21.9658 23.5689 20.9808 22.5625 21.751C21.8076 22.3073 22.2604 22.7788 22.7637 22.6934C22.7449 22.7107 21.6442 23.7183 20.1973 23.5488C20.1973 23.5488 20.3474 25.1326 19.9951 26.0742C19.9818 26.0607 19.2361 25.3125 18.7871 26.2881C18.4349 27.0584 19.543 27.0156 19.543 27.0156C19.543 27.0156 18.3844 29.498 15.1631 29.498C14.8727 29.498 14.5807 29.4727 14.2881 29.4297C16.9266 24.6234 15.9798 22.6304 15.9688 22.6074C19.3914 23.6774 20.9521 20.7236 20.9521 20.7236C23.4431 20.5964 24.2573 19.6729 24.2734 19.6543C23.2245 18.0825 20.9858 18.3658 20.9521 18.3701C18.6871 14.9888 15.8682 16.6152 15.8682 16.6152C16.5935 13.4584 14.8205 10.3642 14.2646 9.49512C14.565 9.44988 14.865 9.42483 15.1631 9.4248C18.3844 9.4248 19.543 11.9072 19.543 11.9072C19.543 11.9072 18.435 11.8218 18.7871 12.6348C19.2371 13.6126 19.9851 12.8588 19.9951 12.8486C20.3456 13.7855 20.1988 15.358 20.1973 15.374C21.6567 15.2031 22.7637 16.2305 22.7637 16.2305C22.2604 16.1449 21.8075 16.6155 22.5625 17.1719C23.5593 17.9347 23.8653 16.9767 23.8711 16.958C23.8843 16.9697 23.898 16.9806 23.9111 16.9922C24.6568 15.637 25.7842 14.9463 25.7842 14.9463C25.6339 9.57972 29.9191 8.3662 29.9609 8.35449C30.2684 6.98216 30.818 6.14586 31.3799 5.63672ZM342.64 5.85742C343.121 6.37741 343.57 7.16378 343.837 8.35449C343.837 8.35449 348.216 9.55341 348.015 14.9463C348.015 14.9463 349.62 15.9109 350.291 17.7969C350.486 17.8317 350.745 17.7741 351.085 17.5137C351.84 16.9573 351.387 16.4867 350.884 16.5723C350.884 16.5723 351.991 15.5456 353.451 15.7168C353.451 15.7168 353.3 14.133 353.652 13.1914C353.669 13.208 354.412 13.9508 354.86 12.9775C355.208 12.2163 354.131 12.2481 354.105 12.249C354.125 12.2069 355.291 9.76758 358.484 9.76758C358.775 9.7676 359.067 9.79192 359.359 9.83496C356.705 14.6694 357.679 16.6582 357.679 16.6582C354.277 15.5948 352.715 18.5059 352.696 18.541C350.179 18.6694 349.374 19.6113 349.374 19.6113C350.431 21.1949 352.696 20.8955 352.696 20.8955C354.961 24.2764 357.779 22.6504 357.779 22.6504C357.055 25.8062 358.825 28.8993 359.382 29.7695C359.082 29.8147 358.782 29.8408 358.484 29.8408C355.288 29.8408 354.123 27.396 354.105 27.3584C354.131 27.3603 355.208 27.4338 354.86 26.6309C354.413 25.6595 353.672 26.3963 353.652 26.416C353.303 25.5243 353.449 23.9169 353.451 23.8916C351.991 24.1056 350.884 23.0352 350.884 23.0352C351.387 23.1208 351.84 22.6501 351.085 22.0938C350.086 21.3289 349.782 22.2937 349.777 22.3076C349.77 22.3012 349.762 22.2945 349.755 22.2881C349.004 23.4672 348.015 24.0625 348.015 24.0625C348.216 29.4554 343.837 30.6543 343.837 30.6543C343.654 31.4622 343.383 32.0827 343.076 32.5615C342.578 32.4298 342.056 32.3261 341.51 32.2559C341.511 32.2402 342.222 22.3675 330.182 24.2607C330.182 24.2607 330.501 21.2705 328.257 19.1758C330.486 17.0943 330.186 14.13 330.182 14.0928C342.286 15.9412 341.51 6.05078 341.51 6.05078C341.899 6.00341 342.275 5.93714 342.64 5.85742ZM367.393 24.79C368.047 25.3892 368.651 26.031 369.104 26.7158C369.138 26.7729 369.171 26.8307 369.205 26.8877C368.006 26.9726 367.254 27.0996 367.242 27.1016C367.242 27.1016 367.393 26.1599 366.286 26.3311C365.178 26.5451 365.833 27.4014 365.833 27.4014C364.218 27.7725 361.884 29.3325 359.554 29.7412C359.768 26.4823 362.036 24.2972 362.058 24.2764C362.857 24.1063 364.154 23.5971 365.504 22.9609C366.134 23.5689 366.766 24.1768 367.393 24.79ZM9.0625 22.5586C8.97382 22.6797 8.87829 22.7982 8.77148 22.9072C13.4418 24.1323 14.0612 28.3183 14.1436 29.4082C11.7963 29.0132 9.44059 27.4323 7.81445 27.0586C7.81445 27.0586 8.4692 26.1596 7.3623 25.9883C6.26544 25.7763 6.40257 26.7406 6.40527 26.7588C6.38911 26.7551 5.83862 26.6301 4.94629 26.5879C5.60065 25.9031 6.85857 24.6617 7.96582 23.335C8.10004 23.3064 8.2177 23.292 8.31836 23.292C8.59767 23.0545 8.85693 22.8162 9.0625 22.5586ZM328.522 24.4072C328.556 24.8222 328.556 25.2518 328.516 25.6934C328.44 26.5809 328.13 27.3892 327.774 28.123C328.347 26.6533 328.494 25.2479 328.522 24.4072ZM72.6836 24.4072C72.7173 24.8222 72.7171 25.2518 72.6768 25.6934C72.6044 26.5482 72.3146 27.3298 71.9756 28.042C72.5173 26.602 72.6562 25.2323 72.6836 24.4072ZM302.183 24.4434C302.208 25.2562 302.34 26.5714 302.845 27.9609C302.528 27.2708 302.263 26.5155 302.193 25.6934C302.154 25.2647 302.152 24.8471 302.183 24.4434ZM46.3438 24.4434C46.3684 25.2402 46.4968 26.5196 46.9775 27.8789C46.6725 27.211 46.4214 26.4831 46.3545 25.6934C46.3153 25.2647 46.313 24.8471 46.3438 24.4434ZM58.9297 11.7236L59.5635 11.6475L60.1279 11.7236C60.1536 11.6579 60.1799 11.5924 60.2061 11.5273C60.6982 12.0724 61.4784 12.7487 62.625 13.2607C64.673 14.136 65.452 18.5933 65.457 18.6221C66.7616 18.527 67.9558 18.7327 68.9824 19.1758C67.9557 19.6191 66.7618 19.8255 65.457 19.7305C65.457 19.7305 64.6798 24.1675 62.6807 25.0918C61.5882 25.5575 60.816 26.1835 60.3076 26.708C60.2637 26.5934 60.2202 26.4777 60.1777 26.3613L59.5889 26.4414L58.9834 26.3613C58.9287 26.5 58.8713 26.6373 58.8145 26.7734C58.3217 26.2362 57.5446 25.5771 56.4062 25.0918C54.3516 24.1675 53.5742 19.7305 53.5742 19.7305C52.2694 19.8255 51.0756 19.6191 50.0488 19.1758C51.0755 18.7326 52.2696 18.527 53.5742 18.6221C53.5792 18.5934 54.358 14.136 56.3506 13.2607C57.5216 12.7378 58.3246 12.043 58.8291 11.4922C58.8624 11.569 58.8971 11.646 58.9297 11.7236ZM315.981 11.4873C316.486 12.039 317.29 12.7362 318.465 13.2607C320.513 14.1364 321.236 18.5968 321.24 18.6221C322.565 18.5268 323.774 18.7347 324.811 19.1807C323.786 19.6207 322.597 19.8251 321.297 19.7305C321.297 19.7305 320.519 24.1673 318.465 25.0918C317.369 25.5705 316.597 26.2178 316.097 26.751C316.043 26.6223 315.99 26.4923 315.938 26.3613L315.299 26.4424L314.734 26.3613C314.687 26.4877 314.638 26.613 314.59 26.7373C314.082 26.207 313.302 25.5661 312.189 25.0918C310.19 24.1675 309.412 19.7305 309.412 19.7305C308.108 19.8255 306.914 19.6191 305.888 19.1758C306.914 18.7327 308.108 18.5271 309.412 18.6221C309.415 18.6053 310.194 14.1372 312.189 13.2607C313.362 12.7374 314.15 12.0413 314.64 11.4902C314.671 11.5678 314.704 11.6453 314.734 11.7236L315.285 11.6494L315.88 11.7236C315.913 11.6444 315.947 11.5656 315.981 11.4873ZM9.12012 22.4814C9.11218 22.493 9.1038 22.5042 9.0957 22.5156C9.10425 22.5045 9.11178 22.4927 9.12012 22.4814ZM10.6475 21.4414C10.5628 21.5506 10.4719 21.6377 10.376 21.71C10.472 21.6376 10.5627 21.5499 10.6475 21.4404V21.4414ZM10.6465 19.708V19.707V19.708ZM10.001 18.1904C10.3593 18.6441 10.6905 19.1195 10.9727 19.6299C10.9718 19.6291 10.9707 19.6286 10.9697 19.6279L10.9717 19.6289C10.6839 19.1216 10.3563 18.6456 10.001 18.1904ZM336.02 0C337.551 7.66849e-05 338.803 1.155 338.982 2.63477C339.526 2.97814 340.126 3.58634 340.506 4.66797C340.234 4.67758 339.958 4.67766 339.678 4.66406C339.678 4.66406 340.066 11.8737 335.401 11.874C330.737 11.874 330.459 4.43319 327.404 5.91211C326.218 6.47941 326.285 7.24644 326.734 8.22363C325.618 6.65662 323.815 5.28993 320.907 4.80273L319.686 6.00488C326.22 6.58604 328.138 13.133 328.461 14.46C328.234 15.8989 327.563 17.1347 326.565 18.0508C325.545 17.5769 324.241 17.2542 322.573 17.1895C322.573 17.1895 321.797 13.0761 318.687 11.8281C317.68 11.4382 316.972 10.9402 316.474 10.4395C319.388 4.67511 324.458 1.49123 327.541 0H336.02ZM85.1182 0C87.426 0.872405 89.0704 1.89722 90.2363 2.86621C88.5058 3.95417 86.3418 4.78462 83.8379 4.66406C83.8379 4.66406 84.227 11.8739 79.5625 11.874C74.8981 11.874 74.6202 4.43409 71.5664 5.91211C70.4225 6.45899 70.4403 7.19262 70.8457 8.12012C69.7245 6.59662 67.9308 5.27919 65.0684 4.80273L63.9023 6.00488C70.3865 6.58604 72.2995 13.133 72.6221 14.46C72.3962 15.8953 71.7282 17.1285 70.7344 18.0439C69.7125 17.5736 68.4052 17.2539 66.7344 17.1895C66.7317 17.1753 65.9519 13.0739 62.8477 11.8281C61.8617 11.4395 61.1664 10.9435 60.6768 10.4443C63.3825 4.67716 68.0919 1.49178 70.9561 0H85.1182ZM47.3115 0C50.3858 1.49239 55.4414 4.68034 58.3438 10.4531C57.8546 10.949 57.1631 11.442 56.1836 11.8281C53.0235 13.0741 52.2992 17.1764 52.2969 17.1895C50.6277 17.2538 49.3189 17.5724 48.2939 18.042C47.3015 17.1268 46.6339 15.8941 46.4082 14.46C46.7312 13.1335 48.6502 6.58607 55.1846 6.00488L53.9629 4.80273C51.0555 5.28993 49.2522 6.65662 48.1357 8.22363C48.5851 7.24648 48.6521 6.47941 47.4658 5.91211C44.4116 4.43319 44.1334 11.874 39.4688 11.874C34.8043 11.8739 35.1934 4.66406 35.1934 4.66406C34.5477 4.69541 33.9243 4.66207 33.3252 4.57715C33.7544 3.42581 34.4479 2.83094 35.0342 2.52246C35.2617 1.09696 36.4907 0.000123896 37.9834 0H47.3115ZM303.906 0C306.77 1.49144 311.478 4.67576 314.184 10.4404C313.701 10.9408 313.011 11.4385 312.022 11.8281C308.857 13.0761 308.136 17.1895 308.136 17.1895C306.466 17.2538 305.158 17.5724 304.133 18.042C303.14 17.1268 302.473 15.8941 302.247 14.46C302.569 13.1334 304.483 6.58611 310.968 6.00488L309.802 4.80273C306.939 5.27925 305.145 6.59639 304.023 8.12012C304.429 7.19249 304.448 6.45905 303.305 5.91211C300.25 4.43319 299.916 11.874 295.308 11.874C290.643 11.8737 291.031 4.66406 291.031 4.66406C288.548 4.78454 286.388 3.95449 284.656 2.86621C285.825 1.89698 287.469 0.872623 289.769 0H303.906ZM359.504 9.85645C361.851 10.2514 364.206 11.8333 365.833 12.207C365.821 12.2234 365.188 13.1068 366.286 13.2764C367.393 13.4903 367.242 12.5059 367.242 12.5059C367.25 12.5076 367.803 12.6352 368.752 12.6777C368.584 12.8204 368.433 12.9483 368.299 13.0625C368.064 13.3193 367.829 13.5906 367.594 13.876C366.94 14.3468 366.386 14.9886 365.883 15.5449H366.386C366.051 15.7446 365.749 15.9449 365.48 16.1445C365.354 16.2404 365.225 16.3372 365.097 16.4355C360.224 15.2708 359.587 10.9632 359.504 9.85645ZM14.0928 9.52344C13.8796 12.7807 11.6143 14.9648 11.5898 14.9883C10.786 15.1591 9.58104 15.6709 8.27539 16.2686C7.64299 15.6277 6.98863 14.9993 6.35547 14.3467H6.40527C6.25434 14.0901 6.05324 13.9189 5.80176 13.7051C5.49976 13.2343 5.29825 12.72 4.79492 12.5488H4.74414V12.3779C5.73765 12.2934 6.38845 12.1673 6.40527 12.1641C6.40352 12.1757 6.26164 13.1474 7.3623 12.9346C8.46918 12.7205 7.81445 11.8643 7.81445 11.8643C9.42886 11.4932 11.7623 9.93245 14.0928 9.52344ZM47.0029 10.416C46.4978 11.8205 46.3704 13.1437 46.3467 13.9365C46.3137 13.5245 46.3145 13.0983 46.3545 12.6602C46.4233 11.8476 46.6859 11.0996 47.0029 10.416ZM327.865 10.4141C328.183 11.0983 328.447 11.8466 328.516 12.6602C328.556 13.098 328.555 13.5238 328.522 13.9355C328.499 13.1421 328.371 11.8188 327.865 10.4141ZM72.1162 10.6133C72.3926 11.2429 72.6145 11.9249 72.6768 12.6602C72.7153 13.0824 72.7168 13.4936 72.6875 13.8916C72.666 13.1324 72.5512 11.9176 72.1162 10.6133ZM302.753 10.6133C302.318 11.9175 302.203 13.1324 302.182 13.8916C302.152 13.4936 302.155 13.0824 302.193 12.6602C302.256 11.925 302.477 11.2428 302.753 10.6133ZM59.9043 1.15234C62.0759 1.87528 63.328 3.1653 63.7715 3.69238C62.3325 5.19533 60.9748 7.07012 59.9082 9.39844C59.5571 8.73655 59.5164 8.23372 59.5156 8.22363C59.5149 8.2333 59.4783 8.69318 59.1689 9.31152C58.115 7.20995 56.8115 5.48047 55.4238 4.0625C55.8759 3.57205 57.5129 1.93294 59.9043 1.15234ZM315.688 1.15234C318.068 1.92912 319.349 3.35929 319.697 3.7959C318.199 5.26964 316.787 7.0949 315.669 9.3457C315.339 8.7108 315.301 8.23449 315.3 8.22363C315.299 8.23285 315.27 8.72363 314.943 9.37402C313.943 7.1944 312.69 5.41323 311.355 3.96289C311.91 3.37983 313.482 1.88644 315.688 1.15234ZM59.2139 0C56.4601 1.17342 54.8742 2.52335 54.3379 3.02832C52.8721 1.72551 51.3625 0.739468 49.9941 0H59.2139ZM315.007 0C312.488 1.08797 310.946 2.32619 310.309 2.90332C308.989 1.66198 307.634 0.71572 306.402 0H315.007ZM324.887 0C323.555 0.715188 322.091 1.66042 320.665 2.90039C320.376 2.53461 319.206 1.23234 316.366 0H324.887ZM68.4912 0C67.3088 0.683792 66.0144 1.57822 64.7461 2.73926C64.3018 2.23683 63.0967 1.09085 60.583 0H68.4912ZM93.6113 0C93.0092 0.665704 92.1952 1.46207 91.1953 2.20801C89.9461 1.31091 88.5387 0.574308 87.1826 0H93.6113ZM287.688 0C286.336 0.572573 284.932 1.3058 283.686 2.19922C282.688 1.45576 281.874 0.663119 281.27 0H287.688Z" fill="white"/>
<path d="M9.17395 22.3933C9.2075 22.4218 9.24106 22.4361 9.27461 22.4361C12.6973 23.8913 12.6973 26.1169 12.6973 26.1169C12.2443 26.0741 11.59 26.3737 11.892 27.0585C12.194 27.7005 13.1 27.3581 13.1 27.3581C14.1066 28.2997 13.6536 30.4398 13.6536 30.4398C14.7609 27.3581 13.4523 25.4749 13.4523 25.4749C13.4523 25.4749 14.0059 25.3465 13.8046 24.7045C13.5026 23.9341 12.798 24.3193 12.798 24.3193C12.5966 23.8057 11.3886 22.9069 11.3886 22.9069C12.7476 22.8213 12.7476 21.8797 12.7476 21.8797C13.0496 21.8797 13.7543 21.7941 14.6099 21.4945C15.5663 21.152 16.5226 20.4244 16.5226 20.4244C16.5226 20.4244 16.7239 20.8524 17.0259 20.8524C17.3279 20.8524 17.6802 20.6812 17.6299 20.296C17.5796 19.9536 17.1769 19.3972 16.0696 20.0392C14.3079 21.1092 12.1436 21.3232 12.1436 21.3232C12.1436 21.3232 11.3886 22.5645 10.382 21.7085C10.1303 21.9225 9.77794 22.0081 9.37528 22.0509C9.30817 22.165 9.24106 22.2791 9.17395 22.3933Z" fill="#CD9974"/>
<path d="M8.51953 23.1638C8.6202 23.1923 8.72086 23.2209 8.82153 23.2494C12.3448 24.2766 12.6971 26.117 12.6971 26.117C12.6971 26.117 12.8481 23.8486 9.02286 22.6074C8.85508 22.7786 8.68731 22.9641 8.51953 23.1638Z" fill="#CD9974"/>
<path d="M8.51956 16.5297C12.8482 15.3313 12.6972 12.8489 12.6972 12.8489C12.6972 12.8489 12.3449 14.6893 8.82156 15.7165C8.51956 15.8021 8.25112 15.8877 8.01624 15.9733C8.18401 16.1445 8.35179 16.33 8.51956 16.5297Z" fill="#CD9974"/>
<path d="M9.67727 17.7708C9.91216 17.6567 10.1471 17.4997 10.382 17.3C11.3886 16.3584 12.1436 17.6424 12.1436 17.6424C12.1436 17.6424 14.3079 17.8564 16.0696 18.9264C17.1769 19.5684 17.5796 19.012 17.6299 18.6696C17.6802 18.2844 17.3279 18.1132 17.0259 18.1132C16.7239 18.1132 16.5226 18.5412 16.5226 18.5412C16.5226 18.5412 15.5663 17.8136 14.6099 17.4712C13.7543 17.1716 13.0496 17.086 12.7476 17.086C12.7476 17.086 12.7476 16.1444 11.3886 16.0588C11.3886 16.0588 12.5966 15.16 12.798 14.6464C12.798 14.6464 13.5026 15.0316 13.8046 14.2612C14.0059 13.6192 13.4523 13.4908 13.4523 13.4908C13.4523 13.4908 14.7609 11.6075 13.6536 8.52588C13.6536 8.52588 14.1066 10.6659 13.0999 11.6075C13.0999 11.6075 12.194 11.2651 11.892 11.9071C11.59 12.592 12.2443 12.8916 12.6973 12.8488C12.6973 12.8488 12.6973 15.1172 9.27461 16.5296C9.07328 16.6152 8.88872 16.6865 8.72095 16.7436C9.0565 17.086 9.37527 17.4284 9.67727 17.7708Z" fill="#CD9974"/>
<path d="M11.4388 19.0548C17.0761 17.0432 16.1701 14.0472 16.2204 12.9344C16.2708 11.8215 17.6801 11.6931 17.6801 11.6931C17.6801 11.6931 16.7741 12.0355 17.0258 13.2768C17.3781 14.9032 16.2708 16.1872 16.2708 16.1872C16.2708 16.1872 17.7807 15.16 20.2471 17.0004C20.2471 17.0004 17.6297 15.6308 16.2204 16.7864C15.5661 17.3428 14.2071 19.1832 11.7408 19.4828C14.2071 19.7824 15.5661 21.6229 16.2204 22.1793C17.6297 23.3349 20.2471 21.9653 20.2471 21.9653C17.7807 23.8057 16.2708 22.7785 16.2708 22.7785C16.2708 22.7785 17.3781 24.0625 17.0258 25.6889C16.7741 26.9301 17.6801 27.3153 17.6801 27.3153C17.6801 27.3153 16.2708 27.1441 16.2204 26.0313C16.1701 24.9185 17.0761 21.9225 11.4388 19.9108V19.0548Z" fill="#CD9974"/>
<path d="M23.6698 19.4828C22.7135 18.4556 20.6498 18.6696 20.6498 18.6696C20.5995 17.1716 18.7875 17.1288 18.7875 17.1288C18.7875 17.1288 18.7875 17.5568 18.2338 17.6424C17.6802 17.728 17.5292 17.514 17.3782 17.2144C17.2775 17.0004 17.4285 16.3584 18.0828 16.3584C18.7372 16.3584 20.6498 16.7008 21.3041 18.1132C21.3041 18.1132 23.5691 17.8992 24.7771 19.4828C23.5691 21.0665 21.3041 20.8525 21.3041 20.8525C20.6498 22.3077 18.7372 22.6073 18.0828 22.6073C17.4285 22.6073 17.2775 21.9653 17.3782 21.7085C17.5292 21.4945 17.6802 21.2377 18.2338 21.3233C18.7875 21.4089 18.7875 21.8369 18.7875 21.8369C18.7875 21.8369 20.5995 21.7941 20.6498 20.296C20.6498 20.296 22.7135 20.51 23.6698 19.4828Z" fill="#CD9974"/>
<path d="M10.5833 18.9693C11.2377 18.5841 11.288 17.8137 11.288 17.8137C11.288 17.8137 10.684 17.9849 10.08 18.3273C10.2478 18.527 10.4155 18.741 10.5833 18.9693Z" fill="white"/>
<path d="M11.2879 19.7397C11.2543 19.8253 11.2375 19.8966 11.2375 19.9537C11.6402 19.9537 12.1435 19.8253 12.6469 19.4829C11.8919 18.8837 11.0362 18.9265 10.6335 19.0121C10.7678 19.2118 10.8852 19.4258 10.9859 19.6541C10.9859 19.5685 10.5832 19.5685 10.0295 19.5685V19.6969C10.4322 19.6969 10.8516 19.7111 11.2879 19.7397Z" fill="white"/>
<path d="M36.102 25.5605C36.0516 26.2454 34.743 29.1986 32.2263 29.1986C29.6594 29.1986 28.8037 27.187 28.8037 27.187C28.8037 27.187 29.6594 28.2998 31.2197 28.2998C32.025 28.2998 32.025 27.6578 32.6793 27.6578C33.3337 27.6578 33.4343 28.2998 33.0317 28.5994C33.0317 28.5994 34.9947 28.1714 35.9006 25.5605H36.102Z" fill="#CD9974"/>
<path d="M36.102 29.0703C36.102 29.0703 33.5854 27.9147 33.7364 26.117C33.7364 26.117 30.9177 26.2026 30.9177 24.9614C30.9177 23.6774 33.7867 23.5918 33.233 22.7786C32.7297 22.051 31.9244 22.9926 30.6157 23.0782C29.0051 23.1638 27.7971 22.3078 27.8977 21.1094C27.8977 21.1094 26.1864 20.8954 25.8844 20.339C25.4818 19.697 24.8274 19.483 24.8274 19.483C24.8274 19.483 25.4818 19.2262 25.8844 18.6269C26.1864 18.0705 27.8977 17.8565 27.8977 17.8565C27.7971 16.6581 29.0051 15.8021 30.6157 15.8877C31.9244 15.9733 32.7297 16.9149 33.233 16.1873C33.7867 15.3741 30.9177 15.2885 30.9177 14.0473C30.9177 12.7633 33.7364 12.8489 33.7364 12.8489C33.5854 11.0513 36.102 9.89564 36.102 9.89564L35.8503 9.68164C35.8503 9.68164 33.4847 10.4948 33.1827 12.3353C33.1827 12.3353 29.3574 12.1641 30.1124 15.4597C30.1124 15.4597 27.4951 15.2457 27.3944 17.5141C27.3944 17.5141 25.7838 17.7281 25.3308 18.5841C24.8274 19.4402 23.9214 19.483 23.9214 19.483C23.9214 19.483 24.8274 19.5258 25.3308 20.3818C25.7838 21.2378 27.3944 21.4518 27.3944 21.4518C27.4951 23.7202 30.1124 23.5062 30.1124 23.5062C29.3574 26.8019 33.1827 26.6306 33.1827 26.6306C33.4847 28.4711 35.8503 29.2843 35.8503 29.2843L36.102 29.0703Z" fill="#CD9974"/>
<path d="M36.102 13.4052C36.0516 12.7203 34.743 9.76709 32.2263 9.76709C29.6594 9.76709 28.8037 11.8215 28.8037 11.8215C28.8037 11.8215 29.6594 10.7087 31.2197 10.7087C32.025 10.7087 32.025 11.3079 32.6793 11.3079C33.3337 11.3079 33.4343 10.7087 33.0317 10.3663C33.0317 10.3663 34.9947 10.7943 35.9006 13.4052H36.102Z" fill="#CD9974"/>
<path d="M30.7164 19.44C30.6157 20.7668 28.401 20.9808 28.401 20.9808C28.401 20.2104 29.4077 19.9536 29.4077 19.9536C28.099 20.2532 27.3441 19.3544 27.3441 19.3544C27.3441 19.3544 28.099 18.7124 29.4077 19.0548C29.4077 19.0548 28.401 18.798 28.401 18.0276C28.401 18.0276 30.6157 18.0704 30.7164 19.44Z" fill="white"/>
<path d="M4.09026 10.666C4.09026 10.666 3.73793 12.378 4.54325 13.1912C4.54325 13.1912 5.29825 12.8916 5.54991 13.4481C5.80158 13.9617 5.24791 14.2185 4.89558 14.1757C4.89558 14.1757 4.89558 16.0161 7.71423 17.1717C8.51955 17.5141 8.97255 17.6853 8.82155 18.1133C8.67055 18.5841 7.66389 18.5413 6.80823 17.8137C5.95257 17.0433 5.34858 18.0705 5.34858 18.0705C5.34858 18.0705 3.58693 18.2845 2.17761 19.1405C1.27162 19.6541 0.919286 19.1833 0.868953 18.9265C0.81862 18.6269 1.12062 18.4557 1.37228 18.4557C1.62395 18.4557 1.77494 18.8409 1.77494 18.8409C1.77494 18.8409 2.58027 18.2417 3.33526 17.9421C4.03993 17.6853 4.59359 17.6425 4.84525 17.6425C4.84525 17.6425 4.84525 16.8721 5.95258 16.7865C5.95258 16.7865 4.94592 16.0589 4.79492 15.6737C4.79492 15.6737 4.24126 15.9733 3.98959 15.3313C3.83859 14.8177 4.24126 14.6893 4.24126 14.6893C4.24126 14.6893 3.2346 13.1912 4.09026 10.666Z" fill="#CD9974"/>
<path d="M9.97928 19.5686C10.2813 19.5258 10.684 19.4402 10.8853 18.627C11.137 17.771 10.3316 17.1718 8.06663 16.5298C5.14732 15.6738 4.89566 14.1758 4.89566 14.1758C4.89566 14.1758 4.79499 16.273 8.46929 17.2146C10.0297 17.6426 10.1303 17.985 10.1303 18.4986C10.1303 19.055 9.27462 19.4402 8.06663 19.269V19.911C9.27462 19.7398 10.1303 20.125 10.1303 20.6814C10.1303 21.195 10.0297 21.5374 8.46929 21.9655C4.79499 22.9071 4.89566 25.0043 4.89566 25.0043C4.89566 25.0043 5.14732 23.5063 8.06663 22.6503C10.3316 22.0083 11.137 21.409 10.8853 20.553C10.684 19.7398 10.2813 19.6542 9.97928 19.5686Z" fill="#CD9974"/>
<path d="M4.09026 28.5138C4.09026 28.5138 3.73793 26.8018 4.54325 25.9886C4.54325 25.9886 5.29825 26.2882 5.54991 25.7746C5.80158 25.2182 5.24791 24.9614 4.89558 25.0042C4.89558 25.0042 4.89558 23.1637 7.71423 22.0081C8.51955 21.6657 8.97255 21.4945 8.82155 21.0665C8.67055 20.5957 7.66389 20.6385 6.80823 21.3661C5.95257 22.1365 5.34858 21.1093 5.34858 21.1093C5.34858 21.1093 3.58693 20.8953 2.17761 20.0821C1.27162 19.5257 0.919286 19.9965 0.868953 20.2533C0.81862 20.5529 1.12062 20.7241 1.37228 20.7241C1.62395 20.7241 1.77494 20.3389 1.77494 20.3389C1.77494 20.3389 2.58027 20.9381 3.33526 21.2377C4.03993 21.4945 4.59359 21.5373 4.84525 21.5373C4.84525 21.5373 4.84525 22.3077 5.95258 22.3933C5.95258 22.3933 4.94592 23.1209 4.79492 23.5061C4.79492 23.5061 4.24126 23.2065 3.98959 23.8486C3.83859 24.3622 4.24126 24.4906 4.24126 24.4906C4.24126 24.4906 3.2346 25.9886 4.09026 28.5138Z" fill="#CD9974"/>
<path d="M14.3583 19.5685C12.9489 20.8953 10.7343 21.3661 10.7343 21.3661C10.9356 21.1521 10.9356 20.6385 10.9356 20.6385C10.9356 20.6385 12.1939 20.5101 13.4523 19.5685C12.1939 18.6697 10.9356 18.5413 10.9356 18.5413C10.9356 18.5413 10.9356 18.0277 10.7343 17.8137C10.7343 17.8137 12.9489 18.2845 14.3583 19.5685Z" fill="#CD9974"/>
<path d="M7.8149 19.5685C7.8149 20.5101 6.05325 20.9381 6.05325 20.9381C6.05325 20.9381 6.10358 20.1677 6.80824 19.9109C6.80824 19.9109 5.80158 20.2533 4.94592 19.5685C5.85191 18.9693 6.80824 19.2689 6.80824 19.2689C6.10358 19.0121 6.05325 18.2417 6.05325 18.2417C6.05325 18.2417 7.8149 18.6269 7.8149 19.5685Z" fill="white"/>
<path d="M7.36194 19.1406C7.36194 18.627 8.01627 18.627 8.01627 19.1406V20.2534C8.01627 20.767 7.36194 20.767 7.36194 20.2534V19.1406Z" fill="#CD9974"/>
<path d="M31.1191 19.3545C35.2464 20.4245 36.102 23.3349 36.102 23.3349L35.7497 23.3777C35.7497 23.3777 34.6424 20.7241 31.0687 19.6969L31.1191 19.3545Z" fill="#CD9974"/>
<path d="M33.686 20.981L33.1827 20.6814C32.931 22.6502 29.8607 23.0782 29.8607 23.0782C29.8607 23.0782 33.1324 23.2494 33.686 20.981Z" fill="#CD9974"/>
<path d="M31.1191 19.6112C35.2464 18.5411 36.102 15.6307 36.102 15.6307L35.7497 15.5879C35.7497 15.5879 34.6424 18.2415 31.0687 19.2688L31.1191 19.6112Z" fill="#CD9974"/>
<path d="M33.686 17.9849L33.1827 18.2845C32.931 16.3157 29.8607 15.8877 29.8607 15.8877C29.8607 15.8877 33.1324 15.7165 33.686 17.9849Z" fill="#CD9974"/>
<path d="M35.5986 19.3972C35.045 18.3272 34.3403 18.0276 34.3403 18.0276L33.988 18.2844C33.988 18.2844 34.6927 18.6268 35.045 19.3972C34.6927 20.1676 33.8873 20.6384 33.8873 20.6384L34.29 20.938C34.29 20.938 35.045 20.4672 35.5986 19.3972Z" fill="#CD9974"/>
<path d="M36.102 29.3269C34.3403 30.1829 33.8873 31.9806 33.8873 31.9806C34.8437 32.0662 35.2463 31.1674 35.2463 31.1674C34.9947 32.1946 36.102 33.3502 36.102 33.3502V29.3269Z" fill="white"/>
<path d="M36.102 23.335C34.441 23.4206 34.1893 25.261 34.1893 25.261C35.0953 25.261 35.3973 24.4478 35.3973 24.4478C35.045 25.475 36.102 26.1598 36.102 26.1598V23.335Z" fill="white"/>
<path d="M36.102 9.63873C34.3403 8.73992 33.8873 6.98509 33.8873 6.98509C34.8437 6.89949 35.2463 7.7983 35.2463 7.7983C34.9947 6.77109 36.102 5.61548 36.102 5.61548V9.63873Z" fill="white"/>
<path d="M36.102 15.6308C34.441 15.5452 34.1893 13.7047 34.1893 13.7047C35.0953 13.7047 35.3973 14.518 35.3973 14.518C35.045 13.4907 36.102 12.8059 36.102 12.8059V15.6308Z" fill="white"/>
<path d="M31.1694 20.1247C31.1694 20.7668 30.3641 20.8096 30.3641 20.1247V18.7979C30.3641 18.1559 31.1694 18.1559 31.1694 18.7979V20.1247Z" fill="#CD9974"/>
<path d="M36.1021 29.8835H34.9948C34.0888 29.8835 34.1391 29.0703 34.9948 29.0703H36.1021V29.8835Z" fill="#CD9974"/>
<path d="M36.102 15.9734H35.196C34.3907 15.9734 34.3907 15.2886 35.196 15.2886H36.102V15.9734Z" fill="#CD9974"/>
<path d="M36.102 23.5918H35.196C34.3907 23.5918 34.3907 22.907 35.196 22.907H36.102V23.5918Z" fill="#CD9974"/>
<path d="M36.1021 9.03955H34.9948C34.0888 9.03955 34.1391 9.80996 34.9948 9.80996H36.1021V9.03955Z" fill="#CD9974"/>
<path d="M356.018 18.9692C356.068 19.3116 356.471 19.868 357.578 19.226C359.34 18.156 361.504 17.942 361.504 17.942C361.504 17.942 362.259 16.658 363.266 17.5996C363.366 17.6566 363.45 17.7137 363.517 17.7708C363.853 17.4569 364.188 17.1573 364.524 16.872C364.49 16.872 364.44 16.8577 364.373 16.8292C360.95 15.4167 360.95 13.1483 360.95 13.1483C361.403 13.1911 362.058 12.8915 361.756 12.2067C361.454 11.5647 360.548 11.9071 360.548 11.9071C359.541 10.9655 359.994 8.82544 359.994 8.82544C358.887 11.9071 360.195 13.7903 360.195 13.7903C360.195 13.7903 359.642 13.9187 359.843 14.5607C360.145 15.3311 360.85 14.9459 360.85 14.9459C361.051 15.4595 362.259 16.3584 362.259 16.3584C360.9 16.444 360.9 17.3856 360.9 17.3856C360.598 17.3856 359.893 17.4712 359.038 17.7708C358.081 18.156 357.125 18.8408 357.125 18.8408C357.125 18.8408 356.924 18.4128 356.622 18.4128C356.32 18.4128 355.967 18.584 356.018 18.9692Z" fill="#CD9974"/>
<path d="M365.229 22.6931C360.799 23.8915 360.95 26.4167 360.95 26.4167C360.95 26.4167 361.303 24.5763 364.826 23.5491C365.195 23.435 365.531 23.3351 365.833 23.2495C365.631 23.0783 365.43 22.8928 365.229 22.6931Z" fill="#CD9974"/>
<path d="M364.725 16.7009C364.96 16.5297 365.195 16.3585 365.43 16.1873C365.229 16.1302 365.027 16.0731 364.826 16.0161C361.303 14.9889 360.95 13.1484 360.95 13.1484C360.95 13.1484 360.799 15.5025 364.725 16.7009Z" fill="#CD9974"/>
<path d="M356.622 21.1521C356.924 21.1521 357.125 20.7241 357.125 20.7241C357.125 20.7241 358.081 21.4517 359.038 21.7941C359.893 22.0937 360.598 22.1793 360.9 22.1793C360.9 22.1793 360.9 23.121 362.259 23.2066C362.259 23.2066 361.051 24.1054 360.85 24.619C360.85 24.619 360.145 24.2338 359.843 25.0042C359.642 25.6462 360.195 25.7746 360.195 25.7746C360.195 25.7746 358.887 27.6578 359.994 30.7395C359.994 30.7395 359.541 28.5994 360.548 27.6578C360.548 27.6578 361.454 28.0002 361.756 27.3582C362.058 26.6734 361.403 26.3738 360.95 26.4166C360.95 26.4166 360.95 24.191 364.373 22.7358C364.608 22.6502 364.826 22.5646 365.027 22.479C364.692 22.1651 364.356 21.8369 364.021 21.4945C363.786 21.6087 363.534 21.7656 363.266 21.9653C362.259 22.907 361.504 21.6229 361.504 21.6229C361.504 21.6229 359.34 21.4089 357.578 20.3817C356.471 19.6969 356.068 20.2533 356.018 20.5957C355.967 20.9809 356.32 21.1521 356.622 21.1521Z" fill="#CD9974"/>
<path d="M353.401 17.3C353.401 17.3 356.018 15.9304 357.427 17.086C358.081 17.6424 359.44 19.4828 361.907 19.7824C359.44 20.0821 358.081 21.9225 357.427 22.4789C356.018 23.6345 353.401 22.2649 353.401 22.2649C355.867 24.1053 357.377 23.0781 357.377 23.0781C357.377 23.0781 356.269 24.3621 356.622 25.9885C356.873 27.2297 355.968 27.6149 355.968 27.6149C355.968 27.6149 357.377 27.4437 357.427 26.3309C357.477 25.2181 356.571 22.2221 362.209 20.2105V19.9108C362.075 19.9108 362.007 19.9108 362.007 19.9108C362.007 19.9108 362.007 19.8966 362.007 19.868C362.075 19.7254 362.142 19.597 362.209 19.4828V19.3544C356.571 17.3428 357.477 14.3468 357.427 13.234C357.377 12.1212 355.968 11.95 355.968 11.95C355.968 11.95 356.873 12.3352 356.622 13.5764C356.269 15.2028 357.377 16.4868 357.377 16.4868C357.377 16.4868 355.867 15.4596 353.401 17.3Z" fill="#CD9974"/>
<path d="M349.978 19.7826C350.934 20.8098 352.998 20.5958 352.998 20.5958C353.048 22.0938 354.86 22.1366 354.86 22.1366C354.86 22.1366 354.86 21.7086 355.414 21.623C355.968 21.5374 356.119 21.7942 356.27 22.051C356.37 22.265 356.219 22.9071 355.565 22.9071C354.911 22.9071 352.998 22.6075 352.344 21.1522C352.344 21.1522 350.079 21.3662 348.871 19.7826C350.079 18.199 352.344 18.413 352.344 18.413C352.998 17.0006 354.911 16.6582 355.565 16.6582C356.219 16.6582 356.37 17.3002 356.27 17.557C356.119 17.771 355.968 18.0278 355.414 17.9422C354.86 17.8566 354.86 17.4286 354.86 17.4286C354.86 17.4286 353.048 17.4714 352.998 18.9694C352.998 18.9694 350.934 18.7554 349.978 19.7826Z" fill="#CD9974"/>
<path d="M363.518 20.981C363.316 20.8098 363.115 20.6243 362.914 20.4246C362.41 20.8098 362.36 21.4518 362.36 21.4518C362.36 21.4518 362.964 21.2806 363.518 20.981Z" fill="white"/>
<path d="M362.008 19.9108C362.008 19.8822 362.008 19.868 362.008 19.868C362.108 19.6682 362.192 19.4827 362.259 19.3115C361.907 19.3543 361.454 19.4827 361.001 19.7824C361.605 20.296 362.309 20.3388 362.813 20.296C362.679 20.1533 362.561 20.0249 362.46 19.9108C362.158 19.9108 362.008 19.9108 362.008 19.9108Z" fill="white"/>
<path d="M337.747 29.4554C337.747 29.4554 340.264 28.2569 340.113 26.4593C340.113 26.4593 342.881 26.5449 342.881 25.3037C342.881 24.0197 340.012 23.9341 340.566 23.1209C341.069 22.3933 341.925 23.3349 343.183 23.4205C344.844 23.5061 346.052 22.6501 345.901 21.4517C345.901 21.4517 347.612 21.2377 347.965 20.6813C348.367 20.082 348.971 19.8252 348.971 19.8252C348.971 19.8252 348.367 19.6112 347.965 18.9692C347.612 18.4128 345.901 18.2416 345.901 18.2416C346.052 17.0004 344.844 16.1444 343.183 16.2728C341.925 16.3156 341.069 17.2572 340.566 16.5724C340.012 15.7164 342.881 15.6308 342.881 14.3896C342.881 13.1056 340.113 13.234 340.113 13.234C340.264 11.3935 337.747 10.2379 337.747 10.2379L337.948 10.0239C337.948 10.0239 340.314 10.8371 340.666 12.7204C340.666 12.7204 344.441 12.5064 343.737 15.802C343.737 15.802 346.354 15.588 346.455 17.8564C346.455 17.8564 348.015 18.0704 348.518 18.9264C348.971 19.7824 349.928 19.8252 349.928 19.8252C349.928 19.8252 348.971 19.868 348.518 20.7241C348.015 21.5801 346.455 21.7941 346.455 21.7941C346.354 24.0625 343.737 23.8913 343.737 23.8913C344.441 27.1441 340.666 26.9729 340.666 26.9729C340.314 28.8134 337.948 29.6694 337.948 29.6694L337.747 29.4554Z" fill="#CD9974"/>
<path d="M369.255 28.6421C369.255 28.6421 369.608 26.8873 368.802 26.1169C368.802 26.1169 368.098 26.3737 367.846 25.8601C367.594 25.3037 368.148 25.0897 368.45 25.1325C368.45 25.1325 368.5 23.2493 365.682 22.0936C364.876 21.794 364.423 21.6228 364.574 21.152C364.725 20.6812 365.732 20.724 366.588 21.4944C367.443 22.222 368.047 21.1948 368.047 21.1948C368.047 21.1948 369.809 21.0236 371.218 20.1676C372.124 19.6112 372.477 20.082 372.527 20.3816C372.577 20.6384 372.275 20.8096 372.024 20.8096C371.772 20.8096 371.621 20.4672 371.621 20.4672C371.621 20.4672 370.816 21.0236 370.061 21.3232C369.356 21.58 368.752 21.6228 368.5 21.6656C368.5 21.6656 368.5 22.436 367.443 22.4788C367.443 22.4788 368.4 23.2065 368.551 23.6345C368.551 23.6345 369.155 23.3349 369.356 23.9769C369.557 24.4905 369.104 24.5761 369.104 24.5761C369.104 24.5761 370.161 26.1169 369.255 28.6421Z" fill="#CD9974"/>
<path d="M363.417 19.6969C363.115 19.7825 362.712 19.8681 362.46 20.6385C362.259 21.5373 363.014 22.0937 365.329 22.7785C368.198 23.5917 368.45 25.1326 368.45 25.1326C368.45 25.1326 368.601 22.9925 364.927 22.0509C363.316 21.6657 363.215 21.3233 363.215 20.7669C363.215 20.2533 364.071 19.8253 365.329 19.9965V19.3973C364.071 19.5685 363.215 19.1405 363.215 18.6269C363.215 18.0705 363.316 17.7281 364.927 17.3429C368.601 16.3585 368.45 14.2612 368.45 14.2612C368.45 14.2612 368.198 15.802 365.329 16.6153C363.014 17.3001 362.259 17.8565 362.46 18.7125C362.712 19.5257 363.115 19.6113 363.417 19.6969Z" fill="#CD9974"/>
<path d="M369.255 10.7517C369.255 10.7517 369.608 12.5065 368.802 13.2769C368.802 13.2769 368.098 12.9773 367.846 13.5337C367.594 14.0473 368.148 14.3041 368.45 14.2613C368.45 14.2613 368.5 16.1018 365.682 17.3002C364.876 17.5998 364.423 17.771 364.574 18.2418C364.725 18.6698 365.732 18.627 366.588 17.8994C367.443 17.1718 368.047 18.199 368.047 18.199C368.047 18.199 369.809 18.3702 371.218 19.2262C372.124 19.7826 372.477 19.3118 372.527 19.0122C372.577 18.7126 372.275 18.5842 372.024 18.5842C371.772 18.5842 371.621 18.9266 371.621 18.9266C371.621 18.9266 370.816 18.3274 370.061 18.0706C369.356 17.8138 368.752 17.7282 368.5 17.7282C368.5 17.7282 368.5 16.9578 367.443 16.915C367.443 16.915 368.4 16.1874 368.551 15.7593C368.551 15.7593 369.155 16.059 369.356 15.4169C369.557 14.9033 369.104 14.8177 369.104 14.8177C369.104 14.8177 370.161 13.2769 369.255 10.7517Z" fill="#CD9974"/>
<path d="M359.038 19.6967C360.447 18.3699 362.611 17.9419 362.611 17.9419C362.41 18.1559 362.41 18.6267 362.41 18.6267C362.41 18.6267 361.202 18.7979 359.944 19.6967C361.202 20.5955 362.41 20.7668 362.41 20.7668C362.41 20.7668 362.41 21.2376 362.611 21.4516C362.611 21.4516 360.447 21.0236 359.038 19.6967Z" fill="#CD9974"/>
<path d="M365.581 19.697C365.581 18.7982 367.343 18.3274 367.343 18.3274C367.343 18.3274 367.242 19.0978 366.588 19.3546C366.588 19.3546 367.594 19.0122 368.45 19.697C367.544 20.2962 366.588 20.0394 366.588 20.0394C367.242 20.2962 367.343 21.0238 367.343 21.0238C367.343 21.0238 365.581 20.6386 365.581 19.697Z" fill="white"/>
<path d="M366.034 20.125C366.034 20.6386 365.329 20.6386 365.329 20.125V19.055C365.329 18.4986 366.034 18.5414 366.034 19.055V20.125Z" fill="#CD9974"/>
<path d="M337.747 25.9031C337.797 26.6307 339.056 29.5411 341.623 29.5411C344.139 29.5411 344.995 27.5295 344.995 27.5295C344.995 27.5295 344.139 28.6423 342.579 28.6423C341.824 28.6423 341.824 28.0431 341.119 28.0431C340.465 28.0431 340.415 28.6423 340.767 28.9419C340.767 28.9419 338.854 28.5139 337.948 25.9031H337.747Z" fill="#CD9974"/>
<path d="M342.73 19.7395C338.603 20.8095 337.747 23.6772 337.747 23.6772L338.099 23.72C338.099 23.72 339.207 21.1091 342.78 20.0391L342.73 19.7395Z" fill="#CD9974"/>
<path d="M340.163 21.3661L340.616 21.0237C340.868 22.9925 343.988 23.4205 343.988 23.4205C343.988 23.4205 340.717 23.5917 340.163 21.3661Z" fill="#CD9974"/>
<path d="M337.747 13.7905C337.797 13.0629 339.056 10.1096 341.623 10.1096C344.139 10.1096 344.995 12.164 344.995 12.164C344.995 12.164 344.139 11.0512 342.579 11.0512C341.824 11.0512 341.824 11.6504 341.119 11.6504C340.465 11.6504 340.415 11.0512 340.767 10.7516C340.767 10.7516 338.854 11.1368 337.948 13.7905H337.747Z" fill="#CD9974"/>
<path d="M342.73 19.9537C338.603 18.8837 337.747 15.9732 337.747 15.9732L338.099 15.9304C338.099 15.9304 339.207 18.5841 342.78 19.6541L342.73 19.9537Z" fill="#CD9974"/>
<path d="M340.163 18.3272L340.616 18.6696C340.868 16.658 343.988 16.2727 343.988 16.2727C343.988 16.2727 340.717 16.0587 340.163 18.3272Z" fill="#CD9974"/>
<path d="M338.2 19.7397C338.804 18.6697 339.458 18.3701 339.458 18.3701L339.811 18.6269C339.811 18.6269 339.106 18.9693 338.754 19.7397C339.106 20.5101 339.962 20.9809 339.962 20.9809L339.559 21.2806C339.559 21.2806 338.804 20.8097 338.2 19.7397Z" fill="#CD9974"/>
<path d="M337.747 29.7124C339.458 30.5684 339.962 32.366 339.962 32.366C339.005 32.4516 338.552 31.51 338.552 31.51C338.854 32.5372 337.747 33.6928 337.747 33.6928V29.7124Z" fill="white"/>
<path d="M337.747 23.6775C339.358 23.7631 339.609 25.6035 339.609 25.6035C338.703 25.6035 338.401 24.7903 338.401 24.7903C338.804 25.8603 337.747 26.5023 337.747 26.5023V23.6775Z" fill="white"/>
<path d="M343.082 19.7825C343.233 21.1522 345.398 21.3234 345.398 21.3234C345.398 20.5529 344.441 20.2961 344.441 20.2961C345.7 20.5957 346.505 19.7397 346.505 19.7397C346.505 19.7397 345.7 19.0977 344.441 19.3973C344.441 19.3973 345.398 19.1405 345.398 18.3701C345.398 18.3701 343.233 18.4129 343.082 19.7825Z" fill="white"/>
<path d="M337.747 9.98118C339.458 9.12517 339.962 7.32755 339.962 7.32755C339.005 7.24195 338.552 8.18356 338.552 8.18356C338.854 7.11355 337.747 6.00073 337.747 6.00073V9.98118Z" fill="white"/>
<path d="M337.747 16.0161C339.358 15.8877 339.609 14.09 339.609 14.09C338.703 14.09 338.401 14.9033 338.401 14.9033C338.804 13.8332 337.747 13.1484 337.747 13.1484V16.0161Z" fill="white"/>
<path d="M342.68 20.5102C342.68 21.1522 343.485 21.1522 343.485 20.5102V19.1834C343.485 18.5414 342.68 18.5414 342.68 19.1834V20.5102Z" fill="#CD9974"/>
<path d="M337.747 30.2686H338.804C339.76 30.2686 339.71 29.4553 338.804 29.4553H337.747V30.2686Z" fill="#CD9974"/>
<path d="M337.747 16.3584H338.653C339.408 16.3584 339.458 15.6736 338.653 15.6736H337.747V16.3584Z" fill="#CD9974"/>
<path d="M337.747 23.9768H338.653C339.408 23.9768 339.458 23.292 338.653 23.292H337.747V23.9768Z" fill="#CD9974"/>
<path d="M337.747 9.4248H338.804C339.76 9.4248 339.71 10.1952 338.804 10.1952H337.747V9.4248Z" fill="#CD9974"/>
<path d="M91.8205 6.6272C91.8205 6.6272 91.3675 9.05681 92.4748 10.1459C92.4748 10.1459 93.5318 9.72705 93.8842 10.4811C94.2868 11.2351 93.4815 11.5702 92.9782 11.5283C92.9782 11.5283 92.9278 14.0836 96.9545 15.7173C98.1121 16.1781 98.7161 16.3875 98.5148 17.0578C98.3134 17.6861 96.9041 17.6023 95.6961 16.597C94.4882 15.5497 93.6325 16.974 93.6325 16.974C93.6325 16.974 91.0655 17.2672 89.0522 18.4401C87.7939 19.1942 87.2905 18.5239 87.2402 18.1469C87.1395 17.728 87.5925 17.5186 87.9449 17.5186C88.2972 17.5186 88.4985 18.0212 88.4985 18.0212C88.4985 18.0212 89.6562 17.1834 90.7132 16.8064C91.7198 16.4294 92.5755 16.3456 92.9278 16.3456C92.9278 16.3456 92.9278 15.2565 94.4378 15.1727C94.4378 15.1727 93.0285 14.1674 92.8272 13.5809C92.8272 13.5809 92.0218 13.9998 91.7198 13.1201C91.4682 12.408 92.0722 12.2823 92.0722 12.2823C92.0722 12.2823 90.5622 10.1459 91.8205 6.6272Z" fill="#CD9974"/>
<path d="M100.176 19.0685C100.629 18.9428 101.182 18.859 101.484 17.728C101.837 16.5132 100.729 15.7173 97.4578 14.7957C93.3305 13.6647 92.9781 11.5283 92.9781 11.5283C92.9781 11.5283 92.7768 14.4606 98.0114 15.7592C100.276 16.3456 100.427 16.8064 100.427 17.5604C100.427 18.3145 99.2194 18.9009 97.4578 18.6496V19.4874C99.2194 19.2779 100.427 19.8225 100.427 20.5765C100.427 21.3305 100.276 21.7913 98.0114 22.3778C92.7768 23.7183 92.9781 26.6087 92.9781 26.6087C92.9781 26.6087 93.3305 24.5142 97.4578 23.3412C100.729 22.4197 101.837 21.6238 101.484 20.409C101.182 19.2779 100.629 19.1941 100.176 19.0685Z" fill="#CD9974"/>
<path d="M91.8205 31.5096C91.8205 31.5096 91.3675 29.08 92.4748 27.9908C92.4748 27.9908 93.5318 28.4097 93.8842 27.6557C94.2868 26.9017 93.4815 26.5666 92.9782 26.6085C92.9782 26.6085 92.9278 24.0532 96.9545 22.4195C98.1121 21.9587 98.7161 21.7492 98.5148 21.1209C98.3134 20.4925 96.9041 20.5344 95.6961 21.5817C94.4882 22.587 93.6325 21.1628 93.6325 21.1628C93.6325 21.1628 91.0655 20.9114 89.0522 19.7385C87.7939 18.9845 87.2905 19.6128 87.2402 20.0317C87.1395 20.4088 87.5925 20.6601 87.9449 20.6601C88.2972 20.6601 88.4985 20.1155 88.4985 20.1155C88.4985 20.1155 89.6562 20.9533 90.7132 21.3303C91.7198 21.7073 92.5755 21.7911 92.9278 21.7911C92.9278 21.7911 92.9278 22.8803 94.4378 22.964C94.4378 22.964 93.0285 23.9694 92.8272 24.5558C92.8272 24.5558 92.0218 24.137 91.7198 25.0166C91.4682 25.7288 92.0722 25.8963 92.0722 25.8963C92.0722 25.8963 90.5622 27.9908 91.8205 31.5096Z" fill="#CD9974"/>
<path d="M106.417 19.0685C104.404 20.9117 101.283 21.54 101.283 21.54C101.585 21.2468 101.585 20.5347 101.585 20.5347C101.585 20.5347 103.347 20.3252 105.108 19.0685C103.347 17.8118 101.585 17.6024 101.585 17.6024C101.585 17.6024 101.585 16.9321 101.283 16.6389C101.283 16.6389 104.404 17.2254 106.417 19.0685Z" fill="#CD9974"/>
<path d="M97.1056 19.0684C97.1056 20.3251 94.5889 20.9534 94.5889 20.9534C94.5889 20.9534 94.6896 19.9062 95.6962 19.5292C95.6962 19.5292 94.2366 20.0319 93.0286 19.0684C94.2869 18.1887 95.6962 18.6076 95.6962 18.6076C94.6896 18.2725 94.5889 17.1833 94.5889 17.1833C94.5889 17.1833 97.1056 17.7279 97.1056 19.0684Z" fill="white"/>
<path d="M96.5015 18.4818C96.5015 17.7697 97.4075 17.7278 97.4075 18.4818V19.9899C97.4075 20.7439 96.5015 20.702 96.5015 19.9899V18.4818Z" fill="#CD9974"/>
<path d="M282.546 31.5096C282.546 31.5096 283.05 29.08 281.892 27.9908C281.892 27.9908 280.835 28.4097 280.483 27.6557C280.13 26.9017 280.885 26.5666 281.389 26.6085C281.389 26.6085 281.439 24.0532 277.412 22.4195C276.305 21.9587 275.651 21.7492 275.852 21.1209C276.053 20.4925 277.513 20.5344 278.721 21.5817C279.929 22.587 280.734 21.1628 280.734 21.1628C280.734 21.1628 283.301 20.9114 285.315 19.7385C286.573 18.9845 287.076 19.6128 287.127 20.0317C287.227 20.4088 286.774 20.6601 286.422 20.6601C286.07 20.6601 285.868 20.1155 285.868 20.1155C285.868 20.1155 284.711 20.9533 283.654 21.3722C282.647 21.7073 281.791 21.7911 281.489 21.7911C281.489 21.7911 281.439 22.8803 279.929 22.964C279.929 22.964 281.338 23.9694 281.54 24.5558C281.54 24.5558 282.395 24.137 282.697 25.0166C282.899 25.7288 282.295 25.8963 282.295 25.8963C282.295 25.8963 283.805 27.9908 282.546 31.5096Z" fill="#CD9974"/>
<path d="M274.191 19.0685C273.738 19.1941 273.184 19.3198 272.882 20.409C272.53 21.6238 273.637 22.4197 276.909 23.3412C281.036 24.5142 281.389 26.6087 281.389 26.6087C281.389 26.6087 281.59 23.6764 276.355 22.3778C274.09 21.7913 273.939 21.3305 273.939 20.5765C273.939 19.8225 275.147 19.2779 276.909 19.4874V18.6496C275.147 18.859 273.939 18.3145 273.939 17.5604C273.939 16.8064 274.09 16.3456 276.355 15.7592C281.59 14.4606 281.389 11.5283 281.389 11.5283C281.389 11.5283 281.036 13.6647 276.909 14.7957C273.637 15.7173 272.53 16.5132 272.882 17.728C273.184 18.859 273.738 18.9428 274.191 19.0685Z" fill="#CD9974"/>
<path d="M282.546 6.6272C282.546 6.6272 283.05 9.05681 281.892 10.1459C281.892 10.1459 280.835 9.72705 280.483 10.4811C280.13 11.2351 280.885 11.5702 281.389 11.5283C281.389 11.5283 281.439 14.0836 277.412 15.7173C276.305 16.1781 275.651 16.3875 275.852 17.0578C276.053 17.6861 277.513 17.6023 278.721 16.597C279.929 15.5497 280.734 16.974 280.734 16.974C280.734 16.974 283.301 17.2672 285.315 18.3983C286.573 19.1942 287.076 18.5239 287.127 18.1469C287.227 17.728 286.774 17.5186 286.422 17.5186C286.07 17.5186 285.868 18.0212 285.868 18.0212C285.868 18.0212 284.711 17.1834 283.654 16.8064C282.647 16.4294 281.791 16.3456 281.489 16.3456C281.489 16.3456 281.439 15.2565 279.929 15.1727C279.929 15.1727 281.338 14.1674 281.54 13.5809C281.54 13.5809 282.395 13.9998 282.697 13.1201C282.899 12.408 282.295 12.2823 282.295 12.2823C282.295 12.2823 283.805 10.1459 282.546 6.6272Z" fill="#CD9974"/>
<path d="M268 19.0685C269.963 17.2254 273.084 16.6389 273.084 16.6389C272.782 16.8902 272.782 17.6024 272.782 17.6024C272.782 17.6024 271.02 17.8118 269.258 19.0685C271.02 20.3252 272.782 20.5347 272.782 20.5347C272.782 20.5347 272.782 21.2468 273.084 21.54C273.084 21.54 269.963 20.9117 268 19.0685Z" fill="#CD9974"/>
<path d="M277.261 19.0684C277.261 17.8117 279.778 17.1833 279.778 17.1833C279.778 17.1833 279.677 18.2725 278.671 18.6076C278.671 18.6076 280.13 18.1468 281.389 19.0684C280.08 19.9481 278.671 19.5292 278.671 19.5292C279.677 19.9062 279.778 20.9534 279.778 20.9534C279.778 20.9534 277.261 20.4089 277.261 19.0684Z" fill="white"/>
<path d="M277.916 19.655C277.916 20.409 276.959 20.409 276.959 19.655V18.1888C276.959 17.4348 277.916 17.4767 277.916 18.1888V19.655Z" fill="#CD9974"/>
</g>
<defs>
<clipPath id="clip0_19_118">
<rect width="373" height="39" fill="white"/>
</clipPath>
</defs>
</svg>
