<svg width="32" height="32" viewBox="0 0 32 32" fill="none" xmlns="http://www.w3.org/2000/svg">
<path d="M10.6666 18.6668H21.3333V24.0002H10.6666V18.6668ZM20.9746 8.97083C22.4159 9.15883 25.3493 9.45083 28.4639 9.27216C28.2639 9.1175 20.9199 2.02683 20.6959 1.91883C20.5959 5.40283 20.8159 7.7815 20.9746 8.97083ZM29.0906 11.9002C29.2346 13.2428 29.3333 15.9108 29.3333 17.2628V17.3335C29.3333 24.0855 28.0159 28.0988 27.9599 28.3228C27.8399 28.8002 27.4666 29.1748 26.9893 29.2935C26.7653 29.3495 21.4333 30.6668 15.9986 30.6668C10.5639 30.6668 5.23327 29.3495 5.00794 29.2935C4.53061 29.1748 4.15727 28.8015 4.03727 28.3228C3.98127 28.0988 2.66394 24.0855 2.66394 17.3335C2.66394 10.5815 3.98394 3.9015 4.03994 3.6775C4.15994 3.20016 4.53327 2.8255 5.01061 2.70683C5.23461 2.65083 10.5666 1.3335 16.0013 1.3335C16.7293 1.3335 17.4066 1.36016 18.0439 1.40683C17.8373 7.2615 18.4879 10.3068 18.5159 10.4335C18.6319 10.9615 19.0546 11.3668 19.5879 11.4615C19.7453 11.4895 22.7213 12.0015 26.4453 12.0015C27.2959 12.0015 28.1893 11.9655 29.0933 11.9002H29.0906ZM7.99994 10.6668C7.99994 11.4042 8.59727 12.0002 9.33327 12.0002H13.3333C14.0693 12.0002 14.6666 11.4042 14.6666 10.6668C14.6666 9.9295 14.0693 9.3335 13.3333 9.3335H9.33327C8.59727 9.3335 7.99994 9.9295 7.99994 10.6668ZM23.9999 17.3335C23.9999 16.5962 23.4026 16.0002 22.6666 16.0002H9.33327C8.59727 16.0002 7.99994 16.5962 7.99994 17.3335V25.3335C7.99994 26.0708 8.59727 26.6668 9.33327 26.6668H22.6666C23.4026 26.6668 23.9999 26.0708 23.9999 25.3335V17.3335Z" fill="#FEFAE0"/>
</svg>
