<svg height="30" viewBox="0 0 70 30" width="70" xmlns="http://www.w3.org/2000/svg"><g fill="#191c4f"><path d="m16.4 21.7c0 .1 0 .2-.1.3-.1.2-.2.2-.4.3-.1.1-4.8 2-4.9 2-.3.2-.3.1-.2 0q0-.1 0-.3c.1-.2.2-.2.4-.3s4.8-2 5-2.1c.3-.1.3 0 .2.1z"/><path d="m64.1 20v.5c.1.2-.1.5-.2.8s-.7.4-1.1.1c-.8 1.2-1.4.6-1.8.5-.6-.3-.8.1-1 .3-.8.9-2.3.9-2.7.9-.3.1 0-.2.1-.2 1.2-.4 1.9-.5 3-1.5.4-.5.7-.2.9-.2 1 .5 1.1 0 1.3-.1.1-.1.3-.6.3-.8.1-.1.2 0 .2.1s-.1.3-.1.4c.4.3.8 0 .9-.1 0 0 0-.3-.1-.4q0-.1.2-.5c.1-.3.1 0 .1.2z"/><path d="m29.1 19.9s-.1.3-.1.5c-.4 1.1-.1 1.6-.1 1.7.4.5.8.2 1-.2 0-.2.1-.1.1 0q0 .1-.1.3c-.1.7-.4.9-.7.9-.4 0-.7-.5-.7-.8-.1-1.2.4-2.2.5-2.5s.2-.2.1.1z"/><path d="m45.8 18.6c-.3.9-1.7 1.5-2 1.6-1.3.4-1.4-.9-1.3-1.8s.8-2 .8-2c-.1 0-1.4-1.1-1.5-1.2s-.2-.2-.4-.3c-.1-.1-.1-.1-.1-.1s.1-1 .1-1.1 0 0 .1 0 1.5.6 1.7.7c.1.1.1.2 0 .2s-.5.1-.5.1l1.1.9s1.6-2.1 1.8-2.3c.1-.2.1-.1.1.1s-.3 1.1-.4 1.2c-.1.2-.9 1.3-.9 1.3s1.1.7 1.3 1c.5.7.2 1.3.1 1.7zm-2-1.9s-.8 1.2-.9 1.5c-.3.7.4.8.7.8s1.2-.5 1.7-.9-1.3-1.2-1.5-1.4z" fill-rule="evenodd"/><path d="m65.6 17.4c-.1.2-.3 1.2-1.6.9-.4-.1-1-.2-1.3-.9-.3.4-1.1 1.6-2.6 1.4-.3 0-1.3-.4-1.4-1.8 0 0-1.2 1-1.8 1.3.1.5 0 1.1-.2 1.7s-2.9 3.6-5 4c-.8.2-3.5.7-3.6-2.4-.1-.6 0-1.1 0-1.5-1.7 1.4-3.7 2.4-4.3 2.7-.9.4-4.1.9-4.6 1-.4.1-.5 0-.2-.1.2-.2 7.2-2.5 10.8-6.4q.2-.1 0-.4c-.1-.2-1.2-2.4-1.3-2.7-.2-.3-.3-.6-.4-.7q0-.2 0-.4c0-.1.1-.7.2-.8 0-.2.1-.1.1 0 .1.1 1.2 1.2 1.4 1.4.1.1 0 .2 0 .2-.1 0-.6 0-.6 0s.7 1.3.9 1.7c.5 1.1.2 1.9.1 2.3-.4.7-1 1.3-1.7 1.9-.1.6-.3 3.1 2 3.2.4 0 1.6.1 4-1.8.6-.5 1.2-1 1.7-1.8.2-.3.4-.8 0-.7-.4 0-2.9.9-3.3-.6 0-.4.2-3.9 2.6-2.2.2.2.7.6 1.1 1.3.4-.2 1.1-.6 2.1-1.4.2-.2.5-.3.5 0s-.2 2.4 2 1.8c.3-.1 1.2-.3 1.9-2 .2-.4.4-.4.3 0-.2.4-.4.8-.2 1s.9.6 1.6.5c.3 0 .5-.1.4-.3-.1-.3-.4-.7-.4-.7.1-.3.2-.8.2-.9s.1-.2.2-.1.8 1.1.4 2.3zm-10.1.1c-.8-1-1.7-.4-1.8-.3s-.2.4.6.5c.9 0 1.2-.2 1.2-.2z" fill-rule="evenodd"/><path d="m10.4 14.5s-.1.5-.2.7c-.4 1.4-.1 2.1 0 2.2.4.7.9.3 1.1-.2.1-.3.2-.2.2-.1q-.1.2-.1.5c-.2.8-.6 1.1-.8 1.1-.6 0-.9-.7-.9-1-.2-1.5.4-2.9.5-3.2.2-.4.3-.3.2 0z"/><path d="m14.5 12.4 1 .7q0 .1 0 .1l-.6.8q0 .1 0 0l-1-.7q-.1 0 0-.1l.5-.8q.1 0 .1 0z"/><path d="m19.9 12.4c.6.1.4.3.3.5-.4.7-1 1-1.4 1.1-.4.2-.2-.1 0-.3 0 0 .3-.1.6-.4.4-.3-.6-.2-1-.3-.4 0-.5.2-.7.3-.1.2-.3.1-.1-.1.1-.1.2-.4.5-.7s1.2-.2 1.8-.1z"/><path d="m44.4 11 1 .7q.1.1 0 .1l-.5.8q-.1.1-.1 0l-1-.7-.5.7q0 .1-.1 0l-1-.7q0 0 0-.1l.6-.8q0 0 .1 0l1 .7.5-.7q0 0 0 0z"/><path d="m63.1 11.1s-.1.2-.2.4c-.3.9-.1 1.3-.1 1.4.3.4.6.2.7-.2.1-.1.1 0 .1 0q0 .1 0 .3c-.2.5-.4.7-.6.7-.3-.1-.5-.5-.5-.7 0-1 .4-1.8.4-2 .1-.2.2-.1.2.1z"/><path d="m53.2 10.6s-.1.2-.2.4c-.3 1-.1 1.4-.1 1.5.3.5.6.2.8-.1 0-.2.1-.1.1-.1q-.1.1-.1.3c-.2.6-.4.8-.6.8-.4-.1-.5-.5-.5-.8-.1-1 .3-1.9.4-2.1.1-.3.2-.1.2.1z"/><path d="m14.1 7.1s-.1.4-.1.7c-.4 1.4-.1 2.1-.1 2.2.5.7.9.3 1.1-.3.1-.2.2-.1.1 0q0 .1 0 .5c-.2.8-.5 1-.8 1.1-.5 0-.8-.7-.8-1.1-.2-1.5.3-2.8.5-3.2.1-.3.2-.2.1.1z"/><path d="m11.3 6.9c.1.2 0 .6-.1.9-.1.1-.2 0-.3-.2 0 0-.2-.1-.3-.2-.5-.4-.7.4-.7.8-.1.3-.1 1.3-.2 1.8q0 .1 0 .1c-.1.5-.3 1.1-1 1.6-1 .6-1.1.7-1.2.7s-.1 0 .1-.2c.1 0 1.9-1.6 1.8-2.4-.3-.9-1-1.5-1.1-1.6s-.2.1-.2.1c0 .1-.1.1-.2.1 0-.1-.4-.3-.6-.4-.1-.2 0-.6 0-.8 0-.3.2-.4.3-.4 1.4.8 1.8 2.2 1.9 2.4.1-1 .1-2 .6-2.7.5-.5 1.1.3 1.2.4z"/><path d="m52.3 6.5c-.1.1-.1.2-.1.3-.1.2-.2.2-.4.3-.2.2-5.3 3.1-5.4 3.2-.3.2-.3.1-.3 0q0-.1.1-.3c0-.2.1-.2.3-.3.2-.2 5.4-3.1 5.6-3.3.3-.2.2 0 .2.1z"/><path d="m58.6 6.8c.1.2 0 .6-.1.9-.1.2-.2 0-.3-.1 0 0-.1-.2-.2-.3-.6-.4-.8.4-.8.8-.1.3-.1 1.3-.2 1.9 0 .2-.2.2-.3 0-.3-1.2-1-1.8-1.1-1.9s-.2.1-.2.2c-.1 0-.1 0-.2 0s-.5-.3-.6-.4-.1-.6-.1-.8c.1-.3.3-.4.4-.4 1.4.8 1.8 2.2 1.9 2.4.1-1 .1-1.9.6-2.6.5-.6 1.1.2 1.2.3z"/><path d="m63.7 9c-.1.1-.1.1-.2-.1-.1-.1-.2-.2-.4-.3-.2.4-.2.5-1.1 1.2-1.9 1.7-4 2.3-4.1 2.3s-.1-.1.1-.2c.6-.5 3.3-1.7 4.7-3.5 0 0-.4-.1-.7-.4-.3-.2-.1-.9.1-1.3.5-.8 1-.4 1.1-.2.4.8.2 1.5.2 1.5.2.2.5.5.3 1zm-.9-2c-.1-.1-.2-.1-.5.3-.1.1 0 .2.2.3s.6.2.6.2c0-.1 0-.5-.3-.8z" fill-rule="evenodd"/><path d="m38.1 6.2c.1.1 1.2 3 1.3 3.2 0 .1-.1.2-.2.1s-.7-.7-.7-.7.9 7.2.9 7.5c.6 4.3 0 5.4-.1 5.6-.1.1-.1.1-.1-.1 0-1.7-.8-8-.9-8.4 0-.3-.6-5.9-.6-6.4 0 0 .3-.8.3-.9.1-.1.1 0 .1.1z"/><path d="m33.6 13c.2.2.1.6 0 .9 0 .1-.2 0-.3-.2 0 0-.1-.1-.2-.2-.5-.4-.7.4-.7.8-.1.3-.1 1.3-.1 1.9-.1.2-.2.2-.3 0-.3-1.2-1-1.7-1.1-1.8s-.2 0-.2.1-.1.1-.2.1c0-.1-.4-.3-.5-.4-.2-.2-.1-.6-.1-.8 0-.3.2-.4.3-.4 1.3.8 1.8 2.1 1.9 2.3 0-1 0-1.9.5-2.6.4-.6 1 .2 1 .3z"/><path d="m27.5 9.3s-.1.3-.2.5c-.3.9-.1 1.3-.1 1.4.3.5.6.2.7-.1.1-.2.2-.1.1 0q0 0 0 .2c-.2.6-.4.7-.6.7-.3 0-.5-.4-.5-.7-.1-1 .3-1.8.4-2.1.1-.2.2-.1.2.1z"/><path d="m44.2 8.7c-.1.2-.1.1-.2-.1-.1 0-.4-.3-.4-.3s-.5.9-1.2 1.4c-1.2 1-2.3 1.2-2.4 1.2s-.2-.1 0-.2c.9-.5 1.8-.8 3.2-2.5 0 0-.4-.2-.7-.4-.3-.3-.2-1 0-1.3.6-.9 1.1-.5 1.1-.3.5.8.2 1.6.2 1.6.3.1.5.4.4.9zm-.9-2c-.1-.1-.3-.1-.6.3 0 .1.1.2.2.3.2.1.6.3.6.3 0-.2.1-.6-.2-.9z" fill-rule="evenodd"/><path d="m22.7 5.6c-.1.1-.1.2-.2.3 0 .2-.1.3-.3.4s-5.8 2.6-5.9 2.6c-.3.2-.2.1-.2 0q0 0 0-.3c.1-.1.1-.2.4-.3.2-.1 5.7-2.6 5.9-2.7.3-.2.3-.1.3 0z"/><path d="m36.3 19c-.2 1.7-1.7 2-2.2 2.1-2.4 0-3.4-1.9-3.9-2.5-1.4-1.5-2.9-2.7-3.3-3 .6.9.7 1.7.7 2.1.1 1.4-.5 1.8-.8 2-.9.7-3.5 1.5-3.6 1.5.5.8.4 1.8.3 2.1-.3 1.1-1.3.9-1.5.9-1.8-.5-2.2-2.2-2.3-2.5 0 0-.6.1-.8.1-.1 0-.1-.1-.2-.4-2.4.2-3.1-1-3.4-1.4-1.7.9-3.4 1.5-3.8 1.7-2.9 1-4.8-.1-5.1-.3-2.3-1.6-.9-4.1-.7-4.5q0-.1 0-.2c-.4-.1-.6-.8-.7-1.2-.2-1.8.4-3.4.6-3.9.1-.5.3-.3.2.1 0 0-.1.5-.2.9-.4 1.7-.1 2.5 0 2.6.4.9.9.4 1.1-.3.1-.3.2-.1.2 0s-.1.3-.1.5c-.2 1.1-.6 1.4-.9 1.4q0 0 0 0 0 .1 0 .2c-.8 1.6 0 2.4.3 2.7 1.1 1.2 2.6 1.1 3.1 1.2 2.4 0 5.4-1.8 5.5-1.9-.6-1.5-.4-2.7.4-3.6.7-.9 1.5.2 1.7.5.9 2-.6 3.3-.8 3.5 1 1.2 3.6.7 3.6.7 0-.1 1.4-4.4 1.5-4.6 0-.1.1-.2.2 0 1.3 3 .3 4.4.1 4.7 2.1-.1 4.3-1.1 4.8-1.3 1.2-.6.7-1.4.5-1.8-.8-1.4-3.1-3.6-3.9-4.2-.8-.7-1.3-1.2-1.5-2-.1-1.4.6-1.8 1-2.1 3.3-2.4 8.4-3.6 9.2-3.8.5-.1 2.7 0 1 2.8-.2.4-1.9 2.6-2.2 3-.2.3-.4.2-.2-.3.3-.5 1.7-2.3 2.3-3.4s-1.2-.8-1.6-.7c-3.8.7-8.8 3.7-8.9 3.9-.2.2-.1.3.1.5.6.4 3.9 2.7 4.6 3.3 1.9 1.3 4.4 4.2 5 4.8 1.2 1.2 2.6 1 3.4.7.7-.3.6-.7.6-1 0-.4-1.4-11.2-1.4-11.5 0 0 .3-.9.4-1 0-.1.1 0 .1.1.1.1 1.2 3 1.2 3.2.1.1 0 .2-.1.1s-.7-.7-.7-.7 1 7.2 1.1 7.6c0 .4.1 2 0 2.6zm-19.8-1.2c.1-.1.2-.2.1-.5s-.7-1.3-1.2-.9c-.6.5-.5.8-.4 1.1s.5 1.1.5 1.1c.2-.1.7-.4 1-.8zm3.8 2.1c.2-.1 1.3-.7 1.3-1.2-.1-.4-.3-1.7-.4-1.4-.5.7-.9 2.6-.9 2.6zm2.6 2.4c-1-.7-2.4-.6-2.4-.6.1.3 1.1 1.4 2.2 1.2.2 0 .5-.4.2-.6z" fill-rule="evenodd"/></g></svg>