<svg height="30" viewBox="0 0 70 30" width="70" xmlns="http://www.w3.org/2000/svg"><g fill="#191c4f"><path d="m28.3 22.5 1 .7q0 .1 0 .1l-.6.8q0 .1-.1 0l-1-.7-.5.7q0 .1-.1 0l-1-.7q0 0 0-.1l.6-.8q.1 0 .1 0l1 .7.5-.7q0 0 .1 0z"/><path d="m13.4 21.5c-.1.1-.1.1-.2.3s-.2.2-.4.3c-.1.1-3.7 1.8-3.8 1.8-.3.2-.3.1-.2 0q0 0 .1-.3c0-.1.1-.2.3-.3s3.7-1.8 3.9-1.9c.4-.2.3 0 .3.1z"/><path d="m36.5 21.3c0 .1 0 .1-.1.3s-.2.2-.4.3c-.1.1-3.8 1.7-3.9 1.8-.3.2-.3.1-.2 0q0-.1 0-.3c0-.2.1-.2.3-.4.3-.1 3.8-1.7 4.1-1.8s.3 0 .2.1z"/><path d="m20.1 20.6s-.1.3-.2.5c-.4.9-.2 1.4-.2 1.5.3.5.6.3.8-.1.1-.2.1-.1.1 0q0 .1-.1.3c-.2.6-.5.7-.6.7-.4 0-.6-.5-.6-.8.1-1 .6-1.9.7-2.2.1-.2.2-.1.1.1z"/><path d="m64.1 19.2v.5c0 .2-.1.6-.2.9s-.8.4-1.2.1c-.8 1.2-1.4.6-1.8.4-.7-.2-.9.2-1 .4-.9 1-2.4.9-2.7 1-.4 0-.1-.2 0-.3 1.2-.4 2-.5 3.1-1.5.4-.5.7-.3.9-.2 1 .5 1.2 0 1.3-.1s.3-.7.4-.8c0-.2.1-.1.1.1 0 .1-.1.3-.1.4.4.3.8 0 .9-.1 0 0 0-.3 0-.4q0-.1.1-.5c.1-.3.2-.1.2.1z"/><path d="m20.5 19.2c0 .4-.2.5-.4.6-1.6.2-2.6-.6-2.8-.8 0 0-.2.6-.4.8-.6 1.1-1.9 1.1-2.5.9-1.1-.3-1.8-1.8-2-2.3-.3-.6-1.4-.1-1.5 0-1.2.7-2.3 3.4-2.5 3.7-.1.2-1 1.4-2.2-.3-1.1-1.6-.9-4-.8-4.3s.2-.1.2.2c-.1.9.3 2.1.4 2.4.6 1.3 1.4 1.4 1.5 1.4.7.1 1-.9 1.1-1.3 1.1-2.2 2.1-2.9 2.5-3.1s1.3-.7 1.9.8c.8 1.8 2 1.7 2.3 1.7 1.3-.1 1.8-1.1 1.9-1.3.2-.2.5-1.1 1-1.7.5-.7 1.1-.3 1.3-.1 1 1.3 1 2.4 1 2.7zm-1-1.1c-.2-.3-.7-.8-1.2-.5-.3.2-.4.4-.4.4.2.2.7.5 1.5.5.1 0 .3 0 .1-.4z" fill-rule="evenodd"/><path d="m11.8 13.7 1 .7q.1.1 0 .1l-.6.8q0 .1 0 0l-1-.7-.5.7q-.1.1-.1 0l-1-.7q0 0 0-.1l.6-.8q0 0 0 0l1 .7.5-.7q.1 0 .1 0z"/><path d="m45.5 17.8c-.4 1-1.8 1.6-2.1 1.7-1.2.4-1.3-.9-1.3-1.8.1-.9.8-2.1.8-2.1-.1 0-1.4-1.1-1.5-1.2s-.2-.2-.4-.3c-.1-.1-.1-.1-.1-.1s.1-1 .1-1.1 0-.1.1 0c.1 0 1.6.6 1.7.7.2 0 .1.2 0 .2 0 0-.5.1-.5.1l1.2.9s1.6-2.2 1.7-2.4c.2-.2.2-.1.2.2-.1.2-.4 1.1-.5 1.2 0 .2-.9 1.3-.9 1.3s1.1.7 1.4 1.1c.4.6.2 1.3.1 1.6zm-2.1-1.9s-.7 1.3-.8 1.5c-.4.8.4.9.6.9.3-.1 1.3-.6 1.8-.9.4-.4-1.3-1.3-1.6-1.5z" fill-rule="evenodd"/><path d="m65.6 16.7c-.1.2-.4 1.1-1.7.8-.3 0-1-.2-1.3-.9-.3.4-1.1 1.7-2.6 1.5-.3-.1-1.4-.5-1.4-1.8 0 0-1.3 1-1.9 1.3.1.5.1 1-.2 1.6-.2.6-2.9 3.7-5.1 4.2-.7.1-3.5.6-3.6-2.5-.1-.6 0-1.2 0-1.5-1.7 1.3-3.8 2.4-4.4 2.7-.9.4-4.1.9-4.7 1-.3.1-.4 0-.2-.1.2-.2 7.4-2.6 11.1-6.4.1-.2 0-.3-.1-.5s-1.2-2.4-1.3-2.7-.3-.7-.4-.8q0-.1 0-.3c0-.1.1-.7.2-.9 0-.1.1 0 .1.1.1 0 1.3 1.2 1.4 1.4.1.1 0 .2 0 .2-.1 0-.6 0-.6 0s.7 1.3 1 1.7c.4 1.1.2 2 0 2.3-.3.7-.9 1.4-1.7 2-.1.5-.3 3.1 2.1 3.2.3 0 1.6.1 4-1.8.6-.5 1.2-1.1 1.7-1.8.3-.3.4-.8 0-.8s-2.9 1-3.3-.6c-.1-.3.1-4 2.6-2.2.2.2.7.6 1.1 1.3.4-.2 1.2-.6 2.1-1.4.3-.2.6-.3.6 0-.1.4-.3 2.4 2 1.8.3-.1 1.2-.3 1.9-2 .2-.4.5-.4.3 0-.1.4-.4.8-.2 1 .3.2.9.7 1.7.6.3-.1.4-.2.3-.4s-.3-.7-.3-.7c0-.3.1-.8.2-.9 0-.1 0-.2.1-.1s.9 1.1.5 2.4zm-10.3.1c-.8-1.1-1.7-.5-1.8-.4-.2.1-.2.4.6.5.9 0 1.2-.1 1.2-.1z" fill-rule="evenodd"/><path d="m20.7 11.4c0 .1 0 .1-.1.3s-.2.2-.4.4c-.1 0-4.6 2.3-5.2 2.7-.7.4-.6.6-.4.7.4.1.6.4.4.9 0 0-.1.1-.1 0 0 0-.2-.2-.4-.2-.3 0-.4-.5-.3-1 0-.4.3-.7.5-.9.5-.4 5.6-2.9 5.8-3 .3-.2.2 0 .2.1z"/><path d="m5.8 11.6s-.1.5-.2.8c-.4 1.8-.1 2.6 0 2.7.4.9 1 .4 1.1-.3.1-.3.2-.1.2 0q0 .2-.1.5c-.2 1.1-.5 1.4-.8 1.4-.6 0-.9-.8-1-1.2-.2-1.9.4-3.6.6-4 .1-.5.3-.3.2.1z"/><path d="m44.1 10.1 1 .8q0 0 0 .1l-.6.8q0 0-.1 0l-.9-.7-.6.7q0 0 0 0l-1.1-.7q0-.1 0-.1l.6-.8q.1-.1.1-.1l1 .8.5-.7q0-.1.1-.1z"/><path d="m63 10.2s-.1.3-.2.4c-.3.9-.1 1.3-.1 1.4.3.5.6.2.8-.1 0-.2.1-.1 0 0q0 .1 0 .3c-.2.5-.4.6-.6.6-.3 0-.5-.4-.5-.6 0-1 .4-1.8.5-2.1.1-.2.2-.1.1.1z"/><path d="m52.9 9.7s0 .3-.1.4c-.3 1-.2 1.4-.1 1.5.2.5.6.3.7-.1.1-.2.2-.1.1 0q0 .1 0 .3c-.2.6-.4.7-.6.7-.4 0-.5-.5-.6-.7 0-1.1.4-1.9.5-2.2.1-.2.2-.1.1.1z"/><path d="m14 7s-.1.3-.2.6c-.4 1-.3 1.6-.2 1.7.2.5.6.3.8-.1.1-.2.1-.1.1 0q0 .1-.1.3c-.2.7-.5.8-.7.8-.4 0-.5-.6-.5-.9 0-1.2.6-2.2.7-2.5.1-.2.2-.1.1.1z"/><path d="m11.7 6.3c.1.3 0 .7-.1.9s-.2 0-.3-.1c0 0-.2-.2-.3-.3-.5-.4-.7.5-.8.9 0 .3-.1 1.3-.1 1.8q0 .1-.1.1c0 .5-.2 1.1-1 1.6-1 .7-1.1.7-1.1.7-.1.1-.2 0 0-.1.1-.1 2-1.7 1.8-2.5-.2-.9-.9-1.5-1-1.6-.2-.2-.3 0-.3.1s-.1.1-.1 0c-.1 0-.5-.3-.6-.4-.2-.1-.1-.6-.1-.8 0-.3.2-.4.3-.4 1.4.8 1.9 2.2 2 2.5 0-1.1.1-2 .6-2.7.5-.6 1.1.2 1.2.3z"/><path d="m17.4 5.9s0 .4-.1.7c-.3 1.5-.1 2.1 0 2.2.4.8.8.4.9-.2.1-.3.2-.1.2 0q-.1.1-.1.4c-.2.9-.5 1.1-.7 1.2-.5 0-.7-.7-.7-1.1-.2-1.6.3-2.9.4-3.3s.2-.2.1.1z"/><path d="m52.1 5.6c-.1.1-.1.1-.2.3 0 .2-.1.2-.3.3s-5.5 3.2-5.6 3.2c-.3.2-.3.1-.2 0q0-.1 0-.3c.1-.2.2-.2.4-.3.2-.2 5.4-3.2 5.6-3.3.3-.2.3-.1.3.1z"/><path d="m58.4 5.9c.2.2.1.6 0 .9-.1.1-.2 0-.3-.2 0 0-.2-.1-.3-.2-.5-.5-.7.4-.8.8 0 .3-.1 1.3-.2 1.9 0 .2-.2.2-.2 0-.4-1.2-1.1-1.8-1.2-1.9s-.2.1-.2.1c-.1.1-.1.1-.2.1-.1-.1-.5-.3-.6-.4-.1-.2-.1-.6-.1-.8.1-.4.3-.5.4-.4 1.4.8 1.8 2.2 1.9 2.4.1-1 .1-2 .7-2.7.4-.5 1.1.3 1.1.4z"/><path d="m33.1 12.7 1.1.7q0 .1 0 .1l-.6.8q-.1.1-.1.1l-1-.8-.5.7q0 .1-.1.1l-1-.8q0 0 0-.1l.6-.8q0 0 .1 0l1 .7.5-.7q0 0 0 0z"/><path d="m28.6 12.8c.1.2.1.6 0 .8 0 .2-.2.1-.3-.1 0 0-.1-.1-.3-.2-.5-.3-.6.5-.6.9 0 .3.1 1.2.1 1.8 0 .2-.2.2-.3.1-.4-1.2-1.1-1.6-1.2-1.7-.2-.1-.2.1-.2.1-.1.1-.1.1-.2.1 0 0-.4-.2-.6-.4-.1-.1-.1-.5-.1-.7 0-.3.1-.4.2-.4 1.4.6 2 1.9 2.1 2.1-.1-1-.1-1.9.3-2.6.3-.6 1 .1 1.1.2z"/><path d="m32.7 8.3s-.1.2-.1.4c-.4.9-.2 1.3-.1 1.4.2.5.5.2.7-.1 0-.2.1-.1.1 0q-.1.1-.1.3c-.2.5-.4.6-.6.6-.3 0-.5-.4-.5-.6 0-1 .4-1.8.5-2.1.1-.2.2-.1.1.1z"/><path d="m33.3 6c0 .1-.1.2-.1.3-.1.2-.2.3-.4.4s-8.9 4.8-9 4.9c-.4.2-.3.1-.3 0q0-.1.1-.4c0-.1.1-.2.4-.3.2-.2 8.8-4.9 9-5 .4-.2.3-.1.3.1z"/><path d="m25.7 5.8s0 .2-.1.4c-.3.9-.1 1.3-.1 1.4.3.4.6.2.7-.1.1-.2.1-.1.1 0q0 0-.1.2c-.1.6-.3.7-.5.7-.3 0-.5-.4-.5-.7-.1-.9.3-1.8.4-2s.2-.1.1.1z"/><path d="m63.6 8.1c0 .1-.1.1-.2-.1-.1-.1-.2-.2-.4-.3-.2.4-.2.5-1.1 1.2-1.9 1.7-4 2.3-4.1 2.3-.2.1-.2 0 0-.2.7-.5 3.4-1.7 4.9-3.5 0 0-.5-.1-.8-.4-.3-.2-.1-1 .1-1.3.5-.8 1-.4 1.1-.3.5.8.2 1.6.2 1.6.3.2.5.5.3 1zm-.9-2.1c-.1 0-.2 0-.5.3-.1.2 0 .3.2.4.2 0 .6.2.6.2 0-.1 0-.6-.3-.9z" fill-rule="evenodd"/><path d="m36.2 19.6c-.5 1.1-2.3.8-2.8.7q-.6-.1-1-.3c-.7.4-1.5.7-1.8.8-2 .6-2.7-1.3-2.8-1.4-1 1.8-2.5 1.9-3 1.8-2.4-.4-2.5-3.1-2.6-3.8-.1-.8-.6-7.7-1.4-10.7-.1-.6.2-1.1.3-1.2s.1-.3.2 0c.9 2.7 1.5 11.7 1.8 12.7.6 2 1.9 1.8 2.5 1.7 1.4-.1 2.2-1.8 2.5-2.1.3-.4.3 0 .2.5.3 2.1 2.7 1.2 3 1.1q.1 0 .2-.1-.2-.3-.3-.5c-.1-.6.4-2.2 1.3-2.8 1-.6 1.4 0 1.5.4.4 1.2-.1 2.1-.2 2.4q-.1.2-.2.3c.8.2 1.5.1 1.9 0 .7-.3.6-.9.5-1.2 0-.3-1.4-10.6-1.5-11.1-.1-.4-.2-.6-.2-.7 0 0 .4-.9.5-1 0-.1.1 0 .1.1s1.3 2.7 1.3 2.9c.1.1 0 .2-.1.1s-.7-.6-.7-.6 1.1 8.3 1.2 9.1c.1 1.4-.2 2.6-.4 2.9zm-2.6-1.5c.2-.2 0-.7-.4-1-.3-.4-1.1.3-1.3.6-.3.5.2.9.5 1q.2 0 .3.1c.6-.3.8-.6.9-.7z" fill-rule="evenodd"/><path d="m37.7 5.2c.1.1 1.3 3 1.4 3.2 0 .2-.1.2-.2.1s-.7-.6-.7-.6 1.1 8 1.2 8.2q.3 2.4.2 3.5c-.1 1-.3 1.4-.3 1.5-.1.2-.2.1-.1-.1-.1-.6-.2-1.6-.3-2.8-.3-2.5-1.4-10.2-1.6-11.5 0-.1-.1-.5-.1-.6 0 0 .4-.9.4-1 .1-.1.1 0 .1.1z"/><path d="m43.8 7.8c-.1.2-.1.1-.2-.1-.1 0-.4-.3-.4-.3s-.4.9-1.1 1.4c-1.3 1-2.5 1.2-2.5 1.2-.2 0-.2-.1 0-.2.8-.5 1.8-.8 3.2-2.6 0 0-.4-.1-.7-.4-.3-.2-.2-1 .1-1.3.5-.8 1-.4 1.1-.3.4.8.2 1.6.2 1.6.2.2.5.5.3 1zm-.9-2.1c-.1 0-.3 0-.5.4-.1.1 0 .2.2.3.1 0 .6.2.6.2 0-.1 0-.6-.3-.9z" fill-rule="evenodd"/></g></svg>