<svg height="30" viewBox="0 0 70 30" width="70" xmlns="http://www.w3.org/2000/svg"><g fill="#191c4f"><path d="m34.5 21.3 1.2.9q.1 0 0 .1l-.7 1q0 0-.1 0l-1.1-.9-.6.9q-.1 0-.1 0l-1.2-.9q-.1 0 0-.1l.7-.9q0-.1.1-.1l1.1.9.6-.8q.1-.1.1-.1z"/><path d="m19.4 21.2s0 .3-.1.5c-.3 1.2 0 1.7 0 1.8.4.6.9.2 1-.2.1-.3.2-.2.2-.1q-.1.1-.1.4c-.1.7-.4.9-.7.9-.5.1-.7-.5-.8-.7-.2-1.3.3-2.4.4-2.7s.2-.2.1.1z"/><path d="m63.8 20.8v.6c0 .2-.1.6-.2 1-.2.3-.9.5-1.4.1-.9 1.4-1.7.7-2.1.5-.8-.3-1 .2-1.2.4-1 1.2-2.8 1.1-3.2 1.2-.5 0-.1-.3.1-.3 1.4-.5 2.2-.6 3.5-1.8.6-.6.9-.3 1.1-.2 1.2.5 1.4 0 1.5-.2.2-.1.4-.7.5-.9s.2-.1.1.1c0 .1 0 .3-.1.4.5.4 1 .1 1.1 0 0 0 0-.4 0-.5q-.1-.2.1-.6c.1-.3.2 0 .2.2z"/><path d="m41.9 19.1c-.4 1.2-2 1.8-2.4 1.9-1.5.5-1.6-1-1.5-2.1.1-1 .8-2.4.8-2.4s-1.6-1.3-1.7-1.4-.3-.3-.4-.4c-.2-.1-.2-.2-.2-.2s.1-1.1.1-1.2 0-.1.2 0c.1 0 1.8.7 2 .8.1.1.1.2 0 .2-.1.1-.7.2-.7.2l1.4 1s1.9-2.5 2.1-2.7c.2-.3.2-.2.2.1-.1.3-.5 1.3-.5 1.5-.1.2-1.1 1.5-1.1 1.5s1.3.8 1.6 1.2c.5.8.2 1.6.1 2zm-2.5-2.2s-.8 1.5-.9 1.7c-.4.9.4 1.1.8 1 .3 0 1.4-.6 2-1 .5-.5-1.5-1.5-1.9-1.7z" fill-rule="evenodd"/><path d="m11.3 15.5s-.1.6-.2 1c-.4 1.9-.1 2.8 0 2.9.5 1 1.1.4 1.3-.3.1-.4.2-.2.2 0q0 .2-.1.6c-.2 1.2-.6 1.5-.9 1.5-.7 0-1-.9-1.1-1.4-.2-2.1.5-3.9.6-4.4.2-.5.3-.3.2.1z"/><path d="m65.6 17.7c-.1.3-.4 1.4-2 1.1-.4-.1-1.2-.3-1.5-1.1-.4.5-1.3 2-3.1 1.7-.4-.1-1.6-.5-1.7-2.1 0 0-1.4 1.2-2.1 1.5 0 .6 0 1.2-.3 2-.2.7-3.4 4.3-6 4.8-.9.2-4.2.8-4.3-2.9 0-.7 0-1.3.1-1.7-2.1 1.6-4.5 2.8-5.2 3.1-1.1.5-4.9 1.2-5.5 1.3-.5.1-.6-.1-.3-.2.3-.2 8.7-3 13-7.6.1-.1.1-.3 0-.5-.2-.3-1.5-2.9-1.6-3.2-.2-.4-.4-.8-.4-.9q-.1-.2-.1-.4c.1-.2.2-.9.2-1 .1-.2.1-.1.2 0s1.5 1.5 1.6 1.7c.2.2.1.2 0 .2h-.7s.9 1.5 1.2 2.1c.5 1.3.2 2.3 0 2.7-.4.8-1.1 1.6-2 2.3-.1.6-.4 3.7 2.4 3.8.5 0 1.9.2 4.8-2.2.7-.5 1.4-1.2 2-2.1.3-.3.5-1 0-.9s-3.4 1.2-3.9-.7c-.1-.4.2-4.7 3.1-2.6.2.2.8.7 1.3 1.6.4-.3 1.4-.8 2.5-1.7.3-.3.6-.4.6 0s-.2 2.8 2.4 2.1c.3-.1 1.5-.3 2.3-2.4.2-.5.5-.4.3 0-.2.5-.5 1-.2 1.2.3.3 1 .8 2 .7.3 0 .5-.2.4-.5-.2-.2-.5-.8-.5-.8.1-.3.2-.9.3-1 0-.1.1-.3.2-.1.1.1 1 1.2.5 2.7zm-12.1.2c-.9-1.3-2.1-.6-2.2-.4-.1.1-.2.4.7.5 1.1.1 1.5-.1 1.5-.1z" fill-rule="evenodd"/><path d="m15.7 11.5s0 .3-.1.6c-.3 1.2 0 1.6 0 1.8.5.5.9.1 1-.3.1-.2.2-.1.2 0q-.1.1-.1.3c-.1.7-.4.9-.7 1-.5 0-.7-.5-.8-.8-.2-1.2.3-2.3.4-2.7.1-.3.2-.2.1.1z"/><path d="m34 17c-.2.7-1.2 1.1-1.5 1.3 0 0 0 1.3-.3 1.9-.5 1.1-1.5 2.1-2.3 2.8-3.5 2.8-5.5 1.7-5.9 1.4-2-1.4-1-5.3-.8-5.9q0 0 0 0c-.8-.1-1.5-.7-1.5-.7-.6 1.6-1.4 1.5-1.6 1.5-.7-.1-1.3-1-1.3-1-.8 1.1-1.9 1.1-2.1 1.1 0 0 .1 1.5-.1 2.1-.2 1.2-2.2 2.5-2.5 2.8-4.1 2.8-7 1.1-7.3.9-2.8-2-1.1-6.1-.9-6.8-.5-.2-.8-1-.8-1.5-.3-2.2.4-4.1.6-4.7.1-.5.3-.3.2.2 0 0-.1.6-.2 1-.5 2.1-.1 3 0 3.2.5 1 1.1.4 1.4-.4 0-.4.2-.2.1 0q0 .2 0 .6c-.3 1.2-.6 1.5-1 1.6-.6 1.7-.4 3.3-.3 3.7.5 2.3 3.3 2.3 3.8 2.3 3.2-.1 6-2.9 6.3-3.2.2-.2.3-.6.3-.8-.2-.9-1.2-2.5-1.2-2.5s.1-1 .1-1.1c0-.2.1-.1.2 0s.7 1 .7 1c1.8.8 3-1.2 3.1-1.5.2-.3.3-.1.2.2 0 .1-.1.2-.1.4 0 .7.9.9 1 .9 1 .1 1.2-1.1 1.4-1.6s.3-.2.3.1c.1.2.6.8 1.7.9 1 0 .8-.6.7-.9s-1.7-3.1-1.8-3.2c-.1-.2-.2-.5-.3-.6-.1 0-.1-.1-.1-.2 0 0 .2-1.2.2-1.4.1-.2.2.1.3.2 0 0 1.3 1.2 1.5 1.4s0 .3-.1.2c-.1 0-.8-.1-.8-.1s1.2 1.7 1.7 2.9c.3.9 0 1.9 0 2.1-.3.7-.8.9-1.1.9q-.2.1-.3.1c-.4 1-.4 2.6-.3 2.9.5 2.1 2.5 2.1 3.1 2 3.2-.5 5.4-4.4 5.5-4.5 0-.2 0-.4-.1-.3-.1 0-.9.2-1.2.2-1.2.4-1.9-.1-2.1-.4-.5-.6-.3-2.1.4-2.8.8-.7 1.3-.4 1.6-.2.9.5 1.6 1.5 1.6 1.5.7-.2 1.3-.7 1.5-.8s0-.4-.3-.7c-.4-.4-1.3-2-1.4-2.2s-.2-.4-.4-.5c-.1-.1-.1-.2-.1-.4s.1-.9.2-1.2.3.2.3.3c.1.1 1.4 1.1 1.5 1.2.2.2 0 .3-.1.2q-.2 0-.6 0s1 1.3 1.1 1.5c.6 1.3.3 2.3.2 2.6zm-3.1.5c-.6-.9-1.3-.9-1.6-.6-.4.3-.4.5-.1.6 1 .3 1.7 0 1.7 0z" fill-rule="evenodd"/><path d="m40.2 10.1 1.2.8q.1.1.1.1l-.7 1q-.1 0-.1 0l-1.2-.8-.6.8q0 0-.1 0l-1.2-.9q0 0 0-.1l.7-.9q0-.1.1 0l1.2.8.6-.8q0-.1 0 0z"/><path d="m62.5 10.1s-.1.3-.1.5c-.4 1.1-.2 1.6-.2 1.7.3.5.7.2.9-.2 0-.2.1-.1.1 0q0 .1-.1.3c-.2.7-.4.8-.6.8-.4 0-.6-.5-.6-.8-.1-1.1.4-2.1.5-2.3.1-.3.2-.2.1 0z"/><path d="m50.7 9.5s-.1.3-.2.6c-.4 1.1-.2 1.6-.1 1.7.3.6.7.3.9-.1 0-.3.1-.1.1 0q0 .1-.1.3c-.2.7-.5.9-.7.9-.4-.1-.6-.6-.6-.9-.1-1.2.4-2.3.5-2.6.2-.3.3-.1.2.1z"/><path d="m21.7 8.3 1.2.8q.1.1 0 .1l-.7 1q0 0-.1 0l-1.2-.9q0 0 0-.1l.7-.9q.1-.1.1 0z"/><path d="m18.7 6.6c-.1.2-.1.2-.2.5-.1.2-.2.3-.4.4-.2.2-7.9 4-8.7 4.5-.8.6-.7.9-.5 1 .6.1.9.6.5 1.2 0 .1 0 .1-.1 0 0-.1-.2-.2-.5-.3-.4 0-.6-.7-.5-1.3.1-.5.4-.9.7-1.2.7-.5 9.1-4.7 9.4-4.9.4-.2.3 0 .3.1z"/><path d="m10.9 6.3c.1.2.1.7 0 1-.1.2-.3 0-.4-.2 0 0-.2-.1-.3-.2-.7-.5-.8.5-.8 1-.1.3 0 1.5 0 2.1-.1.3-.2.3-.3.1-.5-1.4-1.4-1.9-1.5-2.1-.2-.1-.3.1-.3.2s-.1.1-.1.1c-.1-.1-.6-.3-.8-.4-.1-.2-.1-.7-.1-.9 0-.4.2-.5.3-.5 1.7.8 2.3 2.3 2.4 2.5 0-1.1 0-2.2.5-3 .5-.7 1.3.2 1.4.3z"/><path d="m26.4 5.4s-.1.3-.1.6c-.3 1.1-.1 1.6 0 1.8.4.5.9.1 1-.3.1-.2.2-.1.1 0q0 .1 0 .3c-.2.7-.5.9-.7 1-.5 0-.8-.5-.8-.8-.2-1.2.2-2.3.3-2.7.2-.3.3-.2.2.1z"/><path d="m32.5 7.9c0 .2-.1.1-.2 0s-.5-.4-.5-.4-.9 1.7-1.7 2.5c-1.4 1.3-2.7 1.9-2.8 1.9s-.2-.1 0-.3c.9-.7 2.6-2 4-4.2 0 0-.5-.1-.9-.4-.4-.2-.3-1.1-.1-1.5.5-1.1 1.1-.7 1.2-.5.7.9.5 1.8.5 1.8.3.2.7.5.5 1.1zm-.9-1.3c0-.1 0-.7-.4-1-.2 0-.3 0-.6.5-.1.1 0 .3.3.3.2.1.7.2.7.2z" fill-rule="evenodd"/><path d="m49.6 4.7c0 .1 0 .1-.1.3s-.2.3-.4.4c-.2.2-6.4 3.7-6.6 3.8-.3.3-.3.1-.2 0q0-.1 0-.4c.1-.2.2-.2.4-.4.3-.1 6.4-3.7 6.7-3.8.3-.2.3-.1.2.1z"/><path d="m57.2 5c.1.3 0 .8-.1 1.1-.1.2-.3 0-.4-.2 0 0-.1-.1-.3-.3-.6-.5-.8.5-.9 1-.1.4-.1 1.5-.2 2.2-.1.3-.2.3-.3.1-.5-1.5-1.3-2.2-1.4-2.3-.2-.1-.3.1-.3.2s-.1.1-.2 0c-.1 0-.5-.3-.7-.5-.1-.1-.1-.7-.1-.9.1-.4.3-.5.4-.5 1.7 1 2.2 2.6 2.3 2.9.1-1.3.2-2.3.8-3.2.5-.7 1.3.3 1.4.4z"/><g fill-rule="evenodd"><path d="m63.3 7.7c-.1.1-.1 0-.3-.1-.1-.2-.2-.3-.4-.5-.3.6-.3.7-1.3 1.5-2.3 2-4.8 2.7-4.9 2.7-.2.1-.2 0 0-.2.8-.6 4.1-2.1 5.8-4.1 0 0-.6-.2-.9-.5-.4-.2-.2-1.2 0-1.5.7-1 1.3-.5 1.4-.4.5 1 .2 1.9.2 1.9.3.2.6.6.4 1.2zm-1.1-2.5c-.1-.1-.3-.1-.6.4-.1.1 0 .3.2.4.2 0 .7.3.7.3 0-.2.1-.7-.3-1.1z"/><path d="m22.1 7.4c0 .1-.1 0-.2-.1s-.5-.4-.5-.4-.4 1.1-1.2 1.7c-1.4 1.1-2.7 1.4-2.7 1.4-.2 0-.2-.1 0-.2.9-.6 2-1 3.5-3 0 0-.5-.2-.9-.4-.3-.3-.2-1.1.1-1.5.6-1 1.1-.5 1.2-.4.6.9.3 1.8.3 1.8.3.2.6.5.4 1.1zm-1.1-2.3c-.1-.1-.3-.1-.6.4-.1.1.1.2.3.3s.6.3.6.3c0-.1.1-.7-.3-1z"/><path d="m39.9 7.3c0 .2-.1.1-.2-.1-.1-.1-.5-.4-.5-.4s-.5 1.1-1.3 1.7c-1.6 1.2-2.9 1.4-3 1.4s-.2-.1.1-.2c1-.6 2.1-1 3.8-3.1 0 0-.5-.2-.9-.4-.4-.3-.2-1.2.1-1.6.6-1 1.2-.5 1.3-.3.5.9.2 1.9.2 1.9.3.2.6.5.4 1.1zm-1.1-2.4c-.1-.1-.2-.1-.6.3-.1.2 0 .3.3.4.2.1.7.3.7.3 0-.1 0-.7-.4-1z"/></g></g></svg>