<svg height="72" viewBox="0 0 128 72" width="128" xmlns="http://www.w3.org/2000/svg"><g fill="#f3efdf"><g fill-rule="evenodd"><path d="m30 36.1q0 2.8-.6 4.4-.5 1.6-2 3.3-1.6 1.6-4.2 3.6-2.2 1.7-5.4 2.6-3.1 1-5.4 1-4.9 0-6.9-3.4-1.5-2.5-1.5-7.1 0-2.8.8-6.6.8-3.9 1.6-5v1.5q-.2.5-.7 3.8-.5 3.2-.5 4.2 0 3.3 2.1 5.8 2.1 2.4 5.7 2.4 2.2 0 4.6-.8 2.5-.8 4.4-2 2.4-1.6 4.6-3.6 2.3-2.2 2.3-3.1 0-.5-.3-1.1-1-1.5-1.9-3.1-.3-.5-.9-2-.6-1.6-.8-2-.3-.6-.4-.9-.2-.4-.2-1l.5-3.8h.4q.5 1.1 1.8 2.9.4.6 1.2 1.7v.6q-.8-.3-1.5-.6 1.6 2.7 2.1 3.5 1.1 1.9 1.1 4.8zm-17.6-21.7q-.3.1-.5.2-.2-.3-.3-.5-.2-.6-.5-.6-.5 0-.8 1-.5 1.4-1.2 5.6h-.5q-.7-3.9-1.6-3.8-.9 0-1.4-.2-.8-.5-.8-1.7 0-1.5 1-1.5 1.3 0 2.3 2.5.4 1.2.8 2.3.4-2.4.7-3.6.7-2.8 1.7-2.8.4 0 .7.5.2.2.5.7zm6.3 10.3-2.2 2.6-2.5-2.9 2.3-2.6zm63.7 9.6q0 2.8-.6 4.2 0 .1-.1.2 0 .2-.1.5 0 .8 0 1.5 0 2.5 1.5 4.3 1.6 1.8 3.9 1.8 2 0 4.2-1 1.4-.7 2.7-1.7 6.4-5 6.4-7-.1-.5-.9-2.1-2.2-3.9-2.5-5.2l-.8-2.3q0-.3.3-1.9 0-.5.2-1.5h.4l3.6 4.3v.7q-.5-.1-.8-.2-.9-.2-1.1-.1 1 1.7 2 3.4.7 1.6.7 4.3 0 3.2-1.1 5.3-1.1 2.2-4.1 5-2.6 2.5-4.2 3.4-2.4 1.4-5.1 1.4-3.2 0-4.8-3-1.3-2.6-1.3-6.5 0-1.3.2-2.6-.5.3-1.1.3-1.4 0-3.1-1.2-1.6-1.4-1.9-1.6-1.1 2.1-1.2 2.3-1 1.5-2.2 2.5-1.8 1.4-4.5 2-1.7.3-3.9.3h-1q-.8 0-1.7-.1-.9-.1-1.7-.3-.7.2-1.1.3-1.2.4-1.9.4l-3-.1q-1.3 0-2.5-.7-.1-.1-.4-.4l-2.2 3.8v-1.3q.4-1 .5-1.4.6-1.4.7-1.6-1.1-1.2-1.4-1.9-.3-1.1-.5-1.9-2 3-5.2 4.7-2.4 1.3-4.3 1.3-1.5 0-2.5-1-1.1-.9-1.7-2.6-.8-2.2-1.4-9.2-.4-4.6-.5-6.6-.5-6.3-.6-8.3-.3-3.1-.6-4.4-.1-.1-.2-.1-.1 0-.2-.2l-1.1 2.4v-1.3l1.9-7.2q0-.1.1-.2.1-.1.1-.1.6.5 1.2 2.5.5 1.9.5 4.3.4 4.9.5 6.8.1 1.9.4 5.7.5 6.6.7 7.8.5 3.9 1.6 5.8.7 1.6 2.4 1.6 2.3 0 4.6-1.4 2.8-1.5 5.5-4.8 0 2 .4 3 .5 1.1 1.6 1.9 2.5-4 5-8 2.7-3 5.3-3.1 2.4.1 4.2 1.7 1.8 1.6 1.8 4.1 0 1.3-.3 2.5-.6 1.9-1.8 3.2.7.2 1.4.2 2.3 0 4.8-1.5 2.2-1.3 3.3-2.8 1.3-2.9 2.1-4.5 1.5-3.2 3.1-3.2 1.3 0 2.3 1.7 1.1 1.8 1.1 4.7zm-34.4-19.9q0 3.2-1.7 5.2-.8.9-1.9 1.4-1.1.5-2.3.5-2.8 0-4.4-2-1.7-1.9-1.7-5 0-2.2.9-3.9.8-1.4 2-2.3 1.4-1 3.2-1 .7 0 1.7.4.1.1.5.3-1.5 0-2.9 1-1.9 1.5-1.9 4 0 1.8 1.1 3.1 1.1 1.3 2.6 1.3 1.6 0 2.7-1.4 1.4-1.9 1.4-4.3.2.3.2.5.5 1.5.5 2.2zm-.8 1q-.7 1.6-1.9 2.4-1 .6-2.1.6-1.7 0-3.1-1.5-1.4-1.6-1.4-3.9 0-1.4.6-2.6.5-1.3 1.8-2.1-.8 0-1.8.8-.9.7-1.5 1.6-.5.8-.7 1.7-.3 1-.3 2.1 0 2.5 1.5 4.3 1.4 1.7 3.7 1.7 1.8 0 3.2-1.1.8-.7 1.4-1.8.6-1.2.6-2.2zm8.2 8.3-2.1 2.6-2.5-2.9 2.2-2.7zm9.6 11.8q-1.5-1.7-2.8-2.3-1.3-.7-2.6-.7-2.2 0-4.7 2.8-1.8 2-3 4.5.5.1 1.1.2.6.1 1.2.1 3.5 0 7.2-1.9 2.8-1.5 3.6-2.7zm-2.8-20.2q0 .7-.5 1.4-.4.7-1.1.7-.7 0-1.1-.8-.4-.8-.4-1.8 0-1.4.6-3.5.6-2.1 1.4-3.4 0 .9-.5 2.9-.5 2-.5 2.9 0 .4.2 1 .2.7.5.7.6 0 1.1-1.9.3.3.3 1 0 .5 0 .8zm24.7-5.9q-.2 1.3-.8 1.8-.3.2-.5.3l-19.5 8q-.2.1-.6.5-.5.4-.6.4.1-.9.6-1.5.5-.6 1-.8l19.4-8q.2 0 .5-.3.3-.3.5-.4zm-6.1 26.2q-.3-1.6-1.1-2.4-.8-.8-1.6-.8-.3 0-.6.4-.5.5-.7.8 1.7 1.6 4 2zm14.9-22.4q-.2 1.3-.8 1.8-.3.2-.5.3l-11.3 4.5q-.2.1-.6.5-.4.4-.6.5.2-.9.6-1.5.5-.6 1-.9l11.2-4.5q.2 0 .5-.3.3-.2.5-.4z"/><path d="m71.5 56c.6-.1 1.3-.2 2-.2.9 0 1.8.1 2.4.7.6.5.7 1.1.7 1.9 0 .9-.5 1.8-1.4 2.3.6.2.9.8 1.1 1.8s.4 2.1.6 2.5h-1.9c-.1-.3-.3-1.2-.4-2.2-.2-1.2-.4-1.5-1-1.5h-.3v3.7h-1.8zm1.8 3.9h.3c.8 0 1.2-.6 1.2-1.4s-.3-1.3-1.1-1.3c-.1 0-.3 0-.4 0z"/><path d="m79.3 62.9-.4 2.1h-1.7l2-9.1h2.1l1.8 9.1h-1.7l-.4-2.1zm1.4-1.4-.3-1.9c-.1-.6-.2-1.5-.3-2.1-.1.6-.2 1.6-.3 2.1l-.4 1.9z"/></g><path d="m89.6 61.8c0-.9-.1-2.1-.1-3-.2.9-.4 2-.6 2.7l-.8 3.3h-1.2l-.8-3.2c-.1-.7-.4-1.9-.5-2.8h-.1c0 .9 0 2.1-.1 3l-.1 3.2h-1.6l.7-9.1h1.9l.7 3.2c.2 1.2.5 2.2.6 3.2h.1c.1-1 .3-2 .5-3.2l.8-3.2h1.8l.6 9.1h-1.6z"/><path d="m94.1 62.9-.4 2.1h-1.7l2-9.1h2.1l1.7 9.1h-1.7l-.4-2.1zm1.5-1.4-.3-1.9c-.1-.6-.2-1.5-.3-2.1-.1.6-.3 1.6-.3 2.1l-.4 1.9z" fill-rule="evenodd"/><path d="m98.8 56c.5-.1 1.1-.2 1.8-.2 1.2 0 2 .3 2.6.8.7.7 1.1 1.9 1.1 3.7s-.4 3.1-1.2 3.8c-.6.6-1.5.9-2.8.9-.6 0-1.1 0-1.5-.1zm1.8 7.6h.3c.9 0 1.6-.8 1.6-3.3 0-1.9-.5-3-1.5-3q-.2 0-.4 0z" fill-rule="evenodd"/><path d="m107.2 55.9v3.6h1.9v-3.6h1.8v9.1h-1.8v-3.9h-1.9v3.9h-1.7v-9.1z"/><path d="m113.9 62.9-.4 2.1h-1.8l2-9.1h2.1l1.8 9.1h-1.7l-.4-2.1zm1.5-1.4-.3-1.9c-.1-.6-.2-1.5-.3-2.1h-.1c-.1.6-.2 1.6-.3 2.1l-.3 1.9z" fill-rule="evenodd"/><path d="m118.6 65v-9.1h1.6l1.4 3.5c.3.7.7 1.9 1 2.7 0-1-.2-2.6-.2-4.2v-2h1.6v9.1h-1.6l-1.4-3.5c-.3-.8-.7-1.9-.9-2.7h-.1c.1.9.2 2.3.2 4.1v2.1z"/></g></svg>