<svg height="30" viewBox="0 0 70 30" width="70" xmlns="http://www.w3.org/2000/svg"><g fill="#191c4f"><path d="m14.5 23.7c0 .1-.1.1-.1.3-.1.2-.2.2-.4.3s-3.4 1.4-3.5 1.5c-.4.2-.3 0-.3-.1q0 0 .1-.3c0-.1.1-.2.4-.3.2-.1 3.3-1.4 3.6-1.5.3-.2.3-.1.2.1z"/><path d="m20.7 23.4c.3.2.1.6 0 .8-.4.9-1.2 1.4-1.4 1.6-.2.1-.3 0-.1-.1 0 0 .2-.2.4-.3.7-.7.8-1.1.8-1.2 0-.5-.4-.5-.7-.3-.1.1-.1 0-.1 0q.1-.1.2-.2c.4-.4.7-.4.9-.3z"/><path d="m29.4 22.8 1.1.7q.1.1 0 .1l-.6.9q0 0-.1 0l-1.1-.8q0 0 0-.1l.7-.8q0-.1 0 0z"/><path d="m35.9 22c.3.2.2.6.1.8-.5.9-1.3 1.4-1.5 1.6-.2.1-.2 0 0-.2 0 0 .2-.1.3-.3.8-.6.8-1 .8-1.1.1-.5-.3-.5-.6-.3-.2.1-.2 0-.1 0q0-.1.2-.2c.4-.4.7-.4.8-.3z"/><path d="m64 20.9v.5c0 .3-.1.6-.2.9-.1.4-.9.5-1.3.2-.8 1.2-1.5.6-1.9.5-.7-.3-.9.2-1.1.3-.9 1.1-2.5 1-2.9 1.1-.4 0-.1-.2.1-.3 1.2-.5 2-.6 3.2-1.6.5-.5.8-.3 1-.2 1.1.5 1.2 0 1.4-.1.1-.2.3-.7.4-.9s.2-.1.1.1c0 .1 0 .3-.1.4.5.3.9 0 1 0 0 0 0-.4 0-.5q0-.1.1-.6c.1-.2.2 0 .2.2z"/><path d="m44 19.4c-.3 1-1.8 1.6-2.2 1.7-1.3.5-1.4-.9-1.3-1.9.1-.9.8-2.2.8-2.2-.1 0-1.5-1.2-1.6-1.3s-.3-.2-.4-.3-.1-.2-.1-.2 0-1 0-1.1.1-.1.2 0c.1 0 1.6.6 1.8.7s.1.2 0 .3c-.1 0-.6.1-.6.1l1.3.9s1.7-2.3 1.9-2.5.1-.1.1.1c0 .3-.4 1.2-.4 1.4-.1.1-1 1.4-1 1.4s1.1.7 1.4 1.1c.5.7.2 1.4.1 1.8zm-2.2-2s-.8 1.3-.9 1.6c-.3.8.5.9.7.9.3 0 1.4-.6 1.9-1s-1.4-1.4-1.7-1.5z" fill-rule="evenodd"/><path d="m65.6 18.1c-.1.3-.4 1.3-1.8 1-.3-.1-1.1-.2-1.4-1-.3.4-1.1 1.8-2.8 1.6-.3-.1-1.5-.5-1.5-2 0 0-1.4 1.1-2 1.4.1.6 0 1.1-.2 1.8-.2.6-3.1 3.9-5.5 4.4-.8.2-3.8.8-3.9-2.6q0-1.1.1-1.6c-1.9 1.4-4.1 2.5-4.8 2.8-.9.5-4.4 1.1-5 1.2-.4.1-.5 0-.2-.2.2-.1 7.9-2.7 11.8-6.9.1-.1.1-.3 0-.5s-1.4-2.6-1.5-2.9-.3-.7-.3-.8q-.1-.1-.1-.3c.1-.2.2-.8.2-1 .1-.1.1 0 .2.1s1.3 1.3 1.5 1.5c.1.1 0 .2-.1.2h-.6s.8 1.4 1.1 1.9c.4 1.1.2 2 0 2.4-.4.8-1 1.5-1.8 2.1-.1.6-.4 3.4 2.2 3.5.4 0 1.7.1 4.3-2 .6-.5 1.3-1.1 1.9-1.9.2-.3.3-.9-.1-.8-.4 0-3.1 1-3.5-.6-.1-.4.1-4.3 2.8-2.4.2.2.8.6 1.2 1.4.4-.2 1.2-.7 2.2-1.5.3-.2.6-.4.6 0 0 .3-.2 2.6 2.2 1.9.3-.1 1.3-.3 2-2.2.3-.4.5-.4.4 0-.2.5-.5.9-.2 1.1.2.2.9.7 1.8.6.3 0 .4-.1.3-.4-.1-.2-.4-.7-.4-.7.1-.3.2-.8.2-1 .1-.1.1-.2.2-.1s.9 1.2.5 2.5zm-11 .2c-.9-1.2-1.9-.6-2-.4-.1.1-.2.4.6.5 1 .1 1.4-.1 1.4-.1z" fill-rule="evenodd"/><path d="m10 14.9s-.1.4-.2.6c-.3 1.2-.1 1.7 0 1.9.4.5.8.2.9-.3.1-.2.2-.1.2 0q-.1.1-.1.4c-.2.7-.5.9-.7.9-.4 0-.7-.5-.7-.8-.2-1.3.3-2.4.4-2.8.1-.3.3-.1.2.1z"/><path d="m42.5 11.2 1.1.8q.1 0 0 0l-.6.9q0 .1-.1 0l-1-.7-.6.7q0 .1-.1 0l-1.1-.8q0 0 0 0l.7-.9q0-.1.1 0l1 .7.6-.7q0-.1 0 0z"/><path d="m62.8 11.2s-.1.3-.1.5c-.4.9-.2 1.4-.1 1.5.2.4.6.2.7-.2.1-.1.1-.1.1 0q0 .1 0 .3c-.2.6-.5.7-.6.7-.4 0-.6-.4-.6-.7 0-1 .4-1.9.5-2.1.1-.3.2-.2.1 0z"/><path d="m15.7 11.8s-.1.3-.1.5c-.4 1-.1 1.5-.1 1.6.4.5.8.2.9-.2.1-.2.2-.1.1 0q0 .1 0 .3c-.2.7-.5.8-.7.8-.4 0-.6-.5-.7-.7-.1-1.1.4-2.1.5-2.4s.2-.2.1.1z"/><path d="m52 10.7s0 .3-.1.5c-.4 1-.2 1.5-.1 1.6.3.5.6.2.8-.2 0-.2.1-.1.1 0q0 .1-.1.3c-.2.7-.4.8-.6.8-.4 0-.6-.5-.6-.8-.1-1.1.4-2 .5-2.3s.2-.2.1.1z"/><path d="m25.4 15.5s-.1.4-.2.6c-.4 1.2-.1 1.8 0 1.9.3.6.8.2 1-.2 0-.3.1-.2.1-.1q0 .2-.1.4c-.1.8-.5.9-.7 1-.5 0-.8-.6-.8-.9-.2-1.3.4-2.4.5-2.7.1-.4.3-.2.2 0z"/><path d="m31.1 14.4s0 .2-.1.4c-.3.9-.2 1.3-.1 1.4.2.5.6.2.7-.1.1-.2.1-.1.1 0q0 .1-.1.3c-.1.5-.3.7-.5.7-.4-.1-.5-.5-.5-.7-.1-1 .3-1.9.4-2.1s.2-.1.1.1z"/><path d="m31.4 10.7c-.1.1-.1.1-.2.3s-.2.3-.4.4c-.3.1-9.8 4.5-10 4.6-.4.2-.3.1-.3-.1q.1 0 .1-.3c.1-.2.2-.3.5-.4.2-.1 9.7-4.5 10-4.7.4-.1.4 0 .3.2z"/><path d="m10.4 7c.1.2.1.5 0 .8 0 .1-.2 0-.3-.1 0 0-.1-.1-.3-.2-.5-.4-.6.4-.6.8-.1.3 0 1.2-.1 1.8 0 .2-.1.2-.2 0-.4-1.1-1.1-1.6-1.2-1.7-.2-.1-.2.1-.3.2 0 0 0 0-.1 0s-.5-.2-.6-.3c-.1-.2-.1-.6-.1-.8 0-.3.2-.4.3-.4 1.4.7 1.9 2 2 2.2 0-1-.1-1.9.4-2.6.4-.6 1.1.2 1.1.3z"/><path d="m24.9 7c.1.2.1.5 0 .8 0 .1-.2 0-.3-.1 0 0-.1-.1-.3-.2-.5-.4-.6.4-.6.8-.1.3 0 1.2-.1 1.8 0 .2-.1.2-.2 0-.4-1.1-1.1-1.6-1.2-1.7-.2-.1-.2.1-.3.2 0 0 0 0-.1 0s-.5-.2-.6-.3c-.1-.2-.1-.6-.1-.8 0-.3.2-.4.3-.4 1.4.7 1.9 2 2 2.2 0-1-.1-1.9.4-2.6.4-.6 1.1.2 1.1.3z"/><path d="m28.2 6.3s-.1.3-.1.5c-.4 1.1-.1 1.5-.1 1.6.4.5.8.2.9-.2.1-.2.2-.1.1 0q0 .1 0 .3c-.2.7-.5.8-.7.8-.4.1-.6-.4-.7-.7-.1-1.1.4-2.1.5-2.4.1-.2.2-.1.1.1z"/><path d="m51.1 6.3c-.1.1-.1.1-.1.3-.1.2-.2.2-.4.3-.2.2-5.9 3.4-6 3.5-.3.2-.3.1-.2 0q0-.1 0-.4c.1-.1.2-.2.4-.3.2-.2 5.8-3.4 6-3.5.4-.2.3-.1.3.1z"/><path d="m58 6.6c.1.2 0 .7-.1.9s-.3 0-.4-.1c0 0-.1-.2-.2-.3-.6-.4-.8.5-.9.9 0 .4-.1 1.4-.2 2 0 .3-.2.3-.3.1-.3-1.3-1.1-2-1.2-2.1s-.2.1-.3.2c0 .1-.1 0-.1 0-.1 0-.5-.3-.7-.5-.1-.1-.1-.6 0-.8 0-.3.2-.5.3-.4 1.5.9 2 2.3 2.1 2.6.1-1.1.1-2.1.7-2.9.5-.6 1.2.3 1.3.4z"/><path d="m63.5 9c0 .1-.1 0-.2-.1s-.2-.3-.4-.4c-.3.5-.3.6-1.2 1.4-2.1 1.8-4.4 2.4-4.5 2.4-.1.1-.1 0 .1-.2.7-.6 3.7-1.9 5.2-3.7 0 0-.5-.2-.8-.5-.4-.2-.2-1 0-1.4.6-.9 1.1-.4 1.2-.3.5.9.3 1.7.3 1.7.2.2.5.5.3 1.1zm-1-2.3c-.1 0-.2 0-.5.4-.1.1 0 .2.2.3s.6.3.6.3c0-.1.1-.6-.3-1z" fill-rule="evenodd"/><path d="m32.7 5.8c0 .1 1.3 3.2 1.3 3.4.1.2 0 .2-.1.1s-.7-.6-.7-.6 1.3 6.9 1.4 7.6.4 2.8.4 3.3c0 1.6-1.1 2.2-1.5 2.4-2.4.8-2.8-1-3.1-1.8-3.1 2.2-5.1 2.6-5.9 2.7-4.1.6-5.2-2.1-5.2-2.1 0 .9-.4 1.3-.6 1.5-1.3 1.2-2.6.7-3 .6-2.1-.8-2.2-3.5-2.2-3.5 0 .9-.7 1.6-.9 1.9-3.1 3.3-5.6 3.3-6.1 3.2-2.9-.5-.7-6-.4-6.6q.1-.1.1-.1c-.3-.3-.5-.8-.5-1.1-.2-2.1.4-3.8.6-4.3.1-.5.3-.3.2.1 0 0-.1.5-.2.9-.5 1.9-.1 2.7 0 2.9.5.9 1 .4 1.2-.3.1-.4.2-.2.2 0q0 .1-.1.5c-.2 1.2-.6 1.5-.9 1.5q-.2 0-.3-.1 0 .1-.1.3c-1.2 3.2-.6 4.1-.6 4.3.7 1.3 2.1.6 2.5.5 1.9-.6 4.5-3.2 4.8-3.6.4-.5.3-.8.3-.9-.4-2.5-2.4-6-2.6-6.3 0 0 .1-1 .1-1.2.1-.7 1.9 2.2 2.8 5 .3 1.1.4 3 .7 3.8.3 1.2.9 1.5 1.5 1.8 1.3.6 2.5-.3 2.9-.7.3-.3-.2-2.9-.3-3.6s-1.2-8.4-1.3-8.9c-.1-.4.3-1.2.4-1.4s.1-.1.2.3 1.6 10.5 1.8 11.1c.6 3.6 3.9 3.3 4.4 3.2 2.9 0 6.9-2.8 7.1-3 .1-.1.2 0 .1.2v.9c.2.8.7 1 .8 1.1 1.1.4 2.2-.3 2.4-.5s.1-.7 0-1.1c-.1-.3-2-11.1-2-11.6-.1-.5-.2-.7-.2-.8 0 0 .4-.9.5-1 0-.2.1-.1.1 0z"/><path d="m35.8 5.8c0 .1 1.3 3.3 1.4 3.5 0 .2-.1.2-.2.1s-.7-.7-.7-.7 1.1 8.6 1.2 8.9c.2 1.7.3 2.9.2 3.7 0 1.1-.2 1.5-.3 1.6-.1.2-.2.1-.1-.1-.1-.6-.2-1.8-.3-3-.4-2.6-1.5-10.9-1.7-12.3 0-.2-.1-.6-.1-.6s.4-1 .4-1.1c.1-.2.1-.1.2 0z"/><path d="m42.2 8.7c0 .1-.1 0-.2-.1 0-.1-.4-.4-.4-.4s-.5 1-1.2 1.5c-1.4 1.1-2.6 1.3-2.7 1.3s-.2-.1.1-.2c.9-.5 1.9-.9 3.4-2.7 0 0-.5-.2-.8-.5-.3-.2-.2-1.1.1-1.4.6-.9 1.1-.5 1.2-.3.5.9.2 1.7.2 1.7.3.2.5.5.3 1.1zm-.9-2.3c-.1 0-.3 0-.6.4-.1.1 0 .2.2.3s.6.3.6.3c.1-.1.1-.6-.2-1z" fill-rule="evenodd"/><path d="m21 4.2c-.1.1-.1.2-.2.4s-.2.3-.4.4c-.1.1-5.6 2.4-6.3 2.9-.8.5-.7.7-.5.8.5.1.8.5.5 1.1 0 0-.1.1-.1 0-.1-.1-.2-.2-.5-.3-.4 0-.5-.6-.4-1.2.1-.4.3-.8.6-1 .6-.5 6.8-3.1 7-3.2.4-.2.3-.1.3.1z"/></g></svg>