<svg height="72" viewBox="0 0 128 72" width="128" xmlns="http://www.w3.org/2000/svg"><g fill="#f3efdf"><path d="m110.6 33.9q0 3.1-.7 4.6-.8 1.5-2.5 1.5-1.9 0-4.1-1.3-2-1.6-2.4-1.8-1.2 2-1.5 2.4-1.2 1.6-2.9 2.7-2.8 1.8-5.7 1.8-2.8 0-4.3-1.7-1.2-1.5-1.2-3.9 0-1.3.3-2.4l-2-.1q-2.5 0-5.3.5-2.8.4-5.6 1.6-4.3 2-8.6 4-4.6 1.8-10.1 1.8-1.5 0-2.9-.3-1.4-.3-2.1-.9 0 1.3-.4 2.9-.4 1.7-.7 2.3-2 3.4-7.6 7-5.7 3.7-9.8 3.7-3.9 0-6.1-4-1.8-3.3-1.8-7.6 0-1.1.3-2.9.3-1.7.8-3.4-.8.4-2.1 1-1.3.7-2 1.1-1.4.8-5.8 4.1-3 2.3-4.8 2.3-3.7 0-5-2.5-1-1.7-1-5.4 0-2.5 1.7-5.8 1.7-3.3 4.2-5.3v1.3q-1.9 2.1-3.1 4.5-1.3 2.7-1.3 5.3 0 1.2.9 2.4.8 1.2 2.1 1.2 1.6 0 10.1-5.6 2.3-1.5 4.7-2.6 2.4-1 4.8-1.9-.5-1.1-.5-1.9 0-.6 0-1.1 0-2.2 1.1-3.5 1.1-1.4 2.7-1.4.9 0 3.6 1.8 2.6 1.8 3.4 2.8 0 1.4-.3 3-.3 1.6-.6 2.1-.4.3-2.6.7-2.2.5-2.8.8-.1.1-.3 1.3-.2 1.2-.7 1.8-.2-.7-.4-1.3-.2-.6-.4-1.2-1.2 0-4.2 1.3-.3 1.1-.6 3.3-.4 2.2-.4 3.4 0 2.1 1.3 4.1 1.8 3 5.3 3 4.7 0 11-4.6 5.5-4 6.1-6.1 0-.6-1.4-3.3-.9-1.8-1.1-2.3l1.2-4.5q2.1 2.8 2.7 3.5 2.3 2.5 5.5 2.5 4.6 0 12.3-2.3 6.6-1.9 8.3-2.9-.8-.2-4.1-.9-6.1-1.3-9.5-1.3-1.5 0-2.8.3 1-2.4 2.4-4 1.4-1.6 2.5-1.6 6.8 2.1 14 3.6 8.1 1.8 14.5 1.8l-2.2 4.3-3.1.1q0 1.7 1.4 2.5 1.1.7 2.9.7 3 0 4.7-.9 1.8-.9 3.5-2.8 2-4.2 3.5-6.3 1.4-2.2 3.1-2.2 1.7 0 3.1 2 1.4 2 1.4 5.1zm-84.9-18.2q0 3.6-2.2 5.8-1 1-2.4 1.6-1.4.5-3.1.5-3.5 0-5.7-2.2-2.1-2.1-2.1-5.6 0-2.4 1.2-4.3 1-1.5 2.5-2.4 1.9-1.1 4.1-1.1 1 0 2.3.4.2.1.6.3-1.9 0-3.7 1.2-2.5 1.5-2.5 4.4 0 1.9 1.4 3.3 1.4 1.5 3.5 1.5 2 0 3.4-1.6 1.9-2 1.9-4.7.2.4.2.6.6 1.6.6 2.3zm-1 1.2q-.8 1.7-2.4 2.6-1.3.7-2.7.7-2.3 0-4.1-1.7-1.8-1.7-1.8-4.2 0-1.6.7-3 .7-1.4 2.4-2.2-1.1 0-2.3.8-1.3.8-1.9 1.7-.7 1-1.1 2-.3 1-.3 2.2 0 2.9 1.9 4.8 1.9 1.9 4.8 1.9 2.4 0 4.3-1.3.9-.7 1.7-1.9.8-1.3.8-2.4zm8.3 16.1q-.5-.4-1.5-1-1-.5-1.4-.6-.4-.2-.6-.2-.1 0-.2 0-.4 0-.6.1-.3.1-.5.2l1.6 2.1q.3-.1 2.1-.3.2-.1 1.1-.3zm21.9-23.7q-.3 1.4-1.2 2-.2.2-.5.3l-14.7 5q-.2.1-.8.5-.6.5-.7.5.1-.9.7-1.6.6-.6 1.3-.9l14.5-5q.3 0 .7-.3.4-.3.7-.5zm-3.4 12.3q0 1.8-.9 2.4-.4.3-1.2.3-.6 0-1.1-.6-.5-.6-.6-.9-.6 2-2.2 2-.8 0-1.3-.7-.5-.6-.5-2.5 0-.4 0-.9 0-.4.1-.8-.6.5-.8.8v-.9q.2-.5.6-1.1.3-.5 1.2-1.1 0 .7 0 1.3 0 .6 0 1.2 0 1.4.2 2.1.2.7.8.7.6 0 1.2-.5.5-.5.5-1 0-.6-.3-1.7-.2-.4-.4-1.2 0-.4.4-.9.1-.1.4-.5.6 1 .8 3 .2 2.1 1.3 2.5.2-.1.5-.3.2-.1.2-.5 0-.6-.3-1.7-.4-1-.7-1.9.3-.4.4-.6.4-.6.6-.7.3 1 .7 2.2.4 1.3.4 2.5zm29-9.9q-.3 1.5-1.2 2-.2.3-.5.3l-14.7 5.1q-.2.1-.8.5-.6.4-.7.5.1-1 .7-1.6.6-.7 1.3-1l14.5-4.9q.3-.1.7-.4.4-.3.7-.5zm23.3 3.2q-.5 1.6-.9 1.6-.6-.2-1.1-.4-.4 1.2-1.2 2.4-.8 1.2-1.6 1.8-1.1.9-3.6 1.8-1.3.5-3.3 1l-1-.3q2.2-.8 3.5-1.5 3.8-2.2 6.5-5.6-.9-.4-1.8-.9-.8-.6-.8-1.7 0-.9.9-2 .8-1.1 1.9-1.1.9 0 1.3.7.3.7.3 1.7 0 .8-.1 1.3-.1.5-.2.7 0 .2.6.4.5.1.6.1zm-2.2-1.1v-.6q0-1.3-.7-1.3-.6 0-.8.8.4.5 1.1.8.2.1.4.3zm7 21.5q-.4-1.9-1.4-2.7-1-.8-2.1-.8-.3 0-.6.3-.1 0-1.2 1 2.3 1.7 5.3 2.2z" fill-rule="evenodd"/><path d="m74.4 60c-.1-1.1-.2-2.5-.1-3.6h-.1c-.2 1.1-.5 2.5-.7 3.3l-.9 3.9h-1.5l-.9-3.8c-.2-.9-.5-2.2-.6-3.4h-.1c0 1.2-.1 2.5-.1 3.6l-.2 3.7h-1.8l.8-10.7h2.2l.8 3.9c.3 1.3.6 2.5.8 3.7.2-1.2.4-2.4.7-3.7l.9-3.9h2.2l.6 10.7h-1.9z"/><path d="m80 53v7c0 1.5.5 2 1 2 .6 0 1-.4 1-2v-7h2.1v6.6c0 2.8-1 4.3-3.1 4.3-2.2 0-3.1-1.6-3.1-4.3v-6.6z"/><path d="m88 53v4.3h2.2v-4.3h2.1v10.7h-2.1v-4.5h-2.2v4.5h-2.1v-10.7z"/><g fill-rule="evenodd"><path d="m95.9 61.3-.5 2.4h-2l2.3-10.7h2.5l2.1 10.7h-2l-.5-2.4zm1.8-1.7-.4-2.2c-.1-.7-.2-1.7-.3-2.5h-.1c-.1.8-.2 1.9-.4 2.5l-.4 2.2z"/><path d="m101.5 53.1c.7-.1 1.5-.2 2.3-.2 1.1 0 2.2.2 2.9.8.6.6.8 1.3.8 2.2 0 1.2-.5 2.2-1.6 2.8.7.3 1.1 1 1.3 2.1.2 1.2.5 2.5.7 2.9h-2.2c-.2-.3-.4-1.4-.6-2.5-.2-1.4-.5-1.8-1.2-1.8h-.3v4.3h-2.1zm2.1 4.7h.4c.9 0 1.4-.7 1.4-1.6 0-1-.4-1.6-1.3-1.6-.2 0-.4 0-.5 0z"/><path d="m110.7 61.3-.4 2.4h-2.1l2.4-10.7h2.5l2.1 10.7h-2.1l-.4-2.4zm1.7-1.7-.3-2.2c-.1-.7-.3-1.7-.4-2.5-.1.8-.3 1.9-.4 2.5l-.4 2.2z"/></g><path d="m122.9 60c0-1.1-.1-2.5-.1-3.6-.2 1.1-.5 2.5-.7 3.3l-.9 3.9h-1.5l-.9-3.8c-.2-.9-.5-2.2-.7-3.4 0 1.2-.1 2.5-.2 3.6l-.1 3.7h-1.9l.8-10.7h2.2l.9 3.9c.3 1.3.6 2.5.8 3.7.2-1.2.4-2.4.7-3.7l.8-3.9h2.2l.7 10.7h-1.9z"/></g></svg>