<svg height="72" viewBox="0 0 128 72" width="128" xmlns="http://www.w3.org/2000/svg"><g fill="#f3efdf"><path d="m108.8 41.2q0 4.2-2.3 6.5-.9 1-4.1 3.3-2.1 1.7-3.4 2.5-3.9 2.4-6.3 2.4-2.2 0-3.2-2.3-.7-1.6-.7-4.1 0-.5 0-.8 0-.3.2-1.5-.7.8-1.3 1.6-.9 1-1.8 1.9-3.2 2.8-5 3.8-2.8 1.7-5.6 1.7-3.4 0-5.1-2.1-1.4-1.8-1.4-5.1-1 .4-2 .4-1.9 0-3.3-1.4-.8-.9-1.8-2.8-2.3 1.9-4 2.9-1.7 1-2.9 1-2 0-3.9-1.2-1.6-1-3.4-3.2-.8.9-1.6 1.7-2.1 2-4.5 3.2-3.3 1.8-6.6 1.8-2.9 0-4.7-3.5-.9-1.6-2.1-5.8h-.2q-.1 1.6-1.7 4.1-1.7 2.8-4 4.8-1.5 1.3-3 2-1.5.7-3.2.7-3.4 0-4.5-2.3-.7-1.4-.7-4.3 0-1.8 1.1-5.1-.7.3-1.3.4-.5.2-1.3.2-1.7 0-2.3-1.1-.4-.8-.4-2.3v-.9q0-2.6.9-5.2.7-2 1.7-3.3-1.2-1.1-1.7-1.7-1.8-1.9-2-2.6-.1-.7-.7-1.1-.7-.4-.7-.6 0-.9.3-2.3.3-1.5.3-1.8l5.7 4.1v.6h-2.2l2.6 2.6q1.3-1.5 2.8-3.9 1.4-2.5 3-5.1l-.2 1.5q0 2-2 5.6-.6 1.2-1.9 3.2 1 .9 1.4 1.7 1.5 2.2 1.5 5 0 1.7-.5 3.2-.6 1.9-1.9 3.1-.3.7-.6 2-.4 1.3-.4 2.4 0 1.9 1.2 3 1.1.9 2.5.9 1.5 0 2.9-.4 1.7-.6 3.6-2.1 1.3-1.1 3.1-3 2.4-2.6 2.4-3.5-.5-1.2-1-2.3-1.2-2.9-2.2-4.9-1.6-3-2.9-4.9v-4.5q1.5 1.1 3.3 4.4 2.3 4.2 3.9 9.8 1.3 4.4 3.3 6.9 1.8 2.2 3.6 2.2 3.7 0 6.7-1.7 1.8-1 3.5-2.8-1.2-.9-2.3-1.4-1.1-.4-2.2-.4-.6 0-.9 0-.3.1-1.3.2l.1-.9q.2-.6.9-2 .8-1.3 1.3-1.9.8-.3 1.6-.6 2.5-.7 4.8-.7 1.8 0 4.9.9 3.2.8 4 1.8 0 .9-1.1 2.8-.2.4-.9 1.4-.4.2-1.8.4-1.3.2-2.2.7 1.1 1.1 1.9 1.4.8.3 2.2.3h1.2q1.1 0 2.7-1 1.3-.8 1.8-1.4-.5-1.7-.6-2.1-.1-.5-.1-2.2 0-2.2.8-4.2.7-1.9 2.2-1.9 1.2 0 2.1 1.6.9 1.5.9 4.3 0 2.2-.4 3.4-.5 1.2-1.6 2.3.4.4 1.1.9 1.2.7 2.8.7 1.4 0 3-1.1 1.2-.9 1.6-1.7-.5-3.3-1-6.7-1.1-7.1-1.9-12.6-1-7-.9-7.4l-.5-1.6q.2-.6.7-2.2.3-.9.3-1.1.7.6 1.7 3.2 1.6 3.7 1.8 4.3v1.1q-.3-.2-.6-.5-.5-.7-.9-1.3-.3.4-.3.6l3.3 22.1q0 2.4-1.1 4.7-1.1 2.3-3.1 3.5.3 1.5 1.3 2.4 1.5 1.3 4.4 1.3.4 0 1.3-.3.9-.3 1.5-.5v-3.7q0-2.2-.2-3.1l-4.4-30.3-.3-2.2q0-.4.3-1.8.4-1.4.6-2.3.5.8 1.9 4.1.5 1.1 1.4 3.3v1.2l-1.4-1.5-.2.8 3.8 28q0 .2 0 .5 0 .3 0 .6 0 1.6-.2 3.2-.3 1.6-.7 3 .7-.3 1.5-.8.9-.5 3.2-1.9 1.7-1.1 3.4-2.8 1.6-1.6 3.1-3.8-.2-.6-.4-.9-.7-1-2-1h-3.3q-1.2 0-1.8-.8-.8-1-.8-3.2 0-2.1 1.1-3.9 1.1-1.9 2.6-1.9 2 0 3.7 2.4 2 3 2 7.5 0 2.6-.4 4.2-.2.5-.5 1.2-.1.4-.2.9 0 .5 0 1.2 0 2.3.7 3.2.5.8 1.6.8 1.5 0 3.7-1 1.7-.9 3.7-2.3 4.9-3.3 6.6-4.7 1.4-1.1 1.4-1.7 0-.4-3.3-2.2-2.1-1.2-4.1-2.7-2.8-2.2-4-3.4-1.1-1-1.6-1.9-.6-.6-.9-.9-.4-.4-.5-.4v-3.6q1 .5 3.8 1.4 1.7.6 2.2 1v.5h-2.2q1.8 2.3 6.1 5.2 2.8 1.3 3.8 2 1.7 1.2 1.7 4.3zm-94.6-27.2-2.3 2.4-2.1-2.2-2.6 2.6-2.7-2.8 2.3-2.5 2.3 2.3 2.5-2.6zm-.4 21.4q-1-1.2-1.5-1.8-1.5-2-1.9-2.3-1 1.7-1.5 2.5-1 1.4-1.3 2.6.4.6.8 1 .5.5 1 .5 1.1 0 2.6-.7 1.4-.7 1.8-1.8zm25.5-8.8v1.7q-.4.1-.6.2-.2-.2-.3-.5-.3-.5-.6-.5-.5 0-.9.9-.5 1.4-1.3 5.3h-.5q-.8-3.7-1.8-3.5-1 0-1.5-.3-.9-.4-.9-1.6 0-1.3 1.1-1.3 1.4 0 2.5 2.3.4 1.1.9 2.2.4-2.3.8-3.4.8-2.6 1.8-2.6.4 0 .8.4.2.2.5.7zm8.9-11.9q0 3-1.8 4.9-.9.9-2.1 1.3-1.2.5-2.6.5-2.9 0-4.8-1.9-1.8-1.8-1.8-4.7 0-2.1 1-3.7.9-1.3 2.2-2.1 1.6-.9 3.4-.9.8 0 1.9.3.2.1.6.3-1.6 0-3.1.9-2.2 1.4-2.2 3.8 0 1.6 1.2 2.9 1.2 1.3 2.9 1.3 1.8 0 3-1.4 1.5-1.8 1.5-4 .2.3.2.5.5 1.3.5 2zm-.9.9q-.6 1.5-2 2.3-1.1.6-2.3.6-1.9 0-3.4-1.5-1.5-1.4-1.5-3.6 0-1.3.6-2.5.6-1.2 2-1.9-.9 0-2 .7-1 .7-1.6 1.5-.5.8-.8 1.6-.3.9-.3 2 0 2.4 1.6 4 1.6 1.6 4.1 1.6 1.9 0 3.5-1 .9-.6 1.5-1.7.6-1.1.6-2.1zm4.6 24.2q-.5-.4-1.5-.8-1.1-.4-1.8-.5-.7-.1-1.3-.1-1.3 0-2.3.2-.3 0-.6.1 1.1.5 2.5 1.3 1.4.7 1.9 1.2zm11.8 10.3q-.3 1.2-.9 1.7-.3.2-.5.3l-12.2 4q-.2.1-.7.4-.5.4-.6.4.1-.8.6-1.4.5-.5 1.1-.7l12.1-4q.2 0 .6-.3.3-.3.5-.4zm1-26.6-2.4 2.4-2.1-2.2-2.6 2.6-2.7-2.8 2.3-2.5 2.3 2.3 2.5-2.6zm-.2 15.7q0-.8-1-1.8-.3-.3-1-.8-.3 0-.9.8-.7.9-.7 1.1 0 .6.5 1.5.1.1.8 1.4.6-.4 1.5-1.2.8-.8.8-1zm27.3-26.7q-.3 1.4-.8 1.4-.4-.2-.9-.3-.3 1-1 2-.7 1-1.3 1.5-.9.8-3 1.6-1.1.4-2.8.8l-.8-.2q1.8-.7 2.9-1.3 3.2-1.9 5.4-4.8-.7-.3-1.4-.8-.7-.5-.7-1.4 0-.8.7-1.7.7-1 1.7-1 .7 0 1 .6.3.6.3 1.5 0 .7-.1 1.1 0 .4-.1.6 0 .2.4.3.4.1.5.1zm-4.3 23.5q-.4-.7-1.2-1.2-.9-.5-1.4-.5-.5 0-.9.5-.3.4-.5 1.2zm2.5-24.5v-.5q0-1-.6-1-.5 0-.7.7.3.3.9.6.3.1.4.2zm5.2 8.9-2.4 2.4-2.7-2.8 2.5-2.4zm8.8.9q0 .7-.4 1.4-.5.6-1.3.6-.7 0-1.2-.7-.4-.8-.4-1.7 0-1.3.6-3.3.7-2 1.6-3.3 0 .9-.6 2.8-.6 1.9-.6 2.7 0 .4.3 1 .2.6.6.6.6 0 1.2-1.8.3.3.3 1-.1.5-.1.7z" fill-rule="evenodd"/><path d="m76.4 55.6c.4-.1.9-.2 1.5-.2 1 0 1.6.2 2.1.7q1 .8 1 3c0 1.6-.4 2.7-1.1 3.2q-.7.8-2.3.8c-.4 0-.9-.1-1.2-.1zm1.5 6.3h.2c.8 0 1.4-.7 1.4-2.8 0-1.5-.4-2.5-1.3-2.5q-.2 0-.3.1z" fill-rule="evenodd"/><path d="m81.4 62.1 2.4-5.3v-.1h-2.2v-1.3h3.9v1.1l-2.3 5.2h2.2v1.3h-4z"/><path d="m87.7 55.4v5c0 1.1.3 1.4.7 1.4.5 0 .8-.3.8-1.4v-5h1.4v4.7c0 1.9-.7 3-2.2 3s-2.2-1.1-2.2-3v-4.7z"/><path d="m91.9 55.4h1.5v6.4h1.9v1.2h-3.4z"/><path d="m100.2 64.2c-.7-.2-1.4-.6-2-.9q-.2-.2-.3-.2c-1.5 0-2.4-1.4-2.4-3.9 0-2 .8-3.9 2.5-3.9 1.8 0 2.3 2.1 2.3 3.8 0 1.9-.4 3-1.1 3.4v.1c.5.2 1 .4 1.5.5zm-1.4-5.1c0-1.4-.2-2.5-.9-2.5-.6 0-.9 1.2-.9 2.6 0 1.5.3 2.6.9 2.6.7 0 .9-1.1.9-2.7z" fill-rule="evenodd"/><path d="m102.3 61.3-.3 1.7h-1.5l1.7-7.6h1.7l1.5 7.6h-1.4l-.3-1.7zm1.2-1.2-.3-1.5c0-.5-.2-1.3-.2-1.8h-.1c0 .5-.1 1.3-.2 1.8l-.3 1.5z" fill-rule="evenodd"/><path d="m107.3 55.3c-.3 1.1-.8 2.1-1.3 2.9l-.7.1c.3-1 .6-2 .7-2.9z"/><path d="m108 55.6c.4-.1.9-.2 1.5-.2 1 0 1.6.2 2.1.7q1 .8 1 3c0 1.6-.4 2.7-1 3.2q-.8.8-2.4.8c-.4 0-.9-.1-1.2-.1zm1.5 6.3h.3c.7 0 1.3-.7 1.3-2.8 0-1.5-.4-2.5-1.3-2.5q-.2 0-.3.1z" fill-rule="evenodd"/><path d="m114.6 61.3-.4 1.7h-1.4l1.6-7.6h1.8l1.5 7.6h-1.4l-.4-1.7zm1.3-1.2-.3-1.5c-.1-.5-.2-1.3-.2-1.8h-.1c0 .5-.2 1.3-.2 1.8l-.3 1.5z" fill-rule="evenodd"/><path d="m120 55.4v3.1h1.5v-3.1h1.5v7.6h-1.5v-3.2h-1.5v3.2h-1.5v-7.6z"/></g></svg>