<svg height="72" viewBox="0 0 128 72" width="128" xmlns="http://www.w3.org/2000/svg"><g fill="#f3efdf"><g fill-rule="evenodd"><path d="m34.9 41.7q0 1.6-.1 2.6-.1 1-.5 1.9-.6 1.5-2.5 3.2-2 1.8-4.9 3.6-2.8 1.6-6.7 2.7-3.5.9-6.2.9-5.8 0-8.2-3.4-1.8-2.5-1.8-7.1 0-2.9 1-6.6.9-3.6 1.8-4.8v1.5q-.3.5-.8 3.7-.6 3.2-.6 4.2 0 3.3 2.5 5.7 2.4 2.4 6.8 2.4 2.5 0 5.5-.8 3-.8 5.2-2 2.7-1.4 5.5-3.6 2.8-2.1 2.8-3 0-.5-.8-1.5-1.4-1.9-1.9-2.6-.4-.8-1.3-2.6-.4-.7-.7-1.4-.3-.7-.5-1.1-.2-.4-.2-.8l.7-3.8h.4q.6 1 2.1 2.9.5.6 1.5 1.7v.6q-.5-.1-1.1-.3-.6-.2-.7-.2 1.4 2.1 2.9 4.2.8 1.4.8 3.8zm-12.8-27.8q-.1 3.3-2 5.2-1 .9-2.3 1.4-1.3.5-2.8.5-3.3 0-5.2-2-2-1.9-2-5 0-2.1 1.1-3.8.9-1.4 2.4-2.2 1.6-1 3.7-1 .9 0 2.1.4.1 0 .6.2-1.8 0-3.4 1.1-2.4 1.4-2.3 3.9-.1 1.7 1.3 3 1.2 1.4 3.1 1.4 1.9 0 3.2-1.4 1.7-1.9 1.7-4.3.2.3.2.5.6 1.5.6 2.1zm-1 1.1q-.7 1.5-2.2 2.3-1.2.6-2.5.6-2.1 0-3.7-1.5-1.7-1.5-1.7-3.8 0-1.3.7-2.6.7-1.3 2.2-2-1.1 0-2.2.7-1.1.7-1.7 1.6-.7.8-.9 1.7-.3 1-.3 2 0 2.6 1.7 4.3 1.7 1.7 4.4 1.7 2.1 0 3.9-1.1.9-.7 1.6-1.8.7-1.1.7-2.1zm-1.4 16.5-2.6 2.5-3-2.9 2.6-2.5zm25 19.5q2 0 3.8-.9 1.1-.5 2.8-1.8-1.3-1.4-2.8-3.7-1.3-2-1.9-3.6-.4-.8-.8-1.3-.1-.2-.4-.4.1-1.3.2-2.5.1-1.2.3-2.1.9.7 2.7 2.9.5.7 1.6 2v.7q-.5-.2-.9-.4-.5-.2-.8-.2.1.1.1.3 0 .2 0 .3 2.1 2.2 2.9 3.7.5 1.1.5 2.4 0 .3 0 .7 0 .3 0 .7 0 3.4-2.6 5.5-2.4 2-5.5 2-1.7 0-3.1-1.2-1.1-1-1.8-2.5-1-2.2-1.8-9.1-.5-3.2-.7-6.5-.6-5.7-1.2-11.6-.6-5.9-1-7.3 0-.1-.2-.1-.2 0-.2-.2l-1.4 2.4v-1.2q.4-2 .7-3.1.8-3.2 1.1-4.1 0-.1.3-.4.7.6 1.5 2.6.7 2 1 4.2l1.8 18.8q.3 2.9.6 5.8.6 5.4 2.1 7.6.4.8 1.3 1.2.9.4 1.8.4zm6.6-23.7-2.5 2.6-2.4-2.4-2.9 2.8-2.9-2.9 2.6-2.6 2.5 2.4 2.7-2.7zm-3-5.1-2.6 2.6-3-2.9 2.7-2.6zm23.9 10.6q-2.4 0-4.8-1.9-1.7-1.5-3.3-3-4.1 3.2-6.2 6.6-2.6 4-2.6 8 0 5.4 5.4 7.9 4.4 2.1 11.6 2.1 3.3 0 7.4-.6 1.8-.2 6.5-1.1v1q-4.6 2.2-9.2 3.5-4.5 1.3-7.4 1.3-7.5 0-11.6-3.6-4.1-3.6-4.1-10.4 0-5.4 2.7-10.4 1.9-3.6 4.9-6.5-1.5-1.3-2.5-1.8-1.1-.5-2.1-.5-.7 0-1 .1-1 .2-2 .4l.2-.9q.8-2.4 1.2-3.1.3-.8 1-1.8 1.3-.6 3.5-1.1 2.3-.4 4.5-.4 2.6 0 5.7.8 3.1.7 3.2 1.4.1.5-.6 2.3-.7 1.8-1.3 2.7-1 .4-1.9.7-.9.4-1.9 1.1 1 .9 2.5 1.7 2 1.1 3.9 1.1 2.5 0 5-2.4 3.1-3.1 4.2-3.6 0 1.9 1.1 3.8 1.3 2.4 3.5 2.4 2 0 4-.9 1.6-.7 3-1.9-1.1-1.1-2.7-3.6-1.3-2-2-3.7-.5-.9-.9-1.4 0-.1-.2-.3 0-.5.1-2.1.2-1.6.3-2.4 1 .8 2.7 2.9.6.6 1.6 2v.7q-.5-.2-.8-.3-.6-.3-.8-.4 0 .2 0 .3 0 .1.1.4 2.2 2.3 2.9 3.9.6 1.1.6 2.4-.1.8-.1 1.2 0 3.3-2.9 5.5-2.6 2-6.1 2-1.8 0-3.2-1.4-1.5-1.4-2.6-4.1-1.8 2.4-3.6 3.6-2.4 1.8-4.9 1.8zm-4.5-11.4q-1-.5-2.1-.8-1.2-.4-2.1-.4-.6 0-1.5.1-.8.2-1.5.3l-.1.2q1.2.4 2.4 1.1 1.2.6 2 1.4.1-.1 1.3-.9 1.2-.9 1.6-1zm12.8 18.9-2.6 2.6-2.3-2.4-2.9 2.8-2.9-2.9 2.6-2.6 2.4 2.3 2.7-2.7zm30.1-3.9q0 3.2-1.3 5.3-1.3 2.1-4.9 4.9-3 2.3-5.1 3.3-2.8 1.4-6 1.4-3.8 0-5.7-3-1.6-2.5-1.6-6.3 0-1.8.3-3.2.3-1.4 1-2.4v1.4q-.2.5-.3 1.1-.1.6-.1 1.6 0 2.5 1.9 4.3 1.9 1.8 4.5 1.8 2.6 0 5.1-1 1.4-.5 3.2-1.7 3.4-2.1 5.7-4.5 1.9-1.9 1.9-2.4-.1-.5-1.1-2-2.5-3.9-2.9-5.2l-.9-2.3q-.1-.4.2-1.8.1-.5.4-1.5h.4l4.4 4.2v.7q-.6-.1-1-.2-1.1-.2-1.4-.1 1.2 1.6 2.4 3.3.9 1.6.9 4.3zm-13.3 2.4-2.6 2.5-3-2.9 2.7-2.5z"/><path d="m68.4 58.3c.5-.1 1.1-.1 1.6-.1.8 0 1.5.1 2 .5s.6.9.6 1.6c0 .8-.4 1.5-1.1 1.9.5.2.7.7.9 1.5.1.8.3 1.7.5 2h-1.6c-.1-.2-.2-1-.3-1.8-.2-.9-.4-1.2-.9-1.2h-.2v3h-1.5zm1.5 3.3h.2c.7 0 1-.5 1-1.2 0-.6-.2-1.1-.9-1.1-.1 0-.2 0-.3.1z"/><path d="m74.9 64-.4 1.7h-1.4l1.6-7.5h1.8l1.5 7.5h-1.5l-.3-1.7zm1.2-1.1-.2-1.6c-.1-.5-.2-1.2-.3-1.7-.1.5-.2 1.3-.3 1.7l-.2 1.6z"/><path d="m78.8 58.3c.4-.1 1-.1 1.6-.1.8 0 1.4 0 2 .5.4.3.5.8.5 1.4s-.3 1.3-1.1 1.6c.9.3 1.4 1 1.4 1.8q0 1-.6 1.5c-.4.5-1.2.8-2.5.8q-.8 0-1.3-.1zm1.4 3h.4c.5 0 .9-.5.9-1.1 0-.5-.3-1-.9-1q-.2 0-.4.1zm0 3.3q.2.1.4 0c.6 0 1.1-.3 1.1-1.1 0-.7-.6-1.1-1.1-1.1h-.4z"/></g><path d="m84.2 58.2h1.4v7.5h-1.4z"/><path d="m88.4 58.2v4.9c0 1.1.3 1.4.7 1.4s.7-.3.7-1.4v-4.9h1.5v4.6c0 2-.8 3-2.2 3-1.6 0-2.2-1.1-2.2-3v-4.6z"/><path d="m93.3 59.5h-1.3v-1.3h4.1v1.3h-1.3v6.2h-1.5z"/><path d="m96.7 64.2c.3.2.8.3 1.2.3.7 0 1.1-.3 1.1-.8 0-.6-.4-.9-1-1.3-1-.6-1.4-1.4-1.4-2.1 0-1.2.8-2.2 2.4-2.2.4 0 .9.2 1.1.3l-.2 1.3c-.2-.2-.5-.3-1-.3-.6 0-.9.4-.9.8s.2.7 1.1 1.2c1 .6 1.3 1.3 1.3 2.1 0 1.4-1 2.3-2.5 2.3-.6 0-1.2-.2-1.4-.3z"/><path d="m103.7 59.5h-1.3v-1.3h4.1v1.3h-1.3v6.2h-1.5z"/><path d="m107.1 64.2c.3.2.8.3 1.2.3.7 0 1.1-.3 1.1-.8 0-.6-.4-.9-1-1.3-1-.6-1.4-1.4-1.4-2.1 0-1.2.8-2.2 2.4-2.2.4 0 .9.2 1.1.3l-.2 1.3c-.2-.2-.5-.3-1-.3-.6 0-.9.4-.9.8s.2.7 1.1 1.2c.9.6 1.3 1.3 1.3 2.1 0 1.4-1 2.3-2.5 2.3-.6 0-1.2-.2-1.4-.3z"/><path d="m112.9 64-.4 1.7h-1.4l1.6-7.5h1.8l1.5 7.5h-1.5l-.3-1.7zm1.2-1.1-.2-1.6c-.1-.5-.2-1.2-.3-1.7-.1.5-.2 1.3-.3 1.7l-.2 1.6z" fill-rule="evenodd"/><path d="m116.8 65.7v-7.5h1.3l1.2 2.9c.2.6.6 1.6.8 2.2 0-.8-.1-2.1-.1-3.4v-1.7h1.2v7.5h-1.3l-1.1-2.8c-.3-.7-.6-1.6-.8-2.3 0 .8.1 1.9.1 3.4v1.7z"/><path d="m122.5 58.2h1.5v7.5h-1.5z"/></g></svg>