<svg height="72" viewBox="0 0 128 72" width="128" xmlns="http://www.w3.org/2000/svg"><g fill="#f3efdf"><path d="m56.2 39.4q0 .7-.2 1.5-.2.7-.5 1.2-1 1.3-3.5 2.9-1.8 1.1-5.3 3-2.2 1.1-4.7 1.7-2.4.6-5.3.6-2.5 0-4.1-.8-1.6-.8-2.5-2.3-1.3.7-2.6 1-1.3.3-2.8.3-1.5 0-2.6-.4-1-.5-1.8-1.3-2.3 1.4-4.8 2.3-2.6.9-4.7.9-3.5 0-5.3-2.4-1.5-2.1-1.5-5.1 0-1.6.5-3.4.6-2.5 1.8-3.8v1.2q-.3.6-.7 2.3-.3 1.7-.3 2.9 0 1.8 1.2 3.1 1.5 1.7 4.3 1.7 1.7 0 3.6-.5 1.9-.5 4.2-1.7l.4-.1q-.4-1.4-.4-2.9 0-1.2.3-2.4.2-1.2.7-2.2v1.2l-.1 2.7q0 .6.2 1.2.2.7.8 1.4 1.8-1.1 3.3-2.3 1.4-1.2 1.4-1.6l-3.8-22.9-.1-1.3q-.1-.5-.3-1 0-.1-.1-.3 0-.2.5-1.4.4-1.2.7-1.9.4.5 1.7 3.4.4 1 1.2 2.9v.8q-.4-.2-.7-.5-.3-.3-.6-.7l-.2.7q.4 2.1.8 4.3.9 5.6 1.4 9.1.9 5.5.9 7.5 0 .6-.3 1.4-.3.8-.6 1.5-.4 1.1-1.1 2.1-.7.9-1.8 1.9.8.3 2 .3.9 0 1.9-.2 1-.2 2.3-.8l-.1-2q0-1.9.6-3.9.6-2.1 1.5-3.8-.3-.8-.3-1.9 0-1.7 1-3.2 1-1.6 2.4-1.6 1.8 0 3.4 2.1 1.9 2.4 1.9 6.1 0 .3-.1 1.5 0 1.3-.1 1.4-.4 1.2-1.3 2.3-1.2 1.5-3.5 3.2l-1.6 1.2q1 .6 2.1.9 1.2.3 2.7.3 2.3 0 4-.4 1.7-.3 4.1-1.2 2.6-1.1 4.2-1.9 2.5-1.2 4.6-2.6-.7-.6-3.7-1.2-3.1-.6-4.1-1.3-.6-.5-.9-1.2-.4-.7-.4-1.7 0-3.1 3-6.7 2.8-3.4 4.7-3.4 1.1 0 1.6.7.6.7.6 1.7 0 .9-.2 1.3-.2.4-.8 1-.5-.4-.9-.8-.5-.4-.9-.4-1.3 0-3.4 2.1-2.1 2-2.1 3.1 0 1.1 2.9 1.8 4.4 1.1 5.1 1.4.7.4 1 .8.2.4.2 1.5zm-40-18v1.4q-.3.1-.6.2-.2-.2-.3-.4-.2-.4-.5-.4-.5 0-.8.8-.5 1.1-1.2 4.3h-.5q-.8-3-1.7-2.9-.9 0-1.4-.2-.9-.4-.9-1.4 0-1.1 1.1-1.1 1.3 0 2.3 1.9.4 1 .9 1.8.4-1.8.7-2.8.7-2.1 1.7-2.1.4 0 .8.4.1.1.4.5zm22.2 16.1q-.1-.3-.2-.5-.6-1.1-2.1-1.1h-3q-1.1 0-1.7-.6-.4 1.2-.8 2.8-.4 1.7-.4 2.6 0 1.5.6 2.7l1.2-.6q2-1.2 3.3-2.2 1.7-1.3 3.1-3.1zm-2.4-5q-.3-.6-1.1-.9-.8-.4-1.3-.4-.4 0-.8.4-.4.3-.5.9zm7.3-24q-.1.8-.4 1.1-1 1-3.2 2.3-2.2 1.3-3.1 1.5v-1.1l1.1-.9q-.5-.2-.8-.4-.5-.4-.5-1.3 0-.9 1.4-2.2 1.3-1.3 2.2-1.3.7 0 1 .3.4.3.4.7 0 .3-.1.6-.2.3-.4.7l-.8-.1q-.2-.1-.3-.4-.6-.1-1.8.8.3.5.7.7.3.2 1 .2.8 0 1.5-.3.2-.1 1.3-.9zm.8 30.1q0 1.3-.2 2.6-.3 2.1-1.1 3.2v-1.8q0-1.9-.2-3.4l-3.5-21.3q-.1-.6-.3-1.3-.2-.7-.2-.7 0-.3.3-.9 0-.4.9-2.6.5.7 1.8 3.6.4.9 1.2 2.7v1.4l-1.3-1.2-.1.3q.3 2 .7 4 1 6.2 1.3 8.3.7 5.2.7 7.1zm6.4-20.5q0 .8-.3 1.6-.2.8-.8 1.7v-1.1l.2-1.8q0-.6-.3-1.2-.3-.6-1.2-1.7-.4-.5-.8-.8-.6-.5-.7-.6l.7-1.5q1.7 1 2.6 2.9.6 1.4.6 2.5zm48.3 13.8-1.9 3.4q-1.1.2-2.2.4-1.7.3-3.4.8-2.4.7-3.8 1.3-1.4.5-2.9 1.5.4.7.6 1.4.3 1.3.3 2.6 0 1.2-.3 2.2-.5 1.6-1.7 1.6-1.2 0-2.6-.7-1.5-.8-2.8-2-2 1.7-4.4 2.9-3.4 1.8-6.4 2-.3.1-.7.1-.4 0-.5 0-4.7 0-6.5-3.6-.7-1.5-1.3-5.6-.3-2-.8-7-.5-5-1-10.1-.7-6-1-7.1-.3.1-.4-.2l-1.1 1.9v-1l1.7-5.6q0-.1.3-.3.6.4 1.1 2 .6 1.5.6 3.3.6 6.7 1 10.8.2 2.6.6 6 .4 3.4.7 6.5.6 3.2 1.7 4.7.9 1.4 2.4 1.7 1 .3 3.3.3 2.2 0 5-1 2.8-.9 4.3-2.3.7-.6 1.3-1 .6-.5.9-1 .7-.9 1.4-1.7.2-.2.6-.7-2-1.4-3.5-2.7-1.7-1.4-1.7-2.9 0-1.5 1.4-2.7 1.3-1.2 3.2-1.2 2.7 0 7.8.9 5.3 1 10.7 2.1zm-20-8.8q0 3.5-2.2 5.4-.7.5-3.9 2.6-1.9 1.4-3.1 2-3.5 2-5.8 2-2.1 0-3-1.8-.6-1.3-.6-3.4 0-1.6.4-3.2.6-2.3 1.9-3.5v1.2q-.8 1.3-1.1 2.5-.2 1.2-.2 1.9 0 1.7.5 2.2.5.6 1.8.6 1.4 0 3.4-.8 1.6-.7 3.5-1.9 4.5-2.7 6.1-3.8 1.3-1 1.3-1.4 0-.4-1.2-1-4.5-2.3-5.6-3.1-2.6-1.8-3.8-2.8-1-.8-1.5-1.6l-1.3-1v-3q.9.4 3.5 1.2 1.7.5 2.1.8v.5h-2.1q1.1 1.1 2.2 1.9 1 .8 3.5 2.3 2.6 1.1 3.5 1.6 1.7 1 1.7 3.6zm-6.3 15.5q0 1.7-2.8 2.8-.6.3-3.2 1.1h-1.8q1.4-.5 2.2-.8 2.5-1.2 4-2.4h-4.2q-.4 0-.4 0-.8.6-.9.6v-1q.4-.6.7-.9.5-.5 1.2-.5h5q.2.3.2.5 0 .3 0 .6zm18.7-4.8q-2.1-.6-5-1.1-2.9-.4-5.8-.7-.7-.1-1.2-.1-1.5 0-1.8.6 2.6 1.5 4.1 2.8.5.5 1.7 1.9.8-.7 3.9-1.9 3.1-1.3 4-1.4zm.7-22.4q0 2.6-1.7 4.1-.8.7-2 1.1-1.1.4-2.3.4-2.8 0-4.5-1.6-1.7-1.5-1.7-3.9 0-1.7 1-3 .7-1.1 2-1.7 1.4-.8 3.2-.8.7 0 1.7.3.2.1.5.2-1.5 0-2.9.8-1.9 1.1-1.9 3.1 0 1.4 1.1 2.4 1.1 1 2.7 1 1.6 0 2.7-1.1 1.4-1.4 1.4-3.3.2.3.2.4.5 1.1.5 1.6zm-7.8 32.3q-.3-.9-.9-1.5-.5-.7-1.2-.7-.4 0-.8.2-.4.2-.8.4.6.6 1.7 1.1 1.1.4 2 .5zm7-31.4q-.7 1.2-1.9 1.8-1 .5-2.1.5-1.8 0-3.2-1.2-1.5-1.2-1.5-3 0-1.1.6-2.1.6-.9 1.9-1.5-.9 0-1.8.6-1 .5-1.5 1.2-.6.6-.8 1.4-.3.7-.3 1.5 0 2 1.5 3.4 1.5 1.3 3.8 1.3 1.8 0 3.3-.9.8-.5 1.4-1.4.6-.8.6-1.6zm5.8 7.5q-.3 1.1-.7 1.1-.4-.2-.8-.3-.3.9-1 1.7-.6.8-1.2 1.3-.9.6-2.8 1.2-1 .4-2.6.7l-.7-.2q1.6-.5 2.6-1 3.1-1.6 5.1-3.9-.7-.3-1.3-.7-.7-.4-.7-1.2 0-.6.7-1.4.7-.8 1.5-.8.7 0 1 .5.3.5.3 1.2 0 .6-.1.9-.1.4-.1.5 0 .2.4.3.4.1.4.1zm-1.7 24.8-2.3 2-2.5-2.3 2.2-2zm.1-25.6v-.4q0-.9-.5-.9-.5 0-.7.6.3.3.9.5.2.1.3.2z" fill-rule="evenodd"/><path d="m47.6 54.6h2v7.1c0 3-1.4 3.4-2.9 3.4-.4 0-.8 0-1-.1l.1-1.7c.2 0 .4.1.7.1.6 0 1.1-.3 1.1-1.6z"/><path d="m53.2 54.6v6.8c0 1.5.5 2 1 2 .6 0 1-.5 1-2v-6.8h2v6.4c0 2.7-1 4.1-3 4.1-2.1 0-3-1.5-3-4.1v-6.4z"/><path d="m65.3 61.4c0-1-.1-2.4 0-3.5h-.1c-.2 1.1-.5 2.4-.7 3.2l-.9 3.7h-1.4l-.9-3.6c-.2-.9-.4-2.2-.6-3.3-.1 1.1-.1 2.5-.2 3.5l-.2 3.6h-1.7l.8-10.4h2.1l.8 3.8c.3 1.3.6 2.4.8 3.6.1-1.1.4-2.3.7-3.6l.8-3.8h2.1l.6 10.4h-1.8z"/><path d="m70.5 62.6-.5 2.4h-1.9l2.2-10.4h2.4l2.1 10.4h-2l-.5-2.4zm1.7-1.5-.3-2.2c-.1-.7-.3-1.7-.4-2.4-.1.7-.3 1.8-.4 2.4l-.4 2.2z" fill-rule="evenodd"/><path d="m75.9 54.8c.5-.2 1.2-.3 2.1-.3 1.3 0 2.2.4 2.8 1 .9.8 1.4 2.2 1.4 4.2 0 2.1-.5 3.6-1.5 4.4-.6.7-1.7 1-3.1 1-.7 0-1.3-.1-1.7-.1zm2 8.6c.1.1.3.1.4.1.9 0 1.8-1 1.8-3.9 0-2.1-.6-3.4-1.8-3.4q-.2 0-.4 0z" fill-rule="evenodd"/><path d="m83.5 54.6h2v10.4h-2z"/><path d="m87.3 54.6h2v8.7h2.7v1.7h-4.7z"/><path d="m97.6 54.6v6.8c0 1.5.5 2 1 2 .6 0 1-.5 1-2v-6.8h2v6.4c0 2.7-1 4.1-3 4.1-2.2 0-3-1.5-3-4.1v-6.4z"/><path d="m105.3 54.6v6.8c0 1.5.5 2 1 2 .6 0 1-.5 1-2v-6.8h2v6.4c0 2.7-1 4.1-3 4.1-2.2 0-3-1.5-3-4.1v-6.4z"/><path d="m111.1 54.6h2v8.7h2.7v1.7h-4.7z"/><path d="m118.7 62.6-.4 2.4h-2l2.3-10.4h2.4l2 10.4h-2l-.4-2.4zm1.7-1.5-.4-2.2c-.1-.7-.2-1.7-.3-2.4h-.1c-.1.7-.2 1.8-.3 2.4l-.4 2.2z" fill-rule="evenodd"/></g></svg>