<svg height="72" viewBox="0 0 128 72" width="128" xmlns="http://www.w3.org/2000/svg"><g fill="#f3efdf"><path d="m31.3 40.5q0 1.3-.1 2.2-.1.8-.4 1.6-1.1 2.7-7.4 5.9-6.3 3.2-10.5 3.2-5.2 0-7.3-2.9-1.6-2.2-1.6-6.2 0-2.4.9-5.7.8-3.3 1.6-4.3v1.3q-.2.3-.7 3.2-.5 2.9-.5 3.7 0 2.9 2.2 5 2.2 2.1 5.9 2.1 4.7 0 11-3.4 5.8-3.2 5.8-4.8 0-.6-2.2-4-1.4-2.1-1.9-3.1-.3-.5-.4-.7-.2-.4-.2-1l.5-3.3h.4q.5.8 1.9 2.5.4.6 1.3 1.6v.5q-.8-.3-1.6-.5 1.3 1.8 2.6 3.7.7 1.2.7 3.4zm-15.2-27.6q0 1.7-2.7 2.9-.6.2-3.1 1.2h-1.8q1.4-.6 2.2-1 2.5-1.2 3.8-2.5h-4q-.3 0-.5.1-.3.3-.7.6v-1q.5-.9.6-1 .5-.6 1.1-.6h4.9q.2.3.2.6 0 .4 0 .7zm2.5 13.6-2.3 2.2-2.7-2.5 2.4-2.3zm42.3 15.7q0 .8-.2 1.6-.2.8-.6 1.4-2.1 3.1-7.6 5.9-6.3 3.3-11.9 3.3-4.2 0-6.3-2.7-1.7-2.4-1.7-6.4 0-2.2.9-5.2.9-2.6 2-4.4-.4-2.4-.5-3.5-.3-1.9-.3-3.3-.4-4-.7-7.8-.4-3.7-.7-5-.3.1-.4-.2l-1.2 2.1v-1.1q.4-1.7.6-2.6.7-2.9 1-3.6.1-.2.3-.4.6.5 1.2 2.3.5 1.7.5 3.7l1.3 12.6q.7 7.3.9 8.2.4 2.2 1.2 3.6.4.7 1.1 1.1.7.3 1.5.3 1.8 0 3.6-.8 1.2-.5 2.6-1.6-.6-.6-1.8-2.2-1.7-2.3-2.4-4.2-.3-.6-.7-1.1-.1-.1-.3-.4.1-1.2.2-2.2.1-1 .2-1.8.8.7 2.4 2.6.4.6 1.4 1.7v.7q-.3-.1-.8-.4-.5-.2-.6-.2 0 .1 0 .2 0 .2 0 .4 1.9 1.9 2.5 3.2.5.9.5 2.1 0 .3 0 .6 0 .3 0 .6 0 3-2.2 4.7-1.9 1.7-4.8 1.7-1.9 0-3-.8-.9-.6-1.5-2-.4-.8-.7-2.6-.2-1.7-.4-2.9-.7 2-1.1 3.7-.4 1.7-.4 2.6 0 3 2 4.9 2 1.9 5.7 1.9 1.3 0 3.3-.4 3.1-.6 6.1-1.9 4.2-1.8 8-4.5-.7-.8-3.9-1.4-3.2-.7-4.1-1.5-1.4-1-1.4-3.1 0-3.5 3.1-7.6 3-3.9 4.8-3.9 1.2 0 1.8.8.5.8.5 1.9 0 1.1-.2 1.5-.2.4-.8 1.1-.4-.5-.6-.6-.8-.7-1.3-.7-1.4 0-3.5 2.3-2.1 2.3-2.1 3.5 0 1.4 4.3 2.4 2.8.7 3.7 1.2 1 .4 1.2.9.3.5.3 1.7zm-14.3-18.9-2.3 2.2-2.1-2-2.5 2.4-2.6-2.5 2.3-2.3 2.1 2.1 2.5-2.3zm-2.7-4.4-2.3 2.2-2.6-2.5 2.3-2.2zm11.3.2q0 .8-.2 1.8-.3.9-.9 1.9v-1.2l.2-2.1q0-.7-.3-1.3-.3-.7-1.3-1.9-.3-.5-.8-.9-.6-.6-.7-.6l.7-1.8q1.8 1.2 2.7 3.3.6 1.6.6 2.8zm50.3 14.6-2 3.8q-1.6.3-3 .6-1.4.3-2.7.7-2.4.8-4 1.5-1.6.7-3 1.6.2.3.3.5.7 1.6.7 4.1 0 1.2-.4 2.4-.5 1.8-1.7 1.8-1.2 0-2.8-1-1.7-1.1-3-2.4-1.6 1.6-4.3 3.1-3.3 1.8-6.4 2.2-.2 0-.9.1-.8.1-1.2.1-2.1 0-3.5-.6-2.1-.9-3-2.9-.8-2-1.5-6.3-.7-4.4-.7-7.8 0-.2-.7-7.4-.5-5.3-.7-7.5-.4-3.5-.7-4.4 0-.1-.1-.1-.2 0-.2-.1l-1.3 2.1v-1.1l1.8-6.3q.1-.1.3-.3.6.5 1.1 2.1.5 1.6.7 3.8.7 7.5 1.1 12 .4 4.4.7 7.2.5 5.4.7 6.8.6 3.6 1.8 5.2.6 1.1 1.7 1.5 1.1.4 2.6.4 1.1 0 2.1-.2 3.6-.3 7-2.2 3.7-2.1 6.8-5.8-2.1-1.5-3.7-3-1.8-1.5-1.8-3.2 0-1.7 1.4-3.1 1.3-1.3 3.4-1.3 2.8 0 8 1 5.6 1.2 11.1 2.4zm-20.5-9.9q0 2.5-1 4.3-1.1 1.8-5.6 5.1-3.1 2.2-4 2.7-2.4 1.4-4.9 1.4-2.2 0-3.1-2.1-.7-1.5-.7-3.8 0-2.4.8-4.6.6-1.8 1.6-2.9v1.3q-.8 1.5-1 2.9-.3 1.3-.3 2.1 0 1.8.5 2.5.6.7 1.9.7 1.4 0 3.5-1 1.7-.8 3.6-2.1 4.7-3 6.4-4.3 1.3-1.1 1.3-1.5 0-.4-3.2-2.1-2-1.1-3.9-2.5-2.5-1.9-4-3.4-1.1-1.1-1.8-2.2-.5-.5-.8-.8-.4-.3-.5-.4v-3.2q1 .4 3.6 1.3 1.7.5 2.2.9v.4h-2.2q1.4 1.7 2.5 2.7 1.4 1.3 3.8 2.8 2.6 1.2 3.6 1.8 1.7 1.1 1.7 4zm-7 18.3q0 1.8-2.9 3.1-.6.2-3.3 1.2h-1.9q1.5-.5 2.3-1 2.6-1.2 4.1-2.7h-4.3q-.4 0-.4.1-.8.6-.9.7v-1.1q.4-.8.7-1.1.5-.6 1.2-.6h5.2q.2.4.2.6 0 .4 0 .8zm19.6-6.3q-2-.7-5.2-1.2-3.2-.5-5.9-.8-.8-.1-1.3-.1-1.6 0-1.8.7 2.7 1.7 4.2 3.2.5.5 1.8 2 .7-.7 4-2.1 3.3-1.4 4.2-1.6zm-.6-22.7q0 2.8-1.8 4.5-.8.8-1.9 1.2-1.2.4-2.5.4-2.9 0-4.6-1.7-1.8-1.6-1.8-4.3 0-1.9 1-3.4.8-1.2 2.1-1.9 1.5-.9 3.3-.9.7 0 1.8.3.2.1.5.3-1.5 0-3 .9-2 1.2-2 3.4 0 1.5 1.1 2.7 1.2 1.1 2.8 1.1 1.7 0 2.8-1.2 1.5-1.6 1.5-3.7.2.3.2.4.5 1.3.5 1.9zm-.8.9q-.7 1.3-2 2-1 .6-2.2.6-1.8 0-3.3-1.3-1.4-1.4-1.4-3.4 0-1.2.5-2.3.6-1.1 2-1.7-.9 0-1.9.6-1 .6-1.6 1.4-.5.7-.8 1.5-.2.8-.2 1.8 0 2.2 1.5 3.7 1.5 1.5 3.9 1.5 1.9 0 3.4-1 .8-.6 1.5-1.5.6-1 .6-1.9zm-6 33q-.3-1.1-.9-1.8-.6-.8-1.3-.8-.3 0-.9.4-.6.3-.8.4.7.6 1.8 1.1 1.2.5 2.1.7zm12.7-26.8q-.3 1.3-.7 1.3-.5-.2-.9-.3-.3.9-1 1.8-.6.9-1.3 1.5-.8.6-2.9 1.4-1 .4-2.7.7l-.7-.2q1.7-.6 2.8-1.2 3.1-1.7 5.2-4.3-.7-.4-1.4-.8-.7-.4-.7-1.3 0-.7.7-1.6.8-.9 1.6-.9.7 0 1 .6.3.5.3 1.4 0 .6 0 1-.1.3-.2.5 0 .2.4.3.4.1.5.1zm-2.1 26.7-2.3 2.2-2.6-2.5 2.3-2.3zm.3-27.5v-.5q0-1-.6-1-.5 0-.6.6.3.4.9.6.2.1.3.3z" fill-rule="evenodd"/><path d="m49.2 55h1.9v6.4c0 2.7-1.3 3.1-2.7 3.1-.4 0-.7-.1-.9-.2l.2-1.5q.2.1.6.1c.5 0 .9-.2.9-1.4z"/><path d="m54.3 55v6.1c0 1.4.4 1.8.9 1.8s.9-.4.9-1.8v-6.1h1.8v5.8c0 2.4-.9 3.7-2.7 3.7-2 0-2.7-1.4-2.7-3.7v-5.8z"/><path d="m65.2 61.1c-.1-.9-.1-2.1-.1-3.1-.2 1-.5 2.2-.6 2.9l-.8 3.3h-1.3l-.8-3.3c-.2-.7-.4-1.9-.6-2.9 0 1-.1 2.2-.2 3.1l-.1 3.3h-1.6l.7-9.4h1.9l.8 3.4c.2 1.2.5 2.2.6 3.3h.1c.1-1.1.3-2.1.6-3.3l.7-3.4h1.9l.6 9.4h-1.6z"/><path d="m69.8 62.2-.4 2.2h-1.8l2-9.4h2.2l1.8 9.4h-1.7l-.4-2.2zm1.5-1.4-.3-1.9c-.1-.6-.2-1.5-.3-2.2h-.1c-.1.7-.2 1.6-.3 2.2l-.4 1.9z" fill-rule="evenodd"/><path d="m74.7 55.2c.4-.1 1.1-.2 1.8-.2 1.2 0 2 .3 2.6.8.8.7 1.2 2 1.2 3.8 0 1.9-.5 3.2-1.3 3.9-.6.7-1.5.9-2.8.9-.6 0-1.2 0-1.5-.1zm1.8 7.8h.3c.9 0 1.6-.8 1.6-3.4 0-1.9-.5-3.1-1.6-3.1q-.2 0-.3.1z" fill-rule="evenodd"/><path d="m81.5 55h1.8v9.4h-1.8z"/><path d="m85.9 56.7h-1.6v-1.7h5.1v1.7h-1.7v7.7h-1.8z"/><path d="m90.1 62.5c.4.2 1 .4 1.5.4.9 0 1.3-.5 1.3-1.1 0-.7-.4-1-1.2-1.5-1.3-.8-1.8-1.8-1.8-2.6 0-1.5 1-2.8 3-2.8.6 0 1.2.2 1.5.4l-.3 1.5c-.3-.1-.7-.3-1.2-.3-.8 0-1.2.5-1.2 1 0 .6.3.8 1.3 1.5 1.3.7 1.7 1.6 1.7 2.6 0 1.7-1.3 2.9-3.1 2.9-.7 0-1.5-.2-1.8-.4z"/><path d="m98.8 56.7h-1.6v-1.7h5.1v1.7h-1.7v7.7h-1.8z"/><path d="m103 62.5c.4.2 1 .4 1.5.4.9 0 1.3-.5 1.3-1.1 0-.7-.4-1-1.2-1.5-1.3-.8-1.7-1.8-1.7-2.6 0-1.5.9-2.8 2.9-2.8.6 0 1.2.2 1.5.4l-.3 1.5c-.3-.1-.7-.3-1.2-.3-.8 0-1.2.5-1.2 1 0 .6.3.8 1.3 1.5 1.3.7 1.7 1.6 1.7 2.6 0 1.7-1.2 2.9-3.1 2.9-.7 0-1.5-.2-1.8-.4z"/><path d="m110.2 62.2-.5 2.2h-1.7l2-9.4h2.2l1.8 9.4h-1.8l-.4-2.2zm1.5-1.4-.3-1.9c-.1-.6-.2-1.5-.3-2.2-.1.7-.2 1.6-.3 2.2l-.4 1.9z" fill-rule="evenodd"/><path d="m115 64.4v-9.4h1.7l1.4 3.7c.3.7.8 1.9 1 2.7h.1c-.1-1-.2-2.6-.2-4.3v-2.1h1.6v9.4h-1.7l-1.4-3.6c-.3-.8-.8-1.9-1-2.8.1 1 .1 2.4.1 4.3v2.1z"/><path d="m122.2 55h1.8v9.4h-1.8z"/></g></svg>