<svg height="72" viewBox="0 0 128 72" width="128" xmlns="http://www.w3.org/2000/svg"><g fill="#f3efdf"><path d="m31.7 38.5q0 2.9-.6 4.6-.6 1.6-2.3 3.4-1.7 1.7-4.6 3.7-2.4 1.8-5.9 2.8-3.5 1-6 1-5.4 0-7.6-3.5-1.7-2.7-1.7-7.5 0-2.9.9-6.8.9-4 1.7-5.2v1.5q-.2.6-.7 4-.6 3.4-.6 4.4 0 3.5 2.4 6 2.3 2.5 6.2 2.5 2.4 0 5.2-.8 2.7-.9 4.8-2.1 2.7-1.6 5-3.7 2.7-2.3 2.7-3.3 0-.4-.5-1.1-1-1.6-2-3.2-.4-.5-1-2.1-.7-1.6-.9-2.1-.3-.6-.4-.9-.2-.4-.3-1.1l.6-3.9h.4q.6 1.1 2 3 .4.6 1.3 1.8v.6q-.8-.3-1.6-.6 1.8 2.8 2.3 3.6 1.2 2 1.2 5zm-13.7-13.7-2.4 2.7-2.7-3.1 2.4-2.6zm93.1 12.8q0 2.3-.7 3.9-1 2.1-3.1 2.1-1.1 0-2-.6-.8-.6-1.4-1.7-1.3 2.2-2 2.8-1.1.9-3.1.9-1.7 0-2.8-1.2-1.2-1.2-1.7-3.3-1.3 1.1-2.7 2.1-3.5 2.4-7.4 3.9-5.6 2.1-11.2 2.1-1.7 0-3.3-.2-3.2-.3-5.9-3.2-.8-1-2.1-3-2.8 2.6-3.9 3.5-2.6 2.2-4.9 2.2-2.2 0-3.7-1.8-.8-1.1-1.4-2.8-1.2 2.3-2.7 3.3-1.6 1-3.8 1-1.4 0-2.6-1-1.1-1-1.8-2.7-.9-2.2-1.5-7.2-.6-4.9-.6-9.3-.6-6.5-.7-8.6-.3-3.2-.6-4.6-.1-.1-.3-.1-.1 0-.1-.1l-1.3 2.4v-1.3l2.1-7.4q0-.2.1-.3.1-.1.1-.1.6.5 1.2 2.4.5 1.9.8 5.8.3 3.9.4 6 .1 2 .5 5.9.7 7.8 1.1 9.9.3 2 1.4 3.8.4.8 1.3 1.4.8.5 1.7.5 1.4 0 2.7-1.1 1.7-1.3 3.7-4.7.2 1.6 1.2 3.6 1.5 2.7 3.4 2.7 1.3 0 2.3-.7 1.1-.6 3.4-2.7-1.2-1.1-2.1-1.4-.9-.4-1.8-.4-.5 0-1.1.1-.6.1-1.3.2l.1-1q.2-.8.9-2.2.8-1.4 1.3-2.2 2.1-.7 3.2-.9 1.7-.4 3.3-.4 1.7 0 4.9.9 3.2 1 4 2 0 .9-.7 2.5-1 1.8-1.2 2.2-.6.3-1.7.5-1.1.3-2 .8 1.2 1.3 2.9 2.3 1.6 1 3 1.2 1.5.2 3.1.2 4.5 0 9.6-1.8 4-1.3 8.1-3.7 2.3-1.3 4.7-3 0 .9.9 2.7 1.1 2.2 2.3 2.2 1.8 0 3.2-1.6 1.2-2 2.4-4l.6-.2q0 .4-.1.9 0 .4 0 1 0 .9.1 1.3.1.5.7.9.5.3 1.1.3.6.1 1.4-.4.2-.1.7-.4 0-.3-.2-1-.3-.8-.5-1.1l.6-3.5q.7.6 1.2 2.2.3 1.2.3 2.3zm-65.2-14.4q0 .7-.5 1.5-.5.7-1.3.7-.7 0-1.2-.8-.4-.8-.4-1.8 0-1.5.7-3.7.6-2.2 1.5-3.6 0 .9-.6 3-.6 2.1-.6 3.1 0 .4.3 1.1.3.6.6.6.6 0 1.2-2 .3.4.3 1.1 0 .6 0 .8zm2.6 30.5-2.4 2.7-2.7-3 2.4-2.7zm13.4-40.5q0 3.4-1.8 5.5-.9 1-2.1 1.4-1.2.5-2.6.5-3 0-4.8-2-1.9-2-1.9-5.3 0-2.2 1.1-4 .8-1.5 2.1-2.3 1.6-1.1 3.5-1.1.8 0 1.9.5.2 0 .6.2-1.7 0-3.2 1.1-2.1 1.5-2.1 4.1 0 1.8 1.2 3.2 1.2 1.4 2.9 1.4 1.8 0 3-1.5 1.6-1.9 1.6-4.4.1.3.1.5.5 1.5.5 2.2zm-.8 1.1q-.7 1.7-2.1 2.5-1.1.6-2.3.6-1.9 0-3.5-1.5-1.5-1.6-1.5-4.1 0-1.4.6-2.7.7-1.4 2.1-2.1-1 0-2 .7-1.1.8-1.6 1.7-.6.9-.9 1.8-.3 1-.3 2.1 0 2.7 1.6 4.5 1.6 1.8 4.1 1.8 2 0 3.6-1.2.9-.6 1.5-1.8.7-1.2.7-2.3zm5 22.6q-.5-.5-1.6-.9-1.1-.3-1.9-.5-.9-.1-1.4-.1-1.3 0-2.4.2-.2 0-.6.1v.2q1.4.4 2.6 1.1 1.2.7 1.8 1.4 1.1-.6 1.8-.9 1.2-.5 1.7-.6zm36.1-29.1q-.2 1.4-.9 1.9-.3.3-.5.3l-31.3 11.6q-.2.1-.7.5-.5.4-.6.4.1-.9.6-1.5.5-.6 1.1-.9l31.2-11.4q.2-.1.6-.4.3-.3.5-.5zm-14.5 18.5q-.4.1-.6.2-.2-.3-.3-.5-.3-.6-.6-.6-.5 0-.9 1-.6 1.5-1.3 5.8h-.6q-.8-4-1.8-3.9-.9 0-1.4-.2-1-.5-1-1.8 0-1.5 1.1-1.5 1.4 0 2.5 2.6.5 1.2 1 2.4.4-2.5.8-3.8.7-2.9 1.8-2.9.4 0 .8.6.2.2.5.7zm20.2 2.7-2.5 2.7-2.2-2.5-2.5 2.9-2.8-3.1 2.5-2.7 2.2 2.5 2.5-2.8zm-2.8-5.3-2.4 2.7-2.7-3 2.4-2.8z" fill-rule="evenodd"/><path d="m85.2 64.4c.4.2 1 .4 1.6.4.9 0 1.3-.5 1.3-1.1 0-.7-.4-1-1.3-1.6-1.3-.8-1.8-1.8-1.8-2.6 0-1.6 1.1-2.8 3.1-2.8.6 0 1.2.1 1.5.3l-.3 1.6c-.3-.2-.7-.3-1.2-.3-.8 0-1.2.5-1.2 1s.3.8 1.3 1.5c1.3.7 1.7 1.7 1.7 2.7 0 1.7-1.3 2.9-3.1 2.9-.8 0-1.6-.2-1.9-.4z"/><path d="m92.1 66.3v-3.7l-2.1-5.9h1.9l.7 2.3c.2.6.4 1.3.5 2.1q.2-1.1.5-2.1l.5-2.3h2l-2.2 5.9v3.7z"/><path d="m97.8 64.1-.5 2.2h-1.8l2.1-9.6h2.2l1.9 9.6h-1.8l-.4-2.2zm1.5-1.4-.3-2c-.1-.6-.2-1.6-.3-2.2-.1.6-.3 1.6-.4 2.2l-.3 2z" fill-rule="evenodd"/><path d="m104.1 56.6c-.4 1.3-1 2.6-1.6 3.6l-.9.1c.4-1.1.7-2.4.9-3.6z"/><path d="m105 56.9c.6-.1 1.3-.2 2.1-.2.9 0 1.8.1 2.4.7.5.4.8 1 .8 1.7 0 .9-.5 1.7-1.4 2.1v.1c1.1.3 1.7 1.2 1.7 2.2 0 .8-.3 1.4-.7 1.9-.6.6-1.6 1-3.2 1-.7 0-1.3-.1-1.7-.1zm1.9 3.7h.4c.6 0 1.1-.5 1.1-1.3 0-.7-.3-1.2-1.1-1.2q-.3 0-.4 0zm0 4.3q.1 0 .4 0c.7 0 1.3-.5 1.3-1.4 0-1-.6-1.5-1.3-1.5h-.4z" fill-rule="evenodd"/><path d="m113.4 64.1-.5 2.2h-1.8l2.1-9.6h2.2l1.9 9.6h-1.8l-.4-2.2zm1.5-1.4-.3-2c-.1-.6-.2-1.6-.3-2.2-.1.6-.3 1.6-.4 2.2l-.3 2z" fill-rule="evenodd"/><path d="m118.3 66.3v-9.6h1.7l1.5 3.8c.3.7.8 2 1 2.8h.1c-.1-1-.2-2.7-.2-4.4v-2.2h1.6v9.6h-1.7l-1.5-3.6c-.3-.8-.7-2-.9-2.9h-.1c.1 1 .2 2.4.2 4.3v2.2z"/></g></svg>