<svg height="30" viewBox="0 0 70 30" width="70" xmlns="http://www.w3.org/2000/svg"><g fill="#191c4f"><path d="m27.9 21c.2.1.2.5.1.6-.2.7-.7 1.2-.8 1.3-.2.2-.2.1-.1 0 0 0 .1-.2.2-.3.5-.6.5-.9.5-1-.1-.3-.4-.3-.6-.1-.1.1-.1.1 0 0q0 0 .1-.2c.2-.3.4-.3.6-.3z"/><path d="m38.3 20.8c.3.1.3.5.2.7-.2.7-.7 1.1-.8 1.3-.2.1-.2 0-.1-.1 0 0 .1-.2.2-.3.5-.5.5-.9.5-.9-.1-.4-.4-.3-.6-.1-.1.1-.1 0 0 0q0-.1.1-.2c.2-.4.4-.4.5-.4z"/><path d="m13.4 20.9c0 .1-.1.1-.1.2-.1.2-.2.2-.3.3-.2.1-4.2 2-4.3 2.1-.2.1-.2 0-.2-.1q0 0 .1-.2c0-.2.1-.2.3-.3s4.1-2 4.3-2.1c.3-.1.2 0 .2.1z"/><path d="m20.8 20.5s-.1.2-.1.3c-.3.8-.1 1.2-.1 1.3.2.4.5.2.6-.1.1-.2.1-.1.1 0q0 0 0 .2c-.2.5-.4.6-.5.6-.3 0-.5-.4-.5-.6 0-.9.3-1.6.4-1.8s.2-.1.1.1z"/><path d="m64.4 19.4v.4c0 .2-.1.5-.2.8-.1.2-.7.3-1.1.1-.6 1-1.2.5-1.5.4-.6-.3-.8.1-.9.3-.7.8-2.1.8-2.4.8s0-.2.1-.2c1.1-.4 1.7-.5 2.6-1.3.4-.5.7-.3.9-.2.8.4 1 0 1.1-.1s.2-.6.3-.7.2 0 .1.1c0 .1 0 .2-.1.3.4.3.8 0 .8 0s0-.3 0-.4q0-.1.1-.5c.1-.2.1 0 .2.2z"/><path d="m10.4 14.3.9.6q0 0 0 .1l-.5.7q0 0-.1 0l-.8-.6-.5.6q0 0 0 0l-.9-.6q-.1-.1 0-.1l.5-.7q0 0 0 0l.9.6.5-.6q0 0 0 0z"/><path d="m15.5 14.1.9.6q.1 0 0 .1l-.5.7q0 0-.1 0l-.8-.7q-.1 0 0 0l.5-.7q0-.1 0 0z"/><path d="m28.2 14 .9.7q0 0 0 0l-.5.7q0 .1-.1 0l-.8-.6-.5.6q0 .1-.1 0l-.8-.6q-.1 0 0-.1l.5-.7q0 0 0 0l.9.6.4-.6q.1 0 .1 0z"/><path d="m48.1 18.2c-.2.8-1.4 1.3-1.7 1.4-1.1.3-1.2-.8-1.1-1.6 0-.8.6-1.8.6-1.8-.1 0-1.2-.9-1.3-1s-.2-.2-.3-.3c-.1 0-.1-.1-.1-.1s0-.8 0-.9.1-.1.2-.1c.1.1 1.3.6 1.4.7.2 0 .1.1.1.1-.1.1-.5.2-.5.2l1 .7s1.4-1.9 1.6-2c.1-.2.1-.1.1.1-.1.2-.3.9-.4 1.1-.1.1-.8 1.1-.8 1.1s.9.6 1.2.9c.4.6.1 1.2 0 1.5zm-1.8-1.7s-.6 1.1-.7 1.3c-.3.7.4.8.6.8.3-.1 1.1-.5 1.5-.8.4-.4-1.1-1.2-1.4-1.3z" fill-rule="evenodd"/><path d="m65.7 17.1c-.1.2-.3 1-1.5.8-.3 0-.9-.2-1.1-.8-.3.4-1 1.5-2.3 1.3-.3-.1-1.2-.4-1.2-1.6 0 0-1.1.9-1.6 1.2 0 .4 0 .9-.2 1.4s-2.6 3.2-4.5 3.6c-.6.1-3 .6-3.1-2.2-.1-.5 0-1 0-1.3-1.5 1.2-3.3 2.1-3.8 2.4-.8.3-3.6.8-4.1.9-.3.1-.4 0-.2-.2.2-.1 6.4-2.2 9.6-5.5q.1-.2 0-.5c-.1-.1-1.1-2-1.2-2.3s-.2-.6-.3-.7q0-.1 0-.3c0-.1.1-.6.1-.7.1-.1.1-.1.2 0 0 .1 1.1 1.1 1.2 1.2.1.2 0 .2 0 .2-.1 0-.6 0-.6 0s.7 1.2.9 1.6c.4.9.2 1.6 0 2-.3.5-.8 1.1-1.4 1.7-.2.4-.3 2.7 1.7 2.7.4 0 1.4.2 3.5-1.5.5-.5 1.1-.9 1.6-1.6.1-.3.3-.7-.1-.7-.3.1-2.5.9-2.8-.5-.1-.3.1-3.4 2.2-1.9.2.2.7.5 1 1.1.3-.1 1-.5 1.8-1.2.3-.2.5-.3.5 0s-.2 2.1 1.8 1.6c.2-.1 1-.2 1.6-1.8.2-.4.4-.3.3 0-.1.4-.4.7-.2.9s.8.6 1.5.5c.2 0 .4-.1.3-.3s-.4-.6-.4-.6c.1-.3.2-.7.2-.8.1-.1.1-.2.2-.1s.7.9.4 2zm-9 .1c-.7-.9-1.5-.4-1.6-.3s-.1.4.5.4c.8.1 1.1-.1 1.1-.1z" fill-rule="evenodd"/><path d="m36.3 12.8c.2.2.2.6.2.7 0 0-.4-.1-.5-.2-.2-.1-.3-.2-.2-.3.2-.3.4-.3.5-.2z"/><path d="m36.6 12.3c.4.7.2 1.4.2 1.4.2.1.4.4.2.9 0 .1 0 0-.1-.1s-.4-.3-.4-.3-.4.8-1 1.2c-1.1.9-2.1 1.1-2.1 1.1-.1 0-.2-.1 0-.2.7-.4 1.6-.7 2.8-2.2 0 0-.4-.2-.6-.4-.3-.2-.2-.9 0-1.1.5-.8.9-.4 1-.3z"/><path d="m33.1 11.9c.6.1.5.4.4.6-.5.7-1.1 1-1.5 1.1-.5.2-.3-.1 0-.3 0 0 .3-.2.6-.4.4-.3-.6-.3-1-.3-.5 0-.6.1-.7.3-.2.2-.4.1-.2-.1.1-.2.2-.4.5-.8.3-.3 1.3-.2 1.9-.1z"/><path d="m46.9 11.5.9.6q.1.1 0 .1l-.5.7q0 0 0 0l-.9-.6-.4.6q-.1 0-.1 0l-.9-.6q0-.1 0-.1l.5-.7q0 0 .1 0l.8.6.5-.6q0 0 0 0z"/><path d="m63.4 11.5s-.1.2-.1.4c-.3.8-.1 1.1-.1 1.2.2.4.5.2.6-.1.1-.1.1-.1.1 0q0 .1-.1.2c-.1.5-.3.6-.4.6-.3 0-.5-.4-.5-.6 0-.8.3-1.5.4-1.7s.2-.1.1 0z"/><path d="m54.7 11.1s-.1.2-.2.4c-.3.8-.1 1.2-.1 1.3.3.4.6.2.7-.1 0-.2.1-.1.1 0q0 0-.1.2c-.1.5-.3.6-.5.6-.3 0-.4-.4-.5-.6 0-.9.4-1.7.5-1.9 0-.2.1-.1.1.1z"/><path d="m19.7 10s-.1.4-.2.6c-.5 1.3-.4 1.9-.3 2 .3.7.7.4.9-.1.1-.2.2-.1.2 0q-.1.2-.1.4c-.3.8-.6 1-.9 1-.4-.1-.6-.7-.6-1.1.1-1.4.7-2.6.9-2.9.1-.3.2-.2.1.1z"/><path d="m8.5 8.5c.1.2 0 .6-.1.8 0 .1-.1 0-.2-.1 0 0-.2-.2-.3-.2-.4-.4-.6.3-.6.7-.1.3-.1 1.2-.2 1.7q0 0 0 0c-.1.4-.2 1-.9 1.5-.8.5-.9.6-1 .6 0 0-.1 0 .1-.2 0 0 1.7-1.4 1.5-2.1-.2-.8-.8-1.4-.9-1.5s-.2 0-.2.1-.1.1-.1 0c-.1 0-.4-.2-.5-.3-.1-.2-.1-.6-.1-.7 0-.3.2-.4.3-.4 1.2.7 1.6 2 1.6 2.2.1-1 .1-1.8.6-2.4.4-.5 1 .2 1 .3z"/><path d="m10.6 8.1s-.1.3-.2.6c-.5 1.3-.3 1.9-.3 2 .3.7.8.4 1-.1.1-.2.1-.1.1 0q0 .1-.1.4c-.3.8-.6.9-.8.9-.5 0-.6-.7-.6-1 0-1.4.6-2.6.8-2.9.2-.4.3-.2.1.1z"/><path d="m35.5 7.9s-.1.2-.1.4c-.3.8-.2 1.1-.1 1.2.2.4.5.2.6-.1.1-.1.1-.1.1 0q0 .1-.1.2c-.1.5-.3.7-.5.7-.3-.1-.4-.4-.4-.6-.1-.9.3-1.6.4-1.9.1-.2.2-.1.1.1z"/><path d="m33.1 7.9c-.1.1-.1.1-.2.3s-.2.3-.4.4c-.3.1-9.5 4.1-9.6 4.1-.4.2-.3.1-.3 0q0-.1.1-.3c.1-.2.2-.3.4-.4.3-.1 9.4-4.1 9.7-4.2.4-.2.3-.1.3.1z"/><path d="m25.6 7.9c.1.2.1.5 0 .7-.1.1-.2 0-.3-.1 0 0-.1-.1-.2-.2-.4-.4-.6.3-.7.7 0 .2 0 1.1-.1 1.5 0 .2-.2.2-.2.1-.3-1.1-.9-1.5-1-1.6s-.2 0-.2.1 0 0-.1 0-.4-.2-.5-.3-.1-.5-.1-.7c.1-.3.2-.3.3-.3 1.2.7 1.6 1.8 1.6 2 .1-.9.1-1.6.6-2.2.4-.5.9.2.9.3z"/><path d="m22 7.6c0 .1 0 .1-.1.3s-.3.2-.5.4c-.2.1-9.4 4.1-9.5 4.1-.4.2-.4.1-.3 0q0-.1.1-.4c0-.1.1-.2.4-.3s9.4-4.1 9.7-4.2c.4-.2.3-.1.2.1z"/><path d="m53.9 7.5c0 .1-.1.1-.1.3-.1.1-.2.2-.3.2-.2.1-4.8 2.8-4.9 2.9-.2.1-.2 0-.2-.1q0 0 .1-.2c0-.2.1-.2.3-.3.1-.1 4.7-2.8 4.9-2.9.3-.1.2 0 .2.1z"/><path d="m59.5 7.8c.1.2 0 .5-.1.7s-.2 0-.3-.1c0 0-.1-.1-.2-.2-.5-.4-.6.4-.7.7 0 .3-.1 1.2-.2 1.7 0 .2-.1.1-.2 0-.3-1.1-.9-1.6-1-1.7s-.2.1-.2.1c0 .1-.1.1-.1.1-.1-.1-.4-.3-.6-.4-.1-.1 0-.5 0-.7 0-.3.2-.4.3-.3 1.2.7 1.6 1.9 1.7 2.1 0-.9.1-1.7.5-2.3.4-.5 1 .2 1.1.3z"/><path d="m64 9.7c-.1.1-.1 0-.2-.1s-.2-.2-.4-.3c-.2.4-.1.5-.9 1.1-1.7 1.5-3.5 2-3.6 2-.2 0-.2 0 0-.2.6-.4 3-1.5 4.2-3 0 0-.4-.2-.6-.3-.3-.2-.2-.9 0-1.2.5-.7.9-.4 1-.2.4.6.2 1.3.2 1.3.2.2.4.5.3.9zm-.8-1.8c-.1-.1-.2-.1-.5.3-.1.1 0 .2.2.2.1.1.5.3.5.3 0-.1.1-.5-.2-.8z" fill-rule="evenodd"/><path d="m41.6 20.5c-.3.8-.7.8-1.2.5-.8-.3-1.2-.9-1.5-1.4-.3.1-.5.2-.6.2-1.8.8-3.2.6-3.7.5 0 .4-.1.8-.1 1.1 0 .4-.2.6-.4.6s-.4 0-.9-.2c-.8-.6-1.1-1.6-1.1-2q0 0-.1 0c-2.6 2.3-4-.2-3.9-.6-1.1 1.7-2.5 1.7-2.9 1.6-2.1-.2-1.8-2.1-1.8-2.6q-.2 0-.4 0c-.3.1-2.9 1.2-3.9 1.5-2.2.5-2.7-1.1-2.7-1.2 0 0-.9 1.7-2.6 1.6-1.6 0-2.3-1.2-2.7-1.7-.4-.6-.7-.3-1-.2-1.2.7-2 3.1-2.1 3.4-.3.5-1.1 1.1-1.9.2-1.5-1.8-.8-4.4-.7-4.6 0-.2.1-.1.1.1-.3 3.1 1.1 3.8 1.3 3.9.9.1 1.2-.9 1.4-1.3.7-1.9 1.2-2.2 1.9-2.7.6-.5 1.1-.3 1.3 0 1.1 1.8 2.1 1.8 2.3 1.9 1.9 0 2.7-1.6 2.9-1.9s.2.1.2.3c.7 2.5 5 .3 5.3.1-.5-.2-2.4-.8-2.6-.8-.1-.1-.2-.1-.2 0s-.1.1-.1.1-1.8.1-2 .1q-.2 0-.1-.1c0-.1.2-.7.3-.8 0 0 0 0 .1-.1.7-.3 1.5-.5 1.7-.5s.3 0 .5.1c4.3 1.7 6.1 1.6 6.7 1.7 0 0-.5.8-.6 1-.9-.1-1.6-.1-2-.1-.1.9.8 1.4 1.1 1.5 1.9.6 3.1-1.4 3.3-1.7s.3-.1.2.3c1 2.8 3.4.7 3.6.5s.3-.4.4-.5q.1-.2.1-.2c.3-.4.4-.2.4 0q0 .1 0 .1c2.6 2.4 5.2.7 5.6.6q0-.1.1-.1 0 0 0-.1c-.5-2.2-1.3-9.6-1.4-10 0-.4-.1-.6-.1-.6s.3-.8.3-.9c.1-.1.1 0 .2 0 0 .1 1.1 2.7 1.1 2.9.1.1 0 .2-.1.1s-.6-.6-.6-.6.5 5.1 1.2 8.4q.1.3.1.5c.8-.2 1.3-.2 1.6-.1 1.3.2.8 1.8.7 2.2zm-1-1.2c-.2-.1-.5-.1-.8 0 .5.6 1 .8 1.3.8.3.1.2-.6-.5-.8z" fill-rule="evenodd"/><path d="m41.4 7.1c.1.1 1.1 2.7 1.2 2.9 0 .1-.1.2-.2.1 0-.1-.6-.6-.6-.6s.9 6.3 1 6.6c.6 3.7.1 4.8 0 4.9-.1.2-.2.1-.1-.1-.1-1.5-.9-7-1-7.3 0-.4-.6-5.2-.7-5.7 0 0 .3-.7.3-.8.1-.1.1 0 .1 0z"/><path d="m46.7 9.4c0 .2-.1.1-.2 0 0-.1-.3-.3-.3-.3s-.4.8-1 1.2c-1.2.9-2.1 1-2.2 1.1-.1 0-.1-.1.1-.2.7-.4 1.5-.7 2.8-2.2 0 0-.4-.2-.7-.4s-.1-.9.1-1.2c.4-.7.9-.3.9-.2.4.7.2 1.4.2 1.4.2.1.5.4.3.8zm-.8-1.8c-.1 0-.2 0-.4.3-.1.1 0 .2.1.3.2.1.5.2.5.2 0-.1.1-.5-.2-.8z" fill-rule="evenodd"/></g></svg>