<svg height="30" viewBox="0 0 70 30" width="70" xmlns="http://www.w3.org/2000/svg"><g fill="#191c4f"><path d="m12.2 22.6c-.1.2-.1.2-.2.4 0 .1-.1.2-.3.3-.3.1-2.8.9-3 1-.3.1-.3.1-.2-.1q0 0 .1-.2c0-.2.1-.3.3-.4.3-.1 2.8-1 3.1-1 .3-.2.2-.1.2 0z"/><path d="m22.6 21.4c-.1.2-.1.2-.2.4-.1.1-.2.2-.4.3-.1.1-3.2 1.3-3.3 1.4-.4.2-.3 0-.3-.1q0 0 .1-.3c0-.1.1-.1.3-.3.3-.1 3.3-1.3 3.5-1.4.4-.2.3-.1.3 0z"/><path d="m25.2 20.2c.2 0 .2.1.1.3 0 0-.1.2-.2.4-.1.1-.7.8-.9 1-.2.3-.1.8.6.9.8-.1 1.6-.8 1.7-1 .2-.1.2 0 .1.2-.6.8-1.3 1.2-1.5 1.2-.2.1-1.4.4-1.2-.9.2-.8.9-1.4 1-1.5q.1-.1-.1-.1c-.8 0-.8.3-.9.3 0 .1 0 0 0-.1 0 0 .2-.3.2-.4.3-.5.9-.3 1.1-.3z"/><path d="m32.9 19.9s-.1.3-.2.4c-.3.9-.1 1.3-.1 1.3.3.5.6.3.7-.1.1-.1.1 0 .1 0q0 .1-.1.3c-.1.5-.3.6-.5.6-.3 0-.5-.4-.5-.6 0-.9.4-1.7.5-2 0-.2.1-.1.1.1z"/><path d="m64.1 19.3v.5c0 .2-.1.5-.2.8s-.8.5-1.2.2c-.7 1.1-1.4.5-1.8.4-.7-.3-.9.2-1 .4-.9.9-2.4.9-2.8.9-.3 0 0-.2.1-.3 1.2-.4 2-.5 3.1-1.5.4-.4.7-.2.9-.1 1 .4 1.2 0 1.3-.2.1-.1.3-.6.4-.8.1-.1.2 0 .1.1 0 .1-.1.3-.1.4.4.3.8.1.9 0 0 0 0-.3 0-.4q0-.2.1-.6c.1-.2.2 0 .2.2z"/><path d="m37.6 19s-.1.3-.1.4c-.3.9-.2 1.3-.1 1.4.2.4.5.2.7-.2 0-.1.1 0 .1 0q-.1.1-.1.3c-.2.5-.4.6-.5.6-.4 0-.5-.4-.5-.6-.1-.9.3-1.7.4-1.9.1-.3.2-.2.1 0z"/><path d="m45.4 17.9c-.3 1-1.7 1.5-2 1.6-1.3.4-1.4-.9-1.3-1.8s.7-2.1.7-2.1-1.4-1.1-1.5-1.2-.2-.2-.3-.3-.1-.1-.1-.1 0-1 0-1.1.1 0 .2 0 1.5.6 1.7.7c.1.1.1.2 0 .2s-.6.2-.6.2l1.2.8s1.6-2.1 1.8-2.3.1-.1.1.1-.3 1.1-.4 1.2c-.1.2-.9 1.4-.9 1.4s1.1.6 1.3 1c.5.7.2 1.3.1 1.7zm-2.1-1.9s-.7 1.2-.8 1.5c-.3.7.4.8.7.8s1.2-.5 1.7-.9-1.3-1.3-1.6-1.4z" fill-rule="evenodd"/><path d="m10.5 12.9s-.1.3-.1.5c-.4.9-.2 1.4-.1 1.5.2.4.6.2.7-.2.1-.2.2-.1.1 0q0 .1 0 .3c-.2.6-.4.7-.6.7-.4 0-.6-.4-.6-.7-.1-1 .4-1.9.5-2.2.1-.2.2-.1.1.1z"/><path d="m65.6 16.7c-.1.2-.3 1.2-1.7.9-.3-.1-1-.2-1.2-1-.4.5-1.1 1.7-2.7 1.5-.3 0-1.4-.5-1.4-1.8 0 0-1.3 1-1.9 1.3.1.5.1 1.1-.2 1.7-.2.6-2.9 3.6-5.1 4.1-.7.2-3.5.7-3.7-2.4q0-1 .1-1.5c-1.7 1.3-3.8 2.3-4.4 2.6-.9.5-4.2 1-4.7 1.1-.4.1-.5 0-.2-.2.2-.1 7.3-2.5 11-6.4.1-.1.1-.3 0-.5s-1.3-2.4-1.4-2.7-.2-.6-.3-.7q-.1-.2 0-.4c0-.1.1-.7.1-.8.1-.2.1-.1.2 0s1.2 1.2 1.4 1.4c.1.1 0 .2 0 .2-.1 0-.7 0-.7 0s.8 1.3 1 1.8c.5 1 .3 1.9.1 2.3-.4.7-1 1.3-1.7 1.9-.1.6-.3 3.2 2 3.2.4 0 1.6.2 4.1-1.8.6-.5 1.2-1 1.7-1.8.3-.3.4-.8 0-.8-.4.1-2.9 1-3.3-.5-.1-.4.1-4 2.6-2.2.2.1.7.6 1.1 1.3.4-.2 1.2-.7 2.1-1.4.3-.3.6-.4.6-.1-.1.4-.2 2.5 2 1.9.3-.1 1.2-.3 1.9-2.1.2-.4.5-.4.4 0-.2.4-.5.8-.2 1 .2.2.8.7 1.6.6.3 0 .5-.2.4-.4s-.4-.7-.4-.7c.1-.3.2-.7.2-.8 0-.2.1-.3.2-.2s.8 1.1.4 2.4zm-10.3.1c-.8-1.1-1.7-.5-1.9-.3-.1.1-.1.4.6.4 1 .1 1.3-.1 1.3-.1z" fill-rule="evenodd"/><path d="m16.1 19.6 1 .7q.1.1 0 .1l-.6.8q0 .1 0 0l-1-.7-.5.7q-.1.1-.1 0l-1-.7q-.1 0 0-.1l.6-.8q0 0 0 0l1 .7.5-.7q.1 0 .1 0z"/><path d="m32.9 12.6 1 .8q.1 0 .1.1l-.6.8q-.1 0-.1 0l-1-.7-.5.7q0 0-.1 0l-1-.8q0 0 0 0l.6-.9q0 0 .1 0l.9.8.6-.8q0 0 0 0z"/><path d="m44 10.2 1 .7q.1 0 .1.1l-.6.8q-.1 0-.1 0l-1-.7-.5.7q-.1 0-.1 0l-1-.7q0-.1 0-.1l.6-.8q0-.1.1 0l.9.7.6-.7q0-.1 0 0z"/><path d="m63 10.2s-.1.3-.1.4c-.3.9-.2 1.3-.1 1.4.2.5.5.2.7-.1 0-.2.1-.1.1 0q-.1.1-.1.3c-.2.5-.4.7-.6.7-.3-.1-.4-.5-.5-.7 0-1 .4-1.8.5-2 .1-.3.2-.2.1 0z"/><path d="m17.7 10.3s-.1.4-.2.7c-.3 1.5-.1 2.1 0 2.2.4.7.8.3 1-.2 0-.3.1-.2.1 0q0 .1-.1.4c-.1.9-.4 1.1-.7 1.1-.4.1-.7-.6-.7-1-.2-1.6.3-2.9.4-3.3s.2-.2.2.1z"/><path d="m52.9 9.7s-.1.3-.1.5c-.4.9-.2 1.4-.1 1.5.2.4.6.2.7-.2.1-.2.1-.1.1 0q0 .1 0 .3c-.2.6-.5.7-.6.7-.4 0-.6-.4-.6-.7 0-1 .4-1.9.5-2.2.1-.2.2-.1.1.1z"/><path d="m31.9 8.7s.1.5.3.7c.1.2.2.5.1.9 0 .3-.2.6-.4.7s-.6.1-.9-.3c-.3.6-.8.8-1.1.6-.3-.1-.3-.7-.3-.8 0-.2 0-.7 0-.8s0-.2.1-.4c.1-.1.1 0 .1.1 0 .2 0 .9.1 1.2.3.4.9 0 1-.2s-.2-1-.2-1q0-.1 0-.1c0-.1 0-.3.1-.4q.1-.2.1 0c.1.1.1.3.2 1 .2.7.8.5.9.5.2-.1.2-.2.1-.3 0 0-.3-.6-.4-.9-.1-.2 0-.4.1-.6 0-.2.1 0 .1.1z"/><path d="m10 6.8c.1.2.1.6 0 .8 0 .1-.1 0-.3-.1 0 0-.1-.1-.2-.2-.5-.3-.5.5-.6.8 0 .3.1 1.2.1 1.7 0 .2-.1.2-.2 0-.4-1-1.1-1.4-1.2-1.5s-.2.1-.2.2c0 0 0 0-.1 0 0 0-.4-.2-.5-.3-.2-.1-.2-.5-.2-.7 0-.3.2-.4.2-.3 1.3.5 1.9 1.6 1.9 1.8 0-.9-.1-1.7.3-2.4.3-.5.9.1 1 .2z"/><path d="m12.7 6.6s0 .3-.1.5c-.4 1-.2 1.4-.1 1.5.3.5.6.3.8-.1 0-.2.1-.1.1 0q-.1.1-.1.3c-.2.6-.4.8-.6.8-.4-.1-.6-.5-.6-.8 0-1.1.4-2 .5-2.2.1-.3.2-.2.1 0z"/><path d="m23.3 6.4c.7.1.5.4.4.6-.5.8-1.2 1.1-1.7 1.3s-.2-.2.1-.4c0 0 .3-.1.7-.5.4-.3-.7-.2-1.2-.2-.5-.1-.6.1-.8.3-.1.2-.3.1-.2-.2.1-.1.2-.4.6-.8.3-.4 1.4-.2 2.1-.1z"/><path d="m32.9 6.1c-.1.1-.1.1-.2.3s-.2.3-.4.4-9.1 4.4-9.2 4.5c-.4.2-.3 0-.3-.1q0 0 .1-.3c.1-.2.1-.2.4-.4.3-.1 9.1-4.4 9.3-4.5.4-.2.3-.1.3.1z"/><path d="m18.5 6c.1.2.1.5 0 .8 0 .1-.1 0-.2-.1 0 0-.2-.1-.3-.2-.5-.3-.5.4-.5.8v1.6c0 .2-.1.2-.2.1-.4-1-1.1-1.4-1.2-1.5s-.1.1-.2.1c0 .1 0 .1-.1.1 0 0-.4-.2-.5-.3-.2-.1-.2-.5-.2-.7 0-.3.2-.4.3-.4 1.2.6 1.8 1.7 1.9 1.9-.1-.9-.2-1.7.2-2.4.3-.5.9.1 1 .2z"/><path d="m52 5.6c0 .1 0 .1-.1.3s-.2.2-.4.3c-.1.1-5.4 3.2-5.5 3.2-.3.2-.3.1-.3 0q.1 0 .1-.3c0-.1.1-.2.3-.3.2-.2 5.5-3.2 5.7-3.3.3-.2.3-.1.2.1z"/><path d="m58.4 5.9c.2.2.1.6 0 .9-.1.1-.2 0-.4-.2 0 0-.1-.1-.2-.2-.5-.5-.7.4-.8.8 0 .3-.1 1.3-.2 1.9 0 .2-.2.2-.2 0-.4-1.2-1.1-1.8-1.2-1.9s-.2.1-.2.2c-.1 0-.1 0-.2 0s-.5-.3-.6-.4c-.1-.2-.1-.6-.1-.8 0-.4.3-.5.4-.4 1.4.8 1.8 2.2 1.9 2.4.1-1 .1-2 .7-2.7.4-.5 1.1.3 1.1.4z"/><path d="m63.7 8.1c-.1.2-.2.1-.3-.1 0-.1-.2-.2-.4-.3-.2.4-.2.5-1.1 1.3-1.9 1.6-4 2.2-4.1 2.2-.2.1-.2 0 0-.2.7-.5 3.5-1.7 4.9-3.5 0 0-.5-.1-.8-.4-.3-.2-.1-1 .1-1.3.6-.8 1-.4 1.1-.3.5.8.2 1.6.2 1.6.3.2.5.5.4 1zm-1-2.1c-.1 0-.2 0-.5.4-.1.1 0 .2.2.3.2 0 .6.2.6.2 0-.1.1-.6-.3-.9z" fill-rule="evenodd"/><path d="m36.4 17.6c0 2.1-1.5 2.2-1.8 2.2-1.6.2-2-.8-2.2-1.3-1.3 2.5-4.3 2-4.6 1.9-2-.7-1.3-3.1-1.1-3.8-1 .5-2.1 1.1-2.9 1.5q0 .3 0 .5c0 .2-.2.3-.2.1q-.1-.2-.3-.4-.3.1-.4.2c-3.1 1.1-4.7 3.1-5.2 3.7-1.4 1.7-2.5 2-3.1 1.9-3.1-.3-1.6-4.3-1.1-5.4q0 0 0-.1c-.6.3-1.1.7-1.4.9-.6.4-1.5 1.2-2.2 2-1.4 1.6-2.6 1.8-3.1 1.7-3.5-.7-.9-5-.2-6-.4-.2-.6-.8-.6-1.1-.3-1.9.3-3.6.5-4 .1-.5.3-.3.2.1 0 0-.1.5-.2.8-.4 1.8-.1 2.6 0 2.8.4.8 1 .3 1.2-.3 0-.4.1-.2.1-.1q0 .2-.1.6c-.1 1-.5 1.3-.8 1.3 0 .2-.1.3-.3.5-2 3.1-.9 4.2-.5 4.4 1.3.5 3.3-1.5 3.8-2.1 1.3-1.5 3.7-2.8 4.3-3-.7-1.1-1.3-4.9-1.3-4.9s.2-.8.2-.9c.1-.1.2 0 .2 0 0 .1 1.1 1.9 1.2 2 0 .2 0 .3-.1.2-.1 0-.6-.4-.6-.4s.2 1.5.4 2.1c.3.9 1.3 1.5 2.2 1.9s.7.7.7.9c0 .3-.1.8-.1.8-1-.7-2-.7-2.9-.4-1.9 4.2-.3 4.7.1 4.7 1.4.2 2.7-1.6 3.9-2.8 1.3-1.5 4-2.6 4.3-2.8q0 0 .2 0c-.9-.8-1.8-1.5-2-1.6-.2-.2-.3-.8-.2-1.3.4-1 1-1.2 1.3-1.2 3.7-.4 7.9.7 8 .7 0 0 .1 0 .1.1-.1.2-.3.8-.4 1 0 0 0 0-.4.2-.1.1-1 .5-2 1.1-.9 3 1.9 2.8 2.2 2.8 2.5-.3 3-1.9 3.4-2.3.3-.5.3.1.2.4.6 2 2.6 1 2.9.8.3-.1.2-.5.1-.9 0-1-1.4-8.7-1.4-8.7-.1-.7-.2-1.3-.2-1.8-.1-.4-.2-.6-.2-.7 0 0 .4-.9.4-1 .1-.1.1 0 .2.1 0 .1 1.1 2.7 1.2 2.9 0 .2-.1.2-.2.1s-.7-.7-.7-.7l1.1 6.6c.1.5.4 2.5.4 3.5zm-8.7-2.6c-4.2-1-6.4-.3-6.6-.2s-.1.2 0 .2c0 .1 1.5 1.2 1.7 1.4q.4.4.6.7c1.4-.7 4-2 4.3-2.1z" fill-rule="evenodd"/><path d="m37.7 5.2c0 .1 1.2 3.1 1.3 3.2.1.2-.1.2-.2.1s-.7-.6-.7-.6 1.2 8 1.2 8.3q.3 2.3.2 3.5c0 1-.2 1.4-.3 1.4 0 .2-.1.2-.1 0 0-.6-.1-1.7-.3-2.9-.3-2.4-1.4-10.2-1.5-11.5-.1-.1-.2-.5-.2-.6 0 0 .4-.9.4-1 .1-.1.1 0 .2.1z"/><path d="m43.8 7.8c-.1.2-.2.1-.3-.1 0 0-.4-.3-.4-.3s-.4.9-1.1 1.4c-1.3 1-2.4 1.2-2.5 1.2-.1.1-.2-.1.1-.2.8-.5 1.8-.8 3.2-2.5 0 0-.5-.2-.8-.5-.3-.2-.1-1 .1-1.3.6-.8 1-.4 1.1-.3.5.8.2 1.6.2 1.6.3.2.5.5.4 1zm-1-2.1c-.1 0-.2 0-.5.4-.1.1 0 .2.2.3.2 0 .6.2.6.2 0-.1.1-.6-.3-.9z" fill-rule="evenodd"/></g></svg>