<svg height="30" viewBox="0 0 70 30" width="70" xmlns="http://www.w3.org/2000/svg"><g fill="#191c4f"><path d="m26.8 24c0 .1 0 .1-.1.3s-.3.2-.5.3-5 1.7-5.1 1.8c-.4.1-.3 0-.3-.1q.1 0 .1-.3c.1-.2.2-.2.4-.3.3-.1 5-1.7 5.3-1.8.4-.1.3 0 .2.1z"/><path d="m29.3 22 1.1.8q0 0 0 .1l-.6.9q-.1 0-.1 0l-1.1-.8q-.1 0 0-.1l.6-.9q0 0 .1 0z"/><path d="m24.3 21.9 1.1.8q.1 0 0 .1l-.6.8q-.1.1-.1.1l-1.1-.8-.5.7q-.1.1-.1.1l-1.1-.8q-.1-.1 0-.1l.6-.9q.1-.1.1 0l1.1.7.5-.7q.1-.1.1 0z"/><path d="m13.7 22c0 .1-.1.1-.2.3 0 .2-.2.2-.4.4-.2.1-4 1.6-4.1 1.6-.3.2-.3.1-.2 0q0-.1 0-.3c.1-.2.2-.3.4-.4.3-.1 4-1.6 4.3-1.7.3-.2.3 0 .2.1z"/><path d="m18.8 21.4c.4.1.4.6.4.8-.2 1-.8 1.7-1 1.9-.1.2-.2 0-.1-.1 0 0 .2-.3.3-.4.5-.8.4-1.2.4-1.3-.1-.5-.5-.4-.7-.1-.1.2-.1.1-.1 0q0-.1.1-.3c.3-.5.6-.5.7-.5z"/><path d="m64.1 19.5v.6c0 .2-.1.5-.2.9-.1.3-.9.5-1.3.1-.8 1.3-1.6.7-2 .5-.7-.3-.9.2-1.1.4-.9 1-2.6 1-3 1-.3.1 0-.2.1-.3 1.4-.4 2.2-.5 3.3-1.6.5-.5.9-.3 1.1-.2 1.1.5 1.2 0 1.4-.1.1-.1.3-.7.4-.9s.2-.1.1.1c0 .1-.1.3-.1.4.5.4.9.1 1 0 0 0 0-.4 0-.5q0-.1.1-.6c.1-.2.2 0 .2.2z"/><path d="m17.9 13.3 1.1.8q0 0 0 .1l-.6.8q-.1.1-.1.1l-1.1-.8q-.1-.1 0-.1l.6-.9q0-.1.1 0z"/><path d="m11.6 12.6 1.1.8q0 0 0 .1l-.7.9q0 0-.1 0l-1-.8-.6.8q0 0-.1 0l-1.1-.8q0-.1 0-.1l.7-.9q0 0 0 0l1.1.8.6-.8q0 0 .1 0z"/><path d="m43.8 18c-.3 1.1-1.9 1.7-2.2 1.8-1.4.4-1.5-1-1.4-2s.8-2.2.8-2.2c-.1-.1-1.5-1.2-1.6-1.3-.2-.1-.3-.3-.4-.4-.2-.1-.1-.1-.1-.1s0-1.1 0-1.2 0-.1.2 0c.1 0 1.6.7 1.8.7.2.1.1.2 0 .3-.1 0-.6.1-.6.1l1.3 1s1.8-2.4 2-2.6c.1-.2.1-.1.1.1-.1.3-.4 1.3-.5 1.4-.1.2-1 1.4-1 1.4s1.2.7 1.5 1.2c.5.7.2 1.4.1 1.8zm-2.3-2.1s-.8 1.4-.9 1.6c-.3.9.5 1 .8 1 .3-.1 1.3-.6 1.8-1 .6-.4-1.4-1.4-1.7-1.6z" fill-rule="evenodd"/><path d="m65.7 16.7c0 .2-.3 1.3-1.8 1-.3-.1-1.1-.2-1.4-1-.3.4-1.2 1.8-2.8 1.5-.4 0-1.6-.5-1.6-1.9 0 0-1.4 1.1-2 1.4.1.6 0 1.2-.2 1.8-.3.7-3.2 4-5.6 4.5-.8.2-3.9.8-4-2.6 0-.8 0-1.3.1-1.7-1.9 1.5-4.2 2.6-4.8 2.9-1 .5-4.5 1.1-5.1 1.2-.5.1-.5-.1-.3-.2.3-.1 8-2.7 12.1-7q.1-.2-.1-.5c-.1-.2-1.3-2.6-1.5-3-.1-.3-.2-.7-.3-.8q-.1-.2-.1-.4c.1-.1.2-.7.2-.9.1-.1.1-.1.2 0s1.4 1.4 1.5 1.6c.2.1 0 .2 0 .2-.1 0-.7 0-.7 0s.8 1.4 1.1 1.9c.5 1.2.2 2.1.1 2.5-.4.8-1.1 1.5-1.9 2.2-.1.6-.4 3.4 2.2 3.4.5 0 1.8.2 4.4-1.9.7-.6 1.3-1.1 1.9-2 .3-.3.4-.9 0-.8-.4 0-3.2 1-3.6-.6-.1-.5.2-4.4 2.8-2.4.3.1.8.6 1.2 1.4.5-.2 1.3-.7 2.4-1.6.3-.2.5-.4.5 0s-.2 2.7 2.3 2c.2-.1 1.3-.3 2-2.3.3-.4.5-.4.4 0-.2.5-.5.9-.2 1.2.2.2.9.7 1.8.6.3 0 .5-.2.4-.4-.2-.3-.5-.8-.5-.8.1-.3.2-.8.3-.9 0-.2.1-.3.2-.2.1.2.9 1.2.4 2.6zm-11.1.1c-.9-1.1-2-.5-2.1-.4-.1.2-.2.5.7.6 1 0 1.4-.2 1.4-.2z" fill-rule="evenodd"/><path d="m6.1 10.6s-.1.5-.2.9c-.7 1.8-.4 2.7-.4 2.9.4 1 1 .5 1.2-.2.2-.4.2-.2.2 0q0 .2-.1.6c-.3 1.1-.7 1.4-1 1.4-.6-.1-.8-1-.8-1.5 0-2.1.8-3.8 1-4.3s.3-.3.1.2z"/><path d="m29.5 10.4s-.1.6-.3.9c-.6 1.9-.3 2.8-.3 3 .4.9 1 .5 1.2-.2.1-.4.2-.2.2 0q-.1.1-.2.5c-.3 1.2-.7 1.4-1 1.4-.5 0-.7-1-.7-1.4 0-2.1.7-3.8.9-4.3s.3-.3.2.1z"/><path d="m42.3 9.6 1.1.8q0 .1 0 .1l-.6.9q-.1 0-.1 0l-1.1-.8-.6.8q0 0 0 0l-1.1-.8q-.1 0-.1-.1l.7-.9q0 0 .1 0l1 .8.6-.8q0 0 .1 0z"/><path d="m62.9 9.7s-.1.2-.1.4c-.4 1-.2 1.4-.2 1.5.3.5.7.3.8-.1.1-.2.1-.1.1 0q0 .1 0 .3c-.2.6-.5.7-.6.7-.4 0-.6-.5-.6-.7-.1-1 .4-1.9.5-2.2s.2-.1.1.1z"/><path d="m52 9.1s-.1.3-.2.5c-.4 1.1-.2 1.5-.1 1.6.3.6.6.3.8-.1.1-.2.1-.1.1 0q0 .1-.1.3c-.1.6-.4.8-.6.8-.4 0-.6-.5-.6-.8-.1-1.1.4-2.1.5-2.4s.2-.1.2.1z"/><path d="m23.1 8.6s.1.4.3.7c.1.2.2.5.2.9-.1.4-.3.7-.5.8-.2 0-.6 0-.9-.4-.4.7-.9.9-1.2.7-.3-.1-.3-.7-.3-.9 0-.1 0-.7 0-.8s0-.2.1-.4c.1-.1.1 0 .1.1 0 .2-.1.9.1 1.2.3.5.9.1 1-.2.2-.2-.1-1-.1-1q-.1-.1-.1-.2s.1-.2.1-.4q.1-.1.2 0c.1.2.1.4.2 1.1s.8.6.9.5c.2 0 .2-.1.1-.2 0-.1-.3-.7-.4-1-.1-.2 0-.4 0-.6.1-.3.2-.1.2.1z"/><path d="m31.4 7.9c-.1.1-.1.1-.2.3s-.2.2-.4.3-5.5 1.8-5.6 1.9c-.3.1-.3 0-.2-.1q0 0 .1-.3c0-.2.1-.2.4-.3.2-.1 5.4-1.9 5.6-1.9.4-.2.3-.1.3.1z"/><path d="m20 7.7c-.1.1-.1.2-.2.4-.1.1-.2.2-.4.3-.7.3-5.7 2-6 2.1h-.1l-.1.1c-.2 0-.2-.1-.1-.2q0 0 .1-.3c.1-.2.1-.2.4-.3.7-.2 6.5-2.3 6.1-2.2.4-.1.4 0 .3.1z"/><path d="m13.4 5s-.1.4-.1.6c-.4 1.1-.2 1.6-.2 1.7.3.6.7.3.9-.2.1-.2.1-.1.1 0q0 .1 0 .4c-.2.6-.5.8-.7.8-.5 0-.6-.5-.7-.8 0-1.2.5-2.2.6-2.5s.2-.2.1 0z"/><path d="m11.1 5.2c.2.2.1.6 0 .8 0 .2-.2 0-.3-.1 0 0-.1-.1-.3-.2-.5-.4-.7.5-.7.9v1.8c-.1.2-.2.2-.3.1-.4-1.2-1.1-1.7-1.3-1.8-.1-.2-.2 0-.2.1s-.1.1-.1.1c-.1-.1-.5-.3-.6-.4-.2-.1-.2-.6-.2-.8 0-.3.2-.4.3-.4 1.5.7 2 2 2.1 2.2 0-1 0-1.9.5-2.6.4-.6 1.1.2 1.1.3z"/><path d="m27.7 4.8s-.1.2-.2.4c-.3.9-.1 1.4-.1 1.5.3.4.6.2.7-.2.1-.1.2-.1.1 0q0 .1 0 .3c-.2.6-.4.7-.6.7-.4 0-.5-.5-.5-.7-.1-1 .3-1.9.4-2.1s.2-.1.2.1z"/><path d="m51 4.6c-.1.1-.1.2-.2.4 0 .1-.1.2-.3.3s-6 3.5-6.1 3.5c-.3.2-.3.1-.3 0q.1-.1.1-.3c.1-.2.1-.2.4-.4.2-.1 5.9-3.4 6.1-3.6.4-.2.3 0 .3.1z"/><path d="m58 5c.1.2 0 .7-.1.9s-.3 0-.4-.1c0 0-.1-.2-.2-.3-.6-.5-.8.5-.9.9s-.1 1.4-.2 2c0 .3-.2.3-.3.1-.4-1.3-1.1-2-1.3-2.1-.1-.1-.2.1-.2.2 0 0-.1 0-.2 0s-.5-.3-.6-.5c-.2-.1-.1-.6-.1-.8 0-.4.2-.5.3-.4 1.6.8 2.1 2.4 2.2 2.6 0-1.1.1-2.2.7-2.9.5-.7 1.2.3 1.3.4z"/><path d="m63.6 7.4c0 .1-.1 0-.2-.1s-.2-.3-.5-.4c-.2.5-.2.6-1.1 1.4-2.2 1.8-4.5 2.5-4.6 2.5s-.2-.1.1-.2c.7-.6 3.7-1.9 5.3-3.8 0 0-.5-.2-.9-.5-.3-.2-.1-1.1.1-1.4.6-.9 1.1-.5 1.2-.3.5.8.3 1.7.3 1.7.2.2.5.5.3 1.1zm-1-2.3c-.1 0-.2-.1-.5.4-.1.1 0 .2.2.3s.6.3.6.3c0-.1.1-.7-.3-1z" fill-rule="evenodd"/><path d="m32.2 4.2c0 .1 1.2 3.3 1.3 3.4.1.2-.1.3-.2.2-.1-.2-.6-.7-.6-.7s.6 4.7 1 8.1c.2 2.2.1 3.3.1 3.5-.2 1.7-.9 1.9-1.3 2.1-2.1.7-2.8-.9-3-1.5-.8 1.6-2.3 1.9-2.7 1.9-2.3.1-3-1.5-3.3-2.1-.4 1.6-1.7 1.9-2.2 1.9-1.8 0-2.1-1.2-2.3-2-1.4 2.4-3 2.1-3.3 2.1-2.3-.1-2.9-2.7-3.1-3.2s-.6-.3-1-.1c-1.7.6-2.8 3.8-3 4.2-.6 1.3-1.5.9-1.8.8-1.9-.9-1.6-5.2-1.5-5.7.1-.4.2-.2.2 0 0 2.6.4 3.3.6 3.5 1 1.7 1.9.9 2.1.6.2-.2.7-1.5.9-1.8.6-1.7 1.4-2.3 2.6-3 1.1-.6 1.5.7 1.6 1.1.8 2.3 2.4 2.3 2.6 2.3 2.1 0 3.3-2.2 3.5-2.5.2-.2.2.2.2.3s-.1.2-.1.4c0 1.7 1.6 1.6 1.8 1.6 1.7-.1 1.9-.9 1.9-1.2.1-1.2-.7-4.1-.8-4.3 0 0 .3-.9.4-1 0-.1.1-.2.1-.1.4.6.8 3.2.9 3.7.3 1.8 1 2.5 1.4 2.7 1.2.9 2.9.4 3.5-.3.2-.2 1-1.3 1.1-1.4.2-.2.2 0 .2.1 0 .2.1.4.1.5.1.8.9 1.2 1 1.2 1.2.4 1.9-.3 2.1-.5s-1.4-12.5-1.5-13c0-.5-.1-.7-.2-.8 0 0 .5-.9.5-1.1.1-.1.1 0 .2.1z"/><path d="m35.4 4.2c0 .1 1.4 3.3 1.4 3.5.1.2 0 .3-.2.1-.1-.1-.7-.7-.7-.7s1.2 8.8 1.2 9c.3 1.8.3 3 .3 3.8-.1 1.1-.3 1.5-.3 1.6-.1.2-.2.2-.2 0 0-.7-.1-1.8-.3-3.1-.3-2.7-1.5-11.1-1.7-12.5 0-.2-.1-.6-.1-.7 0 0 .4-.9.4-1.1.1-.1.1 0 .2.1z"/><path d="m42 7.1c-.1.1-.1 0-.3-.1 0-.1-.4-.4-.4-.4s-.5 1-1.2 1.6c-1.4 1-2.7 1.2-2.7 1.3-.2 0-.2-.1 0-.3.9-.5 2-.9 3.5-2.8 0 0-.5-.1-.8-.4-.3-.2-.1-1.1.1-1.4.6-1 1.1-.5 1.2-.3.5.8.2 1.7.2 1.7.3.2.6.5.4 1.1zm-1-2.3c-.1-.1-.3-.1-.6.4-.1.1 0 .2.2.3s.7.3.7.3c0-.1 0-.7-.3-1z" fill-rule="evenodd"/></g></svg>