<svg height="72" viewBox="0 0 128 72" width="128" xmlns="http://www.w3.org/2000/svg"><g fill="#f3efdf"><path d="m69.2 31.6-1.6 2.8h-5q-3.1 0-7 1-2.6.7-5.9 1.9-1.3.5-2.5 1 1.7.3 3.4.6 3.9.7 7.3 1.2 4.6.7 6.5.7l-1.8 2.9h-4.9q-3.1 0-6.2.9-1.7.4-5.3 1.8-3.4 1.3-5.6 1.8-2.1.6-5.3 1-3.2.4-6 .4-2.7 0-4.7-.3-2-.4-3.3-1.2-1.5-1-2.8-3.2-1-1.5-2.3-1.5-.6 0-1.6.6-1 .6-1.3 1.1-.4.5-2.3 5.5-1.3 3.5-3 3.5-1 0-2.1-1.2-1-1.3-1.6-3.2-.2-.9-.2-3.4-.1-2.5-.1-4.5h.7q0 2.4.1 4 .2 1.7.4 2.2.7 1.4 1.6 2.1.6.5 1 .5 1.1 0 2.3-2.3.9-2.2 1.9-4.4.6-1.2 2.3-2.6 2-1.7 3.3-1.7 1.2 0 2.4 2.1 1.5 2.6 2.1 3 1.1 1 3.3 1.4 2.2.4 5 .4 2.7 0 5.4-.3 2.8-.3 5.3-.9 3.1-.7 6-1.6 3-.8 4.4-1.5-.3-.2-5.2-.8-4.8-.6-6.4-.6l1.3-2.1q2-1.9 7.2-3.5 3.8-1.1 7.5-2.2-1.9-.5-5.4-1-3.5-.5-5.7-.5.3-1.4.7-2 .7-1.2 1.9-1.2l5.4-.1-2.6-14.4v-1l-.4-1.2 1.1-2.6 3.1 5.6v.8q-.3-.2-.7-.4-.3-.3-.6-.6-.1.2-.2.5 0 .4.8 5 .6 3.1.7 4.4v2.1q0 .8 0 1.5-.1.7-.4 1.5 2.8 1 7.7 1.6 4.8.6 7.9.6zm-51.8 1.5-2.2 1.8-2-1.7-2.3 2.1-2.5-2.2 2.2-1.9 2.1 1.7 2.3-2zm15.3-8.2-13.9 1-7.6-1 .8-10.2 6.8-6 13.3 5.1zm-1.1-6.6-.1-2.3-12.5-3.7v-3.3h-.3-.2v3.4l-6.1 4.1v1.9l6.1-2.7v10h.5v-10zm-12.7-2.9-.5.1v-3h.5zm18.6 14.5q-.2 1-.8 1.4-.3.2-.5.2l-11.2 3.4q-.2 0-.7.3-.4.3-.5.4.1-.7.6-1.1.4-.5 1-.7l11.1-3.3q.2 0 .5-.2.3-.2.5-.4zm-2.9 9.2q0 1.2-.7 1.6-.3.3-.8.3-.5 0-.9-.5-.4-.4-.5-.6-.4 1.4-1.7 1.4-.6 0-1-.5-.3-.4-.3-1.7 0-.3 0-.6 0-.2 0-.5-.4.3-.6.5v-.6q.2-.3.4-.7.3-.4 1-.7 0 .4 0 .8 0 .4 0 .8 0 1 .1 1.4.2.5.7.5.5 0 .9-.3.4-.3.4-.7 0-.4-.3-1.2-.1-.2-.3-.8.1-.2.3-.5.1-.2.4-.4.4.6.5 2 .2 1.4 1 1.7.2-.1.4-.2.2-.1.2-.3 0-.5-.3-1.2-.2-.7-.4-1.3.1-.2.2-.3.3-.5.5-.6.3.7.5 1.6.3.8.3 1.6zm17.2 11.6-2.1 1.9-2.6-2.1 2.3-2zm13-34v1.4q-.3.1-.6.1-.1-.1-.2-.3-.3-.4-.6-.4-.4 0-.8.7-.5 1.1-1.1 4.2h-.5q-.8-2.9-1.7-2.8-.8 0-1.3-.2-.9-.4-.9-1.3 0-1.1 1-1.1 1.3 0 2.3 1.9.4.9.9 1.7.3-1.8.7-2.7.7-2 1.6-2 .4 0 .8.3.2.2.4.5zm37.7 23.4q0 3.3-2.2 5.1-.7.6-3.7 2.6-1.9 1.3-3.1 1.9-3.5 1.9-5.7 1.9-2 0-2.9-1.8-.7-1.2-.7-3.2 0-.4 0-.6 0-.3.2-1.2-1 1.1-2.9 2.5-2.5 1.9-4.4 2.8-2.5 1.1-5.1 1.1-3.2 0-4.9-2.3-1.4-2-1.4-4.7 0-1 .4-2.8.2-.5.5-1.6h.8q-.2 1.1-.2 1.6-.3 2-.3 2.2 0 1.9 1.6 3.2 1.4 1.2 3.6 1.2 1.3 0 3.2-.6 1.9-.6 3.9-1.7 1.8-1 3.2-2.1 1.7-1.3 3-3-.1-.3-.2-.4-.6-1.1-2-1.1h-3q-1.1 0-1.7-.7-.6-.7-.6-2.4 0-1.6 1-3.1 1-1.5 2.3-1.5 1.8 0 3.4 1.9 1.9 2.3 1.9 5.9 0 2.2-.5 3.6-.1.5-.5 1l-.3 1.7q0 1.6.5 2.2.6.6 1.8.6 1.4 0 3.4-.9 1.5-.7 3.4-1.8 4.3-2.5 6-3.6 1.3-1 1.3-1.3 0-.4-1.2-1-4.3-2.1-5.6-3-2.5-1.7-3.7-2.6-.9-.8-1.4-1.6l-1.3-1v-2.8q.9.4 3.5 1.1 1.5.5 2 .8v.4h-2q1 1.2 2.1 2 .9.6 3.4 2.1 2.5 1 3.5 1.6 1.6.9 1.6 3.4zm-28.9 1.3q0 .9-.5 2.5-.4 1.7-1 2.6 0-.6 0-1.2 0-.6.1-1.3v-.5q0-.8-.2-1.5l-4-29.1q-.1-.6-.2-1.1-.1-.6-.1-.7 0-.3.3-1.4.3-1.1.5-1.7.4.6 1.7 3.2.5.8 1.3 2.5v1l-1.3-1.2-.2.6q.5 3.1 1 6.1.7 5.2 1.6 12.4 1 7.2 1 8.8zm14.5-26.8q-.3 1.2-.7 1.2-.4-.2-.8-.3-.3.8-.9 1.6-.7.7-1.2 1.2-.9.6-2.8 1.2-1 .3-2.6.7l-.7-.2q1.7-.6 2.7-1.1 2.9-1.4 4.9-3.7-.6-.3-1.3-.7-.6-.3-.6-1.1 0-.5.6-1.3.7-.8 1.6-.8.6 0 .9.5.3.5.3 1.2 0 .5-.1.8-.1.3-.1.5 0 .2.4.2.3.1.4.1zm-5 21.3q-.3-.6-1.1-1-.8-.3-1.2-.3-.5 0-.8.3-.4.4-.6 1zm3.4-22v-.4q0-.9-.5-.9-.5 0-.6.6.2.3.8.5.2.1.3.2zm3.7 9.7-2.2 1.9-2.5-2.2 2.3-1.9z" fill-rule="evenodd"/><path d="m63.2 53.7c.5-.1 1.3-.2 2.2-.2 1.4 0 2.4.3 3.1 1 .9.8 1.4 2.3 1.4 4.5s-.6 3.8-1.5 4.7c-.8.7-1.9 1.1-3.4 1.1-.7 0-1.4-.1-1.8-.1zm2.1 9.2c.1.1.3.1.4.1 1.1 0 2-1.1 2-4.1 0-2.3-.6-3.7-1.9-3.7q-.3 0-.5 0z" fill-rule="evenodd"/><path d="m70.5 63.4 3.5-7.9v-.1h-3.1v-1.9h5.6v1.6l-3.4 7.7h3.4v1.9h-6z"/><path d="m79.8 53.5v7.3c0 1.6.5 2.1 1.1 2.1s1-.4 1-2.1v-7.3h2.2v6.9c0 2.9-1.1 4.4-3.2 4.4-2.3 0-3.3-1.6-3.3-4.4v-6.9z"/><path d="m86 53.5h2.2v9.4h2.8v1.8h-5z"/><path d="m94.4 53.5v4.5h2.3v-4.5h2.2v11.2h-2.2v-4.7h-2.3v4.7h-2.1v-11.2z"/><path d="m100.8 53.5h2.2v11.2h-2.2z"/><path d="m105.9 53.5h2.1v7.6c0 3.3-1.5 3.7-3.1 3.7-.5 0-.9 0-1.1-.1l.2-1.9c.2.1.4.1.7.1.6 0 1.2-.2 1.2-1.7z"/><path d="m111.6 62.2-.5 2.5h-2.1l2.4-11.2h2.6l2.2 11.2h-2.1l-.5-2.5zm1.8-1.7-.4-2.4c-.1-.7-.2-1.8-.3-2.5h-.1c-.1.7-.3 1.9-.4 2.5l-.4 2.4z" fill-rule="evenodd"/><path d="m119.6 53.5v4.5h2.2v-4.5h2.2v11.2h-2.2v-4.7h-2.2v4.7h-2.2v-11.2z"/></g></svg>