<svg height="30" viewBox="0 0 70 30" width="70" xmlns="http://www.w3.org/2000/svg"><g fill="#191c4f"><path d="m11.7 21.8c-.1.1-.1.1-.2.3 0 .1-.1.2-.3.3-.3.1-3.7 1.4-3.9 1.5-.3.1-.3 0-.2-.1q0 0 .1-.3c0-.1.1-.2.3-.3.3-.1 3.7-1.5 4-1.5.3-.1.2-.1.2.1z"/><path d="m22.2 21.2c-.1.1-.1.2-.2.3 0 .2-.2.2-.3.3-.2.1-3.8 1.6-3.9 1.6-.3.2-.3.1-.3 0q.1-.1.1-.3c.1-.2.1-.2.4-.3.2-.1 3.7-1.6 3.9-1.7.4-.1.3 0 .3.1z"/><path d="m37.4 19.3s-.1.3-.2.5c-.3.8-.1 1.2-.1 1.3.3.4.6.2.7-.1.1-.2.1-.1.1 0q0 0-.1.2c-.1.5-.3.7-.5.7-.3-.1-.5-.5-.5-.7 0-.9.4-1.7.4-1.9.1-.2.2-.1.2 0z"/><path d="m64.1 19.2v.5c0 .3-.1.6-.2.9s-.8.4-1.2.1c-.7 1.2-1.4.6-1.8.5-.6-.3-.8.1-1 .3-.8 1-2.4.9-2.7 1-.4 0-.1-.2.1-.3 1.2-.4 1.9-.5 3-1.5.5-.5.8-.2.9-.2 1 .5 1.2 0 1.3-.1s.3-.6.4-.8.2-.1.1.1c0 .1 0 .3-.1.4.4.3.9 0 1-.1 0 0-.1-.3-.1-.4q0-.1.1-.5c.1-.3.2 0 .2.1z"/><path d="m45.5 17.8c-.3 1-1.7 1.6-2.1 1.7-1.2.4-1.3-.9-1.3-1.8.1-.9.8-2.1.8-2.1-.1 0-1.4-1.1-1.5-1.2s-.2-.2-.4-.3c-.1-.1-.1-.1-.1-.1s.1-1 .1-1.1 0-.1.1 0c.1 0 1.6.6 1.7.7.2 0 .1.2 0 .2 0 0-.5.1-.5.1l1.2.9s1.6-2.2 1.8-2.4c.1-.2.1-.1.1.2-.1.2-.4 1.1-.5 1.2 0 .2-.9 1.3-.9 1.3s1.1.7 1.4 1.1c.5.6.2 1.3.1 1.6zm-2.1-1.9s-.7 1.3-.8 1.5c-.4.8.4.9.7.9.2 0 1.2-.5 1.7-.9.4-.4-1.3-1.3-1.6-1.5z" fill-rule="evenodd"/><path d="m19.1 12.3c.1.1 1.3 1.3 1.4 1.5.2.1.1.2 0 .2s-.6 0-.6 0 .7 1.3 1 1.8c.4 1.1.2 2 0 2.3-1.2 2.5-5.6 4.6-6.5 5.1-.9.4-4.1 1-4.7 1.1-.3.1-.4 0-.2-.2.3-.1 7.4-2.6 11.1-6.5q.1-.2-.1-.5c-.1-.2-1.2-2.5-1.3-2.8s-.3-.7-.4-.8q0-.1 0-.3c0-.1.1-.8.2-.9 0-.1.1-.1.1 0z"/><path d="m9.9 14.6s0 .3-.1.6c-.3 1.1-.1 1.6 0 1.7.3.5.7.2.8-.2 0-.2.1-.1.1 0q0 .1 0 .3c-.2.7-.4.9-.6.9-.4 0-.6-.5-.7-.8-.1-1.2.3-2.3.4-2.6s.2-.1.1.1z"/><path d="m65.6 16.7c-.1.2-.3 1.1-1.6.9-.4-.1-1.1-.3-1.3-1-.4.4-1.1 1.7-2.7 1.5-.3-.1-1.4-.5-1.4-1.8 0 0-1.3 1-1.8 1.3 0 .5 0 1-.2 1.6-.3.6-3 3.7-5.2 4.2-.7.1-3.5.7-3.6-2.5q0-1 0-1.5c-1.7 1.4-3.8 2.4-4.4 2.7-.9.4-4.1 1-4.7 1.1-.3 0-.4-.1-.2-.2.3-.1 7.4-2.5 11.1-6.4.1-.2.1-.3-.1-.5-.1-.2-1.2-2.4-1.3-2.7s-.3-.7-.3-.8q-.1-.1-.1-.3c0-.1.1-.7.2-.9 0-.1.1 0 .2.1 0 .1 1.2 1.2 1.3 1.4.2.1.1.2 0 .2s-.6 0-.6 0 .7 1.3 1 1.7c.4 1.1.2 2 0 2.3-.3.7-.9 1.4-1.7 2-.1.5-.3 3.1 2.1 3.2.4 0 1.6.2 4-1.8.6-.5 1.2-1 1.8-1.8.2-.3.3-.8-.1-.8-.4.1-2.9 1-3.3-.5 0-.4.2-4.1 2.6-2.3.2.2.8.6 1.1 1.3.4-.2 1.2-.6 2.2-1.4.2-.2.5-.3.5 0 0 .4-.2 2.4 2 1.8.3 0 1.3-.2 1.9-2 .2-.4.5-.4.4 0-.2.4-.5.8-.2 1 .2.2.8.7 1.6.6.3-.1.5-.2.4-.4s-.4-.7-.4-.7c.1-.3.2-.7.2-.9 0-.1.1-.2.2-.1s.8 1.1.4 2.4zm-10.3.1c-.8-1.1-1.7-.5-1.8-.4s-.2.4.6.5c.9.1 1.2-.1 1.2-.1z" fill-rule="evenodd"/><path d="m44.1 10.2 1 .7q0 0 0 .1l-.6.8q0 0-.1 0l-.9-.7-.6.7q0 0 0 0l-1-.7q-.1-.1-.1-.1l.6-.8q.1-.1.1 0l1 .7.5-.7q0-.1.1 0z"/><path d="m63 10.2s-.1.3-.1.4c-.3.9-.2 1.3-.1 1.4.2.5.5.2.7-.1 0-.2.1-.1.1 0q0 .1-.1.3c-.1.5-.4.6-.5.6-.4 0-.5-.4-.5-.6-.1-1 .3-1.8.4-2.1.1-.2.2-.1.1.1z"/><path d="m14.1 9.6 1 .7q.1 0 0 .1l-.6.8q0 0 0 0l-1-.7-.5.7q-.1 0-.1 0l-1-.7q-.1-.1 0-.1l.6-.8q0-.1 0 0l1 .7.5-.7q.1-.1.1 0z"/><path d="m53 9.7s-.1.3-.2.4c-.3 1-.1 1.4-.1 1.5.3.5.6.3.8-.1 0-.2.1-.1.1 0q-.1.1-.1.3c-.2.6-.4.7-.6.7-.4 0-.5-.5-.5-.7-.1-1 .3-1.9.4-2.2.1-.2.2-.1.2.1z"/><path d="m14.9 18.6s-5.9 5.1-9.1 1.5c-1.6-1.7-.4-5.2 0-5.7q0-.1.1-.2c-.5-.1-.7-.8-.8-1.2-.2-1.9.4-3.5.5-4s.3-.3.2.1c0 0-.1.5-.2.8-.4 1.8-.1 2.6 0 2.8.5.8 1 .3 1.1-.3.1-.4.2-.2.2-.1q0 .2-.1.6c-.2 1-.5 1.3-.8 1.3.1.1.1.3 0 .4-1.4 4.2 1.2 5.2 1.8 5.3 2.8.7 6.2-1.8 6.6-2.1 1.4-.9 1.4-1.4 1.4-1.6-.5-1.1-2-.7-3.2-.9-1.3-.3-.7-2.1-.1-2.7.4-.5 2-1.7 3.3 1.4s-.6 4.3-.9 4.6zm-.1-4.3c-.1-.1-.8-1.2-1.6-1-.4.1-.6.6-.2.8s.6.1 1 .1.7 0 .8.1z" fill-rule="evenodd"/><path d="m11.4 6.4c.1.2 0 .6 0 .8-.1.1-.2 0-.3-.1 0 0-.2-.1-.3-.2-.5-.4-.6.4-.6.8 0 .2 0 1.5-.3 2.4-.4 1-.3 1.5-.2 1.6.2.5.6.3.7-.1.1-.2.2-.1.2 0q-.1.1-.1.3c-.2.6-.5.8-.7.8-.3-.1-.5-.6-.5-.8 0-1.2.8-2.3.5-2.9-.4-.8-.9-1.2-1-1.2-.1-.1-.2 0-.2.1s-.1.1-.1 0c-.1 0-.5-.2-.6-.3s-.1-.5-.1-.7c0-.3.2-.4.3-.3 1.3.6 1.7 1.8 1.8 2 0-1 0-1.8.4-2.4.4-.5 1 .1 1.1.2z"/><path d="m19.9 6.4c.1.2 0 .6-.1.9-.1.1-.2 0-.3-.2 0 0-.1-.1-.3-.2-.5-.4-.7.4-.7.8-.1.3-.1 1.2-.2 1.8 0 .2-.2.2-.2 0-.4-1.1-1-1.7-1.1-1.8-.2-.1-.3 0-.3.1s-.1.1-.1.1c-.1-.1-.5-.3-.6-.4-.1-.2-.1-.6-.1-.8.1-.3.3-.4.4-.4 1.3.8 1.7 2.1 1.8 2.3.1-1 .1-1.8.6-2.5.5-.6 1.1.2 1.2.3z"/><path d="m25.9 13.1s0 .3-.1.5c-.3 1.1-.1 1.6 0 1.7.3.5.6.2.8-.2 0-.2.1-.1.1 0q0 0-.1.3c-.1.6-.4.8-.6.8-.3 0-.5-.5-.6-.8-.1-1.1.3-2.1.4-2.3.1-.3.2-.2.1 0z"/><path d="m24.9 6.6s-.1.3-.2.5c-.3 1 0 1.5 0 1.6.3.5.7.2.8-.2 0-.2.1-.1.1 0q0 .1 0 .3c-.2.7-.4.8-.6.8-.4 0-.6-.5-.6-.7-.2-1.1.2-2.1.3-2.4s.2-.2.2.1z"/><path d="m33.2 11s.1.5.2.7c.2.3.3.5.2.9s-.3.6-.4.7c-.3.1-.7.1-.9-.3-.4.7-.8.8-1.1.6-.3-.1-.3-.6-.3-.8 0-.1 0-.7 0-.8s0-.2.1-.3c0-.2.1-.1.1.1 0 .1-.1.8 0 1.1.3.4.9 0 1-.2.2-.2-.1-1-.1-1q-.1-.1 0-.1s0-.3 0-.4q.1-.2.2 0c.1.1.1.3.2 1s.7.6.9.5c.1-.1.1-.2.1-.2-.1-.1-.3-.7-.4-.9-.1-.3-.1-.4 0-.7.1-.2.1 0 .2.1z"/><path d="m33.9 7.9c-.1.1-.1.2-.2.3 0 .2-.1.2-.3.3s-3.8 1.6-3.9 1.6c-.3.2-.3.1-.2 0q0 0 0-.3c.1-.2.2-.2.4-.3s3.7-1.6 4-1.7.2 0 .2.1z"/><path d="m36.1 19.3c-.5.9-2.3 1.4-3.5 1.7-5.6 1.5-8 .4-8.8-.1-1.4-1-1.5-3.8-1.8-7-.1-2.3-.3-4.9-1-7.1 0 0 .2-.5.3-.9.2-.4.3-.4.4 0 .5 1.9 1.1 10.9 1.8 12.7.8 2.1 2.7 1.9 3.3 1.9 0 0 .7-.8 1.4-1.5q0-.1 0-.1c.5-1 .2-3.1.2-3.9-.1-.7-1-6.7-1.1-7.2s-.2-.9-.3-1.3c0 0 .2-.7.3-.8 0-.2.1-.2.2.1.1.2 1.1 2.3 1.2 2.6.2.2 0 .3-.2.1s-.6-.4-.6-.4c1.5 7 1.1 9.6.9 10.1.3-.3.6-.6.7-.7 1.5-1.3 2.6-1.7 3.3-1.6 1.7.3 2.2 1.3 2.2 1.9 0 .5-.7 1.8-.7 1.8 2.2-.5 1.7-1.7 1.6-2.1 0-.4-1.4-9.8-1.5-10.3-.1-.4-.2-.6-.2-.7 0 0 .4-.9.5-1 0-.1.1 0 .1.1s1.3 3.1 1.3 3.2c.1.2 0 .2-.1.1s-.7-.6-.7-.6.9 6.2 1.1 7.3c.2 2.1.1 2.9-.3 3.7zm-2-1.3c-.8-.9-1.7-1-2.5-1-1.2.1-3.8 3-4.1 3.5 0 0 2.8.3 6.5-1.9.4-.2.3-.4.1-.6z" fill-rule="evenodd"/><path d="m37.8 5.6c.1.1 1.3 3.1 1.4 3.2 0 .2-.1.2-.2.1s-.7-.6-.7-.6 1.1 8 1.2 8.2q.3 2.4.2 3.5c-.1 1-.2 1.4-.3 1.5-.1.2-.2.1-.1-.1-.1-.5-.2-1.6-.3-2.8-.3-2.5-1.4-10.2-1.6-11.5 0-.1-.1-.5-.1-.6 0 0 .4-.9.4-1 .1-.1.1 0 .1.1z"/><path d="m52.1 5.6c-.1.1-.1.1-.2.3 0 .2-.1.2-.3.3s-5.5 3.2-5.6 3.2c-.3.2-.2.1-.2 0q0-.1.1-.3c0-.2.1-.2.3-.3.2-.2 5.4-3.2 5.6-3.3.3-.2.3-.1.3.1z"/><path d="m58.5 5.9c.1.2 0 .6-.1.9-.1.1-.2 0-.3-.2 0 0-.2-.1-.3-.2-.5-.5-.7.4-.8.8 0 .3-.1 1.3-.2 1.9 0 .2-.1.2-.2 0-.4-1.2-1.1-1.8-1.2-1.9s-.2.1-.2.1c0 .1-.1.1-.2.1 0 0-.4-.3-.6-.4-.1-.2-.1-.6 0-.8 0-.4.2-.5.3-.4 1.4.8 1.9 2.2 1.9 2.4.1-1 .1-2 .7-2.7.5-.5 1.1.3 1.2.4z"/><g fill-rule="evenodd"><path d="m63.7 8.1c-.1.2-.1.1-.3-.1 0-.1-.2-.2-.4-.3-.2.4-.2.5-1 1.2-2 1.7-4.1 2.3-4.2 2.3-.1.1-.2 0 0-.2.7-.5 3.5-1.7 4.9-3.5 0 0-.5-.1-.8-.4-.3-.2-.1-1 .1-1.3.6-.8 1-.4 1.1-.3.5.8.2 1.6.2 1.6.3.2.5.5.4 1zm-.9-2.1c-.2 0-.3 0-.6.3-.1.2 0 .3.2.4.2 0 .6.2.6.2 0-.1.1-.6-.2-.9z"/><path d="m43.8 7.8c0 .2-.1.1-.2-.1-.1 0-.4-.3-.4-.3s-.4.9-1.1 1.4c-1.3 1-2.5 1.2-2.5 1.2-.1 0-.2-.1 0-.2.9-.5 1.8-.8 3.2-2.6 0 0-.4-.1-.7-.4-.3-.2-.2-1 .1-1.3.5-.8 1-.4 1.1-.3.4.8.2 1.6.2 1.6.2.2.5.5.3 1zm-.9-2.1c-.1 0-.2 0-.5.4-.1.1 0 .2.2.3.2 0 .6.2.6.2 0-.1 0-.6-.3-.9z"/></g></g></svg>