<svg height="30" viewBox="0 0 70 30" width="70" xmlns="http://www.w3.org/2000/svg"><g fill="#191c4f"><path d="m28.9 23.5c-.1.2-.1.2-.2.4s-.2.2-.4.3c-.3.2-4 1.6-4.1 1.7-.4.2-.4.1-.3-.1q0 0 .1-.3c0-.2.1-.2.4-.3.2-.2 3.9-1.6 4.2-1.8.4-.2.3 0 .3.1z"/><path d="m16.5 23.3c.4.1.5.6.4.8-.1 1.1-.7 1.9-.9 2.1-.2.3-.2.1-.1-.1 0 0 .1-.2.2-.4.6-.9.5-1.4.5-1.5-.2-.5-.6-.4-.8 0-.1.1-.2 0-.1 0q0-.1.1-.3c.3-.6.6-.7.7-.6z"/><path d="m9.9 21.1c0 .1 0 .2-.1.4s-.3.2-.5.3-3.3 1.2-3.4 1.2c-.4.3-.3.1-.3 0q.1-.1.1-.4c.1-.1.2-.2.4-.3.3-.2 3.3-1.2 3.6-1.3.4-.2.3 0 .2.1z"/><path d="m63.8 19.6s.1.3.1.6c0 .2-.2.6-.3 1-.1.3-.9.5-1.4.1-.9 1.4-1.6.7-2.1.5-.7-.3-1 .2-1.2.4-.9 1.1-2.7 1.1-3.1 1.1-.5.1-.1-.2.1-.3 1.4-.5 2.2-.5 3.5-1.7.5-.6.9-.3 1.1-.2 1.1.5 1.3 0 1.5-.2.1-.1.3-.7.4-.9s.2-.1.2.1c0 .1-.1.3-.1.5.4.3.9 0 1-.1 0 0 0-.4 0-.5q0-.1.1-.6c.1-.3.2 0 .2.2z"/><path d="m7.8 16.2c.1.2-.2.6-.3.8s-.2.2-.4-.1c-.4-.5-1-.1-1.2.1-.2.1-.2.3.4.8.7.6 2 .2 2.4.1.3-.1.6-.1.5.1 0 .3-.1.7-.1.7-1.3.3-3.1 1.2-3.6 1.4q0 .1-.2.1c-.2.1-.2 0-.2-.1q0-.2.2-.6c0-.3.3-.4.6-.5 0 0-.5-.4-.8-.9-.4-.5.5-1.8 1.4-2.3.8-.4 1.2.2 1.3.4z"/><path d="m42.1 17.9c-.3 1.2-2 1.8-2.4 1.9-1.4.5-1.5-1-1.4-2 .1-1.1.8-2.4.8-2.4 0-.1-1.6-1.3-1.7-1.4-.1-.2-.3-.3-.4-.4-.2-.1-.1-.2-.1-.2s0-1.1 0-1.2 0-.1.2 0c.1 0 1.8.7 1.9.8.2.1.2.2.1.2-.1.1-.7.2-.7.2l1.4 1s1.9-2.5 2.1-2.8c.2-.2.1-.1.1.2 0 .2-.4 1.3-.5 1.5-.1.1-1.1 1.5-1.1 1.5s1.3.7 1.6 1.2c.6.8.2 1.5.1 1.9zm-2.4-2.2s-.8 1.5-1 1.8c-.3.8.5 1 .8 1 .4-.1 1.5-.7 2-1.1.6-.4-1.5-1.5-1.8-1.7z" fill-rule="evenodd"/><path d="m65.6 16.6c-.1.2-.4 1.3-1.9 1-.4-.1-1.2-.2-1.5-1.1-.4.5-1.3 2-3.1 1.7-.4 0-1.6-.5-1.7-2.1 0 0-1.4 1.2-2.1 1.6 0 .5 0 1.2-.3 1.9-.2.7-3.4 4.2-5.9 4.8-.9.2-4.1.8-4.3-2.9 0-.7 0-1.3.1-1.7-2 1.6-4.5 2.8-5.2 3.1-1 .5-4.7 1.1-5.4 1.2-.5.1-.5 0-.3-.2.3-.1 8.6-2.9 12.9-7.4.1-.2.1-.4 0-.6s-1.5-2.8-1.6-3.1c-.1-.4-.3-.8-.4-.9q-.1-.2 0-.4c0-.2.1-.9.1-1 .1-.2.2-.1.3 0 0 .1 1.4 1.5 1.5 1.7.2.1.1.2 0 .2h-.7s.9 1.5 1.2 2.1c.5 1.2.2 2.2 0 2.6-.4.8-1.1 1.6-1.9 2.3-.2.6-.4 3.6 2.3 3.7.5 0 1.9.2 4.7-2.1.7-.5 1.4-1.2 2.1-2.1.2-.3.4-.9-.1-.9-.4.1-3.4 1.2-3.8-.6-.1-.5.1-4.7 3-2.6.3.2.9.7 1.3 1.5.5-.2 1.4-.7 2.5-1.6.3-.3.6-.4.6 0s-.3 2.8 2.4 2.1c.3-.1 1.4-.3 2.2-2.4.2-.5.5-.5.4 0-.2.5-.5.9-.3 1.2.3.2 1 .8 2 .6.3 0 .5-.1.4-.4s-.5-.8-.5-.8c.1-.3.2-.9.3-1 0-.2.1-.3.2-.2.1.2 1 1.3.5 2.8zm-12 .1c-.9-1.3-2-.5-2.2-.4-.1.1-.2.5.8.6 1 0 1.4-.2 1.4-.2z" fill-rule="evenodd"/><path d="m6 9.8s-.1.4-.2.6c-.4 1.3-.1 1.9 0 2 .4.7.9.3 1.1-.2 0-.2.1-.1.1 0q0 .1-.1.4c-.2.8-.5 1-.8 1-.5 0-.8-.6-.8-.9-.2-1.4.4-2.6.5-3 .1-.3.3-.2.2.1z"/><path d="m40.5 9 1.2.9q0 0 0 .1l-.7.9q0 0-.1 0l-1.1-.8-.6.8q-.1 0-.1 0l-1.2-.8q0-.1 0-.1l.7-1q0 0 .1 0l1.1.8.6-.8q.1 0 .1 0z"/><path d="m62.6 9.1s-.1.3-.2.5c-.4 1-.2 1.5-.1 1.6.3.5.7.2.8-.2.1-.2.1-.1.1 0q0 .1-.1.3c-.1.7-.4.8-.6.8-.4 0-.6-.5-.6-.8-.1-1.1.4-2 .5-2.3s.2-.2.2.1z"/><path d="m50.8 8.5s-.1.3-.1.5c-.4 1.1-.2 1.6-.2 1.7.4.6.8.3.9-.1.1-.2.2-.1.2 0q-.1.1-.1.3c-.2.7-.5.9-.7.9-.4-.1-.6-.6-.6-.9-.1-1.2.4-2.2.5-2.5s.2-.2.1.1z"/><path d="m5.9 5.1s-.1.4-.2.6c-.3 1.1-.1 1.6 0 1.7.3.5.8.2.9-.2.1-.2.2-.1.1 0q0 .1 0 .3c-.2.7-.5.9-.7.9-.5 0-.7-.5-.7-.8-.2-1.2.3-2.2.4-2.5s.2-.2.2 0z"/><path d="m14.9 14.1s-.1.5-.2.7c-.5 1.5-.2 2.2-.1 2.3.5.7 1.1.3 1.3-.3.1-.2.2-.1.1 0q0 .1 0 .5c-.3.9-.7 1.1-1 1.1-.6 0-.9-.7-.9-1-.2-1.6.4-3 .6-3.4.1-.4.3-.2.2.1z"/><path d="m22.2 13c.2.2.2.7.1.9s-.2.1-.4-.1c0 0-.1-.1-.3-.2-.6-.4-.7.5-.7 1 0 .3.1 1.4 0 2 0 .2-.1.2-.2 0-.5-1.2-1.3-1.7-1.5-1.8-.1-.1-.2.1-.2.1 0 .1-.1.1-.2.1 0 0-.5-.2-.7-.4-.1-.1-.1-.6-.1-.8 0-.3.2-.5.3-.4 1.6.6 2.2 2 2.3 2.3 0-1.1-.1-2.1.4-2.9.4-.7 1.2.1 1.2.2z"/><path d="m28.1 11.8s-.1.4-.2.6c-.3 1.1-.1 1.6 0 1.7.3.5.8.2.9-.2.1-.2.2-.1.1 0q0 .1 0 .3c-.2.7-.5.9-.7.9-.5 0-.7-.5-.7-.8-.2-1.2.3-2.2.4-2.5s.2-.2.2 0z"/><path d="m24.6 11 1.2.8q0 .1 0 .1l-.7 1q-.1 0-.1 0l-1.2-.9q0 0 0-.1l.7-.9q0-.1.1 0z"/><path d="m21.6 7.5c0 .1 0 .2-.1.4s-.3.3-.5.4c-.2.2-8.8 4.7-8.9 4.8-.4.3-.4.1-.3 0q0-.1.1-.4c0-.2.1-.3.4-.4.3-.2 8.7-4.8 9-4.9.4-.3.4-.1.3.1z"/><path d="m26.3 6.9s.1.7 0 1.2c-.4 1.2-1.2 1-1.4.9-.9 1.1-1.5.5-1.7.1-.1-.3.1-.8.1-1 .1-.2.2-.1.2.1v.4c.4.6 1.1.1 1.2-.1s.1-.4.1-.6c-.1-.2-.1-.3.1-.5.1-.3.1-.1.1.1.1.2 0 .6.1.7.3.3.9-.1.9-.3 0-.1 0-.5-.1-.6 0-.2 0-.3.2-.6.1-.3.2-.1.2.2z"/><path d="m16.9 5c.1.2 0 .7-.1 1-.1.2-.3 0-.4-.1 0 0-.1-.2-.3-.3-.6-.6-.8.5-.9.9s-.1 1.5-.2 2.2c0 .3-.2.3-.3.1-.4-1.5-1.2-2.1-1.4-2.3-.1-.1-.2.1-.2.2-.1.1-.2.1-.2 0-.1 0-.6-.3-.7-.5-.2-.1-.1-.7-.1-.9 0-.4.3-.5.4-.4 1.6.9 2.2 2.5 2.2 2.8.1-1.2.2-2.3.8-3.1.6-.7 1.3.3 1.4.4z"/><path d="m22.2 3.7s-.1.3-.2.5c-.3 1-.1 1.4-.1 1.5.3.5.7.3.8-.1.1-.2.1-.1.1 0q0 .1-.1.3c-.1.6-.4.7-.6.7-.4 0-.5-.5-.5-.7-.1-1.1.3-2 .5-2.3.1-.2.2-.1.1.1z"/><path d="m49.8 3.7c0 .1-.1.1-.1.3-.1.2-.2.3-.4.4-.3.1-6.4 3.7-6.5 3.8-.4.2-.3 0-.3-.1q0 0 .1-.3c0-.2.1-.3.4-.4.2-.2 6.3-3.7 6.5-3.8.4-.2.4-.1.3.1z"/><path d="m57.3 4c.1.3 0 .8-.1 1.1-.1.1-.3 0-.4-.2 0 0-.1-.2-.3-.3-.6-.5-.8.5-.9 1-.1.3-.1 1.5-.2 2.2-.1.2-.2.2-.3 0-.4-1.4-1.2-2.1-1.4-2.2-.1-.2-.2 0-.3.1 0 .1-.1.1-.1.1-.1-.1-.6-.4-.7-.5-.2-.2-.1-.7-.1-.9 0-.4.3-.5.4-.5 1.6 1 2.2 2.6 2.2 2.8.1-1.2.2-2.3.8-3.1.5-.7 1.3.3 1.4.4z"/><path d="m63.3 6.6c0 .2-.1.1-.2-.1-.1-.1-.3-.3-.5-.4-.3.5-.2.6-1.3 1.5-2.2 1.9-4.7 2.6-4.8 2.6-.2.1-.2 0 0-.2.8-.6 4-2 5.7-4.1 0 0-.5-.2-.9-.4-.3-.3-.2-1.2.1-1.6.6-1 1.2-.5 1.3-.3.5.9.2 1.9.2 1.9.3.2.6.5.4 1.1zm-1-2.4c-.2-.1-.3-.1-.7.4-.1.1.1.2.3.3s.7.3.7.3c0-.1 0-.7-.3-1z" fill-rule="evenodd"/><path d="m29.4 3.3c0 .1 1.5 3.6 1.5 3.8.1.2 0 .3-.1.1-.2-.1-.9-.7-.9-.7s1.8 10.8 2 11.5c.2 1.2.1 1.6 0 2-.4 1.6-.7 1.7-1 1.9-1.6.8-2.5.3-2.8.1-1-.4-1.4-1.5-1.4-1.5-.1 1.1-.9 1.5-1.2 1.5-1.1.1-1.8-.6-2-.7-.6 1.2-1.4 1.3-1.7 1.3-1 0-1.2-.9-1.3-1.1q-.4.7-1 .9c-1.7 1-2.6-.3-2.9-.6-1.7 1.9-3.8 1.2-4.2 1-1.7-.7-1.9-2.5-2.1-3.5-.2-1.2-.6-6.6-.7-7.5-.1-.5-.5-4.7-1-6.5 0 0 .3-.9.3-1 .1-.2.2-.2.3 0 .3.6.5 2.4.6 3.2.2.9.8 7.7.8 8.2.2 2.2.7 3.8.9 4.1 1.1 2.5 3 1.9 3.6 1.7 1.2-.4 2-1.6 2.1-1.9.2-.2.3.1.3.2-.1.1-.1.4-.2.6.3 1.4 1.7 1.1 2.4.7.6-.4 1.2-1.3 1.4-1.5s.3 0 .2.1c0 .1-.1.3-.2.5 0 1.1 1.4 1 1.8.6.3-.3.7-1.2.9-1.5s.2 0 .2.2v.2c.1.6 1.1.9 1.3.9.7.1 1-.5 1-.8-.1-1.2-1-3.7-1.2-4.2 0 0 .1-.8.2-1.1.1-.2.1-.2.3 0 .6 1 1.2 3.3 1.3 3.8.2 1.5 1 2 1.2 2.2 1.3 1 3-.2 3.1-.2.1-.1.1-.4.1-.6-.1-.4-1.4-7.9-1.4-7.9-.5-3.5-1-7.2-1.1-7.5 0 0 .4-.9.4-1 .1-.2.2-.1.2 0z"/><path d="m33.1 3.3c.1.1 1.5 3.5 1.6 3.7 0 .2-.1.3-.2.2-.1-.2-.8-.8-.8-.8s1.1 8.4 1.2 8.8c.8 5.1.1 6.4 0 6.6s-.2.1-.1-.1c-.1-2-1.2-9.4-1.3-9.9 0-.4-.8-6.9-.9-7.5 0 0 .3-1 .4-1.1 0-.2.1-.1.1.1z"/><path d="m40.2 6.3c-.1.1-.1 0-.3-.1 0-.1-.4-.4-.4-.4s-.5 1-1.3 1.6c-1.6 1.2-2.9 1.4-2.9 1.4-.2.1-.2-.1 0-.2 1-.6 2.1-1 3.8-3 0 0-.6-.2-.9-.5-.4-.2-.2-1.1.1-1.5.6-1 1.2-.5 1.3-.3.5.9.2 1.8.2 1.8.3.2.6.6.4 1.2zm-1.1-2.4c-.1-.1-.3-.1-.6.3-.1.2 0 .3.2.4.3.1.7.3.7.3 0-.1.1-.7-.3-1z" fill-rule="evenodd"/></g></svg>