<svg height="30" viewBox="0 0 70 30" width="70" xmlns="http://www.w3.org/2000/svg"><g fill="#191c4f"><path d="m14.1 21.8c0 .1-.1.1-.1.3-.1.1-.2.2-.4.3s-3.6 1.5-3.8 1.5c-.3.2-.3.1-.2 0q0 0 0-.3c.1-.1.1-.2.4-.3.2-.1 3.7-1.5 3.9-1.6.3-.1.3-.1.2.1z"/><path d="m27.2 21.4c-.1.1-.1.2-.2.3 0 .2-.1.2-.3.3s-3.2 1.4-3.3 1.5c-.3.2-.3 0-.3-.1q.1 0 .1-.2c.1-.2.1-.2.3-.3.3-.2 3.3-1.5 3.5-1.6.3-.1.2 0 .2.1z"/><path d="m18.9 20.9s0 .3-.1.4c-.3 1-.1 1.4 0 1.5.3.4.6.2.8-.2 0-.2.1-.1.1 0q0 .1-.1.3c-.1.6-.4.7-.6.7-.4 0-.6-.4-.6-.6-.1-1 .3-1.9.4-2.2.1-.2.2-.1.1.1z"/><path d="m37.8 20.2s-.1.2-.2.4c-.2.8-.1 1.2 0 1.3.2.4.5.2.6-.1.1-.2.1-.1.1 0q0 0-.1.2c-.1.5-.3.6-.5.6-.3 0-.4-.4-.4-.6-.1-.9.3-1.6.4-1.9.1-.2.1-.1.1.1z"/><path d="m64.2 19.8v.5c0 .2-.1.5-.2.8s-.8.4-1.2.2c-.7 1.1-1.4.5-1.7.4-.7-.3-.9.1-1 .3-.8.9-2.3.9-2.7.9-.3.1 0-.2.1-.2 1.2-.4 1.9-.5 2.9-1.5.5-.4.8-.2 1-.2.9.5 1.1.1 1.2-.1.1-.1.3-.6.4-.8.1-.1.1 0 .1.2 0 0-.1.2-.1.3.4.3.8.1.9 0 0 0 0-.3 0-.4q0-.2.1-.5c.1-.3.1-.1.2.1z"/><path d="m15.5 13.9s-.1.3-.2.4c-.2.9-.1 1.3 0 1.3.2.4.5.2.6-.1.1-.1.1-.1.1 0q0 .1-.1.3c-.1.5-.3.6-.5.6-.3 0-.4-.4-.4-.6-.1-.9.3-1.7.4-1.9s.1-.1.1 0z"/><path d="m6.5 13.6s0 .3-.1.5c-.3 1-.1 1.4 0 1.5.3.5.7.2.8-.2.1-.2.1-.1.1 0q0 .1 0 .3c-.2.6-.5.8-.7.8-.4 0-.6-.5-.6-.7-.2-1.1.3-2 .4-2.3s.2-.2.1.1z"/><path d="m11.1 13.2 1 .8q0 0 0 0l-.6.8q0 .1 0 0l-1-.7-.5.7q0 .1-.1 0l-.9-.7q-.1 0-.1 0l.6-.8q.1-.1.1-.1l1 .7.5-.6q0-.1 0-.1z"/><path d="m46.1 18.4c-.3 1-1.7 1.5-2 1.6-1.2.4-1.3-.8-1.2-1.7s.7-2 .7-2c-.1-.1-1.4-1.1-1.5-1.2s-.2-.2-.3-.3c-.1 0-.1-.1-.1-.1s0-.9 0-1c0-.2.1-.1.2-.1.1.1 1.5.6 1.6.7.2.1.1.2 0 .2 0 0-.5.2-.5.2l1.1.8s1.6-2.1 1.8-2.3c.1-.2.1-.1.1.1s-.3 1.1-.4 1.3c-.1.1-.9 1.2-.9 1.2s1.1.6 1.3 1c.5.7.2 1.3.1 1.6zm-2-1.8s-.7 1.2-.8 1.5c-.3.7.4.8.6.8.3 0 1.2-.5 1.7-.9s-1.3-1.3-1.5-1.4z" fill-rule="evenodd"/><path d="m65.6 17.3c-.1.2-.3 1.1-1.6.9-.3-.1-1-.2-1.3-.9-.3.4-1 1.6-2.5 1.4-.3-.1-1.3-.5-1.4-1.8 0 0-1.2 1-1.8 1.3.1.5.1 1-.2 1.6-.2.6-2.8 3.5-4.9 4-.7.2-3.5.7-3.6-2.4 0-.6 0-1.1.1-1.4-1.7 1.3-3.7 2.3-4.3 2.6-.9.4-4 .9-4.5 1-.4.1-.5 0-.2-.2.2-.1 7.1-2.4 10.7-6.2q.1-.2-.1-.4c-.1-.2-1.2-2.4-1.3-2.7s-.2-.6-.3-.7q-.1-.2 0-.3c0-.1.1-.7.1-.9.1-.1.1 0 .2.1.1 0 1.2 1.2 1.3 1.3.2.2 0 .2 0 .2-.1 0-.6 0-.6 0s.7 1.3 1 1.8c.4 1 .2 1.8 0 2.2-.3.6-.9 1.3-1.6 1.9-.1.5-.4 3 2 3.1.3 0 1.5.1 3.9-1.8.5-.5 1.1-1 1.7-1.7.2-.3.3-.8-.1-.8-.4.1-2.8 1-3.2-.5 0-.4.2-3.9 2.5-2.2.2.2.8.6 1.1 1.3.4-.2 1.1-.6 2.1-1.4.2-.2.5-.3.5 0s-.2 2.4 2 1.8c.2-.1 1.2-.3 1.8-2 .2-.4.5-.4.3 0-.1.4-.4.8-.2 1 .3.2.9.6 1.7.5.2 0 .4-.1.3-.3-.1-.3-.4-.7-.4-.7.1-.3.2-.7.2-.9 0-.1.1-.2.2-.1s.8 1.1.4 2.3zm-9.9.1c-.8-1-1.7-.5-1.9-.3-.1.1-.1.4.6.4.9.1 1.3-.1 1.3-.1z" fill-rule="evenodd"/><path d="m35.4 11.4c-.1.1-.1.2-.2.3 0 .2-.1.2-.3.3s-2.7 1-2.9 1c-.3.2-.2.1-.2 0q0-.1.1-.3c0-.2.1-.2.3-.3.3-.1 2.7-1 3-1.1s.2 0 .2.1z"/><path d="m26.9 11.2.9.7q.1.1.1.1l-.6.8q-.1.1-.1 0l-1-.7-.4.7q-.1.1-.1 0l-1-.7q0 0 0-.1l.6-.8q0 0 0 0l1 .7.5-.7q0 0 .1 0z"/><path d="m44.7 11 1 .7q.1 0 0 .1l-.5.8q-.1 0-.1 0l-1-.7-.5.7q0 0 0 0l-1-.7q-.1-.1 0-.1l.5-.8q.1 0 .1 0l1 .7.5-.7q0 0 0 0z"/><path d="m22.4 11.4c.2.1.2.5.1.7 0 .2-.2.1-.3 0 0 0-.1-.1-.2-.2-.5-.3-.5.4-.5.8 0 .3.1 1.1.1 1.6 0 .2-.1.2-.2.1-.4-1-1.1-1.4-1.2-1.5s-.1.1-.1.1c0 .1-.1.1-.2.1 0 0-.4-.2-.5-.3s-.1-.5-.1-.7c-.1-.3.1-.4.2-.3 1.2.5 1.7 1.6 1.8 1.8-.1-.9-.2-1.7.2-2.4.3-.6.9.1.9.2z"/><path d="m63.1 11s-.1.3-.1.5c-.3.8-.2 1.2-.1 1.3.2.4.5.2.6-.1.1-.2.2-.1.1 0q0 .1 0 .2c-.2.6-.4.7-.6.7-.3 0-.4-.4-.4-.7-.1-.9.3-1.7.4-1.9s.2-.1.1 0z"/><path d="m53.3 10.5s0 .3-.1.5c-.3.9-.1 1.3-.1 1.4.3.5.6.3.7-.1.1-.2.1-.1.1 0q0 .1 0 .3c-.2.6-.4.7-.6.7-.4 0-.5-.5-.5-.7-.1-1 .3-1.9.4-2.1.1-.3.2-.2.1 0z"/><path d="m9.9 8.3c.1.2 0 .5-.1.8 0 .1-.2 0-.3-.2 0 0-.1-.1-.2-.2-.5-.4-.7.4-.7.8-.1.3-.1 1.2-.2 1.7 0 .2-.2.2-.2.1-.3-1.2-1-1.7-1.1-1.8q0-.1-.1-.1.1.2.1.5c-.2 1.4-1.7 1.9-1.9 2.1-.3.1-.2.1 0-.2s1.3-1.4 1.5-1.6c.5-.5-.4-.8-.5-1-.1-.1-.1-.5-.1-.7 0-.3.2-.4.3-.3 1.3.7 1.8 2 1.8 2.2.1-1 .1-1.8.6-2.5.5-.5 1.1.3 1.1.4z"/><path d="m12.6 7.6s-.1.4-.2.8c-.4 1.6-.1 2.3 0 2.5.4.8.9.3 1.1-.3.1-.3.2-.1.2 0q-.1.1-.1.5c-.2 1-.5 1.3-.8 1.3-.6 0-.8-.8-.9-1.2-.2-1.8.4-3.3.5-3.7.1-.5.3-.3.2.1z"/><path d="m33.3 7.3s-.1.3-.1.4c-.3.8-.1 1.2-.1 1.3.2.4.5.2.6-.1.1-.2.1-.1.1 0q0 .1 0 .2c-.2.5-.4.7-.5.7-.3-.1-.5-.5-.5-.7-.1-.9.3-1.6.4-1.8.1-.3.2-.2.1 0z"/><path d="m27.3 7.2s-.1.2-.1.3c-.3.9-.2 1.3-.1 1.3.2.5.5.2.6-.1.1-.1.1-.1.1 0q0 .1 0 .3c-.2.5-.4.6-.5.6-.4 0-.5-.4-.5-.6-.1-.9.3-1.7.4-1.9s.2-.1.1.1z"/><path d="m17.5 7.1s0 .3-.1.4c-.3.8-.1 1.2-.1 1.3.3.4.6.2.7-.1 0-.2.1-.1.1 0q0 .1-.1.2c-.1.5-.3.7-.5.7-.3-.1-.5-.5-.5-.7 0-.9.4-1.6.4-1.8.1-.3.2-.2.1 0z"/><path d="m25.5 7c0 .2-.1.2-.1.4-.1.2-.3.3-.5.4-.2.2-10 5.1-10.1 5.1-.4.3-.3.1-.3 0q0-.1.1-.4c.1-.2.1-.2.4-.4.3-.1 10-5 10.2-5.2.4-.2.4 0 .3.1z"/><path d="m52.5 6.5c-.1.2-.1.2-.1.4-.1.1-.2.2-.4.3s-5.3 3-5.4 3.1c-.3.2-.2.1-.2 0q0-.1.1-.3c0-.2.1-.2.3-.3.2-.2 5.3-3.1 5.5-3.2.3-.2.2-.1.2 0z"/><path d="m58.7 6.9c.1.2 0 .6-.1.8 0 .2-.2 0-.3-.1 0 0-.1-.2-.2-.3-.6-.4-.7.5-.8.9-.1.3-.1 1.2-.2 1.8 0 .2-.2.2-.2 0-.4-1.2-1.1-1.7-1.2-1.8-.1-.2-.2 0-.2.1s-.1.1-.1 0c-.1 0-.5-.3-.6-.4-.2-.1-.1-.6-.1-.8 0-.3.2-.4.3-.3 1.4.7 1.8 2.1 1.9 2.3.1-1 .1-1.9.7-2.6.4-.5 1 .3 1.1.4z"/><path d="m63.7 9c0 .2-.1.1-.2-.1-.1-.1-.2-.2-.4-.3-.2.4-.2.5-1 1.2-1.9 1.6-4 2.2-4.1 2.2-.1.1-.1 0 .1-.2.6-.5 3.3-1.7 4.7-3.3 0 0-.4-.2-.7-.4-.3-.3-.2-1 0-1.3.6-.8 1-.4 1.1-.3.5.8.2 1.6.2 1.6.2.1.5.4.3.9zm-.9-2c-.1-.1-.2-.1-.5.3-.1.1 0 .2.2.3s.6.3.6.3c0-.1.1-.6-.3-.9z" fill-rule="evenodd"/><path d="m29.7 6.4c0 .1 1.2 2.9 1.3 3.1 0 .2-.1.2-.2.1s-.6-.6-.6-.6.9 6.4 1 6.8c.6 4.1.1 5 0 5.2-.1.1-.2.1-.1-.1-.1-1.7-1-7.6-1.1-7.9 0-.4-.7-5.3-.7-5.8 0 0 .2-.8.3-.9 0-.1.1 0 .1.1z"/><path d="m37.1 17.8c-.2.5-.6.8-1 1v.6s-.2 1.2-.9 1.9c-3.5 3.5-5.9 2.7-6.2 2.6-1.6-.9-1.1-3.4-.9-4.3-.3.3-.6.5-.7.5-2.4 1.2-3.6.6-4 .4-.6-.3-1.4-1-2-1.5-.8.5-1.6.9-1.9 1-5.1 2.6-6.9-.7-7.1-1.1 0 0-.3-.4-.5-.7-.2-.2-.6.1-.9.3-1.4 1-2 3.3-2.1 3.7-.5 1.4-1.5 1-1.7.9-2.3-1.3-1.9-4.8-1.8-5.2s.2-.2.2 0c0 2.3 1 3.6 1.3 3.9.9.6 1.2.1 1.4-.2.3-.3.5-1 .7-1.6.6-1.3 1.2-2.3 2-2.9.8-.5 1.3-.1 1.4.1.4.7.9 1.4 1.1 1.5 1.5 1.7 4.2.9 4.6.7.6-.2 1.6-.7 2.5-1.2h-.1c-1.1-1.1-1.8-1.1-2-1-.5.2-.8.3-.8.4-.1 0-.2-.1-.1-.1 0-.1.1-.4.2-.6.1-.3.1-.5.4-.6 3.3-1.3 6.1-.3 6.5-.2 0 0-.2.8-.3 1.1 0 .1-1 .7-2 1.3.9.8 1.6 1 1.9 1.1 1.9.3 3.5-.9 3.9-1.2s.4-.6.4-.7c-.2-.4-1-.5-1.3-.5-1.2.1-1.6-.2-1.8-.3-.8-.9.2-2.3.8-2.7.6-.5 1.2-.1 1.4.1 1.4 1.4 1.4 3.1 1.3 3.4 0 .7-.2 1.2-.5 1.5q0 .1 0 .1c0 .3-.2.9-.2 1.1-.3 2.4 1.9 2.5 2.2 2.5 2.6-.2 4.8-2.9 5-3.3.3-.4-.3-.4-.4-.4-.9.2-1.5.2-1.8.1-1.1-.4-1-1.7-.2-2.6s1.3-.5 2.1.2q.4.5.5.9.1 0 .1 0c.2-.1.8-.4.9-.5s.1-.3 0-.9c0-.6-1.1-6.7-1.1-6.7-.1-.7-.2-1.3-.2-1.7-.1-.5-.2-.7-.2-.7s.4-.9.4-1c.1-.1.1 0 .1.1.1.1 1.3 2.9 1.3 3.1.1.2 0 .2-.1.1s-.7-.6-.7-.6 1 5.9 1.1 6.3c.2 1.3-.1 2.3-.2 2.5zm-2.3.3c-.4-.9-1.3-.6-1.4-.5-.2.2-.4.5.3.6.8.2 1.1-.1 1.1-.1zm-7-2.1c-.4-.7-.9-.9-1.3-.7-.3.1-.7.4-.4.6.4.2.8.2 1 .1s.7 0 .7 0zm-6.2 1.7c.7-.4 1.2-.7 1.3-.8q-1.3-.2-2.3-.1c.4.3.6.6.8.7q.1.1.2.2z" fill-rule="evenodd"/><path d="m38.6 6.4c0 .1 1.2 2.9 1.3 3.1 0 .2-.1.2-.2.1s-.6-.6-.6-.6.9 6.4 1 6.8c.6 4.1.1 5.3 0 5.4-.1.2-.2.2-.1 0-.1-1.7-1-7.9-1.1-8.2 0-.4-.7-5.3-.8-5.8 0 0 .3-.8.4-.9 0-.1.1 0 .1.1z"/><path d="m44.5 8.7c-.1.2-.1.1-.2-.1-.1 0-.4-.3-.4-.3s-.4.9-1.1 1.4c-1.3 1-2.4 1.1-2.4 1.1-.1.1-.2 0 0-.2.8-.4 1.8-.7 3.1-2.4 0 0-.4-.2-.7-.4s-.1-1 .1-1.3c.5-.8 1-.4 1-.3.5.8.3 1.6.3 1.6.2.1.5.4.3.9zm-.9-2c-.1 0-.2-.1-.5.3-.1.1 0 .2.2.3.1.1.5.3.5.3.1-.1.1-.6-.2-.9z" fill-rule="evenodd"/></g></svg>