<svg height="30" viewBox="0 0 70 30" width="70" xmlns="http://www.w3.org/2000/svg"><g fill="#191c4f"><path d="m17.7 21.6s-.1.2-.2.4c-.3.9-.1 1.3-.1 1.4.3.4.6.2.7-.1.1-.2.2-.1.1-.1q0 .1 0 .3c-.2.6-.4.7-.6.7-.3 0-.4-.5-.5-.7 0-.9.4-1.8.5-2s.2-.1.1.1z"/><path d="m21.6 21.3s0 .3-.1.5c-.3.8-.1 1.2-.1 1.3.3.5.6.2.7-.1.1-.2.1-.1.1 0q0 .1-.1.3c-.1.5-.3.6-.5.6-.3 0-.5-.4-.5-.6-.1-1 .3-1.8.4-2 .1-.3.2-.2.1 0z"/><path d="m64 20s.1.3.1.5-.2.6-.3.9-.8.5-1.2.2c-.8 1.1-1.5.5-1.9.4-.6-.3-.8.2-1 .4-.9.9-2.5.9-2.8.9-.4.1-.1-.2.1-.2 1.2-.5 2-.5 3.1-1.6.5-.5.8-.2 1-.2 1 .5 1.2 0 1.3-.1s.3-.7.4-.8c.1-.2.2-.1.1.1 0 .1-.1.3-.1.4.5.3.9 0 1-.1 0 0-.1-.3-.1-.4q0-.2.2-.6c.1-.2.1 0 .1.2z"/><path d="m35.9 19.4s-.1.3-.2.5c-.4 1-.2 1.5-.2 1.6.3.5.7.2.9-.1.1-.2.2-.1.1 0q0 .1-.1.3c-.2.6-.5.7-.7.7-.4 0-.6-.5-.6-.8 0-1.1.5-2 .6-2.3.2-.3.3-.2.2.1z"/><path d="m28.5 18.3s-.1.2-.1.4c-.3.9-.2 1.3-.1 1.4.2.4.5.2.7-.1 0-.2.1-.1.1 0q-.1 0-.1.2c-.2.6-.4.7-.6.7-.3 0-.4-.4-.4-.7-.1-.9.3-1.7.4-2 .1-.2.2-.1.1.1z"/><path d="m9.1 19.1s-.1.2-.1.4c-.3.9-.2 1.3-.1 1.4.2.4.5.2.7-.1 0-.2.1-.1.1 0q0 0-.1.2c-.1.6-.4.7-.5.7-.4 0-.5-.4-.5-.7-.1-.9.3-1.7.4-2 .1-.2.2-.1.1.1z"/><path d="m10.7 17.6 1 .8q.1 0 0 0l-.6.9q0 0-.1 0l-1-.8q-.1 0 0 0l.6-.9q0 0 .1 0z"/><path d="m44.7 18.5c-.3 1.1-1.8 1.6-2.1 1.7-1.3.5-1.4-.8-1.3-1.8.1-.9.8-2.2.8-2.2-.1 0-1.5-1.1-1.6-1.2s-.2-.3-.4-.3c-.1-.1-.1-.2-.1-.2s.1-1 .1-1.1 0 0 .1 0c.1.1 1.6.6 1.8.7.1.1.1.2 0 .2-.1.1-.6.2-.6.2l1.2.9s1.7-2.2 1.9-2.5c.2-.2.2-.1.1.2 0 .2-.3 1.1-.4 1.3-.1.1-1 1.3-1 1.3s1.2.7 1.4 1.1c.5.7.2 1.4.1 1.7zm-2.1-1.9s-.8 1.3-.9 1.5c-.3.8.4.9.7.9s1.3-.5 1.8-.9-1.3-1.4-1.6-1.5z" fill-rule="evenodd"/><path d="m9.6 12.3s-.1.3-.1.4c-.3.9-.2 1.3-.1 1.4.2.4.5.2.7-.1 0-.2.1-.1.1 0q-.1.1-.1.2c-.2.6-.4.7-.5.7-.4 0-.5-.4-.5-.7-.1-.9.3-1.7.4-2 .1-.2.2-.1.1.1z"/><path d="m30.9 16.1c-.1.1-.4.6-.6.9-3.7-1-8 .4-8.2.5.6.6.7 1.2.7 1.5-.1 1.7-1 1.6-1.2 1.6-1.2-.1-1.7-1.2-1.9-1.5-.1-.2-.3-1.1-.4-.9-.9 2.1-3.1 1.4-3.2 1.3 0 0-.1.5-.2 1-.1.3-.2.7-.3.9-.5.7-1.5 1.3-1.6 1.3-4.3 2.4-6.3 1.6-7.1 1.3-3.5-1.6-1.2-6.1-.8-6.6-.6-.1-.8-.9-.7-1.4 0-1.8.7-3.4.9-3.8.2-.5.3-.3.2.1 0 0-.2.5-.3.8-.6 1.7-.4 2.5-.3 2.7.3.9.9.5 1.2-.2.1-.3.2-.1.1 0q0 .2-.1.5c-.2.8-.5 1.1-.7 1.2q0 .1-.1.1c-1.3 2.4-.5 3.8-.4 4.1.9 1.8 3.1 1.6 3.7 1.6 2.4-.3 4.2-1.3 5.1-1.9.2-.1.9-.6.8-1.2 0-.2-.7-2-.8-2.4-.1-.5.1-1.1.2-1.2s.1 0 .2.2c.6 1.6 1.8 1.8 2.2 1.9 1 0 1.9-.9 2.3-1.4.5-.4.9-.5 1.1-.5.3-.1 4.7-.9 4.7-.9-.2 0-1.6-.7-2.1-.8-.2-.1-.3 0-.3 0l-2.8-.3s.3-.7.3-.8c.1-.1.1-.1.2-.1.1-.1.7-.3 1.1-.4s1-.1 1.2.1c.3.1 2.8 1.1 3.2 1.3 1.3.4 4.5 1.1 4.6 1.2.2 0 .2.1.1.2zm-9 3c-.1-.2-.3-.6-1.2-1.1-.2-.1-.3-.1-.4 0-.2.2 0 .4.1.5.2.3.6.6 1.4.8.1 0 .2.1.1-.2z" fill-rule="evenodd"/><path d="m65.6 17.3c-.1.3-.3 1.2-1.7 1-.4-.1-1.1-.3-1.4-1-.3.4-1.1 1.7-2.7 1.5-.3-.1-1.4-.5-1.5-1.9 0 0-1.3 1.1-1.9 1.4.1.5.1 1.1-.2 1.7-.2.6-3 3.8-5.3 4.3-.8.2-3.7.7-3.8-2.6 0-.6 0-1.2.1-1.5-1.8 1.4-4 2.4-4.6 2.7-.9.5-4.3 1.1-4.9 1.2-.3 0-.4-.1-.2-.2.3-.1 7.6-2.6 11.5-6.7q.1-.2-.1-.5c-.1-.2-1.3-2.5-1.4-2.8s-.2-.6-.3-.7q-.1-.2 0-.4c0-.1.1-.7.1-.9.1-.1.1-.1.2 0s1.3 1.3 1.4 1.5c.2.2.1.2 0 .2s-.6 0-.6 0 .8 1.4 1 1.8c.5 1.2.2 2 .1 2.4-.4.7-1.1 1.4-1.8 2-.1.6-.4 3.3 2.1 3.4.4 0 1.7.1 4.2-1.9.6-.5 1.2-1.1 1.8-1.9.2-.3.4-.8 0-.8-.5.1-3.1 1-3.4-.6-.1-.4.1-4.1 2.6-2.2.3.1.8.6 1.2 1.3.4-.2 1.2-.7 2.2-1.5.3-.2.5-.3.5 0 0 .4-.2 2.5 2.2 1.9.2-.1 1.2-.3 1.9-2.1.2-.5.5-.4.4 0-.2.4-.5.8-.2 1 .2.3.9.7 1.7.6.3 0 .4-.1.3-.4-.1-.2-.3-.7-.3-.7 0-.3.1-.8.2-.9 0-.1.1-.2.2-.1s.8 1.1.4 2.4zm-10.6.1c-.9-1.1-1.9-.4-2-.3s-.2.4.7.5c.9 0 1.3-.2 1.3-.2z" fill-rule="evenodd"/><path d="m16.5 11.8c1.8 2.1 1.1 4.7.9 5-.1.2-.2.2-.1-.1.3-2.6-1.1-4.3-1.2-4.5 0 0 .1-.4.2-.5 0-.1 0-.2.2.1z"/><path d="m32.5 10.9s.1.5.3.8c.1.2.2.5.1.9 0 .4-.2.7-.4.8-.3.1-.7.1-1-.4-.3.7-.8.9-1.2.7-.3-.1-.3-.7-.3-.9 0-.1 0-.7 0-.8s0-.2.1-.4c.1-.1.1-.1.1.1s0 .9.1 1.2c.3.5 1 .1 1.1-.2.1-.2-.2-1-.2-1.1q0 0 0-.1s0-.3.1-.4q0-.2.1 0c.1.1.1.4.2 1.1.2.7.9.6 1 .5.2-.1.2-.2.1-.2 0-.1-.3-.7-.4-1s-.1-.4 0-.7c.1-.2.1 0 .2.1z"/><path d="m41.7 10.6 1 .7.5-.7q0 0 .1 0l1 .7q.1.1.1.1l-.7.9q0 0 0 0l-1.1-.8-.5.8q0 0-.1 0l-1-.8q-.1 0 0-.1l.6-.8q0 0 .1 0z"/><path d="m62.9 10.6s-.1.3-.1.5c-.4.9-.2 1.3-.1 1.4.2.5.6.2.7-.1.1-.2.1-.1.1 0q0 .1-.1.3c-.1.5-.4.7-.5.7-.4-.1-.5-.5-.6-.7 0-1 .4-1.9.5-2.1.1-.3.2-.2.1 0z"/><path d="m13 10.7s-.1.4-.2.7c-.6 1.6-.3 2.3-.2 2.5.3.8.9.4 1.1-.2.1-.3.2-.1.2 0q-.1.1-.1.5c-.3.9-.7 1.1-1 1.1-.5 0-.8-.8-.8-1.2 0-1.7.7-3.1.9-3.5.1-.5.3-.3.1.1z"/><path d="m52.5 10.1s-.1.3-.2.5c-.3 1-.1 1.4-.1 1.5.3.5.7.3.8-.1.1-.2.1-.1.1 0q0 .1-.1.3c-.1.6-.4.7-.6.7-.4 0-.5-.5-.5-.7-.1-1.1.3-2 .5-2.3.1-.2.2-.1.1.1z"/><path d="m24.2 9.5c.6.1.5.4.3.6-.4.7-1.1 1-1.5 1.2-.5.2-.2-.2 0-.4 0 0 .3-.1.7-.4s-.7-.3-1.1-.3c-.5 0-.6.2-.7.3-.2.2-.4.1-.2-.1.1-.2.2-.4.5-.8.3-.3 1.3-.2 2-.1z"/><path d="m32.9 8.1c0 .1-.1.1-.2.3 0 .2-.2.3-.4.4-.1.1-5.2 2-5.8 2.4-.7.4-.7.6-.5.7.5.2.7.5.4 1-.1.1-.1.1-.1 0-.1 0-.2-.2-.4-.3-.4 0-.5-.6-.3-1.1.1-.3.3-.6.6-.8.6-.4 6.3-2.6 6.4-2.7.4-.2.4 0 .3.1z"/><path d="m11.5 6.4c.1.2 0 .6-.1.9-.1.1-.2 0-.3-.2 0 0-.1-.1-.3-.2-.5-.5-.7.4-.7.8-.1.3-.1 1.3-.2 1.8 0 .3-.2.2-.3.1-.3-1.2-1-1.8-1.1-1.9q-.1 0-.1 0 .1.1.1.4c-.3 1.5-1.8 2.1-2.1 2.3-.2.1-.2.1 0-.2.3-.3 1.4-1.5 1.7-1.8.5-.5-.5-.8-.6-1-.1-.1-.1-.5-.1-.7.1-.4.3-.5.4-.4 1.4.8 1.8 2.2 1.9 2.4.1-1.1.1-2 .6-2.7.5-.5 1.1.3 1.2.4z"/><path d="m51.6 5.8c-.1.1-.1.2-.2.4 0 .1-.2.2-.3.3-.2.1-5.7 3.3-5.8 3.3-.3.2-.3.1-.2 0q0 0 0-.3c.1-.2.1-.2.4-.4.2-.1 5.6-3.2 5.8-3.3.3-.2.3-.1.3 0z"/><path d="m58.2 6.2c.1.2 0 .6-.1.9 0 .1-.2 0-.3-.2 0 0-.1-.1-.3-.2-.5-.5-.7.4-.8.9 0 .3-.1 1.3-.2 1.9 0 .2-.2.2-.2 0-.4-1.2-1.1-1.8-1.3-2-.1-.1-.2.1-.2.2s-.1.1-.2 0c0 0-.4-.3-.6-.4-.1-.2-.1-.6-.1-.8.1-.4.3-.5.4-.4 1.5.8 1.9 2.2 2 2.5.1-1.1.1-2.1.7-2.8.5-.6 1.1.3 1.2.4z"/><path d="m63.6 8.5c-.1.1-.1 0-.2-.1s-.3-.3-.5-.4c-.2.5-.2.5-1.1 1.3-2 1.8-4.2 2.4-4.3 2.4s-.2-.1 0-.2c.7-.5 3.6-1.8 5.1-3.6 0 0-.5-.2-.8-.4-.3-.3-.1-1.1.1-1.4.5-.9 1-.5 1.1-.3.5.8.2 1.6.2 1.6.3.2.6.5.4 1.1zm-1-2.2c-.1-.1-.2-.1-.5.3-.1.2 0 .3.2.4.2 0 .6.2.6.2 0-.1.1-.6-.3-.9z" fill-rule="evenodd"/><path d="m14.3 5.7s-.1.3-.1.5c-.4 1.1-.1 1.6-.1 1.7.4.6.8.3 1-.2 0-.2.1-.1.1 0q0 .1 0 .4c-.2.6-.5.8-.8.8-.4 0-.7-.5-.7-.8-.1-1.2.4-2.2.5-2.5s.2-.2.1.1z"/><path d="m29.8 5.6s-.1.2-.2.4c-.3.9-.1 1.3-.1 1.4.3.4.6.2.7-.2.1-.1.1 0 .1 0q0 .1 0 .3c-.2.5-.4.7-.6.7-.3 0-.5-.5-.5-.7 0-.9.4-1.8.5-2s.1-.1.1.1z"/><path d="m34.1 5.4c.1.1 1.1 2.9 1.2 3.1s-.1.2-.2.1-.5-.4-.5-.4.9 6.3 1 7.2c.1 1.2 0 1.9-.1 2.2-.4 1.1-1.9 1.2-2.4 1.3.2 2.8-2.6 4.1-3 4.3-4.5 2-5.2-.2-5.4-1-.5-1.4.5-4.3.8-5s.6-.5.4.1c-.4.9-.7 2-.7 2.4-.4 1.7.1 3.7 3 3 2.1-.5 3.8-2 4.1-2.3.4-.4.2-.9.2-1-.1-.6-.5-1.6-.6-1.8-.1-.3.2-1 .3-1.1q.1-.2.1-.1c0 .1.2.6.3.7.6.8 2 .3 2.3.1.2-.1.1-.8.1-1.2s-1-7.1-1-7.1c-.1-.7-.2-1.3-.3-1.8-.1-.4-.2-.6-.2-.7 0 0 .4-.9.5-1 0-.2.1-.1.1 0z"/><path d="m37.2 5.4c.1.1 1.4 3.2 1.4 3.4.1.1 0 .2-.1.1s-.8-.7-.8-.7.8 6 .8 6.3c.7 4.5.1 5.7 0 5.9s-.1.1-.1-.1c-.1-1.8-1.1-8.4-1.1-8.8-.1-.4-.5-4.6-.5-5.2 0 0 .3-.8.3-.9.1-.2.1-.1.1 0z"/><path d="m43 8.2c0 .1-.1 0-.2-.1s-.4-.4-.4-.4-.5.9-1.2 1.5c-1.4 1-2.5 1.2-2.6 1.2-.1.1-.2-.1.1-.2.8-.5 1.8-.8 3.3-2.6 0 0-.5-.2-.8-.5-.3-.2-.1-1 .1-1.3.6-.9 1.1-.5 1.1-.3.5.8.3 1.6.3 1.6.2.2.5.5.3 1.1zm-.9-2.2c-.1-.1-.3-.1-.6.3-.1.2 0 .3.2.4.2 0 .6.2.6.2 0-.1.1-.6-.2-.9z" fill-rule="evenodd"/><path d="m26 5.2c-.1.1-.1.2-.2.3-.1.2-.3.3-.5.4s-9.6 4.1-9.7 4.1c-.4.2-.4.1-.3-.1q0 0 .1-.3c.1-.2.1-.2.4-.3s9.6-4.1 9.9-4.2c.4-.2.3-.1.3.1z"/></g></svg>