<svg height="108" viewBox="0 0 108 108" width="108" xmlns="http://www.w3.org/2000/svg"><path d="m55.8 46.1c-.2-.7.5-3.7.7-4.3.6-1.8 1.3-3.6 2.1-5.2 1.2-2 2.8-3.6 4.4-5.1 1.2-1.1 2.7-1.7 5.2-1.4.6.1 1.3.4 1.8.6 0 0 .6.3.8.5.2 0 .2 0 .4.2.1.1.4.3.4.3.8.4 2.3 2.1 3 3.1.9 1 4.9 8.1 4.4 9-.1.1 0 .4 0 .6 0 .4 0 .9-.1 1.4 0 .6-.1 1.1-.3 1.5-.4 1-.8 2-1.3 2.8-1.2 1.8-7.8 2.9-10.6 2.8-.5 0-.5 0-1 0-.6-.1-1.2-.2-1.9-.2h-1.3l-.4-.1c-.4-.1-.4-.1-.7 0-.4 0-2.2 3.1-2.5 3.6-.2.4-1.6 2.2-2.6 3.4-.5.6-1 1.3-1.2 1.7-.2.8-.7 1.4-1.3 1.9-.4.4-1.4 1.5-1.5 1.5-.4.6-1.1 1.4-1.6 1.6-.3.1-1.1.7-1.5 1.1q-.4.3-.8.6c-.1 0-.3.1-.4.2-.3.1-.5.2-.6.3-1 .9-2.2 1.7-3.4 2.3q-1.9 1-3.7 1.8c-1.3.5-2.6 1.3-3.7 2.1l-.5.3-.3.2c-.1.1-.3.2-.5.3-.3.2-.6.4-1 .5s-.7.2-1 .4c-.6.5-1.2.7-2 1-.1.1-.6.4-.8.6-.3.2-.6.5-.8.6-2.5 1.2-1.7-1.9-.9-2.9.3-.4.7-.8 1.2-1.2.2-.1.5-.4.8-.7l.1-.4c0-.1.2-.4.3-.5.5-.3 1-.7 1.5-1 .4-.2 1.1-.6 1.6-1 .4-.3 1.5-1.1 1.5-1.2.1-.1 1-.7 1.5-1.1 4-2.9 7.8-6 11.5-9.1 1.9-1.6 4.1-3.5 5.7-4.7.6-.5 2.2-2.1 2.5-2.7.2-.4.5-1.1.1-1.5-.2-.3-.4-.5-.6-.8 0-.2 0-.2-.1-.4v-.3-2.1c-.1-.2-.2-.3-.3-.4s-.2-.2-.3-.5zm17.2-1.4c.2-.5-2.3-3.6-2.7-4.1-1.1-1.2-2.4-2.1-3.9-2.8-.4-.2-2.5-.2-2.8-.1-.2.1-1.1.8-2 1.5-.4.3-2.1 3.2-2 3.9.2.6 1.3.9 1.9 1.1.7.2 1.4.4 2 .6 2.1.7 7.6.8 9.5-.1z" fill="#231f20" fill-rule="evenodd"/></svg>