<svg height="108" viewBox="0 0 108 108" width="108" xmlns="http://www.w3.org/2000/svg"><path d="m46.8 31.4c-.2-1.6 1.9-5.8 2.8-5.9.4-.1 1.9.6 2.7 1q.5.2 1.1.4c.6.2 1.5.5 1.7-.2.4-1.1 1.8-4.2 2.8-4.6 1.3-.6 4.8 3.2 5 4.1.2.8-2.1 4.5-2.4 4.6-.4.1-.8-.2-1.2-.5s-.9-.4-1.5-.6c-.5-.1-.9-.4-1.2-.6-.4-.2-.9-.6-1.1-.6 0 0-.1.3-.2.4q-.1.3-.3.5c-.2.3-.4.7-.5 1-.4.8-.9 1.8-1.2 2.1s-1.1.6-1.7.7c-.8.1-1 .1-1.6-.3-.5-.3-1.2-.6-1.7-.8-.6-.2-1.5-.5-1.5-.7zm-18 46.5c.4-1 1-2.1 1.5-3.1l.2-.4.1-.1.1-.2.2-.4.1-.1.2-.4.1-.2.1-.2.3-.5c.6-1.1 2.3-2.8 3.4-4 .7-.6 1.3-1.2 2-1.7.6-.5 1.4-1.6 1.5-2.4 0 0-.5-2-.6-2.3-.1-.4-.5-1.7-.7-2.6s-.6-2.3-.6-2.9l-.1-.4-.1-.2v-.3l-.1-.3v-.3l-.1-.2v-.3c0-.8 0-.8 0-.9q-.1-.4-.3-.8c-.1-.4-.3-.8-.4-1.3v-.4l-.1-.9v-.3c-.1-.6-.1-1.2-.2-1.6-.2-.9-.2-1.4-.2-2.5l.1-2.2v-.3l-.1-.4c-.1-.4-.1-1 0-1.5q.1-.9.4-1.5c0-.2.1-.4.1-.6l.1-.2.1-.6c.1-.4.3-1 .6-1.3.2-.3.4-.4.8-.4.2 0 .5.5.6.8.2.2.2.2.5.1.2 0 .6-.1.7.1.2.6.4 1.6.6 2.4 0 0-.2.5-.4 1s-.3 1.1-.3 1.8c-.1.6.2 1.8.3 2.6.1.4.2.6.3.9.2.5.3.7.3 1.5.1 1.5.2 3.3.7 4.5.1.2.1.2.1.7v.4c0 .2.2.6.2.9.2.6.4 1.3.5 1.9.2 1.1.6 3 1 3.6.7 1 3.3 2.1 5.5 3 1.3.5 7-.7 9.6-1.3.1 0 .5-.3.7-.4s.6-.4.6-.4c.6-.2 1-.4 1.5-.8.1-.1.7-1 .7-1.3.1-.6-.1-1.6-.3-2-.1-.1-.1-.3-.2-.4-.1-.2-.1-.2-.2-.3 0-.1-.1-.6-.2-.6-.1-.7-.9-3.1-1.6-2.8 0 0-.1.4-.1.4l-.2.5q-.2.5-.5 1c-.1.1-.1.3-.2.4-.1.2-.2.5-.2.5-.1.1-.1.1-.2.3s-.2.4-.4.5c-.3.5-2.8 2.3-3.4 2.5-.3 0-2.4.3-2.7.1 0 0-.7-.2-.8-.2q-.4-.2-.7-.3c-.2-.1-.2-.1-.4-.2l-.2-.1h-.2c-.1-.1-.5-.3-.7-.4-.4-.3-1.1-1.4-1.5-2.1s-.7-2.3-.8-3.2c-.2-3.2 2.8-9.2 4.1-11 1-1.4 3.6-3 5.9-2.3 1 .3 1.9.9 2.7 1.5 1.4.9 2.5 2.6 3.3 4.1.2.5.5 1.1.6 1.4 0 .1 0 .1.2.3l.2.3q.2.3.4.6c.5 1 .9 2 1.3 3.1 1.1 3.2.5 7.4-.3 10.3-.4 1.1-.7 2-1.1 2.9-.1.5-.3.8-.7 1.1-.4.2-.9.5-1.2.8-1.2 1.3-2.8 2.5-4.8 3q-.3.1-.6.2c-.3.2-.5.3-.9.3-.7.1-1.6.3-2.1.4h-.2l-.2.1-.5.1-.2.1-.2.1c-1.1.2-5.2.3-4.3.1.1 0-.3-.1-.3-.1q-.4-.1-.8-.2c-.2 0-.6-.2-.8-.3-.3-.2-.6-.3-.9-.5l-.3-.1-.5-.2-.2-.1c-.6-.2-1.3-.5-1.8-.9q-.4-.2-.7-.5c-.2-.2-.6-.6-.8-.6l-.1.2-.4.6-.1.2-.1.1c-.1.2-.1.2-.4.5l-.2.3-.2.3c-.6.8-1.2 1.5-1.7 2.2-.6.6-1.2 1.2-1.9 1.8 0 0-.6.5-.7.7-.2.3-.2.3-.5.5-.3.3-.3.3-.3.3-.1.1-.1.1-.2.2-.1.2-.1.3-.2.3-.3.4-1.1 3-.4 3.5l.1.1.2.3c.1.1.7.6.7.6.6.3 1.2.7 2.1.8.4.1.4.1.7.1.4 0 .4 0 .7.1.4.1.6.1 1.6.1q.6-.1 1 0c1.3.1 3.1.1 4.5-.2l.4-.1h.3l.2-.1h.3l.7-.1h.3l.3-.1h.4l.4-.1h.4l.5-.1h.5l.2-.1h.3.2l.3-.1.5-.1h.6c.7-.1.7-.1 1-.1.3-.1 1.3-.2 1.3-.2.6-.2 1.2-.2 1.8-.3.7-.1 1.4-.2 2-.3s1.2-.2 1.8-.3l.3-.1.6-.1h.4l.3-.1.8-.1c1.2-.2 2.3-.4 3.4-.5h.6l.3-.1h.5l.6-.1h.6.4c.5-.1.9-.1 1.3-.2.2 0 .2 0 .6-.1.3-.1.3-.1.6-.1.2 0 2.8-.4 4.2-.5.4-.1.7-.1 1.2-.2.4 0 .7-.1 1-.2.6-.1 1.7-.3 1.9-.2.3.1.7.3.9.6.5.8-1.2 3-1.6 3.5-.7.9-1.4 1.8-2.7 2.1h-.6l-.8.1h-.5l-.2.1h-.5l-2.6.3c-1.5.2-3.1.3-4.3.6-.9.2-1.7.2-2.6.3-.6 0-1.5.2-2.3.3-.3 0-.9.1-1 .1-.3.1-.5.1-.9.2-.1 0-.6.1-.8.1-.4.1-.8.2-1.2.2q-.4.1-.7.2-.3.1-.6.1s-.7.2-1 .2l-.3.1h-.7l-.5.1q-.3 0-.5.1l-.2.1-1.3.1h-.4l-2.2.4c-.8.1-2.5.4-2.6.4q-1 0-2 .3s-1.3.2-1.9.3h-.4l-.6.1h-.4c-.5.1-.5.1-1.2.1-.2 0-1.3.1-1.2.1 0 .1-3.8-.2-5.1-.4-.9-.1-1.8-.6-2.4-.9-.4-.2-1.7-1.5-1.9-1.9-.5-1.4-.1-4.1.6-5.3zm21.3-26.9c.5.5 3.5.9 4.4.8.5-.1 1.9-2.3 1.8-2.8 0-.6-.4-1.1-.7-1.4-.5-.6-1.2-1.1-2-1.4-.5-.1-1.1-.2-1.6 0-.3.1-1 .8-1.5 1.4-.5.5-1.1 2.9-.4 3.4z" fill="#231f20" fill-rule="evenodd"/></svg>