<svg height="108" viewBox="0 0 108 108" width="108" xmlns="http://www.w3.org/2000/svg"><path d="m44 88.1c-1.8-.7-4.8-2.3-7.3-3.6-.8-.4-4.7-5.1-5.4-6.1-.3-.5-.6-1-.8-1.7-.2-.8-.5-2.2-.7-2.4-.4-.4-1.2-3.4-1.5-4.7-.3-1.2-.3-4-.3-6 0-2.3.8-5.8 1.4-8.3.6-2.8 2.7-7.1 4.2-10.1 1.6-3 3.9-6.2 6-9.2.9-1.2 2.5-2.8 3.7-4 1.5-1.5 1.3-1.8-1.5-1.2l-.3.1h-.4c-.6.1-1.9.3-1.9.3-.2.1-.5.2-.7.2-1.7.1-1.7.1-2.2.4s-.9.6-1.2 1.1c-.4.4-.7.8-1.2 1.1-.4.4-1 .9-1.2 1.2-.3.5-.7.8-1.2 1.1-.5.2-1.1.2-1.5-.1-.5-.2-.5-1.1-.5-1.7-.2-3.3 4.7-10 6.7-11.6 2.9-2.3 11.8-2.4 16.5-2l.3-.1.6-.1c1-.1 2.3-.1 3.4-.1h1.6.3.4l.7.1.8.1c2.3.1 4.2.1 6.1-.2 1.4-.3 3.2-.6 3.8-.6.4 0 .9.7 1.1 1 .9 2.4-1.1 5.8-2.1 7.3-.4.6-1.6 1.5-2.4 1.7-1.5.4-5.3 1.2-6.1 1.1-.2-.1-.5.1-.9.3-.3.2-.9.5-1.4.7-.8.4-1.7.6-2.6.8-1.8.4-10 4.4-10.5 5.2-.2.5-.8 1.1-1.2 1.4-.5.4-1.1 1-1.5 1.5-.2.3-.6.8-.8 1.1l-.2.2c-.2.3-.2.3-.3.4-.3.5-.7 1.2-1.2 1.6-.4.5-1 1.4-1.2 1.9s-.2.5-.3.6-.1.1-.2.4c-.2.4-.5 1.1-.6 1.2-1 1.3-1.8 2.9-2.4 4.6-1.5 4.5-1.4 9 .3 13.3 1 2.6 2.8 4.8 4.6 6.6 1.7 1.7 4.8 3.7 7.4 4.3 2.6.5 5.3 1 8.2 1.2 0 0 6.5-.1 8.5-.1 2.4-.1 6.2-.3 7.1-.4.4-.1 6.5-.4 6.6-.4 1 .6-.2 2.8-.6 3.2-.6.5-1.3 1.1-2 1.5-.8.4-1.8.7-2.8.9s-2.6.6-3 1.1c-.5.6-1.1 1-1.8 1.3-.6.3-1.2.5-2 .6-.9.1-1.4.2-2.2.4-5.1 1.4-15 3-20.2 1.6zm13.5-37.5c2.9-.5 7 4.2 7.8 6.3.4 1.1-3 5.4-3.7 5.7-.3.1-1.1-.2-2-.6q-.5-.2-1-.4c-.4-.2-.8-.3-1.3-.5-1.3-.2-4-.9-4.1-2.1 0-2.2 2.6-8.1 4.3-8.4z" fill="#231f20" fill-rule="evenodd"/></svg>