<svg height="108" viewBox="0 0 108 108" width="108" xmlns="http://www.w3.org/2000/svg"><path d="m51.5 56.5c-.4 0-1.3.7-1.8 1-.5.4-1.1.8-1.7 1.1-.9.3-2.4.8-4.1 1.2-.5.2-1.9.2-2.3 0-.8-.3-1.4-.6-2.1-1-.3-.2-.6-.5-.9-.8-.2-.1-.3-.3-.4-.4-.2-.2-.4-.5-.6-.6-.3-.1-1.5 1.5-1.7 1.8 0 .1-.7.8-1.1 1.2-.2.1-.2.1-.5.4-.1.1-.1.1-.2.1-1 1-3.1 3.2-3.1 4.5 0 .3.6.8.7.9.7.3 1.9.9 2.1.9 3.2.6 6.9.9 10.6.6l.4-.1h.4.3.3l.2-.1h1.3c.3 0 1 .1 1.4.1.7 0 4-.2 5.9-.3 1 0 1.7 0 2.7-.1h.6c.2-.1 1.3-.1 1.7-.1 1.3 0 2.8-.1 4.2-.2 2.1-.2 4.5-.3 6.6-.5 2-.1 4.1-.3 6.1-.5.6-.1 1.6-.2 1.8-.1s.5.4.7.6c.1.3-.2 1.1-.3 1.3l-.2.2s0 0-.2.3l-.2.2-.1.1c0 .1-.4.5-.6.7-.4.4-1.3 1.2-1.9 1.1-.3 0-1 0-1.5 0q-.4.1-.9.1c-.2.1-.5.1-.7.1-1.5.2-4.8.4-5.1.5-.9.1-2.3.2-3.4.3 0 0-1.5 0-2.5.1-.4 0-.9 0-1.3.1h-.2l-.6.1h-.5q-.5 0-1.1.1c-.4 0-.8 0-1.2 0s-.9 0-1.3.1c-.1 0-.3 0-.4 0-.5 0-1 0-1.4.1-.4 0-.8 0-1.1 0-1 0-2.3.1-3.4.2h-.5-.8l-.3.1h-.9c-.8.1-1.6.1-1.8 0-.3 0-.5 0-.8 0-.2 0-.6 0-.9.1 0 0-.8 0-1.1.1-1.8.2-4 .1-6 .1-.4 0-1.7-.3-2.4-.4-.3-.1-.8-.1-1.2-.2-.3 0-.6-.1-.9-.2-.9-.3-1.6-.7-2.3-1.1-.3-.2-.8-.8-.9-1.2-.1-.5-.2-1.7 0-2 0-.1.1-.3.1-.4.1-.2.1-.5.1-.5q.2-.5.4-1c.2-.2.4-.7.4-.8q.2-.6.5-1c.5-1.2 1.4-2.3 2.4-3.4l.3-.4q.1-.1.2-.3l.2-.2.1-.1q.3-.4.5-.7c.1-.2.2-.3.2-.5.1-.1.2-.2.3-.4.4-.5 1-1.2 1.1-1.4.5-.4.9-.9 1.3-1.4.1-.2-.1-.8-.2-1.1 0 0-.2-1.4-.2-1.8l-.1-1.4s-.1-.5-.2-.8l-.2-2.8c-.1-.4-.3-2.2-.5-3.5v-.3-.6l-.1-.4c0-.3 0-.3 0-.5l-.1-.2v-.2c-.1-.7-.3-2.3-.3-2.3 0-.7 1.5-3.5 1.8-3.6.2-.1.4-.2.5 0 .4.2.4.8.6 1.4v.3.2l.1.2v.1l.1.2v.3l-.1.2v.5c0 .3.1.6.1.9.3 1.4.6 3 .8 3.9v.6.4c.1.5.1.8.2 1.3.1.8.3 2.3.3 2.6.1 1.2.3 3.1.9 3.9.2.2.3.4.4.5l.2.2q.2 0 .3.2l.2.2q0 .1.2.4c.2.1.3.3.4.4.8.4 2.1 1.2 2.3 1.3.5.2 1.8 0 2.4-.1.9-.1 2-.6 2.7-1 .6-.5 1.2-.9 1.8-1.4q.3-.4.7-.8c.2-.2.6-.7.8-.7.5-.1.6-.1 1.1.2.1.1.2.2.4.3l.2.1q.1.1.3.3s.3.2.5.3q.3.2.6.3c.3.2.9.5 1.3.5.2-.1.5-.4.6-.5.1-.3.2-.5.4-.7.1 0 .2-.2.3-.3q.1-.1.2-.2c.1-.1.3-.2.3-.2.4-.1.5-.1.7-.3.4-.3 1.5-1.4 2.2-2.1 1.4-1.3 3.7-3.4 6-3.6.7-.1 2.4 0 3 .2h.2l.1.1h.2.1q.4.1.7.3.6.3 1 .7c.6.4 1 .8 1.3 1.6 0 .1-.2.8-.3 1.2v.4l.1.3c.1.5 0 1.1 0 1.5-.3 1.2-1.9 2.5-2.9 3.3-.6.5-1.4 1-2.1 1.3-.5.2-1.7.8-2 1.1-.7.6-3.1.8-4.4.9-.3 0-.8.2-1.1.3-.7.2-1.9.1-2.7.1-.2-.1-.5-.1-.7-.1-.2-.1-.5-.1-.7-.1q-.2 0-.4-.1s-.7-.1-.8-.1c-.3 0-.6-.1-.9-.2q-.2-.1-.4-.2c-.3 0-.4-.1-.6-.2-.3-.1-.3-.1-.4-.2-.1 0-.2 0-.3 0-.1-.1-.1-.1-.2-.2h-.2l-.2-.2c-.2 0-.3-.1-.3-.1-.2-.2-.2-.2-.2-.2-.1 0-.2-.1-.3-.1 0-.1-.1-.1-.2-.2zm15-3.1h.2l.2-.1q.4-.1.7-.3.6-.2 1.3-.7c.1 0 .1 0 .2-.1l.3-.1c.1-.1.1-.1.2-.2s.1-.1.2-.1l.2-.2c.3-.1.5-.3.5-.3 0-.1-1-.6-1.1-.6-.4-.2-1.4-.5-1.5-.5-1.1-.3-3.6-.6-4.4.1-.5.6-1.5 1.2-2.3 1.7-.3.2-2 1.8-2.1 2 0 0 .7.1.7.1.2 0 .9.1.9.1.5 0 1.7-.1 2.2-.2.4-.1 1-.2 1.4-.2.8-.1 1.5-.2 2.2-.4z" fill="#231f20" fill-rule="evenodd"/></svg>