<svg height="108" viewBox="0 0 108 108" width="108" xmlns="http://www.w3.org/2000/svg"><path d="m10.1 55.6c.1-.2 1-1.1 1.2-1.2s.4-.2.7-.1c.5.2 2.3 1.7 3.2 2.4.2.1.3.3.4.3.1.1.1.1.1.1q.2.1.7.5l.1.2c.1 0 .2.1.2.2.2.1.6.4.9.7.1 0 .1 0 .2.1q.2.1.4.4c.4.4.2 1.3 0 1.8-.6 1-1.4 2.4-1.8 3l-1 1.4-.2.3c-.1.1-.1.1-.1.2 0 0-.1.1-.2.2s-.3.3-.3.4c-.2.2-.6.3-.8.4-.3.1-.6-.1-.8-.2-.3-.2-.5-.4-.6-.6-.2-.2-.5-.5-.8-.7-.1-.1-.1-.1-.1-.1-.1-.1-.2-.2-.3-.3l-.3-.2c-.1-.1-.1-.1-.1-.2q-.1-.1-.2-.1c-.1-.1-.3-.2-.4-.4-.5-.4-1.2-.9-1.6-1.2-.1-.1-1.4-1.2-1.4-1.3-.2-.2-.2-.3-.2-.7 0-.3.5-1.1.7-1.4.2-.5.5-.9.7-1.4q.1-.1.2-.3s.2-.2.2-.3c.1-.2.2-.4.3-.6h.1l.1-.1q0-.2.1-.3.1-.1.2-.3c.1-.1.2-.3.3-.3 0-.1.2-.3.2-.3zm6.3-12.4v-.1c.1 0 .1 0 .2-.3.1-.1.2-.2.3-.3q.1-.1.3-.3c0-.1.6-.1.6-.1.1.1 1.3 1 1.5 1.1.5.3 1.1.7 1.5 1.1.3.3.9.9 1.4 1.3.3.2 1.2 1 1.3 1.3s.2.7.2 1.1c0 .8-.6 1.4-1 1.8-.2.2-.8 1-1.1 1.5s-1 1.5-1.1 1.6-.4.6-.5.9c-.2.3-.5.8-.7.8-.2.1-.3 0-.4-.3q-.1-.1-.2-.1-.1-.1-.1-.2c-.1-.1-.2-.3-.3-.4q-.1-.1-.2-.2s-.1-.1-.2-.2c-.3-.4-1-1-1.4-1.4q-.8-.6-1.6-1.3h-.1v-.2s-.2-.1-.2-.1c-.2-.1-.2-.1-.3-.2 0-.1-.1-.1-.2-.2-.1 0-.8-.6-.8-.6v-.3c0-.1 0-.1 0-.3v-.2c0-.1 0-.1 0 0 .1 0 .1.2.2 0v-.1l-.2-.1h.2v-.2c.1-.1.2-.3.2-.4v-.1c0-.1 0-.1.1-.2 0 0 0 0 .1-.1.1 0 .2-.1.1-.1-.1-.2.1-.6.2-.7 0 0 .1-.1.2-.2 0-.1.1-.3.2-.4 0 0 0 0 .1-.2 0-.1.2-.3.3-.4l.1-.2s.1-.2.2-.4q.1-.1.2-.2c0-.1.1-.1.1-.2l.1-.2c.1-.1.2-.2.3-.4 0 0 0 0 .1-.2.1 0 .1 0 .3-.1 0 0 .1.1 0-.1zm10.3 9.9c.2-.1.5 0 .6.1.2 0 .6.4.7.6.1 0 .3.2.6.5q.7.6 1.4 1.2.3.3.6.6s.4.4.7.6c.3.3 1.2 1 1.3 1.2.2.5.5 1.1.2 1.7-.2.5-.7 1-1.1 1.5-.4.4-.8.9-1.1 1.4-.6.8-1.7 2.4-2.2 2.8-.1.1-.4.3-.5.2-.5-.5-1.1-1-1.6-1.5q-.4-.3-.7-.7-.2-.2-.4-.4-.3-.1-.5-.3c-.2-.3-.5-.6-.7-.8-.3-.2-.5-.4-.7-.7-.1-.1-.3-.3-.4-.3-.1-.1-.3-.3-.4-.5-.3-.4-.4-.6-.2-1.1.5-1.3 3.5-5.8 4.4-6.1zm54 .3c.2-.1.4-.1.6-.1 0 0 .5.4.7.5l.2.1.1.2c.1.1.3.2.4.3.4.3 1 .7 1.3.9.5.3 1.3.9 1.4 1s.3.2.3.3q.2.1.4.3l.1.1.2.1c.2.1.3.2.5.5l.1.1q.1.2.2.5c0 .3-.7 1.2-1.1 1.6l-.1.2v.1l-.1.1c-.1.2-.2.3-.3.4s-.1.1-.2.2l-.1.3-.1.1s-.1.2-.2.2c-.3.5-.7 1.1-1 1.6-.1.1-.4.6-.6.8v.1l-.1.1c0 .1-.1.3-.1.3-.1.1-.3.3-.3.3-.1.1-.9.1-.9 0s-.5-.5-.7-.6l-.1-.1c-.1-.1-.4-.2-.4-.2-.4-.4-.9-.8-1.3-1.1-.2-.1-.5-.3-.6-.4s-.3-.2-.4-.2c-.4-.1-.5-.1-.6-.3s-.3-.5-.5-.7-.5-.5-.5-.7c-.1-.7 2-4.6 2.3-5l.2-.2q0-.1.2-.3l.1-.1.1-.3.1-.1c.1-.2.7-.9.8-.9zm3.4-10.3c.1-.4 1.6-2.2 2-2.1.6.1 2.8 1.7 3.3 2.2 0 0 .4.2.5.3q.1.1.2.2.4.3.7.6c.3.3.4.5.5 1 0 .1 0 .1.1.4v.2c-.1.1-.1.3-.1.3q.2.6.2.7c0 .3-1.1 2.6-1.3 2.9l-.1.1v.1c-.1.1-.1.2-.2.2 0 .1-.1.2-.1.3-.1.1-.2.2-.2.3-.2.2-.2.4-.3.7q-.1.3-.2.6c-.2.2-1.1.6-1.4.6-.1 0-.9-.3-1-.4-.4-.6-4.6-4.2-4.6-4.2-.1 0 .1-.3.1-.3v-.2s0 0 0-.1q0 0 0-.2c0-.1.5-1.3.7-1.6.4-.9 1.1-2.3 1.2-2.6zm10 8.4s0 .2.1.2v-.2c.1 0 .3.1.4.1.1.1.1.1.1.1.1 0 .5.1.6.2h.1l.2.2c.2.1.6.3.6.3.6.2 3.2 2.5 3.5 3 .1.3.2.5.3.8 0 .3-.1.6-.2.9 0 .2-.4.6-.6.7-.2.3-.4.5-.6.8 0 .1 0 .2.1.2 0 .1 0 .2-.1.3-.1.2-.5.6-.7.9 0 .1-.1.2-.2.3l-.1.2q-.2.2-.4.5s-.2.3-.4.5l-.1.1-.1.2-.1.1c-.2.3-.6.9-.9 1 0 0-1.4-.9-1.5-.9-.4-.4-.9-.8-1.4-1.1-.1-.2-.5-.5-.6-.6q-.1-.2-.3-.3-.2-.1-.4-.3c-.3-.2-.5-.4-.7-.6-.1-.1-.2-.1-.3-.2s-.2-.2-.2-.2h.2v-.2s-.1.1-.2.1c0 0-.1.1-.2 0-.1-.2 0-.4 0-.5v-.1l.1-.1v-.1h-.1s.1-.4.2-.4c0-.1 0-.1.2-.2l-.1-.2.1-.2c.1-.1.1-.2.2-.3 0-.1.1-.3.1-.4.1 0 .1-.2.2-.2.1-.4 1.1-1.7 1.2-1.7l.2-.2c0-.1.3-.5.3-.5-.1-.1-.1-.1 0-.3q.1-.1.1-.2l.1-.1c.1-.2.1-.2.1-.2q.1-.2.3-.3c0-.1.1-.2.2-.2h.2c0-.1 0-.2.1-.2.1-.1.1-.1.1-.2s.1-.4.3-.3z" fill="#201d1e"/></svg>