<svg width="660" height="389" viewBox="0 0 660 389" fill="none" xmlns="http://www.w3.org/2000/svg">
<path d="M297.791 166.745C293.008 166.745 288.296 165.761 283.654 163.791C279.153 161.822 275.073 159.079 271.416 155.562C267.759 152.046 264.734 148.037 262.343 143.535C259.952 138.893 258.404 134.04 257.701 128.976L270.361 126.022C271.346 130.524 273.245 134.251 276.058 137.205C278.871 140.019 282.177 142.129 285.975 143.535C289.914 144.801 293.852 145.434 297.791 145.434L301.589 148.388V164.213L297.791 166.745ZM185.539 183.836C185.398 185.665 184.484 187.001 182.796 187.845C181.249 188.83 179.49 189.322 177.521 189.322C175.27 189.322 173.231 188.619 171.402 187.212C169.573 185.806 168.729 183.696 168.87 180.882C169.011 178.632 169.151 176.311 169.292 173.919C169.573 171.669 169.855 169.418 170.136 167.167C164.65 167.308 159.234 167.308 153.889 167.167C148.684 167.167 143.62 167.027 138.697 166.745C137.009 166.605 135.673 165.831 134.688 164.424C133.703 162.877 133.07 161.048 132.789 158.938C132.648 156.828 132.789 154.789 133.211 152.819C133.774 150.709 134.618 148.951 135.743 147.544C136.868 146.138 138.345 145.434 140.174 145.434C145.097 145.575 150.302 145.645 155.788 145.645C161.415 145.645 167.112 145.575 172.879 145.434C173.16 140.511 173.442 134.744 173.723 128.132C174.145 121.38 174.567 114.066 174.989 106.188C175.411 98.3109 175.833 90.2225 176.255 81.9232C176.677 73.4832 177.029 65.0432 177.31 56.6032C177.591 48.1632 177.802 40.0046 177.943 32.1272C178.084 24.2499 178.084 16.9352 177.943 10.1832C177.943 7.93255 178.717 6.24455 180.264 5.11922C181.952 3.85322 183.781 3.22021 185.75 3.22021C187.719 3.22021 189.548 3.85322 191.236 5.11922C192.924 6.24455 193.838 8.07322 193.979 10.6052C194.12 12.4339 194.12 15.9505 193.979 21.1552C193.838 26.2192 193.627 32.4085 193.346 39.7232C193.205 47.0379 192.924 54.9855 192.502 63.5662C192.221 72.1469 191.869 80.8682 191.447 89.7302C191.025 98.4516 190.673 106.821 190.392 114.839C194.331 107.103 199.043 99.9989 204.529 93.5282C210.015 87.0576 216.134 81.9232 222.886 78.1252C229.638 74.1866 236.742 72.2172 244.197 72.2172C250.386 72.2172 255.943 74.0459 260.866 77.7032C265.93 81.2199 269.939 86.0026 272.893 92.0512C275.847 97.9592 277.324 104.43 277.324 111.463C277.324 120.888 275.003 128.906 270.361 135.517C265.86 142.129 259.53 147.615 251.371 151.975C243.212 156.336 233.647 159.712 222.675 162.103C211.703 164.354 199.817 165.831 187.016 166.534C186.594 169.207 186.242 172.02 185.961 174.974C185.82 177.928 185.68 180.882 185.539 183.836ZM192.924 144.59C202.208 144.028 211 143.113 219.299 141.847C227.598 140.441 234.913 138.471 241.243 135.939C247.714 133.407 252.778 130.242 256.435 126.444C260.233 122.506 262.132 117.723 262.132 112.096C262.132 108.439 261.358 105.063 259.811 101.968C258.264 98.8736 256.083 96.4119 253.27 94.5832C250.457 92.6139 247.081 91.6292 243.142 91.6292C238.078 91.6292 233.014 92.9656 227.95 95.6382C222.886 98.1702 218.033 101.757 213.391 106.399C208.89 111.041 204.81 116.598 201.153 123.068C197.636 129.539 194.893 136.713 192.924 144.59Z" fill="white"/>
<path d="M297.827 166.745L294.029 163.58V148.599L297.827 145.434C302.188 145.434 306.056 144.52 309.432 142.691C312.949 140.722 315.833 137.627 318.083 133.407C320.475 129.047 322.163 123.42 323.147 116.527C323.147 112.167 323.358 108.509 323.78 105.555C324.202 102.461 325.117 100.14 326.523 98.5922C328.071 96.9042 330.251 96.0602 333.064 96.0602C335.878 96.0602 337.988 96.7636 339.394 98.1702C340.801 99.4362 341.504 100.984 341.504 102.812C341.504 104.782 341.293 106.751 340.871 108.72C340.449 110.549 340.027 112.518 339.605 114.628C339.183 116.738 338.972 118.989 338.972 121.38C338.972 125.882 339.957 129.961 341.926 133.618C343.896 137.276 346.568 140.159 349.944 142.269C353.32 144.379 357.118 145.434 361.338 145.434L365.136 148.388V164.213L361.338 166.745C353.602 166.745 346.99 164.424 341.504 159.782C336.018 155.14 332.15 149.021 329.899 141.425C328.493 146.349 326.172 150.709 322.936 154.507C319.842 158.305 316.114 161.33 311.753 163.58C307.533 165.69 302.891 166.745 297.827 166.745ZM327.367 220.55C325.398 220.55 323.71 219.988 322.303 218.862C321.037 217.737 320.053 216.33 319.349 214.642C318.787 212.954 318.505 211.196 318.505 209.367C318.505 205.851 319.42 202.897 321.248 200.505C323.077 198.255 325.257 197.129 327.789 197.129C330.321 197.129 332.361 197.692 333.908 198.817C335.596 200.083 336.792 201.56 337.495 203.248C338.339 205.077 338.761 206.976 338.761 208.945C338.761 212.743 337.636 215.627 335.385 217.596C333.275 219.566 330.603 220.55 327.367 220.55Z" fill="white"/>
<path d="M432.188 181.726C432.047 183.696 431.133 185.173 429.445 186.157C427.757 187.142 425.928 187.634 423.959 187.634C422.412 187.634 420.935 187.283 419.528 186.579C418.121 185.876 416.996 184.821 416.152 183.414C415.449 182.148 415.308 180.46 415.73 178.35C417.559 166.253 420.161 154.859 423.537 144.168C427.054 133.337 431.203 123.561 435.986 114.839C440.909 106.118 446.325 98.5922 452.233 92.2622C458.282 85.7916 464.682 80.8682 471.434 77.4922C478.186 73.9756 485.149 72.2172 492.323 72.2172C499.356 72.2172 505.475 74.0459 510.68 77.7032C515.885 81.2199 519.894 86.0026 522.707 92.0512C525.661 98.0999 527.138 104.852 527.138 112.307C527.138 121.31 525.38 128.976 521.863 135.306C518.487 141.636 513.634 146.841 507.304 150.92C500.974 155 493.519 158.235 484.938 160.626C476.498 162.877 467.214 164.495 457.086 165.479C446.958 166.323 436.338 166.745 425.225 166.745C417.066 166.745 410.103 164.846 404.336 161.048C398.569 157.11 394.7 151.624 392.731 144.59C390.058 151.061 385.838 156.406 380.071 160.626C374.444 164.706 368.185 166.745 361.292 166.745L357.494 163.58V148.599L361.292 145.434C365.653 145.434 369.662 144.52 373.319 142.691C377.117 140.722 380.212 137.768 382.603 133.829C384.994 129.75 386.19 124.475 386.19 118.004C386.19 115.472 386.331 113.292 386.612 111.463C387.034 109.635 387.808 108.228 388.933 107.243C390.058 106.259 391.887 105.766 394.419 105.766C397.514 105.766 399.694 106.61 400.96 108.298C402.367 109.846 402.929 111.674 402.648 113.784C402.085 117.864 401.734 121.802 401.593 125.6C401.593 129.398 402.226 132.774 403.492 135.728C404.899 138.682 407.29 141.074 410.666 142.902C414.042 144.59 418.895 145.434 425.225 145.434C434.509 145.434 443.441 145.153 452.022 144.59C460.603 144.028 468.48 143.043 475.654 141.636C482.828 140.23 489.088 138.26 494.433 135.728C499.778 133.196 503.928 130.031 506.882 126.233C509.836 122.295 511.313 117.582 511.313 112.096C511.313 108.439 510.61 105.063 509.203 101.968C507.796 98.8736 505.686 96.4119 502.873 94.5832C500.06 92.6139 496.402 91.6292 491.901 91.6292C485.993 91.6292 479.944 93.6689 473.755 97.7482C467.566 101.828 461.658 107.736 456.031 115.472C450.404 123.209 445.481 132.634 441.261 143.746C437.041 154.859 434.017 167.519 432.188 181.726ZM474.177 46.8972C472.208 46.8972 470.52 46.3345 469.113 45.2092C467.847 44.0839 466.862 42.6772 466.159 40.9892C465.596 39.3012 465.315 37.5429 465.315 35.7142C465.315 32.1975 466.229 29.3139 468.058 27.0632C469.887 24.6719 472.067 23.4762 474.599 23.4762C477.131 23.4762 479.171 24.1092 480.718 25.3752C482.406 26.5005 483.602 27.9775 484.305 29.8062C485.149 31.4942 485.571 33.3229 485.571 35.2922C485.571 39.0902 484.446 41.9739 482.195 43.9432C480.085 45.9126 477.412 46.8972 474.177 46.8972Z" fill="white"/>
<path d="M217.636 36.4111C216.37 35.5672 215.596 34.5122 215.315 33.2462C215.174 31.8395 215.385 30.5735 215.948 29.4482C216.51 28.3228 217.284 27.5492 218.269 27.1272C219.394 26.5645 220.66 26.7052 222.067 27.5492C224.739 29.2372 227.482 30.5032 230.296 31.3472C233.25 32.0505 236.063 32.4022 238.736 32.4022C241.549 32.4022 244.151 31.9802 246.543 31.1362C248.934 30.2922 250.833 29.1668 252.24 27.7601C249.708 28.0415 247.316 27.2678 245.066 25.4392C242.815 23.6105 241.69 20.9378 241.69 17.4212C241.69 14.3265 242.604 11.7945 244.433 9.82515C246.402 7.71516 248.864 6.66016 251.818 6.66016C255.334 6.66016 258.148 7.92616 260.258 10.4582C262.368 12.9902 263.423 16.3661 263.423 20.5862C263.423 24.9468 262.227 28.8152 259.836 32.1912C257.585 35.4265 254.49 37.9585 250.552 39.7872C246.754 41.6158 242.534 42.5302 237.892 42.5302C234.656 42.5302 231.28 42.0378 227.764 41.0532C224.247 40.0685 220.871 38.5211 217.636 36.4111Z" fill="#DDA15E"/>
<path d="M331.255 84.293C337.303 84.293 342.016 86.2623 345.392 90.201C348.908 94.1396 350.667 98.852 350.667 104.338C350.667 109.543 348.979 113.903 345.603 117.42C342.367 120.796 338.007 122.484 332.521 122.484C327.175 122.484 322.815 120.796 319.439 117.42C316.203 114.044 314.586 109.965 314.586 105.182C314.586 100.399 315.992 96.3903 318.806 93.155C321.76 89.779 325.628 88.091 330.411 88.091C331.536 88.091 332.45 88.513 333.154 89.357C333.998 90.201 334.49 91.256 334.631 92.522C334.771 93.6473 334.49 94.632 333.787 95.476C333.224 96.32 332.099 96.742 330.411 96.742C328.019 96.742 326.12 97.6563 324.714 99.485C323.448 101.173 322.815 102.931 322.815 104.76C322.815 107.433 323.729 109.613 325.558 111.301C327.386 112.848 329.637 113.622 332.31 113.622C335.123 113.622 337.514 112.848 339.484 111.301C341.453 109.613 342.438 107.292 342.438 104.338C342.438 101.525 341.383 98.9926 339.273 96.742C337.303 94.3506 334.56 93.155 331.044 93.155C329.918 93.155 329.004 92.733 328.301 91.889C327.738 90.9043 327.457 89.8493 327.457 88.724C327.457 87.5986 327.738 86.614 328.301 85.77C329.004 84.7853 329.989 84.293 331.255 84.293Z" fill="#DDA15E"/>
<path d="M449.77 12.1911C457.507 11.9098 465.314 10.6438 473.191 8.39311C481.069 6.00177 487.61 3.39944 492.814 0.58611C494.221 -0.117223 495.557 -0.187555 496.823 0.375113C498.089 0.93778 499.074 1.92245 499.777 3.32911C500.481 4.59511 500.692 5.93145 500.41 7.33811C500.129 8.74478 499.215 9.87011 497.667 10.7141C494.01 12.9648 489.579 15.0748 484.374 17.0441C479.17 18.8728 473.684 20.4201 467.916 21.6861C462.29 22.8114 456.804 23.4444 451.458 23.5851C449.77 23.5851 448.434 23.0928 447.449 22.1081C446.465 20.9828 445.902 19.7168 445.761 18.3101C445.621 16.7628 445.832 15.4264 446.394 14.3011C447.098 13.0351 448.223 12.3318 449.77 12.1911Z" fill="#DDA15E"/>
<path d="M77.226 357.011C66.5353 357.011 56.548 355.956 47.264 353.846C37.98 351.736 29.751 348.641 22.577 344.562C15.5437 340.342 9.98733 335.137 5.908 328.948C1.96933 322.618 0 315.303 0 307.004C0 297.72 2.532 289.21 7.596 281.473C12.66 273.736 20.467 267.477 31.017 262.694C32.9863 261.85 34.7447 261.217 36.292 260.795C37.98 260.232 39.5273 259.951 40.934 259.951C42.622 259.951 44.0287 260.514 45.154 261.639C46.42 262.624 47.4047 264.452 48.108 267.125C48.3893 268.25 48.53 269.516 48.53 270.923C48.53 272.189 48.1783 273.385 47.475 274.51C46.9123 275.495 45.787 276.268 44.099 276.831C39.879 278.378 35.7997 280.207 31.861 282.317C28.063 284.286 24.898 286.959 22.366 290.335C19.834 293.57 18.568 297.861 18.568 303.206C18.568 308.411 20.1153 312.982 23.21 316.921C26.3047 320.719 30.595 323.884 36.081 326.416C41.7077 328.948 48.1783 330.847 55.493 332.113C62.8077 333.379 70.685 334.012 79.125 334.012C89.253 334.012 99.0997 333.168 108.665 331.48C118.23 329.651 126.811 327.119 134.407 323.884C142.003 320.508 147.981 316.499 152.342 311.857C156.843 307.215 159.094 301.94 159.094 296.032C159.094 292.234 158.039 288.928 155.929 286.115C153.819 283.161 151.146 280.84 147.911 279.152C144.676 277.464 141.3 276.62 137.783 276.62C134.126 276.62 130.609 277.464 127.233 279.152C123.998 280.699 121.325 282.95 119.215 285.904C117.246 288.858 116.261 292.234 116.261 296.032C116.261 301.659 118.23 306.793 122.169 311.435C126.248 316.077 131.523 320.156 137.994 323.673C144.605 327.049 151.85 329.722 159.727 331.691C167.745 333.52 175.693 334.434 183.57 334.434L187.368 337.599V353.635L183.57 355.745C176.255 355.745 168.73 354.76 160.993 352.791C153.256 350.681 145.801 347.727 138.627 343.929C131.453 340.131 124.982 335.7 119.215 330.636C113.588 325.572 109.087 320.016 105.711 313.967C102.335 307.918 100.647 301.588 100.647 294.977C100.647 287.522 102.335 280.91 105.711 275.143C109.087 269.376 113.588 264.874 119.215 261.639C124.842 258.263 131.031 256.575 137.783 256.575C144.254 256.575 150.302 258.263 155.929 261.639C161.556 265.015 166.057 269.587 169.433 275.354C172.95 281.121 174.708 287.662 174.708 294.977C174.708 304.12 171.965 312.49 166.479 320.086C161.134 327.682 153.819 334.223 144.535 339.709C135.251 345.195 124.771 349.485 113.096 352.58C101.561 355.534 89.6047 357.011 77.226 357.011ZM136.939 232.099C134.97 232.099 133.282 231.536 131.875 230.411C130.609 229.286 129.624 227.879 128.921 226.191C128.358 224.503 128.077 222.745 128.077 220.916C128.077 217.399 128.991 214.516 130.82 212.265C132.649 209.874 134.829 208.678 137.361 208.678C139.893 208.678 141.933 209.311 143.48 210.577C145.168 211.702 146.364 213.179 147.067 215.008C147.911 216.696 148.333 218.525 148.333 220.494C148.333 224.292 147.208 227.176 144.957 229.145C142.847 231.114 140.174 232.099 136.939 232.099Z" fill="white"/>
<path d="M319.884 355.745C314.68 355.745 309.897 354.479 305.536 351.947C301.316 349.415 297.589 345.969 294.353 341.608C291.259 337.247 288.797 332.324 286.968 326.838C285.28 321.211 284.296 315.303 284.014 309.114L296.463 305.316C296.604 310.239 297.659 314.952 299.628 319.453C301.598 323.954 304.341 327.612 307.857 330.425C311.374 333.098 315.383 334.434 319.884 334.434L323.682 337.81V353.213L319.884 355.745ZM183.578 355.745L179.78 353.213V337.81L183.578 334.434C193.988 334.434 203.694 333.449 212.696 331.48C221.84 329.37 230.42 326.768 238.438 323.673C246.597 320.438 254.334 317.132 261.648 313.756C269.104 310.239 276.348 307.145 283.381 304.472C278.599 303.487 273.605 302.01 268.4 300.041C263.196 298.072 257.991 296.032 252.786 293.922C247.582 291.671 242.588 289.772 237.805 288.225C233.163 286.678 228.943 285.904 225.145 285.904C222.332 285.904 219.448 286.748 216.494 288.436C213.681 289.983 211.008 292.375 208.476 295.61C207.492 297.017 206.155 297.72 204.467 297.72C203.201 297.72 201.865 297.298 200.458 296.454C199.052 295.61 197.786 294.485 196.66 293.078C195.676 291.671 195.043 290.194 194.761 288.647C194.621 286.959 195.113 285.341 196.238 283.794C200.177 278.449 204.678 274.229 209.742 271.134C214.806 267.899 220.011 266.281 225.356 266.281C229.717 266.281 234.429 267.125 239.493 268.813C244.698 270.501 250.043 272.541 255.529 274.932C261.156 277.323 266.783 279.715 272.409 282.106C278.177 284.497 283.733 286.396 289.078 287.803C294.424 289.21 299.488 289.772 304.27 289.491C305.536 289.491 306.591 290.054 307.435 291.179C308.42 292.304 309.123 293.852 309.545 295.821C310.108 297.65 310.319 299.619 310.178 301.729C310.178 303.698 309.827 305.597 309.123 307.426C308.42 309.114 307.365 310.38 305.958 311.224C296.393 315.444 287.672 319.664 279.794 323.884C271.917 328.104 264.321 332.113 257.006 335.911C249.832 339.709 242.588 343.085 235.273 346.039C227.959 348.993 220.081 351.384 211.641 353.213C203.342 354.901 193.988 355.745 183.578 355.745Z" fill="white"/>
<path d="M506.51 355.745C502.712 355.745 498.985 355.042 495.327 353.635C491.67 352.228 488.294 350.048 485.199 347.094C482.105 344.14 479.432 340.342 477.181 335.7C474.931 330.917 473.313 325.15 472.328 318.398L483.933 307.004C483.933 311.927 484.918 316.499 486.887 320.719C488.857 324.798 491.529 328.104 494.905 330.636C498.422 333.168 502.29 334.434 506.51 334.434L510.308 337.81V353.213L506.51 355.745ZM390.882 370.726C390.742 372.695 389.827 374.172 388.139 375.157C386.451 376.142 384.623 376.634 382.653 376.634C381.106 376.634 379.629 376.282 378.222 375.579C376.816 374.876 375.69 373.821 374.846 372.414C374.143 371.148 374.002 369.46 374.424 367.35C376.253 355.253 378.855 343.859 382.231 333.168C385.748 322.337 389.898 312.56 394.68 303.839C399.604 295.118 405.019 287.592 410.927 281.262C416.976 274.791 423.376 269.868 430.128 266.492C436.88 262.975 443.843 261.217 451.017 261.217C458.051 261.217 464.17 263.046 469.374 266.703C474.579 270.22 478.588 275.002 481.401 281.051C484.355 287.1 485.832 293.852 485.832 301.307C485.832 310.31 484.074 317.976 480.557 324.306C477.181 330.636 472.328 335.841 465.998 339.92C459.668 343.999 452.213 347.235 443.632 349.626C435.192 351.877 425.908 353.494 415.78 354.479C405.652 355.323 395.032 355.745 383.919 355.745C375.761 355.745 368.798 353.846 363.03 350.048C357.263 346.109 353.395 340.623 351.425 333.59C348.753 340.061 344.533 345.406 338.765 349.626C333.139 353.705 326.879 355.745 319.986 355.745L316.188 352.58V337.599L319.986 334.434C324.347 334.434 328.356 333.52 332.013 331.691C335.811 329.722 338.906 326.768 341.297 322.829C343.689 318.75 344.884 313.475 344.884 307.004C344.884 304.472 345.025 302.292 345.306 300.463C345.728 298.634 346.502 297.228 347.627 296.243C348.753 295.258 350.581 294.766 353.113 294.766C356.208 294.766 358.388 295.61 359.654 297.298C361.061 298.845 361.624 300.674 361.342 302.784C360.78 306.863 360.428 310.802 360.287 314.6C360.287 318.398 360.92 321.774 362.186 324.728C363.593 327.682 365.984 330.073 369.36 331.902C372.736 333.59 377.589 334.434 383.919 334.434C393.203 334.434 402.136 334.153 410.716 333.59C419.297 333.027 427.174 332.043 434.348 330.636C441.522 329.229 447.782 327.26 453.127 324.728C458.473 322.196 462.622 319.031 465.576 315.233C468.53 311.294 470.007 306.582 470.007 301.096C470.007 297.439 469.304 294.063 467.897 290.968C466.491 287.873 464.381 285.412 461.567 283.583C458.754 281.614 455.097 280.629 450.595 280.629C444.687 280.629 438.639 282.669 432.449 286.748C426.26 290.827 420.352 296.735 414.725 304.472C409.099 312.209 404.175 321.633 399.955 332.746C395.735 343.859 392.711 356.519 390.882 370.726Z" fill="white"/>
<path d="M574.408 384.23C565.968 384.23 558.794 381.839 552.886 377.056C546.978 372.273 542.266 365.521 538.749 356.8C535.232 348.219 532.63 338.091 530.942 326.416C529.395 314.741 528.621 302.01 528.621 288.225C528.621 279.082 528.902 269.727 529.465 260.162C530.028 250.456 530.801 240.68 531.786 230.833C532.771 220.986 533.966 211.21 535.373 201.504C535.795 198.691 536.78 196.581 538.327 195.174C539.874 193.627 541.984 192.853 544.657 192.853C552.112 192.853 555.277 196.088 554.152 202.559C552.886 211.28 551.69 220.635 550.565 230.622C549.58 240.609 548.736 250.948 548.033 261.639C547.33 272.33 546.978 283.302 546.978 294.555C546.978 304.261 547.47 313.334 548.455 321.774C549.44 330.214 550.987 337.669 553.097 344.14C555.348 350.47 558.302 355.393 561.959 358.91C565.616 362.567 570.188 364.396 575.674 364.396C581.863 364.396 586.857 362.497 590.655 358.699C594.594 355.042 596.563 350.048 596.563 343.718C596.563 337.107 594.875 331.691 591.499 327.471C588.123 323.11 583.34 320.93 577.151 320.93C572.368 320.93 567.726 322.126 563.225 324.517C558.864 326.768 554.504 329.651 550.143 333.168C545.782 336.544 541.281 339.99 536.639 343.507C532.138 347.024 527.355 349.978 522.291 352.369C517.368 354.62 512.022 355.745 506.255 355.745L502.668 353.635V337.388L506.466 334.434C511.952 334.293 517.086 333.098 521.869 330.847C526.652 328.456 531.294 325.572 535.795 322.196C540.437 318.82 545.009 315.514 549.51 312.279C554.011 309.044 558.724 306.301 563.647 304.05C568.711 301.799 574.056 300.674 579.683 300.674C586.013 300.674 591.64 302.432 596.563 305.949C601.627 309.466 605.636 314.459 608.59 320.93C611.544 327.26 613.021 334.715 613.021 343.296C613.021 351.455 611.403 358.629 608.168 364.818C604.933 371.007 600.361 375.79 594.453 379.166C588.686 382.542 582.004 384.23 574.408 384.23Z" fill="white"/>
<path d="M646.951 357.222C645.966 357.222 644.7 357.011 643.153 356.589C641.605 356.167 640.269 355.323 639.144 354.057C638.018 352.791 637.456 350.822 637.456 348.149C637.456 341.397 637.526 334.082 637.667 326.205C637.807 318.187 637.948 309.888 638.089 301.307C638.37 292.586 638.651 283.724 638.933 274.721C639.214 265.718 639.495 256.856 639.777 248.135C640.058 239.273 640.339 230.763 640.621 222.604C640.902 214.305 641.183 206.568 641.465 199.394C641.605 196.581 642.52 194.541 644.208 193.275C646.036 192.009 648.146 191.376 650.538 191.376C653.632 191.376 655.883 192.22 657.29 193.908C658.696 195.596 659.329 197.706 659.189 200.238C659.048 206.427 658.837 213.25 658.556 220.705C658.274 228.02 657.993 235.686 657.712 243.704C657.571 251.581 657.36 259.599 657.079 267.758C656.657 282.106 656.305 295.891 656.024 309.114C655.883 322.196 655.672 334.926 655.391 347.305C655.391 348.852 655.109 350.4 654.547 351.947C653.984 353.494 653.07 354.76 651.804 355.745C650.678 356.73 649.061 357.222 646.951 357.222Z" fill="white"/>
<path d="M55.5375 376.652C63.2742 376.371 71.0812 375.034 78.9585 372.643C86.8359 370.392 93.3769 367.86 98.5815 365.047C99.9882 364.344 101.325 364.273 102.591 364.836C103.857 365.399 104.841 366.313 105.545 367.579C106.248 368.986 106.459 370.392 106.178 371.799C105.896 373.206 104.982 374.331 103.435 375.175C99.7772 377.426 95.3462 379.465 90.1415 381.294C84.9369 383.263 79.4509 384.811 73.6835 385.936C68.0569 387.202 62.5709 387.905 57.2255 388.046C55.5375 388.046 54.2012 387.483 53.2165 386.358C52.2319 385.373 51.6692 384.107 51.5285 382.56C51.3879 381.153 51.5989 379.817 52.1615 378.551C52.8649 377.426 53.9902 376.793 55.5375 376.652Z" fill="#DDA15E"/>
<path d="M225.282 245.191C233.019 244.91 240.826 243.644 248.703 241.393C256.58 239.002 263.121 236.399 268.326 233.586C269.733 232.883 271.069 232.812 272.335 233.375C273.601 233.938 274.586 234.922 275.289 236.329C275.992 237.595 276.203 238.931 275.922 240.338C275.641 241.745 274.726 242.87 273.179 243.714C269.522 245.965 265.091 248.075 259.886 250.044C254.681 251.873 249.195 253.42 243.428 254.686C237.801 255.811 232.315 256.444 226.97 256.585C225.282 256.585 223.946 256.093 222.961 255.108C221.976 253.983 221.414 252.717 221.273 251.31C221.132 249.763 221.343 248.426 221.906 247.301C222.609 246.035 223.735 245.332 225.282 245.191Z" fill="#DDA15E"/>
<path d="M432.097 218.293C438.145 218.293 442.858 220.262 446.234 224.201C449.75 228.14 451.509 232.852 451.509 238.338C451.509 243.543 449.821 247.903 446.445 251.42C443.209 254.796 438.849 256.484 433.363 256.484C428.017 256.484 423.657 254.796 420.281 251.42C417.045 248.044 415.428 243.965 415.428 239.182C415.428 234.399 416.834 230.39 419.648 227.155C422.602 223.779 426.47 222.091 431.253 222.091C432.378 222.091 433.292 222.513 433.996 223.357C434.84 224.201 435.332 225.256 435.473 226.522C435.613 227.647 435.332 228.632 434.629 229.476C434.066 230.32 432.941 230.742 431.253 230.742C428.861 230.742 426.962 231.656 425.556 233.485C424.29 235.173 423.657 236.931 423.657 238.76C423.657 241.433 424.571 243.613 426.4 245.301C428.228 246.848 430.479 247.622 433.152 247.622C435.965 247.622 438.356 246.848 440.326 245.301C442.295 243.613 443.28 241.292 443.28 238.338C443.28 235.525 442.225 232.993 440.115 230.742C438.145 228.351 435.402 227.155 431.886 227.155C430.76 227.155 429.846 226.733 429.143 225.889C428.58 224.904 428.299 223.849 428.299 222.724C428.299 221.599 428.58 220.614 429.143 219.77C429.846 218.785 430.831 218.293 432.097 218.293Z" fill="#DDA15E"/>
<path d="M564.537 267.411C563.271 266.567 562.497 265.512 562.216 264.246C562.075 262.839 562.286 261.573 562.849 260.448C563.412 259.323 564.185 258.549 565.17 258.127C566.295 257.564 567.561 257.705 568.968 258.549C571.641 260.237 574.384 261.503 577.197 262.347C580.151 263.05 582.964 263.402 585.637 263.402C588.45 263.402 591.053 262.98 593.444 262.136C595.835 261.292 597.734 260.167 599.141 258.76C596.609 259.041 594.218 258.268 591.967 256.439C589.716 254.61 588.591 251.938 588.591 248.421C588.591 245.326 589.505 242.794 591.334 240.825C593.303 238.715 595.765 237.66 598.719 237.66C602.236 237.66 605.049 238.926 607.159 241.458C609.269 243.99 610.324 247.366 610.324 251.586C610.324 255.947 609.128 259.815 606.737 263.191C604.486 266.426 601.392 268.958 597.453 270.787C593.655 272.616 589.435 273.53 584.793 273.53C581.558 273.53 578.182 273.038 574.665 272.053C571.148 271.068 567.772 269.521 564.537 267.411Z" fill="#DDA15E"/>
<path d="M543.427 181.293C549.475 181.293 554.188 183.262 557.564 187.201C561.08 191.14 562.839 195.852 562.839 201.338C562.839 206.543 561.151 210.903 557.775 214.42C554.539 217.796 550.179 219.484 544.693 219.484C539.347 219.484 534.987 217.796 531.611 214.42C528.375 211.044 526.758 206.965 526.758 202.182C526.758 197.399 528.164 193.39 530.978 190.155C533.932 186.779 537.8 185.091 542.583 185.091C543.708 185.091 544.622 185.513 545.326 186.357C546.17 187.201 546.662 188.256 546.803 189.522C546.943 190.647 546.662 191.632 545.959 192.476C545.396 193.32 544.271 193.742 542.583 193.742C540.191 193.742 538.292 194.656 536.886 196.485C535.62 198.173 534.987 199.931 534.987 201.76C534.987 204.433 535.901 206.613 537.73 208.301C539.558 209.848 541.809 210.622 544.482 210.622C547.295 210.622 549.686 209.848 551.656 208.301C553.625 206.613 554.61 204.292 554.61 201.338C554.61 198.525 553.555 195.993 551.445 193.742C549.475 191.351 546.732 190.155 543.216 190.155C542.09 190.155 541.176 189.733 540.473 188.889C539.91 187.904 539.629 186.849 539.629 185.724C539.629 184.599 539.91 183.614 540.473 182.77C541.176 181.785 542.161 181.293 543.427 181.293Z" fill="#DDA15E"/>
</svg>
