<svg height="30" viewBox="0 0 70 30" width="70" xmlns="http://www.w3.org/2000/svg"><g fill="#191c4f"><path d="m63.2 20.7v.6c0 .2-.1.6-.2 1s-.9.5-1.4.2c-.9 1.3-1.7.6-2.1.5-.8-.3-1 .2-1.2.4-1 1.1-2.8 1-3.2 1.1-.4 0-.1-.2.1-.3 1.4-.5 2.3-.6 3.5-1.8.6-.5.9-.3 1.1-.2 1.2.5 1.4 0 1.5-.1.2-.2.4-.8.5-1s.2 0 .1.1c0 .2 0 .4-.1.5.5.3 1 0 1.1-.1 0 0 0-.3 0-.5q0-.1.1-.6c.1-.3.2 0 .2.2z"/><path d="m30.3 20.5s-.1.4-.2.7c-.4 1.3-.1 1.9-.1 2 .5.6 1 .3 1.2-.2 0-.3.1-.2.1-.1q0 .2 0 .4c-.3.8-.6 1.1-.9 1.1-.5 0-.8-.6-.8-1-.2-1.4.4-2.6.5-3 .1-.3.3-.2.2.1z"/><path d="m9.6 18.2s-.1.3-.2.6c-.3 1.2-.1 1.8 0 1.9.4.6.8.3 1-.2 0-.3.1-.1.1 0q0 .1-.1.3c-.2.8-.5 1-.7 1-.5 0-.7-.6-.7-.9-.2-1.3.3-2.5.4-2.8s.3-.2.2.1z"/><path d="m20.6 17.8s-.1.3-.1.6c-.4 1.2-.1 1.8-.1 1.9.4.6.8.3 1-.2.1-.3.1-.1.1 0q0 .1 0 .3c-.2.8-.5 1-.8 1-.4 0-.7-.6-.7-.9-.2-1.3.3-2.5.5-2.8.1-.3.2-.2.1.1z"/><path d="m15.2 15.8s-.1.6-.2 1c-.5 2.1-.1 3 0 3.2.5 1 1.1.4 1.4-.4 0-.4.2-.2.1 0q0 .2 0 .6c-.3 1.3-.7 1.6-1.1 1.6-.6.1-1-.9-1-1.4-.3-2.2.4-4.2.6-4.7.1-.6.3-.4.2.1z"/><path d="m35 16c-.1.6-.2 2.4-4.1 3.7-.4.1-2.9.8-5.2.2q-.1.4-.1.6s-.3 3.5-7.3 5.5c-9.1 2.6-13.8-3-14.2-3.5-.3-.5 0-.5.3-.2 5.1 3.8 12.1 2.7 12.5 2.6 6.2-1.1 8.1-4.3 8.2-4.6s-.8-2.1-1-2.4c0 0 .1-.8.2-1 0-.2 0-.3.2 0q.6.8.8 1.4.2 0 .8.2s1.4-2.8 2.8-4.2c.3-.3 2.2-2.2 4.7-.7.4.3 1.6 1.4 1.4 2.4zm-1 0c-1.1-1.5-2.5-1.5-2.8-1.5-2.3-.2-4.4 3.9-4.5 4.1 0 0 3.9.9 7-1.9.4-.4.4-.5.3-.7z" fill-rule="evenodd"/><path d="m9.6 13.5c.1.2 0 .7-.1 1 0 .2-.2.1-.3-.1 0 0-.2-.1-.4-.2-.6-.5-.8.5-.8 1v2.2c-.1.3-.2.3-.3.1-.6-1.4-1.4-2-1.6-2.2-.1-.1-.2.1-.3.2 0 .1-.1.1-.1.1-.1-.1-.6-.3-.8-.5-.1-.1-.1-.7-.1-.9 0-.4.2-.5.3-.5 1.8.8 2.4 2.4 2.5 2.7 0-1.2 0-2.3.6-3.2.4-.7 1.3.2 1.4.3z"/><path d="m41.4 19.1c-.4 1.1-2.1 1.8-2.5 1.9-1.4.5-1.5-1-1.4-2.1s.8-2.5.8-2.5-1.6-1.2-1.7-1.3c-.1-.2-.3-.3-.4-.4-.2-.1-.2-.2-.2-.2s.1-1.1.1-1.2c0-.2 0-.1.2-.1.1.1 1.8.8 1.9.9.2 0 .2.2.1.2s-.7.2-.7.2l1.4 1s1.9-2.5 2.1-2.8c.2-.2.2-.1.1.2 0 .2-.4 1.3-.5 1.4-.1.2-1 1.6-1 1.6s1.2.7 1.6 1.2c.5.8.2 1.5.1 2zm-2.5-2.3s-.8 1.5-1 1.8c-.3.9.5 1 .8 1 .4 0 1.5-.6 2.1-1.1.5-.4-1.6-1.5-1.9-1.7z" fill-rule="evenodd"/><path d="m65 17.7c-.1.2-.4 1.3-2 1-.4-.1-1.2-.2-1.5-1.1-.4.5-1.3 2-3.1 1.7-.4 0-1.6-.5-1.7-2.1 0 0-1.4 1.2-2.1 1.6.1.5 0 1.2-.2 1.9-.3.7-3.5 4.3-6.1 4.9-.8.1-4.1.8-4.2-2.9-.1-.8 0-1.4 0-1.8-2 1.6-4.4 2.8-5.1 3.1-1.1.6-4.9 1.2-5.5 1.3-.5.1-.6 0-.3-.2.3-.1 8.6-3 13-7.5.1-.2.1-.4-.1-.6-.1-.2-1.4-2.8-1.6-3.2-.1-.3-.3-.7-.4-.8q0-.2 0-.5c0-.1.1-.8.2-.9 0-.2.1-.1.2 0s1.4 1.5 1.6 1.6c.2.2 0 .3 0 .3-.1 0-.7 0-.7 0s.9 1.5 1.1 2.1c.6 1.2.3 2.2.1 2.6-.4.8-1.1 1.6-2 2.3-.1.7-.4 3.7 2.4 3.8.4 0 1.9.2 4.7-2.2.7-.5 1.4-1.1 2.1-2 .2-.4.4-1-.1-1-.4.1-3.4 1.2-3.8-.6-.1-.5.1-4.7 3-2.6.3.2.9.7 1.3 1.5.5-.2 1.4-.7 2.5-1.6.3-.3.6-.4.6 0s-.2 2.8 2.4 2.1c.3-.1 1.5-.3 2.3-2.4.2-.5.5-.5.3 0s-.5.9-.2 1.2c.3.2 1 .8 2 .7.3-.1.5-.2.4-.5-.2-.3-.5-.8-.5-.8.1-.3.2-.9.3-1 0-.2.1-.3.2-.2s1 1.3.5 2.8zm-12.1.1c-.9-1.3-2-.5-2.2-.4-.1.1-.2.5.8.6 1 0 1.4-.2 1.4-.2z" fill-rule="evenodd"/><path d="m20.7 10.7s-.1.3-.2.6c-.3 1.2-.1 1.8 0 1.9.4.6.8.3.9-.2.1-.3.2-.1.2 0q0 .1-.1.4c-.2.7-.5.9-.7.9-.5 0-.7-.6-.7-.9-.2-1.3.3-2.5.4-2.8s.2-.2.2.1z"/><path d="m39.7 10 1.2.9q.1.1 0 .1l-.7 1q0 0-.1 0l-1.1-.9-.6.9q0 0-.1 0l-1.2-.9q0 0 0-.1l.7-.9q0-.1.1-.1l1.1.9.6-.8q.1-.1.1-.1z"/><path d="m61.9 10.1s-.1.3-.1.5c-.4 1.1-.2 1.5-.1 1.6.2.6.6.3.8-.1 0-.2.1-.1.1 0q0 .1-.1.3c-.2.6-.4.8-.6.8-.4 0-.6-.5-.6-.8-.1-1.1.4-2.1.5-2.4.1-.2.2-.1.1.1z"/><path d="m50.1 9.5s-.1.3-.1.5c-.4 1.2-.2 1.7-.2 1.8.3.6.8.3.9-.2.1-.2.2-.1.1 0q0 .1 0 .4c-.2.7-.5.8-.7.8-.5 0-.6-.5-.7-.8 0-1.2.5-2.3.6-2.6s.2-.2.1.1z"/><path d="m6.7 7.4s-.1.4-.1.6c-.5 1.3-.2 1.9-.1 2.1.4.6 1 .2 1.1-.3.1-.2.2-.1.2 0q0 .1-.1.4c-.2.8-.5 1-.8 1-.6 0-.8-.6-.9-.9-.2-1.4.4-2.6.6-3 .1-.4.2-.2.1.1z"/><path d="m33.5 7c-.1.9-.3 1.7-.4 1.9 0 .2-.1.3-.1.1s.1-.8.1-1.1c.1-.4.2-.7-.1-.5-.2.1-3.2 2.3-7.3 2.1 0 .4-.1.8-.1.9-.1.1-.2.1-.2 0 0-.2-.1-.8-.5-1.1-.1-.1-.1-.7-.1-.9-.1-.3.1-.2.3-.1.1.1 3.3 1 7.6-1.6.3-.2.9-.6.8.3z"/><path d="m17.1 6.1c.2.2.1.7 0 1 0 .2-.2 0-.3-.1 0 0-.2-.2-.4-.3-.6-.4-.8.6-.8 1.1v2.2q0 0 0 .1c-.1.5-.2 1.3-1.1 1.9-1.1.9-1.2.9-1.3 1 0 .1-.1 0 .1-.2.1-.1 2.2-2.1 1.9-3-.4-1.1-1.3-1.8-1.4-1.9-.2-.1-.3.1-.3.2s-.1.1-.2.1c-.1-.1-.5-.3-.7-.5-.2-.1-.2-.7-.2-.9 0-.4.3-.5.4-.5 1.7.8 2.4 2.4 2.5 2.7-.1-1.3-.1-2.3.5-3.2.4-.7 1.3.2 1.3.3z"/><path d="m49.1 4.7c-.1.1-.1.1-.2.3 0 .2-.2.3-.4.4-.2.2-6.4 3.7-6.5 3.8-.3.2-.3.1-.3 0q.1-.1.1-.4c0-.2.1-.2.4-.4.2-.1 6.4-3.7 6.6-3.8.4-.2.3-.1.3.1z"/><path d="m56.6 5c.1.3 0 .8-.1 1.1-.1.2-.2 0-.4-.2 0 0-.1-.1-.3-.3-.6-.5-.8.5-.9 1 0 .4-.1 1.5-.2 2.2 0 .3-.2.2-.3.1-.4-1.5-1.2-2.2-1.4-2.3-.1-.2-.2.1-.2.2-.1 0-.2 0-.2 0-.1 0-.6-.3-.7-.5-.2-.2-.1-.7-.1-.9 0-.4.3-.5.4-.5 1.6 1 2.2 2.6 2.3 2.9 0-1.3.1-2.4.7-3.2.6-.7 1.3.3 1.4.4z"/><path d="m62.7 7.7c-.1.1-.1 0-.3-.2 0-.1-.2-.3-.4-.4-.3.6-.3.6-1.3 1.5-2.3 2-4.8 2.7-4.9 2.7-.2.1-.2-.1.1-.2.7-.6 4-2.1 5.7-4.1 0 0-.6-.2-.9-.5-.4-.3-.2-1.2.1-1.5.6-1 1.2-.5 1.3-.4.5 1 .2 1.9.2 1.9.3.2.6.5.4 1.2zm-1.1-2.5c-.1-.1-.3-.1-.6.4-.1.1 0 .3.2.3.3.1.7.4.7.4 0-.2.1-.7-.3-1.1z" fill-rule="evenodd"/><path d="m22.5 4.5s-.1.3-.1.6c-.4 1.2-.1 1.8-.1 1.9.4.6.8.3 1-.2.1-.2.1-.1.1 0q0 .1 0 .4c-.2.7-.5.9-.8.9-.4 0-.7-.6-.7-.9-.2-1.3.3-2.5.5-2.8.1-.3.2-.2.1.1z"/><path d="m39.4 7.3c-.1.2-.1.1-.2-.1-.1-.1-.5-.4-.5-.4s-.5 1.1-1.3 1.7c-1.6 1.1-2.9 1.4-3 1.4s-.2-.1.1-.3c1-.5 2.1-.9 3.8-3 0 0-.6-.2-.9-.4-.4-.3-.2-1.2.1-1.6.6-1 1.2-.5 1.3-.3.5.9.2 1.9.2 1.9.3.1.6.5.4 1.1zm-1.1-2.4c-.1-.1-.3-.1-.6.3-.1.2 0 .3.2.4.3.1.7.3.7.3.1-.1.1-.7-.3-1z" fill-rule="evenodd"/></g></svg>