<svg height="30" viewBox="0 0 70 30" width="70" xmlns="http://www.w3.org/2000/svg"><g fill="#191c4f"><path d="m11.1 22s-.1.3-.2.5c-.3 1-.1 1.4 0 1.5.3.5.7.2.8-.2.1-.2.2-.1.2 0q-.1.1-.1.3c-.1.6-.4.8-.6.8-.4 0-.6-.5-.7-.7-.1-1.1.3-2 .4-2.3s.2-.2.2.1z"/><path d="m22.5 21.4s-.1.3-.1.5c0 .3-.1.6-.3.9-.1.4-.9.4-1.3.1-.9 1.2-1.6.5-2 .3-.7-.3-.9.1-1.1.3-1 1-2.7.8-3.1.8s0-.2.2-.3c1.3-.3 2.1-.4 3.4-1.3.5-.5.8-.3 1-.2 1.1.6 1.3.1 1.4 0 .2-.1.4-.7.5-.8.1-.2.2-.1.1.1 0 .1-.1.3-.1.4.4.4.9.1 1 0 0 0 0-.3 0-.4q0-.2.2-.6c.1-.3.2 0 .2.2z"/><path d="m36.8 20.3 1.1.8q.1.1 0 .1l-.6.9q0 .1-.1 0l-1.1-.7-.5.7q-.1.1-.1 0l-1.1-.8q-.1 0 0-.1l.6-.8q.1-.1.1-.1l1.1.8.5-.7q.1-.1.1-.1z"/><path d="m64 20.5v.6c0 .2-.2.6-.3.9-.1.4-.8.5-1.3.2-.8 1.2-1.5.6-1.9.4-.7-.3-.9.2-1.1.4-.9 1.1-2.6 1-3 1.1-.4 0-.1-.3.1-.3 1.3-.5 2.1-.6 3.3-1.7.5-.5.8-.2 1-.2 1.1.5 1.3 0 1.4-.1.2-.1.4-.7.4-.9.1-.2.2 0 .2.1s-.1.3-.1.4c.4.4.9.1 1 0 0 0-.1-.3-.1-.5q0-.1.2-.5c.1-.3.1-.1.2.1z"/><path d="m43.6 19c-.3 1.1-1.9 1.7-2.2 1.8-1.4.4-1.5-1-1.4-2s.8-2.2.8-2.2c-.1-.1-1.5-1.2-1.6-1.3s-.3-.3-.4-.4-.1-.1-.1-.1 0-1.1 0-1.2.1-.1.2 0c.1 0 1.7.7 1.8.7.2.1.1.3.1.3-.1 0-.7.1-.7.1l1.3 1s1.8-2.4 2-2.6.1-.1.1.1c0 .3-.4 1.3-.5 1.4 0 .2-1 1.4-1 1.4s1.2.8 1.5 1.2c.5.7.2 1.4.1 1.8zm-2.2-2.1s-.8 1.4-.9 1.7c-.4.8.4.9.7.9s1.4-.6 1.9-1-1.4-1.4-1.7-1.6z" fill-rule="evenodd"/><path d="m12.6 14.4c.1.3 0 .7-.1 1 0 .1-.2 0-.3-.2 0 0-.1-.1-.2-.2-.5-.5-.7.4-.8.8 0 .3-.1 1.4-.2 2 0 .2-.1.2-.2 0-.4-1.3-1-1.9-1.1-2-.2-.1-.2.1-.3.2h-.1c-.1 0-.5-.3-.6-.4-.1-.2-.1-.7-.1-.9.1-.3.3-.4.4-.4 1.3.9 1.8 2.3 1.8 2.5.1-1 .1-2 .7-2.7.4-.6 1.1.2 1.1.3z"/><path d="m65.6 17.7c-.1.3-.4 1.3-1.8 1-.4-.1-1.1-.2-1.4-1-.4.4-1.2 1.8-2.9 1.6-.3-.1-1.5-.5-1.6-2 0 0-1.3 1.1-2 1.4.1.6.1 1.2-.2 1.8-.2.7-3.2 4-5.6 4.5-.8.2-3.8.8-4-2.6 0-.7.1-1.3.1-1.7-1.9 1.5-4.1 2.6-4.8 2.9-1 .5-4.5 1.1-5.1 1.2-.4.1-.5 0-.3-.2.3-.1 8.1-2.7 12.1-7q.2-.2 0-.5c-.1-.2-1.4-2.6-1.5-3-.1-.3-.3-.7-.4-.8q-.1-.2 0-.4c0-.1.1-.7.2-.9 0-.1.1-.1.1 0 .1.1 1.4 1.4 1.5 1.6.2.2.1.2 0 .2h-.6s.8 1.4 1 1.9c.5 1.2.3 2.1.1 2.5-.4.8-1.1 1.5-1.8 2.2-.2.6-.4 3.4 2.2 3.5.4 0 1.7.1 4.4-2 .6-.5 1.3-1.1 1.9-2 .2-.3.4-.9-.1-.8-.4 0-3.1 1.1-3.5-.6-.1-.4.1-4.4 2.8-2.4.2.1.8.6 1.2 1.4.4-.2 1.3-.7 2.3-1.6.3-.2.6-.3.6 0 0 .4-.3 2.7 2.2 2 .3-.1 1.3-.3 2.1-2.3.2-.4.5-.3.3 0-.2.5-.4 1-.2 1.2.3.2 1 .7 1.8.6.4 0 .5-.2.4-.4-.1-.3-.4-.8-.4-.8.1-.3.2-.8.2-.9.1-.2.1-.3.2-.1.1.1.9 1.1.5 2.5zm-11.2.1c-.9-1.1-1.9-.5-2-.3-.2.1-.2.4.6.5 1 0 1.4-.2 1.4-.2z" fill-rule="evenodd"/><path d="m24.9 11.6s-.1.4-.2.6c-.4 1.2-.1 1.8 0 1.9.4.6.9.2 1-.2.1-.3.2-.2.2-.1q-.1.1-.1.4c-.2.8-.5 1-.8 1-.5 0-.7-.6-.8-.9-.1-1.3.4-2.4.5-2.8.1-.3.3-.2.2.1z"/><path d="m35.3 16.8c.1 1.6-1.3 2.2-1.5 2.3.2 2-1.6 3.5-1.9 3.7-4.2 3.6-6.1 1.5-6.3 1.1-1.1-1.3-.3-3.8-.1-4.2-.4-.2-.6-.5-.6-.5-.5 1.2-2 1.9-3.4.3 0 0-.5.7-1.1.9-1.9.9-3.2 0-3.4-.1-.4-.3-.6-.7-.8-1q-.3.2-.5.3s-1.6.8-2.1 1c-4.4 1.8-6.8.4-7.2.2-2.2-1.6-1-4.2-.5-5.2q-.1 0-.1 0c-.5 0-.8-.7-.8-1-.1-1.5.5-2.7.6-3.1.2-.4.3-.2.2.1 0 0-.1.4-.2.6-.4 1.4-.2 2-.1 2.1.4.7.9.4 1-.2.1-.2.2-.1.2 0q0 .1-.1.4-.1.6-.3.8c-.2.4-.6 1.4-.6 1.6-.6 2.7 2.5 3.3 3.2 3.3 3.5.4 6.8-1.9 6.8-1.9-.8-1.7-.1-3.6.6-4.2.7-.7 1.3.3 1.4.5.8 1.3.4 2.6.3 2.9-.2.5-.6.9-1 1.2 1 1.1 2.5.8 2.9.7 1.2-.4 1.9-1.6 2.2-1.9.2-.3.2 0 .1.2 0 .2-.1.4-.2.7-.1.2.5.6.7.7 1.1.5 1.8-.4 2-.7.1-.3.4-1.1.5-1.3.1-.1.2 0 .2.2 0 .1-.1.5-.1.6.8 1.1 1.7.7 1.8.6.2-.1-.2-.8-.3-1.2 0 0 .3-.8.3-.9.1-.1.2 0 .2 0 0 .1.3.9.4 1.2.2.6 0 1.3-.1 1.5-.4 1-1 .9-1.4.9q-.2 0-.4-.1c-.1.4-.4 1.7-.1 2.5.9 2.1 3.3 1 3.6.8 3.2-1.6 3.9-3.2 4-3.6.2-.4-.4-.2-.7-.1-.2.1-1 .2-1.4.2-1.5-.3-1.1-2-1-2.3.7-1.8 1.9-1.2 2.1-1 .9.7 1.2 1.5 1.2 1.5.4-.1.8-.4 1.1-.7.3-.2-.5-1.4-.8-1.8-.2-.3-.9-1.6-1-1.8 0 0 .2-1.2.3-1.3 0-.1 0-.1.1 0s1.6 1.8 1.7 1.9 0 .1-.1.1c-.1-.1-.7-.2-.7-.2s.5.8.7 1.1c.5.8.5 1.3.5 1.6zm-2.9 1.4c-.1-.2-.9-1-1.4-.5-.5.4-.1.6.2.6.8.1 1.2-.1 1.2-.1zm-14.7-1.6c-.2-.4-.8-1.7-1.3-1.3-1.1 1.1 0 2.5 0 2.5.2-.1 1.4-.9 1.3-1.2z" fill-rule="evenodd"/><path d="m15.8 11.1 1.1.8q0 .1 0 .1l-.7.9q0 .1-.1 0l-1.1-.8q0 0 0-.1l.7-.8q0-.1.1-.1z"/><path d="m42.1 10.6 1.1.8q.1.1 0 .1l-.6.9q-.1 0-.1 0l-1.1-.8-.5.8q-.1 0-.1 0l-1.1-.8q-.1 0 0-.1l.6-.9q.1 0 .1 0l1.1.8.5-.8q.1 0 .1 0z"/><path d="m62.8 10.7s-.1.3-.2.4c-.3 1-.1 1.5-.1 1.6.3.4.6.2.8-.2 0-.2.1-.1.1 0q0 .1-.1.3c-.2.6-.4.7-.6.7-.4 0-.5-.4-.5-.7-.1-1 .3-1.9.4-2.2s.2-.1.2.1z"/><path d="m51.8 10.1s-.1.3-.2.5c-.3 1.1-.1 1.5-.1 1.6.3.6.7.3.8-.1.1-.2.2-.1.1 0q0 .1 0 .3c-.2.7-.5.8-.7.8-.4 0-.5-.5-.6-.8 0-1.1.4-2.1.6-2.4.1-.3.2-.1.1.1z"/><path d="m8.2 6.4s0 .3-.1.5c-.3 1-.1 1.4 0 1.5.3.5.7.2.8-.1.1-.2.1-.1.1-.1q0 .1 0 .3c-.2.7-.4.8-.7.8-.4 0-.6-.4-.6-.7-.1-1 .3-2 .4-2.2.1-.3.2-.2.1 0z"/><path d="m26.1 8.9c-.1.2-.1.1-.3 0-.1-.1-.2-.3-.4-.4-.2.6-.2.6-1.1 1.5-1.9 2.1-4.1 2.9-4.2 3-.2 0-.2-.1 0-.2.6-.7 3.5-2.3 4.9-4.4 0 0-.5-.1-.9-.3-.3-.2-.3-1.1-.1-1.5.5-1 1.1-.5 1.2-.4.6.8.4 1.7.4 1.7.3.2.6.5.5 1zm-.9-1.2c0-.1 0-.6-.3-.9-.2-.1-.3-.1-.6.4-.1.1.1.2.3.3s.6.2.6.2z" fill-rule="evenodd"/><path d="m20.5 6.2s-.1.4-.2.6c-.4 1.3-.1 1.8 0 1.9.4.6.9.3 1-.2.1-.2.2-.1.2 0q0 .1-.1.3c-.2.8-.5 1-.8 1-.5 0-.7-.6-.8-.9-.1-1.3.4-2.4.5-2.8.2-.3.3-.1.2.1z"/><path d="m18.6 6c0 .1-.1.2-.2.4s-.2.3-.4.4-7.8 3.6-8.6 4c-.8.5-.7.8-.5.9.5.2.8.6.5 1.3-.1 0-.1 0-.1 0-.1-.1-.3-.3-.6-.4-.4 0-.5-.7-.3-1.3.1-.4.4-.8.7-1.1.6-.5 9-4.2 9.2-4.3.4-.2.4-.1.3.1z"/><path d="m34.7 8.7c-.1.2-.1.1-.3-.1-.1-.1-.2-.2-.4-.3-.2.5-.2.6-1.1 1.5-1.9 2-4.1 2.9-4.3 3-.1 0-.1-.1.1-.3.6-.6 3.5-2.3 4.9-4.3 0 0-.5-.1-.9-.4-.4-.2-.3-1-.1-1.4.5-1 1.1-.6 1.2-.4.6.8.4 1.7.4 1.7.3.1.6.4.5 1zm-.9-1.2c0-.1 0-.7-.4-.9-.1-.1-.2-.1-.5.4-.1.1.1.2.3.3.2 0 .6.2.6.2z" fill-rule="evenodd"/><path d="m50.8 5.6c0 .1 0 .2-.1.4-.1.1-.2.2-.4.3s-5.9 3.5-6.1 3.5c-.3.3-.3.1-.2 0q0-.1 0-.3c.1-.2.2-.2.4-.4.2-.1 5.9-3.4 6.2-3.6s.3 0 .2.1z"/><path d="m57.8 6c.1.2 0 .7-.1.9 0 .2-.2 0-.3-.1 0 0-.2-.2-.3-.3-.6-.5-.8.5-.9.9 0 .4-.1 1.4-.2 2.1 0 .2-.2.2-.2 0-.4-1.3-1.2-2-1.3-2.1-.2-.1-.3.1-.3.2h-.1c-.1 0-.6-.3-.7-.5-.1-.1-.1-.6-.1-.8 0-.4.3-.5.4-.4 1.5.8 2 2.4 2.1 2.6.1-1.1.1-2.2.7-2.9.5-.7 1.3.3 1.3.4z"/><g fill-rule="evenodd"><path d="m63.5 8.4c-.1.1-.1 0-.3-.1 0-.1-.2-.3-.4-.4-.2.5-.2.6-1.2 1.4-2.1 1.8-4.4 2.5-4.5 2.5-.2 0-.2-.1 0-.2.7-.6 3.8-1.9 5.3-3.8 0 0-.5-.2-.8-.5-.3-.2-.2-1.1.1-1.4.6-1 1.1-.5 1.2-.3.5.8.2 1.7.2 1.7.3.2.6.5.4 1.1zm-1-2.3c-.1-.1-.3-.1-.6.4-.1.1 0 .2.2.3s.7.3.7.3c0-.1 0-.7-.3-1z"/><path d="m41.8 8.1c0 .1-.1 0-.2-.1s-.5-.4-.5-.4-.4 1-1.2 1.6c-1.4 1-2.6 1.2-2.7 1.3-.1 0-.2-.1 0-.3.9-.5 2-.9 3.6-2.8 0 0-.5-.2-.9-.4-.3-.2-.1-1.1.1-1.4.6-1 1.1-.5 1.2-.4.5.9.3 1.8.3 1.8.2.2.5.5.3 1.1zm-1-2.3c-.1-.1-.2-.1-.6.3 0 .2.1.3.3.4s.6.3.6.3c0-.1.1-.7-.3-1z"/></g></g></svg>