<svg height="30" viewBox="0 0 70 30" width="70" xmlns="http://www.w3.org/2000/svg"><g fill="#191c4f"><path d="m21.1 22.3c-.1.2-.1.2-.2.4s-.2.2-.4.3-3.4 1.4-3.5 1.4c-.4.3-.4.1-.3 0q0-.1.1-.3c0-.2.1-.2.4-.4.2-.1 3.4-1.4 3.6-1.5.4-.2.3 0 .3.1z"/><path d="m20.8 21c-.1.1-.1.1-.2.3s-.2.2-.4.4c-.2.1-3.4 1.3-3.5 1.4-.4.2-.3 0-.3-.1q0 0 .1-.3c.1-.2.2-.2.4-.4.3-.1 3.4-1.3 3.6-1.4.4-.2.3-.1.3.1z"/><path d="m63.9 20.4v.6c0 .2-.1.6-.2.9-.2.4-.9.5-1.4.2-.8 1.3-1.6.7-2 .5-.7-.3-1 .2-1.2.4-.9 1.1-2.6 1-3 1.1-.4 0-.1-.2.1-.3 1.3-.5 2.2-.6 3.4-1.7.5-.6.9-.3 1.1-.2 1.1.5 1.2 0 1.4-.2.1-.1.3-.7.4-.9s.2 0 .2.1c0 .2-.1.4-.1.5.4.3.9 0 1-.1 0 0 0-.3 0-.4q-.1-.2.1-.7c.1-.2.2 0 .2.2z"/><path d="m25.8 19.3 1.2.8q0 .1 0 .1l-.7.9q0 .1-.1.1l-1.1-.9-.6.8q0 .1-.1.1l-1.1-.9q0 0 0-.1l.7-.9q0 0 0 0l1.2.8.5-.8q.1 0 .1 0z"/><path d="m34.1 19.5s-.1.3-.2.6c-.4 1.2-.1 1.8 0 1.9.4.6.9.3 1-.2.1-.3.2-.1.2 0q0 .1-.1.4c-.2.7-.5.9-.8 1-.5 0-.8-.6-.8-.9-.2-1.4.4-2.6.5-2.9.1-.4.3-.2.2.1z"/><path d="m42.9 18.8c-.4 1.2-2 1.8-2.3 1.9-1.4.4-1.6-1-1.5-2s.9-2.4.9-2.4c-.1 0-1.6-1.2-1.7-1.3s-.3-.3-.4-.4-.1-.1-.1-.1 0-1.1 0-1.2.1-.1.2 0c.1 0 1.7.6 1.9.7s.1.2 0 .3c-.1 0-.6.1-.6.1l1.3 1s1.9-2.4 2-2.6c.2-.3.2-.2.2.1-.1.2-.4 1.3-.5 1.4-.1.2-1.1 1.5-1.1 1.5s1.3.7 1.6 1.2c.5.7.2 1.4.1 1.8zm-2.4-2.1s-.8 1.4-.9 1.7c-.4.8.5 1 .8 1 .3-.1 1.4-.6 1.9-1.1.5-.4-1.4-1.4-1.8-1.6z" fill-rule="evenodd"/><path d="m36.3 16.8c-.3 1.2-1.4 1.5-2.4 1.7-.7.2-1.5.2-1.9.1q0 .2 0 .2c0 1.9-.8 2.5-.9 2.7 0 0-2.3 2.2-7 3.6 0 0-4 .4-4.5.4s-.3-.3 0-.4c7.3-1.7 10.5-4.1 11.3-4.7.8-.7.6-1.1.5-1.5s-.7-1.9-.7-1.9.1-.7.2-.9.1-.3.2 0q.1.3.3.8c1.7 1.1 4-.2 4.3-.4.2-.2.1-.9-1.3-.9-1.7.2-2-.3-2.3-.6-.4-.6-.1-2.3 1.2-2.9 1.7-.7 2.9 1.9 3 2.9 0 0 .2.8 0 1.8zm-1.4-2.4q-.2-.3-.4-.6c-.4-.5-1.2-.5-1.5-.2-.4.3-.1.7.7.7.4 0 .9 0 1.2.1z" fill-rule="evenodd"/><path d="m31.3 11.9c0 .1-.1.1-.2.3 0 .2-.2.2-.4.4-.2.1-3.5 1.4-3.6 1.5-.4.2-.4 0-.3-.1q0-.1.1-.3c0-.2.1-.2.4-.4.2-.1 3.5-1.4 3.8-1.5.3-.2.3-.1.2.1z"/><path d="m65.6 17.5c-.1.3-.4 1.3-1.9 1-.4 0-1.1-.2-1.4-1-.4.4-1.3 1.9-3 1.6-.4 0-1.6-.5-1.6-2 0 0-1.4 1.1-2.1 1.5.1.5 0 1.1-.2 1.8-.3.7-3.3 4.1-5.8 4.7-.8.2-4 .8-4.1-2.8 0-.7 0-1.3.1-1.7-2 1.5-4.3 2.7-5 3-1.1.5-4.7 1.1-5.3 1.2-.4.1-.5 0-.3-.1.3-.2 8.3-2.9 12.5-7.3q.2-.2 0-.5c-.1-.2-1.4-2.7-1.6-3.1-.1-.3-.3-.7-.3-.8q-.1-.2-.1-.4c.1-.1.2-.8.2-1 .1-.1.1-.1.2.1.1.1 1.4 1.4 1.6 1.5.1.2 0 .3-.1.3h-.7s.9 1.5 1.2 2c.5 1.2.2 2.1 0 2.6-.4.7-1.1 1.5-1.9 2.2-.1.6-.4 3.5 2.3 3.6.4 0 1.8.2 4.6-2.1.6-.5 1.3-1.1 1.9-2 .3-.3.4-.9 0-.9-.5.1-3.3 1.1-3.7-.6-.1-.4.1-4.5 2.9-2.5.2.2.8.7 1.2 1.5.5-.2 1.4-.8 2.4-1.6.4-.3.6-.4.6 0s-.2 2.7 2.4 2c.2-.1 1.3-.3 2.1-2.3.2-.5.5-.4.4 0-.2.5-.5.9-.3 1.2.3.2 1 .7 1.9.6.3 0 .5-.2.4-.4-.1-.3-.4-.8-.4-.8 0-.3.2-.9.2-1s.1-.2.2-.1 1 1.2.5 2.6zm-11.6.1c-.9-1.2-2-.5-2.1-.3-.1.1-.2.4.7.5 1 .1 1.4-.2 1.4-.2z" fill-rule="evenodd"/><path d="m11.4 14.6s-.1.4-.2.8c-.6 1.6-.4 2.4-.3 2.6.4.8.9.4 1.1-.2.2-.3.2-.2.2 0q0 .1-.1.5c-.3 1-.7 1.2-1 1.2-.5 0-.7-.9-.7-1.3-.1-1.8.7-3.3.9-3.8.1-.4.3-.2.1.2z"/><path d="m20.6 10.8 1.2.8q0 .1 0 .1l-.7.9q0 .1-.1.1l-1.1-.9-.6.8q0 .1-.1.1l-1.1-.9q0 0 0-.1l.7-.9q0 0 .1 0l1.1.8.5-.8q.1 0 .1 0z"/><path d="m41.3 10.2 1.2.8q0 .1 0 .1l-.7.9q0 .1-.1 0l-1.1-.8-.6.8q0 .1-.1 0l-1.1-.8q0 0 0-.1l.7-.9q0 0 0 0l1.2.8.5-.8q.1 0 .1 0z"/><path d="m62.7 10.2s-.1.3-.2.5c-.3 1-.1 1.5-.1 1.6.3.5.6.2.8-.2.1-.1.1 0 .1 0q0 .1-.1.3c-.1.7-.4.8-.6.8-.4 0-.5-.5-.6-.8 0-1 .4-2 .5-2.2.1-.3.2-.2.2 0z"/><path d="m24.5 9.7c.1.2 1.2 1.6 1.4 1.9.1.3 0 .4 0 .4-.1-.1-.7-.4-.7-.4s.8 2.2.9 2.6c.5 1.6-.2 2.8-.3 3-.5.5-1.4.5-1.6.4-1.3-.1-1.7-1-1.7-1 0 .1-.3.7-.5 1-.6.6-1.4.5-1.6.4-.7-.3-1.1-1.1-1.1-1.1q0 0-.1.1c-.6 1-1.9 1.1-2.5 1 .1.7.1 1.4-.2 2.1-.2.8-2.6 2.3-3.6 2.8-3.5 1.9-5.8.8-6.3.5-2.7-1.8-1.2-5.5-1-6.1q0 0 0-.1c-.4-.3-.6-1-.6-1.4 0-2.1.9-3.9 1.1-4.4s.4-.3.2.1c0 0-.2.6-.3.9-.7 2-.4 2.9-.3 3.1.4 1 1 .5 1.3-.2.1-.4.2-.2.2 0q0 .2-.1.6c-.4 1.2-.8 1.4-1.2 1.4q0 0 0 0 0 .1-.1.1c-.2.7-.4 2-.3 2.5.3 2.5 3 2.6 3.6 2.7 3.9-.1 7-3.1 7.1-3.3.2-.2.1-.5 0-.8 0-.2-.5-1.3-.6-1.4s0 0-.3-.7c0 0 .2-1 .2-1.1.1-.1.2 0 .3.1q.2.4.4 1c2.3 1.3 3.6-1.2 3.8-1.4s.2.1.2.2-.2.4-.2.5c.1.6.6.9.8.9.7.2 1.1-.1 1.3-.4s.6-1.3.7-1.5c.2-.1.3 0 .2.1q0 .2-.1.4c.7 1.5 2.4 1 2.7.9.3-.2 0-.7-.1-1.1-.2-.4-1-2.9-1.3-3.6-.2-.7 0-1.4.1-1.6s.1-.2.2-.1z"/><path d="m51.3 9.6s-.1.4-.1.6c-.4 1.1-.2 1.5-.2 1.7.3.5.7.2.9-.2.1-.2.1-.1.1 0q0 .1-.1.3c-.2.7-.4.8-.6.9-.5-.1-.6-.6-.7-.9 0-1.1.5-2.1.6-2.4s.2-.2.1 0z"/><path d="m34.1 9.2 1.2.8q0 .1 0 .1l-.7.9q0 .1-.1 0l-1.1-.8-.6.8q0 .1-.1 0l-1.1-.8q0 0 0-.1l.7-.9q0 0 0 0l1.2.8.5-.8q.1 0 .1 0z"/><path d="m19.4 8.8 1.1.9q.1 0 0 0l-.6 1q-.1 0-.1 0l-1.2-.9q0 0 0 0l.7-1q0 0 .1 0z"/><path d="m14.6 6.9s-.1.6-.3 1c-.6 1.9-.4 2.8-.3 3 .4 1 1.1.5 1.4-.2.1-.4.2-.2.1 0q0 .2-.1.6c-.3 1.2-.8 1.5-1.1 1.4-.7 0-.9-1-.9-1.5 0-2.1.8-3.9 1-4.4s.4-.3.2.1z"/><path d="m26.2 5.5c.8.1.6.5.4.7-.6.9-1.3 1.3-1.9 1.5-.5.2-.3-.2.1-.4 0 0 .3-.2.8-.6s-.8-.3-1.4-.3c-.5 0-.7.2-.9.4-.1.2-.4.1-.2-.2.1-.2.3-.5.7-.9.4-.5 1.6-.3 2.4-.2z"/><path d="m11.7 5.5c.2.2.1.7 0 1-.1.2-.2 0-.4-.2 0 0-.1-.1-.3-.2-.6-.5-.7.5-.8 1v2.1q0 .1 0 .1c0 .5-.2 1.2-1 1.9-1.1.8-1.2.8-1.2.9-.1.1-.2 0 0-.2.1-.1 2.1-2 1.8-2.9-.3-1-1.2-1.7-1.3-1.8-.2-.1-.3.1-.3.2s-.1.1-.2.1c0-.1-.5-.3-.7-.5-.1-.1-.1-.6-.1-.8 0-.4.2-.5.3-.5 1.7.8 2.3 2.3 2.4 2.5 0-1.1-.1-2.2.5-3 .4-.7 1.2.2 1.3.3z"/><path d="m50.3 5c0 .1 0 .2-.1.4s-.2.2-.4.3c-.2.2-6.2 3.6-6.3 3.7-.3.2-.3 0-.3-.1q.1 0 .1-.3c.1-.2.1-.2.4-.4.2-.1 6.1-3.5 6.4-3.7s.3 0 .2.1z"/><path d="m57.5 5.4c.2.2.1.7 0 1-.1.1-.3 0-.4-.2 0 0-.2-.1-.3-.3-.6-.5-.8.5-.9 1 0 .3-.1 1.4-.2 2.1 0 .2-.2.2-.3 0-.4-1.4-1.2-2-1.3-2.1-.1-.2-.2 0-.3.1 0 .1-.1.1-.1.1-.1-.1-.6-.4-.7-.5-.2-.2-.1-.7-.1-.9 0-.4.3-.5.4-.4 1.6.9 2.1 2.4 2.2 2.7.1-1.2.1-2.2.7-3 .5-.7 1.3.3 1.3.4z"/><path d="m63.4 7.9c-.1.1-.1 0-.2-.1s-.3-.3-.5-.4c-.3.5-.2.6-1.2 1.4-2.2 1.9-4.6 2.6-4.7 2.6-.2 0-.2-.1 0-.2.8-.6 3.9-2 5.5-4 0 0-.5-.2-.8-.4-.4-.3-.2-1.2 0-1.5.7-1 1.2-.5 1.3-.3.5.9.2 1.8.2 1.8.3.2.6.5.4 1.1zm-1-2.4c-.2 0-.3-.1-.6.4-.1.1 0 .3.2.3.2.1.7.3.7.3 0-.1 0-.6-.3-1z" fill-rule="evenodd"/><path d="m19 4.7s-.1.3-.2.5c-.3 1.1-.1 1.6-.1 1.7.3.5.7.2.9-.2 0-.2.1-.1.1 0q0 .1-.1.4c-.2.6-.5.8-.7.8-.4 0-.6-.6-.6-.8 0-1.2.5-2.2.6-2.5s.2-.2.1.1z"/><path d="m41 7.6c0 .1-.1 0-.2-.2-.1 0-.5-.4-.5-.4s-.5 1.1-1.3 1.7c-1.4 1.1-2.7 1.3-2.8 1.3-.1.1-.2-.1.1-.2.9-.6 2-.9 3.6-2.9 0 0-.5-.2-.8-.5-.4-.2-.2-1.1 0-1.4.7-1 1.2-.5 1.3-.4.5.9.2 1.8.2 1.8.3.2.6.6.4 1.2zm-1-2.4c-.1-.1-.3-.1-.6.4-.1.1 0 .2.2.3s.7.3.7.3c0-.1 0-.7-.3-1z" fill-rule="evenodd"/><path d="m33 7.1c-.1.1-.2 0-.3-.2 0 0-.3-.4-.3-.4s-1.3 1.6-2.6 2.3c-1.4.8-2.6 1.1-2.7 1.1s-.2-.1.1-.2c.9-.4 3.2-1.8 4.8-3.4 0 0-.4-.2-.7-.5-.2-.2 0-1 .3-1.3.7-.8 1.1-.3 1.2-.2.3.9 0 1.7 0 1.7.2.2.4.6.2 1.1zm-.7-2.3c-.1-.1-.2-.1-.6.3-.1.1 0 .2.2.3s.6.4.6.4c0-.2.1-.6-.2-1z" fill-rule="evenodd"/><path d="m36.1 4.2s-.1.4-.2.6c-.4 1-.2 1.6-.2 1.7.3.5.8.3 1-.2 0-.2.1 0 .1 0q0 .1-.1.4c-.2.6-.5.8-.8.8-.4 0-.6-.6-.6-.9-.1-1.2.5-2.1.7-2.4.1-.3.2-.2.1 0z"/></g></svg>