<svg height="30" viewBox="0 0 70 30" width="70" xmlns="http://www.w3.org/2000/svg"><g fill="#191c4f"><path d="m16.6 22.3c-.1.1-.1.2-.2.3-.1.2-.2.3-.4.4s-5.3 2.1-5.4 2.2c-.4.2-.3 0-.3-.1q0 0 .1-.3c0-.2.1-.2.4-.3.2-.2 5.3-2.2 5.5-2.3.4-.2.4 0 .3.1z"/><path d="m24.8 20.3c0 .1-.1.2-.1.3-.1.2-.3.3-.5.4-.1.1-5.3 2.1-5.4 2.2-.4.2-.3 0-.3-.1q0 0 .1-.3c.1-.2.1-.2.4-.3.2-.2 5.3-2.2 5.6-2.3.3-.2.3 0 .2.1z"/><path d="m31.6 20.2s-.1.2-.1.4c-.4 1-.2 1.5-.1 1.6.2.5.6.2.8-.1 0-.2.1-.1.1 0q-.1 0-.1.3c-.2.6-.4.7-.6.7-.4 0-.6-.5-.6-.7-.1-1.1.4-2 .5-2.3s.2-.2.1.1z"/><path d="m63.9 19.8v.5c.1.3-.1.6-.2 1-.1.3-.8.4-1.3.1-.8 1.3-1.5.6-1.9.5-.8-.3-1 .2-1.2.4-.9 1-2.5 1-2.9 1s-.1-.2.1-.3c1.3-.4 2.1-.5 3.3-1.6.5-.5.8-.3 1-.2 1.1.5 1.2 0 1.4-.1.1-.2.3-.8.4-.9.1-.2.2-.1.1.1 0 .1 0 .3-.1.4.5.3 1 0 1.1 0 0 0-.1-.4-.1-.5q0-.2.1-.6c.1-.3.2 0 .2.2z"/><path d="m27 12.9 1.1.8q0 .1 0 .1l-.7.9q0 0 0 0l-1.2-.8q0 0 0-.1l.7-.9q0 0 .1 0z"/><path d="m43.6 18.3c-.3 1-1.9 1.6-2.2 1.7-1.4.5-1.5-.9-1.4-1.9s.8-2.3.8-2.3c-.1 0-1.5-1.2-1.6-1.3s-.3-.2-.4-.3-.1-.2-.1-.2 0-1 0-1.1c0-.2.1-.1.2 0 .1 0 1.7.6 1.8.7.2.1.1.2 0 .2 0 .1-.6.2-.6.2l1.3.9s1.8-2.3 2-2.5c.2-.3.1-.1.1.1s-.4 1.2-.5 1.4c0 .1-1 1.4-1 1.4s1.2.7 1.5 1.1c.5.8.2 1.5.1 1.9zm-2.2-2.1s-.8 1.4-1 1.6c-.3.8.5 1 .8.9.3 0 1.4-.5 1.9-1 .5-.4-1.4-1.3-1.7-1.5z" fill-rule="evenodd"/><path d="m21.7 11.6s.1.5.3.7c.1.3.2.6.1 1 0 .4-.2.7-.4.8-.3 0-.7 0-1-.4-.4.7-.9.9-1.2.7-.3-.1-.3-.7-.3-.9s0-.7 0-.9c0-.1 0-.2.1-.3.1-.2.1-.1.1.1s-.1.9.1 1.2c.3.4.9 0 1.1-.2.1-.2-.2-1.1-.2-1.1q-.1-.1 0-.1c0-.1 0-.3 0-.4q.1-.2.2 0c.1.1.1.3.2 1.1.2.7.9.6 1 .5.2-.1.1-.2.1-.3s-.3-.7-.4-.9c-.1-.3-.1-.5 0-.7.1-.3.1-.1.2.1z"/><path d="m65.6 17c-.1.2-.4 1.2-1.8.9-.4 0-1.1-.2-1.4-1-.4.5-1.2 1.9-2.9 1.6-.4 0-1.5-.5-1.6-1.9 0 0-1.3 1.1-2 1.4.1.5 0 1.1-.2 1.8-.3.6-3.2 4-5.6 4.5-.8.2-3.8.7-4-2.7 0-.7.1-1.2.1-1.6-1.9 1.4-4.2 2.6-4.8 2.9-1 .5-4.5 1-5.1 1.2-.4 0-.5-.1-.3-.2.3-.2 8.1-2.8 12.1-7q.1-.2 0-.5c-.2-.3-1.4-2.7-1.5-3-.2-.3-.3-.7-.4-.8s-.1-.3 0-.4c0-.1.1-.8.1-.9.1-.2.2-.1.2 0 .1.1 1.4 1.4 1.5 1.5.2.2.1.3 0 .3s-.7 0-.7 0 .9 1.4 1.1 1.9c.5 1.2.2 2.1.1 2.5-.4.7-1.1 1.5-1.9 2.1-.1.6-.3 3.4 2.3 3.5.4 0 1.7.2 4.4-2 .6-.5 1.3-1.1 1.9-1.9.2-.3.3-.9-.1-.9-.4.1-3.2 1.1-3.6-.6 0-.4.2-4.3 2.9-2.4.2.2.8.7 1.1 1.4.5-.2 1.3-.7 2.4-1.5.3-.2.6-.4.5 0 0 .4-.2 2.6 2.3 1.9.3 0 1.3-.2 2.1-2.2.2-.4.5-.4.3 0-.2.5-.4.9-.2 1.1.2.3.9.8 1.8.7.3-.1.5-.2.4-.5-.1-.2-.4-.7-.4-.7 0-.3.2-.8.2-1 0-.1.1-.2.2-.1s.9 1.2.5 2.6zm-11.2.1c-.9-1.2-1.9-.5-2.1-.4-.1.1-.2.5.7.5 1 .1 1.4-.1 1.4-.1z" fill-rule="evenodd"/><path d="m10.2 14.8s-.1.3-.1.5c-.4 1.2-.2 1.7-.2 1.8.3.6.8.3.9-.1.1-.2.2-.1.2 0q-.1.1-.1.3c-.2.7-.5.9-.7.9-.5 0-.7-.6-.7-.9-.1-1.2.5-2.3.6-2.6s.2-.2.1.1z"/><path d="m13 10.5s-.1.3-.2.5c-.3 1-.1 1.4-.1 1.5.3.5.7.3.8-.1.1-.2.1-.1.1 0q0 .1 0 .3c-.2.6-.5.7-.7.7-.3 0-.5-.5-.5-.7-.1-1.1.4-2 .5-2.3.1-.2.2-.1.1.1z"/><path d="m42.1 9.9 1.1.8q.1 0 0 .1l-.6.9q-.1 0-.1 0l-1.1-.8-.5.8q-.1 0-.1 0l-1.1-.8q-.1-.1 0-.1l.6-.9q0 0 .1 0l1.1.8.5-.8q.1 0 .1 0z"/><path d="m62.7 9.9s0 .3-.1.5c-.3 1-.2 1.4-.1 1.5.2.5.6.2.7-.1.1-.2.2-.1.1 0q0 .1 0 .3c-.2.6-.4.7-.6.7-.4 0-.5-.5-.6-.7 0-1.1.4-2 .5-2.2.1-.3.2-.2.1 0z"/><path d="m51.8 9.4s-.1.3-.2.5c-.4 1-.2 1.5-.1 1.6.3.5.7.3.8-.1.1-.2.2-.1.1 0q0 0 0 .3c-.2.6-.5.8-.7.8-.4 0-.6-.6-.6-.8 0-1.2.4-2.1.5-2.4.2-.3.3-.2.2.1z"/><path d="m26.5 7s.1.5.3.8c.1.2.2.5.1.9 0 .4-.2.7-.4.8-.3.1-.7.1-1-.3-.4.7-.9.8-1.2.6-.3-.1-.3-.7-.3-.9 0-.1 0-.7 0-.8 0-.2 0-.3.1-.4 0-.1.1-.1.1.1s-.1.9.1 1.2c.3.5.9.1 1-.2.2-.2-.1-1-.1-1.1q-.1 0-.1-.1c.1 0 .1-.3.1-.4q.1-.2.2 0c.1.1.1.3.2 1.1.1.7.8.6 1 .5s.1-.1.1-.2c-.1-.1-.3-.7-.4-1s-.1-.5 0-.7.1-.1.2.1z"/><path d="m30 9c0 .1-.1 0-.2-.1 0-.1-.3-.4-.3-.4s-1 1.6-2.1 2.4c-1.3.8-2.3 1.2-2.3 1.2-.2 0-.2-.1 0-.2.8-.4 2.7-1.9 4-3.5 0 0-.4-.2-.6-.4-.3-.2-.2-.9.1-1.2.5-.8.9-.4 1-.3.4.8.2 1.5.2 1.5.2.2.4.5.2 1zm-.8-2c-.1-.1-.2-.1-.5.3 0 .1 0 .2.2.3s.6.2.6.2c0-.1 0-.5-.3-.8z" fill-rule="evenodd"/><path d="m12.2 5.8c.2.2.1.7 0 1 0 .2-.2 0-.3-.2 0 0-.2-.1-.3-.2-.6-.4-.8.5-.8 1 0 .3 0 1.4-.1 2q0 .1 0 .1c0 .5-.1 1.2-1 1.8-1 .8-1.1.8-1.2.9-.1 0-.1-.1.1-.2.1-.1 2-2 1.8-2.8-.4-1-1.2-1.6-1.3-1.7-.2-.2-.3.1-.3.1 0 .1-.1.1-.1.1-.1 0-.6-.3-.7-.4-.2-.2-.1-.7-.1-.9-.1-.3.2-.5.3-.4 1.6.7 2.1 2.2 2.2 2.5 0-1.2 0-2.2.6-3 .4-.7 1.2.2 1.2.3z"/><path d="m50.8 4.9c0 .1-.1.1-.1.3-.1.2-.2.3-.4.4s-6 3.4-6.1 3.5c-.3.2-.3.1-.2 0q0-.1 0-.4c.1-.1.2-.2.4-.3.2-.2 5.9-3.5 6.1-3.6.4-.2.3-.1.3.1z"/><path d="m57.8 5.2c.1.3 0 .7-.1 1-.1.2-.2 0-.3-.2 0 0-.2-.1-.3-.2-.6-.5-.8.4-.9.9 0 .3-.1 1.4-.2 2 0 .3-.2.3-.3.1-.3-1.4-1.1-2-1.2-2.1-.2-.2-.3 0-.3.1s-.1.1-.2.1c0-.1-.5-.4-.6-.5-.2-.1-.1-.6-.1-.9s.3-.4.4-.4c1.5.9 2 2.4 2.1 2.7.1-1.2.1-2.2.7-3 .5-.6 1.2.3 1.3.4z"/><path d="m63.4 7.7c0 .1-.1 0-.2-.1s-.2-.3-.4-.4c-.3.5-.2.5-1.2 1.4-2.1 1.8-4.4 2.4-4.6 2.5-.1 0-.1-.1.1-.3.7-.5 3.7-1.9 5.3-3.8 0 0-.5-.2-.8-.4-.4-.3-.2-1.1 0-1.5.6-.9 1.2-.4 1.2-.3.6.9.3 1.8.3 1.8.3.2.5.5.3 1.1zm-.9-2.3c-.2-.1-.3-.1-.6.3-.1.2 0 .3.2.4s.6.3.6.3c0-.2.1-.7-.2-1z" fill-rule="evenodd"/><path d="m17.5 4.8s-.1.3-.1.5c-.4 1-.2 1.4-.1 1.5.2.5.6.2.7-.1.1-.2.2-.1.2 0q-.1.1-.1.3c-.2.6-.4.7-.6.7-.4 0-.6-.5-.6-.7-.1-1.1.4-2 .5-2.3s.2-.1.1.1z"/><path d="m24.3 18.3c-.1.8-.8.9-1.1.9-1.5-.1-2.1-.6-2.3-.8 0 0-.3.8-.4 1.1-.7 1.4-2.3 1.3-2.7 1.3-1.6-.3-2-2.7-2.2-3 0 0 0 .4-.5 1.1-.9 1.4-2.6 2.5-3.3 2.9-3.2 2-5.1.8-5.6.3-2.3-1.9-.6-5.6-.4-6q0-.1 0-.1c-.5-.2-.7-1-.7-1.5-.1-2 .7-3.8.8-4.3.2-.5.4-.2.3.2 0 0-.2.5-.3.9-.6 1.9-.3 2.7-.2 2.9.4 1 1 .5 1.3-.2.1-.4.2-.2.2 0q-.1.2-.2.6c-.2 1-.6 1.3-.9 1.4q0 .1-.1.1c-1 2.3-.1 4 .1 4.4 1 1.4 3 1 3.3 1 2.7-.4 5.1-3.1 5.6-3.7.6-.7.4-1.2.4-1.4s-.3-2-.3-2.4c-.1-.5-1.1-6.7-1.2-7.2-.1-.4-.1-.9-.1-1.1.1-.2.3-1.1.4-1.2 0-.1.1-.2.2.1 0 .2.8 4.6.9 5.2.1.7.7 5 .7 5.5.1.5.3 2 .6 2.9.5 1.2 1.5 1.3 2 1.3 1.4 0 1.9-1.4 2.1-2 .3-.7.8-1.5 1.2-1.9.5-.5 1.1-.2 1.3 0 1.1 1.2 1.1 2.4 1.1 2.7zm-1-.8c-.2-.3-.7-1.1-1.3-.8-.4.3-.5.6-.5.6.1.1.7.5 1.5.5.2 0 .4 0 .3-.3z" fill-rule="evenodd"/><path d="m35.8 20.3c-.5 1.1-1.8.2-2 0-.4-.4-.7-.9-.9-1.4-.4.1-.8.3-1 .3-1.4.6-2.6.5-3.2.4 0 .8-.1 1.3-.2 1.5-.5 1.6-5.1 3.8-5.8 4.1 0 0-4.6.8-5.1.8s-.1-.2.3-.3c0 0 8.7-2.8 10.3-5.3.3-.4-.7-2.4-.9-3 0 0 .1-.8.2-.9 0-.2.1-.4.2-.2q.5.9.7 1.6c1.7 1 3.4.1 3.9-.1q.1 0 .3-.1c-.1-.4-.2-.7-.2-.8-.1-.3-1.3-8.8-1.3-8.8-.1-.7-.2-1.4-.2-1.8-.1-.5-.2-.8-.2-.8s.4-1 .5-1.1c0-.1.1-.1.1.1.1.1 1.2 3 1.3 3.2 0 .1-.1.2-.2.1s-.6-.6-.7-.7c.1.3.9 5.8.9 5.8s.6 3.6.7 4.1q.1.2.1.4.3-.1.4-.1c1.4-.3 1.7 0 1.9.2 1 .8.2 2.7.1 2.8zm-.3-1.3c-.1-.2-.4-.4-1-.5q-.2 0-.6.1.1.2.2.3c.4.5 1 .6 1.3.6.3-.1.2-.3.1-.5z" fill-rule="evenodd"/><path d="m35.9 4.5c0 .1 1.3 3.3 1.4 3.5s-.1.2-.2.1-.7-.7-.7-.7 1.2 8.8 1.2 9c.3 1.7.3 3 .3 3.8-.1 1.1-.3 1.5-.3 1.6-.1.2-.2.1-.2-.1 0-.6-.1-1.8-.3-3.1-.3-2.6-1.5-11-1.7-12.4 0-.2-.1-.6-.1-.7 0 0 .4-1 .4-1.1.1-.1.1-.1.2.1z"/><path d="m41.8 7.3c-.1.2-.1.1-.2-.1-.1 0-.5-.3-.5-.3s-.4.9-1.2 1.5c-1.4 1.1-2.6 1.3-2.7 1.3-.1.1-.2-.1 0-.2.9-.5 2-.9 3.5-2.8 0 0-.4-.2-.8-.4-.3-.3-.1-1.1.1-1.5.6-.9 1.1-.4 1.2-.3.5.9.2 1.8.2 1.8.3.1.6.5.4 1zm-1-2.2c-.1-.1-.3-.1-.6.3-.1.1.1.3.2.4.2 0 .7.2.7.2 0-.1.1-.6-.3-.9z" fill-rule="evenodd"/><path d="m21 4.5s-.1.4-.3.7c-.5 1.7-.3 2.4-.2 2.6.3.8.9.4 1.1-.2.1-.3.2-.1.2 0q0 .2-.1.5c-.3 1-.7 1.2-1 1.2-.6 0-.8-.9-.8-1.3 0-1.7.7-3.2.9-3.7.2-.4.3-.2.2.2z"/><path d="m29.2 3.2c-.1.1-.1.1-.2.3s-.2.2-.4.4c-.2.1-5.4 2.1-5.5 2.1-.3.2-.3.1-.2 0q0-.1.1-.3c0-.2.1-.2.3-.4.3-.1 5.4-2.1 5.6-2.2.4-.2.3-.1.3.1z"/></g></svg>