<svg height="30" viewBox="0 0 70 30" width="70" xmlns="http://www.w3.org/2000/svg"><g fill="#191c4f"><path d="m29.7 21.3s-.1.2-.2.4c-.4.9-.2 1.3-.2 1.4.3.5.7.3.8 0 .1-.2.2-.1.2 0q-.1.1-.1.3c-.3.5-.5.6-.7.6-.4 0-.6-.5-.6-.7 0-1.1.6-1.9.7-2.1.1-.3.2-.1.1.1z"/><path d="m7.8 20.9c0 .1 0 .1-.1.2-.1.2-.2.2-.3.3-.2.1-2.1.8-2.2.9-.2.1-.2 0-.2-.1q0 0 .1-.2c0-.1.1-.2.3-.3.1-.1 2-.8 2.2-.9.3-.1.2 0 .2.1z"/><path d="m17.2 20.8s-.2.3-.3.5c-.4 1-.3 1.5-.2 1.7.2.5.6.3.8-.1.1-.2.2-.1.2 0q-.1.1-.2.3c-.2.7-.5.8-.7.8-.4-.1-.6-.6-.6-.9.1-1.2.7-2.2.8-2.4.2-.3.3-.2.2.1z"/><path d="m64.2 20.2s0 .3.1.5c0 .2-.2.6-.3.9s-.8.5-1.3.2c-.7 1.2-1.5.6-1.9.4-.7-.3-.9.2-1 .4-.9 1-2.6 1-2.9 1-.4 0-.1-.2.1-.3 1.2-.4 2-.5 3.2-1.6.5-.5.8-.2 1-.2 1 .5 1.2 0 1.3-.1.2-.1.4-.7.4-.9.1-.1.2 0 .2.2 0 .1-.1.3-.1.4.4.3.9 0 1-.1 0 0-.1-.3-.1-.4q0-.2.1-.6c.1-.3.2 0 .2.2z"/><path d="m44.4 18.7c-.3 1-1.8 1.6-2.2 1.7-1.3.5-1.4-.9-1.3-1.9.1-.9.8-2.2.8-2.2-.1 0-1.5-1.1-1.6-1.2-.1-.2-.3-.3-.4-.4s-.1-.1-.1-.1 0-1 0-1.2c0-.1.1 0 .2 0 .1.1 1.6.7 1.8.7.2.1.1.2 0 .3-.1 0-.6.1-.6.1l1.3.9s1.7-2.3 1.9-2.5.1-.1.1.2c0 .2-.4 1.2-.4 1.3-.1.2-1 1.4-1 1.4s1.1.7 1.4 1.1c.5.7.2 1.4.1 1.8zm-2.2-2s-.8 1.3-.9 1.6c-.3.7.5.9.8.9.2-.1 1.3-.6 1.8-1s-1.4-1.4-1.7-1.5z" fill-rule="evenodd"/><path d="m14.6 15 1.1.8q0 0 0 .1l-.6.8q-.1.1-.1 0l-1.1-.7q0-.1 0-.1l.6-.9q.1 0 .1 0z"/><path d="m65.8 17.4c-.1.3-.3 1.3-1.7 1-.4-.1-1.1-.2-1.4-1-.4.4-1.2 1.8-2.8 1.5-.4 0-1.5-.5-1.5-1.9 0 0-1.4 1.1-2 1.4.1.5 0 1.1-.2 1.8-.2.6-3.1 3.9-5.4 4.4-.8.1-3.8.7-3.9-2.6-.1-.7 0-1.3 0-1.6-1.8 1.4-4 2.5-4.7 2.8-.9.5-4.3 1-4.9 1.1-.5.1-.5 0-.3-.1.3-.2 7.9-2.7 11.8-6.9q.1-.2-.1-.5c-.1-.2-1.3-2.5-1.4-2.8-.1-.4-.3-.7-.3-.9q-.1-.1-.1-.3c0-.1.1-.8.2-.9 0-.2.1-.1.2 0 0 .1 1.3 1.3 1.4 1.5.2.2.1.2 0 .2s-.6 0-.6 0 .8 1.4 1 1.9c.5 1.1.2 2 .1 2.4-.4.8-1.1 1.5-1.8 2.1-.2.6-.4 3.3 2.1 3.4.4 0 1.7.2 4.3-1.9.6-.5 1.3-1.1 1.9-1.9.2-.3.4-.9-.1-.8-.4 0-3.1 1-3.5-.6 0-.4.2-4.3 2.8-2.4.2.2.8.6 1.2 1.4.4-.2 1.2-.7 2.2-1.5.3-.2.6-.4.6 0 0 .3-.2 2.6 2.2 1.9.3-.1 1.3-.3 2-2.2.2-.4.5-.4.3 0-.2.5-.4.9-.2 1.1.3.2.9.7 1.8.6.3 0 .5-.1.4-.4-.2-.2-.4-.7-.4-.7 0-.3.1-.8.2-.9 0-.2.1-.3.2-.2s.9 1.2.4 2.5zm-10.9.1c-.8-1.1-1.9-.5-2-.3-.1.1-.2.4.7.5 1 .1 1.3-.2 1.3-.2z" fill-rule="evenodd"/><path d="m28.7 13.8c-.1.1-.1 0-.2-.2 0 0-.4-.4-.4-.4s-1.3 1.7-2.7 2.5c-1.5.9-2.8 1.2-2.8 1.2-.2 0-.2-.1 0-.2 1-.5 3.4-2 5.1-3.7 0 0-.4-.3-.7-.5-.3-.3 0-1.1.2-1.5.7-.8 1.2-.3 1.3-.1.4.9 0 1.7 0 1.7.2.2.5.6.2 1.2zm-.7-2.4c-.1-.1-.2-.2-.6.2-.1.2 0 .3.2.4s.6.4.6.4c0-.1.1-.7-.2-1z" fill-rule="evenodd"/><path d="m42.9 10.5 1.1.8q.1 0 0 .1l-.6.8q0 .1-.1.1l-1-.8-.6.7q0 .1-.1.1l-1-.8q-.1-.1 0-.1l.6-.9q0 0 .1 0l1 .8.6-.8q0 0 0 0z"/><path d="m24.7 10.7c-.1.1-.1.1-.1.3-.1.2-.2.2-.4.3-.2.2-6.5 3-6.6 3.1-.3.2-.3.1-.2-.1q0 0 0-.3c0-.1.1-.2.3-.3.3-.2 6.5-3 6.7-3.1.4-.2.3-.1.3.1z"/><path d="m63.1 10.6s-.1.2-.2.4c-.3 1-.1 1.4-.1 1.5.3.5.6.2.8-.1 0-.2.1-.1.1 0q-.1 0-.1.2c-.2.6-.4.8-.6.8-.3-.1-.5-.5-.5-.8-.1-1 .3-1.8.5-2.1.1-.3.1-.1.1.1z"/><path d="m8.9 10 1.1.8q0 0 0 .1l-.7.8q0 .1 0 .1l-1.1-.8-.5.7q-.1.1-.1.1l-1.1-.8q0-.1 0-.1l.6-.9q.1 0 .1 0l1.1.8.5-.8q0 0 .1 0z"/><path d="m34 10.1s-.1.4-.2.6c-.3 1.2 0 1.7 0 1.9.4.5.8.2.9-.3 0-.2.1-.1.1 0q0 .1 0 .4c-.2.7-.5.9-.7.9-.4 0-.6-.5-.7-.8-.1-1.3.3-2.4.4-2.7.1-.4.3-.2.2 0z"/><path d="m52.4 10s-.1.3-.2.5c-.3 1-.1 1.5-.1 1.6.3.5.7.2.8-.1.1-.2.1-.1.1-.1q0 .1 0 .4c-.2.6-.5.7-.7.7-.4 0-.5-.5-.6-.7 0-1.1.4-2.1.5-2.4.2-.2.3-.1.2.1z"/><path d="m22.7 7.7c0 .2 0 .2-.1.4s-.3.3-.5.4-9 4.1-9.1 4.2c-.4.2-.3.1-.3-.1q0 0 .1-.3c.1-.2.2-.3.4-.4.3-.2 9-4.1 9.2-4.3.5-.2.4 0 .3.1z"/><path d="m8.3 5.8s0 .3-.1.4c-.3.9-.1 1.3-.1 1.4.2.5.6.3.7-.1.1-.2.1-.1.1 0q0 .1 0 .3c-.2.5-.4.7-.6.7-.4 0-.5-.5-.5-.7-.1-1 .3-1.8.4-2.1.1-.2.2-.1.1.1z"/><path d="m26.8 5.7s-.1.3-.2.5c-.3.9-.1 1.3-.1 1.4.3.4.6.2.7-.2.1-.1.2 0 .1 0q0 .1 0 .3c-.2.6-.4.7-.6.7-.3 0-.5-.5-.5-.7-.1-1 .4-1.8.5-2.1.1-.2.1-.1.1.1z"/><path d="m51.4 5.6c0 .2 0 .2-.1.4-.1.1-.2.2-.4.3s-5.8 3.4-5.9 3.4c-.3.3-.3.1-.2 0q0 0 0-.3c.1-.2.1-.2.4-.4.2-.1 5.8-3.3 6-3.4.3-.2.3-.1.2 0z"/><path d="m58.2 6c.2.2.1.6 0 .9-.1.2-.3 0-.4-.1 0 0-.1-.2-.2-.3-.6-.5-.8.5-.9.9 0 .3-.1 1.4-.2 2 0 .2-.2.2-.2 0-.4-1.3-1.2-1.9-1.3-2-.1-.2-.2 0-.3.1 0 .1 0 .1-.1.1-.1-.1-.5-.3-.7-.5-.1-.1 0-.6 0-.8 0-.4.2-.5.3-.4 1.5.8 2 2.3 2.1 2.5.1-1.1.1-2.1.7-2.8.5-.6 1.2.3 1.2.4z"/><path d="m63.8 8.3c-.1.2-.2.1-.3-.1-.1-.1-.2-.2-.4-.3-.2.5-.2.5-1.2 1.3-2 1.8-4.3 2.4-4.4 2.5-.1 0-.2-.1.1-.3.7-.5 3.6-1.8 5.1-3.7 0 0-.4-.2-.8-.4-.3-.2-.1-1.1.1-1.4.6-.9 1.1-.5 1.2-.3.5.8.2 1.7.2 1.7.3.2.6.5.4 1zm-1-2.2c-.1 0-.3-.1-.6.4-.1.1 0 .2.2.3s.7.3.7.3c0-.1 0-.7-.3-1z" fill-rule="evenodd"/><path d="m16.1 5.8c.1.2 0 .6-.1.9-.1.1-.2 0-.3-.2 0 0-.1-.1-.3-.2-.5-.5-.7.4-.8.8 0 .3-.1 1.3-.2 1.9 0 .2-.1.2-.2 0-.4-1.2-1.1-1.8-1.2-1.9s-.2.1-.2.1c-.1.1-.1.1-.2.1-.1-.1-.5-.3-.6-.5-.1-.1-.1-.6-.1-.7 0-.4.3-.5.4-.4 1.4.8 1.9 2.2 1.9 2.4.1-1 .1-2 .7-2.7.5-.6 1.1.3 1.2.4z"/><path d="m36 5.3c0 .1 1.3 3.3 1.3 3.5.1.1 0 .2-.1.1s-.8-.7-.8-.7 1 8.5 1 8.8c.2 1.7.3 2.9.2 3.7-.1 1.1-.3 1.5-.3 1.6-.1.1-.2.1-.2-.1 0-.6-.1-1.8-.2-3.1-.3-2.6-1.2-10.8-1.4-12.2 0-.1-.1-.5-.1-.6 0 0 .4-1 .5-1.1 0-.1.1 0 .1.1z"/><g fill-rule="evenodd"><path d="m42.6 8c0 .2-.1.1-.2-.1 0 0-.4-.3-.4-.3s-.5.9-1.2 1.5c-1.4 1-2.6 1.2-2.6 1.2-.2.1-.2 0 0-.2.9-.5 1.9-.8 3.4-2.7 0 0-.5-.2-.8-.4s-.1-1.1.1-1.4c.6-.9 1.1-.5 1.2-.3.5.8.2 1.7.2 1.7.3.1.5.5.3 1zm-.9-2.2c-.1-.1-.3-.1-.6.4-.1.1 0 .2.2.3s.7.3.7.3c0-.1 0-.7-.3-1z"/><path d="m35.2 19.4c-.3 1-.7 1-1.2 1.2-1.9.5-3.3.4-3.7.3q-.4-.2-.7-.3c-4.1 1.7-7.2.6-7.9.3q0 0 0 0c0 .7-.1 1.2-.2 1.4-.1.3-.4 1-1.7-.1-.6-.6-.7-1.7-.7-2.6-.3 0-.6 0-.6 0s-1.2 0-2.7.9c-1 .6-2.2 1.8-2.7 2.3-1.9 2.1-2.9 2.1-3.5 2.1-2.8-.4-1.7-3.9-1.1-5q.1-.1.2-.2-.4.2-.5.2c-1.4.4-1.5-.9-1.4-1.9s.8-2.2.8-2.2c-.1 0-1.5-1.2-1.6-1.3s-.2-.2-.4-.3c-.1-.1-.1-.2-.1-.2s.1-1 .1-1.1 0-.1.1 0c.1 0 1.7.7 1.8.7.2.1.1.2.1.3-.1 0-.6.1-.6.1l1.2.9s1.7-2.3 1.9-2.5.2-.1.1.2c0 .2-.3 1.1-.4 1.3-.1.1-1 1.4-1 1.4s1.2.7 1.5 1.1c.5.7.2 1.4 0 1.8-.1.5-.6.9-1.1 1.2 0 .1 0 .2-.1.3-1.3 2.1-.9 3.5-.6 3.8.7.7 1.9.3 2.4-.2.4-.3 3-2.7 3.7-3.3 2.2-1.7 3.4-1.7 4.1-1.7q.5 0 .8 0 0-.2.1-.3c.1-.2.1-.2.3.1 2.3 2.6 7.2 2 7.9 2q.4-.1.8-.2c-.5-.7-.3-1.5-.2-2 .3-1.7 1.5-2.6 1.8-2.7.1-.1.3-.1.6-.1-.2-.5-.2-.9-.3-1-.1-.6-.6-4.9-.7-5.4-.1-.7-.1-1.4-.2-1.8 0-.5-.1-.7-.1-.8 0 0 .4-.9.5-1 0-.2 0-.1.1 0 0 .1 1.2 3 1.2 3.2.1.2 0 .2-.1.1s-.7-.7-.7-.7.8 6.2 1 7c.7 2 2.1 1.9 3 2.3.9.5.9 1.5.7 2.4zm-25.4-1.7c.5-.4-1.4-1.4-1.7-1.5 0 0-.7 1.3-.8 1.5-.4.8.4 1 .7.9.3 0 1.3-.5 1.8-.9zm21.6.5c.2-.3 0-.9-.2-1.3-.5-1-1.3-.7-2.2.8-.5 1 .3 1.3.7 1.6q.2 0 .3.1c1-.5 1.3-1.1 1.4-1.2zm2.9.2c-.3-.1-1-.4-1.6-.6q-.3-.2-.6-.4c-.2 1.2-.5 1.8-.8 2.2 1.4.1 2.9-.3 3.3-.5.5-.1-.1-.6-.3-.7z"/></g></g></svg>