<svg height="30" viewBox="0 0 70 30" width="70" xmlns="http://www.w3.org/2000/svg"><g fill="#191c4f"><path d="m15.3 21.9c0 .1 0 .1-.1.3 0 .2-.1.2-.3.3s-4 1.9-4.1 2c-.3.1-.3 0-.2-.1q0 0 0-.2c0-.2.1-.3.3-.4s4-1.9 4.2-2c.3-.1.3 0 .2.1z"/><path d="m64.2 20.5v.5c0 .2-.1.5-.2.7-.1.3-.7.5-1.1.2-.7 1-1.3.5-1.7.4-.6-.3-.8.2-.9.3-.8.9-2.2.9-2.5.9-.4 0-.1-.2 0-.2 1.2-.4 1.8-.5 2.8-1.4.5-.5.8-.3.9-.2 1 .4 1.1 0 1.2-.1s.3-.6.4-.8c.1-.1.1 0 .1.1s-.1.3-.1.4c.4.3.8 0 .9-.1 0 0-.1-.3-.1-.4q0-.1.1-.5c.1-.2.2 0 .2.2z"/><path d="m20.9 16.7c.1.1 0 .5 0 .7-.1.1-.2 0-.3-.1 0 0-.1-.1-.2-.2-.5-.3-.6.4-.6.8 0 .2.1 1 0 1.5 0 .2-.1.2-.2 0-.4-.9-1-1.3-1.1-1.4s-.1.1-.2.1q0 .1-.1.1c0-.1-.4-.2-.5-.3s-.1-.5-.1-.7.1-.3.2-.3c1.2.5 1.7 1.6 1.8 1.8 0-.9-.1-1.6.3-2.2.3-.5.9.1 1 .2z"/><path d="m14.4 20.2c-.2.6-1 1.4-4.3 2.5-3.2 1.1-4.6.1-5-.2-2.1-1.6-.6-4.3-.5-4.7.2-.4.3-.1.2.2s-.3 1-.3 1.4c-.1 2 1.5 2.4 2 2.5 2.6.8 6.8-1.6 7.1-1.9q.6-.3.5-.5c-.2-.6-.6-.5-.9-.5-.2 0-1.2.2-1.7-.3-.7-.7-.2-1.7.1-2.2.1-.1.4-.3.5-.4.6-.2 1.7-.2 2.4 2.4.1.8.1 1.3-.1 1.7zm-1.1-2.4c-.6-.9-1.1-.7-1.3-.6s-.4.5 0 .7c.4.1.7 0 .9 0 .2-.1.4-.1.4-.1z" fill-rule="evenodd"/><path d="m31 15.5c.6.1.4.3.3.5-.4.6-.9.9-1.3 1-.4.2-.2-.1 0-.3 0 0 .3-.1.6-.4.4-.2-.6-.2-.9-.2-.4 0-.5.1-.7.3-.1.1-.2 0-.1-.1.1-.2.2-.4.4-.7.3-.3 1.2-.2 1.7-.1z"/><path d="m24.3 14.8 1 .7q0 .1 0 .1l-.6.8q0 0 0 0l-.9-.7-.5.7q-.1 0-.1 0l-.9-.7q-.1 0 0-.1l.5-.7q0-.1.1-.1l.9.7.5-.6q0-.1 0-.1z"/><path d="m46.8 19.2c-.2.9-1.6 1.4-1.9 1.5-1.1.4-1.2-.8-1.1-1.6 0-.9.7-2 .7-2-.1 0-1.3-1-1.4-1.1s-.3-.2-.4-.3-.1-.1-.1-.1.1-.9.1-1 0-.1.1 0c.1 0 1.4.5 1.6.6.1.1.1.2 0 .2s-.5.1-.5.1l1.1.8s1.5-2 1.6-2.1c.2-.2.2-.1.2.1-.1.2-.4 1-.4 1.1-.1.2-.9 1.3-.9 1.3s1 .6 1.3.9c.4.6.1 1.3 0 1.6zm-1.9-1.8s-.7 1.2-.8 1.4c-.3.7.4.8.7.8.2 0 1.1-.5 1.6-.8.4-.4-1.2-1.2-1.5-1.4z" fill-rule="evenodd"/><path d="m5.2 14.2s0 .3-.1.5c-.2.9-.1 1.4 0 1.5.3.4.6.2.7-.2 0-.2.1-.1.1 0q0 .1-.1.3c-.1.6-.3.7-.5.7-.3 0-.5-.4-.5-.7-.1-1 .2-1.9.3-2.1.1-.3.2-.2.1 0z"/><path d="m8.3 14.1s-.1.4-.2.7c-.3 1.5-.1 2.2 0 2.4.4.7.9.3 1-.3.1-.3.2-.1.2 0q0 .1-.1.5c-.2.9-.5 1.1-.7 1.1-.5 0-.8-.7-.8-1.1-.2-1.6.3-3 .4-3.4s.3-.3.2.1z"/><path d="m65.6 18.1c-.1.2-.3 1.1-1.5.8-.4 0-1-.2-1.2-.9-.3.4-1.1 1.6-2.5 1.4-.3 0-1.3-.4-1.3-1.7 0 0-1.2 1-1.7 1.3 0 .4 0 .9-.2 1.5s-2.7 3.4-4.8 3.8c-.7.2-3.3.7-3.4-2.2q0-1 .1-1.4c-1.6 1.2-3.6 2.2-4.2 2.4-.8.5-3.8.9-4.3 1-.4.1-.4 0-.2-.1s6.8-2.4 10.3-6q.1-.2-.1-.4c-.1-.2-1.1-2.3-1.2-2.6-.1-.2-.3-.6-.3-.7q-.1-.1-.1-.3c.1-.1.1-.6.2-.8 0-.1.1 0 .1 0 .1.1 1.2 1.2 1.3 1.4.2.1.1.2 0 .2 0 0-.6-.1-.6-.1s.7 1.3 1 1.7c.4 1 .2 1.8 0 2.1-.3.7-.9 1.3-1.6 1.9-.1.5-.3 2.9 1.9 2.9.4 0 1.5.2 3.8-1.7.5-.4 1.1-.9 1.6-1.6.2-.3.3-.8 0-.7-.4 0-2.7.9-3.1-.6-.1-.3.1-3.7 2.4-2 .2.1.7.5 1 1.2.4-.2 1.1-.6 2-1.3.3-.2.5-.4.5 0 0 .3-.2 2.2 1.9 1.6.3 0 1.2-.2 1.8-1.9.2-.3.4-.3.3 0-.2.4-.4.8-.2 1s.8.6 1.6.5c.2 0 .4-.1.3-.3s-.4-.7-.4-.7c.1-.2.2-.7.2-.8.1-.1.1-.2.2-.1s.8 1 .4 2.2zm-9.5.1c-.8-1-1.7-.4-1.8-.3s-.2.4.6.4c.8.1 1.2-.1 1.2-.1z" fill-rule="evenodd"/><path d="m11.8 12.9.9.7q0 0 0 .1l-.5.7q-.1.1-.1.1l-.9-.7q-.1-.1-.1-.1l.6-.8q0 0 .1 0z"/><path d="m45.6 12 .9.7q0 0 0 .1l-.5.7q-.1.1-.1.1l-.9-.7-.5.6q0 .1-.1.1l-.9-.7q-.1-.1 0-.1l.5-.8q.1 0 .1 0l.9.7.5-.7q0 0 .1 0z"/><path d="m63.2 12.1s-.1.2-.1.4c-.3.8-.2 1.2-.1 1.3.2.4.5.2.6-.1.1-.2.1-.1.1-.1q0 .1 0 .3c-.2.5-.4.6-.6.6-.3 0-.4-.4-.4-.6-.1-.9.3-1.7.4-1.9s.2-.1.1.1z"/><path d="m53.8 11.6s-.1.2-.1.4c-.3.9-.2 1.3-.1 1.4.2.5.6.2.7-.1 0-.2.1-.1.1 0q0 .1-.1.3c-.1.5-.4.6-.5.6-.4 0-.5-.4-.5-.6-.1-1 .3-1.8.4-2.1.1-.2.2-.1.1.1z"/><path d="m27.5 11.1s-.1.3-.1.5c-.3.9-.2 1.3-.1 1.4.2.4.6.2.7-.2 0-.1.1 0 .1 0q0 .1-.1.3c-.1.6-.4.7-.5.7-.4 0-.5-.5-.5-.7-.1-1 .3-1.8.4-2 .1-.3.2-.1.1 0z"/><path d="m21.9 11.1s-.1.2-.1.4c-.4.9-.2 1.3-.1 1.4.2.4.5.2.7-.1 0-.2.1-.1.1-.1q-.1.1-.1.3c-.2.6-.4.7-.6.7-.3 0-.4-.5-.5-.7 0-1 .4-1.8.5-2 .1-.3.2-.1.1.1z"/><path d="m11.4 9s0 .3-.1.4c-.3 1-.1 1.4 0 1.5.3.5.7.2.8-.2 0-.1.1-.1.1 0q0 .1-.1.3c-.1.6-.4.8-.6.8-.4 0-.6-.5-.6-.7-.1-1 .3-1.9.4-2.2.1-.2.2-.1.1.1z"/><path d="m34.6 9s0 .3-.1.5c-.3 1 0 1.5 0 1.6.3.5.7.2.8-.2 0-.2.1-.1.1 0q0 .1-.1.3c-.1.7-.3.8-.5.8-.4.1-.6-.4-.6-.7-.2-1.1.2-2.1.3-2.4s.2-.1.1.1z"/><path d="m9.4 9.1c.1.2 0 .6-.1.8 0 .1-.1 0-.2-.1 0 0-.1-.2-.2-.2-.5-.4-.7.3-.7.7-.1.3-.1 1.1-.2 1.6 0 .2-.1.2-.2.1-.3-1.1-.9-1.6-1-1.7q0 0 0-.1 0 .2 0 .5c-.2 1.3-1.5 1.9-1.8 2-.2.1-.2.1 0-.2.3-.2 1.3-1.3 1.5-1.5.4-.5-.4-.8-.5-.9-.1-.2-.1-.6-.1-.7 0-.3.2-.4.3-.4 1.2.7 1.6 2 1.6 2.2.1-1 .1-1.8.6-2.4.4-.5 1 .2 1 .3z"/><path d="m35.6 19.5-.5 1.1s-1.2-.1-2.7.2c-.8.2-2.5 1.2-3 1.5-4.2 2.1-5.3.1-5.7-.3-3.3 2.1-5.6 1.5-6.3 1-1.3-.8-1.4-2.2-1.6-3.8-.2-1.7-.3-6.3-1.4-10.3 0 0 .2-.7.3-.8.1-.2.1-.2.3 0 .9 2.7 1.3 9.5 1.3 10 .2 3.3 1.6 3.9 1.8 4 1.9.7 4.7-.8 5.1-1-.6-1.4-.6-2.6.3-3.6.9-.9 1.6 1 1.7 1.3.5 1.6-.6 2.5-.8 2.7 1.9 1.8 6.6-1.1 6.9-1.3 0 0-2.1-.5-2.3-.6-.2 0-.3 0-.3.1-.1.1-.2.1-.2.1s-2.1.3-2.2.3q-.1 0-.1-.1c0-.1.1-.5.2-.8.1-.2 1-.6 1.1-.7 1.3-.4 1.6 0 2.3.2 2.1.7 5.1.8 5.4.8zm-10.7.1c-.2-.5-.8-1.5-1.3-1.1s-.6.7-.2 1.3c.3.7.5.8.5.8.1 0 1.2-.6 1-1z" fill-rule="evenodd"/><path d="m36.8 7.7c.1.1 1.2 2.9 1.3 3.1 0 .1-.1.2-.2.1s-.6-.7-.6-.7.8 5 .9 6.2c.5 2.9 0 4-.3 4.7-1.2 2.6-4.6 3.1-5.1 3.3-.6.2-.6 0-.4-.1 3.2-1.3 4.5-2.8 5.1-3.8q0-.6-.3-1.1c-1-2-3.6-3.9-3.8-4.1-1.5-1.3-3.2-3.7-3.3-3.9-.1-.1-.2-.2-.3-.3s-.1-.1-.1-.3c-.1-.2-.1-.9-.1-1 .1-.1.1-.1.2 0 .2.2 1.9 1.5 2.2 1.7.2.2 0 .3-.1.2-.2 0-.5-.1-.7-.2 0 0 .4.6.7 1 .8 1 2.2 2.2 2.4 2.5.4.3 2 1.6 2.8 2.7.6.8.7 1.7.7 2.3q.1-.2.1-.3c.2-.8-1.2-8.7-1.2-8.7-.1-.7-.2-1.3-.3-1.7 0-.4-.1-.6-.1-.7 0 0 .4-.8.4-.9s.1-.1.1 0z"/><path d="m39.7 7.7c0 .1 1.1 2.9 1.2 3.1 0 .1-.1.2-.2.1 0-.1-.6-.7-.6-.7s.9 6.8 1 7.1c.6 4 .1 5.1 0 5.3-.1.1-.1.1-.1-.1-.1-1.6-1-7.5-1-7.9-.1-.3-.7-5.6-.8-6.1 0 0 .3-.7.3-.8.1-.1.1-.1.2 0z"/><path d="m53 7.8c0 .1-.1.1-.1.3-.1.1-.2.2-.3.3-.2.1-5.1 2.9-5.2 3-.3.1-.3 0-.2-.1q0 0 0-.2c0-.2.1-.2.3-.4.2-.1 5.1-2.9 5.3-3 .3-.2.2-.1.2.1z"/><path d="m24.3 7.8c0 .1 0 .1-.1.3s-.2.3-.4.4c-.1.1-5.8 3-6.5 3.4-.6.4-.6.7-.4.7.5.2.7.5.5 1 0 0-.1.1-.1 0-.1 0-.2-.2-.4-.2-.4-.1-.5-.6-.4-1.1.1-.4.3-.7.5-.9.6-.4 6.9-3.6 7.1-3.7.3-.2.3-.1.2.1z"/><path d="m59 8.1c.1.2 0 .5-.1.8-.1.1-.2 0-.3-.2 0 0-.1-.1-.2-.2-.5-.4-.7.4-.8.8 0 .3-.1 1.2-.1 1.7-.1.2-.2.2-.3.1-.3-1.2-1-1.7-1.1-1.8s-.2 0-.2.1-.1.1-.1.1c-.1-.1-.5-.3-.6-.4-.1-.2-.1-.6-.1-.8.1-.3.2-.4.3-.3 1.4.7 1.8 2 1.9 2.2 0-1 .1-1.8.6-2.5.4-.5 1 .3 1.1.4z"/><path d="m30.3 7.7v.2c0 .1-.2.2-.2.3q-.1.1-.2 0c-.1-.2-.3-.1-.5 0s-.2.2-.1.3c0 .1.3.3.6.3.2.1.7-.1.9-.2s.1.1.1.2c0 0-.2.3-.3.3-1 .2-1.4.6-1.6.7s-.1 0-.1-.1 0-.1.1-.2q.1-.2.2-.2 0 0-.3-.3c-.3-.3.5-1.1.8-1.4.3-.2.5.1.6.1z"/><path d="m63.8 10.1c-.1.2-.1.1-.2-.1-.1 0-.2-.2-.4-.3-.2.4-.2.5-1 1.2-1.8 1.6-3.8 2.1-3.9 2.1-.1.1-.1 0 .1-.2.6-.4 3.2-1.6 4.5-3.2 0 0-.4-.2-.7-.4s-.1-.9.1-1.2c.5-.8.9-.4 1-.3.4.8.2 1.5.2 1.5.2.2.5.5.3.9zm-.9-1.9c-.1-.1-.2-.1-.4.3-.1.1 0 .2.1.3.2 0 .6.2.6.2 0-.1 0-.5-.3-.8z" fill-rule="evenodd"/><path d="m45.3 9.9c0 .1-.1 0-.2-.1 0-.1-.4-.4-.4-.4s-.4.9-1 1.4c-1.2.9-2.3 1.1-2.3 1.1-.2 0-.2-.1 0-.2.8-.4 1.7-.8 3-2.4 0 0-.4-.1-.7-.4-.3-.2-.1-.9.1-1.2.5-.8.9-.4 1-.3.4.8.2 1.5.2 1.5.2.2.5.5.3 1zm-.8-2c-.1 0-.3-.1-.5.3-.1.1 0 .2.1.3.2.1.6.3.6.3 0-.2.1-.6-.2-.9z" fill-rule="evenodd"/><path d="m31 6.2c-.1.1-.1.1-.1.3-.1.1-.2.2-.4.3-.1.1-4.5 2.2-5 2.6-.6.3-.6.6-.4.6.4.1.6.4.4.9h-.1c0-.1-.2-.2-.4-.2-.3-.1-.4-.5-.3-1 .1-.3.3-.6.5-.8.5-.4 5.4-2.7 5.5-2.8.3-.2.3-.1.3.1z"/></g></svg>