<svg height="30" viewBox="0 0 70 30" width="70" xmlns="http://www.w3.org/2000/svg"><g fill="#191c4f"><path d="m20.2 20.6s-.1.3-.1.5c-.4 1-.2 1.5-.2 1.6.3.5.7.3.9-.1 0-.2.1-.1.1 0q0 0-.1.3c-.2.6-.4.8-.6.8-.4 0-.6-.6-.6-.8-.1-1.2.4-2.1.5-2.4s.2-.2.1.1z"/><path d="m32 20.4s-.1.3-.2.5c-.3 1-.1 1.5-.1 1.6.3.5.7.3.9-.1 0-.2.1-.1.1 0q0 0-.1.3c-.2.6-.4.8-.7.8s-.5-.6-.5-.8c-.1-1.2.4-2.1.5-2.4s.2-.2.1.1z"/><path d="m11.5 20c-.1.2-.1.2-.2.4s-.2.3-.4.3c-.3.2-3.3 1.2-3.5 1.3-.4.1-.3 0-.3-.1q0 0 .1-.3c.1-.2.2-.3.4-.4.3-.1 3.3-1.2 3.6-1.3.4-.1.3 0 .3.1z"/><path d="m63.8 19.7v.6c0 .2-.1.6-.2 1s-.9.5-1.4.2c-.9 1.3-1.7.6-2.1.5-.8-.3-1 .2-1.2.4-1 1.1-2.8 1-3.2 1.1-.4 0-.1-.2.1-.3 1.4-.5 2.3-.6 3.5-1.8.6-.5.9-.3 1.1-.2 1.2.5 1.4 0 1.5-.1.2-.2.4-.8.5-1s.2 0 .1.1c0 .2 0 .4-.1.5.5.3 1 0 1.1-.1 0 0 0-.3 0-.5q0-.1.1-.6c.1-.3.2 0 .2.2z"/><path d="m42 18.1c-.4 1.1-2.1 1.8-2.4 1.9-1.5.4-1.6-1-1.5-2.1s.8-2.5.8-2.5-1.6-1.2-1.7-1.4c-.1-.1-.3-.2-.4-.3-.2-.1-.1-.2-.1-.2s0-1.1 0-1.2c0-.2 0-.1.2-.1.1.1 1.8.8 2 .9.1 0 .1.2 0 .2s-.7.2-.7.2l1.4 1s1.9-2.5 2.1-2.8c.2-.2.2-.1.1.2 0 .2-.4 1.3-.5 1.4 0 .2-1 1.6-1 1.6s1.3.7 1.6 1.2c.5.8.2 1.5.1 2zm-2.5-2.3s-.8 1.5-.9 1.8c-.4.9.4 1 .8 1 .3 0 1.4-.6 2-1.1.5-.4-1.5-1.5-1.9-1.7z" fill-rule="evenodd"/><path d="m65.6 16.7c-.1.2-.4 1.3-2 1-.4-.1-1.1-.2-1.5-1.1-.4.5-1.3 2-3.1 1.7-.3 0-1.6-.5-1.6-2.1 0 0-1.5 1.2-2.2 1.6.1.5 0 1.2-.2 1.9-.3.7-3.5 4.3-6 4.9-.9.1-4.2.8-4.3-2.9-.1-.8 0-1.4.1-1.8-2.1 1.6-4.5 2.8-5.2 3.1-1.1.6-4.9 1.2-5.5 1.3-.5.1-.5 0-.3-.2.3-.2 8.6-3 13-7.5.1-.2.1-.4-.1-.6-.1-.2-1.4-2.8-1.6-3.2-.1-.3-.3-.7-.3-.8q-.1-.2-.1-.5c0-.1.2-.8.2-1 .1-.1.1 0 .2.1s1.5 1.4 1.6 1.6c.2.2.1.3 0 .3s-.7 0-.7 0 .9 1.5 1.1 2.1c.6 1.2.3 2.2.1 2.6-.4.8-1.1 1.6-2 2.3-.1.7-.4 3.7 2.4 3.8.5 0 1.9.2 4.7-2.2.7-.5 1.4-1.1 2.1-2 .2-.4.4-1-.1-1-.4.1-3.4 1.2-3.8-.6-.1-.5.1-4.7 3-2.6.3.2.9.7 1.3 1.5.5-.2 1.4-.7 2.5-1.6.3-.3.6-.4.6 0s-.2 2.8 2.4 2.1c.3-.1 1.5-.3 2.3-2.4.2-.5.5-.5.3 0s-.4.9-.2 1.2c.3.2 1 .8 2 .6.3 0 .5-.1.4-.4-.2-.3-.5-.8-.5-.8.1-.3.2-.9.3-1 0-.2.1-.3.2-.2s1 1.3.5 2.8zm-12 .1c-1-1.3-2.1-.6-2.3-.4-.1.1-.2.5.8.6 1.1 0 1.5-.2 1.5-.2z" fill-rule="evenodd"/><path d="m15.2 14.2s-.1.3-.1.5c-.4 1-.2 1.5-.2 1.6.3.5.7.3.9-.1 0-.2.1-.1.1 0q0 .1-.1.3c-.2.6-.4.8-.6.8-.4 0-.6-.6-.6-.8-.1-1.2.4-2.1.5-2.4s.2-.2.1.1z"/><path d="m19.9 11.3 1.2.8q0 .1 0 .1l-.7 1q0 0-.1 0l-1.1-.8-.6.8q-.1 0-.1 0l-1.2-.9q-.1 0 0 0l.7-1q0 0 .1 0l1.1.8.6-.8q.1 0 .1 0z"/><path d="m26.4 10.9 1.2.8q0 .1 0 .1l-.7 1q0 0-.1 0l-1.2-.9q0 0 0-.1l.7-.9q0-.1.1 0z"/><path d="m40.3 9 1.2.9q.1 0 0 .1l-.7 1q0 0 0 0l-1.2-.9-.6.9q0 0-.1 0l-1.2-.9q0 0 0-.1l.7-.9q0-.1.1-.1l1.1.9.6-.8q.1-.1.1-.1z"/><path d="m62.5 9.1s-.1.3-.1.5c-.4 1-.2 1.5-.1 1.6.2.6.6.3.8-.1 0-.2.1-.1.1 0q0 .1-.1.3c-.2.6-.4.8-.6.8-.4 0-.6-.5-.6-.8-.1-1.1.4-2.1.5-2.4.1-.2.2-.1.1.1z"/><path d="m50.7 8.5s-.1.3-.1.5c-.4 1.2-.2 1.7-.2 1.8.3.6.8.3.9-.2.1-.2.2-.1.1 0q0 .1 0 .4c-.2.7-.5.8-.7.8-.5 0-.6-.5-.7-.8 0-1.3.5-2.3.6-2.6s.2-.2.1.1z"/><path d="m28.3 5.1c0 .1 0 .1-.1.3s-.2.3-.5.4c-.2.1-5.7 2.4-5.9 2.5-.4.2-.3.1-.3-.1q0 0 .1-.3c.1-.2.1-.3.4-.4s5.8-2.4 6.1-2.5c.4-.2.3-.1.2.1z"/><path d="m6.9 5.1s-.1.3-.2.5c-.3 1-.1 1.4-.1 1.5.3.5.7.3.8-.1.1-.2.1-.1.1 0q0 .1-.1.3c-.1.6-.4.8-.6.8-.4-.1-.5-.6-.5-.8-.1-1.1.3-2 .5-2.3.1-.2.2-.1.1.1z"/><path d="m20.1 4.9c.7.1.5.4.4.6-.6.8-1.2 1.2-1.8 1.4-.5.2-.2-.2.1-.4 0 0 .3-.2.7-.5.5-.4-.7-.3-1.2-.3-.6 0-.7.2-.9.3-.1.2-.3.1-.2-.1s.3-.5.6-.9c.4-.4 1.6-.2 2.3-.1z"/><path d="m14.6 4.4c.1.2 0 .7-.1 1-.1.2-.2 0-.4-.1 0 0-.1-.2-.2-.3-.6-.6-.9.5-.9 1-.1.3-.1 1.5-.2 2.1-.1.3-.2.3-.3.1-.4-1.4-1.2-2.1-1.3-2.3-.2-.1-.3.1-.3.2s-.1.1-.2 0c0 0-.5-.3-.6-.5-.2-.1-.1-.7-.1-.9 0-.4.2-.5.4-.4 1.6.9 2 2.5 2.1 2.8.1-1.2.2-2.3.8-3.1.5-.7 1.2.3 1.3.4z"/><path d="m49.7 3.7c0 .1-.1.1-.2.3 0 .2-.2.3-.4.4-.2.2-6.4 3.7-6.5 3.8-.3.2-.3.1-.3-.1q.1 0 .1-.3c.1-.2.1-.2.4-.4.2-.1 6.4-3.7 6.6-3.8.4-.2.3-.1.3.1z"/><path d="m57.2 4c.1.3 0 .8-.1 1.1-.1.2-.2 0-.4-.2 0 0-.1-.2-.3-.3-.6-.5-.8.5-.9 1 0 .4-.1 1.5-.2 2.2 0 .3-.2.2-.3.1-.4-1.5-1.2-2.2-1.4-2.3-.1-.2-.2.1-.2.2-.1 0-.1 0-.2 0s-.6-.3-.7-.5c-.2-.2-.1-.7-.1-.9 0-.4.3-.5.4-.5 1.7 1 2.2 2.6 2.3 2.9.1-1.3.1-2.4.7-3.2.6-.7 1.3.3 1.4.4z"/><path d="m63.3 6.6c-.1.2-.1.1-.3-.1 0-.1-.2-.3-.4-.4-.3.6-.3.6-1.3 1.5-2.3 2-4.8 2.7-4.9 2.7s-.2-.1.1-.2c.7-.6 4-2.1 5.7-4.1 0 0-.6-.2-.9-.5-.4-.3-.2-1.2.1-1.6.6-1 1.2-.4 1.3-.3.5 1 .2 1.9.2 1.9.3.2.6.5.4 1.1zm-1.1-2.4c-.1-.1-.3-.1-.6.4-.1.1 0 .3.2.3.3.1.7.4.7.4.1-.2.1-.7-.3-1.1z" fill-rule="evenodd"/><path d="m31.2 17c-.2 2.4-1.5 2.7-2.1 2.8-1.3 0-2.6-.5-2.6-.5-1.4.8-2.6.9-3.2.9-2.5-.1-2.9-2.2-2.9-2.2-.8 1-2 1.7-2.7 2-3.4 1.4-5.1.2-5.5-.1-2.3-1.7-1.1-5.6-.9-6.4q-1.2.6-2 1.3c.1.4 0 .7 0 .8 0 .3-.1.2-.3 0q0-.1-.3-.4c-2.6 2.2-2.7 4.1-2.8 4.7-.5 5.1 3.9 5.6 4.8 5.8 2.3.6 7.3-.1 8.1-.1s.9.1.2.4c-.6.3-3.9 1.3-5.2 1.3-8.4.4-8.4-4.4-8.5-5.1-.3-4.1 1.4-6.5 2.7-7.7-.7-.6-1.5-1.3-2.4-1.8-.4-.2-.6-.5-.6-1.2 0-.9.7-1.6 1.6-1.8 3.5-.8 8.9-.2 9.9 0l-.5 1.3s-2.1 1.2-3 1.6q-.6.3-1.2.6c-1.6 4.9 1.6 5.9 2.1 6 3.9.6 6.2-2.2 6.6-2.6.5-.4.5-.2.5 0s0 .9.1 1c1.5 2.3 4.6.8 4.6.8-.5-.8.1-2.9 1.3-3.7s1.5 1.1 1.6 1.4c.1 1-.5 2.2-.5 2.2.7.1 1.3 0 1.9-.1.7-.2.5-1.1.4-1.5 0-.5-1.2-11-1.3-11.5s-.2-.8-.2-.9c0 0 .5-1 .5-1.1.1-.2.1-.1.2 0 0 .2 1.3 3.3 1.4 3.5 0 .2-.1.2-.2.1s-.8-.8-.8-.8.9 6.6.9 7.2c.1.6.3 3.4.3 3.8zm-17.5-6.1c-5.7-.5-7.3.1-7.8.2-.4.2-.2.3-.1.4s2.2 1.5 2.6 1.8q.2.2.4.5c.3-.3.6-.4.6-.5.4-.2 3.8-2.2 4.3-2.4zm14.2 5.9c-.3-.8-.5-1.1-1-.8-.4.2-1 .9-.7 1.3.2.5.7.6.7.6.3-.1 1.2-.3 1-1.1z" fill-rule="evenodd"/><path d="m33.5 3.2c.1.2 1.5 3.6 1.6 3.8s-.1.3-.2.2c-.1-.2-.8-.8-.8-.8s1.1 7.9 1.2 8.4c.3 3.2-.1 5.3-.3 5.6-.2.2-.2.1-.2-.1-.1-2-.8-8-.9-8.4 0-.5-.8-7-.9-7.7 0 0 .3-.9.4-1 0-.2.1-.1.1 0z"/><path d="m40 6.3c0 .2-.1.1-.2-.1-.1-.1-.5-.4-.5-.4s-.5 1.1-1.3 1.7c-1.6 1.1-2.9 1.3-2.9 1.4-.2 0-.2-.1 0-.3 1-.5 2.1-.9 3.8-3 0 0-.5-.2-.9-.4-.4-.3-.2-1.2.1-1.6.6-1 1.2-.5 1.3-.3.5.9.2 1.9.2 1.9.3.1.6.5.4 1.1zm-1-2.4c-.2-.1-.3-.1-.7.3-.1.2 0 .3.3.4.2.1.7.3.7.3 0-.1 0-.7-.3-1z" fill-rule="evenodd"/></g></svg>