<svg height="30" viewBox="0 0 70 30" width="70" xmlns="http://www.w3.org/2000/svg"><g fill="#191c4f"><path d="m15.4 22.5c-.1.1-.1.1-.2.3 0 .1-.1.2-.3.3s-2.7 1-2.8 1c-.3.2-.2.1-.2 0q0 0 .1-.3c0-.1.1-.2.3-.3s2.7-1 2.9-1.1c.3-.2.2-.1.2.1z"/><path d="m26.6 21.2s-.1.2-.1.4c-.3.8-.2 1.2-.1 1.3.2.4.5.2.6-.1.1-.2.2-.1.1 0q0 0 0 .2c-.2.5-.4.7-.5.7-.4-.1-.5-.5-.5-.7-.1-.9.3-1.7.4-1.9s.2-.1.1.1z"/><path d="m32.2 20.7s-.1.3-.1.4c-.3.9-.2 1.3-.1 1.3.2.5.5.2.6-.1.1-.1.1-.1.1 0q0 .1 0 .3c-.2.5-.4.6-.6.6-.3 0-.4-.4-.4-.6-.1-.9.3-1.7.4-1.9.1-.3.2-.2.1 0z"/><path d="m64.1 20.1v.5c0 .2-.1.5-.2.9-.1.3-.7.4-1.2.1-.7 1.1-1.4.6-1.7.4-.7-.2-.9.2-1.1.4-.8.9-2.3.9-2.7.9-.3.1 0-.2.1-.2 1.2-.5 2-.5 3-1.5.5-.5.8-.3 1-.2 1 .4 1.1 0 1.2-.1.2-.1.3-.7.4-.8.1-.2.2-.1.1.1 0 .1 0 .3-.1.3.5.3.9.1 1 0 0 0-.1-.3-.1-.4q0-.2.1-.5c.1-.3.2-.1.2.1z"/><path d="m16.8 20s-.1.3-.1.5c-.4 1.2-.1 1.6-.1 1.8.4.5.8.2.9-.2.1-.3.1-.2.1-.1q0 .1 0 .4c-.2.7-.5.9-.7.9-.4 0-.6-.6-.7-.8-.1-1.2.3-2.3.5-2.6.1-.3.2-.2.1.1z"/><path d="m10.3 13.6s-.1.2-.1.4c-.2 1-.1 1.4 0 1.5.2.4.5.2.6-.2.1-.2.1-.1.1 0q0 .1 0 .3c-.2.6-.3.7-.5.7-.3 0-.5-.4-.5-.7-.1-1 .2-1.8.3-2.1.1-.2.1-.1.1.1z"/><path d="m7 16s-.1.5-.2.9c-.4 1.8-.1 2.6 0 2.7.5.9 1 .4 1.2-.3.1-.3.2-.1.2 0q0 .2-.1.6c-.2 1.1-.6 1.3-.9 1.4-.6 0-.9-.9-.9-1.3-.3-2 .4-3.7.5-4.1.2-.5.3-.3.2.1z"/><path d="m16.1 13.7c1 1.3.6 2.3.6 2.5-.3 1.1-1.5 1.3-2 1.3.2.8.1 1.4.1 1.7 0 0-.1.7-1 1.6-1.7 1.7-4 2.7-4.3 2.9-.4.1-4 .7-4.3.7s-.2-.1 0-.2 2.2-.8 2.7-1c5-2.1 6.4-4.2 6.6-4.5.1-.4-.6-1.5-.7-1.9-.2-.3-.3-.6-.3-1.2.1-.5.4.1.5.3q.2.2.3.5c1.1.1 1.7-.2 1.9-.4.3-.3-.2-1-.4-1.2-.1-.2 0-1 .1-1.1q.1-.2.2 0z"/><path d="m45.6 18.7c-.3 1-1.7 1.6-2 1.6-1.2.4-1.3-.8-1.3-1.7.1-.9.8-2.1.8-2.1-.1 0-1.4-1.1-1.5-1.2s-.2-.2-.3-.3c-.2-.1-.1-.1-.1-.1s0-1 0-1.1 0 0 .1 0c.1.1 1.6.6 1.7.7.2.1.1.2 0 .2 0 0-.5.2-.5.2l1.1.8s1.7-2.1 1.8-2.3c.2-.2.2-.1.1.1 0 .2-.3 1.1-.4 1.2-.1.2-.9 1.3-.9 1.3s1.1.7 1.4 1.1c.4.6.1 1.3 0 1.6zm-2-1.8s-.7 1.2-.8 1.4c-.4.8.4.9.6.9.3-.1 1.3-.6 1.7-.9.5-.4-1.2-1.3-1.5-1.4z" fill-rule="evenodd"/><path d="m65.6 17.6c-.1.2-.3 1.1-1.6.8-.4 0-1-.2-1.3-.9-.3.4-1.1 1.7-2.6 1.5-.3-.1-1.4-.5-1.4-1.8 0 0-1.3 1-1.9 1.3.1.5.1 1-.2 1.6-.2.6-2.9 3.6-5 4.1-.8.2-3.6.7-3.7-2.4 0-.7.1-1.2.1-1.5-1.7 1.3-3.8 2.4-4.4 2.6-.9.5-4.1 1-4.6 1.1-.4.1-.5 0-.2-.2.2-.1 7.2-2.5 10.9-6.3.1-.2.1-.3 0-.5s-1.3-2.4-1.4-2.7-.2-.6-.3-.7q-.1-.2 0-.4c0-.1.1-.7.1-.8.1-.2.1-.1.2 0s1.2 1.2 1.4 1.4c.1.2 0 .2-.1.2h-.6s.8 1.3 1 1.8c.5 1 .2 1.9.1 2.2-.4.7-1 1.4-1.7 2-.1.5-.4 3.1 2 3.1.4 0 1.6.2 4-1.8.6-.4 1.2-1 1.7-1.7.3-.3.4-.8 0-.8s-2.9 1-3.3-.6c0-.3.2-3.9 2.6-2.1.2.1.7.5 1.1 1.2.4-.1 1.2-.6 2.1-1.4.3-.2.5-.3.5 0 0 .4-.2 2.4 2.1 1.8.2 0 1.2-.2 1.9-2 .2-.4.4-.4.3 0-.2.4-.4.8-.2 1s.8.7 1.6.6c.3-.1.5-.2.4-.4s-.4-.7-.4-.7c.1-.3.2-.7.2-.8 0-.2.1-.3.2-.2s.8 1.1.4 2.4zm-10.2.1c-.8-1.1-1.7-.5-1.8-.4s-.2.4.6.5c.9.1 1.2-.1 1.2-.1z" fill-rule="evenodd"/><path d="m15.7 11.2 1 .7q.1.1 0 .1l-.5.8q-.1.1-.1 0l-1-.7-.5.7q0 .1-.1 0l-1-.7q0 0 0-.1l.6-.8q0 0 .1 0l.9.7.6-.7q0 0 0 0z"/><path d="m44.3 11.1 1 .7q0 .1 0 .1l-.6.8q0 .1-.1 0l-1-.7-.5.7q0 .1 0 0l-1-.7q-.1 0-.1-.1l.6-.8q.1 0 .1 0l1 .7.5-.7q0 0 .1 0z"/><path d="m63 11.2s0 .2-.1.4c-.3.9-.1 1.3-.1 1.4.2.4.6.2.7-.2.1-.1.1 0 .1 0q0 .1-.1.3c-.1.5-.3.7-.5.7-.4 0-.5-.5-.5-.7-.1-1 .3-1.8.4-2s.2-.1.1.1z"/><path d="m53.1 10.6s-.1.3-.2.5c-.3.9-.1 1.4-.1 1.5.3.5.6.2.8-.1 0-.2.1-.1.1-.1q-.1.1-.1.3c-.2.6-.4.8-.6.8-.4-.1-.5-.5-.5-.8-.1-1 .3-1.9.4-2.1.1-.3.2-.2.2 0z"/><path d="m14.6 9.6 1 .7q.1 0 0 .1l-.5.8q-.1 0-.1 0l-1-.7q-.1-.1 0-.1l.5-.8q.1-.1.1 0z"/><path d="m9 8.2c.1.2 0 .6-.1.8 0 .2-.2 0-.3-.1 0 0-.1-.1-.2-.2-.4-.4-.6.4-.7.7 0 .3-.1 1.2-.1 1.7q0 0-.1.1c0 .4-.2.9-.9 1.4-.9.6-.9.6-1 .6-.1.1-.1 0 0-.1s1.8-1.5 1.7-2.2c-.2-.8-.9-1.4-1-1.5s-.2.1-.2.1c0 .1-.1.1-.1.1-.1 0-.4-.3-.6-.4-.1-.1 0-.5 0-.7 0-.3.2-.4.3-.3 1.2.7 1.6 1.9 1.7 2.1 0-.9.1-1.7.6-2.4.4-.5.9.3 1 .3z"/><path d="m33.1 14.8 1 .8q0 0 0 .1l-.6.8q0 0-.1 0l-.9-.7-.6.7q0 0 0 0l-1-.8q-.1 0 0 0l.5-.8q.1-.1.1-.1l1 .8.5-.7q0-.1.1-.1z"/><path d="m28.2 14.7s0 .4-.1.6c-.4 1.3-.1 1.9 0 2 .3.6.8.2.9-.2.1-.3.2-.2.2-.1q0 .2-.1.4c-.2.8-.5 1-.7 1-.5 0-.7-.6-.8-.9-.1-1.3.4-2.5.5-2.9.1-.3.2-.2.1.1z"/><path d="m24.9 12.2s-.1.2-.1.4c-.3.8-.1 1.2-.1 1.3.2.4.5.2.7-.1 0-.2.1-.1 0 0q0 0 0 .2c-.2.5-.4.6-.5.7-.4-.1-.5-.5-.5-.7-.1-.9.3-1.7.4-1.9s.2-.1.1.1z"/><path d="m33.1 11.8s.1.4.3.7c.1.2.2.4.1.8 0 .3-.2.6-.4.7-.2 0-.6 0-.8-.3-.4.6-.8.7-1.1.6-.3-.2-.3-.7-.3-.8 0-.2 0-.7 0-.8s0-.2.1-.3.1-.1.1.1c0 .1-.1.8.1 1.1.3.3.8 0 .9-.2s-.1-.9-.1-1q-.1 0 0-.1s0-.3 0-.4q.1-.1.2 0c0 .2 0 .3.2 1 .1.7.7.5.8.5.2-.1.1-.2.1-.3 0 0-.3-.6-.4-.8s0-.4.1-.6c0-.2.1-.1.1.1z"/><path d="m33.6 9.4c0 .2 0 .2-.1.3-.1.2-.2.2-.4.4-.1.1-2.6 1-2.7 1-.3.2-.3.1-.2 0q0-.1 0-.3c.1-.2.2-.2.4-.3s2.6-1 2.8-1.1c.3-.2.3-.1.2 0z"/><path d="m24.7 7c0 .2 0 .2-.1.4-.1.1-.2.2-.3.3-.2.1-4.8 2.2-4.9 2.3-.3.2-.2.1-.2 0q0-.1.1-.3c0-.2 0-.3.3-.4.2-.1 4.7-2.2 4.9-2.3.3-.2.3-.1.2 0z"/><path d="m35.4 20.9c-2.1.7-2.7-.9-3-1.6-2.2 3.3-5 1.4-5.3 1.1-.3-.2-2.1-2.1-3.2-2.5 1 1.9.3 2.9 0 3.3-1.3 1.3-2.5 1.3-3 1.2-2.2-.5-2.3-3.7-2.4-4.4-.1-2.6-1.4-9.2-1.5-9.6-.2-.5-.1-.8.1-1.1.1-.3.2-.2.3.1.5 1.7 1 4.4 1.3 6.8q0-.3.1-.4c0-.3.1-.5.6-.9 2.2-2.1 7.6-5.1 9.4-5.6 1.7-.5 1.6 1.1.6 2.8-.2.4-1.8 2.5-2.1 3-.2.4-.2.1-.1-.2 0-.2.3-.9.5-1.2.1-.2.9-1.2 1.7-2.5.8-1.2-1.4-.6-1.7-.4-4.4 1.9-8.2 5.1-8.4 5.4-.3.2.1.3.4.4 2.7.7 5.7 2.9 6.3 3.4.8.9 1.4 1.3 1.7 1.5 1.4.9 2.8.4 3.1.2 1-.4 1.6-1.5 1.8-1.7.1-.1.2 0 .2.2.1.5.4 1 .5 1.1.8 1 2.4.3 2.7 0 .2-.4-1.3-9.5-1.3-9.5-.1-.6-.2-1.2-.2-1.6-.1-.4-.2-.6-.2-.7 0 0 .4-.9.4-1 .1-.1.1 0 .2.1 0 .1 1.2 3 1.3 3.2 0 .2-.1.2-.2.1s-.7-.7-.7-.7 1.3 8.5 1.3 9.1c.1 2.3-.9 2.5-1.2 2.6zm-11.5-1.8c-1.2-1.5-4.1-3-4.9-3.4q-.1-.1-.2-.2c.2 1.5.3 2.6.4 3 .4 2.7 1.6 2.8 2.3 2.7s1.9-.8 2.2-1.1c.4-.4.4-.6.2-1z" fill-rule="evenodd"/><path d="m38 6.6c0 .1 1.2 3 1.3 3.2.1.1-.1.2-.2.1s-.7-.7-.7-.7 1.2 8 1.2 8.2q.3 2.4.2 3.5c0 1-.2 1.4-.3 1.5s-.1.1-.1-.1c0-.6-.1-1.6-.3-2.8-.3-2.4-1.4-10.1-1.5-11.4 0-.1-.1-.5-.2-.6 0 0 .4-.9.5-1 0-.1 0 0 .1.1z"/><path d="m52.2 6.6c-.1.1-.1.1-.1.3-.1.1-.2.2-.4.3s-5.4 3.1-5.5 3.2c-.3.2-.3.1-.2 0q0-.1 0-.3c.1-.2.1-.2.3-.4.3-.1 5.4-3.1 5.6-3.2.4-.2.3-.1.3.1z"/><path d="m14.6 8.8c-.1.1-.1 0-.2-.1 0-.1-.3-.3-.3-.3s-.9 1.4-1.9 2.1c-1.1.8-2.1 1.1-2.1 1.1-.1 0-.1-.1 0-.2.7-.4 2.4-1.7 3.7-3.1 0 0-.4-.2-.6-.4-.3-.2-.1-.8 0-1.1.5-.7.9-.3 1-.2.4.7.1 1.3.1 1.3.2.2.5.4.3.9zm-.7-1.8c-.1-.1-.2-.1-.5.2-.1.1 0 .2.2.3.1.1.5.3.5.3 0-.1 0-.6-.2-.8z" fill-rule="evenodd"/><path d="m58.5 6.9c.1.2.1.6 0 .9-.1.1-.3 0-.4-.2 0 0-.1-.1-.2-.2-.5-.5-.7.4-.8.8 0 .3-.1 1.3-.2 1.8 0 .3-.2.3-.2.1-.4-1.2-1.1-1.8-1.2-1.9s-.2 0-.2.1-.1.1-.2.1c0-.1-.4-.3-.6-.5-.1-.1-.1-.5 0-.7 0-.4.2-.5.3-.4 1.4.8 1.8 2.2 1.9 2.4.1-1.1.1-2 .7-2.7.4-.6 1.1.3 1.1.4z"/><g fill-rule="evenodd"><path d="m63.7 9.1c-.1.1-.1 0-.2-.1s-.2-.3-.4-.4c-.3.5-.2.6-1.1 1.3-1.9 1.7-4 2.3-4.2 2.3-.1 0-.1-.1.1-.2.7-.5 3.4-1.8 4.8-3.5 0 0-.4-.2-.7-.4s-.2-1 0-1.3c.6-.8 1.1-.4 1.1-.3.5.8.3 1.6.3 1.6.2.2.5.5.3 1zm-.9-2.1c-.1 0-.3-.1-.5.3-.1.2 0 .3.1.3.2.1.6.3.6.3 0-.1.1-.6-.2-.9z"/><path d="m44 8.8c-.1.1-.1 0-.2-.1s-.4-.3-.4-.3-.4.9-1.1 1.4c-1.3 1-2.4 1.1-2.5 1.2-.1 0-.2-.1 0-.2.9-.5 1.8-.8 3.2-2.6 0 0-.4-.1-.7-.4-.3-.2-.2-1 .1-1.3.5-.8 1-.4 1.1-.3.4.8.2 1.6.2 1.6.2.2.5.5.3 1zm-.9-2.1c-.1 0-.2 0-.5.3-.1.2 0 .3.2.4.1 0 .6.2.6.2 0-.1 0-.6-.3-.9z"/></g></g></svg>