<svg height="30" viewBox="0 0 70 30" width="70" xmlns="http://www.w3.org/2000/svg"><g fill="#191c4f"><path d="m15.6 23c0 .1-.1.2-.2.3 0 .2-.2.3-.4.4s-3.3 1.4-3.4 1.4c-.4.2-.4.1-.3 0q0-.1.1-.3c0-.2.1-.3.4-.4.2-.1 3.3-1.4 3.5-1.5.4-.2.4 0 .3.1z"/><path d="m33.7 21.8c.4.1.4.6.3.8-.3 1-1 1.7-1.2 1.9s-.2.1-.1-.1c0 0 .2-.2.3-.4.7-.8.6-1.2.6-1.3-.1-.6-.5-.5-.7-.2-.2.2-.2.1-.1 0q0-.1.1-.3c.4-.5.6-.5.8-.4z"/><path d="m63.9 20v.5c0 .3-.1.6-.2 1-.1.3-.9.5-1.4.1-.8 1.3-1.5.7-2 .5-.7-.3-.9.2-1.1.4-.9 1.1-2.7 1-3.1 1.1-.4 0 0-.2.1-.3 1.4-.5 2.2-.6 3.4-1.7.6-.5.9-.3 1.1-.2 1.1.5 1.3 0 1.4-.1.2-.2.4-.8.4-.9.1-.2.2-.1.2.1 0 .1-.1.3-.1.4.5.3.9 0 1 0 0 0 0-.4 0-.5q0-.2.1-.6c.1-.3.2 0 .2.2z"/><path d="m10.7 14.5s-.1.4-.2.7c-.4 1.2-.1 1.8-.1 1.9.4.6.9.2 1.1-.2.1-.3.2-.2.1 0q0 .1 0 .3c-.2.8-.6 1-.8 1-.5 0-.8-.6-.8-.9-.2-1.3.3-2.5.5-2.8.1-.4.2-.2.2 0z"/><path d="m25.2 12.8s.1.5.3.8c.2.2.3.5.2.9-.1.5-.3.8-.5.9-.2 0-.7 0-1-.4-.4.7-.9.9-1.2.7-.4-.1-.4-.7-.4-.9s0-.8 0-.9c0-.2 0-.3.1-.4.1-.2.1-.1.1.1s-.1 1 .1 1.3c.4.4 1 0 1.1-.2.2-.3-.1-1.1-.1-1.2q-.1-.1-.1-.1c0-.1.1-.3.1-.5q.1-.1.2.1c.1.1.1.3.2 1.1.2.8.9.6 1.1.6.1-.1.1-.2.1-.3-.1-.1-.4-.7-.5-1s0-.5 0-.8c.1-.2.2 0 .2.2z"/><path d="m15.2 12.6 1.1.8q0 0 0 .1l-.7.9q0 0-.1 0l-1.1-.8q0-.1 0-.1l.7-.9q0-.1.1 0z"/><path d="m43 18.4c-.3 1.1-1.9 1.7-2.3 1.8-1.4.5-1.5-.9-1.4-2 .1-1 .8-2.3.8-2.3 0-.1-1.5-1.2-1.6-1.3-.2-.2-.3-.3-.4-.4-.2-.1-.2-.2-.2-.2s.1-1 .1-1.1c0-.2 0-.1.2-.1.1.1 1.7.7 1.9.8.1.1.1.2 0 .2-.1.1-.7.2-.7.2l1.4 1s1.8-2.4 2-2.7c.2-.2.1-.1.1.2 0 .2-.4 1.2-.5 1.4-.1.1-1 1.4-1 1.4s1.2.8 1.5 1.2c.6.8.2 1.5.1 1.9zm-2.3-2.1s-.8 1.4-.9 1.6c-.4.9.4 1 .7 1s1.4-.6 2-1c.5-.5-1.5-1.5-1.8-1.6z" fill-rule="evenodd"/><path d="m65.6 17.1c-.1.2-.4 1.3-1.9 1-.3-.1-1.1-.3-1.4-1.1-.4.5-1.2 1.9-3 1.7-.3-.1-1.5-.6-1.6-2.1 0 0-1.4 1.2-2 1.5 0 .6 0 1.2-.3 1.9-.2.6-3.2 4-5.7 4.6-.8.2-4 .8-4.1-2.8 0-.7 0-1.3.1-1.6-1.9 1.5-4.3 2.6-5 2.9-1 .5-4.6 1.1-5.2 1.2-.5.1-.5 0-.3-.1.3-.2 8.3-2.9 12.4-7.2.1-.2.1-.3 0-.6-.1-.2-1.4-2.7-1.5-3-.2-.3-.3-.7-.4-.8q-.1-.2-.1-.4c.1-.2.2-.8.2-1 .1-.1.1-.1.2 0s1.4 1.4 1.6 1.6c.1.2 0 .3-.1.3 0 0-.6-.1-.6-.1s.8 1.5 1.1 2c.5 1.2.2 2.2 0 2.6-.4.8-1.1 1.5-1.9 2.2-.1.6-.4 3.5 2.3 3.6.4 0 1.8.2 4.5-2.1.7-.5 1.4-1.1 2-2 .2-.3.4-.9-.1-.8-.4 0-3.2 1.1-3.6-.7-.1-.4.1-4.4 2.9-2.4.2.1.8.6 1.2 1.4.5-.2 1.3-.7 2.4-1.6.3-.2.6-.4.6 0s-.3 2.7 2.3 2c.3 0 1.3-.3 2.1-2.3.2-.4.5-.4.4 0-.2.5-.5 1-.2 1.2.2.2.9.8 1.8.6.3 0 .5-.1.4-.4-.1-.2-.4-.7-.4-.7 0-.4.2-.9.2-1 0-.2.1-.3.2-.2.1.2 1 1.2.5 2.7zm-11.5.1c-.9-1.2-2-.5-2.1-.4s-.2.5.7.5c1 .1 1.4-.1 1.4-.1z" fill-rule="evenodd"/><path d="m6.2 11.3s-.1.5-.2.9c-.6 2-.4 2.9-.3 3.1.4 1 1 .5 1.2-.3.1-.3.2-.1.2 0q0 .2-.1.6c-.3 1.2-.7 1.5-1 1.5-.6-.1-.9-1-.9-1.5 0-2.2.8-3.9.9-4.5.2-.5.4-.2.2.2z"/><path d="m29.3 10.9s-.1.3-.2.6c-.4 1.2-.1 1.8 0 1.9.4.6.9.3 1.1-.2 0-.3.1-.1.1 0q0 .1 0 .3c-.2.8-.6 1-.8 1-.6 0-.8-.6-.9-.9-.1-1.3.4-2.5.6-2.8.1-.4.2-.2.1.1z"/><path d="m41.5 9.8 1.1.8q0 0 0 .1l-.6.9q-.1 0-.1 0l-1.1-.8-.6.8q-.1 0-.1 0l-1.1-.8q-.1 0 0-.1l.6-.9q.1-.1.1 0l1.1.8.6-.8q0-.1.1 0z"/><path d="m62.7 9.8s-.1.3-.2.5c-.3 1-.1 1.5-.1 1.6.3.5.7.2.8-.2.1-.2.1-.1.1 0q0 .1-.1.3c-.1.6-.4.8-.6.8-.4 0-.5-.5-.5-.8-.1-1.1.3-2 .5-2.2.1-.3.2-.2.1 0z"/><path d="m51.4 9.2s-.1.4-.2.6c-.3 1-.1 1.5-.1 1.6.3.6.7.3.9-.1 0-.2.1-.1.1 0q0 .1-.1.3c-.2.7-.4.8-.7.8-.4 0-.5-.5-.6-.8 0-1.2.5-2.1.6-2.4s.2-.2.1 0z"/><path d="m16 8.7s.1.5.3.8c.2.2.3.5.2 1-.1.4-.3.7-.5.8s-.7.1-1-.4c-.4.8-.9.9-1.3.8-.3-.2-.3-.8-.3-1s0-.8 0-.9 0-.2.1-.4c.1-.1.1-.1.1.1s-.1 1 .1 1.3c.4.5 1 0 1.1-.2.2-.2-.1-1.1-.1-1.2q-.1 0-.1-.1s.1-.3.1-.4q.1-.2.2 0c.1.1.1.3.2 1.1.2.8.9.6 1.1.6.1-.1.1-.2.1-.3-.1-.1-.4-.7-.5-1s0-.5 0-.7c.1-.3.2-.1.2.1z"/><path d="m29.4 7c0 .1 0 .2-.1.4s-.2.2-.5.4c-.2.1-9.9 5.4-10 5.5-.4.2-.4.1-.3-.1q0 0 0-.3c.1-.2.2-.3.5-.5.2-.1 9.9-5.4 10.1-5.5.4-.2.4-.1.3.1z"/><path d="m11.8 6.1c.1.3 0 .8-.1 1s-.2 0-.4-.1c0 0-.1-.2-.2-.3-.6-.5-.9.5-.9.9-.1.4-.1 1.5-.2 2.1q0 .1 0 .1c-.1.5-.3 1.2-1.2 1.8-1.1.7-1.2.8-1.3.8-.1.1-.2 0 0-.2.2-.1 2.3-1.8 2.1-2.7-.3-1-1.1-1.8-1.2-1.9s-.2.1-.3.2c0 .1-.1.1-.1 0-.1 0-.5-.3-.7-.5-.1-.1-.1-.6-.1-.8.1-.4.3-.5.4-.5 1.6.9 2.1 2.5 2.1 2.7.1-1.1.2-2.2.8-3 .5-.6 1.2.3 1.3.4z"/><path d="m22.6 5.9c.2.2.1.7 0 .9s-.3 0-.4-.1c0 0-.1-.2-.3-.3-.5-.4-.7.5-.8.9s-.1 1.4-.2 2c0 .3-.2.2-.3.1-.3-1.3-1.1-2-1.2-2.1s-.2.1-.3.2h-.1c-.1 0-.5-.3-.7-.5-.1-.1-.1-.6 0-.8 0-.3.2-.5.3-.4 1.5.9 2 2.3 2.1 2.6.1-1.1.1-2.1.7-2.9.5-.6 1.2.3 1.2.4z"/><path d="m33.2 18.4c-.2 2.1-1.3 2.7-1.7 2.9-2 .8-5.5 1.2-5.9 1.3-1 0-1.8-.1-2.4-.3-.2.3-.6.9-.7.9-.1.1-.2.1-.1-.1.1-.1.3-.7.4-.9-.8-.5-1.3-1.1-1.6-1.5-.5 1.2-1.3 1.6-1.8 1.8-2 .6-3.2-1.1-3.6-1.6-6 2.9-8.6 1.8-8.9 1.6-3.1-1.5-1.5-4.9-1.4-5.3.2-.4.4-.1.3.1-1 3 1.1 3.7 1.5 3.9 3.4 1.1 7.6-1.1 8-1.3 0 0-.4-.9-.5-1.4-.1-.9.5-2.1 1-2.7.4-.6 1.8-.1 1.9 2 .1 1.6-.7 2.1-1 2.5.8 1.5 2.8.9 3 .7 1.1-.5 1.5-1.9 1.7-2.2.3-.4.3.2.3.6.5 1.2 1.7 1.6 1.7 1.6 2.5-3.9 3.9-4.2 4.3-4.4.6-.2 2.6-.6 3.7 1.5.2.5-.2 1.8-.3 2.1 1.8-.6 1.5-1.2 1.5-1.6 0-.3-.5-3.3-.5-3.7-.1-.4-.9-6-.9-6-.1-.7-.1-1.4-.1-1.9-.1-.5-.2-.7-.3-.8 0 0 .4-1 .5-1.1 0-.1.1-.1.1.1.1.1 1.2 3.1 1.3 3.3 0 .1-.1.2-.2.1s-.6-.4-.6-.4 1.4 9.5 1.3 10.2zm-16.1.2c.1-.1.2-.1.1-.3 0-.1-.7-1.9-1.5-1.2-.4.4-.3.9-.2 1.1 0 .2.5 1.2.5 1.2.3-.1 1-.7 1.1-.8zm13.5.5c-1.2-1.6-2.5-1.5-3-1.4-1.9.7-3.6 3.4-3.6 3.4.5.1 4.1.2 6.6-1.5.1-.1.3-.2 0-.5z" fill-rule="evenodd"/><path d="m34.7 5.2c.1.1 1.5 3.4 1.5 3.6.1.2-.1.2-.2.1s-.7-.7-.7-.7 1 7.4 1.1 7.8c.8 4.8.1 6.2 0 6.3-.1.2-.2.2-.1 0-.1-2-1.1-8.4-1.2-8.9 0-.4-.8-6.7-.9-7.3 0 0 .3-.9.4-1 0-.1.1-.1.1.1z"/><path d="m50.4 4.6c0 .2 0 .2-.1.4s-.2.2-.4.4c-.2.1-6.1 3.5-6.2 3.6-.4.2-.4 0-.3-.1q0 0 .1-.3c0-.2.1-.2.3-.4.2-.1 6.1-3.5 6.3-3.7.4-.2.4 0 .3.1z"/><path d="m57.6 5c.1.2 0 .7-.1 1-.1.2-.2 0-.4-.2 0 0-.1-.1-.2-.2-.6-.6-.9.4-.9.9-.1.3-.1 1.4-.2 2.1-.1.2-.2.2-.3 0-.4-1.3-1.2-2-1.3-2.1-.2-.2-.3 0-.3.1s-.1.1-.2.1c0-.1-.5-.4-.6-.5-.2-.2-.1-.7-.1-.9 0-.4.2-.5.4-.4 1.6.9 2.1 2.4 2.1 2.7.1-1.2.2-2.2.8-3 .5-.7 1.2.3 1.3.4z"/><g fill-rule="evenodd"><path d="m63.4 7.5c0 .1-.1 0-.2-.1s-.3-.3-.5-.4c-.2.5-.2.6-1.2 1.4-2.2 1.9-4.6 2.5-4.7 2.6-.1 0-.1-.1.1-.2.7-.6 3.8-2 5.4-4 0 0-.5-.2-.8-.4-.4-.3-.2-1.1.1-1.5.6-1 1.1-.5 1.2-.3.5.9.2 1.8.2 1.8.3.2.6.5.4 1.1zm-1-2.4c-.1 0-.3 0-.6.4-.1.1 0 .3.2.4.2 0 .7.3.7.3 0-.2 0-.7-.3-1.1z"/><path d="m41.2 7.2c-.1.1-.2 0-.3-.1 0-.1-.4-.4-.4-.4s-.5 1-1.3 1.6c-1.5 1.1-2.7 1.3-2.8 1.3s-.2-.1.1-.2c.9-.6 2-.9 3.6-2.9 0 0-.5-.2-.9-.4-.3-.3-.1-1.2.1-1.5.6-1 1.2-.5 1.2-.3.6.9.3 1.8.3 1.8.3.1.6.5.4 1.1zm-1.1-2.4c-.1 0-.2-.1-.6.4 0 .1.1.2.3.3s.6.3.6.3c0-.1.1-.6-.3-1z"/></g></g></svg>