<svg height="30" viewBox="0 0 70 30" width="70" xmlns="http://www.w3.org/2000/svg"><g fill="#191c4f"><path d="m38.8 23.7c-.1.1-.1.1-.1.3-.1.1-.2.2-.4.3-.1.1-3.1 1.4-3.2 1.5-.3.2-.2 0-.2-.1q0 0 .1-.2c0-.2.1-.2.3-.3.2-.2 3.1-1.5 3.2-1.6.3-.2.3 0 .3.1z"/><path d="m20 22.1s0 .2-.1.4c-.2 1 0 1.4 0 1.4.3.5.6.2.7-.1.1-.2.2-.1.1-.1q0 .1 0 .3c-.1.6-.3.8-.5.8-.4 0-.5-.4-.6-.7-.1-1 .2-1.8.3-2.1.1-.2.2-.1.1.1z"/><path d="m26.7 21.9s-.1.2-.1.4c-.3 1 0 1.4 0 1.5.3.4.6.1.7-.2.1-.2.1-.1.1 0q0 0 0 .2c-.1.6-.4.8-.5.8-.4 0-.6-.4-.6-.7-.2-1 .2-1.8.3-2.1.1-.2.1-.1.1.1z"/><path d="m64.2 20.8v.5c0 .2-.1.5-.2.8s-.7.4-1.1.1c-.7 1.1-1.3.6-1.7.4-.6-.2-.8.2-.9.4-.8.8-2.2.8-2.6.8-.3.1 0-.1.1-.2 1.1-.4 1.8-.5 2.8-1.4.5-.4.7-.2.9-.2.9.4 1.1 0 1.2-.1s.3-.6.3-.7c.1-.2.2-.1.2.1 0 .1-.1.2-.1.3.4.3.8.1.8 0 0 0 0-.3 0-.4q0-.1.1-.5c.1-.3.2 0 .2.1z"/><path d="m46.8 19.5c-.3.9-1.6 1.5-1.9 1.5-1.2.4-1.3-.8-1.2-1.6.1-.9.7-1.9.7-1.9 0-.1-1.3-1.1-1.4-1.2s-.2-.2-.3-.3c-.1 0-.1-.1-.1-.1s0-.9 0-1 .1 0 .2 0 1.4.6 1.6.7c.1 0 0 .1 0 .2-.1 0-.6.1-.6.1l1.1.8s1.6-2 1.7-2.2c.2-.2.2-.1.1.1 0 .2-.3 1.1-.4 1.2 0 .1-.8 1.2-.8 1.2s1 .6 1.2 1c.5.6.2 1.2.1 1.5zm-1.9-1.7s-.7 1.1-.8 1.3c-.3.7.4.9.7.8.2 0 1.1-.5 1.6-.8.4-.4-1.3-1.2-1.5-1.3z" fill-rule="evenodd"/><path d="m65.6 18.4c-.1.2-.3 1.1-1.6.9-.3-.1-.9-.2-1.2-.9-.3.4-1 1.6-2.4 1.3-.3 0-1.3-.4-1.4-1.6 0 0-1.1.9-1.7 1.2.1.5.1 1-.2 1.5-.2.6-2.7 3.4-4.7 3.9-.7.1-3.3.6-3.4-2.3q-.1-.9 0-1.4c-1.6 1.3-3.5 2.2-4.1 2.5-.8.4-3.8.9-4.3 1-.4 0-.5-.1-.2-.2.2-.1 6.8-2.3 10.2-6q.2-.1 0-.4c-.1-.2-1.2-2.2-1.3-2.5s-.2-.6-.3-.7q0-.2 0-.3c0-.2.1-.7.2-.8 0-.2.1-.1.1 0 .1.1 1.2 1.2 1.3 1.3s0 .2 0 .2c-.1 0-.6 0-.6 0s.7 1.2.9 1.6c.5 1 .2 1.8.1 2.2-.3.6-.9 1.2-1.6 1.8-.1.5-.3 2.9 1.9 3 .4 0 1.5.1 3.8-1.7.5-.5 1.1-1 1.6-1.7.2-.3.3-.7-.1-.7-.3 0-2.7.9-3-.5-.1-.4.1-3.8 2.4-2.1.2.2.7.6 1 1.2.4-.2 1.1-.6 2-1.3.3-.2.5-.3.5 0s-.2 2.3 1.9 1.7c.2-.1 1.1-.3 1.8-1.9.2-.4.4-.4.3 0-.2.4-.4.7-.2.9s.8.7 1.6.6c.2-.1.4-.2.3-.4s-.4-.6-.4-.6c.1-.3.2-.7.2-.8 0-.2.1-.3.2-.2s.8 1 .4 2.2zm-9.6.1c-.7-1-1.6-.4-1.7-.3s-.2.4.5.5c.9 0 1.2-.2 1.2-.2z" fill-rule="evenodd"/><path d="m8.2 18.4s0 .2-.1.4c-.3.8-.1 1.1-.1 1.2.2.4.5.2.7-.1 0-.2.1-.1 0 0q0 .1 0 .2c-.2.5-.4.6-.5.6-.3 0-.4-.4-.5-.6 0-.8.4-1.6.4-1.8.1-.2.2-.1.1.1z"/><path d="m10.2 18 .9.7q0 0 0 .1l-.5.7q-.1 0-.1 0l-1-.7q0 0 0 0l.6-.8q0 0 .1 0z"/><path d="m19.5 15.4s-.1.3-.1.5c-.3.8-.1 1.2 0 1.3.2.4.5.1.6-.2.1-.2.1-.1.1 0q0 .1 0 .3c-.1.5-.3.6-.5.7-.3 0-.5-.4-.5-.6-.1-1 .2-1.8.3-2 0-.3.1-.2.1 0z"/><path d="m23.9 14.4c.6.1.4.4.3.6-.5.7-1.1 1.1-1.6 1.3s-.2-.2 0-.4c0 0 .3-.2.7-.5.5-.3-.7-.2-1.1-.3-.5 0-.6.2-.8.4-.1.2-.3.1-.2-.2.1-.1.2-.4.6-.8.3-.3 1.4-.2 2.1-.1z"/><path d="m35.2 19.7c-.1.1-.1.1-.1.3-.1.1-.2.2-.4.3-.1.1-3.1 1.4-3.2 1.5-.3.2-.2.1-.2 0q0-.1.1-.3c0-.2.1-.2.3-.3s3.1-1.5 3.3-1.6c.2-.2.2 0 .2.1z"/><path d="m45.5 12.4 1 .7q0 0 0 0l-.6.8q0 0 0 0l-1-.7-.4.7q-.1 0-.1 0l-.9-.7q-.1 0-.1-.1l.6-.7q0 0 .1 0l.9.6.5-.6q0 0 0 0z"/><path d="m63.2 12.4s-.1.3-.2.4c-.3.8-.1 1.2-.1 1.3.3.4.6.2.7-.1 0-.2.1-.1.1 0q0 .1-.1.2c-.1.6-.3.7-.5.7-.3 0-.4-.4-.5-.7 0-.9.4-1.6.5-1.8 0-.3.1-.2.1 0z"/><path d="m53.8 11.9s-.1.3-.1.5c-.4.9-.2 1.3-.2 1.4.3.4.6.2.8-.2 0-.1.1 0 .1 0q-.1.1-.1.3c-.2.6-.4.7-.6.7-.3 0-.5-.5-.5-.7 0-1 .4-1.8.5-2 .1-.3.2-.2.1 0z"/><path d="m14.5 11.6c-.1.1-.1.1-.2.3 0 .1-.1.2-.3.3-.1.1-4.9 2.1-5.5 2.4-.6.4-.5.6-.4.6.4.2.6.5.4.9q-.1.1-.1 0c-.1 0-.2-.2-.4-.2-.3-.1-.3-.5-.2-1 .1-.3.2-.5.5-.7.4-.3 5.8-2.6 5.9-2.7.3-.2.3 0 .3.1z"/><path d="m24.1 9.8c0 .1 0 .1-.1.3 0 .1-.1.2-.3.3-.1 0-5 2.1-5.5 2.4-.6.4-.5.6-.4.6.4.2.6.5.3.9q0 .1 0 0c-.1-.1-.2-.2-.4-.2-.3-.1-.4-.5-.2-1 0-.3.2-.6.5-.7.4-.4 5.8-2.6 5.9-2.7.3-.2.3 0 .2.1z"/><path d="m9.8 9.1c.1.2.1.6 0 .8s-.2.1-.3-.1c0 0-.2-.1-.3-.2-.5-.4-.6.5-.7.9 0 .2.1 1.2 0 1.7 0 .2-.1.2-.2.1-.4-1.2-1.1-1.6-1.2-1.7-.2-.2-.2 0-.2.1-.1.1-.1.1-.2 0-.1 0-.4-.2-.6-.3-.1-.1-.1-.6-.1-.7 0-.3.2-.5.3-.4 1.4.6 1.9 1.9 2 2.1 0-1-.1-1.8.4-2.5.4-.6 1 .1 1.1.2z"/><path d="m11.8 8.8s-.1.2-.1.4c-.3 1-.1 1.4 0 1.5.3.4.6.1.7-.2.1-.2.1-.1.1 0q0 0 0 .2c-.1.6-.4.8-.5.8-.4 0-.6-.4-.6-.7-.2-1 .2-1.8.3-2.1 0-.2.1-.1.1.1z"/><path d="m33.5 8.6s-.1.5-.2.8c-.5 1.5-.2 2.2-.2 2.4.4.7.9.3 1.1-.2.1-.3.1-.2.1-.1q0 .2-.1.5c-.2 1-.5 1.2-.8 1.2-.5 0-.7-.8-.7-1.2-.1-1.6.5-3.1.6-3.5.2-.4.3-.2.2.1z"/><path d="m53 8.1c-.1.1-.1.1-.2.3 0 .2-.1.2-.3.3s-5.1 2.9-5.1 3c-.3.2-.3.1-.3 0q0-.1.1-.3c0-.2.1-.2.3-.3s5.1-3 5.2-3.1c.3-.1.3 0 .3.1z"/><path d="m19.3 8.1s-.1.2-.1.4c-.3.9-.1 1.3 0 1.4.3.4.6.1.6-.2.1-.2.1-.1.1 0q0 0 0 .2c-.1.6-.3.7-.5.7-.3 0-.5-.4-.5-.6-.1-.9.2-1.7.3-2 0-.2.1-.1.1.1z"/><path d="m58.9 8.4c.1.2.1.6 0 .8s-.2 0-.3-.1c0 0-.2-.1-.3-.2-.5-.4-.7.4-.7.8-.1.2-.1 1.1-.2 1.7 0 .2-.2.2-.2 0-.4-1.1-1-1.7-1.1-1.8s-.2.1-.2.2c0 0-.1 0-.2 0 0 0-.4-.3-.5-.4-.2-.1-.1-.6-.1-.7 0-.3.2-.4.3-.4 1.3.8 1.8 2.1 1.8 2.3.1-1 .1-1.9.6-2.5s1.1.2 1.1.3z"/><path d="m30.5 8.4c.1.2 0 .6-.1.8 0 .2-.2 0-.3-.1 0 0-.1-.1-.2-.2-.5-.5-.7.4-.7.7-.1.3-.1 1.2-.2 1.8 0 .2-.2.2-.2 0-.4-1.1-1-1.7-1.1-1.8s-.2.1-.2.2c-.1.3-.5 1.1-1 1.5-.6.6-1.9 1-2.1 1.1-.2 0-.1-.1 0-.2 2.4-1.5 2.7-2.2 2.8-2.5-.1 0-.4-.2-.5-.3s0-.6 0-.7c0-.3.2-.4.3-.4 1.3.8 1.7 2 1.8 2.3.1-1 .1-1.9.6-2.5.4-.6 1.1.2 1.1.3z"/><path d="m63.8 10.5c-.1.1-.1 0-.2-.1s-.2-.3-.4-.3c-.2.4-.2.4-1 1.1-1.8 1.6-3.8 2.1-3.9 2.2-.1 0-.2-.1 0-.2.6-.5 3.2-1.6 4.6-3.3 0 0-.5-.1-.7-.3-.3-.2-.2-1 0-1.3.5-.8 1-.4 1.1-.2.4.7.2 1.5.2 1.5.2.1.4.4.3.9zm-.9-2c-.1 0-.2 0-.5.3-.1.1 0 .2.2.3s.6.3.6.3c0-.1 0-.6-.3-.9z" fill-rule="evenodd"/><path d="m36.6 7.8c0 .1 1.1 2.8 1.2 3 0 .2-.1.2-.2.1 0-.1-.6-.6-.6-.6s.8 5.2 1.1 7.6c0 0 .2.9.1 2-.1 1.2-.4 1.7-.8 2.1-3.5 3.5-6.3 2.6-6.7 2.4-2.4-.8-1.4-4-1.4-4-2.9 1.1-4.7.7-4.9.7 0 0 .1.4 0 .8 0 .6-.3.6-.4.6-1.3-.2-1.6-1.2-1.8-1.7-.1-.6-.3-.5-.6-.5-1.3 0-3.7 2.1-4 2.5-1.9 2.3-3.2 2.2-3.6 2.1-2-.4-1.5-2.7-1.3-3.3q-.2.1-.3.2c-3.7 2.3-5.5 1.3-5.9 1-2.4-1.4-1.1-4.7-.9-5.3q0 0 0 0c-.4-.2-.5-.7-.6-1-.1-1.6.5-2.9.6-3.3.2-.4.3-.3.2.1 0 0-.1.4-.2.7-.4 1.5-.1 2.1-.1 2.3.5.7 1 .3 1.2-.3.1-.3.2-.1.1 0q0 .1 0 .4c-.3.9-.6 1.2-.9 1.2q0 0-.1 0c-.7 1.7-.2 2.8-.1 3.1.8 1.7 2.9 1.4 3.4 1.3 2.5-.4 4.8-2.5 5.2-2.9.4-.3.2-.5.1-.8-.2-.2-1.3-2.4-1.4-2.8 0 0 .1-.8.2-.9.1-.2.1 0 .2.1 0 .1 1 1 1.1 1.1.1.2.1.2 0 .2s-.5-.1-.5-.1.6 1.2.7 1.5c.4.8.2 1.7.1 2.1-.3.5-1.1 1.3-1.7 1.8q0 .1 0 .1c-.8 2.3.3 2.5.8 2.6 1.2.2 2.8-1.6 3.3-2.1 2.8-2.8 4.3-2.7 5-2.8 0 0 .1-.2.2-.4.1-.3.1 0 .3.1 2.8 2.3 6 .7 6 .7-2.7-1.7-2.2-3.4-2.1-3.9.4-1.8 2.1-2 2.5-2 1.8-.2 3.1.5 3.4.8.3.2 0 .3-.1.2-2.3-.9-5 .7-5.2.8-.2.2-.3.3-.2.6 1 2.5 3.4 2.6 3.7 2.6.4 0 3.4-1.4 3.6-1.5q.4-.2.2.1c-.1.2-.3.9-.4 1-.1 0-4.2 1.7-4.3 1.9-1 2.7 1.6 3.3 2.1 3.3 2.6.2 5.6-2.6 5.8-2.9.1-.3-.1-2-.3-3.2-.5-3.2-1.2-8.4-1.3-8.7 0 0 .3-.8.3-.9.1-.1.1 0 .2.1z"/><path d="m15.7 7.7c.1.1 1.2 2.9 1.3 3 0 .2-.1.2-.2.1-.1 0-.6-.6-.6-.6s.8 5.5.9 5.8c.5 4.1.1 5 0 5.2s-.1.1-.1-.1c-.1-1.6-1-7.5-1-7.9-.1-.3-.6-4.2-.7-4.7 0 0 .3-.7.3-.8.1-.1.1-.1.1 0z"/><path d="m39.7 7.7c0 .1 1.2 2.9 1.2 3 .1.2 0 .2-.1.1-.1 0-.7-.6-.7-.6s1 6.8 1 7.1c.7 4 .1 5.1.1 5.3-.1.1-.2.1-.2-.1 0-1.6-.9-7.6-1-7.9 0-.4-.7-5.6-.7-6.1 0 0 .2-.7.3-.8 0-.1.1-.1.1 0z"/><path d="m45.3 10.2c-.1.1-.1 0-.2-.1-.1 0-.4-.3-.4-.3s-.4.8-1.1 1.3c-1.2 1-2.2 1.1-2.3 1.1-.1.1-.1 0 .1-.2.7-.4 1.7-.7 3-2.3 0 0-.4-.2-.7-.4s-.2-.9 0-1.2c.5-.8 1-.4 1.1-.3.4.7.2 1.5.2 1.5.2.1.4.4.3.9zm-.9-1.9c-.1-.1-.2-.1-.5.3 0 .1 0 .2.2.2.2.1.6.3.6.3 0-.1 0-.6-.3-.8z" fill-rule="evenodd"/><path d="m41.4 6.8c0 .1-.1 0 0-.1 0-.2.1-.5.2-.8 0-.2-.1-.1-.3 0-1.2.7-2.4.8-3.2.7 0 .2-.1.5-.1.6-.1.1-.1.2-.1.1-.1-.5-.4-.8-.6-1 0 0 .1-.4.2-.5s.1-.1.3-.1c1.9.5 3.6-.5 4-.7.3-.2-.3 1.7-.4 1.8z"/></g></svg>