<svg width="540" height="403" viewBox="0 0 540 403" fill="none" xmlns="http://www.w3.org/2000/svg">
<path d="M106.008 26.191C104.038 26.191 102.35 25.6284 100.944 24.503C99.6776 23.3777 98.693 21.971 97.9896 20.283C97.427 18.595 97.1456 16.8367 97.1456 15.008C97.1456 11.4914 98.06 8.60769 99.8886 6.35702C101.717 3.96569 103.898 2.77002 106.43 2.77002C108.962 2.77002 111.001 3.40302 112.549 4.66902C114.237 5.79435 115.432 7.27136 116.136 9.10003C116.98 10.788 117.402 12.6167 117.402 14.586C117.402 18.384 116.276 21.2677 114.026 23.237C111.916 25.2064 109.243 26.191 106.008 26.191Z" fill="white"/>
<path d="M179.49 111.452C176.536 111.452 173.301 110.889 169.784 109.764C166.267 108.639 162.821 106.81 159.445 104.278C156.21 101.746 153.326 98.37 150.794 94.15C148.262 89.93 146.574 84.7254 145.73 78.536L156.28 67.564C156.983 72.4874 158.601 76.637 161.133 80.013C163.665 83.389 166.619 85.921 169.995 87.609C173.371 89.297 176.536 90.141 179.49 90.141L183.288 93.095V108.92L179.49 111.452ZM103.741 152.386C95.0197 152.386 87.283 150.839 80.531 147.744C73.9197 144.79 68.3634 140.711 63.862 135.506C59.3607 130.301 55.9847 124.393 53.734 117.782C51.4834 111.171 50.358 104.278 50.358 97.104C50.358 88.8047 51.9757 80.7867 55.211 73.05C58.4464 65.1727 63.1587 58.491 69.348 53.005C70.4734 51.8797 71.5284 51.106 72.513 50.684C73.4977 50.262 74.4824 50.051 75.467 50.051C77.0144 50.051 78.4914 50.473 79.898 51.317C81.3047 52.161 82.43 53.2864 83.274 54.693C84.2587 55.959 84.751 57.2954 84.751 58.702C84.8917 60.1087 84.3994 61.445 83.274 62.711C78.0694 66.6497 74.1307 71.573 71.458 77.481C68.926 83.389 67.66 89.3674 67.66 95.416C67.66 101.605 69.0667 107.302 71.88 112.507C74.6934 117.852 78.9134 122.072 84.54 125.167C90.1667 128.402 97.0594 130.02 105.218 130.02C111.548 130.02 117.597 128.473 123.364 125.378C129.131 122.424 133.844 118.063 137.501 112.296C141.158 106.529 142.987 99.425 142.987 90.985C142.987 85.6397 142.073 80.0834 140.244 74.316C138.556 68.5487 136.094 62.3594 132.859 55.748C132.156 54.06 132.156 52.372 132.859 50.684C133.703 48.996 134.969 47.5894 136.657 46.464C138.345 45.3387 140.174 44.776 142.143 44.776C143.69 44.776 145.097 45.198 146.363 46.042C147.77 46.886 148.965 48.363 149.95 50.473C153.326 57.7877 155.928 65.1024 157.757 72.417C159.586 79.591 160.5 86.4837 160.5 93.095C160.5 104.489 158.179 114.617 153.537 123.479C148.895 132.482 142.284 139.515 133.703 144.579C125.263 149.784 115.276 152.386 103.741 152.386Z" fill="white"/>
<path d="M366.042 111.452C362.244 111.452 358.516 110.749 354.859 109.342C351.202 107.935 347.826 105.755 344.731 102.801C341.636 99.847 338.964 96.049 336.713 91.407C334.462 86.6244 332.845 80.857 331.86 74.105L343.465 62.711C343.465 67.6344 344.45 72.206 346.419 76.426C348.388 80.5054 351.061 83.811 354.437 86.343C357.954 88.875 361.822 90.141 366.042 90.141L369.84 93.517V108.92L366.042 111.452ZM250.414 126.433C250.273 128.402 249.359 129.879 247.671 130.864C245.983 131.849 244.154 132.341 242.185 132.341C240.638 132.341 239.161 131.989 237.754 131.286C236.347 130.583 235.222 129.528 234.378 128.121C233.675 126.855 233.534 125.167 233.956 123.057C235.785 110.96 238.387 99.5657 241.763 88.875C245.28 78.0437 249.429 68.2674 254.212 59.546C259.135 50.8247 264.551 43.299 270.459 36.969C276.508 30.4984 282.908 25.575 289.66 22.199C296.412 18.6824 303.375 16.924 310.549 16.924C317.582 16.924 323.701 18.7527 328.906 22.41C334.111 25.9267 338.12 30.7094 340.933 36.758C343.887 42.8067 345.364 49.5587 345.364 57.014C345.364 66.0167 343.606 73.683 340.089 80.013C336.713 86.343 331.86 91.5477 325.53 95.627C319.2 99.7064 311.745 102.942 303.164 105.333C294.724 107.584 285.44 109.201 275.312 110.186C265.184 111.03 254.564 111.452 243.451 111.452C235.292 111.452 228.329 109.553 222.562 105.755C216.795 101.816 212.926 96.3304 210.957 89.297C208.284 95.7677 204.064 101.113 198.297 105.333C192.67 109.412 186.411 111.452 179.518 111.452L175.72 108.287V93.306L179.518 90.141C183.879 90.141 187.888 89.2267 191.545 87.398C195.343 85.4287 198.438 82.4747 200.829 78.536C203.22 74.4567 204.416 69.1817 204.416 62.711C204.416 60.179 204.557 57.9987 204.838 56.17C205.26 54.3414 206.034 52.9347 207.159 51.95C208.284 50.9654 210.113 50.473 212.645 50.473C215.74 50.473 217.92 51.317 219.186 53.005C220.593 54.5524 221.155 56.381 220.874 58.491C220.311 62.5704 219.96 66.509 219.819 70.307C219.819 74.105 220.452 77.481 221.718 80.435C223.125 83.389 225.516 85.7804 228.892 87.609C232.268 89.297 237.121 90.141 243.451 90.141C252.735 90.141 261.667 89.8597 270.248 89.297C278.829 88.7344 286.706 87.7497 293.88 86.343C301.054 84.9364 307.314 82.967 312.659 80.435C318.004 77.903 322.154 74.738 325.108 70.94C328.062 67.0014 329.539 62.289 329.539 56.803C329.539 53.1457 328.836 49.7697 327.429 46.675C326.022 43.5804 323.912 41.1187 321.099 39.29C318.286 37.3207 314.628 36.336 310.127 36.336C304.219 36.336 298.17 38.3757 291.981 42.455C285.792 46.5344 279.884 52.4424 274.257 60.179C268.63 67.9157 263.707 77.3404 259.487 88.453C255.267 99.5657 252.243 112.226 250.414 126.433Z" fill="white"/>
<path d="M365.998 111.452L362.2 108.92V93.517L365.998 90.141C376.407 90.141 386.324 88.8047 395.749 86.132C405.173 83.4594 414.176 80.0834 422.757 76.004C431.478 71.9247 439.777 67.775 447.655 63.555C455.532 59.1944 463.058 55.3964 470.232 52.161C464.746 51.317 459.119 49.9104 453.352 47.941C447.725 45.9717 442.098 43.932 436.472 41.822C430.986 39.712 425.781 37.8834 420.858 36.336C415.934 34.7887 411.644 34.015 407.987 34.015C403.626 34.015 400.461 35.07 398.492 37.18C396.663 39.29 395.749 41.9627 395.749 45.198C395.749 46.1827 395.819 47.308 395.96 48.574C396.241 49.6994 396.522 50.8247 396.804 51.95C397.366 53.3567 397.226 54.693 396.382 55.959C395.538 57.225 394.342 58.28 392.795 59.124C391.388 59.8274 389.841 60.179 388.153 60.179C386.465 60.179 384.917 59.757 383.511 58.913C382.104 57.9284 381.19 56.381 380.768 54.271C380.346 52.3017 379.994 50.3324 379.713 48.363C379.431 46.253 379.291 44.2837 379.291 42.455C379.291 37.391 380.205 32.8194 382.034 28.74C383.862 24.52 386.676 21.2144 390.474 18.823C394.272 16.291 399.125 15.025 405.033 15.025C408.971 15.025 413.473 15.7284 418.537 17.135C423.741 18.5417 429.298 20.3704 435.206 22.621C441.114 24.731 447.233 26.9114 453.563 29.162C459.893 31.272 466.223 33.1007 472.553 34.648C478.883 36.1954 484.931 37.0394 490.699 37.18C491.965 37.18 493.02 37.813 493.864 39.079C494.708 40.345 495.341 41.8924 495.763 43.721C496.185 45.5497 496.325 47.519 496.185 49.629C496.044 51.5984 495.622 53.427 494.919 55.115C494.356 56.803 493.442 57.9987 492.176 58.702C482.751 63.0627 474.03 67.7047 466.012 72.628C457.994 77.4107 450.187 82.123 442.591 86.765C435.135 91.407 427.539 95.627 419.803 99.425C412.066 103.082 403.837 106.036 395.116 108.287C386.394 110.397 376.688 111.452 365.998 111.452Z" fill="white"/>
<path d="M84.2845 105.118C83.0185 104.274 82.2448 103.219 81.9635 101.953C81.8228 100.547 82.0338 99.2805 82.5965 98.1552C83.1591 97.0298 83.9328 96.2562 84.9175 95.8342C86.0428 95.2715 87.3088 95.4122 88.7155 96.2562C91.3881 97.9442 94.1311 99.2102 96.9445 100.054C99.8985 100.758 102.712 101.109 105.384 101.109C108.198 101.109 110.8 100.687 113.191 99.8432C115.583 98.9992 117.482 97.8739 118.888 96.4672C116.356 96.7485 113.965 95.9749 111.714 94.1462C109.464 92.3175 108.338 89.6449 108.338 86.1282C108.338 83.0335 109.253 80.5015 111.081 78.5322C113.051 76.4222 115.512 75.3672 118.466 75.3672C121.983 75.3672 124.796 76.6332 126.906 79.1652C129.016 81.6972 130.071 85.0732 130.071 89.2932C130.071 93.6539 128.876 97.5222 126.484 100.898C124.234 104.134 121.139 106.666 117.2 108.494C113.402 110.323 109.182 111.237 104.54 111.237C101.305 111.237 97.9291 110.745 94.4125 109.76C90.8958 108.776 87.5198 107.228 84.2845 105.118Z" fill="#DDA15E"/>
<path d="M241.628 0C247.677 0 252.389 1.96933 255.765 5.908C259.282 9.84667 261.04 14.559 261.04 20.045C261.04 25.2497 259.352 29.6103 255.976 33.127C252.741 36.503 248.38 38.191 242.894 38.191C237.549 38.191 233.188 36.503 229.812 33.127C226.577 29.751 224.959 25.6717 224.959 20.889C224.959 16.1063 226.366 12.0973 229.179 8.862C232.133 5.486 236.002 3.798 240.784 3.798C241.91 3.798 242.824 4.22 243.527 5.06401C244.371 5.90801 244.864 6.96301 245.004 8.22901C245.145 9.35433 244.864 10.339 244.16 11.183C243.598 12.027 242.472 12.449 240.784 12.449C238.393 12.449 236.494 13.3633 235.087 15.192C233.821 16.88 233.188 18.6383 233.188 20.467C233.188 23.1397 234.103 25.32 235.931 27.008C237.76 28.5553 240.011 29.329 242.683 29.329C245.497 29.329 247.888 28.5553 249.857 27.008C251.827 25.32 252.811 22.999 252.811 20.045C252.811 17.2317 251.756 14.6997 249.646 12.449C247.677 10.0577 244.934 8.862 241.417 8.862C240.292 8.862 239.378 8.44 238.674 7.596C238.112 6.61134 237.83 5.55634 237.83 4.43101C237.83 3.30567 238.112 2.321 238.674 1.47701C239.378 0.492335 240.362 0 241.628 0Z" fill="#DDA15E"/>
<path d="M407.128 108.359C414.864 108.078 422.671 106.741 430.549 104.35C438.426 102.099 444.967 99.5674 450.172 96.7541C451.578 96.0507 452.915 95.9804 454.181 96.5431C455.447 97.1057 456.431 98.0201 457.135 99.2861C457.838 100.693 458.049 102.099 457.768 103.506C457.486 104.913 456.572 106.038 455.025 106.882C451.367 109.133 446.936 111.172 441.732 113.001C436.527 114.97 431.041 116.518 425.274 117.643C419.647 118.909 414.161 119.612 408.816 119.753C407.128 119.753 405.791 119.19 404.807 118.065C403.822 117.08 403.259 115.814 403.119 114.267C402.978 112.86 403.189 111.524 403.752 110.258C404.455 109.133 405.58 108.5 407.128 108.359Z" fill="#DDA15E"/>
<path d="M16.458 402.494C13.6447 402.494 11.4643 401.65 9.917 399.962C8.36967 398.415 7.45533 396.234 7.174 393.421C6.33 385.122 5.486 376.33 4.642 367.046C3.798 357.762 3.02433 348.197 2.321 338.35C1.61767 328.503 1.055 318.516 0.633 308.388C0.211 298.119 0 287.921 0 277.793C0 264.711 2.39133 254.091 7.174 245.932C11.9567 237.773 19.5527 231.795 29.962 227.997C40.3713 224.058 53.9457 222.089 70.685 222.089C82.079 222.089 91.574 223.918 99.17 227.575C106.907 231.092 112.885 236.085 117.105 242.556C121.325 248.886 123.927 256.341 124.912 264.922C125.756 273.925 127.655 280.747 130.609 285.389C133.704 289.89 138.979 292.141 146.434 292.141L150.232 295.095V310.92L146.434 313.452C143.761 313.452 140.737 313.03 137.361 312.186C134.126 311.201 130.961 309.654 127.866 307.544C124.771 305.434 122.169 302.621 120.059 299.104C117.949 295.587 116.753 291.297 116.472 286.233L120.27 287.921C119.004 293.688 116.542 298.752 112.885 303.113C109.228 307.333 104.867 310.639 99.803 313.03C94.739 315.281 89.3233 316.406 83.556 316.406C75.6787 316.406 68.7157 314.577 62.667 310.92C56.6183 307.122 51.906 302.128 48.53 295.939C45.154 289.75 43.466 282.927 43.466 275.472C43.466 267.173 45.5057 259.366 49.585 252.051C53.6643 244.596 59.502 239.039 67.098 235.382L85.244 241.079C79.4767 242.767 74.6237 245.229 70.685 248.464C66.887 251.699 64.0033 255.357 62.034 259.436C60.2053 263.515 59.291 267.806 59.291 272.307C59.291 279.481 61.612 285.53 66.254 290.453C70.896 295.236 76.804 297.627 83.978 297.627C88.9013 297.627 93.262 296.502 97.06 294.251C100.858 292 103.812 288.906 105.922 284.967C108.173 280.888 109.298 276.386 109.298 271.463C109.298 265.977 108.032 261.054 105.5 256.693C102.968 252.332 99.0997 248.956 93.895 246.565C88.831 244.033 82.3603 242.767 74.483 242.767C59.4317 242.767 47.7563 244.103 39.457 246.776C31.2983 249.308 25.6717 253.036 22.577 257.959C19.4823 262.882 17.935 268.861 17.935 275.894C17.935 282.365 18.0053 289.257 18.146 296.572C18.4273 303.746 18.779 311.061 19.201 318.516C19.623 326.112 20.045 333.567 20.467 340.882C21.0297 348.197 21.5923 355.089 22.155 361.56C22.7177 368.171 23.21 374.079 23.632 379.284C24.1947 384.629 24.687 389.06 25.109 392.577C25.3903 395.531 24.6167 397.922 22.788 399.751C21.1 401.58 18.99 402.494 16.458 402.494Z" fill="white"/>
<path d="M146.36 313.452L142.562 311.131V295.306L146.36 292.141C153.674 292.141 159.09 289.961 162.607 285.6C166.264 281.099 168.655 274.839 169.781 266.821C171.047 258.803 171.68 249.449 171.68 238.758C171.68 236.085 171.68 232.498 171.68 227.997C171.68 223.355 171.68 218.221 171.68 212.594C171.68 206.827 171.68 201.059 171.68 195.292C171.68 189.384 171.68 183.898 171.68 178.834C171.68 173.629 171.68 169.269 171.68 165.752C171.82 162.235 171.891 159.985 171.891 159C172.172 156.187 173.016 154.077 174.423 152.67C175.829 151.263 177.799 150.56 180.331 150.56C183.144 150.56 185.184 151.263 186.45 152.67C187.856 153.936 188.56 155.835 188.56 158.367C188.56 164.697 188.489 171.097 188.349 177.568C188.349 183.898 188.278 189.806 188.138 195.292C188.138 200.637 188.138 205.139 188.138 208.796L188.56 264.5C188.56 267.454 188.982 270.549 189.826 273.784C190.81 276.879 192.217 279.833 194.046 282.646C196.015 285.459 198.547 287.78 201.642 289.609C204.877 291.297 208.745 292.141 213.247 292.141L217.045 295.517V310.92L213.247 313.452C209.308 313.452 205.158 312.608 200.798 310.92C196.437 309.232 192.428 306.559 188.771 302.902C185.113 299.104 182.159 294.251 179.909 288.343C179.205 290.734 178.221 293.266 176.955 295.939C175.689 298.471 174.071 300.722 172.102 302.691C168.585 306.348 164.576 309.091 160.075 310.92C155.714 312.608 151.142 313.452 146.36 313.452Z" fill="white"/>
<path d="M274.096 313.663C267.203 313.663 261.295 311.342 256.372 306.7C251.448 301.917 248.002 296.291 246.033 289.82C243.782 296.713 239.843 302.41 234.217 306.911C228.59 311.272 221.627 313.452 213.328 313.452L209.53 310.92V295.517L213.328 292.141C218.954 292.141 223.456 291.086 226.832 288.976C230.348 286.725 233.021 283.912 234.85 280.536C236.819 277.019 238.155 273.221 238.859 269.142C239.562 264.922 239.984 260.913 240.125 257.115C240.265 253.598 240.828 250.926 241.813 249.097C242.797 247.128 244.837 246.143 247.932 246.143C250.745 246.143 252.785 246.917 254.051 248.464C255.317 250.011 255.809 252.192 255.528 255.005C254.543 264.008 254.895 271.182 256.583 276.527C258.271 281.732 260.803 285.53 264.179 287.921C267.555 290.172 271.212 291.297 275.151 291.297C280.637 291.297 285.138 288.976 288.655 284.334C292.312 279.551 294.492 273.221 295.196 265.344C295.196 263.937 295.196 262.32 295.196 260.491C295.196 258.522 295.407 256.13 295.829 253.317C296.11 250.222 296.884 247.901 298.15 246.354C299.416 244.666 301.455 243.822 304.269 243.822C307.082 243.822 309.051 244.807 310.177 246.776C311.443 248.605 311.935 250.926 311.654 253.739C311.091 258.522 310.669 263.164 310.388 267.665C310.247 272.166 310.599 276.246 311.443 279.903C312.287 283.42 313.975 286.233 316.507 288.343C319.039 290.312 322.696 291.297 327.479 291.297C332.683 291.297 336.833 289.539 339.928 286.022C343.163 282.505 345.484 277.793 346.891 271.885C348.438 265.836 349.212 259.014 349.212 251.418C349.212 248.464 349.915 246.213 351.322 244.666C352.869 242.978 354.909 242.134 357.441 242.134C359.691 242.134 361.45 243.048 362.716 244.877C364.122 246.565 364.755 249.449 364.615 253.528C364.474 265.344 363.067 275.753 360.395 284.756C357.722 293.759 353.783 300.792 348.579 305.856C343.374 310.92 336.903 313.452 329.167 313.452C322.274 313.452 316.296 311.342 311.232 307.122C306.308 302.761 303.073 297.064 301.526 290.031C299.275 297.346 295.758 303.113 290.976 307.333C286.193 311.553 280.566 313.663 274.096 313.663ZM387.192 313.452C382.69 313.452 378.681 312.608 375.165 310.92C371.648 309.232 368.553 306.981 365.881 304.168C363.208 301.214 360.887 298.049 358.918 294.673C357.089 291.156 355.471 287.64 354.065 284.123C352.799 280.606 351.673 277.301 350.689 274.206L361.45 271.885C363.7 278.356 367.147 283.349 371.789 286.866C376.571 290.383 381.706 292.141 387.192 292.141L390.99 295.095V310.92L387.192 313.452Z" fill="white"/>
<path d="M455.18 341.937C446.74 341.937 439.566 339.546 433.658 334.763C427.75 329.98 423.037 323.228 419.521 314.507C416.004 305.926 413.402 295.798 411.714 284.123C410.166 272.448 409.393 259.717 409.393 245.932C409.393 236.789 409.674 227.434 410.237 217.869C410.799 208.163 411.573 198.387 412.558 188.54C413.542 178.693 414.738 168.917 416.145 159.211C416.567 156.398 417.551 154.288 419.099 152.881C420.646 151.334 422.756 150.56 425.429 150.56C432.884 150.56 436.049 153.795 434.924 160.266C433.658 168.987 432.462 178.342 431.337 188.329C430.352 198.316 429.508 208.655 428.805 219.346C428.101 230.037 427.75 241.009 427.75 252.262C427.75 261.968 428.242 271.041 429.227 279.481C430.211 287.921 431.759 295.376 433.869 301.847C436.119 308.177 439.073 313.1 442.731 316.617C446.388 320.274 450.96 322.103 456.446 322.103C462.635 322.103 467.629 320.204 471.427 316.406C475.365 312.749 477.335 307.755 477.335 301.425C477.335 294.814 475.647 289.398 472.271 285.178C468.895 280.817 464.112 278.637 457.923 278.637C453.14 278.637 448.498 279.833 443.997 282.224C439.636 284.475 435.275 287.358 430.915 290.875C426.554 294.251 422.053 297.697 417.411 301.214C412.909 304.731 408.127 307.685 403.063 310.076C398.139 312.327 392.794 313.452 387.027 313.452L383.44 311.342V295.095L387.238 292.141C392.724 292 397.858 290.805 402.641 288.554C407.423 286.163 412.065 283.279 416.567 279.903C421.209 276.527 425.78 273.221 430.282 269.986C434.783 266.751 439.495 264.008 444.419 261.757C449.483 259.506 454.828 258.381 460.455 258.381C466.785 258.381 472.411 260.139 477.335 263.656C482.399 267.173 486.408 272.166 489.362 278.637C492.316 284.967 493.793 292.422 493.793 301.003C493.793 309.162 492.175 316.336 488.94 322.525C485.704 328.714 481.133 333.497 475.225 336.873C469.457 340.249 462.776 341.937 455.18 341.937Z" fill="white"/>
<path d="M527.723 314.929C526.738 314.929 525.472 314.718 523.925 314.296C522.377 313.874 521.041 313.03 519.916 311.764C518.79 310.498 518.228 308.529 518.228 305.856C518.228 299.104 518.298 291.789 518.439 283.912C518.579 275.894 518.72 267.595 518.861 259.014C519.142 250.293 519.423 241.431 519.705 232.428C519.986 223.425 520.267 214.563 520.549 205.842C520.83 196.98 521.111 188.47 521.393 180.311C521.674 172.012 521.955 164.275 522.237 157.101C522.377 154.288 523.292 152.248 524.98 150.982C526.808 149.716 528.918 149.083 531.31 149.083C534.404 149.083 536.655 149.927 538.062 151.615C539.468 153.303 540.101 155.413 539.961 157.945C539.82 164.134 539.609 170.957 539.328 178.412C539.046 185.727 538.765 193.393 538.484 201.411C538.343 209.288 538.132 217.306 537.851 225.465C537.429 239.813 537.077 253.598 536.796 266.821C536.655 279.903 536.444 292.633 536.163 305.012C536.163 306.559 535.881 308.107 535.319 309.654C534.756 311.201 533.842 312.467 532.576 313.452C531.45 314.437 529.833 314.929 527.723 314.929Z" fill="white"/>
<path d="M61.5906 353.359C69.3273 353.078 77.1343 351.741 85.0116 349.35C92.889 347.099 99.43 344.567 104.635 341.754C106.041 341.051 107.378 340.98 108.644 341.543C109.91 342.106 110.894 343.02 111.598 344.286C112.301 345.693 112.512 347.099 112.231 348.506C111.949 349.913 111.035 351.038 109.488 351.882C105.83 354.133 101.399 356.172 96.1946 358.001C90.99 359.97 85.504 361.518 79.7366 362.643C74.11 363.909 68.624 364.612 63.2786 364.753C61.5906 364.753 60.2543 364.19 59.2696 363.065C58.285 362.08 57.7223 360.814 57.5816 359.267C57.441 357.86 57.652 356.524 58.2146 355.258C58.918 354.133 60.0433 353.5 61.5906 353.359Z" fill="#DDA15E"/>
<path d="M157.406 344.359C165.143 344.078 172.95 342.741 180.827 340.35C188.704 338.099 195.245 335.567 200.45 332.754C201.857 332.051 203.193 331.98 204.459 332.543C205.725 333.106 206.71 334.02 207.413 335.286C208.116 336.693 208.327 338.099 208.046 339.506C207.765 340.913 206.85 342.038 205.303 342.882C201.646 345.133 197.215 347.172 192.01 349.001C186.805 350.97 181.319 352.518 175.552 353.643C169.925 354.909 164.439 355.612 159.094 355.753C157.406 355.753 156.07 355.19 155.085 354.065C154.1 353.08 153.538 351.814 153.397 350.267C153.256 348.86 153.467 347.524 154.03 346.258C154.733 345.133 155.859 344.5 157.406 344.359Z" fill="#DDA15E"/>
<path d="M302.36 180C308.408 180 313.121 181.969 316.497 185.908C320.013 189.847 321.772 194.559 321.772 200.045C321.772 205.25 320.084 209.61 316.708 213.127C313.472 216.503 309.112 218.191 303.626 218.191C298.28 218.191 293.92 216.503 290.544 213.127C287.308 209.751 285.691 205.672 285.691 200.889C285.691 196.106 287.097 192.097 289.911 188.862C292.865 185.486 296.733 183.798 301.516 183.798C302.641 183.798 303.555 184.22 304.259 185.064C305.103 185.908 305.595 186.963 305.736 188.229C305.876 189.354 305.595 190.339 304.892 191.183C304.329 192.027 303.204 192.449 301.516 192.449C299.124 192.449 297.225 193.363 295.819 195.192C294.553 196.88 293.92 198.638 293.92 200.467C293.92 203.14 294.834 205.32 296.663 207.008C298.491 208.555 300.742 209.329 303.415 209.329C306.228 209.329 308.619 208.555 310.589 207.008C312.558 205.32 313.543 202.999 313.543 200.045C313.543 197.232 312.488 194.7 310.378 192.449C308.408 190.058 305.665 188.862 302.149 188.862C301.023 188.862 300.109 188.44 299.406 187.596C298.843 186.611 298.562 185.556 298.562 184.431C298.562 183.306 298.843 182.321 299.406 181.477C300.109 180.492 301.094 180 302.36 180Z" fill="#DDA15E"/>
<path d="M445.309 225.118C444.043 224.274 443.269 223.219 442.988 221.953C442.847 220.547 443.058 219.281 443.621 218.155C444.184 217.03 444.957 216.256 445.942 215.834C447.067 215.272 448.333 215.412 449.74 216.256C452.413 217.944 455.156 219.21 457.969 220.054C460.923 220.758 463.736 221.109 466.409 221.109C469.222 221.109 471.825 220.687 474.216 219.843C476.607 218.999 478.506 217.874 479.913 216.467C477.381 216.749 474.99 215.975 472.739 214.146C470.488 212.318 469.363 209.645 469.363 206.128C469.363 203.034 470.277 200.502 472.106 198.532C474.075 196.422 476.537 195.367 479.491 195.367C483.008 195.367 485.821 196.633 487.931 199.165C490.041 201.697 491.096 205.073 491.096 209.293C491.096 213.654 489.9 217.522 487.509 220.898C485.258 224.134 482.164 226.666 478.225 228.494C474.427 230.323 470.207 231.237 465.565 231.237C462.33 231.237 458.954 230.745 455.437 229.76C451.92 228.776 448.544 227.228 445.309 225.118Z" fill="#DDA15E"/>
<path d="M424.199 140C430.247 140 434.96 141.969 438.336 145.908C441.852 149.847 443.611 154.559 443.611 160.045C443.611 165.25 441.923 169.61 438.547 173.127C435.311 176.503 430.951 178.191 425.465 178.191C420.119 178.191 415.759 176.503 412.383 173.127C409.147 169.751 407.53 165.672 407.53 160.889C407.53 156.106 408.936 152.097 411.75 148.862C414.704 145.486 418.572 143.798 423.355 143.798C424.48 143.798 425.394 144.22 426.098 145.064C426.942 145.908 427.434 146.963 427.575 148.229C427.715 149.354 427.434 150.339 426.731 151.183C426.168 152.027 425.043 152.449 423.355 152.449C420.963 152.449 419.064 153.363 417.658 155.192C416.392 156.88 415.759 158.638 415.759 160.467C415.759 163.14 416.673 165.32 418.502 167.008C420.33 168.555 422.581 169.329 425.254 169.329C428.067 169.329 430.458 168.555 432.428 167.008C434.397 165.32 435.382 162.999 435.382 160.045C435.382 157.232 434.327 154.7 432.217 152.449C430.247 150.058 427.504 148.862 423.988 148.862C422.862 148.862 421.948 148.44 421.245 147.596C420.682 146.611 420.401 145.556 420.401 144.431C420.401 143.306 420.682 142.321 421.245 141.477C421.948 140.492 422.933 140 424.199 140Z" fill="#DDA15E"/>
</svg>
