<svg height="30" viewBox="0 0 70 30" width="70" xmlns="http://www.w3.org/2000/svg"><g fill="#191c4f"><path d="m20.6 21.4c.3.1.3.5.3.7-.3.9-.9 1.5-1.1 1.7-.1.2-.2.1 0-.1 0 0 .1-.2.2-.3.6-.7.5-1.1.5-1.2 0-.5-.4-.4-.6-.2-.1.2-.2.1-.1 0q0 0 .1-.2c.3-.4.6-.5.7-.4z"/><path d="m15.5 21.1c-.1.1-.1.2-.2.3-.1.2-.2.3-.4.4s-2.9 1.1-3 1.2c-.3.2-.3 0-.2-.1q0 0 .1-.3c0-.1.1-.2.3-.3s2.9-1.2 3.1-1.3c.4-.1.3 0 .3.1z"/><path d="m27.9 19.8s-.1.3-.2.5c-.4 1-.2 1.5-.1 1.6.3.5.7.2.9-.2 0-.2.1-.1.1 0q0 .1-.1.3c-.2.6-.4.8-.7.8-.4 0-.6-.5-.6-.8-.1-1 .4-2 .5-2.2.1-.3.2-.2.2 0z"/><path d="m35.5 19.8s-.1.3-.2.5c-.3 1-.1 1.4-.1 1.5.3.5.7.2.9-.1.1-.2.1-.1.1-.1q0 .1-.1.4c-.1.6-.4.7-.6.7-.5 0-.6-.5-.7-.7-.1-1.1.4-2 .5-2.3.2-.3.3-.2.2.1z"/><path d="m64.1 19.7s.1.3.1.6c0 .2-.2.5-.3.8-.1.4-.8.5-1.2.2-.8 1.2-1.5.6-1.8.4-.7-.2-.9.2-1.1.4-.8 1-2.4.9-2.8 1-.4 0 0-.2.1-.3 1.2-.4 2-.5 3.1-1.6.5-.4.8-.2 1-.1 1 .4 1.2 0 1.3-.2.1-.1.3-.6.4-.8s.2 0 .1.1c0 .1 0 .3-.1.4.5.3.9 0 1 0 0 0-.1-.4-.1-.5q0-.1.2-.5c.1-.3.1 0 .1.1z"/><path d="m45 18.3c-.3 1-1.8 1.6-2.1 1.7-1.3.4-1.4-.9-1.3-1.8 0-1 .7-2.2.7-2.2s-1.4-1.1-1.5-1.2-.2-.3-.4-.3c-.1-.1-.1-.2-.1-.2s0-1 .1-1.1c0-.1 0 0 .1 0 .1.1 1.6.6 1.8.7.1.1.1.2 0 .2-.1.1-.6.2-.6.2l1.2.9s1.7-2.2 1.9-2.5c.1-.2.1 0 .1.2-.1.2-.4 1.1-.5 1.3 0 .1-.9 1.3-.9 1.3s1.1.7 1.4 1.1c.5.7.2 1.3.1 1.7zm-2.1-1.9s-.8 1.2-.9 1.5c-.3.8.4.9.7.9.3-.1 1.3-.6 1.8-1 .4-.4-1.4-1.3-1.6-1.4z" fill-rule="evenodd"/><path d="m10.3 15.5s-.1.2-.1.4c-.4 1-.2 1.4-.1 1.5.2.5.6.2.7-.1.1-.2.1-.1.1 0q0 .1 0 .3c-.2.6-.4.7-.6.7-.4 0-.6-.5-.6-.7 0-1.1.4-2 .5-2.2.1-.3.2-.2.1.1z"/><path d="m17.3 12.6c.1.2 0 .7-.1.9s-.2 0-.3-.1c0 0-.1-.2-.2-.3-.6-.4-.8.4-.8.8-.1.3-.1 1.3-.2 1.9 0 .2-.2.2-.2 0-.4-1.2-1.1-1.8-1.2-1.9s-.2.1-.2.2c0 0-.1 0-.2 0 0 0-.4-.3-.6-.4-.1-.1 0-.6 0-.8 0-.3.2-.4.3-.4 1.4.8 1.8 2.2 1.9 2.4.1-1 .1-1.9.6-2.6.5-.6 1.1.2 1.2.3z"/><path d="m65.7 17.1c-.1.2-.4 1.2-1.7.9-.4-.1-1.1-.2-1.3-1-.4.5-1.2 1.8-2.8 1.5-.3 0-1.4-.4-1.4-1.8 0 0-1.3 1-1.9 1.4 0 .5 0 1-.2 1.6-.3.7-3 3.8-5.3 4.3-.7.2-3.6.7-3.7-2.5-.1-.7 0-1.2 0-1.6-1.7 1.4-3.9 2.5-4.5 2.8-1 .4-4.2 1-4.8 1.1-.4 0-.5-.1-.3-.2.3-.1 7.6-2.6 11.4-6.6.1-.1.1-.3 0-.5s-1.3-2.5-1.4-2.8c-.2-.3-.3-.6-.4-.7q-.1-.2 0-.4c0-.1.1-.7.2-.9 0-.1.1-.1.1 0 .1.1 1.3 1.3 1.4 1.5.2.2.1.2 0 .2h-.6s.8 1.4 1 1.8c.5 1.1.2 2 .1 2.4-.4.7-1 1.4-1.8 2-.1.6-.3 3.2 2.1 3.3.4 0 1.7.2 4.2-1.9.6-.5 1.2-1 1.8-1.8.2-.3.3-.9-.1-.8-.4 0-3 1-3.3-.6-.1-.4.1-4.1 2.6-2.3.2.2.8.6 1.1 1.4.5-.2 1.2-.7 2.2-1.5.3-.2.6-.3.6 0 0 .4-.2 2.5 2.1 1.9.3-.1 1.2-.3 1.9-2.2.2-.4.5-.3.4 0-.2.5-.5.9-.2 1.1.2.2.9.7 1.7.6.3 0 .4-.2.3-.4s-.4-.7-.4-.7c.1-.3.2-.8.3-.9 0-.1 0-.2.1-.1s.9 1.1.5 2.4zm-10.6.1c-.8-1.1-1.8-.5-1.9-.3-.1.1-.2.4.6.4 1 .1 1.3-.1 1.3-.1z" fill-rule="evenodd"/><path d="m31.6 10.8s-.1.3-.2.5c-.3.9-.1 1.4-.1 1.5.3.4.6.2.8-.2 0-.1.1 0 .1 0q-.1.1-.1.3c-.2.6-.4.7-.6.7-.3 0-.5-.4-.5-.7-.1-1 .4-1.9.5-2.1.1-.3.1-.2.1 0z"/><path d="m43.6 10.4 1 .8q0 0 0 0l-.6.9q0 0-.1 0l-1-.7-.5.7q-.1 0-.1 0l-1-.8q-.1 0 0 0l.6-.9q0 0 0 0l1.1.7.5-.7q0 0 .1 0z"/><path d="m63 10.5s-.1.2-.1.4c-.3.9-.2 1.3-.1 1.4.2.5.6.2.7-.1.1-.2.1-.1.1 0q0 .1-.1.3c-.1.5-.4.7-.5.7-.4-.1-.5-.5-.6-.7 0-1 .4-1.9.5-2.1.1-.3.2-.1.1.1z"/><path d="m10.8 10.2s-.1.3-.2.5c-.3.9-.1 1.4-.1 1.5.3.4.7.2.8-.2.1-.2.1-.1.1 0q0 .1-.1.3c-.1.6-.4.7-.6.7-.3 0-.5-.4-.5-.7-.1-1 .4-1.9.5-2.2.1-.2.2-.1.1.1z"/><path d="m6.3 6.5s-.1.3-.2.4c-.3 1-.1 1.4-.1 1.5.3.5.7.3.8-.1.1-.2.1-.1.1 0q0 .1-.1.3c-.1.6-.4.7-.6.7-.3 0-.5-.5-.5-.7-.1-1.1.4-1.9.5-2.2.1-.2.2-.1.1.1z"/><path d="m52.7 9.9s-.1.3-.2.5c-.3 1-.1 1.4-.1 1.5.3.5.7.3.8-.1.1-.2.1-.1.1 0q0 .1-.1.3c-.1.6-.4.7-.6.7-.4 0-.5-.5-.5-.7-.1-1.1.3-2 .5-2.3.1-.2.2-.1.1.1z"/><path d="m20.8 8.9c.8.1.6.4.4.7-.5.8-1.3 1.2-1.8 1.4-.6.2-.3-.2 0-.4 0 0 .3-.2.8-.6.5-.3-.8-.3-1.3-.3s-.7.2-.9.4c-.1.2-.3.1-.2-.2.1-.2.3-.5.7-.9s1.6-.2 2.3-.1z"/><path d="m32.3 8.1c0 .2 0 .2-.1.4s-.3.2-.5.4c-.2.1-8.7 3.5-8.8 3.6-.4.2-.4 0-.3-.1q0 0 .1-.3c.1-.2.2-.3.4-.4.3-.2 8.7-3.6 9-3.7.4-.2.3 0 .2.1z"/><path d="m15.4 7.4s-.1.2-.1.4c-.4 1-.2 1.4-.1 1.5.2.5.6.2.7-.1.1-.2.1-.1.1 0q0 .1 0 .3c-.2.6-.4.7-.6.7-.4 0-.6-.5-.6-.7 0-1.1.4-2 .5-2.2.1-.3.2-.2.1.1z"/><path d="m51.8 5.7c-.1.1-.1.1-.2.3 0 .2-.1.2-.3.3-.2.2-5.6 3.3-5.7 3.4-.4.2-.3 0-.3-.1q0 0 .1-.3c0-.1.1-.2.3-.3.2-.2 5.6-3.3 5.8-3.4.3-.2.3 0 .3.1z"/><path d="m58.3 6c.2.2.1.7 0 .9s-.2 0-.4-.1c0 0-.1-.2-.2-.3-.6-.4-.8.5-.8.9-.1.3-.1 1.3-.2 1.9-.1.2-.2.2-.3.1-.3-1.3-1.1-1.9-1.2-2-.1-.2-.2 0-.2.1s-.1.1-.2.1c-.1-.1-.5-.3-.6-.5-.1-.1-.1-.6-.1-.8 0-.3.3-.4.4-.4 1.4.8 1.9 2.3 2 2.5 0-1.1.1-2 .7-2.8.4-.5 1.1.3 1.1.4z"/><path d="m63.7 8.3c-.1.1-.1 0-.2-.1s-.3-.2-.5-.4c-.2.5-.2.6-1.1 1.4-2 1.7-4.1 2.3-4.3 2.3-.1 0-.1 0 .1-.2.7-.5 3.5-1.8 5-3.6 0 0-.5-.2-.8-.4s-.1-1 .1-1.4c.6-.8 1-.4 1.1-.3.5.9.2 1.7.2 1.7.3.2.6.5.4 1zm-1-2.1c-.1-.1-.2-.1-.5.3-.1.1 0 .2.2.3s.6.3.6.3c0-.1.1-.6-.3-.9z" fill-rule="evenodd"/><path d="m43.3 8c-.1.1-.1 0-.3-.1 0 0-.4-.4-.4-.4s-.4 1-1.1 1.5c-1.4 1.1-2.5 1.2-2.6 1.3-.1 0-.2-.1.1-.3.8-.5 1.8-.8 3.3-2.6 0 0-.5-.2-.8-.4s-.1-1 .1-1.4c.5-.8 1-.4 1.1-.3.5.9.2 1.7.2 1.7.3.2.6.5.4 1zm-1-2.1c-.1-.1-.2-.1-.5.3-.1.1 0 .2.2.3s.6.3.6.3c0-.1.1-.6-.3-.9z" fill-rule="evenodd"/><path d="m27.7 5.6c.2.3.1.7 0 .9s-.2 0-.3-.1c0 0-.2-.2-.3-.3-.5-.4-.7.4-.8.9 0 .2-.1 1.2-.1 1.8-.1.2-.2.2-.3 0-.3-1.2-1-1.8-1.1-1.9-.2-.1-.2.1-.3.2h-.1c-.1 0-.5-.3-.6-.4s-.1-.6-.1-.8c.1-.3.3-.4.4-.4 1.3.8 1.8 2.2 1.9 2.4 0-1 .1-1.9.6-2.6.5-.6 1.1.2 1.1.3z"/><path d="m35 16.4c0 1.7-.6 2.7-.8 2.9-2 2-4 .3-4.2.1q-.4-.4-.8-.8c-1 .6-3.3 1.8-9.2 2.1-1.1 0-1.8-.1-2.4-.4-.1.2-.2.3-.2.3-.2.4-.7.7-.4.2 0-.1.1-.3.3-.6-.6-.4-.8-.8-1-1.1-.9-1-2.2-.5-3-.2-1.4.7-3.5 2.7-4.2 3.3-1.3 1.4-2.4 1.4-2.9 1.2-2.6-.8-.4-5.2.2-6.2-.3-.3-.5-.9-.5-1.2 0-2 .8-3.6 1-4.1.2-.4.3-.2.2.2 0 0-.2.5-.3.8-.6 1.8-.4 2.6-.3 2.8.4.9 1 .5 1.2-.2.1-.3.2-.1.2 0q0 .2-.1.6c-.3 1-.8 1.3-1.1 1.3q0 0 0 0c-.2.3-.7 1.3-.9 1.8-.8 2-.2 2.9.1 3 1.1.6 2.5-.6 3-1 1.9-1.8 3.6-3.1 4.3-3.5 1.9-.9 3.1-.2 3.4.2.3.3.5.7.8.9q.3.2.6.3c.6-.8 1.1-1.6 1.3-1.8.3-.4 1.9-2.7 4-2.2.6.1 2 .5 2.1 1.9 0 .4-.4 1.4-.6 1.9q.1 0 .2 0c1.1-.2 2.3-.7 3.4-1.1-.7-.5-1.2-.8-1.3-.9-.5-.3-1.1 0-1.1.1-.2.1-.3-.1-.3-.2.1-.6.5-1.1.7-1.2 3.3-1.4 5.8.1 6.2.3.3.2-.3 1-.4 1.2-.3.1-1.1.5-1.9.9q.3.3.4.4c1.4 1.2 3.2.2 3.5-.2.3-.5 0-2.5-.1-3.1 0-.6-.7-7-.7-7q0-.7-.1-1.3c-.1-.4-.1-.6-.2-.7 0 0 .5-.9.5-1 .1-.1.1-.1.2.1 0 .1 1 2.8 1.1 3 0 .2-.1.2-.2.1s-.6-.6-.6-.6.5 4.7.6 5.3.3 2.8.3 3.4zm-10.5.9c-.2-.3-1.2-1.5-2.6-1.1-.8.1-1.7.7-3 2.4-.1.1-.3.3-.5.6.7.1 4.1.4 6.1-1.2.2-.2.3-.4 0-.7zm6.6-.7c-.9-.4-1.9-.4-2.8-.3.5.2.9.6 1.3 1 .9-.4 1.4-.7 1.5-.7z" fill-rule="evenodd"/><path d="m37.1 5.1c0 .1 1.2 3.2 1.3 3.4 0 .2-.1.2-.2.1s-.7-.7-.7-.7.9 8.3.9 8.6c.2 1.6.2 2.8.1 3.6 0 1-.2 1.4-.3 1.5s-.2.1-.1-.1c0-.6-.1-1.7-.2-3-.3-2.5-1.1-10.4-1.3-11.8 0-.1-.1-.5-.1-.6 0 0 .4-.9.5-1 0-.1.1-.1.1 0z"/><path d="m18.5 5.2s-.1.2-.1.4c-.3.9-.2 1.3-.1 1.4.2.4.5.2.7-.1 0-.2.1-.1.1 0q-.1 0-.1.2c-.1.6-.4.7-.5.7-.4 0-.5-.5-.5-.7-.1-.9.3-1.7.4-2 .1-.2.2-.1.1.1z"/><path d="m13.2 6c.1.3 0 .7-.1.9 0 .2-.2 0-.3-.1 0 0-.1-.2-.2-.3-.6-.4-.8.4-.8.9-.1.2-.1 1.2-.2 1.8 0 .2-.2.2-.2 0-.4-1.2-1.1-1.7-1.2-1.9q0 0 0 0 0 .1 0 .4c-.2 1.6-1.8 2.2-2 2.3-.3.1-.3.1 0-.2.2-.3 1.4-1.5 1.6-1.7.5-.6-.4-.9-.6-1-.1-.1 0-.6 0-.8 0-.3.2-.4.3-.3 1.4.7 1.8 2.1 1.9 2.3.1-1 .1-1.9.7-2.6.4-.6 1 .2 1.1.3z"/></g></svg>