<svg height="72" viewBox="0 0 128 72" width="128" xmlns="http://www.w3.org/2000/svg"><g fill="#f3efdf"><g fill-rule="evenodd"><path d="m79.6 28.2q-.7 1.4-1.1 2.1-1.1 2.1-1.9 2.1-.7.1-1.5.2-4.3.4-6.5 1.2-.2.1-1.9.8-.1.5-.1 1.2-.3 2.1-.3 2.7 0 2.4 2 4.1 2.1 1.7 4.9 1.7 2.7 0 5.4-1 1.8-.6 3.5-1.6 3.6-2 6.1-4.2 2.1-1.7 2.1-2.3-.1-.4-2-2.9-1.8-2.4-2.4-3.7l-1-2.3q-.1-.3.3-1.7.1-.4.4-1.4h.5l4.6 4v.7q-.6-.2-1-.2-1.3-.2-1.5-.2 1.3 1.6 2.5 3.2 1 1.5 1 4 0 2.9-1.4 4.9-1.4 2-5.2 4.7-3.3 2.2-5.5 3.1-3 1.3-6.4 1.3-4.2 0-6.4-2.7-1.9-2.4-1.8-6 0-1.8.2-3.9.1-.5.2-.9-.7.3-1.6.7-2.3 1.1-4.2 1.7-1.3.5-3.2.8-.7.1-1.7.3-.4.7-.6 1.1-.8 1.2-1.6 1.8l-.3-2.4q-.6 0-1.4 0-.7.1-1.5.1l-2.2-.1q-2.4 0-3.9-1.6-1.4-1.3-1.4-2.9-2.3.9-4.7 1.8-5.5 2.3-9.9 3.5-6.5 1.9-10.8 1.9-5.7 0-8.9-2-3.5-2.2-3.5-6.8 0-1.5 1-3.6.8-1.8 1.8-3.1h1.3q-.4.7-1.2 2.4-.9 2.2-.9 3 0 2.5 2.9 4.3 3 1.7 8.1 1.7 4 0 9.3-1.3 3.5-1 9.4-3.2 3.9-1.5 7.9-3 0 2.1 1.4 3.5 1.1 1.1 2.4 1.1h3.7q-.6-.8-.9-1.9-.4-1.2-.4-2.6 0-2.5 2-4.7 1.9-2.2 4.7-2.2 1.9 0 7 1.4 5 1.5 5.8 1.6 2.9.8 4.9 1.1 3 .6 5.4.6zm-63.6 3.5q0 .7-.6 1.3-.5.7-1.4.7-.9 0-1.4-.7-.5-.8-.5-1.7 0-1.3.7-3.3.8-2 1.8-3.2 0 .9-.6 2.7-.7 1.9-.7 2.8 0 .3.3.9.3.6.7.6.7 0 1.4-1.8.3.3.3 1 0 .5 0 .7zm11.4-15.4q0 3.1-2.1 4.9-1 .9-2.4 1.3-1.4.5-3 .5-3.5 0-5.7-1.9-2.1-1.8-2.1-4.7 0-2 1.2-3.6 1-1.3 2.5-2.1 1.9-.9 4.1-.9.9 0 2.2.4.2 0 .6.2-1.9 0-3.7 1-2.4 1.3-2.4 3.7 0 1.6 1.4 2.9 1.4 1.2 3.4 1.2 2 0 3.4-1.3 1.8-1.8 1.8-4 .2.3.2.5.6 1.3.6 1.9zm-1 1q-.8 1.5-2.4 2.2-1.2.6-2.6.6-2.3 0-4.1-1.4-1.7-1.4-1.7-3.6 0-1.3.7-2.5.7-1.2 2.3-1.9-1.1 0-2.3.7-1.2.7-1.8 1.5-.7.8-1 1.7-.4.8-.4 1.8 0 2.4 1.9 4 1.8 1.6 4.7 1.6 2.4 0 4.2-1 1-.6 1.8-1.7.7-1 .7-2zm1.4 30.1-2.9 2.6-3.4-2.9 3-2.6zm44.8-37.1q-.3 1.2-1.1 1.7-.3.2-.6.3l-39.7 11.5q-.3.1-.8.5-.6.4-.7.4.1-.8.7-1.4.6-.5 1.3-.7l39.6-11.6q.2 0 .6-.3.4-.2.7-.4zm-29.1 1.6q-.3 0-.7.1-.2-.2-.3-.4-.3-.5-.7-.5-.6 0-1 .9-.7 1.3-1.5 5.2h-.7q-.9-3.6-2.1-3.5-1.1 0-1.7-.2-1.1-.5-1.1-1.6 0-1.4 1.3-1.4 1.6 0 2.9 2.3.6 1.1 1.2 2.2.4-2.2.8-3.4.9-2.5 2.2-2.5.5 0 .9.4.3.2.6.7zm25.1 18.8q-.2-.1-6.8-1.7-4.3-1-6.2-1.2-1.3 0-2.1.3-1.2.5-2.2 1.8.8.7 1.2 1.3 1.3 1.7 1.6 3.5 1.5-.2 2.4-.3 2.8-.4 4.2-.8 2.1-.7 3.6-1.2 2.1-.8 4.3-1.7zm-6.4 14.9-2.9 2.5-3.4-2.9 3-2.5zm24-33.7q-.3 1.2-1.1 1.7-.3.2-.5.3l-14.5 4.2q-.3.1-.8.5-.6.3-.8.4.2-.8.8-1.4.6-.5 1.3-.8l14.3-4.2q.3 0 .7-.3.4-.2.6-.4z"/><path d="m91.9 53.3c.7-.1 1.5-.2 2.2-.2 1.2 0 2.1.2 2.8.8s.8 1.3.8 2.2c0 1.1-.5 2.1-1.6 2.6.7.3 1.1.9 1.3 2.1.2 1.1.5 2.4.7 2.8h-2.2c-.1-.3-.3-1.4-.5-2.5-.1-1.3-.5-1.7-1.1-1.7h-.3v4.2h-2.1zm2.1 4.5h.3c.9 0 1.4-.7 1.4-1.6s-.4-1.5-1.3-1.6c-.1 0-.3.1-.4.1z"/><path d="m100.8 61.2-.4 2.4h-2l2.3-10.4h2.4l2 10.4h-1.9l-.5-2.4zm1.7-1.6-.4-2.2c-.1-.6-.2-1.6-.3-2.3-.1.7-.3 1.8-.4 2.4l-.4 2.1z"/></g><path d="m107.7 53.2h2.1v7.1c0 2.9-1.5 3.4-3 3.4-.4 0-.7-.1-1-.2l.2-1.7c.2.1.4.1.7.1.5 0 1-.2 1-1.6z"/><path d="m113.1 61.2-.5 2.4h-2l2.3-10.4h2.4l2 10.4h-1.9l-.5-2.4zm1.7-1.6-.3-2.2c-.1-.6-.3-1.6-.4-2.3-.1.7-.3 1.8-.4 2.4l-.4 2.1z" fill-rule="evenodd"/><path d="m118.5 53.3c.6-.1 1.4-.2 2.3-.2 1 0 1.9.2 2.6.8.6.4.8 1.1.8 1.9 0 .9-.5 1.8-1.5 2.2v.1c1.2.3 1.8 1.3 1.8 2.5 0 .8-.2 1.5-.7 2-.6.7-1.7 1.1-3.4 1.1-.8 0-1.5-.1-1.9-.2zm2 4.2h.4c.8 0 1.3-.7 1.3-1.5s-.3-1.3-1.2-1.3q-.3 0-.5 0zm0 4.6q.2.1.5.1c.8 0 1.4-.5 1.4-1.6 0-1-.7-1.6-1.5-1.6h-.4z" fill-rule="evenodd"/></g></svg>