<svg height="30" viewBox="0 0 70 30" width="70" xmlns="http://www.w3.org/2000/svg"><g fill="#191c4f"><path d="m35.1 25c-.1.1-.1.1-.2.2-.1.2-.2.2-.4.3s-2.8 1.1-2.9 1.1c-.4.1-.3 0-.3-.1q0 0 .1-.2c.1-.2.2-.2.4-.3s2.8-1 3.1-1.1c.3-.2.2 0 .2.1z"/><path d="m33.6 22.8c.1.1 0 .2 0 .2 0 .1-.2.3-.3.4q-.1.1-.1 0c-.2-.3-.4-.2-.6-.1-.3.2-.3.3-.2.4s.4.4.7.4c.3.1.9-.1 1.1-.3.3-.1.1.2.1.3 0 0-.2.3-.4.3-1.2.3-1.6.7-1.8.8s-.2 0-.1-.1c0 0 0-.1.1-.2q.1-.2.3-.3 0 0-.4-.3c-.4-.4.5-1.3.9-1.6s.6.1.7.1z"/><path d="m15.4 22.6c.4.1.4.6.3.8-.3 1-1 1.6-1.2 1.8s-.3.1-.1-.1c0 0 .2-.2.3-.3.7-.8.6-1.2.6-1.4-.1-.5-.6-.4-.8-.1-.2.1-.2 0-.1-.1q0 0 .1-.2c.4-.5.7-.5.9-.4z"/><path d="m25 21.3s.1.3.1.6c0 .2-.2.5-.3.9-.1.3-.8.5-1.3.1-.8 1.3-1.5.7-1.9.5-.7-.3-.9.2-1.1.4-.9 1-2.6 1-3 1-.4.1-.1-.2.1-.3 1.3-.4 2.1-.5 3.3-1.6.5-.5.8-.3 1-.2 1.1.5 1.3 0 1.4-.1.2-.1.3-.7.4-.9s.2 0 .2.1c-.1.1-.1.3-.1.4.4.4.9.1 1 0 0 0-.1-.4-.1-.5q0-.1.2-.6c.1-.2.1 0 .1.2z"/><path d="m64 20.1v.5c0 .2-.1.6-.3.9-.1.4-.8.5-1.3.2-.8 1.2-1.5.6-1.9.4-.7-.2-.9.3-1.1.4-.9 1.1-2.6 1-3 1.1-.4 0 0-.2.1-.3 1.3-.5 2.1-.6 3.3-1.6.5-.6.9-.3 1-.2 1.1.4 1.3 0 1.4-.2.2-.1.4-.7.4-.9.1-.1.2 0 .2.2 0 .1-.1.3-.1.4.4.3.9 0 1-.1 0 0 0-.3-.1-.4q0-.2.2-.6c.1-.3.1 0 .2.2z"/><path d="m8.9 18.3c0 .2-.1.2-.1.4-.1.2-.2.3-.4.4s-2.7 1.5-2.9 1.6c-.4.3-.3.2-.3 0q0 0 0-.3c.1-.2.1-.2.4-.4.2-.1 2.8-1.6 3-1.7.4-.2.3-.1.3 0z"/><path d="m29 17.6s0 .3-.1.5c-.3.9 0 1.3 0 1.4.4.5.7.2.9-.2 0-.2.1-.1.1 0q0 .1-.1.3c-.1.6-.4.7-.6.7-.4.1-.6-.4-.6-.6-.2-1 .2-1.9.3-2.1.1-.3.2-.2.1 0z"/><path d="m26.4 16.3c.7 1.2.2 2.5.1 2.8-.4.7-1.3.8-1.6.7-.9-.2-1.1-.9-1.1-1 0 0-.5.8-.8 1.1-1.3 1.3-2.3.4-2.8.1-1.5-1.2-2.4-.6-3-.4-1.7.8-3.8 3.2-4.2 3.7-2 2-3.1 1.4-3.5 1.1-2.4-1.7.1-5.1.6-5.8.5-.6.7-.4.6-.2-2.3 2.9-1.7 4.6-1.5 4.9.9 1.3 2.8-.5 3.3-.9.4-.5 3.1-3.1 3.3-3.2 2.3-1.9 3.9-1.2 4.3-.9 1 .8 1.5.8 1.9.8 1.4-.2 2-1.9 2.2-2.1.2-.3.3 0 .2.1 0 .2-.2.5-.2.6.4 1 1.5.9 1.9.7.3-.1-.2-.9-.3-1.3 0 0 .3-.8.4-.8 0-.1.1-.2.2 0z"/><path d="m7.7 14.3c.1.1 0 .2 0 .3-.1.1-.3.4-.4.6q-.2.1-.2 0c-.3-.4-.7-.3-1.1-.1-.3.2-.3.4-.2.6s.6.5 1.1.6c.4.1 1.4-.2 1.8-.4s.1.2 0 .4c0 0-.2.4-.5.5-1.9.4-2.6 1.1-2.9 1.3-.3.1-.3 0-.2-.1.1-.2.1-.2.2-.4q.1-.4.4-.5 0 0-.5-.4c-.7-.7.8-2.1 1.4-2.6s1 .1 1.1.2z"/><path d="m17.3 14s-.1.2-.2.4c-.3 1 0 1.4 0 1.5.4.4.7.1.9-.2 0-.2.1-.1.1 0q0 0-.1.2c-.1.6-.4.8-.6.8-.4 0-.6-.4-.6-.6-.2-1 .2-1.9.3-2.2.1-.2.2-.1.2.1z"/><path d="m23.1 12.8c.7.1.5.4.4.6-.5.7-1.2 1.1-1.7 1.3s-.2-.2.1-.4c0 0 .2-.2.7-.5.4-.3-.7-.3-1.2-.3s-.6.2-.8.4c-.1.1-.3 0-.2-.2s.3-.4.6-.8 1.4-.2 2.1-.1z"/><path d="m43.7 18.5c-.3 1.1-1.9 1.7-2.2 1.8-1.4.5-1.5-.9-1.4-1.9s.8-2.3.8-2.3c-.1 0-1.5-1.2-1.6-1.3s-.3-.2-.4-.3-.1-.2-.1-.2 0-1 0-1.1c0-.2.1-.1.2-.1.1.1 1.7.7 1.8.8.2.1.1.2 0 .2 0 .1-.6.2-.6.2l1.3.9s1.8-2.3 2-2.5c.1-.3.1-.1.1.1s-.4 1.2-.5 1.4c-.1.1-1 1.4-1 1.4s1.2.7 1.5 1.1c.5.7.2 1.4.1 1.8zm-2.2-2s-.8 1.3-1 1.6c-.3.8.5 1 .8.9.3 0 1.4-.5 1.9-1 .5-.4-1.4-1.4-1.7-1.5z" fill-rule="evenodd"/><path d="m65.6 17.3c-.1.2-.4 1.2-1.8.9-.4 0-1.1-.2-1.4-1-.4.5-1.2 1.9-2.9 1.6-.3-.1-1.5-.5-1.5-2 0 0-1.4 1.1-2 1.5 0 .5 0 1.1-.2 1.8-.3.6-3.2 3.9-5.6 4.5-.8.1-3.9.7-4-2.7q0-1.1.1-1.6c-1.9 1.4-4.2 2.5-4.8 2.9-1 .4-4.5 1-5.1 1.1-.4.1-.5 0-.2-.2.2-.1 7.9-2.7 12-6.9q.1-.2-.1-.6c-.1-.2-1.3-2.6-1.5-2.9-.1-.3-.2-.7-.3-.8q-.1-.2 0-.4c0-.1.1-.8.1-.9.1-.2.1-.1.2 0s1.4 1.4 1.5 1.5c.2.2 0 .3 0 .3-.1 0-.7 0-.7 0s.8 1.4 1.1 1.9c.5 1.2.2 2.1.1 2.5-.4.7-1.1 1.4-1.9 2.1-.1.6-.4 3.4 2.2 3.5.4 0 1.8.2 4.4-2 .6-.5 1.3-1.1 1.9-1.9.3-.4.4-.9 0-.9-.5.1-3.2 1.1-3.6-.6-.1-.4.1-4.3 2.8-2.4.3.2.8.7 1.2 1.4.5-.2 1.3-.7 2.3-1.5.3-.3.6-.4.6 0 0 .3-.2 2.6 2.2 1.9.3 0 1.4-.3 2.1-2.2.2-.4.5-.4.4 0-.2.5-.5.9-.3 1.1.3.3 1 .8 1.9.7.3-.1.4-.2.3-.5-.1-.2-.4-.7-.4-.7.1-.3.2-.8.2-1 .1-.1.1-.2.2-.1s.9 1.2.5 2.6zm-11.2.1c-.8-1.2-1.9-.5-2-.4s-.2.5.7.5c1 .1 1.3-.1 1.3-.1z" fill-rule="evenodd"/><path d="m42.2 10.2 1.1.8q0 0 0 .1l-.6.9q-.1 0-.1 0l-1.1-.8-.5.8q-.1 0-.1 0l-1.1-.8q-.1-.1 0-.1l.6-.9q0 0 .1 0l1.1.8.5-.8q.1 0 .1 0z"/><path d="m62.8 10.2s-.1.3-.2.5c-.3 1-.1 1.4-.1 1.5.3.5.6.2.8-.1 0-.2.1-.1.1 0q0 .1-.1.3c-.2.6-.4.7-.6.7-.4 0-.5-.5-.5-.7-.1-1.1.3-2 .5-2.2.1-.3.1-.2.1 0z"/><path d="m51.8 9.7s0 .3-.1.5c-.4 1-.2 1.5-.1 1.6.3.5.6.3.8-.1.1-.2.1-.1.1 0q0 0-.1.3c-.2.6-.4.8-.6.8-.4-.1-.6-.6-.6-.8-.1-1.2.4-2.1.5-2.4s.2-.2.1.1z"/><path d="m21.6 9.2c0 .2 0 .2-.1.4-.1.3-.3.3-.5.5-.2.1-6.1 2.6-6.9 3-.8.5-.7.8-.5.9.5.2.8.6.4 1.2 0 0 0 .1-.1 0 0-.1-.2-.3-.5-.3-.4-.1-.5-.7-.3-1.4.1-.4.4-.8.7-1 .7-.5 7.3-3.3 7.5-3.4.5-.2.4 0 .3.1z"/><path d="m6.3 7.2s-.1.5-.1.8c-.4 1.5-.1 2.2-.1 2.3.4.8.9.4 1.1-.2 0-.3.1-.2.1 0q0 .1 0 .4c-.2 1-.5 1.2-.8 1.2-.5 0-.8-.7-.8-1.1-.2-1.6.3-3.1.4-3.5.2-.4.3-.2.2.1z"/><path d="m29.7 9.2s-.1.2-.1.4c-.3 1-.1 1.4 0 1.5.3.4.7.1.8-.2.1-.2.1-.1.1 0q0 0 0 .2c-.2.6-.4.8-.6.8-.4 0-.6-.4-.7-.6-.1-1 .3-1.9.4-2.2.1-.2.2-.1.1.1z"/><path d="m50.9 5.2c-.1.1-.1.2-.2.3 0 .2-.2.3-.3.4-.2.1-6 3.4-6.1 3.5-.3.2-.3.1-.2 0q0-.1 0-.4c.1-.1.1-.2.4-.3.2-.2 5.9-3.5 6.1-3.6.4-.2.3 0 .3.1z"/><path d="m57.8 5.5c.2.3.1.7 0 1-.1.2-.3 0-.4-.1 0 0-.1-.2-.3-.3-.5-.5-.8.4-.8.9-.1.3-.1 1.4-.2 2-.1.3-.2.3-.3.1-.4-1.4-1.2-2-1.3-2.1-.1-.2-.2 0-.2.1-.1.1-.1.1-.2.1-.1-.1-.5-.3-.7-.5-.1-.1 0-.6 0-.8 0-.4.2-.5.3-.5 1.6.9 2.1 2.4 2.1 2.7.1-1.2.2-2.2.8-2.9.5-.7 1.2.2 1.2.3z"/><path d="m18.6 5.1s0 .3-.1.5c-.3.9-.1 1.3 0 1.4.3.5.7.2.8-.2.1-.1.2-.1.1 0q0 .1 0 .3c-.1.6-.4.7-.6.8-.4 0-.6-.5-.7-.7-.1-1 .3-1.9.4-2.1.1-.3.2-.2.1 0z"/><path d="m63.5 8c-.1.1-.1 0-.3-.1 0-.1-.2-.3-.4-.4-.2.5-.2.5-1.2 1.4-2.1 1.8-4.4 2.4-4.5 2.5-.1 0-.2-.1 0-.3.8-.5 3.8-1.9 5.3-3.8 0 0-.5-.2-.8-.4s-.1-1.1.1-1.4c.6-1 1.1-.5 1.2-.3.5.8.2 1.7.2 1.7.3.2.6.5.4 1.1zm-1-2.3c-.1-.1-.3-.1-.6.3-.1.2 0 .3.2.4s.7.3.7.3c0-.1 0-.7-.3-1z" fill-rule="evenodd"/><path d="m41.9 7.7c-.1.1-.1 0-.2-.1s-.5-.4-.5-.4-.4 1-1.2 1.5c-1.4 1.1-2.6 1.3-2.7 1.3-.1.1-.2-.1 0-.2 1-.5 2-.9 3.5-2.8 0 0-.4-.2-.8-.4-.3-.3-.1-1.1.1-1.5.6-.9 1.1-.4 1.2-.3.5.9.2 1.8.2 1.8.3.2.6.5.4 1.1zm-1-2.3c-.1-.1-.3-.1-.6.3-.1.2.1.3.2.4.2.1.7.3.7.3 0-.2.1-.7-.3-1z" fill-rule="evenodd"/><path d="m16.4 5.1c.1.3.1.7 0 1-.1.2-.2 0-.3-.1 0 0-.2-.2-.3-.3-.5-.5-.7.5-.7.9s0 1.4-.1 2.1c0 .2-.1.2-.2 0-.4-1.3-1.1-1.9-1.2-2-.2-.1-.2.1-.2.1-.1.1-.1.1-.2.1s-.4-.3-.6-.4c-.1-.2-.1-.7-.1-.9 0-.4.2-.5.3-.4 1.4.8 1.9 2.3 2 2.5 0-1.1 0-2.1.5-2.9.4-.7 1 .2 1.1.3z"/><path d="m10.4 4.7c0 .1 1.4 3.3 1.4 3.5.1.2 0 .2-.1.1s-.8-.7-.8-.7 1.1 7.9 1.2 8.3c.7 4.6 0 5.3-.1 5.4s-.2.1-.2-.1c0-1.9-1-8.1-1-8.5-.1-.4-.8-6.5-.9-7.1 0 0 .3-.9.4-1 0-.1.1 0 .1.1z"/><path d="m31.3 4.5c.1.1 1.4 3.3 1.4 3.5.1.2 0 .2-.2.1-.1-.1-.7-.7-.7-.7s1.2 7.6 1.3 8.4c.4 2.4.3 3.7-.5 5.1-1.9 3.1-6.4 3.3-6.8 3.4-.3 0-.5-.1 0-.4 4.2-1.4 5.9-3 6.5-4q0-.1 0-.1c-.4-2.2-3.3-4.9-3.6-5.2s-3.1-3.1-5.3-5.7c-.4-.5-.9-1-1-1.1-.2-.1-.2-.2-.2-.3s0-1 0-1.2.1 0 .3.1c.2.2 2.3 1.6 2.5 1.7.1.2-.1.2-.2.1-.1 0-.7-.1-.7-.1q0 0 0 0c1.4 2.3 6 6 7.3 8.2.9 1.3 1.1 2.2 1.2 2.9q.1-.2.1-.3c.1-.7-1.9-13.1-1.9-13.4 0 0 .3-.9.4-1 .1-.2.1-.1.1 0z"/><path d="m35.2 4.5c.1.1 1.4 3.3 1.5 3.5 0 .2-.1.2-.2.1s-.8-.7-.8-.7 1.1 7.9 1.2 8.3c.8 4.9.2 6.4.1 6.6s-.2.1-.1-.1c-.1-1.9-1.2-9.3-1.3-9.7 0-.4-.8-6.5-.9-7.1 0 0 .3-.9.4-1 0-.1.1 0 .1.1z"/><path d="m29.2 4.6c.2.2.1.7 0 .9s-.2 0-.4-.1c0 0-.1-.1-.2-.2-.6-.5-.8.4-.9.9 0 .3 0 1.4-.1 2 0 .3-.2.3-.2.1-.5-1.3-1.3-1.9-1.4-2-.2-.2-.2 0-.3.1 0 .1-.1.1-.1.1-.1-.1-.5-.3-.7-.5-.2-.1-.1-.6-.1-.8 0-.4.2-.5.3-.4 1.6.7 2.2 2.2 2.3 2.5 0-1.2 0-2.2.6-3 .4-.6 1.2.3 1.2.4z"/></g></svg>