<svg height="30" viewBox="0 0 70 30" width="70" xmlns="http://www.w3.org/2000/svg"><g fill="#191c4f"><path d="m32.2 22.9c0 .1-.1.1-.1.3-.1.2-.2.2-.4.3s-4.9 1.6-5 1.6c-.3.2-.3.1-.3 0q.1-.1.1-.3c.1-.2.1-.2.4-.3.2-.2 4.8-1.6 5.1-1.7.3-.2.3 0 .2.1z"/><path d="m15.5 22s-.1.2-.2.3c-.2.8-.1 1.2 0 1.3.2.4.5.2.6-.1 0-.2.1-.1.1 0q0 0-.1.2c-.1.5-.3.6-.5.6-.3 0-.4-.4-.4-.6-.1-.8.3-1.6.4-1.8s.1-.1.1.1z"/><path d="m64.1 20.2v.5c0 .2-.1.5-.2.8-.1.4-.8.5-1.3.2-.7 1.2-1.4.6-1.8.4-.6-.2-.8.2-1 .4-.8 1-2.4.9-2.8 1-.3 0 0-.2.1-.3 1.2-.4 2-.5 3.1-1.5.5-.5.8-.3 1-.2 1 .4 1.1 0 1.3-.1.1-.2.3-.7.3-.9.1-.1.2 0 .2.1s-.1.3-.1.4c.4.3.8.1.9 0 0 0 0-.3 0-.4q0-.2.1-.6c.1-.3.2 0 .2.2z"/><path d="m24.1 14s-.1.4-.2.6c-.4 1.1-.1 1.6 0 1.7.3.6.8.3.9-.2.1-.2.2-.1.2 0q-.1.1-.1.4c-.2.7-.5.8-.7.9-.5 0-.7-.6-.8-.8-.1-1.3.4-2.3.5-2.6.1-.4.2-.2.2 0z"/><path d="m45.1 18.7c-.3 1-1.7 1.6-2 1.7-1.3.4-1.4-.9-1.3-1.8s.7-2.1.7-2.1c0-.1-1.4-1.1-1.5-1.2s-.2-.3-.3-.4c-.2 0-.2-.1-.2-.1s.1-1 .1-1.1 0 0 .1 0c.1.1 1.6.6 1.8.7.1.1.1.2 0 .2-.1.1-.6.2-.6.2l1.2.8s1.7-2.1 1.8-2.3c.2-.3.2-.1.1.1 0 .2-.3 1.1-.4 1.3-.1.1-.9 1.3-.9 1.3s1.1.7 1.4 1c.4.7.1 1.4 0 1.7zm-2.1-1.9s-.7 1.3-.8 1.5c-.3.8.4.9.7.9s1.3-.5 1.7-.9c.5-.4-1.3-1.3-1.6-1.5z" fill-rule="evenodd"/><path d="m36.7 12.5 1 .7q.1.1 0 .1l-.6.8q0 .1-.1.1l-1-.8q0 0 0-.1l.6-.8q0 0 .1 0z"/><path d="m30.3 12.6s.1.5.3.8.3.6.2 1-.3.7-.5.8-.7.1-1-.4c-.4.8-.9.9-1.2.8-.4-.2-.4-.8-.4-1s0-.7 0-.9c0-.1.1-.2.1-.4.1-.1.2 0 .2.1 0 .2-.1 1 0 1.3.4.5 1 .1 1.2-.2.1-.2-.2-1.1-.2-1.1q-.1-.1-.1-.2c.1 0 .1-.3.1-.4q.1-.2.2 0c.1.1.1.4.2 1.1.2.8.9.7 1.1.6.1-.1.1-.2 0-.3 0-.1-.3-.7-.4-1s0-.4 0-.7c.1-.2.2-.1.2.1z"/><path d="m65.6 17.6c-.1.2-.3 1.1-1.7.9-.3-.1-1-.3-1.3-1-.3.4-1.1 1.7-2.7 1.5-.3-.1-1.4-.5-1.4-1.8 0 0-1.3 1-1.9 1.3.1.5 0 1.1-.2 1.7s-3 3.7-5.2 4.2c-.7.1-3.6.7-3.7-2.5q0-1 .1-1.6c-1.8 1.4-3.9 2.5-4.5 2.8-1 .4-4.2.9-4.8 1.1-.4 0-.4-.1-.2-.2.2-.2 7.5-2.6 11.2-6.5q.2-.2 0-.5c-.1-.2-1.3-2.5-1.4-2.8s-.3-.6-.3-.7q-.1-.2-.1-.4c0-.1.2-.7.2-.9 0-.1.1 0 .2.1 0 .1 1.2 1.2 1.4 1.4.1.2 0 .2-.1.2h-.6s.8 1.3 1 1.8c.5 1.1.2 2 .1 2.3-.4.7-1 1.4-1.7 2-.2.6-.4 3.2 2 3.3.4 0 1.7.1 4.1-1.9.6-.5 1.2-1 1.8-1.8.2-.3.4-.8 0-.8-.4.1-3 1-3.4-.5 0-.4.2-4.1 2.7-2.3.2.2.7.6 1.1 1.3.4-.2 1.2-.6 2.1-1.4.3-.2.6-.4.6 0 0 .3-.2 2.4 2.1 1.8.2-.1 1.2-.3 1.9-2.1.2-.4.5-.3.3 0-.2.5-.4.9-.2 1.1s.9.7 1.7.6c.3-.1.5-.2.4-.4-.1-.3-.4-.7-.4-.7 0-.3.1-.8.2-.9 0-.1.1-.2.2-.1s.8 1 .4 2.4zm-10.4.1c-.8-1.1-1.8-.5-1.9-.4s-.2.4.6.5c.9.1 1.3-.1 1.3-.1z" fill-rule="evenodd"/><path d="m12.1 16.4 1 .7q.1 0 0 .1l-.6.8q0 .1 0 0l-1-.7-.6.7q0 .1 0 0l-1.1-.7q0 0 0-.1l.6-.8q.1-.1.1 0l1 .7.5-.7q.1-.1.1 0z"/><path d="m16.8 12.8s0 .3-.1.5c-.4 1.2-.1 1.7 0 1.8.3.5.7.2.9-.2 0-.2.1-.1.1 0q0 .1-.1.3c-.1.7-.4.9-.6.9-.5 0-.7-.5-.7-.8-.2-1.2.3-2.3.4-2.6s.2-.2.1.1z"/><path d="m12.2 11.7c.7.1.5.4.4.6-.5.8-1.2 1.1-1.7 1.3s-.2-.2.1-.4c0 0 .2-.2.7-.5.4-.3-.7-.3-1.2-.3s-.6.2-.8.4c-.1.2-.3.1-.2-.2.1-.1.2-.4.6-.8.3-.4 1.4-.2 2.1-.1z"/><path d="m43.7 10.9 1.1.8q0 0 0 .1l-.6.8q-.1 0-.1 0l-1-.7-.5.7q-.1 0-.1 0l-1-.7q-.1-.1 0-.1l.6-.8q0-.1 0-.1l1 .8.6-.7q0-.1 0-.1z"/><path d="m63 11s-.1.3-.2.4c-.3.9-.1 1.3-.1 1.4.3.5.6.3.7-.1.1-.2.2-.1.1 0q0 .1 0 .3c-.2.5-.4.7-.6.7-.3 0-.5-.5-.5-.7-.1-1 .4-1.8.5-2.1.1-.2.1-.1.1.1z"/><path d="m52.7 10.5s0 .2-.1.4c-.3 1-.2 1.5-.1 1.6.3.4.6.2.8-.2 0-.2.1-.1.1 0q-.1.1-.1.3c-.2.6-.4.7-.6.7-.4 0-.5-.4-.6-.7 0-1 .4-1.9.5-2.2s.2-.2.1.1z"/><path d="m39.5 19.9c-1.1 1-3.8 1.7-4.5 1.9-3.6.9-6.5.7-6.8.6q-.5-.1-.9-.2c-.1.2-.4.6-.5.7-.2.2-.3 0-.2-.1 0-.2.2-.5.3-.8-1-.5-1.3-1.4-1.3-1.4-1 1.8-2.2 1.7-2.5 1.7-2.1 0-2.4-2-2.5-2.2 0 0-.2 1.9-2.6 1.9-1.5.1-1.6-1.8-1.6-1.8-.2.1-2.4 1.2-3 1.5-4.1 1.9-6.8.8-7.4.2-2-1.8-.4-4.5-.2-4.9q0-.1.1-.1c-.3-.3-.5-.8-.5-1.1-.2-1.9.4-3.5.5-4 .2-.5.3-.3.2.1 0 0-.1.5-.2.9-.4 1.8-.1 2.6 0 2.7.5.9 1 .4 1.2-.3.1-.3.2-.2.2 0q0 .2-.1.5c-.2 1.1-.6 1.4-.9 1.4q-.1 0-.2 0c-.5.8-.6 1.7-.5 2.1.5 2.8 4.2 2.3 4.7 2.2 3.3-.6 6.2-2.4 6.5-2.5s.3 0 .2.2v.8c.1.9 1.1.9 1.3.9 1.6 0 1.9-.9 2-1.3.1-1-.4-4.8-.4-5.2-.1-.4-.6-4.8-.7-5.5 0-.6.2-.9.3-1.1s.2-.2.2.1c.4 1.3 1 7.3 1 7.3s.3 3.4.5 4.2c.4 1.6 1.5 1.9 1.7 1.9 1.8.2 2.8-1.8 3-2.1.2-.2.4 0 .2.3.2 1.3 1.4 1.6 1.4 1.6 1.8-3.4 3.7-4.1 4.1-4.2s2.7-.6 3.7 1.5c.4 1.1-.7 2.4-.9 2.6 1.3-.1 4.7-1.6 4.9-1.7s0-.2-.1-.4c-.2-.2-.6-.2-.8-.2-.3 0-1.7 0-2.3-.4-.9-.8.3-2.3.6-2.7.5-.4 2.3-.9 3.1 2 .4 1.5-.1 2.2-.3 2.4zm-.9-2.6c-.5-.9-1.3-.9-1.6-.8s-.7.4-.2.6c1.1.3 1.8.2 1.8.2zm-3.9 2.3c.1-.2-.4-1.6-2.5-1.8s-4.2 3.3-4.2 3.3c.1.1 4.3.6 6.7-1.5z" fill-rule="evenodd"/><path d="m31.7 7.1s-.1.3-.1.5c-.4 1-.2 1.4-.1 1.5.2.5.6.2.7-.1.1-.2.2-.1.1 0q0 0 0 .3c-.2.5-.4.7-.6.7-.4 0-.6-.5-.6-.7 0-1.1.4-2 .5-2.2.1-.3.2-.2.1 0z"/><path d="m28.3 7.5c.1.2.1.6-.1.8 0 .2-.2 0-.3-.1 0 0-.1-.2-.2-.3-.5-.4-.7.4-.8.8-.1.3-.1 1.3-.2 1.8-.1.2-.2.2-.3 0-.3-1.2-.9-1.7-1-1.9q-.1 0-.1 0 .1.1 0 .4c-.3 1.5-1.8 2.1-2.1 2.2-.2.1-.2.1.1-.2.2-.3 1.4-1.4 1.6-1.6.5-.6-.4-.9-.5-1-.1-.2-.1-.6 0-.8 0-.3.2-.4.3-.4 1.3.9 1.7 2.2 1.8 2.4.1-1 .2-1.9.7-2.5s1.1.3 1.1.4z"/><path d="m37.7 9.4c-.1.1-.1 0-.2-.1s-.4-.4-.4-.4-1.1 1.6-2.3 2.3c-1.3.8-2.4 1.1-2.4 1.1-.2 0-.2-.1 0-.2.9-.4 2.9-1.8 4.4-3.4 0 0-.4-.2-.7-.4s-.1-1 .2-1.3c.6-.8 1-.3 1-.2.4.8.1 1.6.1 1.6.3.2.5.5.3 1zm-.7-2.1c-.1-.1-.3-.1-.6.3-.1.1 0 .2.2.3s.5.3.5.3c.1-.1.1-.6-.1-.9z" fill-rule="evenodd"/><path d="m12 6.8c.1.2.1.6 0 .8s-.2 0-.4-.1c0 0-.1-.1-.2-.2-.5-.5-.7.4-.8.8 0 .3 0 1.2-.1 1.8-.1.2-.2.2-.3 0-.3-1.2-1-1.7-1.1-1.8-.1-.2-.2 0-.2.1-.1.1-.1.1-.2 0-.1 0-.4-.3-.6-.4-.1-.1 0-.6 0-.8 0-.3.2-.4.3-.3 1.4.8 1.8 2.1 1.9 2.3 0-1 .1-1.9.6-2.6.4-.5 1.1.3 1.1.4z"/><path d="m51.8 6.3c0 .1 0 .1-.1.3s-.2.2-.3.3c-.2.1-5.6 3.2-5.7 3.3-.3.2-.3.1-.2 0q0-.1 0-.3c.1-.2.1-.2.4-.4.2-.1 5.5-3.2 5.7-3.3.3-.2.3-.1.2.1z"/><path d="m58.3 6.6c.2.2.1.6 0 .9-.1.2-.2 0-.4-.1 0 0-.1-.2-.2-.3-.6-.4-.8.4-.8.9-.1.3-.1 1.3-.2 1.9 0 .2-.2.2-.2 0-.4-1.2-1.1-1.8-1.2-1.9-.2-.2-.3 0-.3.1s-.1.1-.1 0c-.1 0-.5-.3-.7-.4-.1-.1 0-.6 0-.8 0-.3.2-.4.3-.4 1.5.8 1.9 2.2 2 2.5.1-1.1.1-2 .7-2.8.4-.5 1.1.3 1.1.4z"/><path d="m63.6 8.9c0 .1-.1 0-.2-.1s-.2-.3-.4-.4c-.2.5-.2.5-1.1 1.3-2 1.7-4.1 2.3-4.2 2.3-.2.1-.2 0 0-.2.7-.5 3.5-1.8 4.9-3.5 0 0-.4-.2-.7-.4-.3-.3-.2-1 0-1.4.6-.8 1.1-.4 1.2-.3.5.8.2 1.7.2 1.7.2.1.5.4.3 1zm-.9-2.2c-.1 0-.2 0-.5.4-.1.1 0 .2.2.3s.6.3.6.3c0-.2 0-.7-.3-1z" fill-rule="evenodd"/><path d="m43.5 8.6c-.1.1-.2 0-.3-.1 0-.1-.4-.4-.4-.4s-.4.9-1.1 1.5c-1.3 1-2.5 1.2-2.5 1.2-.2 0-.2-.1 0-.2.8-.5 1.8-.9 3.3-2.6 0 0-.5-.2-.8-.4-.3-.3-.1-1 .1-1.4.5-.8 1-.4 1.1-.3.5.9.2 1.7.2 1.7.3.1.5.4.4 1zm-1-2.1c-.1-.1-.2-.1-.5.3-.1.1 0 .2.2.3s.6.3.6.3c0-.2.1-.6-.3-.9z" fill-rule="evenodd"/><path d="m22.9 5.2c-.1.1-.1.1-.2.3s-.2.3-.4.4-6.8 2.6-7.4 3c-.8.3-.7.6-.5.7.4.2.6.5.3 1.1 0 0 0 0-.1 0 0-.1-.1-.3-.4-.3-.3-.1-.4-.7-.3-1.2.2-.4.4-.7.7-.9.6-.3 7.8-3.1 8-3.2.4-.2.3-.1.3.1z"/></g></svg>