<svg height="30" viewBox="0 0 70 30" width="70" xmlns="http://www.w3.org/2000/svg"><g fill="#191c4f"><path d="m13.3 21.4c0 .1-.1.1-.1.3-.1.2-.2.2-.4.3s-4.8 1.9-4.9 2c-.3.2-.3 0-.2-.1q0 0 0-.2c.1-.2.2-.2.4-.4.2-.1 4.8-1.9 5-2 .3-.1.3 0 .2.1z"/><path d="m25.1 20.7 1 .7q.1 0 .1.1l-.6.8q-.1 0-.1 0l-1-.7q0-.1 0-.1l.6-.8q0 0 0 0z"/><path d="m22.5 20.6s-.1.3-.1.4c-.3.9-.2 1.3-.1 1.3.2.5.5.2.6-.1.1-.1.1-.1.1 0q0 .1 0 .3c-.2.5-.4.6-.6.6-.3 0-.4-.4-.4-.6-.1-.9.3-1.7.4-1.9s.2-.1.1 0z"/><path d="m35.9 20.1c.2 0 .2.1.1.2 0 0-.1.3-.2.4-.1.2-.7.8-.9 1.1-.1.2-.1.8.6.8.8 0 1.6-.7 1.7-.9.2-.2.2 0 .1.1-.6.9-1.3 1.2-1.5 1.3s-1.4.3-1.1-.9c.1-.8.9-1.5.9-1.5q.1-.1-.1-.1c-.8 0-.8.2-.8.3-.1 0-.1 0-.1-.1s.2-.4.3-.5c.2-.4.8-.3 1-.2z"/><path d="m64.1 18.9s.1.3.1.5c0 .3-.2.6-.3.9s-.7.4-1.1.1c-.8 1.1-1.4.6-1.8.4-.6-.2-.8.2-1 .4-.8.9-2.3.9-2.7.9-.3.1 0-.2.1-.2 1.2-.5 1.9-.5 3-1.5.5-.5.7-.3.9-.2 1 .4 1.1 0 1.3-.1.1-.1.3-.6.3-.8.1-.2.2 0 .2.1s-.1.3-.1.4c.4.3.8 0 .9-.1 0 0 0-.3-.1-.4q0-.1.2-.5c.1-.3.1 0 .1.1z"/><path d="m45.9 17.6c-.3.9-1.7 1.5-2 1.6-1.3.4-1.4-.9-1.3-1.8s.8-2 .8-2c-.1 0-1.4-1.1-1.5-1.2s-.2-.2-.4-.3c-.1-.1-.1-.1-.1-.1s.1-.9.1-1.1c0-.1 0 0 .1 0 .1.1 1.5.6 1.7.7.1.1.1.2 0 .2s-.6.2-.6.2l1.2.8s1.6-2.1 1.8-2.3c.1-.2.1-.1.1.1-.1.2-.4 1.1-.4 1.2-.1.2-.9 1.3-.9 1.3s1 .7 1.3 1c.5.7.2 1.3.1 1.7zm-2.1-1.9s-.7 1.2-.8 1.5c-.3.7.4.8.7.8s1.2-.5 1.7-.9c.4-.4-1.3-1.2-1.6-1.4z" fill-rule="evenodd"/><path d="m65.6 16.4c-.1.2-.3 1.2-1.6.9-.4-.1-1-.2-1.3-.9-.3.4-1.1 1.6-2.6 1.4-.3 0-1.3-.4-1.4-1.7 0 0-1.2.9-1.8 1.2.1.5.1 1.1-.2 1.6-.2.6-2.8 3.6-5 4.1-.7.2-3.4.7-3.6-2.4q0-1 .1-1.5c-1.7 1.3-3.7 2.4-4.3 2.6-.9.5-4.1 1-4.6 1.1-.4.1-.5 0-.2-.2.2-.1 7.2-2.4 10.8-6.3q.1-.1 0-.4c-.1-.2-1.3-2.4-1.4-2.7s-.2-.6-.3-.7q-.1-.2 0-.4c0-.1.1-.7.1-.8.1-.1.1-.1.2 0s1.2 1.3 1.3 1.4c.2.2.1.2 0 .2h-.6s.8 1.3 1 1.8c.4 1 .2 1.8.1 2.2-.4.7-1 1.3-1.7 1.9-.1.5-.3 3.1 2 3.1.4.1 1.6.2 3.9-1.7.6-.5 1.2-1 1.8-1.8.2-.3.3-.8-.1-.7-.4 0-2.8.9-3.2-.6-.1-.4.1-3.9 2.5-2.2.2.2.8.6 1.1 1.3.4-.2 1.2-.6 2.1-1.4.3-.2.5-.3.5 0 0 .4-.2 2.4 2 1.8.3-.1 1.2-.3 1.9-2 .2-.4.4-.4.3 0-.2.4-.4.8-.2 1s.9.6 1.6.6c.3-.1.5-.2.4-.4-.1-.3-.4-.7-.4-.7.1-.3.2-.7.2-.9 0-.1.1-.2.2-.1s.8 1.1.4 2.3zm-10 .1c-.8-1-1.8-.4-1.9-.3s-.2.4.6.5c.9 0 1.3-.2 1.3-.2z" fill-rule="evenodd"/><path d="m11.6 15.1 1 .7q0 0 0 .1l-.6.8q0 0 0 0l-1-.7-.5.7q0 0-.1 0l-1-.7q0-.1 0-.1l.6-.8q0-.1.1 0l.9.7.5-.7q.1-.1.1 0z"/><path d="m10.1 11.2s-.1.3-.1.5c-.3.9-.1 1.3 0 1.4.3.4.6.2.7-.2.1-.2.2-.1.2 0q-.1.1-.1.3c-.1.6-.4.7-.6.7-.4 0-.6-.4-.6-.6-.1-1 .3-1.9.4-2.2.1-.2.2-.1.1.1z"/><path d="m44.5 10 1 .8q0 0 0 0l-.6.8q0 .1 0 .1l-1-.7-.5.6q0 .1-.1.1l-1-.8q0 0 0 0l.6-.8q0-.1.1-.1l.9.8.5-.7q.1-.1.1-.1z"/><path d="m63.1 10.1s-.1.3-.2.4c-.3.9-.1 1.3-.1 1.4.3.4.6.2.7-.1.1-.2.1-.1.1-.1q0 .1 0 .3c-.2.5-.4.7-.6.7-.3 0-.5-.5-.5-.7 0-.9.4-1.7.5-2 .1-.2.1-.1.1.1z"/><path d="m53.2 9.6s-.1.3-.1.4c-.4 1-.2 1.4-.1 1.5.2.5.6.2.7-.1.1-.2.1-.1.1 0q0 .1-.1.3c-.1.5-.4.7-.6.7-.3 0-.5-.5-.5-.7 0-1.1.4-1.9.5-2.2.1-.2.2-.1.1.1z"/><path d="m14 9.6s0 .4-.1.6c-.3 1.3-.1 1.9 0 2.1.3.6.7.2.9-.3 0-.2.1-.1.1 0q0 .1 0 .4c-.2.8-.5 1-.7 1.1-.4 0-.7-.7-.7-1-.2-1.4.3-2.7.4-3 .1-.4.2-.2.1.1z"/><path d="m31.5 8.4c.3.3.2.8.2.9 0 0-.4-.2-.5-.3-.2-.1-.3-.2-.2-.3.3-.3.4-.3.5-.3z"/><path d="m31.8 8c.4.7.1 1.4.1 1.4.3.2.5.5.3.9-.1.2-.1.1-.2 0 0-.1-.3-.4-.3-.4s-.6.9-1.5 1.7c-.3.3-1.1.7-1.5.9-.6.2-.3 0-.1-.2.8-.5 1.7-1.4 2.8-2.5 0 0-.4-.2-.7-.4s-.1-.9.1-1.2c.6-.7 1-.3 1-.2z"/><path d="m25.2 7.5c0 .1-.1.1-.1.3-.1.2-.2.2-.4.3-.1.2-6.1 3.3-6.1 3.3-.3.3-.3.1-.3 0q0 0 .1-.3c0-.1.1-.2.3-.3s6.1-3.3 6.3-3.4c.3-.2.2 0 .2.1z"/><path d="m11.4 6.7c.1.2.1.6 0 .8s-.2 0-.3-.1c0 0-.2-.1-.3-.2-.5-.4-.7.4-.7.8-.1.2-.1 1.2-.2 1.7 0 .2-.2.2-.2 0-.4-1.1-1-1.7-1.1-1.8q0 0-.1 0 .1.1.1.4c-.2 1.5-1.7 2-2 2.2-.2.1-.2.1.1-.2.2-.3 1.3-1.4 1.5-1.7.5-.5-.4-.8-.5-.9-.2-.1-.1-.6-.1-.7 0-.3.2-.4.3-.4 1.3.8 1.8 2.1 1.8 2.3.1-1 .1-1.9.6-2.5s1.1.2 1.1.3z"/><path d="m16.2 5.9c0 .1 1.3 3 1.4 3.1 0 .2-.1.3-.2.2s-.7-.7-.7-.7 1 5.5 1.1 5.9c.8 4.2.2 5.3.2 5.5-.1.2-.2.1-.2-.1-.1-1.7-1.1-6.3-1.1-6.7-.1-.4-.9-5.8-1-6.3 0 0 .3-.8.3-1 .1-.1.1 0 .2.1z"/><path d="m20 5.9s0 .2-.1.4c-.3.8-.1 1.2-.1 1.3.3.4.6.2.7-.1 0-.2.1-.1.1 0q0 0-.1.2c-.1.5-.3.7-.5.7-.3-.1-.5-.5-.5-.7 0-.9.3-1.6.4-1.9.1-.2.2-.1.1.1z"/><path d="m28.3 8.8c0 .2-.1 0-.2-.1 0-.1-.4-.5-.4-.5s-1.3 1.9-2.6 2.8c-1.6 1-2.2 1.1-2.3 1.1s-.1-.1.1-.2c1-.5 2.6-1.9 4.4-3.8 0 0-.5-.3-.8-.5-.4-.3-.1-1.2.1-1.5.7-1 1.2-.4 1.3-.3.5 1 .1 1.9.1 1.9.3.2.6.5.3 1.1zm-.8-2.4c-.2-.1-.3-.1-.7.3-.1.1 0 .3.2.4s.7.3.7.3c0-.1.1-.7-.2-1z" fill-rule="evenodd"/><path d="m52.3 5.6c0 .1 0 .1-.1.3-.1.1-.2.2-.3.3-.2.1-5.4 3.1-5.5 3.1-.3.2-.2.1-.2 0q0 0 0-.3c.1-.1.2-.2.4-.3s5.3-3.1 5.5-3.2c.3-.2.3-.1.2.1z"/><path d="m58.6 5.9c.1.2 0 .6-.1.8 0 .2-.2 0-.3-.1 0 0-.1-.1-.2-.2-.5-.5-.7.4-.8.8 0 .3-.1 1.2-.2 1.8 0 .2-.2.2-.2.1-.4-1.3-1.1-1.8-1.2-1.9-.1-.2-.2 0-.2.1s-.1.1-.2 0c0 0-.4-.3-.5-.4-.2-.1-.1-.6-.1-.8 0-.3.2-.4.3-.3 1.4.8 1.8 2.1 1.9 2.3.1-1 .1-1.9.7-2.6.4-.5 1.1.3 1.1.4z"/><g fill-rule="evenodd"><path d="m63.7 8c0 .2-.1.1-.2 0s-.2-.3-.4-.4c-.2.5-.2.5-1.1 1.3-1.9 1.6-4 2.2-4.1 2.2s-.1 0 .1-.2c.6-.5 3.4-1.7 4.8-3.4 0 0-.5-.2-.8-.4s-.1-1 .1-1.3c.5-.8 1-.4 1.1-.3.4.8.2 1.6.2 1.6.2.1.5.4.3.9zm-.9-2c-.1-.1-.2-.1-.5.3-.1.1 0 .2.2.3s.6.3.6.3c0-.1 0-.6-.3-.9z"/><path d="m41.5 16.9s-.4.9-.6 1.1c-.3-.1-.7-.1-1.1 0 .1 2.1-.2 2.7-.2 2.9-.1.1-.2.1-.2-.1 0-.6-.2-1.6-.3-2.8-.7.1-1.3.2-1.7.3-.8.2-3 1.3-3.5 1.5-2.4 1-3.7 1.1-4.5 1.1-.5-.1-1.7-.2-2.1-1.4-.3-.9-.2-2 0-2.5q0-.1 0-.2c-1 .5-2.2 1.1-3 1.5q0 0 0 0c.1.5-.1.9-.2.7q-.1-.1-.4-.4-.3.1-.4.2c-.7.3-2.3 1-3.3 2.1s-2.2 3.4-3.9 3.2c-.5 0-1.7-.6-1.6-2.6 0-.5.1-1.3.3-1.9q0-.2.1-.2c-.9.5-2 .9-2.9 1.1-5 1.2-6.3-.2-6.4-.3-1.2-1.5-.3-3.3.2-4.1-.4-.2-.6-.8-.6-1.1-.2-1.7.3-3.2.5-3.6.1-.4.2-.2.1.1 0 0 0 .5-.1.8-.4 1.6-.1 2.3 0 2.4.4.8.9.4 1-.2.1-.3.2-.2.2-.1q-.1.2-.1.5c-.2 1-.5 1.2-.8 1.3-.2.5-.4 1.2-.4 1.4-.2 2 2.2 2.2 2.8 2.1 4.7 0 6.8-1.6 7.1-1.8.2-.3-.6-1.4-.8-1.7 0 0 .3-.9.3-1.1.1-.2.2-.1.3.1.1.1.6 1.1.8 1.4.2.9-.3 1.9-.4 2q-.2.2-.4.4 0 .1 0 .2c-.3.8-.7 2.7-.3 3.4.6.8 1.9.6 2.8-.5.4-.4 2.6-3.3 4.7-4.2q0 0 .4-.2c-.2-.2-1.3-1.1-1.6-1.4-.2-.3-.3-.7-.3-1.1.1-.4.6-1.4 1.7-1.5 1.2-.1 3.7-.4 7.6.7.2.1-.4 1.1-.4 1.1-.1.1-1.1.5-2.2 1.1q0 0 0 0c-.5 1.2 0 2 .2 2.2.8 1 2.4 1 3.2.8 1.9-.4 4.3-1.6 4.7-1.8-3.3-.8-4.5-.6-4.7-.5-.3 0-.5 0-.5-.1.1-.2.2-.6.3-.8.5-.5 2.7-.6 3.2-.7.1 0 .3 0 .3-.1 0-1-1.4-8.1-1.5-8.6 0-.4-.1-.6-.1-.7 0 0 .3-.8.4-.9 0-.2 0-.1.1 0 0 .1 1.3 3 1.4 3.2 0 .1-.1.2-.2.1s-.7-.7-.7-.7 1 4.7 1.1 5.9c.2 1.4-.2 2.4-.2 2.4 1.2.3 2.8.5 4.2.5-.4-2-.7-4.1-.7-4.3-.1-.4-.9-5.8-1-6.3 0 0 .3-.8.3-1 0-.1.1 0 .1.1.1.1 1.3 3 1.4 3.1.1.2 0 .3-.1.2s-.7-.7-.7-.7 1.1 7.1 1.2 7.5q.1.8.2 1.5zm-13.1-1.7c-.4-.2-3.7-.8-6.2-.3-.3.1-.7.2-.5.5.1.2.6.6 1.2 1.2.3.2.6.5.9.8 1.7-.9 4.6-2.2 4.6-2.2z"/><path d="m44.2 7.8c0 .1-.1 0-.2-.1 0-.1-.4-.4-.4-.4s-.4.9-1.1 1.4c-1.2 1-2.3 1.2-2.4 1.2s-.2-.1 0-.2c.9-.5 1.8-.8 3.2-2.5 0 0-.4-.2-.7-.4s-.2-1 0-1.3c.6-.8 1-.4 1.1-.3.5.8.2 1.6.2 1.6.3.2.5.5.3 1zm-.8-2.1c-.1 0-.3-.1-.6.3 0 .1.1.3.2.3.2.1.6.3.6.3 0-.1.1-.6-.2-.9z"/></g></g></svg>