<svg height="30" viewBox="0 0 70 30" width="70" xmlns="http://www.w3.org/2000/svg"><g fill="#191c4f"><path d="m20.7 25.4c0 .2-.1.2-.2.4s-.2.3-.4.4c-.3.1-5.1 1.9-5.2 2-.4.2-.4 0-.3-.1q0 0 .1-.3c0-.2.1-.3.4-.4.3-.2 5.1-2 5.3-2.1.4-.2.4 0 .3.1z"/><path d="m29.6 24.7c-.1.2-.1.2-.2.4s-.3.3-.5.4-4.5 1.7-4.6 1.8c-.5.2-.4.1-.4-.1q.1 0 .1-.3c.1-.2.2-.2.5-.4.2-.2 4.5-1.7 4.8-1.9.4-.2.3 0 .3.1z"/><path d="m26.2 22.2 1.3 1q0 0 0 .1l-.8 1q0 0-.1 0l-1.3-.9q0-.1 0-.1l.8-1q0-.1.1-.1z"/><path d="m63.7 20.9v.6c0 .3-.2.7-.3 1.1s-1 .5-1.5.1c-.9 1.5-1.8.8-2.2.6-.9-.3-1.1.2-1.3.4-1.1 1.2-3 1.2-3.4 1.2-.5.1-.1-.2.1-.3 1.5-.5 2.4-.6 3.8-1.9.6-.6.9-.3 1.2-.2 1.2.5 1.4 0 1.6-.2.1-.1.3-.8.4-1s.3 0 .2.1c0 .2-.1.4-.1.5.5.4 1 .1 1.1 0 0 0 0-.4 0-.6q0-.1.1-.6c.2-.4.2-.1.3.2z"/><path d="m40.3 19.1c-.4 1.2-2.2 1.9-2.6 2.1-1.6.5-1.7-1.1-1.6-2.3.1-1.1.9-2.6.9-2.6s-1.7-1.4-1.8-1.5c-.2-.1-.3-.3-.5-.4-.1-.1-.1-.2-.1-.2s0-1.1 0-1.3c0-.1.1-.1.2 0 .2 0 2 .8 2.2.9.1.1.1.2 0 .2s-.7.2-.7.2l1.5 1.1s2-2.7 2.2-3c.2-.2.2-.1.1.2 0 .3-.4 1.4-.5 1.6-.1.1-1.1 1.6-1.1 1.6s1.3.8 1.7 1.3c.6.8.2 1.7.1 2.1zm-2.6-2.4s-.9 1.6-1.1 1.9c-.4.9.5 1.1.9 1.1.3-.1 1.6-.7 2.1-1.2.6-.5-1.6-1.6-1.9-1.8z" fill-rule="evenodd"/><path d="m12.5 19.7s-.1.3-.2.5c-.4 1.1-.2 1.5-.1 1.7.3.5.7.2.8-.2.1-.2.2-.1.1 0q0 .1 0 .3c-.2.7-.5.8-.7.8-.4 0-.6-.5-.6-.8-.1-1.1.4-2.1.5-2.4s.2-.2.2.1z"/><path d="m11.7 15.6 1.3.9q.1 0 0 .1l-.7 1q-.1.1-.1 0l-1.3-.9q0 0 0-.1l.8-1q0-.1 0 0z"/><path d="m65.5 17.6c0 .3-.4 1.5-2 1.1-.5 0-1.3-.2-1.7-1.1-.4.5-1.3 2.1-3.3 1.8-.4-.1-1.7-.6-1.8-2.2 0 0-1.5 1.2-2.3 1.6.1.6.1 1.3-.2 2.1-.3.7-3.7 4.5-6.4 5.2-1 .2-4.5.8-4.6-3.1-.1-.8 0-1.5.1-1.9-2.2 1.7-4.8 3-5.6 3.3-1.1.6-5.1 1.3-5.9 1.4-.4.1-.5-.1-.2-.2.2-.2 9.2-3.2 13.8-8.1.2-.1.1-.3 0-.6-.1-.2-1.6-3-1.7-3.4-.2-.3-.4-.8-.4-.9q-.1-.2-.1-.5c0-.1.2-.9.2-1 .1-.2.2-.1.2 0 .1.1 1.6 1.6 1.8 1.8.1.2 0 .2-.1.2h-.7s.9 1.7 1.2 2.3c.6 1.3.3 2.4.1 2.8-.5.9-1.2 1.7-2.1 2.5-.2.7-.5 3.9 2.5 4 .5 0 2 .2 5.1-2.3.7-.6 1.5-1.3 2.2-2.2.2-.4.4-1.1-.1-1s-3.6 1.2-4.1-.7c-.1-.5.2-5 3.2-2.8.3.2 1 .8 1.4 1.6.5-.2 1.5-.8 2.7-1.7.3-.3.7-.5.6 0 0 .4-.2 3 2.6 2.2.4-.1 1.6-.3 2.4-2.6.3-.5.6-.4.4.1s-.5 1-.2 1.3c.3.2 1.1.8 2.1.7.3-.1.5-.2.4-.5s-.5-.9-.5-.9c.1-.3.2-.9.3-1.1 0-.1.1-.3.2-.1.1.1 1.1 1.3.5 2.9zm-12.8.2c-1-1.4-2.2-.6-2.4-.5-.1.2-.2.6.8.6 1.2.1 1.6-.1 1.6-.1z" fill-rule="evenodd"/><path d="m16.7 10.6s-.1.4-.2.7c-.4 1.4-.1 2 0 2.1.4.7.9.3 1-.2.1-.3.2-.2.2 0q0 .1-.1.4c-.2.9-.5 1.1-.8 1.1-.5 0-.8-.7-.8-1-.2-1.5.4-2.8.5-3.2s.3-.2.2.1z"/><path d="m36.6 9.5 1.2.9.6-.9q.1-.1.1 0l1.3.9q.1 0 0 .1l-.7 1q-.1.1-.1 0l-1.2-.9-.7.9q0 .1-.1 0l-1.3-.9q0 0 0-.1l.8-1q0-.1.1 0z"/><path d="m62.3 9.5s-.1.4-.2.6c-.4 1.1-.2 1.6-.1 1.7.3.6.7.3.9-.1 0-.3.1-.1.1-.1q0 .1-.1.4c-.2.7-.5.8-.7.8-.4 0-.6-.5-.6-.8-.1-1.2.4-2.2.6-2.5.1-.3.2-.2.1 0z"/><path d="m12.5 9.3s.1.6.3 1c.2.3.3.7.3 1.2-.1.5-.4.9-.7 1s-.8.1-1.2-.4c-.5.9-1.1 1.1-1.5.8-.4-.2-.5-.9-.4-1.1 0-.2-.1-.9-.1-1.1s.1-.3.2-.5.2-.1.2.1c0 .3-.2 1.2 0 1.6.5.6 1.3.1 1.4-.2.2-.3-.2-1.4-.2-1.5q-.1 0 0-.1c0-.1 0-.4.1-.6q.1-.2.2.1c.1.1.1.4.3 1.4.1.9 1 .7 1.2.6.2 0 .2-.2.1-.3 0-.1-.4-.9-.5-1.2-.1-.4-.1-.6 0-.9s.2-.1.3.1z"/><path d="m49.7 8.9s-.1.3-.2.6c-.4 1.2-.2 1.7-.2 1.8.4.6.8.3 1-.1.1-.3.2-.1.1 0q0 .1 0 .3c-.3.8-.6.9-.8.9-.5 0-.7-.6-.7-.9-.1-1.3.5-2.4.6-2.7.2-.3.3-.2.2.1z"/><path d="m20.1 4.3s-.1.6-.2.9c-.6 1.9-.3 2.7-.2 2.9.4.9.9.5 1.2-.2.1-.4.2-.2.1-.1q0 .2-.1.6c-.3 1.1-.6 1.4-.9 1.4-.6 0-.9-.9-.9-1.4-.1-2 .6-3.7.8-4.2s.3-.3.2.1z"/><path d="m15.9 3.8s-.1.3-.2.5c-.4 1-.2 1.5-.1 1.6.3.6.7.3.8-.1.1-.2.2-.1.2 0q-.1.1-.1.3c-.2.7-.5.8-.7.8-.4 0-.6-.5-.6-.8-.1-1.1.4-2.1.6-2.4.1-.3.2-.2.1.1z"/><path d="m48.6 3.7c-.1.2-.1.2-.2.4s-.2.3-.4.4c-.3.2-6.9 4-7 4.1-.4.2-.4 0-.3-.1q0 0 .1-.3c0-.3.1-.3.4-.5.2-.1 6.8-3.9 7.1-4.1.4-.2.3-.1.3.1z"/><path d="m56.6 4.1c.1.3 0 .8-.1 1.1-.1.2-.3 0-.4-.2 0 0-.2-.1-.3-.3-.7-.5-.9.6-1 1.1-.1.4-.1 1.6-.2 2.3-.1.3-.3.3-.4.1-.4-1.6-1.3-2.3-1.4-2.4-.2-.2-.3 0-.3.1-.1.1-.1.1-.2.1s-.6-.4-.8-.5c-.1-.2-.1-.8-.1-1 .1-.4.3-.6.5-.5 1.7 1 2.3 2.7 2.4 3 .1-1.3.1-2.5.8-3.3.6-.8 1.4.3 1.5.4z"/><path d="m12.3 4.1c.1.2 0 .7-.1 1-.1.2-.3 0-.4-.2 0 0-.2-.1-.3-.2-.7-.6-.9.5-1 1 0 .3-.1 1.5-.2 2.2 0 .2-.2.2-.3 0-.4-1.4-1.2-2.1-1.4-2.3q0 0-.1 0c.1.1.1.3.1.5-.3 1.9-2.1 2.6-2.5 2.8-.3.2-.3.1 0-.3.3-.3 1.7-1.8 2-2 .6-.7-.5-1.1-.7-1.3-.1-.1-.1-.7 0-.9 0-.4.2-.5.3-.5 1.7 1 2.3 2.7 2.4 2.9.1-1.2.1-2.3.8-3.2.5-.7 1.3.3 1.4.5z"/><path d="m63.1 6.9c-.1.2-.1.1-.3-.1-.1-.1-.2-.3-.5-.5-.3.6-.2.7-1.3 1.7-2.5 2-5.1 2.8-5.3 2.8-.1.1-.2-.1.1-.2.8-.7 4.3-2.2 6.1-4.4 0 0-.6-.2-1-.5-.3-.3-.1-1.3.1-1.7.7-1.1 1.3-.5 1.4-.3.6 1 .3 2 .3 2 .3.2.6.6.4 1.2zm-1.1-2.6c-.2-.1-.3-.1-.7.4-.1.1 0 .3.2.4.3.1.8.3.8.3 0-.1.1-.7-.3-1.1z" fill-rule="evenodd"/><path d="m38.2 6.5c-.1.2-.1.1-.3-.1 0-.1-.5-.4-.5-.4s-.5 1.1-1.4 1.8c-1.6 1.2-3 1.5-3.1 1.5-.2 0-.2-.1 0-.3 1.1-.6 2.3-1 4.1-3.2 0 0-.6-.2-1-.5-.3-.3-.1-1.2.1-1.7.7-1 1.3-.5 1.4-.3.6 1 .3 2 .3 2 .3.2.6.6.4 1.2zm-1.1-2.6c-.2-.1-.4-.1-.7.4-.1.2 0 .3.2.4.3.1.8.3.8.3 0-.1.1-.7-.3-1.1z" fill-rule="evenodd"/><path d="m23.9 2.2c0 .1 1.4 3.4 1.5 3.6 0 .2-.1.3-.3.2-.1-.1-.8-.9-.8-.9s1.2 8.1 1.3 9.1-.6 1.8-.6 1.8c2 .6 4.2.9 6 1.1-.5-3.9-1.5-11.5-1.7-13 0-.1-.1-.6-.1-.7 0 0 .4-1.1.5-1.3.1-.1.1 0 .2.1 0 .1 1.5 3.9 1.6 4.1s-.1.2-.2.1-.9-.8-.9-.8 1.3 10.1 1.4 10.4q0 .6.1 1.2c1.5.1 2.5.1 2.7.1 0 0-.3 1.1-.5 1.6 0 0-1-.1-2.1-.2q.1 1 0 1.6c-.1 1.3-.3 1.8-.4 1.9-.1.2-.2.1-.1-.1-.1-.7-.2-2-.3-3.4q-.7 0-1.3.1c-1.7.2-6.2 1.8-7.4 2.2-1.2.3-3 .2-3.5.1-.3 2.6-.8 2.9-1.1 3.2s-2 1.3-2.9 1.7c-5.3 2.4-7.6.7-8.1.5-3.5-2.2-1.2-7-1-7.5q.1-.1.1-.2c-.4-.3-.7-1-.7-1.4-.3-2.4.5-4.4.7-5 .1-.6.3-.4.2.1 0 0-.1.6-.2 1.1-.6 2.2-.2 3.2-.1 3.4.6 1 1.3.4 1.5-.4.1-.4.3-.2.2 0 0 .1 0 .3-.1.6-.2 1.4-.7 1.7-1 1.8q-.1 0-.2 0 0 0 0 .1c-1.1 2.5-.5 4.3-.3 4.6 1.5 2.7 5 2 5.6 1.9 4.4-.8 6.3-2.7 6.5-2.9.3-.3.2-.5.2-.6-.2-1.5-1-3.1-1.3-3.7 0 0 .2-.9.4-1.2.1-.2.2-.2.3 0s.4.9.4 1c.6 1.3 1.6 1.4 1.8 1.4 2.2.5 6.5-1.3 7.1-1.5-1.7-.6-5.4-1.6-6.9-1.2-.1 0-.3 0-.2-.2.1-.1.3-.7.4-.9s.2-.2.3-.3c.8-.3 3.9-.3 4.2-.5 0-.1 0-.5 0-1.1-.1-.6-1.2-7.6-1.2-7.6-.1-.8-.2-1.6-.3-2.1 0-.5-.2-.8-.2-.9 0 0 .5-1.1.6-1.2.1-.2.1-.1.2.1z"/></g></svg>