<svg height="30" viewBox="0 0 70 30" width="70" xmlns="http://www.w3.org/2000/svg"><g fill="#191c4f"><path d="m15 23.4c-.1.1-.1.2-.2.4-.1.1-.2.2-.4.3s-4.3 1.9-4.4 1.9c-.4.2-.3.1-.3 0q0-.1.1-.4c.1-.1.1-.2.4-.3.3-.2 4.3-1.9 4.5-2 .4-.2.3 0 .3.1z"/><path d="m26.8 21.2s-.1.3-.2.5c-.3 1.2-.1 1.7 0 1.8.4.5.8.2.9-.2.1-.2.2-.1.2 0q0 .1-.1.3c-.2.7-.5.9-.7.9-.5 0-.7-.5-.7-.8-.2-1.2.3-2.3.4-2.6s.3-.2.2.1z"/><path d="m63.9 21v.6c0 .2-.2.6-.3.9-.1.4-.9.5-1.4.2-.8 1.3-1.6.7-2 .5-.8-.3-1 .2-1.2.4-.9 1.1-2.7 1.1-3.1 1.1s-.1-.2.1-.3c1.4-.5 2.2-.6 3.5-1.7.5-.6.9-.3 1.1-.2 1.1.5 1.3 0 1.4-.2.2-.1.4-.7.5-.9s.2-.1.1.1c0 .1-.1.3-.1.4.5.4 1 .1 1.1 0 0 0-.1-.4-.1-.5q0-.1.2-.6c.1-.3.1 0 .2.2z"/><path d="m33.1 20.6s-.1.3-.2.5c-.3 1.2-.1 1.7 0 1.8.4.5.8.2 1-.2 0-.3.1-.2.1-.1q0 .1-.1.4c-.2.7-.5.9-.7.9-.5 0-.7-.6-.7-.8-.2-1.2.3-2.3.4-2.6.2-.3.3-.2.2.1z"/><path d="m42.5 19.4c-.4 1.1-2 1.7-2.4 1.8-1.4.5-1.6-.9-1.5-2 .1-1 .9-2.4.9-2.4-.1 0-1.6-1.2-1.7-1.3-.1-.2-.3-.3-.4-.4-.2-.1-.1-.2-.1-.2s0-1.1 0-1.2 0-.1.2 0c.1 0 1.7.7 1.9.8s.1.2 0 .2-.6.2-.6.2l1.4 1s1.8-2.5 2-2.7c.2-.3.2-.1.1.1 0 .3-.4 1.3-.4 1.5-.1.1-1.1 1.5-1.1 1.5s1.3.7 1.6 1.2c.5.7.2 1.5.1 1.9zm-2.4-2.2s-.9 1.4-1 1.7c-.3.9.5 1 .8 1s1.4-.6 2-1.1c.5-.4-1.5-1.4-1.8-1.6z" fill-rule="evenodd"/><path d="m7.4 14.5s-.1.5-.2.9c-.5 2.1-.1 3-.1 3.2.6.9 1.2.4 1.4-.4.1-.4.2-.2.2 0q0 .2-.1.6c-.2 1.2-.6 1.6-1 1.6-.6 0-1-1-1-1.5-.3-2.1.4-4 .6-4.6.1-.5.3-.3.2.2z"/><path d="m65.6 18c-.1.3-.4 1.4-1.9 1-.4 0-1.2-.2-1.5-1-.4.4-1.3 1.9-3 1.6-.4 0-1.6-.5-1.7-2 0 0-1.4 1.1-2.1 1.5.1.6.1 1.2-.2 1.9s-3.4 4.2-5.9 4.7c-.8.2-4.1.8-4.2-2.8 0-.7 0-1.3.1-1.7-2 1.5-4.4 2.7-5.1 3.1-1 .5-4.7 1.1-5.4 1.2-.4.1-.5-.1-.2-.2.2-.2 8.4-2.9 12.7-7.4.1-.1.1-.3-.1-.5-.1-.2-1.4-2.8-1.5-3.1-.2-.4-.3-.8-.4-.9q-.1-.2 0-.4c0-.1.1-.8.1-1 .1-.1.2-.1.2 0 .1.2 1.5 1.5 1.6 1.7.2.1 0 .2 0 .2-.1 0-.7 0-.7 0s.9 1.5 1.1 2c.6 1.3.3 2.2.1 2.7-.4.8-1.1 1.5-2 2.2-.1.6-.4 3.6 2.4 3.7.4 0 1.8.2 4.6-2.1.7-.5 1.4-1.2 2-2 .3-.4.4-1 0-.9-.5 0-3.4 1.1-3.8-.7-.1-.4.2-4.6 3-2.5.2.2.8.7 1.2 1.5.5-.2 1.4-.8 2.5-1.6.3-.3.6-.5.6-.1s-.2 2.8 2.4 2.1c.2-.1 1.3-.3 2.1-2.4.3-.4.6-.4.4 0-.2.6-.5 1-.2 1.2.2.3 1 .8 1.9.7.3 0 .5-.2.4-.4-.1-.3-.5-.8-.5-.8.1-.4.2-.9.3-1 0-.2.1-.3.2-.2s1 1.3.5 2.7zm-11.8.1c-.9-1.2-2-.5-2.2-.3-.1.1-.2.4.7.5 1.1.1 1.5-.2 1.5-.2z" fill-rule="evenodd"/><path d="m25.7 13.4 1.2.8q0 0 0 .1l-.7.9q0 .1-.1.1l-1.1-.9q-.1 0 0-.1l.6-.9q.1-.1.1 0z"/><path d="m40.9 10.6 1.1.8q.1 0 0 .1l-.6.9q-.1.1-.1 0l-1.2-.8-.5.8q-.1.1-.1 0l-1.2-.8q0 0 0-.1l.7-.9q0-.1.1 0l1.1.8.6-.8q0-.1.1 0z"/><path d="m62.6 10.6s-.1.3-.2.5c-.3 1-.1 1.5-.1 1.6.3.5.7.2.8-.1.1-.2.2-.1.1-.1q0 .1 0 .4c-.2.6-.5.7-.7.7-.3 0-.5-.5-.5-.7-.1-1.1.4-2.1.5-2.4.1-.2.2-.1.1.1z"/><path d="m51.1 10s-.1.3-.2.5c-.4 1.1-.2 1.6-.1 1.8.3.5.7.2.8-.2.1-.2.2-.1.1 0q0 .1 0 .3c-.2.7-.5.9-.7.9-.4 0-.6-.6-.6-.9-.1-1.2.4-2.2.5-2.5s.2-.1.2.1z"/><path d="m26.2 9.4s.2.5.4.9c.1.2.3.6.2 1.1-.1.4-.4.8-.6.9-.3.1-.8.1-1.1-.4-.4.8-1 1-1.4.8s-.4-.9-.4-1.1 0-.8 0-1c0-.1 0-.3.1-.4.1-.2.2-.1.2.1s-.1 1.1.1 1.4c.3.6 1.1.1 1.2-.2.2-.3-.2-1.2-.2-1.3q0-.1 0-.1c0-.1 0-.4.1-.5q.1-.2.2 0c.1.1.1.4.2 1.3.2.8 1 .7 1.2.6s.1-.2.1-.3c-.1-.1-.4-.8-.5-1.2-.1-.3-.1-.5 0-.8.1-.2.2 0 .2.2z"/><path d="m11.3 5.8c.1.2 0 .7-.1 1 0 .1-.2 0-.3-.2 0 0-.2-.1-.3-.3-.6-.4-.8.5-.9 1 0 .3-.1 1.4-.2 2 0 .2-.2.2-.2 0-.4-1.3-1.2-1.9-1.3-2q-.1-.1-.1-.1.1.2.1.5c-.3 1.7-2 2.4-2.3 2.5-.3.2-.3.1 0-.2s1.6-1.6 1.8-1.9c.6-.6-.5-1-.6-1.1-.1-.2-.1-.7-.1-.9 0-.3.3-.5.4-.4 1.5.9 2 2.4 2.1 2.6.1-1.1.1-2.1.7-2.9.5-.6 1.3.3 1.3.4z"/><path d="m15.8 5.2s-.1.4-.2.6c-.4 1.3-.1 1.9-.1 2 .5.6 1 .3 1.1-.2.1-.3.2-.1.2 0q0 .1-.1.4c-.2.7-.5.9-.8 1-.5 0-.8-.6-.8-.9-.2-1.4.4-2.6.5-3 .1-.3.3-.2.2.1z"/><path d="m12.2 12.3s-.1.3-.2.6c-.4 1.3-.1 1.9 0 2 .4.6.9.2 1.1-.2.1-.3.2-.2.1-.1q0 .1 0 .4c-.2.8-.6 1-.9 1-.5.1-.7-.6-.8-.9-.2-1.4.4-2.6.5-2.9.2-.4.3-.2.2.1z"/><path d="m50 5.3c0 .1 0 .1-.1.3s-.2.3-.4.4c-.2.2-6.3 3.6-6.4 3.7-.3.3-.3.1-.3 0q0-.1.1-.4c0-.1.1-.2.4-.3.2-.2 6.2-3.7 6.5-3.8.3-.2.3-.1.2.1z"/><path d="m57.4 5.7c.1.2 0 .7-.1 1-.1.2-.2 0-.4-.2 0 0-.1-.2-.3-.3-.6-.5-.8.5-.9 1 0 .3-.1 1.5-.2 2.1 0 .3-.2.3-.3.1-.4-1.4-1.2-2.1-1.3-2.2-.2-.2-.3 0-.3.1s-.1.1-.2.1c0-.1-.5-.4-.7-.5-.1-.2 0-.7 0-.9 0-.4.2-.5.4-.5 1.6 1 2.1 2.6 2.2 2.8.1-1.2.1-2.3.8-3.1.5-.6 1.2.3 1.3.5z"/><g fill-rule="evenodd"><path d="m63.4 8.2c-.1.2-.2.1-.3-.1-.1-.1-.2-.3-.5-.4-.2.5-.2.6-1.2 1.5-2.2 1.9-4.7 2.6-4.8 2.6s-.2-.1.1-.2c.7-.6 3.9-2.1 5.5-4.1 0 0-.5-.2-.8-.4-.4-.3-.2-1.2.1-1.5.6-1 1.1-.5 1.2-.4.6 1 .3 1.9.3 1.9.3.2.6.5.4 1.1zm-1.1-2.4c-.1-.1-.3-.1-.6.4-.1.1 0 .2.2.3s.7.3.7.3c0-.1.1-.6-.3-1z"/><path d="m40.5 7.9c0 .1-.1 0-.2-.1s-.5-.4-.5-.4-.4 1-1.3 1.6c-1.5 1.2-2.7 1.4-2.8 1.4-.2 0-.2-.1 0-.3 1-.5 2.1-.9 3.7-2.9 0 0-.5-.2-.8-.5-.4-.2-.2-1.1.1-1.5.6-1 1.1-.5 1.2-.3.6.9.3 1.8.3 1.8.3.2.6.6.3 1.2zm-1-2.4c-.1-.1-.3-.1-.6.3-.1.2 0 .3.2.4s.7.3.7.3c0-.1.1-.7-.3-1z"/><path d="m31.3 20.5c-1.2 1.3-2.7.9-3 .8-1.3-.4-1.4-2.3-1.5-2.5 0-.1-.1-.1-.2 0-.6.6-1.2 1-1.6 1.2q.1.4 0 .5s-.1 1.4-.9 2.2c-4.1 4.2-6.8 3.1-7.1 3-2-1-.9-4.6-.6-5.8-2.2 1.8-5.7 3.3-6.6 3.6-.8.3-3.7.6-4.4.7-.4.1-.5 0-.2-.2.2-.1 8-2.6 12.1-6.3.1-.1.2-.3.1-.5s-1.5-2.7-1.6-3c-.1-.4-.3-.8-.4-.9q-.1-.2 0-.4c0-.2.1-.8.2-1 0-.2.1-.1.2 0s1.4 1.5 1.6 1.7c.1.1 0 .2-.1.2 0 0-.7-.1-.7-.1v.1s.9 1.5 1.2 2c.5 1.3.1 2.2-.1 2.7q-.3.5-.9 1c0 .5-.4 2-.4 2.3-.3 2.7 2 2.8 2.4 2.7 2.6-.2 5.3-3.3 5.6-3.8s-.2-.4-.4-.4q-1.5.4-2.1.2c-1.2-.4-1.3-2.2-.4-3.2s1.7-.5 2.6.4q.5.5.7 1c.9-.3 2-1.4 2.2-1.5.3-.2.3 0 .3.2 0 .7.2 1.8.5 2.1.9 1 2.3.4 2.9.1s.4-1 .4-1.5c-.1-.5-1.3-7.7-1.4-8.3-.3-2.2-.5-3.9-.6-4.1 0 0 .4-.9.4-1.1.1-.1.1 0 .2.1 0 .1 1.4 3.5 1.5 3.7 0 .2-.1.3-.2.2-.1-.2-.7-.8-.7-.8 0 .1 1.3 8.8 1.4 9.2.3 2.5-.3 3.3-.4 3.5zm-1-12.7q0 0 0 0zm-6.6 11.3c-.6-1.2-1.6-.9-1.8-.8-.1.2-.5.7.5.8.7.2 1.3 0 1.3 0z"/></g><path d="m33.4 4.6c0 .2 1.5 3.6 1.5 3.8.1.1-.1.2-.2.1s-.8-.8-.8-.8 1.3 7.5 1.4 8c.8 4.9.1 6.2 0 6.4s-.2.2-.1-.1c.1-2.3-1.2-9.3-1.3-9.7 0-.4-1-6.1-1-6.7 0 0 .3-.9.4-1 0-.2.1-.1.1 0z"/><path d="m24.4 7.5c-.1.2-.1 0-.2-.1s-.5-.5-.5-.5-1.4 2.1-2.8 3c-1.7 1.1-3 1.6-3.1 1.6-.2 0-.2-.1.1-.3 1-.5 3.5-2.4 5.4-4.5 0 0-.6-.2-.9-.5-.4-.3-.2-1.2.1-1.6.7-1 1.3-.5 1.4-.3.5 1 .2 2 .2 2 .3.2.6.6.3 1.2zm-1-2.6c-.1-.1-.3-.1-.6.4-.2.1 0 .2.2.4.2.1.7.3.7.3 0-.1.1-.7-.3-1.1z" fill-rule="evenodd"/></g></svg>