<svg height="30" viewBox="0 0 70 30" width="70" xmlns="http://www.w3.org/2000/svg"><path d="m13.3 22-.1-.1c0 .1 0 .1-.1.3s-.2.2-.3.3c-.3.1-2.7.9-2.9 1-.3.1-.2 0-.2 0q0 0 .1-.3c0-.2.1-.2.3-.3l3-1c.3-.1.2-.1.2.1zm18.6-.9s-.1.2-.1.4c-.3.8-.2 1.2-.1 1.3.2.4.5.1.6-.2.1-.1.1 0 .1 0q.1.1 0 .3c-.1.5-.3.6-.5.6-.4 0-.5-.4-.5-.6-.1-.9.3-1.6.4-1.8.1-.3.1-.2.1 0zm-8.3-1-.1-.1c-.1.2-.1.2-.1.3-.1.2-.2.2-.4.3s-4.7 1.9-4.8 2c-.3.1-.2 0-.2-.1q0 0 .1-.2c0-.2.1-.2.3-.3.2-.2 4.7-1.9 5-2 .3-.2.2-.1.2.1zm25.3-7.9c.1.1 1.2 1.3 1.4 1.4.1.2 0 .2 0 .2h-.6s.7 1.3.9 1.7c.4 1.1.2 1.9.1 2.2-.4.7-1 1.3-1.7 1.9-.1.6-.3 3 2 3.1.3 0 1.5.1 3.9-1.8.5-.4 1.1-1 1.6-1.7.3-.3.4-.8 0-.8-.3.1-2.8.9-3.1-.5-.1-.4.1-3.9 2.5-2.2.1.2.6.6 1 1.3.4-.2 1.1-.6 2-1.3.3-.3.6-.4.6 0-.1.3-.3 2.3 1.9 1.7.2-.1 1.2-.3 1.8-2 .2-.4.5-.3.3 0-.1.4-.4.8-.1 1 .2.2.8.6 1.5.5.3 0 .4-.1.3-.3 0-.3-.3-.7-.3-.7.1-.3.2-.7.2-.8.1-.2.1-.3.2-.2.1.2.8 1.1.4 2.3h.1c-.1.2-.3 1.1-1.6.9-.4-.1-1-.3-1.3-.9-.3.4-1 1.6-2.5 1.4-.3-.1-1.3-.5-1.4-1.7 0 0-1.2.9-1.7 1.2 0 .5 0 1-.2 1.6-.3.6-2.9 3.5-5 4-.7.2-3.4.7-3.5-2.3q0-1 .1-1.5c-1.6 1.3-3.7 2.3-4.3 2.6-.8.4-3.9.9-4.5 1-.3 0-.4 0-.2-.2.2-.1 7.1-2.4 10.6-6.1.1-.2.1-.3 0-.5-.2-.2-1.3-2.3-1.4-2.6 0-.3-.2-.7-.3-.8 0-.1 0-.2 0-.3s.1-.7.2-.8c0-.1.1-.1.1 0zm-28.5 1.4c.2.9 0 1.7-.1 2-.1.2-.2 0-.3-.2 0-.1 0-.7-.2-1.2 0-.3-.3-.3-.6-.2-.2.1-.7.8-.8 1-.5.9-1.7 1.9-1.9 2 0 0 1.8.3 3.2.4 1.1.1 3 0 3.3 0 .2-.1.1.1.1.1-.1.2-.5.9-.6 1 0 0-1.4.1-1.8.2-.9.2-2.9 1.4-3.1 1.5-2.5 1.3-3.4 1.1-3.6 1.1-1.7-.1-2-1.7-2.3-2.2s-1-.1-1.3.1c-1.2.7-1.9 3.1-2.1 3.4-.4.9-1.3.5-1.5.4-2-1.2-1.2-4.5-1.1-4.8s.2-.1.2.2c-.1.2-.2 1.2-.1 1.5.1 1.6 1.2 2.3 1.6 2.3.5 0 .9-.9 1.3-2s1.2-1.9 2.3-2.4c1.1-.4 1.4.9 1.5 1.2.7 1.5 1.9 1.2 2.5 1.1 1.7-.3 3.3-1.4 3.5-1.6 0 0-4-.6-4.3-.3-.2 0-.2-.1-.2-.2.1-.2.3-.6.4-.8s1.7-1 2-1.2c1.2-.6 1.6-1.5 2-2.1.4-.7 1-1 1-1.1.7-.4 1 .7 1 .8zm25.8-.3c0 .2-.3 1.1-.4 1.2s-.9 1.2-.9 1.2 1 .6 1.3 1c.5.6.2 1.3.1 1.6-.3 1-1.6 1.5-2 1.6-1.2.4-1.3-.8-1.2-1.7s.7-2 .7-2c0-.1-1.3-1.1-1.4-1.2s-.2-.2-.4-.3c0-.1 0-.1 0-.1s0-.9 0-1c0-.2.1-.1.2-.1.1.1 1.5.6 1.6.7s.1.2 0 .2-.6.1-.6.1l1.2.9s1.5-2 1.7-2.2c.1-.2.1-.1.1.1zm-1.8 3.2c-.1.1-.7 1.2-.8 1.4-.3.7.4.8.6.8.3 0 1.2-.5 1.7-.9.4-.3-1.2-1.1-1.5-1.3zm-34-2.5 1 .8-.6.8h-.1l-.9-.7-.5.7h-.1l-.9-.7v-.1l.5-.8h.1l.9.7.5-.7zm43.7 2.9c-.1.2-.2.5.6.5.8.1 1.2-.1 1.2-.1-.8-1-1.7-.5-1.8-.4zm10.2 2.7-.1.1v.5c0 .2-.1.5-.2.8s-.7.4-1.1.1c-.8 1.2-1.4.6-1.8.5-.6-.3-.8.1-.9.3-.9.9-2.3.9-2.7.9-.3.1 0-.2.1-.2 1.2-.5 1.9-.6 2.9-1.5.5-.5.8-.2.9-.2 1 .5 1.2 0 1.3-.1s.3-.6.4-.8c.1-.1.1 0 .1.1s0 .3-.1.4c.4.3.8 0 .9-.1 0 0 0-.3 0-.4q0-.1.1-.5c.1-.3.2-.1.2.1zm-19.3-8.7 1 .8v.1l-.6.7-1-.7-.5.7-1-.7v-.1l.5-.8h.1l1 .7.4-.7zm-39.2 1.1s-.1.4-.2.8c-.4 1.7-.1 2.4 0 2.6.5.8 1 .3 1.1-.3.1-.3.2-.2.2 0v.5c-.2 1-.6 1.3-.9 1.3-.5 0-.8-.8-.9-1.2-.2-1.8.4-3.4.5-3.9.1-.4.2-.2.2.2zm57.5-1s-.1.2-.2.4c-.3.9-.1 1.3-.1 1.3.3.5.6.2.7-.1 0-.2.1-.1.1 0q0 .1-.1.3c-.1.5-.3.6-.5.6-.3 0-.5-.4-.5-.6 0-.9.4-1.7.5-2 .1-.2.1-.1.1.1zm-43.3-1.3 1 .8v.1l-.5.7h-.1l-1-.7-.4.7h-.1l-1-.7v-.1l.6-.8 1 .7zm33.4.8s0 .3-.1.4c-.3.9-.1 1.4-.1 1.5.3.4.6.2.8-.2 0-.1 0-.1 0 0q0 .1 0 .3c-.1.6-.4.7-.6.7-.3 0-.5-.5-.5-.7h-.1c0-1 .4-1.8.5-2.1.1-.2.2-.1.1.1zm-36.4-.5c-.1.1-.1.1-.2.3-.1.1-.1.2-.3.3s-4.6 2.2-4.7 2.2c-.3.2-.3.1-.3 0q0 0 .1-.3c0-.1.1-.2.3-.3h.1c.2-.1 4.5-2.2 4.7-2.3.3-.1.3 0 .3.1zm-8.3-1.7s-.1.3-.2.5c-.3 1.2-.1 1.6 0 1.7.3.5.7.2.9-.2 0-.2.1-.1.1 0s0 .2-.1.3c-.1.7-.4.9-.6.9-.5 0-.7-.5-.7-.8-.2-1.2.3-2.2.4-2.5.1-.2.3-.1.2.1zm5.7-1.1c.1.2 0 .6-.1.8s-.2 0-.3-.1c0 0-.1-.1-.2-.2-.5-.4-.7.4-.7.8-.1.3-.1 1.2-.2 1.7 0 .2-.2.1-.2 0-.3-1.1-1-1.7-1.1-1.7-.1-.2-.2 0-.2.1s-.1.1-.1 0c-.1 0-.4-.2-.6-.4-.1-.1 0-.6 0-.7 0-.3.2-.4.3-.4 1.3.8 1.7 2 1.7 2.2.1-.9.1-1.8.6-2.4.5-.5 1.1.2 1.1.3zm4.8-.7s-.1.2-.1.4c-.3.8-.1 1.2-.1 1.3.2.4.5.2.7-.1 0-.2 0-.1 0 0q0 0 0 .2c-.1.5-.3.6-.5.6-.4 0-.5-.4-.5-.6h.1c-.1-.8.3-1.6.3-1.8.1-.2.2-.1.1 0zm33.5 0c-.1.2-.1.2-.2.3 0 .2-.1.2-.3.3s-5.2 3.1-5.3 3.1c-.3.2-.3.1-.3 0h.1q0 0 0-.3c0-.2.1-.2.3-.3.2-.2 5.2-3 5.5-3.2.3-.1.2 0 .2.1zm10.5 0c.5.8.2 1.6.2 1.6.2.1.5.4.3.9 0 .1-.1.1-.2-.1-.1-.1-.2-.2-.4-.3-.2.5-.1.5-1 1.2-1.8 1.6-3.9 2.2-4 2.2q-.2 0 .1-.2c.6-.5 3.3-1.7 4.6-3.3 0 0-.4-.2-.7-.4s-.1-1 .1-1.3h-.1c.6-.8 1-.4 1.1-.3zm-.8.8c-.1.1 0 .2.2.3s.6.3.6.3c0-.1 0-.6-.3-.9-.1-.1-.2-.1-.5.3zm-3.6-.5c.1.2 0 .6 0 .9-.1.2-.2 0-.3-.1 0 0-.2-.2-.3-.3-.5-.4-.7.5-.8.9 0 .3-.1 1.2-.1 1.8-.1.2-.3.2-.3 0-.3-1.2-1-1.8-1.1-1.8-.1-.2-.2 0-.2.1q-.1.1-.2 0s-.4-.3-.6-.4h.1c-.1-.1-.1-.6-.1-.8 0-.3.2-.4.3-.4 1.4.8 1.8 2.1 1.9 2.4.1-1 .1-1.9.6-2.6.5-.6 1.1.2 1.1.3zm-23.1-.6c0 .1 1.2 2.9 1.3 3.1 0 .2-.1.2-.2.1-.1 0-.7-.6-.7-.6s1.3 8.6 1.4 9h-.1c.2.9.1 1.8 0 2.1-.5 1.2-1.5 1.5-1.9 1.5-2.2.3-2.6-.9-2.9-1.3 0 0-1.6.8-2.4 1-1.9.8-3.2.7-3.8.6-2.8-.5-2.7-4.2-2.8-4.6 0-.5-.4-4.4-.5-5.3-.2-1.4-.6-3.3-.7-4.1-.2-.9 0-1.2.2-1.3.1-.2.1-.2.2.1s.2 1.1.3 1.5c.3 1.2.6 4.5.6 4.5s.5 4.4.7 5.4c.6 2.3 1.9 2.5 2.3 2.6 1.9.3 4.5-.9 5.4-1.4-.3-.7-.4-1.4-.4-1.9.2-1.4.9-1.8 1.2-1.8.3-.1 1.4-.1 1.5 2 0 1.4-.7 1.9-1 2.1.5.8 1.6.7 1.9.7 1.8-.3 1.6-.9 1.6-1.5-.1-.6-1.6-11.2-1.7-11.7 0 0 .3-.7.4-.9 0-.1 0 0 .1.1zm-1.1 2.6c0 .1 0 .2-.1.3-.1.2-.2.3-.4.4s-8.5 4.7-8.6 4.7c-.4.2-.3.1-.3 0v-.1s0-.1.1-.3c0-.2.1-.2.3-.3.3-.2 8.5-4.7 8.8-4.8.3-.2.3 0 .2.1zm-2.4 3.9 1 .7v.1l-.6.7-1-.7v-.1l.5-.7zm-2.7-6c.1.2 0 .6-.1.8 0 .2-.1 0-.3-.1 0 0-.1-.1-.2-.2-.5-.5-.7.4-.8.8 0 .3-.1 1.2-.2 1.8 0 .2-.2.2-.2 0-.4-1.2-1-1.7-1.1-1.8-.2-.1-.2 0-.2.1q-.1.1-.2.1c-.1-.1-.4-.3-.6-.5h.1c-.2-.1-.1-.6-.1-.7 0-.4.2-.5.3-.4 1.4.7 1.8 2.1 1.9 2.3.1-1 .1-1.9.6-2.6.4-.5 1.1.3 1.1.4zm3.2 9.9c-.5.3-.5.6-.4.8.1.3.5 1.4.5 1.4.2-.1 1.4-.8 1.1-1.3s-.6-1.1-1.2-.9zm-4-1.5s-.1.3-.2.5v-.1c-.3 1.1 0 1.6 0 1.7.3.5.8.2.9-.2.1-.2.1-.1.1 0v.3c-.2.7-.5.9-.7.9-.4 0-.6-.5-.7-.8-.2-1.1.3-2.1.4-2.4.2-.3.3-.2.2.1zm10.2-8.9c0 .1 1.2 2.9 1.3 3.1 0 .2-.1.2-.2.1-.1 0-.7-.6-.7-.6s1.1 7.7 1.1 7.9c.2 1.5.3 2.6.2 3.4 0 .9-.2 1.3-.2 1.4-.1.2-.2.1-.2-.1 0-.6-.1-1.6-.2-2.7-.3-2.4-1.3-9.8-1.5-11-.1-.1-.1-.5-.1-.6 0 0 .3-.8.3-1 .1-.1.1 0 .2.1zm5.3 0c.5.8.2 1.6.2 1.6.3.1.5.4.3.9 0 .1-.1.1-.2-.1 0 0-.4-.3-.4-.3s-.3.8-1 1.4c-1.3.9-2.4 1.1-2.4 1.1-.2 0-.2-.1 0-.2.8-.5 1.7-.8 3.1-2.4 0 0-.4-.2-.7-.4s-.2-1 .1-1.3c.5-.8.9-.4 1-.3zm-.8.8c-.1.1 0 .2.1.3.2 0 .6.2.6.2 0-.1.1-.5-.2-.8-.1-.1-.3-.1-.5.3z" fill="#191c4f" fill-rule="evenodd"/></svg>