<svg height="30" viewBox="0 0 70 30" width="70" xmlns="http://www.w3.org/2000/svg"><g fill="#191c4f"><path d="m27 20.4c-.1.1-.1.1-.1.3-.1.1-.2.2-.4.2-.1.1-4.2 1.7-4.3 1.8-.2.1-.2 0-.2-.1q0 0 .1-.2c0-.2.1-.2.3-.3s4.2-1.7 4.4-1.8c.3-.1.2 0 .2.1z"/><path d="m35.3 20.4s-.1.2-.2.4c-.3.8-.1 1.2-.1 1.2.3.4.6.2.7-.1 0-.1.1 0 .1 0q0 .1-.1.3c-.1.5-.3.6-.5.6-.3 0-.4-.4-.4-.6-.1-.9.3-1.7.4-1.9 0-.2.1-.1.1.1z"/><path d="m41.5 19.8s-.1.3-.1.4c-.3.8-.2 1.2-.1 1.3.2.4.5.2.6-.1.1-.2.1-.1.1 0q0 0 0 .2c-.2.5-.4.6-.6.6-.3 0-.4-.4-.4-.6-.1-.9.3-1.6.4-1.8s.2-.2.1 0z"/><path d="m64.4 19.7v.5c0 .2-.1.4-.2.7s-.7.4-1 .1c-.7 1-1.3.5-1.6.4-.5-.2-.7.2-.9.3-.7.8-2 .8-2.3.8s0-.1.1-.2c1-.4 1.6-.4 2.6-1.3.4-.4.6-.2.8-.2.8.4 1 0 1.1-.1s.2-.5.3-.7c.1-.1.2 0 .1.1 0 .1 0 .3-.1.4.4.2.8 0 .8-.1 0 0 0-.2 0-.3q0-.2.1-.5c.1-.2.1 0 .2.1z"/><path d="m9.5 15.6.9.6q.1.1 0 .1l-.5.7q0 0 0 0l-.9-.6q-.1 0 0-.1l.5-.7q0 0 0 0z"/><path d="m8 15.7s0 .3-.1.4c-.3.9-.1 1.3-.1 1.4.3.4.6.2.8-.1 0-.2.1-.1.1 0q-.1 0-.1.2c-.2.6-.4.7-.6.7-.4 0-.5-.4-.5-.7-.1-.9.3-1.7.4-1.9.1-.3.2-.2.1 0z"/><path d="m48.3 18.5c-.2.9-1.4 1.4-1.7 1.4-1.1.4-1.2-.7-1.1-1.5s.6-1.8.6-1.8-1.2-.9-1.3-1c0-.1-.2-.2-.3-.3-.1 0 0-.1 0-.1s0-.8 0-.9 0-.1.1 0c.1 0 1.3.5 1.5.6.1 0 .1.1 0 .2-.1 0-.5.1-.5.1l1 .7s1.4-1.8 1.6-2c.1-.2.1-.1.1.1-.1.2-.3 1-.4 1.1s-.8 1.1-.8 1.1.9.6 1.2.9c.4.6.1 1.1 0 1.4zm-1.7-1.6s-.7 1.1-.8 1.3c-.2.6.4.7.6.7.3 0 1.1-.4 1.5-.8.4-.3-1.1-1.1-1.3-1.2z" fill-rule="evenodd"/><path d="m21.1 13.8s-.1.3-.2.4c-.4.9-.2 1.3-.1 1.4.2.4.6.2.7-.1.1-.2.1-.1.1 0q0 .1-.1.2c-.1.6-.4.7-.6.7-.3 0-.5-.5-.5-.7 0-.9.4-1.7.5-2 .2-.2.2-.1.2.1z"/><path d="m25.7 17.9c-.5.6-3.1 1.6-3.8 1.8-.6.2-2.1 1.5-2.5 2.3-1.1 1.9-2.6 1.5-3 1.3-1.3-.7-.8-2.5-.6-3.3-1.4 1-2.7 1.7-2.8 1.7-.1.1-3.3 1.1-3.4 1.2-.1 0-.2 0-.2 0 0-.1.2-.2.3-.3 0 0 7.2-3.6 8.5-5.9.2-.3-.3-.4-.6-.5-.3 0-.9.1-1.2.2-.9 0-1-.6-1.1-.9 0-.9.6-1.5.9-1.7.3-.3 1.6-.7 2.3 1.6.4 1.5-.2 2.3-.4 2.5-.4.6-1.2 1.3-2 1.9 0 .3-.2.9-.2 1.4-.2 1.4 1 1.5 1.6 1.3.6-.3 1.5-1.4 1.9-2 1-1.2 2.2-1.7 2.6-1.9 1.8-.5 3.3-1.3 3.8-1.8.4-.5-.4-.8-.7-.9s-.9.1-1.2.1c-.9 0-1-.6-1-.9-.1-.9.6-1.5.8-1.7.3-.2 1-.4 1.7.3.1.1 1.8 2.2.3 4.2zm-.6-3c-.5-.7-1.1-.6-1.2-.5-.3 0-.6.4-.3.5.8.2 1.5 0 1.5 0zm-7.5.3c-.6-.6-1.1-.5-1.3-.4-.2 0-.6.4-.2.5.8.1 1.5-.1 1.5-.1z" fill-rule="evenodd"/><path d="m65.6 17.5c0 .2-.2 1-1.4.8-.3-.1-.9-.2-1.1-.8-.3.3-.9 1.4-2.2 1.2-.3 0-1.2-.4-1.3-1.5 0 0-1.1.9-1.6 1.1.1.4.1.9-.1 1.4-.2.6-2.5 3.2-4.4 3.6-.7.1-3.1.6-3.2-2.1 0-.6 0-1 .1-1.3-1.5 1.2-3.3 2-3.8 2.3-.8.4-3.5.8-4 .9-.4.1-.4 0-.2-.1s6.3-2.2 9.5-5.6q.1-.1-.1-.4c0-.1-1-2-1.1-2.3-.1-.2-.3-.5-.3-.6q-.1-.2 0-.3c0-.1.1-.6.1-.8 0-.1.1 0 .1.1.1 0 1.1 1 1.2 1.2.1.1 0 .1 0 .2 0 0-.5-.1-.5-.1s.6 1.2.8 1.6c.4.9.2 1.6.1 1.9-.3.6-.9 1.2-1.5 1.7-.1.5-.3 2.7 1.8 2.8.3 0 1.3.1 3.4-1.6.5-.4 1.1-.9 1.5-1.5.2-.3.3-.7 0-.7s-2.5.8-2.8-.5c-.1-.3.1-3.4 2.2-1.9.2.2.6.5.9 1.1.4-.1 1.1-.5 1.9-1.2.2-.2.4-.3.4 0s-.1 2.1 1.8 1.6c.2-.1 1-.3 1.6-1.8.2-.3.4-.3.3 0-.1.4-.3.7-.2.9.2.2.8.6 1.5.5.2 0 .3-.2.3-.4-.1-.1-.4-.5-.4-.5.1-.3.2-.7.2-.8s.1-.2.2-.1.7.9.3 2zm-8.8.1c-.7-.9-1.5-.4-1.6-.3s-.1.4.5.4c.8.1 1.1-.1 1.1-.1z" fill-rule="evenodd"/><path d="m12.8 12.3q.1.1.1.2s.8 1 1 1.1c.1.2 0 .3-.1.2q-.1 0-.4-.1s.9 2 .9 2.3c.5 1.6-1.1 2.6-1.4 2.8-3.3 2.6-5.2 2.2-5.9 2-3.2-.9-1.7-5.2-1.5-5.6.2-.3.3-.1.2.1-.8 2.2 0 3.3.2 3.6 1 1.4 2.9.9 3.3.8 2.8-.8 4.4-2.5 4.6-2.8s.1-.6 0-.7c-.1-.2-.7-1.3-1-2.1-.1-.3-.3-.9-.3-1s.2-.7.2-.8c.1-.1.1-.1.1 0z"/><path d="m47.2 11.9.8.7q.1 0 0 0l-.5.7q0 .1 0 0l-.9-.6-.4.6q-.1.1-.1 0l-.9-.6q0 0 0-.1l.5-.7q.1 0 .1 0l.9.7.4-.7q0 0 .1 0z"/><path d="m63.4 12s0 .2-.1.3c-.3.8-.1 1.2-.1 1.2.2.4.5.2.6-.1.1-.1.1 0 .1 0q0 .1-.1.3c-.1.4-.3.5-.4.5-.3 0-.4-.3-.5-.5 0-.9.3-1.6.4-1.8s.2-.1.1.1z"/><path d="m54.8 11.5s-.1.3-.2.4c-.2.9-.1 1.2 0 1.3.2.4.5.2.6-.1.1-.2.1-.1.1 0q0 .1-.1.2c-.1.6-.3.7-.5.7-.3 0-.4-.4-.4-.7-.1-.8.3-1.6.4-1.8s.1-.1.1 0z"/><path d="m23.7 10.9.9.6q0 .1 0 .1l-.5.7q0 0-.1 0l-.8-.6q-.1 0 0-.1l.5-.7q0 0 0 0z"/><path d="m13.3 9.8c0 .1 0 .2-.1.3 0 .1-.1.2-.2.3-.1 0-5.5 2.7-6 3.1-.5.3-.4.5-.3.5.3.1.5.4.3.8q0 0 0 0c-.1-.1-.2-.2-.4-.2s-.3-.4-.2-.8c0-.3.2-.6.4-.7.4-.4 6.2-3.2 6.3-3.3.3-.2.3-.1.2 0z"/><path d="m6.9 9.2s-.1.2-.2.4c-.3.8-.2 1.2-.1 1.3.2.5.6.2.7-.1.1-.1.2-.1.1 0q0 .1 0 .3c-.2.5-.5.6-.7.6-.3 0-.5-.4-.5-.7 0-.9.5-1.7.6-1.9s.2-.1.1.1z"/><path d="m17.7 9c.1.1.1.4 0 .6 0 .1-.1 0-.2-.1 0 0-.1-.1-.2-.1-.4-.4-.6.3-.6.6v1.4c0 .2-.2.2-.2.1-.3-.9-.9-1.3-1-1.4s-.1 0-.2.1q0 .1-.1 0s-.3-.2-.4-.3c-.2 0-.1-.4-.1-.5 0-.3.1-.4.2-.3 1.1.5 1.5 1.5 1.6 1.7 0-.8 0-1.5.4-2.1.3-.4.8.2.8.3z"/><path d="m24.9 8.4s0 .2-.1.3c-.2.7-.1 1.1-.1 1.1.3.4.5.2.6-.1.1-.1.1 0 .1 0q0 .1 0 .3c-.2.4-.4.5-.5.5-.3 0-.4-.3-.4-.5-.1-.8.3-1.5.4-1.7 0-.2.1-.1 0 .1z"/><path d="m38.2 14.4c.1.1 0 .4-.1.6 0 .1-.1 0-.2-.1 0 0-.1-.1-.2-.1-.4-.4-.5.3-.6.6v1.4c0 .2-.1.2-.2.1-.3-.9-.9-1.3-1-1.4s-.1 0-.1.1q-.1.1-.2 0s-.3-.2-.4-.3c-.1 0-.1-.4-.1-.5 0-.3.1-.4.2-.3 1.1.5 1.5 1.5 1.6 1.7 0-.8 0-1.5.4-2.1.3-.4.8.2.9.3z"/><path d="m33 12.1s-.1.3-.2.5c-.2.9 0 1.3 0 1.3.3.5.6.2.7-.1.1-.2.1-.1.1 0q0 .1 0 .3c-.2.5-.4.6-.6.7-.3 0-.5-.5-.5-.7-.1-1 .3-1.8.3-2 .1-.3.2-.2.2 0z"/><path d="m22.1 10.2c-.1.1-.1.1-.2-.1 0 0-.3-.2-.3-.2s-.9 1.3-1.7 1.9c-1.1.7-2 1-2 1.1-.1 0-.2-.1 0-.2.7-.4 2.3-1.6 3.4-2.9 0 0-.3-.2-.6-.4-.2-.2 0-.8.1-1 .5-.7.8-.3.9-.2.4.6.1 1.2.1 1.2.2.2.4.4.3.8zm-.7-1.6c-.1-.1-.2-.1-.4.2-.1.1 0 .2.1.3.2 0 .5.2.5.2 0-.1 0-.5-.2-.7z" fill-rule="evenodd"/><path d="m54 8c0 .1 0 .1-.1.3-.1.1-.1.2-.3.2-.2.1-4.7 2.8-4.8 2.8-.2.2-.2.1-.2 0q0-.1.1-.3c0-.1.1-.1.3-.3.1-.1 4.6-2.7 4.8-2.8.3-.1.2 0 .2.1z"/><path d="m59.5 8.3c.1.2 0 .5 0 .7-.1.2-.2 0-.3-.1 0 0-.1-.1-.2-.2-.5-.4-.7.4-.7.7-.1.3-.1 1.1-.2 1.6 0 .2-.1.2-.2.1-.3-1.1-.9-1.6-1-1.7s-.2.1-.2.1c0 .1-.1.1-.1.1-.1-.1-.4-.3-.6-.4-.1-.1 0-.5 0-.7 0-.3.2-.4.3-.3 1.2.7 1.6 1.9 1.6 2.1.1-.9.1-1.7.6-2.3.4-.5 1 .2 1 .3z"/><path d="m40.3 19.3c-.2 1-.9 1.2-1.5 1.3-1.8.3-3.1-1.3-3.6-1.8s-1.7-1.3-2-1.4c.5.7.6 1.3.6 1.7.1 1.1-.7 1.5-1 1.7-2.3 1.5-3.2.9-3.5.7-1.2-.5-1.4-3.2-1.5-3.8-.1-.5-.7-5.7-.8-6.5s-.3-1.9-.4-2.2c0 0 .1-.5.2-.8.1-.2.2-.1.3.1.3.9.6 3.8.8 5.7q.1-.2.2-.3c.1-.4.3-.6.4-.7 2.6-2.4 7-4.4 7.8-4.7.7-.3.9.3.9.8-.2 1.3-1.8 3.7-1.9 3.8s-.3.1-.2-.1c.1-.5 1.3-2.2 1.6-3.1.2-.5-.7-.3-1.1-.2-3.1 1.1-7 4.4-7.1 4.5s-.1.2.1.3 2.3.8 2.7 1c2.2.8 4.1 2.4 4.4 2.8.7.9 1.6 1.3 2 1.4 1 .3 2.1-.2 2.2-.3s.1-.3.1-.3c0-.5-1.5-9.4-1.5-9.6-.1-.4-.1-.6-.1-.6s.3-.8.3-.9c.1-.1.1 0 .1.1.1.1 1.1 2.4 1.2 2.5 0 .2-.1.2-.2.1 0 0-.6-.5-.6-.5s1.2 6.9 1.3 7.5c.1 1-.1 1.4-.2 1.8zm-12.1-4.1q-.1 0-.2-.1.1.4.1.4c0 .4.3 2.9.7 4 .5 1.1 1.1 1.2 1.6 1.2 1.2 0 2.8-1.3 3-1.4.1-.1 0-.3 0-.4-.8-1.6-4.5-3.4-5.2-3.7z" fill-rule="evenodd"/><path d="m41.7 7.9c0 .1 1.1 2.6 1.1 2.7.1.2 0 .2-.1.1s-.6-.6-.6-.6 1 6.9 1 7.1q.3 2 .2 2.9c-.1.9-.2 1.2-.3 1.3 0 .1-.1.1-.1-.1 0-.5-.1-1.4-.2-2.4-.3-2.1-1.2-8.6-1.4-9.7 0-.1-.1-.5-.1-.5s.4-.8.4-.9.1 0 .1.1z"/><path d="m64 10.2c-.1.1-.1 0-.2-.1s-.2-.2-.4-.3c-.2.4-.1.4-.9 1.1-1.7 1.4-3.5 1.9-3.6 2-.1 0-.1-.1.1-.2.5-.5 2.9-1.5 4.1-3 0 0-.3-.2-.6-.4s-.1-.8.1-1.1c.4-.7.8-.4.9-.2.4.6.2 1.3.2 1.3.2.2.4.4.3.9zm-.8-1.8c-.1-.1-.2-.1-.5.3 0 .1 0 .2.2.2.2.1.5.3.5.3 0-.1.1-.6-.2-.8z" fill-rule="evenodd"/><path d="m46.9 9.9c0 .1-.1.1-.2 0 0-.1-.3-.4-.3-.4s-.4.8-1 1.3c-1.1.8-2.1 1-2.1 1-.1 0-.2-.1 0-.2.7-.4 1.6-.7 2.8-2.2 0 0-.4-.1-.7-.3-.2-.2-.1-.9.1-1.1.5-.8.9-.4.9-.3.5.7.2 1.4.2 1.4.2.1.5.4.3.8zm-.8-1.8c-.1 0-.2 0-.4.3-.1.1 0 .2.1.3.2 0 .6.2.6.2 0-.1 0-.5-.3-.8z" fill-rule="evenodd"/><path d="m36.1 6.1c0 .1 0 .2-.1.3-.1.2-.1.2-.3.3s-7 3.8-7 3.9c-.3.1-.3 0-.3-.1q0 0 .1-.2c0-.2.1-.2.3-.3s6.9-3.8 7.1-3.9c.3-.2.3-.1.2 0z"/></g></svg>