<svg height="30" viewBox="0 0 70 30" width="70" xmlns="http://www.w3.org/2000/svg"><g fill="#191c4f"><path d="m18.8 21.1.9.7q0 0 0 0l-.5.7q-.1.1-.1.1l-.8-.7-.5.6q0 .1 0 .1l-.9-.7q-.1 0 0 0l.5-.8q0 0 0 0l.9.7.4-.7q.1 0 .1 0z"/><path d="m29 21c0 .1 0 .1-.1.3-.1.1-.1.1-.3.2s-2.5 1-2.6 1.1c-.3.1-.3 0-.2-.1q0 0 .1-.2c0-.1.1-.2.2-.3.2-.1 2.6-1 2.7-1.1.3-.1.3 0 .2.1z"/><path d="m13.9 20.8c-.1.1-.1.1-.1.2-.1.2-.2.2-.4.3-.1.1-4.2 1.7-4.3 1.7-.3.2-.2.1-.2 0q0-.1.1-.3c0-.1.1-.1.3-.2s4.2-1.7 4.4-1.8c.3-.2.2-.1.2.1z"/><path d="m64.4 19.4v.5c0 .2-.1.4-.2.7s-.6.4-1 .1c-.6 1-1.2.5-1.5.4-.6-.2-.8.2-.9.3-.7.8-2.1.8-2.4.8-.3.1 0-.1.1-.2 1-.4 1.7-.4 2.6-1.3.4-.4.7-.2.8-.2.9.4 1 .1 1.1-.1.1-.1.3-.5.4-.7 0-.1.1 0 .1.1s-.1.3-.1.4c.3.2.7 0 .8-.1 0 0 0-.2 0-.3q-.1-.2.1-.5c0-.2.1 0 .1.1z"/><path d="m10.8 15.3.9.6q0 .1 0 .1l-.5.7q-.1.1-.1 0l-.8-.6-.5.6q0 .1-.1 0l-.8-.6q-.1 0 0-.1l.5-.7q0 0 0 0l.9.6.4-.6q.1 0 .1 0z"/><path d="m20.4 13.9c.1.2 0 .5 0 .7-.1.1-.2 0-.3-.1 0 0-.1-.1-.1-.2-.5-.3-.5.4-.6.7 0 .2.1.9 0 1.3 0 .1-.1.1-.1 0-.4-.8-.9-1.2-1-1.3-.1 0-.1.1-.1.2q-.1 0-.2 0s-.3-.2-.4-.3-.1-.4-.1-.5c0-.3.1-.3.2-.3 1.1.5 1.5 1.4 1.5 1.6 0-.8 0-1.4.3-2 .3-.4.8.2.9.2z"/><path d="m48.3 18.2c-.3.9-1.5 1.4-1.8 1.4-1 .4-1.1-.7-1.1-1.5.1-.8.7-1.8.7-1.8-.1 0-1.2-.9-1.3-1s-.2-.2-.3-.3-.1-.1-.1-.1 0-.8 0-.9.1-.1.2-.1c.1.1 1.3.6 1.4.6.2.1.1.2 0 .2 0 0-.4.2-.4.2l1 .7s1.4-1.9 1.5-2c.2-.2.2-.1.1.1 0 .2-.3.9-.3 1.1-.1.1-.8 1.1-.8 1.1s.9.6 1.1.9c.5.6.2 1.1.1 1.4zm-1.8-1.6s-.6 1.1-.7 1.3c-.3.6.4.7.6.7s1.1-.4 1.5-.8c.4-.3-1.1-1.1-1.4-1.2z" fill-rule="evenodd"/><path d="m65.7 17.2c-.1.2-.3 1-1.4.8-.3-.1-.9-.2-1.1-.8-.3.3-1 1.4-2.3 1.2-.3 0-1.2-.4-1.3-1.5 0 0-1 .9-1.5 1.1 0 .4 0 .9-.2 1.4-.2.6-2.5 3.2-4.4 3.6-.7.1-3.1.6-3.2-2.1q0-.8.1-1.3c-1.5 1.2-3.3 2-3.8 2.3-.8.4-3.6.8-4.1.9-.3.1-.4 0-.2-.1s6.4-2.2 9.6-5.6q.1-.1-.1-.4c-.1-.1-1-2.1-1.1-2.3-.1-.3-.3-.6-.3-.7q-.1-.1-.1-.3c.1-.1.1-.6.2-.7 0-.1.1-.1.1 0 .1.1 1.1 1.1 1.2 1.2.1.2 0 .2 0 .2h-.5s.6 1.1.8 1.5c.4 1 .2 1.7.1 2-.3.6-.9 1.2-1.5 1.7-.1.5-.3 2.7 1.8 2.8.3 0 1.4.1 3.5-1.6.4-.4 1-.9 1.5-1.5.2-.3.3-.7-.1-.7-.3 0-2.5.8-2.8-.5-.1-.3.1-3.4 2.2-1.9.2.1.7.5 1 1.1.3-.1 1-.5 1.8-1.2.3-.2.5-.3.5 0s-.2 2.1 1.7 1.5c.3 0 1.1-.2 1.7-1.7.2-.4.4-.3.3 0-.2.4-.4.7-.2.9s.7.6 1.4.5c.3-.1.4-.2.3-.4s-.3-.6-.3-.6c.1-.2.1-.6.2-.7 0-.1 0-.2.1-.1s.8.9.4 2zm-8.9.1c-.6-.9-1.5-.4-1.6-.3s-.1.4.6.4c.8.1 1-.1 1-.1z" fill-rule="evenodd"/><path d="m5.9 12.4s-.1.4-.2.7c-.5 1.4-.3 2.1-.2 2.2.3.8.8.4 1-.1.1-.3.1-.1.1 0q0 .1-.1.4c-.2.6-.4.9-.6 1-.2.5-.4 1.2-.4 1.4-.1 1.7 2 1.7 2.5 1.7 4-.2 5.7-1.7 5.9-1.9s-.5-1.1-.7-1.3c0 0 .2-.8.2-1q.1-.2.3 0c.1.2.6 1 .7 1.3.3.7-.1 1.5-.2 1.7-.7.9-2.1 1.5-3.1 1.7-4.2 1.3-5.3.1-5.5 0-1-1.2-.3-2.9 0-3.5-.4-.1-.6-.8-.6-1.1 0-1.6.6-2.9.8-3.3.1-.4.2-.2.1.1z"/><path d="m9 11.9s-.1.2-.1.4c-.3.8-.2 1.2-.1 1.2.2.5.5.2.6-.1.1-.1.1 0 .1 0q0 .1-.1.3c-.1.5-.3.6-.5.6-.3 0-.4-.4-.4-.6-.1-.9.3-1.6.4-1.9.1-.2.1-.1.1.1z"/><path d="m47.1 11.6.9.6q0 .1 0 .1l-.5.7q0 0-.1 0l-.8-.6-.5.6q0 0 0 0l-.9-.6q0 0 0-.1l.5-.7q0 0 .1 0l.8.6.5-.6q0 0 0 0z"/><path d="m63.5 11.6s-.1.3-.2.4c-.2.8-.1 1.1 0 1.2.2.4.5.2.6-.1 0-.1.1-.1 0 0q0 .1 0 .2c-.1.5-.3.6-.5.6-.3 0-.4-.4-.4-.6-.1-.8.3-1.5.4-1.7s.1-.1.1 0z"/><path d="m54.8 11.2s-.1.2-.1.4c-.3.8-.2 1.2-.1 1.3.2.4.5.2.6-.1.1-.2.1-.1.1 0q0 0 0 .2c-.2.5-.4.6-.6.6-.3 0-.4-.4-.4-.6-.1-.9.3-1.6.4-1.9.1-.2.1-.1.1.1z"/><path d="m26 10.7s0 .3-.1.5c-.2 1 0 1.4 0 1.5.3.5.6.2.7-.2 0-.2.1-.1.1 0q0 .1-.1.3c-.1.6-.3.7-.5.8-.3 0-.5-.5-.5-.7-.1-1.1.2-2 .3-2.2.1-.3.2-.2.1 0z"/><path d="m25.6 8.6c-.1.1-.1.1-.1.3-.1.1-.2.2-.4.3s-7.7 3.6-7.8 3.7c-.3.1-.3 0-.2-.1q0 0 0-.2c0-.2.1-.3.3-.4.3-.1 7.7-3.6 7.9-3.7.4-.2.3-.1.3.1z"/><path d="m13.3 8.1s-.1.4-.2.7c-.5 1.4-.3 2.1-.2 2.2.3.8.8.4 1-.1.1-.3.1-.2.1 0q0 .1-.1.4c-.3.9-.6 1.1-.8 1-.5 0-.7-.7-.7-1.1 0-1.5.6-2.9.8-3.2.1-.4.2-.2.1.1z"/><path d="m10.2 8c.1.2 0 .5 0 .7-.1.1-.2 0-.3-.1 0 0-.1-.1-.2-.2-.4-.3-.5.4-.6.7 0 .2 0 1-.1 1.4 0 .2-.1.2-.2.1-.3-.9-.8-1.4-.9-1.4-.1-.1-.2 0-.2.1q0 0-.1 0c-.1 0-.4-.2-.5-.3s-.1-.5-.1-.6c0-.3.2-.4.3-.3 1.1.6 1.5 1.6 1.6 1.8 0-.8 0-1.5.4-2.1.3-.5.9.2.9.2z"/><path d="m54 7.6c0 .1 0 .2-.1.3-.1.2-.1.2-.3.3s-4.7 2.7-4.8 2.8c-.3.1-.2 0-.2-.1q0 0 .1-.2c0-.1 0-.2.2-.3s4.7-2.7 4.9-2.8c.3-.2.3-.1.2 0z"/><path d="m59.5 7.9c.1.2.1.6 0 .8-.1.1-.2 0-.3-.1 0 0-.1-.2-.2-.2-.5-.4-.6.3-.7.7 0 .2-.1 1.1-.2 1.6 0 .2-.1.2-.2 0-.3-1-.9-1.5-1-1.6-.1-.2-.2 0-.2.1h-.1c-.1 0-.4-.2-.5-.4-.2-.1-.1-.5-.1-.6 0-.3.2-.4.3-.4 1.2.7 1.6 1.9 1.7 2.1 0-.9.1-1.7.5-2.3.4-.5 1 .2 1 .3z"/><path d="m64 9.8c0 .2-.1.1-.2 0 0-.1-.1-.3-.3-.4-.2.4-.2.5-1 1.2-1.6 1.4-3.5 1.9-3.6 1.9-.1.1-.1 0 .1-.1.6-.5 3-1.6 4.2-3.1 0 0-.4-.1-.7-.3-.2-.2-.1-.9.1-1.2.5-.7.9-.3 1-.2.4.7.1 1.4.1 1.4.3.1.5.4.3.8zm-.8-1.8c-.1 0-.2 0-.4.3-.1.1 0 .2.2.3.1 0 .5.2.5.2 0-.1 0-.5-.3-.8z" fill-rule="evenodd"/><path d="m41.7 7.5c0 .1 1 2.6 1.1 2.8 0 .1-.1.2-.1.1-.1-.1-.6-.6-.6-.6s.9 6.9.9 7.1q.3 2.1.2 3.1c0 .8-.2 1.1-.2 1.2-.1.2-.1.1-.1 0 0-.5-.1-1.5-.3-2.5-.2-2.1-1.2-8.8-1.3-9.9 0-.1-.1-.4-.1-.5 0 0 .3-.8.3-.9.1-.1.1 0 .2.1z"/><path d="m15.4 7.5c0 .2.4 2.3.4 3 .1.6.4 5.9.5 6.4.1 1.4.7 1.9.8 2 1.2.7 3.5.2 4.2-.1.8-.3.6-.6.6-.9-.1-.2-.8-.9-.9-1.1 0 0 .2-.8.2-.8 0-.1 0-.2.1-.1 1.2 1.1 1.1 2.3 1 2.6-.1.7-.6 1.1-1 1.3q0 0 0 .1c-.1.2-.1.8-.1.9-.1 1.4 1.3.7 1.5.6 2.6-1 4.7-2.7 4.9-2.9s.2-.3.1-.5c-.2-.4-1.4-.9-1.7-1-1.6-.4-2.4-1.1-2.7-1.4-.2-.2-.6-.5-.7-.6 0 0 0-.9.1-1 0-.1.1-.1.2 0 .1 0 1.4.5 1.5.5.1.1 0 .2-.1.2 0 0-.5.1-.5.1s.3.3 1.1.7c.3.1 1.8.6 2.3.8.5.3.8.7.9 1.1.4 1.7.1 1.8-.3 2.1-2.1 1.7-4.5 2.8-4.8 2.9-2.2.9-2.2-.8-2.2-1.1.1-.3.1-1.2.1-1.3-.3.1-.6.1-.8.2-2.5.3-3.1-.2-3.5-.6-1.1-1-.9-3-1.1-5.4-.1-2.1-.3-4.5-.6-5.7-.1-.4.1-.8.2-1s.2-.1.3 0z"/><path d="m32.1 14.1s-.1.3-.1.5c-.3.9-.2 1.3-.1 1.3.2.5.6.3.7-.1 0-.1.1-.1.1 0q0 .1-.1.3c-.1.5-.4.7-.5.7-.4-.1-.5-.5-.5-.7-.1-1 .3-1.8.4-2 .1-.3.2-.1.1 0z"/><path d="m36.8 12s-.1.3-.2.6c-.4 1.2-.2 1.7-.1 1.8.3.7.7.3.8-.1.1-.2.2-.1.2 0q-.1.1-.1.4c-.2.7-.5.9-.7.9-.4-.1-.6-.6-.6-1-.1-1.3.4-2.4.6-2.7.1-.3.2-.2.1.1z"/><path d="m38.2 9.7c0 .1 0 .1-.1.3s-.2.2-.3.3c-.2.1-7.7 3.7-7.8 3.7-.4.2-.3.1-.3 0q0-.1.1-.3c0-.2.1-.2.3-.3s7.7-3.7 7.9-3.8c.3-.1.3 0 .2.1z"/><path d="m39.9 20.2c-.9 1.3-2.5.8-2.8.5-.3-.2-.7-.6-1.1-1-1.4.6-2.8 1.3-3.7 1.4-3.1.3-3.3-1.9-3.5-2.7s-.4-4.3-.4-5c-.1-.4-.5-3.8-.8-5-.1-.5.2-1 .3-1.1 0-.1 0-.2.1.1.7 1.9 1.1 8.5 1.2 9 .1 2.7 1 3.2 1.2 3.4 1.8.9 4.4-.6 4.6-.7q.1 0 .3-.1c-.4-.3-.8-.6-1-.7-.6-.3-1.2 0-1.2 0-.2 0-.2-.1-.2-.2.1-.6.3-.8.4-.9 2.5-1.4 5.4.1 5.6.2 0 0-.1.6-.2.7 0 .1-.8.6-1.9 1.1q.3.3.5.4c1.3 1 2.5-.2 2.5-.2.1-.1 0-.4 0-.8s-1.1-8.7-1.1-8.7q-.1-.6-.1-1c-.1-.4-.2-.6-.2-.6s.4-.8.4-.9c.1-.1.1 0 .1.1.1.1 1.1 2.6 1.2 2.8 0 .1-.1.2-.2.1 0-.1-.5-.6-.5-.6s.9 7.4.9 8c.1 1.4-.2 2-.4 2.4zm-3.8-1.6c.6-.3 1.1-.6 1.2-.7-.7-.2-1.4-.2-2-.2q.2.2.3.3c.1.1.3.3.5.6z" fill-rule="evenodd"/><path d="m46.9 9.6c-.1.1-.1 0-.2-.1 0 0-.3-.3-.3-.3s-.4.8-1 1.2c-1.1.9-2.1 1.1-2.2 1.1s-.1-.1.1-.2c.7-.4 1.5-.7 2.7-2.2 0 0-.3-.2-.6-.4s-.1-.8.1-1.1c.4-.7.8-.4.9-.3.4.7.2 1.4.2 1.4.2.2.4.4.3.9zm-.8-1.8c-.1-.1-.2-.1-.5.3 0 .1.1.2.2.2.2.1.5.3.5.3 0-.1.1-.6-.2-.8z" fill-rule="evenodd"/><path d="m19 7.3s-.1.2-.1.4c-.3.8-.2 1.2-.1 1.3.2.4.5.1.6-.2.1-.1.1 0 .1 0q0 .1 0 .3c-.2.5-.4.6-.6.6-.3 0-.4-.4-.4-.6-.1-.9.3-1.6.4-1.9.1-.2.2-.1.1.1z"/><path d="m33.6 7.4c.1.1 0 .5 0 .7-.1.1-.2 0-.3-.1 0 0-.1-.1-.2-.2-.4-.3-.5.4-.6.7 0 .2.1 1 0 1.4 0 .2-.1.2-.2.1-.3-.9-.9-1.3-1-1.4s-.1.1-.2.1q0 .1-.1.1c0-.1-.4-.2-.5-.3s-.1-.5-.1-.6c0-.3.2-.4.3-.3 1.1.5 1.5 1.5 1.6 1.7 0-.8 0-1.5.4-2.1.3-.5.8.1.9.2z"/></g></svg>