<svg height="30" viewBox="0 0 70 30" width="70" xmlns="http://www.w3.org/2000/svg"><g fill="#191c4f"><path d="m10.3 20.9c0 .1 0 .2-.1.3-.1.2-.2.2-.3.3-.2.1-3.5 1.7-3.6 1.8-.3.1-.3 0-.2-.1q0 0 0-.2c.1-.2.1-.2.3-.4.2-.1 3.5-1.6 3.7-1.7.3-.2.2-.1.2 0z"/><path d="m36.4 20.3s0 .2-.1.4c-.3.7-.1 1.1-.1 1.2.2.4.5.2.6-.1.1-.2.1-.1.1 0q0 0 0 .2c-.2.5-.4.6-.5.6-.3 0-.4-.4-.5-.6 0-.8.4-1.6.4-1.8.1-.2.2-.1.1.1z"/><path d="m21.7 19.5c.1 0 .2 0 .2.1q.1.1 0 .1 0 0-.1 0c-.1-.1-.3 0-.4 0q-.2.1-.3.1-.1.1-.1.1 0 .1 0 .1c.1.1.3.3.4.3.3 0 .5-.1.7-.2.1-.1.3-.2.2 0q0 .1 0 .1c0 .1-.1.1-.1.1-.5.2-1 .5-1.2 1-.1.2-.1.5 0 .7s.3.4.5.5q.4.1.8.1.2 0 .4 0 .1 0 .2 0 0-.1.1 0 0 0 0 0 0 .1-.1.1-.1 0-.3.1c-.2 0-.3.1-.5.1-.4 0-.8-.1-1.1-.3-.5-.5-.3-1.5.2-2-.1-.1-.3-.2-.4-.4 0-.1 0-.3.1-.4.1-.4.5-.5.8-.3z"/><path d="m64.2 19.1v.5c0 .2-.1.4-.2.7s-.7.4-1.1.2c-.6 1-1.3.5-1.6.4-.6-.3-.8.1-.9.3-.8.9-2.2.8-2.5.9-.4 0-.1-.2 0-.3 1.1-.4 1.8-.4 2.8-1.4.4-.4.7-.2.9-.1.9.4 1 0 1.2-.1.1-.1.2-.6.3-.8.1-.1.2 0 .1.1 0 .1 0 .3-.1.4.4.2.8 0 .9-.1 0 0 0-.3 0-.4q-.1-.1.1-.4c.1-.3.1-.1.1.1z"/><path d="m26.2 18.8s0 .4-.1.6c-.3 1.2-.1 1.7 0 1.8.3.6.7.3.9-.2 0-.2.1-.1.1 0q0 .1-.1.4c-.1.7-.4.9-.6.9-.5 0-.7-.6-.7-.9-.2-1.2.3-2.3.4-2.6.1-.4.2-.2.1 0z"/><path d="m47.1 17.8c-.3.9-1.6 1.4-1.9 1.5-1.2.4-1.2-.8-1.2-1.6.1-.9.7-1.9.7-1.9 0-.1-1.3-1-1.4-1.1s-.2-.3-.3-.3c-.1-.1-.1-.2-.1-.2s0-.8 0-.9c.1-.1.1-.1.2-.1.1.1 1.4.6 1.6.7.1.1 0 .2 0 .2-.1 0-.6.1-.6.1l1.1.8s1.5-2 1.7-2.2c.1-.1.1 0 .1.2s-.3 1-.4 1.1-.8 1.2-.8 1.2 1 .6 1.2 1c.4.6.2 1.2.1 1.5zm-1.9-1.7s-.7 1.1-.8 1.3c-.3.7.4.8.6.8.3 0 1.2-.5 1.6-.8.5-.4-1.2-1.2-1.4-1.3z" fill-rule="evenodd"/><path d="m65.6 16.7c-.1.2-.3 1.1-1.5.8-.3 0-.9-.1-1.2-.8-.3.4-1 1.5-2.4 1.3-.3 0-1.3-.4-1.3-1.6 0 0-1.2.9-1.7 1.2 0 .4 0 .9-.2 1.5s-2.7 3.4-4.7 3.8c-.7.2-3.3.6-3.4-2.3 0-.5 0-1 .1-1.3-1.6 1.2-3.5 2.1-4.1 2.4-.8.4-3.8.9-4.3 1-.4.1-.4 0-.2-.1.2-.2 6.8-2.4 10.2-6q.1-.1-.1-.4c-.1-.2-1.1-2.2-1.2-2.5s-.3-.6-.3-.7q-.1-.1-.1-.3c.1-.1.2-.7.2-.8s.1 0 .2 0c0 .1 1.1 1.2 1.2 1.3.1.2 0 .2 0 .2-.1 0-.6 0-.6 0s.7 1.2 1 1.7c.4.9.1 1.7 0 2.1-.3.6-.9 1.2-1.6 1.8-.1.5-.3 2.8 1.9 2.9.4 0 1.5.2 3.7-1.7.6-.4 1.1-.9 1.6-1.6.2-.3.4-.8 0-.7-.4 0-2.7.9-3-.5-.1-.4.1-3.7 2.4-2.1.2.2.6.6 1 1.2.3-.2 1-.6 1.9-1.3.3-.2.5-.3.5 0s-.2 2.2 1.9 1.7c.2-.1 1.1-.3 1.7-1.9.2-.4.5-.3.3 0-.1.4-.3.7-.1.9s.8.7 1.5.6c.3-.1.4-.2.3-.4s-.3-.6-.3-.6c0-.3.1-.7.2-.8 0-.1 0-.2.1-.1s.8.9.4 2.1zm-9.4.1c-.8-1-1.6-.4-1.8-.3-.1.1-.1.4.6.4.9.1 1.2-.1 1.2-.1z" fill-rule="evenodd"/><path d="m10.2 14.4 1 .7q0 0 0 0l-.6.8q0 0 0 0l-1-.7q0 0 0-.1l.6-.7q0 0 0 0z"/><path d="m45.8 10.7.9.7q.1 0 .1.1l-.6.7q0 .1-.1.1l-.9-.7-.4.6q-.1.1-.1.1l-.9-.7q-.1-.1-.1-.1l.6-.7q0-.1.1-.1l.9.7.4-.6q.1-.1.1-.1z"/><path d="m63.2 10.8s0 .2-.1.4c-.3.8-.1 1.2-.1 1.3.2.4.5.2.7-.2 0-.1.1 0 0 0q0 .1 0 .3c-.2.5-.4.6-.5.6-.3 0-.5-.4-.5-.6 0-.9.3-1.7.4-1.9s.2-.1.1.1z"/><path d="m54 10.3s-.1.3-.2.4c-.3.9-.1 1.3-.1 1.4.3.5.6.2.7-.1.1-.2.1-.1.1 0q0 .1 0 .3c-.2.5-.4.6-.6.6-.3 0-.5-.4-.5-.6 0-1 .4-1.8.5-2.1.1-.2.1-.1.1.1z"/><path d="m26.4 14.6c-.1.3-.3.9-.3.9s-3.7 1.9-4.3 2.2c-1.1.5-2 .8-2.6 1.1v.5c-.2 1.6-2 2.9-2.4 3.3-2.8 2-4.3 1.1-4.7.8-1.4-.9-.9-3.6-.6-4.4q0 0 0-.1c-2.3 1.4-3.7 1.1-4.3.9-3.1-.9-2.1-4.8-1.7-5.7-.3-.2-.5-.7-.5-1-.1-1.6.5-2.9.6-3.3.2-.4.3-.3.2.1 0 0-.1.4-.2.7-.4 1.5-.2 2.1-.1 2.3.3.7.8.3 1-.2.1-.3.1-.2.1 0 0 0 0 .2-.1.4-.2.9-.5 1.1-.8 1.1q0 0 0 0c-.7 2.2.1 3.3.2 3.5 1.1 1.5 3.1 1 3.5.9 3-.8 4.7-2.6 4.9-2.9s0-.6-.1-.8-.7-1.4-1-2.2c-.1-.3-.3-1-.3-1 0-.1.2-.8.3-.9 0-.1 0-.1.1 0v.2c.1.1.9 1.1 1 1.2.2.2 0 .3 0 .2q-.2 0-.5-.1s1 2.1 1.1 2.4c.4 1.7-1.2 2.7-1.5 3q-.8.6-1.5 1 0 .1 0 .2c-.5 1.4-.2 2.6-.1 2.7.7 1.3 2 1.2 2.3 1.2 2.1-.3 4.4-3 4.6-3.2.1-.2.1-.4 0-.5q0 0-.1-.1-.4.1-.6.1c-1.2.3-1.8 0-2.1-.4-.5-.8.1-1.9.5-2.2 1.1-.7 1.9.4 2.1.6q.3.4.4.7c.6-.2 1.5-.6 1.5-.6-1.2-.5-1.9-1.6-2.2-2-.5-1 .1-2.1.3-2.5.3-.6 1.5-1.2 2.6-1.3.4-.1.9-.1 1.3 0 .7.1 1.3.4 1.5.5.2.3 0 .3-.3.2-2.5-.6-4.9 1.2-5 1.4-.1.1-.2.1-.1.4.3.8 1.3 1.6 1.5 1.8 1.4.9 2.4.6 2.8.5s3.3-1.8 3.5-1.9c.2 0 .2.1.1.3zm-8.5 3.4q-.3-.3-.6-.5c-.3-.1-.6 0-.8.1s-.1.3 0 .4c.2.1.9.1 1.4 0z" fill-rule="evenodd"/><path d="m10.6 7.4c.1.2.1.5 0 .8 0 .1-.2 0-.3-.1 0 0-.1-.2-.2-.2-.4-.4-.6.3-.6.7v1.5q-.1.1-.1.1c0 .4-.1.9-.7 1.4-.8.6-.9.6-1 .6 0 .1-.1 0 .1-.1 0-.1 1.6-1.5 1.4-2.1-.3-.8-.9-1.3-1-1.3-.1-.2-.2 0-.2.1h-.1c-.1 0-.4-.2-.5-.3s-.1-.5-.1-.7.2-.3.3-.3c1.1.6 1.6 1.7 1.6 1.9.1-.8 0-1.6.5-2.2.3-.5.9.1.9.2z"/><path d="m14.7 6.9s-.1.3-.1.5c-.3 1.2-.1 1.8-.1 1.9.4.5.8.2.9-.2.1-.3.2-.2.1-.1q0 .2 0 .4c-.2.7-.4.9-.7.9-.4 0-.6-.5-.6-.8-.2-1.3.3-2.4.4-2.7s.2-.2.1.1z"/><path d="m25 6.9s-.1.3-.2.5c-.3 1.2 0 1.8 0 1.9.4.5.8.2.9-.2 0-.3.1-.2.1-.1q0 .2 0 .4c-.2.7-.5.9-.7.9-.4 0-.6-.5-.7-.8-.1-1.3.3-2.4.4-2.7s.2-.2.2.1z"/><path d="m53.2 6.5c-.1.1-.1.2-.2.3 0 .2-.1.2-.3.3s-5 2.9-5.1 3c-.3.2-.3 0-.2-.1q0 0 0-.2c.1-.2.1-.2.3-.3.2-.2 5-2.9 5.2-3.1.3-.1.3 0 .3.1z"/><path d="m59 6.8c.2.2.1.6 0 .8s-.2 0-.3-.1c0 0-.1-.1-.2-.2-.5-.4-.7.4-.8.7 0 .3-.1 1.2-.1 1.8-.1.2-.2.2-.3 0-.3-1.1-1-1.7-1.1-1.8s-.2.1-.2.2h-.1c-.1 0-.4-.3-.6-.4-.1-.1 0-.5 0-.7 0-.3.2-.4.3-.4 1.3.8 1.7 2 1.8 2.2 0-.9.1-1.8.6-2.4.4-.5 1 .2 1 .3z"/><path d="m63.8 8.9c0 .1-.1 0-.2-.1 0-.1-.2-.3-.3-.3-.3.4-.2.4-1 1.1-1.8 1.6-3.8 2.1-3.9 2.1-.1.1-.1 0 .1-.2.6-.4 3.1-1.6 4.4-3.2 0 0-.4-.1-.7-.3-.2-.2-.1-1 .1-1.3.5-.7.9-.3 1-.2.5.7.2 1.5.2 1.5.3.1.5.4.3.9zm-.8-2c-.1 0-.2 0-.5.3-.1.1 0 .3.2.3.2.1.5.3.5.3 0-.1.1-.6-.2-.9z" fill-rule="evenodd"/><path d="m21.7 9.1c-.1.1-.1 0-.2-.1s-.5-.4-.5-.4-1 1.8-2.1 2.6c-1.4 1-2.5 1.4-2.5 1.4-.2.1-.2-.1 0-.2.8-.5 2.9-2.1 4.3-3.9 0 0-.5-.2-.8-.4s-.1-1 .1-1.4c.6-.8 1-.4 1.1-.3.5.9.2 1.7.2 1.7.3.1.6.4.4 1zm-1-2.1c-.1-.1-.2-.1-.5.3-.1.1 0 .2.2.3s.6.3.6.3c0-.1.1-.6-.3-.9z" fill-rule="evenodd"/><path d="m33.3 15.2s-.1.3-.1.4c-.3.9-.1 1.3-.1 1.4.3.4.7.1.8-.2 0-.2.1-.1.1 0q0 .1-.1.3c-.1.5-.3.6-.5.7-.4 0-.6-.5-.6-.7-.1-.9.3-1.7.4-1.9.1-.3.1-.2.1 0z"/><path d="m35.6 12.4c-.1.1-.1.1-.2.2-.1.2-.2.2-.3.3-.2.1-5.7 2.5-5.8 2.5-.3.2-.3.1-.2 0q0 0 0-.3c.1-.1.2-.1.4-.2.2-.2 5.6-2.5 5.8-2.6.3-.2.3-.1.3.1z"/><path d="m30.9 10.3s-.1.2-.2.4c-.4.8-.3 1.2-.3 1.3.2.5.5.3.7 0 .1-.2.1-.1.1 0q0 0-.1.2c-.2.5-.4.6-.6.6-.3 0-.4-.5-.4-.7 0-.9.5-1.7.7-1.9.1-.2.1-.1.1.1z"/><path d="m33.4 6.8s-.1.4-.2.6c-.3 1.2-.1 1.7 0 1.8.3.6.7.3.9-.2 0-.2.1-.1.1 0q0 .1-.1.4c-.1.7-.4.9-.6.9-.4 0-.7-.6-.7-.9-.1-1.2.3-2.3.4-2.6.1-.4.2-.2.2 0z"/><path d="m30.1 6.6s0 .3-.1.4c-.2.8-.1 1.2-.1 1.2.3.4.5.2.7-.1 0-.1.1 0 0 0q0 .1 0 .3c-.2.5-.3.6-.5.6-.3 0-.4-.4-.4-.6-.1-.9.3-1.6.3-1.8.1-.2.2-.1.1 0z"/><path d="m39.9 20.2c-.3.4-.5.5-.9.4-.9-.1-1.4-.9-1.7-1.5q-.2 0-.3.1c-.3.1-1.6.7-2.4 1-2.7 1-4.7.3-5 0-3-2.1-1.4-7.9-3-12.9 0 0 .3-.8.3-.9.1-.1.1-.3.3 0 1.2 3.1.7 9.8 1.6 11.4 1.2 2.3 3.7 1.8 4.1 1.7 1.3-.1 3.1-1 4-1.4-.4-1.5-.7-3.7-.8-4.6-.1-1-.5-4.6-.5-4.6q-.1-.7-.2-1.2c0-.4-.1-.6-.1-.7 0 0 .3-.8.4-.9 0-.1.1 0 .1.1s1.1 2.7 1.2 2.9c0 .1-.1.2-.2.1 0-.1-.6-.7-.6-.7s.4 3.6.5 4.1c0 .5.5 3.7.6 4.3q.2.5.3.9c1.6-.7 2.3.1 2.4.3.5.7 0 1.9-.1 2.1zm-.3-1c-.4-.5-.8-.5-1-.5q-.2 0-.4 0 0 .2.1.2c.3.4.9.6 1.2.6.2 0 .2-.2.1-.3z" fill-rule="evenodd"/><path d="m40 6.2s1.1 2.8 1.2 2.9c0 .2-.1.2-.1.1-.1-.1-.7-.6-.7-.6s1 7.4 1.1 7.6q.2 2.2.2 3.3c-.1.9-.2 1.2-.3 1.3-.1.2-.1.1-.1-.1 0-.5-.1-1.5-.3-2.6-.3-2.2-1.2-9.3-1.4-10.5 0-.1-.1-.5-.1-.6 0 0 .3-.8.4-.9 0-.1 0 0 .1.1z"/><path d="m45.6 8.6c-.1.1-.1 0-.2-.1-.1 0-.4-.3-.4-.3s-.4.8-1.1 1.3c-1.1.9-2.2 1.1-2.2 1.1-.2 0-.2-.1 0-.2.8-.4 1.7-.7 3-2.3 0 0-.4-.2-.7-.4s-.2-.9 0-1.2c.5-.8 1-.4 1.1-.3.4.7.2 1.5.2 1.5.2.1.4.4.3.9zm-.9-1.9c-.1-.1-.2-.1-.5.3 0 .1 0 .2.2.3.2 0 .6.2.6.2 0-.1 0-.5-.3-.8z" fill-rule="evenodd"/></g></svg>