<svg height="30" viewBox="0 0 70 30" width="70" xmlns="http://www.w3.org/2000/svg"><g fill="#191c4f"><path d="m40.7 23.1c-.1.1-.1.1-.1.2-.1.1-.2.1-.3.2-.1 0-1.6.5-1.7.5-.2.1-.1 0-.1 0q0-.1.1-.2c0-.1 0-.1.2-.2.1-.1 1.6-.5 1.7-.6.3 0 .2 0 .2.1z"/><path d="m39.9 21.3c.1.1 0 .2 0 .2 0 .1-.1.2-.2.3q-.1.1-.1 0c-.1-.2-.3-.2-.5-.1s-.2.2-.1.3c0 .1.3.3.5.4.2 0 .7-.1.9-.2.2-.2.1.1 0 .2 0 0-.1.2-.2.2-1 .2-1.3.6-1.5.6-.1.1-.1 0-.1 0 0-.1 0-.1.1-.2q.1-.2.2-.2 0 0-.3-.3c-.3-.3.4-1 .8-1.2.3-.3.5 0 .5 0z"/><path d="m32.6 20.1s-.1.2-.2.3c-.3.8-.1 1.2-.1 1.3.2.4.5.2.7-.1 0-.2.1-.1 0 0q0 .1 0 .2c-.2.5-.4.6-.5.6-.3 0-.5-.4-.5-.6 0-.9.4-1.6.5-1.8 0-.2.1-.1.1.1z"/><path d="m26.5 20.1s-.1.2-.2.3c-.4.8-.2 1.2-.2 1.3.2.4.6.3.7-.1.1-.1.2 0 .1 0q0 .1 0 .3c-.2.5-.5.6-.6.6-.4 0-.5-.5-.5-.7 0-.9.4-1.6.6-1.8.1-.2.1-.1.1.1z"/><path d="m64.3 19.3v.4c0 .2-.1.5-.2.8-.1.2-.6.3-1 .1-.6 1-1.2.5-1.5.4-.6-.3-.8.1-.9.3-.7.8-2.1.8-2.4.8s0-.2.1-.2c1-.4 1.7-.5 2.6-1.3.4-.4.7-.3.8-.2.9.4 1 0 1.1-.1.2-.1.3-.6.4-.7 0-.1.1 0 .1.1s-.1.2-.1.3c.4.3.7.1.8 0 0 0 0-.3 0-.4q-.1-.1.1-.4c.1-.3.1-.1.1.1z"/><path d="m20.7 19c-.1.1-.1.2-.2.3-.1.2-.2.2-.3.3-.2.1-4.5 1.8-5 2-.6.3-.6.6-.4.6.3.2.5.5.2.9q0 .1 0 0c-.1-.1-.2-.2-.4-.2-.3-.1-.3-.6-.2-1 .1-.3.3-.6.6-.7.5-.3 5.3-2.2 5.4-2.2.4-.2.3-.1.3 0z"/><path d="m48.2 18.1c-.3.8-1.5 1.3-1.8 1.4-1.1.3-1.1-.7-1.1-1.5.1-.8.7-1.8.7-1.8-.1-.1-1.2-1-1.3-1.1s-.2-.2-.3-.3c-.1 0-.1-.1-.1-.1s0-.8 0-.9.1 0 .1 0c.1 0 1.4.5 1.5.6s.1.2 0 .2c0 0-.5.1-.5.1l1.1.7s1.4-1.8 1.5-2c.2-.2.1-.1.1.1s-.3 1-.4 1.1c0 .1-.8 1.1-.8 1.1s1 .6 1.2.9c.4.6.2 1.2.1 1.5zm-1.8-1.7s-.6 1.1-.7 1.3c-.3.7.3.8.6.8.2-.1 1.1-.5 1.5-.8.4-.4-1.2-1.1-1.4-1.3z" fill-rule="evenodd"/><path d="m10.2 17.1s-.1.2-.2.4c-.3.8-.2 1.2-.2 1.3.3.4.6.2.8-.1 0-.2.1-.1.1 0q-.1.1-.1.2c-.2.5-.4.6-.6.6-.4 0-.5-.4-.5-.6 0-.9.5-1.7.6-1.9s.2-.1.1.1z"/><path d="m33.3 12.9s0 .2-.1.4c-.2.7-.1 1-.1 1.1.2.3.5.1.6-.1 0-.2.1-.1 0 0q0 0 0 .2c-.1.4-.3.5-.4.5-.3 0-.4-.4-.4-.5-.1-.8.3-1.4.3-1.6.1-.2.2-.1.1 0z"/><path d="m65.6 17.1c0 .2-.3 1-1.4.7-.3 0-.9-.1-1.1-.8-.3.4-1 1.5-2.3 1.3-.3-.1-1.2-.4-1.2-1.6 0 0-1.1.9-1.6 1.2 0 .4 0 .9-.2 1.4s-2.5 3.2-4.4 3.6c-.7.1-3.1.6-3.2-2.1q0-.9.1-1.4c-1.5 1.2-3.3 2.1-3.9 2.4-.8.3-3.5.8-4 .9-.4 0-.4 0-.2-.2.2-.1 6.4-2.1 9.5-5.5q.2-.2 0-.4c-.1-.2-1.1-2.1-1.2-2.4-.1-.2-.2-.5-.2-.6q-.1-.2-.1-.3c0-.1.1-.6.2-.8 0-.1.1 0 .1.1.1 0 1.1 1 1.2 1.2.1.1 0 .2 0 .2-.1 0-.5 0-.5 0s.6 1.1.8 1.5c.4.9.2 1.7.1 2-.3.6-.9 1.1-1.5 1.7-.1.4-.3 2.7 1.8 2.7.3 0 1.3.2 3.5-1.5.4-.4 1-.9 1.5-1.6.2-.2.3-.7-.1-.7-.3.1-2.5.9-2.8-.4-.1-.4.1-3.5 2.2-2 .2.2.7.6 1 1.2.3-.2 1-.6 1.8-1.2.3-.2.5-.3.5-.1 0 .3-.2 2.1 1.8 1.6.2-.1 1-.2 1.6-1.8.2-.3.4-.3.3 0-.2.4-.4.7-.2.9s.8.6 1.4.5c.3 0 .4-.1.3-.3 0-.2-.3-.6-.3-.6.1-.3.2-.7.2-.8s.1-.2.1-.1c.1.1.8 1 .4 2.1zm-8.9.1c-.6-1-1.5-.5-1.6-.3-.1.1-.1.3.5.4.9 0 1.1-.1 1.1-.1z" fill-rule="evenodd"/><path d="m29.6 12.5.9.6q0 0 0 .1l-.5.7q0 0-.1 0l-.8-.6q-.1-.1-.1-.1l.6-.7q0 0 0 0z"/><path d="m9.9 12.3s-.1.2-.2.4c-.4.8-.2 1.2-.2 1.3.3.4.6.2.8-.1 0-.1.1-.1 0 0q0 .1 0 .3c-.2.4-.5.6-.6.5-.4 0-.5-.4-.5-.6 0-.9.4-1.6.6-1.9.1-.2.1-.1.1.1z"/><path d="m21.4 15.4c-.1.5-.3 1-.5 1.2-.2.1-3 2.1-6.5 1.1q0 .3 0 .4c-.1 1.3-.6 1.8-.9 2 0 0-2.7 2.2-5.2 2.3-2.9.1-3.3-2.3-3.3-2.7-.1-1.6.4-2.9.7-3.5q0-.1 0-.1-.1-.3-.1-.4c-.2-1.7.4-3.1.5-3.5s.2-.2.2.1c0 0-.1.5-.2.8-.4 1.5-.1 2.2 0 2.3.4.7.8.3 1-.3.1-.3.2-.1.1 0q0 .2 0 .5c-.2.9-.5 1.2-.8 1.2-.2 0-.4-.2-.5-.3q0 0 0 .1c-.2.5-.3.8-.4 1.3-.3 2.1.9 2.9 1.2 3 2.2 1.2 5-.6 5.4-.8 1.7-.9 1.8-1.5 1.9-1.8 0-.4-.6-1.8-.9-2.3 0 0 .1-.5.2-.7 0-.1 0-.3.1-.1q.3.5.6 1.1c.1.1.4.3.9.5.5-.8 1.3-1.9 1.5-2.2.3-.3 1.5-1.9 3-1.5.7.2 1.5.8 1.9 1.3.1.3.3.6.1 1zm-.7 0c-1.4-1.7-2.4-1.4-2.9-1.2s-1.7 1.1-2.4 2.7c.8.1 2 .1 3.7-.4.7-.2 2-.7 1.6-1.1z" fill-rule="evenodd"/><path d="m47 11.4.9.7q0 0 0 0l-.5.7q-.1.1-.1.1l-.8-.7-.5.6q0 .1-.1.1l-.8-.7q-.1 0 0 0l.5-.8q0 0 0 0l.9.7.4-.7q.1 0 .1 0z"/><path d="m63.4 11.5s-.1.2-.1.3c-.3.8-.2 1.2-.1 1.2.2.4.5.2.6-.1 0-.1.1 0 .1 0q-.1.1-.1.3c-.1.4-.3.6-.5.6-.3-.1-.4-.4-.4-.6-.1-.9.3-1.6.4-1.8s.1-.1.1.1z"/><path d="m54.7 11s-.1.3-.2.4c-.2.9-.1 1.2-.1 1.3.3.4.6.2.7-.1.1-.1.1-.1.1 0q0 .1-.1.3c-.1.5-.3.6-.5.6-.3 0-.4-.4-.4-.6-.1-.9.3-1.7.4-1.9.1-.3.1-.2.1 0z"/><path d="m29.9 10c.5.1.4.3.3.5-.4.5-.9.8-1.3.9-.3.2-.1-.1.1-.2 0 0 .2-.2.5-.4s-.5-.2-.9-.2-.4.1-.6.2c-.1.2-.2.1-.1-.1.1-.1.2-.3.4-.6.3-.3 1.1-.2 1.6-.1z"/><path d="m14.7 8.2s-.1.4-.2.6c-.3 1.2-.1 1.7 0 1.8.4.6.9.3 1-.2.1-.2.2-.1.2 0q-.1.1-.1.4c-.2.7-.5.9-.8.9-.5 0-.7-.5-.7-.8-.2-1.3.3-2.4.4-2.8.2-.3.3-.1.2.1z"/><path d="m36 7.7s-.1.2-.1.4c-.3.8-.2 1.2-.2 1.3.3.4.6.2.7-.1.1-.2.1-.1.1 0q0 .1 0 .2c-.2.6-.4.7-.6.7-.3 0-.4-.5-.5-.7 0-.9.4-1.7.5-1.9s.2-.1.1.1z"/><path d="m53.9 7.5c0 .1 0 .1-.1.2-.1.2-.2.2-.3.3-.2.1-4.7 2.8-4.8 2.8-.3.2-.3.1-.2 0q0-.1 0-.3c.1-.1.1-.1.3-.3.2-.1 4.7-2.7 4.9-2.8.3-.2.2 0 .2.1z"/><path d="m59.4 7.7c.1.2.1.6 0 .8-.1.1-.2 0-.3-.1 0 0-.1-.1-.2-.2-.5-.4-.7.3-.7.7 0 .3-.1 1.1-.2 1.6 0 .2-.1.2-.2.1-.3-1.1-.9-1.6-1-1.7s-.2 0-.2.1-.1.1-.1 0c-.1 0-.4-.2-.6-.3-.1-.1 0-.5 0-.7 0-.3.2-.4.3-.3 1.2.7 1.6 1.9 1.7 2 0-.9.1-1.7.5-2.3.4-.5 1 .3 1 .3z"/><path d="m11 7.7c.1.2.1.5 0 .7s-.2 0-.3-.1c0 0-.1-.1-.2-.2-.4-.4-.6.4-.6.7-.1.3-.1 1.1-.2 1.5 0 .2-.1.2-.2.1-.3-1-.9-1.5-1-1.6q0 0 0 0 .1.1 0 .3c-.2 1.3-1.5 1.8-1.7 1.9q-.3.2 0-.1c.2-.3 1.2-1.3 1.4-1.5.4-.4-.4-.7-.5-.8s0-.5 0-.7.2-.3.2-.3c1.2.7 1.6 1.8 1.6 2 .1-.8.1-1.6.6-2.2.4-.5.9.2.9.3z"/><path d="m63.9 9.7c0 .1-.1 0-.1-.1-.1-.1-.2-.2-.4-.3-.2.4-.2.4-.9 1.1-1.7 1.4-3.6 1.9-3.6 2-.2 0-.2-.1 0-.2.6-.5 3-1.5 4.2-3 0 0-.4-.2-.6-.4-.3-.2-.2-.8 0-1.1.5-.8.9-.4 1-.3.4.7.2 1.4.2 1.4.2.2.4.4.2.9zm-.7-1.8c-.1-.1-.3-.1-.5.2-.1.1 0 .2.2.3.1.1.5.2.5.2 0-.1 0-.5-.2-.7z" fill-rule="evenodd"/><path d="m41.8 7.1c.1.1 1 2.7 1.1 2.9 0 .1-.1.2-.2.1 0-.1-.5-.6-.5-.6s.7 7 .7 7.2q.2 2 .1 3c-.1.8-.2 1.2-.3 1.2 0 .2-.1.1-.1 0 0-.5-.1-1.5-.2-2.5-.2-2.1-.9-8.8-1-9.9 0-.2-.1-.5-.1-.6 0 0 .4-.7.4-.8.1-.1.1-.1.1 0z"/><path d="m46.8 9.4c-.1.1-.1.1-.2-.1-.1 0-.4-.3-.4-.3s-.3.8-.9 1.3c-1.2.8-2.1 1-2.2 1s-.1-.1 0-.2c.8-.4 1.6-.7 2.8-2.2 0 0-.4-.1-.6-.3-.3-.2-.1-.9 0-1.2.5-.7.9-.3 1-.2.4.7.2 1.4.2 1.4.2.1.4.4.3.8zm-.8-1.8c-.1 0-.2-.1-.5.3-.1.1 0 .2.2.3.1 0 .5.2.5.2 0-.1.1-.5-.2-.8z" fill-rule="evenodd"/><path d="m36.3 16.7-.3 1s-1.1-.2-3 1.1c-1.6 1-3.1 1.3-3.8 1.4q-.2 0-.4-.1c0 .5-.2.7-.2.8-.1.1-.2.1-.1-.2q0-.2-.2-.6c-1.9-.5-2.2-2.8-2.2-2.8-.6 2.4-2.5 3.5-3.1 3.7-.5.3-2.4.8-2.7.9-.4.1-.3 0-.1-.2 3.3-1.7 4.6-3.1 5.2-4.1q0-.5-.3-1c-.9-1.8-3.4-3.6-3.6-3.8-1.4-1.1-3-3.4-3.1-3.6-.1-.1-.2-.2-.3-.2-.1-.1-.1-.2-.1-.4 0-.1-.1-.7 0-.9 0-.1 0-.1.1 0 .1.2 1.8 1.4 2 1.6.3.2.1.2-.1.2-.1 0-.4-.1-.6-.2 0 0 .4.5.7 1 .7.8 2 2 2.3 2.2.3.4 1.8 1.5 2.5 2.5.6.7.7 1.5.7 2.1.3-.7.2-1.1.2-1.3 0-.4-.8-6.7-.9-7.2s.1-1.3.2-1.4c.1-.2.1-.4.2-.1.3.9.8 5.3.9 6.1.1.7.5 3.8.6 4.3.2.6.6 1 1.1 1.3q-.1-.3-.2-.5c-.4-1.1-.3-1.3.2-2.1.5-.9.9-.9 1.2-1 1.3-.1 3.9.7 4.9 1.1 1 .3 2.3.4 2.3.4zm-2.4.6s-2.9-1.2-5.2-1c-.7.1-.7.7-.7.9.1.2.5 1.2.6 1.7q0 0 .1.1c.6.1 1.2 0 1.6-.1.8-.2 3.1-1.3 3.6-1.6z" fill-rule="evenodd"/><path d="m38.8 7c.1.1 1.1 2.8 1.1 2.9 0 .2-.1.2-.1.1-.1-.1-.6-.6-.6-.6s.6 4.7.7 5.8c.4 2.7-.2 3.8-.5 4.4-1.2 2.7-4.3 2.8-4.8 3-.6.1-.6-.1-.3-.2 2.9-1.1 4.2-2.4 4.8-3.3q0-.6-.3-1.2c-.9-1.9-3.4-3.9-3.6-4.1-1.4-1.3-2.9-3.7-3-3.9-.1-.1-.2-.2-.3-.3s-.1-.1-.1-.3 0-.9 0-1 0-.1.2 0c.1.2 1.8 1.5 2 1.8.2.2.1.2-.1.2-.1-.1-.4-.2-.6-.3 0 0 .3.6.6 1 .7 1 2 2.3 2.3 2.6s1.8 1.6 2.5 2.6c.6.9.7 1.8.7 2.4q.1-.2.1-.3c.2-.7-.9-8.2-.9-8.2 0-.6-.1-1.2-.2-1.6 0-.4-.1-.6-.1-.7 0 0 .4-.7.4-.8.1-.1.1-.1.1 0z"/><path d="m27.5 5.2c0 .1 0 .1-.1.2-.1.2-.2.2-.4.3-.1.1-4 1.6-4.6 1.8-.6.3-.5.5-.4.6.4.2.5.5.3.9q-.1 0-.1 0c0-.1-.1-.2-.3-.3-.3 0-.4-.5-.2-.9.1-.3.3-.6.5-.7.5-.3 4.9-2 5.1-2 .3-.2.3-.1.2.1z"/></g></svg>