<svg height="30" viewBox="0 0 70 30" width="70" xmlns="http://www.w3.org/2000/svg"><g fill="#191c4f"><path d="m11.7 26.2c0 .1 0 .1-.1.3-.2.3-.2.2-.4.3s-3 1.1-3.1 1.1c-.3.1-.3.1-.3 0q0-.1.1-.3c.1-.2.1-.3.4-.4.2 0 3-1 3.2-1.1.3-.2.3 0 .2.1z"/><path d="m11.7 24.8c0 .1 0 .2-.1.3-.2.3-.2.3-.4.4s-3 1-3.1 1.1c-.3.1-.3 0-.3-.1q0 0 .1-.3c.1-.2.1-.2.4-.3.2-.1 3-1.1 3.2-1.2.3-.1.3 0 .2.1z"/><path d="m27.6 22.3s-.1.4-.2.7c-.4 1.4-.1 2.1 0 2.2.4.7.9.3 1.1-.3.1-.2.2-.1.1 0q0 .2 0 .5c-.2.8-.6 1.1-.8 1.1-.6 0-.9-.7-.9-1-.2-1.6.4-2.9.5-3.3.2-.4.3-.2.2.1z"/><path d="m63.7 21.7v.7c0 .2-.2.6-.3 1s-1 .6-1.5.2c-1 1.5-1.8.7-2.3.6-.8-.4-1.1.2-1.3.4-1 1.2-3 1.2-3.4 1.2-.5.1-.1-.2.1-.3 1.5-.6 2.4-.6 3.8-1.9.6-.6 1-.3 1.2-.3 1.3.6 1.5.1 1.6-.1.2-.1.4-.8.5-1s.2-.1.2.1c0 .1-.1.4-.1.5.5.4 1 0 1.1-.1 0 0 0-.4 0-.5q0-.2.1-.7c.2-.3.2 0 .3.2z"/><g fill-rule="evenodd"><path d="m40 19.9c-.4 1.3-2.2 2-2.6 2.1-1.6.5-1.7-1.1-1.6-2.2.1-1.2.9-2.7.9-2.7s-1.7-1.4-1.9-1.5c-.1-.1-.2-.3-.4-.4s-.1-.2-.1-.2 0-1.2 0-1.3c0-.2.1-.1.2 0 .1 0 2 .7 2.1.8.2.1.2.3.1.3s-.7.2-.7.2l1.5 1.1s2-2.8 2.2-3c.2-.3.2-.1.2.1-.1.3-.5 1.5-.6 1.6-.1.2-1.1 1.7-1.1 1.7s1.4.8 1.7 1.3c.6.9.2 1.7.1 2.1zm-2.6-2.4s-.9 1.6-1.1 1.9c-.4 1 .5 1.1.9 1.1.3 0 1.6-.7 2.2-1.1.6-.5-1.7-1.7-2-1.9z"/><path d="m32.4 18.8c-.2 1.8-.7 2-1.1 2.1-1.1.3-4.4-.4-4.9-.6-.4-.1-1.9.6-2.7.8q0 .3 0 .5s-.2 1.6-1.1 2.5c-4.8 4.2-7.8 2.9-8.1 2.7-2.2-1.2-.9-4.7-.6-5.5q0-.1 0-.1c-1.4.9-3.6 2.3-4.1 2.6-2.3 1.5-3.2 1.4-3.7 1.2-2.4-1.2-.3-5.8.2-7.1q.1-.4.3-.6c-.6-.1-.8-.7-.9-1.1-.2-1.6.5-3.1.6-3.5.2-.4.3-.2.2.1 0 0-.1.5-.2.8-.5 1.5-.1 2.2 0 2.3.5.8 1 .3 1.2-.2.1-.3.2-.2.2-.1q0 .2-.1.5c-.1.7-.4 1-.6 1.1-1.8 3.6-1.5 4.6-1.4 5 .4 1.8 1.7 1.3 2.1 1.1 2.5-1.1 6.3-3.7 7-4.1.7-.5.4-.7.3-.8-.5-.7-2.5-1.7-3-1.9-1.7-.8-3.3-2.6-3.5-2.9 0 0 .1-1.2.1-1.4.1-.3.2-.1.3 0 .4.3 1.9 1 2.1 1.1s.1.2 0 .2c-.1.1-.7.2-.7.2s1.6 1.1 4 2.2c1.3.8 1.3 1.7 1.4 2.1.2 1.5-.3 2.1-.5 2.3-.1.1-.4.3-.9.6q.1.1 0 .2c-.1.3-.3 1-.3 1.4-.8 2.9 2.1 3.2 2.5 3.2 3.2-.1 6.2-3.4 6.5-3.9.4-.5-.3-.4-.5-.3-1.1.2-1.8 0-2.3-.1-1.4-.6-1.3-2.5-.3-3.5 1.1-1.1 1.9-.5 2.8.5q.6.7.8 1.3c1.1-.2 1.6-.6 1.6-.6-.8-2.3 1-4.3 1.2-4.5 0 0-.1 0-.2 0 0-.1.1-1.3.1-1.3s2 .7 2.3.8c.2.1.1.3-.1.3-.1.1-.3.1-.6.2.2.3 2.7 1.4 3.1 1.7 1.6 1 1.5 1.9 1.5 2.5zm-10.2 1.1c-.5-1.4-1.7-1-1.9-.9-.2.2-.6.7.4.9 1.1.3 1.5 0 1.5 0zm5.9-2.6c-.3-.9-1.1-2-1.6-1.5-.4.5-1.3 1.5-.9 1.9s.9.9 1.3.7c.4-.1 1.5-.4 1.2-1.1zm3.6 1.5c-.9-1.2-2.6-1.7-2.8-1.7 0 0 0 .4-.2 1-.1.4-.5 1-.5 1 1.1.3 2.3.3 3.1.2.8 0 .5-.4.4-.5z"/><path d="m65.6 18.5c-.1.2-.4 1.4-2.1 1.1-.5-.1-1.3-.3-1.7-1.2-.4.5-1.4 2.1-3.3 1.8-.4 0-1.8-.5-1.8-2.2 0 0-1.6 1.2-2.4 1.6.1.7.1 1.4-.2 2.1-.3.8-3.7 4.7-6.5 5.3-1 .2-4.5.8-4.7-3.1 0-.9.1-1.5.1-2-2.2 1.8-4.8 3.1-5.6 3.4-1.1.6-5.2 1.3-5.9 1.4-.5.1-.6 0-.3-.2s9.3-3.2 14-8.2c.1-.1.1-.3 0-.6-.1-.2-1.6-3-1.8-3.4-.1-.4-.3-.8-.4-1q-.1-.2 0-.4c0-.2.1-.9.2-1.1 0-.2.1-.1.2 0 .1.2 1.6 1.6 1.8 1.8.1.2 0 .3-.1.3h-.7s.9 1.7 1.2 2.3c.6 1.3.3 2.4.1 2.9-.5.8-1.3 1.7-2.2 2.4-.1.7-.4 4 2.6 4.1.5 0 2.1.2 5.1-2.3.8-.6 1.6-1.3 2.3-2.3.2-.4.4-1-.1-1-.5.1-3.7 1.3-4.2-.7-.1-.5.2-5.1 3.3-2.8.3.2 1 .8 1.4 1.7.5-.3 1.5-.8 2.7-1.8.4-.3.7-.5.7 0 0 .4-.3 3 2.6 2.3.3-.1 1.5-.4 2.4-2.7.3-.5.6-.4.4 0-.2.6-.5 1.1-.2 1.4.3.2 1.1.8 2.1.7.3 0 .5-.2.4-.5s-.5-.9-.5-.9c.1-.3.3-.9.3-1.1 0-.1.1-.3.2-.1.1.1 1.1 1.3.6 3zm-13 .1c-1.1-1.4-2.3-.6-2.4-.4-.2.1-.3.5.7.6 1.2 0 1.7-.2 1.7-.2z"/></g><path d="m38.3 10.2 1.2.9q.1.1.1.1l-.8 1.1q0 0-.1 0l-1.2-.9-.7.9q0 0-.1 0l-1.3-1q0 0 0-.1l.8-1q0 0 .1 0l1.2.9.7-.9q0 0 .1 0z"/><path d="m62.3 10.3s-.1.3-.2.5c-.4 1.1-.2 1.6-.1 1.8.3.5.7.2.9-.2 0-.2.1-.1.1 0q0 .1-.1.3c-.2.7-.5.9-.7.9-.4 0-.6-.6-.6-.9-.1-1.2.4-2.2.5-2.5.2-.3.3-.2.2.1z"/><path d="m18.3 10.2s-.1.4-.2.7c-.5 1.5-.2 2.1-.2 2.3.4.7 1 .3 1.2-.2.1-.3.2-.1.1 0q0 .1 0 .4c-.3.9-.7 1.1-1 1.1-.5 0-.7-.7-.8-1.1-.1-1.6.6-2.9.7-3.3.2-.4.3-.2.2.1z"/><path d="m49.5 9.6s-.1.3-.2.6c-.4 1.2-.2 1.8-.1 1.9.3.6.8.3 1-.2 0-.2.1-.1.1 0q0 .1-.1.4c-.2.7-.5.9-.8.9-.4 0-.6-.6-.6-.9-.1-1.3.4-2.5.6-2.8.1-.3.2-.2.1.1z"/><path d="m9 4.6s-.2.5-.3.8c-.5 1.7-.2 2.4-.2 2.6.5.8 1.1.4 1.3-.2.2-.3.3-.2.2 0q0 .1-.1.5c-.3 1-.7 1.2-1 1.2-.6 0-.9-.8-.9-1.2-.2-1.8.6-3.4.8-3.8s.3-.2.2.1z"/><path d="m48.4 4.4c-.1.1-.1.2-.2.4s-.2.2-.4.4c-.3.1-6.9 4-7.1 4.1-.4.2-.3.1-.3-.1q0 0 .1-.3c0-.2.1-.3.4-.5.3-.1 6.9-4 7.2-4.1.4-.3.3-.1.3.1z"/><path d="m56.5 4.8c.2.3.1.8-.1 1.1-.1.2-.2 0-.4-.2 0 0-.2-.2-.3-.3-.7-.6-.9.5-1 1.1-.1.4-.1 1.6-.2 2.3-.1.3-.3.3-.4.1-.4-1.6-1.3-2.3-1.4-2.4-.2-.2-.3 0-.4.1 0 .1-.1.1-.2.1 0-.1-.5-.4-.7-.6-.2-.1-.1-.7-.1-1 0-.4.3-.5.4-.4 1.8 1 2.4 2.7 2.5 3 .1-1.3.1-2.5.8-3.4.6-.7 1.4.3 1.5.5z"/><path d="m63.1 7.6c-.1.2-.1.1-.3-.1-.1-.1-.2-.3-.5-.5-.3.6-.2.7-1.4 1.7-2.4 2.1-5.1 2.8-5.3 2.9-.1 0-.2-.1.1-.3.8-.7 4.4-2.2 6.2-4.4 0 0-.6-.3-1-.5-.4-.3-.2-1.3.1-1.7.7-1.1 1.3-.6 1.4-.4.6 1 .3 2.1.3 2.1.3.2.6.5.4 1.2zm-1.2-2.6c-.1-.1-.3-.1-.6.4-.1.1 0 .3.2.4.3.1.8.3.8.3 0-.1.1-.8-.4-1.1z" fill-rule="evenodd"/><path d="m37.9 7.2c-.1.2-.1.1-.3-.1 0-.1-.5-.4-.5-.4s-.5 1.1-1.4 1.8c-1.7 1.3-3.1 1.5-3.2 1.5s-.2-.1.1-.3c1-.6 2.3-1 4.1-3.2 0 0-.6-.2-1-.5s-.2-1.3.1-1.7c.7-1.1 1.3-.5 1.4-.4.6 1.1.3 2.1.3 2.1.3.2.6.6.4 1.2zm-1.2-2.6c-.1-.1-.3-.1-.6.4-.1.1 0 .3.2.4.3.1.8.3.8.3 0-.1.1-.7-.4-1.1z" fill-rule="evenodd"/><path d="m20.6 3.9c.1.2 0 .7-.2 1.1-.1.2-.2-.1-.4-.2 0 0-.1-.2-.3-.4-.6-.6-.9.5-1 1-.1.4-.2 1.6-.3 2.3-.1.3-.3.3-.3.1-.4-1.6-1.3-2.3-1.4-2.5q0 0-.1 0c.1.1.1.3.1.5-.4 2-2.4 2.6-2.8 2.8-.3.2-.3.1 0-.3.4-.3 1.9-1.8 2.2-2 .7-.7-.5-1.2-.6-1.4-.2-.1-.1-.7-.1-.9.1-.4.4-.6.5-.5 1.7 1.1 2.2 2.9 2.3 3.1.1-1.3.2-2.4 1-3.3.6-.7 1.3.4 1.4.6z"/><path d="m29.2 7.1c-.1.2-.2.1-.4-.1 0-.1-.6-.5-.6-.5s-1.4 2.6-3 3.8c-1.9 1.5-3.5 2.2-3.6 2.2-.2.1-.2-.1.1-.3 1.2-.7 4-3.3 6-5.9 0 0-.7-.2-1.1-.5-.5-.4-.3-1.5 0-2 .8-1.3 1.5-.7 1.6-.5.8 1.2.4 2.4.4 2.4.4.2.8.6.6 1.4zm-1.5-3c-.1-.1-.3-.1-.7.5-.2.2 0 .3.3.4.2.1.8.4.8.4.1-.2.1-.9-.4-1.3z" fill-rule="evenodd"/></g></svg>