<svg height="30" viewBox="0 0 70 30" width="70" xmlns="http://www.w3.org/2000/svg"><g fill="#191c4f"><path d="m16.5 22.6c0 .1-.1.1-.2.3 0 .2-.2.2-.4.3s-4 1.7-4.1 1.7c-.3.2-.3.1-.2 0q0-.1.1-.4c0-.1.1-.2.3-.3.3-.1 4-1.6 4.3-1.7.3-.2.3-.1.2.1z"/><path d="m26.9 21s-.1.2-.2.4c-.3 1-.2 1.4-.1 1.5.3.5.6.3.8-.1 0-.2.1-.1.1 0q-.1.1-.1.3c-.2.6-.4.7-.6.7-.4 0-.5-.5-.6-.7 0-1.1.4-2 .5-2.2.1-.3.2-.2.2.1z"/><path d="m34.3 20.2s-.1.3-.1.5c-.4.9-.2 1.4-.1 1.5.2.5.6.2.7-.1.1-.2.2-.1.1-.1q0 .1 0 .3c-.2.6-.4.8-.6.8-.4 0-.6-.5-.6-.8 0-1 .4-1.9.5-2.2.1-.2.2-.1.1.1z"/><path d="m64 19.4v.5c0 .3-.1.6-.3 1-.1.3-.8.4-1.2.1-.8 1.3-1.6.6-2 .5-.7-.3-.9.2-1.1.4-.9 1-2.5 1-2.9 1s-.1-.2.1-.3c1.3-.4 2.1-.5 3.2-1.6.5-.5.9-.3 1.1-.2 1 .5 1.2 0 1.3-.1.2-.2.4-.7.5-.9 0-.2.1-.1.1.1 0 .1-.1.3-.1.4.4.3.9.1 1 0 0 0 0-.4 0-.5q-.1-.1.1-.6c.1-.3.2 0 .2.2z"/><path d="m28.7 13.5 1 .8q.1 0 .1 0l-.7.9q0 .1-.1 0l-1.1-.8q0 0 0-.1l.7-.8q0-.1.1 0z"/><path d="m15.5 13.2s-.1.3-.2.5c-.3 1-.2 1.5-.1 1.6.3.5.7.3.8-.1.1-.2.1-.1.1 0q0 0 0 .3c-.2.6-.5.7-.7.7-.4 0-.6-.5-.6-.7 0-1.1.4-2.1.5-2.4.2-.2.3-.1.2.1z"/><path d="m10.8 12.6s0 .3-.1.6c-.3 1.2-.1 1.7 0 1.9.3.5.8.2.9-.3.1-.2.1-.1.1 0q0 .1 0 .4c-.2.7-.5.9-.7.9-.5 0-.7-.5-.7-.8-.2-1.3.3-2.5.4-2.8s.2-.2.1.1z"/><path d="m20.6 12.3c.8.1.6.4.4.7-.6.9-1.3 1.2-1.9 1.5-.5.2-.2-.2.1-.5 0 0 .3-.2.8-.5.5-.4-.8-.3-1.4-.3-.5-.1-.6.1-.8.3s-.4.1-.3-.1c.2-.2.3-.5.7-1 .4-.4 1.6-.2 2.4-.1z"/><path d="m43.8 17.9c-.3 1-1.9 1.6-2.2 1.7-1.4.5-1.5-.9-1.4-1.9s.8-2.2.8-2.2c0-.1-1.5-1.2-1.6-1.3s-.2-.3-.4-.4c-.1 0-.1-.1-.1-.1s0-1 0-1.2c.1-.1.1 0 .2 0 .1.1 1.7.7 1.8.8.2 0 .2.2.1.2s-.7.2-.7.2l1.3.9s1.8-2.4 2-2.6.1-.1.1.2c0 .2-.4 1.2-.5 1.3-.1.2-1 1.4-1 1.4s1.2.8 1.5 1.2c.5.7.2 1.4.1 1.8zm-2.2-2.1s-.8 1.4-.9 1.6c-.4.8.4 1 .7 1 .3-.1 1.4-.6 1.9-1s-1.4-1.4-1.7-1.6z" fill-rule="evenodd"/><path d="m65.6 16.6c-.1.2-.4 1.3-1.8 1-.4-.1-1.1-.3-1.4-1-.3.4-1.2 1.8-2.8 1.5-.4 0-1.5-.5-1.6-1.9 0 0-1.3 1.1-2 1.4.1.5 0 1.1-.2 1.8s-3.2 3.9-5.5 4.5c-.8.1-3.9.7-4-2.7 0-.7 0-1.2.1-1.6-1.9 1.4-4.2 2.6-4.8 2.9-1 .5-4.5 1-5.1 1.1-.4.1-.5 0-.2-.1.2-.2 7.9-2.8 11.9-7q.2-.2 0-.5c-.1-.2-1.3-2.6-1.5-2.9-.1-.3-.2-.7-.3-.8q-.1-.2-.1-.4c.1-.2.2-.8.2-.9.1-.2.1-.1.2 0s1.3 1.3 1.5 1.5c.1.2 0 .2 0 .2-.1 0-.7 0-.7 0s.8 1.4 1.1 1.9c.5 1.2.2 2.1 0 2.5-.3.8-1 1.5-1.8 2.1-.1.6-.4 3.4 2.2 3.5.4 0 1.7.2 4.4-2 .6-.5 1.3-1.1 1.9-1.9.2-.3.3-.9-.1-.8-.4 0-3.1 1-3.5-.6-.1-.5.1-4.4 2.8-2.4.2.1.8.6 1.2 1.4.4-.2 1.2-.7 2.3-1.6.3-.2.5-.3.5 0 0 .4-.2 2.6 2.3 2 .2-.1 1.3-.3 2-2.2.2-.5.5-.4.4 0-.2.4-.5.9-.2 1.1.2.2.9.7 1.8.6.3 0 .4-.2.3-.4-.1-.3-.4-.8-.4-.8.1-.3.2-.8.2-.9.1-.1.1-.2.2-.1s.9 1.1.5 2.5zm-11.1.1c-.9-1.1-1.9-.5-2-.3-.2.1-.2.4.6.5 1 0 1.4-.2 1.4-.2z" fill-rule="evenodd"/><path d="m42.3 9.6 1.1.8q.1 0 0 .1l-.6.8q-.1.1-.1.1l-1.1-.8-.5.7q-.1.1-.1.1l-1.1-.8q0-.1 0-.1l.6-.9q.1-.1.1 0l1.1.7.5-.7q.1-.1.1 0z"/><path d="m62.8 9.6s-.1.3-.2.5c-.3 1-.1 1.4-.1 1.5.3.5.7.2.8-.1.1-.2.1-.1.1 0q0 0-.1.2c-.1.6-.4.8-.6.8-.3 0-.5-.5-.5-.8-.1-1 .4-1.9.5-2.1.1-.3.2-.2.1 0z"/><path d="m51.9 9.1s-.1.3-.2.5c-.3 1-.1 1.5-.1 1.6.3.5.7.2.9-.2 0-.2.1-.1.1 0q-.1.1-.1.3c-.2.7-.5.8-.7.8-.3 0-.5-.5-.5-.7-.1-1.2.4-2.1.5-2.4s.2-.2.1.1z"/><path d="m29.2 9s.1.4.3.7c.1.2.2.5.1.9 0 .4-.2.7-.4.8-.3 0-.7 0-1-.4-.3.7-.8.9-1.1.7s-.3-.7-.3-.9c0-.1 0-.7 0-.8s0-.2.1-.4c0-.1.1-.1.1.1s-.1.9.1 1.2c.3.4.9 0 1-.2s-.1-1-.2-1q0-.1 0-.2s0-.3.1-.4q.1-.2.2 0c0 .2 0 .4.2 1.1.1.7.8.6.9.5.2-.1.1-.2.1-.2 0-.1-.3-.7-.4-1-.1-.2-.1-.4 0-.6.1-.3.1-.1.2.1z"/><path d="m11 7c.1.2 0 .6-.1.9 0 .2-.2 0-.3-.2 0 0-.1-.1-.3-.2-.5-.4-.7.5-.8.9 0 .3 0 1.3-.1 1.9 0 .3-.1.3-.2.1-.4-1.3-1.2-1.8-1.3-1.9q0-.1-.1-.1.1.2.1.5c-.2 1.6-1.8 2.3-2 2.5-.3.1-.3.1 0-.2.2-.4 1.4-1.7 1.6-1.9.5-.6-.5-.9-.6-1-.2-.2-.1-.7-.1-.9 0-.3.2-.4.3-.4 1.5.8 2 2.2 2.1 2.4 0-1 0-2 .6-2.8.4-.6 1.1.3 1.2.4z"/><path d="m19 5.9s-.1.3-.2.5c-.3 1-.2 1.5-.1 1.6.3.5.7.2.8-.1.1-.2.1-.1.1-.1q0 .1 0 .4c-.2.6-.5.7-.7.7-.4 0-.6-.5-.6-.7 0-1.2.4-2.1.5-2.4.2-.2.2-.1.2.1z"/><path d="m30.9 5.9c-.1.1-.1.1-.2.3-.1.3-.3.3-.5.4-.2.2-9.5 3.8-9.6 3.9-.4.2-.4.1-.3-.1q0 0 .1-.3c0-.2.1-.3.4-.4.3-.2 9.5-3.8 9.8-4 .4-.2.3 0 .3.2z"/><path d="m14.9 5.9s-.1.5-.2.9c-.6 1.9-.3 2.7-.2 2.9.5 1 1.1.5 1.3-.2.1-.4.2-.2.2-.1q-.1.2-.1.6c-.3 1.2-.7 1.4-1 1.5-.7-.1-.9-1-1-1.5-.1-2 .6-3.7.8-4.3.2-.5.3-.2.2.2z"/><path d="m22.6 5.4s-.1.2-.1.4c-.3.8-.2 1.1-.1 1.2.2.4.5.2.6-.1.1-.2.1-.1.1 0q0 0-.1.2c-.1.5-.3.6-.5.6s-.4-.4-.4-.6c0-.8.3-1.5.4-1.8.1-.2.2-.1.1.1z"/><path d="m33.8 18.4c-.2 2.3-1.9 2.5-2.4 2.5-1.8 0-2.1-1.5-2.2-2.2-4.1 2-6.7 2.4-7.5 2.5-1.8.3-2.9.1-3.6-.1q-.1.1-.1.2c-.3.4-.5.6-.5.5-.1-.1-.1-.3.1-.7q0-.1.1-.2c-.5-.3-.9-.6-1.1-.9-1.7-1.5-3.9.3-4.4.7-1.1 1-2.4 2.5-2.6 2.8-1.2 1.7-2.2 1.8-2.7 1.7-1.8-.2-2-1.8-1.9-3.1.2-1.5 1-2.9 1.2-3.3-.2-.3-.3-.8-.3-1.1-.1-2 .6-3.7.8-4.3.1-.5.3-.2.2.2 0 0-.2.5-.3.9-.5 1.9-.2 2.7-.1 2.9.4 1 1 .5 1.3-.2.1-.4.2-.2.1-.1q0 .2-.1.6c-.2 1.2-.7 1.4-1 1.4q-.1 0-.3 0c-1.8 3.7-.9 4.8-.3 5 1.4.3 2.7-1.2 3.1-1.8 1.7-2.2 3.1-3.2 3.9-3.7.9-.5 2.4-1.3 4.5.8q.3.3.6.4c.3-.5.6-1 .7-1.2.3-.4 2-3.7 3.9-4 .3-.1 1.3-.4 2.9.8.4.3 1 .9.7 1.9-.2.4-.6 1.3-1 1.9q.5-.1.7-.2c1-.3 2.8-1.3 3.3-1.5.5-.3.3.2.3.3.1 1.3.6 1.4.8 1.6 1.3.5 2.3-.2 2.4-.4.2-.2.2-.7.1-1.2 0-.4-1.4-11-1.5-11.4-.1-.5-.2-.7-.2-.8 0 0 .5-.9.5-1 .1-.2.1-.1.1 0 .1.1 1.3 3.2 1.4 3.4 0 .1-.1.2-.2.1s-.8-.7-.8-.7 1.5 9.9 1.4 11zm-8.3-.6c.2-.2.6-.4.2-.8-2.2-1.9-3.6-1.1-4.1-.7-1 .8-2.1 2.4-2.8 3.6q.1.1.2.1c1.3.1 3.7-.1 6.5-2.2z" fill-rule="evenodd"/><path d="m35.5 4.6c0 .1 1.3 3.4 1.4 3.5 0 .2-.1.3-.2.2-.1-.2-.7-.8-.7-.8s1.2 8.7 1.2 9c.2 1.7.3 3 .2 3.8 0 1.1-.2 1.5-.3 1.6 0 .2-.1.1-.1-.1 0-.6-.2-1.8-.3-3.1-.4-2.6-1.5-11-1.7-12.4 0-.1-.1-.6-.1-.6s.4-1 .4-1.1c.1-.2.1-.1.2 0z"/><path d="m50.9 4.6c0 .1 0 .2-.1.3-.1.2-.2.3-.4.4s-5.9 3.4-6 3.5c-.3.2-.3.1-.2-.1q0 0 0-.3c.1-.1.1-.2.4-.3.2-.2 5.9-3.4 6.1-3.6.3-.2.3 0 .2.1z"/><path d="m57.9 5c.1.2 0 .6-.1.9-.1.2-.2 0-.4-.1 0 0-.1-.2-.2-.3-.6-.5-.8.5-.9.9 0 .3-.1 1.4-.2 2 0 .3-.2.2-.2.1-.4-1.4-1.2-2-1.3-2.1-.2-.1-.3.1-.3.1 0 .1-.1.1-.1.1-.1-.1-.6-.3-.7-.5-.1-.1-.1-.6-.1-.8.1-.4.3-.5.4-.4 1.5.8 2 2.3 2.1 2.6.1-1.2.1-2.2.7-2.9.5-.7 1.2.2 1.3.4z"/><g fill-rule="evenodd"><path d="m63.5 7.4c-.1.1-.1 0-.2-.1s-.3-.3-.5-.4c-.2.5-.2.5-1.2 1.4-2.1 1.8-4.4 2.4-4.5 2.4-.1.1-.1 0 .1-.2.7-.5 3.7-1.9 5.2-3.8 0 0-.4-.2-.8-.4-.3-.2-.1-1.1.1-1.4.6-1 1.1-.5 1.2-.3.5.8.2 1.7.2 1.7.3.2.6.5.4 1.1zm-1-2.3c-.1-.1-.3-.1-.6.3-.1.2.1.3.2.4.2.1.7.3.7.3 0-.1.1-.7-.3-1z"/><path d="m42 7c0 .2-.1.1-.2-.1-.1 0-.5-.3-.5-.3s-.4.9-1.2 1.5c-1.4 1.1-2.6 1.3-2.7 1.3s-.1-.1.1-.2c.9-.5 1.9-.9 3.5-2.8 0 0-.5-.2-.8-.4-.4-.3-.2-1.1 0-1.4.6-1 1.1-.5 1.2-.4.5.9.3 1.8.3 1.8.2.1.5.5.3 1zm-1-2.2c-.1-.1-.2-.1-.5.3-.1.2 0 .3.2.4s.6.3.6.3c0-.2.1-.7-.3-1z"/></g></g></svg>