<svg height="30" viewBox="0 0 70 30" width="70" xmlns="http://www.w3.org/2000/svg"><g fill="#191c4f"><path d="m15.2 22.8c0 .1 0 .2-.1.4-.1.1-.3.2-.5.3s-4.3 1.7-4.4 1.8c-.3.2-.3 0-.2-.1q0 0 0-.3c.1-.2.2-.2.4-.4.3-.1 4.3-1.7 4.6-1.8.3-.2.3 0 .2.1z"/><path d="m20.4 21.7s0 .3-.1.5c-.3 1.1-.1 1.6 0 1.7.3.5.7.2.8-.2.1-.2.1-.1.1 0q0 .1 0 .3c-.2.6-.4.8-.6.8-.4 0-.6-.5-.7-.7-.1-1.2.3-2.2.4-2.4.1-.3.2-.2.1 0z"/><path d="m31.8 21.4c-.1.2-.1.2-.2.4-.1.1-.2.2-.4.3s-5.6 1.9-5.7 1.9c-.4.2-.4.1-.3 0q0-.1.1-.3c.1-.2.1-.2.4-.4.3-.1 5.6-1.9 5.8-2 .4-.1.4 0 .3.1z"/><path d="m17.3 21.1 1.1.8q.1.1 0 .1l-.6.9q-.1.1-.1 0l-1.1-.8q-.1 0-.1-.1l.7-.9q0 0 .1 0z"/><path d="m63.4 20.2v.6c0 .2-.1.6-.2.9-.1.4-.9.5-1.4.2-.8 1.3-1.5.6-2 .5-.7-.3-.9.2-1.1.4-.9 1-2.7 1-3.1 1-.4.1 0-.2.1-.3 1.4-.5 2.2-.5 3.4-1.7.6-.5.9-.2 1.1-.2 1.1.5 1.3 0 1.4-.1.2-.1.4-.7.4-.9.1-.2.2-.1.2.1 0 .1-.1.3-.1.4.4.4.9.1 1 0 0 0 0-.4 0-.5q0-.1.1-.6c.1-.3.2 0 .2.2z"/><path d="m42.5 18.6c-.3 1.1-1.9 1.7-2.3 1.9-1.4.4-1.5-1-1.4-2 .1-1.1.8-2.4.8-2.4s-1.5-1.2-1.6-1.3-.3-.3-.4-.4c-.2 0-.1-.1-.1-.1s0-1.1 0-1.2 0-.1.2 0c.1 0 1.7.7 1.9.7.1.1.1.3 0 .3s-.7.1-.7.1l1.4 1s1.8-2.4 2-2.6c.2-.3.1-.1.1.1 0 .3-.4 1.3-.5 1.4-.1.2-1 1.5-1 1.5s1.2.7 1.5 1.2c.6.7.2 1.4.1 1.8zm-2.3-2.1s-.8 1.4-.9 1.7c-.4.8.4 1 .7.9.3 0 1.4-.6 2-1 .5-.4-1.5-1.4-1.8-1.6z" fill-rule="evenodd"/><path d="m65.1 17.3c-.1.3-.4 1.3-1.9 1-.3-.1-1.1-.2-1.4-1-.4.4-1.2 1.9-3 1.6-.3-.1-1.5-.5-1.6-2 0 0-1.4 1.1-2 1.5 0 .5 0 1.1-.3 1.8-.2.7-3.2 4.1-5.7 4.6-.8.2-4 .8-4.1-2.7 0-.7 0-1.3.1-1.7-1.9 1.5-4.3 2.7-5 3-1 .5-4.6 1.1-5.2 1.2-.4.1-.5-.1-.3-.2.3-.1 8.3-2.8 12.4-7.2.1-.1.1-.3 0-.5s-1.4-2.7-1.5-3.1c-.2-.3-.3-.7-.4-.8q-.1-.2 0-.4c0-.1.1-.8.1-.9.1-.2.2-.1.2 0 .1.1 1.4 1.4 1.6 1.6.1.1 0 .2-.1.2h-.6s.8 1.5 1.1 2c.5 1.2.2 2.1 0 2.5-.4.8-1.1 1.5-1.9 2.2-.1.6-.4 3.5 2.3 3.6.4 0 1.8.2 4.5-2 .7-.5 1.4-1.2 2-2 .2-.4.4-.9-.1-.9-.4.1-3.2 1.1-3.6-.6-.1-.5.1-4.5 2.9-2.5.2.2.8.7 1.2 1.5.5-.3 1.3-.8 2.4-1.6.3-.3.6-.4.6 0s-.3 2.7 2.3 2c.3-.1 1.3-.3 2.1-2.3.2-.5.5-.4.4 0-.2.5-.5.9-.2 1.1.2.3.9.8 1.8.7.3 0 .5-.2.4-.4-.1-.3-.4-.8-.4-.8 0-.3.2-.9.2-1s.1-.2.2-.1 1 1.2.5 2.6zm-11.5.1c-.9-1.2-2-.5-2.1-.4-.1.2-.2.5.7.6 1 0 1.4-.2 1.4-.2z" fill-rule="evenodd"/><path d="m9.6 11.5s-.1.4-.1.6c-.4 1.3-.2 1.9-.1 2 .4.6.9.2 1.1-.2.1-.3.1-.2.1-.1q0 .1 0 .4c-.2.8-.6 1-.8 1-.6 0-.8-.6-.9-.9-.1-1.3.4-2.5.6-2.9.1-.3.2-.2.1.1z"/><path d="m41 10 1.1.8q.1.1 0 .1l-.6.9q-.1.1-.1.1l-1.1-.8-.6.7q0 .1-.1.1l-1.1-.9q-.1 0 0-.1l.6-.9q.1 0 .1 0l1.1.8.6-.8q0 0 .1 0z"/><path d="m62.2 10.1s-.1.3-.2.5c-.3 1-.1 1.4-.1 1.5.3.5.7.2.8-.1.1-.2.1-.1.1 0q0 .1-.1.3c-.1.6-.4.7-.6.7-.4 0-.5-.5-.5-.7-.1-1.1.3-2 .5-2.3.1-.3.2-.1.1.1z"/><path d="m50.9 9.5s-.1.3-.2.5c-.3 1.1-.1 1.6-.1 1.7.3.5.7.2.9-.2 0-.2.1-.1.1 0q0 .1-.1.4c-.2.6-.4.8-.7.8-.4 0-.5-.6-.6-.8 0-1.2.5-2.2.6-2.5s.2-.1.1.1z"/><path d="m17.7 8c.8.1.6.5.4.7-.6.9-1.3 1.3-1.9 1.6-.6.2-.3-.2 0-.5 0 0 .3-.2.9-.6.5-.3-.9-.3-1.5-.3s-.7.2-.9.4-.4.1-.2-.2c.1-.2.2-.5.7-.9.4-.5 1.7-.3 2.5-.2z"/><path d="m22.8 5.4s-.1.6-.2 1c-.5 1.9-.1 2.8-.1 3 .6 1 1.2.4 1.4-.3.1-.4.2-.2.2-.1q-.1.2-.1.6c-.3 1.3-.7 1.6-1 1.6-.6 0-1-.9-1-1.4-.3-2.1.4-4 .6-4.5.1-.5.3-.3.2.1z"/><path d="m11.1 5.5c.1.2 0 .7-.1 1-.1.2-.2 0-.4-.2 0 0-.1-.1-.2-.2-.6-.6-.9.4-.9.9-.1.3-.1 1.4-.2 2.1q0 0 0 .1c-.1.5-.3 1.2-1.2 1.8-1.1.7-1.2.7-1.3.8-.1 0-.2-.1 0-.2s2.3-1.9 2.1-2.8c-.3-1-1.1-1.7-1.2-1.8-.1-.2-.2 0-.3.1 0 .1-.1.1-.1.1-.1-.1-.5-.4-.7-.5-.1-.2-.1-.7-.1-.9.1-.4.3-.5.4-.4 1.6.9 2.1 2.4 2.1 2.7.1-1.2.2-2.2.8-3 .5-.7 1.2.3 1.3.4z"/><path d="m49.9 4.9c0 .1 0 .1-.1.3s-.2.3-.4.4-6.1 3.5-6.2 3.6c-.4.2-.4.1-.3 0q0-.1.1-.4c0-.1.1-.2.3-.3.3-.2 6.1-3.6 6.3-3.7.4-.2.4-.1.3.1z"/><path d="m57.1 5.2c.1.3 0 .7-.1 1-.1.2-.2 0-.4-.1 0 0-.1-.2-.2-.3-.6-.5-.9.5-.9.9-.1.4-.1 1.5-.2 2.1-.1.3-.2.3-.3.1-.4-1.4-1.2-2-1.3-2.2-.2-.1-.3.1-.3.2s-.1.1-.2 0c0 0-.5-.3-.6-.5-.2-.1-.1-.6-.1-.8 0-.4.2-.5.4-.5 1.6.9 2.1 2.5 2.1 2.7.1-1.1.2-2.2.8-3 .5-.6 1.2.3 1.3.4z"/><path d="m62.9 7.7c0 .2-.1.1-.2-.1-.1-.1-.3-.3-.5-.4-.2.5-.2.6-1.2 1.5-2.2 1.8-4.6 2.5-4.7 2.5-.1.1-.1 0 .1-.2.7-.6 3.8-2 5.4-3.9 0 0-.5-.2-.8-.5-.4-.2-.2-1.1.1-1.5.6-.9 1.1-.4 1.2-.3.5.9.2 1.8.2 1.8.3.2.6.6.4 1.1zm-1-2.3c-.1-.1-.3-.1-.6.3-.1.2 0 .3.2.4s.7.3.7.3c0-.1 0-.7-.3-1z" fill-rule="evenodd"/><path d="m40.7 7.4c-.1.2-.2 0-.3-.1 0-.1-.4-.4-.4-.4s-.5 1-1.3 1.6c-1.5 1.1-2.7 1.3-2.8 1.3-.1.1-.2 0 .1-.2.9-.5 2-.9 3.6-2.8 0 0-.5-.2-.9-.5-.3-.2-.1-1.1.1-1.5.6-.9 1.2-.5 1.3-.3.5.9.2 1.8.2 1.8.3.2.6.5.4 1.1zm-1.1-2.3c-.1-.1-.2-.1-.5.3-.1.2 0 .3.2.4s.6.3.6.3c.1-.2.1-.7-.3-1z" fill-rule="evenodd"/><path d="m16.5 4.2s-.1.3-.1.5c-.3 1-.2 1.4-.1 1.5.2.5.6.2.7-.1.1-.2.1-.1.1 0q0 0 0 .2c-.2.6-.4.8-.6.8-.4 0-.5-.5-.6-.8 0-1 .4-1.9.5-2.1.1-.3.2-.2.1 0z"/><path d="m37 17.5s-.4 1.1-.6 1.4q-.9-.2-1.9-.1c.1 2.7-.2 3.9-.3 4.1s-.2.1-.2-.1c0-.7-.2-2.2-.4-3.9-2.4.4-4.5 1.5-5.4 1.8-4.7 1.7-6.1 1-6.8.8-2.8-1.1-1.8-4-1.6-4.8-1 .5-2.1 1.1-3.4 1.5.1.5 0 1 0 1.1-.1.1-.1.2-.3 0q-.1-.5-.4-.8c-4.5 1.9-5.5 3.6-5.9 4.1-1.5 1.9-2.3 2.3-2.9 2.5-2 .5-2.6-1.3-2.7-1.8-.7-2.6.9-5 1.2-5.7q0 0 0-.1c-.4-.2-.7-.9-.7-1.3-.3-2.1.4-4 .6-4.5.1-.5.3-.3.2.1 0 0-.1.6-.2 1-.5 2-.1 2.8-.1 3 .6 1 1.2.4 1.4-.3.1-.4.2-.2.1 0q0 .1 0 .6c-.2.9-.5 1.3-.8 1.4q0 .1 0 .1c-1.1 1.6-1.5 3.4-1.4 4.4.2 2.2 1.9 1.9 2.6 1.6.9-.4 2.4-2.6 3-3.2 1.4-1.4 4.2-2.7 4.6-2.9-.1-.1-1.4-1.1-1.9-1.5-.6-.5-.5-1.3-.5-1.6.4-1.4 2.2-1.6 2.5-1.7 3.9-.4 8.8.6 8.9.7s-.4 1.2-.4 1.2-.3.2-.8.6c-.5.3-1.3.8-2.2 1.2-1.1 2.9 1.4 3.7 2 3.9 3.2.6 8.1-1.8 8.2-1.9-4.7-1.2-6.5-.8-6.6-.8s-.2 0-.1-.2c.1-.1.3-.7.5-1 .1-.3 3.6-.4 3.8-.6.1-.2-.4-2.9-.4-3.2-.6-3.4-1.2-7-1.3-7.3 0 0 .3-.9.4-1 .1-.2.1-.1.1 0 .1.1 1.6 3.4 1.6 3.6.1.2 0 .3-.2.2-.1-.2-.8-.8-.8-.8s1.4 6.7 1.4 8c-.1.6-.2.9-.2 1.2 1.3.4 3.1.7 4.7.8-.3-2.4-.7-4.7-.7-4.9 0-.4-1-6.7-1.1-7.3 0 0 .3-.9.4-1 0-.2.1-.1.1 0 .1.1 1.5 3.4 1.6 3.6s-.1.3-.2.2-.7-.7-.8-.8c.1.5 1.4 8.1 1.4 8.5q.2 1 .3 1.8c1.3.1 2.4.1 2.6.1zm-15.6-3c0-.1-.7-.2-1.2-.3-.6 0-4.8-.4-6.3 0-.2.1-1.1.3-.6.7 1.5 1 2.5 2.2 2.5 2.2s2.9-1 5.6-2.6z" fill-rule="evenodd"/></g></svg>