<svg height="30" viewBox="0 0 70 30" width="70" xmlns="http://www.w3.org/2000/svg"><g fill="#191c4f"><path d="m13.9 23.7c.4.1.4.7.3.9-.2 1.2-1 2-1.2 2.3-.2.2-.3.1-.1-.1 0 0 .1-.3.3-.5.7-.9.6-1.5.6-1.6-.1-.6-.6-.5-.9-.1-.1.2-.1 0-.1 0q.1-.1.2-.3c.4-.6.7-.7.9-.6z"/><path d="m63.2 21.2v.7c0 .3-.1.7-.3 1.1-.1.4-.9.6-1.5.2-1 1.5-1.8.7-2.3.5-.9-.3-1.1.3-1.3.5-1.1 1.2-3.1 1.2-3.6 1.2-.4.1 0-.2.1-.3 1.6-.6 2.6-.7 4-2 .6-.6 1-.3 1.2-.2 1.3.6 1.5 0 1.6-.1.2-.2.4-.9.5-1.1s.3-.1.2.1c0 .2-.1.4-.1.5.5.4 1.1.1 1.2 0 0 0-.1-.4-.1-.6q0-.2.2-.7c.1-.3.2 0 .2.2z"/><path d="m39 19.4c-.4 1.3-2.2 2-2.6 2.1-1.6.6-1.8-1.1-1.7-2.3.2-1.1 1-2.7 1-2.7-.1 0-1.8-1.4-1.9-1.5-.2-.1-.3-.3-.5-.4-.1-.1-.1-.2-.1-.2s0-1.2 0-1.4c0-.1.1-.1.2 0 .2.1 2 .8 2.2.9s.2.2.1.3c-.2 0-.8.2-.8.2l1.5 1.1s2.2-2.8 2.4-3.1c.2-.2.2-.1.1.2 0 .3-.4 1.4-.5 1.6s-1.2 1.7-1.2 1.7 1.4.9 1.7 1.4c.7.8.3 1.7.1 2.1zm-2.6-2.4s-1 1.6-1.1 1.9c-.4 1 .5 1.1.9 1.1.3 0 1.6-.7 2.2-1.2s-1.7-1.6-2-1.8z" fill-rule="evenodd"/><path d="m19 12.5s-.1.5-.2.8c-.5 1.8-.1 2.6 0 2.8.5.8 1.1.3 1.3-.4 0-.3.1-.1.1 0q0 .2-.1.6c-.2 1.1-.6 1.3-.9 1.3-.6.1-1-.8-1-1.2-.2-1.9.4-3.6.6-4.1.1-.4.3-.2.2.2z"/><path d="m65.2 17.9c-.1.3-.5 1.5-2.2 1.2-.4-.1-1.3-.3-1.7-1.3-.4.6-1.4 2.2-3.4 1.9-.4 0-1.8-.6-1.8-2.3 0 0-1.7 1.3-2.4 1.7.1.6 0 1.4-.3 2.1-.3.8-3.8 4.8-6.6 5.4-1 .2-4.6.9-4.8-3.2 0-.8.1-1.5.1-1.9-2.2 1.7-4.9 3.1-5.7 3.4-1.2.6-5.3 1.3-6.1 1.4-.5.1-.5 0-.3-.2.4-.2 9.6-3.3 14.4-8.3q.2-.3-.1-.6c-.1-.3-1.6-3.2-1.7-3.5-.2-.4-.4-.9-.5-1q-.1-.2 0-.5c0-.1.1-.9.2-1.1s.1-.1.2.1c.1.1 1.6 1.6 1.8 1.8s.1.3 0 .3-.8-.1-.8-.1 1 1.7 1.3 2.4c.6 1.3.2 2.4.1 2.9-.5.9-1.3 1.8-2.2 2.5-.2.8-.5 4.1 2.6 4.2.5 0 2.1.2 5.2-2.4.8-.6 1.6-1.3 2.3-2.3.3-.4.4-1-.1-1-.5.1-3.7 1.3-4.2-.7-.1-.5.1-5.2 3.3-2.9.3.2 1 .8 1.4 1.7.6-.2 1.6-.8 2.8-1.8.4-.3.7-.5.7 0 0 .4-.3 3.1 2.7 2.3.3-.1 1.5-.3 2.4-2.7.3-.5.6-.4.4 0-.2.6-.5 1.1-.2 1.4s1.1.9 2.2.7c.3 0 .5-.2.4-.5s-.5-.9-.5-.9c.1-.3.2-.9.3-1.1 0-.2.1-.3.2-.1.1.1 1.1 1.3.6 3zm-13.3.1c-1.1-1.4-2.3-.6-2.5-.4-.1.1-.2.5.8.6 1.2.1 1.7-.2 1.7-.2z" fill-rule="evenodd"/><path d="m12.1 11.6c.2.3.1.8 0 1.1-.1.2-.3 0-.4-.2 0 0-.2-.1-.4-.3-.6-.5-.9.6-.9 1.1-.1.3-.1 1.6-.3 2.3 0 .2-.2.2-.3 0-.4-1.5-1.3-2.2-1.4-2.3-.2-.2-.3 0-.3.1s-.1.1-.2.1c-.1-.1-.6-.4-.7-.6-.2-.1-.1-.7-.1-.9 0-.4.3-.6.4-.5 1.7 1 2.3 2.7 2.4 3 .1-1.3.1-2.5.8-3.3.6-.7 1.4.3 1.4.4z"/><path d="m37.3 9.5 1.3.9q0 .1 0 .1l-.8 1.1q0 0-.1 0l-1.3-.9-.6.9q-.1 0-.1 0l-1.3-1q-.1 0 0-.1l.7-1q.1-.1.1 0l1.3.9.7-.9q0-.1.1 0z"/><path d="m61.8 9.5s-.1.4-.2.6c-.4 1.1-.2 1.7-.1 1.8.3.6.7.3.9-.2.1-.2.1-.1.1 0q0 .1 0 .4c-.3.7-.5.8-.8.8-.4 0-.6-.5-.6-.8-.1-1.3.4-2.3.6-2.7.1-.3.2-.1.1.1z"/><path d="m48.8 8.9s-.1.3-.2.6c-.5 1.2-.2 1.8-.2 1.9.4.6.8.3 1-.2.1-.2.2-.1.1 0q0 .1 0 .4c-.3.8-.6.9-.8.9-.5 0-.7-.6-.7-.9-.1-1.4.5-2.5.6-2.8.1-.4.3-.2.2.1z"/><path d="m28.4 8.7s-.1.4-.2.7c-.5 1.3-.2 2-.2 2.1.4.7.9.3 1.1-.2.1-.2.2-.1.1 0q0 .1 0 .4c-.3.8-.6 1-.9 1-.5 0-.7-.6-.7-1-.1-1.5.5-2.7.6-3.1.2-.3.3-.2.2.1z"/><path d="m8.4 4.4s-.1.5-.2.9c-.5 1.8-.1 2.6-.1 2.7.6.9 1.1.4 1.3-.3.1-.3.2-.2.2 0q0 .2-.1.5c-.2 1.1-.6 1.4-.9 1.4-.6 0-1-.8-1-1.2-.2-1.9.4-3.6.6-4.1.1-.5.3-.3.2.1z"/><path d="m19.7 4.2c.2.3.1.8-.1 1.1 0 .2-.2 0-.4-.2 0 0-.1-.1-.3-.3-.7-.6-.9.6-1 1.1-.1.4-.1 1.7-.3 2.4 0 .3-.2.3-.3.1-.5-1.6-1.4-2.4-1.5-2.5-.2-.2-.3.1-.3.2s-.1.1-.2 0c-.1 0-.6-.4-.8-.5-.2-.2-.1-.8-.1-1 0-.5.3-.6.5-.5 1.8 1 2.4 2.8 2.5 3.1.1-1.4.1-2.6.8-3.5.6-.7 1.5.4 1.5.5z"/><path d="m47.6 3.5c0 .2-.1.2-.2.4 0 .2-.2.3-.4.4-.3.2-7.1 4.1-7.2 4.2-.4.3-.4.1-.3 0q0-.1.1-.4c0-.2.1-.3.4-.4.2-.2 7-4.1 7.3-4.3.4-.2.4-.1.3.1z"/><path d="m55.9 3.9c.2.3.1.9-.1 1.2-.1.2-.3 0-.4-.2 0 0-.2-.2-.3-.3-.7-.6-1 .5-1.1 1.1 0 .4-.1 1.6-.2 2.4 0 .3-.2.3-.3 0-.5-1.5-1.4-2.3-1.5-2.4-.2-.2-.3 0-.3.1-.1.1-.2.1-.3.1 0-.1-.6-.4-.7-.6-.2-.1-.1-.7-.1-1 0-.4.3-.6.4-.5 1.9 1 2.4 2.9 2.5 3.1.1-1.3.2-2.5.9-3.4.6-.8 1.4.3 1.5.4z"/><path d="m62.6 6.8c0 .2-.1.1-.2-.1-.1-.1-.3-.3-.6-.5-.3.6-.2.7-1.4 1.7-2.5 2.2-5.2 2.9-5.4 3-.1 0-.2-.1.1-.3.8-.7 4.4-2.3 6.3-4.5 0 0-.6-.3-1-.6-.4-.2-.2-1.3.1-1.7.7-1.1 1.3-.5 1.4-.3.6 1 .3 2 .3 2 .3.2.7.6.4 1.3zm-1.1-2.7c-.2-.1-.3-.1-.7.4-.1.2 0 .3.2.4.3.1.8.4.8.4 0-.2.1-.8-.3-1.2z" fill-rule="evenodd"/><path d="m36.9 6.4c-.1.2-.1.1-.3-.1 0-.1-.5-.4-.5-.4s-.6 1.1-1.5 1.8c-1.7 1.3-3.1 1.5-3.2 1.6-.2 0-.2-.1.1-.3 1-.6 2.3-1.1 4.2-3.3 0 0-.6-.2-1-.5s-.2-1.3.1-1.8c.7-1.1 1.3-.5 1.4-.3.6 1 .3 2.1.3 2.1.3.2.6.6.4 1.2zm-1.2-2.7c-.1 0-.3-.1-.7.4-.1.2.1.3.3.5.2.1.8.3.8.3 0-.1 0-.8-.4-1.2z" fill-rule="evenodd"/><path d="m28.7 2.4s-.1.4-.2.7c-.5 1.3-.2 2-.1 2.1.3.7.8.3 1-.2.1-.2.2-.1.2 0q0 .1-.1.4c-.2.8-.6 1-.9 1-.5 0-.7-.6-.7-1-.1-1.5.5-2.7.7-3.1.1-.3.2-.2.1.1z"/><path d="m32.2 19.3c-.1.8-.7 2.1-1.3 2.5-1.8 1-3.8 1.8-5.7 2.3-8.7 2-10.5-2.2-10.8-2.8 0 0-.3-.5-.5-.7-.2-.3-.4-.2-.8-.1-2.3.7-3.4 4.1-3.7 4.8-.9 2.2-2.3 1.4-2.7 1.2-3-2.2-2.1-6.7-2-7.1-.4-.4-.6-1.1-.6-1.6-.3-2.6.4-4.9.6-5.5.1-.7.3-.4.2.1 0 0-.1.8-.2 1.2-.5 2.5-.1 3.6 0 3.8.6 1.2 1.2.5 1.5-.4 0-.5.2-.2.1 0q0 .2 0 .7c-.3 1.5-.7 1.9-1.1 1.9q-.1 0-.2 0c-.6 3.7 1.3 5.1 2 5.5 1.9.7 2.5-1.9 2.8-2.5.8-2.1 1.9-3 3.2-3.6 1.3-.7 1.4-.1 1.7.4 1.5 3.5 5.7 3.5 6.4 3.6 0 0 .8-.7 1.7-1.7.5-1.7.3-4.4.2-5.4s-1-10.6-1-11.1c-.1-.9-.3-1.2-.3-1.3 0 0 .5-1.3.5-1.4.1-.2.1-.1.2.1 0 .1 1.6 3.9 1.7 4.2.1.2-.1.2-.2.1s-.7-.7-.9-.8c0 0 .9 8.7.9 9.3.3 2.7-.2 4.5-.3 5.2q-.1.3-.2.5l2-2c1.8-1.9 3.8-1.8 4.8-1.5 1.4.4 2.1 1.3 2 2.1zm-1.3.5c-.3-.3-1.3-1.5-3.5-.9-2.6.8-5.2 4.1-5.2 4.1.5 0 5-.5 8.7-2.7.2-.2.2-.3 0-.5z" fill-rule="evenodd"/></g></svg>