<svg height="30" viewBox="0 0 70 30" width="70" xmlns="http://www.w3.org/2000/svg"><g fill="#191c4f"><path d="m26.3 24.3c-.1.1-.1.2-.1.4-.1.1-.2.2-.4.3-.1.2-3.5 1.5-3.6 1.5-.3.3-.3.1-.2 0q0 0 0-.3c0-.1.1-.2.3-.3.2-.2 3.5-1.5 3.7-1.6.3-.2.3-.1.3 0z"/><path d="m18.5 22.8 1.1.7q0 .1 0 .1l-.6.8q-.1.1-.1.1l-1-.8-.5.7q-.1.1-.1.1l-1-.8q-.1 0-.1-.1l.6-.8q.1 0 .1 0l1 .7.5-.7q.1-.1.1 0z"/><path d="m23.5 22.6 1.1.7q0 .1 0 .1l-.6.8q0 .1-.1.1l-1-.8q-.1 0 0-.1l.6-.8q0-.1 0 0z"/><path d="m10.7 22.4c.3.2.3.7.2.9-.3.9-1 1.4-1.2 1.6s-.2.1-.1-.1c0 0 .2-.2.3-.3.7-.7.6-1.1.6-1.2 0-.5-.4-.5-.7-.2-.1.1-.1 0-.1-.1q.1 0 .2-.2c.3-.4.6-.4.8-.4z"/><path d="m9.6 20.7c0 .1 0 .1-.1.3 0 .2-.1.2-.3.4-.2.1-3.5 1.4-3.6 1.5-.3.2-.3.1-.3 0q0-.1.1-.3c0-.2.1-.3.3-.4.2-.2 3.5-1.5 3.7-1.6.3-.2.3-.1.2.1z"/><path d="m64.1 20.3v.5c0 .2-.1.6-.2.9s-.8.4-1.3.1c-.7 1.2-1.4.6-1.8.5-.6-.3-.8.2-1 .3-.9 1-2.4 1-2.8 1s-.1-.2.1-.3c1.2-.4 2-.5 3.1-1.5.5-.5.8-.3.9-.2 1.1.5 1.2 0 1.3-.1.2-.1.4-.7.4-.8.1-.2.2-.1.2.1 0 .1-.1.3-.1.3.4.4.8.1.9 0 0 0 0-.3 0-.4q0-.2.1-.6c.1-.2.2 0 .2.2z"/><path d="m31.1 17.8s-.1.3-.2.5c-.3 1-.1 1.5-.1 1.6.3.5.7.2.9-.2 0-.2.1-.1.1 0q0 .1-.1.3c-.2.6-.4.8-.6.8-.4 0-.6-.5-.6-.8-.1-1.1.4-2 .5-2.2.1-.3.2-.2.1 0z"/><path d="m7.7 16.9c.1.1.1.3 0 .3-.1.1-.3.5-.4.6q-.2.1-.2 0c-.3-.4-.7-.3-1-.1-.4.2-.4.4-.3.6s.6.6 1.1.7c.4.1 1.5-.2 1.8-.5.4-.2.2.3.1.4 0 0-.3.5-.5.5-2 .5-2.7 1.1-3 1.3s-.3 0-.2-.1.1-.2.2-.4q.1-.3.4-.4 0 0-.5-.5c-.7-.7.8-2.1 1.4-2.6s1 .1 1.1.2z"/><path d="m15.9 15.8c.1.3 0 .7 0 .9-.1.2-.2 0-.3-.1 0 0-.2-.1-.3-.2-.5-.4-.6.4-.6.8-.1.3 0 1.3-.1 1.8 0 .2-.1.2-.2.1-.4-1.2-1.1-1.7-1.2-1.8s-.2.1-.2.2h-.1c-.1 0-.5-.2-.6-.4-.1-.1-.1-.5-.1-.7 0-.3.2-.4.3-.4 1.3.7 1.8 2 1.9 2.2 0-1-.1-1.9.4-2.6.4-.6 1 .2 1.1.2z"/><path d="m26.5 15 1 .8q0 0 0 0l-.6.9q0 0-.1 0l-1-.8q0 0 0 0l.6-.9q0 0 .1 0z"/><path d="m45.1 18.9c-.4 1-1.8 1.5-2.1 1.6-1.3.4-1.4-.8-1.3-1.8.1-.9.7-2.1.7-2.1s-1.4-1.1-1.5-1.2-.2-.3-.3-.3c-.2-.1-.1-.2-.1-.2s0-.9 0-1.1c0-.1 0 0 .1 0 .2.1 1.6.6 1.8.7.1.1.1.2 0 .2-.1.1-.6.2-.6.2l1.2.8s1.7-2.1 1.8-2.3c.2-.2.2-.1.2.1-.1.2-.4 1.1-.5 1.3-.1.1-.9 1.3-.9 1.3s1.1.7 1.4 1.1c.5.6.2 1.3.1 1.7zm-2.1-2s-.8 1.3-.9 1.6c-.3.7.4.9.7.8.3 0 1.3-.5 1.8-.9.4-.4-1.4-1.3-1.6-1.5z" fill-rule="evenodd"/><path d="m19.1 12.9s-.1.5-.2.8c-.3 1.5 0 2.2 0 2.3.4.8.8.3 1-.2 0-.3.1-.2.1-.1q0 .2-.1.5c-.1.9-.4 1.2-.7 1.2-.4 0-.7-.7-.7-1.1-.2-1.6.3-3 .4-3.5.1-.4.2-.2.2.1z"/><path d="m65.6 17.7c-.1.2-.3 1.1-1.7.9-.3-.1-1-.2-1.3-1-.3.4-1.1 1.7-2.7 1.5-.3 0-1.4-.5-1.5-1.8 0 0-1.2 1-1.8 1.3 0 .5 0 1.1-.2 1.7-.3.6-3 3.7-5.3 4.2-.7.2-3.6.7-3.7-2.5 0-.6 0-1.2.1-1.5-1.8 1.4-3.9 2.4-4.5 2.7-.9.4-4.2 1-4.8 1.1-.4.1-.4 0-.2-.2.2-.1 7.5-2.6 11.2-6.5q.2-.2 0-.5c-.1-.2-1.3-2.5-1.4-2.8s-.2-.6-.3-.7q-.1-.2 0-.4c0-.1.1-.7.1-.9.1-.1.1 0 .2.1s1.3 1.2 1.4 1.4 0 .2 0 .2c-.1 0-.6 0-.6 0s.7 1.3 1 1.8c.4 1.1.2 2 0 2.4-.3.6-1 1.3-1.7 1.9-.1.6-.4 3.2 2.1 3.3.4 0 1.6.2 4.1-1.8.6-.5 1.2-1.1 1.8-1.9.2-.3.3-.8-.1-.8-.4.1-2.9 1-3.3-.5-.1-.4.1-4.1 2.6-2.3.2.2.8.6 1.1 1.3.5-.2 1.2-.6 2.2-1.4.3-.2.6-.3.5 0 0 .3-.2 2.5 2.2 1.8.2 0 1.2-.2 1.9-2.1.2-.4.5-.3.3 0-.2.5-.4.9-.2 1.1s.9.7 1.7.6c.3-.1.5-.2.4-.4-.2-.3-.4-.7-.4-.7 0-.3.1-.8.2-.9 0-.1.1-.2.2-.1s.8 1.1.4 2.4zm-10.5.1c-.8-1.1-1.8-.5-1.9-.4s-.2.5.6.5c1 .1 1.3-.1 1.3-.1z" fill-rule="evenodd"/><path d="m6.1 12s-.1.3-.2.5c-.3.9-.1 1.4-.1 1.5.3.4.6.2.8-.2 0-.2.1-.1.1 0q0 .1-.1.3c-.2.6-.4.7-.6.7-.3 0-.5-.5-.5-.7-.1-1 .3-1.9.4-2.2.1-.2.2-.1.2.1z"/><path d="m43.7 11 1 .8q0 0 0 .1l-.6.8q0 0-.1 0l-1-.7-.5.7q0 0-.1 0l-1-.7q-.1-.1 0-.1l.6-.9q0 0 .1 0l1 .8.5-.8q0 0 .1 0z"/><path d="m63 11.1s-.1.2-.2.4c-.3.9-.1 1.3-.1 1.4.3.5.6.3.7-.1.1-.2.1-.1.1 0q0 .1 0 .3c-.2.5-.4.7-.6.7-.3 0-.5-.5-.5-.7-.1-1 .3-1.8.4-2.1.1-.2.2-.1.2.1z"/><path d="m23.5 10.7s0 .3-.1.5c-.3.9-.2 1.4-.1 1.4.3.5.6.3.7-.1.1-.2.2-.1.1 0q0 .1 0 .3c-.2.6-.4.7-.6.7-.4 0-.5-.5-.5-.7-.1-1 .3-1.9.4-2.2.1-.2.2-.1.1.1z"/><path d="m52.7 10.6s-.1.2-.2.4c-.3 1-.1 1.5-.1 1.6.3.4.7.2.8-.2.1-.2.1-.1.1 0q0 .1 0 .3c-.2.6-.5.7-.7.7-.3 0-.5-.4-.5-.7-.1-1.1.4-2 .5-2.2.1-.3.2-.2.1.1z"/><path d="m23.3 8.1c-.1.2-.1.2-.2.4s-.2.3-.5.4c-.2.2-11.1 5.2-11.2 5.2-.5.3-.4.1-.4 0q.1-.1.1-.4c.1-.2.2-.3.4-.4.3-.2 11.2-5.2 11.5-5.3.4-.2.3-.1.3.1z"/><path d="m30.8 8s-.1.3-.1.5c-.3.9-.1 1.3 0 1.4.3.5.6.2.7-.2.1-.1.1-.1.1 0q0 .1 0 .3c-.2.6-.4.7-.6.7-.3.1-.5-.4-.5-.6-.2-1 .2-1.9.3-2.1.1-.3.2-.2.1 0z"/><path d="m5.8 7.7s-.1.3-.2.4c-.3 1-.1 1.4-.1 1.5.3.5.6.2.8-.1 0-.2.1-.1.1 0q-.1.1-.1.3c-.2.6-.4.7-.6.7-.4 0-.5-.5-.5-.7-.1-1.1.3-1.9.4-2.2.1-.2.2-.1.2.1z"/><path d="m8.8 7.1c.4.9.6 3.4.7 4.2.1.9.5 5.7.6 6.3.4 3.3 2.9 3.5 3.5 3.6 3.1.4 6.7-2 6.9-2.1s.2.1.2.2c0 .2-.1.6-.1.7.5 1.8 2.1.5 2.3.4.2-.2.2-.2.2-.3 0-.8-.7-3.3-.8-3.7 0 0 .3-1 .4-.9.4.6.8 2.7.9 3.2.2.9.6 1.3.7 1.5 1.1 1 3 .3 3.2.2.3-.2.3-.4.3-.5 0-.3-.6-1-.7-1.1s.2-.8.2-.9.1-.2.3 0c.4.5.7 1.2.8 1.5.2.8-.3 1.6-.4 1.8-.5.6-1.7.7-2.7.6-1.1 0-1.7-1-1.8-1.2 0 0-.3 1.1-1.4 1.4-1.8.3-1.9-1.3-2-1.6-2.1 1.5-5.1 2-5.8 2-4.7.1-4.7-3.7-4.7-4.2-.1-.5-.4-3.9-.5-4.8-.1-2.5-.6-4.9-.8-5.4 0 0 .3-.8.3-.9.1-.1.2-.2.2 0z"/><path d="m15.3 6.9c.1.2.1.6 0 .9-.1.1-.2 0-.3-.1 0 0-.1-.2-.3-.2-.5-.4-.6.4-.6.8 0 .3 0 1.2-.1 1.8 0 .2-.1.2-.2.1-.4-1.2-1.1-1.7-1.2-1.8s-.2.1-.2.1c0 .1-.1.1-.1.1-.1 0-.5-.3-.6-.4s-.1-.5-.1-.7c0-.3.2-.5.3-.4 1.3.7 1.8 2 1.9 2.2 0-1 0-1.9.4-2.6.4-.6 1 .1 1.1.2z"/><path d="m33.8 6.6c.1.1 1.3 3 1.3 3.2.1.2-.1.2-.2.1s-.7-.7-.7-.7.9 7.1 1 7.8c.2 2.3-.1 3.4-.7 4.4-1.8 2.8-5.9 3.2-6.2 3.2-.3.1-.5 0-.1-.3 3.4-1.2 5.1-2.6 5.9-3.6q0-.1 0-.3c0-2-2.7-4.1-3.1-4.4-.3-.3-1.9-1.7-4-4.1-.4-.5-.7-1-.9-1.1-.1-.1-.1-.2-.1-.3s-.1-.9 0-1.1c0-.2 0 0 .2.1.2.2 2.2 1.5 2.3 1.6.2.2 0 .2-.2.1-.1 0-.6-.1-.6-.1h-.1c1.5 2.1 5.6 5.2 6.3 6.8.5 1.1.6 1.9.5 2.4q.3-.5.3-.7c.1-.6-.4-3.5-.4-4-.4-3.4-1.1-7.7-1.1-8 0 0 .5-1 .5-1.1.1-.1.1 0 .1.1z"/><path d="m36.9 6.5c.1.1 1.2 3.1 1.3 3.3 0 .2-.1.2-.2.1s-.7-.7-.7-.7.9 6.8.9 7.1c.8 4.9-.2 6.7-.3 6.8-.1.2-.2.1-.1 0 .4-2.7-.7-9.4-.7-9.8s-.6-5.4-.7-6c0 0 .3-.8.4-.9 0-.1.1 0 .1.1z"/><path d="m27.4 6.6c0 .1-.2.4-.2.5q-.1.2-.3-.1c-.2-.3-.6 0-.7 0-.2.1-.1.2.2.6.4.3 1.2.1 1.5.1.2 0 .3-.1.3.1-.1.1-.1.4-.1.4-.8.1-1.9.6-2.2.7q0 0-.2.1c-.1 0-.1 0-.1-.1q0-.1.1-.3c.1-.2.3-.3.4-.3 0 0-.3-.3-.4-.6-.2-.3.3-1.1.9-1.3.5-.3.7.1.8.2z"/><path d="m51.8 6.4c0 .1-.1.1-.1.3-.1.2-.2.2-.4.3s-5.6 3.2-5.7 3.3c-.3.2-.2.1-.2 0q0-.1.1-.3c0-.2.1-.2.3-.4.2-.1 5.5-3.2 5.8-3.3.3-.2.2-.1.2.1z"/><path d="m58.3 6.7c.1.2.1.6-.1.9 0 .2-.2 0-.3-.2 0 0-.1-.1-.2-.2-.6-.5-.8.4-.8.9-.1.3-.1 1.3-.2 1.8-.1.3-.2.3-.3.1-.4-1.3-1.1-1.8-1.2-2-.1-.1-.2.1-.2.2s-.1.1-.2 0c-.1 0-.5-.3-.6-.4-.1-.2-.1-.6-.1-.8.1-.4.3-.5.4-.4 1.4.8 1.9 2.2 2 2.4 0-1 .1-2 .6-2.7.5-.6 1.2.3 1.2.4z"/><path d="m63.6 8.9c0 .2-.1.1-.2 0s-.2-.3-.4-.4c-.2.5-.2.5-1.1 1.3-2 1.7-4.2 2.3-4.3 2.3-.1.1-.1 0 .1-.2.6-.5 3.5-1.8 4.9-3.5 0 0-.4-.2-.7-.4-.3-.3-.2-1.1 0-1.4.6-.9 1.1-.4 1.2-.3.4.8.2 1.6.2 1.6.2.2.5.5.3 1zm-.9-2.1c-.1 0-.3-.1-.5.3-.1.2 0 .3.2.4.1 0 .6.2.6.2 0-.1 0-.6-.3-.9z" fill-rule="evenodd"/><path d="m43.4 8.7c-.1.1-.1 0-.2-.1s-.5-.4-.5-.4-.4.9-1.1 1.5c-1.3 1-2.5 1.2-2.5 1.2-.2 0-.2-.1 0-.2.8-.5 1.8-.9 3.3-2.6 0 0-.5-.2-.8-.4-.3-.3-.1-1.1.1-1.4.6-.9 1-.4 1.1-.3.5.8.2 1.6.2 1.6.3.2.6.5.4 1.1zm-1-2.2c-.1 0-.2-.1-.5.4-.1.1 0 .2.2.3.2 0 .6.2.6.2 0-.1.1-.6-.3-.9z" fill-rule="evenodd"/><path d="m20.1 5.4s-.1.2-.2.4c-.2 1 0 1.4.1 1.5.2.4.6.1.7-.2 0-.2.1-.1.1 0q0 0-.1.2c-.1.6-.3.8-.5.8-.3 0-.5-.4-.6-.7-.1-1 .3-1.8.3-2.1.1-.2.2-.1.2.1z"/><path d="m29.2 4.2c-.1.1-.1.1-.2.3s-.3.2-.5.3-4.1 1.5-4.2 1.5c-.4.2-.4 0-.3-.1q0 0 .1-.3c.1-.2.2-.2.4-.3.3-.1 4.2-1.4 4.4-1.5.4-.2.3 0 .3.1z"/></g></svg>