<svg height="30" viewBox="0 0 70 30" width="70" xmlns="http://www.w3.org/2000/svg"><g fill="#191c4f"><path d="m16.8 21.4s-.1.4-.2.6c-.4 1.2-.2 1.7-.2 1.9.4.6.8.2 1-.2 0-.2.1-.1.1 0q0 .1-.1.3c-.2.8-.5.9-.7.9-.5 0-.7-.5-.7-.8-.1-1.3.5-2.4.6-2.7.1-.4.2-.2.2 0z"/><path d="m23.4 21.2c.3 0 .2.2.2.4 0 0-.2.3-.3.6-.2.2-1.1 1.1-1.3 1.4-.2.4-.1 1.2.8 1.2 1.2 0 2.2-1 2.5-1.3.2-.3.2 0 0 .2-.8 1.2-1.8 1.7-2 1.8-.3.1-2 .4-1.7-1.3.3-1.2 1.3-2 1.4-2.1q.1-.2-.2-.2c-1.1 0-1.1.4-1.2.5 0 0-.1-.1 0-.2 0 0 .3-.5.3-.6.4-.6 1.3-.4 1.5-.4z"/><path d="m63.1 21.2v.7c0 .3-.2.7-.3 1.2-.2.4-1.1.6-1.7.2-1 1.6-1.9.7-2.5.6-.9-.4-1.1.2-1.4.4-1.1 1.4-3.3 1.3-3.8 1.4-.5 0 0-.3.2-.4 1.6-.6 2.7-.7 4.2-2.1.6-.6 1-.3 1.3-.2 1.4.6 1.6 0 1.7-.2.2-.2.5-.9.6-1.1s.2-.1.2.1c-.1.2-.1.4-.2.5.6.5 1.2.1 1.3 0 0 0 0-.5 0-.6q-.1-.2.1-.7c.2-.4.2-.1.3.2z"/><path d="m13.9 21c-.1.2-.1.2-.2.4-.2.3-.3.3-.6.5-.2.1-4.8 2.1-4.9 2.2-.5.3-.4.1-.4-.1q0 0 .1-.4c.1-.2.2-.2.5-.4s4.8-2.2 5.1-2.3c.5-.3.4-.1.4.1z"/><path d="m9.8 18.2 1.4 1q0 .1 0 .1l-.8 1.2q-.1 0-.1 0l-1.4-1q-.1-.1 0-.2l.8-1.1q0 0 .1 0z"/><path d="m37.2 19.2c-.5 1.4-2.4 2.2-2.9 2.3-1.7.6-1.9-1.2-1.7-2.5.1-1.2 1-2.9 1-2.9-.1 0-1.9-1.5-2.1-1.6-.1-.1-.3-.4-.5-.5-.1-.1-.1-.1-.1-.1s0-1.4 0-1.5c0-.2.1-.1.2 0 .2 0 2.2.8 2.4.9s.1.3 0 .3-.8.2-.8.2l1.7 1.2s2.2-3 2.5-3.3c.2-.2.2-.1.1.2 0 .3-.4 1.6-.6 1.8-.1.2-1.2 1.8-1.2 1.8s1.5.9 1.9 1.4c.6.9.2 1.8.1 2.3zm-2.9-2.6s-1 1.7-1.2 2.1c-.4 1 .6 1.2 1 1.2.4-.1 1.7-.8 2.4-1.3.6-.5-1.8-1.8-2.2-2z" fill-rule="evenodd"/><path d="m65.1 17.6c-.1.3-.4 1.6-2.2 1.2-.5 0-1.5-.2-1.8-1.3-.5.6-1.6 2.4-3.7 2.1-.5-.1-1.9-.7-2-2.5 0 0-1.7 1.4-2.5 1.8 0 .7 0 1.4-.3 2.3-.3.8-4.1 5.1-7.1 5.7-1.1.3-5 1-5.1-3.4-.1-.9 0-1.6.1-2.1-2.4 1.9-5.3 3.3-6.2 3.7-1.2.7-5.7 1.4-6.5 1.5-.5.1-.6 0-.3-.2s10.2-3.5 15.4-8.9c.1-.2.1-.4-.1-.7-.1-.3-1.7-3.3-1.9-3.7-.1-.4-.3-.9-.4-1.1q-.1-.2-.1-.5c.1-.1.2-1 .3-1.2 0-.1.1-.1.2.1.1.1 1.7 1.7 1.9 1.9.2.3 0 .3 0 .3-.1 0-.9 0-.9 0s1.1 1.8 1.4 2.5c.6 1.5.3 2.6.1 3.2-.5.9-1.4 1.8-2.4 2.7-.2.7-.5 4.3 2.9 4.4.5 0 2.2.3 5.6-2.5.8-.7 1.6-1.4 2.4-2.5.3-.4.5-1.1-.1-1.1-.5.1-4 1.4-4.5-.7-.1-.6.1-5.6 3.6-3.1.3.2 1 .8 1.5 1.8.6-.3 1.6-.9 3-2 .3-.3.7-.4.7 0 0 .5-.3 3.4 2.8 2.5.4-.1 1.7-.3 2.7-2.8.3-.6.6-.5.4 0-.2.6-.6 1.1-.2 1.4.3.3 1.2 1 2.3.8.4 0 .6-.2.4-.5-.1-.3-.5-1-.5-1 .1-.4.3-1 .3-1.2s.1-.3.2-.2c.2.2 1.2 1.5.6 3.3zm-14.2.2c-1.1-1.5-2.5-.7-2.6-.5-.2.1-.3.6.8.6 1.3.1 1.8-.1 1.8-.1z" fill-rule="evenodd"/><path d="m20.2 11c-.1.1-.1.2-.2.4s-.3.3-.5.4c-.3.2-4.9 2.2-5 2.3-.5.2-.4 0-.3-.1q0-.1.1-.4c0-.2.1-.3.4-.4.4-.2 4.9-2.2 5.2-2.4.4-.2.4 0 .3.2z"/><path d="m33.1 8.6 1.3 1 .8-1q0-.1.1 0l1.4 1q0 0 0 .1l-.8 1.1q-.1.1-.2.1l-1.3-1-.7.9q-.1.1-.1.1l-1.4-1.1q-.1 0-.1-.1l.9-1.1q0-.1.1 0z"/><path d="m61.5 8.6s-.1.4-.1.6c-.5 1.3-.2 1.8-.2 2 .4.6.8.3 1-.2.1-.2.1-.1.1 0q0 .1-.1.4c-.2.7-.5.9-.7.9-.5 0-.7-.6-.7-.9-.1-1.4.5-2.5.6-2.9.1-.3.2-.1.1.1z"/><path d="m47.6 7.9s-.1.4-.2.7c-.5 1.3-.2 1.9-.2 2 .4.7.9.4 1.1-.2.1-.2.1-.1.1 0q0 .2-.1.4c-.2.9-.5 1.1-.8 1.1-.5-.1-.7-.7-.8-1.1 0-1.4.6-2.6.7-3 .2-.3.3-.2.2.1z"/><path d="m9.1 3.2s.2.7.4 1.1c.2.3.4.7.3 1.3s-.4 1-.7 1.1c-.4.2-1 .2-1.4-.4-.5 1-1.2 1.2-1.7.9-.4-.2-.5-1-.4-1.2 0-.3-.1-1.1-.1-1.3 0-.1.1-.3.2-.5s.2-.1.2.1c0 .3-.1 1.4.1 1.8.4.6 1.3 0 1.5-.3s-.2-1.5-.2-1.6q-.1 0-.1-.1c0-.1.1-.4.1-.6q.2-.3.3 0c.1.2.1.5.3 1.5.2 1.1 1.2.9 1.4.8s.2-.2.1-.4c-.1-.1-.4-1-.6-1.3-.1-.4-.1-.7.1-1 .1-.4.1-.1.2.1z"/><path d="m46.3 2.2c0 .2 0 .2-.1.4-.1.3-.3.3-.5.5-.3.1-7.6 4.4-7.7 4.5-.5.2-.4.1-.4-.1q0-.1.1-.4c.1-.2.2-.3.5-.5.3-.1 7.5-4.3 7.8-4.5.5-.3.4-.1.3.1z"/><path d="m17.9 2.7c.2.3 0 .9-.1 1.2s-.3 0-.5-.2c0 0-.1-.1-.3-.3-.7-.6-1 .6-1.1 1.2-.1.4-.1 1.8-.3 2.6 0 .3-.2.2-.3 0-.5-1.7-1.5-2.5-1.6-2.6-.2-.2-.3 0-.4.1 0 .2-.1.1-.2.1-.1-.1-.6-.4-.8-.6s-.1-.8-.1-1.1c0-.4.3-.6.4-.5 2 1.1 2.6 3 2.8 3.3.1-1.4.1-2.7.9-3.7.6-.8 1.5.4 1.6.5z"/><path d="m55.2 2.6c.2.3.1.9-.1 1.3-.1.2-.3 0-.4-.2 0 0-.2-.2-.4-.4-.7-.6-1 .6-1.1 1.2 0 .4-.1 1.8-.2 2.6-.1.3-.3.3-.4.1-.5-1.8-1.4-2.6-1.6-2.7-.2-.2-.3.1-.3.2-.1.1-.1.1-.2 0-.1 0-.7-.4-.9-.6s-.1-.8-.1-1.1c.1-.4.4-.6.5-.5 2 1.1 2.6 3.1 2.7 3.4.1-1.5.2-2.8.9-3.8.7-.8 1.6.4 1.6.5z"/><g fill-rule="evenodd"><path d="m62.4 5.7c0 .2-.1.1-.3-.1-.1-.1-.2-.4-.5-.5-.3.7-.3.7-1.5 1.8-2.7 2.3-5.7 3.1-5.8 3.2-.2 0-.2-.1 0-.3 1-.7 4.8-2.5 6.8-4.9 0 0-.6-.2-1-.5-.5-.3-.2-1.4.1-1.9.7-1.2 1.4-.6 1.5-.4.7 1.1.3 2.3.3 2.3.3.2.7.6.4 1.3zm-1.2-2.9c-.2-.1-.4-.1-.7.5-.2.1 0 .3.2.4.3.1.8.4.8.4.1-.2.1-.9-.3-1.3z"/><path d="m34.9 5.3c-.1.2-.2.1-.3-.1-.1-.1-.6-.5-.6-.5s-.6 1.3-1.6 2c-1.8 1.4-3.3 1.6-3.4 1.7-.2 0-.2-.1.1-.3 1.1-.7 2.5-1.2 4.4-3.6 0 0-.6-.2-1-.5s-.2-1.4.1-1.9c.7-1.2 1.4-.6 1.5-.4.7 1.1.3 2.3.3 2.3.4.2.7.6.5 1.3zm-1.3-2.9c-.1-.1-.3-.1-.7.5-.1.1 0 .3.2.4.3.1.9.4.9.4 0-.2 0-.9-.4-1.3z"/><path d="m31.2 16.5-.7 1.5q-1.4 0-2.5.1c.1 2.5-.3 3.3-.4 3.5s-.2.1-.2-.1c0-.7-.2-2-.3-3.4-2.3.2-3.2.7-3.8 1-4.4 2.5-7.8 1.6-8.5 1.3-3.6-1.5-2.3-6.5-2-7.7-.6.2-1.1.5-1.3.6q-1.8.8-2.9 1.8c.1.4.1.8.1 1 0 .4-.1.4-.2.2q-.3-.4-.6-.7c-2.1 2-2.5 4.2-2.5 4.8-.6 3.1 1.7 5 2.4 5.4 3.6 1.5 9.9.7 11.1.6s1 0 .3.4c-3 1.3-5.4 1.5-6.1 1.5-4.6.3-6-1.1-6.6-1.6-1.8-1.6-2.1-3.7-1.9-5.7.4-3.2 1.4-4.6 1.6-4.9q.5-.6 1-1.2c-1-1-2.2-1.6-2.5-1.8-.5-.4-.8-1.1-.7-1.8.3-1.8 2.4-1.9 2.8-1.9 4.6-.4 9 .4 9.1.5.2.1-.3 1.4-.3 1.4s-1.1.5-2.1 1c-1.5 4.7.9 6 1.4 6.3 3.2 1.6 7.6-.7 8.2-1-4.1-1.5-6-.8-6.1-.8-.1.1-.3 0-.2-.2 0-.1.4-1 .5-1.1.5-.6 3.7-.5 4.3-.9.1 0-.5-3-.5-3.3-.7-4.2-1.3-8.5-1.3-8.8 0 0 .4-1.2.4-1.3.1-.2.2-.1.2.1.1.1 1.8 4.2 1.9 4.5 0 .2-.1.3-.3.1-.1-.1-.9-.9-.9-.9s1.2 7.3 1.3 8.2-.2 2-.2 2.3c1.6.5 3.2.7 4.6.9-.4-3.1-.9-6.4-.9-6.7-.1-.5-.8-6.6-.9-7.3 0 0 .4-1.1.5-1.3 0-.2.1-.1.1.1.1.1 1.8 4.2 1.9 4.5.1.2-.1.3-.2.1-.2-.1-1-.9-1-.9s1.2 8.4 1.2 8.9q.3 1.5.4 2.6c1.6.2 2.8.1 3.3.1zm-18.3-5.4c-5.1-.9-7.7.1-7.9.3s-.1.3 0 .3c.1.1 1.9 1.2 2.6 1.9q.3.3.4.5c2-1.6 4.5-2.9 4.9-3z"/></g></g></svg>