<svg height="30" viewBox="0 0 70 30" width="70" xmlns="http://www.w3.org/2000/svg"><g fill="#191c4f"><path d="m35.6 20.6c.4.1.4.5.3.7-.2.9-.9 1.6-1.1 1.7-.2.2-.2.1-.1-.1 0 0 .2-.2.3-.3.6-.7.6-1.1.6-1.2-.1-.5-.5-.4-.8-.2-.1.2-.1.1-.1 0q.1-.1.2-.2c.3-.5.6-.5.7-.4z"/><path d="m22 20.4s-.1.3-.2.4c-.3 1-.1 1.4-.1 1.5.3.5.6.2.8-.1 0-.2.1-.1.1 0q-.1.1-.1.3c-.2.6-.4.7-.6.7-.4 0-.5-.5-.5-.7-.1-1.1.3-1.9.4-2.2.1-.2.2-.1.2.1z"/><path d="m9.1 20.3s-.1.2-.2.4c-.3.9-.1 1.3-.1 1.4.3.5.6.2.8-.1 0-.2.1-.1.1 0q0 .1-.1.3c-.2.5-.4.7-.6.7-.3-.1-.5-.5-.5-.7-.1-1 .4-1.8.5-2.1.1-.2.1-.1.1.1z"/><path d="m64.1 20v.5c0 .3-.1.6-.2.9s-.7.4-1.2.1c-.7 1.2-1.4.6-1.7.4-.7-.2-.9.2-1 .4-.8.9-2.4.9-2.7.9-.4.1-.1-.2.1-.2 1.2-.4 1.9-.5 3-1.5.4-.5.7-.3.9-.2 1 .5 1.1 0 1.3-.1.1-.1.3-.6.3-.8.1-.2.2 0 .2.1-.1.1-.1.3-.1.4.4.3.8 0 .9-.1 0 0-.1-.3-.1-.4q0-.1.2-.5c0-.3.1 0 .1.1z"/><path d="m8.1 14.4s-.1.3-.1.5c-.3.9-.1 1.3-.1 1.4.3.5.6.2.8-.1 0-.2.1-.1 0-.1q0 .1 0 .3c-.1.6-.4.7-.5.8-.4 0-.6-.5-.6-.7-.1-1 .3-1.9.4-2.1.1-.3.1-.2.1 0z"/><path d="m10.2 13.9 1 .7q0 0 0 .1l-.6.8q0 0-.1 0l-1-.7q0-.1 0-.1l.6-.8q0-.1.1 0z"/><path d="m45.7 18.7c-.3.9-1.7 1.5-2 1.6-1.2.4-1.3-.9-1.2-1.8 0-.9.7-2 .7-2-.1-.1-1.4-1.1-1.5-1.2s-.2-.3-.3-.3c-.1-.1-.1-.2-.1-.2s0-.9 0-1 0-.1.2 0c.1 0 1.5.6 1.6.6.2.1.1.2 0 .3 0 0-.5.1-.5.1l1.2.8s1.6-2.1 1.7-2.3c.2-.2.2-.1.1.2 0 .2-.3 1.1-.4 1.2s-.9 1.3-.9 1.3 1.1.6 1.4 1c.4.7.1 1.3 0 1.7zm-2-1.9s-.7 1.2-.8 1.5c-.3.7.4.8.6.8.3 0 1.3-.5 1.7-.9.5-.4-1.2-1.3-1.5-1.4z" fill-rule="evenodd"/><path d="m65.6 17.5c-.1.2-.3 1.1-1.6.9-.4-.1-1-.2-1.3-1-.3.5-1.1 1.7-2.6 1.5-.3-.1-1.4-.5-1.4-1.8 0 0-1.2 1-1.8 1.3 0 .5 0 1-.2 1.6s-2.9 3.6-5.1 4.1c-.7.2-3.5.7-3.6-2.4 0-.6 0-1.1.1-1.5-1.7 1.3-3.8 2.4-4.4 2.6-.9.5-4 1-4.6 1.1-.4.1-.4 0-.2-.2.2-.1 7.2-2.4 10.9-6.3q.1-.2 0-.5c-.1-.2-1.3-2.3-1.4-2.6s-.3-.7-.3-.8q-.1-.1 0-.3c0-.1.1-.7.1-.9.1-.1.1 0 .2.1s1.2 1.2 1.3 1.4c.2.1.1.2 0 .2h-.6s.8 1.2 1 1.7c.4 1.1.2 1.9.1 2.3-.4.6-1 1.3-1.7 1.9-.2.5-.4 3.1 2 3.1.4.1 1.6.2 4-1.7.5-.5 1.1-1 1.7-1.8.2-.3.3-.8-.1-.8-.3.1-2.8 1-3.2-.5-.1-.4.1-4 2.6-2.2.2.2.7.6 1 1.3.4-.2 1.2-.7 2.1-1.4.3-.2.6-.4.6 0 0 .3-.2 2.4 2 1.8.3-.1 1.2-.3 1.9-2.1.2-.4.4-.3.3 0-.2.5-.4.8-.2 1.1.2.2.8.6 1.6.5.3 0 .5-.1.4-.4-.1-.2-.4-.6-.4-.6.1-.3.2-.8.2-.9s.1-.2.2-.1.8 1 .4 2.3zm-10.1.1c-.8-1.1-1.8-.5-1.9-.3-.1.1-.1.4.6.4 1 .1 1.3-.1 1.3-.1z" fill-rule="evenodd"/><path d="m44.4 11.1 1 .7q0 0 0 .1l-.6.8q0 0-.1 0l-.9-.7-.6.7q0 0 0 0l-1-.7q-.1-.1 0-.1l.5-.8q.1 0 .1 0l1 .7.5-.7q0 0 .1 0z"/><path d="m63 11.1s0 .3-.1.5c-.3.8-.1 1.2-.1 1.3.3.5.6.2.7-.1.1-.2.1-.1.1 0q0 .1-.1.3c-.1.5-.3.6-.5.6-.3 0-.5-.4-.5-.6-.1-1 .3-1.8.4-2 .1-.3.2-.2.1 0z"/><path d="m30.2 19.6c-.1.1-.1.1-.2.3 0 .2-.1.2-.3.3s-2.4 1-2.5 1c-.3.2-.3.1-.2 0q0-.1.1-.3c0-.2.1-.2.3-.3s2.3-1 2.6-1.1.2 0 .2.1z"/><path d="m31.7 13.5v.3c-.1 0-.2.2-.3.3q-.1.1-.2.1c-.2-.4-.4-.3-.7-.1-.2.1-.2.3-.2.4.1.1.5.4.8.5.3 0 1-.2 1.3-.3.2-.2.1.1 0 .2 0 0-.2.3-.3.4-1.4.3-1.9.8-2.1.9s-.2 0-.1-.1c0-.1 0-.1.1-.3q.1-.2.3-.3 0 0-.4-.3c-.5-.5.6-1.5 1-1.8s.7 0 .8.1z"/><path d="m20.9 12.4 1 .7q.1.1 0 .1l-.5.8q-.1.1-.1 0l-1-.7q-.1 0 0-.1l.6-.8q0 0 0 0z"/><path d="m53.1 10.6s-.1.3-.1.5c-.4.9-.2 1.4-.1 1.4.2.5.6.3.7-.1.1-.2.1-.1.1 0q0 .1 0 .3c-.2.6-.5.7-.6.7-.4 0-.6-.5-.6-.7 0-1 .4-1.9.5-2.1.1-.3.2-.2.1 0z"/><path d="m27.1 10.7c.1.2.1.6 0 .8 0 .2-.2 0-.3-.1 0 0-.1-.1-.2-.2-.6-.3-.7.5-.7.9v1.7c0 .2-.1.2-.2.1-.5-1.1-1.2-1.6-1.3-1.7s-.2.1-.2.1c0 .1-.1.1-.1.1-.1 0-.5-.2-.6-.3-.1-.2-.1-.6-.1-.8-.1-.3.1-.4.2-.3 1.4.6 1.9 1.8 2 2 0-1 0-1.8.4-2.5.4-.6 1.1.1 1.1.2z"/><path d="m11.4 10.4s-.1.3-.1.4c-.3 1-.2 1.4-.1 1.5.2.4.6.2.7-.2.1-.1.1 0 .1 0q0 .1-.1.3c-.1.6-.4.7-.5.7-.4 0-.5-.4-.5-.7-.1-1 .3-1.8.4-2.1.1-.2.2-.1.1.1z"/><path d="m29.7 7.9c.6.1.4.3.3.5-.4.6-1 .9-1.4 1.1s-.2-.2 0-.3c0 0 .3-.2.6-.5.4-.2-.6-.2-1-.2s-.5.1-.6.3c-.2.1-.3.1-.2-.1s.2-.4.5-.7c.3-.4 1.2-.2 1.8-.1z"/><path d="m17.5 7.4s-.1.3-.1.5c-.4.9-.2 1.3-.1 1.4.2.5.6.2.7-.1 0-.2.1-.1.1 0q0 0-.1.2c-.1.6-.4.7-.5.7-.4 0-.6-.4-.6-.7 0-1 .4-1.8.5-2 .1-.3.2-.2.1 0z"/><path d="m6.9 7.2s-.1.3-.1.5c-.4.9-.2 1.3-.1 1.4.2.5.6.2.7-.1 0-.2.1-.1.1 0q0 0-.1.2c-.1.6-.4.7-.5.7-.4 0-.5-.4-.6-.7 0-1 .4-1.8.5-2 .1-.3.2-.2.1 0z"/><path d="m15.4 7c0 .1 0 .2-.1.4-.1.1-.2.2-.4.3s-7.9 3.9-8 4c-.3.2-.3.1-.3-.1q0 0 .1-.3c0-.2.1-.2.3-.3.3-.2 7.9-4 8.2-4.1s.3 0 .2.1z"/><path d="m25.3 6.9s-.1.3-.2.4c-.3 1-.1 1.4-.1 1.5.3.4.6.2.8-.2 0-.1.1 0 .1 0q-.1.1-.1.3c-.2.6-.4.7-.6.7-.3 0-.5-.5-.5-.7-.1-1 .4-1.8.5-2.1.1-.2.2-.1.1.1z"/><path d="m52.2 6.6c0 .1 0 .1-.1.3 0 .1-.2.2-.3.3-.2.1-5.4 3.1-5.5 3.2-.3.2-.3 0-.2-.1q0 0 0-.3c0-.1.1-.1.3-.3.2-.1 5.4-3.1 5.6-3.2.3-.2.3-.1.2.1z"/><path d="m22.2 9.4c0 .1-.1 0-.2-.1s-.4-.4-.4-.4-1.2 1.8-2.3 2.7c-1.4 1-2.6 1.5-2.7 1.5s-.2-.1.1-.2c.9-.5 3-2.3 4.5-4.1 0 0-.5-.2-.8-.5-.3-.2-.2-1 .1-1.4.5-.9 1-.4 1.1-.3.5.9.3 1.7.3 1.7.2.2.5.5.3 1.1zm-1-2.2c-.1-.1-.2-.1-.5.3-.1.1 0 .2.2.3s.6.3.6.3c0-.1.1-.6-.3-.9z" fill-rule="evenodd"/><path d="m58.6 6.9c.1.2 0 .6-.1.8s-.2 0-.3-.1c0 0-.2-.1-.3-.2-.5-.5-.7.4-.8.8 0 .3-.1 1.3-.1 1.8-.1.3-.2.2-.3.1-.3-1.2-1-1.8-1.1-1.9-.2-.1-.3 0-.3.1s-.1.1-.1.1c-.1-.1-.5-.3-.6-.5-.2-.1-.1-.6-.1-.7 0-.4.2-.5.3-.4 1.4.8 1.9 2.1 2 2.4 0-1.1.1-2 .6-2.7.5-.6 1.1.3 1.2.4z"/><g fill-rule="evenodd"><path d="m33.2 9.1c-.1.1-.1 0-.2-.1s-.4-.4-.4-.4-1 1.7-2.1 2.5c-1.3.9-2.3 1.3-2.4 1.3-.1.1-.1-.1.1-.2.8-.4 2.7-2 4.1-3.7 0 0-.5-.2-.8-.4s-.1-1 .1-1.3c.5-.8 1-.4 1.1-.3.4.8.2 1.6.2 1.6.2.2.5.5.3 1zm-.9-2.1c-.1 0-.2 0-.5.3-.1.2 0 .3.2.3.2.1.6.3.6.3 0-.1 0-.6-.3-.9z"/><path d="m63.7 9.1c-.1.1-.1 0-.2-.1s-.2-.3-.4-.4c-.2.5-.2.5-1.1 1.3-1.9 1.6-4 2.2-4.1 2.2-.1.1-.2 0 0-.2.7-.5 3.4-1.7 4.8-3.4 0 0-.4-.2-.7-.4s-.2-1 .1-1.3c.5-.8 1-.4 1-.3.5.8.3 1.6.3 1.6.2.1.5.5.3 1zm-.9-2.1c-.1-.1-.3-.1-.5.3-.1.1 0 .2.2.3.1.1.5.3.5.3.1-.1.1-.6-.2-.9z"/><path d="m38.7 19c-.1 1.5-.9 1.4-1.1 1.3-1.1-.2-1.8-1.7-1.8-1.9-.3.2-2 .8-2.1.8.2 1.6-1 2.4-1.5 2.8-2.6 2.3-4.7 2-5.1 1.8-2.5-1.1-.9-4.8-.6-5.4-.6-.2-.9-.4-.9-.4-.4 1.1-1.3 1.5-1.5 1.6-.3 0-2.2.4-2.7-2-.4.7-1.5 1.3-1.7 1.5 0 0-.1.7-.1.9-.1.7-.5 1.2-.9 1.7-.7.7-3.9 3.1-6.1 2.3-2.4-.9-1.6-3.9-1.2-4.9-2.3 1.1-3.7.7-4.3.5-3.5-1.1-1.7-5.7-1.4-6 .2-.3.3-.1.2 0-1 2.4-.1 3.6 0 3.9 1.1 1.5 3.2 1.1 3.7 1 3-.7 4.9-2.5 5.1-2.8.3-.3.1-.6 0-.8s-.7-1.4-1-2.3c-.1-.3-.3-1-.3-1.1 0 0 .3-.7.3-.8q.1-.1.1 0c.1.1.1.1.1.2s.9 1.1 1 1.3c.1.1 0 .2-.1.2q-.1-.1-.5-.2s1 2.2 1 2.5c.5 1.7-1.3 2.8-1.6 3q-1.1.8-2 1.2c-.1.6-.2 1.6-.2 2.1.3 2.6 2.8 1.9 3.3 1.7 3.3-1.1 4.2-2.7 4.3-3 .2-.3-.1-.4-.2-.3-1.4.5-2.4-.1-2.6-.3-.7-1 .2-2.2.4-2.3.6-.7 1.2-.4 1.4-.2.9.6 1.3 1.4 1.3 1.4.8-.3 2.2-1.8 2.3-1.9s.2-.1.2.1c0 .3.1 1.1.2 1.3.9 1.8 2.5.7 2.9.4.4-.4.8-1.6.9-1.9.7-1.4 1.5-1 1.7-.9.9.8 1.1 2 1.1 2.4.2 1.2-.8 1.1-1 1.1q-.6 0-1-.1c-.1.2-.5 1.6-.5 2-.2 3.6 3.6 1.9 4 1.7 1.4-.7 3-2.2 3.1-2.6 0-.3-.4-.3-.5-.3-.5.2-1.3.2-1.8 0-1.1-.5-.5-1.8-.3-2.1.7-1.2 1.5-.8 1.7-.7.8.6 1.2 1.5 1.2 1.5.2 0 2-.6 2-.6-.2-.8-1.1-6-1.1-6.3-.3-2-.5-3.7-.6-3.9 0 0 .3-.8.4-.9 0-.1.1 0 .1.1s1.2 3 1.3 3.2c.1.1-.1.2-.2.1s-.6-.7-.6-.7 1.1 7.1 1.4 8c2.9-.5 2.5 1.7 2.4 2zm-6.1-.8c-.4-.7-1-.7-1.2-.5-.1.1-.5.4 0 .5.7.1 1.2 0 1.2 0zm-14.2.1c-.7-.8-1.2-.7-1.3-.7-.2.1-.6.4-.2.6 1 .3 1.5.1 1.5.1zm9.3-.9c.1 0 .2.1.1-.2-.5-1.4-1.1-1.1-1.3-1-.4.4-.5.7-.5.7.1 0 .5.4 1.7.5zm10.5 1.4c-.3-.8-1.4-.7-1.5-.7 0 0 .4 1.1 1.4 1 .2 0 .2-.2.1-.3z"/></g><path d="m38.3 6.3c0 .1 1.2 3 1.3 3.2 0 .2-.1.2-.2.1s-.7-.6-.7-.6 1 6.1 1.1 6.5c.6 4.2.1 5.4 0 5.5-.1.2-.2.1-.2 0 0-1.8-1-8-1-8.4-.1-.4-.7-4.9-.8-5.4 0 0 .3-.8.3-1 .1-.1.1 0 .2.1z"/><path d="m44.1 8.8c-.1.1-.1 0-.2-.1s-.4-.4-.4-.4-.4.9-1.1 1.5c-1.3.9-2.4 1.1-2.5 1.1-.1.1-.1 0 .1-.2.8-.4 1.7-.8 3.1-2.5 0 0-.4-.2-.7-.4s-.1-1 .1-1.3c.5-.8 1-.4 1.1-.3.4.8.2 1.6.2 1.6.2.2.5.5.3 1zm-.9-2.1c-.1 0-.2-.1-.5.3-.1.1 0 .3.2.3.2.1.6.3.6.3 0-.1 0-.6-.3-.9z" fill-rule="evenodd"/></g></svg>