<svg height="30" viewBox="0 0 70 30" width="70" xmlns="http://www.w3.org/2000/svg"><g fill="#191c4f"><path d="m19 21.6s-.1.2-.1.4c-.3 1-.1 1.4-.1 1.5.3.5.7.2.8-.1 0-.2.1-.1.1-.1q0 .1-.1.3c-.1.6-.3.8-.5.8-.4 0-.6-.5-.6-.7-.1-1 .3-1.9.4-2.2 0-.3.1-.1.1.1z"/><path d="m17.5 21.4c0 .1 0 .2-.1.3-.1.2-.2.3-.3.4-.2.1-4.7 2.3-4.8 2.4-.3.2-.3.1-.2 0q0-.1 0-.3c0-.2.1-.2.3-.4.2-.1 4.7-2.3 4.9-2.4.3-.2.3-.1.2 0z"/><path d="m30.6 20.6s0 .2-.1.4c-.3.9-.1 1.3-.1 1.4.3.5.6.2.7-.1.1-.2.1-.1.1 0q0 .1 0 .3c-.2.5-.4.6-.6.6-.3 0-.5-.4-.5-.6-.1-1 .3-1.8.4-2.1.1-.2.2-.1.1.1z"/><path d="m37.9 20.2s-.1.2-.1.4c-.3.9-.2 1.3-.1 1.4.2.5.5.2.7-.1 0-.2.1-.1.1 0q0 .1-.1.3c-.1.5-.4.6-.5.6-.4 0-.5-.4-.6-.6 0-1 .4-1.8.5-2.1.1-.2.2-.1.1.1z"/><path d="m64.1 20.1v.5c0 .2-.1.5-.2.8s-.7.5-1.2.2c-.7 1.1-1.4.5-1.7.4-.7-.3-.9.2-1.1.3-.8 1-2.3 1-2.6 1-.4 0-.1-.2 0-.3 1.2-.4 2-.5 3-1.5.5-.4.8-.2 1-.1 1 .4 1.1 0 1.2-.2.2-.1.3-.6.4-.8.1-.1.2 0 .1.2 0 .1 0 .2-.1.3.5.3.9.1 1 0 0 0-.1-.3-.1-.4q0-.2.1-.6c.1-.2.2 0 .2.2z"/><path d="m8.6 17.6s-.1.3-.1.4c-.3 1-.1 1.4 0 1.5.2.5.6.2.7-.1.1-.2.1-.1.1 0q0 0 0 .3c-.2.5-.4.7-.6.7-.4 0-.5-.4-.6-.7-.1-1 .3-1.9.4-2.2.1-.2.2-.1.1.1z"/><path d="m10.2 16.5 1 .7q0 .1 0 .1l-.6.8q0 .1-.1 0l-1-.7q0 0 0-.1l.6-.8q0 0 .1 0z"/><path d="m45.7 18.7c-.3 1-1.7 1.5-2.1 1.6-1.2.4-1.3-.8-1.2-1.7s.7-2.1.7-2.1-1.4-1.1-1.5-1.2-.2-.2-.3-.3-.1-.1-.1-.1 0-1 0-1.1.1 0 .2 0 1.5.6 1.7.7c.1.1.1.2 0 .2s-.6.1-.6.1l1.2.9s1.6-2.1 1.8-2.3c.1-.2.1-.1.1.1-.1.2-.4 1.1-.4 1.2-.1.2-1 1.3-1 1.3s1.1.7 1.4 1.1c.5.6.2 1.2.1 1.6zm-2.1-1.9s-.7 1.3-.8 1.5c-.3.7.4.9.7.9.3-.1 1.2-.6 1.7-1 .4-.3-1.3-1.2-1.6-1.4z" fill-rule="evenodd"/><path d="m65.6 17.5c-.1.3-.3 1.2-1.6.9-.4 0-1-.2-1.3-.9-.3.4-1.1 1.7-2.6 1.4-.3 0-1.4-.4-1.4-1.7 0 0-1.3 1-1.8 1.3 0 .4 0 1-.3 1.6-.2.6-2.8 3.6-5 4.1-.8.1-3.5.7-3.6-2.4-.1-.7 0-1.2 0-1.5-1.7 1.3-3.8 2.3-4.3 2.6-1 .4-4.1 1-4.7 1.1-.4 0-.4-.1-.2-.2s7.3-2.5 10.9-6.3q.2-.2 0-.5c-.1-.2-1.2-2.4-1.3-2.7-.2-.3-.3-.6-.4-.7q0-.2 0-.4c0-.1.1-.7.2-.8 0-.2.1-.1.1 0 .1.1 1.3 1.2 1.4 1.4.1.1 0 .2 0 .2-.1 0-.6 0-.6 0s.7 1.3.9 1.7c.5 1.1.2 1.9.1 2.3-.4.7-1 1.3-1.7 1.9-.1.6-.3 3.1 2 3.2.4 0 1.6.2 4-1.8.6-.4 1.2-1 1.8-1.7.2-.4.3-.9-.1-.8-.4 0-2.9.9-3.2-.6-.1-.4.1-3.9 2.5-2.2.2.2.8.6 1.1 1.3.4-.2 1.2-.6 2.1-1.4.3-.2.5-.3.5 0 0 .4-.2 2.4 2.1 1.8.2-.1 1.2-.3 1.9-2 .2-.4.4-.4.3 0-.2.4-.4.8-.2 1s.8.7 1.6.6c.3-.1.5-.2.4-.4-.1-.3-.4-.7-.4-.7.1-.3.2-.7.2-.9 0-.1.1-.2.2-.1s.8 1.1.4 2.3zm-10.1.1c-.8-1-1.8-.4-1.9-.3s-.2.4.6.5c.9 0 1.3-.2 1.3-.2z" fill-rule="evenodd"/><path d="m11.2 12.1s-.1.3-.1.5c-.3.9-.1 1.4-.1 1.5.3.4.7.2.8-.2 0-.2.1-.1.1 0q0 .1 0 .3c-.2.6-.4.7-.6.7-.4 0-.6-.4-.6-.7-.1-1 .3-1.9.4-2.2.1-.2.2-.1.1.1z"/><path d="m5.8 11.8s-.1.5-.2.8c-.4 1.8-.1 2.5 0 2.7.4.9 1 .4 1.1-.3.1-.3.2-.2.2 0q0 .1-.1.5c-.2 1.1-.6 1.4-.8 1.4q-.1 0-.1 0c-.9 2.3-.1 3.5.1 3.8 1 1.5 3 1.1 3.5 1 3-.7 4.8-2.5 5-2.8s.1-.6 0-.8-.7-1.4-1-2.3c-.1-.3-.3-.9-.2-1 0 0 .2-.8.2-.8.1-.1.1-.1.1 0q.1.1.1.2s.9 1.1 1 1.2c.1.2 0 .3-.1.2q-.1 0-.5-.1s1 2.2 1 2.4c.4 1.7-1.3 2.8-1.6 3-3.6 2.6-5.6 2.1-6.4 1.9-3.4-1.1-1.6-5.6-1.4-6q0 0 0 0c-.4-.2-.6-.8-.7-1.2-.2-1.8.4-3.5.6-3.9.1-.5.3-.3.2.1z"/><path d="m44.3 11.1 1 .7q0 .1 0 .1l-.6.8q0 .1 0 0l-1-.7-.5.7q-.1.1-.1 0l-1-.7q0 0 0-.1l.6-.8q0 0 0 0l1 .7.5-.7q.1 0 .1 0z"/><path d="m63 11.2s0 .2-.1.4c-.3.9-.1 1.3-.1 1.3.2.5.6.3.7-.1.1-.1.1-.1.1 0q0 .1-.1.3c-.1.5-.3.7-.5.7-.4-.1-.5-.5-.5-.7-.1-1 .3-1.8.4-2s.2-.1.1.1z"/><path d="m53.1 10.6s-.1.3-.2.5c-.3.9-.1 1.4-.1 1.5.3.5.6.2.8-.2 0-.1.1 0 .1 0q0 .1-.1.3c-.2.6-.4.7-.6.7-.3 0-.5-.4-.5-.7-.1-1 .4-1.9.5-2.1.1-.3.2-.2.1 0z"/><path d="m13 8.7s-.1.3-.2.5c-.2 1 0 1.4 0 1.5.3.5.6.2.8-.2 0-.2.1-.1.1 0q0 .1-.1.3c-.1.6-.4.7-.5.8-.4 0-.6-.5-.6-.7-.1-1.1.3-2 .4-2.2 0-.3.1-.2.1 0z"/><path d="m11.1 7.8c.1.2.1.6 0 .9-.1.2-.2 0-.3-.1 0 0-.2-.1-.3-.2-.5-.4-.7.4-.7.9v1.8q0 0 0 .1c-.1.4-.2 1.1-.9 1.6-.9.8-1 .8-1.1.8-.1.1-.1 0 0-.1s1.9-1.8 1.6-2.6c-.3-.9-1-1.4-1.1-1.5-.2-.1-.3 0-.3.1s-.1.1-.1.1c-.1-.1-.5-.3-.6-.4-.2-.1-.2-.6-.2-.8 0-.3.2-.4.3-.4 1.5.7 2 2 2.1 2.2 0-1 0-1.9.4-2.6s1.1.1 1.2.2z"/><path d="m52.2 6.6c0 .1-.1.1-.1.3-.1.1-.2.2-.4.3s-5.4 3.1-5.5 3.2c-.3.2-.2.1-.2-.1q0 0 .1-.2c0-.2.1-.2.3-.4.2-.1 5.4-3.1 5.6-3.2.3-.2.2-.1.2.1z"/><path d="m58.5 6.9c.2.2.1.6 0 .9-.1.1-.2 0-.4-.2 0 0-.1-.1-.2-.2-.5-.5-.7.4-.8.8 0 .3-.1 1.3-.2 1.8 0 .3-.1.3-.2.1-.4-1.2-1.1-1.8-1.2-1.9s-.2 0-.2.1-.1.1-.2.1c0-.1-.4-.3-.6-.5-.1-.1 0-.5 0-.7 0-.4.2-.5.3-.4 1.4.8 1.9 2.2 1.9 2.4.1-1.1.1-2 .7-2.7.4-.5 1.1.3 1.1.4z"/><path d="m63.7 9.1c-.1.1-.1 0-.2-.1s-.2-.3-.4-.4c-.3.5-.2.6-1.1 1.3-1.9 1.7-4 2.2-4.1 2.3-.2 0-.2-.1 0-.2.7-.5 3.4-1.8 4.8-3.5 0 0-.4-.2-.7-.4s-.2-1 0-1.3c.6-.8 1.1-.4 1.1-.3.5.8.3 1.6.3 1.6.2.2.5.5.3 1zm-.9-2.1c-.1 0-.3-.1-.5.3-.1.1 0 .3.2.3.1.1.5.3.5.3 0-.1.1-.6-.2-.9z" fill-rule="evenodd"/><path d="m19.7 14.9s-.1.2-.1.4c-.3.9-.2 1.3-.1 1.4.2.4.5.2.7-.1 0-.2.1-.1.1 0q0 0-.1.2c-.1.6-.4.7-.6.7-.3 0-.4-.4-.5-.7 0-.9.4-1.8.5-2s.2-.1.1.1z"/><path d="m29.2 15.1c.5.1.4.3.3.5-.5.6-1 .9-1.4 1.1s-.2-.1 0-.3c0 0 .2-.2.6-.4.4-.3-.6-.3-1-.3s-.5.2-.7.3c-.1.2-.3.1-.1-.1.1-.2.2-.4.5-.7s1.2-.2 1.8-.1z"/><path d="m23.4 11.7 1 .8q.1 0 0 0l-.6.8q0 .1 0 .1l-1-.8-.5.7q-.1.1-.1.1l-1-.8q0 0 0-.1l.6-.8q0 0 .1 0l.9.7.5-.7q.1 0 .1 0z"/><path d="m31.7 11.7 1 .7q0 0 0 .1l-.6.8q0 0-.1 0l-1-.7q0 0 0-.1l.6-.8q.1 0 .1 0z"/><path d="m26.7 9.1s0 .2-.1.4c-.3.9-.1 1.3-.1 1.4.2.4.6.2.7-.1.1-.2.1-.1.1 0q0 0-.1.2c-.1.6-.3.7-.5.7-.4 0-.5-.4-.5-.7-.1-.9.3-1.8.4-2s.2-.1.1.1z"/><path d="m28.1 6.6c0 .1 0 .1-.1.4-.1.2-.2.2-.4.3s-8.4 3.9-9.1 4.3-.7.7-.5.8c.5.2.8.5.5 1.1 0 0-.1.1-.1 0-.1-.1-.2-.2-.5-.3-.3 0-.5-.6-.3-1.2.1-.4.3-.7.6-1 .6-.4 9.5-4.4 9.7-4.5.3-.2.3-.1.2.1z"/><path d="m19.5 6.5s-.1.2-.1.4c-.3.8-.2 1.2-.1 1.3.2.4.5.2.6-.1.1-.2.1-.1.1 0q0 .1 0 .3c-.2.5-.4.6-.6.6-.3 0-.4-.4-.4-.6-.1-1 .3-1.7.4-2 .1-.2.2-.1.1.1z"/><path d="m33 9.4c-.1.1-.1 0-.2-.1s-.4-.4-.4-.4-1.3 1.8-2.5 2.6c-1.5.9-2.7 1.3-2.7 1.3-.2 0-.2-.1 0-.2.9-.5 3.2-2.1 4.8-3.9 0 0-.5-.2-.8-.5-.3-.2-.1-1 .2-1.4.6-.9 1.1-.4 1.2-.2.4.9.1 1.7.1 1.7.3.2.5.6.3 1.1zm-.9-2.3c-.1-.1-.2-.1-.5.3-.1.1 0 .3.1.4.2.1.7.3.7.3 0-.1.1-.7-.3-1z" fill-rule="evenodd"/><path d="m37.1 18.7c-.1 1.6-1.6 1.9-1.9 1.9-2.4.4-3-1.3-3.2-1.6-.3.1-2 .9-2.7 1.2-2.1.8-3.3 2.7-3.7 3.2-.8 1.2-2 1.3-2.5 1.1-1.9-.6-1.3-2.9-.9-3.8-1.8.5-3 .2-3.4.1-2.3-.8-2.4-3.7-2.5-4.2-.2-1.2-.7-7.7-1.4-9.1-.1-.2.2-.8.3-1.1.1-.2.1-.2.2 0 .9 1.9 1.3 8.1 1.4 8.9.3 3.1 1.2 3.9 1.5 4.1 2.8 1.4 6.2-.9 6.4-1.1s.2-.2.1-.5c-.2-.3-.9-.3-1.2-.2-.5.2-1.5.1-1.8-.6-.4-.7 0-1.5.5-2.2.5-.5 1.2-.4 1.6-.1 1.2.8 1.4 2.3 1.5 2.8v.9c-.2.9-.8 1.2-1.3 1.5q-.8.4-1.5.6c0 .3-.1.6-.3 1.1-.7 2.7 1.3 2.6 2.4 1.5.4-.4 1.4-1.9 2.3-2.6 1.3-1.1 3.7-1.9 4.6-2.5-.6-2 .1-3.1.4-3.4.4-.4 1.4-.7 1.9 1.3.3 2.1-.9 2.6-1.2 2.8.9 1.6 3.6.5 3.9.1.2-.2 0-.7 0-.9-.1-.5-1.9-10.4-1.9-10.6 0 0 .3-.9.4-1 0-.1.1-.1.1 0 0 .2 1.3 3.1 1.3 3.3.1.1 0 .2-.1.1s-.7-.7-.7-.7.9 4.8 1 5.3c.6 2.5.5 4.1.4 4.4zm-13.1-2.3c-.5-.8-1.1-.7-1.3-.7-.2.1-.6.5-.2.7.7.2 1.5 0 1.5 0zm8.2 1.3c.2-.1 1.5-.6 1.2-1.3-.1-.2-.7-1.2-1.1-.8-.4.3-.6.6-.5 1 .2.7.4 1.1.4 1.1z" fill-rule="evenodd"/><path d="m38.5 6.3c.1.1 1.3 3 1.4 3.2 0 .2-.1.2-.2.1s-.7-.7-.7-.7 1 7.2 1.1 7.6c.6 4.2.1 5.4 0 5.6-.1.1-.2.1-.2-.1 0-1.8-1-8-1-8.4-.1-.4-.7-5.9-.8-6.5 0 0 .3-.8.3-.9.1-.1.1 0 .1.1z"/><path d="m44 8.8c0 .1-.1 0-.2-.1 0-.1-.4-.3-.4-.3s-.4.9-1.1 1.4c-1.3 1-2.4 1.1-2.5 1.2-.1 0-.1-.1.1-.2.8-.5 1.8-.9 3.2-2.6 0 0-.5-.2-.8-.4s-.1-1 .1-1.3c.5-.8 1-.4 1.1-.3.5.8.2 1.6.2 1.6.3.2.5.5.3 1zm-.9-2.1c-.1 0-.2 0-.5.3-.1.2 0 .3.2.4.2 0 .6.2.6.2 0-.1 0-.6-.3-.9z" fill-rule="evenodd"/></g></svg>