<svg height="30" viewBox="0 0 70 30" width="70" xmlns="http://www.w3.org/2000/svg"><g fill="#191c4f"><path d="m23.4 21.7c.3.1.3.6.3.8-.4.9-1.1 1.6-1.2 1.8-.2.2-.3 0-.1-.1 0 0 .2-.2.3-.4.6-.7.6-1.2.6-1.3-.1-.5-.5-.4-.7-.1-.1.1-.2 0-.1-.1q0 0 .1-.2c.4-.5.7-.5.8-.4z"/><path d="m17.7 21.7c-.1.1-.1.2-.2.3-.1.2-.2.2-.3.3-.2.1-4.6 1.8-4.7 1.8-.3.2-.2.1-.2 0q0 0 .1-.3c0-.1.1-.2.3-.3s4.5-1.8 4.7-1.9c.4-.1.3 0 .3.1z"/><path d="m31.7 20.9c.4.1.3.6.3.8-.3.9-1 1.6-1.2 1.8s-.2 0-.1-.1c0 0 .2-.3.3-.4.6-.7.6-1.2.6-1.3-.1-.5-.5-.4-.7-.1-.1.1-.1 0-.1-.1q0 0 .2-.2c.3-.5.6-.5.7-.4z"/><path d="m37.6 20.2c.3.1.3.6.2.8-.3 1-1 1.6-1.2 1.8s-.2.1-.1-.1c0 0 .2-.2.3-.4.7-.7.7-1.2.7-1.3-.1-.5-.5-.4-.8-.1-.1.1-.1 0-.1 0q.1-.1.2-.3c.4-.4.6-.5.8-.4z"/><path d="m64.1 19.1v.5c0 .2-.1.6-.2.9s-.7.4-1.2.1c-.7 1.2-1.4.6-1.7.4-.7-.2-.9.2-1.1.4-.8.9-2.3.9-2.7.9-.3.1 0-.1.1-.2 1.2-.4 2-.5 3-1.5.5-.5.8-.3 1-.2.9.5 1.1 0 1.2-.1.2-.1.3-.6.4-.8s.2-.1.1.1c0 .1 0 .3-.1.4.5.3.9 0 1-.1 0 0-.1-.3-.1-.4q0-.1.1-.5c.1-.3.2 0 .2.1z"/><path d="m45.6 17.7c-.3 1-1.7 1.6-2 1.7-1.3.4-1.4-.9-1.3-1.8s.7-2.1.7-2.1-1.3-1.1-1.4-1.2-.3-.2-.4-.3c-.1 0-.1-.1-.1-.1s0-.9 0-1.1c0-.1.1 0 .2 0 .1.1 1.5.6 1.7.7.1.1.1.2 0 .2s-.6.2-.6.2l1.2.8s1.6-2.1 1.8-2.3.1-.1.1.1-.3 1.1-.4 1.2c-.1.2-.9 1.3-.9 1.3s1.1.7 1.3 1.1c.5.6.2 1.3.1 1.6zm-2-1.8s-.8 1.2-.9 1.4c-.3.8.4.9.7.9s1.2-.5 1.7-.9-1.3-1.3-1.5-1.4z" fill-rule="evenodd"/><path d="m65.6 16.6c-.1.2-.3 1.1-1.6.9-.4-.1-1-.2-1.3-1-.3.4-1.1 1.7-2.6 1.5-.4-.1-1.4-.5-1.5-1.8 0 0-1.2 1-1.8 1.3.1.5 0 1-.2 1.6s-2.9 3.7-5.1 4.1c-.7.2-3.5.7-3.6-2.4q0-1 .1-1.5c-1.7 1.3-3.8 2.4-4.4 2.7-.9.4-4.1.9-4.7 1-.4.1-.4 0-.2-.1.2-.2 7.3-2.5 11-6.4.1-.1.1-.3 0-.5-.2-.2-1.3-2.4-1.4-2.7s-.3-.6-.3-.7q-.1-.2-.1-.4c.1-.1.2-.7.2-.8 0-.2.1-.1.2 0 0 .1 1.2 1.3 1.3 1.4.2.2.1.2 0 .2h-.6s.8 1.3 1 1.8c.4 1 .2 1.9 0 2.2-.3.7-.9 1.4-1.6 2-.2.5-.4 3.1 2 3.2.4 0 1.6.1 4-1.8.6-.5 1.2-1.1 1.7-1.8.2-.3.4-.8 0-.8-.4.1-2.9 1-3.3-.5-.1-.4.2-4 2.6-2.2.2.1.7.6 1.1 1.2.4-.1 1.2-.6 2.1-1.3.3-.3.5-.4.5-.1 0 .4-.2 2.4 2.1 1.8.2 0 1.2-.2 1.9-2 .2-.4.4-.4.3 0-.2.4-.4.8-.2 1s.8.7 1.6.6c.3 0 .5-.2.4-.4s-.4-.7-.4-.7c.1-.3.2-.7.2-.8 0-.2.1-.3.2-.2s.8 1.1.4 2.4zm-10.2.1c-.8-1.1-1.7-.5-1.8-.4-.2.2-.2.5.6.5.9.1 1.2-.1 1.2-.1z" fill-rule="evenodd"/><path d="m10.9 14.1s-.1.4-.2.8c-.4 1.6-.1 2.3-.1 2.5.4.8 1 .4 1.1-.2.1-.4.2-.2.2-.1q0 .2-.1.5c-.2 1.1-.6 1.3-.8 1.3-.6 0-.8-.8-.9-1.2-.1-1.8.5-3.3.6-3.8.2-.4.3-.2.2.2z"/><path d="m33.2 12.4 1 .7q0 .1 0 .1l-.6.8q0 0-.1 0l-.9-.7-.5.7q-.1 0-.1 0l-1-.7q-.1 0 0-.1l.6-.8q0 0 0 0l1 .7.5-.7q.1 0 .1 0z"/><path d="m12.9 10.7s-.1.3-.1.5c-.3.8-.2 1.2-.1 1.3.2.4.5.2.7-.1 0-.2.1-.1 0 0q0 0 0 .2c-.2.5-.4.6-.5.6-.4 0-.5-.4-.5-.6-.1-.9.3-1.7.4-1.9s.2-.1.1 0z"/><path d="m42.7 10.1.9.7.6-.7q0 0 0 0l1 .7q.1.1.1.1l-.6.8q-.1.1-.1.1l-1-.8-.5.7q0 .1-.1.1l-1-.8q0 0 0-.1l.6-.8q0 0 .1 0z"/><path d="m63 10.2s0 .2-.1.4c-.3.9-.1 1.3-.1 1.4.2.4.6.2.7-.2 0-.1.1 0 .1 0q0 .1-.1.3c-.1.6-.4.7-.5.7-.4 0-.5-.5-.5-.7-.1-.9.3-1.8.4-2s.2-.1.1.1z"/><path d="m53 9.6s0 .3-.1.5c-.3 1-.2 1.4-.1 1.5.2.5.6.2.7-.1.1-.2.2-.1.1 0q0 0 0 .2c-.2.6-.4.8-.6.8-.4 0-.5-.5-.6-.8 0-1 .4-1.9.5-2.1.1-.3.2-.2.1 0z"/><path d="m23.8 9.2s0 .3-.1.5c-.2 1 0 1.4.1 1.5.3.5.6.2.7-.2 0-.2.1-.1.1 0q0 .1 0 .3c-.2.6-.4.7-.6.8-.3 0-.5-.5-.6-.7-.1-1.1.2-2 .3-2.3.1-.2.2-.1.1.1z"/><path d="m33.3 8.8c0 .2-.1.2-.2.4s-.2.2-.4.4c-.2.1-6.2 2.5-6.9 2.9-.8.4-.7.7-.5.8.5.2.7.5.4 1.1 0 0-.1.1-.1 0-.1-.1-.2-.2-.5-.3s-.4-.7-.3-1.2c.1-.4.4-.8.7-1 .6-.4 7.3-3.1 7.5-3.2.4-.2.4 0 .3.1z"/><path d="m12.1 6.9c.1.3 0 .7 0 .9-.1.2-.2 0-.4-.1 0 0-.1-.1-.2-.2-.6-.4-.7.4-.8.9v1.8q0 0 0 .1c-.1.5-.2 1.1-1 1.6-.9.7-1 .8-1.1.8-.1.1-.1 0 .1-.2.1 0 1.9-1.7 1.6-2.5-.2-.9-1-1.5-1.1-1.6-.2-.1-.2.1-.2.2-.1.1-.1.1-.2 0-.1 0-.5-.2-.6-.4-.1-.1-.1-.6-.1-.7 0-.4.2-.5.3-.4 1.4.7 1.9 2 2 2.2 0-1 0-1.9.5-2.7.4-.5 1.1.2 1.2.3z"/><path d="m15.3 6.2s-.1.5-.2.8c-.4 1.7-.1 2.4-.1 2.6.4.8 1 .3 1.1-.3.1-.3.2-.1.2 0q0 .1-.1.5c-.2 1-.6 1.3-.8 1.3-.6 0-.8-.8-.9-1.2-.1-1.8.5-3.4.6-3.8.2-.4.3-.2.2.1z"/><path d="m19.8 5.8s0 .2-.1.4c-.3.8-.1 1.2-.1 1.3.2.4.6.2.7-.1 0-.2.1-.1.1 0q0 .1-.1.2c-.1.6-.3.7-.5.7-.3 0-.5-.4-.5-.7 0-.9.3-1.7.4-1.9s.2-.1.1.1z"/><path d="m29.2 5.7c0 .2 0 .2-.2.4-.1.2-.2.3-.5.4-.2.1-10.6 4.3-10.7 4.3-.5.2-.4.1-.3 0q0-.1.1-.4c0-.2.1-.3.4-.4s10.7-4.3 11-4.4c.4-.2.3 0 .2.1z"/><path d="m31.7 5.6s-.1.2-.1.4c-.3.8-.2 1.2-.1 1.3.2.4.5.2.6-.1.1-.2.1-.1.1 0q0 .1 0 .2c-.2.6-.4.7-.6.7-.3 0-.4-.4-.4-.7-.1-.9.3-1.6.4-1.9.1-.2.2-.1.1.1z"/><path d="m52.2 5.6c-.1.1-.1.1-.2.3 0 .1-.1.2-.3.3s-5.4 3.1-5.5 3.2c-.3.2-.3.1-.3 0q0-.1.1-.3c0-.2.1-.2.3-.4.2-.1 5.4-3.1 5.6-3.2.3-.2.3-.1.3.1z"/><path d="m36.3 18.3c-.2.9-.4 1.4-.7 1.5-2 .9-3.3 0-3.5 0-3.1 1.2-5.3 1.2-6 1.2-1.5.2-2.6 0-3.2-.3-.2.3-.5.7-.6.8-.2.2-.3.1-.2-.1s.2-.6.4-.9c-.7-.4-.9-.9-.9-1.1-1.1 1.7-2.7 1.6-3 1.5-1.9-.2-1.8-2.2-1.8-2.8v-.1c-.8 0-1.3-.1-1.5-.1 0 0 .1.6.1 1-.1 1.5-2.1 2.7-2.7 3-3.6 2.1-5.9.9-6.4.4-2.3-1.8-.9-5.1-.6-5.8-.3-.3-.4-.8-.4-1.1-.2-1.9.4-3.5.6-4 .2-.4.3-.2.2.1 0 0-.1.5-.2.9-.5 1.7-.2 2.5-.1 2.7.4.8 1 .4 1.2-.3 0-.3.1-.1.1 0q0 .2-.1.5c-.2 1.1-.6 1.3-.9 1.4q0 0-.1-.1c-.8 1.7-.4 3.2-.2 3.6 1.7 2.8 5 1.3 5.6 1.1 2.6-1 3.5-2.2 3.5-2.7.1-.5-.7-1.9-.8-2.2 0 0 0-.7.1-.9s.2-.2.2 0c.3 1 1.1 1.1 1.2 1.1 2.2-3.9 4.3-4.1 4.8-4.1 1.9-.1 2.4 1.3 2.6 1.6.3.9-.6 2.2-1.3 2.5-1.7 1.1-3.3 1.4-4.5 1.4q0 0 0 0c.2 1.9 1.8 1.9 2.2 1.8 1.3-.2 1.9-1.4 2.2-1.7s.3-.1.3.1c.3 1.1 1.1 1.3 1.1 1.3.1-.1 1.8-2.7 3.2-3.6 2.5-1.2 3.7.6 3.8.9.8 1.1-.8 2.7-.9 2.9.7-.1 2.3-.7 2.4-.7-.6-.8-.1-2.8 1-3.6 1-.8 1.5.6 1.6.8.3 1.3-.6 2.7-.7 2.8 1.2.3 2.1-.3 2.3-.5.2-.1.1-.8.1-1.1 0-.2-1.1-8.5-1.1-8.5-.1-.7-.2-1.3-.3-1.8-.1-.4-.2-.6-.2-.7 0 0 .4-.8.4-1 .1-.1.1 0 .1.1.1.1 1.3 3.1 1.4 3.2 0 .2-.1.2-.2.1s-.7-.6-.7-.6 1.5 8.6 1.1 10.1zm-14-3.3c.1-.1-.5-.8-1.3-1.1-2.9-1-4.9 2.8-4.9 2.8.6.2 3.8.3 6.2-1.7zm6.8 3.4c.3-.2.6-.5 0-1s-1.5-1-2.8-.5c-1.5.6-2.7 2.7-2.7 2.7.8.3 3.4.4 5.5-1.2zm4.4-1.5c-.1-.3-.5-.7-.9-.4-.5.3-.9 1-.8 1.4.1.5.6.6.6.6s1.5-.5 1.1-1.6z" fill-rule="evenodd"/><path d="m58.5 5.9c.1.2 0 .6-.1.9 0 .1-.2 0-.3-.2 0 0-.1-.1-.2-.2-.6-.5-.8.4-.8.8-.1.3-.1 1.3-.2 1.9 0 .2-.2.2-.2 0-.4-1.2-1.1-1.8-1.2-1.9s-.2.1-.2.1c-.1.1-.1.1-.2.1-.1-.1-.5-.3-.6-.5-.1-.1-.1-.5-.1-.7.1-.4.3-.5.4-.4 1.4.8 1.8 2.2 1.9 2.4.1-1.1.1-2 .7-2.7.4-.6 1.1.3 1.1.4z"/><path d="m37.9 5.4c0 .1 1.3 3.1 1.3 3.3.1.1 0 .2-.1.1s-.7-.7-.7-.7.9 6.7 1 7.1c.6 4.3.1 5.4 0 5.6s-.2.1-.2-.1c0-1.7-.9-7.6-1-7.9 0-.4-.7-6-.8-6.5 0 0 .3-.8.4-.9 0-.1.1-.1.1 0z"/><g fill-rule="evenodd"><path d="m63.7 8.1c-.1.1-.1 0-.2-.1s-.2-.3-.4-.4c-.3.5-.2.6-1.1 1.3-1.9 1.7-4.1 2.3-4.2 2.3s-.1-.1.1-.2c.6-.5 3.4-1.8 4.8-3.5 0 0-.4-.2-.7-.4s-.2-1 0-1.3c.6-.9 1.1-.4 1.1-.3.5.8.2 1.6.2 1.6.3.2.6.5.4 1zm-.9-2.1c-.1 0-.3-.1-.6.3 0 .1.1.3.2.3.2.1.6.3.6.3 0-.1.1-.6-.2-.9z"/><path d="m44 7.8c-.1.1-.2 0-.3-.1 0-.1-.4-.3-.4-.3s-.4.9-1.1 1.4c-1.3 1-2.4 1.1-2.4 1.2-.2 0-.2-.1 0-.2.8-.5 1.8-.9 3.2-2.6 0 0-.4-.2-.8-.4-.3-.2-.1-1 .1-1.3.6-.8 1-.4 1.1-.3.5.8.2 1.6.2 1.6.3.2.5.5.4 1zm-.9-2.1c-.2 0-.3-.1-.6.3-.1.2 0 .3.2.3.2.1.6.3.6.3 0-.1.1-.6-.2-.9z"/></g></g></svg>