<svg height="30" viewBox="0 0 70 30" width="70" xmlns="http://www.w3.org/2000/svg"><g fill="#191c4f"><path d="m19.9 21 .9.7q0 0 0 .1l-.5.7q-.1.1-.1.1l-.9-.7q-.1-.1 0-.1l.5-.7q0-.1.1-.1z"/><path d="m24.5 20.5c.2.1.2.5.1.7-.3.8-.9 1.3-1.1 1.4-.2.2-.2.1-.1-.1 0 0 .2-.1.3-.2.6-.6.6-1 .6-1.1 0-.5-.4-.4-.6-.2-.1.1-.1 0-.1 0q.1-.1.2-.2c.3-.4.5-.4.7-.3z"/><path d="m10.5 20.6c0 .1 0 .1-.1.3s-.2.2-.4.3c-.1.1-2.8 1.5-3 1.5-.3.2-.2.1-.2 0q0 0 .1-.3c0-.2.1-.2.3-.3s2.8-1.5 3.1-1.6.3 0 .2.1z"/><path d="m34.5 20.4c.3.2.2.6.2.7-.4.8-1 1.3-1.2 1.5-.1.1-.1 0 0-.1 0 0 .1-.2.3-.3.5-.6.6-1 .6-1.1-.1-.4-.4-.3-.6-.1-.2.1-.2 0-.1-.1q0 0 .1-.1c.4-.4.6-.4.7-.4z"/><path d="m39.9 19.8c.2.1.2.5.1.7-.3.8-.9 1.3-1.1 1.4-.2.2-.2.1-.1-.1 0 0 .2-.2.3-.3.6-.6.6-.9.6-1 0-.5-.4-.4-.6-.2-.1.1-.1 0-.1 0q.1-.1.2-.2c.3-.4.5-.4.7-.3z"/><path d="m64.2 19.3s.1.3.1.5-.2.5-.3.8c0 .3-.7.4-1.1.1-.6 1-1.2.5-1.6.4-.6-.3-.8.2-.9.3-.8.9-2.2.9-2.5.9-.4 0-.1-.2.1-.3 1.1-.3 1.7-.4 2.7-1.3.5-.5.7-.3.9-.2.9.4 1.1 0 1.2-.1s.3-.6.3-.8c.1-.1.2 0 .1.1v.4c.3.3.7 0 .8 0 0 0 0-.3 0-.4q-.1-.2.1-.5c.1-.3.1 0 .1.1z"/><path d="m47.1 18c-.3.9-1.6 1.4-1.9 1.5-1.1.4-1.2-.8-1.1-1.6s.7-1.9.7-1.9c-.1 0-1.3-1-1.4-1.1s-.2-.2-.3-.3-.1-.1-.1-.1 0-.9 0-1 0-.1.1 0c.1 0 1.5.5 1.6.6s.1.2 0 .2-.5.1-.5.1l1.1.8s1.5-1.9 1.6-2.1c.2-.2.2-.1.1.1 0 .2-.3 1-.4 1.1 0 .2-.8 1.2-.8 1.2s1 .6 1.3 1c.4.6.1 1.2 0 1.5zm-1.9-1.7s-.6 1.1-.7 1.4c-.3.6.3.8.6.7.2 0 1.1-.4 1.6-.8.4-.3-1.2-1.2-1.5-1.3z" fill-rule="evenodd"/><path d="m65.6 17c-.1.2-.3 1-1.5.8-.3-.1-.9-.2-1.2-.9-.3.4-1 1.6-2.4 1.4-.3-.1-1.3-.5-1.3-1.7 0 0-1.2.9-1.7 1.2 0 .5 0 1-.2 1.5-.2.6-2.7 3.4-4.7 3.8-.7.2-3.2.6-3.3-2.2-.1-.6 0-1.1 0-1.4-1.6 1.2-3.5 2.2-4 2.4-.9.4-3.8.9-4.3 1-.4.1-.5 0-.2-.1.2-.2 6.7-2.4 10.1-5.9.1-.2.1-.3 0-.5-.1-.1-1.2-2.2-1.3-2.4-.1-.3-.2-.6-.3-.7q-.1-.2 0-.4c0-.1.1-.6.1-.7.1-.2.1-.1.2 0s1.1 1.1 1.3 1.3c.1.1 0 .2-.1.2 0 0-.5-.1-.5-.1s.7 1.3.9 1.7c.4 1 .2 1.8 0 2.1-.3.6-.9 1.2-1.5 1.8-.1.5-.3 2.8 1.9 2.9.3 0 1.4.2 3.6-1.6.6-.5 1.2-1 1.7-1.7.2-.3.3-.7-.1-.7s-2.7.9-3-.5c-.1-.4.1-3.7 2.4-2 .2.1.7.5 1 1.1.4-.1 1.1-.5 1.9-1.2.3-.3.5-.4.5-.1 0 .4-.2 2.3 1.9 1.7.3-.1 1.1-.2 1.8-1.9.1-.4.4-.3.3 0-.2.4-.4.8-.2 1s.8.6 1.5.5c.3 0 .4-.2.3-.4s-.3-.6-.3-.6c0-.3.1-.7.2-.8 0-.1 0-.2.1-.1s.8 1 .4 2.2zm-9.4.1c-.7-1-1.6-.5-1.7-.4s-.2.4.5.5c.9 0 1.2-.1 1.2-.1z" fill-rule="evenodd"/><path d="m8.6 14.7.9.7.5-.7q0 0 .1 0l.9.7q0 0 0 0l-.5.8q-.1 0-.1 0l-.9-.7-.5.7q0 0 0 0l-1-.7q0 0 0 0l.6-.8q0 0 0 0z"/><path d="m44.4 11 .9.6.5-.6q0 0 .1 0l.9.7q0 0 0 0l-.5.8q-.1 0-.1 0l-.9-.7-.5.7q0 0-.1 0l-.9-.7q0 0 0-.1l.5-.7q.1 0 .1 0z"/><path d="m63.2 11s0 .3-.1.4c-.3.8-.1 1.2-.1 1.3.2.4.5.2.7-.1 0-.2.1-.1 0 0q0 0 0 .2c-.2.5-.4.6-.5.6-.3 0-.5-.4-.5-.6 0-.9.3-1.6.4-1.8s.2-.2.1 0z"/><path d="m54 10.5s-.1.3-.1.5c-.3.9-.2 1.3-.1 1.3.2.5.5.3.7-.1 0-.1.1-.1.1 0q-.1.1-.1.3c-.2.5-.4.7-.6.7-.3-.1-.4-.5-.4-.7-.1-1 .3-1.8.4-2 .1-.3.2-.1.1 0z"/><path d="m12.1 10.5s-.1.2-.1.4c-.3.9-.1 1.3 0 1.4.3.5.6.2.7-.1.1-.2.2-.1.1-.1q0 .1 0 .3c-.2.6-.4.7-.6.7-.4.1-.6-.4-.6-.6-.1-1 .3-1.9.4-2.1s.2-.1.1.1z"/><path d="m17.3 12.6c-.1.1-.1 0-.2-.1 0 0-.3-.3-.3-.3s-.4.8-1 1.3c-1.1.8-2.1 1-2.2 1s-.1-.1.1-.2c.7-.4 1.5-.7 2.8-2.2 0 0-.4-.1-.7-.3-.2-.2-.1-.9.1-1.2.5-.7.9-.3.9-.2.4.7.2 1.4.2 1.4.2.1.5.4.3.8zm-.8-1.8c-.1 0-.2 0-.4.3-.1.1 0 .2.1.3.2 0 .5.2.5.2 0-.1.1-.5-.2-.8z" fill-rule="evenodd"/><path d="m11.7 7.1c.1.2 0 .6 0 .8-.1.2-.2.1-.3-.1 0 0-.2-.1-.3-.2-.5-.4-.6.4-.7.8 0 .3 0 1.2-.1 1.7q0 .1 0 .1c0 .4-.1 1-.8 1.5-.9.6-1 .7-1.1.7-.1.1-.1 0 0-.1s1.8-1.6 1.6-2.4-.9-1.3-1-1.4-.2 0-.2.1-.1.1-.2 0c0 0-.4-.2-.5-.3-.2-.1-.1-.6-.1-.7 0-.3.2-.5.3-.4 1.3.7 1.7 1.9 1.8 2.1 0-.9 0-1.8.5-2.5.4-.5 1 .2 1.1.3z"/><path d="m53.2 6.8c-.1.1-.1.1-.1.3-.1.1-.2.2-.4.3-.1.1-5 2.9-5 2.9-.3.2-.3.1-.3 0q0-.1.1-.3c0-.1.1-.2.3-.3s5-2.9 5.2-3c.3-.2.2 0 .2.1z"/><path d="m59.1 7.1c.1.2 0 .5-.1.8-.1.1-.2 0-.3-.2 0 0-.1-.1-.2-.2-.5-.4-.7.4-.8.8 0 .3 0 1.2-.1 1.7-.1.2-.2.2-.3 0-.3-1.1-.9-1.6-1-1.7s-.2 0-.3.1c0 .1 0 .1-.1 0-.1 0-.4-.2-.5-.4-.2-.1-.1-.5-.1-.7 0-.3.2-.4.3-.3 1.3.7 1.7 2 1.8 2.2.1-1 .1-1.8.6-2.5.4-.5 1 .3 1.1.4z"/><path d="m14.3 6.8s0 .2-.1.4c-.3.9-.1 1.3 0 1.4.3.5.6.2.8-.1 0-.2.1-.1.1-.1q-.1.1-.1.3c-.1.6-.4.7-.6.7-.3 0-.5-.4-.6-.6-.1-1 .3-1.9.4-2.1.1-.3.2-.2.1.1z"/><path d="m63.8 9.1c0 .1-.1 0-.2-.1 0-.1-.2-.2-.3-.3-.2.4-.2.5-1 1.2-1.8 1.5-3.8 2-3.9 2.1-.1 0-.1-.1.1-.2.6-.5 3.1-1.6 4.4-3.2 0 0-.4-.2-.6-.4-.3-.2-.2-.9 0-1.2.5-.8 1-.4 1-.3.5.8.2 1.5.2 1.5.3.1.5.4.3.9zm-.8-1.9c-.1-.1-.2-.1-.5.3-.1.1 0 .2.2.3.2 0 .5.2.5.2 0-.1.1-.5-.2-.8z" fill-rule="evenodd"/><path d="m45.6 8.8c0 .2-.1.1-.2 0 0-.1-.4-.4-.4-.4s-.3.9-1 1.4c-1.2.9-2.2 1-2.3 1-.1.1-.1 0 .1-.1.7-.5 1.6-.8 2.9-2.4 0 0-.4-.2-.7-.4-.2-.2-.1-.9.1-1.2.5-.8.9-.4 1-.2.4.7.2 1.4.2 1.4.2.2.5.5.3.9zm-.8-1.9c-.1 0-.3 0-.5.3-.1.1 0 .2.2.3.1.1.5.2.5.2 0-.1.1-.5-.2-.8z" fill-rule="evenodd"/><path d="m22.2 6.3c-.1.1-.1.2-.1.3-.1.2-.2.3-.4.4s-4.7 2.2-4.8 2.3c-.3.1-.3 0-.3-.1q0 0 .1-.2c0-.2.1-.3.3-.4.3-.1 4.7-2.2 4.9-2.3.4-.2.3-.1.3 0z"/><path d="m29.2 14.5.9.7q.1 0 0 0l-.5.8q0 0-.1 0l-.9-.7q0 0 0-.1l.5-.7q.1 0 .1 0z"/><path d="m35.2 11.7s-.1.3-.2.5c-.3 1-.1 1.4 0 1.5.3.5.7.2.9-.1 0-.2.1-.1.1-.1q0 .1-.1.4c-.1.6-.4.8-.6.8-.5 0-.7-.5-.7-.8-.1-1.1.3-2 .4-2.3s.2-.2.2.1z"/><path d="m24 10.7s-.1.2-.1.4c-.3.7-.1 1.1-.1 1.2.2.4.5.2.6-.1.1-.2.1-.1.1 0q0 0-.1.2c-.1.5-.3.6-.4.6-.3 0-.5-.4-.5-.6 0-.9.3-1.6.4-1.8s.2-.1.1.1z"/><path d="m36.4 9.4c-.1.2-.1.2-.2.4s-.2.2-.4.3-9.1 3.9-9.2 3.9c-.4.2-.3.1-.3-.1q0 0 .1-.3c.1-.1.1-.2.4-.3s9.1-3.9 9.3-4c.4-.1.3 0 .3.1z"/><path d="m40.1 6.2c0 .1 1.2 2.8 1.2 3 .1.1 0 .2-.1.1s-.7-.6-.7-.6 1 6.6 1 7c.6 3.9.1 5 0 5.1 0 .2-.1.1-.1 0-.1-1.6-.9-7.5-1-7.8 0-.4-.7-5.5-.7-6 0 0 .2-.7.3-.8 0-.2.1-.1.1 0z"/><path d="m38.8 18.6c-.5 1-1.4 1.1-1.8 1.2-1.3.1-1.5-.3-2.2-.9q-.1 0-.1-.1-.3.2-.3.2c-.8.6-1.6.9-1.9 1-1.7.4-2.1-.7-2.3-1-.8 1.6-2 1.5-2.3 1.4-1.2 0-2.6-1.9-2.8-2.2-.9-1.1-1.8-1.8-1.9-1.9.3.7.3 1.3.3 1.5.2 1.3-1.4 1.7-1.6 1.7-2.1.3-2.1-1.5-2.3-1.8-.6.5-1.2.8-1.6.9q0 .2 0 .4s-.1 1-.6 1.5c-2.8 3-4.8 2.4-5 2.3-1.4-.7-.8-2.9-.7-3.5q0-.1.1-.1-.6.2-1.2.4c-3.9 1.2-4.9.1-5 0-1.2-1.3-.2-3.1 0-3.5-.3-.2-.5-.7-.5-1.1-.2-1.7.3-3.2.5-3.6.1-.5.2-.3.2.1 0 0-.1.4-.2.7-.4 1.7-.1 2.4 0 2.5.4.8.9.4 1.1-.2 0-.3.1-.2.1-.1q0 .2-.1.5c-.2 1-.5 1.3-.8 1.3q0 0-.1 0c-.2.4-.4 1.1-.4 1.3-.1 1.6 1.9 1.6 2.3 1.6 3.8-.2 5.4-1.6 5.6-1.7.2-.2-.5-1.1-.7-1.3 0 0 .2-.7.2-.9q.1-.2.2 0c.1.2.6.9.7 1.2.3.7-.1 1.4-.2 1.6-.3.4-.9.8-1.5 1.1 0 .3-.1.7-.1 1-.4 1.9 1.5 1.9 1.7 1.8 2.1-.2 3.8-2.4 4-2.8.2-.3-.3-.2-.4-.2-.7.2-1.2.2-1.5.1-.9-.3-.9-1.5-.3-2.2s1.1-.4 1.8.2q.4.4.5.8c.6-.2 1.8-.9 2.1-1.1s.2.1.2.3c.1.9.5 1.3.7 1.4 1.2.5 2.3-.5 2.4-.6s.1-.2-.1-.4c-1.1-1.8-4.5-4.7-4.7-4.9s-.2-.8-.2-1.1c.2-.8.4-1 .6-1.1 3.1-2.2 8.3-3.8 9.4-4.1 1.2-.3 1.1.6.9 1.2-.1.5-.8 1.6-1 1.8s-1.8 2.1-2 2.3c-.2.3-.2.1-.1-.1 0-.3.3-.7.4-.9s1.8-2.1 2.3-2.7c.4-.7-.6-.6-1.1-.5s-2.2.7-2.9 1c-.6.3-4.8 2.1-6 3-.3.2 0 .3.1.4s2.3 1.8 2.6 2c1.2.7 3.5 2.9 3.8 3.3 1.6 1.9 2.2 2.2 2.6 2.3 1.7.5 2.5-1.3 2.7-1.5s.2 0 .3.3c.5 1.8 2.7.5 3.1.3q.1-.1.3-.1c-.5-.5-.8-.7-1.1-.8-.4-.1-.8.2-.9.2-.1.1-.1 0-.1-.1s.1-.5.1-.5c0-.1.1-.3.1-.3 2.3-1.5 5.1-.4 5.2-.3s-.2.7-.3.9c0 .1-.9.6-1.6 1q.1.1.3.2c1.2.6 2.3-.1 2.6-.3.2-.2.2-.4.2-.6 0-.3-1.2-8.1-1.5-10.1-.1-.2-.2-.5-.2-.5s.3-.8.4-.9c0-.1 0 0 .1.1 0 .1 1.1 2.8 1.2 2.9 0 .2-.1.3-.2.2 0-.1-.6-.7-.6-.7s1.3 7.2 1.3 7.7c.1 1.1-.2 1.9-.3 2.2zm-21.9-.6c-.4-.9-1.1-.6-1.2-.5s-.4.5.3.6.9-.1.9-.1zm17.9-.2c.5-.3 1-.6 1-.6-.5-.3-1.5-.2-1.8-.1q0 0 0 0c.4.3.6.5.8.7z" fill-rule="evenodd"/><path d="m34.9 6.4c.1.2.1.6 0 .8s-.2 0-.3-.1c0 0-.1-.1-.2-.2-.5-.4-.6.4-.7.8v1.6c-.1.2-.2.2-.3 0-.3-1-.9-1.5-1-1.6-.2-.1-.2.1-.2.1-.1.1-.1.1-.2.1 0 0-.4-.3-.5-.4s-.1-.5-.1-.6c0-.3.2-.4.3-.4 1.2.7 1.7 1.8 1.7 2 .1-.9 0-1.7.5-2.3.4-.5 1 .2 1 .2z"/></g></svg>