<svg height="30" viewBox="0 0 70 30" width="70" xmlns="http://www.w3.org/2000/svg"><g fill="#191c4f"><path d="m33.3 21.4s0 .3-.1.5c-.3.9-.2 1.3-.1 1.4.2.5.6.2.7-.1.1-.2.1-.1.1 0q0 .1 0 .3c-.2.5-.4.7-.6.7-.4-.1-.5-.5-.5-.7-.1-1 .3-1.9.4-2.1.1-.3.2-.2.1 0z"/><path d="m18.7 20.5c-.1.1-.1.1-.1.3-.1.2-.2.2-.4.4-.2.1-5 2.8-5.1 2.8-.3.3-.3.1-.3 0q0 0 .1-.3c0-.2.1-.2.3-.4s5-2.8 5.2-2.9c.4-.2.3-.1.3.1z"/><path d="m64 20.4v.6c0 .2-.1.5-.3.9-.1.3-.8.5-1.3.1-.8 1.3-1.5.7-1.9.5-.7-.3-.9.2-1.1.4-.9 1-2.5 1-2.9 1-.4.1-.1-.2.1-.3 1.3-.4 2.1-.5 3.2-1.6.5-.5.9-.3 1.1-.2 1 .5 1.2 0 1.3-.1.2-.1.4-.7.5-.9 0-.2.1 0 .1.1s-.1.3-.1.4c.4.4.9.1 1 0 0 0 0-.4-.1-.5q0-.1.2-.5c.1-.3.1-.1.2.1z"/><path d="m18.8 18.5c-.1.1 0 .1-.2.2-1.3.3-2.7-.4-3.1-.6-.2 1.8-2 2.9-2.2 3.1-1.8 1.4-3.9 2.2-4.3 2.4s-3.6 1-3.8 1c-.2.1-.2 0-.1-.1 0 0 5.1-2.5 5.7-2.8 2.4-1.4 3.6-2.5 4-3.1.4-.5.5-1.1.5-1.4.2-.9.6-1.6 1.1-2.1s1.1-.1 1.4.2c.6.6 1 1.7 1.1 2s-.1 1-.1 1.2zm-.9-1.2c-.8-1.3-1.3-1.1-1.5-1.1-.4.2-.5.7-.5.7.1.1.9.5 1.9.6.1 0 .2 0 .1-.2z" fill-rule="evenodd"/><path d="m43.8 18.9c-.4 1.1-1.9 1.7-2.2 1.8-1.4.4-1.5-1-1.4-1.9.1-1 .8-2.3.8-2.3-.1 0-1.5-1.2-1.6-1.3s-.3-.3-.4-.3c-.1-.1-.1-.2-.1-.2s0-1 0-1.1c0-.2.1-.1.2-.1.1.1 1.6.7 1.8.8s.1.2 0 .2-.6.2-.6.2l1.3.9s1.8-2.3 1.9-2.5c.2-.3.2-.1.2.1-.1.2-.4 1.2-.5 1.4-.1.1-1 1.4-1 1.4s1.2.7 1.5 1.1c.5.7.2 1.4.1 1.8zm-2.3-2s-.8 1.3-.9 1.6c-.3.8.5.9.8.9s1.3-.6 1.8-1-1.4-1.4-1.7-1.5z" fill-rule="evenodd"/><path d="m30.6 12.9s.1.6.3.9c.1.2.2.5.2 1-.1.5-.3.8-.6.9-.2.1-.7.1-1-.4-.4.8-1 .9-1.3.8-.4-.2-.4-.8-.4-1s0-.8 0-1c0-.1 0-.2.1-.4s.1-.1.1.1-.1 1 .1 1.4c.4.5 1.1 0 1.2-.3.1-.2-.2-1.1-.2-1.2q0 0 0-.1c0-.1 0-.3.1-.5q.1-.2.2 0c.1.2.1.4.2 1.2.2.9.9.7 1.1.6.2 0 .1-.2.1-.3-.1 0-.4-.7-.5-1s0-.5.1-.8c0-.3.1-.1.2.1z"/><path d="m6.8 14.6s-.1.6-.3 1c-.6 1.9-.3 2.8-.2 3 .5 1 1.1.5 1.4-.3.1-.3.2-.1.1 0q0 .2-.1.6c-.3 1.2-.7 1.5-1 1.5-.7 0-1-1-1-1.5-.1-2.1.7-3.9.9-4.4.2-.6.3-.3.2.1z"/><path d="m65.6 17.6c-.1.3-.4 1.3-1.8 1-.4-.1-1.1-.2-1.4-1-.4.4-1.2 1.8-2.8 1.6-.4-.1-1.6-.5-1.6-2 0 0-1.4 1.1-2 1.5.1.5 0 1.1-.2 1.7-.3.7-3.2 4-5.6 4.5-.8.2-3.8.7-3.9-2.6 0-.8 0-1.3.1-1.7-1.9 1.5-4.2 2.6-4.8 2.9-1 .5-4.5 1.1-5.1 1.2-.4 0-.5-.1-.2-.2.2-.2 7.9-2.7 11.9-7 .1-.1.1-.3 0-.5s-1.4-2.6-1.5-2.9-.3-.7-.3-.8q-.1-.2-.1-.4c0-.1.2-.8.2-.9 0-.2.1-.1.2 0s1.3 1.4 1.5 1.5c.1.2 0 .3-.1.3 0 0-.6-.1-.6-.1s.8 1.5 1.1 2c.5 1.1.2 2 0 2.5-.4.7-1 1.4-1.8 2.1-.2.6-.4 3.4 2.2 3.4.4 0 1.7.2 4.4-1.9.6-.5 1.3-1.1 1.9-2 .2-.3.3-.9-.1-.8-.4 0-3.1 1-3.5-.6-.1-.4.1-4.4 2.8-2.4.2.2.8.6 1.1 1.4.5-.2 1.3-.7 2.4-1.5.3-.3.5-.4.5 0 0 .3-.2 2.6 2.3 1.9.2-.1 1.3-.3 2-2.2.2-.5.5-.4.4 0-.2.5-.5.9-.3 1.1.3.2 1 .7 1.9.6.3 0 .4-.1.3-.4-.1-.2-.4-.7-.4-.7.1-.3.2-.8.2-1 .1-.1.1-.2.2-.1s.9 1.1.5 2.5zm-11.1.2c-.9-1.2-1.9-.6-2.1-.4-.1.1-.1.4.7.5 1 .1 1.4-.1 1.4-.1z" fill-rule="evenodd"/><path d="m42.3 10.6 1.1.8q0 0 0 .1l-.7.8q0 .1 0 .1l-1.1-.8-.6.7q0 .1 0 .1l-1.1-.8q-.1-.1-.1-.1l.7-.9q0 0 .1 0l1 .8.6-.8q0 0 .1 0z"/><path d="m62.8 10.6s-.1.3-.2.5c-.3 1-.1 1.4-.1 1.5.3.5.7.2.8-.1 0-.2.1-.1.1 0q0 0-.1.3c-.1.5-.4.7-.6.7-.3 0-.5-.5-.5-.7-.1-1.1.4-2 .5-2.2.1-.3.2-.2.1 0z"/><path d="m12.2 12.1s-.1.3-.2.5c-.3 1-.1 1.5-.1 1.6.3.5.7.2.8-.2.1-.2.1-.1.1 0q0 .1-.1.3c-.1.7-.4.8-.6.8-.4 0-.5-.5-.6-.8 0-1.1.4-2 .5-2.3.2-.3.3-.1.2.1z"/><path d="m51.9 10.1s-.1.3-.2.5c-.3 1-.1 1.5-.1 1.6.3.5.7.2.8-.1.1-.2.2-.1.1-.1q0 .1 0 .4c-.2.6-.5.7-.7.7-.4 0-.5-.5-.6-.7 0-1.2.4-2.1.6-2.4.1-.3.2-.2.1.1z"/><path d="m22.5 7.2s0 .3-.1.5c-.2 1.1 0 1.6.1 1.7.3.5.7.1.8-.3 0-.2.1-.1.1 0q0 .1-.1.3c-.1.7-.3.9-.5.9-.4 0-.7-.5-.7-.7-.2-1.2.2-2.2.3-2.5.1-.2.2-.1.1.1z"/><path d="m19.8 6.6c.1.2.1.7 0 1 0 .1-.2 0-.3-.2 0 0-.2-.1-.3-.2-.7-.4-.8.5-.8 1 0 .3.1 1.4 0 2q0 .1 0 .1c0 .5-.1 1.2-.9 1.9-1 .8-1.1.8-1.2.9 0 0-.1-.1.1-.2.1-.1 2-2 1.7-2.9-.4-.9-1.3-1.5-1.4-1.6s-.2.1-.2.1c0 .1-.1.1-.2.1s-.5-.3-.7-.4c-.1-.1-.1-.6-.1-.8-.1-.4.2-.5.3-.5 1.6.7 2.2 2.2 2.3 2.4 0-1.1-.1-2.1.4-3 .4-.6 1.2.2 1.3.3z"/><path d="m11.4 7.2c.2.2.1.7.1.9-.1.2-.3.1-.4-.1 0 0-.2-.1-.3-.2-.6-.4-.7.5-.7 1-.1.3 0 1.4 0 2q0 .1 0 .1c0 .5-.2 1.2-1 1.8-.9.9-1 .9-1.1.9-.1.1-.2 0 0-.1.1-.1 2-2.1 1.7-2.9-.3-.9-1.2-1.5-1.3-1.6-.2-.2-.3 0-.3.1s-.1.1-.1.1c-.1 0-.6-.3-.7-.4-.2-.1-.2-.6-.2-.8 0-.4.2-.5.3-.5 1.6.7 2.3 2.2 2.4 2.4-.1-1.1-.1-2.2.4-3 .4-.6 1.2.2 1.2.3z"/><path d="m50.9 5.6c0 .1 0 .2-.1.4-.1.1-.2.2-.4.3s-5.9 3.4-6 3.5c-.3.2-.3.1-.3 0q0-.1.1-.4c0-.1.1-.2.3-.3.3-.2 5.9-3.4 6.2-3.6s.3 0 .2.1z"/><path d="m57.9 6c.1.2 0 .6-.1.9-.1.2-.2 0-.4-.1 0 0-.1-.2-.2-.3-.6-.5-.8.5-.9.9-.1.3-.1 1.4-.2 2 0 .3-.2.3-.3.1-.4-1.4-1.1-2-1.2-2.1-.2-.1-.3.1-.3.1 0 .1-.1.1-.2.1 0-.1-.5-.3-.6-.5-.2-.1-.1-.6-.1-.8 0-.4.3-.5.4-.4 1.5.8 2 2.3 2.1 2.6.1-1.2.1-2.2.7-2.9.5-.7 1.2.3 1.3.4z"/><g fill-rule="evenodd"><path d="m30.4 8.3c0 .1-.1 0-.2-.1s-.5-.4-.5-.4-1.1 2-2.3 2.9c-1.5 1.2-2.7 1.7-2.7 1.7-.2 0-.2-.1 0-.2.9-.6 3.1-2.5 4.6-4.5 0 0-.5-.2-.9-.4-.3-.3-.2-1.2.1-1.5.6-1 1.1-.6 1.2-.4.6.9.3 1.8.3 1.8.3.2.6.5.4 1.1zm-1.1-2.3c-.1-.1-.3-.1-.6.4-.1.1.1.2.3.3s.6.3.6.3c.1-.2.1-.7-.3-1z"/><path d="m63.5 8.4c-.1.1-.1 0-.2-.1s-.3-.3-.5-.4c-.2.5-.2.6-1.2 1.4-2.1 1.8-4.4 2.4-4.5 2.5-.1 0-.1-.1.1-.3.7-.5 3.7-1.9 5.2-3.8 0 0-.4-.1-.8-.4-.3-.2-.1-1.1.1-1.4.6-.9 1.1-.5 1.2-.3.5.8.2 1.7.2 1.7.3.2.6.5.4 1.1zm-1-2.3c-.1-.1-.3-.1-.6.4-.1.1 0 .2.2.3s.7.3.7.3c0-.1 0-.7-.3-1z"/><path d="m34.7 17.9c-.3 1.8-1.1 2-1.6 2.2-.5.3-2.6.9-3.4 1.2-1.1.6-2.7 2.5-3.2 3.2-1 1.3-2 1.4-2.3 1.4-2.3 0-1.7-2.9-1.4-4.2-1.8 1.4-3.8 2.5-3.9 2.6-.2.1-4.1 1.4-4.3 1.4-.2.1-.3.1-.3 0s.2-.3.4-.4c0 0 9-4.6 10.7-7.4.2-.4-.4-.5-.8-.6-.3 0-1.1.1-1.4.2-1.2 0-1.3-.7-1.4-1.1 0-1.1.7-1.9 1-2.2.5-.3 2.1-.8 3 2.1.5 1.9-.3 2.9-.5 3.1-.5.7-1.1 1.3-1.9 1.9-.6 1.3-.5 2.5-.4 2.8.2 1 1 .9 1.5.7.9-.3 1.7-1.5 2-1.9 1.8-2.3 3.3-2.9 3.6-3s2.8-.8 3.7-1.4c.5-.3.4-.7.3-1.1 0-.5-1.5-8.4-1.5-8.4-.1-.7-.2-1.4-.3-1.9s-.2-.7-.2-.8c0 0 .4-.9.5-1.1 0-.1.1 0 .1.1s1.4 3.3 1.4 3.5c.1.2 0 .2-.1.1s-.8-.7-.8-.7 1.3 6.4 1.4 6.9c.3 1.4.1 2.4.1 2.8zm-10.1-1.9c-.7-.7-1.3-.6-1.5-.5-.3 0-.8.5-.4.6 1 .2 1.9-.1 1.9-.1z"/></g><path d="m35.8 5.3c.1.1 1.4 3.3 1.5 3.5 0 .2-.1.2-.2.1s-.8-.7-.8-.7 1.2 7 1.2 7.4c.7 4.6.1 5.9 0 6.1 0 .2-.1.1-.1-.1-.1-1.9-1.1-8.8-1.2-9.2 0-.4-.8-5.6-.9-6.2 0 0 .3-.8.4-1 .1-.1.1 0 .1.1z"/><path d="m42 8.1c-.1.1-.1 0-.3-.1 0-.1-.4-.4-.4-.4s-.5 1-1.2 1.5c-1.4 1.1-2.6 1.3-2.7 1.3-.1.1-.2-.1 0-.2.9-.5 2-.9 3.5-2.8 0 0-.5-.2-.8-.4s-.1-1.1.1-1.4c.6-1 1.1-.5 1.2-.3.5.8.2 1.7.2 1.7.3.2.6.5.4 1.1zm-1-2.3c-.1-.1-.3-.1-.6.3-.1.2 0 .3.2.4s.7.3.7.3c0-.1 0-.7-.3-1z" fill-rule="evenodd"/></g></svg>