<svg height="30" viewBox="0 0 70 30" width="70" xmlns="http://www.w3.org/2000/svg"><g fill="#191c4f"><path d="m8.6 26.6c-.1.1-.1.1-.1.2-.1.2-.2.2-.4.3-.1.1-3.2 1.4-3.3 1.4-.3.2-.3 0-.2 0q0-.1 0-.3c.1-.1.1-.2.3-.3s3.3-1.3 3.5-1.4c.3-.2.2 0 .2.1z"/><path d="m8.8 25.3c0 .1-.1.1-.1.3-.1.1-.2.1-.3.2-.2.1-3.3 1.4-3.4 1.4-.3.2-.3.1-.2 0q0 0 0-.3c.1-.1.2-.1.3-.2.2-.1 3.3-1.4 3.5-1.5.3-.1.2 0 .2.1z"/><path d="m13.3 23.7 1.3 1q.1 0 .1.1l-.8 1.1q-.1 0-.1 0l-1.4-1q0 0 0-.1l.8-1.1q0 0 .1 0z"/><path d="m7.7 22.6v.3c-.1.1-.3.3-.4.4q-.1.1-.1 0c-.3-.3-.6-.2-.8-.1-.3.2-.3.4-.2.5.1.2.5.5.8.5.4.1 1.2-.1 1.5-.3s.1.2 0 .3c0 0-.2.4-.4.4-1.5.3-2.1.9-2.3 1-.3.1-.2 0-.2-.1.1-.1.1-.1.2-.3q.1-.3.3-.4 0 0-.4-.3c-.5-.5.6-1.6 1.1-2s.8 0 .9.1z"/><path d="m28.3 22.1s.1.4.1.7-.2.7-.3 1.1c-.2.4-1.1.6-1.6.2-1 1.5-1.9.8-2.4.6-.9-.4-1.1.2-1.3.5-1.2 1.2-3.2 1.2-3.7 1.2-.4.1 0-.2.2-.3 1.6-.6 2.5-.7 4-2 .6-.7 1-.4 1.2-.3 1.3.6 1.5 0 1.7-.1.2-.2.4-.9.5-1.1s.3-.1.2.2c0 .1-.1.3-.1.4.5.4 1.1.1 1.2 0 0 0 0-.4-.1-.6q0-.2.2-.7c.1-.3.2 0 .2.2z"/><path d="m63.1 20.9v.6c0 .3-.1.8-.3 1.2-.1.4-1 .6-1.5.2-1 1.5-1.9.7-2.4.5-.9-.3-1.1.3-1.4.5-1.1 1.3-3.1 1.2-3.6 1.3-.5 0 0-.3.1-.4 1.6-.5 2.6-.6 4-2 .7-.6 1.1-.3 1.3-.2 1.3.6 1.5 0 1.7-.2.2-.1.4-.8.5-1 .1-.3.2-.1.2.1 0 .1-.1.4-.1.5.5.4 1.1.1 1.2-.1 0 0-.1-.4-.1-.5q0-.2.2-.7c.1-.4.2 0 .2.2z"/><path d="m20.9 13.2s-.1.4-.2.7c-.4 1.4-.1 2.1 0 2.2.4.7 1 .3 1.2-.2.1-.3.2-.2.1-.1q0 .2 0 .5c-.3.9-.6 1.1-.9 1.1-.6 0-.9-.7-1-1-.2-1.6.5-2.9.6-3.3.2-.4.3-.2.2.1z"/><path d="m38.4 19c-.4 1.3-2.3 2.1-2.7 2.2-1.7.5-1.8-1.1-1.7-2.4.1-1.2 1-2.7 1-2.7-.1-.1-1.9-1.5-2-1.6s-.3-.3-.5-.4c-.1-.1-.1-.2-.1-.2s0-1.3 0-1.4c0-.2.1-.1.2-.1.2.1 2.1.9 2.3 1s.1.2 0 .2c-.1.1-.7.2-.7.2l1.5 1.2s2.2-2.9 2.4-3.1c.2-.3.2-.2.2.1-.1.3-.5 1.5-.6 1.7s-1.2 1.7-1.2 1.7 1.4.9 1.8 1.4c.6.9.2 1.7.1 2.2zm-2.7-2.5s-1 1.7-1.2 2c-.4 1 .6 1.2 1 1.1.3 0 1.6-.7 2.2-1.2s-1.7-1.7-2-1.9z" fill-rule="evenodd"/><path d="m4.8 11.3s-.1.4-.2.8c-.4 1.6-.1 2.3 0 2.5.5.8 1 .3 1.2-.3.1-.3.2-.2.2 0q0 .1-.1.5c-.2 1-.6 1.3-.9 1.3-.6 0-.9-.8-1-1.2-.2-1.8.5-3.3.6-3.8.2-.4.3-.2.2.2z"/><path d="m65.1 17.5c-.1.3-.4 1.5-2.2 1.2-.4-.1-1.3-.3-1.7-1.3-.4.6-1.5 2.2-3.5 1.9-.4 0-1.8-.6-1.9-2.3 0 0-1.7 1.3-2.4 1.7 0 .6 0 1.4-.3 2.2s-3.9 4.8-6.8 5.5c-1 .2-4.7.9-4.8-3.3-.1-.8 0-1.5 0-2-2.2 1.8-5 3.2-5.8 3.6-1.2.5-5.5 1.3-6.2 1.4-.5.1-.6-.1-.3-.2.3-.2 9.7-3.4 14.6-8.6.2-.1.1-.3 0-.6-.1-.2-1.7-3.2-1.8-3.6-.2-.4-.4-.8-.4-1q-.1-.2-.1-.4c0-.2.2-1 .2-1.2.1-.1.2-.1.3.1 0 .1 1.6 1.6 1.8 1.8s0 .3-.1.3h-.8s1 1.7 1.4 2.4c.6 1.4.2 2.5 0 3-.4.9-1.3 1.8-2.2 2.6-.2.7-.5 4.1 2.7 4.2.5 0 2.1.2 5.3-2.4.8-.6 1.6-1.3 2.3-2.3.3-.4.5-1.1 0-1.1-.5.1-3.9 1.3-4.4-.7-.1-.5.2-5.3 3.5-2.9.3.2.9.7 1.4 1.7.6-.3 1.6-.9 2.9-1.9.3-.3.7-.5.6 0 0 .4-.2 3.2 2.8 2.4.3-.1 1.6-.4 2.5-2.8.3-.5.6-.4.4.1s-.5 1-.2 1.3 1.1.9 2.2.8c.4-.1.5-.2.4-.5s-.5-.9-.5-.9c.1-.4.3-1 .3-1.2s.1-.3.2-.2c.2.2 1.1 1.5.6 3.2zm-13.6.1c-1.1-1.4-2.3-.6-2.5-.4-.1.1-.2.5.8.6 1.3.1 1.7-.2 1.7-.2z" fill-rule="evenodd"/><path d="m28.5 10.2s-.2.5-.3.8c-.5 1.7-.1 2.4 0 2.6.5.8 1.2.3 1.4-.3.1-.3.2-.2.2 0q0 .1-.1.5c-.2 1-.7 1.3-1.1 1.3-.6 0-1-.8-1.1-1.2-.2-1.8.6-3.4.7-3.8.2-.5.4-.3.3.1z"/><path d="m36.6 8.8 1.3 1q.1.1 0 .1l-.8 1.1q0 .1-.1 0l-1.3-.9-.6.9q-.1.1-.2 0l-1.3-1q0 0 0-.1l.8-1q0-.1.1-.1l1.3 1 .7-.9q0-.1.1-.1z"/><path d="m61.7 8.9s-.1.3-.2.6c-.4 1.1-.2 1.7-.1 1.8.3.6.7.3.9-.2.1-.2.1-.1.1 0q0 .1-.1.4c-.2.7-.5.9-.7.9-.4 0-.6-.6-.7-.9 0-1.3.5-2.4.6-2.7.2-.3.3-.2.2.1z"/><path d="m48.3 8.2s-.1.4-.2.6c-.4 1.3-.2 1.9-.1 2 .3.6.8.3 1-.2.1-.2.2-.1.1 0q0 .1-.1.4c-.2.8-.5 1-.7 1-.5 0-.7-.7-.8-1-.1-1.4.5-2.5.7-2.9.1-.3.2-.2.1.1z"/><path d="m30.6 6.8c-.1.2-.2.2-.3.5s-.3.3-.6.5-14 6.5-14.2 6.6c-.6.3-.5.1-.4-.1q0 0 .1-.5c.1-.2.2-.3.6-.5s14-6.5 14.4-6.7c.5-.2.4 0 .4.2z"/><path d="m7.2 4.9c.3 1 .9 11.7.9 12.3.4 3.3 1.6 3.7 2.1 3.7 2.1.3 2.8-1.6 3.2-2.1.4-.6.5 0 .4.2.4 1.6 2.8 1.8 3.6 1.8 3 .2 5.9-1.9 6.4-2.3.6-.3.4.3.2.7.7 2.4 3.4.8 4.1-1.3.2-.4.4-.1.2.2-.1.3-.2.7-.3.9.6 1 1.8.9 2.1.8s-.2-1-.3-1.4c0 0 .3-1 .4-1.1s.1-.3.2 0c1.2 2.3 0 3.4-.4 3.7-1.2.9-2.1-.1-2.6-.6-.6 1.2-1.8 1.5-2.2 1.5-1.6 0-1.9-1.5-2-1.7-2.7 1.7-4.7 2-5.8 2.1-.8 0-1.7 0-2-.1-1.7-.4-2.2-1.7-2.2-1.7s-.9 1.7-2.2 1.9c-2.5.4-3-1.6-3.3-2.5-.2-.9-.5-5.8-.6-6.7-.1-2.5-.6-7.1-.6-7.3s.7-1.2.7-1z"/><path d="m28.4 3.2c-.1.2-.1.2-.2.5-.1.2-.3.3-.5.5-.2.1-16.4 7.4-17.3 7.9s-.8.9-.6 1c.7.2 1 .6.6 1.3 0 .1-.1.1-.1 0-.1-.1-.3-.3-.6-.3-.5-.1-.6-.8-.4-1.5.1-.5.4-.9.8-1.2.7-.5 17.7-8.1 17.9-8.3.5-.3.4-.1.4.1z"/><path d="m47.2 2.7c-.1.2-.1.2-.2.5-.1.2-.2.3-.5.4-.2.2-7.2 4.2-7.3 4.3-.5.2-.4.1-.4-.1q0 0 .1-.4c.1-.2.2-.2.4-.4.3-.2 7.3-4.2 7.5-4.3.5-.3.4-.1.4 0z"/><path d="m55.6 3.2c.2.3.1.8-.1 1.1 0 .3-.2 0-.4-.1 0 0-.2-.2-.3-.4-.7-.6-1 .6-1.1 1.2 0 .4-.1 1.7-.2 2.4-.1.3-.3.3-.3.1-.5-1.6-1.4-2.4-1.6-2.6-.2-.1-.3.1-.3.2s-.1.1-.2.1c-.1-.1-.6-.4-.8-.6s-.1-.8-.1-1c0-.5.3-.6.4-.5 1.9 1 2.5 2.9 2.6 3.1.1-1.3.2-2.6.9-3.5.6-.8 1.5.3 1.5.5z"/><path d="m62.5 6.1c0 .2-.1.1-.3-.1-.1-.1-.2-.3-.5-.5-.3.6-.3.7-1.4 1.7-2.6 2.2-5.4 3-5.6 3.1-.1 0-.2-.1.1-.3.9-.7 4.6-2.3 6.4-4.6 0 0-.5-.3-1-.6-.4-.3-.1-1.3.1-1.7.8-1.2 1.4-.6 1.5-.4.6 1.1.3 2.1.3 2.1.3.2.7.6.4 1.3zm-1.2-2.7c-.1-.1-.3-.1-.7.4-.1.1 0 .3.3.4.2.1.8.4.8.4 0-.2 0-.8-.4-1.2z" fill-rule="evenodd"/><path d="m15.8 3.1c.1.3 0 .8-.1 1.2-.1.2-.3 0-.4-.2 0 0-.2-.2-.3-.4-.7-.5-1 .6-1.1 1.2 0 .4-.1 1.7-.2 2.4 0 .3-.2.3-.3.1-.5-1.6-1.4-2.4-1.5-2.6-.2-.1-.3.1-.3.2-.1.1-.1.1-.2.1-.1-.1-.6-.4-.8-.6s-.1-.8-.1-1c0-.5.3-.6.4-.5 1.9 1 2.4 2.9 2.5 3.2.1-1.4.2-2.7.9-3.6.6-.8 1.4.4 1.5.5z"/><path d="m36.2 5.7c-.1.2-.2.1-.3-.1-.1-.1-.5-.5-.5-.5s-.6 1.3-1.5 2c-1.8 1.3-3.2 1.5-3.3 1.5-.2.1-.2-.1 0-.2 1.1-.7 2.4-1.1 4.3-3.4 0 0-.6-.3-1-.6s-.2-1.3.1-1.7c.7-1.1 1.4-.6 1.5-.4.6 1.1.3 2.1.3 2.1.3.2.6.7.4 1.3zm-1.2-2.7c-.2-.1-.3-.1-.7.4-.1.2 0 .3.2.4.3.1.8.4.8.4 0-.2.1-.8-.3-1.2z" fill-rule="evenodd"/></g></svg>