<svg height="30" viewBox="0 0 70 30" width="70" xmlns="http://www.w3.org/2000/svg"><g fill="#191c4f"><path d="m28.9 21.6 1.4 1q.1 0 0 .1l-.8 1.1q0 .1-.1.1l-1.4-1-.7.9q0 .1-.1.1l-1.4-1.1q0 0 0-.1l.8-1.1q.1-.1.1 0l1.4 1 .7-1q.1-.1.1 0z"/><path d="m63.5 21.8v.7c0 .3-.2.7-.3 1.1-.2.5-1.1.6-1.7.2-1 1.6-1.9.8-2.4.6-1-.3-1.2.3-1.5.5-1.1 1.4-3.2 1.3-3.7 1.4-.6 0-.1-.3.1-.4 1.6-.6 2.7-.7 4.2-2.1.6-.7 1-.3 1.3-.3 1.4.7 1.6.1 1.8-.1.1-.2.4-.9.5-1.1.1-.3.2-.1.2.1-.1.2-.1.4-.2.5.6.5 1.2.1 1.3 0 0 0 0-.5 0-.6q-.1-.2.1-.8c.2-.3.2 0 .3.3z"/><path d="m22.1 21.2s-.1.4-.2.7c-.4 1.6-.1 2.3 0 2.4.4.8 1 .3 1.2-.2.1-.3.2-.2.1-.1q0 .2 0 .5c-.3 1-.6 1.2-.9 1.2-.6 0-.9-.7-1-1.1-.2-1.6.5-3.1.6-3.5s.3-.3.2.1z"/><path d="m37.6 19.8c-.4 1.4-2.4 2.2-2.9 2.3-1.7.6-1.8-1.2-1.7-2.5.1-1.2 1-2.9 1-2.9-.1 0-1.9-1.5-2.1-1.6-.1-.2-.3-.4-.4-.5-.2-.1-.2-.2-.2-.2s0-1.3.1-1.4c0-.2 0-.1.2-.1.1.1 2.1.9 2.3 1s.2.3 0 .3c-.1 0-.7.2-.7.2l1.6 1.2s2.3-3 2.5-3.3.2-.1.2.2c-.1.3-.5 1.5-.6 1.7s-1.3 1.9-1.3 1.9 1.5.9 1.9 1.4c.6.9.2 1.8.1 2.3zm-2.9-2.6s-1 1.7-1.1 2.1c-.5 1 .5 1.2.9 1.1.4 0 1.8-.7 2.4-1.2.6-.6-1.8-1.8-2.2-2z" fill-rule="evenodd"/><path d="m65.6 18.2c-.1.3-.5 1.6-2.3 1.2-.5-.1-1.4-.3-1.8-1.3-.5.6-1.6 2.4-3.7 2-.4 0-1.9-.6-2-2.4 0 0-1.7 1.4-2.5 1.8.1.7 0 1.4-.3 2.3-.3.8-4.1 5-7.1 5.7-1 .2-4.9 1-5.1-3.4 0-.9 0-1.6.1-2.1-2.4 1.9-5.3 3.3-6.1 3.7-1.3.6-5.7 1.4-6.5 1.5-.6.1-.7 0-.3-.2.3-.2 10.2-3.5 15.3-8.9.1-.2.1-.4 0-.7-.2-.3-1.8-3.3-1.9-3.8-.2-.4-.4-.9-.5-1q-.1-.2 0-.5c0-.2.1-1 .2-1.2 0-.2.1-.1.2.1.1.1 1.7 1.7 1.9 1.9s.1.3 0 .3-.8 0-.8 0 1 1.8 1.3 2.5c.7 1.5.3 2.6.1 3.1-.5 1-1.3 1.9-2.3 2.8-.2.7-.5 4.3 2.8 4.4.5 0 2.2.2 5.6-2.5.8-.7 1.6-1.4 2.4-2.5.3-.4.5-1.1-.1-1.1-.5.1-4 1.4-4.5-.8-.1-.5.2-5.5 3.6-3 .3.2 1 .8 1.5 1.8.6-.3 1.6-.9 3-2 .4-.3.7-.5.7 0s-.3 3.4 2.9 2.5c.3-.1 1.6-.4 2.6-2.8.3-.6.6-.5.4 0-.2.6-.5 1.1-.2 1.4s1.2.9 2.3.8c.4-.1.6-.2.4-.5-.1-.4-.5-1-.5-1 .1-.4.3-1 .3-1.2.1-.2.1-.3.3-.2.1.2 1.1 1.5.6 3.3zm-14.3.1c-1.1-1.5-2.4-.6-2.6-.4-.1.1-.2.5.9.6 1.3.1 1.7-.2 1.7-.2z" fill-rule="evenodd"/><path d="m13.1 15.7s-.2.6-.3 1c-.7 2.1-.3 3.1-.3 3.3.5 1.1 1.2.6 1.5-.2.1-.4.2-.2.2-.1-.1.2-.1.4-.2.7-.3 1.3-.8 1.6-1.1 1.6-.7 0-1-1.1-1-1.6-.1-2.3.7-4.3.9-4.9.2-.5.4-.3.3.2z"/><path d="m27.5 9.9c.1.1 1.6 2 1.7 2.3.2.3-.1.3-.2.3-.1-.1-.6-.3-.6-.3s1 2.6 1.1 3.1c.6 2.2-.6 3.4-1 3.5-2 .8-2.9-.8-3.1-.9-.7 1.6-1.6 1.7-1.9 1.7-1.4 0-1.5-1.1-1.5-1.2-1.3 1.3-2.6 1.3-3 1.3 0 0 .1.8.1 1.4 0 1.1-.3 1.4-.7 1.9-3 3.9-8.5 4.2-9.4 4.1-5.7-.8-3.3-7.1-3-8q0-.1 0-.1c-.7-.2-1-1.5-1-2.1-.1-3 .9-5.6 1.1-6.3.3-.8.5-.5.3.2 0 0-.2.8-.4 1.3-.7 2.8-.3 4.1-.2 4.3.5 1.4 1.3.7 1.6-.3.2-.6.3-.3.2 0 0 .1 0 .4-.1.8-.3 1.3-.7 1.8-1 2-2.3 6.3 2.6 6.6 3.4 6.6 3.5.2 7-2.6 7.5-2.9 1.4-1 1.1-1.7 1-2.1-.1-.5-1.3-3-1.3-3s.2-1.2.2-1.3c.1-.2.3-.3.4-.1s.7 1.7.7 1.7c2.4.7 4-1.4 4.2-1.6.3-.3.4-.1.3.2-.1.2-.2.6-.2.6.1 1.2.9 1.1 1.2 1 1.1-.1 1.8-2 1.9-2.3.2-.3.4 0 .3.2s-.2.4-.2.4c.6 1 1.8 1.2 2.5 1.2s.6-.6.5-.9c-.1-.2-1.4-3.4-1.5-3.9-.1-.2-.5-1.5-.4-1.6 0-.1.2-1.1.3-1.2 0-.2.1-.2.2 0z"/><path d="m12.2 9.7s-.1.4-.2.7c-.5 1.5-.3 2.1-.2 2.3.4.7.9.3 1.1-.2.1-.3.2-.2.2 0q0 .1-.1.4c-.3.9-.6 1.1-.9 1.1-.5 0-.8-.7-.8-1.1-.1-1.6.6-2.9.7-3.3.2-.4.3-.2.2.1z"/><path d="m33.5 9.2 1.4.9.7-.9q0-.1.1 0l1.4 1q0 0 0 .1l-.8 1.1q-.1.1-.1 0l-1.4-1-.7 1q-.1.1-.1 0l-1.4-1q-.1 0 0-.1l.8-1.1q0-.1.1 0z"/><path d="m23.5 9.6c.2.3.1.8 0 1.1-.1.2-.2 0-.4-.2 0 0-.1-.1-.3-.2-.6-.5-.8.5-.9 1v2.2c-.1.2-.3.2-.3.1-.5-1.5-1.4-2.1-1.5-2.2-.2-.2-.3.1-.3.2s-.1.1-.2 0c-.1 0-.6-.3-.7-.4-.2-.2-.2-.7-.2-1s.3-.5.4-.4c1.7.8 2.3 2.4 2.4 2.7.1-1.3 0-2.4.6-3.2.5-.7 1.4.2 1.4.3z"/><path d="m62 9.2s-.2.4-.2.6c-.5 1.3-.2 1.8-.2 1.9.4.7.8.3 1-.1.1-.3.2-.1.1 0q0 .1 0 .3c-.3.8-.6 1-.8 1-.5 0-.7-.6-.7-1-.1-1.3.5-2.4.6-2.8.1-.3.3-.1.2.1z"/><path d="m48 8.5s-.1.4-.2.6c-.5 1.4-.2 2-.2 2.1.4.7.9.3 1.1-.2.1-.2.2-.1.1 0q0 .1-.1.4c-.2.9-.5 1-.8 1-.5 0-.7-.6-.7-1-.1-1.4.5-2.6.6-3 .2-.4.3-.2.2.1z"/><path d="m26.4 3.6c-.1 1-.4 1.9-.5 2.2 0 .2-.2.4-.1.1 0-.2.1-1 .1-1.3.1-.4.2-.7-.2-.5-.2.1-3.6 2.6-8.2 2.3 0 .5-.1 1-.2 1.1 0 .1-.1.1-.1-.1-.1-.2-.2-.8-.6-1.2-.1-.1-.2-.8-.2-1-.1-.3.1-.2.3-.1.2 0 3.9 1.2 8.7-1.9.3-.1 1.1-.6 1 .4z"/><path d="m13.8 3.3c.1.3 0 .8-.1 1.2-.1.2-.3 0-.5-.2 0 0-.1-.2-.3-.3-.7-.6-1 .5-1 1.1-.1.4-.2 1.7-.3 2.4 0 .3-.2.3-.3.1-.5-1.6-1.4-2.4-1.5-2.5q-.1-.1-.1-.1c0 .1.1.3.1.6-.4 2-2.4 2.8-2.8 3s-.3.2 0-.2 1.9-2 2.2-2.3c.7-.8-.6-1.2-.8-1.4-.1-.2-.1-.8-.1-1 .1-.5.4-.6.5-.5 1.9 1 2.5 2.9 2.6 3.2.1-1.4.1-2.6.8-3.6.6-.7 1.5.4 1.6.5z"/><path d="m46.8 2.8c-.1.1-.1.2-.2.4-.1.3-.3.3-.5.5-.3.1-7.6 4.4-7.7 4.4-.4.3-.4.1-.4 0q.1-.1.1-.4c.1-.2.2-.3.5-.5s7.5-4.4 7.8-4.5c.5-.3.4-.1.4.1z"/><path d="m55.6 3.2c.2.3.1.9-.1 1.3 0 .2-.2 0-.4-.2 0 0-.2-.2-.4-.4-.7-.6-1 .6-1.1 1.2 0 .4-.1 1.8-.2 2.6 0 .3-.3.3-.3 0-.6-1.7-1.5-2.5-1.7-2.6-.2-.2-.3 0-.3.2 0 .1-.1.1-.2 0-.1 0-.7-.4-.9-.6-.1-.2-.1-.8-.1-1.1.1-.4.4-.6.5-.5 2 1.1 2.6 3 2.7 3.3.1-1.4.2-2.7.9-3.7.7-.8 1.6.4 1.6.5z"/><g fill-rule="evenodd"><path d="m62.9 6.3c-.1.2-.2.1-.3-.1-.1-.1-.3-.4-.6-.5-.3.6-.3.7-1.5 1.8-2.7 2.3-5.7 3.1-5.8 3.1-.2.1-.2 0 .1-.2.9-.8 4.7-2.5 6.7-4.9 0 0-.6-.2-1-.5-.5-.4-.2-1.4.1-1.9.7-1.2 1.4-.6 1.5-.4.7 1.1.3 2.2.3 2.2.3.3.7.7.5 1.4zm-1.3-2.9c-.2-.1-.3-.1-.7.5-.2.1 0 .3.2.4.3.1.9.4.9.4 0-.2 0-.9-.4-1.3z"/><path d="m35.3 5.9c-.1.2-.2.1-.3-.1-.1-.1-.6-.5-.6-.5s-.6 1.3-1.5 2c-1.8 1.4-3.4 1.6-3.5 1.6-.2.1-.2-.1.1-.2 1.1-.7 2.5-1.2 4.4-3.6 0 0-.6-.2-1-.5-.4-.4-.2-1.4.1-1.9.8-1.2 1.4-.6 1.5-.4.7 1.1.3 2.2.3 2.2.4.3.7.7.5 1.4zm-1.3-2.9c-.1-.1-.3-.1-.7.5-.1.1 0 .3.3.4.2.1.8.4.8.4 0-.2.1-.9-.4-1.3z"/></g></g></svg>