<svg height="30" viewBox="0 0 70 30" width="70" xmlns="http://www.w3.org/2000/svg"><g fill="#191c4f"><path d="m13.3 23.8c0 .1 0 .2-.1.4s-.2.2-.5.3c-.2.1-3.1 1.1-3.3 1.2-.4.2-.4.1-.3 0q0-.1.1-.4c0-.2.1-.2.4-.3s3.2-1.2 3.5-1.3c.4-.1.3 0 .2.1z"/><path d="m25.3 21.6s-.1.2-.2.4c-.3 1-.1 1.5-.1 1.6.3.5.7.2.8-.2.1-.2.1-.1.1 0q0 .1 0 .3c-.2.6-.5.8-.7.8-.3-.1-.5-.5-.5-.8-.1-1 .4-1.9.5-2.2s.2-.2.1.1z"/><path d="m31.3 20.3s-.1.3-.2.5c-.3 1-.1 1.4-.1 1.5.3.5.7.3.8-.1.1-.2.1-.1.1 0q0 .1-.1.3c-.1.6-.4.7-.6.7-.3 0-.5-.5-.5-.7-.1-1.1.4-2 .5-2.2.1-.3.2-.2.1 0z"/><path d="m63.3 20.4v.6c0 .2-.2.6-.3 1-.1.3-.9.5-1.4.1-.8 1.4-1.6.7-2 .5-.8-.3-1 .2-1.2.4-.9 1.1-2.7 1.1-3.1 1.1-.4.1-.1-.2.1-.3 1.4-.5 2.2-.6 3.5-1.7.5-.5.8-.3 1-.2 1.2.5 1.4 0 1.5-.1.2-.2.4-.8.5-1 0-.2.2 0 .1.1 0 .2-.1.4-.1.5.5.3 1 0 1.1-.1 0 0-.1-.3-.1-.5q0-.1.2-.6c.1-.3.1 0 .2.2z"/><path d="m23.7 14.6 1.1.8q.1.1 0 .1l-.6.9q-.1.1-.1.1l-1.2-.9q0 0 0-.1l.7-.9q0-.1.1 0z"/><path d="m41.8 18.8c-.3 1.1-2 1.8-2.3 1.9-1.5.5-1.6-1-1.5-2.1.1-1 .9-2.4.9-2.4-.1 0-1.6-1.2-1.8-1.3-.1-.1-.2-.3-.4-.4-.1-.1-.1-.2-.1-.2s0-1 0-1.2c.1-.1.1 0 .2 0 .2.1 1.8.7 2 .8.1.1.1.2 0 .2-.1.1-.7.2-.7.2l1.4 1s1.9-2.5 2.1-2.7.1-.1.1.1c0 .3-.4 1.3-.5 1.5-.1.1-1 1.5-1 1.5s1.2.7 1.5 1.2c.6.7.2 1.5.1 1.9zm-2.4-2.2s-.8 1.5-.9 1.7c-.4.9.4 1.1.8 1 .3 0 1.4-.6 1.9-1 .6-.5-1.4-1.5-1.8-1.7z" fill-rule="evenodd"/><path d="m65 17.5c-.1.2-.4 1.3-1.9 1-.4-.1-1.2-.3-1.5-1.1-.4.5-1.3 1.9-3 1.7-.4-.1-1.6-.5-1.7-2.1 0 0-1.4 1.2-2.1 1.5.1.6 0 1.2-.2 1.9-.3.7-3.4 4.2-5.9 4.8-.9.2-4.1.8-4.2-2.8-.1-.8 0-1.4.1-1.8-2 1.6-4.4 2.8-5.1 3.1-1.1.5-4.8 1.1-5.4 1.2-.5.1-.5 0-.3-.2.3-.1 8.5-2.9 12.7-7.4.2-.1.1-.3 0-.5s-1.4-2.8-1.6-3.1c-.1-.3-.3-.8-.3-.9q-.1-.2-.1-.4c0-.1.2-.8.2-1 0-.1.1 0 .2.1s1.4 1.4 1.6 1.6c.1.2 0 .2 0 .2-.1 0-.7 0-.7 0s.8 1.5 1.1 2.1c.5 1.2.2 2.2.1 2.6-.5.8-1.2 1.5-2 2.2-.1.7-.4 3.6 2.4 3.7.4 0 1.8.2 4.6-2.1.6-.5 1.4-1.1 2-2 .3-.4.4-1-.1-.9-.4 0-3.3 1.1-3.7-.7-.1-.4.1-4.6 3-2.5.2.2.8.7 1.2 1.5.5-.2 1.4-.7 2.5-1.6.3-.3.6-.4.6 0s-.3 2.7 2.3 2c.3 0 1.4-.3 2.2-2.3.3-.5.6-.4.4 0-.2.5-.5.9-.2 1.2.2.2 1 .7 1.9.6.3 0 .5-.2.4-.4-.1-.3-.5-.8-.5-.8.1-.3.2-.9.3-1 0-.2.1-.3.2-.1.1.1.9 1.2.5 2.7zm-11.8.1c-.9-1.3-2-.6-2.2-.4-.1.1-.2.5.7.5 1.1.1 1.5-.1 1.5-.1z" fill-rule="evenodd"/><path d="m40.2 10 1.2.8q0 .1 0 .1l-.7.9q0 .1-.1.1l-1.1-.9-.6.8q0 .1-.1.1l-1.1-.9q-.1 0-.1-.1l.7-.9q.1-.1.1 0l1.2.8.5-.8q.1-.1.1 0z"/><path d="m62 10s-.1.3-.2.5c-.3 1-.1 1.5-.1 1.6.3.5.7.3.8-.1.1-.2.2-.1.1 0q0 .1 0 .3c-.2.6-.5.7-.7.7-.4 0-.5-.5-.5-.7-.1-1.1.4-2.1.5-2.3.1-.3.2-.2.1 0z"/><path d="m25.9 9.7s.1.5.3.9c.1.2.2.5.2 1-.1.5-.3.8-.6.9-.2.1-.7.1-1-.4-.4.8-1 .9-1.4.8-.3-.2-.3-.8-.3-1s0-.9 0-1c-.1-.1 0-.3.1-.4.1-.2.1-.1.1.1s-.1 1 .1 1.4c.4.5 1.1 0 1.2-.3.1-.2-.2-1.1-.2-1.2q0-.1 0-.1c0-.1 0-.4.1-.5q.1-.2.2 0c0 .2.1.4.2 1.2.1.9.9.7 1.1.6.2 0 .2-.2.1-.3 0-.1-.4-.7-.5-1s0-.5.1-.8c0-.3.1-.1.2.1z"/><path d="m50.4 9.4s-.1.3-.1.6c-.4 1.1-.2 1.6-.2 1.7.3.5.7.2.9-.2.1-.2.1-.1.1 0q0 .1 0 .4c-.2.6-.5.8-.7.8-.5 0-.6-.6-.7-.8 0-1.2.5-2.3.6-2.6.1-.2.2-.1.1.1z"/><path d="m20.4 7.3c0 .2 0 .2-.1.5-.1.2-.3.3-.5.5-.2.1-8.1 4.1-8.8 4.6-.9.5-.8.8-.6.9.6.2.9.6.6 1.3h-.1c-.1-.1-.3-.3-.6-.3-.4-.1-.6-.8-.4-1.4.1-.5.3-.9.7-1.2.6-.5 9.3-4.8 9.5-5 .4-.2.4 0 .3.1z"/><path d="m10.4 5.4c.1.3 0 .7-.1 1-.1.2-.3 0-.4-.2 0 0-.1-.1-.3-.2-.5-.5-.8.4-.8.9-.1.3-.1 1.4-.2 2-.1.3-.2.3-.3.1-.4-1.4-1.2-2-1.3-2.1q0-.1 0-.1v.5c-.3 1.7-2 2.4-2.3 2.6-.3.1-.2.1 0-.3.3-.3 1.6-1.6 1.9-1.9.5-.6-.5-1-.7-1.1-.1-.1-.1-.7 0-.9 0-.3.2-.4.3-.4 1.6.9 2.1 2.4 2.2 2.7 0-1.2.1-2.2.7-3 .5-.6 1.2.3 1.3.4z"/><path d="m14.8 4.9s-.1.3-.2.5c-.3.9-.1 1.4-.1 1.5.3.5.7.2.8-.1.1-.2.1-.1.1 0q0 0 0 .3c-.2.6-.5.7-.7.7-.3 0-.5-.5-.5-.7-.1-1.1.4-2 .5-2.3.1-.2.2-.1.1.1z"/><path d="m49.4 4.7c0 .1-.1.2-.1.4-.1.1-.2.2-.4.3-.3.2-6.3 3.7-6.4 3.7-.4.3-.4.1-.3 0q0-.1.1-.3c0-.2.1-.3.3-.4.3-.2 6.3-3.7 6.5-3.8.4-.2.4-.1.3.1z"/><path d="m56.8 5.1c.1.2 0 .7-.1 1-.1.2-.3 0-.4-.2 0 0-.1-.1-.3-.3-.6-.5-.8.5-.9 1 0 .3-.1 1.5-.2 2.1 0 .3-.2.3-.3.1-.4-1.4-1.2-2.1-1.3-2.2-.2-.2-.3.1-.3.1 0 .1-.1.1-.2.1-.1-.1-.5-.4-.7-.5-.1-.2-.1-.7-.1-.9.1-.4.3-.5.4-.4 1.7.9 2.2 2.5 2.3 2.7.1-1.2.1-2.2.7-3.1.6-.6 1.3.3 1.4.5z"/><path d="m62.7 7.6c0 .2-.1.1-.2-.1-.1-.1-.2-.3-.5-.4-.2.5-.2.6-1.2 1.5-2.3 1.9-4.7 2.6-4.8 2.6-.2 0-.2-.1 0-.2.8-.6 4-2 5.6-4 0 0-.5-.2-.8-.5-.4-.3-.2-1.2 0-1.5.7-1 1.2-.5 1.3-.4.6 1 .3 1.9.3 1.9.3.2.6.5.3 1.1zm-1-2.4c-.1 0-.3-.1-.6.4-.1.1 0 .3.2.3.2.1.7.4.7.4 0-.2.1-.7-.3-1.1z" fill-rule="evenodd"/><path d="m25.8 7.4c-.1.2-.1.1-.2-.1-.1-.1-.5-.4-.5-.4s-1.3 1.8-2.7 2.6c-1.6 1-2.8 1.3-2.9 1.4-.2 0-.2-.2 0-.3 1-.4 3.5-2.1 5.3-3.9 0 0-.5-.3-.9-.6-.3-.3 0-1.1.3-1.5.7-.9 1.2-.3 1.3-.2.4 1 0 1.9 0 1.9.3.2.6.6.3 1.1zm-.8-2.4c-.1-.1-.3-.2-.6.3-.2.1-.1.2.1.3s.7.4.7.4c0-.1.1-.7-.2-1z" fill-rule="evenodd"/><path d="m32.9 4.2c.1.2 1.5 3.6 1.6 3.8 0 .2-.1.2-.2.1s-.8-.8-.8-.8 1.3 9.3 1.3 9.6c.2 1.8.3 3.1.3 4-.1 1.1-.3 1.6-.4 1.7-.1.2-.2.1-.1-.1-.1-.7-.2-1.9-.4-3.3-.3-2.8-1.5-11.7-1.7-13.2-.1-.1-.2-.6-.2-.7 0 0 .4-1 .5-1.1 0-.2.1-.1.1 0z"/><g fill-rule="evenodd"><path d="m39.9 7.3c-.1.1-.1 0-.2-.1s-.5-.4-.5-.4-.5 1-1.3 1.6c-1.5 1.2-2.8 1.4-2.9 1.4s-.2-.1.1-.2c.9-.6 2.1-1 3.7-3 0 0-.5-.2-.9-.4-.3-.3-.1-1.2.1-1.6.6-.9 1.2-.4 1.3-.3.5.9.2 1.9.2 1.9.3.1.6.5.4 1.1zm-1-2.4c-.2-.1-.3-.1-.6.4-.1.1 0 .2.2.3s.7.3.7.3c0-.1 0-.7-.3-1z"/><path d="m29.3 19.4c-1.3.8-4.2 1.3-5.2 1.7-2 .7-4.2 2.9-4.7 3.4-1.7 1.9-3.3 1.5-3.9 1.1-2.6-1.4.3-6 .9-7-.5.2-1.1.3-1.3.4-3 1-5.3 3.9-5.6 4.3-2.3 2.7-4.1 1.7-4.5 1.5-2.1-1.6-.4-5.1-.1-5.7q.1-.2.2-.3c-.3-.3-.5-.9-.5-1.3-.2-2.1.6-4 .7-4.6.2-.5.4-.3.3.2 0 0-.2.6-.3 1-.5 2-.2 2.9-.1 3.1.5 1 1.1.4 1.4-.3.1-.4.2-.2.2 0q-.1.1-.1.6c-.3 1.2-.8 1.5-1.1 1.5q-.1 0-.2 0 0 0 0 .1c-.2.5-.7 1.7-.8 2.1-.6 2.9 1 2.7 1.3 2.8 1.5 0 3.4-2.1 3.7-2.5 1.2-1.5 2.8-2.7 3.4-3 1.1-.7 2.9-1.2 3.6-1.4q.2-.1.5-.1c-.2-.4-.4-.8-.5-1.5-.2-.7.5-1.8 1-2.1.7-.4 1.7.4 1.9.5l1.7 1.7c.1.1-.4 1.4-.4 1.4s-1 .4-1.7.7q-.3 0-.7.2c0 .3 0 .6-.1.6 0 .2-.1.2-.1 0-.1-.1-.2-.2-.3-.4q-.4.1-.8.2c-1.4 1.8-2.2 4.2-2.2 4.9-.2 2.2 2.4 1.5 3.1.9s2.7-2.5 4-3.3c1.8-1.1 5.7-2 7.3-2.8.7-.4.5-.8.5-1.3 0-.4-1.1-8.3-1.1-8.3-.1-.9-.3-1.6-.4-2.1 0-.6-.2-1-.3-1.1 0 0 .5-1 .6-1.1 0-.2.1-.1.1 0 0 .2 1.5 3.3 1.5 3.5.1.2 0 .3-.1.1-.2-.1-.8-.7-.8-.7s1.2 8.1 1.2 8.8c.2 2.3-.8 3.3-1.2 3.6zm-12-4c.1.2.4.7.7 1.2q0 .1 0 .1c.7-.2 1.4-.5 1.7-.7.1 0-.3-.3-.8-.7-.4-.3-.8-.4-1.2-.4s-.5.3-.4.5z"/></g></g></svg>