<svg height="30" viewBox="0 0 70 30" width="70" xmlns="http://www.w3.org/2000/svg"><g fill="#191c4f"><path d="m14.8 24.2c0 .1 0 .2-.1.3-.1.2-.2.2-.4.3s-2.3.8-2.4.9c-.4.1-.3 0-.3-.1q.1 0 .1-.3c.1-.1.1-.2.4-.3.2-.1 2.3-.8 2.5-.9.3-.1.3 0 .2.1z"/><path d="m14.8 22.9c0 .1 0 .2-.1.3-.1.2-.2.2-.4.3s-2.3.8-2.4.9c-.4.1-.3 0-.3-.1q.1 0 .1-.3c.1-.1.1-.2.4-.3.2-.1 2.3-.8 2.5-.9.3-.1.3 0 .2.1z"/><path d="m34.3 22.4c.4.2.3.8.2 1-.4 1.1-1.2 1.8-1.4 2s-.3.1-.1-.1c0 0 .2-.3.4-.4.7-.8.7-1.4.7-1.5 0-.6-.5-.5-.8-.2-.1.2-.2.1-.1 0q.1-.1.2-.3c.4-.5.7-.5.9-.5z"/><path d="m21.4 20.9c-.1.1-.1.1-.2.3s-.2.2-.4.4c-.2.1-3.9 1.5-4 1.6-.3.2-.3 0-.2-.1q0 0 0-.3c.1-.2.2-.2.4-.3.3-.2 3.9-1.6 4.1-1.7.4-.2.3-.1.3.1z"/><path d="m63.9 20.9s.1.3.1.5c0 .3-.2.6-.3 1-.1.3-.8.4-1.3.1-.8 1.3-1.6.6-2 .5-.7-.3-.9.2-1.1.4-.9 1-2.6 1-3 1-.4.1-.1-.2.1-.3 1.3-.4 2.1-.5 3.3-1.6.5-.5.9-.3 1.1-.2 1.1.5 1.2 0 1.4-.1.1-.2.3-.8.4-.9.1-.2.2-.1.1.1 0 .1 0 .3-.1.4.5.3.9 0 1.1-.1 0 0-.1-.3-.1-.4q0-.2.1-.6c.1-.3.2 0 .2.2z"/><path d="m26.5 15.5s-.1.4-.2.6c-.5 1.4-.3 2.1-.2 2.2.4.8.9.4 1.1-.1.1-.3.2-.2.2 0q0 .1-.1.4c-.3.9-.7 1.1-.9 1.1-.6-.1-.8-.8-.8-1.1-.1-1.6.6-2.9.8-3.2.1-.4.3-.3.1.1z"/><path d="m43.3 19.3c-.3 1.1-1.9 1.7-2.3 1.8-1.4.5-1.5-.9-1.4-1.9.1-1.1.9-2.4.9-2.4-.1 0-1.6-1.2-1.7-1.3s-.3-.3-.4-.3c-.1-.1-.1-.2-.1-.2s0-1 0-1.2c0-.1.1 0 .2 0 .1.1 1.7.7 1.9.8.1.1.1.2 0 .2-.1.1-.6.2-.6.2l1.3.9s1.8-2.3 2-2.6c.1-.2.1-.1.1.2-.1.2-.4 1.2-.5 1.4-.1.1-1 1.4-1 1.4s1.2.7 1.5 1.2c.5.7.2 1.4.1 1.8zm-2.3-2.1s-.8 1.4-.9 1.7c-.4.8.4.9.7.9s1.4-.6 1.9-1c.6-.4-1.4-1.4-1.7-1.6z" fill-rule="evenodd"/><path d="m12.3 12.8s-.2.5-.3.8c-.6 1.8-.3 2.6-.3 2.8.4.9.9.4 1.2-.2.1-.3.2-.2.1 0q0 .1-.1.5c-.3 1.1-.7 1.3-1 1.3-.5-.1-.7-.9-.7-1.4 0-1.9.7-3.5.9-3.9.2-.5.3-.3.2.1z"/><path d="m65.6 18c-.1.3-.4 1.3-1.8 1-.4-.1-1.2-.2-1.5-1-.3.4-1.2 1.8-2.9 1.6-.3-.1-1.5-.5-1.6-2 0 0-1.4 1.1-2 1.4.1.6 0 1.2-.2 1.9-.3.6-3.3 4-5.7 4.5-.8.2-3.9.8-4-2.7q-.1-1.1 0-1.6c-1.9 1.5-4.2 2.6-4.9 2.9-1 .5-4.5 1.1-5.1 1.2-.5.1-.5 0-.3-.2.3-.1 8.2-2.8 12.2-7.1q.2-.2 0-.5c-.1-.2-1.4-2.7-1.5-3s-.3-.7-.4-.8q0-.2 0-.4c0-.2.1-.8.2-1 0-.1.1-.1.2.1 0 .1 1.3 1.3 1.5 1.5.1.2 0 .2 0 .2-.1 0-.7 0-.7 0s.8 1.5 1.1 2c.5 1.2.2 2.1.1 2.5-.4.8-1.1 1.5-1.9 2.2-.2.6-.4 3.5 2.2 3.5.4 0 1.8.2 4.5-2 .6-.5 1.3-1.1 1.9-1.9.3-.4.4-1 0-.9-.5 0-3.2 1.1-3.7-.6 0-.5.2-4.5 2.9-2.5.3.2.8.7 1.2 1.5.5-.2 1.3-.7 2.4-1.6.3-.2.6-.4.6 0s-.3 2.7 2.3 2c.2-.1 1.3-.3 2-2.3.3-.4.6-.4.4 0-.2.5-.5.9-.2 1.2.2.2.9.7 1.8.6.3 0 .5-.2.4-.4-.1-.3-.4-.8-.4-.8.1-.3.2-.8.2-1 .1-.1.1-.2.2-.1s.9 1.2.5 2.6zm-11.4.1c-.9-1.2-1.9-.5-2-.4-.2.2-.2.5.6.6 1.1 0 1.4-.2 1.4-.2z" fill-rule="evenodd"/><path d="m18.9 19c-.5.4-3.1 1.2-3.8 1.4-2.6.6-4.6 2.7-5 3.1-1.7 2.1-2.9 2.1-3.2 2-1.9-.3-1.9-2.1-1.9-2.5.2-2 1.2-3.4 1.6-4-.6-.2-.7-1.2-.7-1.8.2-2.3 1.2-4.2 1.4-4.8.3-.5.4-.2.2.2 0 0-.2.6-.4 1-.8 2.1-.6 3.1-.6 3.4.4 1.1 1.1.6 1.4-.2.1-.4.2-.1.2 0-.1.1-.1.4-.2.7-.3.7-.5 1.1-.8 1.3q0 0 0 0c-1.4 1.9-1.7 4-1.6 4.4.4 1.9 1.8 1.2 2.4.9s2.7-2.6 3.1-3c1.5-1.4 4.4-2.1 4.8-2.2.3 0 2.3-.4 2.9-1.1s-.7-.9-1.1-.9c-1.2 0-1.5 0-2-.4-.9-.7-.4-2.2.6-2.9.8-.6 1.4-.2 1.7 0 1.6 1.3 2.5 3.9 1 5.4zm-.8-3.4c-.2-.3-.8-1.1-1.5-.9-.6.2-.7 1.1.5.9.4-.1 1 0 1 0z" fill-rule="evenodd"/><path d="m41.8 10.8 1.1.8q0 .1 0 .1l-.6.9q-.1.1-.1 0l-1.1-.8-.6.8q0 .1-.1 0l-1.1-.8q0 0 0-.1l.6-.9q.1 0 .1 0l1.1.8.6-.8q0 0 .1 0z"/><path d="m31.1 10.8 1.1.8q.1 0 0 .1l-.6.9q0 0-.1 0l-1.1-.8q-.1-.1 0-.1l.6-.9q.1-.1.1 0z"/><path d="m62.7 10.9s-.1.2-.1.4c-.4 1-.2 1.5-.1 1.6.2.5.6.2.7-.2.1-.2.2-.1.1 0q0 .1 0 .3c-.2.6-.4.8-.6.8-.4 0-.6-.5-.6-.8-.1-1 .4-1.9.5-2.2s.2-.2.1.1z"/><path d="m16.4 10.5 1.1.9q.1 0 0 0l-.6.9q-.1.1-.1.1l-1.1-.9q-.1 0 0 0l.6-1q0 0 .1 0z"/><path d="m51.6 10.3s-.1.3-.2.5c-.3 1.1-.1 1.5-.1 1.7.3.5.7.2.8-.2.1-.2.2-.1.2 0q-.1.1-.1.3c-.2.7-.5.8-.7.8-.4 0-.6-.5-.6-.8 0-1.1.4-2.1.6-2.4.1-.3.2-.1.1.1z"/><path d="m14 6.7c.1.2 0 .6-.1.9-.1.2-.2 0-.4-.2 0 0-.1-.1-.2-.2-.6-.5-.8.4-.9.9 0 .3-.1 1.3-.1 1.9-.1.3-.2.2-.3.1-.4-1.3-1.1-1.9-1.2-2q-.1-.1-.1-.1.1.2.1.5c-.3 1.6-2 2.3-2.2 2.4-.3.2-.3.1 0-.2.2-.3 1.5-1.6 1.7-1.8.6-.6-.5-1-.6-1.1-.1-.2-.1-.6-.1-.8.1-.4.3-.5.4-.4 1.5.8 2 2.3 2 2.5.1-1.1.1-2.1.7-2.8.5-.6 1.2.2 1.3.4z"/><path d="m18 6.1s-.1.3-.2.5c-.3 1-.1 1.4-.1 1.5.3.5.7.3.8-.1.1-.2.1-.1.1 0q0 .1 0 .3c-.2.6-.5.7-.7.7-.4 0-.5-.5-.5-.7-.1-1.1.4-2 .5-2.3s.2-.1.1.1z"/><path d="m21.6 5.8c.8 2 .7 9.2.8 10.8.1 3.5 1.4 4.2 2.1 4.6 2.3 1.1 5.8-.1 6.5-.3 0 0-1.2-1.1-1.4-1.3-.8-1.1-.7-2.4-.5-2.9.9-2.3 2.6-2.6 3.7-2.7s2.5.7 2.9 1.1c.3.3.2.3-.2.2-2.9-.9-5.3 1-5.5 1.1s-.4.3-.3.6c0 .4.4 1.1.7 1.4 1.1 1.6 2.9 1.5 3.4 1.4s3.8-1.7 4.1-1.9c.3-.1.3 0 .2.2s-.6 1.3-.6 1.3-6.3 2.7-7.1 2.9c-5.2 1.7-6.9.1-7.2-.2-1.8-1.4-1.6-7.6-1.6-8.6 0-2-.3-5.1-.7-6.4 0 0 .3-.8.4-1.1q.1-.6.3-.2z"/><path d="m50.6 5.7c0 .2-.1.2-.1.4-.1.2-.2.2-.4.3-.2.2-6.1 3.5-6.2 3.6-.3.2-.3.1-.2 0q0-.1 0-.4c.1-.1.1-.2.4-.3.2-.2 6-3.5 6.2-3.7.4-.2.3 0 .3.1z"/><path d="m57.7 6.1c.1.2 0 .7-.1 1-.1.1-.2 0-.3-.2 0 0-.2-.1-.3-.3-.6-.5-.8.5-.9 1-.1.3-.1 1.4-.2 2 0 .3-.2.3-.3.1-.4-1.4-1.2-2-1.3-2.1-.1-.2-.2 0-.2.1-.1.1-.1.1-.2 0-.1 0-.5-.3-.7-.4-.1-.2-.1-.7-.1-.9.1-.4.3-.5.4-.4 1.6.9 2.1 2.4 2.2 2.6.1-1.1.1-2.1.7-2.9.5-.7 1.2.3 1.3.4z"/><path d="m63.4 8.5c0 .2-.1.1-.2-.1-.1-.1-.2-.2-.4-.3-.3.5-.3.5-1.3 1.4-2.1 1.8-4.4 2.5-4.6 2.5-.1 0-.1-.1.1-.2.7-.6 3.8-2 5.4-3.9 0 0-.5-.2-.9-.4-.3-.3-.1-1.1.1-1.5.6-.9 1.1-.5 1.2-.3.6.9.3 1.8.3 1.8.3.1.5.5.3 1zm-1-2.3c-.1 0-.2 0-.6.4 0 .1.1.2.3.3s.6.3.6.3c0-.1.1-.6-.3-1z" fill-rule="evenodd"/><path d="m41.5 8.2c-.1.2-.2.1-.3-.1 0 0-.4-.4-.4-.4s-.5 1-1.3 1.6c-1.4 1.1-2.7 1.3-2.7 1.3-.2.1-.2 0 0-.2.9-.5 2-.9 3.6-2.8 0 0-.5-.2-.8-.5-.4-.2-.2-1.1 0-1.4.6-1 1.2-.5 1.3-.3.5.8.2 1.7.2 1.7.3.2.6.6.4 1.1zm-1-2.3c-.2-.1-.3-.1-.6.4-.1.1 0 .2.2.3s.6.3.6.3c.1-.1.1-.7-.2-1z" fill-rule="evenodd"/><path d="m26.4 5.3s-.1.3-.2.5c-.3 1-.1 1.4-.1 1.5.3.5.7.3.8-.1.1-.2.1-.1.1 0q0 .1-.1.3c-.1.6-.4.8-.6.8-.4-.1-.5-.5-.5-.8-.1-1.1.3-2 .5-2.3.1-.2.2-.1.1.1z"/><path d="m36 5.2c0 .2-.1.2-.1.5-.1.2-.3.3-.5.4-.2.2-9.6 4.7-10.4 5.2-.9.6-.8.9-.5 1 .5.1.9.6.5 1.2 0 .1 0 .1-.1 0s-.2-.2-.5-.3c-.5 0-.6-.7-.5-1.4.1-.4.4-.8.7-1.1.7-.5 10.9-5.4 11.1-5.6.4-.2.4 0 .3.1z"/></g></svg>