<svg height="30" viewBox="0 0 70 30" width="70" xmlns="http://www.w3.org/2000/svg"><g fill="#191c4f"><path d="m21.7 22.5c-.1.2-.1.2-.2.4s-.2.2-.4.3-4.4 1.7-4.5 1.8c-.4.2-.4 0-.3-.1q0 0 .1-.3c0-.2.1-.2.4-.4.2-.1 4.4-1.6 4.6-1.8.4-.1.3 0 .3.1z"/><path d="m63.4 20.8s.1.3.1.6c0 .2-.2.6-.3.9-.1.4-.8.5-1.3.2-.8 1.3-1.6.6-2 .5-.7-.3-.9.2-1.1.4-1 1-2.6 1-3 1-.5 0-.1-.2 0-.3 1.4-.5 2.2-.5 3.4-1.7.5-.5.9-.2 1.1-.2 1.1.5 1.2.1 1.4-.1.1-.1.3-.7.4-.9s.2 0 .1.1c0 .1 0 .3-.1.4.5.4 1 .1 1.1 0 0 0-.1-.3-.1-.5q0-.1.2-.6c.1-.2.1 0 .1.2z"/><path d="m7.1 19.2c0 .1 0 .1-.1.2-.1.2-.2.2-.3.3-.2.1-2.4 1-2.5 1.1-.2.1-.2 0-.2-.1q0 0 .1-.2c0-.2.1-.2.3-.3s2.3-1 2.5-1.1c.3-.2.3 0 .2.1z"/><path d="m42.7 19.3c-.3 1.1-1.9 1.7-2.2 1.8-1.4.4-1.5-1-1.4-2 0-1 .8-2.3.8-2.3-.1 0-1.6-1.2-1.7-1.3s-.2-.3-.4-.4c-.1-.1-.1-.1-.1-.1s0-1.1 0-1.2c.1-.1.1-.1.2 0 .1 0 1.7.6 1.9.7s.1.2 0 .3c-.1 0-.6.1-.6.1l1.3 1s1.8-2.4 2-2.6c.2-.3.2-.1.1.1 0 .2-.3 1.2-.4 1.4s-1.1 1.5-1.1 1.5 1.3.7 1.6 1.1c.5.7.2 1.5 0 1.9zm-2.3-2.1s-.8 1.3-.9 1.6c-.3.8.5 1 .8 1 .3-.1 1.4-.6 1.9-1.1.5-.4-1.4-1.4-1.8-1.5z" fill-rule="evenodd"/><path d="m18.5 12.7c.1.2-.1.5-.2.6 0 .2-.2.2-.3 0-.3-.4-.8 0-.9.1-.2.1-.1.2.4.6s1.5.1 1.7 0c.3-.1.5-.1.4.1v.4c-1 .3-2.3 1.1-2.7 1.3q0 0-.1 0c-.2.1-.2 0-.1-.1q-.1-.1 0-.4c.1-.2.3-.3.5-.4 0 0-.4-.3-.7-.6-.2-.4.4-1.5 1-1.8.6-.4.9.1 1 .2z"/><path d="m65.1 18c-.1.2-.3 1.2-1.8 1-.4-.1-1.1-.3-1.5-1.1-.3.5-1.2 1.9-2.9 1.6-.3 0-1.5-.5-1.6-2 0 0-1.4 1.2-2 1.5.1.5 0 1.1-.2 1.8-.3.7-3.3 4.1-5.7 4.6-.8.2-4 .8-4.1-2.7 0-.7 0-1.3.1-1.7-1.9 1.5-4.3 2.7-4.9 3-1 .5-4.6 1.1-5.2 1.2-.5.1-.5-.1-.3-.2.3-.2 8.2-2.8 12.3-7.1q.2-.2 0-.6c-.1-.2-1.4-2.6-1.5-3-.2-.3-.3-.7-.4-.8q-.1-.2 0-.4c0-.1.1-.8.1-.9.1-.2.1-.1.2 0s1.4 1.4 1.6 1.5c.1.2 0 .3-.1.3h-.6s.8 1.4 1.1 1.9c.5 1.2.2 2.2 0 2.6-.4.7-1.1 1.5-1.9 2.2-.1.6-.4 3.4 2.3 3.5.4 0 1.8.2 4.5-2 .6-.5 1.3-1.1 1.9-2 .3-.3.4-.9 0-.9-.5.1-3.3 1.1-3.7-.6-.1-.4.2-4.4 2.9-2.4.2.1.8.6 1.2 1.4.5-.2 1.3-.7 2.4-1.6.3-.2.6-.3.6 0 0 .4-.3 2.7 2.3 2 .2 0 1.3-.3 2.1-2.2.2-.5.5-.4.3 0-.2.5-.4.9-.2 1.1.3.2 1 .8 1.9.6.3 0 .4-.1.3-.4-.1-.2-.4-.7-.4-.7.1-.4.2-.9.2-1 .1-.2.1-.3.2-.2.1.2 1 1.2.5 2.7zm-11.4.1c-.9-1.2-1.9-.5-2.1-.4-.1.1-.2.5.7.5 1.1.1 1.4-.1 1.4-.1z" fill-rule="evenodd"/><path d="m41.2 10.7 1.1.8q.1.1 0 .1l-.6.9q-.1.1-.1.1l-1.1-.8-.6.7q0 .1 0 .1l-1.2-.9q0 0 0-.1l.7-.9q0 0 .1 0l1.1.8.5-.8q.1 0 .1 0z"/><path d="m11.8 14.4s-.1.3-.1.5c-.3.9-.1 1.4-.1 1.5.3.4.6.2.8-.2 0-.2.1-.1.1 0q-.1.1-.1.3c-.1.6-.4.7-.6.7-.3 0-.5-.4-.5-.7-.1-1 .3-1.9.4-2.1.1-.3.2-.2.1 0z"/><path d="m62.2 10.8s0 .3-.1.5c-.4.9-.2 1.4-.1 1.5.2.5.6.2.8-.1 0-.2.1-.1.1 0q-.1 0-.1.3c-.2.6-.4.7-.6.7-.4 0-.6-.5-.6-.7 0-1.1.4-2 .5-2.3s.2-.1.1.1z"/><path d="m19.9 20.5c-.1.4-.3 1.6-1.9 1.5-.4 0-1.7-.2-2.4-2-.1-.4-.6-1.7-.6-1.7-.1.4-.2 1.1-.5 1.4-.3.4-2.9 2.5-4.1 3.1-1.3.5-3.8.5-3.2-2.7.1-.3.4-1.6.5-2q-.3.1-.5.1c-1.3.5-1.4-.9-1.3-1.8.1-1 .8-2.2.8-2.2-.1-.1-1.5-1.2-1.6-1.3s-.2-.3-.3-.4c-.2 0-.1-.1-.1-.1s0-1 0-1.1.1-.1.2 0c.1 0 1.6.6 1.8.7.1.1.1.2 0 .2s-.6.2-.6.2l1.2.9s1.8-2.3 1.9-2.5c.2-.2.2-.1.2.2-.1.2-.4 1.1-.5 1.3-.1.1-1 1.4-1 1.4s1.2.7 1.4 1.1c.5.7.2 1.4.1 1.7-.2.6-.8 1.1-1.3 1.4q0 0 0 .1c-.1.6-1.2 3.3.4 3.7 1.7.5 4.5-2 5.1-2.6.7-.6 1.7-1.1.9-3.3-.2-.7-1.2-3.7-1.2-3.7s-.1-.7-.1-1c0-.4.1-1 .3-.6.3.4 1.5 2.1 2 5.9.1.9.6 3.3 1.7 4 .5.3 1.2.4 1.9-.1.2-.1.3-.2.1-.5-.2-.6-.9-1.2-.9-1.2s.1-1.2.1-1.3c.1-.2.1-.2.2 0 .2.1 1.4 1.3 1.3 3.2zm-11-4.5c.5-.4-1.4-1.3-1.7-1.5 0 0-.7 1.3-.9 1.6-.3.8.5.9.8.9s1.3-.6 1.8-1z" fill-rule="evenodd"/><path d="m51.1 10.2s-.1.3-.2.5c-.4 1.1-.2 1.6-.1 1.7.3.5.7.2.8-.2.1-.2.2-.1.1 0q0 .1 0 .3c-.2.7-.5.9-.7.9-.4-.1-.6-.6-.6-.8-.1-1.2.4-2.2.5-2.5s.2-.1.2.1z"/><path d="m7.3 7 1.1.8q.1.1 0 .1l-.6.9q0 .1-.1 0l-1.1-.8-.6.8q0 .1 0 0l-1.2-.8q0 0 0-.1l.7-.9q0 0 .1 0l1.1.8.5-.8q.1 0 .1 0z"/><path d="m17.3 6c-.1.1-.1.1-.1.3-.1.2-.2.3-.4.4s-5.8 3.2-5.9 3.3c-.4.3-.3.1-.3 0q0-.1.1-.3c0-.2.1-.3.3-.4.2-.2 5.8-3.3 6-3.4.4-.2.3-.1.3.1z"/><path d="m27.5 16.3s-.1.3-.1.5c-.4.9-.2 1.3-.1 1.4.2.5.6.3.7-.1.1-.2.1-.1.1 0q0 .1 0 .3c-.2.6-.4.7-.6.7-.4 0-.5-.5-.6-.7 0-1 .4-1.9.5-2.2.1-.2.2-.1.1.1z"/><path d="m29.2 13.2c0 .1-.1.2-.1.4-.1.2-.3.2-.5.4-.2.1-5.3 2.4-5.4 2.5-.4.2-.3.1-.3 0q0-.1.1-.4c0-.2.1-.2.4-.4.2-.1 5.3-2.4 5.5-2.6.4-.2.4 0 .3.1z"/><path d="m27 9.1c.1.2 0 .6-.1.9 0 .1-.2 0-.3-.2 0 0-.1-.1-.2-.2-.5-.4-.7.4-.8.8 0 .3-.1 1.3-.2 1.8 0 .2-.1.2-.2.1-.4-1.2-1-1.8-1.2-1.9-.1-.1-.2.1-.2.1 0 .1-.1.1-.1.1-.1-.1-.5-.3-.6-.4-.2-.2-.1-.6-.1-.8 0-.3.2-.4.3-.4 1.4.8 1.9 2.2 1.9 2.4.1-1 .1-2 .7-2.6.4-.6 1.1.2 1.1.3z"/><path d="m50.1 5.6c-.1.2-.1.2-.2.4 0 .2-.2.2-.4.3-.2.2-6 3.6-6.1 3.6-.4.2-.3.1-.3 0q0-.1.1-.3c0-.2.1-.3.3-.4.3-.2 6.1-3.5 6.3-3.7.4-.2.3 0 .3.1z"/><path d="m57.2 6c.1.2 0 .7-.1 1-.1.1-.2 0-.4-.2 0 0-.1-.1-.2-.3-.6-.5-.8.5-.9 1-.1.3-.1 1.4-.2 2 0 .3-.2.3-.3.1-.4-1.4-1.2-2-1.3-2.1-.1-.2-.2 0-.3.1 0 .1-.1.1-.1.1-.1-.1-.5-.4-.7-.5-.1-.2-.1-.7-.1-.9 0-.4.3-.5.4-.4 1.6.9 2.1 2.4 2.2 2.7 0-1.2.1-2.2.7-3 .5-.7 1.2.3 1.3.4z"/><path d="m63 8.5c-.1.1-.2 0-.3-.1s-.2-.3-.4-.4c-.3.5-.2.5-1.2 1.4-2.2 1.8-4.5 2.5-4.7 2.5-.1.1-.1 0 .1-.2.7-.6 3.8-1.9 5.4-3.9 0 0-.5-.2-.8-.4-.4-.3-.2-1.1 0-1.5.6-.9 1.2-.5 1.3-.3.5.9.2 1.8.2 1.8.3.1.6.5.4 1.1zm-1.1-2.4c-.1 0-.2 0-.5.4-.1.1 0 .3.2.3.2.1.6.3.6.3.1-.1.1-.6-.3-1z" fill-rule="evenodd"/><path d="m34.1 22c-.5.4-1.2.1-1.5 0-.6-.3-.9-.8-1.4-1.5-.5.2-7.7 4.6-9.7-.3-.9-2-1-6.1-1-6.7-.1-2.6-.9-5.9-1.1-6.7 0 0 .3-1 .4-1.1 0-.1 0-.2.1 0s.3.9.5 1.7c1.1 4.6.9 7.8 1 8.9.4 3.3 1.5 3.9 2.1 4.3 2.5 1.5 6.7-.9 7.3-1.3 0 0-.3-1.4-.4-1.9-.6-3.8-1.5-10.7-1.6-11.1 0 0 .3-.9.4-1 .1-.2.1-.1.1 0 .1.1 1.4 3.4 1.5 3.6s-.1.3-.2.2c-.1-.2-.7-.8-.7-.8s.3 2.8.7 5.5c.4 2.6 1 5 1 5 .6-.2 2-.7 2.7.5.4.7.3 2.2-.2 2.7zm-.3-1.5c-.4-.6-1.3-.6-1.5-.5 0 0 .3.7 1.3.8.3 0 .3-.2.2-.3z" fill-rule="evenodd"/><path d="m24.2 5.3s-.1.3-.1.5c-.3.9-.2 1.4-.1 1.5.2.4.6.2.7-.2.1-.1.1-.1.1 0q0 .1 0 .3c-.2.6-.4.7-.6.7-.4 0-.5-.4-.6-.7 0-1 .4-1.9.5-2.1.1-.3.2-.2.1 0z"/><path d="m34 5.2c0 .2 1.4 3.5 1.5 3.6 0 .2-.1.3-.2.2s-.8-.8-.8-.8 1.2 8.1 1.2 8.5c.8 4.8.1 6.1 0 6.3-.1.1-.1.1-.1-.1-.1-2-1.2-9-1.2-9.5-.1-.4-.8-6.6-.9-7.2 0 0 .3-.9.4-1 0-.1.1-.1.1 0z"/><path d="m40.9 8.1c-.1.2-.1.1-.2-.1-.1 0-.5-.4-.5-.4s-.5 1.1-1.2 1.7c-1.5 1.1-2.7 1.2-2.8 1.3-.1 0-.2-.1.1-.3.9-.5 2-.9 3.5-2.8 0 0-.5-.2-.8-.4-.3-.3-.2-1.2.1-1.5.6-1 1.1-.5 1.2-.3.5.9.2 1.7.2 1.7.3.2.6.6.4 1.1zm-1-2.3c-.1 0-.3-.1-.6.4-.1.1 0 .2.2.3s.7.3.7.3c0-.1 0-.6-.3-1z" fill-rule="evenodd"/></g></svg>