<svg height="30" viewBox="0 0 70 30" width="70" xmlns="http://www.w3.org/2000/svg"><g fill="#191c4f"><path d="m63.6 21.7v.7c0 .3-.1.7-.3 1.1-.1.4-1 .6-1.6.2-.9 1.5-1.8.7-2.3.5-.9-.3-1.1.3-1.3.5-1.1 1.3-3.1 1.2-3.6 1.3-.5 0-.1-.3.1-.4 1.6-.5 2.6-.6 4-2 .6-.6 1-.3 1.2-.2 1.3.6 1.5 0 1.7-.2.2-.1.4-.8.5-1s.2-.1.2.1c-.1.2-.1.4-.2.5.6.4 1.1.1 1.3 0 0 0-.1-.5-.1-.6q0-.2.2-.7c.1-.3.2 0 .2.2z"/><path d="m31.1 21.5s-.1.4-.2.6c-.4 1.3-.2 1.9-.1 2 .3.6.8.3 1-.2.1-.2.1-.1.1 0q0 .1-.1.4c-.2.8-.5 1-.8 1-.4 0-.7-.7-.7-1-.1-1.4.5-2.6.7-2.9.1-.3.2-.2.1.1z"/><path d="m13 15.9s-.1.4-.2.7c-.5 1.3-.2 1.9-.1 2.1.5.6 1 .2 1.2-.3 0-.2.1-.1.1 0q0 .1-.1.4c-.2.8-.5 1-.8 1-.6.1-.8-.6-.9-.9-.2-1.4.4-2.7.6-3 .1-.4.3-.3.2 0z"/><path d="m23 14.4s-.1.4-.2.7c-.5 1.2-.2 1.8-.2 1.9.4.7.9.3 1.1-.1 0-.3.1-.2.1 0q0 .1-.1.3c-.2.8-.5 1-.8 1-.5 0-.7-.6-.7-1-.1-1.3.5-2.5.6-2.9.2-.3.3-.1.2.1z"/><path d="m18 14.5s-.1.6-.2 1.1c-.6 2.2-.2 3.1-.1 3.3.6 1.1 1.3.5 1.6-.3.1-.5.2-.2.2-.1q0 .2-.1.7c-.3 1.3-.8 1.7-1.1 1.7-.8 0-1.2-1-1.2-1.6-.3-2.3.5-4.3.7-4.9.1-.6.3-.4.2.1z"/><path d="m30.8 20.2s-.6 1.2-2.6 2.6c-6.2 4.2-12.3 3.8-13.6 3.8-2-.2-3.6-.6-3.9-.7-2.4-.9-5.1-3.1-5.5-3.5s-.2-.4.2-.2c3.5 2.1 7.8 2.7 8.3 2.8.4.1 1.4.1 2.3.1 8.3-.2 13.3-4.5 14-5.3.7-.7.6-1 .4-1.2-.3-.5-1.4-.4-1.8-.4-1.1.1-1.8-.3-2.1-.9-.3-.8.3-2.2.9-2.7 1.3-1.2 2.3-.1 2.4.1 2 2.1 1.2 5 1 5.5zm-1.1-3.5c-.7-1.3-1.6-1-1.9-.9-.3.2-.6.5-.1.8.5.2 2 .1 2 .1z" fill-rule="evenodd"/><path d="m39.1 19.9c-.4 1.3-2.3 2-2.7 2.1-1.7.5-1.8-1.1-1.7-2.3s1-2.8 1-2.8c-.1 0-1.8-1.4-2-1.5-.1-.2-.3-.4-.4-.5-.2 0-.2-.1-.2-.1s.1-1.3.1-1.4c0-.2 0-.1.2-.1.1.1 2 .9 2.2 1s.1.2 0 .2c-.1.1-.7.2-.7.2l1.5 1.1s2.2-2.8 2.4-3c.2-.3.2-.2.2.1-.1.3-.5 1.5-.6 1.7s-1.2 1.7-1.2 1.7 1.4.9 1.8 1.4c.6.8.2 1.7.1 2.2zm-2.7-2.5s-1 1.6-1.1 1.9c-.4 1 .5 1.2.9 1.2.3-.1 1.6-.7 2.2-1.2s-1.7-1.7-2-1.9z" fill-rule="evenodd"/><path d="m10.7 13c.1.3 0 .8-.1 1.1-.1.2-.2 0-.4-.2 0 0-.1-.1-.3-.3-.6-.5-.8.6-.9 1.1-.1.3-.1 1.5-.2 2.2q0 .1-.1.1c0 .6-.2 1.3-1.2 2-1.2.8-1.3.8-1.4.8-.1.1-.2 0 0-.2.2-.1 2.5-2 2.3-2.9-.3-1.1-1.2-1.9-1.3-2-.2-.2-.3 0-.3.1-.1.1-.1.1-.2.1-.1-.1-.6-.4-.7-.6-.2-.1-.1-.7-.1-.9 0-.4.3-.6.4-.5 1.7 1 2.2 2.7 2.3 2.9.1-1.2.1-2.3.8-3.2.6-.7 1.3.3 1.4.4z"/><path d="m65.6 18.3c-.1.3-.5 1.5-2.2 1.2-.5-.1-1.4-.3-1.7-1.2-.4.5-1.5 2.2-3.5 1.9-.4-.1-1.8-.6-1.9-2.4 0 0-1.6 1.3-2.4 1.8.1.6.1 1.3-.2 2.1s-3.9 4.8-6.8 5.4c-.9.3-4.6.9-4.8-3.2 0-.8.1-1.5.1-2-2.2 1.8-5 3.2-5.8 3.5-1.2.6-5.4 1.3-6.2 1.5-.5 0-.5-.1-.2-.3.3-.1 9.6-3.3 14.5-8.4.1-.2.1-.4-.1-.6-.1-.3-1.6-3.2-1.7-3.6-.2-.4-.4-.8-.5-1q-.1-.2 0-.4c0-.2.1-1 .2-1.2 0-.1.1 0 .2.1l1.8 1.8c.2.2.1.3 0 .3s-.8 0-.8 0 1 1.7 1.3 2.3c.6 1.4.3 2.6.1 3-.5.9-1.3 1.8-2.3 2.6-.1.7-.4 4.1 2.7 4.2.5 0 2.1.2 5.3-2.4.8-.6 1.6-1.3 2.3-2.3.3-.4.5-1.1 0-1-.6 0-3.9 1.3-4.4-.8-.1-.5.2-5.2 3.4-2.9.3.2 1 .8 1.5 1.7.5-.2 1.5-.8 2.8-1.8.4-.3.7-.5.7 0 0 .4-.3 3.1 2.7 2.3.3-.1 1.6-.3 2.5-2.7.2-.5.6-.4.4 0-.2.6-.5 1.1-.3 1.4.3.3 1.2.9 2.2.7.4 0 .6-.2.5-.5-.2-.3-.5-.9-.5-.9.1-.3.2-1 .3-1.1 0-.2.1-.3.2-.2.1.2 1.1 1.4.6 3.1zm-13.5.2c-1.1-1.5-2.3-.7-2.5-.5-.1.2-.2.6.8.6 1.2.1 1.7-.1 1.7-.1z" fill-rule="evenodd"/><path d="m28.6 10.8 1.3.9q0 .1 0 .1l-.8 1.1q0 .1-.1 0l-1.3-.9-.6.9q-.1.1-.1 0l-1.4-1q0 0 0-.1l.8-1q0-.1.1 0l1.3.9.7-.9q0-.1.1 0z"/><path d="m37.3 9.8 1.3.9q.1.1 0 .1l-.8 1.1q0 .1-.1 0l-1.3-.9-.6.9q-.1.1-.1 0l-1.4-.9q0-.1 0-.1l.8-1.1q.1-.1.1 0l1.3.9.7-.9q0-.1.1 0z"/><path d="m62.2 9.8s-.2.4-.2.6c-.4 1.2-.2 1.7-.2 1.8.4.6.8.3 1-.1 0-.3.1-.1.1 0q0 .1-.1.3c-.2.7-.5.9-.7.9-.5 0-.7-.6-.7-.9-.1-1.3.5-2.3.6-2.6.1-.4.2-.2.2 0z"/><path d="m48.9 9.2s-.1.3-.2.6c-.4 1.2-.2 1.8-.1 1.9.3.7.8.3 1-.1.1-.3.2-.2.1-.1q0 .2-.1.4c-.2.8-.5 1-.7 1-.5 0-.7-.7-.8-1 0-1.3.5-2.5.7-2.8.1-.4.2-.2.1.1z"/><path d="m7.3 6.4s-.1.4-.2.6c-.4 1.4-.1 2-.1 2.1.5.6 1 .3 1.2-.3.1-.2.2-.1.1 0q0 .1 0 .4c-.2.9-.6 1.1-.9 1.1-.5 0-.8-.6-.9-1-.1-1.4.5-2.6.6-3s.3-.2.2.1z"/><path d="m19.1 6.7c.1.2 0 .8-.2 1.1-.1.2-.2 0-.4-.2 0 0-.1-.2-.3-.3-.6-.6-.9.5-1 1-.1.4-.1 1.6-.3 2.3 0 .3-.2.3-.3.1-.4-1.6-1.3-2.3-1.4-2.5q0 0-.1 0c.1.1.1.3.1.5-.4 2-2.3 2.7-2.7 2.9-.3.1-.3.1 0-.3.4-.3 1.9-1.8 2.2-2.1.6-.7-.6-1.2-.7-1.3-.2-.2-.1-.8-.1-1 .1-.4.3-.5.4-.5 1.8 1.1 2.3 2.8 2.4 3.1.1-1.3.2-2.5.9-3.3.6-.7 1.4.3 1.5.5z"/><path d="m30.6 5.3c-.1.9-.4 1.8-.4 2-.1.3-.2.4-.2.2 0-.3.1-.9.2-1.3 0-.3.1-.7-.2-.5-.2.2-3.2 2.5-7.2 2.3 0 .5-.1.9-.1 1-.1.1-.2.1-.2-.1s-.1-.8-.5-1.1c-.1-.2-.1-.8-.2-1 0-.3.2-.2.4-.1.1.1 3.3 1.1 7.5-1.7.3-.2 1-.6.9.3z"/><path d="m47.8 3.7c-.1.2-.1.2-.2.5-.1.2-.2.2-.5.4-.2.1-7.1 4.1-7.3 4.2-.4.3-.3.1-.3 0q0-.1.1-.4c0-.2.1-.3.4-.4.3-.2 7.2-4.2 7.5-4.4.4-.2.3 0 .3.1z"/><path d="m56.2 4.2c.1.3 0 .8-.1 1.1-.1.2-.3 0-.4-.2 0 0-.2-.1-.4-.3-.7-.6-.9.6-1 1.1-.1.4-.1 1.7-.2 2.5-.1.3-.3.2-.4 0-.5-1.6-1.4-2.3-1.5-2.5-.2-.2-.3.1-.3.2-.1.1-.2.1-.2 0-.1 0-.7-.4-.8-.5-.2-.2-.1-.8-.1-1.1 0-.4.3-.5.4-.5 1.9 1.1 2.5 2.9 2.6 3.2.1-1.4.1-2.6.9-3.5.5-.8 1.4.3 1.5.5z"/><g fill-rule="evenodd"><path d="m63 7.1c-.1.2-.1 0-.3-.1-.1-.2-.3-.4-.5-.5-.3.6-.3.7-1.4 1.7-2.6 2.2-5.4 2.9-5.5 3-.2 0-.2-.1 0-.3.9-.7 4.6-2.3 6.4-4.6 0 0-.6-.2-1-.5s-.1-1.3.1-1.7c.8-1.2 1.4-.6 1.5-.4.6 1 .3 2.1.3 2.1.3.2.6.6.4 1.3zm-1.2-2.8c-.1 0-.3-.1-.7.5-.1.1 0 .3.3.4.2.1.7.3.7.3.1-.1.1-.8-.3-1.2z"/><path d="m36.9 6.7c-.1.2-.1.1-.3-.1 0-.1-.5-.5-.5-.5s-.6 1.2-1.5 1.9c-1.7 1.3-3.2 1.5-3.3 1.6-.1 0-.2-.1.1-.3 1.1-.6 2.4-1.1 4.2-3.4 0 0-.6-.2-1-.5s-.1-1.3.1-1.7c.8-1.1 1.4-.6 1.5-.4.6 1.1.3 2.1.3 2.1.3.2.6.6.4 1.3zm-1.2-2.7c-.1-.1-.3-.1-.7.4-.1.1 0 .3.3.4.2.1.8.3.8.3 0-.1 0-.7-.4-1.1z"/></g></g></svg>