<svg height="30" viewBox="0 0 70 30" width="70" xmlns="http://www.w3.org/2000/svg"><g fill="#191c4f"><path d="m15.9 22.1c0 .1 0 .2-.1.4-.1.1-.2.2-.4.3s-4 1.5-4.1 1.6c-.4.2-.3 0-.3-.1q0 0 .1-.3c0-.2.1-.2.4-.3.2-.2 3.9-1.6 4.2-1.7.3-.2.3 0 .2.1z"/><path d="m34.5 20.4c.4.1.4.5.4.8-.1.9-.7 1.7-.8 1.9-.2.2-.2.1-.1-.1 0 0 .1-.2.2-.4.5-.8.4-1.3.4-1.4-.2-.5-.6-.3-.8 0-.1.2-.1.1-.1 0q.1-.1.1-.2c.3-.6.6-.6.7-.6z"/><path d="m26.8 20.8c.1.3 0 .7-.1.9s-.2 0-.3-.1c0 0-.1-.1-.2-.3-.5-.4-.7.5-.7.9-.1.3-.1 1.3-.2 1.9 0 .2-.1.2-.2 0-.3-1.2-1-1.8-1.1-1.9s-.2.1-.2.1c0 .1-.1.1-.1.1-.1-.1-.4-.3-.6-.5-.1-.1 0-.6 0-.7 0-.4.2-.5.3-.4 1.3.8 1.7 2.2 1.7 2.4.1-1.1.1-2 .6-2.7.4-.6 1 .2 1.1.3z"/><path d="m63.8 20.3v.5c0 .2-.1.6-.3.9-.1.3-.8.5-1.2.2-.8 1.2-1.5.6-1.9.4-.7-.3-1 .2-1.1.4-.9 1-2.6 1-3 1-.3.1 0-.2.1-.3 1.3-.4 2.1-.5 3.3-1.6.5-.5.8-.2 1-.2 1.1.5 1.2 0 1.4-.1.1-.1.3-.7.4-.9.1-.1.2 0 .1.2 0 .1-.1.3-.1.4.5.3.9 0 1-.1 0 0 0-.3 0-.4q-.1-.2.1-.6c.1-.3.2 0 .2.2z"/><path d="m43.8 18.8c-.3 1-1.9 1.6-2.2 1.7-1.4.4-1.5-.9-1.4-1.9s.8-2.2.8-2.2c0-.1-1.5-1.2-1.6-1.3s-.2-.3-.3-.4c-.2 0-.2-.1-.2-.1s.1-1 .1-1.1c0-.2 0-.1.1-.1.2.1 1.7.7 1.9.8.1.1.1.2 0 .2s-.6.2-.6.2l1.2.9s1.8-2.3 2-2.5c.1-.3.1-.1.1.1-.1.2-.4 1.2-.5 1.4-.1.1-1 1.4-1 1.4s1.2.7 1.5 1.1c.5.7.2 1.4.1 1.8zm-2.2-2.1s-.8 1.4-.9 1.6c-.4.8.4 1 .7.9.3 0 1.4-.5 1.9-.9s-1.4-1.4-1.7-1.6z" fill-rule="evenodd"/><path d="m65.4 17.5c-.1.2-.4 1.2-1.8 1-.4-.1-1.1-.3-1.4-1.1-.3.5-1.2 1.9-2.8 1.6-.4 0-1.5-.5-1.5-1.9 0 0-1.4 1.1-2 1.4.1.5 0 1.1-.2 1.8-.3.6-3.2 3.9-5.5 4.4-.8.2-3.8.7-3.9-2.6-.1-.7 0-1.3 0-1.6-1.8 1.4-4.1 2.5-4.7 2.8-1 .5-4.4 1.1-5 1.2-.4 0-.5-.1-.3-.2.3-.2 7.9-2.7 11.9-6.9q.1-.2 0-.5c-.2-.2-1.4-2.6-1.5-2.9s-.3-.7-.4-.8q0-.2 0-.4c0-.1.1-.8.2-.9 0-.2.1-.1.2 0 0 .1 1.3 1.4 1.4 1.5.2.2.1.3 0 .3 0 0-.6-.1-.6-.1s.8 1.5 1 2c.5 1.1.2 2 .1 2.4-.4.7-1.1 1.4-1.8 2.1-.2.6-.4 3.4 2.2 3.4.4 0 1.7.2 4.3-1.9.6-.5 1.3-1.1 1.8-1.9.3-.4.4-.9 0-.9-.4.1-3.1 1.1-3.5-.6-.1-.4.1-4.3 2.8-2.3.2.1.7.6 1.1 1.4.5-.2 1.3-.7 2.3-1.5.3-.3.6-.4.6-.1 0 .4-.2 2.6 2.2 2 .3-.1 1.3-.3 2-2.2.2-.5.5-.4.4 0-.2.4-.5.9-.2 1.1.2.2.9.7 1.7.6.3 0 .5-.2.4-.4-.1-.3-.4-.8-.4-.8.1-.3.2-.8.2-.9.1-.1.1-.2.2-.1s.9 1.1.5 2.5zm-11 .1c-.9-1.1-1.9-.5-2-.4-.1.2-.2.5.6.6 1 0 1.4-.2 1.4-.2z" fill-rule="evenodd"/><path d="m24.8 12.8c.1.3 0 .7 0 1-.1.2-.2 0-.4-.1 0 0-.1-.2-.2-.3-.6-.4-.7.5-.7 1 0 .3 0 1.3-.1 2 0 .2-.1.2-.2 0-.4-1.3-1.1-1.8-1.3-2-.1-.1-.2.1-.2.2s-.1.1-.1 0c-.1 0-.5-.2-.6-.4-.2-.1-.1-.6-.1-.8 0-.4.1-.5.3-.4 1.4.7 1.9 2.2 2 2.4 0-1.1-.1-2.1.4-2.9.4-.6 1.1.2 1.2.3z"/><path d="m14 11.8s-.1.5-.2.8c-.5 1.7-.2 2.5-.2 2.7.4.8 1 .4 1.2-.3.1-.3.2-.1.2 0q-.1.2-.1.5c-.3 1.1-.7 1.3-1 1.3-.5 0-.8-.9-.8-1.3-.1-1.8.6-3.4.8-3.8.1-.4.3-.2.1.1z"/><path d="m40.6 10.5 1.1.8.5-.8q.1 0 .1 0l1.1.8q0 0 0 .1l-.6.9q-.1 0-.1 0l-1.1-.8-.5.8q-.1 0-.1 0l-1.1-.8q0 0 0-.1l.6-.9q.1 0 .1 0z"/><path d="m29.6 10.5 1.1.8q.1 0 0 .1l-.6.9q0 0-.1 0l-1-.8-.6.8q0 0-.1 0l-1.1-.8q0-.1 0-.1l.7-.9q0 0 .1 0l1 .8.6-.8q0 0 0 0z"/><path d="m62.6 10.6s-.1.3-.2.4c-.3 1-.1 1.4-.1 1.5.3.5.7.2.8-.1.1-.2.1-.1.1 0q0 .1-.1.3c-.1.6-.4.7-.6.7-.3 0-.5-.5-.5-.7-.1-1.1.4-1.9.5-2.2.1-.2.2-.1.1.1z"/><path d="m51.8 10s-.1.3-.1.5c-.4 1-.2 1.5-.2 1.6.3.5.7.3.9-.1 0-.2.1-.1.1 0q-.1.1-.1.3c-.2.6-.4.8-.6.8-.4-.1-.6-.6-.6-.8-.1-1.1.4-2.1.5-2.4.1-.2.2-.1.1.1z"/><path d="m10.9 6.5c.1.3 0 .7-.1.9 0 .2-.2 0-.3-.1 0 0-.1-.1-.3-.2-.5-.5-.7.4-.8.8 0 .3-.1 1.3-.1 1.9-.1.2-.2.2-.3.1-.4-1.3-1.1-1.9-1.2-2s-.2.1-.2.1c-.1.1-.1.1-.2.1-.1-.1-.5-.3-.6-.5-.1-.1-.1-.6-.1-.8 0-.3.3-.4.4-.3 1.4.8 1.9 2.2 1.9 2.4.1-1.1.2-2 .7-2.7.5-.6 1.2.2 1.2.3z"/><path d="m30.7 5.8c-.1.2-.1.2-.2.4s-.3.3-.5.4-10.7 4.5-10.8 4.5c-.5.2-.4.1-.3 0q0-.1.1-.4c.1-.2.1-.3.4-.4s10.7-4.5 11-4.6c.4-.2.4 0 .3.1z"/><path d="m22.4 5.6c0 .2-.1.2-.2.4s-.2.3-.5.4c-.2.1-10.6 4.5-10.8 4.5-.4.2-.4.1-.3 0q0-.1.1-.4c.1-.2.2-.3.5-.4s10.6-4.5 10.9-4.6c.5-.2.4 0 .3.1z"/><path d="m50.9 5.6c-.1.1-.1.2-.2.3 0 .2-.2.3-.3.4-.2.1-5.9 3.4-6 3.4-.3.3-.3.1-.3 0q.1 0 .1-.3c0-.2.1-.2.3-.4.3-.1 5.9-3.3 6.1-3.5.4-.2.3 0 .3.1z"/><path d="m57.7 5.9c.2.3.1.7-.1 1 0 .2-.2 0-.3-.2 0 0-.1-.1-.3-.2-.5-.5-.8.4-.8.9-.1.3-.1 1.4-.2 2 0 .2-.2.2-.3 0-.4-1.3-1.1-1.9-1.2-2-.2-.2-.3 0-.3.1s-.1.1-.2.1c0-.1-.5-.4-.6-.5s-.1-.6-.1-.8c0-.4.3-.5.4-.5 1.5.9 2 2.4 2.1 2.6 0-1.1.1-2.1.7-2.8.5-.7 1.2.2 1.2.3z"/><path d="m63.3 8.3c-.1.2-.1.1-.2-.1-.1-.1-.3-.2-.5-.3-.2.5-.2.5-1.1 1.3-2.1 1.8-4.4 2.4-4.5 2.5-.1 0-.2-.1 0-.2.7-.6 3.7-1.9 5.3-3.8 0 0-.5-.2-.9-.4-.3-.3-.1-1.1.1-1.4.6-.9 1.1-.5 1.2-.3.5.8.2 1.7.2 1.7.3.1.6.5.4 1zm-1-2.2c-.1-.1-.2-.1-.5.3-.1.2 0 .3.2.4s.6.3.6.3c0-.2.1-.7-.3-1z" fill-rule="evenodd"/><path d="m34.3 17.4c0 2.1-1.5 2.4-1.8 2.5-2.6.5-3.3-1.1-3.5-1.5-4.9 2.3-8.5 1.2-9.1 1.1 0 .2 0 1.2-.1 1.6 0 .3-.3.4-.5.3-1.9-.4-1.9-2.3-2-2.8-1.5-.2-3.4.8-4.8 1.7-.8.6-2.3 1.9-2.6 2.2-1.9 1.7-2.7 1.7-3.1 1.6-1.9-.3-1.9-2.3-1.7-3.4.3-1.3 1.2-2.7 1.7-3.5-.5-.1-.7-.9-.7-1.3-.1-2.1.6-3.8.8-4.3s.3-.3.2.1c0 0-.2.6-.3.9-.5 1.9-.2 2.8-.2 2.9.5 1 1.1.5 1.3-.2.1-.4.2-.2.2 0q0 .1-.1.6c-.2.6-.4 1-.6 1.2-.1.2-.8 1.3-1.2 1.9-1.4 2.4-.6 3.5-.2 3.7.6.4 1.3.2 1.8 0 .6-.3 1.2-.9 1.9-1.5 1-.9 2.5-2.2 4-3 1.6-.8 3.8-.9 3.8-.9.1-.1.1-.4.4-.6 1.5 1.8 4.4 1.8 4.8 1.9 3.4.1 5.8-1.3 5.8-1.3-.9-2.1.1-3.5.6-3.9.6-.3 1.6-.4 2 1.6.2 2-1.2 2.7-1.4 2.8 1.1 1.7 3.4.6 3.8.4.5-.3.3-.4.3-.7s-1.4-8.6-1.4-8.6c-.1-.8-.2-1.5-.2-1.9-.1-.5-.2-.7-.2-.8 0 0 .4-1 .4-1.1.1-.1.1 0 .2.1 0 .1 1.3 3.3 1.4 3.5.1.1-.1.2-.2.1s-.7-.7-.7-.7.9 5.9 1 6.3c.1.5.3 2.1.2 3zm-15.2 2.5c0-.6-.7-1.1-.7-1.1 0 1 .7 1.1.7 1.1zm11.4-4.2c-.5-1.3-1.2-1.2-1.4-1.1-.3.1-.5.5-.4.9.1 1.2.6 1.4.6 1.4.2-.1 1.3-.8 1.2-1.2z" fill-rule="evenodd"/><path d="m35.6 5.2c.1.1 1.4 3.3 1.4 3.5.1.1 0 .2-.1.1s-.8-.7-.8-.7 1.1 7.7 1.2 8.1c.7 4.6.1 5.9 0 6.1-.1.1-.2.1-.2-.1 0-1.9-1.1-8.7-1.1-9.1-.1-.4-.8-6.4-.9-7 0 0 .3-.9.4-1 0-.1.1 0 .1.1z"/><path d="m42 8c0 .2-.1.1-.2-.1-.1 0-.5-.4-.5-.4s-.4 1-1.2 1.6c-1.4 1.1-2.6 1.2-2.6 1.3-.2 0-.2-.1 0-.3.9-.5 2-.8 3.5-2.7 0 0-.5-.2-.8-.4-.4-.3-.2-1.1 0-1.4.6-1 1.1-.5 1.2-.4.5.9.3 1.8.3 1.8.2.1.5.5.3 1zm-1-2.2c-.1-.1-.2-.1-.5.3-.1.2 0 .3.2.4.2 0 .6.3.6.3 0-.2.1-.7-.3-1z" fill-rule="evenodd"/></g></svg>