<svg height="30" viewBox="0 0 70 30" width="70" xmlns="http://www.w3.org/2000/svg"><g fill="#191c4f"><path d="m26.6 21.5c-.1.1-.1.2-.2.3-.1.2-.2.2-.4.3-.1.2-4.9 2-5 2.1-.3.2-.3 0-.2-.1q0 0 .1-.3c0-.1.1-.2.3-.3s4.9-1.9 5.1-2.1c.4-.1.3 0 .3.1z"/><path d="m16.8 21.1 1 .7q.1.1 0 .1l-.6.8q0 .1 0 0l-1-.7-.5.7q-.1.1-.1 0l-1-.7q-.1 0 0-.1l.6-.8q0 0 0 0l1 .7.5-.7q.1 0 .1 0z"/><path d="m35.3 20.4c.2 0 .2.1.1.3 0 0-.1.2-.2.3-.1.2-.7.8-.8 1-.2.2-.1.7.5.8.8-.1 1.5-.7 1.6-.9.2-.2.2 0 .1.1-.5.8-1.2 1.2-1.4 1.2-.2.1-1.3.3-1.1-.8.2-.8.9-1.4.9-1.4q.1-.1-.1-.1c-.7 0-.7.2-.8.3v-.1c0-.1.2-.4.2-.4.3-.4.9-.3 1-.3z"/><path d="m12.5 20.2c0 .2-.1.2-.1.4-.1.2-.2.2-.3.3-.2.2-3.5 2-3.6 2.1-.3.2-.3.1-.3 0q0-.1.1-.3c0-.2 0-.3.2-.4.3-.1 3.5-2 3.7-2.1.4-.2.3-.1.3 0z"/><path d="m63.8 19.3v.5c0 .2-.1.5-.2.8-.1.4-.8.5-1.2.2-.8 1.1-1.5.6-1.8.4-.7-.2-.9.2-1.1.4-.8.9-2.3.9-2.7.9-.3.1 0-.2.1-.2 1.2-.5 2-.5 3-1.5.5-.5.8-.3 1-.2 1 .4 1.1 0 1.3-.1.1-.2.3-.7.4-.9 0-.1.1 0 .1.2 0 .1-.1.2-.1.3.4.3.8.1.9 0 0 0 0-.3 0-.4q0-.2.1-.6c.1-.2.2 0 .2.2z"/><path d="m9.4 12.7s-.1.2-.1.4c-.4 1-.1 1.5-.1 1.6.3.4.7.2.9-.2 0-.2.1-.1.1 0q0 0-.1.3c-.1.6-.4.7-.6.7-.4 0-.6-.4-.6-.7-.2-1 .3-1.9.4-2.2s.2-.2.1.1z"/><path d="m45.1 17.9c-.3 1-1.8 1.5-2.1 1.6-1.3.4-1.4-.8-1.3-1.8.1-.9.8-2.1.8-2.1-.1 0-1.4-1-1.5-1.1s-.2-.3-.4-.4c-.1 0-.1-.1-.1-.1s0-1 .1-1.1c0-.1 0 0 .1 0 .1.1 1.6.6 1.7.7.2.1.1.2 0 .2s-.5.2-.5.2l1.2.8s1.6-2.1 1.8-2.3c.1-.2.1-.1.1.1-.1.2-.4 1.1-.5 1.3 0 .1-.9 1.3-.9 1.3s1.1.6 1.4 1c.5.7.2 1.3.1 1.7zm-2.1-1.9s-.7 1.2-.8 1.5c-.4.7.4.9.6.8.3 0 1.3-.5 1.8-.9.4-.4-1.3-1.3-1.6-1.4z" fill-rule="evenodd"/><path d="m65.3 16.7c-.1.2-.4 1.2-1.7.9-.3-.1-1-.2-1.3-.9-.3.4-1.1 1.7-2.6 1.4-.3 0-1.4-.4-1.5-1.8 0 0-1.2 1-1.8 1.3.1.5 0 1.1-.2 1.7s-2.9 3.7-5.1 4.1c-.8.2-3.6.7-3.7-2.4q0-1 .1-1.5c-1.8 1.3-3.9 2.4-4.5 2.6-.9.5-4.1 1-4.7 1.1-.4.1-.4 0-.2-.1.2-.2 7.4-2.6 11.1-6.5.1-.1.1-.3 0-.5s-1.3-2.4-1.4-2.7-.3-.6-.3-.7q-.1-.2-.1-.4c0-.1.1-.7.2-.8 0-.2.1-.1.2 0 0 .1 1.2 1.2 1.3 1.4.2.2.1.2 0 .2h-.6s.8 1.3 1 1.8c.5 1.1.2 1.9.1 2.3-.4.7-1 1.3-1.7 1.9-.2.6-.4 3.2 2 3.2.4.1 1.6.2 4-1.8.6-.4 1.2-1 1.8-1.8.2-.3.3-.8 0-.7-.4 0-3 .9-3.3-.6-.1-.4.1-4 2.6-2.2.2.1.7.6 1.1 1.3.4-.2 1.1-.7 2.1-1.4.3-.3.5-.4.5 0 0 .3-.2 2.4 2.1 1.8.2-.1 1.2-.3 1.9-2.1.2-.4.5-.4.3 0-.2.5-.4.8-.2 1 .2.3.9.7 1.7.6.3 0 .4-.1.3-.4-.1-.2-.3-.7-.3-.7 0-.2.1-.7.2-.8 0-.2 0-.3.1-.2.1.2.9 1.1.5 2.4zm-10.3.1c-.8-1.1-1.8-.5-1.9-.3-.1.1-.2.4.6.4.9.1 1.3-.1 1.3-.1z" fill-rule="evenodd"/><path d="m43.7 10.2 1 .7q0 0 0 .1l-.6.8q0 0-.1 0l-1-.7-.5.7q0 0 0 0l-1.1-.7q0-.1 0-.1l.6-.8q.1-.1.1 0l1 .7.5-.7q0-.1.1 0z"/><path d="m62.7 10.2s-.1.3-.2.5c-.3.8-.1 1.3-.1 1.3.3.5.6.3.7-.1.1-.1.2-.1.1 0q0 .1 0 .3c-.2.5-.4.7-.6.7-.3-.1-.5-.5-.5-.7 0-1 .4-1.8.5-2 .1-.3.1-.2.1 0z"/><path d="m6.5 10.1s-.1.5-.2.8c-.6 1.8-.4 2.6-.3 2.7.4.9.9.5 1.1-.2.1-.3.2-.1.2 0q-.1.2-.1.6c-.3 1-.7 1.3-1 1.3-.5-.1-.7-.9-.7-1.4 0-1.9.7-3.5.8-3.9.2-.5.3-.3.2.1z"/><path d="m52.6 9.7s-.1.3-.2.5c-.3.9-.1 1.4-.1 1.5.3.4.6.2.8-.2 0-.2.1-.1.1 0q0 .1-.1.3c-.1.6-.4.7-.6.7-.3 0-.5-.4-.5-.7-.1-1 .4-1.9.5-2.2.1-.2.2-.1.1.1z"/><path d="m16.4 12.3s-.1.4-.1.6c-.3 1.1-.1 1.6 0 1.7.3.6.7.2.9-.2 0-.2.1-.1.1 0q0 .1-.1.3c-.1.7-.4.9-.6.9-.4.1-.7-.5-.7-.7-.2-1.3.2-2.3.3-2.6.1-.4.3-.2.2 0z"/><path d="m29.2 13.7s-.1.3-.2.4c-.3.9-.1 1.4-.1 1.4.3.5.6.3.7-.1.1-.2.2-.1.1 0q0 .1 0 .3c-.2.5-.4.7-.6.7-.3 0-.5-.5-.5-.7-.1-1 .3-1.8.4-2.1.1-.2.2-.1.2.1z"/><path d="m32.7 9.8c0 .2 0 .2-.1.4s-.2.3-.4.4c-.2.2-5.5 2.9-5.6 2.9-.4.3-.4.1-.3 0q0 0 0-.3c.1-.2.1-.3.4-.4.2-.2 5.5-2.9 5.7-3 .4-.3.4-.1.3 0z"/><path d="m21.1 7s-.1.3-.2.6c-.4 1.1-.2 1.6-.1 1.7.3.6.7.3.9-.1 0-.3.1-.1.1-.1q0 .1-.1.4c-.2.7-.5.8-.7.8-.4 0-.6-.5-.6-.8-.1-1.2.4-2.3.5-2.6.2-.3.3-.1.2.1z"/><path d="m8.4 6.7s-.1.3-.2.5c-.3 1-.1 1.4 0 1.5.3.5.7.2.8-.2.1-.2.2-.1.1 0q0 .1 0 .3c-.2.6-.4.8-.6.8-.4 0-.6-.5-.7-.7-.1-1.1.3-2 .4-2.3.1-.2.2-.1.2.1z"/><path d="m17 6.8c.1.2.1.5 0 .8-.1.1-.2 0-.3-.1 0 0-.1-.1-.3-.2-.5-.4-.6.4-.6.8-.1.3 0 1.2-.1 1.7 0 .2-.1.2-.2.1-.4-1.1-1.1-1.6-1.2-1.7s-.2 0-.2.1-.1.1-.2.1c0-.1-.4-.3-.5-.4-.2-.1-.1-.5-.1-.7 0-.3.1-.4.2-.4 1.4.7 1.9 1.9 2 2.1 0-1-.1-1.8.4-2.5.4-.5 1 .2 1.1.3z"/><path d="m29.1 6.4c.2.2.1.6 0 .8 0 .2-.2 0-.3-.1 0 0-.1-.1-.2-.2-.6-.4-.7.4-.7.8-.1.3 0 1.3-.1 1.8 0 .2-.1.2-.2.1-.4-1.2-1.2-1.7-1.3-1.8s-.2.1-.2.2-.1.1-.1 0c-.1 0-.5-.2-.6-.3-.2-.2-.1-.6-.1-.8-.1-.3.1-.4.2-.4 1.5.7 2 2 2.1 2.2 0-1-.1-1.9.4-2.6.4-.6 1.1.2 1.1.3z"/><path d="m33.3 6c0 .1 1.2 3.1 1.3 3.2.1.2-.1.3-.2.2s-.7-.7-.7-.7.9 5.3 1 6.1c.1.9-.1 1.2-.2 1.6 1 .3 2.2.4 3.2.5-.3-2.1-.6-4.1-.6-4.3-.1-.4-.8-5.2-.8-5.7 0 0 .3-.8.3-1 .1-.1.1 0 .1.1.1.1 1.3 3.1 1.4 3.2 0 .2-.1.3-.2.2s-.7-.7-.7-.7 1 6.4 1.1 6.8q.1.8.2 1.4c1.3.1 2.4 0 2.7 0l-.4 1.3q-1.2-.2-2.2-.1c.1 2.2-.2 2.9-.3 3.1-.1.1-.2.1-.1-.1-.1-.6-.2-1.7-.3-2.9-1.6.4-2.7 1-3.1 1.3-2.7 1.6-5.3 1.9-6.1 1.8-2.7-.3-3.1-3.4-3.1-3.4-.3 1.3-1.4 2.3-1.8 2.7-1.5 1.5-3.1 2.1-3.6 2.1-2.4 0-1.7-3.1-1.6-3.5q0-.1 0-.1c-.8.4-1.6.5-1.9.6-3.8.6-4.3-2.9-4.4-3.2 0 0-.2.3-.2.5-.4 1.3-2.2 2.7-2.6 3-2.3 1.8-3.5 1.1-3.8.8-1.7-1.5.1-4.9.3-5.3.2-.3.3-.2.2.1-.5 1.2-.8 2-.8 2.5-.1.7.2 1.3.3 1.4.6.8 1.5.5 1.9.4 1.4-.6 3.3-2.4 3.6-2.7.9-1 .7-1.8.7-2.2-.1-1.1-1.5-4.6-1.7-4.9 0 0 .1-.8.1-.9 0-.2 0-.3.2-.1 1.6 2 2 5 2.1 5.7.1.6.2 1.4.6 2.2.7 1.6 2.6 1.6 3 1.6 2.2 0 4-1.6 4.3-1.8.2-.2.1-.3 0-.6-.1-.5-.7-1.1-.9-1.3-.1-.2-.1-.4-.1-.5s.1-.5.2-.7c0-.1 0-.1.2 0 .7.7.9 1.3 1.1 2.1.2.7.1 1.6-.3 1.9-.6.6-1.3 1-1.9 1.3.1.1.1.4.1.9-.4 2.3 1.6 1.6 2.1 1.4 2.2-.9 4-3.3 4.2-3.6.2-.2.3-.5.3-1-.2-1.1-2-4.8-2.2-5.3-.1-.4 0-.8.1-1.3s1.4 2 2.1 3.8c.3.9.8 3.8 1 4.3.8 2.3 3.2 1.9 4.1 1.8 1.6-.2 5.1-2 5-2q0 0 0 0c-.4-.1-3.5-.8-4.9-.6-.1 0-.3 0-.2-.1s.2-.6.4-.8c.1-.3 3.3-.6 3.3-.7 0-.5-1.3-7.7-1.3-8.1-.1-.5-.2-.7-.2-.8 0 0 .4-.8.4-1 .1-.1.1 0 .2.1z"/><path d="m51.7 5.6c-.1.1-.1.1-.1.3-.1.2-.2.2-.4.3s-5.5 3.2-5.6 3.2c-.3.2-.2.1-.2 0q0 0 .1-.3c0-.1.1-.2.3-.3.2-.2 5.4-3.2 5.6-3.3.4-.2.3-.1.3.1z"/><path d="m58.1 5.9c.1.2 0 .6-.1.9 0 .1-.2 0-.3-.2 0 0-.1-.1-.2-.2-.6-.5-.8.4-.8.8-.1.3-.1 1.3-.2 1.9 0 .2-.2.2-.3.1-.3-1.3-1-1.9-1.1-2-.2-.1-.3.1-.3.2h-.1c-.1 0-.5-.3-.6-.4-.2-.2-.1-.6-.1-.8 0-.4.2-.5.3-.4 1.5.8 1.9 2.2 2 2.4.1-1 .1-2 .6-2.7.5-.5 1.2.3 1.2.4z"/><g fill-rule="evenodd"><path d="m63.3 8.1c0 .2-.1.1-.2-.1-.1-.1-.2-.2-.4-.3-.2.4-.2.5-1.1 1.3-1.9 1.6-4.1 2.2-4.2 2.3-.1 0-.1-.1.1-.3.6-.5 3.4-1.7 4.9-3.5 0 0-.5-.1-.8-.4-.3-.2-.1-1 .1-1.3.5-.8 1-.4 1.1-.3.5.8.2 1.6.2 1.6.2.2.5.5.3 1zm-.9-2.1c-.1 0-.2 0-.5.4-.1.1 0 .2.2.3.2 0 .6.2.6.2 0-.1 0-.6-.3-.9z"/><path d="m43.4 7.8c0 .2-.1.1-.2-.1-.1 0-.4-.3-.4-.3s-.4.9-1.2 1.4c-1.3 1-2.4 1.2-2.4 1.2-.2.1-.2-.1 0-.2.8-.5 1.8-.8 3.2-2.5 0 0-.4-.2-.7-.4-.3-.3-.2-1.1 0-1.4.6-.8 1.1-.4 1.2-.3.4.8.2 1.6.2 1.6.2.2.5.5.3 1zm-.9-2.1c-.1 0-.3 0-.5.4-.1.1 0 .2.2.3.1 0 .5.2.5.2.1-.1.1-.6-.2-.9z"/></g></g></svg>