<svg height="30" viewBox="0 0 70 30" width="70" xmlns="http://www.w3.org/2000/svg"><g fill="#191c4f"><path d="m33.8 22.8.9.7q.1 0 .1.1l-.6.7q0 .1-.1 0l-.9-.7q-.1 0-.1 0l.6-.8q0 0 .1 0z"/><path d="m13.6 21.9c-.1.1-.1.2-.2.3 0 .2-.1.2-.3.3s-3.6 1.5-3.7 1.5c-.3.2-.3.1-.3 0q.1-.1.1-.3c.1-.1.1-.2.3-.3.3-.1 3.6-1.5 3.9-1.6s.2 0 .2.1z"/><path d="m23.9 21.1s0 .3-.1.4c-.3.9-.1 1.3-.1 1.4.2.4.6.2.7-.2 0-.1.1 0 .1 0q0 .1-.1.3c-.1.5-.4.7-.5.7-.4-.1-.5-.5-.5-.7-.1-.9.3-1.7.4-2 .1-.2.2-.1.1.1z"/><path d="m39 20.6s-.1.3-.1.4c-.3.9-.2 1.3-.1 1.4.2.4.5.2.7-.1 0-.2.1-.1 0 0q0 0 0 .2c-.2.6-.4.7-.5.7-.4 0-.5-.4-.5-.7-.1-.9.3-1.7.4-1.9.1-.3.2-.2.1 0z"/><path d="m64.2 19.5v.5c0 .2-.1.5-.2.8s-.7.4-1.1.2c-.7 1-1.4.5-1.7.4-.6-.3-.8.1-1 .3-.8.9-2.2.9-2.6.9-.3 0 0-.2.1-.3 1.2-.4 1.9-.4 2.9-1.4.4-.4.7-.2.9-.1.9.4 1.1 0 1.2-.2.1-.1.3-.6.3-.7.1-.2.2-.1.2.1 0 .1-.1.2-.1.3.4.3.8.1.9 0 0 0-.1-.3-.1-.4q0-.1.1-.5c.1-.3.2 0 .2.1z"/><path d="m19.1 17.4s-.1.2-.1.4c-.3.9-.1 1.3-.1 1.3.2.5.6.3.7-.1 0-.1.1-.1.1 0q-.1.1-.1.3c-.1.5-.4.6-.5.6-.4 0-.5-.4-.5-.6-.1-1 .3-1.7.4-2 .1-.2.2-.1.1.1z"/><path d="m46.6 18.2c-.3.9-1.6 1.5-2 1.6-1.1.3-1.2-.9-1.2-1.7.1-.9.8-2 .8-2-.1 0-1.4-1-1.5-1.1s-.2-.3-.3-.3c-.1-.1-.1-.2-.1-.2s0-.8 0-1c0-.1.1 0 .2 0 .1.1 1.4.6 1.6.7.1.1.1.2 0 .2s-.5.1-.5.1l1.1.8s1.5-2 1.7-2.2c.1-.2.1-.1.1.1s-.3 1.1-.4 1.2-.9 1.2-.9 1.2 1 .7 1.3 1c.5.7.2 1.3.1 1.6zm-2-1.8s-.7 1.2-.8 1.4c-.3.7.4.9.7.8.2 0 1.2-.5 1.6-.8.4-.4-1.2-1.2-1.5-1.4z" fill-rule="evenodd"/><path d="m11 14.5 1 .7q0 0 0 .1l-.5.7q-.1.1-.1.1l-1-.7-.4.6q-.1.1-.1.1l-1-.7q0-.1 0-.1l.6-.8q0 0 .1 0l.9.7.5-.7q0 0 0 0z"/><path d="m65.6 17.1c-.1.2-.3 1.1-1.6.8-.3 0-.9-.2-1.2-.8-.3.3-1 1.6-2.5 1.3-.3 0-1.3-.4-1.3-1.7 0 0-1.2 1-1.7 1.3 0 .4 0 1-.2 1.5-.3.6-2.8 3.5-4.9 3.9-.7.2-3.3.7-3.4-2.3q-.1-.9 0-1.4c-1.6 1.3-3.6 2.3-4.1 2.5-.9.4-3.9.9-4.5 1-.3.1-.4 0-.2-.1s7-2.4 10.5-6.1q.1-.2-.1-.4c-.1-.2-1.2-2.3-1.3-2.6s-.2-.6-.3-.7q0-.2 0-.3c0-.1.1-.7.2-.8 0-.2.1-.1.1 0 .1.1 1.2 1.2 1.3 1.3.1.2 0 .2 0 .2-.1 0-.6 0-.6 0s.7 1.2 1 1.7c.4 1 .1 1.8 0 2.2-.3.6-.9 1.2-1.6 1.8-.1.5-.3 3 1.9 3 .4 0 1.5.2 3.8-1.7.6-.4 1.2-1 1.7-1.7.2-.3.3-.8-.1-.7-.3 0-2.7.9-3-.5-.1-.4.1-3.8 2.4-2.1.2.1.7.5 1 1.2.4-.2 1.1-.6 2-1.3.3-.3.5-.4.5 0 0 .3-.2 2.2 2 1.6.2 0 1.1-.2 1.8-1.9.2-.4.4-.3.3 0-.2.4-.4.8-.2 1s.8.6 1.6.5c.2 0 .4-.1.3-.3-.1-.3-.4-.7-.4-.7.1-.3.2-.7.2-.8.1-.1.1-.2.2-.1s.8 1 .4 2.2zm-9.7.1c-.7-1-1.6-.4-1.8-.3-.1.1-.1.4.6.4.9.1 1.2-.1 1.2-.1z" fill-rule="evenodd"/><path d="m22.2 11.7s0 .2-.1.4c-.3.9-.1 1.3-.1 1.3.2.5.6.3.7-.1 0-.1.1-.1.1 0q0 .1-.1.3c-.1.5-.4.6-.5.6-.3 0-.5-.4-.5-.6-.1-1 .3-1.7.4-2 .1-.2.2-.1.1.1z"/><path d="m45.3 11 .9.7q.1 0 0 0l-.5.8q0 0-.1 0l-.9-.7-.5.7q0 0-.1 0l-.9-.7q-.1 0 0-.1l.5-.7q.1-.1.1 0l.9.6.5-.6q0-.1.1 0z"/><path d="m12.6 11.1s-.1.2-.1.4c-.3.8-.2 1.1-.1 1.2.2.4.5.2.6-.1.1-.1.1-.1.1 0q0 .1-.1.3c-.1.4-.3.6-.5.6-.3 0-.4-.4-.4-.6-.1-.9.3-1.7.4-1.9s.1-.1.1.1z"/><path d="m63.2 11s-.1.2-.2.4c-.3.8-.1 1.2-.1 1.3.3.4.6.2.7-.1.1-.2.1-.1.1 0q0 .1-.1.3c-.1.5-.3.6-.5.6-.3 0-.4-.4-.5-.6 0-1 .4-1.7.5-2 0-.2.1-.1.1.1z"/><path d="m53.7 10.5s-.1.3-.2.4c-.3 1-.1 1.4-.1 1.5.3.4.6.2.7-.2.1-.1.1 0 .1 0q0 .1 0 .3c-.2.6-.4.7-.6.7-.3 0-.5-.5-.5-.7-.1-1 .3-1.8.4-2.1.1-.2.2-.1.2.1z"/><path d="m8.9 7.7c.1.2 0 .5 0 .8-.1.1-.2 0-.3-.2 0 0-.2-.1-.3-.2-.4-.4-.6.4-.7.8 0 .2-.1 1.1-.1 1.6-.1.3-.2.2-.3.1-.3-1.1-.9-1.6-1-1.7-.1-.2-.2 0-.2.1s-.1.1-.2 0c0 0-.4-.2-.5-.4-.1-.1-.1-.5-.1-.7 0-.3.2-.4.3-.3 1.3.7 1.7 2 1.8 2.2 0-1 .1-1.8.6-2.5.4-.5 1 .3 1 .4z"/><path d="m14.8 7.2c.1.1 1.2 2.9 1.3 3.1 0 .1-.1.2-.2.1s-.6-.6-.6-.6l.9 4.2s.6 3 .6 4c0 1.4-.5 2.2-1 2.5q0 .1 0 .3c-.5 2.9 1.6 2 1.9 1.9 1-.5 5.9-3.5 6.2-3.6.2-.2.1-.3-.1-.6-.7-.7-3.5-1.7-3.7-1.8-1.4-.7-2.1-1.4-2.2-1.6 0 0-.1-.9-.1-1 0-.2 0-.1.2-.1.2.1 1.5.5 1.7.6s.1.2 0 .3c-.1 0-.6.1-.6.1s1.2.7 1.9.9c.6.3 2 .7 2.5 1 .7.6.8 1 .9 1.5.2.6-.2 1.5-.7 1.8-.4.4-3.5 2.3-4.2 2.8-2.3 1.4-3.1 1.2-3.6.9-1-.5-.5-2.6-.4-3.1q0-.1.1-.1c-.3.1-.6.2-.7.2-2 .3-2.7-.8-3.1-1.6-.3-.4-.5-.5-.6-.5-.3 0-.6.3-.7.3-.9.6-1.5 2.1-1.6 2.5-.6 1.8-1.2 2-1.8 1.7-2-.9-1.7-4.4-1.6-4.9q0-.1 0-.1c-.3-.3-.5-1-.5-1.4-.1-2 .6-3.8.8-4.3s.3-.2.2.2c0 0-.2.5-.3.9-.5 1.8-.2 2.7-.2 2.9.4 1 .9.5 1.2-.2.1-.4.1-.2.1 0q0 .1-.1.5c-.3 1.2-.6 1.4-.9 1.4q0 0-.1 0 .1.1 0 .2c0 .3-.2 2.1.9 3.3.9 1 1.6.1 1.8-.3.2-.5.7-2.2 1.9-3.4 1-.9 1.5-.3 1.8.2 1 2.3 3.3 1.2 3.8.9s.5-.8.4-1.4-1.8-8.7-1.8-9c-.1-.4-.2-.6-.2-.7 0 0 .4-.8.4-.9.1-.2.1-.1.1 0z"/><path d="m34.1 13.5c-.1.2-.1.1-.2-.1-.1 0-.4-.4-.4-.4s-1.1 1.6-2.3 2.3c-1.3.9-2.4 1.2-2.5 1.2s-.1-.1.1-.2c.8-.4 2.9-1.8 4.4-3.4 0 0-.4-.2-.7-.5-.3-.2-.1-.9.1-1.2.6-.8 1.1-.4 1.1-.2.4.8.1 1.5.1 1.5.3.2.5.5.3 1zm-.8-2.1c-.1 0-.2-.1-.5.3-.1.1 0 .2.2.3.1.1.5.3.5.3.1-.1.1-.6-.2-.9z" fill-rule="evenodd"/><path d="m33.4 8.7c0 .1-.1.2-.1.3-.1.2-.2.2-.3.3s-5.3 2.7-5.8 3c-.5.4-.5.6-.3.6.4.2.6.4.3.9q0 0 0 0c-.1-.1-.2-.2-.4-.2-.3-.1-.4-.5-.3-.9.1-.3.3-.6.5-.8.4-.3 6-3.1 6.2-3.2.3-.2.2-.1.2 0z"/><path d="m28.6 6.9s0 .4-.1.6c-.3 1-.1 1.5 0 1.6.3.5.7.2.8-.2.1-.2.1-.1.1 0q0 .1 0 .3c-.2.7-.4.8-.6.8-.4.1-.6-.4-.7-.7-.1-1.1.3-2.1.4-2.4s.2-.2.1 0z"/><path d="m22 7.2c.2.2.1.6 0 .8-.1.1-.2 0-.3-.1 0 0-.1-.2-.3-.3-.4-.4-.6.4-.7.8 0 .3-.1 1.2-.2 1.8q0 0 0 .1c0 .4-.2 1-1 1.5-.9.6-1 .6-1 .6-.1.1-.2 0 0-.1.1-.1 1.9-1.6 1.7-2.3-.2-.9-.9-1.5-1-1.6s-.2.1-.2.1c0 .1-.1.1-.2.1 0-.1-.4-.3-.5-.4-.1-.2-.1-.6-.1-.8 0-.3.2-.4.3-.3 1.4.7 1.8 2 1.8 2.2.1-.9.1-1.8.7-2.5.4-.5 1 .3 1 .4z"/><path d="m52.8 6.6c0 .1 0 .2-.1.3-.1.2-.2.2-.3.3-.2.1-5.2 3-5.3 3.1-.3.2-.2 0-.2-.1q0 0 0-.2c.1-.2.2-.2.4-.4.2-.1 5.1-2.9 5.3-3.1.3-.1.3 0 .2.1z"/><path d="m58.9 6.9c.1.2 0 .6-.1.9-.1.1-.2 0-.3-.2 0 0-.1-.1-.2-.2-.5-.4-.7.4-.8.8 0 .3-.1 1.2-.2 1.7 0 .3-.1.2-.2.1-.3-1.2-1-1.7-1.1-1.8s-.2 0-.2.1c-.1.1-.1.1-.2 0 0 0-.4-.2-.5-.4-.2-.1-.1-.5-.1-.7 0-.3.2-.4.3-.4 1.3.8 1.8 2.1 1.8 2.3.1-1 .1-1.9.7-2.5.4-.6 1 .2 1.1.3z"/><path d="m63.8 9c-.1.2-.1.1-.2-.1-.1-.1-.2-.2-.4-.3-.2.4-.2.5-1 1.2-1.9 1.6-3.9 2.1-4 2.2-.1 0-.1-.1.1-.2.6-.5 3.2-1.7 4.6-3.3 0 0-.5-.2-.8-.4-.2-.2-.1-.9.1-1.3.5-.8 1-.4 1.1-.2.4.7.2 1.5.2 1.5.2.1.4.4.3.9zm-.9-1.9c-.1-.1-.2-.1-.5.3-.1.1 0 .2.2.2.2.1.6.3.6.3 0-.1 0-.6-.3-.8z" fill-rule="evenodd"/><path d="m39.7 18.9-.4 1c-.8-.1-3.4.4-4 .8-4.3 2.4-5.8 2.4-7 2.1-2.3-.4-2.8-2-3-4.2-.2-1.4-.1-5.2-1.4-11 0 0 .2-.5.3-.7.1-.3.3-.3.4.2s.7 4.2.8 5.3c.2 1.1.5 5 .6 5.7.3 2.9 1.5 3.2 2.2 3.4 2.5.8 6.3-1.5 6.9-1.7 0 0-4.9-.6-5-.6-.2 0 .5-1.1.7-1.4 1.7-1.6 3.8-2.5 4.7-2.9-.5-2.2-.9-5.8-.9-5.8q-.1-.8-.2-1.3c-.1-.4-.2-.6-.2-.7 0 0 .4-.8.4-.9.1-.1.1-.1.2 0 0 .1 1.2 3 1.2 3.1.1.2 0 .2-.1.1s-.7-.7-.7-.7c-.1-.1.5 3.7.6 4.4q.1 1 .4 1.6c.5-.1 1.5-.2 2.1.4.7.7.3 1.8.1 2.2-.2.2-1.2 1-2.4-.8q-.1-.2-.3-.6c-1.7.5-3.9 2-4 2.3 1.8.4 7.4.7 8 .7zm-3.1-3.2q.1.2.1.3c.2.2.7.6 1.2.5.5 0 0-.6-.9-.8q-.2 0-.4 0z" fill-rule="evenodd"/><path d="m39.5 6.2c0 .1 1.2 3 1.2 3.1.1.2 0 .2-.1.1s-.7-.6-.7-.6 1 6.8 1 7.2c.7 4 .1 5.1.1 5.3-.1.2-.2.1-.2-.1 0-1.6-1-7.6-1-8 0-.3-.7-5.6-.8-6.1 0 0 .3-.8.4-.9 0-.1 0-.1.1 0z"/><path d="m45 8.7c0 .2-.1.1-.2 0 0-.1-.4-.4-.4-.4s-.4.9-1 1.4c-1.3.9-2.3 1.1-2.4 1.1s-.1-.1.1-.2c.7-.4 1.7-.8 3-2.4 0 0-.4-.2-.7-.4s-.1-.9.1-1.2c.5-.8.9-.4 1-.3.5.8.2 1.5.2 1.5.2.2.5.5.3.9zm-.8-1.9c-.1-.1-.3-.1-.5.3-.1.1 0 .2.1.3.2 0 .6.2.6.2 0-.1.1-.5-.2-.8z" fill-rule="evenodd"/><path d="m16.4 5.1c0 .2 0 .2-.1.3-.1.2-.2.2-.3.3s-5.3 2.7-5.8 3.1c-.5.3-.5.5-.3.6.4.1.6.4.3.8q0 0 0 0c-.1-.1-.2-.2-.4-.2-.3 0-.4-.5-.3-.9.1-.3.3-.6.5-.8.4-.3 6-3.1 6.2-3.2.3-.2.2-.1.2 0z"/></g></svg>