<svg height="30" viewBox="0 0 70 30" width="70" xmlns="http://www.w3.org/2000/svg"><g fill="#191c4f"><path d="m15.8 22c-.1.1-.1.1-.2.3 0 .2-.1.2-.3.3-.3.1-2.9 1-3.1 1.1-.3.1-.3 0-.2-.1q0 0 .1-.3c0-.1.1-.2.3-.3.3-.1 2.9-1 3.1-1.1.4-.1.3-.1.3.1z"/><path d="m21.4 21.1s-.1.3-.1.4c-.3.9-.2 1.3-.1 1.3.2.5.5.2.7-.1 0-.1.1 0 .1 0q-.1.1-.1.3c-.2.5-.4.6-.5.6-.4 0-.5-.4-.5-.6-.1-.9.3-1.7.4-1.9s.2-.1.1 0z"/><path d="m28.7 20.9c.1 0 .1.1 0 .3 0 0 0 .2-.1.3-.1.2-.7.7-.8.9-.2.2-.1.7.5.8.7-.1 1.3-.7 1.5-.9.1-.1.1 0 0 .2-.5.7-1.1 1-1.2 1-.2.1-1.3.3-1.1-.7.2-.7.8-1.3.9-1.3q0-.1-.1-.1c-.7 0-.7.2-.8.2 0-.1.2-.4.2-.4.3-.4.8-.3 1-.3z"/><path d="m36.6 19.9s-.1.2-.1.4c-.3.8-.1 1.2-.1 1.3.2.4.6.2.7-.2 0-.1.1 0 .1 0q0 .1-.1.3c-.1.5-.4.6-.5.6-.4 0-.5-.4-.5-.6-.1-.9.3-1.7.4-1.9s.2-.1.1.1z"/><path d="m64.1 19.6v.5c0 .3-.1.6-.3.9-.1.3-.7.5-1.2.2-.7 1.1-1.4.5-1.8.4-.7-.3-.9.2-1.1.4-.8.9-2.4.9-2.8.9-.3.1 0-.2.1-.2 1.3-.5 2-.5 3.1-1.6.5-.5.8-.2 1-.2 1 .5 1.2 0 1.3-.1.2-.1.3-.6.4-.8s.2-.1.1.1c0 .1 0 .3-.1.4.5.3.9 0 1-.1 0 0 0-.3 0-.4q-.1-.1.1-.5c.1-.3.1-.1.2.1z"/><path d="m44.9 18.2c-.3 1-1.7 1.6-2.1 1.7-1.3.4-1.4-.9-1.3-1.9.1-.9.8-2.1.8-2.1-.1 0-1.5-1.1-1.6-1.2s-.2-.3-.3-.4c-.1 0-.1-.1-.1-.1s0-1 0-1.1.1-.1.2 0c.1 0 1.5.6 1.7.7s.1.2 0 .2-.6.2-.6.2l1.3.8s1.6-2.2 1.8-2.4.1-.1.1.2c0 .2-.3 1.1-.4 1.3-.1.1-1 1.3-1 1.3s1.2.7 1.4 1.1c.5.6.2 1.3.1 1.7zm-2.1-2s-.8 1.3-.9 1.6c-.3.7.5.9.7.8.3 0 1.3-.5 1.8-.9s-1.3-1.3-1.6-1.5z" fill-rule="evenodd"/><path d="m21 14.7 1 .7q.1.1.1.1l-.7.9q0 0 0 0l-1-.8-.6.8q0 0 0 0l-1.1-.8q0 0 0-.1l.6-.8q0-.1.1 0l1 .7.5-.7q.1-.1.1 0z"/><path d="m19.8 12.7 1 .7q.1.1.1.1l-.7.9q0 0 0 0l-1.1-.8q0 0 0-.1l.6-.8q.1 0 .1 0z"/><path d="m26.7 12s-.1.2-.1.4c-.3.8-.2 1.2-.1 1.3.2.4.5.2.7-.1 0-.2.1-.1 0 0q0 .1 0 .2c-.2.5-.4.7-.6.7-.3 0-.4-.5-.4-.7-.1-.9.3-1.6.4-1.9.1-.2.2-.1.1.1z"/><path d="m10.7 12s0 .2-.1.4c-.3 1-.1 1.4 0 1.5.3.5.7.2.8-.1.1-.2.1-.1.1 0q0 0 0 .2c-.2.7-.4.8-.7.8-.4 0-.6-.4-.6-.7-.1-1 .3-1.9.4-2.2s.2-.2.1.1z"/><path d="m65.6 17c-.1.2-.3 1.2-1.7.9-.4-.1-1-.2-1.3-1-.4.5-1.2 1.8-2.7 1.5-.4 0-1.5-.4-1.5-1.8 0 0-1.3 1-1.9 1.3.1.5 0 1.1-.2 1.7s-3 3.8-5.3 4.3c-.7.1-3.6.7-3.7-2.5 0-.7 0-1.2.1-1.6-1.8 1.4-4 2.4-4.6 2.7-.9.5-4.2 1-4.8 1.1-.4.1-.4 0-.2-.1.2-.2 7.5-2.6 11.3-6.6q.2-.2 0-.5c-.1-.2-1.3-2.5-1.4-2.8s-.3-.7-.3-.8q-.1-.1-.1-.3c.1-.1.2-.8.2-.9s.1-.1.2 0c0 .1 1.2 1.3 1.4 1.5.1.1 0 .2 0 .2-.1 0-.7 0-.7 0s.8 1.3 1.1 1.8c.4 1.1.2 2 0 2.4-.4.7-1 1.3-1.7 2-.2.5-.4 3.2 2.1 3.3.4 0 1.6.1 4.1-1.9.6-.5 1.2-1.1 1.8-1.8.2-.4.4-.9 0-.8-.5 0-3 1-3.4-.6-.1-.4.1-4.1 2.6-2.3.3.2.8.6 1.2 1.3.4-.1 1.2-.6 2.2-1.4.2-.2.5-.4.5 0 0 .3-.2 2.5 2.1 1.8.3 0 1.3-.2 2-2.1.2-.4.4-.3.3 0-.2.5-.4.9-.2 1.1s.9.7 1.7.6c.3 0 .4-.2.3-.4-.1-.3-.3-.7-.3-.7 0-.3.1-.8.2-.9 0-.1.1-.2.2-.1s.8 1.1.4 2.4zm-10.5.1c-.9-1.1-1.8-.5-2-.4-.1.2-.1.5.7.5.9.1 1.3-.1 1.3-.1z" fill-rule="evenodd"/><path d="m14.7 11.8s-.1.5-.2.8c-.4 1.5-.2 2.2-.2 2.4.4.8.8.4 1-.2.1-.3.2-.2.2 0q-.1.1-.1.4c-.3 1-.6 1.2-.8 1.2-.5 0-.7-.8-.7-1.2-.1-1.7.5-3.1.7-3.5.1-.4.2-.2.1.1z"/><path d="m43.5 10.3 1 .8q.1 0 .1 0l-.7.9q0 0 0 0l-1-.8-.6.8q0 0-.1 0l-1-.8q0 0 0-.1l.6-.8q0 0 .1 0l1 .7.5-.7q.1 0 .1 0z"/><path d="m62.9 10.3s0 .3-.1.5c-.3.9-.1 1.3-.1 1.4.2.5.6.2.7-.1.1-.2.1-.1.1 0q0 .1 0 .3c-.2.5-.4.6-.6.6-.4 0-.5-.4-.5-.6-.1-1 .3-1.9.4-2.1.1-.3.2-.2.1 0z"/><path d="m31.4 10.4s-.1.5-.2.7c-.5 1.6-.3 2.3-.2 2.5.3.7.8.4 1-.2.1-.3.2-.2.1 0q0 .1-.1.4c-.2 1-.5 1.2-.8 1.2-.4 0-.6-.8-.7-1.2 0-1.7.6-3.1.7-3.5.2-.4.3-.2.2.1z"/><path d="m52.6 9.8s-.1.3-.1.5c-.4 1-.2 1.4-.2 1.5.3.5.7.3.8-.1.1-.2.1-.1.1 0q0 .1 0 .3c-.2.6-.5.7-.7.7-.3 0-.5-.5-.5-.7-.1-1.1.4-2 .5-2.3.1-.2.2-.1.1.1z"/><path d="m20.7 9.3c.7.1.5.5.4.7-.6.9-1.3 1.2-1.9 1.5-.5.2-.3-.2.1-.5 0 0 .3-.2.8-.5.5-.4-.8-.3-1.4-.3-.5-.1-.7.1-.8.3-.2.2-.4.1-.3-.1s.3-.5.7-.9c.4-.5 1.6-.3 2.4-.2z"/><path d="m32.5 7.6c0 .1-.1.1-.2.3s-.2.2-.4.3c-.2.2-9.6 4.1-9.7 4.2-.4.2-.3 0-.3-.1q0 0 .1-.3c.1-.2.2-.2.4-.4.3-.1 9.6-4.1 9.9-4.2.4-.1.3 0 .2.2z"/><path d="m8.9 6.7s-.1.3-.2.5c-.3 1 0 1.4 0 1.5.3.5.7.2.8-.1.1-.2.2-.1.2-.1q-.1.1-.1.3c-.1.6-.4.8-.6.8-.4 0-.6-.4-.7-.7-.1-1 .4-2 .5-2.2.1-.3.2-.2.1 0z"/><path d="m15.8 6.3c.1.2 0 .6-.1.9 0 .1-.2 0-.3-.2 0 0-.1-.1-.2-.2-.5-.4-.7.4-.8.8 0 .3-.1 1.3-.2 1.8 0 .3-.2.3-.2.1-.4-1.2-1.1-1.8-1.2-1.9s-.2.1-.2.1c0 .1-.1.1-.2.1 0-.1-.4-.3-.5-.4-.2-.2-.1-.6-.1-.8 0-.3.2-.4.3-.4 1.4.8 1.8 2.2 1.9 2.4.1-1 .1-1.9.7-2.6.4-.6 1.1.2 1.1.3z"/><path d="m18.6 5.7s0 .3-.1.4c-.3.9-.1 1.3-.1 1.4.3.4.6.2.7-.1.1-.2.1-.1.1 0q0 .1-.1.2c-.1.6-.3.7-.5.7-.3 0-.5-.4-.5-.7-.1-.9.3-1.7.4-1.9.1-.3.2-.2.1 0z"/><path d="m26.2 6c.1.2.1.6 0 .9-.1.1-.2 0-.4-.1 0 0-.1-.2-.2-.3-.5-.4-.7.4-.8.8 0 .3-.1 1.3-.2 1.9 0 .2-.1.2-.2 0-.4-1.2-1-1.8-1.1-1.9-.2-.1-.3.1-.3.2h-.1c-.1 0-.5-.3-.6-.4-.1-.2-.1-.6-.1-.8 0-.3.2-.4.3-.4 1.4.8 1.9 2.2 1.9 2.4.1-1 .2-1.9.7-2.6.4-.6 1.1.2 1.1.3z"/><path d="m51.7 5.6c0 .1-.1.1-.1.3-.1.2-.2.2-.4.3-.2.2-5.6 3.3-5.7 3.4-.3.2-.3 0-.2-.1q0 0 0-.3c.1-.2.1-.2.3-.3.3-.2 5.6-3.3 5.9-3.4.3-.2.2 0 .2.1z"/><path d="m58.3 5.9c.1.2 0 .7-.1.9s-.2 0-.3-.1c0 0-.2-.2-.3-.3-.5-.4-.7.5-.8.9-.1.3-.1 1.3-.2 1.9 0 .2-.2.2-.2 0-.4-1.2-1.1-1.8-1.3-1.9-.1-.2-.2 0-.2.1s-.1.1-.2.1c0-.1-.4-.3-.6-.5-.1-.1-.1-.6 0-.8 0-.3.2-.4.3-.4 1.5.8 1.9 2.3 2 2.5.1-1.1.1-2 .7-2.8.4-.5 1.1.3 1.2.4z"/><path d="m63.6 8.2c0 .1-.1 0-.2-.1s-.2-.3-.4-.4c-.3.5-.2.6-1.2 1.4-1.9 1.7-4.1 2.3-4.2 2.3-.2 0-.2-.1 0-.2.7-.5 3.6-1.8 5-3.6 0 0-.4-.2-.8-.4-.3-.2-.1-1 .1-1.4.6-.8 1.1-.4 1.1-.3.5.9.3 1.7.3 1.7.2.1.5.5.3 1zm-.9-2.1c-.1-.1-.3-.1-.6.3-.1.1 0 .2.2.3s.6.3.6.3c0-.1.1-.6-.2-.9z" fill-rule="evenodd"/><path d="m33.9 5.2c0 .1 1.3 3.1 1.3 3.3.1.2 0 .2-.1.1s-.8-.7-.8-.7 1 8.9 1.1 9.4c.1 1.6-.2 2.5-.4 2.7-.9 1.5-3 1.3-3.4 1.2-1.3-.6-.9-2.4-.8-2.8-.4 0-.6.1-.9.2-.5.2-3.2 1.6-4.6 1.9-2.4.5-2.8-.9-2.9-1.1 0 0-.3 1.1-1.1 1.3-.5.2-1.4.1-1.6-1-1.2 1.8-2.4 1.2-2.7 1-.2-.2-.8-.7-1.3-1-1.7-.9-4.2 1.3-4.6 1.5-.5.4-2.4 2.5-3.5 2.8-1.9.6-2.4-1-2.5-1.5-.5-2 1.3-4.3 1.8-4.8q0-.1 0-.1c-.5-.1-.7-.9-.8-1.3-.1-1.9.7-3.6.8-4.1.2-.4.4-.2.2.2 0 0-.1.5-.2.8-.6 1.8-.3 2.6-.2 2.8.4.9 1 .4 1.2-.2.1-.4.2-.2.2 0q0 .1-.1.5c-.2.7-.4 1.1-.6 1.2q-.1.2-.2.3c-.4.6-1.1 1.7-1.3 2.1-.8 1.5-.4 2.5-.2 2.8.7 1 2 .1 2.3-.1s1.8-1.5 2.1-1.8c2.4-2.1 3.9-2.4 4.1-2.5 1.5-.2 2.2.4 2.5.6.8.8 1.4.8 1.6.7 1.1-.4 1.7-1.3 1.9-1.6.3-.3.2 0 .2.1s-.2.6-.2.7c.2.7.9.7 1.2.6.6 0 1-.9 1.2-1.4.2-.4.2.2.2.4 1.1 2.3 5.7-.3 6.1-.5-.4-.1-2.5-.7-2.7-.7-.2-.1-.3 0-.3.1 0 0-2.7.1-2.7.1q-.1 0-.1-.1c0-.1.2-.7.3-.8 0-.1.1-.2.2-.2.5-.4 1.7-.6 1.9-.6h.5c4.9 1.6 7.3 1.5 8 1.5 0 0-.5 1.1-.6 1.2-1.1-.1-1.8-.1-2.3-.1 0 .5.1 1 .3 1.2.8 1.2 2.8.1 3.2-.1.3-.2.2-.4.2-.9-.1-.6-1.2-11-1.4-11.6-.1-.5-.1-.7-.1-.8 0 0 .4-.9.4-1 .1-.1.1 0 .2.1z"/><path d="m37 5.2c0 .1 1.3 3.1 1.3 3.3.1.2 0 .2-.1.1s-.7-.7-.7-.7 1 7.5 1.1 7.9c.7 4.4.1 5.6 0 5.7-.1.2-.2.1-.2 0 0-1.8-1-8.4-1.1-8.7 0-.4-.7-6.2-.8-6.7 0 0 .3-.9.4-1 0-.1 0 0 .1.1z"/><path d="m43.2 7.9c0 .1-.1 0-.2-.1s-.4-.4-.4-.4-.5 1-1.2 1.5c-1.3 1-2.5 1.2-2.5 1.2-.2.1-.2 0 0-.2.9-.5 1.9-.8 3.3-2.6 0 0-.4-.2-.7-.4-.4-.2-.2-1 0-1.4.6-.8 1.1-.4 1.2-.3.4.9.2 1.7.2 1.7.2.1.5.5.3 1zm-.9-2.1c-.1-.1-.3-.1-.6.3 0 .1.1.2.2.3.2.1.6.3.6.3.1-.1.1-.6-.2-.9z" fill-rule="evenodd"/></g></svg>