<svg height="30" viewBox="0 0 70 30" width="70" xmlns="http://www.w3.org/2000/svg"><g fill="#191c4f"><path d="m13.2 22.9c-.1.2-.1.2-.1.4-.1.1-.2.2-.4.3-.1.1-3.4 1.7-3.5 1.8-.3.2-.2.1-.2 0q0-.1 0-.3c.1-.2.1-.2.3-.4.2-.1 3.4-1.7 3.6-1.8.3-.2.3-.1.3 0z"/><path d="m23.3 22.4s-.1.3-.1.5c-.3.9-.2 1.3-.1 1.4.2.5.6.2.7-.1.1-.2.1-.1.1 0q0 .1 0 .3c-.2.5-.4.7-.6.7-.4 0-.5-.5-.6-.7 0-1.1.4-1.9.5-2.2.1-.2.2-.1.1.1z"/><path d="m64.1 20.4v.5c0 .2-.1.5-.2.9-.1.3-.8.4-1.2.1-.7 1.2-1.4.6-1.8.4-.7-.2-.8.2-1 .4-.9 1-2.4.9-2.8 1-.3 0 0-.2.1-.3 1.2-.4 2-.5 3.1-1.5.4-.5.7-.3.9-.2 1 .4 1.2 0 1.3-.1s.3-.7.4-.8c.1-.2.2-.1.1.1 0 .1-.1.3-.1.3.4.4.9.1.9 0 0 0 0-.3 0-.4q0-.2.1-.5c.1-.3.2-.1.2.1z"/><path d="m32.1 17.7s-.1.3-.1.5c-.3 1.2-.1 1.7 0 1.8.3.5.6.2.8-.2 0-.2.1-.1.1 0q0 .1-.1.3c-.1.7-.4.9-.6.9-.4 0-.6-.6-.6-.8-.1-1.2.3-2.3.4-2.6s.2-.2.1.1z"/><path d="m17.7 18.3s-.1.3-.1.5c-.3 1-.1 1.4-.1 1.5.3.5.7.2.8-.2.1-.2.1-.1.1 0q0 .1 0 .3c-.2.6-.4.8-.6.8-.4 0-.6-.5-.6-.7-.1-1.1.3-2 .4-2.3.1-.2.2-.1.1.1z"/><path d="m26.1 14 1 .7q.1.1 0 .1l-.6.8q0 .1 0 .1l-1.1-.8q0 0 0-.1l.6-.8q.1 0 .1 0z"/><path d="m45.4 19c-.3 1-1.7 1.5-2.1 1.6-1.2.5-1.3-.8-1.2-1.7.1-1 .7-2.1.7-2.1 0-.1-1.4-1.1-1.5-1.2s-.2-.3-.3-.3c-.1-.1-.1-.2-.1-.2s0-.9 0-1c0-.2 0-.1.2-.1.1.1 1.5.6 1.7.7.1.1.1.2 0 .2-.1.1-.6.2-.6.2l1.2.8s1.6-2.1 1.8-2.3.1-.1.1.1-.3 1.1-.4 1.3c-.1.1-.9 1.3-.9 1.3s1.1.6 1.3 1c.5.7.2 1.3.1 1.7zm-2.1-1.9s-.7 1.3-.8 1.5c-.3.7.4.9.7.9.3-.1 1.2-.6 1.7-1 .5-.3-1.3-1.2-1.6-1.4z" fill-rule="evenodd"/><path d="m21 13.2s-.1.3-.2.5c-.3.9-.1 1.4-.1 1.5.3.5.7.2.8-.2.1-.1.2-.1.1 0q0 .1 0 .3c-.2.6-.5.8-.7.8-.4 0-.5-.5-.5-.8-.1-1 .4-1.9.5-2.2.1-.2.2-.1.1.1z"/><path d="m65.6 17.8c-.1.2-.3 1.2-1.7.9-.3 0-1-.2-1.3-.9-.3.4-1.1 1.7-2.6 1.4-.3 0-1.4-.4-1.4-1.8 0 0-1.3 1.1-1.9 1.4.1.4.1 1-.2 1.6-.2.6-2.9 3.7-5.1 4.2-.7.1-3.6.6-3.7-2.5 0-.6 0-1.2.1-1.5-1.7 1.3-3.8 2.4-4.4 2.7-1 .4-4.2.9-4.7 1-.4.1-.5 0-.3-.1.3-.2 7.4-2.6 11.1-6.5q.2-.2 0-.4c-.1-.2-1.3-2.5-1.4-2.8-.1-.2-.2-.6-.3-.7q-.1-.2 0-.4c0-.1.1-.7.1-.8.1-.2.1-.1.2 0s1.2 1.3 1.4 1.4c.1.2 0 .2 0 .2-.1 0-.7 0-.7 0s.8 1.3 1 1.8c.5 1.1.2 1.9.1 2.3-.4.7-1 1.4-1.7 2-.1.5-.4 3.1 2 3.2.4 0 1.6.1 4.1-1.9.6-.4 1.2-1 1.7-1.7.3-.3.4-.9 0-.8-.4 0-2.9 1-3.3-.6-.1-.4.1-4 2.6-2.2.2.2.7.6 1.1 1.3.4-.2 1.2-.6 2.1-1.4.3-.2.6-.4.6 0-.1.3-.2 2.4 2 1.8.3-.1 1.2-.3 1.9-2.1.2-.4.5-.3.4 0-.2.5-.5.9-.2 1.1.2.2.8.6 1.6.5.3 0 .5-.1.4-.3-.1-.3-.4-.7-.4-.7 0-.3.2-.8.2-.9s.1-.2.2-.1.8 1 .4 2.3zm-10.3.1c-.8-1-1.8-.4-1.9-.3s-.1.4.6.5c1 0 1.3-.2 1.3-.2z" fill-rule="evenodd"/><path d="m25 11.9c.5.1.4.3.3.5-.4.6-.9.9-1.3 1.1-.5.1-.3-.2 0-.3 0 0 .2-.2.6-.4.3-.3-.6-.3-1-.3s-.5.2-.6.3c-.2.2-.3.1-.2-.1.1-.1.2-.4.5-.7s1.1-.2 1.7-.1z"/><path d="m9.6 11.7s0 .3-.1.5c-.3 1.1-.1 1.6 0 1.7.3.5.7.2.9-.2 0-.2.1-.1.1 0q0 .1-.1.3c-.1.7-.4.9-.6.9-.5 0-.7-.5-.7-.8-.2-1.1.3-2.2.4-2.4.1-.3.2-.2.1 0z"/><path d="m44 11.3 1 .7q.1.1.1.1l-.6.8q-.1.1-.1.1l-1-.8-.5.7q-.1.1-.1.1l-1-.8q-.1 0 0-.1l.6-.8q0 0 0 0l1 .7.5-.7q.1 0 .1 0z"/><path d="m63 11.4s-.1.2-.1.4c-.3.9-.2 1.3-.1 1.4.2.4.5.2.7-.1 0-.2.1-.1.1-.1q-.1.1-.1.3c-.2.6-.4.7-.6.7-.3 0-.4-.5-.5-.7 0-.9.4-1.8.5-2s.2-.1.1.1z"/><path d="m52.9 10.8s-.1.3-.1.5c-.4 1-.2 1.4-.1 1.5.2.5.6.2.7-.1.1-.2.1-.1.1 0q0 0 0 .2c-.2.6-.5.8-.6.8-.4 0-.6-.5-.6-.7 0-1.1.4-2 .5-2.2.1-.3.2-.2.1 0z"/><path d="m24.5 9.5c-.1.1-.1.2-.2.3-.1.2-.2.2-.4.4-.2.1-5.5 2.2-5.6 2.2-.4.2-.3.1-.3 0q0-.1.1-.3c0-.2.1-.2.4-.4.2-.1 5.5-2.2 5.7-2.3.4-.2.3 0 .3.1z"/><path d="m29.8 21.4c-.7 1.2-2.5 1.4-3 1.5-1.9.1-3.2-1.7-3.2-1.7s-2.8 1.8-5.7 2.2c-1.4.1-2.8 0-3.9-.9-.9-.8-1.3-2-1.5-3.4q-.1.1-.2.1c-1.6.9-2.8 2.7-3.2 3.3-1.3 1.9-2.2 1.6-2.6 1.5-2.9-1-.8-5-.3-5.8-.4-.2-.6-.8-.6-1.1-.2-1.9.4-3.5.5-4 .2-.5.3-.3.2.1 0 0-.1.5-.2.9-.4 1.7-.1 2.5 0 2.7.5.8 1 .3 1.2-.3.1-.4.2-.2.2 0q-.1.1-.1.5c-.2 1.1-.6 1.3-.9 1.4-.3.3-.7 1.1-1 2.1-.5 2.6.7 2.5.8 2.5 1 .1 1.9-.9 2.2-1.3.3-.3 1.5-2.1 2.2-2.6.4-.3 1-.7 1.7-1.1q0-.4-.1-.7c-.1-1.7-.3-5-.7-6.9-.1-.8-.4-2.2-.5-2.4 0 0 .2-.7.3-1.1s.4.4.5.9c.7 2.8 1 7.3 1.2 9.8 1-.5 1.8-.9 2.1-1.1 0 0-.2-.2-.4-.4-.4-.9 0-1.5.4-2 .5-.6 1.1-.6 1.3-.5 1.1.4 1.9 1.3 2 1.5.1.1-.1.7-.1.9-.1.1-.1.2-.3.3-.1.1-.8.4-1.7.9 0 .3-.1.6-.1.6-.1.1-.2.1-.2.1q-.1-.1-.2-.5c-.9.5-2 1-2.7 1.4q.1.4.1.6c.5 2.2 2.4 2.5 2.9 2.6 3.3.5 6.3-1.5 6.5-1.7-1.4-1.4-2.2-.8-2.6-.7-.4.2-.1-.6-.1-.7.1-.2.1-.3.2-.4 3.2-2 6.5-.3 6.7-.2.3.2-.1 1-.1 1.2-.7.2-2.3 1.1-2.3 1.1.4.5 1.3.9 1.6 1 1.7.3 3.2-.8 3.3-1 .2-.2 0-.6-.3-1-.2-.4-1.2-1.8-1.4-2.5 0 0 .1-.8.1-1 .1-.2.1-.1.1-.1s1.3 1.1 1.6 1.3c.3.3-.3.3-.7.3 0 0 .8 1 1 1.4.5 1.1.2 2.1 0 2.4zm-14.6-6c.2.2.7.8.7.8s1.3-.6 1.3-.6c.1 0 .1-.1 0-.2 0-.1-1-.9-1.6-.6-.5.2-.5.4-.4.6zm9.9 3.7c-.4-.2-1.3-.5-2.4-.1.5.2 1 .8 1 .8.4-.2 1.4-.7 1.4-.7z" fill-rule="evenodd"/><path d="m9.2 7.3c.1.2 0 .6-.1.9-.1.1-.2 0-.3-.2 0 0-.1-.1-.3-.2-.5-.4-.7.4-.7.8-.1.3-.1 1.2-.2 1.8 0 .2-.2.2-.2 0-.4-1.2-1-1.7-1.1-1.8-.2-.1-.3 0-.3.1s-.1.1-.1.1c-.1-.1-.5-.3-.6-.5-.1-.1-.1-.5-.1-.7.1-.3.3-.4.4-.4 1.3.8 1.7 2.1 1.8 2.3.1-1 .1-1.8.7-2.5.4-.6 1 .2 1.1.3z"/><path d="m31.1 6.9s0 .3-.1.5c-.3 1.1-.1 1.6 0 1.7.3.6.7.3.8-.2 0-.2.1-.1.1 0q0 .1-.1.4c-.1.7-.3.8-.5.9-.4 0-.6-.6-.7-.9-.1-1.2.3-2.2.4-2.5s.2-.2.1.1z"/><path d="m52 6.7c0 .1 0 .1-.1.3s-.2.2-.4.3c-.1.2-5.4 3.2-5.5 3.3-.3.2-.3 0-.3-.1q0 0 .1-.2c0-.2.1-.2.3-.4.2-.1 5.5-3.2 5.7-3.3.3-.2.3 0 .2.1z"/><path d="m58.4 7c.2.2.1.7 0 .9s-.2 0-.4-.1c0 0-.1-.2-.2-.3-.5-.4-.7.4-.8.9 0 .3-.1 1.3-.2 1.8 0 .3-.2.2-.2.1-.4-1.3-1.1-1.8-1.2-1.9-.1-.2-.2 0-.2.1-.1.1-.1.1-.2 0-.1 0-.5-.3-.6-.4s-.1-.6-.1-.8c0-.3.3-.4.4-.4 1.4.8 1.8 2.2 1.9 2.4.1-1 .1-1.9.7-2.6.4-.6 1.1.2 1.1.3z"/><path d="m19.8 6.7s-.1.2-.1.4c-.3 1-.1 1.4 0 1.5.3.5.6.2.7-.2.1-.2.1-.1.1 0q0 .1 0 .3c-.2.6-.4.8-.6.8-.3 0-.5-.5-.6-.7-.1-1 .3-1.9.4-2.2 0-.3.1-.2.1.1z"/><path d="m63.7 9.3c-.1.1-.2 0-.3-.1 0-.1-.2-.3-.4-.4-.2.5-.2.5-1.1 1.3-1.9 1.7-4 2.3-4.1 2.3-.2 0-.2-.1 0-.2.7-.5 3.5-1.8 4.9-3.5 0 0-.5-.2-.8-.4-.3-.3-.1-1 .1-1.4.6-.8 1-.4 1.1-.2.5.8.2 1.6.2 1.6.3.1.5.4.4 1zm-1-2.1c-.1-.1-.2-.1-.5.3-.1.1 0 .2.2.3s.6.3.6.3c0-.1.1-.6-.3-.9z" fill-rule="evenodd"/><path d="m34.2 6.4c0 .1 1.2 3 1.3 3.2 0 .2-.1.2-.2.1s-.7-.6-.7-.6 1.2 7.1 1.3 7.8c.3 2.3-.1 3.4-.7 4.5-1.5 2.5-5.2 3.2-5.5 3.2-.3.1-.5 0-.1-.3 3.2-1.3 4.7-2.6 5.3-3.6q0-.1 0-.3c-.1-2-2.7-4.2-3-4.5-.4-.2-2.8-2.2-4.9-4.6-.4-.5-.9-1-1-1.1s-.1-.1-.1-.2-.1-1.2-.1-1.3c0-.2.1-.1.3.1.2.1 2.3 1.7 2.5 1.8.1.1-.1.1-.3.1 0 0-.7-.2-.7-.2q0 0 0 0c1.4 2.1 5.8 4.8 6.8 6.9.6 1.4.8 2.2.8 2.8q.1-.4.2-.6c.1-.7-.4-3.7-.5-4.2-.5-3.5-1.2-7.8-1.3-8.1 0 0 .4-.9.4-1 .1-.1.1 0 .2.1z"/><path d="m37.7 6.3c0 .1 1.2 3.1 1.3 3.3 0 .1-.1.2-.2.1s-.7-.7-.7-.7 1.1 8.1 1.2 8.3q.3 2.4.2 3.5c0 1-.2 1.4-.3 1.5-.1.2-.1.1-.1-.1 0-.6-.2-1.7-.3-2.9-.3-2.4-1.4-10.1-1.6-11.4 0-.2-.1-.6-.1-.6s.4-.9.4-1.1c.1-.1.1 0 .2.1z"/><path d="m43.7 9c0 .1-.1 0-.2-.1 0-.1-.4-.4-.4-.4s-.4.9-1.1 1.5c-1.3 1-2.4 1.1-2.5 1.2-.1 0-.2-.1 0-.3.9-.4 1.9-.8 3.3-2.5 0 0-.5-.2-.8-.4s-.1-1 .1-1.4c.5-.8 1-.4 1.1-.2.5.8.2 1.6.2 1.6.3.1.5.4.3 1zm-.9-2.1c-.1-.1-.2-.1-.5.3-.1.1 0 .2.2.3s.6.3.6.3c0-.1.1-.6-.3-.9z" fill-rule="evenodd"/><path d="m26 6.4c.1.1-.1.3-.2.4q0 .2-.2 0c-.2-.3-.6-.1-.7 0s-.1.2.3.5 1.1.1 1.3.1c.2-.1.3-.1.3 0 0 .2 0 .4-.1.4-.7.2-1.7.7-2 .8q0 0-.1.1c-.1 0-.1 0-.1-.1q0-.1 0-.3c.1-.2.3-.2.4-.3 0 0-.3-.3-.5-.5-.2-.3.3-1.1.8-1.3.5-.3.8.1.8.2z"/><path d="m17.6 5.8c.1.2.1.6 0 .8s-.2.1-.3-.1c0 0-.2-.1-.3-.2-.5-.4-.6.5-.7.9 0 .3.3 2.8-.7 3.6-.9.8-1.7 1.3-1.4 1 .2-.4 1.2-1.3 1.4-1.6.3-.3.8-.9.3-1.6-.1-.4-.5-.8-1.1-1.3-.1-.1-.2 0-.2.1s-.1.1-.2.1c0-.1-.4-.3-.6-.4-.1-.1-.1-.6-.1-.7 0-.3.2-.5.3-.4 1.4.6 1.9 1.9 2 2.1 0-1 0-1.9.5-2.6.4-.5 1 .2 1.1.3z"/><path d="m27.1 4.2c-.1.1-.1.2-.2.3-.1.2-.2.3-.4.4s-4.1 2.1-4.2 2.1c-.4.3-.3.1-.3 0q0-.1.1-.3c0-.2.1-.3.4-.4.2-.1 4.1-2.1 4.3-2.2.4-.2.3-.1.3.1z"/></g></svg>