<svg height="30" viewBox="0 0 70 30" width="70" xmlns="http://www.w3.org/2000/svg"><g fill="#191c4f"><path d="m8.8 20.5s-.1.2-.1.3c-.3.8-.2 1.2-.1 1.2.2.4.5.2.6-.1 0-.1.1 0 .1 0q-.1.1-.1.3c-.1.4-.3.5-.5.5-.3 0-.4-.3-.4-.5-.1-.9.3-1.6.4-1.8s.1-.1.1.1z"/><path d="m30.1 20.4s-.1.2-.2.3c-.2.8-.1 1.2 0 1.3.2.3.5.1.6-.2 0-.1.1 0 .1 0q-.1.1-.1.3c-.1.5-.3.6-.5.6-.3 0-.4-.4-.4-.6-.1-.9.3-1.6.4-1.8 0-.2.1-.1.1.1z"/><path d="m37.1 20.4s-.1.2-.1.3c-.3.8-.2 1.2-.1 1.3.2.3.5.1.6-.2 0-.1.1 0 .1 0q0 .1-.1.3c-.1.5-.3.6-.5.6-.3 0-.4-.4-.4-.6-.1-.9.3-1.6.4-1.8s.1-.1.1.1z"/><path d="m27.9 19.8c0 .1-.1.1-.1.3-.1.1-.2.2-.4.3-.1.1-4.5 1.8-4.5 1.8-.3.2-.3.1-.3 0q0-.1.1-.3c0-.1.1-.2.3-.3s4.5-1.8 4.7-1.9c.3-.1.2 0 .2.1z"/><path d="m20.1 19.9s-.1.3-.2.5c-.2 1 0 1.4 0 1.5.3.5.6.2.7-.1.1-.2.2-.1.1-.1q0 .1 0 .3c-.1.7-.3.8-.5.8-.4.1-.5-.4-.6-.7-.1-1.1.3-2 .3-2.3.1-.3.2-.2.2.1z"/><path d="m64.2 19s.1.2.1.4-.1.5-.2.8-.7.4-1.1.1c-.7 1.1-1.3.6-1.7.4-.6-.2-.7.2-.9.4-.8.8-2.1.8-2.5.8-.3.1 0-.1.1-.2 1.1-.4 1.8-.5 2.8-1.4.4-.4.7-.2.8-.1.9.4 1.1 0 1.2-.2.1-.1.3-.5.3-.7.1-.1.2 0 .2.1-.1.1-.1.3-.1.3.3.3.7.1.8 0 0 0 0-.3 0-.4q0-.1.1-.5c.1-.2.1 0 .1.2z"/><path d="m9.9 15 .9.7q0 0 0 0l-.5.8q-.1 0-.1 0l-.9-.7q-.1 0 0-.1l.5-.7q0 0 .1 0z"/><path d="m47.2 17.7c-.2.9-1.5 1.4-1.8 1.5-1.2.4-1.3-.8-1.2-1.6.1-.9.7-1.9.7-1.9-.1-.1-1.3-1-1.4-1.1s-.2-.2-.3-.3-.1-.1-.1-.1 0-.9.1-1c0-.1 0-.1.1 0 .1 0 1.4.5 1.5.6.2.1.1.2.1.2-.1 0-.6.1-.6.1l1.1.8s1.5-1.9 1.7-2.1c.1-.2.1-.1.1.1-.1.2-.4 1-.4 1.1-.1.2-.9 1.2-.9 1.2s1 .6 1.3 1c.4.6.1 1.2 0 1.5zm-1.8-1.7s-.7 1.1-.8 1.3c-.3.7.4.8.6.8.3 0 1.2-.5 1.6-.8.4-.4-1.2-1.2-1.4-1.3z" fill-rule="evenodd"/><path d="m7.6 12.9s-.1.3-.1.5c-.3 1-.1 1.5 0 1.6.2.5.6.2.7-.2 0-.2.1-.1.1 0q0 .1-.1.3c-.1.6-.3.8-.5.8-.3 0-.5-.5-.5-.7-.2-1.1.2-2.1.3-2.4.1-.2.1-.1.1.1z"/><path d="m65.6 16.6c-.1.2-.3 1.1-1.5.8-.3 0-.9-.2-1.2-.8-.3.4-1 1.5-2.4 1.3-.3 0-1.2-.4-1.3-1.6 0 0-1.1.9-1.7 1.2.1.4.1.9-.1 1.5-.2.5-2.7 3.3-4.7 3.8-.7.1-3.2.6-3.3-2.3q-.1-.9 0-1.4c-1.5 1.3-3.5 2.2-4 2.5-.8.4-3.8.9-4.3 1-.3 0-.4-.1-.2-.2s6.7-2.3 10.1-5.9q.1-.1 0-.4c-.1-.2-1.2-2.2-1.3-2.5-.1-.2-.2-.6-.3-.6q0-.2 0-.4c0-.1.1-.6.1-.7.1-.2.1-.1.2 0s1.1 1.1 1.2 1.3c.2.1.1.2 0 .2h-.5s.7 1.1.9 1.6c.4.9.2 1.7 0 2.1-.3.6-.9 1.2-1.5 1.7-.1.5-.3 2.9 1.8 3 .4 0 1.5.1 3.7-1.7.5-.4 1.1-.9 1.6-1.6.2-.3.3-.8 0-.7-.4 0-2.7.9-3-.5-.1-.4.1-3.7 2.3-2.1.2.2.7.6 1 1.2.4-.1 1.1-.6 2-1.3.2-.2.5-.3.5 0s-.2 2.2 1.8 1.7c.3-.1 1.2-.3 1.8-1.9.2-.4.4-.3.3 0-.2.4-.4.8-.2.9.2.2.8.7 1.5.6.3-.1.4-.2.3-.4s-.3-.6-.3-.6c0-.3.1-.7.2-.8 0-.1 0-.2.1-.1s.8 1 .4 2.1zm-9.3.1c-.8-.9-1.6-.4-1.7-.3-.2.1-.2.4.5.4.9.1 1.2-.1 1.2-.1z" fill-rule="evenodd"/><path d="m26.6 17.1c-.2 1.9-3.3 2.3-3.8 2.3-2 .2-2.9-1.6-2.9-1.6-.1.1-1.1.6-1.5.7v.6s-.1 1.1-.7 1.7c-3.4 3.6-5.3 2.7-5.6 2.5-1.6-.7-1.2-3.3-1-4-2.2 1.2-3.4 1-4 .8-3.3-.9-1.8-5.2-1.6-5.5s.3-.2.2 0c-.8 2.2 0 3.4.2 3.6 1.1 1.4 2.9.9 3.3.8 2.8-.9 4.4-2.6 4.6-2.9.2-.2 0-.5-.1-.7s-.7-1.3-1-2.1c-.1-.3-.3-.9-.3-1 0 0 .2-.7.3-.8q0-.1.1 0v.2c.1.1.9 1 1 1.1.1.2 0 .3-.1.2q-.1 0-.4-.1s.3.6.5 1.1c.2.4.5.6.4 1.8 0 1.4-1.1 2.1-1.3 2.3q-.8.6-1.5 1c-.8 3.2 1.7 3.3 2 3.3 2.3-.2 4.3-2.8 4.6-3.1.2-.4-.3-.5-.5-.4q-1.1.3-1.6.1c-.9-.2-1.1-1.6-.3-2.4.7-.8 1.3-.5 2 .2q.3.4.5.8c1-.4 1.2-.6 1.4-.7 0 0-.4-1.1-.4-1.3 0-.3 0-1.7.7-2.2 1.4-.9 1.7 1.5 1.8 1.8 0 1.5-1.1 2.1-1.1 2.1 1.8 2.4 5.2.1 5.5-.2.4-.2.2-.4.1-.5s-.4-.3-.9-.2c-.4 0-1.2.1-1.7-.2-.4-.4-.4-1.4.1-2.1.5-.8 1.3-.5 1.4-.4 2.1 1.6 1.7 3.1 1.6 3.4zm-1.1-1.8s-.3-.5-1.2-.6c-.3-.1-.7.1-.5.4s.9.3 1.2.2zm-8.2 2.6c-.5-.9-1.3-.7-1.4-.5-.2.1-.5.5.3.6s1.1-.1 1.1-.1zm3.7-2.2c.1-.1.1-.2.1-.4 0-.1-.6-1.2-1.1-.9-.6.4-.6.7-.4 1.1.1.4.4 1 .4 1 .3-.2.8-.7 1-.8z" fill-rule="evenodd"/><path d="m24.2 10.8.9.6q.1.1 0 .1l-.5.8q0 0-.1 0l-.9-.7q0 0 0-.1l.5-.7q.1-.1.1 0z"/><path d="m46 10.7.9.7q.1 0 0 0l-.5.8q0 0-.1 0l-.9-.7-.5.7q0 0 0 0l-.9-.7q-.1 0-.1 0l.6-.8q0 0 .1 0l.9.6.4-.6q.1 0 .1 0z"/><path d="m20.3 10.7.9.6q.1.1.1.1l-.6.8q0 0-.1 0l-.9-.7-.4.7q-.1 0-.1 0l-.9-.7q0 0 0-.1l.5-.7q.1-.1.1 0l.9.6.5-.6q0-.1 0 0z"/><path d="m63.2 10.7s0 .3-.1.4c-.3.8-.1 1.2-.1 1.3.3.4.6.2.7-.1 0-.2.1-.1.1 0q-.1.1-.1.2c-.1.5-.3.6-.5.6-.3 0-.4-.4-.5-.6 0-.9.4-1.6.4-1.8.1-.2.2-.1.1 0z"/><path d="m54.1 10.3s-.1.2-.2.4c-.3.9-.1 1.3-.1 1.4.3.4.6.2.7-.2.1-.1.1 0 .1 0q0 .1 0 .3c-.2.5-.4.7-.6.7-.3-.1-.5-.5-.5-.7 0-1 .4-1.8.5-2s.1-.1.1.1z"/><path d="m6.7 6.4s-.1.4-.2.6c-.4 1.2-.2 1.8-.1 1.9.3.6.8.3 1-.1 0-.3.1-.2.1-.1q0 .1-.1.4c-.2.8-.5.9-.8.9-.4 0-.6-.6-.6-.9-.1-1.3.4-2.5.6-2.8.1-.3.2-.2.1.1z"/><path d="m14.5 7.3c-.1.2-.3.9-.4 1.1-.3.9-.1 1.3-.1 1.4.3.5.6.2.7-.1.1-.2.2-.1.1 0q0 .1 0 .3c-.2.5-.4.7-.6.7-.4 0-.5-.5-.5-.7-.1-.9.2-1.7.4-2q-.1 0-.2.1c-.3.1-7.8 4.1-7.9 4.2-.4.2-.4.1-.3-.1q0 0 .1-.3c0-.2.1-.3.4-.4.2-.2 7.7-4.1 8-4.3.4-.2.3 0 .3.1z"/><path d="m19.5 9.2c-.1.1-.1 0-.2-.1 0 0-.3-.3-.3-.3s-.9 1.4-1.9 2.1c-1.1.8-2 1.1-2.1 1.1s-.1-.1.1-.2c.7-.4 2.4-1.7 3.6-3.1 0 0-.4-.2-.6-.4-.3-.1-.1-.8.1-1.1.4-.7.8-.3.9-.2.4.7.1 1.4.1 1.4.2.1.5.4.3.8zm-.7-1.8c-.1 0-.2 0-.5.3 0 .1 0 .2.2.3.1 0 .5.2.5.2 0-.1 0-.5-.2-.8z" fill-rule="evenodd"/><path d="m25.4 6.9c.1.2 0 .6 0 .8-.1.2-.2 0-.3-.1 0 0-.1-.1-.2-.2-.5-.3-.6.4-.6.8v1.6c0 .2-.1.2-.2.1-.4-1-1-1.5-1.1-1.6s-.1.1-.2.1q0 .1-.1.1s-.4-.2-.5-.3-.1-.5-.1-.7c0-.3.1-.4.2-.4 1.2.6 1.7 1.8 1.8 2 0-.9-.1-1.7.3-2.4.3-.5.9.2 1 .2z"/><path d="m53.3 6.5c-.1.1-.1.1-.1.3-.1.2-.2.2-.4.3-.1.1-4.9 2.9-5 2.9-.3.2-.3.1-.3 0q.1 0 .1-.3c0-.1.1-.1.3-.3.2-.1 5-2.8 5.2-3 .2-.1.2 0 .2.1z"/><path d="m59.1 6.8c.1.2 0 .6-.1.8 0 .2-.2 0-.3-.1 0 0-.1-.1-.2-.2-.5-.4-.7.3-.7.7-.1.3-.1 1.2-.2 1.7 0 .2-.1.2-.2.1-.3-1.2-1-1.7-1.1-1.8s-.2.1-.2.1c0 .1-.1.1-.1.1-.1-.1-.5-.3-.6-.4s-.1-.6 0-.7c0-.3.2-.4.3-.4 1.3.7 1.7 2 1.7 2.2.1-.9.1-1.8.6-2.4.5-.5 1.1.2 1.1.3z"/><path d="m32.4 14.2 1 .7q0 0 0 .1l-.6.7q0 0 0 0l-1-.7q0 0 0 0l.6-.8q0 0 0 0z"/><path d="m30.3 12.9s-.1.3-.1.5c-.3 1-.1 1.4 0 1.5.3.5.6.2.7-.1.1-.2.1-.1.1-.1q0 .1 0 .4c-.2.6-.4.7-.6.7-.3.1-.5-.4-.5-.7-.2-1.1.2-2 .3-2.3s.2-.2.1.1z"/><path d="m35.4 11.5c.2.2.2.5.2.6 0 0-.3-.1-.4-.2-.2 0-.2-.1-.2-.2.2-.3.3-.3.4-.2z"/><path d="m35.7 11.1c.3.6.1 1.2.1 1.2.2.1.4.3.3.7 0 .1-.1 0-.1-.1-.1 0-.3-.2-.3-.2s-.5 1.3-1.7 1.7c-.4.1-.4 0-.1-.2.4-.3 1.4-1 1.6-1.6 0 0-.4-.1-.7-.3-.2-.1-.1-.7 0-1 .4-.6.8-.3.9-.2z"/><path d="m35.6 7.7c-.1.1-.1.1-.2.3 0 .2-.2.2-.3.3-.2.1-5.5 2.9-5.6 3-.3.2-.3 0-.3-.1q0 0 .1-.3c0-.1.1-.2.3-.3.3-.1 5.5-2.9 5.7-3 .4-.2.3-.1.3.1z"/><path d="m63.8 8.8c0 .2-.1.1-.2-.1 0 0-.1-.2-.3-.3-.2.4-.2.5-1 1.2-1.8 1.5-3.7 2-3.8 2.1-.1 0-.2-.1 0-.2.6-.5 3.2-1.6 4.5-3.2 0 0-.4-.2-.7-.4s-.2-.9 0-1.2c.5-.7 1-.3 1-.2.5.7.2 1.4.2 1.4.3.2.5.5.3.9zm-.8-1.9c-.1 0-.2 0-.5.3 0 .1 0 .2.2.3s.5.3.5.3c.1-.1.1-.6-.2-.9z" fill-rule="evenodd"/><path d="m40.5 19.6c-.3.5-.9.4-1 .3-.7-.2-1.1-.8-1.3-1.3-.6.3-1.1.7-1.4.8-.5.2-2.5 1.2-3.6-.8-.6 1.5-2.2 1.6-2.7 1.6-2.4-.6-2.4-4.8-2.5-5.4-.2-3.6-.9-6.9-1.1-7.3-.1-.4.2-.9.3-1.1.1-.1.1-.2.2 0 .6 1.3 1 6.4 1 6.4s.4 3.5.5 4c.4 2 1.6 2.2 2 2.2 1.6.1 2.2-1.3 2.5-1.8.3-.4.3.1.3.3.5 2.1 3 .9 3.4.7.2-.1.5-.3.8-.5-.2-.4-.2-.8-.3-1.1-.1-.7-1.2-7.3-1.2-7.3 0-.6-.1-1.1-.2-1.5 0-.4-.1-.5-.1-.6 0 0 .3-.8.4-.9 0-.1.1-.1.1 0s1.2 2.8 1.2 3c.1.1-.1.2-.1.1-.1-.1-.7-.6-.7-.6s.9 5.7 1 6.3.3 1.5.5 2.2q.3-.1.5-.2c.4-.1.8-.2 1.1-.1.2.1.7.3.8.8.1.6-.2 1.5-.4 1.8zm-.8-1.5q-.3 0-.7.1c.3.4.7.7 1.2.6.3-.1-.1-.6-.5-.7z" fill-rule="evenodd"/><path d="m40.6 6.3c0 .1 1.1 2.8 1.2 3 0 .1-.1.2-.2.1 0-.1-.6-.6-.6-.6s1 6.2 1 6.5q.3 2.1.2 3.1c0 1-.2 1.3-.2 1.4-.1.1-.2.1-.1-.1-.1-.5-.2-1.5-.3-2.6-.3-2.2-1.2-8.2-1.3-9.4-.1-.1-.2-.5-.2-.5s.3-.8.4-.9c0-.1 0-.1.1 0z"/><path d="m30.7 6.4s-.1.2-.1.4c-.3.8-.1 1.1-.1 1.2.2.4.5.2.6-.1.1-.2.1-.1.1 0q0 0-.1.2c-.1.5-.3.6-.4.6-.3 0-.5-.4-.5-.6 0-.8.3-1.5.4-1.8.1-.2.2-.1.1.1z"/><path d="m45.7 8.6c0 .1-.1 0-.2-.1 0-.1-.3-.3-.3-.3s-.4.8-1.1 1.3c-1.1.9-2.2 1-2.2 1.1-.1 0-.2-.1 0-.2.8-.5 1.7-.8 3-2.4 0 0-.5-.1-.7-.3-.3-.2-.2-.9 0-1.2.5-.8 1-.4 1-.3.5.7.2 1.5.2 1.5.3.1.5.4.3.9zm-.8-1.9c-.1-.1-.2-.1-.5.3-.1.1 0 .2.2.2.2.1.5.3.5.3.1-.1.1-.6-.2-.8z" fill-rule="evenodd"/></g></svg>