<svg height="30" viewBox="0 0 70 30" width="70" xmlns="http://www.w3.org/2000/svg"><g fill="#191c4f"><path d="m15.2 22.1c0 .2 0 .2-.1.3-.1.2-.2.3-.4.4s-3.3 1.3-3.4 1.3c-.3.2-.3.1-.3 0q.1-.1.1-.3c.1-.2.1-.2.4-.3.2-.1 3.3-1.3 3.5-1.4.3-.2.3-.1.2 0z"/><path d="m26.1 20.3s0 .3-.1.5c-.3.9-.2 1.4-.1 1.5.3.4.6.2.7-.2.1-.1.2 0 .1 0q0 .1 0 .3c-.2.6-.4.7-.6.7-.4 0-.5-.4-.5-.7-.1-1 .3-1.9.4-2.1.1-.3.2-.2.1 0z"/><path d="m36.5 19.8s-.1.3-.2.5c-.3.9-.1 1.4-.1 1.5.3.4.6.2.8-.2 0-.2.1-.1.1 0q0 .1-.1.3c-.1.6-.4.7-.6.7-.3 0-.5-.5-.5-.7-.1-1 .4-1.9.5-2.2.1-.2.2-.1.1.1z"/><path d="m64.1 19.3v.5c0 .2-.1.6-.2.9s-.8.4-1.2.1c-.8 1.2-1.4.6-1.8.5-.7-.3-.9.1-1 .3-.9 1-2.4.9-2.8 1-.3 0 0-.2.1-.3 1.2-.4 2-.5 3-1.5.5-.5.8-.3 1-.2 1 .5 1.2 0 1.3-.1s.3-.7.4-.8c.1-.2.1-.1.1.1 0 .1-.1.3-.1.4.4.3.8 0 .9-.1 0 0 0-.3 0-.4q0-.1.1-.5c.1-.3.2-.1.2.1z"/><path d="m16.2 18.3 1 .7q.1 0 .1.1l-.6.8q-.1.1-.1 0l-1-.7q-.1 0-.1-.1l.6-.8q.1-.1.1 0z"/><path d="m7.7 17.2s0 .3-.1.5c-.3 1.1-.1 1.6 0 1.7.3.5.7.2.8-.2.1-.2.1-.1.1 0q0 .1 0 .3c-.2.7-.5.9-.7.9-.4 0-.6-.5-.6-.8-.1-1.2.3-2.2.4-2.5.1-.2.2-.1.1.1z"/><path d="m9.7 15.5 1.1.7q0 0 0 .1l-.6.8q-.1 0-.1 0l-1-.7q-.1-.1 0-.1l.6-.8q0-.1 0 0z"/><path d="m15.9 13.3c.7 1.1.6 1.7.6 2.1-.3 1.6-1.6 1.7-2 1.7 0 0 .2.6.1 1.5-.1 1.4-1.9 2.5-2.3 2.8-3.2 2.2-5.5 1.2-5.8 1-2.4-1.3-1.2-5.3-1-5.7s.3 0 .2.2c-.3 1-.3 1.9-.3 2.3.2 2.3 2.7 2.5 2.9 2.5 2.6.1 5-2.2 5.5-2.7s.4-.7.4-1.1c0-.3-.6-1.4-.9-2 0 0 0-.8.1-.9 0-.2.1-.1.2 0s.5.7.5.7c1 .4 1.7-.2 1.8-.3q.1-.1 0-.3c0-.1-.3-.7-.5-1 0 0 .2-.7.2-.8.1-.2.1-.3.3 0z"/><path d="m45.3 17.9c-.3 1-1.7 1.6-2 1.7-1.3.4-1.4-.9-1.3-1.8.1-1 .8-2.1.8-2.1-.1-.1-1.4-1.1-1.5-1.2s-.3-.3-.4-.4c-.1 0-.1-.1-.1-.1s0-.9 0-1.1c0-.1.1 0 .2 0 .1.1 1.5.6 1.7.7.1.1.1.2 0 .2-.1.1-.6.2-.6.2l1.2.8s1.7-2.1 1.8-2.3c.2-.2.2-.1.1.1 0 .2-.3 1.1-.4 1.3-.1.1-.9 1.3-.9 1.3s1.1.6 1.4 1c.4.7.1 1.3 0 1.7zm-2-1.9s-.8 1.3-.9 1.5c-.3.8.4.9.7.9.3-.1 1.3-.6 1.7-1 .5-.3-1.3-1.2-1.5-1.4z" fill-rule="evenodd"/><path d="m65.6 16.7c-.1.2-.3 1.2-1.7.9-.3 0-1-.2-1.3-.9-.3.4-1.1 1.7-2.6 1.5-.3-.1-1.4-.5-1.5-1.9 0 0-1.2 1.1-1.8 1.4.1.5 0 1-.2 1.6s-2.9 3.7-5.2 4.2c-.7.1-3.5.7-3.6-2.5-.1-.6 0-1.2 0-1.5-1.7 1.4-3.8 2.4-4.4 2.7-.9.4-4.1 1-4.7 1.1-.4 0-.5-.1-.2-.2.2-.1 7.4-2.5 11.1-6.5q.1-.2-.1-.4c-.1-.2-1.2-2.5-1.3-2.8s-.3-.6-.4-.7q0-.2 0-.4c0-.1.1-.7.2-.8 0-.2.1-.1.1 0 .1.1 1.3 1.3 1.4 1.4.2.2.1.2 0 .2h-.6s.8 1.3 1 1.8c.4 1.1.2 1.9 0 2.3-.3.7-.9 1.4-1.7 2-.1.5-.3 3.1 2.1 3.2.4 0 1.6.2 4-1.8.6-.5 1.3-1.1 1.8-1.8.2-.3.4-.9 0-.8-.4 0-3 1-3.3-.6-.1-.4.1-4 2.6-2.2.2.2.7.6 1.1 1.3.4-.2 1.2-.6 2.1-1.4.3-.2.5-.4.5 0 0 .3-.2 2.4 2.1 1.8.3-.1 1.2-.3 1.9-2.1.2-.4.5-.3.3 0-.1.5-.4.9-.2 1.1.3.2.9.6 1.7.5.3 0 .5-.1.4-.3-.1-.3-.4-.7-.4-.7 0-.3.2-.8.2-.9s.1-.2.2-.1.8 1 .4 2.3zm-10.3.1c-.8-1-1.8-.4-1.9-.3s-.2.4.6.5c1 0 1.3-.2 1.3-.2z" fill-rule="evenodd"/><path d="m5.8 10.8s0 .5-.1.8c-.4 1.7-.1 2.4 0 2.6.4.8.9.4 1.1-.3 0-.3.1-.1.1 0q0 .1 0 .5c-.2 1-.6 1.3-.9 1.3-.5 0-.8-.8-.8-1.2-.2-1.8.3-3.3.5-3.8.1-.4.2-.2.1.1z"/><path d="m44 10.2 1 .7q0 .1 0 .1l-.6.8q0 .1-.1 0l-1-.7-.5.7q0 .1-.1 0l-1-.7q0 0 0-.1l.6-.8q0 0 .1 0l1 .7.5-.7q0 0 .1 0z"/><path d="m63 10.2s-.1.3-.1.5c-.4.9-.2 1.3-.1 1.4.2.4.5.2.7-.2 0-.1.1 0 .1 0q-.1.1-.1.3c-.2.5-.4.7-.6.7-.3 0-.4-.5-.5-.7 0-1 .4-1.8.5-2 .1-.3.2-.2.1 0z"/><path d="m52.9 9.7s-.1.3-.2.5c-.3.9-.1 1.4-.1 1.5.3.5.6.2.8-.2 0-.1.1 0 .1 0q0 .1-.1.3c-.1.6-.4.8-.6.8-.3 0-.5-.5-.5-.8-.1-1 .4-1.9.5-2.2.1-.2.2-.1.1.1z"/><path d="m15.9 11c0 .1-.1 0-.2-.1 0 0-.3-.3-.3-.3s-1 1.5-2.1 2.3c-1.2.8-2.2 1.2-2.3 1.2s-.1-.1.1-.2c.7-.4 2.6-1.9 3.9-3.4 0 0-.4-.2-.6-.4-.3-.2-.2-1 .1-1.3.5-.7.9-.3 1-.2.4.8.1 1.5.1 1.5.3.2.5.4.3.9zm-.8-1.9c-.1-.1-.2-.1-.5.3 0 .1 0 .2.2.2.2.1.5.3.5.3.1-.1.1-.5-.2-.8z" fill-rule="evenodd"/><path d="m11.9 6.5c.2.2.1.7 0 .9s-.2 0-.3-.1c0 0-.2-.1-.3-.2-.5-.5-.7.4-.7.8-.1.3-.1 1.3-.1 1.9q0 0 0 .1c-.1.5-.2 1.1-1 1.6-1 .7-1.1.7-1.2.8 0 0-.1 0 .1-.2.1-.1 1.9-1.7 1.7-2.5-.2-.9-1-1.5-1.1-1.6s-.2 0-.2.1c-.1.1-.1.1-.2.1-.1-.1-.5-.3-.6-.4-.2-.2-.1-.6-.1-.8 0-.4.2-.5.3-.4 1.4.7 1.9 2.1 2 2.3.1-1 .1-2 .6-2.7.4-.6 1.1.2 1.1.3z"/><path d="m33 13.3 1 .7q.1 0 0 .1l-.6.8q0 0-.1 0l-.9-.7-.6.7q0 0 0 0l-1.1-.7q0-.1 0-.1l.6-.8q.1-.1.1 0l1 .7.5-.7q.1-.1.1 0z"/><path d="m25.1 12.6 1 .8q.1 0 0 0l-.6.9q0 0 0 0l-1.1-.8q0 0 0-.1l.6-.8q.1 0 .1 0z"/><path d="m21.6 12.6s-.1.3-.2.5c-.3 1.2 0 1.7 0 1.8.4.5.7.2.9-.2 0-.2.1-.1.1 0q0 .1-.1.3c-.1.7-.4.9-.6.9-.4 0-.6-.5-.6-.8-.2-1.2.2-2.3.3-2.6s.3-.2.2.1z"/><path d="m32.6 9.7s.1.5.2.7c.2.3.3.5.2.9s-.3.7-.4.7c-.3.1-.7.1-.9-.3-.4.7-.8.8-1.1.7-.3-.2-.4-.7-.3-.9 0-.1-.1-.7-.1-.8s.1-.2.1-.3c.1-.2.2-.1.2.1 0 .1-.1.8 0 1.1.3.4.9 0 1-.2s-.1-1-.1-1q-.1-.1-.1-.1s.1-.3.1-.4q.1-.2.2 0c0 .1.1.3.2 1s.7.6.9.5c.1-.1.1-.1.1-.2-.1-.1-.3-.7-.4-.9-.1-.3-.1-.4 0-.7.1-.2.1 0 .2.1z"/><path d="m33 7.2c0 .1-.1.1-.1.3-.1.2-.3.3-.5.4s-6.2 3.2-6.3 3.3c-.4.2-.3.1-.3-.1q0 0 .1-.3c0-.2.1-.3.4-.4s6.2-3.2 6.4-3.3c.4-.2.4-.1.3.1z"/><path d="m52 5.6c-.1.1-.1.1-.1.3-.1.2-.2.2-.4.3s-5.5 3.2-5.6 3.3c-.3.2-.3 0-.2-.1q0 0 0-.3c.1-.1.1-.2.4-.3.2-.1 5.4-3.2 5.6-3.3.4-.2.3-.1.3.1z"/><path d="m20.8 5.5s-.1.3-.1.5c-.4.9-.2 1.4-.1 1.5.2.4.6.2.7-.2.1-.1.1-.1.1 0q0 .1-.1.3c-.1.6-.4.7-.5.7-.4 0-.6-.5-.6-.7 0-1 .4-1.9.5-2.1.1-.3.2-.2.1 0z"/><path d="m58.4 5.9c.1.2.1.6 0 .9-.1.1-.3 0-.4-.2 0 0-.1-.1-.2-.2-.6-.5-.8.4-.8.8-.1.3-.1 1.3-.2 1.9 0 .2-.2.2-.3.1-.3-1.3-1-1.9-1.1-2-.2-.1-.3.1-.3.2h-.1c-.1 0-.5-.3-.6-.4-.2-.2-.1-.6-.1-.8 0-.3.2-.5.3-.4 1.5.8 1.9 2.2 2 2.4.1-1 .1-2 .7-2.7.4-.6 1.1.3 1.1.4z"/><path d="m63.6 8.1c0 .2-.1.1-.2-.1 0-.1-.2-.2-.4-.3-.2.4-.2.5-1.1 1.3-1.9 1.6-4.1 2.2-4.2 2.3-.1 0-.1-.1.1-.2.6-.6 3.4-1.8 4.9-3.5 0 0-.5-.2-.8-.5-.3-.2-.1-1 .1-1.3.5-.8 1-.4 1.1-.3.5.8.2 1.6.2 1.6.3.2.5.5.3 1zm-.9-2.1c-.1 0-.2 0-.5.4-.1.1 0 .2.2.3.2 0 .6.2.6.2 0-.1.1-.6-.3-.9z" fill-rule="evenodd"/><path d="m33.8 20.1c-.9-.1-1.3-.9-1.6-1.3-2.1 3.1-4.4 1.2-5.1.7-.1-.1-.3-.3-.6-.5-.7.4-1.2.7-1.4.8-.5.3-3.8 2-5.8.3-.1-.1-1.1-.9-1.3-4 0-.8-.6-6.6-1.3-8.8-.1-.3-.1-.3 0-.7.1-.5.2-1.2.3-.8 1.1 2.6 1.5 8.8 1.5 9.3.1.5.3 3.4 1.5 4 1.6.8 3.8.2 5.7-.7-.5-.4-1-.7-1.5-1-.3-.2-.8.1-1.1.2-.2.1-.4.1-.3-.1 0-.2.2-.9.5-1.1s3.7-1.8 6.3.1c-.1.4-.2.9-.2.9-.2 0-1 .4-1.9 1 .2.1.4.2.4.2 2.7 1.9 4.3-1 4.6-1.4.4-.5.3.2.2.5.1.9 1.1 1.1 1.3 1.1.7.1 1.5-.3 1.6-.4.2-.6-.8-5.8-.8-6-.3-1.9-.6-3.5-.6-3.5-.1-.7-.2-1.4-.3-1.9-.1-.4-.2-.6-.2-.7 0 0 .4-.9.5-1 0-.1.1 0 .1.1s1.2 2.7 1.3 2.9c0 .2-.1.2-.2.1s-.7-.7-.7-.7 1.4 8.2 1.5 9.4c.2 2.9-2 3-2.4 3zm-5.9-3.1c-.1-.1-1-.3-2.4-.1.5.2.9.5 1.3.8q.6-.3 1.1-.7z" fill-rule="evenodd"/><path d="m37.6 5.4c0 .1 1.3 3.1 1.3 3.2.1.2-.1.3-.1.2-.1-.2-.7-.7-.7-.7s.9 6.8.9 7.1q.3 2.3.3 3.5c-.1 1-.3 1.4-.3 1.5-.1.1-.2.1-.2-.1 0-.6-.1-1.7-.3-2.9-.3-2.4-1.2-8.9-1.3-10.3-.1-.1-.2-.5-.2-.6 0 0 .4-.9.5-1 0-.1 0 0 .1.1z"/><path d="m29.8 5.4c0 .2 0 .2-.1.4s-.3.2-.5.4c-.2.1-9.6 4.8-9.7 4.9-.4.2-.3.1-.3-.1q0 0 .1-.3c0-.2.1-.3.4-.4s9.6-4.9 9.8-5c.4-.2.4 0 .3.1z"/><path d="m43.7 7.8c-.1.2-.1.1-.2-.1-.1 0-.4-.3-.4-.3s-.5.9-1.2 1.4c-1.3 1-2.4 1.2-2.5 1.2-.1.1-.1 0 .1-.2.8-.5 1.8-.8 3.2-2.5 0 0-.4-.2-.7-.4-.4-.3-.2-1.1 0-1.4.6-.8 1-.4 1.1-.3.5.8.2 1.6.2 1.6.3.2.6.5.4 1zm-.9-2.1c-.1 0-.3 0-.6.4-.1.1 0 .2.2.3s.6.2.6.2c0-.1.1-.6-.2-.9z" fill-rule="evenodd"/></g></svg>