<svg height="30" viewBox="0 0 70 30" width="70" xmlns="http://www.w3.org/2000/svg"><g fill="#191c4f"><path d="m22.8 22.3c.4.1.4.6.3.8-.2.9-.9 1.5-1 1.7-.2.2-.2.1-.1-.1 0 0 .1-.2.3-.3.5-.7.5-1.2.5-1.3-.1-.5-.5-.3-.7-.1-.1.2-.2.1-.1 0q0-.1.1-.2c.3-.5.6-.5.7-.5z"/><path d="m16.5 21.8c0 .1 0 .1-.1.3s-.2.2-.4.3c-.1.1-4.3 2.1-4.4 2.1-.3.2-.3.1-.2 0q0 0 0-.3c.1-.1.1-.2.4-.3.2-.1 4.2-2.1 4.5-2.2s.3 0 .2.1z"/><path d="m36.2 21.6c.3.1.3.6.3.8-.3.9-.9 1.5-1.1 1.7-.1.2-.2.1 0-.1 0 0 .1-.2.2-.3.6-.8.5-1.2.5-1.3-.1-.5-.4-.4-.7-.1-.1.2-.1.1-.1 0q.1-.1.2-.2c.3-.5.5-.6.7-.5z"/><path d="m64.1 20v.5c0 .2-.1.6-.2.9s-.8.4-1.2.1c-.8 1.2-1.4.6-1.8.5-.7-.3-.9.1-1 .3-.9 1-2.4.9-2.8 1-.4 0 0-.2.1-.3 1.2-.4 2-.5 3-1.5.5-.5.8-.3 1-.2 1 .5 1.2 0 1.3-.1s.3-.7.4-.8c0-.2.1-.1.1.1 0 .1-.1.3-.1.4.4.3.8 0 .9-.1 0 0 0-.3 0-.4q0-.1.1-.5c.1-.3.2-.1.2.1z"/><path d="m18.4 17s-.1.4-.1.6c-.4 1.1-.1 1.6-.1 1.7.4.6.8.3 1-.2.1-.2.1-.1.1 0q0 .1 0 .3c-.2.7-.5.9-.8.9-.4 0-.7-.5-.7-.8-.1-1.2.4-2.2.5-2.5s.2-.2.1 0z"/><path d="m9.3 16.7s-.1.3-.1.5c-.3 1-.1 1.4 0 1.5.3.5.7.2.8-.2 0-.2.1-.1.1 0q0 .1-.1.3c-.1.6-.3.8-.5.8-.4 0-.6-.4-.6-.7-.2-1 .2-2 .3-2.3.1-.2.2-.1.1.1z"/><g fill-rule="evenodd"><path d="m14.5 20.6s-5.5 5-8.7 1.7c-1.5-1.6-.4-4.9-.2-5.4.3-.5.4-.2.3.2-1.2 4 1.3 4.8 1.9 5 2.7.5 5.8-2 6.2-2.3 1.3-.9 1.3-1.4 1.2-1.5-.4-1.1-1.8-.7-3-.8-1.2-.2-.7-2-.2-2.6.3-.5 1.9-1.7 3.2 1.3 1.3 2.8-.4 4.1-.7 4.4zm-.2-4.1s-.8-1.2-1.7-.9c-.3.1-.4.5-.1.7.4.2.6.1 1 .1.3 0 .7 0 .8.1z"/><path d="m45.3 18.6c-.3 1-1.7 1.6-2 1.7-1.3.4-1.4-.9-1.3-1.8.1-1 .7-2.1.7-2.1 0-.1-1.4-1.1-1.5-1.2s-.2-.3-.3-.4c-.1 0-.1-.1-.1-.1s0-.9 0-1.1c0-.1 0 0 .2 0 .1.1 1.5.6 1.7.7.1.1.1.2 0 .2-.1.1-.6.2-.6.2l1.2.8s1.6-2.1 1.8-2.3.2-.1.1.1c0 .2-.3 1.1-.4 1.3-.1.1-.9 1.3-.9 1.3s1.1.6 1.3 1c.5.7.2 1.3.1 1.7zm-2.1-1.9s-.7 1.3-.8 1.5c-.3.8.4.9.7.9.3-.1 1.3-.6 1.7-1 .5-.3-1.3-1.2-1.6-1.4z"/><path d="m65.6 17.4c-.1.2-.3 1.2-1.7.9-.3 0-1-.2-1.3-.9-.3.4-1.1 1.7-2.6 1.4-.3 0-1.4-.4-1.5-1.8 0 0-1.2 1.1-1.8 1.4.1.5 0 1-.2 1.6s-3 3.7-5.2 4.2c-.7.1-3.5.7-3.6-2.5-.1-.6 0-1.2 0-1.5-1.7 1.4-3.8 2.4-4.4 2.7-.9.4-4.2 1-4.7 1.1-.4 0-.5-.1-.3-.2.3-.1 7.4-2.5 11.2-6.5.1-.1 0-.2-.1-.4s-1.2-2.5-1.3-2.8c-.2-.3-.3-.6-.4-.7q-.1-.2 0-.4c0-.1.1-.7.2-.8 0-.2.1-.1.1 0 .1.1 1.3 1.2 1.4 1.4s0 .2 0 .2c-.1 0-.6 0-.6 0s.7 1.3 1 1.8c.4 1.1.2 1.9 0 2.3-.3.7-1 1.4-1.7 2-.1.5-.3 3.1 2.1 3.2.4 0 1.6.2 4-1.8.6-.5 1.2-1.1 1.8-1.8.2-.3.3-.9-.1-.8-.3 0-2.9 1-3.3-.6 0-.4.2-4 2.6-2.2.3.2.8.6 1.1 1.3.5-.2 1.2-.6 2.2-1.4.3-.2.5-.4.5 0 0 .3-.2 2.4 2.1 1.8.3-.1 1.2-.3 1.9-2.1.2-.4.5-.3.3 0-.1.5-.4.8-.2 1.1.3.2.9.6 1.7.5.3 0 .5-.1.4-.4-.1-.2-.4-.6-.4-.6 0-.3.2-.8.2-.9s.1-.2.2-.1.8 1 .4 2.3zm-10.3.1c-.8-1.1-1.8-.4-1.9-.3s-.2.4.6.5c.9 0 1.3-.2 1.3-.2z"/></g><path d="m12.3 11.6 1.1.8q0 0 0 0l-.6.9q-.1 0-.1 0l-1-.7-.5.7q-.1 0-.1 0l-1-.8q-.1 0 0-.1l.6-.8q0 0 .1 0l.9.7.6-.7q0 0 0 0z"/><path d="m43.9 10.9 1.1.7q0 .1 0 .1l-.6.8q-.1.1-.1 0l-1-.7-.5.7q-.1.1-.1 0l-1-.7q-.1 0 0-.1l.6-.8q0-.1.1 0l.9.7.6-.7q0-.1 0 0z"/><path d="m63 10.9s-.1.3-.1.5c-.4.9-.2 1.3-.1 1.3.2.5.5.3.7-.1 0-.1.1-.1.1 0q-.1.1-.1.3c-.2.5-.4.7-.6.7-.3 0-.4-.5-.5-.7 0-1 .4-1.8.5-2 .1-.3.2-.2.1 0z"/><path d="m6 10.7s-.2.5-.3.9c-.5 1.7-.2 2.5-.2 2.6.5.9 1 .4 1.3-.2.1-.3.1-.2.1 0q0 .1-.1.5c-.3 1.1-.6 1.3-.9 1.3-.6 0-.9-.9-.9-1.3-.1-1.9.6-3.4.8-3.9.2-.4.3-.2.2.1z"/><path d="m52.9 10.4s-.1.3-.2.5c-.3.9-.1 1.4-.1 1.5.3.5.6.2.8-.2 0-.1.1 0 .1 0q0 .1-.1.3c-.2.6-.4.8-.6.8-.4-.1-.5-.5-.5-.8-.1-1 .3-1.9.4-2.2.1-.2.2-.1.2.1z"/><path d="m25.1 13s-.1.2-.2.4c-.3 1.1-.1 1.5-.1 1.6.3.5.7.3.8-.1.1-.2.2-.1.2 0q-.1.1-.1.3c-.2.6-.5.8-.7.8-.3 0-.5-.5-.5-.8-.1-1.1.4-2 .5-2.3s.2-.2.1.1z"/><path d="m11.6 7.2c.1.2.1.6 0 .9 0 .1-.2 0-.3-.2 0 0-.1-.1-.2-.2-.5-.3-.6.5-.6.9v1.8c0 .2-.1.2-.2.1-.4-1.2-1.1-1.7-1.2-1.8s-.2.1-.2.2-.1.1-.1 0c-.1 0-.5-.2-.6-.3s-.1-.6-.1-.8c0-.3.1-.4.2-.4 1.3.7 1.9 2 1.9 2.2 0-1-.1-1.9.4-2.6.3-.6.9.1 1 .2z"/><path d="m36.1 17.7c.1 2.3-1 3-1.4 3.2-2.4 1.3-6.1 1.7-6.6 1.8-4.6.5-5.1-2.6-5.3-3.5 0 0-.7 1.7-1.3 2.5-1.5 2-5.3 2.6-5.6 2.7-.4.1-.5 0-.2-.2.2-.1 3.2-1.7 3.7-2.1 1.4-.9 2.2-1.9 2.6-2.8q-.1-.5-.4-1c-1-2.1-3.8-4.2-4-4.4-1.6-1.4-3.4-4.1-3.5-4.2-.1-.2-.2-.3-.3-.4-.1 0-.2-.1-.2-.3s0-.9 0-1c.1-.2.1-.2.2 0 .2.1 2.1 1.6 2.3 1.8.3.2.1.3-.1.2-.1 0-.5-.1-.7-.2 0 0 .4.6.8 1.1.7 1 2.2 2.4 2.5 2.7.4.3 2.1 1.7 2.9 2.9.5.6.7 1.3.7 1.9.3-1.1.1-1.9.1-2.2-.1-.7-1-6.8-1.1-7.6 0 0 .2-1 .3-1.3 0-.3.2-.2.3.2.6 2.3 1.2 9.1 1.4 10.3.5 3.7 2.9 3.6 2.9 3.6s.6-.8 1.4-1.8c.1-.6 0-2 0-2.6-.1-.7-.9-6.1-1.1-6.7-.1-.7-.2-1.4-.2-1.9-.1-.4-.2-.6-.2-.7 0 0 .4-.9.5-1 0-.1 0 0 .1.1 0 .1 1.1 2.5 1.2 2.7 0 .1-.1.2-.2.1s-.7-.7-.7-.7.7 3.9.9 4.7c.5 2.6.3 4.6.2 5.4.8-.8 1.7-1.7 2.5-2.1 2.4-1 3.5.6 3.6 1.1.3 1-.5 2.2-.6 2.4-.1.1 1.7-.8 1.9-.9.2-.2.1-.8 0-1.5 0-.7-1.2-7.7-1.2-7.7-.1-.7-.2-1.4-.2-1.9-.1-.4-.2-.6-.2-.7 0 0 .4-.9.5-1 0-.1 0 0 .1.1 0 .1 1.2 2.8 1.2 2.9.1.2 0 .2-.1.1s-.7-.6-.7-.6 1.3 7.8 1.3 8.5zm-2.6 1.6c.1-.1.1-.2 0-.4-1.6-1.8-3.4-.8-3.8-.6-1.6 1.1-2.8 3.1-2.8 3.1.4 0 4.4 0 6.6-2.1z" fill-rule="evenodd"/><path d="m37.3 6.8c.1.1 1.3 3.1 1.4 3.2 0 .2-.1.3-.2.2s-.7-.7-.7-.7 1.1 8.1 1.2 8.3q.3 2.4.2 3.5c-.1 1.1-.2 1.4-.3 1.5-.1.2-.1.1-.1 0 0-.6-.2-1.7-.3-2.9-.3-2.5-1.4-10.2-1.6-11.5 0-.2-.1-.6-.1-.6s.4-1 .4-1.1c.1-.1.1 0 .1.1z"/><path d="m32.8 12.5s.1.5.3.7c.1.3.2.5.1.9 0 .4-.3.7-.4.8-.3.1-.7.1-1-.3-.3.6-.8.8-1.1.6-.3-.1-.3-.7-.3-.9 0-.1 0-.7 0-.8s0-.2.1-.3c0-.2.1-.1.1.1 0 .1-.1.9.1 1.1.3.5.9.1 1-.2.1-.2-.2-1-.2-1q0-.1 0-.1c0-.1 0-.3.1-.4q.1-.2.2 0c0 .1 0 .3.2 1 .1.7.7.6.9.5.1 0 .1-.1.1-.2-.1-.1-.3-.7-.4-.9-.1-.3-.1-.5 0-.7s.1-.1.2.1z"/><path d="m33.5 9.4c0 .1-.1.2-.2.3 0 .2-.1.2-.3.3-.2.2-4.3 1.7-4.4 1.7-.3.2-.3.1-.3 0q.1 0 .1-.3c.1-.2.1-.2.4-.3.2-.1 4.2-1.7 4.5-1.8s.2 0 .2.1z"/><path d="m30.8 6.6s0 .3-.1.5c-.3.8-.1 1.2-.1 1.3.3.4.6.2.7-.1.1-.2.1-.1.1 0q0 .1-.1.2c-.1.6-.3.7-.5.7-.3 0-.5-.4-.5-.6-.1-1 .3-1.8.4-2 .1-.3.2-.2.1 0z"/><path d="m52 6.3c-.1.1-.1.1-.2.3 0 .1-.1.2-.3.3s-5.5 3.2-5.6 3.2c-.3.3-.3.1-.2 0q0 0 0-.3c0-.1.1-.2.3-.3.3-.2 5.5-3.2 5.7-3.3.4-.2.3-.1.3.1z"/><path d="m58.4 6.6c.1.2 0 .6-.1.9 0 .1-.2 0-.3-.2 0 0-.1-.1-.2-.2-.6-.5-.8.4-.8.8-.1.3-.1 1.3-.2 1.9 0 .2-.2.2-.3.1-.3-1.3-1-1.9-1.1-2-.2-.1-.3.1-.3.2h-.1c-.1 0-.5-.3-.6-.4-.2-.2-.1-.6-.1-.8 0-.4.2-.5.3-.4 1.5.8 1.9 2.2 2 2.4.1-1 .1-2 .6-2.7.5-.6 1.2.3 1.2.4z"/><path d="m63.6 8.8c0 .2-.1.1-.2-.1 0-.1-.2-.2-.4-.3-.2.4-.2.5-1.1 1.3-1.9 1.6-4.1 2.2-4.2 2.3-.1 0-.1-.1.1-.2.6-.6 3.4-1.8 4.9-3.6 0 0-.5-.1-.8-.4-.3-.2-.1-1 .1-1.3.5-.9 1-.4 1.1-.3.5.8.2 1.6.2 1.6.3.2.5.5.3 1zm-.9-2.1c-.1 0-.2-.1-.5.3-.1.2 0 .3.2.3.2.1.6.3.6.3 0-.1.1-.6-.3-.9z" fill-rule="evenodd"/><path d="m43.7 8.5c-.1.2-.2.1-.3-.1 0 0-.4-.3-.4-.3s-.4.9-1.1 1.4c-1.3 1-2.4 1.2-2.5 1.2-.1.1-.2-.1 0-.2.9-.5 1.9-.8 3.3-2.6 0 0-.5-.1-.8-.4-.3-.2-.1-1 .1-1.3.5-.9 1-.4 1.1-.3.5.8.2 1.6.2 1.6.3.2.5.5.4 1zm-1-2.1c-.1 0-.2-.1-.5.3-.1.2 0 .3.2.4.2 0 .6.2.6.2 0-.1.1-.6-.3-.9z" fill-rule="evenodd"/><path d="m24 5.2c-.1.1-.1.1-.2.3 0 .2-.1.2-.3.3-.1.1-4.7 2.2-5.3 2.6s-.5.6-.4.7c.5.1.7.4.5.9-.1 0-.1.1-.1 0-.1 0-.2-.2-.4-.2-.4-.1-.5-.6-.4-1.1.1-.3.3-.6.5-.8.5-.4 5.6-2.7 5.8-2.8.3-.2.3-.1.3.1z"/></g></svg>