<svg height="30" viewBox="0 0 70 30" width="70" xmlns="http://www.w3.org/2000/svg"><g fill="#191c4f"><path d="m16.9 25c-.1.1-.1.2-.2.3-.1.2-.2.3-.4.4s-4.8 1.9-5 2c-.4.2-.3 0-.3-.1q.1 0 .1-.3c.1-.2.2-.2.4-.4.3-.1 4.9-1.9 5.1-2 .4-.2.4-.1.3.1z"/><path d="m28.7 23.5s0 .3-.1.5c-.4 1.1-.2 1.6-.1 1.7.3.5.7.2.8-.2.1-.2.1-.1.1 0q0 .1-.1.3c-.1.7-.4.8-.6.8-.4 0-.6-.5-.6-.7-.1-1.2.4-2.2.5-2.5.1-.2.2-.1.1.1z"/><path d="m63.8 21.8v.6c0 .2-.1.6-.2 1-.2.4-.9.5-1.5.2-.8 1.3-1.6.6-2.1.5-.7-.3-1 .2-1.2.4-1 1.1-2.8 1.1-3.2 1.1-.4.1-.1-.2.1-.3 1.4-.5 2.3-.6 3.6-1.8.5-.5.9-.3 1.1-.2 1.2.5 1.4 0 1.5-.1.2-.2.4-.8.5-1s.2 0 .1.1c0 .2-.1.4-.1.5.5.3 1 0 1.1-.1 0 0 0-.3 0-.5q-.1-.1.1-.6c.1-.3.2 0 .2.2z"/><path d="m41.8 20.1c-.4 1.2-2.1 1.8-2.5 2-1.4.4-1.6-1.1-1.5-2.1.1-1.1.9-2.5.9-2.5s-1.6-1.3-1.7-1.4c-.2-.1-.3-.3-.5-.4-.1-.1-.1-.2-.1-.2s0-1.1.1-1.2c0-.1 0-.1.1 0 .2 0 1.9.7 2 .8.2.1.2.2.1.2-.1.1-.7.2-.7.2l1.4 1s1.9-2.5 2.1-2.8c.2-.2.2-.1.1.2 0 .2-.4 1.3-.5 1.5 0 .1-1 1.5-1 1.5s1.3.8 1.6 1.3c.5.7.2 1.5.1 1.9zm-2.5-2.2s-.8 1.5-1 1.8c-.3.8.5 1 .8 1 .4-.1 1.5-.7 2.1-1.1.5-.5-1.6-1.5-1.9-1.7z" fill-rule="evenodd"/><path d="m65.6 18.7c-.1.3-.4 1.4-2 1.1-.4-.1-1.2-.3-1.5-1.1-.4.5-1.3 2-3.1 1.7-.4-.1-1.7-.5-1.7-2.1 0 0-1.5 1.2-2.2 1.5.1.6 0 1.3-.2 2-.3.7-3.5 4.3-6.1 4.9-.8.2-4.2.8-4.3-2.9 0-.8 0-1.4.1-1.8-2.1 1.6-4.5 2.8-5.2 3.2-1.1.5-4.9 1.1-5.6 1.2-.4.1-.5 0-.2-.2.2-.1 8.7-3 13-7.6.1-.1.1-.3 0-.5-.1-.3-1.5-2.9-1.6-3.2-.2-.4-.3-.8-.4-.9q-.1-.2-.1-.4c.1-.2.2-.9.2-1 .1-.2.2-.1.2 0 .1.1 1.5 1.5 1.7 1.7.1.1 0 .2-.1.2h-.7s.9 1.5 1.2 2.1c.5 1.3.2 2.3.1 2.7-.5.8-1.2 1.6-2 2.3-.2.7-.5 3.7 2.4 3.8.4 0 1.9.2 4.7-2.2.7-.5 1.4-1.2 2.1-2.1.3-.3.4-.9-.1-.9-.4.1-3.4 1.2-3.8-.6-.1-.5.1-4.8 3-2.7.3.2.9.7 1.3 1.6.5-.2 1.4-.8 2.5-1.7.4-.3.7-.4.7 0s-.3 2.9 2.4 2.1c.3-.1 1.4-.3 2.2-2.4.3-.5.6-.4.4 0-.2.5-.5 1-.2 1.2.3.3 1 .8 2 .7.3 0 .5-.2.4-.5-.2-.2-.5-.8-.5-.8.1-.3.2-.9.3-1 0-.1.1-.3.2-.1.1.1 1 1.2.5 2.7zm-12.1.2c-1-1.3-2.1-.6-2.3-.4-.1.1-.2.5.8.5 1.1.1 1.5-.1 1.5-.1z" fill-rule="evenodd"/><path d="m12.6 13.6c.5.1.2.9.2 1.1s-.1.4-.3.3c-.2 0-.6-.1-1.1.5s.2.6 1.3.7c.9 0 .6 1.6.1 2.5-.2.4-.9.6-1.4.5-.7-.1-1.2-.2-1.5-.4-.2-.2.2-.3.8-.3.7.1 1.6-.2 1.9-.6.1-.2 0-.4-.2-.5-.3 0-.8 0-1.3 0-.9 0-.4-1.5.1-2.6.4-1 .9-1.2 1.4-1.2z"/><path d="m40.1 11 1.2.9q.1.1 0 .1l-.7 1q0 0 0 0l-1.2-.9-.6.9q-.1 0-.1 0l-1.2-.9q-.1 0 0-.1l.7-.9q0-.1.1-.1l1.1.9.6-.8q.1-.1.1-.1z"/><path d="m62.5 11.1s-.1.3-.1.5c-.4 1.1-.2 1.5-.2 1.7.3.5.7.2.9-.2 0-.2.1-.1.1 0q0 .1-.1.3c-.2.7-.4.8-.6.8-.4 0-.6-.5-.6-.8-.1-1.1.4-2.1.5-2.4.1-.2.2-.1.1.1z"/><path d="m50.6 10.5s-.1.3-.2.5c-.3 1.2-.1 1.7-.1 1.8.3.6.8.3.9-.1.1-.3.2-.2.1-.1q0 .1 0 .4c-.2.7-.5.8-.7.8-.5 0-.7-.5-.7-.8-.1-1.2.5-2.3.6-2.6s.2-.2.1.1z"/><path d="m12.9 6.7c.1.2 0 .7-.1 1-.1.2-.2 0-.4-.2 0 0-.1-.1-.3-.2-.6-.6-.8.4-.9.9 0 .4-.1 1.6-.2 2.2q0 .1 0 .1c-.1.6-.3 1.3-1.2 1.9-1.2.8-1.3.8-1.4.9-.1 0-.2-.1 0-.2s2.4-2 2.2-2.9c-.3-1.1-1.1-1.9-1.2-2-.2-.1-.3.1-.3.2s-.1.1-.2 0c-.1 0-.5-.3-.7-.5-.2-.1-.1-.7-.1-.9 0-.4.3-.5.4-.5 1.7 1 2.2 2.6 2.3 2.9.1-1.2.1-2.3.7-3.2.6-.6 1.3.3 1.4.5z"/><path d="m33.1 5.8c.1.1 1.5 3.6 1.6 3.8s-.1.2-.2.1-.8-.8-.8-.8 1.3 9.6 1.3 9.8c.3 1.9.4 3.3.3 4.2-.1 1.1-.3 1.6-.3 1.7-.1.2-.2.1-.2-.1 0-.7-.2-1.9-.3-3.4-.4-2.8-1.7-12-1.9-13.5 0-.2-.1-.6-.1-.7 0 0 .4-1.1.5-1.2 0-.1.1-.1.1.1z"/><path d="m26.4 11.9c.3.3.2.8.2 1 0 0-.4-.3-.6-.4-.2 0-.3-.2-.2-.3.3-.4.5-.4.6-.3z"/><path d="m26.8 11.3c.5.9.2 1.8.2 1.8.2.2.5.5.3 1.1-.1.1-.1 0-.2-.2-.1 0-.5-.3-.5-.3s-.9 2.2-3.6 3.3c-.2 0-.2-.1 0-.3.9-.6 2.3-1.7 3.3-3.2 0 0-.5-.2-.8-.5-.4-.2-.2-1 .1-1.4.6-.9 1.1-.4 1.2-.3z"/><path d="m24.3 6.3s-.1.3-.1.5c-.4 1.2-.2 1.7-.2 1.8.3.6.8.3.9-.1.1-.3.2-.1.1-.1q0 .1 0 .4c-.2.7-.5.9-.7.9-.5-.1-.7-.6-.7-.9-.1-1.2.5-2.3.6-2.6s.2-.1.1.1z"/><path d="m32.9 23.7c-1.5.3-2.3-.8-2.5-1.1q-.2-.2-.4-.7-.2.1-.4.2c-1.5.8-2.7 1.2-3.6 1.3-2.3.2-3.5-1.8-3.5-1.8-.1 1-.2 1.6-.4 2-.8 1.4-2.9 1.3-3.7.6-1-.8-1.5-3.2-1.5-3.2-.4 1.7-2.9 2.9-3.8 3.3-3.8 1.5-5.6.8-6.4.4-3.2-1.9-.9-5.8-.6-6.5q0-.1.1-.1c-.6-.2-.9-1-.9-1.5-.3-2.2.5-4.2.6-4.7.2-.6.4-.4.3.1 0 0-.2.6-.3 1-.5 2.1-.1 3 0 3.2.6 1 1.2.5 1.4-.3.1-.4.2-.2.2-.1q0 .2-.1.7c-.2 1.2-.6 1.5-1 1.6q0 .1 0 .2c-2.2 5.9 2.6 5.7 3.6 5.6 3.3-.5 5.9-2.7 6.3-3.1.6-.6.2-2.5.1-3.3-.1-.7-1.2-7.8-1.4-9.3-.2-1.4.1-2 .1-2.2.1-.2.2-.2.3 0 0 .2.4 1.4.6 2.3.1.9 1.2 9.1 1.4 10.2.5 2.9.9 3.9 1.2 4.1 1.1 1 2.8.1 3.1-.1.2-.2.1-1.5 0-2.3s-1.8-11.6-1.9-12.1c0-.4 0-.7 0-1 .1-.3.1-1 .2-1.3s.2-.3.3 0 .5 2.3.6 3c.2.8 1.4 8.6 1.5 9.5.5 2.1 1 2.6 1.2 2.8 2.4 1.7 5.2 0 5.7-.3q.1 0 .3-.1c-1.2-3.8-1.9-11.2-1.9-11.2-.1-.7-.2-1.3-.2-1.8-.1-.5-.2-.8-.2-.8s.4-1.1.5-1.2c.1-.2.1-.1.1.1.1.1 1.5 3.5 1.5 3.7.1.2 0 .2-.2.1-.1-.1-.7-.7-.7-.7s1.2 8.8 1.7 10.6q.1.4.2.7c.6-.2 1-.4 1.7-.3 1.1.1 1.5.9 1.5 1.2.6 2.2-.5 2.6-.7 2.6zm-.2-2c-.5-.4-1.1-.4-1.6-.3q.2.2.3.3c.4.4 1 .6 1.4.6.3 0 .1-.4-.1-.6z" fill-rule="evenodd"/><path d="m49.6 5.6c-.1.2-.1.2-.2.4s-.2.3-.4.4-6.4 3.7-6.6 3.8c-.3.2-.3.1-.2-.1q0 0 0-.3c.1-.2.2-.2.4-.4.3-.2 6.4-3.7 6.7-3.9.4-.2.3 0 .3.1z"/><path d="m57.1 6c.2.3.1.8 0 1s-.3 0-.4-.1c0 0-.2-.2-.3-.3-.7-.5-.9.5-1 1 0 .3-.1 1.5-.2 2.2 0 .3-.2.2-.3 0-.4-1.4-1.2-2.1-1.4-2.2-.1-.2-.2 0-.2.1-.1.1-.1.1-.2.1-.1-.1-.6-.4-.7-.5-.2-.2-.1-.7-.1-1s.3-.5.4-.4c1.7.9 2.2 2.6 2.3 2.8.1-1.2.1-2.3.8-3.1.5-.7 1.3.3 1.3.4z"/><path d="m63.3 8.6c-.1.2-.1.1-.3-.1-.1-.1-.2-.3-.4-.4-.3.5-.3.6-1.3 1.5-2.3 2-4.8 2.7-5 2.7-.1.1-.1 0 .1-.2.8-.6 4.1-2.1 5.7-4.2 0 0-.5-.2-.8-.4-.4-.3-.2-1.2 0-1.6.7-1 1.2-.5 1.3-.3.6.9.3 1.9.3 1.9.3.2.6.5.4 1.1zm-1.1-2.4c-.1-.1-.3-.1-.6.3-.1.2 0 .3.2.4s.7.3.7.3c0-.1.1-.7-.3-1z" fill-rule="evenodd"/><path d="m39.8 8.3c-.1.1-.1 0-.2-.1s-.5-.4-.5-.4-.5 1-1.4 1.7c-1.5 1.1-2.8 1.3-2.9 1.4-.1 0-.2-.1.1-.3.9-.5 2.1-.9 3.8-3 0 0-.6-.2-.9-.5-.4-.2-.2-1.2.1-1.5.6-1 1.2-.5 1.3-.4.5 1 .2 1.9.2 1.9.3.2.6.6.4 1.2zm-1.1-2.5c-.1-.1-.3-.1-.6.4-.1.1 0 .3.2.4.3.1.7.3.7.3.1-.2.1-.7-.3-1.1z" fill-rule="evenodd"/><path d="m21 3.1c.7.1.6.4.4.6-.5.8-1.2 1.1-1.7 1.4-.5.2-.2-.2.1-.4 0 0 .3-.2.7-.5s-.7-.3-1.2-.3-.6.2-.8.3c-.2.2-.3.1-.2-.1s.2-.5.6-.9c.3-.3 1.5-.2 2.1-.1z"/></g></svg>