<svg height="30" viewBox="0 0 70 30" width="70" xmlns="http://www.w3.org/2000/svg"><g fill="#191c4f"><path d="m14.8 22.4c0 .1-.1.1-.2.3 0 .2-.1.2-.3.3-.3.1-4.1 1.4-4.3 1.5-.3.1-.3 0-.2-.1q0 0 .1-.3c0-.2.1-.2.3-.3.3-.1 4.1-1.4 4.4-1.5s.2 0 .2.1z"/><path d="m35.7 21s-.1.3-.2.5c-.3 1-.1 1.5-.1 1.6.3.6.7.3.8-.1.1-.2.2-.1.1 0q0 .1 0 .3c-.2.6-.5.8-.7.8-.4 0-.6-.5-.6-.8 0-1.1.4-2.1.6-2.4.1-.3.2-.1.1.1z"/><path d="m20.8 20.5s-.1.3-.2.5c-.3 1.1-.1 1.6-.1 1.7.3.5.7.2.8-.2.1-.2.2-.1.2 0q-.1.1-.1.3c-.2.7-.5.8-.7.8-.4 0-.5-.5-.5-.8-.1-1.1.4-2.1.5-2.3.1-.3.2-.2.1 0z"/><path d="m64 19.7s.1.3.1.6c0 .2-.2.5-.3.8-.1.4-.8.5-1.2.2-.8 1.2-1.5.6-1.8.4-.7-.2-.9.2-1.1.4-.9 1-2.5.9-2.8 1-.4 0-.1-.2.1-.3 1.2-.4 2-.5 3.1-1.5.5-.5.8-.3 1-.2 1 .4 1.2 0 1.3-.2.1-.1.3-.6.4-.8s.2 0 .1.1c0 .1 0 .3-.1.4.5.3.9 0 1 0 0 0 0-.4-.1-.5q0-.1.2-.5c.1-.3.1 0 .1.1z"/><path d="m20 18.9c-.1 1.8-3 2.2-3.4 2.3-3.1.5-3.9-1.7-4.2-2.4-.1-.3-.3-.3-.5-.3-.3.1-.9.5-1 .5-1.3 1-2 3.7-2.1 3.9-.3.9-1 .9-1.2.8-2.8-.9-2.2-5.2-2.1-5.5.2-.3.3 0 .2.2-.3 2.6 1.1 3.7 1.4 3.9.9.7 1.4-.2 1.5-.5.1-.2.9-2.2 1-2.5.7-1.3 1.7-1.8 2.3-2s.8.3.9.5c.6 1.6 1.8 2 2.1 2.1 2.1.5 4.3-.8 4.5-1s.1-.2.1-.4c-.3-.8-1.3-.7-1.5-.6-.9.1-1.6-.1-1.7-.3-.9-1.1.1-2.5.2-2.7 1-.7 2-.3 2.7.8.3.3.9 1.5.8 3.2zm-1.3-2.2c-.5-.9-1.3-1-1.7-.8-.3.2-.5.6 0 .8.4.1.7 0 1 0 .3-.1.7 0 .7 0z" fill-rule="evenodd"/><path d="m11.6 14 1.1.8q0 0 0 0l-.6.9q-.1 0-.1 0l-1-.7-.6.7q0 0-.1 0l-1-.8q0 0 0 0l.6-.9q0 0 .1 0l1 .7.5-.7q.1 0 .1 0z"/><path d="m44.8 18.3c-.4 1-1.8 1.6-2.2 1.7-1.3.4-1.4-.9-1.3-1.9.1-.9.8-2.1.8-2.1-.1-.1-1.5-1.1-1.6-1.2-.1-.2-.2-.3-.3-.4-.2-.1-.1-.1-.1-.1s0-1 0-1.1 0-.1.2 0c.1 0 1.6.6 1.7.7.2.1.1.2 0 .2s-.6.1-.6.1l1.3.9s1.7-2.2 1.8-2.4c.2-.2.2-.1.1.1 0 .2-.3 1.2-.4 1.3-.1.2-.9 1.4-.9 1.4s1.1.7 1.4 1.1c.5.6.2 1.3.1 1.7zm-2.2-2s-.7 1.3-.9 1.6c-.3.7.5.9.8.9.2-.1 1.3-.6 1.7-1 .5-.4-1.3-1.3-1.6-1.5z" fill-rule="evenodd"/><path d="m18.1 11.9 1.1.8q0 0 0 .1l-.6.8q-.1 0-.1 0l-1-.7-.6.7q0 0 0 0l-1.1-.7q0-.1 0-.1l.6-.9q0 0 .1 0l1 .8.5-.8q.1 0 .1 0z"/><path d="m5.7 12.2s-.1.4-.1.8c-.5 1.6-.1 2.4-.1 2.6.5.8 1 .3 1.2-.3 0-.4.1-.2.1-.1q0 .2 0 .6c-.2 1-.6 1.2-.9 1.3-.5 0-.8-.8-.9-1.2-.2-1.8.4-3.4.5-3.9.2-.4.3-.2.2.2z"/><path d="m65.6 17.1c-.1.2-.3 1.2-1.7.9-.4-.1-1.1-.2-1.4-1-.3.4-1.1 1.8-2.7 1.5-.3 0-1.4-.4-1.5-1.8 0 0-1.3 1-1.9 1.3.1.5.1 1.1-.2 1.7-.2.7-3 3.8-5.3 4.3-.7.2-3.6.7-3.8-2.5q0-1 .1-1.6c-1.8 1.4-3.9 2.5-4.6 2.8-.9.4-4.2 1-4.8 1.1-.4.1-.5 0-.2-.2.2-.1 7.6-2.6 11.4-6.6q.2-.2 0-.5c-.1-.2-1.3-2.5-1.4-2.8-.2-.3-.3-.7-.4-.8q-.1-.2 0-.4c0-.1.1-.7.2-.8 0-.2.1-.1.1 0 .1.1 1.3 1.3 1.5 1.4.1.2 0 .3-.1.3 0 0-.6-.1-.6-.1s.8 1.4 1 1.9c.5 1.1.2 2 .1 2.4-.4.7-1 1.4-1.8 2-.1.6-.3 3.2 2.1 3.3.4 0 1.7.2 4.2-1.9.6-.5 1.3-1 1.8-1.8.2-.3.4-.9 0-.8-.4 0-3 1-3.4-.6-.1-.4.1-4.2 2.7-2.3.2.2.7.6 1.1 1.3.4-.2 1.2-.6 2.2-1.4.3-.3.5-.4.5 0 0 .3-.2 2.5 2.2 1.8.2 0 1.2-.2 1.9-2.1.2-.4.5-.4.4 0-.2.5-.5.9-.2 1.1.2.2.9.7 1.7.6.3-.1.4-.2.3-.4-.1-.3-.3-.7-.3-.7 0-.3.1-.8.2-.9 0-.2.1-.3.2-.2s.8 1.1.4 2.5zm-10.6.1c-.8-1.1-1.8-.5-2-.4-.1.1-.1.5.7.5.9.1 1.3-.1 1.3-.1z" fill-rule="evenodd"/><path d="m43.3 10.3 1.1.8q0 0 0 .1l-.6.8q-.1.1-.1 0l-1-.7-.6.7q0 .1 0 0l-1.1-.7q0-.1 0-.1l.6-.9q.1 0 .1 0l1 .8.5-.8q.1 0 .1 0z"/><path d="m62.9 10.4s-.1.3-.1.4c-.3.9-.2 1.4-.1 1.5.2.4.6.2.7-.2.1-.1.1 0 .1 0q0 .1-.1.3c-.1.6-.4.7-.5.7-.4 0-.5-.5-.6-.7 0-1 .4-1.8.5-2.1.1-.2.2-.1.1.1z"/><path d="m52.5 9.8s-.1.3-.2.5c-.3 1-.1 1.5-.1 1.6.3.5.7.2.8-.2.1-.2.1-.1.1 0q0 .1 0 .3c-.2.6-.5.8-.7.8-.3 0-.5-.5-.5-.8-.1-1 .4-2 .5-2.2.1-.3.2-.2.1 0z"/><path d="m17.6 8.4s.1.5.3.8c.2.2.3.5.2 1-.1.4-.3.7-.5.8-.3.1-.7.1-1-.4-.4.8-.9.9-1.3.8-.3-.2-.3-.8-.3-1s0-.8 0-.9c-.1-.1 0-.2.1-.4.1-.1.1-.1.1.1s-.1 1 .1 1.3c.3.5 1 0 1.1-.2s-.1-1.1-.2-1.2q0 0 0-.1s0-.3.1-.4q.1-.2.2 0c.1.1.1.3.2 1.1s.9.7 1 .6c.2-.1.2-.2.1-.3 0-.1-.3-.7-.4-1s-.1-.5 0-.7c.1-.3.1-.1.2.1z"/><path d="m10.2 6.7c.1.2 0 .6-.1.8 0 .2-.2.1-.3-.1 0 0-.1-.1-.2-.2-.6-.5-.8.4-.8.8-.1.3-.1 1.3-.2 1.8 0 .3-.2.2-.2.1-.4-1.2-1.1-1.8-1.2-1.9s-.2 0-.2.1-.1.1-.2.1c0-.1-.4-.3-.6-.5-.1-.1-.1-.5 0-.7 0-.4.2-.5.3-.4 1.4.8 1.8 2.1 1.9 2.4.1-1.1.1-2 .7-2.7.4-.5 1.1.3 1.1.4z"/><path d="m26.2 16.5s-.1.3-.2.5c-.4 1.1-.2 1.6-.1 1.7.3.5.7.2.8-.2.1-.2.1-.1.1 0q0 .1-.1.3c-.1.7-.4.8-.6.8-.4 0-.6-.5-.6-.8-.1-1.1.4-2.1.5-2.3.1-.3.2-.2.2 0z"/><path d="m30.7 11.5c0 .1-.1.2-.1.4-.1.2-.3.2-.5.4-.2.1-6 3-6.1 3-.4.3-.4.1-.3 0q0 0 0-.4c.1-.2.2-.2.4-.4.3-.2 6-3 6.3-3.1.4-.3.4-.1.3.1z"/><path d="m35.9 5.6c.1.1 1.3 3.2 1.4 3.4 0 .1-.1.2-.2.1s-.7-.7-.7-.7 1.1 8.3 1.2 8.6q.1.6.1 1.2c1.5.1 2.8.2 3.1.2 0 0-.4 1-.6 1.3-.8-.2-1.6-.2-2.4-.1q0 .6 0 1c0 1-.2 1.4-.3 1.5-.1.2-.1.1-.1-.1 0-.5-.1-1.3-.2-2.3-1.4.4-2.7 1-3.2 1.3-3.3 1.6-5.7 2.1-6.5 2.1-3.9.5-4.9-1.9-5.2-2.8-.4-1.3-.8-5.4-.9-6.3-.3-2.3-1-6.8-1.1-7-.1-.3-.1-.4 0-.6s.1-.5.2-.7.2-.3.3.1c.4 1.1.9 4.2 1 5.2.1.9.7 6.4.8 7 .5 3.9 3.6 3.9 4.2 3.9 3 .1 7.6-2.2 8.1-2.5-5.5-1.1-6.1-.6-6.2-.6-.1.1-.3 0-.2-.2s.3-.7.4-.8c.1-.2.2-.2.4-.3.7-.1 3.2-.3 3.2-.4.2-.5-.4-3.6-.4-3.6-.4-2.2-1-5.7-1-6.2-.1-.4-.2-.7-.2-.7s.4-.9.5-1.1c0-.1 0 0 .1.1 0 .1 1.3 3.2 1.4 3.4 0 .1-.1.2-.2.1s-.7-.7-.7-.7 1.1 6.5 1.2 7.3c.2.9-.1 1.7-.3 2 .5.1 2.3.3 4.1.4-.5-3.1-1.4-9.7-1.5-10.9 0-.1-.1-.5-.2-.6 0 0 .4-.9.5-1.1 0-.1.1 0 .1.1z"/><path d="m51.6 5.6c-.1.1-.1.1-.1.3-.1.2-.2.2-.4.3-.2.2-5.7 3.3-5.8 3.4-.3.2-.2.1-.2-.1q0 0 .1-.3c0-.1.1-.2.3-.3s5.6-3.3 5.8-3.4c.4-.2.3-.1.3.1z"/><path d="m28.4 6c.1.2 0 .6-.1.9-.1.1-.2 0-.3-.2 0 0-.1-.1-.3-.2-.5-.5-.7.4-.8.8 0 .4-.1 1.4-.2 2q0 0 0 .1c-.1.4-.2 1.1-1 1.6-1.1.7-1.2.7-1.2.7-.1.1-.2 0 0-.1.1-.1 2.1-1.7 1.9-2.6s-1-1.6-1.1-1.7-.2.1-.3.2c0 .1 0 .1-.1 0-.1 0-.5-.3-.6-.4-.2-.2-.1-.6-.1-.8 0-.4.2-.5.3-.4 1.5.8 1.9 2.2 2 2.5.1-1.1.1-2.1.7-2.8.5-.6 1.1.3 1.2.4z"/><path d="m58.2 5.9c.1.2 0 .7-.1.9 0 .2-.2 0-.3-.1 0 0-.1-.2-.3-.3-.5-.4-.7.5-.8.9 0 .3-.1 1.3-.2 1.9 0 .3-.2.2-.2.1-.4-1.3-1.1-1.9-1.2-2-.2-.1-.3 0-.3.1s-.1.1-.1.1c-.1-.1-.5-.3-.7-.5-.1-.1-.1-.6 0-.8 0-.3.2-.4.3-.4 1.5.8 1.9 2.3 2 2.5.1-1.1.1-2 .7-2.8.5-.6 1.2.3 1.2.4z"/><path d="m63.6 8.2c-.1.2-.1.1-.2-.1-.1-.1-.3-.2-.5-.3-.2.4-.2.5-1.1 1.3-2 1.7-4.2 2.3-4.3 2.3-.1.1-.2 0 0-.2.7-.5 3.6-1.8 5.1-3.6 0 0-.5-.2-.8-.4s-.1-1 .1-1.4c.5-.8 1-.4 1.1-.3.5.9.2 1.7.2 1.7.3.2.6.5.4 1zm-1-2.1c-.1-.1-.2-.1-.5.3-.1.1 0 .2.2.3s.6.3.6.3c0-.1.1-.6-.3-.9z" fill-rule="evenodd"/><path d="m19.2 5.4c0 .1-.1.2-.1.4-.1.2-.2.2-.4.3s-6.8 3.2-7.5 3.6-.6.7-.4.8c.5.1.7.5.4 1 0 .1 0 .1-.1 0 0 0-.2-.2-.4-.2-.4-.1-.5-.7-.4-1.2.1-.4.4-.7.6-.9.6-.5 7.8-3.8 8-3.9.4-.2.4-.1.3.1z"/><path d="m43 7.9c0 .2-.1.1-.2-.1 0 0-.4-.3-.4-.3s-.4.9-1.2 1.5c-1.3 1-2.5 1.2-2.5 1.2-.2 0-.2-.1 0-.2.9-.5 1.9-.9 3.3-2.7 0 0-.4-.2-.7-.4-.4-.2-.2-1 0-1.4.6-.8 1.1-.4 1.2-.3.5.9.2 1.7.2 1.7.3.2.5.5.3 1zm-.9-2.1c-.1-.1-.3-.1-.6.3 0 .1.1.2.3.3.1.1.6.3.6.3 0-.1 0-.6-.3-.9z" fill-rule="evenodd"/></g></svg>