<svg height="30" viewBox="0 0 70 30" width="70" xmlns="http://www.w3.org/2000/svg"><g fill="#191c4f"><path d="m14.7 23c-.1.1-.1.2-.2.3 0 .2-.1.2-.3.3-.2.2-4 1.2-4.1 1.3-.3.2-.3.1-.2-.1q0 0 0-.2c.1-.2.2-.2.4-.3.2-.2 3.9-1.2 4.1-1.3.4-.2.3-.1.3 0z"/><path d="m24 21.2s-.1.2-.2.4c-.3.9-.1 1.3-.1 1.4.3.5.6.2.7-.1.1-.2.2-.1.1 0q0 .1 0 .3c-.2.5-.4.6-.6.6-.3 0-.5-.4-.5-.6-.1-1 .4-1.9.4-2.1.1-.2.2-.1.2.1z"/><path d="m64.1 20.7s.1.3.1.5-.2.5-.3.8-.7.4-1.1.2c-.7 1.1-1.4.5-1.8.4-.6-.3-.8.1-1 .3-.8.9-2.3.9-2.6.9-.4.1-.1-.1.1-.2 1.2-.4 1.9-.5 2.9-1.5.5-.4.8-.2.9-.2 1 .5 1.2.1 1.3-.1.1-.1.3-.6.4-.8 0-.1.1 0 .1.1s-.1.3-.1.4c.4.3.8.1.9 0 0 0 0-.3 0-.4q-.1-.2.1-.6c.1-.2.1 0 .1.2z"/><path d="m29.1 18.6s-.1.4-.2.7c-.3 1.2 0 1.8 0 1.9.4.6.8.3.9-.2.1-.3.2-.1.1 0q0 .1 0 .4c-.2.7-.4.9-.7.9-.4.1-.6-.5-.7-.9-.1-1.3.3-2.5.4-2.8.1-.4.3-.2.2 0z"/><path d="m46 19.3c-.3 1-1.7 1.5-2 1.6-1.2.4-1.3-.8-1.2-1.7 0-.9.7-2 .7-2-.1-.1-1.4-1.1-1.5-1.2s-.2-.2-.3-.3-.1-.2-.1-.2 0-.9 0-1 .1 0 .2 0 1.5.6 1.6.7c.2 0 .1.2 0 .2s-.5.1-.5.1l1.1.8s1.6-2 1.8-2.2c.1-.2.1-.1.1.1s-.3 1.1-.4 1.2c-.1.2-.9 1.3-.9 1.3s1 .6 1.3 1c.5.6.2 1.3.1 1.6zm-2-1.8s-.7 1.2-.8 1.4c-.3.8.4.9.6.9.3-.1 1.2-.6 1.7-.9.5-.4-1.3-1.3-1.5-1.4z" fill-rule="evenodd"/><path d="m65.6 18.2c-.1.2-.3 1.1-1.6.9-.3-.1-1-.3-1.3-1-.3.4-1 1.7-2.5 1.5-.3-.1-1.4-.5-1.4-1.8 0 0-1.2 1-1.8 1.3 0 .5 0 1-.2 1.6s-2.9 3.6-5 4c-.7.2-3.4.7-3.6-2.4 0-.6.1-1.1.1-1.4-1.7 1.3-3.7 2.3-4.3 2.6-.9.4-4 .9-4.6 1-.3.1-.4 0-.2-.2.2-.1 7.2-2.4 10.8-6.2q.1-.2 0-.5c-.1-.2-1.3-2.3-1.4-2.6s-.2-.6-.3-.7q-.1-.2 0-.4c0-.1.1-.7.1-.8.1-.1.1-.1.2 0s1.2 1.2 1.3 1.4c.2.1.1.2 0 .2h-.6s.8 1.3 1 1.7c.4 1.1.2 1.9 0 2.2-.3.7-.9 1.4-1.6 1.9-.1.6-.3 3.1 2 3.2.3 0 1.5.1 3.9-1.8.6-.5 1.2-1 1.7-1.7.2-.3.3-.8 0-.8-.4 0-2.9 1-3.2-.5-.1-.4.1-3.9 2.5-2.2.2.2.7.6 1.1 1.3.4-.2 1.1-.7 2-1.4.3-.2.6-.3.5 0 0 .3-.2 2.3 2.1 1.7.2 0 1.1-.2 1.8-2 .2-.4.5-.3.3 0-.2.5-.4.8-.2 1 .2.3.9.7 1.7.6.2 0 .4-.1.3-.4-.1-.2-.4-.6-.4-.6.1-.3.2-.8.2-.9s.1-.2.2-.1.8 1 .4 2.3zm-10 .1c-.8-1.1-1.7-.5-1.8-.3-.1.1-.2.4.6.4.9.1 1.2-.1 1.2-.1z" fill-rule="evenodd"/><path d="m10.4 15.1s-.2.5-.3.8c-.4 1.7-.1 2.5 0 2.7.4.8.9.3 1.1-.3.1-.3.2-.2.2 0q0 .1-.1.5c-.2 1.1-.6 1.3-.9 1.3-.5 0-.8-.8-.8-1.2-.2-1.9.4-3.5.6-3.9.1-.5.3-.3.2.1z"/><path d="m21.1 14.1s-.1.3-.1.5c-.4.9-.2 1.4-.1 1.5.2.4.6.2.8-.2 0-.1.1-.1.1 0q-.1.1-.1.3c-.2.6-.4.7-.6.7-.4 0-.6-.4-.6-.7-.1-1 .4-1.9.5-2.1.1-.3.2-.2.1 0z"/><path d="m13.8 12.9 1 .7q0 0 0 .1l-.6.8q0 0 0 0l-1-.7q-.1-.1 0-.1l.5-.8q.1 0 .1 0z"/><path d="m30.7 16.2c-.1.2-.4.9-.5 1 0 .1-4.5 2.1-5.6 2.7-1.1.5-2 .9-2.7 1.5-1.2.8-1.8 1.6-1.9 1.7-1.4 2-2.6 1.7-3.1 1.6-1.7-.6-1.2-2.8-.8-4-.7.5-1.9 1.1-4.2 1.9-3.7 1.1-5.2.1-5.6-.2-2.2-1.6-1-4.2-.7-4.9-.2-.3-.3-.8-.4-1.1-.1-1.8.5-3.4.7-3.8.1-.5.2-.3.1.1 0 0-.1.5-.2.8-.4 1.7-.1 2.5-.1 2.6.5.9 1 .4 1.2-.2.1-.3.2-.2.2 0q-.1.1-.1.5c-.2 1-.6 1.3-.9 1.3q-.1 0-.2-.1c-.1.4-.3 1.1-.4 1.4 0 2.2 1.8 2.6 2.3 2.7 2.9.9 7.7-1.7 8.1-2q.6-.3.5-.5c-.2-.6-.7-.6-1.1-.6-.2 0-1.3.2-1.9-.3-.8-.7-.2-1.8.2-2.3.1-.1.4-.4.5-.4.7-.3 2-.3 2.7 2.5.2.8.1 1.4-.1 1.8q0 0 0 .1 0 .1 0 .1c-.1.2-.5 1.3-.6 1.8-.4 2.5 1.7 1.9 2.4 1.4.4-.2 1.6-1.9 2.8-2.7.5-.3 3.2-1.8 3.5-2-.6-.2-1.2-1-1.6-1.6-.5-1.1-.2-2.2.4-3s1.6-1 2.3-1.1 2.1.3 2.4.6.2.4-.3.2c-1.8-.3-3.8.8-4.2 1-.4.3-.4.5-.3.8.1.2.4 1 1.5 1.8 1 .7 1.7.4 2.1.3s3.1-1.4 3.4-1.6c.2-.1.2 0 .2.2zm-15.2 1.2c-.7-1-1.3-.8-1.4-.7-.4.1-.6.6-.1.7.5.2.8.1 1 0z" fill-rule="evenodd"/><path d="m44.6 11.8 1 .8q.1 0 0 0l-.5.8q-.1.1-.1 0l-1-.7-.5.7q0 .1 0 0l-1-.7q-.1 0 0 0l.5-.8q.1-.1.1-.1l1 .7.5-.6q0-.1 0-.1z"/><path d="m63.1 11.9s-.1.2-.2.4c-.3.9-.1 1.3-.1 1.4.3.4.6.2.7-.2.1-.1.1 0 .1 0q0 .1 0 .3c-.2.5-.4.7-.6.7-.3-.1-.4-.5-.5-.7 0-.9.4-1.7.5-2 .1-.2.1-.1.1.1z"/><path d="m53.3 11.4s-.1.3-.2.4c-.3 1-.1 1.4-.1 1.5.3.5.6.2.8-.1 0-.2.1-.1.1 0q0 0-.1.2c-.2.6-.4.8-.6.8-.3-.1-.5-.5-.5-.8-.1-1 .4-1.8.5-2.1.1-.2.2-.1.1.1z"/><path d="m25.5 10.8c.5.1.4.4.3.5-.4.6-.9.9-1.3 1-.4.2-.2-.1 0-.2 0 0 .3-.2.6-.4.3-.3-.6-.2-1-.3-.3 0-.4.2-.6.3-.1.1-.2.1-.1-.1.1-.1.2-.3.4-.7.3-.3 1.2-.1 1.7-.1z"/><path d="m24.1 9c0 .2-.1.2-.1.4-.1.2-.2.2-.4.3s-4.2 2.2-4.3 2.2c-.3.2-.3.1-.2 0q0-.1 0-.3c.1-.2.1-.2.3-.4.3-.1 4.2-2.1 4.4-2.2.4-.2.3-.1.3 0z"/><path d="m14.5 7.9s-.1.3-.1.5c-.3 1.1-.1 1.5 0 1.6.3.5.7.2.8-.2 0-.2.1-.1.1 0q0 .1-.1.3c-.1.7-.4.9-.6.9-.4 0-.6-.5-.6-.8-.1-1.1.3-2.1.4-2.4.1-.2.2-.1.1.1z"/><path d="m52.4 7.4c0 .1 0 .1-.1.3-.1.1-.2.2-.4.3-.1.1-5.3 3.1-5.4 3.1-.3.2-.2.1-.2 0q0 0 .1-.3c0-.1.1-.2.3-.3s5.3-3.1 5.5-3.2c.3-.2.3 0 .2.1z"/><path d="m35.5 7.3c0 .1 1.1 2.9 1.2 3.1 0 .1-.1.2-.2.1s-.7-.7-.7-.7.8 6.7.9 7.3c.3 2.2-.1 3.2-.6 4.2-1.7 2.6-5.7 2.9-6 3-.3 0-.5-.1 0-.3 3.1-1.2 4.7-2.5 5.5-3.4q0-.1 0-.3c0-1.9-2.3-4-2.6-4.3s-1.9-1.6-3.9-3.8c-.4-.5-.8-1-.9-1.1-.1 0-.1-.1-.1-.2s0-.9 0-1.1c0-.1.1 0 .2.1.2.2 2.1 1.4 2.2 1.6.2.1 0 .1-.2.1-.1-.1-.6-.2-.6-.2q0 0 0 .1c1.3 1.9 4.8 4 5.7 6 .5 1.2.6 2.2.5 2.7q.3-.4.3-.6c.2-.6-.3-3.4-.3-3.9-.4-3.2-.9-7.3-1-7.6 0 0 .4-.7.4-.8.1-.2.1-.1.2 0z"/><path d="m58.7 7.7c.1.2 0 .6-.1.8s-.2 0-.3-.1c0 0-.2-.1-.3-.2-.5-.5-.7.4-.8.8 0 .3 0 1.2-.1 1.8-.1.2-.2.2-.3.1-.3-1.2-1-1.8-1.1-1.9s-.2 0-.2.1c-.1.1-.1.1-.2 0-.1 0-.4-.2-.6-.4-.1-.1-.1-.5 0-.7 0-.4.2-.5.3-.4 1.4.8 1.8 2.1 1.9 2.3 0-1 .1-1.9.6-2.6.5-.5 1.1.3 1.2.4z"/><path d="m38.3 7.2c0 .1 1.1 3.1 1.2 3.2 0 .2-.1.2-.2.1s-.6-.6-.6-.6.8 7.8.9 8.1q.2 2.3.1 3.4c-.1.9-.3 1.3-.3 1.4-.1.2-.2.1-.1-.1 0-.5-.1-1.6-.2-2.8-.3-2.4-1.1-9.9-1.3-11.2 0-.1-.1-.5-.1-.5s.4-.9.5-1c0-.1 0-.1.1 0z"/><path d="m63.7 9.9c0 .1-.1 0-.2-.1s-.2-.3-.4-.4c-.2.5-.2.5-1.1 1.3-1.8 1.6-3.9 2.2-4 2.2s-.2-.1 0-.2c.7-.5 3.4-1.7 4.8-3.4 0 0-.5-.2-.8-.4s-.1-1 .1-1.3c.5-.8 1-.4 1.1-.3.4.8.2 1.6.2 1.6.2.1.5.5.3 1zm-.9-2.1c-.1 0-.2-.1-.5.3-.1.1 0 .3.2.3.2.1.6.3.6.3 0-.1 0-.6-.3-.9z" fill-rule="evenodd"/><path d="m28.2 7.4c.1.1-.1.4-.2.5q0 .1-.2-.1c-.2-.3-.6-.1-.7 0-.1 0-.1.2.3.5.3.3 1.1.1 1.3.1s.3 0 .3.1c-.1.1-.1.3-.1.3-.8.2-1.7.6-2.1.7q0 0-.1.1c-.1 0-.1-.1-.1-.1q0-.1.1-.3c.1-.2.2-.2.4-.3 0 0-.3-.2-.5-.5-.1-.3.4-1 .9-1.2s.7.1.7.2z"/><path d="m11.3 7.5c.1.2.1.5 0 .8 0 .1-.2 0-.3-.1 0 0-.1-.1-.2-.2-.5-.4-.6.4-.6.8-.1.3.2 2.5-.7 3.3-.8.7-1.5 1.2-1.3.9.2-.4 1.1-1.2 1.3-1.5.2-.2.7-.8.3-1.5-.2-.3-.5-.7-1-1.1-.2-.1-.2 0-.2.1s-.1.1-.2 0c0 0-.4-.2-.5-.3s-.1-.5-.1-.7c0-.3.1-.4.2-.3 1.3.6 1.8 1.7 1.9 1.9 0-.9 0-1.7.4-2.3.3-.6 1 .1 1 .2z"/><path d="m17.3 7.1c.1.1 1.3 2.9 1.4 3.1s-.1.2-.2.1-.7-.6-.7-.6 1.1 5.3 1.2 5.6c1 4.9.1 6.4.1 6.6-.1.1-.2.1-.2-.1.3-2.6-1.2-8.9-1.2-9.3-.1-.3-.7-4.1-.8-4.6 0 0 .2-.7.3-.9 0-.1.1 0 .1.1z"/><path d="m33.6 7.3c.1.2.1.5.1.7s-.2.1-.3 0c0 0-.1-.1-.2-.2-.5-.3-.6.5-.6.8s.2 1.1.2 1.6c0 .2-.1.2-.2 0-.5-.9-1.2-1.3-1.3-1.3-.1-.1-.1 0-.2.1 0 .1 0 .1-.1.1 0-.1-.4-.2-.5-.3-.2-.1-.2-.5-.2-.6 0-.3.1-.4.2-.4 1.3.4 1.9 1.5 2 1.7-.1-.9-.2-1.7.1-2.3s1 0 1 .1z"/><path d="m44.4 9.6c-.1.1-.1 0-.2-.1s-.4-.4-.4-.4-.4.9-1.1 1.4c-1.3 1-2.4 1.2-2.4 1.2-.2 0-.2-.1 0-.2.8-.5 1.7-.8 3.1-2.5 0 0-.4-.2-.7-.4s-.1-1 .1-1.3c.5-.8 1-.4 1-.3.5.8.3 1.6.3 1.6.2.2.5.5.3 1zm-.9-2.1c-.1 0-.3 0-.5.4-.1.1 0 .2.2.3.1 0 .5.2.5.2.1-.1.1-.6-.2-.9z" fill-rule="evenodd"/><path d="m20.4 6.2s-.1.2-.1.4c-.3.9-.1 1.3 0 1.4.2.4.5.1.6-.2.1-.2.2-.1.1 0q0 0 0 .2c-.1.6-.3.7-.5.7-.3.1-.5-.4-.5-.6-.2-.9.2-1.8.3-2 0-.2.1-.1.1.1z"/><path d="m28.9 5.2c-.1.1-.1.1-.2.3 0 .2-.2.3-.4.4s-3.6 1.7-3.7 1.8c-.3.2-.3.1-.3-.1q.1 0 .1-.3c.1-.1.1-.2.4-.3.2-.2 3.6-1.8 3.8-1.9.4-.2.3-.1.3.1z"/></g></svg>