<svg height="30" viewBox="0 0 70 30" width="70" xmlns="http://www.w3.org/2000/svg"><g fill="#191c4f"><path d="m27.9 20.7s-.1.3-.2.5c-.4 1-.2 1.5-.2 1.6.3.5.7.3.9-.1 0-.2.1-.1.1 0q-.1.1-.1.3c-.2.6-.5.8-.7.8-.4-.1-.5-.6-.5-.8-.1-1.2.4-2.1.6-2.4.1-.3.2-.1.1.1z"/><path d="m34.4 20.4s-.1.3-.2.5c-.3.9-.1 1.3-.1 1.4.3.5.6.2.8-.1 0-.2.1-.1.1 0q-.1.1-.1.3c-.2.5-.4.6-.6.6-.3 0-.5-.4-.5-.6-.1-1 .4-1.9.5-2.1.1-.3.2-.2.1 0z"/><path d="m64 19.9v.5c0 .3-.1.6-.2.9-.1.4-.8.5-1.2.2-.8 1.2-1.5.6-1.9.4-.7-.2-.9.2-1.1.4-.9 1-2.5 1-2.8 1-.4 0-.1-.2.1-.3 1.2-.4 2-.5 3.1-1.6.5-.5.8-.2 1-.2 1.1.5 1.2.1 1.4-.1.1-.1.3-.7.4-.8 0-.2.1-.1.1.1 0 .1-.1.3-.1.4.4.3.9 0 1-.1 0 0-.1-.3-.1-.4q0-.1.1-.6c.1-.2.2 0 .2.2z"/><path d="m19.8 19.7c0 .2 0 .2-.1.4s-.2.2-.4.3c-.1.2-3.4 1.8-3.5 1.8-.4.2-.3.1-.3 0q0-.1.1-.3c0-.2.1-.2.3-.4.2-.1 3.5-1.7 3.7-1.8.3-.2.3-.1.2 0z"/><path d="m15.9 15.5c-.1.1-.1.1-.2.3 0 .2-.2.2-.3.3-.2.2-6.5 3.6-6.6 3.7-.3.2-.3.1-.3 0q0-.1.1-.3c0-.2.1-.2.3-.4.2-.1 6.5-3.6 6.7-3.7.3-.2.3-.1.3.1z"/><path d="m9.1 14.3s-.1.3-.2.4c-.3.9-.1 1.3-.1 1.4.3.5.6.2.7-.1.1-.2.1-.1.1 0q0 .1 0 .3c-.2.5-.4.6-.6.6-.3 0-.5-.4-.5-.6-.1-1 .3-1.8.4-2.1.1-.2.2-.1.2.1z"/><path d="m11.6 13.8 1.1.7q.1.1 0 .1l-.6.9q0 0-.1 0l-1-.8q-.1 0-.1-.1l.7-.8q0-.1 0 0z"/><path d="m44.5 18.4c-.3 1.1-1.8 1.6-2.1 1.7-1.4.5-1.5-.9-1.4-1.8.1-1 .8-2.2.8-2.2-.1 0-1.4-1.1-1.6-1.2-.1-.1-.2-.3-.3-.4s-.1-.1-.1-.1 0-1 0-1.1c0-.2.1-.1.2-.1.1.1 1.6.7 1.7.8.2.1.1.2.1.2-.1 0-.6.1-.6.1l1.2.9s1.7-2.2 1.9-2.4.1-.1.1.1-.4 1.2-.4 1.3c-.1.2-1 1.4-1 1.4s1.1.7 1.4 1.1c.5.7.2 1.4.1 1.7zm-2.2-1.9s-.7 1.3-.8 1.5c-.4.8.4.9.7.9s1.3-.6 1.8-1-1.4-1.3-1.7-1.4z" fill-rule="evenodd"/><path d="m65.6 17.2c-.1.2-.3 1.2-1.7.9-.4 0-1.1-.2-1.4-.9-.3.4-1.1 1.7-2.7 1.5-.4-.1-1.5-.5-1.5-1.9 0 0-1.4 1.1-2 1.4.1.5.1 1.1-.2 1.7-.2.6-3 3.8-5.3 4.3-.8.2-3.7.7-3.9-2.5 0-.7.1-1.2.1-1.6-1.8 1.4-4 2.5-4.6 2.8-1 .4-4.3 1-4.9 1.1-.4.1-.5 0-.3-.2.3-.1 7.7-2.6 11.6-6.7q.2-.2 0-.5c-.1-.2-1.3-2.5-1.5-2.8-.1-.3-.2-.7-.3-.8q-.1-.2 0-.4c0-.1.1-.7.1-.9.1-.1.1 0 .2.1s1.3 1.3 1.5 1.4c.1.2 0 .3-.1.3 0 0-.6-.1-.6-.1s.8 1.4 1 1.9c.5 1.1.2 2 .1 2.4-.4.7-1 1.4-1.8 2-.1.6-.4 3.3 2.2 3.4.3 0 1.6.2 4.2-1.9.6-.5 1.2-1.1 1.8-1.9.2-.3.4-.8 0-.8-.5.1-3.1 1-3.5-.6-.1-.4.2-4.2 2.7-2.3.3.2.8.6 1.2 1.4.4-.2 1.2-.7 2.2-1.5.3-.2.6-.4.6 0 0 .3-.3 2.5 2.1 1.9.3-.1 1.3-.3 2-2.2.2-.4.5-.4.3 0-.1.5-.4.9-.2 1.1.3.2.9.7 1.8.6.3 0 .4-.2.3-.4s-.4-.7-.4-.7c.1-.3.2-.8.3-.9 0-.2 0-.3.1-.2.1.2.9 1.2.5 2.5zm-10.7.1c-.9-1.1-1.9-.5-2-.3-.1.1-.2.4.6.5 1 0 1.4-.2 1.4-.2z" fill-rule="evenodd"/><path d="m17.1 10.7c.1.1 1.3 1.4 1.4 1.5.2.2 0 .2 0 .2-.1 0-.6 0-.6 0s.7 1.4 1 1.9c.5 1.1.2 2 .1 2.4-1.4 2.5-5.5 4.6-6.5 5s-3.3.8-3.9.9c-.4 0-.4-.1-.2-.2s6.3-2.2 10.2-6.3q.1-.2-.1-.5c-.1-.2-1.3-2.5-1.4-2.8s-.3-.7-.3-.8q-.1-.2-.1-.4c0-.1.2-.7.2-.9 0-.1.1-.1.2 0z"/><path d="m14.9 10.8s-.1.3-.2.4c-.3.9-.1 1.3-.1 1.4.3.5.6.3.8-.1 0-.2.1-.1.1 0q-.1.1-.1.3c-.2.5-.4.7-.6.7-.3-.1-.5-.5-.5-.7 0-1 .4-1.8.5-2 .1-.3.2-.2.1 0z"/><path d="m43.1 10.4 1 .8q.1 0 0 0l-.6.9q0 0-.1 0l-1-.7-.5.7q-.1 0-.1 0l-1.1-.8q0 0 0 0l.6-.9q.1 0 .1 0l1 .7.6-.7q0 0 .1 0z"/><path d="m62.9 10.4s-.1.3-.2.5c-.3.9-.1 1.4-.1 1.4.3.5.6.3.8-.1 0-.2.1-.1.1 0q-.1.1-.1.3c-.2.6-.4.7-.6.7-.3 0-.5-.5-.5-.7-.1-1 .4-1.9.5-2.1.1-.3.1-.2.1 0z"/><path d="m52.3 9.9s0 .3-.1.5c-.4 1-.2 1.4-.1 1.6.3.5.6.2.8-.2 0-.2.1-.1.1 0q0 .1-.1.3c-.2.6-.4.8-.6.8-.4 0-.6-.5-.6-.8 0-1.1.4-2 .5-2.3.1-.2.2-.1.1.1z"/><path d="m20 22.9c-3.1 1.5-5.6 1.8-6.9 1.9-7.5.2-7.6-4.3-7.7-5-.3-3.8 1.2-6.2 2.3-7.4-.6-.5-1.4-1.2-2.2-1.6-.3-.2-.5-.5-.5-1.1 0-.9.6-1.6 1.4-1.8 3.2-.8 7.9-.3 8.8-.1l-.4 1.2s-1.9 1.2-2.6 1.6q-2.1 1.1-3.3 2.1c.1.4 0 .7 0 .8 0 .3-.1.2-.2 0q-.1-.1-.3-.4c-2.4 2.2-2.4 4-2.5 4.6-.4 4.8 3.6 5.3 4.3 5.5 2.1.5 6.8.1 9.8-.6.7-.2.6 0 0 .3zm-11.9-11.5q.2.2.3.5c.3-.3.5-.4.6-.5.3-.2 3.4-2.1 3.7-2.3-5-.4-6.5.2-6.9.3-.4.2-.2.3-.1.4.1 0 2 1.3 2.4 1.6z" fill-rule="evenodd"/><path d="m51.4 5.6c0 .1 0 .1-.1.3s-.2.2-.4.4c-.2.1-5.7 3.3-5.8 3.3-.3.2-.3.1-.3 0q.1 0 .1-.3c0-.2.1-.2.3-.4.3-.1 5.8-3.3 6-3.4.3-.2.3 0 .2.1z"/><path d="m58.1 5.9c.1.3.1.7-.1.9 0 .2-.2.1-.3-.1 0 0-.1-.1-.3-.2-.5-.5-.7.4-.8.8 0 .3-.1 1.4-.2 2 0 .2-.2.2-.2 0-.4-1.3-1.2-1.9-1.3-2s-.2.1-.2.2c0 0-.1 0-.2 0s-.5-.3-.6-.4c-.2-.2-.1-.7-.1-.9 0-.3.3-.4.4-.4 1.5.9 1.9 2.3 2 2.5.1-1 .1-2 .7-2.8.5-.6 1.2.3 1.2.4z"/><path d="m63.6 8.3c-.1.1-.2 0-.3-.1 0-.1-.2-.3-.4-.4-.2.5-.2.5-1.1 1.3-2.1 1.8-4.3 2.4-4.4 2.4-.1.1-.2 0 .1-.2.6-.5 3.6-1.8 5-3.7 0 0-.4-.1-.7-.4-.4-.2-.2-1 0-1.4.6-.9 1.1-.4 1.2-.3.5.9.2 1.7.2 1.7.3.2.6.5.4 1.1zm-1-2.2c-.1-.1-.2-.1-.5.3-.1.1 0 .2.2.3s.6.3.6.3c0-.1 0-.6-.3-.9z" fill-rule="evenodd"/><path d="m16.7 5.3s-.1.3-.2.5c-.3.9-.1 1.3-.1 1.4.3.4.6.2.8-.2 0-.1.1 0 .1 0q-.1.1-.1.3c-.2.6-.4.7-.6.7-.3 0-.4-.5-.5-.7 0-1 .4-1.8.5-2 .1-.3.2-.2.1 0z"/><path d="m38 20c-.4 1.2-1.1 1.1-1.3 1.1-.5-.1-1.2-.5-1.5-1q-.2-.3-.3-.8c-.2.1-.4.2-.4.3-2.8 2.1-4.5 1.2-5.1.9-.3-.1-.8-.6-1.4-1.1-1.3.8-2.7 1.5-3.6 1.7-2.4.5-3.6-1.1-4-2.1s-.9-6.3-.9-7.3c-.2-2.1-1-5-1.1-5.3-.1-.4.2-1 .2-1.1.1-.1.2-.4.3-.1.8 2 1.1 5.1 1.2 6.1.1 1.1.4 4.5.5 5.3.3 2.4 1.6 2.9 2 3.1 1.4.6 3.4-.4 4.1-.8q.2-.1.5-.2-.2-.1-.3-.3c-.4-.3-1-.6-1.4-.8-.4-.1-1.2.2-1.3.3-.1 0-.2 0-.1-.3.1-.2.1-.6.3-.9 2.9-1.8 6.5-.5 6.8-.3.3.1.3.3.2.6 0 .2-.2.9-.2.9-.4.1-1.2.5-2.1.9q.2.2.3.2c2 1.5 4.3-.1 4.8-.4q.1-.1.4-.3-.2-.7-.4-1.5c-.7-3.4-1.4-9.4-1.5-9.9s-.2-.7-.2-.8c0 0 .4-.9.5-1 0-.1.1 0 .1.1.1.1 1.2 2.8 1.3 3 0 .1-.1.2-.2.1s-.7-.7-.7-.7 1.4 9.5 1.8 10.3q.2 0 .3 0c1.1-.4 1.9.1 2 .2.7.4.4 1.6.4 1.9zm-9.7-1.9c.6-.4 1.3-.8 1.4-.9-1-.2-1.9-.3-2.7-.2.3.2.8.7 1.3 1.1zm8.2 1q-.4-.1-.7-.1c.3.6 1 1 1.5.8.5-.3-.4-.7-.8-.7z" fill-rule="evenodd"/><path d="m37.3 5.2c0 .1 1.3 3.2 1.4 3.4 0 .1-.1.2-.2.1s-.7-.7-.7-.7 1.1 8.4 1.2 8.7q.3 2.4.2 3.6c-.1 1.1-.2 1.5-.3 1.6s-.2.1-.1-.1c-.1-.6-.2-1.8-.3-3-.4-2.6-1.5-10.6-1.7-12 0-.1-.1-.6-.1-.6s.4-1 .4-1.1c.1-.1.1 0 .2.1z"/><path d="m23 13.2s-.1.3-.2.5c-.3 1.1 0 1.6 0 1.7.3.5.7.2.8-.2.1-.2.1-.1.1 0q0 .1 0 .3c-.2.6-.4.8-.6.8-.4 0-.6-.5-.6-.7-.2-1.2.2-2.2.3-2.4.1-.3.2-.2.2 0z"/><path d="m31.1 11.7s-.1.4-.2.6c-.3 1 0 1.5 0 1.6.3.5.7.2.8-.2.1-.2.1-.1.1 0q0 .1 0 .3c-.2.7-.4.8-.6.8-.4 0-.6-.5-.6-.7-.2-1.1.2-2.1.3-2.4s.2-.2.2 0z"/><path d="m32.2 9.2c0 .2-.1.2-.1.4-.1.2-.2.2-.4.4-.2.1-5.2 2.6-5.4 2.7-.3.2-.3.1-.2 0q0-.1 0-.4c.1-.1.1-.2.4-.3.2-.2 5.2-2.7 5.4-2.8.4-.3.3-.1.3 0z"/><path d="m31.7 5.7c0 .2 0 .2-.1.5-.1.2-.2.3-.5.4-.2.2-9.4 5.1-9.5 5.1-.4.3-.4.1-.3 0q0-.1 0-.4c.1-.2.2-.2.5-.4.2-.2 9.3-5.1 9.6-5.2.4-.3.4-.1.3 0z"/><path d="m25.2 5.7c.1.2.1.6 0 .8 0 .1-.2 0-.3-.1 0 0-.1-.1-.2-.2-.5-.4-.6.4-.7.8v1.6c-.1.2-.2.2-.3.1-.3-1.1-1-1.6-1.1-1.7s-.2.1-.2.2h-.1c-.1 0-.5-.2-.6-.3s-.1-.6-.1-.7c0-.3.2-.4.3-.4 1.3.7 1.7 1.9 1.8 2.1 0-1 0-1.8.5-2.5.4-.5 1 .2 1 .3z"/><path d="m42.8 7.9c-.1.2-.1.1-.3 0 0-.1-.4-.4-.4-.4s-.4.9-1.2 1.5c-1.3 1-2.5 1.2-2.6 1.2-.1.1-.1 0 .1-.2.9-.5 1.9-.8 3.4-2.7 0 0-.5-.1-.8-.4-.3-.2-.2-1 0-1.4.6-.9 1.1-.4 1.2-.3.5.9.2 1.7.2 1.7.3.2.6.5.4 1zm-1-2.1c-.1-.1-.2-.1-.5.3-.1.1 0 .2.2.3s.6.3.6.3c0-.1.1-.6-.3-.9z" fill-rule="evenodd"/></g></svg>