<svg height="30" viewBox="0 0 70 30" width="70" xmlns="http://www.w3.org/2000/svg"><g fill="#191c4f"><path d="m63.4 21.4v.7c0 .3-.1.7-.3 1.2-.1.5-1.1.6-1.7.2-1.1 1.6-2 .8-2.5.6-1-.4-1.3.3-1.5.5-1.2 1.4-3.4 1.3-3.9 1.4-.5 0-.1-.3.1-.4 1.7-.6 2.8-.7 4.3-2.1.7-.7 1.1-.4 1.4-.3 1.4.6 1.6 0 1.8-.2.2-.1.5-.9.6-1.1.1-.3.2-.1.2.1-.1.2-.1.4-.2.6.6.4 1.2 0 1.3-.1 0 0 0-.4 0-.6q0-.2.2-.8c.1-.3.2 0 .2.3z"/><g fill-rule="evenodd"><path d="m36.7 19.4c-.4 1.4-2.4 2.2-2.9 2.3-1.8.6-1.9-1.2-1.8-2.5.1-1.4 1.1-3 1.1-3-.1-.1-2-1.6-2.2-1.7-.1-.2-.3-.4-.5-.5s-.1-.2-.1-.2 0-1.3 0-1.5.1-.1.2 0c.2 0 2.2.8 2.5 1 .2.1.1.2 0 .3-.1 0-.8.2-.8.2l1.7 1.2s2.3-3.1 2.5-3.4c.3-.3.2-.1.2.2-.1.3-.5 1.6-.6 1.8s-1.3 1.9-1.3 1.9 1.5.9 1.9 1.5c.7.9.3 1.8.1 2.4zm-2.9-2.7s-1.1 1.7-1.2 2.1c-.5 1 .6 1.2 1 1.2s1.8-.8 2.4-1.3c.7-.6-1.8-1.8-2.2-2z"/><path d="m29.1 17.1c-.3 1.7-1.4 2.1-2 2.4.3 1.8-.5 2.8-.8 3.1-2.6 2.9-8.9 4.7-9.1 4.9-.3.1-5.7.6-5.9.7s-.3.1-.3 0c-.1-.2.2-.4.5-.5 0 0 12.8-3.5 14.9-7.1.3-.4.3-.9-.9-.5-.7.2-1.4.1-1.8.1-1.4-.1-1.7-.9-1.7-1.4-.1-1.4.8-2.3 1.2-2.6.6-.4 2.4-.8 3.5 1.8.5-.2 1.5-.8 1.7-1 .2-.1.1-.3 0-.5s-1.5-3.4-1.6-3.7-.2-.6-.1-.8c0-.2.3-1.1.3-1.1.1-.1.1-.1.2-.1 0 .1 1.7 2.2 1.8 2.4s-.1.2-.2.2-.3-.1-.4-.1c-.1-.1-.3-.1-.2-.1 1.2 2 1 3.1.9 3.9zm-3.6 1.2c-1-.9-1.6-.7-1.8-.6-.4.1-1 .6-.5.8 1.3.2 2.3-.2 2.3-.2z"/><path d="m65.5 17.7c-.1.3-.4 1.6-2.3 1.3-.5-.1-1.5-.3-1.9-1.4-.4.6-1.5 2.4-3.7 2.1-.5-.1-2-.7-2.1-2.6 0 0-1.8 1.5-2.6 1.9.1.7 0 1.5-.3 2.4-.3.8-4.2 5.2-7.3 5.9-1.1.2-5.1 1-5.3-3.5 0-1 .1-1.7.1-2.2-2.4 1.9-5.4 3.4-6.3 3.8-1.3.7-5.9 1.4-6.7 1.6-.5.1-.6-.1-.3-.3s10.5-3.6 15.8-9.2c.2-.1.1-.4 0-.6-.2-.3-1.8-3.5-2-3.9-.1-.4-.4-.9-.4-1.1q-.2-.2-.1-.5c0-.2.2-1 .2-1.2.1-.2.2-.1.3 0 .1.2 1.8 1.8 1.9 2.1.2.2.1.3 0 .3s-.9-.1-.9-.1 1.1 1.9 1.5 2.6c.6 1.5.3 2.7 0 3.3-.5.9-1.4 1.9-2.4 2.8-.2.7-.5 4.4 2.9 4.5.6 0 2.3.3 5.8-2.6.8-.6 1.7-1.4 2.5-2.5.3-.5.5-1.2-.1-1.1-.5 0-4.1 1.4-4.7-.8-.1-.6.2-5.8 3.7-3.2.4.2 1.1.9 1.6 1.9.6-.3 1.7-1 3.1-2.1.4-.3.7-.5.7 0s-.3 3.5 3 2.6c.3-.1 1.7-.4 2.7-2.9.3-.6.6-.5.4 0-.2.6-.6 1.1-.2 1.5.3.3 1.2.9 2.3.8.4-.1.7-.3.5-.6-.1-.3-.5-1-.5-1 .1-.4.2-1 .3-1.2 0-.2.1-.3.2-.2.2.2 1.2 1.5.6 3.4zm-14.6.1c-1.2-1.5-2.5-.6-2.7-.5-.2.2-.3.6.9.7 1.3.1 1.8-.2 1.8-.2z"/></g><path d="m22.1 10.2s-.1.4-.2.8c-.5 1.6-.2 2.3-.1 2.4.6.8 1.2.4 1.4-.3.1-.3.2-.1.2 0q0 .2-.1.5c-.3 1-.7 1.3-1 1.3-.7 0-1-.8-1.1-1.2-.2-1.7.5-3.2.7-3.6.2-.5.3-.3.2.1z"/><path d="m34.8 8.4 1.4 1q.1.1 0 .1l-.8 1.2q-.1.1-.1 0l-1.4-1-.8 1q0 .1-.1 0l-1.4-1q-.1-.1 0-.1l.8-1.2q.1-.1.1 0l1.4 1 .8-1q0-.1.1 0z"/><path d="m61.8 8.4s-.1.4-.2.7c-.4 1.2-.2 1.8-.1 1.9.4.7.8.3 1-.1.1-.3.2-.2.1 0q0 .1 0 .3c-.3.8-.6 1-.8 1-.5 0-.7-.6-.7-1-.1-1.3.4-2.5.6-2.8.1-.4.2-.2.1 0z"/><path d="m26.1 7.5 1.4 1.1q.1 0 .1.1l-.9 1.1q0 .1-.1.1l-1.5-1.1q0 0 0-.1l.9-1.2q0 0 .1 0z"/><path d="m47.5 7.7s-.2.4-.3.7c-.4 1.3-.2 2-.1 2.1.4.7.9.3 1.1-.2.1-.2.1-.1.1 0q0 .1-.1.4c-.2.9-.6 1.1-.8 1.1-.6-.1-.8-.7-.8-1.1-.1-1.5.5-2.7.7-3.1.1-.4.3-.2.2.1z"/><path d="m15.2 18.3c-.1.2-.1.3-.2.5s-.2.3-.5.5c-.3.1-4.6 1.9-4.9 2-.4.3-.4.1-.3 0q0-.1.1-.4c0-.3.1-.4.4-.5.4-.2 4.7-2 5.1-2.2.4-.1.4 0 .3.1z"/><path d="m15 16.7c0 .2-.1.2-.2.5-.1.2-.2.3-.5.4-.3.2-4.6 2-4.8 2.1-.5.3-.4.1-.4 0q0-.1.1-.4c.1-.3.1-.4.5-.5.3-.2 4.7-2.1 5-2.2.5-.2.4 0 .3.1z"/><path d="m9.5 19.7c-.5.3-.4.1-.4 0q0-.1.1-.4c.1-.3.1-.4.5-.5.3-.2 4.7-2.1 5-2.2.5-.2.4 0 .3.1 0 .2-.1.2-.2.5-.1.2-.2.3-.5.4-.3.2-4.6 2-4.8 2.1z"/><path d="m15.2 18.3c-.1.2-.1.3-.2.5s-.2.3-.5.5c-.3.1-4.6 1.9-4.9 2-.4.3-.4.1-.3 0q0-.1.1-.4c0-.3.1-.4.4-.5.4-.2 4.7-2 5.1-2.2.4-.1.4 0 .3.1z"/><path d="m9.5 19.7c-.5.3-.4.1-.4 0q0-.1.1-.4c.1-.3.1-.4.5-.5.3-.2 4.7-2.1 5-2.2.5-.2.4 0 .3.1 0 .2-.1.2-.2.5-.1.2-.2.3-.5.4-.3.2-4.6 2-4.8 2.1z"/><path d="m15.2 18.3c-.1.2-.1.3-.2.5s-.2.3-.5.5c-.3.1-4.6 1.9-4.9 2-.4.3-.4.1-.3 0q0-.1.1-.4c0-.3.1-.4.4-.5.4-.2 4.7-2 5.1-2.2.4-.1.4 0 .3.1z"/><path d="m19.3 18.8c-.7 3.6-4.2 6.1-4.9 6.5-4.7 2.6-7.6-.2-8-.8-2.8-3.4-.5-9.1-.4-9.5q.1-.3.3-.7c-.5-.2-.7-.5-.8-.6-.4-.3-.1-.3.2-.3.2.1.6.1 1 .1.5-.9 1.1-1.6 1.7-2.2-.3-.2-.5-.4-.6-.5-.3-.2-1.7-1-2.2-1.7-.6-.7-.1-1.9.1-2.5.3-.5.6-.8 1.1-1 3.3-1.3 11-.1 11.3 0s.3.2.2.4c-.1.3-.2.5-.4 1.1 0 0-6.7 3.8-7.3 4.1q-.3.2-.5.3c.1.6 0 1 0 1.1 0 .2-.2.3-.3 0-.1 0-.3-.2-.5-.5q-.9.7-1.5 1.4c1.9-.1 4.3-.2 4.8-.2 2.4-.3 4.1.1 4.9.5 2.9 1.1 1.9 4.5 1.8 5zm-10.3-8.8q.3.2.5.4c1-.8 1.8-1.2 2-1.3.5-.3 3.7-2 3.9-2.1-7-.6-8.6.1-9 .4-.5.2-.2.5-.1.6.2.1 2.4 1.7 2.7 2zm8.6 5.8c-1.5-1.2-5.5-.9-5.9-.9-2.3.2-3.8 0-4.7-.3-1.2 2.1-1.2 4-1.2 4.3-.3 6.3 5.5 5.6 6.2 5.5 4.6-.6 6.6-5.3 6.7-5.6.7-1.8-.6-2.7-1.1-3z" fill-rule="evenodd"/><path d="m20.3 2s-.1.3-.2.6c-.5 1.2-.2 1.7-.2 1.9.4.6.8.3 1-.2.1-.2.1-.1.1 0q0 .1-.1.4c-.2.7-.5.9-.7.9-.5 0-.7-.6-.7-.9-.1-1.4.5-2.5.6-2.8s.3-.2.2.1z"/><path d="m46.2 1.8c-.1.2-.1.2-.2.5-.1.2-.2.3-.5.4-.3.2-7.8 4.5-7.9 4.6-.5.3-.4.1-.4 0q0-.1.1-.4c0-.3.2-.3.5-.5s7.7-4.5 8-4.7c.5-.3.4-.1.4.1z"/><path d="m55.3 2.3c.2.3.1.9-.1 1.2-.1.3-.3 0-.4-.2 0 0-.2-.2-.4-.3-.7-.7-1 .6-1.1 1.2-.1.4-.2 1.8-.3 2.6 0 .4-.2.4-.3.1-.6-1.7-1.6-2.6-1.7-2.7-.2-.2-.3 0-.4.2 0 .1-.1.1-.2 0-.1 0-.6-.4-.8-.6s-.2-.8-.1-1.1c0-.5.3-.6.4-.6 2.1 1.2 2.7 3.2 2.8 3.5.1-1.5.2-2.8 1-3.9.6-.8 1.6.4 1.6.6z"/><g fill-rule="evenodd"><path d="m62.8 5.4c-.1.2-.2.1-.3-.1-.1-.1-.3-.3-.6-.5-.3.7-.3.8-1.6 1.8-2.7 2.4-5.8 3.3-5.9 3.3-.2.1-.3-.1 0-.3 1-.7 5-2.5 7-5 0 0-.7-.2-1.1-.6-.4-.3-.2-1.4.1-1.8.8-1.3 1.5-.7 1.6-.5.7 1.2.3 2.3.3 2.3.4.3.7.7.5 1.4zm-1.3-2.9c-.2-.1-.4-.1-.8.4-.1.2 0 .4.3.5s.8.3.8.3c.1-.1.1-.8-.3-1.2z"/><path d="m26.9 5c-.1.2-.2.1-.3-.1 0-.1-.5-.5-.5-.5s-1.4 2.2-2.9 3.2c-1.8 1.3-3.2 1.8-3.3 1.8-.2 0-.2-.1.1-.3 1.1-.6 3.7-2.7 5.6-4.9 0 0-.5-.2-.9-.5s-.2-1.4.1-1.8c.8-1.1 1.4-.5 1.5-.3.6 1.1.2 2.1.2 2.1.3.2.7.6.4 1.3zm-1.1-2.8c-.2 0-.3-.1-.7.4-.1.2 0 .3.2.5.3.1.8.3.8.3 0-.1.1-.8-.3-1.2z"/><path d="m34.4 5c-.1.2-.2.1-.3-.1-.1-.1-.6-.5-.6-.5s-.6 1.3-1.6 2.1c-1.9 1.4-3.5 1.6-3.6 1.7-.2 0-.2-.2.1-.3 1.2-.7 2.6-1.2 4.6-3.7 0 0-.7-.2-1.1-.6-.4-.3-.2-1.4.1-1.9.8-1.2 1.5-.6 1.6-.4.7 1.2.3 2.3.3 2.3.4.3.7.7.5 1.4zm-1.3-2.9c-.2-.1-.4-.2-.8.4-.1.2 0 .3.3.4.3.2.8.4.8.4.1-.1.1-.8-.3-1.2z"/></g></g></svg>