<svg height="30" viewBox="0 0 70 30" width="70" xmlns="http://www.w3.org/2000/svg"><g fill="#191c4f"><path d="m37.4 23.2c0 .1 0 .1-.1.2-.1.2-.2.2-.3.3-.2.1-2.2.8-2.2.8-.3.2-.3.1-.3 0q.1 0 .1-.2c0-.2.1-.2.3-.3s2.1-.8 2.3-.9c.3-.2.3 0 .2.1z"/><path d="m24.6 21.9c.3.1.3.6.3.8-.3.9-.9 1.5-1 1.6-.2.2-.2.1-.1-.1 0 0 .1-.2.2-.3.6-.7.6-1.1.5-1.2 0-.5-.4-.4-.6-.1-.1.1-.1 0-.1 0q0-.1.1-.2c.3-.5.6-.5.7-.5z"/><path d="m36.6 21.3c.1 0 0 .1 0 .2 0 0-.2.2-.2.3q-.1.1-.2 0c-.1-.3-.3-.2-.5-.1s-.2.3-.2.4c.1.1.4.3.6.3.3.1.9-.1 1.1-.2s.1.1 0 .2c0 0-.1.3-.3.3-1.1.2-1.5.6-1.7.7-.1.1-.1 0-.1 0 .1-.1.1-.1.1-.3q.1-.1.3-.2 0 0-.3-.3c-.4-.4.4-1.2.8-1.4.3-.3.6 0 .6.1z"/><path d="m16.6 21c-.1.1-.1.1-.2.3-.1.1-.2.2-.3.3-.2.1-4 1.6-4.1 1.6-.3.2-.3.1-.2 0q0-.1 0-.3c.1-.2.2-.2.4-.3s3.9-1.6 4.1-1.7c.4-.2.3 0 .3.1z"/><path d="m64.1 19.1v.5c0 .2-.1.5-.2.8s-.7.4-1.2.1c-.7 1.2-1.4.6-1.7.5-.7-.3-.9.2-1 .3-.9 1-2.4.9-2.7 1-.4 0-.1-.2.1-.3 1.2-.4 1.9-.5 2.9-1.5.5-.5.8-.2 1-.2 1 .5 1.1 0 1.2-.1.2-.1.4-.6.4-.8.1-.1.2 0 .1.1v.4c.4.3.8 0 .9 0 0 0-.1-.4-.1-.5q0-.1.2-.5c0-.2.1 0 .1.2z"/><path d="m32.5 15.9s0 .3-.1.4c-.3.9-.1 1.3-.1 1.4.2.4.6.2.7-.1.1-.2.1-.1.1 0q0 .1-.1.2c-.1.6-.3.7-.5.7-.4 0-.5-.4-.5-.7-.1-.9.3-1.7.4-2 .1-.2.2-.1.1.1z"/><path d="m20.3 15s-.1.2-.1.4c-.3.9-.2 1.3-.1 1.4.2.4.5.2.7-.1 0-.2.1-.1.1 0q-.1 0-.1.2c-.2.6-.4.7-.5.7-.4 0-.5-.4-.5-.7-.1-.9.3-1.7.4-2 .1-.2.2-.1.1.1z"/><path d="m23.8 12.9s-.1.4-.2.7c-.3 1.3-.1 1.9 0 2 .4.7.8.3.9-.2.1-.3.2-.1.2 0q0 .1-.1.4c-.2.8-.4 1-.7 1-.4 0-.7-.6-.7-.9-.2-1.5.3-2.7.4-3.1.1-.3.2-.2.2.1z"/><path d="m10.5 16.2 1 .7q0 .1 0 .1l-.6.8q0 0-.1 0l-1-.7q0 0 0-.1l.6-.8q0 0 .1 0z"/><path d="m45.7 17.7c-.3.9-1.7 1.5-2 1.6-1.3.4-1.4-.9-1.3-1.8s.8-2 .8-2c-.1-.1-1.4-1.1-1.5-1.2s-.2-.2-.4-.3c-.1-.1-.1-.2-.1-.2s.1-.9.1-1 0-.1.1 0c.1 0 1.5.6 1.7.7.1 0 .1.1 0 .2-.1 0-.6.1-.6.1l1.2.9s1.6-2.2 1.8-2.4.1-.1.1.2c0 .2-.3 1.1-.4 1.2s-.9 1.3-.9 1.3 1.1.6 1.3 1c.5.7.2 1.3.1 1.7zm-2-1.9s-.8 1.2-.9 1.5c-.3.7.4.8.7.8s1.3-.5 1.7-.9c.5-.4-1.3-1.2-1.5-1.4z" fill-rule="evenodd"/><path d="m9.8 11.7s0 .3-.1.4c-.3.9-.1 1.3-.1 1.4.3.5.6.2.7-.1.1-.2.1-.1.1 0q0 .1-.1.2c-.1.6-.3.7-.5.7-.3 0-.5-.4-.5-.7-.1-.9.3-1.7.4-2 .1-.2.2-.1.1.1z"/><path d="m65.6 16.5c-.1.2-.3 1.2-1.6.9-.4-.1-1-.2-1.3-.9-.3.4-1.1 1.6-2.6 1.4-.3 0-1.4-.4-1.4-1.8 0 0-1.3 1-1.8 1.3 0 .5 0 1.1-.2 1.7-.3.6-2.9 3.6-5.1 4.1-.7.1-3.5.6-3.6-2.5 0-.6 0-1.1.1-1.5-1.7 1.4-3.8 2.4-4.4 2.7-.9.4-4.1.9-4.6 1-.4.1-.5 0-.3-.1.3-.2 7.3-2.5 11-6.4.1-.1 0-.2-.1-.4s-1.2-2.4-1.3-2.7-.3-.7-.3-.8q-.1-.1-.1-.3c0-.1.1-.7.2-.8 0-.2.1-.1.2 0 0 .1 1.2 1.2 1.3 1.4.1.1 0 .2 0 .2-.1 0-.6 0-.6 0s.7 1.3 1 1.7c.4 1.1.2 1.9 0 2.3-.3.7-.9 1.3-1.6 1.9-.2.6-.4 3.1 2 3.2.3 0 1.5.1 4-1.8.5-.5 1.1-1 1.7-1.8.2-.3.3-.8-.1-.7-.4 0-2.8.9-3.2-.6-.1-.4.1-4 2.5-2.2.3.2.8.6 1.1 1.3.4-.2 1.2-.6 2.1-1.4.3-.2.6-.3.6 0-.1.3-.2 2.4 2 1.8.2-.1 1.2-.3 1.9-2.1.2-.4.4-.3.3 0-.2.5-.4.9-.2 1.1s.8.6 1.6.5c.3 0 .5-.1.4-.3-.1-.3-.4-.7-.4-.7.1-.3.2-.8.2-.9s.1-.2.2-.1.8 1 .4 2.3zm-10.1.1c-.8-1-1.8-.4-1.9-.3s-.2.4.6.4c.9.1 1.3-.1 1.3-.1z" fill-rule="evenodd"/><path d="m27.3 11.1 1 .7q0 .1 0 .1l-.6.8q0 .1-.1 0l-1-.7q0 0 0-.1l.6-.8q.1 0 .1 0z"/><path d="m5.9 11.1s-.1.5-.2.8c-.4 1.7-.1 2.4 0 2.6.4.8.9.3 1.1-.3.1-.3.2-.2.1 0q0 .1 0 .5c-.2 1-.6 1.3-.9 1.3q-.1 0-.2-.1c-.8 2.3 0 3.6.2 3.8 1.1 1.6 3.2 1.1 3.7 1 3.1-.8 5-2.6 5.3-3 .2-.3-.1-.7-.2-.9s-.7-1.4-1-2.3c-.1-.3-.3-1-.3-1.1 0 0 .2-.8.3-.9 0-.1 0-.1.1 0q0 .1.1.2c0 .1.9 1.1 1 1.3s0 .3-.1.2q-.1 0-.5-.1s1 2.3 1.1 2.5c.3 1.6-1.3 2.9-1.6 3.2-3.8 2.8-5.9 2.3-6.7 2.1-3.4-1.1-1.9-5.5-1.6-6.2-.3-.2-.4-.7-.4-.9-.2-1.8.3-3.4.5-3.8.1-.5.2-.3.2.1z"/><path d="m44.3 10.1 1 .7q.1.1.1.1l-.6.8q-.1 0-.1 0l-1-.7-.5.7q0 0-.1 0l-1-.7q0 0 0-.1l.6-.8q0 0 .1 0l1 .7.5-.7q0 0 0 0z"/><path d="m63 10.1s0 .3-.1.5c-.3.8-.1 1.2-.1 1.3.3.5.6.2.7-.1.1-.2.1-.1.1 0q0 .1-.1.3c-.1.5-.3.6-.5.6-.3 0-.5-.4-.5-.6-.1-1 .3-1.8.4-2 .1-.3.2-.2.1 0z"/><path d="m53.1 9.6s-.1.3-.1.5c-.4.9-.2 1.4-.2 1.5.3.4.7.2.8-.2.1-.1.1-.1.1 0q0 .1-.1.3c-.1.6-.4.7-.6.7-.3 0-.5-.4-.5-.7-.1-1 .4-1.9.5-2.1.1-.3.2-.2.1 0z"/><path d="m26.7 8.9c0 .1 0 .2-.1.4s-.2.2-.4.3c-.2.2-7.1 3.7-7.2 3.8-.3.2-.3 0-.3-.1q.1 0 .1-.3c0-.2.1-.2.4-.4.2-.1 7-3.6 7.3-3.8s.3 0 .2.1z"/><path d="m33.9 9.6s-.1.2-.2.4c-.3.9-.1 1.3-.1 1.4.3.4.6.2.7-.2.1-.1.1 0 .1 0q0 .1 0 .3c-.2.5-.4.7-.6.7-.3 0-.5-.5-.5-.7-.1-1 .3-1.8.4-2s.2-.1.2.1z"/><path d="m13.2 6.5s-.1.4-.2.7c-.3 1.6 0 2.3 0 2.4.4.8.9.4 1.1-.2 0-.3.1-.2.1 0q0 .1 0 .4c-.2 1-.6 1.2-.8 1.2-.5.1-.8-.7-.8-1.1-.2-1.6.3-3.1.4-3.5.2-.4.3-.3.2.1z"/><path d="m10.7 6.3c.1.2 0 .6-.1.9 0 .1-.2 0-.3-.2 0 0-.1-.1-.2-.2-.5-.4-.7.4-.8.8 0 .3-.1 1.2-.1 1.7-.1.3-.2.2-.3.1-.3-1.2-1-1.7-1.1-1.8s-.2 0-.2.1-.1.1-.1 0c-.1 0-.5-.2-.6-.4-.1-.1-.1-.5-.1-.7 0-.3.2-.4.3-.3 1.4.7 1.8 2 1.9 2.2 0-1 .1-1.8.6-2.5.4-.5 1 .2 1.1.3z"/><path d="m22.1 6.2c.2.2.1.6 0 .8s-.2 0-.3-.1c0 0-.2-.1-.3-.2-.5-.4-.7.4-.7.8-.1.2-.1 1.2-.2 1.7 0 .2-.2.2-.2.1-.4-1.2-1-1.7-1.1-1.8-.1-.2-.2 0-.2.1-.1.1-.1 0-.2 0s-.4-.3-.6-.4c-.1-.1 0-.5 0-.7 0-.3.2-.4.3-.4 1.3.8 1.7 2.1 1.8 2.3.1-1 .1-1.9.6-2.5s1.1.2 1.1.3z"/><path d="m24.4 5.8s-.1.2-.1.4c-.3.9-.2 1.3-.1 1.4.2.4.6.2.7-.1 0-.2.1-.1.1 0q0 0-.1.2c-.1.6-.4.7-.5.7-.4 0-.5-.4-.5-.7-.1-.9.3-1.7.4-2 .1-.2.2-.1.1.1z"/><path d="m52.2 5.6c0 .1 0 .1-.1.3-.1.1-.2.2-.3.3-.2.1-5.4 3.1-5.5 3.2-.3.2-.3 0-.3-.1q0 0 .1-.2c0-.2.1-.2.3-.4.2-.1 5.4-3.1 5.6-3.2.3-.2.3-.1.2.1z"/><path d="m35.5 5.5c0 .1 1.3 2.9 1.4 3.1 0 .1-.1.2-.2.1s-.7-.7-.7-.7.7 5.1.8 6.3c.6 3-.1 4.2-.4 4.8-1.5 3.4-5.5 3.5-6.1 3.7-.6.1-.5-.1-.3-.3 3.2-1.2 4.9-2.4 5.7-3.4q0 0 0-.2c0-.5 0-.9-.3-1.4-1-2.1-3.9-4.3-4.2-4.5-1.5-1.5-3.3-4.2-3.4-4.3-.1-.2-.3-.3-.4-.4-.1 0-.1-.1-.1-.3s0-.9 0-1.1c0-.1.1-.1.2.1.2.1 2.1 1.6 2.4 1.9.2.2 0 .2-.2.2-.1-.1-.5-.2-.7-.3 0 0 .4.7.8 1.1.7 1.1 2.3 2.5 2.6 2.8.3.4 2.1 1.8 2.9 3 1 1.2.7 2.7.6 3.1q.4-.5.5-.9c.3-.7-1.1-9.1-1.1-9.1-.1-.7-.2-1.3-.2-1.8-.1-.4-.2-.6-.2-.6s.4-.9.5-1c0-.1.1 0 .1.1z"/><path d="m38.6 5.5c0 .1 1.3 3 1.4 3.2 0 .1-.1.2-.2.1s-.8-.8-.8-.8 1.1 7.5 1.2 7.7q.3 2.2.2 3.2c-.1 1-.2 1.3-.3 1.4-.1.2-.1.1-.1-.1 0-.5-.2-1.5-.3-2.6-.3-2.3-1.4-9.5-1.5-10.7 0-.1-.2-.5-.2-.5s.4-.9.5-1c0-.1 0 0 .1.1z"/><path d="m58.6 5.9c.1.2 0 .6-.1.8s-.2 0-.3-.1c0 0-.2-.1-.3-.2-.5-.5-.7.4-.8.8 0 .3-.1 1.3-.1 1.8-.1.3-.2.2-.3.1-.4-1.2-1-1.8-1.2-1.9-.1-.1-.2 0-.2.1s-.1.1-.1.1c-.1-.1-.5-.3-.6-.5-.2-.1-.1-.6-.1-.7 0-.4.2-.5.3-.4 1.4.8 1.9 2.1 1.9 2.4.1-1.1.2-2 .7-2.7.5-.5 1.1.3 1.2.4z"/><path d="m63.7 8.1c-.1.1-.1 0-.2-.1s-.2-.3-.4-.4c-.2.5-.2.5-1.1 1.3-1.9 1.6-4 2.2-4.1 2.3-.1 0-.2-.1 0-.2.7-.6 3.4-1.8 4.8-3.5 0 0-.4-.2-.7-.4s-.2-1 .1-1.3c.5-.8 1-.4 1-.3.5.8.3 1.6.3 1.6.2.2.5.5.3 1zm-.9-2.1c-.1-.1-.3-.1-.5.3-.1.1 0 .3.2.3.1.1.5.3.5.3.1-.1.1-.6-.2-.9z" fill-rule="evenodd"/><path d="m16.3 5.5c.7 2.2 1.2 10.3 1.2 10.7.1.3.2 1.9.5 2.6.6 1.4 1.8 1.4 2 1.3 1.3 0 2.1-1.3 2.4-1.5.2-.3.3 0 .2.1 0 .1-.1.5-.1.6.5 1.1 1.5.5 1.7.5.6-.3 1.1-1.2 1.4-1.5.2-.2.2.1.1.2 0 .1 0 .2-.2.5.5 1.1 1.4.6 1.6.4s.5-1.1.6-1.3.3-.2.2.3c.4.7 1.7.7 1.9.7.2-.1.2-.2.2-.3s-.3-1-.6-1.4c-.2-.4-.9-2.2-1-2.3 0-.1-.2-.4-.3-.4q-.1-.2 0-.4c0-.1.2-.7.2-.7s0-.1.1-.1c.1.1 1.4 1.5 1.5 1.6.1.2 0 .2-.1.2-.1-.1-.4-.1-.7-.2 0 0 .8 1.4 1 1.8.5.8.5 1.4.4 1.8-.1 1.2-.6 1.5-.8 1.6-1.4.2-2-.5-2.1-.7-.4 1-1 1.2-1.2 1.2-.9.2-1.2-.6-1.3-.8-.4.5-.9.8-1.2.9-1.3.6-1.8-.5-2-.7-.8.9-1.6 1.2-2.1 1.2-2.3.1-2.6-2.6-2.7-3.2-.1-.5-.7-8.7-1.4-11.8-.1-.2.2-.9.3-1 .2-.2.2-.4.3.1z"/><path d="m33.5 5.6c.1.1 0 .5-.1.7s-.2 0-.3-.1c0 0-.1-.1-.2-.2-.5-.4-.6.4-.7.7 0 .3-.1 1.2-.2 1.7 0 .2-.1.1-.2 0-.3-1.1-.9-1.6-1-1.7s-.2.1-.2.1c0 .1-.1.1-.1.1-.1-.1-.5-.3-.6-.4s0-.5 0-.7c0-.3.2-.4.3-.3 1.2.7 1.6 1.9 1.7 2.1 0-.9.1-1.7.5-2.4.4-.5 1 .3 1.1.4z"/><path d="m44.1 7.8c-.1.1-.1 0-.2-.1s-.4-.4-.4-.4-.5.9-1.2 1.5c-1.2 1-2.4 1.1-2.4 1.1-.1.1-.2 0 0-.2.9-.4 1.8-.8 3.2-2.5 0 0-.4-.2-.7-.4s-.2-1 0-1.3c.6-.8 1-.4 1.1-.3.5.8.2 1.6.2 1.6.3.2.5.5.4 1zm-.9-2.1c-.1 0-.3-.1-.6.3 0 .2.1.3.2.3.2.1.6.3.6.3 0-.1.1-.6-.2-.9z" fill-rule="evenodd"/></g></svg>