<svg height="30" viewBox="0 0 70 30" width="70" xmlns="http://www.w3.org/2000/svg"><g fill="#191c4f"><path d="m28.8 21.1c0 .2 0 .2-.1.3-.1.2-.2.2-.4.3-.1.1-2.5 1.1-2.6 1.2-.3.2-.3 0-.3-.1q.1 0 .1-.2c.1-.2.1-.2.3-.3s2.6-1.1 2.8-1.2c.3-.2.3-.1.2 0z"/><path d="m34.6 20.8c.4.1.4.6.4.8-.1.9-.6 1.7-.8 1.9-.1.2-.2.1-.1-.1 0 0 .1-.2.2-.4.5-.8.4-1.2.4-1.3-.2-.5-.6-.3-.7 0-.1.1-.2 0-.1 0q0-.1.1-.3c.2-.5.5-.6.6-.6z"/><path d="m13.9 20.7c0 .1 0 .1-.1.3-.1.1-.2.2-.3.3-.3.1-4.7 1.8-4.9 1.9-.3.1-.3.1-.2 0q0-.1 0-.3c.1-.2.1-.2.4-.3.2-.1 4.7-1.9 4.9-2 .3-.1.3 0 .2.1z"/><path d="m15.4 20.6s-.1.2-.2.4c-.3.9-.1 1.4-.1 1.5.3.4.6.2.8-.2 0-.1.1 0 .1 0q0 .1-.1.3c-.2.6-.4.7-.6.7-.3 0-.5-.4-.5-.7-.1-1 .4-1.9.5-2.1.1-.3.2-.1.1.1z"/><path d="m64.2 19.5v.4c0 .2-.1.5-.2.8s-.7.5-1.1.2c-.7 1.1-1.3.5-1.7.4-.6-.3-.8.2-.9.3-.8.9-2.3.9-2.6.9s-.1-.2.1-.2c1.1-.4 1.8-.5 2.8-1.4.5-.5.7-.3.9-.2.9.4 1.1 0 1.2-.1s.3-.6.4-.8c0-.1.1 0 .1.1s-.1.3-.1.4c.4.2.8 0 .9-.1 0 0-.1-.3-.1-.4q0-.1.1-.5c.1-.2.2 0 .2.2z"/><path d="m11 14.4 1 .7q0 0 0 .1l-.6.7q0 .1-.1 0l-.9-.6-.5.6q0 .1 0 0l-1-.7q0 0 0 0l.6-.8q0 0 0 0l1 .7.4-.7q.1 0 .1 0z"/><path d="m25.6 13.3c.1.1 1.2 1.1 1.3 1.3.2.1.1.1 0 .1h-.6s.7 1.4.9 1.8c.5 1 .3 1.9.2 2.2-1.2 2.2-5.3 3.8-6.2 4.2-.8.4-3.4.6-3.9.7-.4 0-.4-.1-.2-.2.3-.2 6-1.7 9.8-4.9.1-.2.3-.2 0-1-.1-.1-1.1-2.2-1.2-2.5-.1-.2-.3-.6-.3-.7q-.1-.1-.1-.3c.1-.1.1-.6.2-.7 0-.2.1-.1.1 0z"/><path d="m46.7 18.2c-.3.9-1.6 1.4-1.9 1.5-1.2.4-1.3-.8-1.2-1.7.1-.8.7-1.9.7-1.9-.1-.1-1.3-1-1.4-1.1s-.2-.3-.3-.3c-.1-.1-.1-.2-.1-.2s0-.9 0-1 0 0 .1 0c.2.1 1.5.6 1.6.7.2 0 .1.1.1.2-.1 0-.6.1-.6.1l1.1.8s1.6-2 1.7-2.2c.2-.2.2-.1.1.1 0 .2-.3 1.1-.4 1.2 0 .1-.8 1.2-.8 1.2s1 .6 1.2 1c.5.6.2 1.2.1 1.6zm-1.9-1.8s-.7 1.2-.8 1.4c-.3.7.4.8.6.8.3 0 1.2-.5 1.6-.9.5-.3-1.2-1.2-1.4-1.3z" fill-rule="evenodd"/><path d="m65.6 17.1c-.1.2-.3 1-1.5.8-.4-.1-1-.2-1.3-.9-.3.4-1 1.6-2.4 1.4-.3-.1-1.3-.4-1.4-1.7 0 0-1.1.9-1.7 1.2.1.5 0 1-.2 1.6-.2.5-2.7 3.4-4.8 3.9-.7.1-3.3.6-3.4-2.3q0-1 .1-1.5c-1.7 1.3-3.6 2.3-4.2 2.5-.9.5-3.9 1-4.4 1.1-.4 0-.4-.1-.2-.2s6.9-2.4 10.4-6c.1-.2 0-.3-.1-.5s-1.1-2.2-1.2-2.5-.3-.6-.3-.7q-.1-.2-.1-.3c0-.2.1-.7.2-.8 0-.2.1-.1.1 0 .1.1 1.2 1.2 1.3 1.3s.1.2 0 .2h-.6s.7 1.2 1 1.7c.4 1 .2 1.8 0 2.1-.3.6-.9 1.3-1.6 1.8-.1.6-.3 3 1.9 3 .4 0 1.5.2 3.8-1.7.6-.4 1.1-.9 1.7-1.6.2-.3.3-.8-.1-.8-.4.1-2.7.9-3.1-.5 0-.4.2-3.7 2.5-2.1.2.2.7.6 1 1.2.4-.1 1.1-.6 2-1.3.3-.2.5-.3.5 0s-.2 2.3 1.9 1.7c.3-.1 1.2-.2 1.8-1.9.2-.4.4-.4.3 0-.2.4-.4.8-.2 1s.8.6 1.6.5c.3 0 .4-.2.3-.4s-.4-.6-.4-.6c.1-.3.2-.7.2-.8.1-.2.1-.2.2-.1s.8 1 .4 2.2zm-9.6.1c-.8-1.1-1.7-.5-1.8-.4s-.1.4.6.5c.9 0 1.2-.1 1.2-.1z" fill-rule="evenodd"/><path d="m45.4 11 1 .6q0 .1 0 .1l-.6.8q0 0 0 0l-1-.7-.4.7q-.1 0-.1 0l-1-.7q0 0 0-.1l.6-.7q0-.1 0 0l1 .6.5-.6q0-.1 0 0z"/><path d="m63.2 11s-.1.2-.2.4c-.2.8-.1 1.2 0 1.3.2.4.5.2.6-.1.1-.2.1-.1.1 0q0 .1 0 .2c-.2.6-.4.7-.6.7-.3 0-.4-.4-.4-.7-.1-.9.3-1.6.4-1.9.1-.2.1-.1.1.1z"/><path d="m24.9 10.8.9.7q.1 0 0 .1l-.5.8q0 0-.1 0l-.9-.7q-.1-.1-.1-.1l.6-.8q0 0 .1 0z"/><path d="m5.8 11.1s-.1.5-.2.8c-.4 1.7-.1 2.4 0 2.6.4.8.9.3 1.1-.3.1-.3.2-.2.1 0q0 .1 0 .5c-.2.7-.4 1.1-.6 1.2q0 0 0 .1c-.4.4-.6 1.3-.6 1.5-.3 1.8 2 2 2.5 2 4.5 0 6.5-1.4 6.7-1.6s-.5-1.2-.7-1.5c0 0 .2-.8.3-1q.1-.2.2.1c.1.1.6 1 .7 1.3.3.8-.2 1.6-.3 1.8-.8.8-2.4 1.4-3.5 1.6-4.7 1-5.8-.2-5.9-.4-1.3-1.4-.1-3.4.3-3.8-.5-.1-.8-.8-.8-1.2-.2-1.8.4-3.3.5-3.8.1-.4.3-.2.2.1z"/><path d="m21.8 10.7s-.1.3-.1.4c-.4 1-.2 1.4-.1 1.5.2.5.6.2.7-.1.1-.2.1-.1.1 0q0 .1-.1.3c-.1.5-.4.7-.5.7-.4 0-.5-.5-.6-.7 0-1.1.4-1.9.5-2.2.1-.2.2-.1.1.1z"/><path d="m53.7 10.5s0 .3-.1.4c-.3.9-.1 1.4-.1 1.5.3.4.6.2.7-.2.1-.1.1-.1.1 0q0 .1 0 .3c-.2.5-.4.7-.6.7-.4 0-.5-.5-.5-.7-.1-1 .3-1.8.4-2.1.1-.2.2-.1.1.1z"/><path d="m13.7 7.8s-.1.4-.2.7c-.4 1.3-.2 1.9-.2 2 .3.7.8.3.9-.2.1-.2.2-.1.2 0q-.1.1-.1.4c-.2.8-.5 1-.8 1-.4 0-.6-.7-.6-1 0-1.4.5-2.6.6-3 .2-.3.3-.1.2.1z"/><path d="m11.4 7.1c.1.2 0 .6-.1.8 0 .1-.2 0-.3-.1 0 0-.1-.1-.2-.2-.5-.4-.7.4-.7.8 0 .3 0 1.2-.1 1.7q0 .1 0 .1c0 .4-.2 1-.9 1.6-.9.6-1 .6-1 .7-.1 0-.2-.1 0-.2.1-.1 1.8-1.6 1.6-2.4-.3-.8-1-1.4-1.1-1.5s-.2.1-.2.2-.1.1-.1 0c-.1 0-.5-.2-.6-.3-.1-.2-.1-.6-.1-.8 0-.3.2-.4.3-.3 1.3.6 1.8 1.9 1.9 2.1 0-1 0-1.8.5-2.5.4-.6 1 .2 1.1.3z"/><path d="m52.9 6.6c0 .2 0 .2-.1.3-.1.2-.2.2-.3.4-.2.1-5.2 2.9-5.2 3-.3.2-.3 0-.3-.1q0 0 .1-.2c0-.2.1-.2.3-.3.2-.2 5.1-3 5.3-3.1.3-.2.2-.1.2 0z"/><path d="m58.9 7c.1.2 0 .5-.1.8 0 .1-.2 0-.3-.2 0 0-.1-.1-.2-.2-.5-.4-.7.4-.7.8-.1.3-.1 1.2-.2 1.8 0 .2-.2.2-.2 0-.4-1.2-1-1.7-1.1-1.8-.2-.1-.2 0-.3.1 0 .1 0 .1-.1.1-.1-.1-.4-.3-.6-.4-.1-.2 0-.6 0-.8 0-.3.2-.4.3-.3 1.3.7 1.7 2 1.8 2.2.1-1 .1-1.8.6-2.5.5-.5 1.1.3 1.1.4z"/><path d="m15.9 6.5c.6 1.8.9 8.7 1.4 10.5.6 2.2 1.7 2.3 1.7 2.3-.5-.6-.7-1.9-.8-2.1 0-.7.3-1.1.7-1.8.4-.8 2.1-1 2.4-1 .7.1 1.8.7 2 1 .1.1 0 .2-.1.1-.4-.3-1.1-.3-1.7-.3s-2.3.7-2.5.8q-.2.2-.2.4c.1 1.4 1 2.1 1.2 2.2.7.7 1.6.6 1.9.5 1.6-.6 2.4-1.6 2.5-1.8.2-.1.2 0 .2.2-.1.2-.3.9-.3.9s-2.8 2.7-5.1 2.2c-2.4-.5-2.5-3.5-2.6-3.9-.1-.6-.7-7.9-1.1-8.9-.1-.2-.1-.3 0-.5 0-.1.1-.6.2-.8 0-.1.2-.2.2 0z"/><path d="m63.8 9c-.1.2-.1.1-.2-.1-.1 0-.2-.2-.4-.3-.2.5-.2.5-1 1.2-1.8 1.6-3.8 2.1-3.9 2.2-.1 0-.2-.1 0-.2.6-.5 3.2-1.7 4.6-3.3 0 0-.4-.2-.7-.4s-.2-.9 0-1.2c.6-.8 1-.4 1.1-.3.4.8.2 1.5.2 1.5.2.2.5.5.3.9zm-.9-1.9c-.1-.1-.2-.1-.5.3 0 .1.1.2.2.3.2 0 .6.2.6.2 0-.1 0-.5-.3-.8z" fill-rule="evenodd"/><path d="m45.2 8.8c-.1.1-.1 0-.2-.1s-.4-.4-.4-.4-.4.9-1.1 1.4c-1.2.9-2.2 1.1-2.3 1.1s-.2-.1 0-.2c.8-.4 1.7-.7 3.1-2.4 0 0-.5-.1-.7-.4-.3-.2-.2-.9 0-1.2.5-.8 1-.4 1-.3.5.8.3 1.5.3 1.5.2.2.4.5.3 1zm-.9-2c-.1-.1-.2-.1-.5.3-.1.1 0 .2.2.3s.6.2.6.2c0-.1 0-.5-.3-.8z" fill-rule="evenodd"/><path d="m39.7 6.2c0 .1 1.2 2.9 1.2 3 .1.2 0 .2-.1.2-.1-.1-.7-.7-.7-.7s1 7.6 1.1 7.8q.2 2.2.2 3.3c-.1.9-.3 1.3-.3 1.4-.1.1-.2.1-.1-.1-.1-.6-.2-1.6-.3-2.7-.3-2.3-1.2-9.5-1.4-10.7 0-.2-.1-.6-.1-.6s.3-.8.4-1c0-.1.1 0 .1.1z"/><path d="m31.7 15.5s-.1.2-.1.4c-.3.9-.2 1.3-.1 1.4.2.4.6.2.7-.1 0-.2.1-.1.1 0q0 .1-.1.2c-.1.6-.4.7-.5.7-.4 0-.5-.4-.5-.7-.1-.9.3-1.7.4-2 .1-.2.2-.1.1.1z"/><path d="m34 14.1 1 .7q0 .1 0 .1l-.6.8q0 0 0 0l-1-.7q0 0 0-.1l.5-.8q.1 0 .1 0z"/><path d="m34.6 10.6s.1.5.3.7c.1.2.2.5.2.9-.1.4-.3.7-.5.8-.2 0-.7 0-.9-.4-.4.7-.8.9-1.2.7-.3-.2-.3-.7-.3-.9 0-.1 0-.7 0-.8s0-.2.1-.3c.1-.2.1-.1.1 0 0 .2-.1.9.1 1.2.3.4.9.1 1-.2.1-.2-.1-1-.1-1q-.1-.1-.1-.1c0-.1.1-.3.1-.4q.1-.2.2 0c.1.1.1.3.2 1s.8.6.9.5c.2 0 .2-.1.1-.2 0-.1-.3-.7-.4-1-.1-.2 0-.4 0-.6.1-.2.2-.1.2.1z"/><path d="m35.8 7.2c-.1.1-.1.2-.2.3 0 .2-.1.2-.3.3s-5.1 2.1-5.2 2.2c-.3.1-.2 0-.2-.1q0 0 .1-.2c0-.2.1-.2.3-.3.2-.2 5.1-2.2 5.2-2.3.4-.1.3 0 .3.1z"/><path d="m25.6 6.2c-.1.1-.1.2-.2.4 0 .1-.1.2-.3.3s-6.8 3.7-6.9 3.7c-.4.2-.3.1-.3 0q0-.1.1-.3c0-.2.1-.2.3-.4.3-.1 6.8-3.6 7-3.8.4-.1.3 0 .3.1z"/><path d="m28.2 6.1c.7 1.8 1.2 10.5 1.2 11 .3 2.5 1.6 2.7 2 2.8 1.9.2 3.3-1.8 3.4-2 .2-.3.2.4.2.6.1.2.2.5.3.6.8.7 1.8.3 2.2.2.4-.2.4-.3.4-.5 0-.1-.1-1.3-.1-1.8-.1-.6-1.1-7.7-1.1-7.7-.1-.6-.2-1.2-.2-1.6-.1-.4-.2-.6-.2-.6s.4-.9.4-1c.1-.1.1 0 .1.1.1.1 1.1 2.8 1.2 2.9 0 .2-.1.2-.2.1s-.5-.5-.5-.5 1.1 7.7 1.1 8.3c.1.9 0 1.6 0 1.9-.2 1.3-1.2 1.7-1.5 1.7-1.8.4-2.3-1.2-2.4-1.4-.8 1.5-2.5 1.9-3 1.9-2.4-.1-2.6-3.5-2.7-4.1-.1-.7-.4-7.1-1-9.9-.1-.3.2-.9.2-.9.1-.1.1-.3.2-.1z"/></g></svg>