<svg height="30" viewBox="0 0 70 30" width="70" xmlns="http://www.w3.org/2000/svg"><g fill="#191c4f"><path d="m15.6 22.9c-.1.1-.1.2-.2.3 0 .2-.1.2-.3.3s-3.4 1.4-3.5 1.4c-.3.2-.3.1-.3 0q0-.1.1-.3c0-.2.1-.2.3-.3s3.4-1.3 3.6-1.4c.3-.2.3-.1.3 0z"/><path d="m25.3 21.7s-.1.3-.1.5c-.3.9-.2 1.3-.1 1.4.2.4.6.2.7-.1.1-.2.1-.1.1-.1q0 .1-.1.3c-.1.6-.4.7-.5.7-.4 0-.5-.4-.5-.7-.1-1 .3-1.8.4-2 .1-.3.2-.2.1 0z"/><path d="m64.1 19.2s.1.3.1.5-.1.6-.3.9c-.1.3-.7.4-1.1.1-.7 1.1-1.4.5-1.7.4-.7-.2-.9.2-1 .4-.8.9-2.3.8-2.7.9-.3 0 0-.2.1-.3 1.2-.4 1.9-.5 2.9-1.4.5-.5.8-.3 1-.2.9.4 1.1 0 1.2-.1s.3-.6.4-.8c0-.2.1 0 .1.1s-.1.3-.1.4c.4.3.8 0 .9-.1 0 0 0-.3 0-.4q-.1-.1.1-.5c.1-.3.1 0 .1.1z"/><path d="m32.9 17.7s-.1.2-.2.4c-.2 1 0 1.5 0 1.6.3.5.6.2.7-.2.1-.2.2-.1.1 0q0 .1 0 .3c-.1.6-.3.8-.5.8-.4 0-.5-.5-.6-.7-.1-1.1.3-2 .3-2.3.1-.3.2-.2.2.1z"/><path d="m21.7 15.1s-.1.4-.2.7c-.5 1.5-.2 2.1-.1 2.3.5.7 1 .3 1.2-.3 0-.3.1-.1.1 0q0 .1-.1.4c-.2.9-.5 1.2-.8 1.2-.6 0-.8-.7-.9-1.1-.2-1.6.4-2.9.6-3.3.1-.4.3-.3.2.1z"/><path d="m28.6 14 1 .8q.1 0 0 0l-.5.8q-.1.1-.1 0l-1-.7q0 0 0-.1l.6-.7q0-.1 0-.1z"/><path d="m24.7 13.6 1 .7q0 .1 0 .1l-.6.8q0 0-.1 0l-.9-.7q-.1 0-.1-.1l.6-.8q.1 0 .1 0z"/><path d="m10.6 14.5s-.1.5-.2.8c-.4 1.7-.1 2.5 0 2.6.5.9 1 .4 1.2-.2 0-.4.1-.2.1-.1q0 .2 0 .5c-.2 1.1-.6 1.4-.9 1.4-.5 0-.8-.8-.9-1.2-.2-1.9.4-3.5.5-3.9.2-.5.3-.3.2.1z"/><path d="m46.1 17.9c-.3.9-1.7 1.5-2 1.6-1.2.4-1.3-.9-1.2-1.7.1-.9.7-2.1.7-2.1-.1 0-1.4-1-1.5-1.1s-.2-.3-.3-.3c-.1-.1-.1-.2-.1-.2s0-.9 0-1 .1-.1.2 0c.1 0 1.5.6 1.6.7.2 0 .1.1 0 .2 0 0-.5.1-.5.1l1.1.8s1.6-2 1.8-2.2c.1-.2.1-.1.1.1s-.3 1.1-.4 1.2-.9 1.3-.9 1.3 1.1.6 1.3 1c.5.6.2 1.2.1 1.6zm-2-1.8s-.7 1.2-.8 1.4c-.3.7.4.9.6.8.3 0 1.3-.5 1.7-.9.5-.3-1.3-1.2-1.5-1.3z" fill-rule="evenodd"/><path d="m65.6 16.8c-.1.2-.3 1.1-1.6.8-.3 0-1-.2-1.3-.9-.3.4-1 1.6-2.5 1.4-.3 0-1.3-.4-1.4-1.7 0 0-1.2 1-1.8 1.3.1.4.1 1-.2 1.6-.2.5-2.8 3.5-4.9 4-.7.1-3.5.6-3.6-2.4 0-.6.1-1.1.1-1.5-1.7 1.3-3.7 2.3-4.3 2.6-.9.4-4 1-4.5 1-.4.1-.5 0-.2-.1.2-.1 7.1-2.5 10.7-6.2.1-.2 0-.3-.1-.5s-1.2-2.3-1.3-2.6-.2-.6-.3-.7q-.1-.2 0-.4c0-.1.1-.7.1-.8.1-.1.1-.1.2 0s1.2 1.2 1.3 1.4c.2.1 0 .2 0 .2-.1 0-.6 0-.6 0s.7 1.2 1 1.7c.4 1 .2 1.9 0 2.2-.3.7-.9 1.3-1.6 1.9-.1.5-.4 3 2 3.1.3 0 1.5.2 3.9-1.8.5-.4 1.1-.9 1.7-1.7.2-.3.3-.8-.1-.7-.4 0-2.8.9-3.2-.6 0-.4.2-3.9 2.5-2.1.3.1.8.6 1.1 1.2.4-.1 1.1-.6 2.1-1.3.2-.2.5-.4.5 0 0 .3-.2 2.3 2 1.7.2-.1 1.2-.3 1.8-2 .2-.4.5-.3.3 0-.1.4-.4.8-.2 1 .3.2.9.7 1.7.6.2-.1.4-.2.3-.4s-.4-.7-.4-.7c.1-.2.2-.7.2-.8s.1-.2.2-.1.8 1 .4 2.3zm-9.9.1c-.8-1.1-1.7-.5-1.9-.4-.1.1-.1.4.6.5.9 0 1.3-.1 1.3-.1z" fill-rule="evenodd"/><path d="m43.2 10.4 1 .7.5-.6q0-.1.1-.1l.9.8q.1 0 0 0l-.5.8q-.1.1-.1 0l-1-.7-.5.7q0 .1 0 0l-1-.7q-.1 0 0-.1l.6-.7q0-.1 0-.1z"/><path d="m63.1 10.5s-.1.2-.1.4c-.3.9-.2 1.3-.1 1.4.2.4.5.2.6-.2.1-.1.1 0 .1 0q0 .1 0 .3c-.2.5-.4.6-.6.6-.3 0-.4-.4-.4-.6-.1-.9.3-1.7.4-2 .1-.2.2-.1.1.1z"/><path d="m9.2 10.3s-.1.3-.2.5c-.3 1.1-.1 1.5 0 1.6.3.5.7.3.9-.1 0-.2.1-.1.1-.1q0 .1 0 .4c-.2.6-.5.8-.7.8-.4 0-.7-.5-.7-.8-.1-1.1.3-2.1.4-2.3.1-.3.3-.2.2 0z"/><path d="m53.3 10s0 .3-.1.4c-.3 1-.1 1.4-.1 1.5.3.5.6.2.7-.1.1-.2.1-.1.1 0q0 0 0 .2c-.2.6-.4.7-.6.7-.4 0-.5-.4-.5-.7-.1-1 .3-1.8.4-2.1.1-.2.2-.1.1.1z"/><path d="m26.4 9.2c0 .1 0 .1-.1.3-.1.3-.2.3-.4.5-.1.1-6.6 3.7-7.3 4.1-.7.5-.6.8-.4.9.5.1.8.4.5 1 0 0 0 .1 0 0-.1-.1-.3-.2-.5-.2-.4-.1-.6-.6-.5-1.2.1-.4.3-.8.6-1 .5-.5 7.6-4.4 7.8-4.5.4-.2.4-.1.3.1z"/><path d="m10.4 6.7c.1.2 0 .6-.1.8 0 .2-.2 0-.3-.1 0 0-.1-.2-.2-.2-.5-.5-.7.3-.7.7-.1.3-.1 1.2-.2 1.7 0 .3-.2.2-.2.1-.4-1.1-1-1.7-1.1-1.8q-.1 0-.1 0 .1.1.1.4c-.3 1.4-1.7 2-1.9 2.1-.3.2-.3.1 0-.2.2-.2 1.3-1.4 1.5-1.6.5-.5-.4-.8-.5-.9-.2-.1-.1-.6-.1-.7 0-.3.2-.4.3-.4 1.3.7 1.7 2 1.8 2.2.1-.9.1-1.8.6-2.4.4-.6 1 .2 1.1.3z"/><path d="m30.5 19.9c0 .4-.1.9-.2 1-1 .9-2 1-2.5 1-1.3-.1-1.8-1.3-1.8-1.3s-2.4 1.3-4.3 1.6c-3.9.7-4.8-1.4-5-2.1-.3-.8-.5-2.7-.6-4.1 0-.8-.5-6.5-.9-8.1-.1-.6-.1-.8-.1-1 .1-.2.2-.5.3-.6.1-.2.2-.2.2 0 .1.1.4 1.6.5 2.4s.7 8.2.9 9.5c.3 2.6 2.4 2.8 2.7 2.9 3.2.3 5.7-1.4 5.7-1.4-.6-1-.5-2.4.1-3.3.5-.9 1.1-.5 1.3-.3.9 1.1.8 1.9.7 2.3-.1 1.2-.7 1.6-.8 1.7 1.2 1.2 2.8.2 3.2 0s-.6-1.6-.7-1.8c0 0 0-.8.1-.9q0-.2.1-.1c1.2 1 1.1 2.2 1.1 2.6zm-3.4-1.6c-.1-.4-.6-1.4-1.1-1.2-.4.2-.6.6-.5 1.1.4.9.6 1.1.6 1.1s1-.6 1-1z" fill-rule="evenodd"/><path d="m12.6 6.2c0 .1 1 3 1.1 3.2 0 .1-.1.2-.2.1s-.6-.7-.6-.7 1.3 8.3 1.4 9.3c.3 2.4-1.2 3.5-2 4.1-4.3 2.9-5.8 1.5-6.2 1.2-1.8-1.2-1-4.5-.6-5.4q.1-.1.1-.2c-.3-.2-.5-.7-.5-1.1-.3-1.8.3-3.4.5-3.9.1-.4.2-.2.2.2 0 0-.1.5-.2.8-.4 1.7-.1 2.5 0 2.6.4.8.9.4 1.1-.3.1-.3.2-.1.2 0q-.1.2-.1.5c-.2 1.1-.6 1.3-.9 1.3q0 0 0 0 0 .2-.1.4c-1.6 4.1 1.6 4.4 2.2 4.5 2.4.1 5.2-2.5 5.5-2.9.3-.3.2-.8.1-1.6 0-.6-1.6-11-1.6-11.2 0 0 .4-.9.4-1 .1-.1.1 0 .2.1z"/><path d="m35.4 6c0 .1 1.1 3.1 1.1 3.3.1.2 0 .2-.1.1s-.7-.7-.7-.7.8 7.2.9 7.9c.2 2.2-.1 3.5-.7 4.6-1.6 2.6-5.7 2.9-6 2.9s-.5-.1 0-.3c3.3-1.1 4.8-2.3 5.6-3.3 0-.2 0-.3 0-.5 0-2-2.4-4.3-2.7-4.6-.3-.2-1.9-1.6-3.8-4-.4-.5-.8-1-.9-1.1s-.1-.1-.1-.2 0-1.2 0-1.3c0-.2 0-.1.2.1.2.1 2.2 1.7 2.4 1.9.1.1-.1.1-.3.1 0-.1-.6-.3-.6-.3q-.1 0 0 .1c1.2 2.1 4.4 4.2 5.5 6.3.6 1.6.6 2.6.5 3.1.3-.4.4-.8.4-1 .1-.6-.3-3.5-.4-4.1-.3-3.4-.8-7.8-.8-8.1 0 0 .3-.8.4-.9 0-.2.1-.1.1 0z"/><path d="m38.5 6c.1.1 1.1 3 1.2 3.2 0 .1-.1.2-.2.1s-.6-.7-.6-.7.7 7.9.7 8.1q.3 2.3.1 3.4c-.1.9-.3 1.3-.3 1.4-.1.2-.2.1-.1-.1 0-.6-.1-1.6-.2-2.8-.2-2.3-.9-9.8-1-11.1-.1-.2-.1-.5-.1-.6 0 0 .3-.9.4-1s.1 0 .1.1z"/><path d="m32.8 6.1s-.1.3-.2.5c-.3 1.1-.1 1.6-.1 1.7.3.5.7.3.8-.2.1-.2.1-.1.1 0q0 .1-.1.4c-.1.6-.4.8-.6.8-.3 0-.5-.6-.5-.8-.1-1.2.4-2.2.5-2.5s.2-.1.1.1z"/><path d="m28.7 6.1c.1.1-.1.4-.1.5q-.1.1-.3-.1c-.2-.3-.5 0-.6 0-.2.1-.1.2.2.5.4.3 1.1.1 1.3.1.2-.1.3-.1.3 0 0 .2-.1.4-.1.4-.7.1-1.7.7-1.9.8q0 0-.2 0c-.1.1-.1 0-.1 0q0-.1.1-.4c0-.1.2-.2.4-.2 0 0-.3-.3-.5-.5-.2-.3.3-1.1.8-1.3s.7.1.7.2z"/><path d="m52.5 6c-.1.1-.1.1-.1.3-.1.2-.2.2-.4.3s-5.3 3.1-5.4 3.1c-.3.2-.2.1-.2 0q0 0 .1-.3c0-.1.1-.2.3-.3s5.3-3.1 5.5-3.2c.3-.2.2 0 .2.1z"/><path d="m58.7 6.3c.1.2 0 .6-.1.9 0 .1-.2 0-.3-.2 0 0-.1-.1-.2-.2-.6-.4-.8.4-.8.8-.1.3-.1 1.3-.2 1.8 0 .2-.2.2-.2.1-.4-1.2-1.1-1.8-1.2-1.9s-.2.1-.2.1c0 .1-.1.1-.1.1-.1-.1-.5-.3-.6-.4-.2-.2-.1-.6-.1-.8 0-.3.2-.4.3-.4 1.4.8 1.8 2.1 1.9 2.4.1-1.1.1-2 .7-2.6.4-.6 1 .2 1.1.3z"/><path d="m63.7 8.5c0 .1-.1 0-.2-.1s-.2-.3-.4-.4c-.2.5-.2.5-1 1.3-1.9 1.6-4 2.2-4.1 2.2s-.1-.1.1-.2c.6-.5 3.3-1.7 4.7-3.4 0 0-.5-.2-.7-.4-.3-.2-.2-1 0-1.3.6-.8 1-.4 1.1-.2.4.7.2 1.5.2 1.5.2.2.5.5.3 1zm-.9-2c-.1-.1-.2-.1-.5.3-.1.1 0 .2.2.3.2 0 .6.2.6.2 0-.1 0-.6-.3-.8z" fill-rule="evenodd"/><path d="m44.5 8.2c-.1.1-.1 0-.2-.1s-.4-.3-.4-.3-.4.8-1.1 1.4c-1.3.9-2.4 1.1-2.4 1.1-.1 0-.2-.1 0-.2.8-.5 1.8-.8 3.1-2.5 0 0-.4-.1-.7-.4-.3-.2-.1-.9.1-1.2.5-.9 1-.5 1.1-.3.4.8.2 1.5.2 1.5.2.2.5.5.3 1zm-.9-2c-.1-.1-.2-.1-.5.3-.1.1 0 .2.2.3.2 0 .5.2.5.2.1-.1.1-.5-.2-.8z" fill-rule="evenodd"/><path d="m22.3 5.2c.1.2.1.6 0 .8s-.2 0-.3-.1c0 0-.2-.1-.3-.2-.5-.4-.6.5-.6.9-.1.3.2 2.6-.7 3.5-.9.8-1.7 1.2-1.4.9.2-.3 1.2-1.2 1.4-1.5s.7-.9.3-1.6c-.2-.3-.5-.8-1.1-1.2-.1-.2-.2 0-.2.1s-.1.1-.2 0c0 0-.4-.2-.5-.3-.2-.1-.2-.6-.2-.7 0-.3.2-.5.3-.4 1.4.6 1.9 1.9 2 2.1 0-1-.1-1.8.4-2.5.4-.6 1 .1 1.1.2z"/><path d="m29.6 4.2c-.1.1-.1.1-.2.3s-.2.2-.4.3-3.7 1.4-3.8 1.4c-.4.2-.3.1-.3 0q0-.1.1-.3c.1-.2.2-.2.4-.4.2-.1 3.7-1.3 3.9-1.4.4-.2.3-.1.3.1z"/></g></svg>