<svg height="30" viewBox="0 0 70 30" width="70" xmlns="http://www.w3.org/2000/svg"><g fill="#191c4f"><path d="m22.8 21.5v.6c0 .2-.1.5-.3.9-.1.3-.8.4-1.2.1-.8 1.2-1.5.6-1.9.5-.7-.3-.9.2-1.1.4-.9 1-2.5.9-2.9 1-.3 0 0-.2.1-.3 1.3-.5 2.1-.5 3.2-1.6.5-.5.8-.3 1-.2 1.1.5 1.2 0 1.4-.1.1-.1.3-.7.4-.9.1-.1.2 0 .1.1 0 .1-.1.3-.1.4.5.4.9.1 1 0 0 0 0-.3 0-.5q-.1-.1.1-.5c.1-.3.1 0 .2.1z"/><path d="m25.5 20.8 1.2.9q0 .1 0 .1l-.7 1q-.1 0-.1 0l-1.2-.9q0 0 0-.1l.7-.9q0-.1.1-.1z"/><path d="m63.5 20.9s.1.3.1.6c0 .2-.2.6-.3 1-.1.3-.9.5-1.4.1-.9 1.4-1.7.7-2.1.5-.8-.3-1 .3-1.3.5-.9 1.1-2.7 1.1-3.2 1.1-.4 0 0-.2.1-.3 1.5-.5 2.3-.6 3.6-1.8.6-.6.9-.3 1.1-.2 1.2.5 1.4 0 1.5-.1.2-.2.4-.8.5-1s.2-.1.2.1c-.1.1-.1.3-.2.5.5.3 1 0 1.1-.1 0 0 0-.4 0-.5q0-.2.1-.6c.1-.3.2 0 .2.2z"/><path d="m31.3 20.1c.1 0 .2 0 .3.1q0 .1-.1.1 0 0-.1 0c-.2 0-.3.1-.5.2q-.2 0-.3.1-.1.1-.1.2 0 0 0 0c.1.2.4.3.6.3.3 0 .5-.3.7-.4.1-.1.3-.3.3-.1q0 .1 0 .2c0 .1-.1.1-.1.1-.5.4-1.1.8-1.3 1.3 0 .3 0 .6.2.8.1.2.4.4.7.4q.5.1 1 0 .2-.1.4-.1.1-.1.2-.1h.2c.1 0 0 .1 0 .1q0 .1-.1.1-.2 0-.3.1c-.2.1-.4.2-.7.3-.4 0-.9.1-1.2-.1-.9-.5-.7-1.7-.2-2.3-.2 0-.4-.1-.6-.3-.1-.1-.1-.3 0-.5.1-.4.6-.6 1-.5z"/><path d="m12.6 17.4c.1.2.1.6 0 .8 0 .2-.2 0-.3-.1 0 0-.1-.1-.3-.2-.5-.3-.6.5-.6.9 0 .3.1 1.3.1 1.8 0 .2-.2.3-.3.1-.5-1.1-1.2-1.6-1.3-1.7-.2-.1-.2.1-.2.2s-.1.1-.2 0c-.1 0-.5-.2-.6-.3-.2-.1-.2-.5-.2-.7 0-.3.2-.5.3-.4 1.4.5 2.1 1.8 2.2 2-.1-1-.2-1.9.2-2.6.4-.6 1.1.1 1.2.2z"/><path d="m41.5 19.2c-.4 1.2-2.1 1.8-2.5 1.9-1.5.5-1.6-1-1.5-2.1.1-1 .9-2.4.9-2.4-.1-.1-1.6-1.3-1.8-1.4-.1-.2-.2-.3-.4-.4-.1-.1-.1-.2-.1-.2s0-1.1 0-1.2c0-.2.1-.1.2-.1.1.1 1.8.8 2 .9.2 0 .1.2 0 .2s-.6.2-.6.2l1.4 1s1.9-2.6 2.1-2.8.2-.1.1.2c0 .2-.4 1.3-.5 1.4-.1.2-1.1 1.6-1.1 1.6s1.3.8 1.7 1.2c.5.8.2 1.6.1 2zm-2.5-2.2s-.9 1.4-1 1.7c-.4.9.5 1.1.8 1 .4 0 1.5-.6 2.1-1 .5-.5-1.6-1.6-1.9-1.7z" fill-rule="evenodd"/><path d="m6.3 12.4s-.2.5-.3.9c-.6 1.7-.4 2.6-.3 2.7.4 1 1 .5 1.2-.2.2-.3.2-.1.2 0q0 .2-.1.6c-.3 1.1-.7 1.3-1.1 1.3-.5-.1-.8-.9-.8-1.4 0-1.9.8-3.6 1-4 .2-.5.3-.3.2.1z"/><path d="m65.3 17.8c-.1.3-.4 1.4-1.9 1.1-.4-.1-1.2-.3-1.6-1.1-.4.4-1.3 2-3.1 1.7-.4-.1-1.6-.6-1.7-2.1 0 0-1.5 1.2-2.2 1.5.1.6.1 1.3-.2 2s-3.5 4.3-6.1 4.9c-.8.2-4.2.8-4.3-2.9 0-.8 0-1.4.1-1.8-2.1 1.6-4.5 2.8-5.3 3.1-1 .6-4.8 1.2-5.5 1.3-.5.1-.5 0-.3-.2.3-.1 8.7-3 13.1-7.6.1-.1.1-.3 0-.6-.1-.2-1.5-2.8-1.6-3.2-.2-.3-.3-.7-.4-.9q-.1-.2-.1-.4c.1-.1.2-.8.2-1 .1-.1.2-.1.2 0 .1.2 1.5 1.5 1.7 1.7.1.2 0 .3-.1.3h-.7s.9 1.5 1.2 2.1c.5 1.2.2 2.2.1 2.7-.5.8-1.2 1.6-2 2.3-.2.6-.5 3.7 2.4 3.8.4 0 1.9.2 4.7-2.2.7-.5 1.5-1.2 2.1-2.1.3-.3.4-1 0-.9-.5.1-3.5 1.2-3.9-.7-.1-.4.1-4.7 3-2.6.3.2.9.7 1.3 1.5.5-.2 1.4-.7 2.6-1.6.3-.3.6-.4.6 0s-.3 2.8 2.4 2.1c.3-.1 1.5-.3 2.3-2.4.2-.5.5-.5.4 0-.3.5-.5.9-.3 1.2.3.3 1.1.8 2 .7.3-.1.5-.2.4-.5s-.4-.8-.4-.8c0-.3.2-.9.2-1 0-.2.1-.3.2-.2.1.2 1 1.3.5 2.8zm-12.1.1c-1-1.2-2.1-.5-2.3-.4-.1.2-.2.5.8.6 1.1.1 1.5-.2 1.5-.2z" fill-rule="evenodd"/><path d="m15.3 11.2s-.1.3-.2.5c-.3 1-.2 1.5-.1 1.6.3.5.6.2.8-.1.1-.2.1-.1.1-.1q0 .1-.1.4c-.2.6-.4.7-.6.7-.4 0-.6-.5-.6-.7 0-1.1.4-2.1.5-2.3.1-.3.2-.2.2 0z"/><path d="m24.4 10.5c.5.9 1.2 4.2 1.4 4.6.4 1.4 1.6 1.8 1.6 1.8-.1 0-.5-1.3-.6-1.7-.5-1.7.4-2.9.7-3.2 1-1.2 2.6-1.3 3.5-1.3s2.5.8 2.8 1 0 .3-.3.2c-.7-.2-1.4-.3-1.9-.2-1.5 0-3.3.8-3.7 1s-.5.4-.5.6c0 .6.3 1.5.5 1.8.8 1.8 2.1 2 2.5 2 2 .2 4.7-2.3 4.9-2.4q.2-.2.1.1c0 .2-.3.9-.5 1.2-.9 1.1-3.2 2.2-4 2.5-4.3 1.4-5.5-1.7-5.5-1.7s-.5 1.3-1.3 1.4c-1.3.1-2-.8-2-.9-.3.7-.9 1.2-1.3 1.3-1.2.4-1.7-.7-1.8-.9-.8 1-1.8 1.1-1.9 1.1.1.7-.3 2-.4 2.3-.5 1.1-3.1 2.7-3.5 2.9-4.8 2.6-6.8.6-7 .5-2.3-2.2-.6-6.1-.4-6.5.2-.5.5-.2.4 0-1 2.1-.3 3.9-.2 4.2.8 1.8 3.1 1.7 3.5 1.7 2.7-.2 5.7-2.6 6.4-3.1.6-.5.6-.9.6-1.1 0-1-.9-2.4-1.1-2.7 0 0 .2-1 .2-1.1s.1-.3.2 0c.6 1.2 1.2 1.4 1.4 1.4 1.1 0 2.4-1.5 2.6-1.7.2-.3.2 0 .2.2-.1.1-.2.6-.3.7.7 1.5 1.8.5 2 .2.2-.2.5-1 .7-1.3.1-.3.3-.1.2.1 0 .2 0 .2-.1.4.3.8 1.3.9 1.7.9 1.1 0 .8-1.1.8-1.4-.1-.4-.9-3.2-1.1-3.7s0-.9.1-1.1.2-.3.4-.1z"/><path d="m39.8 10.1 1.2.9q.1 0 0 .1l-.7.9q0 .1-.1.1l-1.1-.9-.6.8q-.1.1-.1.1l-1.2-.9q-.1-.1 0-.1l.7-1q0 0 .1 0l1.1.9.6-.9q.1 0 .1 0z"/><path d="m62.2 10.2s0 .3-.1.5c-.4 1-.2 1.5-.1 1.6.3.5.6.3.8-.1.1-.2.1-.1.1 0q0 .1-.1.3c-.1.6-.4.8-.6.8-.4 0-.6-.6-.6-.8-.1-1.2.4-2.1.5-2.4s.2-.2.1.1z"/><path d="m50.3 9.5s-.1.4-.2.6c-.3 1.1-.1 1.6-.1 1.8.3.5.8.2.9-.2.1-.2.2-.1.1 0q0 .1 0 .3c-.2.7-.5.9-.7.9-.5 0-.7-.6-.7-.9-.1-1.2.5-2.2.6-2.5s.2-.2.1 0z"/><path d="m10.1 6c.1.2.1.6 0 .8 0 .2-.2 0-.3-.1 0 0-.2-.1-.3-.2-.6-.3-.6.5-.6.9-.1.3 0 1.3 0 1.8 0 .3-.1.3-.2.1-.5-1.1-1.3-1.6-1.4-1.7s-.2.1-.2.2-.1.1-.1 0c-.1 0-.5-.2-.7-.3-.1-.1-.1-.5-.1-.7 0-.3.1-.5.2-.4 1.5.5 2.1 1.8 2.2 2-.1-1-.1-1.9.3-2.6.4-.6 1.1.1 1.2.2z"/><path d="m20.3 5.6c0 .1 0 .2-.1.4s-.3.3-.5.4c-.2.2-10.5 5.7-10.6 5.8-.5.3-.4.1-.4 0q.1-.1.1-.4c.1-.2.2-.3.5-.5.3-.1 10.4-5.7 10.7-5.8.5-.3.4-.1.3.1z"/><path d="m27.4 5.1c-.1.1-.1.2-.2.4s-.2.3-.4.4-6.1 3.4-6.9 3.9-.7.8-.5.9c.6.1.9.5.6 1.2h-.1c-.1-.1-.2-.3-.5-.3-.4-.1-.6-.7-.5-1.3.1-.4.3-.9.6-1.1.7-.5 7.3-4.1 7.5-4.2.4-.3.4-.1.4.1z"/><path d="m33.6 5c-.1.2-.1.2-.2.4s-.2.3-.4.5c-.3.1-6.9 3.6-7 3.7-.4.2-.4.1-.3-.1q0 0 0-.3c.1-.2.2-.3.5-.5.3-.1 6.8-3.6 7.1-3.8.4-.2.4-.1.3.1z"/><path d="m49.3 4.7c-.1.1-.1.1-.2.3s-.2.3-.4.4c-.2.2-6.5 3.8-6.6 3.8-.3.3-.3.1-.3 0q.1 0 .1-.3c.1-.2.1-.3.4-.4.2-.2 6.4-3.8 6.7-3.9.4-.2.3-.1.3.1z"/><path d="m56.9 5c.1.3 0 .8-.1 1.1-.1.2-.3 0-.4-.2 0 0-.2-.1-.3-.3-.6-.5-.9.5-1 1 0 .4-.1 1.6-.2 2.2 0 .3-.2.3-.3.1-.4-1.5-1.2-2.1-1.3-2.3-.2-.1-.3.1-.3.2-.1.1-.1.1-.2 0-.1 0-.6-.3-.7-.5-.2-.1-.1-.7-.1-.9 0-.4.3-.5.4-.5 1.7 1 2.2 2.6 2.3 2.9.1-1.2.1-2.3.8-3.2.5-.7 1.3.3 1.4.4z"/><g fill-rule="evenodd"><path d="m63 7.7c0 .1-.1 0-.2-.1s-.3-.3-.5-.4c-.3.5-.3.6-1.3 1.5-2.3 1.9-4.8 2.6-4.9 2.7-.2 0-.2-.1 0-.3.8-.6 4.1-2 5.8-4.1 0 0-.6-.2-.9-.5-.4-.2-.2-1.2.1-1.5.6-1.1 1.2-.5 1.3-.4.5 1 .2 1.9.2 1.9.3.2.6.6.4 1.2zm-1.1-2.5c-.1-.1-.3-.1-.6.4-.1.1 0 .3.2.4.3.1.7.3.7.3.1-.2.1-.7-.3-1.1z"/><path d="m39.5 7.3c-.1.2-.1.1-.3-.1 0 0-.4-.4-.4-.4s-.5 1.1-1.4 1.7c-1.5 1.2-2.8 1.4-2.9 1.4-.2.1-.2-.1 0-.2 1-.6 2.2-1 3.8-3 0 0-.5-.3-.8-.5-.4-.3-.2-1.2 0-1.6.7-1 1.3-.5 1.3-.3.6.9.3 1.9.3 1.9.3.2.6.5.4 1.1zm-1.1-2.4c-.1-.1-.3-.1-.6.3-.1.2 0 .3.2.4s.7.3.7.3c0-.1.1-.7-.3-1z"/></g></g></svg>