<svg height="30" viewBox="0 0 70 30" width="70" xmlns="http://www.w3.org/2000/svg"><g fill="#191c4f"><path d="m29.5 21.8c0 .1-.1.1-.1.3-.1.1-.2.2-.4.3-.1.1-4.5 1.8-4.6 1.8-.3.2-.3.1-.3 0q0 0 .1-.3c0-.1.1-.1.3-.3.2-.1 4.6-1.8 4.8-1.9.3-.1.2 0 .2.1z"/><path d="m14.9 20.9c-.1.1-.1.2-.2.3 0 .2-.1.2-.3.3s-4.6 1.8-4.7 1.9c-.3.1-.2 0-.2-.1q0 0 .1-.2c0-.2.1-.2.3-.3s4.6-1.9 4.7-2c.4-.1.3 0 .3.1z"/><path d="m64.9 19.3v.4c0 .2-.1.5-.2.8s-.7.4-1.1.2c-.7 1-1.4.5-1.7.3-.6-.2-.8.2-1 .4-.7.9-2.2.8-2.5.9-.3 0 0-.2.1-.3 1.1-.4 1.8-.4 2.8-1.4.4-.4.7-.2.9-.1.9.4 1.1 0 1.2-.2.1-.1.3-.6.3-.7.1-.2.2-.1.1.1v.3c.3.3.7.1.8 0 0 0 0-.3 0-.4q0-.1.1-.5c.1-.2.1 0 .2.2z"/><path d="m9 13.9s-.1.5-.1.8c-.4 1.5-.1 2.2 0 2.3.4.7.8.3 1-.3 0-.2.1-.1.1 0q0 .2 0 .5c-.2.9-.5 1.2-.8 1.2-.5 0-.8-.7-.8-1.1-.2-1.6.3-3.1.5-3.5.1-.4.2-.2.1.1z"/><path d="m31.8 13.3.9.6q0 .1 0 .1l-.5.8q-.1 0-.1 0l-1-.7q0 0 0-.1l.6-.7q0-.1.1 0z"/><path d="m47.5 17.9c-.3 1-1.6 1.5-1.9 1.6-1.2.3-1.3-.8-1.2-1.7.1-.8.7-1.9.7-1.9-.1-.1-1.3-1-1.4-1.1s-.2-.3-.3-.3c-.1-.1-.1-.2-.1-.2s0-.8 0-.9c0-.2.1-.1.2-.1.1.1 1.4.6 1.5.7.2 0 .1.2.1.2-.1 0-.6.1-.6.1l1.1.8s1.6-2 1.7-2.2c.2-.2.1-.1.1.1s-.3 1.1-.4 1.2-.8 1.2-.8 1.2 1 .6 1.2 1c.5.6.2 1.2.1 1.5zm-1.9-1.7s-.7 1.1-.8 1.4c-.3.7.4.8.6.8.3-.1 1.2-.5 1.6-.9.5-.3-1.2-1.2-1.4-1.3z" fill-rule="evenodd"/><path d="m28.2 12.5 1 .6q0 .1 0 .1l-.6.8q0 0 0 0l-1-.7q0 0 0-.1l.6-.7q0-.1 0 0z"/><path d="m12.1 12.5c.1.1 1.1 1.2 1.3 1.3.1.2 0 .2-.1.2h-.5s.7 1.2.9 1.7c.4 1 .2 1.8.1 2.1-1.2 2.2-5.3 4.2-6.1 4.6-.9.4-3.8.9-4.4 1-.3.1-.4 0-.2-.1.2-.2 6.9-2.4 10.3-6q.1-.2 0-.5c-.1-.1-1.2-2.2-1.3-2.5s-.2-.6-.3-.7q-.1-.1 0-.3c0-.1.1-.7.1-.8.1-.1.1-.1.2 0z"/><path d="m25 12.2s-.1.3-.2.4c-.2.9-.1 1.3-.1 1.3.3.5.6.2.7-.1.1-.1.1 0 .1 0q0 .1-.1.3c-.1.5-.3.6-.5.6-.3 0-.4-.4-.4-.6-.1-.9.3-1.7.4-1.9.1-.3.1-.1.1 0z"/><path d="m66.2 16.9c0 .2-.2 1-1.5.8-.3-.1-.9-.2-1.2-.9-.3.4-1 1.6-2.4 1.4-.3-.1-1.3-.5-1.4-1.7 0 0-1.1.9-1.7 1.2.1.5 0 1-.2 1.6-.2.5-2.7 3.4-4.7 3.8-.7.2-3.3.6-3.4-2.3q-.1-.9 0-1.4c-1.6 1.3-3.5 2.2-4.1 2.5-.9.4-3.8.9-4.4 1-.3.1-.4 0-.2-.2.2-.1 6.9-2.3 10.3-5.9.1-.2.1-.3 0-.5s-1.2-2.2-1.3-2.5-.2-.6-.3-.7q0-.1 0-.3c0-.1.1-.7.1-.8.1-.1.1-.1.2 0s1.2 1.2 1.3 1.3c.1.2 0 .2 0 .2-.1 0-.6 0-.6 0s.7 1.2.9 1.7c.4 1 .2 1.7.1 2.1-.4.6-.9 1.2-1.6 1.8-.1.5-.3 2.9 1.9 3 .3 0 1.5.1 3.7-1.7.6-.4 1.2-.9 1.7-1.7.2-.2.3-.7-.1-.7-.3.1-2.7.9-3-.5-.1-.4.1-3.7 2.4-2.1.2.2.7.6 1 1.2.4-.1 1.1-.5 2-1.3.3-.2.5-.3.5 0s-.2 2.3 1.9 1.7c.2-.1 1.1-.2 1.8-1.9.1-.4.4-.3.3 0-.2.4-.4.8-.2 1s.8.6 1.5.5c.3 0 .4-.2.3-.4s-.3-.6-.3-.6c.1-.3.2-.7.2-.8s.1-.2.1-.1c.1.1.8 1 .4 2.2zm-9.5.1c-.7-1-1.6-.5-1.7-.4-.2.1-.2.4.5.5.9 0 1.2-.1 1.2-.1z" fill-rule="evenodd"/><path d="m46.2 10.8 1 .7q0 0 0 .1l-.6.7q0 .1-.1 0l-.9-.6-.4.6q-.1.1-.1 0l-1-.7q0 0 0 0l.6-.8q0 0 .1 0l.9.7.4-.7q.1 0 .1 0z"/><path d="m63.8 10.8s0 .3-.1.4c-.3.9-.1 1.2-.1 1.3.3.4.6.2.7-.1 0-.1.1-.1.1 0q-.1.1-.1.3c-.1.5-.3.6-.5.6-.3 0-.5-.4-.5-.6 0-.9.3-1.7.4-1.9s.2-.1.1 0z"/><path d="m54.5 10.4s-.1.2-.2.4c-.3.9-.1 1.3-.1 1.4.3.4.6.2.7-.1.1-.2.2-.1.1 0q0 0 0 .2c-.2.6-.4.7-.6.7-.3 0-.5-.4-.5-.7 0-.9.4-1.8.5-2s.1-.1.1.1z"/><path d="m28.3 8q0 .1 0 .1s-.1.3-.1.5c-.3 1.1-.2 1.6-.1 1.7.2.5.6.2.7-.2.1-.2.1-.1.1 0q0 .1-.1.3c-.1.7-.4.8-.5.8-.4 0-.5-.5-.6-.8 0-.7.2-1.4.3-1.8q0 0-.1 0c-.1.1-5.3 2.7-5.8 3-.6.3-.5.6-.3.6.3.1.5.4.3.8q0 .1-.1 0s-.1-.1-.3-.2c-.3 0-.4-.5-.3-.9.1-.3.2-.6.5-.7.4-.4 6.1-3.1 6.2-3.2.3-.2.3-.1.2 0z"/><path d="m12.5 7.7c.1.2 0 .6-.1.8 0 .2-.1 0-.2-.1 0 0-.2-.1-.3-.2-.4-.4-.6.3-.7.7 0 .3-.1 1.2-.1 1.7-.1.2-.2.2-.2 0-.4-1.1-1-1.6-1.1-1.7q0 0 0 0 0 .1 0 .4c-.2 1.3-1.6 1.9-1.8 2-.3.2-.3.1 0-.2.2-.2 1.2-1.3 1.4-1.5.5-.5-.4-.8-.5-.9s0-.5 0-.7c0-.3.2-.4.3-.3 1.2.7 1.6 1.9 1.7 2.1.1-.9.1-1.8.6-2.4.4-.5 1 .2 1 .3z"/><path d="m18.6 14.6s-.1.3-.2.5c-.3.9-.1 1.3-.1 1.4.3.5.6.2.8-.1 0-.2.1-.1.1 0q-.1 0-.1.2c-.2.6-.4.8-.6.8-.3-.1-.5-.5-.5-.7-.1-1.1.4-1.9.5-2.2.1-.2.1-.1.1.1z"/><path d="m17.2 7.7s-.1.3-.1.4c-.4 1-.2 1.4-.2 1.5.3.5.7.2.8-.1 0-.2.1-.1.1 0q0 0-.1.2c-.1.6-.4.7-.6.7-.3 0-.5-.4-.5-.7 0-1 .4-1.8.5-2.1.1-.2.2-.1.1.1z"/><path d="m33.2 20.6c-.4.4-2.8 1.2-4.1-.2-.1-.1-.2-.3-.4-.7q-.3.2-.6.4c-.4.2-5.5 2.2-9.2 2-.4 0-3.3 0-3.7-4.6 0-.6-.7-7-1.3-9-.1-.4-.1-.6 0-.8.1-.3.2-.9.4-.5 1 3.4 1.3 9.1 1.5 10.2.1.6.1 3.2 3 3.5q.2 0 .4 0c.1-.2.7-1.2 1.5-2.1.3-2.9-1.5-10.2-1.5-10.3-.1-.2-.2-.5-.2-.5s.4-.9.4-1 .1 0 .1 0c0 .1 1 2.4 1.1 2.5 0 .1-.1.2-.1.1-.1-.1-.5-.3-.5-.3s1 5.8 1.1 6.5c.2 1.1.1 2-.1 2.6.5-.6 1-1.1 1.6-1.5.4-.2 1.5-1 2.9-.4.3.2 1.1.5 1.2 1.5 0 .4-.2 1.2-.4 1.7.9-.3 1.4-.5 1.4-.5q.2 0 .6-.2-.2-.5-.3-1c-.1-.2-.1-1.3.3-2.2.3-.3.7-.9 1.2-.6.4.2 1 1.2 1 1.6-.1.5-.3 1.5-.5 1.8q-.1.3-.6.7.2.3.5.5c.3.1 1.6.5 3-.1.3-.2.6-.4.5-.7s-.5-.9-1-1.4c0-.1.2-.6.2-.8.1-.2.1-.1.2 0s.9.9 1 1.8c0 .3.1 1.5-.6 2zm-7.2-2.2c-.2-.2-.7-.9-1.8-1-1-.1-2 .7-2.3.9-1.3 1.1-2.1 2.5-2.1 2.7q.2-.1.4-.1c1-.1 3.4-.5 5.7-2 .2-.1.3-.2.1-.5zm3.9-.6c.1-.1.3-.1.1-.5-.2-.3-.7-1.4-1.2-.9-.5.4-.6.7-.5.9s.3.8.6 1.3c.4-.2.7-.5 1-.8z" fill-rule="evenodd"/><path d="m35.1 7s-.1.3-.2.5c-.3.9-.1 1.3-.1 1.4.3.5.6.3.7-.1.1-.2.2-.1.1 0q0 .1 0 .3c-.2.6-.4.7-.6.7-.3 0-.5-.5-.5-.7-.1-1 .3-1.9.4-2.1.1-.3.2-.2.2 0z"/><path d="m23.5 6.9s-.1.3-.1.4c-.3.8-.1 1.2-.1 1.3.2.3.5.1.6-.2.1-.1.1 0 .1 0q0 .1 0 .3c-.2.5-.4.6-.5.6-.3 0-.5-.4-.5-.6 0-.9.3-1.6.4-1.8s.2-.1.1 0z"/><path d="m53.6 6.5c0 .1 0 .2-.1.3 0 .2-.1.2-.3.3s-5.1 3-5.2 3c-.3.2-.2.1-.2 0q0-.1.1-.3c0-.1.1-.2.3-.3s5-2.9 5.2-3c.3-.2.3-.1.2 0z"/><path d="m59.6 6.8c.1.2 0 .6-.1.8 0 .2-.2 0-.3-.1 0 0-.1-.1-.2-.2-.5-.4-.7.4-.7.8-.1.3-.1 1.2-.2 1.7 0 .2-.2.2-.2 0-.4-1.1-1-1.6-1.1-1.7-.1-.2-.2 0-.2.1-.1.1-.1.1-.2 0-.1 0-.4-.3-.6-.4-.1-.1 0-.5 0-.7 0-.3.2-.4.3-.4 1.3.8 1.7 2.1 1.8 2.3.1-1 .1-1.9.6-2.5.4-.5 1.1.2 1.1.3z"/><path d="m64.5 8.9c-.1.1-.2 0-.3-.1 0-.1-.2-.2-.3-.3-.2.4-.2.5-1.1 1.2-1.8 1.5-3.7 2.1-3.8 2.1-.2 0-.2-.1 0-.2.6-.5 3.2-1.6 4.5-3.2 0 0-.4-.2-.7-.4-.2-.2-.1-1 .1-1.3.5-.7 1-.3 1-.2.5.7.2 1.5.2 1.5.3.1.5.4.4.9zm-.9-1.9c-.1-.1-.2-.1-.5.2-.1.2 0 .3.2.3.2.1.5.3.5.3 0-.1.1-.6-.2-.8z" fill-rule="evenodd"/><path d="m37.5 6.3c0 .1 1.2 2.9 1.2 3.1.1.1-.1.2-.1.1-.1-.1-.7-.6-.7-.6s.8 4.9 1 6.1c.5 2.9-.1 4-.3 4.7-1.2 2.6-4.6 3.1-5.2 3.3-.5.2-.6 0-.3-.1 3.1-1.3 4.5-2.8 5.1-3.8q0-.5-.3-1.1c-1-2-3.7-3.9-3.9-4.1-1.4-1.3-3.1-3.7-3.2-3.9-.1-.1-.3-.2-.3-.3-.1 0-.2-.1-.2-.3s0-.9 0-1 0-.1.2 0c.1.2 1.9 1.5 2.1 1.7.3.2.1.3-.1.2-.1 0-.4-.1-.6-.2 0 0 .3.6.7 1 .7 1 2.1 2.3 2.4 2.5.3.3 1.9 1.6 2.7 2.7.6.8.8 1.7.7 2.3q.1-.2.2-.3c.2-.7-1.3-8.7-1.3-8.7-.1-.7-.1-1.3-.2-1.7s-.1-.6-.2-.7c0 0 .4-.8.5-.9 0-.1 0 0 .1 0z"/><path d="m40.3 6.2c0 .1 1.2 2.8 1.2 3 .1.1 0 .2-.1.1s-.7-.6-.7-.6 1.1 7.5 1.1 7.7q.3 2.2.2 3.2c0 1-.2 1.3-.2 1.4-.1.2-.2.1-.2-.1 0-.5-.1-1.5-.2-2.6-.3-2.3-1.3-9.5-1.5-10.7 0-.1-.1-.5-.1-.5s.3-.9.4-1c0-.1.1 0 .1.1z"/><path d="m46 8.6c-.1.1-.1.1-.2-.1-.1 0-.4-.3-.4-.3s-.4.9-1.1 1.4c-1.2.9-2.2 1-2.3 1.1-.1 0-.1-.1.1-.2.7-.5 1.6-.8 3-2.4 0 0-.5-.2-.7-.4-.3-.2-.2-.9 0-1.2.5-.8 1-.4 1.1-.3.4.8.2 1.5.2 1.5.2.2.4.4.3.9zm-.9-1.9c-.1-.1-.2-.1-.5.3-.1.1 0 .2.2.3.2 0 .5.2.5.2.1-.1.1-.5-.2-.8z" fill-rule="evenodd"/></g></svg>