<svg height="30" viewBox="0 0 70 30" width="70" xmlns="http://www.w3.org/2000/svg"><g fill="#191c4f"><path d="m29.7 21.1c0 .1 0 .1-.1.3-.1.1-.2.2-.3.3-.2 0-3.3 1.2-3.4 1.3-.3.1-.3 0-.3-.1q.1 0 .1-.2c.1-.2.1-.2.3-.3.2-.2 3.3-1.3 3.5-1.4.3-.1.3 0 .2.1z"/><path d="m16.3 20.9c0 .1 0 .1-.1.3-.1.1-.2.2-.4.3-.2 0-3.6 1.3-3.7 1.3-.3.2-.3.1-.2 0q0 0 0-.3c.1-.1.1-.2.3-.3.3 0 3.7-1.3 3.9-1.4.3-.1.3 0 .2.1z"/><path d="m64.1 19.1v.5c0 .2-.1.5-.2.8s-.7.4-1.1.1c-.7 1.1-1.3.5-1.6.4-.6-.2-.8.2-1 .3-.7.9-2.2.9-2.5.9s0-.2.1-.2c1.1-.4 1.8-.5 2.8-1.4.4-.5.7-.2.8-.2 1 .4 1.1 0 1.2-.1s.3-.6.4-.7c0-.2.1-.1.1.1 0 .1-.1.2-.1.3.4.3.8 0 .9 0 0 0-.1-.3-.1-.4q0-.2.1-.5c.1-.3.2 0 .2.1z"/><path d="m34.9 16.3s-.1.3-.1.4c-.3.9-.2 1.3-.1 1.3.2.5.5.2.6-.1.1-.1.1 0 .1 0q0 .1 0 .3c-.2.5-.4.6-.6.6-.3 0-.4-.4-.4-.6-.1-.9.3-1.7.4-1.9.1-.3.2-.2.1 0z"/><path d="m9.5 16.6s0 .2-.1.4c-.3.8-.1 1.2-.1 1.3.3.4.6.2.7-.1 0-.2.1-.1.1 0q0 .1-.1.2c-.1.6-.3.7-.5.7-.3 0-.5-.4-.5-.7 0-.9.4-1.6.4-1.9.1-.2.2-.1.1.1z"/><path d="m26.5 14.9.9.6.5-.6q0-.1.1 0l.9.7q0 0 0 0l-.5.8q-.1 0-.1 0l-.9-.7-.5.7q0 0-.1 0l-.9-.7q0 0 0-.1l.5-.7q.1-.1.1 0z"/><path d="m20.8 14.3.9.6.4-.6q.1 0 .1 0l.9.7q.1 0 0 0l-.5.8q0 0-.1 0l-.9-.7-.4.7q-.1 0-.1 0l-.9-.7q-.1 0-.1-.1l.6-.7q0 0 .1 0z"/><path d="m26.9 13 .9.6q0 .1 0 .1l-.5.8q-.1 0-.1 0l-1-.7q0 0 0-.1l.6-.7q0-.1.1 0z"/><path d="m47 17.8c-.3.9-1.6 1.5-1.9 1.5-1.2.4-1.3-.7-1.2-1.6.1-.8.7-1.9.7-1.9-.1-.1-1.3-1-1.4-1.1s-.2-.3-.3-.3c-.1-.1-.1-.1-.1-.1s0-.9 0-1 .1-.1.2 0c.1 0 1.4.5 1.5.6.2.1.1.2.1.2-.1 0-.6.1-.6.1l1.1.8s1.5-2 1.7-2.1c.1-.2.1-.1.1.1-.1.2-.3 1-.4 1.1-.1.2-.9 1.2-.9 1.2s1 .6 1.3 1c.4.6.2 1.2.1 1.5zm-1.9-1.7s-.7 1.1-.8 1.4c-.3.7.4.8.6.8.3-.1 1.2-.5 1.6-.9.4-.3-1.2-1.2-1.4-1.3z" fill-rule="evenodd"/><path d="m65.5 16.8c-.1.2-.3 1-1.6.8-.3-.1-.9-.2-1.1-.9-.4.4-1.1 1.6-2.5 1.4-.3-.1-1.2-.5-1.3-1.7 0 0-1.1.9-1.7 1.2.1.5.1 1-.2 1.5-.2.6-2.6 3.4-4.7 3.9-.6.1-3.2.6-3.3-2.3q0-.9.1-1.4c-1.6 1.2-3.6 2.2-4.1 2.5-.8.4-3.8.9-4.3 1-.4 0-.4-.1-.2-.2s6.7-2.3 10.1-5.9q.2-.2 0-.5c-.1-.1-1.1-2.2-1.3-2.5-.1-.2-.2-.6-.2-.7q-.1-.1-.1-.3c0-.1.1-.6.2-.8 0-.1.1 0 .1.1.1 0 1.2 1.1 1.3 1.3.1.1 0 .1 0 .1-.1 0-.6 0-.6 0s.7 1.2.9 1.7c.4 1 .2 1.7.1 2.1-.4.6-.9 1.2-1.6 1.8-.1.5-.3 2.9 1.9 2.9.3.1 1.5.2 3.7-1.6.5-.5 1.1-1 1.6-1.7.2-.3.3-.7 0-.7-.4.1-2.7.9-3.1-.5 0-.4.2-3.7 2.4-2 .2.1.7.5 1 1.2.4-.2 1.1-.6 2-1.3.2-.3.5-.4.5-.1 0 .4-.2 2.3 1.9 1.7.2-.1 1.1-.2 1.7-1.9.2-.4.4-.3.3 0-.2.4-.4.8-.2 1s.8.6 1.5.5c.3 0 .4-.1.4-.4-.1-.2-.4-.6-.4-.6.1-.3.2-.7.2-.8s.1-.2.2-.1.7 1 .4 2.2zm-9.5.1c-.7-1-1.6-.5-1.7-.4s-.1.4.6.5c.8 0 1.1-.1 1.1-.1z" fill-rule="evenodd"/><path d="m13 11.4.9.7q.1 0 0 .1l-.5.7q0 .1-.1 0l-.9-.6-.5.6q0 .1 0 0l-1-.6q0-.1 0-.1l.6-.8q0 0 .1 0l.9.7.4-.7q.1 0 .1 0z"/><path d="m29.9 11.1.9.7q0 0 0 .1l-.5.7q-.1 0-.1 0l-.9-.7q-.1 0-.1 0l.6-.8q0 0 .1 0z"/><path d="m44.3 10.8.9.6.4-.6q.1-.1.1 0l.9.6q.1.1 0 .1l-.5.8q0 0-.1 0l-.9-.7-.5.7q0 0 0 0l-1-.7q0 0 0-.1l.6-.7q0-.1.1 0z"/><path d="m13.8 19.7s-5.3 4.4-8.1 1.2c-1.4-1.5-.3-4.5 0-4.9q0-.1 0-.1c-.4-.1-.6-.8-.6-1.2-.1-1.8.5-3.3.7-3.7.1-.5.2-.3.1.1 0 0-.1.4-.2.8-.4 1.6-.2 2.3-.1 2.5.3.8.8.4 1-.2.1-.3.1-.2.1 0 0 .1 0 .3-.1.5-.2.8-.4 1.1-.6 1.2q0 .1-.1.2c-1.3 3.7 1.1 4.6 1.6 4.7 2.5.6 5.5-1.6 5.9-1.8 1.2-.8 1.2-1.3 1.2-1.4-.4-.9-1.7-.6-2.8-.8s-.6-1.8-.1-2.4c.4-.4 1.8-1.4 3 1.3 1.1 2.7-.6 3.8-.9 4zm0-3.8s-.7-1-1.5-.8c-.3 0-.5.4-.2.6.4.2.6.2.9.2.4-.1.7 0 .8 0z" fill-rule="evenodd"/><path d="m24.2 10.8s-.1.3-.1.4c-.3.9-.2 1.2-.1 1.3.2.5.5.2.6-.1.1-.1.1-.1.1 0q0 .1 0 .3c-.2.5-.4.6-.6.6-.3 0-.4-.4-.4-.6-.1-.9.3-1.7.4-1.9.1-.3.1-.2.1 0z"/><path d="m63.1 10.8s-.1.2-.2.4c-.2.8-.1 1.2 0 1.3.2.4.5.2.6-.1.1-.2.1-.1.1 0q0 0-.1.2c-.1.5-.3.6-.5.6-.3 0-.4-.4-.4-.6-.1-.9.3-1.6.4-1.9.1-.2.1-.1.1.1z"/><path d="m53.8 10.3s0 .3-.1.4c-.3.9-.1 1.3-.1 1.4.2.5.6.2.7-.1.1-.2.1-.1.1 0q0 .1-.1.3c-.1.5-.3.6-.5.6-.3 0-.5-.4-.5-.6-.1-1 .3-1.8.4-2 .1-.3.2-.2.1 0z"/><path d="m12.1 7.4s-.1.3-.1.5c-.4 1-.1 1.4-.1 1.5.3.5.7.2.9-.2 0-.2.1-.1.1 0q0 .1-.1.3c-.1.6-.4.8-.6.8-.4 0-.6-.5-.6-.7-.2-1.1.3-2 .4-2.3.1-.2.2-.1.1.1z"/><path d="m10.3 7.3c.1.2 0 .6-.1.8 0 .2-.1 0-.2-.1 0 0-.2-.1-.3-.2-.5-.3-.6.4-.6.8 0 .3 0 1.5-.3 2.4-.4 1-.3 1.5-.2 1.6.2.6.6.3.7-.1.1-.2.2-.1.1 0q0 .1 0 .3c-.2.7-.5.8-.7.8-.3 0-.5-.5-.5-.8 0-1.2.8-2.3.5-2.9-.4-.8-.9-1.1-1-1.2s-.2 0-.2.1-.1.1-.2 0c0 0-.4-.2-.5-.3s-.1-.5-.1-.7c0-.3.2-.4.3-.3 1.3.6 1.7 1.8 1.8 2 0-.9 0-1.8.4-2.4.4-.5 1 .2 1.1.2z"/><path d="m32.4 19.8c-.2.2-.9.4-1.6.2-.2-.1-.6-.4-.8-.6-.1.3-.5 1.2-1.3 1.1-.2 0-.7-.3-.8-.7 0 0-.6.7-1.2.9-.5.2-1.4.1-1.7-.8-.5.4-1.1 1.3-3.1 1-.1 0-.4 0-.6-.1q-.2.1-.4.2c-.4.2-2.3 1.3-3.4-.2-.3-.3-.8-1.2-1-3.7 0-.6-.5-6.7-1.3-9.1-.1-.3.1-.4.2-.7 0-.3.1-.6.3-.3.9 2.6 1.3 9.7 1.4 10.2 0 .3.1 1.3.5 2.1.6 1.5 2.1 1 2.1 1 .1 0 .4 0 .7-.2q-.2-.3-.2-.8c0-.4.3-1.6 1-2.5.3-.3.8-.6 1.1-.1.4.5.8 1 .4 2.3 0 .3-.1.6-.4.9.7.1 1.5 0 2.4-.6.2-.2.4-.5.6-.7s.3-.2.2 0c0 .2-.1.4 0 .6s1 1.3 2.4-.4c.2-.3.3-.4.5-.6.1-.1.2-.1.1.1 0 .1-.2.4-.2.5.1.1.1.7.9.6.2 0 .7-.3.9-1.5.1-.1.3-.3.3 0-.1.4 0 .6.3.8.2.2.7.4 1.5.2.2-.1.3-.2.2-.4-.2-.5-.7-1.3-1-1.8s-1-1.9-.9-2.2c0-.2.1-.6.1-.7s0-.2.2-.1c.1.2 1 1.1 1.1 1.2.2.2.1.3.1.2-.1 0-.6-.1-.6-.1 0 .1.3.9.5 1.1.2.3.7 1 .8 1.5.2.5.3 1.5-.3 2.2zm-10.2-.9c.2-.1.3-.3.1-.7s-.5-.8-.9-.5-.5.7-.6.9-.2.3 0 .5c0 .1.3.3.7.5q.4-.3.7-.7z" fill-rule="evenodd"/><path d="m28.3 7s0 .3-.1.4c-.3.9-.1 1.3-.1 1.3.2.5.5.2.7-.1 0-.1.1 0 .1 0q-.1.1-.1.3c-.1.5-.4.6-.5.6-.3 0-.5-.4-.5-.6-.1-.9.3-1.7.4-1.9.1-.3.2-.2.1 0z"/><path d="m26.8 6.9c0 .1 0 .2-.1.3-.1.2-.2.3-.4.4s-8.1 4.4-8.2 4.5c-.3.2-.3.1-.3 0q0-.1.1-.3c0-.2.1-.3.3-.4.3-.1 8.2-4.4 8.4-4.6.3-.1.3 0 .2.1z"/><path d="m19.4 6.7s-.1.2-.1.4c-.3.8-.2 1.1-.1 1.2.2.4.5.2.6-.1 0-.2.1-.1.1 0q0 .1-.1.2c-.1.5-.3.6-.5.6-.3 0-.4-.4-.4-.6-.1-.8.3-1.6.4-1.8s.1-.1.1.1z"/><path d="m34.1 6.6s-.1.3-.1.5c-.3.8-.2 1.2-.1 1.3.2.4.5.2.6-.1.1-.2.2-.1.1-.1q0 .1 0 .3c-.2.5-.4.6-.5.6-.4 0-.5-.4-.5-.6-.1-.9.3-1.7.4-1.9s.2-.1.1 0z"/><path d="m53 6.5c0 .1 0 .2-.1.3-.1.2-.2.2-.3.3-.2.1-5 2.9-5.1 3-.3.2-.3 0-.2-.1q0 0 0-.2c.1-.2.1-.2.3-.3.2-.2 5-2.9 5.2-3.1.3-.1.3 0 .2.1z"/><path d="m58.9 6.8c.1.2 0 .6-.1.8 0 .2-.2 0-.3-.1 0 0-.1-.1-.2-.2-.5-.4-.7.4-.7.8-.1.2-.1 1.1-.2 1.7 0 .2-.2.2-.2 0-.3-1.1-1-1.7-1.1-1.8s-.2.1-.2.2c0 0-.1 0-.2 0 0 0-.4-.3-.5-.4s-.1-.5-.1-.7c.1-.3.2-.4.3-.4 1.3.8 1.8 2.1 1.8 2.3.1-1 .1-1.9.6-2.5.5-.5 1.1.2 1.1.3z"/><path d="m63.7 8.9c-.1.1-.1 0-.2-.1s-.2-.3-.4-.3c-.2.4-.2.4-1 1.1-1.8 1.6-3.7 2.1-3.8 2.1-.1.1-.2 0 0-.1.6-.5 3.2-1.7 4.5-3.3 0 0-.4-.1-.7-.3s-.1-1 .1-1.3c.5-.7.9-.3 1-.2.4.7.2 1.5.2 1.5.2.1.4.4.3.9zm-.9-2c-.1 0-.2 0-.4.3-.1.1 0 .3.1.3.2.1.6.3.6.3 0-.1 0-.6-.3-.9z" fill-rule="evenodd"/><path d="m37.1 6.2s1.1 2.8 1.2 2.9c0 .2-.1.2-.2.2 0-.1-.6-.7-.6-.7s.8 4.9.9 6.1c.6 2.9.1 4.2-.2 4.8-1.2 2.5-4.6 3-5.1 3.2-.6.1-.6-.1-.3-.2 3-1.3 4.4-2.7 5-3.7q0-.6-.3-1.1c-1-1.9-3.6-3.9-3.8-4.1-1.5-1.2-3.1-3.7-3.2-3.8-.1-.2-.3-.3-.3-.3-.1-.1-.2-.1-.2-.3s0-.9 0-1 0-.1.2 0c.1.2 1.9 1.5 2.1 1.7s.1.2-.1.2c-.2-.1-.4-.1-.7-.2 0 0 .4.6.7 1 .8.9 2.2 2.2 2.4 2.4.4.4 1.9 1.6 2.7 2.7.6.8.7 1.7.7 2.3q.1-.2.2-.3c.2-.7-1.3-8.6-1.3-8.6 0-.7-.1-1.3-.2-1.7s-.1-.6-.2-.7c0 0 .4-.8.5-.9 0-.1 0 0 .1.1z"/><path d="m39.9 6.2s1.1 2.8 1.2 2.9c0 .2-.1.2-.2.2 0-.1-.6-.7-.6-.7s1 7.5 1.1 7.7q.2 2.2.2 3.2c-.1.9-.3 1.3-.3 1.4-.1.1-.1.1-.1-.1 0-.5-.2-1.5-.3-2.6-.3-2.3-1.3-9.4-1.4-10.6 0-.1-.1-.5-.1-.6 0 0 .3-.8.4-.9 0-.1 0 0 .1.1z"/><path d="m45.4 8.6c0 .1-.1 0-.2-.1 0 0-.3-.3-.3-.3s-.4.8-1.1 1.3c-1.2.9-2.2 1.1-2.2 1.1-.2 0-.2-.1 0-.2.8-.4 1.6-.7 3-2.3 0 0-.5-.2-.7-.4-.3-.2-.2-.9 0-1.2.5-.8 1-.4 1-.3.5.7.2 1.5.2 1.5.3.1.5.4.3.9zm-.8-1.9c-.1-.1-.2-.1-.5.3-.1.1 0 .2.2.3.2 0 .5.2.5.2.1-.1.1-.6-.2-.8z" fill-rule="evenodd"/></g></svg>