<svg height="30" viewBox="0 0 70 30" width="70" xmlns="http://www.w3.org/2000/svg"><g fill="#191c4f"><path d="m27.8 21.9 1.1.8q.1 0 0 .1l-.6.8q-.1.1-.1.1l-1.1-.8q0-.1 0-.1l.6-.9q.1-.1.1 0z"/><path d="m24.6 21.4s-.1.3-.2.5c-.3 1.1 0 1.6 0 1.7.3.5.7.2.8-.2.1-.2.2-.1.2 0q-.1.1-.1.3c-.1.7-.4.8-.6.9-.4 0-.6-.5-.7-.8-.1-1.2.3-2.2.4-2.5s.2-.1.2.1z"/><path d="m63.3 20.5v.6c0 .2-.2.5-.3.9-.1.3-.8.5-1.3.2-.8 1.2-1.5.6-1.9.4-.7-.3-.9.2-1.1.4-.9 1-2.6 1-3 1-.4.1-.1-.2.1-.2 1.3-.5 2.1-.6 3.3-1.7.5-.5.8-.3 1-.2 1.1.5 1.3 0 1.4-.1.2-.1.4-.7.4-.9.1-.2.2 0 .2.1s-.1.3-.1.4c.4.4.9.1 1 0 0 0-.1-.4-.1-.5q0-.1.2-.6c.1-.2.1 0 .2.2z"/><path d="m34.1 20.2s-.1.3-.2.5c-.3.9-.1 1.3-.1 1.4.3.5.6.3.8-.1 0-.2.1-.1.1 0q-.1.1-.1.3c-.2.6-.4.7-.6.7-.3 0-.5-.5-.5-.7-.1-1 .4-1.9.5-2.1.1-.3.1-.2.1 0z"/><path d="m42.9 19c-.3 1.1-1.8 1.7-2.2 1.8-1.4.4-1.5-1-1.4-2s.8-2.2.8-2.2c0-.1-1.5-1.2-1.6-1.3s-.2-.3-.4-.4c-.1-.1-.1-.1-.1-.1s0-1.1 0-1.2.1-.1.2 0c.1 0 1.7.7 1.9.7.1.1.1.2 0 .3-.1 0-.6.1-.6.1l1.2 1s1.8-2.4 2-2.6.2-.1.1.1c0 .3-.3 1.3-.4 1.4-.1.2-1 1.4-1 1.4s1.2.8 1.4 1.2c.6.7.2 1.4.1 1.8zm-2.2-2.1s-.8 1.4-.9 1.7c-.4.8.4.9.7.9s1.4-.6 1.9-1-1.4-1.4-1.7-1.6z" fill-rule="evenodd"/><path d="m64.9 17.7c-.1.3-.4 1.3-1.8 1-.4-.1-1.1-.2-1.4-1-.4.4-1.2 1.8-2.9 1.6-.3-.1-1.5-.5-1.6-2 0 0-1.3 1.1-1.9 1.4 0 .6 0 1.2-.3 1.8-.2.7-3.2 4-5.6 4.5-.8.2-3.8.8-3.9-2.6q-.1-1.1 0-1.7c-1.8 1.5-4.1 2.6-4.8 2.9-1 .5-4.5 1.1-5.1 1.2-.4.1-.5 0-.2-.2.2-.1 8-2.7 12-7 .1-.1.1-.3 0-.5s-1.4-2.6-1.5-3c-.1-.3-.3-.7-.4-.8q-.1-.2 0-.4c0-.1.1-.7.2-.9 0-.1.1-.1.2 0 0 .1 1.3 1.4 1.5 1.6.1.1 0 .2-.1.2h-.6s.8 1.4 1.1 1.9c.4 1.2.2 2.1 0 2.5-.4.8-1 1.5-1.8 2.2-.2.6-.4 3.4 2.2 3.4.4.1 1.7.2 4.4-1.9.6-.5 1.3-1.1 1.9-2 .2-.3.4-.9-.1-.8-.4 0-3.1 1-3.5-.6-.1-.5.1-4.4 2.8-2.4.2.1.8.6 1.2 1.4.4-.2 1.3-.7 2.3-1.6.3-.2.6-.3.6 0 0 .4-.2 2.7 2.2 2 .3-.1 1.3-.3 2.1-2.3.2-.4.5-.3.3 0-.2.5-.4.9-.2 1.2.3.2 1 .7 1.8.6.4 0 .5-.2.4-.4-.1-.3-.4-.8-.4-.8.1-.3.2-.8.2-.9.1-.2.1-.3.2-.1.1.1.9 1.1.5 2.5zm-11.2.1c-.9-1.1-1.9-.5-2-.3-.2.1-.2.4.6.5 1 0 1.4-.2 1.4-.2z" fill-rule="evenodd"/><path d="m41.4 10.6 1.1.8q.1.1 0 .1l-.6.9q0 0-.1 0l-1.1-.8-.5.8q-.1 0-.1 0l-1.1-.8q0 0 0-.1l.6-.9q.1 0 .1 0l1.1.8.5-.8q.1 0 .1 0z"/><path d="m62.1 10.7s-.1.3-.2.4c-.3 1-.1 1.5-.1 1.5.3.5.6.3.8-.1 0-.2.1-.1.1 0q0 .1-.1.3c-.2.6-.4.7-.6.7-.4 0-.5-.5-.5-.7-.1-1 .3-1.9.4-2.2.2-.3.2-.1.2.1z"/><path d="m29.3 10.9c.3.3.2.8.2 1 0 0-.4-.3-.6-.4s-.3-.2-.2-.4c.4-.3.5-.3.6-.2z"/><path d="m29.8 10.4c.4.9 0 1.7 0 1.7.3.2.5.6.3 1.1-.1.2-.2 0-.3-.1 0-.1-.4-.4-.4-.4s-1.3 1.7-2.5 2.5c-1.6.9-2.8 1.2-2.9 1.2s-.1-.1.1-.2c1-.5 3.3-2 5-3.7 0 0-.5-.3-.8-.5-.3-.3 0-1.1.2-1.5.7-.8 1.2-.3 1.3-.1z"/><path d="m51.1 10.1s-.1.3-.2.5c-.3 1.1-.1 1.5-.1 1.6.3.6.7.3.8-.1.1-.2.2-.1.2 0q-.1.1-.1.3c-.2.6-.5.8-.7.8-.4 0-.5-.5-.6-.8 0-1.1.5-2.1.6-2.4s.2-.1.1.1z"/><path d="m15.7 8.1s-.1.3-.2.6c-.4 1.1-.1 1.6 0 1.7.3.5.8.2.9-.2.1-.2.2-.1.1 0q0 .1 0 .3c-.2.7-.5.9-.7.9-.5 0-.7-.5-.8-.8-.1-1.2.4-2.2.5-2.6.1-.3.2-.1.2.1z"/><path d="m12.8 17.5c0 .1 0 .1-.1.3s-.2.2-.4.3-4.1 1.6-4.2 1.7c-.3.2-.3.1-.2-.1q0 0 .1-.3c0-.1.1-.2.3-.3.3-.1 4-1.6 4.3-1.7.3-.2.3-.1.2.1z"/><path d="m10.7 16.3-.6.9q0 .1-.1 0l-1.1-.8q0 0 0-.1l.6-.8q.1-.1.1-.1l1.1.8q.1.1 0 .1z"/><path d="m8.9 16.4q0 0 0-.1l.6-.8q.1-.1.1-.1l1.1.8q.1.1 0 .1l-.6.9q0 .1-.1 0z"/><path d="m12.8 17.5c0 .1 0 .1-.1.3s-.2.2-.4.3-4.1 1.6-4.2 1.7c-.3.2-.3.1-.2-.1q0 0 .1-.3c0-.1.1-.2.3-.3.3-.1 4-1.6 4.3-1.7.3-.2.3-.1.2.1z"/><path d="m8.9 16.4q0 0 0-.1l.6-.8q.1-.1.1-.1l1.1.8q.1.1 0 .1l-.6.9q0 .1-.1 0z"/><path d="m12.8 17.5c0 .1 0 .1-.1.3s-.2.2-.4.3-4.1 1.6-4.2 1.7c-.3.2-.3.1-.2-.1q0 0 .1-.3c0-.1.1-.2.3-.3.3-.1 4-1.6 4.3-1.7.3-.2.3-.1.2.1z"/><path d="m15.2 16.9c-.5 2.8-3 4.9-3.5 5.2-3.6 2.2-5.9.1-6.2-.4-2.2-2.6-.7-7.1-.6-7.4q.1-.3.2-.6-.5-.2-.7-.3c-.3-.3-.5-.6-.3-.6.2.1 1 .3 1.3.3.4-.7.8-1.3 1.2-1.8-.2-.1-.4-.3-.4-.4-.3-.1-1.4-.7-1.8-1.2-.4-.6-.2-1.5 0-2 .2-.4.4-.6.8-.8 2.5-1.1 8.4-.4 8.6-.4.3.1.3.2.2.4 0 .2-.1.4-.2.9 0 0-5 3.1-5.5 3.4q-.2.1-.4.3c.1.4.1.7.1.8-.1.2-.2.2-.3 0 0 0-.2-.2-.4-.4q-.6.6-1.1 1.2c1.5-.1 3.3-.3 3.7-.3 1.8-.3 3.1-.1 3.8.2 2.2.8 1.6 3.5 1.5 3.9zm-8.1-6.6q.2.1.3.3c.7-.6 1.4-1 1.5-1.1.4-.2 2.8-1.7 2.9-1.8-5.3-.2-6.5.4-6.9.6-.3.2-.1.4 0 .5.2.1 1.9 1.2 2.2 1.5zm6.7 4.3c-1.2-.9-4.2-.6-4.5-.5-1.8.2-2.9 0-3.6-.1-.9 1.6-.9 3.1-.9 3.4 0 4.9 4.4 4.2 5 4.1 3.4-.6 4.9-4.3 4.9-4.6.5-1.4-.5-2.1-.9-2.3z" fill-rule="evenodd"/><path d="m20.9 6.6c.2.2.1.6 0 .8 0 .2-.2 0-.3-.1 0 0-.1-.1-.2-.2-.6-.3-.7.5-.7.9v1.7c0 .2-.1.2-.2.1-.5-1.1-1.2-1.6-1.3-1.7s-.2.1-.2.1c0 .1-.1.1-.1.1-.1 0-.5-.2-.6-.3-.1-.2-.1-.6-.1-.8-.1-.3.1-.4.2-.3 1.4.6 2 1.8 2 2 0-1 0-1.8.4-2.5.4-.6 1.1.1 1.1.2z"/><path d="m32.1 20.5c-1.6.5-2.4-.4-2.6-.7-1.1-1.1-1.9-.8-2.6-.7-1.6.3-4 2.7-4.5 3.5-2.1 2.8-3.1 2.9-3.7 2.9-2.2-.2-1.9-3.1-1.7-3.7q.1 0 .1 0c-1.5 1-2.7 1.7-2.8 1.8-.2.1-5.3 1.4-5.5 1.5-.2 0-.2 0-.3-.1 0-.1 1.4-.6 1.6-.8 0 0 9-4.1 10.6-7.2.3-.4-.5-.9-.9-1-.3 0-1.1.1-1.4.1-1.2.1-1.4-.7-1.4-1-.1-1.2.7-2 1-2.2.5-.4 2.2-.9 3.1 2.1.5 1.8.1 2.9-.5 3.6-.7 1-1.9 2-3.1 2.9q0 .1-.1.5c-.6 2.1.6 2.5 1 2.5 1 0 2.6-1.8 3-2.3s2.6-2.9 3.4-3.5c1.5-1.3 3.2-1.1 3.4-1.1 1.3.3 1.7 1.2 2.1 1.4.8.6 1.9.1 2.2-.1.4-.2.4-.7.2-1.6-.1-.9-1.5-8.2-1.5-8.2-.1-.6-.2-1.2-.2-1.6-.1-.5-.2-.7-.2-.8 0 0 .4-.8.5-1 0-.1.1 0 .1.1.1.1 1.4 3.1 1.5 3.3 0 .1-.1.2-.2.1s-.7-.7-.8-.8c0 .5 1.5 8.5 1.5 9.1.3 1.9-.7 2.7-1.3 3zm-12.3-5.8c-.7-.8-1.4-.6-1.6-.6-.3.1-.7.6-.3.7 1 .2 1.9-.1 1.9-.1z" fill-rule="evenodd"/><path d="m34.5 5.8c.1.1 1.4 3.1 1.5 3.3 0 .1-.1.2-.2.1s-.8-.7-.8-.7 1.2 8.2 1.3 8.4q.3 2.4.2 3.5c0 1-.2 1.4-.3 1.5-.1.2-.2.1-.1-.1-.1-.6-.2-1.6-.4-2.9-.3-2.4-1.5-10.2-1.6-11.5-.1-.2-.2-.6-.2-.6s.4-.9.5-1.1c0-.1.1 0 .1.1z"/><path d="m26.5 9.5c0 .2-.1 0-.2-.2-.1 0-.5-.4-.5-.4s-1.6 3.1-4.4 3.9c-.2.1-.2 0 .1-.2 1-.7 2.9-2.7 3.9-4 0 0-.7-.3-1.1-.7-.3-.3 0-1.4.3-1.8.9-1 1.5-.4 1.6-.2.5 1.2 0 2.2 0 2.2.4.3.7.7.3 1.4zm-.9-3c-.1-.1-.3-.1-.8.4-.1.1 0 .3.3.4.2.2.7.5.7.5.1-.2.2-.8-.2-1.3z" fill-rule="evenodd"/><path d="m50.1 5.6c0 .1 0 .2-.1.4-.1.1-.2.2-.4.3s-5.9 3.5-6 3.5c-.4.2-.3.1-.3 0q0-.1.1-.3c0-.2.1-.2.3-.4.2-.1 5.9-3.4 6.2-3.6s.3 0 .2.1z"/><path d="m57.1 6c.1.2 0 .7-.1.9 0 .2-.2 0-.3-.1 0 0-.2-.2-.3-.3-.6-.5-.8.5-.9.9 0 .4-.1 1.4-.2 2 0 .3-.2.3-.2.1-.4-1.3-1.2-2-1.3-2.1s-.2.1-.3.2h-.1c-.1 0-.5-.3-.7-.5-.1-.1-.1-.6-.1-.8.1-.4.3-.5.4-.4 1.5.8 2 2.4 2.1 2.6.1-1.1.1-2.2.7-2.9.5-.7 1.3.3 1.3.4z"/><g fill-rule="evenodd"><path d="m62.8 8.4c-.1.1-.1 0-.3-.1 0-.1-.2-.3-.4-.4-.2.5-.2.6-1.2 1.4-2.1 1.8-4.4 2.5-4.5 2.5-.2 0-.2-.1 0-.2.7-.6 3.8-1.9 5.3-3.8 0 0-.5-.2-.8-.5-.3-.2-.2-1.1.1-1.4.6-.9 1.1-.5 1.2-.3.5.8.2 1.7.2 1.7.3.2.6.5.4 1.1zm-1-2.3c-.1 0-.3-.1-.6.4-.1.1 0 .2.2.3s.7.3.7.3c0-.1 0-.7-.3-1z"/><path d="m41.1 8.1c0 .1-.1 0-.2-.1s-.4-.4-.4-.4-.5 1-1.3 1.6c-1.4 1-2.6 1.2-2.7 1.3-.1 0-.2-.1.1-.3.9-.5 1.9-.9 3.5-2.8 0 0-.5-.1-.8-.4-.4-.2-.2-1.1 0-1.4.6-1 1.1-.5 1.2-.3.6.8.3 1.7.3 1.7.2.2.5.5.3 1.1zm-1-2.3c-.1-.1-.2-.1-.5.3-.1.2 0 .3.2.4s.6.3.6.3c0-.1.1-.7-.3-1z"/></g></g></svg>