<svg height="30" viewBox="0 0 70 30" width="70" xmlns="http://www.w3.org/2000/svg"><g fill="#191c4f"><path d="m20.9 21.6c.1 0 .3 0 .4.1q0 0-.1.1 0 0-.1 0c-.2 0-.4.1-.7.2q-.2.1-.3.2-.1.1-.1.1c-.1.1 0 .1 0 .1.2.1.4.2.7.2s.6-.3.9-.5c.1 0 .3-.2.3 0q0 .1 0 .2c0 .1-.1.1-.2.1-.6.4-1.2.8-1.4 1.4-.1.3-.1.6.1.8.2.3.6.4.9.4q.6 0 1.2-.1.2-.1.5-.1.1-.1.3-.1h.2v.1q-.1 0-.2.1-.2 0-.3.1c-.3.1-.5.3-.8.3-.5.1-1.1.2-1.6 0-.9-.4-.8-1.6-.1-2.3-.3 0-.6-.1-.7-.3-.1-.1-.1-.3 0-.5.1-.4.6-.7 1.1-.6z"/><path d="m64 21.2v.6c0 .2-.1.5-.2.9-.2.3-.9.4-1.3.1-.8 1.3-1.6.6-2 .5-.7-.3-.9.2-1.1.4-.9 1-2.5 1-2.9 1s-.1-.2.1-.3c1.3-.4 2.1-.5 3.3-1.6.5-.5.8-.3 1-.2 1 .5 1.2 0 1.4-.1.1-.1.3-.7.4-.9s.2 0 .1.1c0 .1-.1.3-.1.4.5.4.9.1 1 0 0 0 0-.4 0-.5q-.1-.1.1-.5c.1-.3.2-.1.2.1z"/><path d="m28.1 17.7s-.1.4-.2.7c-.5 1.5-.2 2.3-.2 2.4.4.8.9.4 1.1-.2 0-.3.1-.1.1 0q0 .1-.1.5c-.2.9-.6 1.1-.8 1.1-.5 0-.7-.7-.8-1.1 0-1.7.6-3.1.7-3.6.2-.4.3-.2.2.2z"/><path d="m43.9 19.7c-.4 1.1-1.9 1.7-2.2 1.8-1.4.4-1.5-1-1.4-1.9.1-1 .8-2.3.8-2.3-.1 0-1.5-1.2-1.6-1.3s-.2-.2-.4-.3c-.1-.1-.1-.2-.1-.2s0-1 0-1.1c.1-.1.1-.1.2 0 .1 0 1.7.6 1.8.7.2.1.1.2.1.2-.1.1-.7.2-.7.2l1.3.9s1.8-2.3 2-2.5c.1-.2.1-.1.1.1-.1.3-.4 1.2-.5 1.4-.1.1-1 1.4-1 1.4s1.2.7 1.5 1.1c.5.7.2 1.4.1 1.8zm-2.2-2s-.8 1.3-.9 1.6c-.4.8.4.9.7.9s1.3-.6 1.8-1-1.3-1.4-1.6-1.5z" fill-rule="evenodd"/><path d="m65.6 18.4c-.1.3-.4 1.3-1.8 1-.4-.1-1.1-.2-1.4-1-.3.4-1.2 1.8-2.8 1.6-.4-.1-1.5-.5-1.6-2 0 0-1.3 1.1-1.9 1.5 0 .5 0 1.1-.3 1.7-.2.7-3.1 4-5.5 4.5-.8.2-3.8.7-3.9-2.7q0-1 .1-1.6c-1.9 1.5-4.2 2.6-4.8 2.9-1 .5-4.4 1-5.1 1.1-.4.1-.4 0-.2-.1.2-.2 7.9-2.8 11.9-7 .1-.1.1-.3 0-.5s-1.4-2.6-1.5-2.9-.3-.7-.3-.8q-.1-.2-.1-.4c0-.1.1-.7.2-.9 0-.1.1-.1.2 0s1.3 1.4 1.5 1.6c.1.1 0 .2-.1.2h-.6s.8 1.4 1 1.9c.5 1.1.3 2.1.1 2.5-.4.7-1 1.4-1.8 2.1-.2.6-.4 3.3 2.2 3.4.4 0 1.7.2 4.3-2 .6-.5 1.3-1 1.9-1.9.2-.3.4-.9 0-.8-.5 0-3.2 1-3.6-.6-.1-.4.2-4.3 2.8-2.4.2.2.8.6 1.2 1.4.4-.2 1.3-.7 2.3-1.5.3-.3.6-.4.6 0-.1.3-.3 2.6 2.2 1.9.3-.1 1.3-.3 2-2.2.2-.4.5-.4.4 0-.2.5-.5.9-.2 1.1.2.2.9.7 1.8.6.3 0 .4-.1.3-.4-.1-.2-.4-.7-.4-.7.1-.3.2-.8.2-1 .1-.1.1-.2.2-.1s.9 1.2.5 2.5zm-11.1.2c-.8-1.2-1.9-.6-2-.4-.1.1-.2.4.7.5 1 .1 1.3-.1 1.3-.1z" fill-rule="evenodd"/><path d="m9.3 17.2c2.2 2.6 1.3 6 1.1 6.4-.1.1-.2.1-.1-.2.4-3.2-1.4-5.4-1.6-5.6 0 0 .2-.6.3-.7s.1-.2.3.1z"/><path d="m12.6 15s-.1.3-.1.5c-.3.9-.2 1.3-.1 1.4.2.4.6.2.7-.1.1-.2.1-.1.1 0q0 0-.1.2c-.1.6-.4.7-.5.7-.4 0-.5-.4-.5-.7-.1-1 .3-1.8.4-2.1.1-.2.2-.1.1.1z"/><path d="m40.7 11.4 1.1.8.5-.8q.1 0 .1 0l1.1.8q0 .1 0 .1l-.6.9q-.1 0-.1 0l-1.1-.8-.5.8q-.1 0-.1 0l-1.1-.8q-.1 0 0-.1l.6-.9q.1 0 .1 0z"/><path d="m62.8 11.5s-.1.3-.2.5c-.3.9-.1 1.3-.1 1.4.3.5.7.3.8-.1.1-.2.1-.1.1 0q0 .1-.1.3c-.1.6-.4.7-.6.7-.3 0-.5-.5-.5-.7-.1-1 .4-1.9.5-2.2.1-.2.2-.1.1.1z"/><path d="m52 10.9s-.1.3-.2.5c-.4 1.1-.2 1.5-.1 1.6.3.6.7.3.8-.1.1-.2.1-.1.1 0q0 .1-.1.3c-.1.6-.4.8-.6.8-.4 0-.6-.5-.6-.8-.1-1.1.4-2.1.5-2.3.1-.3.2-.2.2 0z"/><path d="m21.3 10.3c.7.1.5.4.4.6-.5.8-1.2 1.1-1.7 1.3-.5.3-.3-.1 0-.3 0 0 .3-.2.8-.5.4-.4-.8-.3-1.3-.3-.5-.1-.6.1-.8.3-.1.2-.3.1-.2-.1s.3-.5.6-.9c.4-.4 1.5-.2 2.2-.1z"/><path d="m13.5 10.2s-.1.2-.1.4c-.3.9-.2 1.3-.1 1.4.2.5.6.3.7-.1.1-.2.1-.1.1 0q0 .1-.1.3c-.1.5-.4.7-.5.7-.4 0-.5-.5-.6-.7 0-1 .4-1.9.5-2.1s.2-.1.1.1z"/><path d="m23.7 8.7c.2.2 2.4 1.6 2.7 1.9.3.2 0 .3-.2.2-.1 0-.5-.1-.8-.2 0 0 .5.6.9 1.1.9 1.1 2.6 2.5 2.9 2.8.4.3 1.8 1.2 2.7 2.4 1.1 1.2.9 2.8.8 3.2s-.3.6-.2.1c0-.5-.1-1-.4-1.5-1.2-2.1-3.8-3.7-4.1-3.9-1.7-1.4-3.8-4.2-3.9-4.3-.1-.2-.3-.3-.4-.4-.1 0-.1-.1-.1-.3-.1-.2-.1-1-.1-1.1.1-.1.1-.2.2 0z"/><path d="m11.1 8.6c.1.2.1.6 0 .8s-.2 0-.3-.1c0 0-.1-.1-.3-.2-.5-.4-.6.4-.6.8-.1.3 0 1.6-.4 2.5-.4 1.1-.2 1.6-.2 1.8.3.5.7.2.8-.2.1-.2.2-.1.2 0q-.1.1-.1.4c-.2.6-.5.8-.7.8-.4-.1-.5-.6-.5-.9 0-1.2.8-2.3.4-3-.4-.8-.9-1.2-1-1.3s-.2.1-.2.1c0 .1-.1.1-.2.1 0 0-.4-.3-.5-.4-.2-.1-.1-.5-.1-.7 0-.3.1-.4.2-.4 1.4.7 1.9 1.9 2 2.1 0-.9 0-1.8.4-2.5.4-.5 1.1.2 1.1.3z"/><path d="m15.3 7.6c.1.3.5 2 .7 3.1.2 1 .8 5 .9 5.5.5 2.3 1.8 2.8 1.9 2.8-.1-.3-.6-1.5-.7-1.9-.3-1.1.1-2 .7-2.8.5-.7 1.4-.9 2.3-1.1 1-.2 2.6.6 2.9.8.3.1.1.2-.1.2-.1 0-.6-.1-1.4-.2-.7-.1-2.3.6-3.1 1-.3.1-.7.3-.7.6.2 2.5 2.3 3.3 2.7 3.4 1.3.2 4.1-2.4 4.2-2.5.2-.1.3-.1.2.1s-.3.8-.4 1c-1.1 1.5-3.5 2.6-4 2.8-3.9 1.2-4.7-2.2-5-2.8 0 0-.1.2-.3.7-.2.7-1.1 1.3-1.5 1.6 0 0 1.6.3 2.4.5s.8 1.2.7 1.8c-.3 1.6-3.1 3-3.8 3.3-5.2 2.6-7.3.5-7.7 0-2.3-2.3-.6-6.1-.1-7-.4-.2-.7-.9-.7-1.2-.2-2.1.4-3.8.6-4.3.1-.6.3-.3.2.1 0 0-.1.5-.2.9-.5 1.9-.1 2.7 0 2.9.5.9 1 .4 1.2-.3.1-.4.2-.2.2 0q0 .1-.1.6c-.2 1.1-.6 1.4-.9 1.4-.3.5-.7 1.6-.8 2.3-.7 3.6 2.6 4.3 3.4 4.4 3.3.5 7.4-2.6 7.8-3 .5-.4-.3-.6-.6-.7-.2-.1-2.7-.5-3.3-.7-.6-.1-.6-.3-.5-.4 0-.2.1-.6.3-1 0 0 1.8-.9 2.8-1.6s.4-2.7.3-3.3c0-.6-.9-5.8-.9-6-.1-.3.2-.9.2-1s.1-.3.2 0z"/><path d="m51 6.5c0 .1-.1.1-.1.3-.1.2-.2.3-.4.4s-5.9 3.4-6 3.5c-.3.2-.3 0-.3-.1q0 0 .1-.3c0-.2.1-.2.3-.4.3-.1 5.9-3.4 6.1-3.5.4-.2.3-.1.3.1z"/><path d="m57.9 6.8c.1.3 0 .7-.1 1-.1.2-.2 0-.3-.2 0 0-.2-.1-.3-.2-.6-.5-.8.4-.9.9 0 .3-.1 1.4-.1 2-.1.2-.2.2-.3 0-.4-1.3-1.2-1.9-1.3-2-.1-.2-.2 0-.2.1-.1.1-.1.1-.2.1-.1-.1-.5-.4-.7-.5-.1-.2 0-.7 0-.9 0-.3.2-.4.3-.4 1.6.9 2 2.4 2.1 2.6.1-1.1.1-2.1.7-2.9.5-.6 1.2.3 1.3.4z"/><path d="m29 6.4s-.1.3-.2.5c-.3 1.1-.1 1.6-.1 1.7.3.5.7.2.9-.2 0-.2.1 0 .1 0q0 .1-.1.4c-.2.6-.4.8-.7.8-.4 0-.5-.6-.6-.8 0-1.2.5-2.2.6-2.5.1-.2.2-.1.1.1z"/><path d="m63.5 9.2c-.1.2-.1.1-.2-.1-.1-.1-.3-.2-.5-.4-.2.5-.2.6-1.1 1.4-2.1 1.8-4.4 2.5-4.5 2.5-.2 0-.2-.1 0-.2.7-.6 3.7-1.9 5.3-3.8 0 0-.5-.2-.9-.4-.3-.3-.1-1.1.1-1.5.6-.9 1.1-.4 1.2-.3.5.9.2 1.8.2 1.8.3.1.6.5.4 1zm-1-2.2c-.1-.1-.2-.1-.5.3-.1.1 0 .3.2.4.2 0 .6.2.6.2 0-.1.1-.6-.3-.9z" fill-rule="evenodd"/><path d="m24 6.2c.1.1.1.2 0 .2 0 .1-.1.3-.2.3q-.1.2-.2.1c-.1-.3-.4-.2-.6-.1s-.2.3-.1.4c0 .1.4.3.6.4.3 0 .9-.2 1.2-.3.2-.1.1.2 0 .3 0 0-.2.2-.3.3-1.2.2-1.7.7-1.8.8-.2.1-.2 0-.2-.1.1-.1.1-.1.1-.2q.1-.3.3-.3 0 0-.3-.3c-.4-.4.5-1.3.8-1.6.4-.3.7 0 .7.1z"/><path d="m32.2 6.1c0 .1 1.4 3.1 1.5 3.3 0 .2-.1.2-.2.1s-.8-.7-.8-.7.7 5.6.9 6.9c.6 3.6 0 4.5-.3 5.2-1.9 3.5-6.2 3.8-6.8 4-.7.1-.7-.1-.4-.2 5.2-1.9 6.8-4.1 7.1-5.2.2-.8-1.2-9.9-1.2-9.9-.1-.7-.2-1.4-.3-1.8 0-.5-.1-.7-.2-.8 0 0 .5-.9.5-1 .1-.1.1-.1.2.1z"/><path d="m35.6 6.1c0 .1 1.3 3.2 1.4 3.4 0 .1-.1.2-.2.1s-.7-.7-.7-.7 1.2 8.4 1.2 8.7c.2 1.6.3 2.8.3 3.6-.1 1.1-.3 1.5-.4 1.6 0 .1-.1.1-.1-.1 0-.6-.2-1.7-.3-3-.4-2.6-1.5-10.6-1.7-12 0-.2-.1-.6-.1-.6s.4-1 .4-1.1c.1-.1.1-.1.2.1z"/><path d="m42.1 8.9c-.1.2-.1.1-.2-.1-.1-.1-.5-.4-.5-.4s-.4 1-1.2 1.6c-1.4 1.1-2.6 1.2-2.7 1.3-.1 0-.1-.1.1-.3.9-.5 1.9-.8 3.5-2.7 0 0-.5-.2-.9-.4-.3-.3-.1-1.1.1-1.5.6-.9 1.1-.4 1.2-.3.5.9.2 1.8.2 1.8.3.1.6.5.4 1zm-1-2.2c-.1-.1-.2-.1-.5.3-.1.1 0 .3.2.3.2.1.6.3.6.3 0-.1.1-.6-.3-.9z" fill-rule="evenodd"/><path d="m18 5.1c-.1.1-.1.2-.2.3-.1.2-.2.3-.4.4s-5.3 2.1-5.4 2.1c-.3.2-.3.1-.3 0q.1-.1.1-.3c.1-.2.2-.2.4-.4.2-.1 5.3-2.1 5.5-2.2.4-.2.3 0 .3.1z"/><path d="m25.3 4.2c0 .1 0 .1-.1.3s-.2.2-.4.3c-.2.2-4.3 1.8-4.4 1.9-.4.2-.3.1-.3-.1q0 0 .1-.3c0-.1.1-.2.4-.3.2-.1 4.3-1.8 4.5-1.9.4-.2.3-.1.2.1z"/></g></svg>