<svg height="30" viewBox="0 0 70 30" width="70" xmlns="http://www.w3.org/2000/svg"><g fill="#191c4f"><path d="m15.4 22.2.9.7.4-.7q.1 0 .1 0l.9.7q.1 0 0 .1l-.5.7q0 0-.1 0l-.8-.6-.5.6q0 0-.1 0l-.9-.7q0 0 0 0l.5-.8q.1 0 .1 0z"/><path d="m13.1 21.8c0 .1-.1.1-.1.3-.1.1-.2.2-.4.2-.1.1-3.3 1.4-3.4 1.5-.3.1-.3 0-.3-.1q.1 0 .1-.2c.1-.2.1-.2.3-.3s3.4-1.4 3.6-1.5c.3-.1.2 0 .2.1z"/><path d="m25.8 20.7c0 .1 0 .1-.1.3-.1.1-.2.1-.4.2-.1.1-3.3 1.4-3.4 1.5-.3.1-.3 0-.2-.1q0 0 0-.2c.1-.2.1-.2.3-.3s3.4-1.4 3.6-1.5c.3-.1.3 0 .2.1z"/><path d="m64.3 19.8v.4c0 .2-.1.5-.2.8s-.7.4-1.1.1c-.7 1.1-1.3.5-1.6.4-.6-.2-.8.2-.9.3-.8.9-2.1.8-2.5.9-.3 0 0-.2.1-.3 1.1-.3 1.8-.4 2.7-1.3.5-.4.7-.2.9-.2.9.4 1 0 1.1-.1.2-.1.3-.6.4-.7 0-.1.1 0 .1.1s-.1.3-.1.3c.4.3.8.1.8 0 0 0 0-.3 0-.4q0-.1.1-.5c.1-.2.2 0 .2.2z"/><path d="m24.8 16.8c.6.8.5 1.6.5 1.8-.2 1-.7 1.2-.9 1.2-1.2 0-1.5-.5-1.7-.7 0 0-.5.8-.9.9-1.2.4-1.7-.5-1.9-.7-.6 1-1.8 1.1-2 1.1-1.6 0-1.9-1.1-2.1-1.3-.6 1.1-1.5 1.4-1.9 1.5-1.6.2-2.2-1-2.5-1.5-.2-.5-.6-.3-.8-.3-.6.2-1.3 1.2-1.5 1.5-.2.4-1 2.2-1.1 2.3-.8 1.1-1.6.1-1.8-.1-1.1-1.5-.9-3.8-.8-3.9 0-.2.1-.2.1 0 0 1.9.9 3 1.1 3.2.7.6 1.1.2 1.4-.1.2-.2.6-1.6.8-2.1.3-.6.8-1.3 1.6-1.8.8-.4 1.1 0 1.3.3 1.5 2.3 3 1.1 3.4.8s.8-1.2 1-1.4.2 0 .2.2-.1.3-.1.4c.5 1.6 2.3 1.3 2.6 1.1 1-.3 1.4-1.3 1.6-1.5s.2 0 .1.2c0 .1-.1.4-.1.5.7 1.1 1.5.7 1.8.4.4-.3.8-1.3.9-1.5.2-.3.3-.1.2.1 0 .1-.2.6-.2.7.5.8 1.3.7 1.6.7.2-.1.1-.3.1-.4s-.3-.6-.4-.8c0 0 .2-.7.3-.8 0 0 0-.1.1 0z"/><path d="m22.1 14.5 1 .7q0 0 0 0l-.6.8q0 0 0 0l-.9-.7-.5.7q0 0-.1 0l-.9-.7q0 0 0 0l.6-.8q0 0 0 0l.9.7.5-.7q0 0 0 0z"/><path d="m10.7 14.3 1 .7q0 0 0 .1l-.6.7q0 0 0 0l-.9-.6-.5.6q0 0-.1 0l-.9-.7q0 0 0 0l.6-.8q0 0 0 0l.9.7.5-.7q0 0 0 0z"/><path d="m47.5 18.5c-.2.9-1.5 1.4-1.8 1.5-1.1.4-1.2-.8-1.1-1.6 0-.8.6-1.9.6-1.9s-1.2-1-1.3-1c-.1-.1-.2-.3-.3-.3-.1-.1-.1-.2-.1-.2s0-.8 0-.9 0-.1.1 0c.1 0 1.4.5 1.6.6.1.1.1.2 0 .2s-.5.1-.5.1l1 .8s1.5-1.9 1.6-2.1c.2-.2.2-.1.1.1 0 .2-.3 1-.3 1.1-.1.1-.9 1.2-.9 1.2s1 .6 1.3.9c.4.6.1 1.2 0 1.5zm-1.8-1.7s-.7 1.1-.8 1.4c-.3.6.4.7.6.7.3 0 1.2-.5 1.6-.8s-1.2-1.1-1.4-1.3z" fill-rule="evenodd"/><path d="m21.1 13 .9.7q0 0 0 0l-.5.8q-.1 0-.1 0l-.9-.7q-.1 0 0-.1l.5-.7q0 0 .1 0z"/><path d="m65.6 17.5c0 .2-.3 1-1.5.8-.3-.1-.9-.2-1.1-.9-.3.4-1 1.5-2.4 1.3-.3 0-1.2-.4-1.3-1.6 0 0-1.1.9-1.6 1.2 0 .4 0 .9-.2 1.5-.2.5-2.6 3.3-4.6 3.7-.7.1-3.2.6-3.3-2.2q0-.9.1-1.4c-1.6 1.2-3.5 2.2-4 2.4-.8.4-3.7.9-4.2 1-.3.1-.4 0-.2-.2.2-.1 6.6-2.2 9.9-5.7q.2-.2 0-.4c-.1-.2-1.1-2.2-1.2-2.5-.1-.2-.3-.6-.3-.6q-.1-.2-.1-.4c.1-.1.2-.6.2-.7s.1-.1.1 0c.1.1 1.2 1.1 1.3 1.3.1.1 0 .2 0 .2-.1 0-.6-.1-.6-.1s.7 1.2.9 1.6c.4 1 .2 1.8.1 2.1-.4.6-.9 1.2-1.6 1.7-.1.5-.3 2.9 1.9 2.9.3 0 1.4.2 3.6-1.6.5-.4 1.1-.9 1.5-1.6.2-.3.4-.8 0-.7-.3 0-2.6.9-2.9-.5-.1-.4.1-3.6 2.3-2 .2.1.6.5 1 1.2.3-.2 1-.6 1.9-1.3.2-.2.5-.3.5 0-.1.3-.2 2.2 1.8 1.6.2-.1 1.1-.2 1.7-1.8.2-.4.4-.4.3 0-.2.4-.4.7-.2.9s.8.6 1.5.5c.3 0 .4-.1.3-.3s-.3-.6-.3-.6c0-.3.1-.7.2-.8 0-.1 0-.2.1-.1s.8.9.4 2.1zm-9.2.1c-.7-1-1.6-.5-1.7-.3-.1.1-.1.3.6.4.8 0 1.1-.1 1.1-.1z" fill-rule="evenodd"/><path d="m5.7 13s-.1.4-.1.7c-.5 1.5-.2 2.2-.1 2.3.3.7.8.3 1-.2.1-.3.1-.2.1 0q0 .1-.1.4c-.2.9-.5 1.1-.7 1.2-.5-.1-.8-.8-.8-1.1-.1-1.7.4-3 .6-3.4.1-.4.2-.3.1.1z"/><path d="m17.6 12.9c.1.2 0 .5 0 .7-.1.1-.2 0-.3-.1 0 0-.1-.1-.2-.2-.4-.3-.6.4-.6.7v1.5c-.1.2-.2.2-.2.1-.4-1-1-1.4-1-1.5-.2-.1-.2.1-.2.1q-.1.1-.1.1c-.1-.1-.4-.2-.5-.3s-.1-.5-.1-.7.1-.3.2-.3c1.2.6 1.6 1.7 1.7 1.8 0-.8-.1-1.5.3-2.1.4-.5.9.1 1 .2z"/><path d="m46.3 11.6.9.7q0 0 0 .1l-.5.7q0 0-.1 0l-.9-.6-.4.6q-.1 0-.1 0l-.9-.7q0 0 0 0l.5-.8q0 0 .1 0l.9.7.4-.7q.1 0 .1 0z"/><path d="m63.3 11.7s-.1.2-.1.4c-.3.8-.2 1.1-.1 1.2.2.4.5.2.6-.1.1-.2.1-.1.1 0q0 .1-.1.2c-.1.5-.3.6-.5.6-.3 0-.4-.4-.4-.6-.1-.8.3-1.6.4-1.8s.2-.1.1.1z"/><path d="m54.3 11.2s-.1.3-.2.4c-.3.9-.1 1.3-.1 1.4.3.4.6.2.7-.2.1-.1.1 0 .1 0q0 .1-.1.3c-.1.5-.3.7-.5.7-.3-.1-.5-.5-.5-.7 0-.9.4-1.7.5-2 0-.2.1-.1.1.1z"/><path d="m10.4 8.9c.1.2.1.5 0 .7 0 .2-.2 0-.2-.1 0 0-.2-.1-.3-.1-.4-.4-.5.3-.5.6-.1.3-.1 1.1-.1 1.5 0 .2-.1.2-.2.1-.3-1-.9-1.4-1-1.5s-.2.1-.2.1q0 .1-.1.1c0-.1-.4-.2-.5-.3s-.1-.5-.1-.7.2-.3.3-.3c1.1.6 1.5 1.7 1.6 1.8 0-.8 0-1.5.4-2.1.3-.5.9.2.9.2z"/><path d="m21.1 8.7c0 .1 0 .2-.1.3-.1.2-.2.3-.4.4s-8.8 3.8-8.9 3.9c-.4.2-.3.1-.3-.1q0 0 .1-.3c0-.1.1-.2.3-.3.3-.2 8.8-3.9 9.1-4s.3 0 .2.1z"/><path d="m13.4 8.1s0 .3-.1.4c-.3.9-.1 1.3 0 1.4.3.4.6.1.7-.2.1-.2.1-.1.1 0q0 .1 0 .2c-.2.6-.4.7-.6.7-.4 0-.5-.4-.6-.6-.1-.9.3-1.7.4-1.9.1-.3.2-.2.1 0z"/><path d="m23.5 8.1s-.1.4-.2.7c-.4 1.4-.2 2-.1 2.1.3.7.8.4 1-.1.1-.3.1-.2.1-.1q0 .2-.1.5c-.2.8-.5 1-.8 1-.4 0-.7-.7-.7-1-.1-1.5.5-2.8.7-3.2.1-.4.2-.2.1.1z"/><path d="m41 7.6c0 .1 1.1 2.8 1.2 2.9 0 .2-.1.2-.2.1s-.6-.6-.6-.6 1 7.3 1 7.5q.3 2.1.2 3.1c0 .9-.2 1.2-.2 1.3-.1.2-.2.1-.2 0 0-.6-.1-1.5-.2-2.6-.3-2.2-1.2-9.1-1.4-10.3 0-.1-.1-.5-.1-.5s.3-.8.4-.9c0-.1 0-.1.1 0z"/><path d="m30.1 14.7s-.1.3-.2.5q0 0 0 .1 0-.1.1-.2c.1-.2.1-.1.1.1 0 0-.1.2-.2.4q-.1.5-.1.8 0 .3.1.4c.2.3.4.3.6.2q0-.1 0-.2c.1-.1.1-.1.1 0q.1-.1.1-.2c.1-.2.2-.1.1 0q0 .1 0 .3c-.1.5-.3.7-.5.8q-.2 0-.3 0c-.3 0-.4-.3-.5-.6q0-.1 0-.1c-.1-1.1.3-2.1.4-2.3.1-.3.2-.2.2 0z"/><path d="m34.7 14.4.9.6q0 .1 0 .1l-.6.7q0 .1 0 0l-.9-.6q-.1 0 0-.1l.5-.7q0-.1.1 0z"/><path d="m36.6 11.5s-.1.2-.2.4c-.3.9-.1 1.3-.1 1.3.3.5.6.3.7-.1.1-.1.1-.1.1 0q0 .1 0 .3c-.2.5-.4.6-.6.6-.3 0-.5-.4-.5-.6 0-1 .4-1.8.5-2s.1-.1.1.1z"/><path d="m37.2 9.4c-.1.1-.1.2-.2.3-.1.2-.2.3-.4.4s-8.5 4.2-8.6 4.3c-.4.2-.3.1-.3-.1q0 0 .1-.3c0-.1.1-.2.3-.3.3-.1 8.6-4.3 8.8-4.4.4-.1.3 0 .3.1z"/><path d="m31.7 8.1c.1.2.1.5 0 .7 0 .2-.2.1-.2-.1 0 0-.2-.1-.3-.1-.4-.4-.5.3-.5.7-.1.2 0 1-.1 1.4 0 .2-.1.2-.2.1-.3-1-.9-1.4-1-1.5s-.2.1-.2.1q0 .1-.1.1s-.4-.2-.5-.3-.1-.5-.1-.6c0-.3.2-.4.3-.3 1.1.5 1.5 1.6 1.6 1.7 0-.8 0-1.5.4-2.1.3-.5.9.2.9.2z"/><path d="m53.5 7.5c-.1.1-.1.1-.2.3 0 .1-.1.2-.3.3-.1.1-4.9 2.8-4.9 2.9-.3.2-.3 0-.3-.1q0 0 .1-.2c0-.2.1-.2.3-.3s4.9-2.9 5-3c.3-.1.3 0 .3.1z"/><path d="m59.2 7.8c.1.2 0 .6-.1.8 0 .1-.1 0-.2-.1 0 0-.2-.2-.3-.3-.4-.4-.6.4-.7.8 0 .3-.1 1.2-.1 1.7-.1.2-.2.2-.3 0-.3-1.1-.9-1.6-1-1.7s-.2 0-.2.1c-.1.1-.1.1-.2 0 0 0-.4-.2-.5-.3-.1-.2-.1-.6-.1-.7 0-.3.2-.4.3-.4 1.3.7 1.7 2 1.8 2.2 0-1 .1-1.8.6-2.4.4-.5 1 .2 1 .3z"/><g fill-rule="evenodd"><path d="m63.9 9.8c-.1.1-.1 0-.2-.1s-.2-.2-.4-.3c-.2.4-.2.5-1 1.1-1.7 1.5-3.6 2.1-3.7 2.1s-.1-.1 0-.2c.6-.5 3.1-1.6 4.4-3.1 0 0-.4-.2-.7-.4-.2-.2-.1-.9.1-1.2.5-.7.9-.4 1-.2.4.7.2 1.4.2 1.4.2.2.4.4.3.9zm-.8-1.9c-.1 0-.3 0-.5.3-.1.1 0 .2.2.3.1.1.5.2.5.2 0-.1 0-.5-.2-.8z"/><path d="m39.8 19.8c-.3 1.4-1.2 1.6-1.5 1.7-1.3.4-2.1-.2-2.4-.4-.1-.1-.5-.4-.8-.8-.5.3-.8.5-.8.5s-2.7 1.8-5.5 1.1c-1.8-.5-2.1-2.4-2.2-3.3 0-.2-.7-8.2-1.3-10.1-.2-.5 0-.6.1-.9.1-.2.2-.6.3-.2.6 1.6 1 6 1.2 8.7.1 1.2.2 2.8.8 3.7 1 1.5 3.1 1.2 3.3 1.1 1.2-.2 2.4-.7 3.4-1.2q-.1-.2-.1-.2c-.6-.6-1.2-.8-1.4-.9 0 0-.2 0-.5.1q-.4.2-.4.2c-.2 0-.2-.1-.2-.2 0 0 .1-.4.2-.6q.1-.2.4-.4c2.4-1 5.5-.1 5.7 0s.3.3.2.4c0 .1-.3.7-.3.7-.4.2-1.3.6-2.1 1.1.5.4.9.5 1.1.6 1 .3 2.2-.5 2.4-.6.2-.2 0-1 0-1.4-.1-.5-1.4-7.9-1.4-7.9-.1-.6-.2-1.1-.2-1.5-.1-.4-.2-.6-.2-.7 0 0 .4-.7.4-.8.1-.1.1-.1.1 0 .1.1 1.2 2.8 1.2 2.9.1.2 0 .2-.1.1s-.6-.6-.6-.6l.8 4.7s.4 2.7.4 3.1c.1.4.2 1.3 0 2zm-3.1-1.4q-1.4-.2-2.3-.1.5.4.8.7 0 .1.1.2c.7-.4 1.3-.7 1.4-.8z"/><path d="m46 9.5c0 .2 0 .1-.1-.1-.1 0-.4-.3-.4-.3s-.4.9-1 1.3c-1.2.9-2.2 1.1-2.2 1.1-.2 0-.2-.1 0-.2.7-.4 1.6-.7 2.9-2.3 0 0-.4-.1-.7-.3s-.1-.9.1-1.2c.5-.8.9-.4 1-.3.4.7.2 1.4.2 1.4.2.2.4.5.2.9zm-.8-1.8c-.1-.1-.2-.1-.4.2-.1.2 0 .3.1.3.2.1.6.3.6.3 0-.1 0-.6-.3-.8z"/></g></g></svg>