<svg height="30" viewBox="0 0 70 30" width="70" xmlns="http://www.w3.org/2000/svg"><g fill="#191c4f"><path d="m16.5 22.5c0 .1 0 .2-.1.3-.1.2-.2.2-.4.3-.1.1-4.6 1.8-4.6 1.9-.3.2-.3 0-.3-.1q0 0 .1-.2c0-.2.1-.2.3-.3s4.6-1.9 4.8-2c.3-.1.3 0 .2.1z"/><path d="m28.7 21.8c.3.1.3.6.2.8-.3 1-1 1.6-1.2 1.7-.2.2-.2.1-.1-.1 0 0 .2-.2.3-.3.7-.7.7-1.2.7-1.3-.1-.5-.5-.4-.7-.1-.1.1-.2 0-.1-.1q0 0 .1-.2c.4-.4.7-.5.8-.4z"/><path d="m18.6 21.1 1.1.9q.1 0 0 .1l-.6.9q-.1 0-.1 0l-1.2-.8q0-.1 0-.1l.7-.9q0-.1.1-.1z"/><path d="m63.9 20.1v.6c0 .2-.1.6-.2.9-.2.4-.9.5-1.4.2-.8 1.3-1.6.6-2 .5-.7-.3-1 .2-1.2.4-.9 1.1-2.6 1-3 1-.4.1-.1-.2.1-.2 1.3-.5 2.2-.6 3.4-1.7.5-.6.9-.3 1.1-.3 1.1.6 1.2.1 1.4-.1.1-.1.3-.7.4-.9s.2-.1.2.1c0 .1-.1.3-.1.4.4.4.9.1 1 0 0 0 0-.4 0-.5q-.1-.1.1-.6c.1-.3.2 0 .2.2z"/><path d="m42.9 18.5c-.4 1.1-2 1.8-2.3 1.9-1.5.4-1.6-1-1.5-2 .1-1.1.9-2.4.9-2.4-.1 0-1.6-1.2-1.7-1.3-.1-.2-.3-.3-.4-.4-.2-.1-.1-.2-.1-.2s0-1 0-1.2c0-.1.1 0 .2 0 .1.1 1.7.7 1.9.8s.1.2 0 .2c-.1.1-.6.2-.6.2l1.3 1s1.8-2.5 2-2.7.2-.1.2.1c-.1.3-.4 1.3-.5 1.5-.1.1-1.1 1.4-1.1 1.4s1.3.8 1.6 1.2c.5.8.2 1.5.1 1.9zm-2.4-2.1s-.8 1.4-.9 1.7c-.4.8.5 1 .8.9.3 0 1.4-.6 1.9-1s-1.5-1.5-1.8-1.6z" fill-rule="evenodd"/><path d="m28.2 12.4 1.1.9q.1 0 0 .1l-.6.9q-.1 0-.1 0l-1.2-.8q0-.1 0-.1l.7-.9q0-.1.1-.1z"/><path d="m65.6 17.2c-.1.2-.4 1.3-1.9 1-.4-.1-1.1-.2-1.4-1.1-.4.5-1.3 1.9-3 1.7-.4-.1-1.6-.5-1.6-2 0 0-1.4 1.1-2.1 1.4.1.6 0 1.2-.2 1.9-.3.7-3.3 4.1-5.8 4.7-.8.2-4 .7-4.1-2.8 0-.7 0-1.3.1-1.7-2 1.5-4.4 2.7-5 3-1.1.5-4.7 1.1-5.3 1.2-.4.1-.5 0-.3-.2.3-.1 8.3-2.8 12.5-7.2q.2-.2 0-.6c-.1-.2-1.4-2.7-1.6-3-.1-.3-.3-.8-.3-.9q-.1-.1-.1-.4c0-.1.2-.8.2-.9 0-.2.1-.1.2 0s1.4 1.4 1.5 1.6c.2.2.1.2 0 .2h-.7s.9 1.5 1.2 2c.5 1.2.2 2.2 0 2.6-.4.8-1.1 1.5-1.9 2.2-.1.7-.4 3.6 2.3 3.6.4.1 1.8.2 4.6-2 .6-.5 1.3-1.2 1.9-2 .3-.4.4-1 0-.9-.5.1-3.3 1.1-3.7-.6-.1-.5.1-4.6 2.9-2.5.2.1.8.6 1.2 1.4.5-.2 1.4-.7 2.4-1.6.4-.2.6-.4.6 0s-.2 2.8 2.4 2.1c.2-.1 1.3-.3 2.1-2.4.2-.4.5-.4.4 0-.2.5-.5 1-.3 1.2.3.3 1 .8 1.9.7.3-.1.5-.2.4-.5-.1-.2-.4-.7-.4-.7 0-.4.2-.9.2-1 0-.2.1-.3.2-.2s1 1.2.5 2.7zm-11.6.1c-.9-1.2-2-.5-2.1-.4s-.2.5.7.6c1 0 1.4-.2 1.4-.2z" fill-rule="evenodd"/><path d="m10.5 11.1s0 .4-.1.6c-.3 1.3-.1 1.8 0 2 .3.6.7.2.9-.3 0-.2.1-.1.1 0q0 .1 0 .4c-.2.8-.5 1-.7 1-.5 0-.7-.6-.7-.9-.2-1.4.3-2.6.4-2.9s.2-.2.1.1z"/><path d="m41.3 9.8 1.2.9q0 0 0 0l-.7 1q0 0-.1 0l-1.1-.8-.6.8q0 0-.1 0l-1.1-.8q0-.1 0-.1l.7-1q0 0 0 0l1.2.8.5-.8q.1 0 .1 0z"/><path d="m62.7 9.9s-.1.3-.2.5c-.3 1-.2 1.4-.1 1.5.3.5.6.3.8-.1.1-.2.1-.1.1 0q0 .1-.1.3c-.1.6-.4.8-.6.8-.4-.1-.5-.6-.6-.8 0-1.1.4-2 .5-2.3s.2-.1.2.1z"/><path d="m51.3 9.3s-.1.3-.2.5c-.3 1.1-.1 1.6-.1 1.7.3.6.7.3.9-.1.1-.2.1-.1.1-.1q0 .1-.1.4c-.2.6-.4.8-.6.8-.5 0-.6-.5-.7-.8 0-1.2.5-2.2.6-2.5s.2-.1.1.1z"/><path d="m18.2 8c.9.1.7.5.5.8-.7.9-1.5 1.3-2.1 1.6-.7.3-.3-.2 0-.5 0 0 .4-.2.9-.6.6-.4-.9-.3-1.5-.4-.6 0-.8.3-1 .5s-.4.1-.2-.2c.1-.2.2-.6.7-1.1s1.9-.3 2.7-.1z"/><path d="m28.9 6.8c-.1.1-.1.2-.2.4s-.2.2-.5.4c-.2.1-8.4 3.8-8.6 3.9-.4.2-.3 0-.3-.1q0-.1.1-.4c.1-.2.2-.2.4-.4.3-.1 8.5-3.8 8.8-3.9.4-.2.3-.1.3.1z"/><path d="m11.8 5.2c.1.2.1.6 0 .9-.1.1-.2 0-.3-.2 0 0-.2-.1-.3-.2-.6-.4-.7.5-.7.9v1.8c-.1.2-.2.2-.3.1-.4-1.2-1.1-1.7-1.3-1.8-.1-.1-.2.1-.2.2h-.1c-.1 0-.5-.2-.6-.4-.2-.1-.2-.5-.2-.7 0-.3.2-.5.3-.4 1.5.7 2 2 2.1 2.2 0-1 0-1.9.4-2.7.4-.5 1.1.2 1.2.3z"/><path d="m22 5s-.1.3-.1.5c-.4 1-.2 1.5-.1 1.6.3.6.6.3.8-.1.1-.2.1-.1.1 0q0 .1-.1.3c-.1.7-.4.8-.6.8-.4 0-.6-.5-.6-.8-.1-1.2.4-2.1.5-2.4s.2-.2.1.1z"/><path d="m50.3 4.6c0 .2 0 .2-.1.4s-.2.2-.4.4c-.2.1-6.2 3.5-6.3 3.6-.3.2-.3.1-.3 0q.1-.1.1-.4c0-.1.1-.2.4-.3.2-.2 6.1-3.6 6.3-3.7.4-.3.4-.1.3 0z"/><path d="m57.5 5c.2.3.1.7 0 1-.1.2-.3 0-.4-.2 0 0-.2-.1-.3-.2-.6-.5-.8.4-.9.9 0 .4-.1 1.5-.2 2.1 0 .3-.2.3-.3.1-.4-1.4-1.2-2.1-1.3-2.2s-.2.1-.3.2h-.1c-.1 0-.6-.3-.7-.5-.2-.1-.1-.7-.1-.9 0-.3.3-.5.4-.4 1.6.9 2.1 2.5 2.2 2.7.1-1.2.1-2.2.7-3 .5-.7 1.3.3 1.3.4z"/><path d="m63.4 7.5c-.1.2-.1.1-.2-.1-.1-.1-.3-.3-.5-.4-.3.5-.2.6-1.2 1.5-2.2 1.8-4.6 2.5-4.7 2.5-.2.1-.2 0 0-.2.8-.6 3.9-2 5.5-3.9 0 0-.5-.2-.8-.5-.4-.2-.2-1.1 0-1.5.7-1 1.2-.5 1.3-.3.5.9.2 1.8.2 1.8.3.2.6.5.4 1.1zm-1-2.3c-.2-.1-.3-.1-.6.3-.1.2 0 .3.2.4s.7.3.7.3c0-.2 0-.7-.3-1z" fill-rule="evenodd"/><path d="m31.6 20.2c-1 1.1-2.9.4-3.2.3q-.4 0-.6-.2-.3.2-.3.2c-2.8 1.8-4.8.9-5.1.8-1.9-1-1.5-3.3-1.3-4.2-.5.2-.9.4-1.1.5-.3.1-1.6.6-2.8 1.1 0 .4 0 .6-.1.8s-.2.2-.2 0q-.1-.3-.3-.5c-.8.3-1.6.6-1.9.7-2.1.8-4.5 3.3-4.9 3.8-1.2 1.4-2.2 1.6-2.6 1.6-2.4-.2-2.4-2.6-2-3.9.3-1.3 1.2-2.9 1.5-3.3-.5-.3-.6-1.1-.6-1.6 0-2.3 1-4.2 1.2-4.7.2-.6.4-.3.2.1 0 0-.2.6-.3 1-.8 2.1-.5 3.1-.5 3.3.5 1.1 1.2.6 1.5-.2.2-.4.3-.1.2 0q0 .2-.2.7c-.3 1.1-.7 1.4-1.1 1.5q0 0 0 .1c-.7 1-1.5 2.9-1.6 3.4-.3 1.4.2 1.9.5 2.1.9.7 2-.1 2.5-.5s3-3.7 7-5.1q.2 0 .4-.1c-.7-.6-1.4-1.1-1.6-1.2-.5-.3-.8-.9-.8-1.4 0-1.7 1.5-1.9 2.2-2.1 2.6-.6 9.1.5 9.5.6 0 0-.4 1.1-.6 1.5 0 0-1.6.8-2.9 1.5-.5 1.1-.1 2.1.1 2.4 1.1 1.9 4.1.7 4.5.6q.1-.1.5-.3c-.4-.6-.3-1.4-.2-1.7.2-.5.6-1.5 1.2-2.1.7-.6 1.1-.2 1.3 0 .7.8.5 1.9.5 2.2-.2.5-.4 1-.6 1.3.3.1.5.2.5.2 1 .2 1.6-.1 1.9-.3.4-.3.1-1.5 0-2.3-.1-.7-1.2-8.2-1.3-8.7-.1-.8-.2-1.5-.3-2s-.2-.8-.2-.9c0 0 .5-.9.5-1.1.1-.1.1 0 .2.1 0 .1 1.3 3.3 1.4 3.5 0 .2-.1.3-.2.2-.1-.2-.8-.7-.8-.7l1 6.3s.5 3.2.5 3.6c.1 1.6-.5 2.8-.6 3.1zm-9.9-4.7c.5-.2 1.5-.7 1.4-.7-5.7-.8-8-.2-8.6 0-.6.3-.1.5 0 .7.2.1 1.5 1.1 1.9 1.4q.3.3.4.6c2-.7 4.6-1.8 4.9-2zm7.3 2.8c.1-.2.1-.6-.1-1-.3-.5-.7-.5-.9-.4s-.7.7-.9 1c-.1.3 0 .3.1.5.3.2.6.3.9.5.3-.2.7-.5.9-.6z" fill-rule="evenodd"/><path d="m33.9 4.2c.1.1 1.5 3.5 1.5 3.7.1.1 0 .2-.2.1-.1-.1-.7-.8-.7-.8s1.2 9.1 1.2 9.4c.3 1.8.4 3.1.3 3.9-.1 1.2-.3 1.6-.3 1.7-.1.2-.2.1-.2-.1 0-.6-.1-1.9-.3-3.2-.3-2.8-1.5-11.5-1.7-12.9-.1-.2-.2-.7-.2-.7s.4-1 .5-1.2c0-.1.1 0 .1.1z"/><path d="m41 7.2c-.1.1-.1 0-.2-.1s-.5-.4-.5-.4-.5 1-1.3 1.6c-1.4 1.1-2.7 1.3-2.8 1.4-.1 0-.2-.1.1-.3.9-.5 2-.9 3.6-2.9 0 0-.5-.2-.8-.4-.4-.3-.2-1.2 0-1.5.7-1 1.2-.5 1.3-.3.5.9.2 1.8.2 1.8.3.2.6.5.4 1.1zm-1-2.4c-.1 0-.3-.1-.6.4-.1.1 0 .3.2.3.2.1.7.3.7.3 0-.1 0-.6-.3-1z" fill-rule="evenodd"/></g></svg>