<svg height="30" viewBox="0 0 70 30" width="70" xmlns="http://www.w3.org/2000/svg"><g fill="#191c4f"><path d="m29.6 21.9c.3.1.4.5.3.8-.1.9-.7 1.6-.9 1.8s-.2.1-.1-.1c0 0 .1-.2.3-.3.5-.8.4-1.3.4-1.4-.1-.5-.5-.3-.7 0-.1.1-.2 0-.1 0q0-.1.1-.3c.3-.5.5-.6.7-.5z"/><path d="m15.6 21.6c0 .1 0 .2-.1.3-.1.2-.2.3-.4.4s-5.6 2.7-5.7 2.8c-.3.2-.3.1-.3 0q0-.1.1-.3c0-.2.1-.3.3-.4.3-.1 5.7-2.8 5.9-2.9.3-.2.3 0 .2.1z"/><path d="m35.7 21.3c.4.1.3.6.3.8-.4 1-1.1 1.6-1.2 1.7-.2.2-.3.1-.1-.1 0 0 .2-.2.3-.3.6-.7.6-1.2.6-1.3-.1-.5-.5-.4-.7-.1-.1.1-.1 0-.1 0q0-.1.2-.3c.3-.4.6-.5.7-.4z"/><path d="m64 20v.6c0 .2-.1.5-.2.9-.1.3-.8.4-1.3.1-.7 1.2-1.5.6-1.8.5-.7-.3-1 .2-1.1.3-.9 1.1-2.5 1-2.9 1.1-.4 0-.1-.3.1-.3 1.3-.5 2-.6 3.2-1.6.5-.5.8-.3 1-.2 1 .5 1.2 0 1.3-.1.2-.2.4-.7.4-.9.1-.2.2 0 .2.1s-.1.3-.1.4c.4.3.8.1.9 0 0 0 0-.4 0-.5q0-.1.1-.5c.1-.3.2 0 .2.1z"/><path d="m21.2 20.3 1.1.8q0 .1 0 .1l-.7.9q0 0 0 0l-1.1-.8q0 0 0-.1l.6-.8q0-.1.1-.1z"/><path d="m12 13.1 1.1.8q0 .1 0 .1l-.6.9q-.1 0-.1 0l-1.1-.8-.5.8q0 0-.1 0l-1-.8q-.1 0-.1-.1l.7-.9q0 0 .1 0l1 .8.5-.8q.1 0 .1 0z"/><path d="m29.8 13.1 1.1.8q0 0 0 0l-.6.9q-.1 0-.1 0l-1-.7-.6.7q0 0-.1 0l-1-.8q-.1 0 0 0l.6-.9q0 0 .1 0l1 .7.5-.7q.1 0 .1 0z"/><path d="m44.3 18.6c-.3 1-1.8 1.6-2.1 1.7-1.4.4-1.5-.9-1.4-1.9s.8-2.2.8-2.2c-.1 0-1.5-1.1-1.6-1.3-.1-.1-.2-.2-.3-.3-.2-.1-.2-.1-.2-.1s.1-1 .1-1.2c0-.1 0 0 .1 0 .2.1 1.7.7 1.8.8.2 0 .1.2 0 .2 0 0-.6.1-.6.1l1.3.9s1.7-2.2 1.9-2.5c.2-.2.2 0 .1.2 0 .2-.3 1.2-.4 1.3-.1.2-1 1.4-1 1.4s1.2.7 1.4 1.1c.5.7.2 1.4.1 1.8zm-2.2-2s-.7 1.3-.8 1.5c-.4.8.4 1 .7.9.3 0 1.3-.5 1.8-.9s-1.4-1.4-1.7-1.5z" fill-rule="evenodd"/><path d="m24.8 12.5c.6.1.5.4.3.6-.4.7-1 1-1.5 1.2-.4.1-.2-.2.1-.4 0 0 .2-.1.6-.4s-.6-.3-1.1-.3c-.4 0-.5.2-.7.3-.1.2-.3.1-.1-.1.1-.2.1-.4.5-.8.3-.3 1.3-.2 1.9-.1z"/><path d="m17.5 12.4s-.1.3-.1.5c-.4 1-.2 1.5-.1 1.6.2.5.6.2.8-.2 0-.2.1-.1.1 0q0 .1-.1.3c-.2.7-.4.8-.6.8-.4 0-.6-.5-.6-.8-.1-1.1.4-2 .5-2.3s.2-.1.1.1z"/><path d="m65.6 17.3c-.1.2-.4 1.2-1.7 1-.4-.1-1.1-.3-1.4-1-.4.4-1.2 1.8-2.8 1.5-.3-.1-1.5-.5-1.5-1.9 0 0-1.3 1.1-1.9 1.4 0 .5 0 1.1-.3 1.7-.2.7-3.1 3.9-5.4 4.4-.8.2-3.7.7-3.8-2.6-.1-.7 0-1.2 0-1.6-1.8 1.4-4 2.5-4.6 2.8-1 .5-4.4 1.1-5 1.2-.4.1-.5-.1-.2-.2.2-.1 7.8-2.7 11.7-6.8q.1-.2-.1-.5c-.1-.2-1.3-2.5-1.4-2.8s-.3-.7-.4-.8q0-.2 0-.4c0-.1.1-.8.2-.9 0-.2.1-.1.2 0 0 .1 1.3 1.3 1.4 1.5s0 .2 0 .2c-.1 0-.7 0-.7 0s.8 1.4 1.1 1.9c.5 1.1.2 2 0 2.4-.3.7-1 1.4-1.7 2.1-.2.6-.4 3.3 2.1 3.4.4 0 1.7.1 4.3-2 .6-.5 1.2-1 1.8-1.8.2-.4.4-.9 0-.9-.5.1-3.1 1.1-3.5-.6-.1-.4.1-4.2 2.7-2.3.3.2.8.6 1.2 1.4.4-.2 1.2-.7 2.2-1.5.3-.2.6-.4.6 0 0 .3-.2 2.5 2.2 1.9.2-.1 1.3-.3 2-2.2.2-.4.5-.4.3 0-.2.5-.4.9-.2 1.1s.9.7 1.8.6c.3 0 .4-.2.3-.4s-.4-.7-.4-.7c.1-.3.2-.8.3-.9 0-.2 0-.3.1-.2s.9 1.2.5 2.5zm-10.8.1c-.9-1.1-1.9-.5-2-.3-.1.1-.2.4.6.5 1 0 1.4-.2 1.4-.2z" fill-rule="evenodd"/><path d="m5.8 11.5s-.1.6-.2.9c-.4 1.9-.1 2.7 0 2.9.5.9 1.1.4 1.2-.3.1-.4.2-.2.2-.1q0 .2-.1.6c-.2 1.2-.6 1.4-.9 1.5-.6 0-.9-.9-1-1.4-.2-2 .5-3.7.6-4.2.2-.5.3-.3.2.1z"/><path d="m42.9 10.4 1 .8q.1.1 0 .1l-.6.9q0 0-.1 0l-1-.8-.5.8q-.1 0-.1 0l-1.1-.8q0 0 0-.1l.6-.8q.1-.1.1-.1l1 .8.6-.7q0-.1.1-.1z"/><path d="m62.9 10.5s-.1.3-.2.5c-.3.9-.1 1.3-.1 1.4.3.5.6.2.7-.1.1-.2.2-.1.1 0q0 .1 0 .3c-.2.5-.4.7-.6.7-.4 0-.5-.5-.5-.7-.1-1.1.3-1.9.4-2.2.1-.2.2-.1.2.1z"/><path d="m52.2 9.9s-.1.3-.1.5c-.4 1-.2 1.5-.1 1.6.2.5.6.3.8-.1 0-.2.1-.1.1 0q0 .1-.1.3c-.2.6-.4.7-.6.7-.4 0-.6-.5-.6-.7-.1-1.1.4-2.1.5-2.3.1-.3.2-.2.1 0z"/><path d="m29.7 9.4s.1.8-.1 1.3c-.6 1.1-1.3.8-1.5.7-1.1 1.1-1.6.3-1.7 0s.1-.8.2-1.1c.1-.2.2 0 .2.1-.1.2-.1.4-.1.5.3.6 1.1.2 1.2 0 .2-.2.1-.4.1-.6.1-.2 0-.3.2-.5.2-.3.2-.1.2.1s-.1.6 0 .8c.2.2.9-.1.9-.2.1-.1 0-.6 0-.7s0-.2.2-.5c.1-.3.2-.2.2.1z"/><path d="m13.7 7.1s-.1.3-.2.5c-.3.9-.2 1.4-.1 1.5.3.5.6.2.8-.1 0-.2.1-.1.1-.1q0 .1-.1.3c-.2.6-.4.8-.6.8-.4 0-.5-.5-.6-.8 0-1 .4-1.9.5-2.2.1-.2.2-.1.2.1z"/><path d="m11.2 7c.2.2.1.6 0 .9-.1.1-.2 0-.4-.2 0 0-.1-.1-.2-.2-.5-.5-.7.4-.8.8 0 .3-.1 1.3-.2 1.9 0 .2-.2.2-.2.1-.4-1.3-1.1-1.9-1.2-2s-.2.1-.3.2c0 0 0 0-.1 0s-.5-.3-.6-.4c-.1-.2-.1-.6-.1-.8 0-.3.3-.5.4-.4 1.4.8 1.8 2.2 1.9 2.4.1-1 .1-2 .7-2.7.4-.5 1.1.3 1.1.4z"/><path d="m23.2 5.9c-.1.2-.1.2-.2.4-.1.3-.2.3-.4.5-.2.1-7.4 3.7-8.1 4.2-.8.5-.7.8-.5.9.5.1.8.5.5 1.1 0 .1-.1.1-.1.1-.1-.1-.2-.3-.5-.3-.4-.1-.6-.7-.4-1.3.1-.5.3-.8.6-1.1.6-.5 8.5-4.4 8.8-4.6.4-.2.3 0 .3.1z"/><path d="m33.9 20.3c-.6.6-1.6.7-1.8.7-2.3.3-2.5-2.4-2.5-2.5-.1-.2-.1-.2-.2-.1-.2.1-1.5.8-1.6.9-.1 1.1-.2 1.5-.5 2-3.6 4.3-6.3 3.7-6.9 3.5-2.4-.6-1.7-4.1-1.6-4.7q.1-.1.1-.2c-1.1.4-2.5.6-3.8.3-1.2-.3-2.2-1.6-2.5-2.2-.1-.1-.3-.3-.5-.3-.5.1-1.4.4-1.9 1.4-.2.4-1.3 3.2-1.6 3.7-.1.2-.8 1-1.7.4-1.8-1.5-1.4-5.3-1.3-5.6 0-.3.2-.3.2 0v1.8c.2 1.8 1.3 2.5 1.5 2.6.7.5 1.3-.3 1.4-.6s.7-1.9.8-2.4c.4-.9 1.3-1.9 2.2-2.4.9-.6 1.3.2 1.4.5.9 1.7 2.5 1.9 2.9 2 2.6.2 4.6-1.3 5-1.7.4-.3-.4-1.3-.7-1.6 0 0 .1-.6.2-1.1.2-.5.8.7 1 1.2.3 1.1-.1 2.5-.4 2.8s-1 .7-1.9 1.1q0 .1 0 .2c-.8 2.9 1.4 3.7 2.1 3.7 2.7.1 5.7-3.4 5.9-3.7.2-.2-.1-.5-.1-.5-.1 0-2.1.7-2.8 0-.8-.7-.4-1.9.2-2.7.7-.8 1.4-.5 1.8-.2.7.4 1.2 1.5 1.2 1.5.5-.1 1.7-.8 2.2-1.1s.4 0 .4.2c-.2 1.4.6 2.2.8 2.4 1.1.6 2.6-.2 2.8-.4.3-.1.2-.5.1-.8 0-.4-1.6-11.7-1.6-11.9 0 0 .3-.8.4-1 0-.1.1 0 .1.1s1.3 3.3 1.4 3.4c.1.2-.1.3-.2.2-.1-.2-.7-.7-.7-.7s0 .2.1.5c0 0 1.2 8.7 1.2 9.1.1 1-.3 1.9-.6 2.2zm-7.5-1.9c-.8-1.1-1.5-.6-1.7-.5-.1.2-.2.5.2.6.9.1 1.5-.1 1.5-.1z" fill-rule="evenodd"/><path d="m51.3 5.6c0 .1-.1.2-.1.3-.1.2-.2.3-.4.4s-5.8 3.3-5.9 3.4c-.3.2-.3.1-.2-.1q0 0 0-.3c.1-.1.1-.2.4-.3.2-.2 5.7-3.4 5.9-3.5.4-.2.3 0 .3.1z"/><path d="m30.8 5.6c0 .2-.1.3-.2.5s-.2.3-.5.5c-.2.1-8.9 4.3-9 4.4-.5.3-.4.1-.4-.1q0 0 .1-.4c.1-.2.2-.3.5-.5s8.9-4.3 9.2-4.5c.4-.2.4 0 .3.1z"/><path d="m58.1 5.9c.1.3 0 .7-.1 1-.1.1-.2 0-.4-.2 0 0-.1-.1-.2-.2-.6-.5-.8.4-.9.9 0 .3-.1 1.3-.2 1.9 0 .3-.1.2-.2.1-.4-1.3-1.1-1.9-1.3-2.1-.1-.1-.2.1-.2.2s-.1.1-.2 0c0 0-.5-.3-.6-.4-.2-.2-.1-.7-.1-.9 0-.3.3-.4.4-.4 1.5.9 1.9 2.4 2 2.6.1-1.1.1-2.1.7-2.8.5-.7 1.2.2 1.3.3z"/><path d="m63.5 8.3c0 .1-.1 0-.2-.1s-.2-.3-.4-.4c-.2.5-.2.6-1.2 1.4-2 1.7-4.3 2.3-4.4 2.4-.1 0-.1-.1.1-.2.7-.6 3.6-1.9 5.1-3.7 0 0-.5-.2-.8-.4-.3-.3-.1-1.1.1-1.4.6-.9 1.1-.5 1.2-.4.5.9.2 1.7.2 1.7.3.2.5.5.3 1.1zm-.9-2.2c-.1-.1-.3-.1-.6.3-.1.1 0 .3.2.3.2.1.7.3.7.3 0-.1 0-.6-.3-.9z" fill-rule="evenodd"/><path d="m36.2 5.2c0 .1 1.3 3.2 1.4 3.4 0 .2-.1.2-.2.1s-.7-.7-.7-.7 1.1 8.5 1.2 8.8c.2 1.6.3 2.9.2 3.7 0 1-.2 1.4-.3 1.5-.1.2-.2.1-.1-.1-.1-.6-.2-1.7-.3-3-.4-2.6-1.5-10.7-1.7-12.1 0-.1-.1-.5-.1-.6 0 0 .4-1 .4-1.1.1-.1.1 0 .2.1z"/><path d="m42.6 8c-.1.1-.1 0-.3-.1 0-.1-.4-.4-.4-.4s-.4 1-1.2 1.5c-1.4 1.1-2.5 1.3-2.6 1.3s-.2-.1 0-.2c.9-.5 1.9-.9 3.4-2.7 0 0-.4-.2-.7-.5-.4-.2-.2-1 0-1.4.6-.9 1.1-.4 1.2-.3.5.9.2 1.7.2 1.7.3.2.6.5.4 1.1zm-1-2.2c-.1-.1-.2-.1-.5.3-.1.1 0 .3.2.3.2.1.6.3.6.3 0-.1 0-.6-.3-.9z" fill-rule="evenodd"/></g></svg>