<svg height="30" viewBox="0 0 70 30" width="70" xmlns="http://www.w3.org/2000/svg"><g fill="#191c4f"><path d="m21.7 21.2c0 .1 0 .1-.1.3s-.2.2-.4.3-6 2.5-6.1 2.6c-.3.2-.3 0-.3-.1q.1 0 .1-.3c.1-.1.1-.2.4-.3.2-.1 6-2.5 6.2-2.6.3-.2.3 0 .2.1z"/><path d="m23.5 21s-.1.2-.2.4c-.3.9-.1 1.3-.1 1.4.3.4.6.2.7-.2.1-.1.1 0 .1 0q0 .1 0 .3c-.2.5-.4.7-.6.7-.3 0-.5-.5-.5-.7-.1-1 .3-1.8.4-2s.2-.1.2.1z"/><path d="m34.2 20.1v.5c0 .2-.1.5-.2.9-.1.3-.8.4-1.2.1-.8 1.2-1.5.6-1.9.4-.6-.2-.8.2-1 .4-.9 1-2.4 1-2.8 1s-.1-.2.1-.3c1.2-.4 2-.5 3.1-1.5.5-.5.8-.3 1-.2 1 .5 1.1 0 1.3-.1.1-.2.3-.7.4-.9.1-.1.2 0 .1.1 0 .1-.1.3-.1.4.4.3.9.1 1 0 0 0-.1-.3-.1-.4q0-.2.1-.6c.1-.3.2 0 .2.2z"/><path d="m64 20.1s.1.3.1.5-.2.5-.3.9c-.1.3-.7.4-1.2.1-.8 1.2-1.4.6-1.8.4-.7-.2-.9.2-1.1.4-.8 1-2.4 1-2.8 1s0-.2.1-.3c1.2-.4 2-.5 3.1-1.5.5-.5.8-.3 1-.2 1 .5 1.2 0 1.3-.1.1-.2.3-.7.4-.9.1-.1.2 0 .1.1 0 .1 0 .3-.1.4.5.3.9.1 1 0 0 0 0-.3-.1-.4q0-.2.2-.6c.1-.3.1 0 .1.2z"/><path d="m44.8 18.6c-.3 1-1.7 1.6-2.1 1.7-1.3.4-1.4-.9-1.3-1.8.1-1 .8-2.2.8-2.2-.1 0-1.4-1.1-1.5-1.2s-.3-.3-.4-.4c-.1 0-.1-.1-.1-.1s0-1 0-1.1.1-.1.2 0c.1 0 1.6.6 1.7.7.2.1.1.2 0 .2 0 0-.5.2-.5.2l1.2.8s1.7-2.2 1.8-2.4c.2-.2.2-.1.1.1 0 .3-.3 1.2-.4 1.4-.1.1-.9 1.3-.9 1.3s1.1.7 1.4 1.1c.5.7.2 1.3 0 1.7zm-2.1-2s-.7 1.3-.8 1.6c-.4.8.4.9.7.9.2-.1 1.3-.6 1.7-1 .5-.4-1.3-1.3-1.6-1.5z" fill-rule="evenodd"/><path d="m10.6 16.3s-.1.3-.2.6c-.6 1.2-.4 1.7-.3 1.9.3.6.8.3 1-.1.1-.2.2-.1.1 0q0 .1-.1.4c-.3.7-.6.9-.8.8-.5 0-.7-.6-.7-1 0-1.3.7-2.4.8-2.7.2-.4.3-.2.2.1z"/><path d="m16.1 13.6c.1.3 0 .6-.1.9 0 .1-.2 0-.3-.2 0 0-.1-.1-.2-.2-.4-.4-.6.4-.6.8-.1.3-.1 1.2-.2 1.7 0 .3-.1.2-.2.1-.3-1.2-.9-1.7-1-1.8s-.2 0-.2.1-.1.1-.1.1c-.1-.1-.4-.3-.5-.4-.1-.2-.1-.6-.1-.8 0-.3.2-.4.3-.3 1.2.7 1.6 2 1.6 2.2.1-1 .1-1.8.6-2.5.4-.5.9.3 1 .3z"/><path d="m30.7 12.5 1 .8q.1 0 .1 0l-.7.9q0 0 0 0l-1.1-.7-.5.7q0 0-.1 0l-1-.8q0 0 0-.1l.6-.8q0 0 .1 0l1 .7.5-.7q.1 0 .1 0z"/><path d="m65.6 17.4c-.1.2-.3 1.2-1.7.9-.4-.1-1-.2-1.3-1-.4.5-1.2 1.8-2.7 1.6-.4-.1-1.5-.5-1.5-1.9 0 0-1.3 1-1.9 1.4 0 .5 0 1-.2 1.7-.3.6-3 3.7-5.3 4.2-.8.2-3.6.7-3.8-2.5 0-.7.1-1.2.1-1.6-1.8 1.4-3.9 2.5-4.6 2.8-.9.5-4.2 1-4.8 1.1-.4.1-.4 0-.2-.2.2-.1 7.6-2.6 11.4-6.6q.1-.2 0-.5c-.2-.2-1.3-2.5-1.5-2.8-.1-.3-.2-.7-.3-.8q-.1-.1 0-.3c0-.2.1-.8.1-.9.1-.2.1-.1.2 0s1.3 1.3 1.4 1.5c.2.1.1.2 0 .2h-.6s.8 1.3 1 1.8c.5 1.1.2 2 .1 2.4-.4.7-1 1.4-1.8 2-.1.6-.4 3.2 2.1 3.3.4 0 1.7.2 4.2-1.9.6-.5 1.2-1 1.8-1.8.2-.3.3-.9-.1-.8-.4 0-3 1-3.4-.6 0-.4.2-4.1 2.7-2.3.2.2.8.6 1.1 1.4.5-.2 1.3-.7 2.2-1.5.3-.2.6-.4.6 0 0 .3-.2 2.5 2.1 1.9.3-.1 1.2-.3 2-2.2.2-.4.4-.3.3 0-.2.5-.4.9-.2 1.1s.9.7 1.7.6c.3 0 .4-.2.3-.4s-.3-.7-.3-.7c0-.3.1-.8.2-.9 0-.1.1-.3.2-.1.1.1.8 1.1.4 2.4zm-10.6.1c-.8-1.1-1.8-.5-1.9-.4-.1.2-.2.5.6.5 1 .1 1.3-.1 1.3-.1z" fill-rule="evenodd"/><path d="m25 11.6c.6 0 .4.3.3.5-.5.8-1.1 1.1-1.6 1.3-.4.2-.2-.2.1-.4 0 0 .3-.2.7-.5s-.7-.2-1.2-.2c-.4 0-.5.1-.7.3s-.3.1-.2-.1.2-.5.5-.8c.4-.4 1.4-.2 2.1-.1z"/><path d="m43.4 10.7 1.1.7q0 .1 0 .1l-.6.9q-.1 0-.1 0l-1-.8-.6.8q0 0 0 0l-1.1-.8q0 0 0-.1l.6-.8q.1-.1.1 0l1 .7.5-.7q.1-.1.1 0z"/><path d="m62.9 10.7s-.1.3-.1.5c-.3.9-.2 1.3-.1 1.4.2.5.6.2.7-.1.1-.2.1-.1.1 0q0 0-.1.2c-.1.6-.4.7-.5.7-.4 0-.5-.4-.5-.7-.1-1 .3-1.8.4-2 .1-.3.2-.2.1 0z"/><path d="m29.4 10.4 1.1.8q0 0 0 .1l-.6.8q-.1.1-.1 0l-1.1-.7q0-.1 0-.1l.6-.9q.1 0 .1 0z"/><path d="m52.6 10.2s-.1.3-.2.5c-.3.9-.1 1.4-.1 1.5.3.5.6.2.8-.1 0-.2.1-.1.1 0q0 0-.1.3c-.2.6-.4.7-.6.7-.4 0-.5-.5-.6-.7 0-1.1.4-2 .5-2.3s.2-.1.2.1z"/><path d="m29.7 7.6s.1.4.3.7c.1.2.2.4.1.8 0 .3-.2.6-.4.6-.2.1-.6.1-.8-.3-.3.6-.7.8-1 .6-.3-.1-.3-.6-.3-.7 0-.2 0-.7 0-.8s0-.2.1-.3.1-.1.1.1-.1.8.1 1c.2.4.8.1.9-.1s-.2-.9-.2-1q0 0 0-.1s0-.2.1-.3q0-.2.1 0c.1.1.1.3.2.9s.7.5.8.5c.1-.1.1-.2.1-.3 0 0-.3-.5-.4-.8 0-.2 0-.4.1-.6 0-.2.1 0 .1.1z"/><path d="m16.9 6.7s-.1.5-.2.8c-.6 1.7-.3 2.5-.3 2.7.4.9 1 .5 1.2-.2.1-.3.2-.1.2 0q0 .1-.1.5c-.3 1.1-.7 1.3-1 1.3-.5 0-.8-.9-.8-1.3-.1-1.9.7-3.5.8-3.9.2-.5.3-.3.2.1z"/><path d="m13.8 6.4s-.2.3-.3.5c-.4 1.2-.2 1.7-.2 1.8.3.6.7.3.9-.1.1-.2.2-.1.2 0q-.1.1-.1.4c-.3.7-.6.8-.8.8-.4 0-.6-.6-.6-.9 0-1.3.6-2.3.7-2.6.2-.3.3-.1.2.1z"/><path d="m11.5 6.6c.2.2.1.6 0 .9-.1.1-.2 0-.3-.2 0 0-.2-.1-.3-.2-.5-.4-.7.4-.8.8 0 .3-.1 1.9-.4 2.6-.5 1.1-.3 1.7-.3 1.8.3.6.8.3 1-.1 0-.2.1-.1.1 0q-.1.1-.1.3c-.3.7-.6.9-.8.9-.4-.1-.6-.7-.6-.9 0-1.1.4-1.9.6-2.4.1-.1 0-.5 0-.6-.4-1-.9-1.5-1-1.6q-.1 0-.1 0 .1.1.1.4c-.3 1.5-1.8 2.1-2.1 2.3-.3.1-.2.1 0-.2.3-.3 1.4-1.5 1.6-1.7.6-.6-.4-.9-.5-1-.1-.2-.1-.6-.1-.8 0-.3.2-.4.3-.4 1.4.8 1.9 2.2 1.9 2.4.1-1 .2-2 .7-2.6.4-.6 1.1.2 1.1.3z"/><path d="m51.6 5.9c0 .1 0 .2-.1.3-.1.2-.2.3-.3.4-.2.1-5.7 3.2-5.8 3.3-.3.2-.3.1-.2 0q0-.1 0-.3c.1-.2.2-.2.4-.4.2-.1 5.6-3.2 5.8-3.4.3-.2.3 0 .2.1z"/><path d="m58.2 6.2c.2.3.1.7 0 1-.1.1-.2 0-.4-.2 0 0-.1-.1-.2-.2-.6-.5-.8.4-.8.8-.1.3-.1 1.4-.2 2-.1.2-.2.2-.3 0-.4-1.3-1.1-1.9-1.2-2s-.2.1-.2.2c-.1 0-.1 0-.2 0s-.5-.3-.6-.4c-.2-.2-.1-.7-.1-.9 0-.3.2-.4.4-.3 1.4.8 1.9 2.2 2 2.4 0-1 .1-2 .6-2.7.5-.6 1.2.2 1.2.3z"/><path d="m63.6 8.5c-.1.2-.1.1-.2 0s-.2-.3-.4-.4c-.3.5-.2.5-1.2 1.3-2 1.7-4.1 2.3-4.3 2.4-.1 0-.1-.1.1-.2.7-.6 3.5-1.8 5-3.6 0 0-.5-.2-.8-.5-.3-.2-.1-1 .1-1.3.6-.9 1.1-.5 1.1-.3.5.8.3 1.6.3 1.6.2.2.5.5.3 1zm-.9-2.1c-.1-.1-.3-.1-.6.3-.1.1 0 .3.2.3.2.1.6.3.6.3 0-.1.1-.6-.2-.9z" fill-rule="evenodd"/><path d="m34.4 8.9c-.1-.1-.6-.6-.6-.6s.6 5.9.7 6.4c.2 1.3-.2 1.9-.3 2.3-.2.3-1.2 1.2-2.6-.2-.9 1.5-2.1 1.1-2.4.1 0 0-.1.2-.4.4-1.7 1.3-2.8-.2-3.2-1-.4-.7-1.5.3-1.6.5-.2.4-.3.8-.2 1.2 1-.3 1.6-.3 1.9-.2 1 .3 1 1.3 1 1.6 0 1.7-1 1.8-1.3 1.8-.6-.1-1.3-.7-1.7-1.5q-.1-.2-.2-.4-.3.1-.4.1c-2.7.9-3.5-.4-3.6-.6 0 0-.3.4-.5.6-1.1 1.3-2 .1-2.2-.4-1 1-1.9.8-2.2.8 0 0-.1.8-.2 1.3-.1 1-1.8 2.1-2.1 2.3-2.7 1.8-5.4.8-5.7.6-3-1.7-.9-5.5-.7-5.9q.1-.1.1-.1h-.1c-.5-.1-.7-1-.6-1.5.1-1.8 1-3.3 1.2-3.8.2-.4.3-.2.2.2 0 0-.2.5-.4.8-.7 1.6-.5 2.5-.5 2.6.3 1 .9.6 1.2 0 .2-.4.2-.2.2 0q-.1.1-.2.5c-.3.7-.6 1-.8 1.1 0 .1 0 .2-.1.3-.1.2-.4 1-.5 1.5-.6 2.9 1.8 3.3 2.3 3.4 3.7.7 6.2-2.1 6.2-2.5.1-.6-.5-2-.7-2.5 0 0 .2-.7.2-.9 0-.1.1-.2.2 0s.4.9.4 1c1.6 1.3 2.9-.8 3.1-1.1s.3 0 .2.2c0 .2-.1.6-.2.8 0 .2.4.9 1.1.7.7-.1 1.1-1.3 1.3-1.7.2-.3.2.3.1.4.5 1.5 2.8.9 3.2.8q.1-.1.2-.1c-.1-1.8 1.1-3 1.8-3.3s.9 0 1.1.3c.7 1.6 1.5 1.4 1.8 1.4 1.1 0 1.7-1.2 1.9-1.4.1-.2.1.1.1.1 0 .1 0 .2-.1.5.1 1.1 1.1.7 1.3.7.4-.2.7-1.2.9-1.5.1-.2.1 0 .1.2 0 .1 0 .2-.1.3.3.7 1.3.9 1.5 1 .7 0 .5-.7.5-.9 0-.3-1-7.7-1.1-8.2-.1-.4-.1-.6-.2-.7 0 0 .4-.9.5-1 .1-.2.1-.1.1 0 .1.1 1.2 2.9 1.3 3 0 .2-.1.3-.2.2zm-10.1 10.1q.2.2.3.3c.3.3.7.5 1.2.6.5 0 .3-.4 0-.6-.5-.4-1-.4-1.5-.3z" fill-rule="evenodd"/><path d="m36.9 5.7c0 .1 1.3 3.2 1.4 3.4 0 .1-.1.2-.2.1s-.7-.7-.7-.7 1.1 8.3 1.2 8.6q.3 2.4.2 3.6c-.1 1-.3 1.4-.3 1.5-.1.2-.2.1-.2-.1 0-.6-.1-1.7-.2-2.9-.4-2.5-1.5-10.5-1.6-11.9-.1-.1-.2-.5-.2-.6 0 0 .4-.9.5-1 0-.2 0-.1.1 0z"/><path d="m43.1 8.2c0 .2-.1.1-.2 0 0-.1-.4-.4-.4-.4s-.4.9-1.2 1.5c-1.3 1-2.5 1.2-2.5 1.2-.1 0-.2-.1 0-.2.9-.5 1.9-.9 3.3-2.6 0 0-.4-.2-.7-.5-.3-.2-.2-1 0-1.3.6-.9 1.1-.5 1.2-.3.5.8.2 1.6.2 1.6.3.2.5.5.3 1zm-.9-2.1c-.1-.1-.2-.1-.5.3-.1.1 0 .3.2.3.1.1.6.3.6.3 0-.1 0-.6-.3-.9z" fill-rule="evenodd"/><path d="m21.1 5.4s-.1.2-.1.4c-.3.9-.2 1.3-.1 1.4.2.4.6.2.7-.2 0-.1.1 0 .1 0q0 .1-.1.3c-.1.5-.4.7-.5.7-.4-.1-.5-.5-.5-.7-.1-1 .3-1.8.4-2s.2-.1.1.1z"/><path d="m32 5.2c0 .2 0 .2-.2.4-.1.3-.2.3-.4.4-.2.2-10.8 4.4-11.5 4.8-.9.5-.8.8-.6.9.5.2.8.6.4 1.2 0 .1 0 .1-.1 0 0-.1-.2-.2-.5-.3-.4-.1-.5-.7-.3-1.4.1-.4.4-.8.7-1 .7-.5 12-5 12.2-5.1.5-.2.4 0 .3.1z"/></g></svg>