<svg height="30" viewBox="0 0 70 30" width="70" xmlns="http://www.w3.org/2000/svg"><g fill="#191c4f"><path d="m23.1 26.8 1.2.9q0 0 0 .1l-.7 1q-.1 0-.1 0l-1.2-.9-.6.9q0 0-.1 0l-1.2-.9q-.1 0 0-.1l.7-1q0 0 .1 0l1.2.9.6-.9q0 0 .1 0z"/><path d="m16.7 25.8c-.1.1-.1.2-.2.3-.1.2-.2.2-.4.3-.1.2-5 2.1-5.1 2.1-.3.2-.3.1-.2 0q0-.1 0-.3c.1-.2.2-.2.4-.4.2-.1 5-2 5.2-2.1.4-.1.3 0 .3.1z"/><path d="m63.8 22.4v.6c0 .3-.1.7-.3 1-.1.4-.9.6-1.4.2-.9 1.4-1.7.7-2.1.5-.8-.3-1 .3-1.2.5-1 1.1-2.8 1.1-3.3 1.1-.4 0 0-.2.1-.3 1.5-.5 2.4-.6 3.6-1.8.6-.6 1-.3 1.2-.2 1.2.5 1.3 0 1.5-.2.1-.1.4-.8.4-.9.1-.2.3-.1.2.1 0 .1-.1.3-.1.4.5.4 1 .1 1.1 0 0 0 0-.4-.1-.5q0-.2.2-.7c.1-.3.2 0 .2.2z"/><path d="m41.6 20.8c-.4 1.1-2.1 1.8-2.5 1.9-1.5.5-1.6-1-1.5-2.1s.9-2.5.9-2.5c-.1-.1-1.7-1.3-1.8-1.4-.1-.2-.2-.3-.4-.4-.1-.1-.1-.2-.1-.2s0-1.1 0-1.3c0-.1.1 0 .2 0 .1.1 1.8.8 2 .9.2 0 .1.2 0 .2s-.6.2-.6.2l1.4 1s1.9-2.6 2.1-2.8c.2-.3.2-.1.2.1-.1.3-.5 1.4-.5 1.5-.1.2-1.1 1.6-1.1 1.6s1.3.8 1.6 1.3c.5.7.2 1.5.1 2zm-2.5-2.3s-.9 1.5-1 1.8c-.4.9.5 1 .8 1 .4 0 1.5-.6 2.1-1.1.5-.5-1.6-1.5-1.9-1.7z" fill-rule="evenodd"/><path d="m65.6 19.4c-.1.2-.4 1.3-2 1-.4-.1-1.2-.2-1.5-1.1-.4.5-1.3 2-3.2 1.7-.4 0-1.6-.5-1.7-2.1 0 0-1.5 1.2-2.2 1.6.1.5.1 1.2-.2 1.9-.3.8-3.5 4.4-6.1 5-.9.2-4.2.8-4.4-3 0-.7.1-1.3.1-1.8-2 1.7-4.5 2.9-5.3 3.2-1 .6-4.9 1.2-5.5 1.3-.5.1-.6 0-.3-.2.3-.1 8.8-3 13.2-7.7q.1-.2-.1-.5c-.1-.3-1.5-2.9-1.6-3.3-.1-.3-.3-.7-.4-.9q-.1-.2 0-.4c0-.1.1-.8.2-1 0-.2.1-.1.2 0s1.4 1.5 1.6 1.7 0 .3 0 .3c-.1 0-.7-.1-.7-.1s.9 1.6 1.1 2.2c.6 1.3.3 2.3.1 2.7-.4.8-1.2 1.6-2 2.3-.2.7-.4 3.8 2.4 3.9.5 0 1.9.2 4.8-2.2.7-.6 1.5-1.2 2.1-2.1.3-.4.4-1-.1-1-.4.1-3.4 1.2-3.9-.6 0-.5.2-4.8 3.1-2.7.3.2.9.7 1.3 1.6.5-.2 1.4-.8 2.6-1.7.3-.3.6-.4.6 0s-.2 2.9 2.5 2.1c.3 0 1.4-.3 2.2-2.4.3-.5.6-.5.4 0s-.5 1-.2 1.2c.2.3 1 .8 2 .7.3 0 .5-.2.4-.5-.2-.2-.5-.8-.5-.8.1-.3.2-.9.3-1 0-.2.1-.3.2-.2.1.2 1 1.3.5 2.9zm-12.2.1c-1-1.3-2.1-.6-2.3-.4-.1.1-.2.5.7.5 1.2.1 1.6-.1 1.6-.1z" fill-rule="evenodd"/><path d="m11.2 16.8s-.1.5-.3.7c-.5 1.5-.2 2.1-.1 2.3.4.7 1 .3 1.2-.2.1-.3.2-.2.2 0q0 .1-.1.4c-.3.9-.7 1.1-1 1.1-.6 0-.8-.7-.9-1.1-.1-1.5.6-2.9.8-3.3.2-.3.3-.2.2.1z"/><path d="m39.9 11.6 1.2.8q.1.1.1.1l-.8 1q0 .1 0 0l-1.2-.8-.6.8q-.1.1-.1 0l-1.2-.9q-.1 0 0 0l.7-1q0-.1.1 0l1.1.8.6-.8q.1-.1.1 0z"/><path d="m62.5 11.6s-.1.3-.2.5c-.3 1.1-.1 1.6-.1 1.7.3.5.7.2.8-.2.1-.2.2-.1.2 0q-.1.1-.1.4c-.2.6-.5.8-.7.8-.4 0-.6-.6-.6-.8 0-1.2.4-2.2.6-2.5.1-.2.2-.1.1.1z"/><path d="m50.5 11s-.1.3-.2.6c-.4 1.1-.2 1.6-.1 1.7.3.6.7.3.9-.1.1-.2.1-.1.1 0q0 .1-.1.3c-.2.7-.4.9-.7.9-.4 0-.6-.6-.6-.9-.1-1.2.4-2.3.6-2.6.1-.3.2-.2.1.1z"/><path d="m6.6 8.7s-.1.3-.2.5c-.3 1-.1 1.4-.1 1.5.3.6.7.3.8-.1.1-.2.1-.1.1 0q0 .1 0 .3c-.2.6-.5.8-.7.8-.4 0-.5-.5-.5-.8-.1-1.1.3-2 .5-2.3.1-.3.2-.2.1.1z"/><path d="m22.3 16.5c.7.1.5.4.4.6-.5.8-1.2 1.2-1.8 1.4-.5.2-.2-.2.1-.4 0 0 .3-.2.7-.5.5-.4-.7-.3-1.2-.3s-.7.2-.8.3c-.2.2-.4.1-.2-.1.1-.2.2-.5.6-.9.3-.4 1.5-.2 2.2-.1z"/><path d="m21.7 9.9c.1.2.1.6.1.9-.1.2-.3.1-.4-.1 0 0-.1-.1-.3-.2-.6-.4-.6.6-.6 1 0 .3.1 1.4.2 2 0 .3-.2.3-.3.1-.5-1.2-1.3-1.7-1.4-1.8-.2-.2-.2 0-.3.1 0 .1 0 .1-.1.1s-.5-.2-.6-.4c-.2-.1-.2-.6-.2-.8-.1-.3.1-.5.2-.5 1.5.7 2.2 2.1 2.3 2.3-.1-1.1-.2-2.1.2-2.9.3-.7 1.1.1 1.2.2z"/><path d="m6.6 12.8s-.2.7-.3 1.1c-.8 2.2-.4 3.3-.3 3.5.5 1.1 1.2.6 1.5-.3.1-.4.3-.2.2 0 0 .1-.1.4-.1.7-.4 1.4-.9 1.7-1.3 1.7q-.1 0-.1-.1c0-.2-.2-.3-.3-.1-.4-.4-.6-1.1-.6-1.6-.1-2.4.8-4.4 1.1-5 .2-.6.4-.3.2.1z"/><path d="m28.9 6.2c0 .1 1.5 3.7 1.5 3.9.1.2 0 .2-.1.1-.2-.1-.9-.8-.9-.8s1.3 8.1 1.4 8.9.4 2.8.4 3.4c0 2.6-1.1 2.8-1.7 2.9-1.9.3-2.6-.9-3.2-1.6-.4 2.2-2 2.3-2.5 2.3-1.3 0-1.8-.9-2.1-1.6-1.2 2-2.4 2-2.9 1.9-2.8-.1-3.2-3.9-3.2-4s-.1-.5-.1-.2c-.2 1.9-2.5 3.4-3 3.8-3.8 2.8-6 1.1-6.4.6-2-2-.7-5.7-.4-6.3q.1-.2.2-.2.1.1.3.1 0 .2-.1.3c-1.3 4.2.7 5.2 1.4 5.4 2.5 1 5.9-2 6.9-2.9s.8-2.2.7-3-1.4-9.8-1.6-10.8c-.1-1 .1-1.4.2-1.7.2-.3.4-.6.5-.2s.7 4.5.9 5.9 1.1 8.5 1.3 9.3c.6 2.2 1.8 2.3 2.2 2.4 1.9.4 3.1-2 3.3-2.4.3-.4.5-.1.4.2-.2 1 .3 1.5.7 1.7 1.1.5 2.2 0 2.6-.4s0-3.1-.1-3.8-1.3-9-1.4-10.1c-.1-1 .4-1.6.4-1.7q.1-.3.2.1c.2.7.6 3.9.6 3.9s.8 6.6.9 7.2c.4 3.1 1.3 3.8 1.6 3.9 1.4 1 2.7 0 2.8-.1s-.8-5.4-.8-5.7c-.4-3.1-1.3-8.1-1.4-8.6-.1-.6-.2-.7-.2-.8 0 0 .5-1.2.5-1.4.1-.1.1 0 .2.1z"/><path d="m32.4 6.2c0 .1 1.5 3.7 1.6 3.9 0 .2-.1.2-.2.1-.2-.1-.9-.8-.9-.8s1.4 9.7 1.4 9.9c.2 1.9.3 3.3.3 4.2-.1 1.2-.3 1.7-.4 1.8-.1.2-.2.1-.1-.1-.1-.7-.1-2-.3-3.4-.4-2.9-1.7-12.2-1.9-13.7 0-.2-.2-.7-.2-.7s.5-1.1.5-1.3c.1-.1.1 0 .2.1z"/><path d="m49.4 6.1c0 .1 0 .1-.1.3-.1.3-.2.3-.4.4-.2.2-6.5 3.8-6.6 3.9-.4.2-.4.1-.3-.1q0 0 0-.3c.1-.2.2-.2.4-.4.3-.2 6.5-3.8 6.8-3.9.3-.2.3-.1.2.1z"/><path d="m57.1 6.5c.1.2 0 .7-.1 1-.1.2-.3 0-.4-.2 0 0-.2-.1-.3-.2-.6-.6-.9.5-.9 1-.1.3-.2 1.5-.3 2.2 0 .3-.2.2-.3 0-.4-1.4-1.2-2.1-1.4-2.3-.1-.1-.2.1-.2.2-.1.1-.1.1-.2.1-.1-.1-.6-.4-.7-.6-.2-.1-.1-.7-.1-.9 0-.4.3-.5.4-.5 1.7 1 2.2 2.7 2.3 2.9.1-1.2.1-2.3.8-3.2.5-.7 1.3.3 1.4.5z"/><path d="m63.3 9.1c-.1.2-.2.1-.3-.1-.1-.1-.2-.3-.5-.4-.2.5-.2.6-1.3 1.5-2.3 2-4.8 2.7-4.9 2.8-.2 0-.2-.1 0-.3.8-.6 4.1-2.1 5.8-4.2 0 0-.5-.2-.9-.5-.3-.2-.2-1.2.1-1.5.7-1.1 1.2-.5 1.3-.4.6 1 .3 1.9.3 1.9.3.2.6.6.4 1.2zm-1.1-2.5c-.1-.1-.3-.1-.6.4-.1.1 0 .3.2.4s.7.3.7.3c0-.1.1-.7-.3-1.1z" fill-rule="evenodd"/><path d="m11.8 6c.1.2.1.7 0 .9s-.2 0-.4-.1c0 0-.1-.1-.2-.2-.6-.5-.8.5-.8.9 0 .3 0 1.9-.4 2.9-.5 1.2-.3 1.8-.2 1.9.3.7.7.4.9-.1.1-.2.1-.1.1 0q0 .1-.1.4c-.2.7-.5.9-.7.9-.5 0-.6-.7-.6-1-.1-1.4.9-2.7.5-3.4-.5-1-1.1-1.4-1.2-1.5s-.2.1-.2.2c0 0-.1 0-.2 0s-.5-.3-.6-.4c-.2-.1-.2-.6-.2-.8 0-.4.2-.5.3-.4 1.6.7 2.1 2.1 2.2 2.3.1-1 0-2 .6-2.8.4-.6 1.1.2 1.2.3z"/><path d="m39.6 8.8c-.1.1-.1 0-.3-.1 0-.1-.4-.5-.4-.5s-.5 1.1-1.4 1.8c-1.5 1.2-2.9 1.4-2.9 1.4-.2 0-.2-.1 0-.3 1-.5 2.2-.9 3.8-3 0 0-.5-.2-.8-.5-.4-.3-.2-1.2 0-1.6.7-1 1.3-.5 1.3-.3.6.9.3 1.9.3 1.9.3.2.6.6.4 1.2zm-1.1-2.5c-.1-.1-.3-.1-.6.4-.1.1 0 .2.2.3s.7.4.7.4c0-.2.1-.8-.3-1.1z" fill-rule="evenodd"/><path d="m25.1 3.6s.1.5.3.8.3.6.2 1c-.1.5-.3.8-.5.8-.3.1-.7.1-1-.3-.4.7-.9.9-1.3.7-.3-.1-.3-.7-.3-.9s0-.8 0-1c-.1-.1 0-.2.1-.3.1-.2.1-.1.1.1 0 .1-.1 1 .1 1.3.3.4 1 0 1.1-.2.2-.3-.1-1.2-.2-1.2q0-.1 0-.1c0-.1.1-.4.1-.5q.1-.2.2 0c.1.1.1.4.2 1.2s.9.6 1 .5c.2 0 .2-.1.1-.2 0-.1-.3-.8-.4-1.1s-.1-.4 0-.7.2-.1.2.1z"/><path d="m26.6 1.2c-.1.2-.1.2-.2.4s-.2.3-.5.4c-.1.1-7.5 3.3-8.3 3.7s-.7.7-.5.8c.5.2.8.6.4 1.2 0 0 0 .1-.1 0 0-.1-.2-.3-.5-.3-.3-.1-.5-.7-.3-1.3.1-.4.4-.8.7-1 .6-.5 8.8-3.9 9-4 .4-.2.3 0 .3.1z"/></g></svg>