<svg height="30" viewBox="0 0 70 30" width="70" xmlns="http://www.w3.org/2000/svg"><g fill="#191c4f"><path d="m18.8 22.5c.3.1.3.6.2.8-.3.9-1 1.5-1.2 1.7s-.2 0-.1-.1c0 0 .2-.2.3-.4.6-.6.6-1.1.6-1.2 0-.5-.4-.4-.6-.2s-.2.1-.1 0q0-.1.1-.2c.4-.4.6-.5.8-.4z"/><path d="m26.6 22.5c.3.1.3.6.2.8-.3.9-1 1.5-1.2 1.7s-.2 0-.1-.1c0 0 .2-.2.3-.4.7-.6.7-1.1.7-1.2-.1-.5-.5-.4-.7-.2-.1.2-.2.1-.1 0q0-.1.2-.2c.3-.4.6-.5.7-.4z"/><path d="m35.4 21.3c.3.1.3.6.2.8-.3.9-1 1.5-1.2 1.7-.2.1-.2 0-.1-.1 0 0 .2-.3.3-.4.7-.7.7-1.1.7-1.2-.1-.5-.5-.4-.7-.2-.1.2-.2 0-.1 0q0-.1.1-.2c.4-.5.7-.5.8-.4z"/><path d="m64 19.8s.1.3.1.6c0 .2-.2.5-.3.8-.1.4-.8.5-1.2.2-.8 1.2-1.5.6-1.9.4-.7-.2-.9.2-1.1.4-.8 1-2.4 1-2.8 1s0-.2.1-.3c1.3-.4 2-.5 3.2-1.5.4-.5.8-.3.9-.2 1.1.4 1.2 0 1.4-.2.1-.1.3-.6.4-.8s.2 0 .1.1c0 .1-.1.3-.1.4.4.3.9 0 1 0 0 0-.1-.4-.1-.5q0-.1.2-.5c.1-.3.1-.1.1.1z"/><path d="m44.6 18.4c-.3 1-1.8 1.6-2.1 1.7-1.3.4-1.4-.9-1.3-1.9.1-.9.7-2.1.7-2.1 0-.1-1.4-1.2-1.5-1.3s-.3-.3-.4-.3c-.1-.1-.1-.2-.1-.2s0-1 0-1.1.1 0 .2 0 1.6.6 1.8.7c.1.1.1.2 0 .2-.1.1-.6.2-.6.2l1.2.9s1.7-2.3 1.9-2.5.2-.1.1.2c0 .2-.3 1.1-.4 1.3-.1.1-1 1.3-1 1.3s1.2.7 1.4 1.1c.5.7.2 1.4.1 1.8zm-2.1-2s-.8 1.3-.9 1.5c-.3.8.4 1 .7.9.3 0 1.3-.5 1.8-.9s-1.3-1.3-1.6-1.5z" fill-rule="evenodd"/><path d="m9 16.7c2.1 2.5 1.3 5.7 1 6 0 .2-.1.2-.1-.1.4-3.1-1.3-5.1-1.4-5.4 0 0 .1-.5.2-.6s.1-.2.3.1z"/><path d="m27.2 13 1 .8q.1 0 0 .1l-.6.8q0 .1-.1.1l-1-.8q-.1 0 0-.1l.6-.8q0-.1.1-.1z"/><path d="m65.6 17.2c-.1.2-.3 1.1-1.7.9-.4-.1-1.1-.2-1.4-1-.3.4-1.1 1.8-2.7 1.5-.3 0-1.5-.5-1.5-1.9 0 0-1.3 1.1-1.9 1.4 0 .5 0 1.1-.2 1.7-.3.7-3.1 3.8-5.4 4.3-.7.2-3.7.7-3.8-2.5 0-.7.1-1.2.1-1.6-1.8 1.4-4 2.5-4.6 2.8-1 .4-4.3 1-4.9 1.1-.4.1-.4 0-.2-.2.2-.1 7.6-2.6 11.5-6.6q.2-.2 0-.5c-.1-.2-1.3-2.6-1.4-2.9-.2-.3-.3-.6-.4-.8q-.1-.1 0-.3c0-.1.1-.8.1-.9.1-.1.2-.1.2 0 .1.1 1.3 1.3 1.4 1.5.2.2.1.2 0 .2h-.6s.8 1.4 1 1.9c.5 1.1.2 2 .1 2.3-.4.7-1 1.4-1.8 2.1-.1.5-.4 3.2 2.1 3.3.4 0 1.7.2 4.2-1.9.6-.5 1.3-1 1.9-1.8.2-.4.3-.9-.1-.9-.4.1-3 1.1-3.4-.5-.1-.4.1-4.2 2.7-2.3.2.1.8.6 1.1 1.3.5-.2 1.3-.7 2.3-1.4.2-.3.5-.4.5-.1 0 .4-.2 2.6 2.1 1.9.3-.1 1.3-.3 2-2.1.2-.5.5-.4.4 0-.2.4-.5.8-.2 1.1.2.2.9.7 1.7.5.3 0 .4-.1.3-.4-.1-.2-.3-.7-.3-.7 0-.3.1-.8.2-.9 0-.1.1-.2.2-.1 0 .1.8 1.1.4 2.5zm-10.7.1c-.8-1.2-1.8-.5-1.9-.4s-.2.4.6.5c1 .1 1.3-.1 1.3-.1z" fill-rule="evenodd"/><path d="m9.4 11.8s-.1.4-.2.6c-.3 1.2-.1 1.7 0 1.8.4.6.8.2 1-.2 0-.2.1-.1.1 0q0 .1-.1.3c-.2.7-.5.9-.7.9-.5 0-.7-.5-.7-.8-.2-1.2.3-2.3.4-2.7.1-.3.3-.1.2.1z"/><path d="m43.2 10.4 1 .7q.1.1.1.1l-.7.9q0 0 0 0l-1.1-.8-.5.8q0 0-.1 0l-1-.8q-.1 0-.1-.1l.7-.8q0-.1 0 0l1.1.7.5-.7q0-.1.1 0z"/><path d="m62.9 10.4s-.1.3-.1.5c-.4.9-.2 1.3-.2 1.4.3.5.7.2.8-.1 0-.2.1-.1.1 0q0 .1-.1.3c-.1.5-.4.7-.6.7-.3-.1-.5-.5-.5-.7 0-1 .4-1.9.5-2.1.1-.3.2-.2.1 0z"/><path d="m52.4 9.9s-.1.3-.1.5c-.4 1-.2 1.4-.1 1.5.2.5.6.3.7-.1.1-.2.2-.1.2 0q-.1.1-.1.3c-.2.6-.4.7-.6.7-.4 0-.6-.5-.6-.7-.1-1.1.4-2 .5-2.3s.2-.1.1.1z"/><path d="m28.6 9.3s.1.5.3.8c.1.2.2.5.1.8 0 .4-.3.7-.4.8-.3.1-.7.1-1-.3-.3.6-.8.8-1.1.6-.3-.1-.3-.7-.3-.8 0-.2 0-.7 0-.9 0-.1 0-.2.1-.3 0-.2.1-.1.1.1s-.1.9.1 1.2c.3.4.9 0 1-.2s-.2-1-.2-1.1q0-.1 0-.1s0-.3.1-.4q.1-.2.2 0c0 .1 0 .3.2 1 .1.8.7.6.9.6.1-.1.1-.2.1-.3-.1-.1-.3-.7-.4-.9-.1-.3-.1-.5 0-.7s.1 0 .2.1z"/><path d="m31.2 8.9s-.1.3-.2.6c-.3 1.1-.1 1.6 0 1.7.3.5.7.2.8-.2.1-.2.2-.1.2 0q-.1.1-.1.3c-.2.7-.4.9-.6.9-.4 0-.6-.5-.7-.8-.1-1.2.3-2.3.4-2.6s.2-.1.2.1z"/><path d="m20.5 7.3s-.1.3-.1.6c-.4 1.1-.1 1.6-.1 1.7.4.5.8.2.9-.2 0-.2.1-.1.1 0q0 .1 0 .3c-.2.7-.5.9-.7.9-.4 0-.6-.5-.6-.8-.2-1.2.3-2.3.4-2.6s.2-.1.1.1z"/><path d="m10.5 6.9c.1.2 0 .6-.1.9-.1.1-.2 0-.3-.2 0 0-.2-.1-.3-.2-.5-.4-.7.4-.8.8 0 .3-.1 1.3-.1 1.9-.1.2-.2.2-.3 0-.3-1.2-1-1.8-1.2-1.9-.1-.1-.2.1-.2.2h-.1c-.1 0-.5-.3-.6-.4-.2-.2-.1-.6-.1-.8 0-.3.2-.4.3-.4 1.4.8 1.9 2.2 2 2.4 0-1 .1-1.9.6-2.6.5-.6 1.1.2 1.2.3z"/><path d="m21.9 5.7c-.1.2-.1.2-.2.4s-.2.3-.5.4c-.2.1-10.5 4.9-10.7 4.9-.4.2-.3.1-.3 0q0-.1.1-.4c.1-.2.2-.3.5-.4.3-.2 10.5-4.9 10.8-5 .4-.2.4-.1.3.1z"/><path d="m51.5 5.6c0 .1-.1.1-.1.3-.1.2-.2.2-.4.4-.2.1-5.7 3.2-5.8 3.3-.3.2-.3.1-.2 0q0-.1 0-.3c.1-.2.1-.2.4-.4.2-.1 5.6-3.3 5.8-3.4.4-.2.3 0 .3.1z"/><path d="m58.2 5.9c.1.3 0 .7-.1.9s-.2 0-.3-.1c0 0-.2-.1-.3-.3-.6-.4-.8.5-.8.9-.1.3-.1 1.4-.2 2-.1.2-.2.2-.3 0-.4-1.3-1.1-1.9-1.2-2s-.2.1-.3.1c0 .1 0 .1-.1.1-.1-.1-.5-.3-.6-.5-.2-.1-.1-.6-.1-.8 0-.3.2-.4.3-.4 1.5.9 2 2.3 2.1 2.5 0-1 .1-2 .7-2.8.4-.5 1.1.3 1.2.4z"/><path d="m63.6 8.2c-.1.2-.1.1-.2-.1-.1-.1-.3-.2-.5-.3-.2.5-.2.5-1.1 1.3-2 1.7-4.2 2.4-4.4 2.4-.1 0-.1-.1.1-.2.7-.6 3.6-1.8 5.1-3.7 0 0-.5-.1-.8-.4-.3-.2-.2-1 .1-1.4.5-.8 1-.4 1.1-.3.5.9.2 1.7.2 1.7.3.2.6.5.4 1zm-1-2.1c-.1-.1-.2-.1-.5.3-.1.1 0 .2.2.3s.6.3.6.3c0-.1.1-.6-.3-.9z" fill-rule="evenodd"/><path d="m35 17.7c-.1 1.5-.5 1.7-.9 1.9-2 1.2-3.9 1.5-4.4 1.6-2.4.4-3.8.2-4.5 0q-.3.5-.5 1.1c-.2.3-.3.4-.4.3 0 0 .1-.5.1-.5.1-.3.2-.7.4-1q-.1-.1-.2-.2c-.5-.2-.9-.9-1-1.1-.1.3-.6 1.1-.8 1.2-1.5 1.6-3.8.8-4.2-1.1-.4-1.8-.1-3.3.1-4-.8.5-1.7.9-2.4 1.3q.1.3 0 .6c-.1.2-.1.1-.2 0 0 0-.2-.1-.3-.3-.9.5-1.7.9-1.9 1.1 0 0 2 .4 2.3.5s1.1.4.9 1.7c0 .3-.1.9-.7 1.4s-3.4 2.9-6.8 3.2c-.6 0-4 .3-4.5-2.6-.1-.6-.4-2.3.7-4.9q.1-.1.1-.1c-.4-.3-.6-.9-.6-1.2-.2-2 .4-3.7.6-4.2.1-.5.3-.3.2.1 0 0-.2.6-.2.9-.5 1.9-.1 2.7-.1 2.9.5.9 1.1.3 1.3-.4.1-.3.2-.1.1 0q0 .2 0 .6c-.2 1.1-.6 1.4-.9 1.4q-.1 0-.2 0 0 .1 0 .2c-.1.5-1.7 4.8 1.2 5.8.5.1 2.9 1.1 7.7-1.9.4-.3 1.6-1 1.5-1.2-.1-.1-.3-.3-1.6-.6-2.3-.4-3-.8-3-.8 0-.2.1-1.1.3-1.2s1.4-.7 2.8-1.5q-.3-.3-.6-.5c-.6-.5-1.3-1-1.4-1.1-.2-.2-.5-.5-.5-.9-.1-.4.2-1.3.6-1.6.4-.2 2.7-1.3 10.5-.1 0 0-.1 1-.3 1.1-.1.1-2 1-4.1 2.1-1 3.2.4 4.2.6 4.4 1.3 1.1 2.8-.1 3-.4.3-.3.7-1.1.9-1.4.3-.4.4-.1.3.3.3.7.8 1.1 1.5 1.3.4-.6.7-1.1.9-1.3.5-.5 2.1-2.9 3.8-3.1.4-.1 1.9-.2 2.8 1.2.1.2.4.3-.3 2.6 1-.4 1.6-.8 1.6-.9.2-.1.2-.2.2-.6 0-.3-1.6-10.2-1.6-10.7-.1-.4-.2-.7-.2-.7s.4-.9.5-1.1c0-.1.1 0 .1.1s1.2 3.1 1.3 3.3c0 .2-.1.2-.2.1s-.7-.7-.7-.7 1.1 6.4 1.2 7c.1.7.1 2.2.1 2.6zm-13.7-4.3c-.3-.1-3.2-.4-6.3-.2-1.2.1-2.1.6-1.9.7s1.6 1.2 1.6 1.2c.2.2.8.6 1.2 1.2 2.5-1.3 5.4-2.7 5.4-2.9zm10.8 4.1c-.6-.5-1.7-1.3-2.9-.6-.9.6-2.2 1.6-3.3 3.1.9.1 4.2.2 6.3-1.6.2-.2.5-.5-.1-.9z" fill-rule="evenodd"/><path d="m36.6 5.4c0 .1 1.3 3.2 1.4 3.4 0 .1-.1.2-.2.1s-.7-.7-.7-.7 1.1 8.4 1.2 8.6c.2 1.7.2 2.9.2 3.7-.1 1-.2 1.4-.3 1.5-.1.2-.2.1-.1-.1-.1-.6-.2-1.7-.3-3-.4-2.5-1.5-10.5-1.7-11.9 0-.1-.1-.5-.1-.6 0 0 .4-.9.4-1.1.1-.1.1 0 .2.1z"/><g fill-rule="evenodd"><path d="m27.8 7.8c0 .1-.1 0-.2-.1 0-.1-.3-.4-.3-.4s-1.1 1.6-2.2 2.4c-1.2.9-2.3 1.2-2.4 1.3-.1 0-.1-.1.1-.2.8-.5 2.7-2 4.1-3.6 0 0-.4-.2-.7-.4s-.1-1 .1-1.3c.6-.8 1-.3 1.1-.2.4.8.1 1.5.1 1.5.3.2.5.5.3 1zm-.8-2c-.1-.1-.2-.1-.5.3-.1.1 0 .2.2.3.2 0 .5.2.5.2.1-.1.1-.5-.2-.8z"/><path d="m42.9 7.9c-.1.2-.1.1-.2-.1-.1 0-.4-.3-.4-.3s-.5.9-1.2 1.5c-1.4 1-2.5 1.2-2.6 1.2-.1.1-.2-.1 0-.2.9-.5 1.9-.9 3.4-2.7 0 0-.5-.1-.8-.4-.3-.2-.1-1 .1-1.4.5-.9 1.1-.4 1.1-.3.5.9.3 1.7.3 1.7.2.2.5.5.3 1zm-1-2.1c-.1-.1-.2-.1-.5.3-.1.1 0 .2.2.3s.6.3.6.3c0-.1.1-.6-.3-.9z"/></g></g></svg>