<svg height="30" viewBox="0 0 70 30" width="70" xmlns="http://www.w3.org/2000/svg"><g fill="#191c4f"><path d="m12.4 24c-.1.1-.1.1-.1.3-.1.1-.2.2-.3.3-.2.1-3.8 1.8-3.9 1.8-.3.1-.3.1-.2 0q0-.1 0-.3c.1-.1.1-.2.3-.3s3.8-1.8 4-1.9c.3-.1.2 0 .2.1z"/><path d="m33.5 21.6s-.1.3-.2.5c-.5 1-.3 1.4-.2 1.5.2.5.6.3.8-.1.1-.1.1 0 .1 0q0 .1-.1.3c-.2.6-.5.7-.7.7-.4 0-.5-.5-.5-.8 0-1 .5-1.9.6-2.1.2-.3.3-.2.2 0z"/><path d="m64.1 21.1v.5c0 .2-.1.6-.3.9-.1.3-.7.5-1.2.2-.7 1.1-1.4.5-1.8.4-.7-.3-.9.2-1.1.4-.8.9-2.4.9-2.8.9-.4.1 0-.2.1-.2 1.2-.5 2-.5 3.1-1.6.5-.5.8-.2 1-.2 1 .5 1.2 0 1.3-.1s.3-.7.4-.8c.1-.2.2-.1.1.1 0 .1 0 .3-.1.4.5.3.9 0 1-.1 0 0 0-.3 0-.4q-.1-.1.1-.6c.1-.2.1 0 .2.2z"/><path d="m11.3 14.6 1 .7q.1.1 0 .1l-.6.8q0 .1-.1.1l-1-.8-.5.7q0 .1-.1.1l-1-.8q-.1 0 0-.1l.6-.8q0-.1.1 0l1 .7.5-.7q0-.1.1 0z"/><path d="m44.8 19.7c-.3 1-1.7 1.6-2.1 1.7-1.3.4-1.4-.9-1.3-1.9.1-.9.8-2.1.8-2.1-.1-.1-1.4-1.1-1.5-1.3-.1-.1-.3-.2-.4-.3s-.1-.1-.1-.1 0-1 0-1.1.1-.1.2 0c.1 0 1.6.6 1.7.7.2.1.1.2 0 .2 0 0-.5.1-.5.1l1.2.9s1.7-2.2 1.8-2.4c.2-.2.2-.1.2.1-.1.2-.4 1.2-.5 1.3-.1.2-.9 1.4-.9 1.4s1.1.6 1.4 1c.5.7.2 1.4 0 1.8zm-2.1-2s-.7 1.3-.8 1.6c-.4.7.4.9.7.8.2 0 1.3-.5 1.7-.9.5-.4-1.3-1.3-1.6-1.5z" fill-rule="evenodd"/><path d="m65.6 18.5c-.1.2-.3 1.1-1.7.9-.4-.1-1-.2-1.3-1-.4.4-1.2 1.7-2.7 1.5-.4-.1-1.5-.5-1.5-1.8 0 0-1.3 1-1.9 1.3 0 .5 0 1.1-.2 1.7-.3.6-3 3.8-5.3 4.3-.8.1-3.6.7-3.8-2.6 0-.6.1-1.1.1-1.5-1.8 1.4-3.9 2.4-4.6 2.7-.9.5-4.2 1-4.8 1.1-.4.1-.4 0-.2-.1.2-.2 7.6-2.6 11.4-6.6.1-.2.1-.3 0-.5-.2-.2-1.3-2.5-1.5-2.8-.1-.3-.2-.7-.3-.8q-.1-.2 0-.3c0-.2.1-.8.1-.9.1-.2.1-.1.2 0s1.3 1.3 1.4 1.4c.2.2.1.3 0 .3 0 0-.6-.1-.6-.1s.8 1.4 1 1.9c.5 1.1.2 2 .1 2.3-.4.7-1 1.4-1.8 2.1-.1.5-.3 3.2 2.1 3.3.4 0 1.7.1 4.2-1.9.6-.5 1.2-1.1 1.8-1.8.2-.4.3-.9-.1-.9-.4.1-3 1.1-3.4-.5 0-.4.2-4.2 2.7-2.3.2.1.8.6 1.1 1.3.5-.2 1.3-.6 2.2-1.4.3-.3.6-.4.6 0 0 .3-.2 2.5 2.1 1.8.3-.1 1.3-.3 2-2.1.2-.4.4-.4.3 0-.2.5-.4.8-.2 1.1.2.2.9.7 1.7.6.3-.1.5-.2.3-.4-.1-.3-.3-.7-.3-.7 0-.3.1-.8.2-.9 0-.2.1-.3.2-.2s.8 1.1.4 2.5zm-10.6.1c-.8-1.1-1.8-.5-1.9-.4s-.2.4.6.5c1 .1 1.3-.1 1.3-.1z" fill-rule="evenodd"/><path d="m6.2 12.7s-.1.6-.3.9c-.6 1.9-.4 2.9-.3 3.1.4 1 1 .5 1.3-.2.1-.4.2-.2.2 0q-.1.1-.2.5c-.3 1.2-.8 1.5-1.1 1.5-.6-.1-.8-1.1-.8-1.5 0-2.2.8-3.9 1-4.5.3-.5.4-.2.2.2z"/><path d="m43.4 11.7 1.1.8q0 0 0 .1l-.6.8q-.1.1-.1 0l-1-.7-.5.7q-.1.1-.1 0l-1.1-.7q0 0 0-.1l.6-.8q.1-.1.1-.1l1 .8.6-.7q0-.1 0-.1z"/><path d="m14.4 11.8s-.1.3-.1.5c-.3.9-.2 1.4-.1 1.5.2.4.6.2.7-.2.1-.1.1-.1.1 0q0 .1 0 .3c-.2.6-.4.7-.6.7-.4 0-.5-.4-.6-.7 0-1 .4-1.9.5-2.1.1-.3.2-.2.1 0z"/><path d="m62.9 11.8s0 .3-.1.4c-.3 1-.2 1.4-.1 1.5.2.4.6.2.7-.2.1-.1.1 0 .1 0q0 .1-.1.3c-.1.6-.3.7-.5.7-.4 0-.5-.4-.5-.7-.1-1 .3-1.8.4-2.1.1-.2.2-.1.1.1z"/><path d="m52.6 11.3s-.1.3-.2.4c-.3 1-.1 1.5-.1 1.6.3.5.6.2.8-.2 0-.1.1 0 .1 0q0 .1-.1.3c-.2.6-.4.8-.6.8-.4 0-.5-.5-.5-.8-.1-1 .3-1.9.4-2.2.2-.3.2-.2.2.1z"/><path d="m51.7 7c-.1.1-.1.2-.2.3-.1.2-.2.3-.3.4-.2.1-5.7 3.2-5.8 3.3-.3.2-.3.1-.2 0q0-.1.1-.3c0-.2.1-.2.3-.4.2-.1 5.6-3.2 5.8-3.4.3-.1.3 0 .3.1z"/><path d="m58.3 7.4c.1.2 0 .6-.1.9-.1.1-.2 0-.4-.2 0 0-.1-.1-.2-.2-.6-.5-.8.4-.8.8-.1.3-.1 1.4-.2 1.9-.1.3-.2.3-.3.1-.4-1.3-1.1-1.9-1.2-2s-.2.1-.2.2c-.1 0-.1 0-.2 0s-.5-.3-.6-.4c-.2-.2-.1-.7-.1-.8 0-.4.3-.5.4-.4 1.4.8 1.9 2.2 2 2.4 0-1 .1-2 .7-2.7.4-.6 1.1.3 1.2.4z"/><path d="m63.6 9.6c-.1.2-.1.1-.2-.1-.1 0-.2-.2-.4-.3-.3.5-.2.5-1.2 1.3-2 1.7-4.1 2.3-4.3 2.4-.1 0-.1-.1.1-.3.7-.5 3.5-1.8 5-3.6 0 0-.5-.1-.8-.4-.3-.2-.1-1 .1-1.3.6-.9 1.1-.5 1.1-.3.5.8.3 1.6.3 1.6.2.2.5.5.3 1zm-.9-2.1c-.1-.1-.3-.1-.6.3-.1.1 0 .3.2.3.2.1.6.3.6.3 0-.1.1-.6-.2-.9z" fill-rule="evenodd"/><path d="m33.5 6.6c.1.1 1.3 3.1 1.4 3.2 0 .2-.1.3-.2.1-.1-.1-.6-.6-.6-.6l1 7.9c0 1.6-.3 2.1-.6 2.5-.4.8-2.1 1.4-2.9 1.7-2.7.8-4.1 2.1-4.5 2.6-1.1 1.3-1.9 2-2.4 2.3-1.9.9-2.6-.8-2.7-1.6 0-1.2.4-2.4.7-3q.1-.2.2-.4 0 .1 0 .1c-2.7.8-4.1 2.1-4.5 2.6-1.1 1.3-1.8 2-2.4 2.3-1.9.9-2.6-.8-2.6-1.6-.1-1.1.3-2.3.6-2.9-1.2-.5-1.7-1.6-1.9-2-.3-.8-1.2-.1-1.4.1-.6.5-1.2 1.5-1.3 1.8s-1 2.3-1.2 2.7-1 .8-1.7.1c-1.9-2.1-1.1-4.7-1-5.1.2-.4.3-.3.3.1-.2.6-.1 1.7 0 2 .3 1.7 1.4 2.1 1.6 2.1.8.1 1.4-2.1 1.6-2.5.5-1.6 1.6-2.5 1.9-2.7.4-.2 1.2-.7 1.7.3.7 1.7 1.7 1.9 2 2 2 .4 2.9-1 2.9-1.2.1-.2 0-1.2-.1-1.8s-1.2-7.6-1.2-7.6c-.1-.7-.2-1.3-.3-1.8 0-.4-.1-.7-.1-.7s.4-.9.4-1c.1-.2.1-.1.2 0 0 .1 1.3 3.2 1.3 3.4.1.1 0 .2-.1.1s-.7-.7-.7-.7 1.1 8 1.2 8.4c.1 1.4-.2 2.6-.3 2.8-.7 1.1-1.9 1.3-2.4 1.4q-.6 0-1-.1c-.4.8-.9 2.3-.6 3.1.2.4.6.8 1.3.6 1-.2 1.7-1.3 2-1.7.9-1 2.1-2 2.8-2.5 1.4-.8 4.1-1.6 5.6-2.4.4-.2.3-.5.2-1 0-.5-1.2-9.2-1.2-9.7-.1-.4-.2-.7-.2-.7s.4-.9.4-1c.1-.2.1-.1.2 0 0 .1 1.2 3.1 1.3 3.2 0 .2-.1.3-.2.1-.1-.1-.6-.6-.6-.6l1 7.9c0 1.6-.3 2.1-.5 2.5-.4.7-1.7 1.2-2.6 1.5q0 .1 0 .1c-.2.4-1.2 2.7-.8 3.7.2.4.5.8 1.3.6 1-.2 1.6-1.3 2-1.7.9-1 2-2 2.8-2.5 1.4-.8 4.1-1.6 5.6-2.4.4-.2.2-.5.2-1s-1.2-9.2-1.3-9.7c0-.4-.1-.7-.1-.7s.4-.9.4-1c.1-.2.1-.1.1 0z"/><path d="m36.9 6.6c0 .1 1.3 3.2 1.4 3.4 0 .1-.1.2-.2.1s-.7-.7-.7-.7 1.1 8.3 1.2 8.5q.3 2.5.2 3.6c-.1 1-.3 1.4-.3 1.5-.1.2-.2.1-.1 0-.1-.6-.2-1.7-.3-3-.4-2.5-1.5-10.4-1.6-11.8-.1-.1-.2-.5-.2-.6 0 0 .4-.9.5-1 0-.2.1-.1.1 0z"/><path d="m21.4 16.6 1.1.8q0 0 0 .1l-.6.8q-.1.1-.1 0l-1-.7q-.1-.1-.1-.1l.7-.8q0-.1 0-.1z"/><path d="m23.7 13.5s0 .2-.1.4c-.3 1-.2 1.4-.1 1.5.2.5.6.2.7-.1.1-.2.2-.1.1-.1q0 .1 0 .3c-.2.6-.4.7-.6.7-.4 0-.5-.4-.5-.7-.1-1 .3-1.9.4-2.1.1-.3.2-.2.1.1z"/><path d="m24.4 11.3c0 .1 0 .2-.1.3 0 .2-.1.2-.3.3s-4.9 2.2-5 2.3c-.3.1-.3 0-.2-.1q0 0 0-.2c0-.1.1-.2.3-.3s4.9-2.2 5.1-2.3c.3-.2.3-.1.2 0z"/><path d="m22.4 7c.1.2 0 .6 0 .8-.1.2-.2 0-.3-.1 0 0-.1-.1-.2-.2-.5-.4-.7.4-.7.8 0 .2 0 1.1-.1 1.6 0 .2-.1.1-.2 0-.3-1-1-1.5-1.1-1.6s-.1.1-.2.1c0 .1 0 .1-.1.1-.1-.1-.4-.3-.5-.4s-.1-.5-.1-.6c0-.3.2-.4.3-.4 1.2.6 1.6 1.8 1.7 2 0-.9 0-1.7.5-2.3.3-.5.9.2 1 .2z"/><path d="m30.2 16.3 1.1.7q0 .1 0 .1l-.6.8q-.1.1-.1.1l-1.1-.8q0 0 0-.1l.6-.8q.1-.1.1 0z"/><path d="m31 11.6s.2.5.4.8c.1.3.2.6.1 1 0 .4-.3.7-.5.8s-.7.1-1-.3c-.4.7-.9.9-1.2.7-.4-.2-.4-.8-.4-1 0-.1 0-.7 0-.9 0-.1 0-.2.1-.4.1-.1.2 0 .2.1 0 .2-.1 1 0 1.4.4.4 1 0 1.2-.3.1-.2-.2-1.1-.2-1.1q-.1-.1-.1-.2c.1 0 .1-.3.1-.4q.1-.2.2 0c.1.1.1.4.2 1.2.2.7.9.6 1.1.5.1-.1.1-.2.1-.3-.1 0-.4-.7-.5-1s0-.4.1-.7c0-.2.1-.1.1.1z"/><path d="m32.4 7.8c0 .1 0 .1-.1.3-.1.1-.2.2-.3.3-.2.1-4.9 2.4-5 2.4-.3.1-.3.1-.2 0q0-.1 0-.3c.1-.1.1-.2.3-.3s4.9-2.4 5.1-2.4c.3-.2.2-.1.2 0z"/><path d="m10.4 7c.1.2.1.6 0 .9-.1.1-.2 0-.3-.2 0 0-.1-.1-.2-.2-.6-.4-.7.5-.7.9v1.9q-.1.1-.1.1c0 .5-.1 1.1-.8 1.7-.9.7-.9.7-1 .8-.1 0-.2-.1 0-.2.1-.1 1.8-1.8 1.5-2.6-.2-.9-1-1.5-1.1-1.6s-.2.1-.2.1c0 .1-.1.1-.1.1-.1 0-.5-.3-.6-.4s-.1-.6-.1-.8c0-.3.2-.4.3-.4 1.3.7 1.8 2.1 1.9 2.3 0-1 0-2 .4-2.7.4-.6 1.1.2 1.1.3z"/><path d="m43.1 9.3c0 .2-.1.1-.2-.1 0 0-.4-.3-.4-.3s-.4.9-1.2 1.5c-1.3 1-2.4 1.2-2.5 1.2s-.2-.1 0-.2c.9-.5 1.9-.9 3.3-2.6 0 0-.4-.2-.7-.5-.3-.2-.2-1 0-1.3.6-.9 1.1-.5 1.2-.3.5.8.2 1.6.2 1.6.3.2.5.5.3 1zm-.9-2.1c-.1-.1-.2-.1-.5.3-.1.1 0 .3.2.3.2.1.6.3.6.3 0-.1 0-.6-.3-.9z" fill-rule="evenodd"/><path d="m19.3 4.3s-.1.4-.1.5q-.1 0-.1 0c-.1.1-1.8.8-4.8 2.1-1.1.4-2.4 1.1-2.2 1.4.3.4 1 .3.5 1.2-.1-.1-.2-.3-.5-.5-.2-.1-.4-.5.1-1.3.4-.7 1.7-1.2 1.8-1.2 1.4-.6 5.1-2.2 5.1-2.2.1-.1.2-.1.2 0z"/><path d="m25.5 4.1c.6.1.5.4.3.5-.4.7-1 1-1.4 1.2-.5.2-.2-.2 0-.3 0 0 .3-.2.6-.5.4-.3-.6-.2-1-.2s-.5.1-.7.3c-.1.1-.3 0-.2-.2.1-.1.2-.3.5-.7.3-.3 1.3-.2 1.9-.1z"/></g></svg>