<svg height="30" viewBox="0 0 70 30" width="70" xmlns="http://www.w3.org/2000/svg"><g fill="#191c4f"><path d="m13.8 22c0 .1 0 .2-.1.4-.1.1-.2.2-.4.3s-3.3 1.2-3.4 1.3c-.3.2-.3 0-.3-.1q.1 0 .1-.3c.1-.1.1-.2.4-.3.2-.1 3.3-1.3 3.5-1.4.3-.1.3 0 .2.1z"/><path d="m34 21.6 1.1.8q0 0 0 .1l-.6.8q0 .1-.1 0l-1-.7q-.1-.1-.1-.1l.7-.9q0 0 0 0z"/><path d="m20.5 20.7s-.1.3-.1.5c-.3 1.2-.1 1.7 0 1.8.3.5.6.2.8-.2 0-.3.1-.1.1 0q-.1.1-.1.3c-.1.7-.4.9-.6.9-.4 0-.6-.5-.6-.8-.1-1.2.3-2.3.4-2.6s.2-.2.1.1z"/><path d="m64 19.8s.1.3.1.6c0 .2-.2.5-.3.9-.1.3-.8.4-1.2.1-.8 1.2-1.5.6-1.9.5-.7-.3-.9.2-1.1.3-.8 1-2.4 1-2.8 1-.4.1-.1-.2.1-.2 1.3-.5 2-.6 3.1-1.6.5-.5.9-.3 1-.2 1.1.5 1.2 0 1.4-.1.1-.2.3-.7.4-.9 0-.1.1 0 .1.1s-.1.3-.1.4c.4.3.9.1 1 0 0 0-.1-.3-.1-.5q0-.1.2-.5c.1-.3.1 0 .1.1z"/><path d="m6.1 13.5s-.1.3-.1.6c-.4 1.1-.1 1.5-.1 1.7.4.5.8.2.9-.2.1-.3.1-.2.1-.1q0 .1 0 .4c-.2.7-.5.8-.7.8-.4 0-.6-.5-.7-.7-.1-1.2.4-2.3.5-2.6.1-.2.2-.1.1.1z"/><path d="m9.6 13.1 1 .7.6-.7q0 0 .1 0l1 .8q.1 0 0 0l-.6.9q0 0-.1 0l-1-.7-.5.7q-.1 0-.1 0l-1.1-.8q0 0 0-.1l.6-.8q.1 0 .1 0z"/><path d="m44.6 18.4c-.3 1-1.8 1.6-2.2 1.7-1.3.4-1.4-.9-1.3-1.9.1-.9.8-2.1.8-2.1-.1-.1-1.5-1.2-1.6-1.3s-.2-.2-.3-.3c-.2-.1-.1-.2-.1-.2s0-.9 0-1.1c0-.1 0 0 .2 0 .1.1 1.6.7 1.7.7.2.1.1.2 0 .3 0 0-.5.1-.5.1l1.2.9s1.7-2.2 1.9-2.5c.1-.2.1-.1.1.2-.1.2-.4 1.1-.5 1.3 0 .1-.9 1.4-.9 1.4s1.1.6 1.4 1c.5.7.2 1.4.1 1.8zm-2.2-2s-.7 1.3-.8 1.6c-.4.7.4.9.7.9.3-.1 1.3-.6 1.8-1s-1.4-1.3-1.7-1.5z" fill-rule="evenodd"/><path d="m65.6 17.2c-.1.2-.3 1.2-1.7.9-.4-.1-1.1-.2-1.4-1-.3.4-1.1 1.8-2.7 1.5-.4 0-1.5-.4-1.5-1.8 0 0-1.3 1-1.9 1.3 0 .5 0 1.1-.2 1.7-.3.7-3.1 3.9-5.4 4.4-.8.1-3.7.7-3.8-2.6q0-1 .1-1.6c-1.8 1.4-4 2.5-4.6 2.8-1 .5-4.3 1-4.9 1.1-.4.1-.5 0-.3-.1.3-.2 7.7-2.7 11.6-6.7.1-.2.1-.3-.1-.5-.1-.2-1.3-2.5-1.4-2.9-.1-.3-.3-.6-.3-.7q-.1-.2-.1-.4c.1-.1.2-.8.2-.9s.1-.1.2 0 1.3 1.3 1.4 1.5c.2.2.1.2 0 .2s-.6 0-.6 0 .7 1.4 1 1.9c.5 1.1.2 2 .1 2.4-.4.7-1.1 1.4-1.8 2-.2.6-.4 3.3 2.1 3.3.4 0 1.7.2 4.2-1.9.6-.5 1.3-1 1.8-1.8.3-.3.4-.9 0-.8-.4 0-3 1-3.4-.6-.1-.4.1-4.2 2.7-2.3.2.1.7.6 1.1 1.3.4-.2 1.2-.6 2.2-1.4.3-.3.6-.4.6-.1 0 .4-.2 2.6 2.1 1.9.3 0 1.3-.3 2-2.1.2-.4.5-.4.4 0-.2.4-.5.8-.3 1.1.3.2 1 .7 1.8.6.3-.1.4-.2.3-.4-.1-.3-.4-.8-.4-.8.1-.3.2-.7.3-.9 0-.1 0-.2.1-.1s.9 1.1.5 2.5zm-10.7.1c-.8-1.2-1.8-.5-2-.4-.1.1-.1.5.7.5.9.1 1.3-.1 1.3-.1z" fill-rule="evenodd"/><path d="m19.9 11s-.1.3-.1.5c-.3 1.1-.2 1.6-.1 1.7.2.5.6.2.7-.2 0-.2.1-.1.1 0q0 .1-.1.3c-.1.7-.4.9-.5.9-.4-.1-.5-.6-.5-.9-.1-1.1.3-2.1.4-2.4s.2-.2.1.1z"/><path d="m43.1 10.4 1.1.7q0 .1 0 .1l-.6.9q0 0-.1 0l-1-.8-.5.8q-.1 0-.1 0l-1.1-.8q0 0 0-.1l.6-.8q.1-.1.1 0l1 .7.6-.7q0-.1 0 0z"/><path d="m62.9 10.4s-.1.3-.2.5c-.3.9-.1 1.3-.1 1.4.3.5.6.2.8-.1 0-.2.1-.1.1 0q0 .1-.1.3c-.1.5-.4.7-.6.7-.3 0-.5-.5-.5-.7 0-1 .4-1.9.5-2.1.1-.3.2-.2.1 0z"/><path d="m31.5 13.1c-.1.1-.1 0-.2-.2-.1 0-.4-.4-.4-.4s-.5 1.1-1.8 1.8c-1.4.9-2.6 1.2-2.7 1.2s-.1-.1.1-.2c.9-.4 2.4-1.3 4-2.9 0 0-.4-.3-.7-.5-.3-.3 0-1.1.2-1.4.7-.8 1.1-.3 1.2-.2.4.9 0 1.7 0 1.7.3.2.5.5.3 1.1zm-.7-2.3c-.1-.1-.3-.1-.6.3-.1.1 0 .2.2.3.1.1.5.4.5.4.1-.2.2-.7-.1-1z" fill-rule="evenodd"/><path d="m52.4 9.9s-.1.3-.2.5c-.3 1-.1 1.4-.1 1.5.3.5.7.3.8-.1.1-.2.1-.1.1 0q0 .1 0 .3c-.2.6-.5.7-.7.7-.3 0-.5-.5-.5-.7-.1-1.1.4-2 .5-2.3s.2-.1.1.1z"/><path d="m27.4 11.7c-.1.1-.2 0-.2-.1-.1-.1-.4-.5-.4-.5s-.6 1.2-2 2c-1.4.9-2.8 1.1-2.9 1.1s-.2-.1.1-.2c.9-.3 2.8-1.4 4.5-3.1 0 0-.4-.2-.7-.5-.2-.3.1-1.1.4-1.4.7-.7 1.1-.2 1.1 0 .4.9-.1 1.6-.1 1.6.3.3.5.6.2 1.1zm-.5-2.3c-.1-.1-.3-.1-.6.2-.1.1-.1.3.1.4s.5.4.5.4c.1-.1.2-.6 0-1z" fill-rule="evenodd"/><path d="m9.2 6.8c.2.2.1.6 0 .9-.1.2-.2 0-.4-.2 0 0-.1-.1-.2-.2-.6-.5-.8.4-.8.9-.1.3-.1 1.3-.2 1.9q0 .1 0 .1c-.1.5-.3 1.1-1.1 1.7-1 .6-1.1.7-1.2.7s-.2 0 0-.2c.1-.1 2.1-1.7 1.9-2.5-.2-1-1-1.6-1.1-1.7-.1-.2-.2 0-.2.1-.1.1-.1.1-.2 0-.1 0-.5-.3-.6-.4s-.1-.6-.1-.8c0-.4.3-.5.4-.4 1.4.8 1.9 2.3 2 2.5 0-1.1.1-2.1.7-2.8.4-.6 1.1.3 1.1.4z"/><path d="m18.7 6.5c.1.2.1.5 0 .7s-.2 0-.3-.1c0 0-.1-.1-.2-.2-.4-.3-.6.4-.6.7-.1.3-.1 1-.2 1.5 0 .2-.1.2-.2 0-.3-.9-.8-1.4-.9-1.5s-.2 0-.2.1q0 .1-.1 0c-.1 0-.4-.2-.5-.3s-.1-.5-.1-.6c0-.3.2-.4.3-.3 1.1.6 1.5 1.7 1.6 1.9 0-.8.1-1.6.5-2.2.4-.4.9.3.9.3z"/><path d="m27.3 6.2c-.1.2-.1.2-.2.4s-.3.3-.5.4-12.2 5.5-12.3 5.6c-.4.2-.4 0-.3-.1q0-.1.1-.4c0-.2.1-.2.4-.4.3-.1 12.2-5.5 12.5-5.6.4-.2.3-.1.3.1z"/><path d="m12.4 6.2s-.2.5-.3.9c-.6 1.6-.3 2.4-.3 2.6.4.9 1 .5 1.2-.2.1-.3.2-.1.2 0q-.1.2-.1.5c-.4 1.1-.7 1.3-1 1.3-.6-.1-.8-.9-.8-1.3 0-1.9.7-3.4.9-3.9.2-.4.3-.2.2.1z"/><path d="m29.7 5.7s-.1.3-.2.5c-.3 1.1-.1 1.6-.1 1.7.3.5.6.2.7-.2.1-.2.2-.1.1 0q0 .1 0 .4c-.2.6-.4.8-.6.8-.3 0-.5-.6-.5-.8 0-1.2.4-2.2.5-2.5s.2-.1.1.1z"/><path d="m51.5 5.6c-.1.1-.1.1-.2.3 0 .2-.1.2-.3.4-.2.1-5.7 3.3-5.8 3.3-.3.2-.3.1-.3 0q0-.1.1-.3c0-.2.1-.2.3-.4.2-.1 5.7-3.3 5.9-3.4.4-.2.3 0 .3.1z"/><path d="m40.1 18s-.4.9-.6 1.1q-.9-.1-1.8-.1 0 .3 0 .5c0 1-.2 1.4-.3 1.5-.1.2-.1.1-.1-.1s-.1-.9-.2-1.8c-1.8.2-3 1-3.2 1.2-2.6 1.2-4.8.8-5.1.7-.3 1.7-.7 1.6-.8 1.5-1.7-.4-1.4-2.7-1.4-2.7-.4.5-1.1.9-1.5 1.1-1.9.8-3.1-.3-3.6-.7-.1-.1-.4-.5-.8-.9-1.5.9-2.6 1.5-3.2 1.7-4.8 1.8-5.9-2.4-6.1-2.7-.1-.3-.5-.1-.9.2-1.1.6-1.7 3.1-1.8 3.5-.4 1.5-1.3 1.4-1.5 1.4-2.3-.8-2.1-4.6-2-5.1 0-.4.2-.3.2 0 .2 2.7 1 3.3 1.4 3.6 1.1.9 1.7-1 1.9-1.5.1-.5.7-2.2 1.7-3.1.9-.8 1.4-.2 1.5 0s.8 1.4 1 1.7c1.2 1.6 3.5 1.1 3.9 1 1-.3 2.1-.8 3.1-1.4-.5-.4-1-.7-1.6-1-.7-.4-1.5.2-1.6.2-.1.1-.2.1-.1 0 0-.2.2-.6.3-.9s.3-.5.4-.5c3.6-1.5 6.6 0 6.8.1 0 0-.1.8-.2 1.1-.4.2-1.3.7-2.2 1.2q.1.1.1.2c2 1.8 4 .3 4.2.1.4-.2 1-1.2 1.1-1.3.1-.2.2-.1.3.1.1.5.5 1 .8 1.3 2.4 1.8 6.3-.4 6.6-.5 0 0-4.3-1.2-5.6-.8-.2.1-.2-.1-.2-.2.1-.1.3-.8.6-.9.3-.3 2.9-.3 3.5-.5.1 0 .1-.1.1-.4s-.8-6.9-.8-6.9c-.1-.7-.2-1.4-.3-1.8 0-.5-.1-.7-.1-.8 0 0 .4-.8.4-1 .1-.1.1 0 .2.1 0 .1 1.1 3 1.2 3.1 0 .2-.1.3-.2.2s-.6-.7-.6-.7.7 5.7.8 6.4c.2 1.5-.1 2.1-.3 2.5.4.3 2 .5 3.5.7-.4-3.8-1.2-9.7-1.3-10.7 0-.1-.1-.5-.1-.6 0 0 .3-.8.3-1 .1-.1.1 0 .2.1 0 .1 1.3 3.1 1.4 3.3 0 .2-.1.2-.2.1s-.7-.7-.7-.7.8 7.5.9 7.7q.1 1.1.2 1.9c1.2.1 2.2.2 2.4.2zm-17.8-.8c-.9-.2-1.8-.2-2.5-.2.4.3.8.7 1.1 1.1.7-.4 1.2-.8 1.4-.9z" fill-rule="evenodd"/><path d="m58.2 5.9c.1.3 0 .7-.1.9s-.2 0-.4-.1c0 0-.1-.1-.2-.3-.6-.4-.8.5-.9.9 0 .3 0 1.4-.1 2-.1.2-.2.2-.3 0-.4-1.3-1.1-1.9-1.2-2-.2-.1-.3.1-.3.1 0 .1-.1.1-.1.1-.1-.1-.5-.3-.7-.5-.1-.1 0-.6 0-.8 0-.3.2-.4.3-.4 1.5.9 2 2.3 2 2.5.1-1 .2-2 .7-2.8.5-.6 1.2.3 1.3.4z"/><g fill-rule="evenodd"><path d="m63.6 8.2c-.1.2-.1.1-.3-.1 0-.1-.2-.2-.4-.3-.2.5-.2.5-1.1 1.3-2 1.7-4.2 2.4-4.4 2.4-.1 0-.1-.1.1-.2.7-.6 3.6-1.8 5.1-3.7 0 0-.5-.2-.8-.4s-.2-1 0-1.4c.6-.9 1.1-.4 1.2-.3.5.9.2 1.7.2 1.7.3.2.6.5.4 1zm-1-2.1c-.1-.1-.2-.1-.5.3-.1.1 0 .2.2.3s.6.3.6.3c0-.1.1-.6-.3-.9z"/><path d="m42.9 7.9c-.1.2-.2.1-.3-.1 0 0-.4-.3-.4-.3s-.4.9-1.2 1.5c-1.3 1-2.5 1.2-2.6 1.2s-.1-.1.1-.2c.9-.5 1.9-.9 3.3-2.7 0 0-.4-.2-.7-.4-.4-.2-.2-1 0-1.4.6-.9 1.1-.4 1.2-.3.5.9.2 1.7.2 1.7.3.2.5.5.4 1zm-1-2.1c-.1-.1-.2-.1-.5.3-.1.1 0 .2.2.3s.6.3.6.3c0-.1 0-.6-.3-.9z"/></g></g></svg>