<svg height="316" viewBox="0 0 252 316" width="252" xmlns="http://www.w3.org/2000/svg"><path d="m227.6 234.1c2 18.2.9 30.6-.9 35.1-1.1 2.4-2.5 1.5-2.5-2 .3-15.3-2.9-36.9-3.8-44.3-.9-7.2-1.8-14.7-2.6-24.6-.6-5.8.5-10.1 2.3-13.3 1.7-3.1 2.1.3 2.3 4.2.5 7.4 4.3 35.7 5.2 44.9zm-114.1-72.7c.2-.3.5-1.3 1.1-2.8.5-1.5 1.2-2 3.5-2.9 2.5-1.1 30-12.4 32.3-13.5 3.4-1.5 2.8-.1 2.2 1.1-.5 1.2-.6 1.4-1.5 3.1-1 1.7-2.2 1.8-4 2.9-1.9.9-30 12.4-31.1 12.8-3.4 1.4-2.8.3-2.5-.7zm-28.4 41.8c0-.3.3-1.3.7-2.8.5-1.7 1.3-2.1 3.6-3.2 2.3-.9 22-9.5 24.1-10.6 3.4-1.6 3-.3 2.3 1-.4 1.2-.6 1.5-1.5 3-.8 1.7-1.8 2-3.8 3.1-1.8.9-22.1 9.6-23.1 10.1-3.4 1.7-2.8.4-2.3-.6zm-16.4 77.1c-25.4 16.6-39.5 3.1-42.1-.3-9.2-11.6.6-30.3 2.3-33.4 1.7-3 2.6-1.5 1.8.5-.7 1.8-1.5 4.3-2.6 8.1-3.8 13 6.3 18.2 9.4 20.1 12.2 6.7 30-4.2 35-7.8 4.9-3.9 4.2-11.5 3.7-15-.6-3.6-7.8-53.6-10.1-63.6-.5-1.5-1.7-3-3.1-5.5-1.3-2.3-.6-5-.1-5.8.4-.9 2.4-3.2 3.8-6.6.6-1.5 1.7.2 2.1 1.9.5 1.5 3.9 6.2 5.4 7.9.9 1.1 1.8 3.1 1.5 4-.6 1.7-2.6 4.9-3 5.5-.3.6-.6 1.5-.2 3.4 0 0 6.5 40.2 7.7 53.9 2 22.8-8.4 30.6-11.5 32.7zm56.9-91.5c-.7.3-.3-2.2.4-3.2 0-.2 1.3-1.4 2.2-2.2 0 0-1.5-.9-3.5-2.9q-1.4-1.6-.9-3.2c1.1-3.4 4.8-7.2 7-9 1.7-1.4 3.6-2.5 4.9-3.1 3.4-1.2 5.6.9 6.8 2.8s-1.9 5-2.8 5.9c-.6.6-1 .8-1.5-.1-.6-.9-1.2-1.9-2-2.3-1.2-.9-3.5 0-4.9.6-.5.3-2 1.2-1.7 2.4.3.8 1.4 2.6 4.8 3.7 3.5 1.2 11.1-.9 13-1.2 2-.3-.2 2.7-.9 3.8l-1.4 1.9s-4.8.4-8.1 1.3c-2.8.8-6.3 2-10 4.2-.6.1-1 .4-1.4.6zm71.8 3.8-.3 1.5s5.1 30-3.2 53.3c-1.4 3.5-2.7 6.7-4.1 9.5 3.5 7.8 4.7 13.2 5 14.4 1.6 7.2-2.3 8.7-3.6 9.2-1.6.4-26.5 4.1-27.6 4.3-1.1.1-1.8-.2-1.7-1.6 0-1.2.6-5.9.8-7.2.3-1.2.9-1.6 2-1.6.3-.2 2.9-.5 6.1-1.3 6.3-3.8 10.9-9.5 14.2-15.9-10.8-19.6-29.2-36.3-32.7-38l-.8 1.6c-.4.7-1.8 1.4-3.5 1-1.5-.4-12.3-5.8-13-6.2-.9-.5-1.2-.8-1.5-2.9-.4-2.2-2.5-12.4-2.3-16.6 0-4 3-2 5-.6 28.3 19.6 43.3 41.2 51.1 56.4 9.7-25.3 4.2-59.1 3.6-60.7-.7-1.5-1.7-3-3.1-5.5-1.4-2.3-.6-5-.2-5.8.5-.9 2.5-3.2 3.9-6.6.6-1.5 1.7.2 2.1 1.9.5 1.5 3.8 6.2 5.4 7.9.9 1.1 1.8 3.1 1.5 4-.6 1.7-2.6 4.9-3.1 5.5zm-10.2 68.7c-2.9 4.8-5.8 8.2-8.3 10.5 6-1.3 11.7-2.3 11.7-2.3-1-2.8-2.2-5.4-3.4-8.2zm-60.6-14.7c8.8 22.6-4 38.2-5.4 40.2-3.8 5.2-8 10.1-13.3 12.4-17.2 7-38.6 2.4-40.9 1.8-4.4-.9-2.4-3.8 1.2-3.2 39.2 5.2 54.5-23.6 56.8-31.1l.3-1.8c-6.9 1.3-13.9 1.5-16.5.7-10.1-3.2-8.1-18.3.2-28.1 8.2-10.1 16.3 5.9 17.6 9.1zm-4 8.2c-2-3.7-4.9-6.5-6.8-8.2-3.8-3-7 1.4-7.6 3.4-2 6.4 8.9 5.4 11.2 5.2zm-94.2-66.3c-2.4 1.3-4.7-.3 1.2-4.4 9.1-6.4 16-10.9 18.9-15.8 0 0-5.5-3.5-8-6.1-2.6-2.5.6-9.5 3.1-12.2 6.4-7.1 9.5-2.5 10.1-1.1 3.2 5.9 1.2 13.3.4 15.4 0 0 2.5 1.9 3.1 2.6 1.1 1.1.6 3.3-.8 7.1-.4 1.2-1.8-2.3-5.2-4-2.7 5.7-5.6 10.4-22.8 18.5zm23-26c.3-1.1.9-6.4-1.7-9.6-1.5-1.9-3.4-1.9-5.7 1.8-.7 1.1-.7 2.3.8 3.2 1.7.9 6.6 4.6 6.6 4.6zm168.7-66.1c-.6 1.5-3.7 7.9-3.7 7.9s-.8 0-4.3-.9c-16.8-3.8-41.8 7.4-45.3 8.9-6.9 2.6-13.6 4.4-19.9 5.8 0 0-29.2 5.2-46.8-4.3-3.9 10-9.1 18.2-12.1 21.5-17.2 17.7-43.5.7-46.3-1.1-2.7-1.9-.1-3.2 1.7-2.6 14.4 6.4 28.8 2.7 32 1.5 9.8-4 16.2-14.2 19.8-21.9-11.4-7.8-4.2-18.5-3.4-20 .9-1.7 1.4-1.1 1.7.6 2.1 13.1 28.1 16.7 31.8 16.7 24.8 2.9 54.2-9.7 56.8-10.6-22.2-8.9-37.9-3.8-39.2-3.7-1.2.2-1.3-.7-.9-1.7l5.2-7.9c3.4-3.4 29.1-4.2 29.1-4.2.5-5.3-5.7-37.5-5.7-37.5-.6-3.3-1-7-1.2-8.7-.3-3.2-1.7-7.9-3.2-10.6-1.1-1.8 0-2.4.9-3.8 1.9-2.3 2.3-4.9 3.7-7 1.1-1.9 1.8.1 2.6 2.4.9 2.6 4 7.4 5.8 10 1.8 2.4-1.4 4.9-2.7 6.1-1.6 1.4-.5 4-.2 6.6 0 0 3.5 25.6 4.4 34.4 1.1 8.9-1.6 12.4-3 13.5 12.8 7 34.6 7.5 39.2 7.8 4.7.2 4 1.1 3.2 2.8zm-128-34.2q2 2 4.4 3.7v.8l-6.8 6.9-1.4.1q-2.2-1.5-4.2-3.5-1.8-1.8-3.2-3.8l.2-1.3 6.9-6.9h.7c1.1 1.4 2.2 2.8 3.4 4zm97.1 68.5.1.7-6.9 6.9-1.4.2q-2.2-1.6-4.2-3.6-1.7-1.8-3.3-3.8l.4-1.2 6.8-6.9h.8c.9 1.4 2 2.8 3.4 4q2 2.1 4.3 3.7zm41.1-16.1c-1 2.6-2.4 1.7-2.4-2 .3-15.3-2.9-36.9-3.8-44.1-.8-7.2-1.9-14.7-2.6-24.8-.6-5.8.4-9.9 2.3-13.3 1.6-3.1 2.1.4 2.3 4.4.4 7.2 4.2 35.5 5.2 44.7 2 18.2.9 30.8-1 35.1zm-191-9.4c-3.2-1.9-6.3-3.6-8-5.2-2.1-1.6-2.1-5-.7-7.3 3.8-6.1 13.6-15.9 19.4-15.6 3.5.3 7.3 4.7 7 6.6-.1 1.6-3.6 7.9-5.5 7.8-1.3 0-1.3-4.8-6.7-5.7-1.8-.3-6.9 2.9-7 4.6-.2 2.1 5.3 7.5 12.4 8.1 5.6.6 9.3-.3 14-1.2 1-.2 1.4.1.8 1.4-.6.7-3.8 6.5-4.4 6.7-4.2.2-8.6 1.5-14.3 3.5-6.1 2.2-11.9 5.1-15.7 7.5-.8.5-1.3-.3-1-.9.5-1.5 1.6-4.1 2.2-5.8 1.7-1.4 6-3.8 7.5-4.5zm48.7-63.8c-4 1.7-5.7 1.7-10.4 3.4-1.1.3-2.3.1-2.5-.6-.1-1 .9-1.9 1.7-2.5 2-1.1 14.2-7.2 14.2-7.8 0-.3-5.2-2.3-8.1-2.6-3-.1-6.1.5-8.9 2.1-1.2.8-2.3 1.9-3 3.1-.6.9-1.3.2-.9-1.2.3-.8.7-1.7 1-2.5 2.9-5.9 8.1-8.4 13.7-8.1 3.6.3 6.8 2.2 10.4 2.9 1 .3 4.6.6 4.7 1.6-.1 1.3-1.4 5-2.9 6.4-.5.4-.9.4-1.4.6-.9.2-2.4 3.1-7.6 5.2zm27.2 167.6 2-3.8c.2-.4.6-.9.9 0 1.4 4.8 1.4 8.7.3 11.8-1 3.1-2 4.9-5.8 5.8-2.9.8-6.3 0-7.9-2.7-2.2 5.3-6.3 7.3-10 6.9-4.3-.7-6.9-5.4-2.6-13.8 1.2-2.6 2.1-1.2 1.7 0-2 5.5.1 7.5 2.9 7.3 4.6-.3 7-2.9 7.8-8.9.2-.9-.5-.7 1.7-2.4 1.5-1.2 1.4-.5 1.2 1.2-.1 2.6.3 4.5 1.5 5.5 2 1.6 4.6 1.1 7.1-1.2 0-1.1-.5-2.9-1.1-4.4-.1-.5 0-.8.3-1.3zm-93.4-138.5c-2.7 1.4-5.2-.3 1.3-4.8 9.8-7 17.3-11.7 20.3-17.1 0 0-6-3.8-8.7-6.6-2.6-2.6.8-10.2 3.5-13.1 6.7-7.7 10.1-2.6 10.9-1.3 3.4 6.5 1.4 14.6.3 16.9 0 0 2.7 2 3.5 2.7 1.1 1.1.6 3.4-.9 7.5-.5 1.4-2-2.4-5.7-4.1-2.9 6-6.1 11.2-24.5 19.9zm24.7-28.2c.3-1 .9-6.9-1.9-10.4-1.6-1.8-3.5-2-6.1 2-.7 1.2-.7 2.5.9 3.5 1.9 1.1 7.1 4.9 7.1 4.9zm74.4 28.3c-2.8 1.4-5.1-.3 1.2-4.7 9.8-7 17.3-11.8 20.4-17.1 0 0-5.8-3.9-8.6-6.5-2.8-2.7.8-10.4 3.4-13.3 6.9-7.6 10.1-2.6 11-1.2 3.2 6.4 1.2 14.5.3 16.8 0 0 2.6 2 3.4 2.8 1 1.1.6 3.3-.8 7.5-.5 1.4-2-2.5-5.8-4.2-2.8 6-6 11.2-24.5 19.9zm24.8-28.1c.3-1.1.9-6.9-1.9-10.4-1.6-1.9-3.5-2-6.1 2-.7 1.2-.9 2.4.9 3.5 1.7 1.1 7.1 4.9 7.1 4.9z" fill="#231f20" fill-rule="evenodd"/></svg>