<svg height="302" viewBox="0 0 337 302" width="337" xmlns="http://www.w3.org/2000/svg"><path d="m275.2 98.3c-.7 1.6-3.8 8.3-3.8 8.3s-.9 0-4.6-.8c-17.6-4.2-43.7 7.6-47.4 9.2-7.3 2.8-14.2 4.7-20.8 6.2 0 0-30.7 5.4-49.1-4.6-4.1 10.4-9.5 19.1-12.8 22.5-17.9 18.5-45.6.9-48.4-1-2.8-2.1 0-3.6 1.7-3 15.2 6.9 30.3 3 33.5 1.8 10.3-4.3 17.1-15.1 20.9-23.1-11.9-8-4.4-19.4-3.6-21 .9-1.7 1.4-1 1.7.8 2.3 13.8 29.6 17.3 33.4 17.4 26 3 56.9-10.2 59.5-11.1-23.2-9.4-39.8-4-41.1-3.8-1.3.1-1.3-.8-.9-1.8l5.4-8.4c3.6-3.3 30.4-4.4 30.4-4.4.6-5.4-5.8-39-5.8-39-.6-3.7-1.1-7.5-1.2-9.3-.3-3.4-1.9-8.4-3.4-11-1.2-2.1-.1-2.6.9-4 1.9-2.5 2.3-5.2 3.8-7.4 1.2-2 1.9.1 2.7 2.4 1 2.8 4.4 7.8 6.3 10.5 1.9 2.6-1.5 5.1-3.1 6.6-1.6 1.3-.5 3.9-.2 6.7 0 0 3.9 26.8 4.7 36.2 1.1 9.2-1.7 12.9-3 14 13.3 7.4 36.1 7.8 40.9 8.1 5 .3 4.1 1.3 3.4 3zm-134.1-35.7q2.1 2 4.6 3.8v.9l-7.2 7.2h-1.3q-2.4-1.6-4.4-3.5-1.9-2-3.4-4.2l.1-1.3 7.2-7.2h.9c1 1.5 2.2 3 3.5 4.3zm101.6 71.6.2.9-7.2 7.2-1.5.2q-2.3-1.7-4.4-3.7-1.7-1.9-3.4-4l.3-1.3 7.2-7.3.8.1c1.1 1.3 2.2 2.8 3.5 4.1 1.5 1.5 2.9 2.7 4.5 3.8zm43.2-16.8c-1.2 2.7-2.5 1.7-2.5-2 .3-16.1-3.1-38.7-3.9-46.4-1.1-7.4-2-15.4-2.8-25.8-.6-6.2.4-10.6 2.3-13.9 1.8-3.3 2.4.2 2.5 4.5.5 7.6 4.4 37.3 5.4 46.8 2.1 19.3 1.1 32.2-1 36.8zm-200.1-9.7c-3.5-2.2-6.6-3.9-8.4-5.5-2.2-1.7-2.3-5.4-.9-7.8 4.1-6.3 14.4-16.5 20.6-16.3 3.7.3 7.5 4.9 7.3 6.9-.3 1.8-3.9 8.3-5.8 8.3-1.5-.2-1.4-5.2-7.1-6.1-1.9-.2-7.2 3.1-7.3 4.9-.2 2.2 5.5 7.8 12.9 8.5 6 .6 9.8-.3 14.8-1.3.9-.2 1.5.1.8 1.3-.6.9-4 7.1-4.7 7.2-4.3.2-8.9 1.6-14.7 3.7-6.5 2.2-12.7 5.3-16.8 7.8-.7.4-1.1-.3-.8-.9.5-1.6 1.4-4.4 2.3-6 1.6-1.5 6.2-4.2 7.8-4.7zm50.9-66.8c-4.1 1.7-5.8 1.6-11 3.3-1 .5-2.2.3-2.3-.6-.2-.8.9-1.9 1.7-2.5 2.1-1.3 14.9-7.6 14.9-8.2 0-.3-5.5-2.3-8.4-2.6-3.4-.3-6.5.3-9.5 2.2-1.2.7-2.2 1.9-3.1 3.1-.6 1-1.4.1-1.1-1.2.5-.9.9-1.9 1.2-2.7 3.1-6.1 8.5-8.8 14.4-8.5 3.7.3 7.2 2.2 10.9 3.1 1 .3 4.7.6 4.8 1.6-.1 1.4-1.5 5.3-2.9 6.8-.6.4-1 .4-1.5.6-.9.3-2.5 3.2-8.1 5.6zm-69.3 30.3c-2.9 1.4-5.4-.2 1.4-5.1 10.2-7.2 18-12.2 21.2-17.8 0 0-6.1-4.1-9.1-6.9-2.7-2.8.9-10.7 3.7-13.8 7.2-8 10.6-2.8 11.5-1.3 3.5 6.8 1.3 15.1.3 17.6 0 0 2.7 2.1 3.6 3 1.1 1.1.6 3.5-.9 7.8-.5 1.4-2.2-2.5-6-4.5-3.1 6.5-6.3 11.8-25.7 21zm26-29.5c.3-1.1.9-7.2-2-11-1.8-1.9-3.7-2-6.3 2.2-.9 1.2-.9 2.5.8 3.7 1.9 1 7.5 5.1 7.5 5.1zm77.8 29.7c-2.7 1.3-5.2-.3 1.4-5 10.2-7.3 18-12.3 21.4-17.9 0 0-6.3-4-9.1-6.9-2.9-2.8.7-10.7 3.5-13.8 7.2-8.1 10.6-2.8 11.5-1.3 3.5 6.7 1.4 15.2.4 17.6 0 0 2.8 2 3.5 2.9 1.2 1.2.6 3.5-.8 7.8-.5 1.6-2.1-2.5-6.1-4.4-2.9 6.5-6.3 11.9-25.7 21zm26-29.5c.3-1.2.9-7.2-1.9-10.9-1.7-2-3.8-2-6.4 2.1-.9 1.3-.9 2.5 1 3.6 1.8 1.2 7.3 5.2 7.3 5.2zm-148.4 167.5c-3 1.5-5.6-.3 1.3-5.3 10.7-7.6 18.9-12.7 22.3-18.6 0 0-6.4-4.1-9.4-7.2-3.1-3 .8-11.2 3.7-14.4 7.5-8.4 11-2.9 12-1.3 3.6 7 1.4 15.8.3 18.3 0 0 3 2.2 3.8 3.1 1.2 1.2.6 3.7-.8 8.2-.6 1.5-2.4-2.8-6.3-4.7-3.3 6.8-6.7 12.4-26.9 21.9zm27-30.8c.4-1.2 1-7.5-1.9-11.3-1.9-2.1-4-2.2-6.8 2.2-.8 1.3-.8 2.6 1.1 3.8s7.6 5.3 7.6 5.3zm243.7 29.2c3.1 21 2.8 35.4 1.1 40.5-1.1 3.1-2.5 2.1-2.7-2-.6-17.8-5.1-42.6-6.6-51-1.3-8.2-2.8-16.9-4.1-28.3-1-6.8-.1-11.8 1.5-15.6 1.6-3.7 2.3.3 2.8 4.9.7 8.3 6.4 40.9 8 51.5zm-25.1 23.5c1.6 15.7-7 20.4-10.5 21.1-8 1.9-13.3-.6-15.6-2.6-.7-.6-4.3-4-6.2-6.6q-1.6.9-3.5 1.7c-27 15.2-45.5 16.5-49.9 16.3-25.1-.5-28.9-20.4-30-27.7-1-7.3-3.6-35.4-4.4-42.7-1-14.9-5.3-32.9-6.7-36.7 0 0 1.7-6.5 2.5-8.9.8-2.2 2-2 3 0 4.9 10.5 7.8 51.9 8.4 60.7.6 20.4 6.8 32.3 8.7 34.5 11.4 15.7 41.7 6.5 50.6 3.1 3.9-1.5 8.7-4 13.1-6.8-7.3-3.9-14.1-3.2-16.6-1.4-2.9 1.9-2.2-3.1-.9-5.3 11.8-21.6 35.7-10.3 38.5-6.3 1.5 2 2.6 8-5.6 14.8l1.1.6c12.4 6 19-.3 20.1-1.8 1-1.5-11.9-64.4-13-69.3-.7-3.7-1.4-7.6-1.7-9.4-.5-3.4-2.8-7.9-4.6-10.7-1.3-1.9-.3-2.7.6-4 1.9-2.6 2.4-4.1 3.7-6.3 1-2 1.9 0 2.9 2.4 1.2 2.8 4.9 7.3 7.1 9.8 2 2.6-1.5 5.7-3 7.3-1.6 1.7-1 2.1-.5 4.9 0 0 .8 4.2 1.6 7.6 0 0 9.2 40.3 10.8 61.7zm-95.4-42.9c.1-.3.4-1.2 1-2.9.6-1.6 1.5-2.1 4-3.1 2.5-.9 53-21.7 55.3-22.8 3.7-1.6 3.1-.1 2.5 1.1-.6 1.1-.8 1.4-1.7 3.2-1.1 1.6-2.2 1.9-4.3 2.9-1.9.9-53.1 21.9-54.2 22.4-3.6 1.4-3 .4-2.6-.8zm-31.6 75.6c-.4 1.2-.7 1.5-1.6 3.3-.9 1.7-2 2-4 3.2-1.9 1-41.2 17.2-42.4 17.6-3.5 1.8-2.9.6-2.5-.6.2-.4.3-1.3.9-2.9.4-1.8 1.2-2.2 3.7-3.2 2.3-1.2 41.2-17.2 43.6-18.4 3.5-1.8 2.9-.3 2.3 1zm-69.3-28.5c-2.8 1.2-5.4 2.4-6.3 2.7 0 0-2.9.9-6 1.9v.4c-4 15.3-10.1 29.4-14.4 33.8-18.8 19.4-50.1 2.5-53.2.6-2.9-2.1 0-3.7 2-3.1 15.8 7.2 30.8 3 34.3 1.6 14.8-6 23.1-25.2 25.4-31.4-1.2.3-2 .7-2.6.9-2.8.9-4.3-5.3-5-7.5-.8-2.3 0-3.1 5.3-4.4 7.9-2.1 21.7-7.3 27.4-10.1 5.7-3 3.3 4.5 3.1 6.9l-.1 1.6c24.3 6 30.9-8.7 32.4-13.2 1.5-4.9 3.1-3 2.6-.8q-.8 5.3-2.4 9.4c3.8 1.8 15.2 4.6 15.2 3.3-.1-1.4-1.2-11.8-.3-14.4.8-2.7 1.9-6.3 2.7-7.8.9-1.5 1.1-2.2 2.2 1.3 1 3.5 2.8 16.5-2.7 27.5-3.3 4.8-4.7 6.6-9.4 5.7-4.1-.9-10.4-3.2-12.9-6.2-8.9 11.2-23.6 10.9-37.3 1.3zm39.8-58.8h.9c1.2 1.3 2.5 2.8 4 3.9 1.6 1.4 3.2 2.5 4.9 3.6l.2.8-6.8 8.1-1.4.3q-2.5-1.5-4.9-3.4l-2.5-2.3-6.3 7.6-1.5.3q-2.6-1.5-4.8-3.4c-1.5-1.1-2.8-2.5-4-3.8l.2-1.5 6.7-8h.9c1.3 1.3 2.5 2.8 4 3.9l3.4 2.4.1-.5zm-8.8-17.9c1.3 1.4 2.5 2.7 4 3.8q2.2 2.1 4.8 3.4l.2.9-6.7 7.8-1.3.3q-2.5-1.3-4.7-3.2-2-1.8-3.6-3.7v-1.3l6.6-8z" fill="#231f20" fill-rule="evenodd"/></svg>