<svg height="431" viewBox="0 0 252 431" width="252" xmlns="http://www.w3.org/2000/svg"><path d="m231.1 109.9c-.9 1.6-4.2 8.7-4.2 8.7s-.8 0-4.8-.9c-18.6-4.4-45.9 8.1-49.9 9.7-7.6 3-14.9 5-21.9 6.5 0 0-32.2 5.8-51.6-4.8-4.3 11.1-10.1 20.2-13.4 23.6-18.9 19.7-48 .9-50.9-1-3-2-.2-3.7 1.8-3 15.9 7.1 31.7 3.1 35.3 1.8 10.8-4.5 17.8-15.9 21.7-24.2-12.4-8.6-4.4-20.4-3.6-22.1 1-1.8 1.5-1.1 1.8.7 2.3 14.6 31 18.2 35.2 18.4 27.3 3.1 59.7-10.8 62.5-11.8-24.4-9.8-42-4.1-43.3-4-1.3.2-1.3-.8-.8-1.8l5.6-8.8c3.7-3.6 32-4.6 32-4.6.7-5.8-6.3-41.3-6.3-41.3-.5-3.8-1-7.8-1.1-9.6-.4-3.7-2-8.8-3.5-11.6-1.3-2.2-.2-2.9.8-4.2 2-2.6 2.7-5.5 4.2-7.8 1.1-2 2 0 2.8 2.7 1 2.9 4.5 8.1 6.4 10.9 2 2.8-1.4 5.3-3.1 6.8s-.5 4.3-.2 7.3c0 0 4 28 5 37.8 1.2 9.8-2 13.8-3.3 14.9 14.1 7.8 38 8.3 43.1 8.5 5.3.3 4.3 1.3 3.7 3.2zm-141.2-37.7q2.2 2.3 4.8 4v1l-7.6 7.6h-1.5q-2.3-1.6-4.5-3.8-2-2-3.6-4.1l.1-1.5 7.7-7.7.8.2c1.2 1.5 2.5 3 3.8 4.3zm107 75.5v.8l-7.5 7.6-1.5.2q-2.4-1.7-4.6-3.8-2-2-3.5-4.3l.2-1.4 7.6-7.6.7.2c1.1 1.5 2.5 3 3.8 4.3 1.5 1.5 3.1 2.8 4.8 4zm45.4-17.8c-1.3 3-2.8 1.9-2.6-2.1.3-16.8-3.3-40.7-4.3-48.6-1-8-2-16.3-2.8-27.4-.7-6.3.5-10.9 2.4-14.6 1.9-3.5 2.5.3 2.5 4.8.5 8 4.8 39.2 5.8 49.4 2.2 20.1 1 33.7-1 38.5zm-210.6-10.3c-3.6-2.1-7-3.9-9-5.6-2.1-1.8-2.3-5.6-.8-8.1 4.3-6.7 15.3-17.6 21.6-17.3 4 .4 7.9 5.2 7.8 7.3-.4 1.9-4.2 8.7-6.2 8.7-1.5 0-1.5-5.4-7.4-6.4-2-.3-7.7 3.4-7.8 5.2-.2 2.3 5.9 8.3 13.7 8.9 6.3.5 10.3-.3 15.6-1.3 1-.3 1.5.2.7 1.3-.5 1-4.1 7.5-4.8 7.5-4.7.3-9.5 1.7-15.6 3.8-6.8 2.5-13.3 5.8-17.6 8.3-.6.5-1.1-.1-1-.8.7-1.8 1.7-4.7 2.5-6.5 1.8-1.5 6.5-4.3 8.3-5zm53.6-70.3c-4.3 1.8-6.2 1.8-11.5 3.7-1.1.5-2.5.3-2.6-.5-.2-1.2 1-2.2 1.8-2.8 2.2-1.4 15.8-8 15.8-8.7 0-.3-5.8-2.5-9-2.8-3.5-.3-6.8.5-10 2.3-1.3.9-2.3 2.2-3.1 3.3-.8 1.2-1.5.2-1.2-1.1.4-1 .9-2 1.2-2.8 3.1-6.7 9-9.3 15.1-9 4 .3 7.6 2.3 11.4 3.2 1.2.3 5 .6 5.3 1.8-.1 1.3-1.6 5.5-3.3 7.1-.5.5-1 .4-1.3.5-1.2.3-2.8 3.5-8.6 5.8zm-73 32c-3 1.5-5.6-.1 1.3-5.3 10.8-7.6 19.1-12.9 22.6-18.7 0 0-6.7-4.3-9.6-7.3-3-3 .8-11.3 3.8-14.4 7.6-8.7 11.1-3 12.1-1.5 3.6 7.1 1.5 16.1.3 18.5 0 0 3 2.2 3.8 3 1.2 1.4.7 3.8-.8 8.3-.7 1.7-2.3-2.6-6.5-4.5-3.1 6.7-6.6 12.3-27 21.9zm27.4-31c.3-1.1 1-7.6-2-11.4-2-2.2-4-2.2-6.8 2.1-.9 1.4-1 2.7 1 4 1.8 1.2 7.8 5.3 7.8 5.3zm81.9 31.2c-3 1.5-5.6-.2 1.3-5.3 10.8-7.6 19.1-12.8 22.6-18.8 0 0-6.7-4.1-9.6-7.1-3-3.1.8-11.4 3.8-14.6 7.6-8.6 11.1-3 12.1-1.5 3.6 7.2 1.5 16.1.3 18.6 0 0 3 2.2 3.8 3.2 1.2 1.1.7 3.6-.8 8.1-.7 1.6-2.3-2.7-6.5-4.5-3.1 6.6-6.6 12.3-27 21.9zm27.4-31c.3-1.2 1-7.6-2-11.5-2-2-4-2.1-6.8 2.2-1 1.3-1 2.8 1 4 1.8 1.1 7.8 5.3 7.8 5.3zm73.6 195.7c-.5 1.3-2 5.2-2.8 6.5-13.9-1.9-27.5 5.6-35 10.1-15.2 9.4-27.8 10-33.9 9.2-10.5-1.5-14.8-10.9-17.1-21.7-2.1-10.7-5.2-49.5-8.8-63.4-.7-2.8 1.5-9.1 2.2-10.8.8-1.7 1.7.4 2.3 3.4.7 3.1 8.1 62.3 8.4 65.5 5.8 35.6 52.3 7.1 53.2 6.2-29.6-6.9-33.1-1.5-33.9-.7-.9.9-1.5.5-1.1-1 .2-1.5 2.1-6.3 3.6-8 5.2-4.7 21.1-2.1 21.9-4.7.4-4.3-5.8-36.2-6.6-39.4-.7-3-1.1-6.1-1.3-7.8-.4-2.8-2.2-6.6-3.7-8.8-1.2-1.7-.2-2.3.5-3.4 1.5-2.1 2.1-3.2 3.2-5.1 1-1.7 1.5 0 2.3 1.9.9 2.4 3.9 6.2 5.8 8.2 1.7 2.3-1.5 4.9-2.8 6-.2.4-.4 1.2-.2 2.5 1.3 6.5 4.8 24.9 6.2 30.7 1.6 7.1.5 17.8 0 19.9 17.8 4.1 34.2 2.6 36.3 2.4s1.7.9 1.3 2.3zm-130.4 22.4c-2.4-.3-2.4-6.7-2.2-8.6 0-1.9 1.5-.9 2.8-.5 3.5.9 18.5-2.9 24.5-4.2 1.5-.3 1.3-2 1-3.2-6.6-14.6-15.4-17.8-17.8-18.7l.3-7.9 1.3-1.1c9.8 2.3 15.6 13.3 16.9 16.1 4.3 9 2.1 19.9 1.7 21.4-.6 1.5-1.7 2.1-3 2.4-1.1.4-17.8 5.5-25.5 4.3zm144.1-37.6c2.6 18.9 2.4 31.8.9 36.5-.9 2.6-2 1.7-2.2-2-.6-16-4.5-38.3-5.6-45.8-1.2-7.5-2.5-15.3-3.6-25.6-.9-6-.2-10.5 1.3-14.1 1.3-3.2 1.9.4 2.3 4.5.7 7.5 5.6 36.9 6.9 46.5zm-99.7-59.4c.2-.4.4-1.1 1-2.5.3-1.5 1.1-1.8 3.1-2.8 2.1-.7 23.8-10.8 25.9-11.8 3-1.5 2.4-.2 1.9 1-.4.9-.6 1.1-1.3 2.6-1 1.5-1.9 1.7-3.6 2.6-1.7.8-23.8 11.1-24.7 11.4-3.2 1.4-2.7.4-2.3-.5zm-6.4 100.6c-.3.9-.5 1.3-1.3 2.6-.9 1.5-1.8 1.9-3.5 2.6-1.7 1-31.1 13.2-32.1 13.5-3.1 1.3-2.6.4-2.2-.5.2-.4.4-1.2.7-2.5.6-1.5 1.2-1.8 3.2-2.8 2.3-.7 31.3-12.9 33.4-13.8 3-1.5 2.4-.2 1.8.9zm86.6 82s-24.8 11.6-30.5 14.2c-19.7 9.4-26.8 3.1-30 .6-1 3.3-2.1 6.1-3.2 7.8-2.5 3.6-8.2 5.3-16.2-2.1-6.5 8-16.2 5.3-26.3-2.1-3.2 1.4-9.1 4-10.6 4.4 0 0-2.3 1-5.1 1.7v.4c-3.5 12.9-8.6 25.1-12.4 28.9-16 16.7-43 2.3-45.4.6-2.7-1.7-.2-3.1 1.5-2.5 13.7 5.9 26.6 2.3 29.4 1.1 12.8-5.1 20-21.6 21.9-27-.9.4-1.9.6-2.3.8-2.4.8-3.6-4.4-4.1-6.5-.8-1.9 0-2.6 4.3-3.6 6.9-1.7 18.9-6.3 23.6-8.7 4.6-2.5 3.1 3 2.9 5.5 20.7 6.8 25.3-5.1 26.6-9.1 1.3-4.2 2.5-2.5 2.1-.6q-.8 5.1-2.1 8.9c3 1.4 10.3 5.4 12.9.2 1.3-2.6 1.7-6.4 2.7-9.5.7-2.8 2.6-2.7 2.5.4l-.2 1.7c4.1 6.5 16.7 3.6 19.7 2.3-4.5-3.3-8.3-8.4-7.8-14.7.8-6.2 2.3-16.5 14.3-22 8.8-3.6 18.3 2.8 20.4 4.9 2 2.1.9 4.2-3.3 1.5-4.4-2.6-14.1 1-18.8 2.9-4.8 2.1-7 6.8-7 9.9 0 3 4.1 8.9 13.6 10.4 9.6 1.4 25.2-7.6 28-9.5 2.9-2.1 0 5.7-1.1 8.8zm-44.3-42.8c0-.4.1-1.1.5-2.7.4-1.5 1-1.9 2.9-3 2.1-1 30.8-12.7 32.7-13.9 3-1.7 2.5-.4 2.1.8-.2 1.1-.4 1.3-1.2 2.8-.5 1.5-1.5 1.9-3.2 3.1-1.5.9-30.8 12.7-31.6 13.3-3 1.5-2.6.5-2.2-.4zm-141.9-109.1c.2-.4.3-1.1.9-2.4.4-1.5 1.1-1.9 3.2-2.6 2.1-1 28.8-11.9 30.9-12.8 3-1.3 2.6-.2 2.1.9-.6 1-.8 1.4-1.5 2.9-.8 1.3-1.9 1.6-3.4 2.4-1.7.9-29 11.8-30 12.2-3.2 1.3-2.6.3-2.2-.6zm73.6 111.6c.2-.2.4-1 .9-2.5.4-1.3 1-1.9 3.3-2.7 2.1-.9 42.9-18 44.8-19 3.3-1.3 2.7-.2 2.1 1-.3.9-.5 1.3-1.3 2.6-.9 1.6-1.9 1.9-3.6 2.7-1.7.9-43 18.1-43.9 18.4-3.3 1.6-2.7.6-2.3-.5zm-47 42.9c0-.1.2-.9.4-2.4.4-1.5.9-2.1 2.8-3.3 2.1-1.1 33.7-14 35.6-15.4 2.9-1.9 2.5-.5 2.3.6-.4 1.1-.6 1.5-1.2 3.1-.5 1.5-1.5 1.9-3 3s-33.8 14.3-34.6 14.8c-3.1 1.7-2.7.8-2.3-.4zm26.6-138c-.4 3.6-1.1 6.7-1.5 7.5l-1.5.2c-4.7-7.5-12.6-5.1-15.8-3-3.1 2.2-9.5 6-14.2 15-1.3 2.6-2.2 5 2.3 7.3 4.6 2 9.9 2.6 17.2 1.3 2.6-.6 11.6-2.4 8.8 10.7-.4 2-11.4 23.2-40.5 24.1-8.2.2-24.3-4.5-25.6-19.6-1.4-13 3.3-20.8 4.1-22.9 1.5-4.9 4.3-5.1 3.9-3.4-.4 1.9-.5 1.9-.5 1.9v.2c-.8 1.9-7.7 20.2.3 27.4 6 5.4 19.9 14.4 45.7-2.5 3.8-2.2 7.3-5.2 8.1-6 .7-.7 2.2-3.2-5.2-1.7-1.7.4-13.9 3.2-20.1-2.6-1.3-1.1-4.9-4.7-1.9-14.2 1.3-3.8 9.4-26.1 26.4-26.8 3.4-.2 10.4 3.7 10 7.1zm59.7 113.1h.8q1.7 1.7 3.4 3.5 2.1 1.7 4.4 3l.2.8-5.9 6.8-1.1.2q-2.3-1.1-4.2-2.9l-2.1-1.9-5.5 6.5-1.4.2q-2.2-1.1-4.1-2.9-1.8-1.5-3.3-3.2v-1.3l5.9-6.9h.8q1.4 1.7 3.4 3.5l2.7 2.1.3-.6zm-7.6-15.4c1 1.1 2.1 2.4 3.3 3.4q2.1 1.7 4.2 2.9l.1.7-5.7 6.7-1.1.2q-2.1-1.2-4-2.7-1.7-1.5-3.2-3.2l.2-1.2 5.5-6.8z" fill="#231f20" fill-rule="evenodd"/></svg>