<svg height="448" viewBox="0 0 252 448" width="252" xmlns="http://www.w3.org/2000/svg"><path d="m224.8 97.3c-.8 1.6-3.9 8.5-3.9 8.5s-.8 0-4.5-1c-17.6-4.1-43.8 7.8-47.5 9.2-7.3 2.9-14.3 4.8-21 6.2 0 0-30.6 5.6-49.1-4.4-4.1 10.5-9.5 19.2-12.7 22.4-17.9 18.6-45.6.9-48.4-1-2.9-1.9-.2-3.5 1.7-2.8 15.1 6.8 30.2 2.8 33.5 1.5 10.4-4.1 17-14.9 20.8-22.8-11.9-8.3-4.2-19.6-3.5-21.2 1-1.7 1.5-1.1 1.6.7 2.4 14 29.8 17.4 33.6 17.6 26 2.9 56.9-10.3 59.6-11.3-23.4-9.2-39.9-3.9-41.2-3.8-1.3.3-1.4-.8-1-1.7l5.4-8.5c3.5-3.3 30.6-4.2 30.6-4.2.6-5.5-5.9-39.3-5.9-39.3-.7-3.7-1.1-7.5-1.3-9.2-.3-3.4-1.7-8.3-3.3-11.1-1.1-1.9-.2-2.6.9-3.9 1.9-2.5 2.4-5.4 3.8-7.4 1.2-1.9 1.9 0 2.7 2.4 1 2.8 4.3 7.9 6.2 10.4 1.9 2.8-1.4 5.1-3 6.6-1.6 1.4-.5 4.1-.1 7 0 0 3.8 26.7 4.7 36 1.1 9.2-1.9 13.1-3.2 14.2 13.4 7.3 36.3 7.8 41.2 8.1s4 1.2 3.3 2.8zm-134.2-35.7q2 2.2 4.4 3.8l.2.9-7.3 7.2-1.5.2q-2.2-1.6-4.3-3.7-1.9-1.9-3.3-4.1l.2-1.3 7.1-7.3.8.1c1.1 1.5 2.2 2.9 3.7 4.2zm101.7 71.8.1.8-7.3 7.3h-1.4q-2.2-1.4-4.3-3.5-1.9-1.9-3.3-4.1l.1-1.3 7.2-7.3.8.2c1.1 1.4 2.2 2.8 3.6 4.1 1.4 1.4 2.9 2.7 4.5 3.8zm43.2-16.8c-1.1 2.7-2.6 1.7-2.6-2.1.5-16.1-3-38.8-3.9-46.4-1-7.5-1.9-15.4-2.7-25.9-.7-6 .4-10.5 2.4-14 1.7-3.2 2.2.3 2.3 4.6.5 7.6 4.5 37.4 5.6 47.1 1.9 19 1 32.1-1.1 36.7zm-200.4-9.9c-3.5-2.1-6.5-3.8-8.4-5.4-2.2-1.7-2.4-5.4-.8-7.8 4-6.3 14.3-16.7 20.5-16.2 3.6.2 7.6 4.8 7.3 6.8-.2 1.8-4 8.3-5.7 8.3-1.6-.1-1.5-5.1-7.2-6-1.9-.3-7.1 3-7.3 4.7-.3 2.3 5.6 8 12.9 8.6 6 .5 9.8-.3 14.9-1.3.8-.1 1.5.2.7 1.3-.5 1-4 7.2-4.6 7.2-4.3.3-8.9 1.6-14.8 3.6-6.5 2.4-12.7 5.4-16.7 8-.8.4-1.3-.3-1-1 .5-1.6 1.6-4.4 2.4-6 1.6-1.5 6.1-4.2 7.8-4.8zm51-66.9c-4.1 1.8-5.9 1.6-10.9 3.5-1.2.3-2.3.2-2.4-.6-.3-1 .8-1.9 1.7-2.6 1.9-1.2 14.8-7.6 15-8.2 0-.4-5.6-2.4-8.6-2.7-3.2-.4-6.4.4-9.4 2.2-1.3.8-2.4 2.1-3.2 3.2-.6 1.1-1.3.1-.9-1.1.3-1 .8-2 1.1-2.7 3-6.2 8.4-8.9 14.3-8.5 3.8.2 7.3 2.1 10.9 3.1 1.2.1 4.8.6 5 1.5-.2 1.5-1.5 5.3-3 6.9-.5.4-1 .3-1.5.4-.9.4-2.5 3.2-8.1 5.6zm-69.4 30.5c-2.9 1.3-5.4-.3 1.2-5.1 10.4-7.3 18.2-12.2 21.5-17.9 0 0-6.2-4-9.1-6.9-2.8-2.8.7-10.8 3.5-13.8 7.2-8.1 10.7-2.7 11.5-1.2 3.5 6.6 1.4 15 .5 17.4 0 0 2.7 2.3 3.5 3 1.1 1.2.6 3.7-.8 7.8-.5 1.6-2.3-2.5-6.1-4.3-3 6.4-6.3 11.8-25.7 21zm26-29.5c.2-1.1 1-7.3-2-11-1.8-1.9-3.7-2.1-6.4 2.1-.8 1.2-.8 2.5 1 3.6 1.7 1.1 7.4 5.3 7.4 5.3zm78.1 29.7c-3.1 1.4-5.4-.3 1.2-5.1 10.2-7.3 18.1-12.2 21.3-18 0 0-6.2-3.9-9-6.8-2.9-2.9.8-10.8 3.6-13.8 7.2-8.1 10.7-2.7 11.5-1.3 3.5 6.7 1.4 15.1.3 17.6 0 0 2.8 2.1 3.6 2.9 1.1 1.3.7 3.7-.8 8-.6 1.4-2.2-2.7-6-4.5-3 6.4-6.4 11.8-25.7 21zm25.9-29.6c.3-1.1.9-7.3-1.9-10.9-1.8-1.9-3.9-2.1-6.6 2-.8 1.3-.8 2.6 1 3.8 1.9 1.2 7.5 5.1 7.5 5.1zm56.2 205.2c.8 6.5-2.9 17.3-4.5 20.9-1.4 3.7-7.3 1.4-10.7.8-2.1-.6-5.7-2.4-7.9-3.8-2.1 2.2-4.7 4.2-8.2 5.9-5.8 1.8-38.7 12.7-53.5.2-3.2-2.5-7.7-7.3-8.1-23.6 0-7.9-2.6-47.4-3.8-52.9-1.2-5.6-2.1-12.1.2-18.4 1.6-3 2-1.2 2.4 1 3.4 19.5 6.3 66.3 6.7 69.9.2 3.5 1.6 14 12.8 17.5 11.3 3.4 29.4 2.2 44.8-4.5 4.6-2.2 9.1-5.7 10.3-7.5 1.2-2 2.6-2 2.2.6-.2 1.2-.8 3.7-2.2 6.3 2 .2 10.3.6 13 .8 2.8.2 2.4-4 2-6.7-.6-2.6-9.1-52.3-9.9-56.3-.8-3.5-.8-6.3-1-7.9-.2-1.7-1.3-3.3-2.5-5.5-1.2-2.4-.2-4.9.2-5.7.6-.8 2.7-2.8 4.1-6.1.6-1.4 1.6.4 2 1.9.2 1.6 3.2 6.5 4.5 8.1 1 1.2 1.6 3 1.2 4-.6 1.4-2.9 4.5-3.3 5.1-.4.4-.6 1.2-.4 3.2 0 0 8.7 46.3 9.6 52.7zm-137.7-49.4q-1.8-1.6-3.2-3.7l.2-1.2 6.7-6.7h.6c1 1.4 2.2 2.9 3.4 3.9q1.8 2 4.1 3.4v1l-6.5 6.5-1.4.2q-2.1-1.4-3.9-3.4zm69.5-28.4c0-.4.5-1.2.9-2.6.6-1.7 1.2-2.1 3.6-2.9 2.2-1 28.6-11.9 30.8-12.9 3.3-1.7 2.9-.2 2.3.8-.5 1.2-.9 1.4-1.7 3s-1.8 1.8-3.6 2.8c-1.8.9-28.8 12-30 12.4-3.3 1.4-2.7.4-2.3-.6zm30.7 7.7 2-3.6c.2-.4.6-.9.8 0 1.4 4.4 1.4 8.3.4 11.1-1 3-1.8 4.9-5.7 5.7-2.8.8-6.1 0-7.5-2.7-2 5.3-6.1 7.1-9.5 6.7-4.3-.6-6.7-5.2-2.6-13.3 1.2-2.3 2-1.1 1.6 0-1.8 5.4.2 7.3 2.8 7.1 4.5-.3 6.9-2.9 7.5-8.4.2-1-.4-.8 1.6-2.4 1.5-1.2 1.3-.6 1.3 1.2-.2 2.5.2 4.3 1.4 5.1 1.8 1.6 4.4 1.2 6.7-1 .2-1-.4-2.9-1-4.3-.2-.4 0-.8.2-1.2zm60 50.1c3.2 20.4 3.2 34.4 1.8 39.5-1 3-2.2 2-2.4-2-1.1-17.3-5.7-41.6-7.1-49.7-1.5-7.9-2.9-16.4-4.5-27.6-1-6.6-.2-11.3 1.2-15.2 1.4-3.6 2.2.2 2.6 4.7.9 8.1 6.7 39.9 8.4 50.3zm-111.5 60.2c-.6 1-.8 1.2-1.9 2.8-.8 1.4-2 1.6-3.8 2.7-1.8.8-27.2 11.3-28.2 11.7-3.4 1.2-2.8.2-2.2-.8 0-.4.4-1.2 1-2.6.6-1.7 1.2-1.9 3.7-2.9 2.2-.8 26.9-11.1 29.1-12.1 3.5-1.3 2.9 0 2.3 1.2zm-90.2-93.5c.2-.4.4-1.2.8-2.8.4-1.4 1.2-1.8 3.4-2.8 2.3-1.1 31-13.4 33.3-14.6 3.2-1.5 2.6-.2 2 1-.4 1-.6 1.4-1.4 3-.8 1.4-1.8 1.8-3.7 2.9-1.8.8-31 13.3-32 13.9-3.4 1.5-2.8.4-2.4-.6zm47.6 94.3c-31.6 10.9-44.6-5.3-46-7.7-10.4-17.9 4.2-39.3 5.5-41 1.2-1.6 2.4-.4 1.6.8-4.7 10-5.9 16.1-5.7 18.7.8 21.5 22.9 21.9 25.8 22.1 21.6.6 37.9-14.8 39.3-16 1.4-1 2-1.4 1-2.2-11.8-5.9-26.6-5.7-27.6-5.9-.8-.2-1.2-.4-.6-2.1.6-1.4 1.6-4.6 2-5.6 7.1-1.4 17.7-5.9 19.1-7.3 4-4.1-9.3-18.9-11.2-21.5 0 0 2.1-9.9 2.5-11 .2-1.2.4-1.8 1.6-.8 19.1 21.7 10.3 38.5 9.1 41.2 0 0 6.3.4 8.3 3.6 3.3 5.5 2.5 9.4 1.9 11.6-2.3 10.7-22.7 21.7-26.6 23.1zm143.7 80.2s-25.2 12-31 14.5c-20.2 9.5-27.4 3.1-30.9.6-1 3.3-2.1 6.2-3.1 8-2.5 3.8-8.5 5.4-16.7-2.2-6.6 8.2-16.5 5.4-26.7-2.1-3.3 1.5-9.3 4.1-10.9 4.6 0 0-2.5.8-5.2 1.6v.4c-3.5 13.4-8.9 25.8-12.8 29.7-16.5 17-43.9 2.3-46.6.3-2.5-1.7 0-3.1 1.8-2.5 13.7 6.2 27.1 2.5 30 1.4 13.2-5.3 20.4-22.1 22.5-27.6-1.1.2-1.9.6-2.5.8-2.3.8-3.7-4.6-4.3-6.8-.7-1.9 0-2.5 4.5-3.7 7.2-1.7 19.2-6.4 24.2-8.9 4.7-2.5 3.1 3.1 3 5.6 20.9 7 25.7-5.2 27.1-9.3 1.4-4.2 2.5-2.7 2.3-.5q-.9 5.2-2.3 9.1c3.1 1.3 10.7 5.4 13.2.2 1.5-2.8 1.9-6.6 2.7-9.7.8-2.9 2.7-2.8 2.5.4l-.2 1.7c4.5 6.6 17.3 3.7 20.4 2.3-4.7-3.3-8.5-8.5-8-14.9.8-6.4 2.2-16.9 14.6-22.7 8.9-3.5 18.6 2.9 20.7 5 2.2 2.2 1.2 4.5-3.3 1.8-4.4-2.7-14.3.8-19.2 2.9-4.8 1.9-7.1 6.8-7.1 9.9 0 3.3 4.2 9.3 13.9 10.8 9.7 1.4 25.6-7.7 28.5-9.8 3.1-2 0 6-1.1 9.1zm-45.4-43.9c.2-.3.4-1.1.6-2.7.4-1.5 1-1.9 3.1-3.1 2.1-.9 31.4-13 33.3-14.1 3.1-1.8 2.8-.4 2.4.7-.4 1-.6 1.4-1.4 3-.6 1.5-1.5 1.9-3.3 2.9-1.5 1.1-31.4 13.1-32.4 13.7-2.9 1.8-2.5.6-2.3-.4zm-69.6 2.8c0-.4.4-1.2.8-2.8.5-1.3 1.1-1.7 3.2-2.7 2.2-.9 44.1-18.4 46.2-19.4 3.1-1.5 2.5-.2 2.1 1-.5 1-.7 1.4-1.5 2.7-.8 1.6-2 1.8-3.7 2.7-1.5 1-44 18.7-45 19-3.1 1.4-2.5.4-2.1-.5zm-48.1 43.8c0-.2.2-1.2.4-2.7.2-1.4.7-2 2.9-3.1 1.9-1.2 34.5-14.6 36.4-15.7 2.9-2 2.6-.6 2.2.5-.4 1.2-.4 1.4-1.2 3-.6 1.7-1.5 2.1-3.1 3.2-1.5 1-34.5 14.6-35.5 15.2-2.9 1.7-2.5.8-2.1-.4zm88.4-25.4h.8c1.2 1.1 2.1 2.3 3.5 3.5q2.1 1.7 4.4 3.1l.2.8-6 7.1-1.3.2q-2.2-1.3-4.3-2.9l-2.1-2.1-5.7 6.8-1.3.2q-2.1-1.4-4.1-2.9-1.9-1.8-3.5-3.5v-1.2l6-7.2h.8q1.8 1.8 3.5 3.5l2.9 2.1.2-.3zm-7.8-15.9c1.2 1.1 2.2 2.5 3.5 3.4q2 1.8 4.3 3l.2.7-5.8 6.8-1.4.2q-1.9-1.2-4.1-2.7-1.7-1.6-3.1-3.3v-1.2l5.9-6.9zm35.4-108.9h.8c1.2 1.2 2.2 2.4 3.7 3.6q2.2 1.8 4.6 3.1l.2 1-6.3 7.3-1.4.2q-2.2-1.2-4.4-3.1l-2.3-2-5.8 6.9-1.5.2q-2.2-1.2-4.2-3-2-1.7-3.7-3.5v-1.4l6.3-7.3h.8c1.2 1.2 2.3 2.4 3.7 3.6l3 2.3.2-.6zm-8.1-16.5c1.2 1.3 2.2 2.5 3.7 3.7q2 1.6 4.4 3l.2.8-6.1 7.1-1.4.2q-2-1.2-4.2-2.8-1.9-1.6-3.5-3.4l.2-1.3 6.1-7.3z" fill="#231f20" fill-rule="evenodd"/></svg>