<svg height="437" viewBox="0 0 252 437" width="252" xmlns="http://www.w3.org/2000/svg"><path d="m229.6 102.6c-.7 1.7-4.1 8.6-4.1 8.6s-.8 0-4.5-.8c-18.4-4.2-45.4 8-49.5 9.5-7.5 2.9-14.6 4.9-21.6 6.5 0 0-31.8 5.8-50.8-4.8-4.2 10.9-9.9 19.9-13.3 23.3-18.6 19.4-47.4 1-50.3-1-2.8-2.1-.1-3.6 1.9-2.9 15.6 7 31.3 3 34.7 1.7 10.7-4.4 17.7-15.6 21.6-23.8-12.3-8.5-4.5-20.2-3.6-21.9 1-1.7 1.4-1.2 1.7.7 2.4 14.4 30.8 18.1 34.8 18.1 26.9 3.1 58.8-10.5 61.7-11.5-24.1-9.7-41.4-4.3-42.8-3.9-1.2.1-1.4-.9-.9-1.9l5.7-8.7c3.7-3.5 31.6-4.6 31.6-4.6.6-5.6-6.2-40.6-6.2-40.6-.5-3.7-1-7.8-1.1-9.7-.4-3.4-1.9-8.5-3.6-11.3-1.2-2.1 0-2.8 1-4.1 1.9-2.6 2.4-5.5 3.9-7.7 1.2-2 2.1 0 2.9 2.6.9 2.9 4.4 8.1 6.3 10.9 2 2.7-1.4 5.2-3.1 6.6-1.7 1.5-.5 4.2-.1 7.3 0 0 3.9 27.5 4.9 37.2s-1.9 13.6-3.2 14.8c13.7 7.6 37.4 8.2 42.5 8.3 5.1.4 4.2 1.4 3.5 3.1zm-139.2-37.1q2.1 2.2 4.6 3.9l.2.9-7.5 7.6h-1.5q-2.4-1.5-4.6-3.7-1.9-2-3.4-4.2l.2-1.4 7.4-7.5h.9c1.2 1.5 2.4 3.1 3.7 4.4zm105.6 74.5v.8l-7.5 7.5-1.4.2q-2.3-1.7-4.6-3.8-2-2-3.5-4.2l.1-1.4 7.7-7.5h.7c1.2 1.6 2.4 3.1 3.7 4.5q2.2 2.2 4.8 3.9zm44.7-17.5c-1.2 2.9-2.6 1.8-2.6-2.1.4-16.6-3.2-40.2-4.1-48.1-1-7.8-2-15.9-2.8-26.8-.7-6.3.5-11.1 2.3-14.6 1.9-3.3 2.4.5 2.6 4.7.5 8 4.7 38.8 5.8 48.8 2 19.9 1 33.3-1.2 38.1zm-207.7-10.1c-3.7-2.2-6.8-4-8.8-5.7-2.3-1.9-2.4-5.6-.9-8 4.3-6.7 15-17.4 21.3-16.9 3.9.2 7.9 5 7.6 7-.2 1.9-4.1 8.7-5.9 8.7-1.6-.2-1.6-5.3-7.4-6.3-2-.3-7.4 3.2-7.6 4.9-.3 2.4 5.8 8.2 13.4 8.9 6.3.6 10.2-.4 15.3-1.2 1-.2 1.5.1.9 1.3-.5.9-4.3 7.3-5 7.3-4.4.4-9.1 1.7-15.3 3.9-6.8 2.4-13 5.7-17.3 8.2-.7.3-1.2-.3-1-.8.7-1.9 1.7-4.8 2.5-6.5 1.7-1.5 6.3-4.3 8.2-4.8zm52.8-69.5c-4.2 1.9-6.1 1.7-11.3 3.6-1.1.5-2.4.3-2.6-.5-.2-1 1-2.2 1.9-2.7 2-1.4 15.4-7.8 15.4-8.5 0-.4-5.7-2.6-8.8-2.7-3.4-.4-6.6.3-9.8 2.2-1.2.8-2.3 2-3.1 3.2-.9 1.2-1.5.2-1.2-1.2.3-.8.9-2 1.2-2.9 3.2-6.3 8.8-9 14.9-8.7 4 .4 7.5 2.3 11.3 3.3 1.2.1 4.9.5 5.1 1.7-.2 1.3-1.6 5.4-3.1 6.9-.5.6-1 .4-1.5.6-1 .3-2.7 3.4-8.4 5.7zm-72 31.6c-2.9 1.4-5.6-.3 1.4-5.2 10.7-7.5 18.8-12.8 22.2-18.6 0 0-6.4-4.2-9.5-7.1-2.9-2.9.8-11.2 3.7-14.4 7.5-8.4 11.1-2.8 11.9-1.2 3.6 6.9 1.6 15.6.4 18.2 0 0 2.9 2.2 3.7 3 1.2 1.2.7 3.8-.8 8.2-.5 1.5-2.2-2.7-6.3-4.6-3.1 6.6-6.5 12.2-26.7 21.7zm27-30.5c.4-1.2 1-7.7-2-11.4-1.9-2.1-3.9-2.2-6.7 2.2-.8 1.2-.8 2.5 1.1 3.7 1.8 1.2 7.6 5.5 7.6 5.5zm80.9 30.7c-3.1 1.4-5.6-.3 1.4-5.3 10.5-7.4 18.7-12.7 22.1-18.5 0 0-6.5-4.2-9.4-7.1s.9-11.2 3.8-14.5c7.4-8.3 11-2.7 11.8-1.2 3.6 7 1.4 15.7.4 18.2 0 0 2.9 2.2 3.7 3.1 1.2 1.2.7 3.7-.8 8.1-.5 1.6-2.2-2.7-6.3-4.5-3.1 6.6-6.6 12.2-26.7 21.7zm26.9-30.6c.3-1.2 1-7.6-1.9-11.4-1.9-2-3.9-2.2-6.8 2.2-.9 1.4-.9 2.8 1 3.8 1.9 1.2 7.7 5.4 7.7 5.4zm62.6 187.5c2.3 12.7-2.5 22.9-3.6 24.6-5.6 7.9-15.4 1-17.5-.2-1.9-1.3-3.8-.4-6.1 1-18.9 11.7-33.6 9.8-36.7 9.4-17.1-1.9-18.4-22.7-19-28.6-.8-6.5-3.7-39.6-6.7-50.1-.8-4.2 1.1-10.8 1.5-12.7s1.3-2.7 2.1.4c.6 2.9 7.7 55.5 8.5 61 2.6 17.9 13.2 19 17 19.8 16.4 1.9 33.1-7.5 35.9-9.4 2.7-1.9 5.6-.2 7 .4 1.5.6 7.1 2.9 10.7 3.3 3.5.7 3.8-4.5 3.3-7.7-.4-3.3-7.3-43.4-7.7-45.9-.8-5-1.7-8.8-1.9-9.6-.6-3.3-.6-6-.8-7.7-.2-1.5-1.3-2.9-2.3-5.2-1.3-2.3-.2-4.8.2-5.5.4-.8 2.5-2.7 3.8-5.8.8-1.5 1.6.2 1.8 1.7.5 1.4 3.4 6.2 4.6 7.7.9 1.2 1.5 3.1 1.1 4-.6 1.4-2.7 4.3-3.1 5-.3.4-.7 1.2-.5 2.9 0 0 7.5 41.7 8.4 47.2zm8.8 123.3s-25.8 12.1-31.7 14.9c-20.8 9.7-28 3.1-31.4.6-1 3.2-2.3 6.3-3.4 8-2.5 4.1-8.6 5.5-16.9-2.1-6.8 8.3-16.9 5.7-27.5-2.1-3.4 1.5-9.6 4-11 4.7 0 0-2.6.8-5.3 1.7v.2c-3.6 13.7-9.1 26.4-13.2 30.5-16.7 17.3-44.8 2.3-47.4.4-2.7-1.9-.2-3.2 1.7-2.6 14.2 6.4 27.5 2.6 30.7 1.3 13.4-5.5 20.8-22.6 22.9-28.1-1.1.2-1.9.6-2.6.6-2.3.8-3.6-4.7-4.2-6.8-.8-1.9 0-2.7 4.7-3.8 7.2-1.7 19.4-6.6 24.5-9.1 4.9-2.5 3.2 3.2 3 5.7 21.6 7.2 26.5-5.3 27.7-9.5 1.5-4.3 2.8-2.6 2.4-.7q-.9 5.6-2.2 9.6c3.2 1.5 10.8 5.5 13.4.2 1.5-3 1.9-7 2.7-10 .9-2.9 2.8-2.7 2.8.2l-.4 2c4.6 6.7 17.8 3.8 20.7 2.5-4.6-3.6-8.7-8.9-8-15.5.8-6.5 2.3-17.1 14.8-23 9.1-3.6 19.1 2.9 21.4 5 2.1 2.4 1 4.5-3.6 1.7-4.5-2.7-14.6 1.1-19.5 3-5.1 2.1-7.4 7.2-7.4 10.4 0 3.1 4.4 9.3 14.4 10.8 9.9 1.5 26-7.9 29.2-10 3-2.1 0 6.2-1.3 9.3zm-46.3-44.9c.2-.2.2-1 .6-2.5.4-1.7 1.1-2.1 3.2-3.2 2.1-1.2 32-13.3 34.1-14.6 2.9-1.7 2.5-.4 2.1.9-.2 1-.4 1.2-1.3 2.9-.6 1.5-1.7 1.9-3.2 3-1.7 1-32.1 13.5-33.2 14-3.2 1.7-2.5.6-2.3-.5zm-71.4 2.8c.2-.2.4-1.1 1.1-2.5.4-1.5 1-2 3.3-3 2.2-.9 44.9-18.6 47.1-19.7 3.1-1.5 2.5-.2 2.1.8-.4 1.1-.7 1.5-1.5 3-.9 1.5-1.9 1.7-3.6 2.8-1.9.8-45.1 18.8-46.2 19.2-3.1 1.5-2.5.5-2.3-.6zm-49.1 44.9c.2-.2.2-1.1.6-2.8.2-1.4.9-1.9 2.8-3.1 2.1-1.3 35.3-14.9 37.2-16.1 3-1.9 2.6-.7 2.4.6-.5 1.1-.5 1.5-1.1 3-.6 1.7-1.7 2.1-3.4 3.4-1.5 1-35.1 14.8-36.2 15.4-3 1.7-2.5.6-2.3-.4zm178.4-136.4c3.2 19.6 3.2 33.2 1.7 38.2-.8 2.7-2.1 1.9-2.3-2.1-.8-16.7-5.4-39.8-6.7-47.8-1.4-7.7-2.9-15.8-4.4-26.7-.8-6.2-.2-10.8 1.3-14.6 1.3-3.5 1.9.2 2.5 4.6.8 7.9 6.5 38.4 7.9 48.4zm-91.2-58.4c.2-.2.4-1.1 1.1-2.5.4-1.5 1-1.9 3.1-2.7 2.3-1.1 27.8-11.7 29.8-12.8 3.2-1.4 2.8-.2 2.1.9-.4 1-.6 1.4-1.4 2.9-.9 1.5-1.9 1.7-3.6 2.7-1.9.8-27.7 11.7-28.8 12.1-3.1 1.5-2.5.4-2.3-.6zm-10.2 105c-.4 1-.6 1.2-1.3 2.9-.8 1.5-1.8 1.9-3.5 2.7-1.7 1.1-30.9 12.7-31.7 13.2-3.2 1.6-2.7.6-2.3-.5 0-.4.2-1.2.6-2.7.4-1.4 1-1.9 3.3-2.9 2.1-1 30.7-12.5 32.8-13.6 3.1-1.6 2.5-.4 2.1.9zm-95.8-83.7c0-.4.2-1.3.6-2.7.4-1.5 1.1-1.9 3.2-3 2-1 30.6-13.1 32.5-14.2 3.1-1.8 2.7-.4 2.3.7-.4 1.2-.6 1.4-1.5 2.9-.6 1.7-1.6 2.1-3.3 3.1-1.7.9-30.5 13.2-31.5 13.6-3.1 1.7-2.7.6-2.3-.4zm137.5-11.9 2.1-3.6c0-.4.4-.8.7-.2 1.4 4.6 1.4 8.4.4 11.3-1.1 2.9-1.9 4.6-5.5 5.4-2.9.9-6 0-7.5-2.5-2.1 5-6 6.9-9.4 6.5-3.9-.6-6.4-5-2.5-13.2 1.3-2.3 2.1-1 1.7 0-1.9 5.5 0 7.3 2.7 7.1 4.4-.4 6.7-2.9 7.3-8.3.2-.9-.4-.9 1.5-2.3 1.7-1.3 1.4-.6 1.2 1 0 2.5.5 4.2 1.5 5.2 1.9 1.5 4.4 1.1 6.7-1.2 0-.8-.4-2.5-1.1-4-.2-.4 0-.8.2-1.2zm-80.3 83.7c-10.5 11.5-29.9 13.3-32.2 14 0 0-34.4 5.8-42.7-14.2-4-10.5 2.5-20.9 3.7-22.4 1.3-1.4 2.1-.4.8 1.3-4.3 6.9-.6 26.5 28.8 26.7 32.4 0 43.7-16.3 45.1-19.2 1.7-2.9 3-.4 2.7 1.3q-.8 3.7-2.5 6.8c3.2.2 9.4.7 11.5.7 2.7.2 2.3-4 1.9-6.3-.4-2.5-8.8-50.5-9.6-54.5-.6-3.3-.6-6-.8-7.5-.2-1.7-1.3-3.1-2.5-5.4-1.1-2.3-.3-4.6.4-5.4.4-.9 2.3-2.8 3.7-5.9.7-1.4 1.5.4 1.9 1.9s3.4 6 4.6 7.7c.8 1.1 1.5 2.9 1 3.8-.6 1.4-2.7 4.4-3.1 5-.4.4-.6 1.2-.4 3.1 0 0 8.3 44.5 9.2 50.7.8 6.3-2.7 16.7-4.2 20.3-1.7 3.3-7.1 1.2-10.4.6-1.9-.4-4.8-1.9-6.9-3.1zm52.2 76.1h.6c1.1 1 2.4 2.3 3.6 3.6q2.2 1.7 4.5 2.9l.2.9-6.1 7.4-1.3.2q-2.1-1.3-4.2-3.2l-2.4-2.1-5.7 7-1.3.2q-2.3-1.3-4.4-3-1.9-1.7-3.4-3.6v-1.2l6.1-7.2h.9c1 1.2 2.1 2.5 3.6 3.6l2.7 2.1.5-.4zm-8.1-16.1c1.1 1.2 2.3 2.3 3.6 3.4q1.9 1.9 4.3 3.1l.2.7-6 7.2h-1.2q-2.2-1.1-4.3-2.8-1.7-1.7-3.1-3.4v-1.2l5.9-7zm-71.3-100.9h.8c1.1 1.2 2.1 2.5 3.6 3.5q2 1.9 4.3 3.1l.2.9-6 7.1-1.3.2q-2.3-1.3-4.3-2.9l-2.1-2.1-5.9 6.9-1.2.2q-2.3-1.3-4.2-3.2-1.9-1.4-3.5-3.3l.2-1.2 6-7.1h.6c1.1 1 2.3 2.2 3.6 3.5l2.9 2.1.2-.4zm-7.7-15.9c1 1.1 2.1 2.3 3.3 3.3q2.1 1.7 4.4 3l.2.8-5.8 6.9-1.3.2q-2.1-1.3-4.1-2.9-1.9-1.5-3.4-3.2l.2-1.2 5.7-6.9zm118.3 13.2h.8c1.1 1.2 2.3 2.5 3.6 3.5q2.1 1.9 4.4 3.1l.2.9-6.1 7.1-1.2.2q-2.3-1.3-4.4-2.9l-2.1-2.1-5.6 6.9-1.5.2q-2.1-1.3-4.2-3-1.8-1.6-3.3-3.5v-1.3l6.1-7.1h.6c1.2 1.3 2.3 2.6 3.5 3.6l2.9 2.1.3-.4zm-7.8-15.9c1.1 1 2.1 2.3 3.4 3.3q2.1 1.7 4.4 3l.2.8-5.9 6.9-1.2.2q-2.1-1.3-4.2-2.9-1.7-1.5-3.3-3.2l.2-1.2 5.8-6.9z" fill="#231f20" fill-rule="evenodd"/></svg>