<svg height="448" viewBox="0 0 252 448" width="252" xmlns="http://www.w3.org/2000/svg"><path d="m226.7 101.7c-.7 1.8-3.8 8.8-3.8 8.8s-.9 0-4.8-1c-18.1-4.3-44.9 7.9-48.7 9.5-7.4 2.8-14.7 4.9-21.5 6.3 0 0-31.5 5.6-50.5-4.6-4.1 10.8-9.7 19.7-13.1 23.1-18.5 19-46.8.9-49.8-1.1-2.8-2.1 0-3.5 1.9-3 15.5 7.1 31 3 34.4 1.8 10.5-4.4 17.4-15.5 21.5-23.6-12.4-8.4-4.6-20.1-3.7-21.6 1-1.8 1.4-1.1 1.7.7 2.3 14.2 30.5 17.9 34.3 17.9 26.8 3 58.5-10.4 61.3-11.4-23.9-9.7-41-4.3-42.4-3.9-1.3.2-1.3-.9-.9-1.8l5.6-8.8c3.6-3.3 31.4-4.4 31.4-4.4.5-5.6-6.2-40.3-6.2-40.3-.5-3.7-1.1-7.5-1.2-9.5-.4-3.5-2-8.4-3.5-11.3-1.1-2.1 0-2.6 1-4 1.9-2.6 2.5-5.5 3.9-7.7 1.2-2 1.9.1 2.8 2.6 1.1 3 4.4 8.1 6.3 10.7 2 2.7-1.4 5.3-3 6.7-1.7 1.4-.5 4.2-.1 7.1 0 0 3.7 27.4 4.7 37.1 1.1 9.5-1.7 13.4-3.2 14.4 13.8 7.6 37.2 8.1 42.3 8.5 4.9.2 4 1.2 3.3 2.8zm-137.8-36.6q2.1 2.1 4.6 3.9l.2.8-7.4 7.4-1.6.2q-2.3-1.6-4.4-3.7-2-1.9-3.5-4.2l.1-1.4 7.4-7.4.9.2q1.6 2.1 3.7 4.2zm104.6 73.6v1l-7.4 7.4-1.4.2q-2.5-1.8-4.6-3.9-1.9-1.9-3.4-4l.2-1.4 7.4-7.4h.7c1.3 1.6 2.3 3 3.7 4.4q2.1 2.1 4.8 3.7zm44.3-17.3c-1.2 2.8-2.6 2-2.6-1.9.3-16.6-3.2-40-4.1-47.7-1-7.8-1.9-15.9-2.8-26.6-.7-6.3.4-10.9 2.3-14.4 2-3.4 2.5.3 2.7 4.7.3 7.8 4.5 38.4 5.6 48.3 2.1 19.7.9 33-1.1 37.6zm-205.8-10c-3.7-2.1-6.8-3.9-8.8-5.5-2.1-1.9-2.2-5.6-.7-7.9 4.1-6.7 14.8-17.2 21-16.9 3.9.4 7.9 5.1 7.6 7.1-.2 1.7-4.1 8.6-6 8.4-1.4 0-1.4-5.1-7.2-6-2-.3-7.4 3-7.6 4.8-.2 2.3 5.8 8.1 13.4 8.8 6.1.5 10-.4 15.1-1.3 1.1-.1 1.6.2.7 1.5-.5.8-4 7.2-4.7 7.2-4.4.3-9.2 1.6-15.2 3.8-6.7 2.3-13 5.5-17.1 8.1-.8.4-1.2-.3-1-.8.5-1.8 1.6-4.8 2.4-6.4 1.8-1.6 6.4-4.2 8.1-4.9zm52.3-68.7c-4.2 1.8-6 1.6-11.2 3.6-1.1.3-2.3.1-2.5-.6-.2-1 .9-2.1 1.8-2.6 2.1-1.4 15.3-7.9 15.3-8.5 0-.3-5.7-2.4-8.7-2.8-3.3-.3-6.6.4-9.6 2.3-1.4.7-2.5 1.9-3.2 3.2-.7 1-1.4.2-1.1-1.3.4-.7.7-1.9 1.1-2.6 3.2-6.3 8.8-9.1 14.8-8.8 3.9.4 7.4 2.3 11.3 3.2 1 .3 4.7.7 4.9 1.7-.2 1.4-1.4 5.5-3.2 6.9-.3.5-.9.5-1.2.5-1.1.4-2.8 3.4-8.5 5.8zm-71.3 31.2c-3 1.6-5.4-.2 1.4-5.1 10.6-7.6 18.7-12.7 22-18.3 0 0-6.5-4.2-9.3-7.1-3-3 .7-11 3.5-14.2 7.4-8.5 11-2.8 11.8-1.4 3.7 7 1.4 15.6.6 18.1 0 0 2.8 2.1 3.7 3 1 1.2.5 3.7-.9 8.1-.7 1.6-2.3-2.6-6.4-4.6-3 6.5-6.5 12.2-26.4 21.5zm26.8-30.3c.2-1 .9-7.4-2.1-11.2-1.8-2-3.7-2.2-6.5 2.2-.9 1.3-.9 2.7.8 3.7 2 1.3 7.8 5.3 7.8 5.3zm80.1 30.6c-3 1.5-5.6-.3 1.2-5.2 10.6-7.4 18.7-12.7 22-18.3 0 0-6.3-4.3-9.3-7.1-2.8-3 .9-11.1 3.7-14.2 7.4-8.3 10.9-2.9 11.8-1.4 3.7 7 1.4 15.6.3 18.1 0 0 3 2.1 3.7 3 1.3 1.2.7 3.7-.8 8.1-.6 1.6-2.2-2.7-6.2-4.6-3 6.7-6.5 12.1-26.4 21.6zm26.6-30.4c.3-1.1 1-7.4-2-11.3-1.7-1.9-3.8-2.1-6.5 2.3-.9 1.2-.9 2.7.9 3.7 1.9 1.2 7.6 5.3 7.6 5.3zm51.9 166.2c4.3 22.8 4.1 34.2 3.2 40.8-.6 6.3-8.2 8-13.7 8.2q-3 .4-5.3.2c-3.4 11.8-10.5 23.2-12.9 25.5-17.1 17.6-46.2 3.4-49 1.7-2.5-1.9 0-3.3 1.7-2.7 14.4 6.3 29.2 1.7 32.3.4 13.3-5.3 20.9-20 23.3-25.7-7.4-2.4-6.4-9.8-6.2-11.7.5-2.5.9-2.1 2.4-1.2 7.1 5.7 23.6 2.1 24.5-.2.8-2.6-9.5-56.4-9.1-60.8.2-3.2-2.1-7.2-3.4-9.8-1.1-1.9 0-2.5.8-3.5 1.9-2.4 2.4-3.4 3.8-5.3 1.1-1.7 1.7 0 2.4 2.3.8 2.5 3.8 6.8 5.5 9.1 1.6 2.5-1.9 5-3.4 6.3s-1.1 1.7-.9 4.2c0 0 2.8 14.4 4 22.2zm19.4 160.4s-25.9 12.3-31.9 14.8c-20.6 9.8-27.9 3.3-31.2.6-1.1 3.4-2.3 6.5-3.4 8.2-2.7 3.9-8.7 5.6-17-2.1-6.7 8.3-16.7 5.6-27.3-2.1-3.3 1.5-9.6 4-11 4.6 0 0-2.5.8-5.4 1.6v.5c-3.6 13.5-9.2 26.2-13 30.1-16.8 17.5-44.9 2.3-47.6.7-2.5-1.9 0-3.4 1.6-2.7 14.2 6.2 27.7 2.5 30.9 1.4 13.3-5.6 20.8-22.7 22.9-28.3-1.1.4-1.9.6-2.5.8-2.5.9-3.8-4.7-4.4-6.8-.6-1.9 0-2.7 4.6-4 7.2-1.7 19.5-6.4 24.7-8.9 4.8-2.5 3.2 3.1 3 5.6 21.4 7.3 26.4-5.2 27.6-9.4 1.5-4.4 2.7-2.7 2.3-.6q-.8 5.4-2 9.4c3.1 1.4 10.6 5.6 13.3.2 1.4-2.9 1.8-6.9 2.7-9.8.8-3.1 2.9-2.9 2.7.2l-.2 1.9c4.4 6.6 17.5 3.7 20.6 2.3-4.6-3.4-8.8-8.8-7.9-15.2.6-6.5 2.1-17.3 14.8-23.2 8.9-3.7 18.9 3 21.2 5.3 2.1 2 1 4.3-3.5 1.6-4.6-2.9-14.6.8-19.6 2.9s-7.3 7.1-7.3 10.2c0 3.2 4.4 9.4 14.4 11.1 9.8 1.4 26-7.9 29.1-10 2.9-2.1 0 6-1.2 9.1zm-46.3-44.7c0-.2.3-1.1.5-2.7.4-1.5 1-2.1 3.1-3.2 2.3-1 32.3-13.3 34.1-14.3 3.2-1.9 2.7-.6 2.3.6-.4 1-.6 1.5-1.2 2.9-.7 1.7-1.7 2.1-3.4 3.1-1.6 1.1-32.2 13.6-33.1 14-3.1 1.7-2.7.6-2.3-.4zm-71.2 2.7c0-.2.3-1.1.9-2.5.4-1.7 1-2.1 3.3-2.9 2.3-.9 45-18.8 47.1-19.8 3.1-1.5 2.7-.2 2 .8-.4 1.1-.6 1.5-1.4 2.9-.9 1.7-1.9 1.9-3.8 2.7-1.6 1.1-44.9 19-45.8 19.4-3.3 1.5-2.7.4-2.3-.6zm-49.3 44.9c.2-.4.2-1.2.6-2.7.2-1.6.9-2 2.9-3.3 2.1-1.2 35.2-14.8 37.1-16 3.1-2.1 2.7-.6 2.3.6-.2 1-.4 1.5-1.1 2.9-.6 1.7-1.6 2.1-3.3 3.4-1.4 1-35.2 14.7-36 15.4-3.1 1.8-2.7.8-2.5-.3zm83.7-189.7c-.7-6.1.4-10.3 2.3-13.7 1.7-3.2 2.3.2 2.5 4.4.5 7.4 4.3 36.5 5.3 46 2.1 18.8 1.1 31.7-1 36.2-1.1 2.7-2.6 1.6-2.4-1.9.2-15.9-3.1-38.3-4-45.7-.8-7.3-1.9-15.2-2.7-25.3zm14.8-10.3c0-.5.4-1.3.8-2.8s1.1-1.9 3.4-2.9c2.3-.9 28.3-12.3 30.4-13.3 3.2-1.7 2.7-.2 2.3.8-.6 1.1-.8 1.5-1.7 3-.8 1.7-1.9 1.9-3.6 2.7-1.9 1.1-28.3 12.7-29.3 13.1-3.4 1.5-2.8.4-2.3-.6zm76.6 50.8c2.7 18.6 2.1 31.5.4 36.2-1 2.5-2.5 1.6-2.7-2.2-.2-15.6-4.2-37.8-5.5-45.1-1.1-7.4-2.3-15.2-3.6-25.4-.6-5.9.2-10.3 1.9-13.9 1.7-3.2 2.3.4 2.5 4.4.7 7.4 5.7 36.5 7 46zm-115.7 69.9c-3.2 1.5-26.4 8.1-33.6 9.5-29.9 6.2-50.2-6.5-51.9-34.2-1.7-25.3 11.4-42.6 16.3-49.2 1.6-2.1 3.1-3.8 4.6-5-5.3-5.5-10.1-1.9-11.4-.9-1.1 1.5-1.9.7-1.5-1.5 3-10.7 7.6-13.9 16.3-15.4 8.6-1.2 15.2 2.8 16.4 3.8 4.1 2.8 1.5 8.3-.4 12.1-.6 1.2-2.5 2.3-5 3.8 2.5 1.2 4.2 2.3 4.8 2.5 21.8 7.2 47.5-4.6 49-5.7 1.5-.8-4.7-9.5-7.8-13.7 0 0 1.5-8 1.9-9.9.4-1.7.8-1.7 2.1-.5 9.5 9.5 8.4 20.5 8.2 23.9-1 7.8-2.7 9.9-4.6 11-14.8 7.4-30.6 8.2-34 8.2-16.1.4-24.3-5.7-28.7-10.8-7.8 5.1-16.7 13.5-20.5 30.2-4 21.1 2.3 34.4 19 39.3 16.5 4.9 53.6-.8 59.7-1.5 6.4-.4 4.3 2.6 1.1 4zm-9.3-51.1q1.9 1.9 4.2 3.4v.9l-6.5 6.5h-1.3q-2.1-1.5-4-3.2-1.7-1.6-2.9-3.8l.2-1 6.5-6.8.6.2q1.6 1.9 3.2 3.8zm18.4 23.9c-1.9.8-28.1 12.9-29.2 13.3-3.3 1.5-2.7.4-2.3-.6 0-.2.2-1.1.9-2.6.4-1.7 1-2.1 3.1-2.9 2.4-1.1 28.1-12.9 30.2-14 3.4-1.6 2.8-.2 2.3.9-.4 1-.6 1.5-1.4 2.9-.9 1.7-1.9 1.9-3.6 3zm57-68.8 1.9-3.6c.2-.2.6-.7.8 0 1.3 4.2 1.3 7.8.2 10.5-.8 2.8-1.6 4.3-5 5.3-2.8.6-5.7 0-7.2-2.5-1.9 4.8-5.7 6.5-8.7 6.1-4-.6-6.3-4.9-2.5-12.2 1.3-2.4 1.9-1.1 1.5 0-1.7 4.8.2 6.7 2.7 6.5 4-.2 6.4-2.5 7-7.8 0-.9-.4-.9 1.3-2.1 1.4-1.3 1.2-.7 1.2 1-.2 2.1.2 3.8 1.3 4.7 1.7 1.5 4.2 1 6.3-1.1 0-.8-.4-2.5-1-3.8 0-.4 0-.6.2-1zm-147-12.7c0-.4.5-1.3.9-2.7.4-1.5 1.3-1.9 3.4-2.8 2.3-1 28.5-12 30.6-13.1 3.4-1.5 2.7-.2 2.3 1.1-.6 1-.8 1.2-1.7 2.9-.8 1.5-1.9 1.7-3.6 2.8-1.9.8-28.5 12-29.5 12.4-3.4 1.5-2.8.5-2.4-.6zm112.1 162h.6c1.2 1.3 2.3 2.5 3.7 3.6q2.1 1.8 4.4 3.1l.2.8-6 7.3-1.5.2q-2.1-1.2-4.1-2.9l-2.3-2.1-5.9 6.7-1.2.4q-2.3-1.5-4.4-3.1-1.9-1.7-3.5-3.4l.2-1.4 6-7.3h.9c1 1.2 2.2 2.5 3.5 3.7l2.9 2.1.2-.4zm-7.9-16c1.3 1 2.3 2.3 3.5 3.3q2.1 1.9 4.4 3.1l.2.7-6 7-1.3.2q-2-1.2-4.1-2.9-1.7-1.4-3.4-3.3l.3-1.2 5.8-6.9z" fill="#231f20" fill-rule="evenodd"/></svg>