<svg height="415" viewBox="0 0 252 415" width="252" xmlns="http://www.w3.org/2000/svg"><path d="m227.2 98.6c-.7 1.7-4 8.7-4 8.7s-.9 0-4.6-.9c-18.3-4.2-45 7.8-48.9 9.5-7.4 2.8-14.5 4.8-21.3 6.4 0 0-31.5 5.6-50.4-4.6-4.3 10.6-9.9 19.6-13.1 23-18.4 19-46.9.9-49.8-1.1-3-2 0-3.6 1.8-2.9 15.6 6.9 30.9 2.9 34.5 1.7 10.5-4.4 17.5-15.5 21.3-23.7-12.3-8.3-4.4-19.9-3.7-21.5 1.1-1.8 1.6-1.2 1.9.6 2.3 14.3 30.3 18 34.3 18.1 26.7 3 58.3-10.5 61.1-11.6-24-9.5-41-4-42.2-3.8-1.4.1-1.4-.8-1-1.9l5.6-8.5c3.6-3.5 31.2-4.5 31.2-4.5.7-5.7-6-40.3-6-40.3-.6-3.7-1.1-7.6-1.2-9.5-.3-3.5-1.9-8.5-3.6-11.2-1.1-2.2 0-2.8.9-4.2 2-2.5 2.5-5.4 4.1-7.6 1.2-2 2 .2 2.7 2.6 1 2.8 4.4 8.1 6.4 10.7 2 2.8-1.4 5.3-3.1 6.7-1.6 1.5-.5 4.3-.2 7.1 0 0 3.9 27.3 5 36.9.9 9.6-2 13.5-3.3 14.5 13.6 7.6 37.1 8.1 42.1 8.4 5.1.3 4.2 1.4 3.5 2.9zm-137.9-36.6q2.2 2.2 4.8 3.9v.9l-7.4 7.4-1.4.2c-1.7-1.1-3.1-2.4-4.5-3.7q-2-2.1-3.5-4.2l.1-1.4 7.5-7.4h.9c1.1 1.5 2.1 3.1 3.5 4.3zm104.5 73.6.2.9-7.4 7.4-1.6.2q-2.3-1.6-4.4-3.7-1.9-2-3.5-4.2l.2-1.4 7.4-7.4.8.1c1.2 1.4 2.3 3 3.7 4.4q2.2 2.1 4.6 3.7zm44.4-17.2c-1.2 2.8-2.6 1.7-2.6-2.1.3-16.4-3.1-39.8-4-47.7-1.1-7.5-2-15.7-3-26.4-.6-6.3.5-10.8 2.5-14.4 1.9-3.4 2.3.3 2.5 4.7.4 7.9 4.6 38.3 5.7 48.2 2 19.6.9 33.1-1.1 37.7zm-205.6-10c-3.7-2.2-6.8-3.9-8.8-5.6-2.2-1.8-2.3-5.6-.8-7.9 4.2-6.6 14.9-17.1 21-16.8 3.9.3 7.9 4.9 7.6 6.9-.1 1.9-4 8.7-5.9 8.5-1.5 0-1.5-5.1-7.2-6-2-.3-7.4 3.1-7.6 4.8-.3 2.3 5.7 8.2 13.3 8.8 6.2.6 10-.3 15.1-1.2 1-.3 1.6.1.8 1.4-.6.7-4.2 7.1-4.8 7.2-4.3.2-9.1 1.6-15.1 3.7-6.7 2.4-13 5.6-17.2 8.2-.8.3-1.2-.3-.9-.9.6-1.7 1.5-4.6 2.3-6.3 1.7-1.6 6.3-4.2 8.2-4.8zm52.3-68.7c-4.2 1.7-6.1 1.6-11.3 3.6-1.1.3-2.4.1-2.5-.6-.2-1.1.9-2 1.9-2.7 2-1.3 15.3-7.8 15.3-8.5 0-.3-5.8-2.4-8.7-2.7q-5.1-.5-9.7 2.3c-1.4.7-2.4 2-3.3 3.2-.6 1.1-1.4.2-.9-1.2.3-.8.8-2 1.1-2.8 3.1-6.3 8.6-9 14.7-8.7 3.8.4 7.4 2.4 11.2 3.1 1.1.3 4.8.7 5 1.7-.2 1.4-1.6 5.4-3.1 7-.5.5-.9.5-1.4.6-.9.3-2.6 3.3-8.3 5.7zm-71.3 31.3c-3 1.4-5.6-.3 1.4-5.3 10.5-7.4 18.5-12.5 21.9-18.2 0 0-6.5-4.2-9.2-7.1-3-3 .7-11.2 3.5-14.3 7.4-8.3 11-2.8 11.9-1.4 3.6 7 1.4 15.7.3 18.1 0 0 2.8 2.2 3.7 3.1 1.1 1.3.7 3.6-.9 8.1-.5 1.5-2.2-2.7-6.2-4.5-3.1 6.5-6.5 12-26.4 21.5zm26.7-30.3c.3-1.3 1-7.6-2-11.3-1.8-2-3.8-2.2-6.6 2.1-.8 1.3-.8 2.7 1.1 3.9 1.8 1.1 7.5 5.3 7.5 5.3zm80.1 30.4c-3.1 1.4-5.6-.3 1.2-5.1 10.6-7.6 18.8-12.7 22-18.4 0 0-6.3-4.2-9.3-7.1-2.9-2.9.8-11 3.7-14.2 7.3-8.4 10.9-2.8 11.8-1.4 3.5 6.9 1.4 15.6.3 18.1 0 0 2.9 2.1 3.7 3.1 1.2 1.2.6 3.7-.8 8-.6 1.6-2.3-2.6-6.2-4.5-3 6.5-6.6 12.1-26.4 21.5zm26.6-30.3c.3-1.2.9-7.4-2-11.3-1.9-2-3.9-2.1-6.5 2.2-.9 1.4-.9 2.6.9 3.9 1.9 1 7.6 5.2 7.6 5.2zm74.3 170.6c2 9.4.2 16.8-1.1 19.7-1.2 2.9-7.7 1.1-10.5 0-3.7-1.4-6.3-2.7-7.4-3.6-1 2.9-2.1 5.8-3.2 7.9-1.3 1.9-1.6 2-3.6 1.9-1.8-.4-9.4-3.1-10-5.5v-.1c-4.7 3.9-13 7-27.8 4.8-4.2 1.7-7.8 1.8-8.7 2 0 0-13.4 2.4-15.9-13.7-.7-3.3-2.7-18.1-3.4-23-.8-5-5.3-36.9-6-40.7l2-6.7c.2-.5.3-1.4 1.2.4.8 2 8.9 57.9 9.3 62 1.6 14.1 13 13.9 14.8 13.8 13.4-.2 17.5-10 18.4-11.8.8-1.6 1.8-1.3 1.7.6-.6 4.8-2.4 8.5-4.7 11.2 4.8.3 19.7-.2 24-11.8.4-1.1 2.2-2 1.4.7-.1 1.1-.5 4-2.3 7.1 2.5 1.1 9.2 4 9.9 1.3 1.1-3.1 3.3-9.6 3.8-10.5.4-1.1 2.2-1.7 1.8.1 0 .8-.5 2.8-1.2 5.3 1.8.4 10.1 2 13 1.1 2.4-.6 1.8-2.7 1.4-4.9-.3-2-7.2-41.8-7.9-45.2-.6-2.7-.6-4.9-.7-6.3-.2-1.3-1.1-2.6-2-4.4s-.2-4 .2-4.5c.3-.7 1.9-2.3 3.2-4.9.6-1.2 1.3.2 1.6 1.5.2 1.2 2.6 5.2 3.7 6.5.7.9 1.2 2.5.9 3.1-.6 1.2-2.2 3.8-2.6 4.1-.3.4-.5 1.1-.3 2.5 0 0 5.9 34.9 7 40zm-183.7-27.3c.2-.2.2-.9.6-2.2.1-1.2.7-1.6 2.5-2.5 1.6-1.1 31.8-13.4 33.4-14.3 2.6-1.6 2.2-.5 1.9.6-.4.9-.6 1-1.1 2.5-.6 1.3-1.3 1.6-2.7 2.5-1.3.9-31.9 13.2-32.6 13.8-2.5 1.4-2.2.5-2-.4zm57 51.3c-2.2-.5-2.2-6.1-2-7.5 0-1.7 1.3-.9 2.5-.6 3.1.9 16.1-2.5 21.4-3.6 1.2-.4 1-1.8.9-2.7-5.8-12.9-13.6-15.6-15.6-16.3l.4-6.9 1.1-.9c8.5 1.8 13.5 11.4 14.6 14 3.6 7.9 1.8 17.1 1.4 18.6-.5 1.2-1.4 1.6-2.5 2-1.1.3-15.5 4.9-22.2 3.9zm144.4-34.8c2 14.1 1.5 23.6.2 27.1-.7 2-1.8 1.2-2-1.5-.1-11.7-3-28.4-3.9-34s-2-11.4-2.8-18.9c-.7-4.6 0-7.8 1.3-10.4 1.3-2.5 1.8.2 2 3.3.5 5.6 4.2 27.3 5.2 34.4zm-114.4 40.8c-.4.7-.6 1.1-1.3 2.4-.7 1.2-1.4 1.4-2.9 2.1-1.4.8-22.9 10.2-23.8 10.5-2.6 1.1-2.2.4-1.8-.5 0-.2.1-.9.7-2.2.3-1.3.9-1.6 2.7-2.3 1.8-.8 22.8-10 24.6-10.9 2.7-1.3 2.2-.2 1.8.9zm23.9-67.8c0-.3.1-.9.7-2.2.3-1.2.9-1.6 2.7-2.3s42.1-17.9 43.7-18.8c2.8-1.3 2.2-.2 1.9.9-.4.7-.6 1.1-1.3 2.3-.6 1.3-1.5 1.5-2.9 2.2-1.5.7-42.1 18.1-43 18.5-2.6 1-2.2.1-1.8-.6zm-61.3 19c.9 2.5 2.9 11.9-.4 20.2-2.3 3.7-3.3 5.1-6.5 4.7-3.1-.3-7.2-1.6-9.4-3.2-4.7 5.6-11.2 6.7-13.7 7 2.7 13.8-1.1 21.4-2.4 23-11.6 13.4-27.5 11.9-31.1 11-21-5-11-32.1-9.4-34.5 1.4-2 2.4-.4 1.8.5-9.9 23.2 10.3 26.1 12.3 26.1 19.9 1.1 26.2-12.1 26.9-14.8.8-2.6-7-17.8-9-20.5 0 0 1.4-7.2 1.8-8.1s1.3.2 2.2 1.6c0 0 1.6 2.9 3.4 6.3 15 2.8 18.8-7.7 19.5-11.3.9-3.7 2.6-1.9 2.6-.2q-.4 3.8-1.3 6.7c3.3.9 10.5 2 10.5 1-.2-1-1.6-8.6-1.1-10.6.6-1.8 1.1-4.7 1.6-5.8.4-1.3.6-1.6 1.7.9zm98.5-8.1 1.6-3.1c.2-.4.6-.7.8 0 1.2 3.8 1 6.9.3 9.2-.9 2.5-1.6 4-4.7 4.7-2.3.7-4.9 0-6.3-2.2-1.6 4.4-5.1 6-7.8 5.5-3.4-.4-5.4-4.2-2.2-10.9 1.1-2 1.7-1.1 1.5 0-1.6 4.4 0 6 2.3 5.8 3.5-.2 5.5-2.3 6.2-7 0-.8-.4-.6 1.3-1.9 1.2-1 1-.5.9.9 0 2 .3 3.5 1.2 4.4 1.6 1.3 3.6.9 5.6-1.1 0-.7-.3-2.2-.9-3.4 0-.4 0-.6.2-.9zm41.9 146.4s-28.1 13.2-34.6 16.1c-22.5 10.8-30.4 3.6-34 .7-1.2 3.6-2.7 6.9-3.9 8.9-2.6 4-9.3 6-18.2-2.4-7.4 9.1-18.5 6.2-30-2.4-3.6 1.6-10.3 4.5-12 5 0 0-2.6 1-5.7 1.9v.5c-4.1 14.9-10.1 28.5-14.2 32.9-18.2 18.9-48.9 2.6-51.8.4-2.9-1.9 0-3.3 1.9-2.6 15.4 6.7 30 2.6 33.4 1.4 14.6-6 22.8-24.7 24.9-30.7-1.2.3-2.1.5-2.6.8-2.7.9-4.1-5.1-4.8-7.2-.7-2.4 0-3.1 5-4.3 7.9-2 21.4-7.2 26.9-10.1 5-2.7 3.3 3.6 3.1 6.2 23.5 7.9 28.8-5.7 30.2-10.3 1.7-4.6 2.9-2.9 2.7-.5q-1 5.8-2.4 10.1c3.3 1.7 11.7 6.2 14.6.2 1.4-3.1 1.9-7.4 2.9-10.8.9-3.1 3.1-2.8 2.8.5l-.2 1.9c4.8 7.2 19.2 4.1 22.6 2.7-5.1-3.9-9.6-9.6-8.9-16.8.9-7 2.4-18.7 16.3-25 9.8-4 20.6 3.2 23 5.6s1.2 4.8-3.8 1.9c-4.8-3.1-15.9.9-21.4 3.1-5.2 2.4-7.9 7.7-7.9 11.3 0 3.3 4.8 10 15.6 11.7s28.5-8.6 31.9-10.8c3.4-2.4 0 6.7-1.4 10.1zm-50.4-48.7c0-.5.2-1.4.7-3.1.3-1.7 1-2.2 3.4-3.4 2.1-1.2 35-14.4 37.1-15.8 3.4-1.9 2.9-.5 2.4 1-.4 1.2-.7 1.4-1.4 3.1-.7 1.9-1.9 2.1-3.6 3.3-1.9 1.2-35 14.7-36 15.2-3.6 1.9-2.8.7-2.6-.3zm-77.5 2.9c0-.2.3-1.2 1-2.9.5-1.7 1.2-2.1 3.6-3.1s48.9-20.4 51.1-21.6c3.6-1.7 3.1-.2 2.4 1.2-.5 1-.7 1.5-1.7 3.1-1 1.7-1.9 1.9-3.8 2.9-2 1-49 20.6-50.2 21.1-3.6 1.5-2.9.5-2.4-.7zm-53.5 48.9c0-.5 0-1.2.5-3.1.3-1.7 1-2.2 3.1-3.4 2.4-1.4 38.4-16.3 40.6-17.5 3.1-2.1 2.9-.7 2.4.5-.3 1.5-.5 1.7-1.2 3.4-.7 1.9-1.7 2.4-3.6 3.6-1.7 1.2-38.4 16-39.4 16.8-3.1 2.1-2.8.9-2.4-.3zm98.4-28h.7c1.4 1.4 2.6 2.6 4.1 3.8q2.4 1.9 4.8 3.4l.2.9-6.7 7.9-1.4.3q-2.4-1.5-4.6-3.4l-2.4-2.1-6.5 7.4-1.4.2q-2.4-1.4-4.6-3.1-2.1-1.9-3.8-3.8v-1.5l6.7-7.9h1c1.2 1.5 2.4 2.7 3.8 3.9l3.1 2.4.3-.5zm-8.7-17.5c1.2 1.2 2.4 2.6 3.9 3.8q2.1 1.9 4.8 3.1l.2 1-6.5 7.7-1.4.2q-2.4-1.4-4.6-3.1-1.9-1.7-3.6-3.9v-1.2l6.5-7.6z" fill="#231f20" fill-rule="evenodd"/></svg>