<svg height="424" viewBox="0 0 252 424" width="252" xmlns="http://www.w3.org/2000/svg"><path d="m228.3 100.3c-.8 1.6-4 8.6-4 8.6s-1 0-4.6-.8c-18.3-4.3-45.3 7.8-49.2 9.5-7.5 2.8-14.7 4.9-21.7 6.3 0 0-31.5 5.8-50.7-4.7-4.1 10.8-9.8 19.8-13.1 23.3-18.6 19.3-47.2.8-50.1-1.2s-.1-3.5 1.9-2.8c15.6 7 31.1 3 34.6 1.7 10.6-4.4 17.6-15.5 21.4-23.8-12.3-8.3-4.5-20.1-3.5-21.6.8-1.9 1.3-1.2 1.7.6 2.3 14.3 30.6 18 34.6 18.2 26.9 3 58.7-10.7 61.5-11.7-24.1-9.6-41.3-4.1-42.6-4-1.3.4-1.3-.8-.8-1.6l5.5-8.8c3.6-3.5 31.6-4.5 31.6-4.5.5-5.7-6.2-40.4-6.2-40.4-.5-3.9-1.2-7.8-1.2-9.7-.3-3.5-1.9-8.6-3.4-11.3-1.4-2.1-.2-2.8.8-4.1 2-2.7 2.5-5.5 4-7.7 1.1-2 2 0 2.8 2.5 1 3 4.3 8.2 6.3 10.8 2 2.8-1.3 5.3-3 6.8-1.6 1.4-.5 4.2-.1 7 0 0 3.8 27.6 4.8 37.4 1.2 9.7-1.8 13.5-3.3 14.7 13.9 7.6 37.4 7.9 42.5 8.3 5 .3 4.2 1.3 3.5 3zm-138.8-36.9q2.1 2.1 4.8 3.8v1l-7.5 7.5h-1.5c-1.5-1-3-2.4-4.5-3.7q-2-2-3.5-4.2l.2-1.3 7.5-7.6.8.1c1.2 1.5 2.4 3 3.7 4.4zm105.2 74.1v.8l-7.3 7.5-1.5.2q-2.5-1.7-4.5-3.8-2-2-3.5-4.2l.2-1.3 7.5-7.5h.8c1 1.5 2.2 3 3.7 4.3 1.3 1.5 3 2.8 4.6 4zm44.8-17.4c-1.4 2.8-2.9 1.8-2.7-2 .3-16.7-3.2-40.1-4.2-48.1-1-7.6-2-15.8-2.8-26.8-.7-6.1.5-10.8 2.3-14.4 2-3.4 2.5.5 2.7 4.8.3 7.8 4.7 38.6 5.7 48.5 2 19.8 1 33.3-1 38zm-207.2-10c-3.7-2.4-6.8-4-8.8-5.7-2.2-1.8-2.4-5.6-.7-8 4.2-6.6 14.8-17.3 21.1-16.9 3.8.3 7.8 5 7.7 7-.4 2-4.2 8.6-6 8.6-1.7 0-1.5-5.3-7.3-6.1-2-.4-7.5 3.1-7.7 4.8-.1 2.3 5.8 8.3 13.5 9 6.1.5 10.1-.4 15.3-1.4.8-.3 1.5.2.7 1.4-.5 1-4.2 7.3-4.9 7.3-4.3.3-9.1 1.6-15.3 3.8-6.6 2.3-12.9 5.7-17.1 8.1-.8.5-1.3-.3-1.2-.8.7-1.8 1.7-4.6 2.5-6.3 1.9-1.5 6.5-4.3 8.2-4.8zm52.7-69.2c-4.2 1.7-6.2 1.7-11.3 3.5-1.2.3-2.3.2-2.5-.5-.2-1.2.8-2.2 1.8-2.7 2-1.3 15.3-7.9 15.3-8.6 0-.3-5.6-2.3-8.6-2.7-3.5-.3-6.7.4-9.8 2.2-1.4.8-2.4 2.2-3.2 3.3-.8 1.2-1.5.2-1.2-1.1.4-.9.9-2 1.2-2.9 3.2-6.5 8.8-9.1 14.8-8.8 4 .3 7.7 2.3 11.3 3.2 1.2.3 5 .6 5.2 1.8-.2 1.3-1.5 5.3-3.2 7-.5.5-1 .3-1.3.5-1.2.3-2.9 3.3-8.5 5.8zm-71.7 31.4c-3 1.4-5.6-.3 1.4-5.3 10.4-7.5 18.6-12.6 22.1-18.4 0 0-6.5-4.2-9.5-7-2.8-3 .8-11.2 3.7-14.5 7.4-8.3 10.9-2.8 11.9-1.3 3.5 7 1.4 15.8.4 18.3 0 0 2.8 2.1 3.6 3 1.2 1.1.7 3.6-.8 8.1-.5 1.5-2.2-2.7-6.2-4.5-3.1 6.5-6.6 12.2-26.6 21.6zm26.8-30.6c.3-1.1 1-7.4-2-11.3-1.8-2-3.8-2.1-6.6 2.2-.9 1.3-.9 2.7 1 3.8 1.8 1.2 7.6 5.3 7.6 5.3zm80.6 30.8c-3 1.3-5.6-.3 1.4-5.2 10.6-7.6 18.8-12.8 22.1-18.6 0 0-6.5-4.1-9.5-7-2.8-3 .8-11.1 3.8-14.4 7.3-8.3 11-2.9 11.8-1.4 3.7 7 1.5 15.8.4 18.3 0 0 3 2.2 3.8 3 1.2 1.2.5 3.7-1 8.2-.5 1.5-2.2-2.7-6.2-4.5-3.1 6.5-6.4 12.1-26.6 21.6zm26.8-30.6c.3-1.2 1-7.5-2-11.3-1.8-2-3.8-2.2-6.6 2.2-.9 1.3-.9 2.6 1 3.8 2 1.1 7.6 5.3 7.6 5.3zm72.5 181.8c2.3 10.7.2 19.4-1.3 22.8-1.4 3.3-9.2 1.2-12.3 0-4.4-1.7-7.3-3.4-8.5-4.2-1.3 3.3-2.5 6.7-3.8 9.2-1.4 2-2.1 2.2-4.1 2-2.1-.4-11.1-3.3-11.7-6.2v-.2c-5.4 4.8-15.2 8.3-32.3 5.8-4.8 1.7-8.9 2.1-10 2.1 0 0-15.6 2.7-18.5-15.8-.9-3.8-3.2-20.9-4-26.9-.8-5.8-6-42.5-6.9-47.1l2.1-7.7c.4-.6.6-1.9 1.5.4 1 2.3 10.4 67.1 10.8 71.9 1.9 16.4 15 16.2 17.3 16 15.4-.2 20.4-11.4 21.3-13.5.8-2.1 2.2-1.5 2 .4-.6 5.8-2.7 10-5.4 13.1 5.6.4 22.9-.2 27.9-13.7.2-1.3 2.3-2.1 1.7 1-.2 1.1-.6 4.6-2.7 8.1 2.7 1.3 10.6 4.6 11.4 1.5 1.3-3.5 4-11 4.4-12.3.4-1.2 2.5-1.9 2.3.2-.2.9-.8 3.4-1.7 6.3 2.1.4 11.9 2.1 15.3 1.2 2.5-.6 2-3.1 1.6-5.6s-8.5-48.7-9.1-52.5c-.7-3.1-.7-5.8-1.1-7.3-.2-1.4-1-2.9-2.3-5.2-1-2.1-.2-4.6.2-5.2.7-.8 2.5-2.7 3.8-5.6.8-1.5 1.4.2 1.9 1.6.4 1.5 3.1 5.9 4.3 7.5.9 1.1 1.5 3 1.1 3.8-.7 1.4-2.5 4.2-2.9 4.8-.5.4-.7 1.2-.5 2.9 0 0 6.9 40.4 8.2 46.4zm-85-44.9q0-.4.6-2.5c.4-1.5 1-1.9 3.1-3 2.1-.8 45.4-19.1 47.5-20.2 2.9-1.6 2.5-.4 2.1.7-.4 1-.6 1.4-1.5 2.9-.6 1.4-1.6 1.8-3.3 2.7-1.7 1-45.4 19.4-46.4 19.8-3 1.6-2.5.6-2.1-.4zm-45 96.8c-2.7 1.3-23.6 7.3-30 8.6-26.7 5.4-44.8-5.9-46.5-30.7-1.4-22.5 10.4-38.1 14.8-43.9 1.3-1.9 2.7-3.3 4-4.6-4.8-4.8-9-1.7-10-.4-1.3 1-1.9.4-1.5-1.7 2.7-9.6 6.9-12.3 14.6-13.5 7.7-1.3 13.5 2.5 14.6 3.3 3.5 2.5 1.2 7.3-.4 10.6-.7 1.3-2.3 2.3-4.4 3.6 2.1 1 3.7 2.1 4.2 2.3 19.5 6.2 42.4-4.4 43.9-5 1.3-.9-4.4-8.8-7.1-12.3 0 0 1.3-7.3 1.7-9 .4-1.4.8-1.4 1.9-.4 8.5 8.5 7.7 18.3 7.3 21.5-.9 6.8-2.3 7.7-4 8.5-14.8 7.3-27.1 7.5-31.5 7.5-16-.6-20-4.2-23.9-8.5-7.1 4.3-15.6 11.8-19 26.8-3.5 18.8 2.1 30.7 16.9 35 14.8 4.4 47.9-.6 53.5-1.2 5.5-.4 3.6 2.3.9 3.5zm-1.3-45.8q1.7 1.9 3.8 3.1l.2.8-6.3 6.3h-1.2q-1.9-1.3-3.8-3.1-1.4-1.5-2.9-3.4l.2-1.2 6.3-6.1h.6c1 1.3 1.9 2.5 3.1 3.6zm151-15.4c2.8 18.7 2.5 31.6 1.1 36.2-.8 2.7-2.3 1.9-2.3-1.9-.6-15.8-4.6-38.1-5.6-45.6-1.3-7.3-2.5-15-3.8-25.4-.8-6-.2-10.4 1.5-13.9 1.2-3.4 1.9.2 2.3 4.3.6 7.5 5.6 36.9 6.8 46.3zm-62-24 1.8-3.5c.3-.4.7-.6.9 0 1.2 4.4 1.2 7.9.4 10.8-1 2.7-1.9 4.4-5.4 5.4-2.7.7-5.9 0-7.3-2.5-1.9 4.8-5.8 6.7-9 6.3-3.9-.6-6.4-5-2.5-12.7 1.3-2.3 1.9-1.1 1.5 0-1.7 5.2.2 6.8 2.7 6.6 4.2-.2 6.5-2.5 7.3-7.9 0-.8-.4-.8 1.4-2.3 1.5-1.2 1.3-.6 1.1 1.1 0 2.3.4 4.1 1.4 5 1.9 1.4 4.2 1 6.5-1.1 0-1-.4-2.7-1-3.9-.2-.7 0-.9.2-1.3zm-70.9 53.1c-.4 1.1-.6 1.3-1.4 2.7-.6 1.5-1.7 1.9-3.3 2.8-1.7.8-26.7 11.4-27.7 11.8-3.2 1.3-2.5.4-2.3-.6.2-.2.4-1 .8-2.5.6-1.5 1.2-1.9 3.3-2.7s26.7-11.3 28.8-12.3c2.9-1.5 2.5-.2 1.8.8zm-87.2-68.1c.2-.2.4-1 .8-2.5.4-1.4 1-1.9 3.1-2.7 2.1-1 29-12.7 30.9-13.7 3.1-1.5 2.5-.2 2 .8-.4 1-.6 1.2-1.4 2.7-.6 1.5-1.7 1.9-3.4 2.7-1.6 1.1-28.9 12.9-29.7 13.3-3.2 1.5-2.7.5-2.3-.6zm205.8 164s-27.7 12.8-34 15.6c-21.9 10.5-29.6 3.5-33.3.7-1.2 3.5-2.4 7-3.5 8.6-2.8 4.2-9.4 6.1-18.2-2.1-7 8.6-18 5.8-29.1-2.3-3.8 1.4-10.3 4.2-11.9 4.9 0 0-2.6.9-5.6 1.8v.3c-4 14.6-9.8 28.2-14 32.4-17.7 18.6-47.8 2.3-50.6.4-2.8-1.8-.2-3.2 1.7-2.8 15.1 6.8 29.6 2.8 33.1 1.4 14.2-5.8 21.9-24 24.2-30-1.2.4-2.1.7-2.6.9-2.8.9-3.9-5.1-4.9-7.2-.7-2.1 0-3.1 5.2-4.2 7.6-1.9 20.7-7 26.3-9.8 4.9-2.6 3.3 3.5 3 6.3 23.1 7.7 28.2-5.8 29.6-10.3 1.4-4.6 2.8-2.8 2.6-.4q-1 5.6-2.6 10c3.5 1.4 11.7 5.8 14.5.2 1.6-3.2 2.1-7.4 2.8-10.7.9-3.3 3-3 3 .2l-.5 2.1c4.9 7 18.9 4 22.2 2.6-4.9-3.7-9.4-9.3-8.7-16.3 1-7 2.4-18.4 15.9-24.7 9.8-4 20.2 3.2 22.6 5.6 2.3 2.3 1.1 4.6-3.7 1.6-4.7-2.8-15.7 1.2-20.8 3.3-5.3 2.3-7.9 7.4-7.9 10.9 0 3.3 4.7 10 15.4 11.7 10.5 1.6 27.9-8.4 31-10.8 3.2-2.1 0 6.6-1.2 10.1zm-49.4-47.8c0-.5.2-1.4.7-3 .2-1.7.9-2.1 3.3-3.3 2.3-1.2 34.2-14.2 36.3-15.4 3.3-2.1 2.8-.4 2.3.7-.4 1.2-.4 1.4-1.4 3.3-.7 1.6-1.6 2.1-3.5 3.3-1.8 1.1-34.2 14.2-35.1 14.9-3.5 1.6-2.8.4-2.6-.5zm-76 2.8c.3-.2.5-1.2 1-2.8.4-1.6 1.1-2.1 3.7-3 2.3-1 47.8-20.1 50.1-21 3.5-1.6 2.8-.2 2.3.9-.7 1.2-.9 1.4-1.6 3.1-.9 1.6-2.1 1.8-4 2.8-1.8 1.1-48 20.2-48.9 20.7-3.5 1.4-3 .5-2.6-.7zm-52.4 47.8c.2-.3.2-1.2.5-2.8.4-1.7.9-2.1 3.2-3.5 2.1-1.2 37.5-15.9 39.6-17 3.3-2.1 2.8-.7 2.4.4-.3 1.4-.5 1.7-1.2 3.3-.7 1.9-1.6 2.3-3.5 3.5-1.6 1.1-37.5 15.8-38.4 16.5-3.3 1.9-2.8.7-2.6-.4zm96.5-27.8h.7c1.1 1.4 2.5 2.8 3.9 4q2.4 1.9 4.7 3.3l.2.7-6.5 7.9-1.4.2q-2.3-1.4-4.7-3.3l-2.3-2.3-6 7.5-1.4.2q-2.6-1.4-4.7-3.3-2.1-1.6-3.7-3.7v-1.1l6.5-8h.9c1.2 1.4 2.4 2.8 3.8 4l3.2 2.1.2-.5zm-8.3-17c1.1 1.2 2.3 2.6 3.7 3.7q2.1 1.9 4.6 3.1v.9l-6.2 7.5-1.4.2q-2.1-1.4-4.5-3-1.8-1.7-3.5-3.5v-1.4l6.3-7.5z" fill="#231f20" fill-rule="evenodd"/></svg>