<svg height="449" viewBox="0 0 252 449" width="252" xmlns="http://www.w3.org/2000/svg"><path d="m226.7 100.9c-.8 1.7-4 8.5-4 8.5s-1 0-4.6-.9c-18.1-4.1-44.6 7.8-48.4 9.5-7.4 2.8-14.5 4.8-21.3 6.3 0 0-31.2 5.5-49.9-4.7-4.3 10.6-9.8 19.6-12.9 22.9-18.4 18.9-46.6.8-49.5-1.2-2.9-1.8 0-3.4 1.8-2.8 15.4 7 30.8 3 34.1 1.7 10.6-4.3 17.4-15.3 21.2-23.4-12.1-8.3-4.5-19.7-3.5-21.3.8-1.9 1.3-1.2 1.7.6 2.3 14.1 30.1 17.8 34.1 17.9 26.5 3 57.8-10.4 60.6-11.4-23.8-9.6-40.7-4.2-42-4-1.2.3-1.4-.8-.9-1.6l5.5-8.7c3.6-3.4 31.1-4.4 31.1-4.4.5-5.5-6.1-40-6.1-40-.5-3.6-1-7.6-1.2-9.4-.3-3.3-1.8-8.4-3.4-11.1-1.2-2.1 0-2.8 1-4.1 1.8-2.5 2.4-5.3 3.8-7.5 1.3-2 2 0 2.8 2.5 1 2.8 4.3 7.9 6.3 10.6 2 2.8-1.5 5.1-3 6.6-1.7 1.5-.5 4.2-.2 7.1 0 0 3.8 27.2 4.8 36.7 1 9.6-1.9 13.2-3.3 14.4 13.6 7.6 36.8 7.9 41.9 8.2 5 .4 4.2 1.4 3.5 3zm-136.8-36.4q2.1 2.1 4.6 3.8l.2 1-7.5 7.3-1.3.1c-1.6-.9-3.1-2.3-4.5-3.6q-1.9-2-3.4-4.1l.1-1.4 7.5-7.4.8.1c1 1.4 2.2 2.9 3.5 4.2zm103.7 73v.9l-7.3 7.4-1.5.2q-2.3-1.7-4.5-3.8-1.8-1.8-3.3-4l.2-1.5 7.3-7.3h.8c1.2 1.5 2.3 3 3.6 4.3q2.2 2.2 4.7 3.8zm43.9-17c-1.2 2.6-2.7 1.6-2.5-2.2.3-16.2-3.2-39.4-4.1-47.2-1-7.6-1.9-15.6-2.9-26.3-.5-6.2.5-10.8 2.5-14.3 1.8-3.3 2.3.4 2.5 4.7.3 7.8 4.6 38.1 5.6 47.8 2 19.6 1 32.8-1.1 37.5zm-203.9-10c-3.5-2.1-6.7-3.9-8.6-5.6-2.2-1.8-2.4-5.5-.9-7.8 4.2-6.4 14.8-17 20.9-16.7 3.8.3 7.8 5 7.5 6.9-.2 1.9-4 8.5-5.8 8.5-1.7 0-1.5-5.1-7.3-6.1-2-.2-7.3 3.1-7.5 4.9-.2 2.2 5.6 8 13.3 8.6 6.1.7 9.9-.3 15-1.3.9-.1 1.5.4.7 1.5-.5.8-4 7.1-4.8 7.1-4.3.4-9 1.7-14.9 3.8-6.6 2.4-12.9 5.5-17.1 8-.6.5-1.1-.2-1-.8.7-1.7 1.7-4.5 2.5-6.3 1.7-1.3 6.3-4.2 8-4.7zm51.8-68c-4.1 1.6-5.9 1.4-11.1 3.4-1 .4-2.3.2-2.5-.6-.1-1 .9-2 1.9-2.7 1.9-1.1 15-7.6 15-8.3.2-.3-5.6-2.4-8.6-2.8-3.3-.3-6.4.5-9.6 2.3-1.2.9-2.3 2-3.1 3.2-.7 1.1-1.4.2-1-1.2.3-.8.8-2 1.1-2.8 3.2-6.3 8.6-8.9 14.6-8.4 3.8.1 7.5 2.1 11.1 2.9 1.2.4 4.8.7 5.1 1.7-.1 1.5-1.6 5.5-3.1 7-.5.5-1 .3-1.5.5-1 .3-2.7 3.3-8.3 5.8zm-70.6 30.8c-2.9 1.5-5.4-.2 1.4-5.2 10.4-7.3 18.4-12.4 21.7-18 0 0-6.3-4.2-9.3-7.1-2.8-2.9.8-11 3.6-14.1 7.5-8.3 11-2.8 11.8-1.4 3.5 7 1.3 15.6.3 17.9 0 0 2.8 2.2 3.7 3 1.1 1.3.6 3.7-.9 8.1-.4 1.5-2.1-2.6-6.1-4.4-3 6.4-6.4 11.9-26.2 21.2zm26.4-30c.3-1.2 1-7.5-1.8-11.1-1.9-2-3.8-2.2-6.7 2.1-.8 1.2-.8 2.5 1 3.7 1.9 1.1 7.5 5.3 7.5 5.3zm79.5 30.3c-3 1.3-5.5-.3 1.3-5.1 10.5-7.5 18.4-12.6 21.7-18.3 0 0-6.3-4.1-9.3-7.1-2.8-2.8.9-10.9 3.7-14.1 7.4-8.2 10.9-2.8 11.8-1.3 3.4 7 1.3 15.6.3 17.9 0 0 2.8 2.2 3.6 3 1.2 1.3.7 3.8-.8 8.1-.5 1.5-2.2-2.6-6.1-4.5-3 6.5-6.5 12-26.2 21.4zm26.3-30.1c.4-1.2 1-7.5-1.8-11.1-1.8-2-3.8-2.2-6.6 2.1-.8 1.3-.8 2.7 1 3.6 1.8 1.2 7.4 5.4 7.4 5.4zm68.4 203.2c2.1 13.4-2.6 23.7-3.7 25.4-5.8 8.2-15.9.9-17.8-.4-2.2-1.3-3.9-.2-6.5 1.1-19.1 12-34.2 10.1-37.4 9.6-17.4-1.9-18.7-23.2-19.6-29-.6-6.9-3.6-40.6-6.4-51.2-1.1-4.3.8-11.1 1.3-13.1.4-1.9 1.3-2.6 2.1.5.7 3 8 56.5 8.6 62.1 2.6 18.5 13.6 19.3 17.4 20.4 16.8 1.9 34-7.7 36.8-9.7 2.6-1.9 5.8-.2 7.1.5 1.5.6 7.3 3 11 3.4 3.4.7 3.8-4.7 3.4-7.9-.4-3.3-7.5-44.3-8-46.9-.8-5.2-1.7-8.8-1.7-9.9-.8-3.2-.8-6-1.1-7.7-.2-1.5-1.2-3.1-2.3-5.4-1.3-2.4-.2-5 .2-5.6.4-.9 2.6-2.8 3.9-6 .8-1.3 1.7.4 1.9 1.9.4 1.5 3.4 6.2 4.5 8 .9 1 1.7 3 1.3 3.8-.6 1.5-2.8 4.5-3.2 5-.4.4-.7 1.3-.4 3.2 0 0 7.5 42.6 8.6 47.9zm-126.5 3.3c-2.5 4.1-5.5 7.9-8.3 9.6-3.3 1.8-6.3 2.6-9.3 2.6 3.5 17.6-1.3 27.3-3 29.3-14.4 17.4-34.6 15.4-38.9 14.4-26.4-6.5-14-41.5-11.8-44.8 1.5-2.3 2.8-.2 2.1.9-12.4 29.9 12.9 33.5 15.5 33.5 24.9 1.3 32.9-15.7 33.8-19.1.8-3.4-8.9-22.8-11.2-26.4 0 0 1.5-9.3 2.1-10.6.5-1 1.5.2 2.6 2.2 0 0 2.2 3.9 4.3 8.2 11.6 5.5 19.3-3.7 21.9-6.9 3-3.9 5.6-10.1 14-17.7 3.7-3 10.1 0 11.6 4.8 1.7 5.1 1.7 17.2 1.5 19.1 0 1.9-1.3 5-2.3 7.3-1.1 2.4-1.3 2.2-4.1 2.2s-15.9-4.8-19.8-7.8zm148.1-10.5c2.8 18.5 2.6 31.2.9 35.7-.9 2.8-2.2 1.9-2.4-2-.4-15.4-4.5-37.4-5.8-44.7s-2.6-14.8-3.9-24.9c-.8-5.8 0-10.3 1.5-13.8 1.5-3.2 2.2.2 2.4 4.3.9 7.3 6 36.1 7.3 45.4zm-214.1-25.6c0-.4.2-1.3.4-2.8s.9-2.1 3-3.2c2.2-1.3 29.5-12.7 31.4-14 3-2.1 2.6-.6 2.2.4-.2 1.3-.5 1.6-1.1 3.3-.7 1.5-1.5 1.9-3.2 3.2-1.8 1.1-29.5 12.9-30.3 13.3-3.1 2-2.6.9-2.4-.2zm117.4-40.4c.2-.4.4-1.3.8-2.8.7-1.5 1.3-1.9 3.5-2.8 2.3-.9 34.8-14 36.9-15 3.5-1.5 2.8-.3 2.2.8-.4 1.1-.7 1.5-1.5 3-.9 1.5-1.9 1.7-3.7 2.6-1.7.9-34.8 14.4-35.9 14.8-3.2 1.3-2.8.3-2.3-.6zm-11.6 106.2c-.5 1.1-.7 1.5-1.5 3-.7 1.5-1.8 1.9-3.5 2.8-1.7 1.1-32 13.5-33.1 14-3.2 1.7-2.8.6-2.4-.5.3-.4.5-1 .9-2.8.4-1.5 1.1-1.9 3.2-2.7 2.4-1.1 32.1-13.6 34.2-14.7 3.2-1.5 2.6-.2 2.2.9zm48.1-94.8 1.9-3.7c.3-.4.7-.8.9 0 1.5 4.5 1.5 8.4.4 11.2-1 3-1.9 4.7-5.6 5.8-3 .9-6.2 0-7.7-2.6-2.1 5.2-6.2 7.1-9.7 6.7-4-.6-6.6-5.4-2.5-13.5 1.2-2.4 2.1-1.1 1.7 0-2 5.5 0 7.5 2.8 7.3 4.5-.5 6.9-3 7.5-8.6.2-.9-.4-.7 1.5-2.4 1.7-1.3 1.5-.6 1.3 1.1 0 2.6.4 4.3 1.5 5.4 1.9 1.5 4.5 1 6.9-1.3 0-.9-.5-2.6-1.1-4.1-.2-.7 0-.9.2-1.3zm-134.3 49.9q1.9 1.9 4 3.4l.3.9-6.7 6.4h-1.3q-1.9-1.3-3.9-3.2-1.7-1.7-3-3.7l.2-1 6.5-6.7h.6c1.1 1.3 2.2 2.8 3.3 3.9zm52.4 5.8c2.4 3.6 12.3 6 14.8 6.6 3.1.9-.6-6.2-2.3-9.4-1.5-3.3-4.8-3.7-8.8-1.7-1.1.6-2.4 2.3-3.7 4.5zm126.2 126.1s-27 12.7-33.2 15.4c-21.4 10.2-29.1 3.5-32.7.6-1.1 3.6-2.2 6.7-3.3 8.5-2.7 4-9.2 5.8-17.8-2.3-6.9 8.7-17.6 5.8-28.5-2.2-3.6 1.6-10 4.3-11.6 4.9 0 0-2.7.7-5.6 1.8v.2c-3.8 14.3-9.5 27.6-13.5 31.6-17.6 18.3-46.8 2.5-49.7.7-2.6-2 0-3.3 1.8-2.9 14.9 6.7 28.9 2.7 32.3 1.6 13.8-5.8 21.6-23.6 23.8-29.6-1.1.4-2.2.6-2.7.8-2.7.9-3.8-4.8-4.7-6.9-.6-2.2 0-2.8 4.9-4.2 7.6-1.8 20.5-6.7 25.9-9.5 4.9-2.5 3.3 3.3 2.8 6 22.5 7.5 27.6-5.6 29.2-9.8 1.3-4.5 2.7-2.7 2.2-.7q-.9 5.8-2.2 9.8c3.3 1.6 11.1 5.8 14 .2 1.6-3.1 2-7.1 2.9-10.2.9-3.4 2.9-2.9 2.7.2l-.2 2c4.6 6.9 18.4 3.8 21.6 2.5-4.9-3.6-9.2-9.2-8.5-16.1.9-6.6 2.4-18 15.6-24 9.3-3.8 19.8 3.1 22 5.3 2.2 2.5 1.1 4.7-3.6 1.8-4.6-2.9-15.3 1.1-20.4 3.1-5.1 2.3-7.6 7.4-7.6 10.7s4.5 9.8 14.9 11.4c10.5 1.5 27.4-8.3 30.5-10.5 3.1-2 0 6.5-1.3 9.8zm-48.3-46.7c0-.5.2-1.2.6-2.9.3-1.6.9-2 3.2-3.2 2.2-1.3 33.6-14 35.6-15.1 3.3-2 2.9-.4 2.4.7-.4 1.1-.6 1.5-1.3 3.1-.7 1.8-1.8 2.2-3.6 3.3s-33.6 13.8-34.5 14.5c-3.3 1.8-2.6.7-2.4-.4zm-74.4 2.9c.3-.5.5-1.4.9-2.9.7-1.6 1.4-2 3.6-2.9 2.4-.9 47-19.6 49.2-20.7 3.3-1.6 2.7-.3 2.2 1.1-.7 1.1-.7 1.3-1.6 2.9-.8 1.5-2 2-4 2.9-1.7.9-46.7 19.8-47.8 20.2-3.3 1.4-2.9.2-2.5-.6zm-51.1 46.7c0-.2.2-1.1.4-2.9.4-1.6.9-2 3.1-3.3 2.2-1.4 36.7-15.4 38.7-16.7 3.2-2.3 2.9-.7 2.5.6-.5 1.1-.5 1.4-1.1 3.1-.7 1.8-1.8 2.1-3.6 3.4-1.5 1.1-36.7 15.6-37.6 16.2-3.1 1.8-2.7.7-2.4-.4zm94.3-27.2h.7c1.3 1.4 2.4 2.7 3.8 3.8q2.2 1.8 4.6 3.4l.3.6-6.3 7.8h-1.5q-2.2-1.3-4.5-3.1l-2.4-2-6 7.1-1.4.2q-2.2-1.3-4.4-3.1-2-1.8-3.6-3.8v-1.1l6.5-7.8h.6c1.4 1.4 2.5 2.7 3.8 3.8l3.1 2.2.3-.4zm-8.3-16.7c1.1 1.3 2.3 2.5 3.6 3.6q2.2 1.8 4.7 3.1v.9l-6 7.3-1.4.2q-2.2-1.3-4.4-3.1-1.8-1.5-3.4-3.3v-1.3l6.3-7.4zm46.6-96.6h.9c1.1 1.1 2.3 2.4 3.6 3.5q2.2 1.9 4.5 3.2l.3.9-6.3 7.3-1.3.2q-2.1-1.3-4.3-3l-2.3-2.2-5.8 6.9-1.3.2q-2.4-1.3-4.3-3-2-1.5-3.5-3.4v-1.3l6.1-7.3h.8c1.1 1.3 2.4 2.6 3.7 3.6l3 2.2.2-.4zm-8-16.4c1.1 1.3 2.2 2.6 3.5 3.7q2.1 1.7 4.5 3v.6l-5.8 7.1-1.3.2q-2.1-1.3-4.3-2.8-1.7-1.7-3.4-3.4l.2-1.3 5.8-7.1z" fill="#231f20" fill-rule="evenodd"/></svg>