<svg height="419" viewBox="0 0 252 419" width="252" xmlns="http://www.w3.org/2000/svg"><path d="m225.8 99.4c-.7 1.7-4 8.5-4 8.5s-.8 0-4.5-1c-17.8-4.1-44.2 7.9-48.2 9.4-7.2 2.8-14.4 4.8-21 6.3 0 0-31.1 5.5-49.8-4.5-4.1 10.5-9.7 19.4-12.8 22.7-18.2 18.9-46.3.8-49.1-1.2-3-1.8-.2-3.3 1.7-2.8 15.3 6.9 30.5 3 34 1.7 10.4-4.2 17.2-15.2 21-23.2-12-8.2-4.3-19.7-3.5-21.4.9-1.6 1.4-1 1.7.7 2.4 14 29.9 17.7 33.9 17.8 26.4 3 57.6-10.3 60.2-11.3-23.5-9.5-40.4-4.2-41.7-3.8-1.2.1-1.3-.9-.8-1.9l5.5-8.5c3.5-3.5 30.9-4.3 30.9-4.3.5-5.7-6-39.7-6-39.7-.6-3.7-1.2-7.7-1.2-9.4-.4-3.5-2-8.5-3.5-11.2-1.2-2 0-2.6 1-4 1.8-2.6 2.3-5.3 3.8-7.5 1.2-2 1.9 0 2.7 2.5 1 2.9 4.3 7.9 6.3 10.5 2 2.7-1.5 5.2-3 6.7-1.6 1.3-.5 4.2-.1 6.9 0 0 3.6 27.2 4.8 36.5 1 9.5-2 13.2-3.3 14.3 13.5 7.6 36.7 8.1 41.5 8.2 5 .4 4.2 1.4 3.5 3zm-136-36.2q2.2 2.2 4.7 3.9v.8l-7.2 7.3-1.5.2q-2.3-1.7-4.5-3.7-1.8-2-3.3-4.1l.1-1.4 7.4-7.3.8.1c1 1.4 2.2 2.9 3.5 4.2zm103.1 72.6v1l-7.1 7.4h-1.5q-2.4-1.6-4.5-3.7-1.9-1.9-3.4-4l.2-1.4 7.3-7.3h.9c1 1.5 2.1 3 3.5 4.3q2.1 2.2 4.6 3.7zm43.8-17c-1.2 2.8-2.7 1.8-2.5-2 .3-16.2-3.2-39.2-4-46.9-1-7.7-2-15.7-2.9-26.4-.6-6 .5-10.5 2.4-14 1.8-3.3 2.3.3 2.5 4.5.3 7.9 4.5 37.9 5.5 47.6 2.1 19.5 1 32.7-1 37.2zm-202.8-9.9c-3.7-2.1-6.8-3.8-8.7-5.5-2.1-1.8-2.3-5.5-.8-7.8 4.2-6.4 14.7-16.9 20.9-16.5 3.6.1 7.6 5 7.3 6.8-.2 1.8-4 8.5-5.8 8.5-1.5-.1-1.4-5.2-7.2-6-2-.3-7.4 3-7.5 4.7-.2 2.3 5.6 8 13.2 8.7 6.1.6 10-.4 15-1.4 1-.1 1.5.4.6 1.5-.5.9-4 7-4.6 7.2-4.4.2-9 1.7-15 3.7-6.6 2.3-12.7 5.5-16.9 8-.7.5-1.2-.3-1-.8.7-1.7 1.7-4.6 2.5-6.2 1.7-1.5 6.2-4.2 8-4.9zm51.6-67.7c-4.2 1.8-6 1.7-11.2 3.5-1 .3-2.3.2-2.5-.5-.2-1.2 1-2.2 1.8-2.7 2-1.3 15-7.7 15.2-8.3 0-.4-5.7-2.4-8.7-2.7-3.3-.3-6.5.3-9.5 2.2-1.3.8-2.3 2-3.1 3.1-.7 1.2-1.4.2-1.1-1.1.4-.9.9-1.9 1.2-2.7 3-6.3 8.5-9 14.5-8.5 3.9.2 7.4 2.2 11 3 1.1.3 4.9.7 5.1 1.7-.2 1.3-1.5 5.3-3.2 6.8-.5.5-1 .5-1.3.5-1.1.3-2.7 3.4-8.2 5.7zm-70.3 30.9c-3 1.3-5.5-.4 1.2-5.2 10.5-7.4 18.5-12.4 21.7-18 0 0-6.4-4.2-9.2-7-2.8-3 .8-10.9 3.7-14.1 7.3-8.1 10.7-2.8 11.7-1.3 3.5 6.8 1.3 15.4.3 17.9 0 0 2.8 2 3.7 2.8 1 1.3.5 3.7-1 8-.5 1.5-2.2-2.5-6-4.3-3.1 6.3-6.6 11.8-26.1 21.2zm26.2-30.1c.4-1 1-7.2-1.8-11-1.9-2-3.9-2-6.7 2.2-.8 1.3-.8 2.6 1 3.6 1.8 1.2 7.5 5.2 7.5 5.2zm79.1 30.2c-3 1.4-5.5-.3 1.2-5.1 10.5-7.4 18.3-12.4 21.7-18.1 0 0-6.4-4.1-9.2-7-2.8-2.8.8-10.8 3.7-14 7.1-8.2 10.7-2.8 11.5-1.3 3.7 6.8 1.5 15.3.5 17.8 0 0 2.8 2 3.5 3 1.2 1.2.7 3.5-.8 7.9-.5 1.5-2.2-2.5-6-4.4-3.2 6.4-6.6 11.9-26.1 21.2zm26.2-29.8c.4-1.2 1-7.4-2-11.2-1.7-2-3.7-2-6.5 2.1-.8 1.4-.8 2.7 1 3.7 1.8 1.2 7.5 5.4 7.5 5.4zm68.7 181.6c.9 5.9-2.6 15.6-4 18.9-1.5 3.3-7.4 1.4-10.4.8-2.1-.4-5.1-2.2-6.9-3.4-1.9 1.8-4.3 3.6-7.4 5-5.3 1.9-35.6 11.7-49.3.2-3-2.2-8.3-6.1-8.5-20.7-.2-5.9-3.1-38.7-6.1-56.4-.4-2.9 1.4-5.5 1.6-6.5 1.2-3.5 2.1-1.1 2.9 1.2 3.8 9.1 6.1 57.6 6.3 60.9.2 5.3 2.8 13.2 13.2 16.3 10.2 3 27.1 1.4 41.1-4.5 4.3-2.1 8.4-5.3 9.6-6.9 1.2-1.7 2.3-1.9 1.9.6 0 1-.7 3-1.7 5.3 1.9.6 8.6 2.4 11.6 1.6 2.5-.6 2.3-4.1 1.9-6.5-.4-2.3-8.4-47.1-9.2-50.9-.6-3.1-.6-5.5-.8-7.2-.2-1.4-1.2-2.8-2.3-4.9-1.2-2-.2-4.4.2-5 .5-.9 2.3-2.7 3.7-5.5.6-1.3 1.4.2 1.8 1.8.5 1.2 3.1 5.7 4.3 7.1.8 1 1.4 2.9 1 3.5-.6 1.4-2.6 4.3-2.8 4.7-.4.4-.6 1.2-.6 2.8 0 0 8.1 41.8 8.9 47.7zm-192.4-49.7c0-.4.2-1 .8-2.5.4-1.4 1-1.8 3.1-2.8 2-.8 28.1-12 30.1-13 3.1-1.5 2.5-.3 2.1.8-.5 1-.7 1.2-1.5 2.8-.8 1.4-1.6 1.6-3.2 2.5-1.7.8-28.3 12.2-29.4 12.6-3 1.4-2.4.4-2-.4zm158.4 32.8c1.1 1 2.3 2.2 3.5 3.2q2 1.6 4.3 2.9l.2.6-5.7 6.9-1.2.2q-2.1-1.2-4.1-2.6l-2.1-2.1-5.3 6.5-1.2.2q-2-1-4-2.6-1.7-1.4-3.3-3.3l.2-1 5.5-6.9h.6c1 1 2.2 2.2 3.5 3.3l2.8 1.8v-.2l5.7-6.9zm57.6 5.9c2.5 17.5 2.3 29.5.9 33.8-.9 2.4-2.1 1.6-2.3-1.9-.4-14.8-4.3-35.4-5.5-42.3-1-6.9-2.2-14.1-3.4-23.6-.9-5.7-.2-9.8 1.4-13.1 1.2-3 1.8.2 2.2 4.1.6 6.9 5.5 34 6.7 43zm-97.1-42c.2-.4.4-1 .8-2.4s1.1-1.9 3.1-2.9c2-.8 37.5-15.9 39.3-16.9 3-1.4 2.4-.2 2 .8-.4 1.1-.6 1.3-1.2 2.7-.8 1.6-1.8 1.8-3.5 2.6-1.6 1.1-37.4 16.1-38.2 16.5-3.1 1.5-2.5.4-2.3-.4zm-27.5 16.5c.6 2.9 1.7 13.5-3 22.2-3.1 3.9-4.3 5.3-8 4.3-3-.6-7.5-2.5-9.7-4.7-6.4 6.1-15.5 6.1-22 4.7-3.3 2-7.2 3.2-12.3 3.2-3.2 0-10.7-1-17.7-9.3l-2.6 1.6c-7.5 4.9-16.1 13-19.8 29.1-3.8 20.2 2.3 33 18.2 37.7 15.8 4.7 51.7-.8 57.6-1.2 5.9-.6 3.9 2.4 1 3.6-3.1 1.5-25.5 8-32.4 9.2-28.7 5.9-48.2-6.3-49.9-32.8-1.6-24.4 11-41.1 15.7-47.4 1.6-2.1 3.1-3.7 4.5-4.9-5.1-5.3-9.8-1.8-11-.6-1 1.2-1.8.4-1.4-1.7 2.8-10.3 7.3-13.4 15.7-14.6 8.3-1.4 14.6 2.6 15.8 3.4 3.7 2.9 1.3 8.2-.6 11.7-.4 1-1.6 1.8-3.2 2.8 4.9 3.3 22.6 10.8 31.3-7.7.8-1.9 2.3-2.1 1.7.4-.2 1.2-1.1 5.1-3.3 9.3 15.1 3.9 17.9-7.7 19.1-11.4 1.5-3.8 3.1-1.6 2.7.4q-.8 3.9-2.1 7c3.3 1.6 11.2 3.4 11.2 2.6-.2-1.2-.6-9.8.3-11.8.8-2 1.8-5.1 2.4-6.3.8-1.2 1-1.8 1.8 1.2zm61.5-5.7 1.9-3.7c.2-.2.6-.6.8 0 1.2 4.3 1.2 8 .2 10.6-.8 2.7-1.7 4.3-5.1 5.1-2.7.8-5.7 0-7.1-2.2-1.9 4.7-5.7 6.5-8.8 6.1-3.9-.6-6.1-4.9-2.4-12.4 1.2-2.3 1.8-1 1.6 0-1.8 5.1 0 6.7 2.4 6.5 4.1-.2 6.3-2.5 7-7.7.2-.9-.2-.9 1.6-2.3 1.2-1 1-.4 1 1 0 2.3.4 4.1 1.4 4.9 1.7 1.4 4.1 1 6.3-1 0-1-.4-2.6-1-3.9-.2-.4 0-.8.2-1zm-63.9 49.5c-.4 1-.6 1.2-1.4 2.6-.9 1.7-1.7 1.9-3.3 2.7-1.6 1-31.6 14.2-32.6 14.6-3 1.5-2.4.5-2-.4 0-.4.2-1 .6-2.4s1-1.8 3.1-2.9c2-.8 31.5-14 33.5-15 2.9-1.4 2.5-.2 2.1.8zm110.6 108.1s-26.9 12.5-33.1 15.3c-21.4 10.3-28.9 3.4-32.6.7-.9 3.4-2.3 6.6-3.4 8.4-2.7 4.1-8.9 5.7-17.6-2-6.8 8.4-17.6 5.7-28.5-2.3-3.4 1.3-9.8 4.1-11.4 4.8 0 0-2.8.7-5.7 1.8v.2c-3.7 14.2-9.4 27.4-13.5 31.5-17.3 18.3-46.5 2.5-49.3.5-2.9-1.9-.2-3.2 1.6-2.8 14.9 6.7 28.8 2.8 32.2 1.6 13.7-5.7 21.4-23.7 23.7-29.4-1.1.4-2 .7-2.7.9-2.5.7-3.9-5-4.6-7.1-.7-2 0-2.9 5-4.1 7.3-1.8 20.4-6.8 25.6-9.6 4.8-2.5 3.2 3.5 3 6.2 22.3 7.5 27.6-5.7 29-10 1.3-4.4 2.7-2.8 2.2-.5q-.9 5.5-2.2 9.8c3.4 1.4 11.1 5.7 13.9.2 1.6-3.2 2-7.3 2.9-10.5 1-2.9 2.8-2.7 2.8.5l-.2 1.8c4.5 7.1 18.2 3.9 21.4 2.5-4.8-3.6-9.1-9.1-8.2-15.9.7-6.7 2.3-17.8 15.3-24 9.3-3.9 19.8 3 22.1 5.5 2.3 2.3 1.2 4.5-3.6 1.6-4.8-3-15.3 1.1-20.3 3.2-5.3 2-7.8 7.3-7.8 10.5 0 3.4 4.6 9.8 15.1 11.4 10.2 1.6 27.1-8.2 30.3-10.3 3.2-2.3 0 6.2-1.4 9.6zm-48.1-46.6c0-.4.2-1.1.7-2.7.2-1.6.9-2.3 3.2-3.4 2.2-1.2 33.3-13.7 35.3-15.1 3.2-1.8 2.8-.4 2.5.7-.4 1.4-.6 1.6-1.3 3.2s-1.8 2.1-3.4 3.2c-1.9 1.1-33.6 13.9-34.5 14.6-3.2 1.8-2.7.7-2.5-.5zm-74.2 2.8c.2-.2.5-1.2.9-2.8.7-1.6 1.4-2 3.7-2.9s46.8-19.4 48.8-20.6c3.4-1.6 2.8-.2 2.3 1.2-.5.9-.7 1.3-1.6 2.9-.9 1.4-2.1 1.9-3.9 2.8s-46.8 19.6-47.7 20.1c-3.4 1.6-2.7.4-2.5-.7zm-51.1 46.8c.2-.5.2-1.2.7-3 .2-1.6.9-2.1 3-3.4 2.2-1.2 36.7-15.3 38.5-16.7 3.2-2 2.8-.4 2.5.7-.4 1.1-.4 1.6-1.1 3.2s-1.8 2-3.4 3.4c-1.6 1.2-36.8 15.5-37.7 16-3.2 2-2.7.9-2.5-.2zm94.2-27.2h.7c1.2 1.4 2.3 2.7 3.7 3.9q2.3 1.8 4.8 3.2l.2.7-6.4 7.7-1.4.3q-2.2-1.4-4.5-3.2l-2.3-2.3-5.9 7.3-1.4.2q-2.5-1.4-4.6-3.2-2-1.6-3.6-3.6l.2-1.4 6.2-7.5h.9c1.1 1.3 2.3 2.7 3.6 3.8l3.2 2.1.3-.5zm-8.3-16.6c1.2 1.3 2.3 2.5 3.7 3.6q2 1.9 4.3 3.2l.3.7-6.2 7.3-1.4.2q-2-1.3-4.3-2.9-1.8-1.6-3.4-3.5l.2-1.3 5.9-7.3z" fill="#231f20" fill-rule="evenodd"/></svg>