<svg height="316" viewBox="0 0 252 316" width="252" xmlns="http://www.w3.org/2000/svg"><path d="m204 241.3c.9 6.6-3.1 18.2-4.7 22-1.7 3.8-7.8 1.5-11.4.8-2.3-.5-6-2.5-8.6-4-1.9 2.3-4.8 4.4-8.5 6.1-6.1 2.1-40.7 13.5-56.4.3-3.4-2.6-8.1-7.6-8.4-24.8-.1-8.2-2.9-40.8-4.2-46.7-1.4-5.9-2.8-12.9-.2-20.8s3.5-11.9 7-13.7 5.6-3.1 4.9.6c-.6 3.6 0 4.9-3.1 7.6-3 2.7-7.1 5.5-6.7 7.7 3.4 15.7 7.5 61.1 7.9 64.9.4 3.6 1.9 14.7 13.6 18.4 11.9 3.6 31 2.2 47.1-4.8 5.1-2.2 9.6-6 11-8s2.7-2.1 2.3.7c-.2 1.3-.8 3.8-2.3 6.7 2.1.2 11 .6 13.7.8 3 .1 2.6-4.3 2.1-7-.4-2.7-9.6-55.2-10.5-59.5-.7-3.6-.7-6.7-1-8.3-.2-1.7-1.4-3.4-2.6-5.8-1.2-2.5-.2-5.2.3-6.1.4-.8 2.7-2.9 4.2-6.3.8-1.6 1.7.4 2.2 2 .3 1.5 3.5 6.7 4.7 8.4 1 1.2 1.7 3.3 1.3 4.3-.7 1.6-3 4.8-3.4 5.4-.4.5-.7 1.4-.5 3.4 0 0 9.3 48.8 10.2 55.7zm-39.7-28h.7c1.3 1.3 2.5 2.7 4 3.9q2.3 2 4.9 3.4l.1.9-6.5 7.9-1.4.1q-2.6-1.3-4.7-3.2l-2.4-2.2-6.3 7.3-1.3.3q-2.6-1.4-4.8-3.2c-1.3-1.2-2.6-2.5-3.8-3.8l.2-1.4 6.5-7.9h.9c1.1 1.4 2.5 2.7 3.8 3.9l3.2 2.3.3-.4zm-8.6-17.4c1.2 1.2 2.4 2.6 3.8 3.7q2.3 2 4.7 3.3l.1.8-6.3 7.6-1.4.3q-2.3-1.4-4.4-3.2-2-1.7-3.7-3.6v-1.3l6.4-7.6zm-94.9-11.5q-1.8-2-3.2-4l.1-1.4 7-7 .8.2c1.1 1.4 2.1 2.7 3.5 4.1q2 2 4.4 3.5v.9l-7 7-1.4.2q-2.1-1.6-4.2-3.5zm167.8 44.8c2 18.6.9 31.2-1.1 35.6-1.1 2.6-2.4 1.7-2.4-1.9.3-15.6-2.9-37.6-3.8-44.9s-1.9-15.1-2.8-25.1c-.6-5.9.5-10.2 2.3-13.5 1.8-3.2 2.3.3 2.5 4.4.3 7.3 4.2 36.2 5.3 45.4zm-99.7-68.7c.2-.3.3-1.2.9-2.9.7-1.5 1.3-2 3.7-3s30.4-12.5 32.7-13.6c3.5-1.7 2.9-.3 2.3 1.1-.5 1-.8 1.3-1.7 3s-2 2-3.9 2.9c-2 .9-30.5 12.8-31.5 13.2-3.5 1.4-2.9.4-2.5-.7zm-21.7 121.4c-.5 1.2-.6 1.5-1.5 3.2-.8 1.7-2 2-3.8 3-1.9 1.1-33.2 13.6-34.3 14-3.5 1.7-2.9.6-2.6-.6.2-.3.5-1.1 1-2.7.4-1.7 1.2-2.2 3.5-3.2 2.4-1.1 33.1-13.6 35.4-14.6 3.5-1.9 2.9-.3 2.3.9zm53.1-110.3 2-4c.3-.4.6-.9.9 0 1.5 4.9 1.3 8.9.3 11.9-1.1 3.2-2 5-5.8 6.1-3.1.7-6.4 0-8.1-2.8-2.3 5.4-6.5 7.5-10.2 6.9-4.4-.6-7-5.5-2.6-14 1.3-2.6 2.2-1.2 1.7 0-2 5.6.2 7.8 3.1 7.5 4.5-.4 7.1-2.9 7.7-9 .2-.9-.3-.8 1.7-2.5 1.7-1.2 1.4-.6 1.4 1.3-.2 2.5.3 4.5 1.5 5.4 2 1.7 4.7 1.3 7.1-1.2.2-1-.4-2.7-1-4.4-.2-.4 0-.8.3-1.2zm-93.3 106.2c-30.4 11.4-43.2-4.3-44.9-6.4-10.3-17.2 3.4-38.3 4.6-40 1.2-1.5 2.3-.5 1.7.7-4.4 9.8-5.5 15.7-5.3 18.3 1.2 20.8 22.8 20.8 25.5 20.8 21.2.2 36.5-15.2 37.9-16.2 1.4-1.1 1.8-1.6 1.1-2.2-11.8-5.5-26.1-5-27-5.1-.9-.2-1.2-.5-.7-1.9.6-1.5 1.5-4.7 1.8-5.6 6.8-1.7 17-6.1 18.4-7.6 4-4-9.4-18.1-11.3-20.5 0 0 1.9-9.8 2.2-10.8.1-1.3.4-1.9 1.5-.8 19 20.5 10.9 37.1 9.9 39.7 0 0 5.9.5 7.9 3.5 3.3 5.2 2.6 9 2.1 11.1-2 10.5-21.6 21.5-25.4 23zm155.5-178.3c-.6 1.7-3.8 8.2-3.8 8.2s-.8 0-4.4-.9c-17.1-4-42.3 7.4-46 9-7 2.7-13.8 4.5-20.2 5.9 0 0-29.7 5.3-47.6-4.4-4 10.2-9.1 18.5-12.3 21.7-17.4 18.1-44.2 1-47-.9-2.8-2 0-3.3 1.8-2.7 14.6 6.5 29.2 2.7 32.4 1.5 10-4.1 16.6-14.4 20.2-22.2-11.5-7.9-4.2-18.9-3.5-20.4.9-1.7 1.4-1.1 1.7.6 2.1 13.4 28.7 16.9 32.4 17.1 25.2 2.8 55.1-9.9 57.7-10.8-22.6-9.2-38.7-4-39.9-3.8-1.2.3-1.2-.8-.8-1.7l5.2-8.1c3.4-3.3 29.5-4.2 29.5-4.2.6-5.4-5.8-38.1-5.8-38.1-.4-3.5-.9-7.1-1-8.9-.3-3.2-1.9-8.1-3.4-10.7-1-2 0-2.6.9-3.8 1.9-2.4 2.3-5.2 3.7-7.1 1.2-1.9 2 0 2.7 2.4.9 2.7 4.1 7.4 6 10 1.8 2.6-1.4 5-2.9 6.4-1.6 1.4-.5 4-.2 6.7 0 0 3.7 25.9 4.6 34.8 1 9-1.8 12.7-3.1 13.7 13 7.2 35 7.6 39.9 7.9 4.7.4 4 1.3 3.2 2.8zm-130.1-34.5q2.2 1.9 4.4 3.6l.2.9-7 6.9-1.4.1q-2.3-1.5-4.2-3.5-1.9-1.8-3.4-3.9l.2-1.3 7-7h.9c.9 1.4 2.1 2.9 3.3 4.2zm98.6 69.5.2.7-7 7-1.4.2q-2.3-1.5-4.3-3.5-1.8-1.8-3.3-4l.3-1.2 7-7.1.7.1c1.1 1.4 2.2 2.8 3.4 4.1 1.4 1.4 2.9 2.6 4.4 3.7zm41.8-16.3c-1 2.6-2.4 1.7-2.4-2 .3-15.6-2.9-37.6-3.8-45-.9-7.3-1.8-14.9-2.7-25.1-.6-5.8.4-10.2 2.2-13.5 1.9-3.1 2.3.4 2.5 4.4.4 7.4 4.2 36.2 5.3 45.6 2 18.4.9 31-1.1 35.6zm-193.9-9.6c-3.5-2-6.4-3.6-8.2-5.2-2.2-1.8-2.3-5.3-.8-7.6 3.8-6.1 13.8-16.1 19.8-15.8 3.6.3 7.4 4.7 7.1 6.7-.1 1.7-3.8 8.1-5.6 7.9-1.4 0-1.4-4.9-6.8-5.6-1.9-.3-7 2.9-7.2 4.6-.1 2.1 5.5 7.6 12.6 8.2 5.8.6 9.6-.3 14.3-1.2.9-.2 1.4.1.8 1.3-.6.8-4 6.7-4.6 6.9-4.1.3-8.6 1.5-14.3 3.5-6.2 2.2-12.1 5.3-16.1 7.7-.8.3-1.2-.3-1.1-.9.6-1.5 1.7-4.3 2.3-5.9 1.7-1.4 6.1-4 7.8-4.6zm49.3-64.8c-4 1.7-5.7 1.7-10.7 3.4-.9.4-2.1.3-2.3-.5-.1-1.1.9-2 1.7-2.6 2-1.2 14.5-7.3 14.5-7.9 0-.3-5.4-2.3-8.3-2.6-3.1-.3-6.2.3-9.1 2.1-1.2.8-2.3 1.9-3 3.1-.6 1.1-1.4.1-.9-1.2.3-.8.7-1.9 1-2.6 2.9-5.9 8.2-8.5 13.9-8.2 3.6.3 7 2.1 10.6 3 .9.2 4.6.6 4.7 1.5-.1 1.4-1.3 5.2-2.9 6.6-.6.4-1 .4-1.3.6-.9.1-2.6 3-7.9 5.3zm-67.3 29.5c-2.7 1.4-5.1-.3 1.2-4.8 10.1-7.2 17.7-11.9 20.9-17.4 0 0-6.1-3.9-8.8-6.7-2.8-2.7.7-10.3 3.5-13.4 6.8-7.9 10.2-2.7 11.1-1.2 3.3 6.6 1.3 14.6.3 17.1 0 0 2.7 1.9 3.5 2.7 1 1.2.6 3.5-.8 7.7-.6 1.4-2.1-2.5-5.9-4.2-2.9 6.1-6.1 11.4-25 20.2zm25.3-28.6c.3-1 .9-7-2-10.6-1.7-1.9-3.5-2-6.2 2.1-.8 1.2-.8 2.4.9 3.5 1.8 1.1 7.3 5 7.3 5zm75.4 28.8c-2.7 1.3-5.1-.3 1.4-4.9 9.9-7.1 17.5-11.9 20.7-17.3 0 0-6.1-4-8.8-6.7-2.8-2.8.7-10.4 3.5-13.4 7-7.9 10.2-2.6 11.1-1.2 3.3 6.5 1.3 14.7.3 17 0 0 2.7 2 3.5 2.9 1 1.1.6 3.3-.8 7.6-.6 1.4-2.1-2.6-5.9-4.3-2.9 6.1-6.1 11.4-25 20.3zm25.3-28.6c.3-1.1.9-7-2-10.7-1.7-1.8-3.5-2-6.2 2.2-.8 1.2-.8 2.4 1 3.5 1.7 1 7.2 5 7.2 5z" fill="#231f20" fill-rule="evenodd"/></svg>