<svg height="336" viewBox="0 0 354 336" width="354" xmlns="http://www.w3.org/2000/svg"><path d="m272.9 97.9c-.6 1.6-3.7 8.2-3.7 8.2s-.9 0-4.5-.8c-17.4-4.1-43 7.5-46.8 9-7 2.8-13.9 4.8-20.5 6.1 0 0-30 5.4-48.3-4.4-3.9 10.3-9.3 18.8-12.4 22-17.8 18.4-44.9 1-47.7-1-2.7-1.8-.1-3.3 1.7-2.8 14.9 6.7 29.7 2.9 33 1.6 10.2-4.1 16.7-14.7 20.3-22.5-11.6-8-4.1-19.2-3.2-20.7.8-1.8 1.3-1.1 1.6.7 2.1 13.6 29.1 17.1 32.8 17.2 25.7 2.8 55.9-10.1 58.7-11-23-9.1-39.3-3.9-40.6-3.7-1.3.1-1.3-.9-.8-1.8l5.2-8.2c3.5-3.3 30.1-4.3 30.1-4.3.5-5.4-5.9-38.6-5.9-38.6-.5-3.6-1-7.4-1.2-9-.3-3.5-1.8-8.2-3.3-10.9-1.1-1.9-.1-2.6.9-3.9 1.9-2.5 2.4-5.3 3.7-7.4 1.2-1.8 2 .2 2.7 2.5.9 2.8 4.2 7.7 6.2 10.3 1.8 2.6-1.5 4.9-3 6.4-1.6 1.5-.4 4.1-.1 6.7 0 0 3.6 26.3 4.6 35.5s-1.8 12.8-3.1 14c13.1 7.2 35.4 7.7 40.4 8 4.9.3 4.1 1.2 3.2 2.8zm-132-35.1q2.2 2.1 4.6 3.7v.9l-7 7-1.5.2q-2.3-1.7-4.3-3.6-1.8-1.8-3.3-4l.2-1.3 7.1-7h.8c1 1.3 2.1 2.8 3.4 4.1zm100.2 70.4v1l-7.1 7-1.5.2q-2.1-1.6-4.2-3.6-1.8-1.8-3.3-3.9l.2-1.4 7.2-7.2.6.2c1.2 1.5 2.3 2.8 3.6 4.1q2 2.1 4.5 3.6zm42.3-16.4c-1.1 2.6-2.4 1.6-2.4-2 .3-15.9-3-38.1-4-45.6-.8-7.4-1.8-15.1-2.6-25.5-.6-6.1.5-10.3 2.3-13.8 1.8-3.1 2.3.4 2.5 4.5.3 7.5 4.4 36.7 5.4 46.3 2 18.8.8 31.7-1.2 36.1zm-196.8-9.7c-3.5-2-6.6-3.6-8.4-5.3-2.1-1.8-2.3-5.2-.8-7.5 4.1-6.4 14.1-16.6 20.2-16.1 3.6.2 7.4 4.8 7.2 6.6s-3.9 8.2-5.7 8.2c-1.5 0-1.4-4.9-6.9-5.9-2-.2-7.1 3.1-7.3 4.7-.1 2.2 5.5 7.7 12.8 8.4 6 .5 9.7-.3 14.5-1.3 1-.2 1.5.3.8 1.3-.6 1-3.9 7.1-4.6 7.1-4.3.3-8.8 1.6-14.6 3.6-6.4 2.3-12.3 5.2-16.4 7.7-.7.5-1.2-.2-1-.8.7-1.7 1.6-4.5 2.5-6.1 1.6-1.3 6-3.9 7.7-4.6zm50.1-65.7c-4.1 1.7-5.8 1.5-10.9 3.3-1 .5-2.1.3-2.3-.5-.1-1 .8-2 1.7-2.4 1.9-1.4 14.6-7.6 14.7-8.3 0-.3-5.5-2.3-8.3-2.6-3.3-.3-6.4.5-9.4 2.1-1.1.9-2.1 2-2.9 3.2-.7 1.1-1.5.1-1-1.2.3-.8.6-1.8 1-2.6 3.1-6.1 8.3-8.7 14.1-8.2 3.8.1 7.2 2 10.8 2.9 1 .2 4.6.5 4.8 1.7-.2 1.3-1.5 5.1-3 6.5-.5.5-1 .5-1.3.5-1 .4-2.6 3.3-8 5.6zm-68.3 29.9c-2.8 1.3-5.3-.3 1.3-4.9 10.1-7.2 17.9-12.2 21-17.6 0 0-6.1-4.1-8.9-6.9s.7-10.5 3.5-13.6c7-7.9 10.5-2.6 11.3-1.2 3.4 6.6 1.3 15 .3 17.3 0 0 2.8 2.1 3.6 2.9 1 1.2.5 3.5-.8 7.7-.6 1.5-2.1-2.6-5.9-4.4-3.1 6.4-6.2 11.7-25.4 20.7zm25.6-29.1c.3-1.1 1-7-2-10.8-1.6-1.8-3.6-2-6.2 2.1-.9 1.4-.9 2.7.9 3.7 1.7 1.1 7.3 5 7.3 5zm76.6 29.3c-2.7 1.3-5.2-.4 1.4-5 10-7.2 17.7-12.1 21-17.5 0 0-6.1-4-9.1-6.9-2.7-2.8.9-10.5 3.7-13.6 7-7.9 10.5-2.7 11.3-1.2 3.3 6.6 1.3 14.9.3 17.2 0 0 2.8 2.2 3.5 3 1.1 1.1.6 3.4-.9 7.7-.5 1.5-2.1-2.6-5.9-4.4-2.9 6.4-6.2 11.6-25.3 20.7zm25.7-29.1c.1-1.1.8-7.1-2-10.7-1.8-1.9-3.6-2.1-6.4 2-.7 1.3-.8 2.6 1 3.6 1.8 1.2 7.4 5.1 7.4 5.1zm104.2 152.4s6.6 40 6.9 61.2c.5 15.4-8.2 19.6-11.6 20.2-10.4 1.8-15.6-3.4-16.6-5.2-.5-1.2-2.3-3.2-4.3-5.3-5.6 3.9-30.5 17.7-45 3.5-1.1 3.6-2.4 7-3.6 8.8-2.8 4.3-9.4 6.1-18.5-2.3-7.4 9-18.6 6.1-30.1-2.4-3.8 1.6-10.5 4.6-12.1 5 0 0-2.8 1-6 2v.3c-3.9 15-9.8 28.9-14.1 33.2-18.5 19.2-49.2 2.6-52.2.7-2.9-2-.2-3.6 1.8-3 15.6 6.9 30.4 2.8 33.8 1.5 14.7-5.9 22.7-24.8 25.2-30.9-1.4.4-2.2.7-2.8.8-2.7.9-4.1-5-5-7.3-.6-2.3.2-3.2 5.3-4.3 7.9-2 21.3-7.2 27.1-10 5.1-2.8 3.4 3.4 3.1 6.2 23.7 7.9 29.1-5.7 30.5-10.3 1.5-4.8 2.8-3 2.5-.7q-1 5.9-2.5 10.4c3.5 1.4 11.9 6 14.8.1 1.7-3.3 2.2-7.5 3-10.8 1-3.5 3.1-3.1 2.9.3-.1.8-.3 2.3-.8 4.3 4.9 3.1 19.9 10 36.6-.8l-1.6-1.2c-7.1-4.4-13.6-3.9-16.3-2.5-2.9 1.9-1.9-3.1-.5-5.2 13-20.5 35.7-7.9 38.3-3.8 1.3 2.1 2.1 8.1-6.6 14.3l1.2.7c11.8 6.5 18.7.8 19.7-.5 1.1-1.5-7.6-64.2-8.2-69-.7-3.6-1-7.5-1.2-9.4-.3-3.2-2.3-7.8-3.9-10.6-1.2-2 0-2.7 1-4 1.9-2.6 2.4-3.7 3.9-6 1.2-1.8 2 .1 2.8 2.6.8 2.8 4.3 7.4 6.2 10 1.8 2.8-1.8 5.6-3.2 7.1-1.7 1.4-1.2 1.9-1 4.7 0 0 .6 4.3 1.1 7.6zm-167.6 34.3c-3 1.3-5.4-.3 1.1-4.9 10.2-7.3 17.9-12.2 21-17.8 0 0-6-3.9-8.8-6.7s.8-10.5 3.4-13.6c7.3-7.9 10.5-2.7 11.4-1.3 3.4 6.7 1.3 15.1.3 17.4 0 0 2.8 1.9 3.6 2.8 1.1 1.3.7 3.6-.8 7.8-.5 1.5-2.2-2.6-5.9-4.4-3 6.2-6.3 11.7-25.3 20.7zm25.4-29.1c.4-1.1 1-7.2-1.8-10.8-1.8-1.8-3.8-2-6.4 2.1-.8 1.3-.8 2.5 1 3.6 1.8 1.2 7.2 5.1 7.2 5.1zm164.4-12.6c-.8-7.1 0-12.3 1.8-16.3 1.6-3.7 2.3.4 2.6 5.1.7 8.9 5.8 43 7.1 54.2 2.6 22 2.1 37.1.3 42.5-1 3.1-2.5 2-2.5-2.3-.3-18.5-4.4-44.6-5.7-53.5-1.2-8.7-2.5-17.7-3.6-29.7zm-221.2 107.9c-17.5 7.3-39.9 2.6-42 2.1-4.6-1.2-2.6-4.1 1.1-3.5 40.4 5.5 56.2-24.3 58.7-32l.3-1.9c-7.2 1.4-14.5 1.6-17.1.8-10.3-3.3-8.4-18.9.2-29.1 8.5-10.5 16.9 6.3 18.2 9.5 9.2 23.2-4.3 39.3-5.6 41.3-4.1 5.4-8.4 10.5-13.8 12.8zm15.1-45.7c-1.9-3.8-4.9-6.7-6.9-8.4-3.7-3.2-7.2 1.5-7.8 3.5-2.2 6.7 9.1 5.6 11.6 5.4q1.5-.2 3.1-.5zm-43 20.9c-14.6 17.4-34.8 15.4-39.4 14.4-26.6-6.6-14-41.9-11.8-45.1 1.6-2.5 2.8-.4 2.3.8-12.8 30.2 12.8 33.8 15.4 34 25.3 1.3 33.3-16 34.2-19.4 1-3.5-8.9-23.2-11.4-26.8 0 0 1.7-9.3 2.2-10.5.5-1.3 1.6 0 2.8 2.2 0 0 7 12.1 8.5 18.7 4.1 19-1 29.5-2.8 31.7zm130.5-83.4c-4.1 1.8-5.7 1.6-10.8 3.4-1 .3-2.1.2-2.3-.5-.2-1 .8-2 1.6-2.6 2-1.2 14.7-7.4 14.8-8.1 0-.3-5.6-2.3-8.3-2.6-3.3-.3-6.5.3-9.4 2.1-1.2.9-2.1 2-3 3.2-.6 1-1.4.1-.9-1.2.1-.8.6-1.8.9-2.6 3-6.1 8.4-8.7 14.2-8.4 3.7.3 7.2 2.2 10.6 3 1.2.3 4.8.6 5 1.6-.2 1.3-1.5 5.3-3 6.7-.5.5-1 .4-1.3.5-1 .4-2.6 3.2-8.1 5.5zm84.4 104.5c-.5 1.4-.8 1.5-1.6 3.3-.8 1.7-2 2-3.9 3.1-2 1-33.5 14.7-34.5 15-3.6 1.6-3 .5-2.5-.5 0-.5.3-1.3.8-3 .5-1.6 1.2-2.1 3.6-3.1 2.5-1.1 33.4-14.6 35.7-15.7 3.6-1.7 2.9-.2 2.4.9zm-269.9-102.1c-3.4 1.7-2.9.5-2.5-.6.2-.4.4-1.4.9-3s1.3-2.1 3.6-3.1c2.4-1 41-17.6 43.3-18.7 3.5-1.7 2.8-.2 2.3 1-.5 1.3-.6 1.4-1.6 3.2-.8 1.7-2 2-4 3-1.9 1.1-40.8 17.7-42 18.2zm27.3 14.1q2.1 2.2 4.6 3.8v.8l-7.1 7.1-1.5.2q-2.3-1.7-4.2-3.7-1.9-1.8-3.3-3.9l.1-1.3 7.1-7.1h.8c1 1.5 2.1 2.8 3.5 4.1zm164.6 14h.9c1.3 1.5 2.4 2.8 3.9 3.9q2.5 2 4.9 3.5l.2.8-6.6 8.1-1.5.3q-2.4-1.5-4.7-3.3l-2.5-2.5-6.2 7.6-1.5.3q-2.6-1.5-4.8-3.3c-1.4-1.1-2.6-2.4-3.7-3.7v-1.5l6.7-7.9.8-.2q1.7 2.2 4 4l3.2 2.4.2-.5zm-8.7-17.5c1.3 1.3 2.5 2.6 4 3.7q2.1 1.9 4.7 3.3l.2.9-6.6 7.7-1.3.1q-2.5-1.3-4.6-3.1-2-1.6-3.6-3.6v-1.3l6.6-7.7z" fill="#231f20" fill-rule="evenodd"/></svg>