<svg height="512" viewBox="0 0 417 512" width="417" xmlns="http://www.w3.org/2000/svg"><path d="m305.5 98.5c-.6 1.5-4 8.3-4 8.3s-.6 0-4.3-1c-17.7-3.9-43.4 7.7-47 9.2-7.4 2.8-14.1 4.6-20.8 6.1 0 0-30.3 5.5-48.6-4.6-4 10.4-9.5 19-12.6 22.4-17.7 18.3-45.2.9-48-1-2.7-2.1 0-3.3 1.9-2.7 14.9 6.7 29.6 2.7 33 1.5 10.4-4.3 16.8-15 20.8-22.6-12-8.3-4.3-19.3-3.7-20.8.9-1.8 1.5-1.2 1.8.6 2.2 13.5 29.4 17.1 33.1 17.1 25.6 3.1 56.2-10 59-11-23.3-9.1-39.5-3.9-40.7-3.6-1.5.3-1.5-.9-.9-1.9l5.2-8.2c3.6-3.4 30.2-4.3 30.2-4.3.6-5.5-5.8-38.8-5.8-38.8-.6-3.7-1.2-7.4-1.2-9.2-.3-3.4-1.8-8.2-3.4-11-1.2-1.8 0-2.4 1-4 1.8-2.4 2.4-5.2 3.6-7.3 1.3-1.8 1.9.3 2.8 2.7.9 2.8 4.3 7.7 6.1 10.1 1.8 2.8-1.5 5.2-3.1 6.4-1.5 1.6-.3 4.3 0 7.1 0 0 3.7 26.3 4.6 35.4 1.2 9.5-1.8 13.2-3 14.1 13.1 7.3 35.7 8 40.6 8.3s4 1.2 3.4 2.7zm-133-35.5q2.1 2.2 4.6 3.7v.9l-7 7.4h-1.6q-2.1-1.6-4.2-3.7-1.9-1.8-3.4-4l.3-1.2 7-7.3.9.3c1 1.2 2.2 2.7 3.4 3.9zm100.9 71v.9l-7 7.3h-1.6q-2.1-1.5-4.3-3.6-1.8-1.9-3.3-4l.3-1.2 7-7.4.6.3c1.3 1.3 2.5 2.8 3.7 4q2.1 2.1 4.6 3.7zm42.8-16.5c-1.2 2.7-2.8 1.8-2.8-2.2.3-15.9-3-38.2-3.9-45.8-1-7.4-1.9-15.3-2.8-25.7-.3-5.8.6-10.4 2.5-13.8 1.8-3 2.4.3 2.4 4.6.3 7.7 4.6 37 5.5 46.5 1.8 18.9.9 31.8-.9 36.4zm-198.4-9.8c-3.4-1.9-6.4-3.7-8.3-5.2-2.1-1.8-2.4-5.5-.9-7.7 4-6.4 14.4-16.5 20.2-16.2 3.7.3 7.6 4.9 7.3 6.8-.3 1.8-3.9 8.2-5.5 8.2-1.5-.3-1.5-5.2-7-6.1-2.1-.3-7.3 3.1-7.3 4.9-.4 2.1 5.5 7.6 12.8 8.6 5.8.3 9.8-.7 14.7-1.6.9 0 1.2.3.6 1.6-.6.9-4 7-4.6 7-4.3.3-8.9 1.5-14.7 3.7-6.4 2.1-12.5 5.2-16.5 7.6-.6.6-1.2-.3-.9-.9.6-1.5 1.5-4.3 2.4-5.8 1.6-1.6 6.2-4.3 7.7-4.9zm50.4-66.1c-3.9 1.6-5.8 1.6-10.7 3.4-1.2.3-2.4.3-2.4-.6-.3-.9.9-1.8 1.5-2.4 2.1-1.3 14.7-7.7 15-8.3 0-.3-5.5-2.4-8.6-2.4q-4.9-.7-9.1 2.1c-1.3.6-2.5 1.8-3.1 3.1-.9.9-1.5 0-1.2-1.3.3-.9.9-1.8 1.2-2.7 3.1-6.1 8.3-8.6 14.1-8.3 3.9.3 7.3 2.2 11 3.1.9.3 4.6.6 4.9 1.5-.3 1.5-1.6 5.2-3.1 6.7-.6.6-.9.3-1.5.6-.9.4-2.5 3.1-8 5.5zm-68.8 30c-2.7 1.5-5.2-.3 1.6-4.9 10.1-7.3 17.7-12.2 21.1-17.7 0 0-6.2-4-9.2-6.7-2.8-2.8.9-10.7 3.7-13.8 7-7.9 10.4-2.7 11.3-1.2 3.3 6.7 1.5 15 .3 17.4 0 0 2.7 2.1 3.6 2.8 1.3 1.2.7 3.6-.9 7.9-.3 1.5-2.1-2.7-5.8-4.6-3 6.4-6.4 11.9-25.7 20.8zm25.7-29c.3-1.3 1.2-7.4-1.8-11-1.8-1.9-3.7-1.9-6.4 2.1-.6 1.2-.6 2.4.9 3.7 1.8 1.2 7.3 5.2 7.3 5.2zm77.4 29.3c-2.8 1.2-5.5-.3 1.2-4.9 10.1-7.3 18-12.2 21.1-17.7 0 0-6.1-4-8.9-7-2.7-2.8.6-10.4 3.7-13.5 7-8.2 10.4-2.7 11.3-1.5 3.4 6.7 1.2 15.3.3 17.4 0 0 2.8 2.1 3.7 3.1.9 1.2.6 3.3-.9 7.6-.7 1.5-2.2-2.4-6.2-4.3-2.7 6.4-6.1 11.6-25.3 20.8zm25.6-29.3c.4-1 1-7.1-1.8-10.7-1.8-1.9-3.7-2.2-6.4 2.1-.9 1.2-.9 2.5.9 3.7 1.8.9 7.3 4.9 7.3 4.9zm96.6 221.2c-.6 1.5-2.4 6.1-3.3 8-15.9-2.5-35.2 6.4-44.1 11.6-17.7 11-25.9 11.6-33.3 10.7-12.2-1.6-17.4-12.6-19.8-25.4-2.5-12.5-6.2-57.8-10.4-74-1-3.3 1.8-11 2.7-12.8.9-1.9 1.8.3 2.5 4 .9 3.6 9.4 73 10 76.7 6.8 41.6 54.8 8.2 55.7 7.3-34.6-8.2-38.5-1.8-39.8-.9-.9.9-1.5.6-1.2-1.2.3-1.5 2.5-7.4 4.3-9.5 6.1-5.2 24.8-2.4 25.7-5.5.3-4.9-7.1-42.2-7.7-45.9-.9-3.6-1.5-7.3-1.8-9.1-.3-3.4-2.4-7.7-4.3-10.4-1.2-1.9 0-2.5.9-4 1.9-2.4 2.2-3.7 3.4-6.1 1.2-1.8 2.1 0 3.1 2.4.9 2.8 4.5 7.1 6.4 9.8 2.1 2.5-1.5 5.5-3.1 7.1q-.3.6-.3 2.7c1.5 7.6 5.8 29 7.4 35.8 1.8 8.2.6 21.1 0 23.2 20.7 4.9 43.1 3.1 45.5 3.1 2.5-.3 2.1.9 1.5 2.4zm-123.2 24.8c-1.5.3-21.1 6.4-29.9 4.9-2.8-.6-2.8-8-2.8-10.1 0-2.2 1.9-1.2 3.7-.6 4 1.2 21.4-3.4 28.4-4.9 1.9-.6 1.9-2.5 1.2-3.7-7.6-17.1-18-20.8-20.7-21.7l.3-9.5 1.5-1.2c11.3 2.4 18.3 15.6 19.9 18.6 4.9 10.7 2.4 23.6 1.8 25.1-.6 1.9-1.8 2.5-3.4 3.1zm141.9-41.3c2.7 22.3 2.1 37.3.3 42.8-.9 3.1-2.5 2.1-2.5-2.4-.3-18.7-4.5-45-5.8-53.5-1.2-8.9-2.4-18.1-3.6-30.3-1-7 0-12.2 1.8-16.2 1.5-4 2.1.3 2.8 5.2.6 8.9 5.8 43.1 7 54.4zm-122-76.4c.3-.3.6-1.2.9-3.1.6-1.5 1.2-2.1 3.7-3 2.4-1.3 30.9-13.8 33-15 3.7-1.5 3.1-.3 2.5 1.2-.4 1.2-.7 1.5-1.6 3.1-.9 1.8-2.1 2.1-4 3-1.8 1.2-30.8 13.8-31.7 14.4-3.7 1.5-3.1.6-2.8-.6zm.6 133c-.3 1.2-.6 1.5-1.5 3-.9 1.9-1.8 2.2-4 3.1-1.8 1.2-36.1 16.5-37 17.1-3.6 1.5-3 .3-2.7-.6.3-.6.3-1.5.9-3.1.6-1.8 1.2-2.1 3.7-3.3 2.4-1 36-16.2 38.2-17.2 3.6-1.8 3-.6 2.4 1zm-62-71.3c-.7 4.3-1.6 8-1.9 8.9l-1.8.3c-5.5-9.2-14.7-6.1-18.4-3.7-3.6 2.5-11.3 7.1-16.8 17.8-1.5 2.7-2.4 5.8 2.8 8.2 5.2 2.8 11.3 3.4 20.2 1.5 3-.6 13.4-2.7 10.4 12.6-.7 2.4-13.5 27.2-47.4 28.4-9.8.3-28.5-15.2-30.3-33.2-1.2-15 4-14.2 4.9-16.6 1.8-5.8 4.9-5.8 4.6-4-.3 2.1-.6 2.1-.6 2.1v.4c-.9 2.1-8.9 23.8.3 32.1 7.3 6.1 23.5 16.8 53.8-2.8 4.3-2.8 8.5-6.4 9.2-7.3.9-1 2.7-3.7-6.2-1.9-1.8.3-16.2 3.7-23.5-3-1.5-1.3-5.5-5.5-1.8-16.5 1.2-4.6 10.7-30.6 30.8-31.5 3.7-.3 12 4.3 11.7 8.2zm235.1 181.7c9.4 23.2-4 39.4-5.5 41.6-4 5.5-8.3 10.4-13.8 12.8-17.7 7.3-40 2.4-42.5 2.1-4.6-1.2-2.4-4.2 1.2-3.6 40.7 5.5 56.6-24.5 59-32.1l.3-1.9c-7.3 1.6-14.6 1.6-17.1.6-10.4-3-8.5-18.9 0-29.3 8.9-10.4 17.1 6.4 18.4 9.8zm-4 8.5c-2.1-3.9-5.2-6.7-7.3-8.5-3.7-3.4-7.1 1.5-7.7 3.3-2.1 6.8 9.2 5.5 11.6 5.5zm9.5-61.4c-.6 1.2-.9 1.5-1.8 3.1-.9 1.8-2.2 2.1-4 3-2.1.9-33.9 14.1-34.9 14.7-3.6 1.5-3 .3-2.7-.9.3-.3.6-1.3 1.2-2.8.3-1.5 1.2-2.1 3.7-3 2.4-1.3 33.6-14.1 36.1-15.3 3.6-1.6 2.7 0 2.4 1.2zm-94.2-2.4s6.8 40.3 7.1 61.7c.3 15.6-8.6 19.6-11.9 20.2-10.4 1.8-15.6-3.4-16.6-5.2-.6-1.2-2.4-3.1-4.2-5.2-5.8 4-30.9 17.7-45.6 3.4-.9 3.6-2.4 7-3.3 8.8-3.1 4.3-9.8 6.1-19-2.4-7.3 9.1-18.3 6.4-30-2.2-3.9 1.6-10.7 4.3-12.5 4.9 0 0-2.7.9-5.8 2.2v.3c-4 15-10.1 29-14.4 33.3-18.3 19.3-49.5 2.7-52.2.6-3.1-1.8-.4-3.7 1.8-3.1 15.6 7.1 30.6 3.1 33.9 1.6 14.7-5.8 23-24.8 25.1-31.2q-1.8.6-2.8.9c-2.4.9-3.9-5.2-4.9-7.3-.6-2.2 0-3.1 5.2-4.3 8-2.1 21.8-7.3 27.3-10.1 5.2-2.7 3.6 3.7 3.3 6.4 23.9 8 29.1-5.8 30.6-10.7 1.5-4.6 3-2.7 2.7-.6q-.9 6.1-2.4 10.4c3.4 1.5 11.6 6.1 14.7.3 1.5-3.3 2.1-7.6 3-11s3.1-3 2.8.3c0 .9-.3 2.5-.6 4.3 4.9 3.1 19.8 10.4 37-.6l-1.9-1.2c-7-4.6-13.7-4-16.2-2.5-3 1.8-2.1-3.3-.6-5.2 13.2-20.8 35.8-7.9 38.5-4 1.2 2.2 2.2 8.3-6.7 14.4l1.2.6c11.9 6.7 19 .9 19.9-.6 1.2-1.2-7.6-64.5-8.3-69.1-.6-3.6-1.2-7.6-1.2-9.5-.3-3.3-2.4-7.9-4-10.7-.9-2.1 0-2.7 1-3.9 2.1-2.8 2.7-4 3.9-6.1 1.3-1.9 2.2 0 2.8 2.4.9 3.1 4.6 7.6 6.4 10.4 1.8 2.4-1.8 5.5-3.4 7-1.5 1.2-1.2 1.9-.9 4.6 0 0 .6 4.3 1.2 7.7zm-168.7 34.5c-3.1 1.2-5.5-.3 1.2-4.9 10.1-7.3 18.1-12.2 21.1-17.7 0 0-6.1-4-8.9-7.1-3-2.7.7-10.3 3.4-13.4 7.3-8.3 10.7-2.8 11.3-1.5 3.7 6.7 1.6 15.3.6 17.4 0 0 2.8 2.1 3.4 3 1.2 1.3.6 3.4-.9 7.7-.3 1.5-1.9-2.5-5.8-4.3-3.1 6.4-6.4 11.6-25.4 20.8zm25.7-29.3c.3-1 .9-7.1-2.2-10.7-1.5-1.9-3.6-2.2-6.1 2.1-.9 1.2-.9 2.4.9 3.7 1.9.9 7.4 4.9 7.4 4.9zm165.4-12.6c-1-7.3 0-12.5 1.8-16.5 1.5-3.7 2.1.3 2.4 5.2.7 8.9 5.9 43.4 7.4 54.4 2.4 22.3 2.1 37.6.3 42.8-1.2 3.4-2.5 2.2-2.8-2.1-.3-18.7-4.2-45-5.5-53.8-1.2-8.9-2.4-18.1-3.6-30zm-222.6 108.5c-17.7 7.4-40.3 2.5-42.5 2.2-4.6-1.2-2.7-4 1.2-3.4 40.7 5.2 56.6-24.4 59-32.4l.3-1.8c-7.3 1.5-14.6 1.5-17.1.6-10.4-3.1-8.5-19 0-29 8.9-10.7 17.1 6.1 18.4 9.4 9.4 23.6-4 39.8-5.5 41.6-4 5.5-8.3 10.7-13.8 12.8zm15-45.8c-1.8-4-4.9-6.7-6.7-8.6-4-3.3-7.4 1.6-8 3.7-2.1 6.4 9.2 5.5 11.6 5.2q1.6 0 3.1-.3zm-43.1 20.8c-14.7 17.7-35.2 15.6-39.8 14.7-26.9-6.8-14-42.2-11.9-45.6 1.5-2.4 2.8-.3 2.5.9-12.9 30.3 12.8 34 15.6 34.3 25.3 1.2 33.3-16.2 34.2-19.6s-8.9-23.2-11.3-26.9c0 0 1.5-9.5 2.1-10.7.3-1.2 1.6.3 2.8 2.1 0 0 7 12.6 8.5 19 4 19.2-.9 29.6-2.7 31.8zm131.1-83.8c-3.9 1.8-5.8 1.5-10.7 3.4-.9.3-2.1.3-2.4-.6-.3-1 .9-1.9 1.8-2.5 1.9-1.2 14.7-7.6 14.7-8.2 0-.3-5.5-2.2-8.3-2.5q-4.8-.6-9.4 2.2c-1.3.6-2.2 1.8-3.1 3-.6.9-1.2 0-.9-1.2q.4-1.4.9-2.8c3.1-6.1 8.6-8.5 14.4-8.2 3.6.3 7 2.1 10.7 3 1.2.3 4.6.7 4.9 1.6 0 1.5-1.6 5.2-3.1 6.7-.3.6-.9.3-1.2.6-.9.3-2.8 3.1-8.3 5.5zm85 105.2c-.3 1.2-.6 1.5-1.5 3.3-.9 1.6-2.1 1.9-4 3.1-1.8.9-33.6 14.7-34.8 15.3-3.4 1.5-2.8.3-2.5-.9q0-.5.9-2.8c.6-1.8 1.3-2.1 3.7-3.3 2.5-1 33.6-14.4 35.8-15.6 3.6-1.9 3-.3 2.4.9zm-271.5-102.7c-3.6 1.5-3 .3-2.4-.7 0-.3.3-1.2.6-3 .6-1.5 1.2-2.2 3.7-3.1 2.4-1.2 41.3-17.7 43.7-18.9 3.4-1.6 2.8-.3 2.1.9-.3 1.2-.6 1.5-1.5 3.4-.9 1.8-2.1 2.1-4 3-1.8.9-41.2 17.7-42.2 18.4zm27.6 14q1.8 2.2 4.2 3.7v.9l-7 7.3h-1.5q-2.2-1.5-4.3-3.6-1.8-1.9-3.4-4l.3-1.2 7.1-7.1h.9c1.2 1.3 2.1 2.8 3.7 4zm165.7 14.1h.6c1.2 1.5 2.4 2.7 3.9 4q2.5 2.1 5.2 3.6v.9l-6.7 8-1.5.3q-2.5-1.5-4.6-3.4l-2.4-2.4-6.5 7.6-1.5.3q-2.4-1.5-4.6-3.3-2.1-1.9-4-4v-1.2l6.8-8h.9c1.2 1.3 2.4 2.8 4 4l3.3 2.1v-.3zm-8.5-17.7c1.2 1.2 2.4 2.5 3.9 3.7q2.2 1.8 4.6 3.3l.3 1-6.7 7.6-1.2.3q-2.5-1.5-4.6-3.4-2.1-1.5-3.7-3.6v-1.3l6.5-7.6z" fill="#231f20" fill-rule="evenodd"/></svg>