<svg height="512" viewBox="0 0 422 512" width="422" xmlns="http://www.w3.org/2000/svg"><path d="m308.4 100.8c-.8 1.8-4 8.7-4 8.7s-.9 0-4.6-.9c-18.2-4.3-44.5 7.9-48.6 9.6-7.2 2.6-14.4 4.6-21.1 6.1 0 0-31.5 5.7-50.3-4.7-4 10.7-9.5 19.7-12.7 22.9-18.5 19-46.8 1.1-49.7-.9-2.6-2 0-3.5 2-2.9 15.3 6.9 30.7 2.9 34.1 1.7 10.4-4.3 17.4-15.3 21.1-23.4-12.1-8.4-4.3-19.9-3.4-21.4.8-2 1.4-1.1 1.7.6 2.3 14.2 30 17.6 34.1 17.9 26.6 2.9 57.8-10.4 60.7-11.5-23.7-9.6-40.8-4.1-41.9-3.8-1.5.3-1.5-.8-.9-1.7l5.5-8.7c3.5-3.5 30.9-4.3 30.9-4.3.6-5.8-6-40.2-6-40.2-.6-3.7-.9-7.5-1.2-9.2-.3-3.5-1.7-8.7-3.5-11.3-1.1-2 0-2.6.9-4.1 2-2.6 2.6-5.4 4-7.5 1.2-2 2.1 0 2.6 2.3 1.2 2.9 4.7 8.1 6.4 10.7 2 2.9-1.4 5.2-2.9 6.7-1.7 1.4-.6 4.3-.3 7.2 0 0 3.8 27.2 4.9 36.7 1.2 9.5-2 13.3-3.1 14.5 13.5 7.5 36.7 7.8 41.9 8.1 4.9.2 4 1.4 3.4 2.8zm-137-36.1q2.1 2 4.7 3.8v.8l-7.3 7.3-1.4.3q-2.3-1.8-4.6-3.8-1.8-2-3.5-4l.3-1.5 7.5-7.5.6.3c1.1 1.4 2.3 2.9 3.7 4.3zm103.8 72.8v1.2l-7.2 7.2h-1.5q-2.3-1.4-4.6-3.4-1.7-2.1-3.5-4.4l.3-1.1 7.5-7.5h.6c1.2 1.4 2.3 3.1 3.8 4.3q2 2.3 4.6 3.7zm43.9-17c-1.1 2.9-2.6 1.7-2.6-2 .6-16.5-2.9-39.6-4-47.4-.9-7.5-2-15.6-2.6-26.3-.9-6.1.3-10.7 2.3-14.2 1.7-3.5 2.3.3 2.6 4.6.3 7.8 4.3 38.2 5.5 48 2 19.4.8 32.7-1.2 37.3zm-204-9.8c-3.8-2.3-6.9-4.1-8.7-5.5-2.3-2-2.3-5.5-.8-8.1 4-6.4 14.7-17.1 20.8-16.5 3.7 0 7.8 4.9 7.5 6.9-.3 1.8-4.1 8.4-5.8 8.4-1.5 0-1.5-5.2-7.2-6-2.1-.3-7.5 3.1-7.5 4.9-.3 2.3 5.7 7.8 13.2 8.6 6.1.6 9.9-.2 15.1-1.4.8 0 1.4.3.6 1.4-.3.9-4.1 7.3-4.7 7.3-4.3.3-8.9 1.7-15 3.7-6.6 2.3-13 5.5-17 8.1-.9.3-1.2-.3-.9-.8.6-1.8 1.4-4.7 2.3-6.4 1.7-1.5 6.4-4.1 8.1-4.6zm51.7-68.2c-4 1.7-5.8 1.4-11 3.4-1.1.3-2.3.3-2.6-.5 0-1.2.9-2.1 1.8-2.6 2.3-1.5 15.3-7.8 15.3-8.4 0-.3-5.5-2.6-8.7-2.9q-4.9-.3-9.5 2.3c-1.5.9-2.3 2-3.2 3.2-.9 1.1-1.4.3-1.2-1.2.3-.8.9-2 1.2-2.6 3.2-6.3 8.7-9.2 14.7-8.7 3.8.3 7.3 2.1 11 3.2 1.2 0 4.9.6 5.2 1.5-.3 1.4-1.4 5.5-3.2 6.9-.5.6-.8.6-1.4.6-.9.3-2.6 3.2-8.4 5.8zm-70.5 30.9c-2.9 1.4-5.5-.3 1.2-5.2 10.4-7.2 18.5-12.4 21.9-18.2 0 0-6.3-4.1-9.2-7-2.9-2.8.6-10.9 3.4-14.1 7.6-8.4 11-2.9 11.9-1.5 3.5 7 1.4 15.6.3 18.2 0 0 2.9 2.1 3.7 2.9 1.2 1.2.6 3.8-.8 8.1-.6 1.5-2.3-2.6-6.1-4.6-3.2 6.6-6.6 12.1-26.3 21.4zm26.3-30.1c.3-1.1 1.2-7.5-1.7-11.2-2.1-2.1-4.1-2.1-6.7 2.3-.8 1.1-.8 2.6.9 3.7 2 1.2 7.5 5.2 7.5 5.2zm79.8 30.4c-3.2 1.4-5.8-.3 1.1-5.2 10.4-7.5 18.5-12.5 21.7-18.2 0 0-6.4-4.1-9.2-7-2.9-3.1.8-11 3.7-14.1 7.2-8.4 10.7-2.9 11.6-1.5 3.7 7 1.4 15.6.5 17.9 0 0 2.9 2.4 3.5 3.2 1.2 1.2.9 3.5-.9 7.8-.2 1.8-2-2.6-6-4.3-2.9 6.3-6.4 11.8-26 21.4zm26.3-30.1c.3-1.1.8-7.5-2.1-11.3-1.7-2-3.7-2-6.3 2.1-.9 1.4-.9 2.6.9 3.7 1.7 1.2 7.5 5.5 7.5 5.5zm70.5 219.6c.9 7.2-3.1 19.3-4.9 23.4-1.7 4-8.1 1.4-11.8.5-2.6-.2-6.4-2.6-9-4-2.3 2.3-5.2 4.6-8.9 6.4-6.4 2.3-43.1 14.1-59.6.2-3.4-2.6-8.4-7.8-8.9-26 0-8.6-2.9-52.6-4.4-58.9-1.4-6.1-2-13.3.3-20.3 1.8-3.4 2.3-1.4 2.6.9 4.1 21.7 7.3 73.7 7.5 77.8.3 4 2.1 15.6 14.5 19.3 12.4 4.1 32.4 2.6 49.4-4.9 5.2-2.3 10.1-6.4 11.6-8.4 1.4-2 2.9-2.3 2.3.9 0 1.1-.9 4-2.3 6.9 2 .3 11.5.6 14.4.9 3.2 0 2.6-4.3 2-7.2-.2-2.9-9.8-58.1-10.9-62.7-.6-3.8-.6-7-.9-9-.3-1.7-1.5-3.5-2.9-6.1-1.2-2.6-.3-5.5.3-6.3.6-.9 2.9-2.9 4.6-6.7.6-1.4 1.8.3 2 2 .6 1.8 3.8 7.3 5.2 9 .9 1.4 1.8 3.5 1.2 4.3-.6 1.8-2.9 5.2-3.5 5.8-.3.6-.8 1.5-.5 3.8 0 0 9.8 51.1 10.6 58.4zm-38.4-26.1h.9c1.4 1.5 2.6 2.9 4 4.1q2.6 2 5.2 3.5l.3.8-6.9 8.4-1.5.3q-2.6-1.4-4.9-3.5l-2.6-2.3-6.6 7.8-1.5.3q-2.6-1.4-4.9-3.5-2.3-1.7-4-4l.3-1.5 6.9-8h.9c1.1 1.4 2.6 2.8 4 4l3.2 2.3.3-.3zm-12.5-19.6c1.5 1.1 2.6 2.6 4.1 3.7q2.3 2.1 4.9 3.5l.3.9-6.7 8.1-1.4.2c-1.7-1.1-3.2-2.3-4.9-3.4q-2-1.8-3.8-3.8v-1.4l7-7.8zm-99.2-9.3q-2-2-3.4-4l.3-1.5 7.2-7.2h.9c1.1 1.5 2.3 2.9 3.7 4.3q2 2.1 4.6 3.8v.9l-7.5 7.5h-1.4q-2.3-1.8-4.4-3.8zm74-31.5c0-.3.3-1.1.9-2.9.6-1.7 1.4-2.3 3.7-3.4 2.6-1.2 31.5-14.5 33.9-15.6 3.7-1.8 3.1-.3 2.6 1.1-.6 1.2-.9 1.5-1.8 3.2-.8 1.7-2 2.3-4 3.2-2 1.1-31.5 14.4-32.7 15-3.4 1.7-3.2.6-2.6-.6zm30.9 11.6 2.4-4.4c0-.2.5-.8.8 0 1.5 5.3 1.5 9.3.3 12.8-1.1 3.1-2 4.9-6.1 6-3.1.9-6.6 0-8.6-2.9-2 5.8-6.7 7.8-10.4 7.3-4.7-.6-7.5-5.5-2.9-14.8 1.4-2.6 2.3-1.1 1.7 0-2 6.1.3 8.1 3.2 8.1 4.9-.3 7.5-3.2 8.4-9.5 0-.9-.6-.9 1.7-2.6 1.7-1.2 1.5-.6 1.5 1.4-.3 2.6.2 4.7 1.4 5.8 2 1.5 4.9 1.2 7.5-1.4 0-1.2-.3-2.9-1.1-4.7 0-.5 0-.8.2-1.1zm-100.5 118.8c-35 12.1-49.4-5.8-51.2-8.4-11.3-20 4.9-43.9 6.4-45.7 1.1-1.7 2.6-.6 1.7.9-5.2 11-6.6 17.9-6.3 20.8.8 24 25.4 24.3 28.6 24.3 24.2.8 41.9-16.2 43.6-17.7 1.7-1.1 2.3-1.7 1.2-2.3-13-6.6-29.5-6.3-30.7-6.6-.8-.3-1.4-.6-.6-2 .6-1.8 1.8-5.2 2.1-6.4 8.1-1.7 19.6-6.6 21.4-8.4 4.6-4.3-10.4-20.8-12.5-23.7 0 0 2.3-11 2.6-12.4.3-1.2.6-1.7 1.8-.6 21.4 24 11.8 42.5 10.4 45.4 0 0 6.9.9 8.9 4.3 3.8 6.1 2.9 10.4 2.3 12.7-2.6 12.2-25.1 24-29.7 25.8zm167-66.2c3.2 22.8 2.9 38.4 1.2 43.9-1.2 3.5-2.6 2.3-2.9-2.3-.6-19.1-5.2-46.2-6.7-55.2-1.4-9-2.9-18.2-4.3-30.9-1.2-7.2-.3-12.5 1.4-16.8 1.8-4 2.4.3 2.9 5.2.9 9.3 6.7 44.5 8.4 56.1zm-125.7 67.9c-.6 1.4-.9 1.7-1.7 3.5-.9 1.7-2.1 2-4.1 3.1-2 1.2-29.2 15.1-30 15.7-3.8 1.4-3.2.2-2.9-.9.3-.3.6-1.2 1.1-2.9.3-1.7 1.2-2.3 3.8-3.5 2.3-.8 28.9-14.7 31.2-15.9 3.8-1.7 3.2-.3 2.6.9zm205.9 102.4c9.5 24-4 40.7-5.8 42.8-4 5.5-8.4 10.7-14.1 13.3-18.2 7.5-41.4 2.6-43.7 2-4.6-1.2-2.6-4.3 1.5-3.5 41.6 5.5 58.1-25.1 60.7-33.2l.3-2c-7.6 1.4-15.1 1.4-17.7.8-11-3.4-8.9-19.6 0-30.3 9-10.7 17.7 6.6 18.8 10.1zm-4.3 8.7c-2.1-4.1-5.2-7-7.3-8.7-3.7-3.5-7.2 1.4-8 3.5-2.1 6.9 9.5 5.7 12.1 5.5zm9.5-63.3c-.5 1.1-.5 1.4-1.7 3.1-.9 1.8-2 2.4-4 3.2-2.1 1.2-34.7 14.8-35.9 15.1-3.7 1.7-3.2.5-2.6-.6 0-.6.3-1.5.9-3.2s1.1-2 3.7-3.2c2.6-.8 34.7-14.4 37.3-15.6 3.8-1.7 2.9 0 2.3 1.2zm-96.8-2.3s6.9 41.6 7.2 63.2c.6 16.2-8.6 20.6-12.1 21.1-10.7 1.8-16.2-3.7-17.3-5.4-.3-1.2-2.4-3.2-4.4-5.5-5.8 4-31.5 18.5-46.5 3.7-1.2 3.5-2.6 7.2-3.8 9-2.9 4.6-9.8 6.3-19.3-2.3-7.5 9.2-19.1 6.3-31.2-2.6-3.8 1.7-10.7 4.9-12.5 5.5 0 0-2.9.8-6 1.7v.6c-4.1 15.3-10.4 30-14.8 34.4-19 19.9-51.1 2.6-54 .5-3.2-2-.3-3.7 1.7-3.1 16.2 7.2 31.5 3.1 35.3 1.7 15-6.4 23.4-25.7 25.7-32.1q-1.7.6-2.6.9c-2.9.8-4.3-5.2-5.2-7.8-.9-2.3 0-2.9 5.5-4.4 8.1-2 22.2-7.5 28-10.4 5.2-2.9 3.5 3.8 3.2 6.7 24.6 8.1 30.1-6.1 31.5-11 1.7-4.9 3.2-2.9 2.9-.6q-1.2 6.1-2.6 10.7c3.5 1.8 12.1 6.4 15 .3 1.8-3.5 2.3-7.8 3.2-11.3 1.2-3.4 3.2-3.1 3.2.3 0 .9-.3 2.6-.9 4.4 5.2 3.1 20.5 10.7 38.2-.9l-1.8-.9c-7.5-4.6-14.4-4.3-17-2.6-3.2 1.8-2.1-3.4-.6-5.5 13.6-21.4 37-8.1 39.6-4 1.4 2.3 2.3 8.4-6.7 14.7l1.2.9c12.4 6.6 19.4.9 20.5-.6 1.2-1.4-7.8-66.5-8.7-71.4-.5-3.7-.8-7.8-1.1-9.8-.3-3.5-2.3-8.1-4.1-11-1.1-2 0-2.9 1.2-4 1.7-2.9 2.6-4.1 4-6.4 1.2-2 2.1.3 2.6 2.6 1.2 2.9 4.7 7.8 6.7 10.4 2 2.9-1.7 5.8-3.5 7.5-1.7 1.5-1.1 2.1-.8 5 0 0 .5 4.3 1.1 7.8zm-174 35.5c-2.9 1.4-5.5-.3 1.5-5.2 10.4-7.5 18.5-12.4 21.7-18.2 0 0-6.4-4.1-9.3-6.9-2.9-3.2.9-11 3.8-14.2 7.2-8.4 10.7-2.9 11.5-1.4 3.8 6.9 1.5 15.6.6 17.9 0 0 2.9 2.3 3.5 3.1 1.1 1.2.8 3.5-.9 7.9-.3 1.7-2-2.6-6.1-4.4-2.9 6.4-6.3 11.9-26.3 21.4zm26.6-30.1c.3-1.1.9-7.5-2-11.2-1.7-2-3.8-2-6.6 2-.6 1.4-.9 2.6 1.1 3.8 1.7 1.1 7.5 5.4 7.5 5.4zm170.2-13.2c-.8-7.3 0-12.8 2.1-16.8 1.7-4.1 2.3.3 2.6 5.2.5 9.2 6 44.8 7.5 56.1 2.6 22.8 2 38.7.3 44.2-1.2 3.2-2.6 2-2.6-2.3-.3-19.4-4.7-46.3-5.8-55.5-1.5-9-2.6-18.5-4.1-30.9zm-229.1 111.8c-18.2 7.5-41.4 2.6-43.7 2.3-4.6-1.1-2.6-4.3 1.5-3.7 41.6 5.7 58.1-25.2 60.7-33l.2-2c-7.5 1.4-15 1.4-17.6.6-11-3.2-8.9-19.4 0-30.1 9-10.7 17.6 6.4 19.1 10.1 9.2 24-4.3 40.5-6.1 42.5-4 5.8-8.4 11-14.1 13.3zm15.6-47.1c-2.1-4.1-5.2-7.2-7.3-9-3.7-3.1-7.2 1.8-8 3.8-2.1 6.9 9.5 5.8 12.1 5.5q1.7-.3 3.2-.3zm-44.5 21.4c-15.4 18.2-36.2 16.2-40.8 15-27.7-6.9-14.7-43.3-12.4-46.8 1.7-2.6 2.9-.3 2.3.9-13 31.2 13.6 34.9 16.2 35.2 26.3 1.5 34.4-16.5 35.5-20.2.9-3.5-9.2-24-11.8-27.8 0 0 1.7-9.5 2.3-10.7.3-1.4 1.4 0 2.6 2.1 0 0 7.5 12.7 9 19.6 4 19.7-1.2 30.7-2.9 32.7zm135.2-86.4c-4 1.7-6.1 1.7-11.3 3.4-.8.6-2.3.3-2.3-.5-.3-.9.9-2.1 1.8-2.6 2-1.2 15-7.6 15.3-8.4 0-.3-5.8-2.3-8.7-2.6q-5.2-.6-9.8 2.3c-1.2.6-2.3 2-2.9 3.2-.9 1.1-1.4 0-1.2-1.2.3-.9.9-2 1.2-2.9 3.2-6.3 8.7-8.9 14.5-8.7 4 .3 7.5 2.4 11.2 3.2 1.2.3 4.9.6 4.9 1.8 0 1.4-1.4 5.4-2.9 6.9-.5.3-1.1.3-1.4.6-1.2.3-2.6 3.2-8.4 5.5zm87.6 108.3c-.6 1.5-.9 1.8-1.7 3.5-.9 1.7-2.1 2-4.1 3.2-2 1.1-34.7 15-35.8 15.6-3.8 1.7-2.9.6-2.6-.6 0-.3.3-1.4.8-3.2.6-1.7 1.5-2 3.8-3.1 2.6-1.2 34.7-15.1 37-16.2 3.7-1.8 3.2-.3 2.6.8zm-279.8-105.7c-3.7 1.7-3.1.5-2.6-.6 0-.6.3-1.5.9-3.2s1.2-2 3.8-3.2c2.6-1.1 42.4-18.2 44.7-19.3 3.8-1.8 2.9-.3 2.6.8-.5 1.5-.8 1.8-1.7 3.5-1.1 1.7-2.3 2-4 3.2-2.1.8-42.5 18.2-43.7 18.8zm28.4 14.7q2 2 4.6 3.8v.8l-7.5 7.3-1.5.2q-2.3-1.7-4.3-3.7-2-2-3.5-4.1l.3-1.4 7.2-7.2h.9c1.2 1.4 2.3 2.9 3.8 4.3zm170.5 14.5h.8c1.5 1.4 2.6 2.8 4.1 4q2.6 2 5.2 3.5l.3.8-7 8.4-1.4.3q-2.6-1.4-4.9-3.5l-2.6-2.3-6.7 7.8-1.4.3q-2.6-1.4-4.9-3.5-2.3-2-4.1-4l.3-1.4 6.7-8.1h1.1c1.2 1.1 2.3 2.6 4.1 4l3.1 2.3.3-.3zm-8.9-18.5c1.1 1.5 2.6 2.9 4 4.1q2.3 2 4.9 3.5v.8l-6.6 7.8-1.5.3q-2.3-1.4-4.6-3.2-2-1.7-3.7-3.7v-1.5l6.6-8.1z" fill="#231f20" fill-rule="evenodd"/></svg>