<svg height="512" viewBox="0 0 417 512" width="417" xmlns="http://www.w3.org/2000/svg"><path d="m305 102.3c-.9 1.8-3.9 8.5-3.9 8.5s-.9 0-4.5-1c-17.9-4.2-44.5 7.9-48.1 9.4-7.3 2.7-14.5 4.9-21.2 6.4 0 0-30.8 5.4-49.6-4.6-4.2 10.6-9.7 19.4-12.7 22.7-18.4 18.8-46.3.9-49.3-1.2-2.7-1.8 0-3.3 1.8-2.7 15.5 6.6 30.6 3 33.9 1.5 10.6-4.2 17.2-15.1 21.2-23.3-12.1-8.2-4.6-19.3-3.7-21.2.9-1.8 1.6-1.2 1.9.6 2.1 14.3 29.9 17.9 33.8 17.9 26.3 3 57.2-10.3 60.2-11.2-23.6-9.7-40.5-4.2-41.7-3.9s-1.2-.9-.9-1.8l5.4-8.5c3.6-3.3 30.9-4.6 30.9-4.6.6-5.4-6.1-39.6-6.1-39.6-.6-3.6-.9-7.5-1.2-9.3-.3-3.4-1.8-8.2-3.3-10.9-1.2-2.1 0-2.7.9-4.3 1.8-2.4 2.4-5.1 3.9-7.5 1.2-1.8 1.8.3 2.7 2.7.9 2.7 4.3 7.9 6.1 10.6 2.1 2.7-1.2 5.1-3 6.6-1.6 1.2-.4 4 0 7 0 0 3.6 26.9 4.8 36.3.9 9.4-1.8 13.3-3.3 14.2 13.6 7.6 36.6 8.2 41.4 8.5 5.1.3 4.2 1.2 3.6 2.7zm-135.8-36q2.2 2.1 4.6 3.6l.3.9-7.6 7.3-1.2.3q-2.4-1.5-4.5-3.6-1.8-2.2-3.3-4.3v-1.2l7.5-7.2h.6c1.2 1.5 2.4 2.7 3.6 4.2zm102.9 72.3v.9l-7.3 7.5h-1.2q-2.4-1.5-4.5-3.6-1.9-2.1-3.4-4.2v-1.2l7.3-7.3h.9c1.2 1.5 2.4 3 3.6 4.2q2.1 2.2 4.6 3.7zm43.8-17c-1.2 2.8-2.7 1.9-2.7-1.8.3-16.3-3-39.3-3.9-46.8-1-7.9-2.2-15.8-2.8-26.4-.6-6 .3-10.5 2.1-14.2 1.9-3.3 2.5.6 2.8 4.6.3 7.8 4.5 37.8 5.4 47.7 2.1 19.4.9 32.4-.9 36.9zm-202.6-9.6c-3.6-2.2-6.7-4-8.5-5.5-2.1-2.1-2.4-5.7-.9-7.8 4.3-6.7 14.5-17 20.9-16.7 3.6.3 7.6 4.9 7.2 7-.3 1.8-3.9 8.4-5.7 8.1-1.5 0-1.5-4.8-7.3-5.7-1.8-.3-7.2 3-7.5 4.5 0 2.5 5.7 8.2 13.3 8.8 6 .6 10-.3 14.8-1.2 1.2-.3 1.5 0 .9 1.2-.6.9-4.2 7.3-4.8 7.3-4.3.3-9.1 1.5-14.8 3.6-6.7 2.4-12.7 5.4-17 8.2-.6.3-1.2-.3-.9-1 .6-1.8 1.5-4.5 2.4-6.3 1.6-1.5 6.1-3.9 7.9-4.5zm51.4-67.8c-3.9 1.8-5.7 1.5-10.9 3.7-1.2.3-2.4 0-2.4-.7-.3-1.2.9-2.1 1.8-2.7 1.8-1.2 14.8-7.5 14.8-8.1 0-.3-5.4-2.5-8.4-2.8q-4.9-.6-9.7 2.2c-1.2.9-2.1 1.8-3 3.3-.6.9-1.5 0-.9-1.5.3-.6.6-1.8 1.2-2.4 3-6.4 8.4-9.1 14.2-8.8 3.9.3 7.5 2.4 11.2 3.3.9 0 4.8.6 4.8 1.5 0 1.5-1.5 5.5-3 7-.6.3-.9.3-1.2.3-1.2.3-2.7 3.3-8.5 5.7zm-69.8 30.9c-3.1 1.2-5.8-.3 1.2-5.2 10.2-7.5 18.1-12.4 21.4-18.1 0 0-6.3-3.9-9-7-3.1-2.7.6-10.9 3.6-13.9 7.2-8.1 10.6-2.7 11.5-1.5 3.6 7 1.5 15.4.3 17.8 0 0 3 2.2 3.6 3.1 1.2 1.2.9 3.6-.6 7.8-.6 1.5-2.4-2.4-6-4.2-3.4 6.4-6.7 11.8-26 21.2zm26-30c.3-1.2.9-7.2-1.9-11.2-1.8-1.8-3.9-1.8-6.6 2.5-.6 1.2-.9 2.4 1.2 3.6 1.8 1.2 7.3 5.1 7.3 5.1zm-13.6 175.7c-2.7 1.2-5.1-.3 1.2-4.8 9.7-7 17.3-11.8 20.6-17 0 0-6-3.9-8.8-6.6-2.7-2.7.6-10.3 3.4-13.3 6.9-7.9 10.2-2.7 10.8-1.2 3.4 6.3 1.6 14.5.6 16.9 0 0 2.5 1.8 3.4 2.7.9 1.2.6 3.4-.9 7.6-.3 1.5-2.2-2.4-5.8-4.2-2.7 6-6 11.2-24.5 19.9zm24.8-28.1c.3-1.2.9-7-1.8-10.6-1.8-1.8-3.6-1.8-6.3 2.1-.6 1.2-.6 2.5.9 3.4 1.8 1.2 7.2 5.1 7.2 5.1zm67.7-117.6c-3 1.5-5.5-.3 1.2-5.2 10.6-7.2 18.4-12.4 21.8-17.8 0 0-6.4-4.2-9.4-7-2.7-3 .9-10.9 3.6-14.2 7.3-8.1 10.9-2.7 11.8-1.2 3.3 7 1.2 15.4.3 17.8 0 0 2.7 2.2 3.6 3.1 1.3 1.2.7 3.6-.9 7.8-.6 1.5-2.1-2.7-6-4.5-3 6.7-6.4 12.1-26 21.2zm26.3-29.7c.3-1.2.9-7.5-2.1-11.2-1.8-1.8-3.7-2.1-6.4 2.2-.9 1.2-.9 2.7.9 3.6 1.8 1.2 7.6 5.4 7.6 5.4zm82 213.8c2.4 14.8-2.7 26.3-3.9 28.1-6.4 9.4-17.9 1.3-20 0-2.4-1.5-4.5-.6-7.2 1-21.5 13.3-38.4 11.4-41.8 10.8-19.6-2.1-21.1-26-22-32.6-.6-7.6-4.3-45.1-7.3-57.2-.9-4.8.9-12.4 1.5-14.5.3-2.4 1.5-3 2.4.3s8.8 63.5 9.7 69.6c3 20.5 15.1 21.7 19.4 23 19 2.1 38.1-8.8 41.1-10.9 3-2.2 6.3-.3 8.2.3 1.5.9 8.1 3.6 12.1 4.2 3.9.6 4.2-5.4 3.9-9.1-.6-3.6-8.5-49.6-9.1-52.3-.6-5.7-1.8-10-1.8-11.2-.9-3.9-.9-6.9-1.2-8.7-.3-1.6-1.5-3.4-2.7-6.1-1.2-2.4-.3-5.4.3-6.3.6-.6 2.7-3.1 4.5-6.4.6-1.8 1.5.3 2.1 1.8.3 1.8 3.7 7.3 5.2 9.1.9 1.2 1.5 3.3 1.2 4.2-.9 1.8-3.1 5.2-3.7 5.8-.3.3-.6 1.5-.6 3.3 0 0 8.8 47.8 9.7 53.8zm23.9-11.2c3 19.4 2.4 32.4.9 37.2-1.2 2.8-2.7 1.8-2.7-1.8-.6-16.3-5.1-39-6.7-46.6-1.2-7.5-2.7-15.4-3.9-26-.9-6.3-.3-10.8 1.5-14.2 1.5-3.6 2.4.3 2.7 4.3.9 7.8 6.7 37.5 8.2 47.1zm-105.8-71c.3-.3.6-1.2 1.2-3 .6-1.9 1.2-2.2 3.6-3.1 2.7-1.2 31.8-13.3 34.2-14.5 3.6-1.5 3 0 2.4 1.2s-.9 1.5-1.8 3.3c-.9 1.6-2.1 1.9-4 3.1-2.1.9-31.7 13.3-32.9 13.6-3.6 1.5-3 .6-2.7-.6zm-10.6 127.9c-.6 1.2-.9 1.5-1.5 3.3-.9 1.8-2.1 2.1-4 3.3-2.1 1.3-35 14.9-36.2 15.5-3.7 1.8-3.1.6-2.8-.6.3-.3.6-1.3.9-3.1.6-1.8 1.2-2.4 3.7-3.3 2.4-1.2 35-14.8 37.2-16 3.6-2.1 3-.6 2.7.9zm47.5-59 6.9-8.1h.6c1.5 1.2 2.7 2.7 4.3 3.9q2.4 2.1 5.1 3.6v.9l-6.7 8.2-1.5.3q-2.7-1.5-5.1-3.6l-2.4-2.2-6.4 7.6-1.5.3q-2.7-1.5-4.8-3.3-2.1-1.8-4-4v-1.5l7-8.1h.9c1.2 1.5 2.4 2.7 3.9 3.9l3.4 2.4zm.6-20.2q2.4 1.8 5.1 3.3v.9l-6.7 7.9-1.2.3q-2.4-1.6-4.8-3.4-2.1-1.8-3.6-3.9v-1.2l6.6-7.9h.6zm-89.2 64.7c-2.2-.3-5.2-2.1-7.9-3.7-11.8 13-33.9 15.5-36.6 16.1 0 0-39.3 6.6-49-16.4-4.5-11.7 3-23.8 4.6-25.4 1.2-1.8 2.1-.6.9 1.6-5.2 7.8-.9 30.2 32.9 30.2 36.9.3 49.6-18.5 51.4-21.8s3.4-.3 3.1 1.2q-1 4.6-2.8 8.2c3.4.3 10.6.6 13 .6 3.1.3 2.8-4.2 2.1-7.3-.3-2.7-9.9-57.4-10.8-61.9-.6-4-.6-7-.9-8.8s-1.6-3.3-3.1-6.1c-1.2-2.4 0-5.4.6-6.3.3-.9 2.8-3 4.3-6.4.9-1.8 1.8 0 2.1 1.8.6 1.9 3.6 7 5.1 8.8.9 1.5 1.8 3.6 1.2 4.6-.6 1.5-3 4.8-3.3 5.7-.6.3-.9 1.2-.6 3.3 0 0 9.7 51.1 10.6 58.1.9 7.2-3.3 19-4.8 23-1.9 4.2-8.2 1.8-12.1.9zm-40.3-56.9q2.5 1.8 4.9 3.4l.3.9-6.7 7.8-1.5.3q-2.4-1.5-4.5-3.3-2.1-1.8-4-3.6l.3-1.5 6.4-7.9h.9c1.2 1.2 2.4 2.7 3.9 3.9zm-.6 20.3 6.7-8.2h.9c1.5 1.5 2.7 3 4.2 4.3q2.4 1.8 4.9 3.3l.3.9-7 8.5h-1.2q-2.7-1.3-5.1-3.4l-2.5-2.4-6.3 7.9-1.5.3q-2.7-1.5-4.9-3.7-2.4-1.8-3.9-3.6v-1.5l7-8.2h.6c1.5 1.2 2.7 2.8 4.2 4l3.3 2.4zm129.5-62.9 2.1-3.9c.3-.6.9-.9.9 0 1.5 4.8 1.5 9 .6 12.4-1.2 3-2.1 5.1-6.4 6-3 .9-6.6 0-8.1-2.7-2.5 5.4-7 7.5-10.6 7.2-4.6-.9-7.3-5.7-2.7-14.8 1.2-2.4 2.1-1.2 1.8 0-2.1 6.1 0 8.2 3 7.9 4.8-.3 7.6-3 8.2-9.4 0-.9-.6-.6 1.8-2.4 1.5-1.5 1.2-.6 1.2 1.2 0 2.7.3 4.5 1.8 5.7 1.8 1.6 4.5 1.3 7.3-1.2 0-1.2-.3-3-1.2-4.8 0-.3 0-.6.3-1.2zm135.2 219.5c9.7 23.6-4.2 40.3-5.8 42.4-3.9 5.4-8.4 10.9-14.2 13-17.8 7.5-40.8 2.7-43.2 2.1-4.6-.9-2.4-3.9 1.5-3.3 41.4 5.4 57.5-25.1 60.2-33l.3-2.1c-7.3 1.5-14.8 1.8-17.6.9-10.5-3.3-8.7-19.4 0-29.9 9.1-10.6 17.6 6.3 18.8 9.9zm-4.2 8.5c-2.2-3.9-5.2-6.9-7.3-8.8-3.9-3.3-7.3 1.9-7.9 3.7-2.1 6.9 9.4 5.7 11.8 5.4zm9.7-62.6c-.6 1.2-.9 1.5-1.8 3.3-.9 1.6-2.1 1.9-3.9 3.1-2.2.9-34.8 14.2-35.7 14.8-3.7 1.5-3.1.3-2.7-.6.3-.6.6-1.5.9-3 .6-1.9 1.5-2.2 3.9-3.4 2.4-.9 34.5-14.2 36.9-15.4 3.6-1.5 3 0 2.4 1.2zm-96.2-2.4s7 41.1 7.3 62.9c.3 16-8.8 20.3-12.1 20.9-10.6 1.8-16-3.7-16.9-5.5-.6-1.2-2.5-3.3-4.6-5.4-5.7 4.2-31.4 18.1-46.2 3.6-1.2 3.6-2.5 7-3.7 9.1-3 4.2-9.6 6-19-2.4-7.6 9.3-19.1 6.3-30.9-2.5-3.9 1.5-10.8 4.6-12.7 5.2 0 0-2.7.9-6 1.8v.6c-3.9 15.4-10 29.6-14.5 34.2-19.1 19.6-50.5 2.4-53.5.6-3.1-2.1 0-3.7 1.8-3.1 16 7 31.1 2.8 34.7 1.6 15.2-6.4 23.3-25.7 25.7-31.8q-1.8.6-2.7.9c-2.7.9-4.2-5.4-5.1-7.8-.6-2.2 0-3.1 5.4-4.3 7.9-2.1 22.1-7.2 27.8-10.3 5.2-2.7 3.7 3.7 3.1 6.4 24.5 8.2 29.9-6.1 31.4-10.6 1.5-4.8 3-3 2.7-.6q-.9 6-2.7 10.6c3.6 1.5 12.4 6 15.1.3 1.9-3.6 2.5-7.9 3.4-11.2.9-3.6 3-3.3 3 .3-.3.6-.6 2.4-.9 4.2 5.1 3.4 20.5 10.3 37.8-.9l-1.8-.9c-7.3-4.5-14.2-4.2-16.7-2.7-3.3 1.8-2.1-3.3-.6-5.4 13.3-20.9 36.6-7.9 39.3-4 1.3 2.4 2.2 8.5-6.6 14.8l.9.6c12.4 7 19.4 1 20.6-.6.9-1.2-7.9-65.6-8.8-70.7-.3-3.6-.9-7.6-.9-9.4-.3-3.6-2.4-8.5-4.2-11.2-1-2.1 0-2.7 1.2-3.9 1.8-2.7 2.4-3.9 3.9-6.4 1.2-1.8 2.1.3 2.7 2.8.9 3 4.5 7.5 6.7 10.2 1.8 2.8-1.8 5.8-3.7 7.3-1.5 1.5-1.2 2.1-.9 4.8 0 0 .6 4.6 1.2 7.9zm-172.3 35.1c-3 1.5-5.5-.3 1.2-4.9 10.6-7.5 18.4-12.7 21.8-18.1 0 0-6.4-4.2-9.1-7-3-3 .6-10.8 3.6-14.2 7.3-8.1 10.6-2.7 11.5-1.2 3.6 7 1.2 15.4.3 17.9 0 0 2.7 2.1 3.6 3 1.2 1.2.6 3.6-.9 7.8-.3 1.6-2.1-2.7-6-4.5-3 6.7-6.4 12.1-26 21.2zm26.3-29.7c.3-1.2.9-7.5-2.1-11.1-1.8-1.9-3.7-2.2-6.4 2.1-.9 1.2-.9 2.7.9 3.6 1.8 1.2 7.6 5.4 7.6 5.4zm168.7-13c-.6-7.2 0-12.7 1.8-16.9 1.8-3.9 2.5.6 2.8 5.4.9 9.1 6 44.2 7.2 55.7 3 22.7 2.4 38.1.6 43.5-1.2 3.4-2.7 2.1-2.7-2.4-.3-19-4.5-45.6-5.7-54.7-1.3-9.1-2.8-18.2-4-30.6zm-227.1 111c-18.1 7.3-41.1 2.4-43.2 1.8-4.9-.9-2.7-3.9 1.2-3.3 41.4 5.4 57.7-25.1 60.2-33l.3-1.8c-7.3 1.5-14.9 1.5-17.6.6-10.6-3.3-8.7-19.3 0-29.9 9.1-10.6 17.6 6.3 19.1 10 9.4 23.9-4.6 40.2-6.1 42.3-3.9 5.8-8.4 10.9-13.9 13.3zm15.4-47.2c-2.1-3.9-5.1-6.6-7.2-8.4-3.6-3.4-7.3 1.5-7.9 3.6-2.1 6.7 9.4 5.4 11.8 5.4q1.8-.3 3.3-.6zm-44.1 21.5c-15.1 17.9-36 16-40.5 14.8-27.5-6.6-14.5-42.9-12.1-46.2 1.5-2.8 2.7-.3 2.1.6-13 31.1 13.3 35 16 35 26 1.6 34.2-16.3 35.1-19.9.9-3.3-9.1-23.6-11.5-27.5 0 0 1.5-9.7 2.1-10.9s1.5.3 2.7 2.4c0 0 7.3 12.4 8.8 19.4 4.2 19.3-.9 30.2-2.7 32.3zm134-85.6c-4 1.8-5.8 1.5-10.9 3.4-1.2.6-2.5.3-2.5-.3-.3-1.3 1-2.2 1.9-2.8 1.8-1.2 14.8-7.8 14.8-8.4 0-.3-5.5-2.4-8.5-2.8q-4.8-.3-9.4 2.5c-1.5.6-2.4 1.8-3.3 3-.6 1.2-1.2.3-.9-1.2.3-.6.6-1.8 1.2-2.7 3-6.1 8.5-8.8 14.2-8.5 4 .3 7.6 2.1 11.2 3 .9.3 4.9.6 4.9 1.8s-1.6 5.5-3.1 7c-.3.3-.9.3-1.2.3-1.2.3-2.7 3.3-8.4 5.7zm86.7 107.4c-.3 1.2-.6 1.5-1.5 3.3s-2.1 2.1-4.2 3.3c-1.8.9-34.2 14.9-35.4 15.5-3.6 1.5-3 .3-2.4-.6 0-.3.3-1.3.9-3.1.3-1.8 1.2-2.1 3.6-3.3 2.5-1.2 34.2-14.8 36.6-16 3.7-1.8 3-.3 2.4.9zm-277.3-104.9c-3.6 1.8-3 .6-2.4-.7 0-.3.3-1.2.9-3 .3-1.8 1.2-2.1 3.7-3.3 2.4-.9 42-17.8 44.4-19.1 3.6-1.8 3-.3 2.4 1-.6 1.2-.9 1.5-1.8 3.3s-2.1 2.1-3.9 3c-2.1 1.2-42 18.1-43.3 18.8zm28.2 14.5q2.1 2.1 4.5 3.9v.9l-7.3 7.3h-1.5q-2.1-1.5-4.2-3.7-2.1-1.8-3.6-3.9l.3-1.5 7.2-7.3h.9c.9 1.5 2.2 3.1 3.7 4.3zm169 14.5h.9l3.9 3.9q2.8 2.1 5.2 3.6l.3 1-7 8.1-1.5.3q-2.4-1.5-4.8-3.6l-2.4-2.1-6.7 7.5-1.5.3q-2.4-1.5-4.8-3.3-2.2-1.8-4-3.9l.3-1.5 6.7-8.2h.9c1.2 1.5 2.7 2.7 4.2 3.9l3.4 2.5v-.4zm-8.8-18.1c1.2 1.2 2.4 2.7 3.9 3.9q2.4 1.9 4.9 3.4l.3.9-6.7 7.8-1.5.3q-2.4-1.5-4.5-3.3-2.2-1.8-4-3.6v-1.5l6.7-7.9z" fill="#231f20" fill-rule="evenodd"/></svg>