<svg height="512" viewBox="0 0 417 512" width="417" xmlns="http://www.w3.org/2000/svg"><path d="m300.7 98c-.6 1.8-3.7 8.6-3.7 8.6s-.9 0-4.6-.8c-17.7-4.3-43.8 7.4-47.5 9.1-7.1 2.9-14.3 4.9-20.8 6.3 0 0-30.6 5.4-49-4.6-4.2 10.3-9.7 19.2-12.8 22.3-18 18.6-45.5.9-48.4-1.1-2.8-1.7 0-3.2 1.8-2.6 15.1 6.6 30 2.9 33.4 1.5 10.3-4.1 17.2-14.9 20.9-22.9-12-8-4.3-19.5-3.7-20.9 1.1-1.7 1.4-1.1 1.7.6 2.3 13.7 29.7 17.4 33.5 17.4 26 3.2 56.9-10 59.4-11.1-23.1-9.2-39.7-4-41.1-3.8-1.2.3-1.2-.8-.9-1.7l5.4-8.6c3.8-3.1 30.6-4.2 30.6-4.2.6-5.5-6-39.2-6-39.2-.5-3.5-1.1-7.5-1.1-9.2-.3-3.4-2-8.3-3.4-11.1-1.2-2 0-2.6.8-3.7 2-2.6 2.6-5.5 4-7.5 1.2-2 1.7 0 2.6 2.3.8 2.9 4.3 8 6.3 10.6 1.7 2.6-1.4 5.1-3.2 6.6-1.4 1.4-.3 4 0 6.8 0 0 3.8 26.6 4.6 36.1 1.2 9.1-1.7 12.8-3.1 14 13.4 7.4 36 7.7 41.1 8 4.9.6 4 1.4 3.2 2.8zm-134.1-35.4q2.3 2 4.5 3.7l.3.9-7.4 7.1-1.4.3q-2.3-1.7-4.3-3.7-1.7-2-3.5-4l.3-1.5 7.2-7.1h.8q1.8 2.1 3.5 4.3zm101.8 71.5v.8l-7.2 7.5h-1.4q-2.3-1.7-4.3-3.7-2-1.8-3.4-4.1l.3-1.1 7.1-7.4h.9c.8 1.4 2 3.1 3.4 4.3q2 2.2 4.6 3.7zm43.2-16.6c-1.2 2.6-2.6 1.7-2.6-2.3.3-16-3.2-38.6-4-46.3-.9-7.5-2-15.2-2.9-25.8-.6-6 .6-10.5 2.6-14 1.7-3.1 2.3.3 2.3 4.6.6 7.7 4.6 37.5 5.4 46.9 2 19.2 1.2 32.3-.8 36.9zm-200.2-10c-3.5-2-6.6-3.7-8.3-5.5-2.3-1.7-2.3-5.1-.9-7.7 4-6.3 14.3-16.6 20.3-16.3 3.7.3 7.7 4.9 7.5 6.9-.3 1.7-4 8.3-5.8 8.3-1.4 0-1.4-5.2-7.1-6-2-.3-7.2 3.1-7.4 4.8 0 2.3 5.7 7.8 13.1 8.6 6 .6 9.7-.3 14.6-1.4 1.1 0 1.7.3.9 1.4-.6.9-4 7.2-4.6 7.2-4.3.3-8.9 1.4-14.9 3.7-6.6 2.3-12.6 5.1-16.6 7.7-.8.6-1.1-.3-1.1-.9.6-1.7 1.7-4.2 2.6-6 1.4-1.4 6-4 7.7-4.8zm50.9-66.7c-4 1.8-5.7 1.5-10.9 3.5-1.1.3-2.3.3-2.6-.6 0-1.1.9-2 2-2.6 2-1.4 14.6-7.7 14.9-8.3 0-.2-5.7-2.2-8.6-2.5q-4.8-.6-9.4 2c-1.1.8-2.3 2-3.2 3.1-.5 1.2-1.4.3-.8-1.1.3-.9.6-1.7 1.1-2.6 2.9-6.3 8.3-8.9 14.3-8.6 3.8.3 7.2 2.3 10.9 3.2.9.3 4.6.5 4.9 1.7-.3 1.1-1.5 5.1-3.2 6.6-.3.5-.8.5-1.1.5-1.2.3-2.9 3.2-8.3 5.7zm-69.2 30.4c-2.9 1.4-5.5-.3 1.1-5.2 10.3-7.1 18.3-12.3 21.5-17.7 0 0-6.3-4-9.2-6.9-2.8-2.8.9-10.8 3.7-14 7.2-8 10.6-2.6 11.5-1.1 3.4 6.8 1.4 15.1.3 17.4 0 0 2.8 2.3 3.7 3.2 1.1 1.1.5 3.4-.9 7.7-.6 1.4-2.3-2.6-6-4.3-3.1 6.3-6.3 11.7-25.7 20.9zm25.7-29.5c.6-1.1 1.2-7.1-1.7-10.9-1.7-2-3.7-2.2-6.6 2-.8 1.2-.8 2.6 1.2 3.8 1.7 1.1 7.1 5.1 7.1 5.1zm-25.4 165.3c-2.6 1.1-4.9-.3 1.1-4.9 9.5-6.5 16.9-11.1 19.8-16.3 0 0-5.7-4-8.3-6.5-2.6-2.6.6-9.8 3.4-12.6 6.6-7.7 9.7-2.6 10.3-1.5 3.4 6.3 1.4 14.3.6 16.4 0 0 2.6 2 3.1 2.8 1.2 1.2.6 3.2-.5 7.2-.6 1.4-2-2.3-5.8-4-2.8 5.7-5.7 10.8-23.7 19.4zm24-27.5c.3-.8.9-6.5-1.7-10-1.7-1.7-3.4-2-6 2-.9 1.2-.9 2.3.9 3.5 1.7.8 6.8 4.5 6.8 4.5zm79.5-108.1c-2.9 1.2-5.5-.2 1.1-5.1 10.3-7.4 18.3-12.3 21.5-17.7 0 0-6.3-4.3-9.2-6.9-2.8-2.9.9-10.9 3.7-14 7.2-8 10.6-2.6 11.5-1.1 3.4 6.5 1.4 15.1.3 17.4 0 0 2.8 2 3.7 2.9 1.1 1.1.6 3.7-.9 8-.5 1.4-2.3-2.6-6-4.6-3.1 6.6-6.3 12-25.7 21.1zm26-29.7c.3-1.1.9-7.1-2-10.9-1.7-2-3.7-2-6.6 2.3-.5 1.2-.8 2.6 1.2 3.7 1.7.9 7.4 4.9 7.4 4.9zm61.5 181.9c4.6 25.2 4 37.5 3.5 44.6-.9 7.2-9.2 8.9-15.2 9.2-2.3.2-4 .2-5.7.2-4 13.2-11.7 25.5-14.3 28.1-18.9 19.4-50.9 3.7-53.8 1.7-2.8-2 0-3.5 1.7-2.9 16.1 7.2 32.1 2 35.5.6 14.6-6 23.2-22.3 25.7-28.3-8.2-2.6-6.8-10.6-6.8-12.9.3-2.6 1.1-2.3 2.6-1.4 7.7 6.3 26 2.3 26.8-.3.9-2.6-10.3-61.8-10-66.6.3-3.5-2.3-8-3.7-10.9-1.1-2 0-2.6 1.2-4 2-2.3 2.5-3.7 4-5.7 1.1-1.7 2 .3 2.5 2.5.9 2.9 4.3 7.5 6 10.1 2 2.8-2 5.4-3.7 6.8s-1.1 2-.8 4.9c0 0 2.8 15.7 4.5 24.3zm-67.2-1.2c-1.1-8.2-2-16.5-3.1-28-.6-6.6.6-11.4 2.6-15.1 2-3.5 2.5.5 2.8 4.8.3 8.3 4.6 40.3 5.7 50.9 2.3 20.6 1.2 34.6-1.1 39.5-1.1 3.1-2.6 2-2.6-2 .3-17.5-3.4-42-4.3-50.1zm13.5-38.8c0-.6.3-1.5.8-3.2.3-1.7 1.2-2 3.5-3.1 2.5-1.2 30.8-14.1 33.1-15.2 3.8-2 3.2-.6 2.6.9-.6 1.1-.8 1.4-1.7 3.1s-2 2.3-4 3.2c-1.7 1.1-30.9 14.3-31.8 14.8-3.7 1.7-3.1.6-2.5-.5zm83.8 58.9c2.3 20.6.8 34.6-1.2 39.4-1.1 3.2-2.8 2-2.8-2 .5-17.4-3.2-42-4.3-50-.9-8.3-2-16.6-2.9-28-.6-6.6.6-11.5 2.6-15.2 2-3.4 2.6.6 2.6 4.9.5 8.3 4.8 40.3 6 50.9zm-127 73.5c-3.4 1.4-29.2 8.8-36.9 10.3-32.9 6.5-55.2-7.2-57.2-37.5-1.7-27.7 12.6-46.9 18-54.1 1.7-2.5 3.5-4.2 5.2-5.7-6-6-11.2-2-12.6-.5-1.2 1.4-2.3.2-1.7-2.1 3.1-11.7 8.5-15.1 18-16.8 9.4-1.5 16.6 3.1 18 4.3 4.3 3.1 1.4 9.1-.6 13.1-.5 1.5-2.5 2.6-5.4 4 2.6 1.7 4.6 2.9 5.1 2.9 24.1 8 52.4-5.2 54.1-6 1.4-1.2-5.2-10.6-8.6-15.2 0 0 1.4-8.8 2-10.8.3-2 1.2-2 2.3-.6 10.6 10.6 9.4 22.6 9.2 26.3-1.2 8.3-3.2 10.9-5.2 12-16.3 8-33.7 8.9-37.2 8.9-17.7.5-26.9-6-31.7-11.8-8.6 5.8-18.3 14.9-22.6 33.2-4.3 23.2 2.6 37.8 20.9 43.2 18 5.4 58.9-.9 65.7-1.4 6.9-.6 4.6 2.5 1.2 4.3zm-6.9-53.2q2 2.3 4.6 4v.8l-7.1 7.2h-1.5q-2.3-1.5-4.3-3.5-2-2-3.4-4v-1.4l7.4-7.1h.6c1.2 1.4 2.3 2.8 3.7 4zm16.9 23.1c-2 1.2-30.9 14-32 14.6-3.7 1.7-3.2.6-2.6-.6 0-.2.3-1.1.9-2.8.5-1.7 1.1-2.3 3.7-3.4 2.3-.9 30.9-14.1 33.1-15.2 3.5-1.7 2.9-.3 2.3.9-.5 1.4-.5 1.7-1.7 3.4-.8 1.7-2 2-3.7 3.1zm62.9-76.6 2-4c.3-.3.9-.9 1.2 0 1.4 4.8 1.1 8.6.2 11.7-1.1 3.2-2 4.9-5.7 6-3.1.6-6.3 0-8-2.8-2.3 5.4-6.3 7.4-10 6.8-4.3-.6-6.9-5.4-2.6-13.7 1.2-2.6 2-1.4 1.8 0-2 5.4 0 7.4 2.8 7.4 4.6-.5 7.2-3.1 7.7-8.8.3-.9-.3-.9 1.7-2.6 1.5-1.2 1.5-.6 1.2 1.1 0 2.6.6 4.6 1.7 5.5 1.7 1.7 4.6 1.1 6.9-1.2 0-.8-.3-2.8-1.2-4.3 0-.5 0-.8.3-1.1zm135 208.3c9.4 23.5-4 40.1-5.7 42.1-4 5.4-8.3 10.5-14.1 12.8-17.7 7.5-40.3 2.6-42.6 2-4.5-.8-2.5-4 1.5-3.4 40.9 5.4 56.9-24.6 59.2-32.3l.5-2c-7.4 1.4-14.8 1.4-17.4.5-10.6-3.1-8.6-19.1 0-29.4 8.9-10.6 17.4 6.3 18.6 9.7zm-4.3 8.6c-2-4-4.9-6.9-6.9-8.6-4-3.4-7.4 1.4-8 3.4-2.3 6.9 9.2 5.8 11.7 5.5zm9.5-62.1c-.6 1.2-.9 1.5-1.7 3.2-.9 1.7-2 2.3-4 3.1-2 1.2-34.1 14.3-35.2 14.9-3.7 1.4-3.2.3-2.6-.9 0-.3.3-1.1.9-2.8.5-1.7 1.4-2.3 3.7-3.2 2.6-1.1 34-14 36.6-15.1 3.4-1.8 2.9-.3 2.3.8zm-95-2.3s6.6 40.6 7.2 62.1c.3 16-8.6 20-12 20.6-10.6 2-16-3.4-16.9-5.5-.6-.8-2.3-3.1-4.3-5.1-5.7 4-30.9 18-45.7 3.4-1.2 3.8-2.3 7.2-3.8 8.9-2.8 4.6-9.4 6.3-18.8-2.3-7.5 9.4-18.6 6.3-30.4-2.3-4 1.7-10.5 4.6-12.2 5.2 0 0-2.9.8-6.1 2v.3c-4 15.1-10.2 29.4-14.5 33.7-18.6 19.4-50.1 2.6-52.9.6-2.9-2 0-3.7 1.7-2.9 16 6.9 30.9 2.9 34.6 1.4 14.6-6 22.9-25.1 25.1-31.4q-1.7.6-2.5.8c-2.9.9-4.3-5.1-4.9-7.4-.9-2.3 0-3.1 5.2-4.3 8-2 21.7-7.4 27.4-10.3 5.2-2.5 3.4 3.7 3.2 6.3 24 8.3 29.4-5.7 30.8-10.6 1.8-4.5 3.2-2.8 2.9-.5q-1.1 6-2.6 10.5c3.5 1.5 12 6.1 14.9.3 1.7-3.4 2.3-7.7 3.1-11.1.9-3.5 3.2-3.2 2.9.3 0 .8-.3 2.5-.9 4.3 5.2 3.1 20.3 10.2 37.5-.6l-1.7-1.2c-7.2-4.5-14-4.3-16.6-2.5-3.1 1.7-2-3.2-.6-5.5 13.2-20.8 36.4-8 38.9-3.7 1.5 2 2 8-6.6 14.3l1.2.9c12 6.5 18.9.5 20-.6 1.2-1.4-7.7-65.2-8.6-70.1-.5-3.7-.8-7.7-1.1-9.4-.3-3.4-2.3-8.3-3.7-10.9-1.2-2-.3-2.8.8-4 2-2.5 2.6-4 4-6 1.2-2 2 0 2.9 2.3.8 3.2 4.3 7.7 6.3 10.3 2 2.9-1.7 5.7-3.5 7.2-1.4 1.4-1.1 2-.8 4.8 0 0 .6 4.3 1.1 7.7zm-170.4 34.9c-2.9 1.5-5.4-.3 1.4-5.1 10.3-7.2 18-12.3 21.5-17.8 0 0-6.3-4-9.2-6.8-2.8-2.9.6-10.9 3.5-14 7.1-8 10.5-2.6 11.4-1.2 3.7 6.6 1.4 15.2.6 17.5 0 0 2.5 2.3 3.4 2.8 1.1 1.5.6 3.7-.9 8-.5 1.5-2-2.5-6-4.3-2.8 6.3-6.3 11.8-25.7 20.9zm26-29.4c.3-1.2.9-7.5-2-11.2-1.7-1.7-3.7-2-6.3 2.3-.8 1.1-.8 2.6.9 3.7 1.7 1.2 7.4 5.2 7.4 5.2zm167-12.9c-.8-7.1 0-12.6 1.7-16.6 1.8-4 2.3.3 2.6 5.2.9 8.8 6 43.7 7.2 54.9 2.8 22.6 2.3 37.7.5 43.2-1.1 3.4-2.5 2.2-2.5-2.3-.3-18.9-4.6-45.2-5.8-54.1-1.4-8.9-2.5-18.3-3.7-30.3zm-224.7 109.5c-17.8 7.5-40.4 2.6-42.7 2-4.8-.8-2.8-4 1.2-3.4 40.9 5.4 56.9-24.6 59.5-32.3l.3-2c-7.2 1.4-14.6 1.4-17.2.6-10.6-3.2-8.6-19.2 0-29.5 8.9-10.6 17.2 6.3 18.6 9.7 9.1 23.8-4.3 40.1-5.7 42.1-4 5.4-8.3 10.5-14 12.8zm15.4-46.3c-2-4-5.2-6.9-7.2-8.6-3.7-3.4-7.1 1.5-8 3.5-2 6.8 9.5 5.7 11.8 5.4q1.7 0 3.4-.3zm-43.8 21.2c-14.8 17.7-35.4 15.7-40 14.5-27.2-6.5-14.3-42.6-12-45.7 1.7-2.6 2.9-.3 2.3.8-12.9 30.6 13.1 34.4 15.7 34.4 25.7 1.4 33.8-16 34.9-19.5.9-3.7-9.2-23.7-11.7-27.1 0 0 1.7-9.8 2.3-10.9.5-1.2 1.4.3 2.5 2.3 0 0 7.5 12.3 8.9 18.8 4 19.5-1.1 30.1-2.9 32.4zm132.7-84.7c-4.3 1.7-6 1.4-11.1 3.4-.9.3-2.3.3-2.3-.5-.3-1.2.8-2 1.7-2.6 2-1.4 14.9-7.7 14.9-8.3 0-.3-5.5-2.3-8.6-2.6q-4.9-.5-9.4 2.3c-1.2.6-2.3 1.7-2.9 3.2-.9.8-1.4 0-1.1-1.5.2-.5.8-1.7 1.1-2.5 3.1-6.3 8.6-8.9 14.3-8.3 3.7 0 7.1 2 10.9 2.8 1.1.3 4.8.6 4.8 1.7 0 1.5-1.4 5.2-2.8 6.6-.6.6-1.2.6-1.5.6-.8.3-2.5 3.4-8 5.7zm85.5 106.1c-.2 1.4-.5 1.7-1.4 3.4-1.1 1.8-2.3 2-4.3 3.2-1.7.8-33.7 14.6-34.9 15.1-3.7 1.8-3.1.6-2.5-.5 0-.3.2-1.5.8-2.9.6-1.7 1.4-2.3 3.7-3.4 2.6-.9 34.1-14.6 36.4-15.7 3.4-1.8 2.8-.3 2.2.8zm-273.9-103.8c-3.7 1.7-3.2.6-2.6-.6 0-.3.3-1.1.9-2.8.5-1.7 1.1-2.3 3.7-3.5 2.3-.8 41.4-17.7 43.7-18.8 3.7-1.8 3.2-.3 2.6 1.1-.6 1.2-.9 1.4-1.7 3.2-.9 1.7-2 2-4 3.1-2 .9-41.8 18-42.6 18.3zm27.4 14.6q2.3 2 4.6 3.7l.3.9-7.4 7.1h-1.5q-2.3-1.4-4.3-3.4-1.7-2-3.4-4l.3-1.5 7.1-7.1h.9q1.7 2.1 3.4 4.3zm167.3 14h.9c1.4 1.4 2.6 2.9 4 4q2.6 2 5.1 3.4l.3 1.2-6.8 8-1.5.3q-2.5-1.5-4.8-3.5l-2.6-2.2-6.3 7.7h-1.4q-2.6-1.2-4.9-3.2-2.3-1.7-4-4v-1.4l6.9-8h.8c1.2 1.4 2.6 2.8 4 4l3.5 2.3.2-.3zm-8.8-18c1.1 1.4 2.3 2.5 3.7 4q2.3 1.7 4.9 3.1l.2.9-6.5 8h-1.5q-2.2-1.2-4.5-3.2-2-1.7-3.8-3.7v-1.4l6.6-7.7z" fill="#231f20" fill-rule="evenodd"/></svg>