<svg height="512" viewBox="0 0 414 512" width="414" xmlns="http://www.w3.org/2000/svg"><path d="m299.8 99.8c-.6 1.7-3.9 8.3-3.9 8.3s-1 0-4.7-1c-17.4-4-43.5 7.6-47.1 9.2-7.2 3-14.2 4.6-20.7 6.3 0 0-30.4 5.2-48.8-4.7-4 10.6-9.6 19.2-12.5 22.5-18.2 18.4-45.5 1-48.5-1-2.6-2 0-3.7 2-3 14.8 6.9 30 3 33.3 1.7 10.2-4.3 16.8-14.9 20.7-22.8-11.8-8.2-4.6-19.4-3.6-21.1 1-1.6 1.3-1 1.7.7 2.3 13.8 29.3 17.4 33.2 17.4 25.7 3 56.4-10.2 59.4-10.8-23.4-9.6-39.9-4.3-41.2-4-1 .3-1.3-.6-.7-1.6l5.3-8.6c3.6-3.3 30.3-4.3 30.3-4.3.7-5.3-5.9-38.9-5.9-38.9-.7-3.6-1-7.2-1.3-9.2 0-3.3-1.7-8.2-3.3-10.9-1-2 0-2.6.9-3.9 2-2.7 2.4-5.3 4-7.3 1-2 1.7 0 2.6 2.3 1 3 4.3 7.9 6 10.6 1.9 2.6-1.3 4.9-3 6.2-1.3 1.7-.3 4.3 0 6.9 0 0 3.6 26.7 4.6 36 1 9.2-1.6 12.8-2.9 14.1 13.1 7.3 35.9 7.6 40.8 8 4.6.3 4 1.3 3.3 2.9zm-133.5-35.6q2 2 4.6 3.7v.9l-7.2 7.3h-1.3q-2.3-1.7-4.3-3.6-2-2-3.6-4l.3-1.3 7.3-7.3h.6c1 1.7 2.3 3 3.6 4.3zm101.2 71.2v1l-7.2 7.3h-1.4q-2.3-1.7-4.2-3.7-2-1.9-3.3-3.9v-1.3l7.2-7.3h.7c1.3 1.7 2.3 3 3.6 4.3q2 2 4.6 3.6zm42.9-16.5c-1 2.7-2.7 1.7-2.7-2.3.4-15.8-2.9-38.5-3.9-45.8-.7-7.6-1.7-15.5-2.7-26-.6-6 .4-10.2 2.3-13.9 2-2.9 2.4.4 2.7 4.7.3 7.5 4.3 37.2 5.3 46.8 1.9 18.7.9 31.9-1 36.5zm-199.1-9.8c-3.6-2-6.6-3.7-8.6-5.3-2-2-2-5.6-.6-7.9 3.9-6.3 14.1-16.5 20.4-16.2 3.6.3 7.6 5 7.3 6.9-.4 1.7-4 8.3-5.7 8.3-1.6-.4-1.6-5.3-7.2-6-2-.3-7.3 3-7.3 4.7-.3 2.3 5.6 7.9 12.9 8.5 5.9.4 9.9-.3 14.8-1.3 1-.3 1.3 0 .7 1.3-.7 1-4 7-4.6 7-4.3.3-8.9 1.6-14.9 3.9-6.2 2-12.5 5.3-16.4 7.6-.7.6-1.4-.3-1-.7.6-1.6 1.6-4.6 2.3-6.2 1.6-1.4 6.2-4 7.9-4.6zm50.8-66.6c-4.3 2-6 1.6-10.9 3.6-1.3.3-2.3 0-2.7-.7 0-.9 1-1.9 2-2.6 2-1.3 14.5-7.6 14.5-8.2.3-.4-5.3-2.3-8.2-2.7q-5-.3-9.6 2.3c-1 .7-2 2-2.9 3-.7 1.3-1.4.3-1-1 .3-1 .6-2 1-2.6 3.2-6.3 8.5-8.9 14.5-8.6 3.6.3 7.2 2.3 10.8 3.3 1 0 4.6.3 4.6 1.3 0 1.7-1.3 5.3-2.9 6.9-.4.4-1 .4-1.3.4-1 .3-2.7 3.3-7.9 5.6zm-69.3 30.3c-2.6 1.3-5.2-.3 1.4-4.9 10.2-7.3 18.1-12.2 21.4-17.8 0 0-6.3-4-9.3-7-2.6-2.6 1-10.5 3.7-13.8 7.2-7.9 10.5-2.6 11.5-1.3 3.3 6.9 1.3 15.1.3 17.8 0 0 2.7 1.9 3.7 2.6 1 1.3.6 3.6-1 7.9-.4 1.7-2-2.6-6-4.3-2.9 6.3-6.2 11.6-25.7 20.8zm26.1-29.3c.3-1 1-7.3-2-10.9-2-2-3.6-2-6.6 2-.7 1.3-.7 2.6 1 3.6 2 1.3 7.6 5.3 7.6 5.3zm-17.8 195.1c-3 1.3-5.3 0 1-4.6 9.9-7 17.1-11.6 20.1-16.8 0 0-5.6-4-8.6-6.6-2.6-2.7 1-10.3 3.6-13.2 6.6-7.6 9.9-2.7 10.9-1 3.3 6.3 1.3 14.2.3 16.5 0 0 2.7 1.9 3.3 2.6 1 1.3.7 3.6-.6 7.6-.7 1.3-2.3-2.3-6-4.3-2.6 6.3-5.9 11.2-24 19.8zm24.4-27.7c.3-1 1-6.9-2-10.6-1.7-1.6-3.3-1.6-5.9 2-.7 1.3-.7 2.7.9 3.7 1.7.9 7 4.9 7 4.9zm70.8-137.8c-2.9 1.3-5.2-.3 1.3-5.2 10.3-7.3 17.8-12.2 21.1-17.8 0 0-6.2-4-8.9-6.6-2.9-3 .7-10.9 3.7-13.9 6.9-8.2 10.5-2.6 11.2-1.3 3.6 6.6 1.3 15.2.3 17.5 0 0 3 1.9 3.6 2.9 1.3 1.4.7 3.7-.6 7.9-.7 1.4-2.3-2.6-6-4.6-3.3 6.6-6.6 11.9-25.7 21.1zm25.7-29.3c.4-1.3 1-7.3-1.9-11.2-1.7-1.7-3.7-2-6.3 2.3-1 1.3-1 2.6 1 3.6 1.6 1 7.2 5.3 7.2 5.3zm119 217.2c-.6 1.6-2.3 5.3-4.3 7.6-24.7-4.6-43.1 7.6-46.8 9.2-21.1 8.6-38.5 10.5-42.5 10.2-26-.3-25.7-26.7-26.3-30.6-.7-3.7-10.9-66.6-12.6-70.9l2.7-8.6c.3-.6.6-2.3 1.6-.6 3 4.9 11.9 71.8 15.5 84 8.6 33 69.5 3.6 72.2 2.3-29.4-10.5-41.9-4.6-43.5-3.9-1.7.6-2 .3-1.7-1.3.7-1.7 4-8.3 6-9.9 5.2-3.3 27-2.7 28.3-4.6.7-1-9.6-51.5-9.9-53.4-.6-4-2.9-8.6-4.9-11.6-1.3-2.3-.4-2.9.6-4.6 2-2.6 2.7-4.3 4-6.6s2.3 0 3.3 2.7c1.3 2.9 5.3 7.5 7.6 10.5 2.3 2.6-2 6.3-3.7 7.9-1.6 1.7-.9 2.3-.6 5.3 0 0 6.9 29.3 7.6 33.9 2.9 13.2-.4 20.8-1.7 23.1 16.2 6.3 43.8 6.9 47.1 6.9s2.7 1.7 2 3zm-111.4-91.6c0-.4.4-1.4.7-3 .6-1.6 1.3-2.3 3.6-3.3 2.3-1.3 33.6-14.8 35.9-16.1 3.3-2 3-.4 2.3.9-.3 1-.6 1.4-1.3 3.3-1 1.7-2 2-3.9 3.3-2 1-33.7 14.9-34.6 15.2-3.7 2-3 .7-2.7-.3zm127.9 72.5c3 20.4 2.3 34.6.3 39.5-1 3-2.3 2-2.3-2.3-.3-17.1-4.6-41.2-5.6-49.4-1.3-7.9-2.6-16.5-3.9-27.4-.7-6.6.3-11.5 1.9-15.1 1.7-3.7 2.4.3 2.7 4.6.6 8.2 5.6 39.9 6.9 50.1zm-186.9 28c-2.6 4.3-5.6 8.2-8.5 10.2-7 3.6-13.2 3.3-19.8-.3q-1.3 2.9-3.3 6.2c-1.3 2-2.3 2-4.6 1.7s-9.3-3-12.2-8.9c-7.6 7.2-17.5 7.2-20.8 6.9 1 17.1-4.6 26-6.6 27.7-17.1 15.8-37.9 11.5-42.5 9.9-26.7-9.6-9.6-43.5-6.9-46.5 2-2.3 2.6 0 2.3 1-16.8 28.7 9.2 35.6 12.2 35.9 25.7 4.3 35.9-12.2 37.2-15.5s-6.6-24.4-8.5-28c0 0 2.6-9.2 3.3-10.5.6-1 1.6.3 2.6 2.6 0 0 2.3 5 3.9 10.2 19.8 7.6 27.1-5.6 29-10.2 2-4.3 3.7-1.6 3 .7q-1 4.6-3 8.2c2.4 2.3 11.3 8.9 13.9 2.3 1.3-3.3 3.9-9.5 4.6-12.2 1-2.6 4-3.6 3.3.4-.3 1.6-1 4.2-2.3 7.5 12.5 7 21.1-3.3 23.7-6.6 3-3.9 5.6-10.5 14.5-18.4 3.7-3 10.2 0 11.9 4.9 2 5.3 2 17.8 1.6 20.1 0 2-1.3 5-2.3 7.6-1.3 2.3-1.6 2-4.3 2-2.9 0-16.4-4.6-20.4-7.9zm5.9-9.9c2.7 3.9 12.9 6.3 15.5 6.9 3 1-.6-6.2-2.3-9.5-1.6-3.3-4.9-4-9.2-2-1 .6-2.3 2.3-4 4.6zm94.3-34.3v1l-7.2 6.9-1.4.4q-2.3-1.7-4.2-3.7-2-1.9-3.7-3.9l.4-1.7 7.2-6.9h.7c1.3 1.3 2.3 3 3.6 4.3q2 2 4.6 3.6zm-62.6 66.3c-.3 1.3-.7 1.6-1.7 3.3-.6 1.9-1.9 2.3-3.9 3.3-1.7.9-33.6 14.5-35 14.8-3.2 1.6-2.9.6-2.3-.7 0-.3.4-1 .7-2.9.3-1.7 1.3-2 3.6-3.3 2.3-1 34-14.2 36.3-15.2 3.3-2 2.9-.3 2.3.7zm185.5 131.4c9.2 23.4-4.3 39.9-5.9 41.8-4 5.3-8.3 10.6-13.9 12.9-17.8 7.3-40.2 2.6-42.5 2-4.6-1-2.6-4 1.3-3.3 40.9 5.3 56.7-24.7 59.4-32.3l.3-2c-7.3 1.3-14.8 1.3-17.5.7-10.5-3.3-8.5-19.2.4-29.4 8.5-10.5 17.1 6.3 18.4 9.6zm-4.3 8.6c-2.3-4-5.2-7-7.2-8.6-3.6-3.3-7.3 1.6-7.9 3.6-2 6.6 9.2 5.6 11.8 5.3zm9.3-61.6c-.4.9-.7 1.3-1.7 2.9-1 2-2 2.3-3.9 3.3-2 1-34 14.2-35 14.5-3.6 1.7-2.9.3-2.6-.6q0-.5 1-3c.3-1.7 1.3-2 3.6-3 2.6-1 34-14.1 36.3-15.1 3.6-1.7 2.9-.4 2.3 1zm-94.3-2.4s6.6 40.6 6.9 61.7c.7 15.8-8.5 20.1-11.8 20.4-10.6 2-15.9-3.3-16.9-5.3-.3-.9-2.3-2.9-4.2-5.2-5.6 3.9-30.7 18.1-45.5 3.6-1 3.6-2.3 6.9-3.6 8.9-3 4.3-9.6 6.3-18.8-2.3-7.3 9.2-18.8 6.2-30.4-2.3-3.6 1.3-10.5 4.3-12.1 4.9 0 0-3 1-6 2v.3c-3.9 15.2-10.2 29.4-14.5 33.6-18.4 19.5-49.8 2.7-52.7.7-3-2 0-3.6 2-3 15.5 7 30.6 2.7 33.9 1.4 14.8-6 23.1-25.1 25.4-31.4q-1.7.7-2.6 1c-2.7 1-4.3-5.2-5-7.5-.7-2 0-3 5.3-4.3 7.9-2 21.7-7.3 27.3-10.2 5.3-2.7 3.3 3.6 3 6.5 24.1 8 29.3-5.9 31-10.5 1.6-4.9 3-3 2.6-.7q-1 6-2.6 10.6c3.6 1.3 12.2 5.9 14.8 0 1.7-3.3 2.3-7.6 3.3-10.9s3-3 3 .3c-.4.7-.4 2.3-1 4.3 4.9 3 20.1 10.2 37.2-.6l-1.6-1.4c-7.3-4.2-13.9-3.9-16.5-2.6-3.3 2-2-3-.7-5.3 13.2-20.4 36.3-7.9 38.6-3.6 1.3 2 2.3 8.3-6.6 14.2l1.3 1c11.9 6.6 18.8.6 19.8-.7 1.3-1.3-7.6-64.9-8.2-69.5-.7-4-1-7.6-1.3-9.6 0-3.3-2.4-7.9-3.7-10.9-1.3-1.9-.3-2.6.7-3.9 2-2.7 2.6-4 3.9-6 1.4-1.9 2 0 3 2.4 1 2.9 4.3 7.5 6.3 10.2 1.9 2.9-1.7 5.9-3.3 7.2-1.7 1.3-1.3 2-1 5 0 0 .6 4.3 1.3 7.5zm-169.7 34.7c-2.7 1.3-5.3-.4 1.3-5 10.2-7.2 18.1-12.2 21.4-17.8 0 0-6.3-4.3-9.2-6.9-2.7-3 1-10.9 3.6-13.9 7.3-7.9 10.5-2.6 11.5-1.3 3.3 7 1.4 15.2.4 17.5 0 0 2.6 2.3 3.6 3 1 1.3.7 3.6-1 7.9-.3 1.3-2-2.7-5.9-4.3-3 6.3-6.3 11.5-25.7 20.8zm26-29.4c.3-1.3 1-7.2-2-10.9-2-1.9-3.6-2.3-6.6 2-.6 1.3-.6 2.7 1 3.6 2 1.4 7.6 5.3 7.6 5.3zm166.1-12.8c-1-7.3 0-12.6 1.7-16.5 1.6-4 2.3.3 2.6 5.3.7 8.9 5.9 43.5 7.3 54.7 2.6 22.1 1.9 37.5.3 42.8-1 3.3-2.7 2.3-2.7-2.3-.3-18.8-4.2-45.1-5.6-54-1.3-8.6-2.6-17.8-3.6-30zm-223.8 109.1c-17.8 7.2-40.2 2.6-42.5 1.9-4.6-1-2.6-3.9 1.3-3.3 40.9 5.3 56.7-24.7 59.4-32.3l.3-1.9c-7.3 1.3-14.9 1.6-17.5.6-10.5-3.3-8.2-19.1.3-29.3 8.6-10.6 17.2 6.3 18.5 9.5 9.2 23.4-4.3 39.9-5.9 41.9-4 5.3-8.3 10.6-13.9 12.9zm15.5-46.2c-2.3-3.9-5.3-6.9-7.2-8.6-3.7-3.2-7.3 1.7-7.9 3.7-2 6.6 9.2 5.6 11.8 5.2q1.7 0 3.3-.3zm-43.5 21.1c-14.8 17.5-35.3 15.5-39.9 14.5-27-6.6-14.1-42.2-12.2-45.5 2-2.6 3-.3 2.7.7-12.9 30.6 12.8 34.3 15.5 34.3 25.7 1.3 33.6-16.2 34.6-19.5 1-3.6-8.9-23.4-11.6-27 0 0 1.7-9.6 2.3-10.6.4-1.3 1.4 0 2.7 2 0 0 7.2 12.6 8.5 19.1 4.3 19.2-.9 29.7-2.6 32zm131.8-84.4c-3.9 1.7-5.9 1.7-10.8 3.7-1 .3-2.3 0-2.3-.7-.4-1 .6-2 1.6-2.6 2-1.4 14.8-7.6 14.8-8.3 0-.3-5.6-2.3-8.5-2.6q-4.6-.3-9.3 2.3c-1.3.7-2.3 2-2.9 3-1 1.3-1.7.3-1.3-1 .3-1 .9-2 1.3-2.7 2.9-6.2 8.2-8.9 14.1-8.5 3.7.3 7.3 2.3 10.9 2.9 1 .4 4.6.7 5 1.7-.4 1.3-1.7 5.3-3 6.9-.7.3-1 .3-1.3.3-1 .4-2.7 3.3-8.3 5.6zm85.4 105.8c-.7 1.4-.7 1.7-1.6 3.3-1 1.7-2 2-4 3s-33.9 14.8-34.9 15.2c-3.7 1.6-3 .6-2.7-.7.4-.3.4-1 1-2.6.7-1.7 1.3-2.3 3.6-3.3 2.7-1 33.7-14.9 36-15.9 3.6-1.6 2.9-.3 2.6 1zm-272.9-103.1c-3.6 1.6-3 .3-2.6-.7.3-.6.6-1.3 1-3 .6-1.6 1.3-2.3 3.6-3.2 2.6-1 41.5-17.8 43.8-18.8 3.6-2 3-.4 2.3 1-.3.9-.6 1.3-1.6 2.9-1 2-2 2.3-4 3.3s-41.5 17.8-42.5 18.5zm27.7 14.1q2 2 4.3 3.7l.3 1-7.2 7.2h-1.4q-2.3-1.6-4.6-3.6-1.6-2-3.3-4l.4-1.3 7.2-7.2h.7c1 1.6 2.3 2.9 3.6 4.2zm166.4 14.2h.7q2 2 4 4 2.6 2 4.9 3.3l.3 1-6.6 8.2h-1.6q-2.3-1.3-4.6-3.3l-2.7-2.3-6.2 7.6-1.7.3q-2.3-1.3-4.6-3.3-2.3-1.6-3.9-3.9v-1.4l6.9-8.2h.6c1.4 1.6 2.7 3 4 4.3l3.3 2.3.3-.7zm-8.9-17.8q2 2 4 4 2.3 2 4.9 3.3v1l-6.2 7.6-1.7.3q-2.3-1.3-4.6-3.3-2-1.7-3.6-3.6v-1.4l6.6-7.9z" fill="#231f20" fill-rule="evenodd"/></svg>