<svg height="472" viewBox="0 0 418 472" width="418" xmlns="http://www.w3.org/2000/svg"><path d="m309.5 98.8c-.7 1.7-4 8.6-4 8.6s-.6 0-4.3-1c-17.5-4.3-43.6 7.6-47.3 9.3q-10.9 3.9-20.8 5.9s-30.4 5.6-49-4.3c-3.9 10.3-9.5 18.9-12.5 22.2-17.9 18.5-45.7 1-48.3-1-3-2 0-3.3 1.6-3 15.3 7 30.1 3 33.4 2 10.3-4.3 16.9-15.2 20.9-23.2-11.9-7.9-4.3-19.1-3.7-20.8 1-1.6 1.4-1 1.7.7 2.3 13.9 29.4 17.2 33.4 17.5 25.8 3 56.6-10.3 59.2-11.2-23.1-9.3-39.7-4-41-3.7-1.3 0-1.3-1-.7-2l5.3-8.2c3.3-3.3 30.5-4.3 30.5-4.3.3-5.7-6-39.1-6-39.1-.7-3.6-1.3-7.6-1.3-9.2-.3-3.3-1.7-8.3-3.3-10.9-1-2 0-2.7 1-4 1.6-2.7 2.3-5.3 3.6-7.3s2 0 2.7 2.3c.9 3 4.3 8 6.2 10.6 2 2.7-1.3 5-2.9 6.3-1.7 1.3-.4 4.3-.4 6.9 0 0 4 26.5 5 35.8 1 9.6-2 13.2-3.3 14.2 13.2 7.3 36 7.9 41 8.3 5 0 4 .9 3.3 2.6zm-133.6-35.4q2 2 4.6 3.7v.9l-7.3 7-1.3.3q-2.3-1.6-4.3-3.6-2-2-3.3-4v-1.3l7.3-7.3h.6c1.4 1.3 2.4 3 3.7 4.3zm101.2 71.5.3.6-7.3 7.3h-1.3q-2.3-1.3-4.6-3.6-1.7-1.7-3.3-4l.3-1.3 7.3-7.3.7.3c.9 1.3 2.3 2.7 3.6 4q2 2.3 4.3 4zm43-16.9c-1 2.6-2.7 1.6-2.3-2 .3-16.2-3-38.7-4-46.3-1-7.3-2-15.2-3-25.8-.3-6 .7-10.3 2.3-13.9 2-3.3 2.4.3 2.7 4.6.3 7.6 4.3 37.1 5.3 46.7 2 19.2 1 32.1-1 36.7zm-199.5-9.6c-3.3-2.3-6.6-4-8.2-5.6-2.3-1.7-2.3-5.3-1-7.6 4.3-6.3 14.5-16.6 20.5-16.2 3.6 0 7.6 4.6 7.3 6.6 0 2-4 8.2-5.7 8.2-1.6 0-1.3-4.9-7.2-5.9-1.7-.3-7 3-7.3 4.9 0 2 5.6 7.7 12.9 8.3 5.9.7 9.9-.3 14.9-1.3 1 0 1.3.3.6 1.3-.3 1-3.9 7.3-4.6 7.3-4.3.3-8.9 1.6-14.6 3.6-6.6 2.3-12.5 5.3-16.8 8-.7.3-1-.4-1-1 .6-1.7 1.6-4.3 2.6-6 1.7-1.6 6-4.3 7.6-4.6zm51-66.8c-4.3 1.6-6 1.6-10.9 3.6-1 .4-2.4 0-2.7-.6 0-1 1-2 2-2.7 2-1.3 14.6-7.6 14.9-8.3 0-.3-5.6-2.3-8.6-2.6q-5-.3-9.3 2.3c-1.3.7-2.3 2-3.3 3-.6 1.3-1.3.3-1-1 .4-1 1-2 1.3-2.6 3-6.3 8.3-9 14.3-8.6 3.6.3 7.2 2.3 10.9 2.9 1 .4 4.6.7 4.6 1.7 0 1.3-1.3 5.3-3 6.9-.3.4-1 .4-1.3.4-1 .3-2.6 3.3-7.9 5.6zm-69.1 30.4c-3 1.3-5.3-.3 1.3-4.9 10.2-7.3 17.8-12.3 21.1-17.9 0 0-6.2-4-8.9-7-3-2.9.7-10.5 3.6-13.8 7-8 10.6-2.7 11.3-1.4 3.6 7 1.3 15.2.3 17.6 0 0 3 2.3 3.7 2.9 1 1.4.6 3.7-1 8-.4 1.3-2-2.7-6-4.3-3 6.3-6.3 11.6-25.4 20.8zm25.7-29.4c.4-1.3 1-7.3-1.9-10.9-1.7-2-3.7-2-6.3 1.9-1 1.4-1 2.7 1 3.7 1.6 1.3 7.2 5.3 7.2 5.3zm77.8 29.4c-3 1.3-5.3-.3 1.3-4.9 10.3-7.3 17.9-12.3 21.2-17.9 0 0-6.3-4-9-6.6-2.9-3 .7-10.9 3.3-13.9 7.3-8.3 10.6-2.7 11.6-1.3 3.7 6.6 1.3 15.2.4 17.5 0 0 2.9 2 3.6 3 1 1 .7 3.6-1 7.6-.3 1.6-2-2.3-6-4.3-2.9 6.3-6.2 11.9-25.4 20.8zm25.8-29.4c.3-1 1-7-2-10.9-1.7-1.7-3.6-2-6.3 2.3-1 1.3-1 2.6 1 3.6 1.7 1 7.3 5 7.3 5zm108.9 187.6c2.7 12.6 0 22.5-1.6 26.5-1.7 3.6-10.6 1.3-14.3 0-5.3-2-8.6-4-9.9-5-1.3 4-3 8-4.6 10.6-1.3 2.7-2.3 3-4.7 2.7-2.3-.4-12.9-4-13.5-7.3v-.3c-6.3 5.6-17.5 9.6-37.7 6.6-5.6 2.3-10.6 2.6-11.6 2.6 0 0-18.2 3-21.5-18.5-1-4.3-3.6-24.5-4.6-31.1-1-6.9-7.3-49.9-8.3-55.2l2.6-9c.4-.6.7-1.9 1.7.7 1.3 2.7 11.9 78.1 12.6 83.7 2.3 19.2 17.5 18.8 20.1 18.8 17.9-.3 23.9-13.5 24.9-15.8.9-2.3 2.6-1.7 2.3.6-.7 6.6-3.3 11.3-6.3 15.2 6.6.4 26.4-.3 32.4-16.2.3-1.3 3-2.3 2 1.4-.3 1.3-.7 5.3-3 9.6 3.3 1.3 12.2 5.2 13.2 1.3 1.4-4 4.7-12.6 5-14.2.7-1.4 3.3-2 2.6.3 0 1-.6 3.6-1.6 7.3 2.3.3 13.6 2.6 17.5 1.6 3-1 2.3-4 2-6.6-.3-3-9.9-56.9-10.6-61.2-1-4-1-6.9-1.3-8.6 0-1.6-1.3-3.6-2.6-5.9-1.4-2.7 0-5.3.3-6.3.6-1 3-3 4.3-6.6 1-1.7 2 .3 2.3 1.9.3 1.7 3.6 7 5 9 1 1 1.6 3.3 1.3 4.3-1 1.6-3 4.9-3.7 5.6-.3.3-.6 1.3-.3 3.3 0 0 8 47.3 9.6 54.2zm-171.7 32.1c-2.9-.6-2.9-7.9-2.6-10.2 0-2 1.6-1 3.3-.7 4.3 1.3 21.8-3.3 28.8-4.9 2-.4 1.6-2.4 1.3-3.7-7.9-17.2-18.2-20.8-20.8-21.8l.3-9.6 1.3-1c11.6 2.6 18.5 15.5 19.9 18.9 4.9 10.5 2.6 23.4 1.9 25.1-.6 1.6-1.9 2.3-3.3 3-1.6.3-21.1 6.3-30.1 4.9zm196.5-47.9c2.7 19.2 2 32.1 0 36.7-1 2.6-2.3 2-2.3-2-.3-15.9-4.6-38.4-5.6-46-1.3-7.3-2.7-15.2-3.7-25.4-1-6.3 0-10.6 1.7-14.3 1.6-3.3 2.3.4 2.6 4.7.7 7.6 6 37 7.3 46.3zm-155.1 58.2c-.7 1-1 1.3-2 3-1 1.6-2.3 1.6-4.3 2.6-2 .7-32.1 10.6-33.4 10.9-3.6 1.3-3 .4-2.3-1 0-.3.3-1 1.3-2.6.7-1.7 1.3-2 4-3 2.3-.7 32.1-10.2 34.4-11.2 3.6-1.4 2.9 0 2.3 1.3zm31.7-93.3c.4-.3.4-1 1-3 .4-1.6 1.4-2 3.7-2.9 2.3-1.4 56.5-25.5 58.8-26.5 3.7-2 3-.3 2.4 1-.4 1-.7 1.3-1.7 3-.7 1.9-2 2.3-4 3.3-1.9 1-56.5 25.4-57.5 25.8-3.7 1.6-3 .6-2.7-.7zm53 13.9 2.3-4.3c.3-.3.6-.7 1 0 1.3 5.3 1.3 9.3.3 12.6-1.3 3.3-2 4.9-6.3 5.9-3 1-6.6 0-8.3-2.6-2.3 5.6-6.6 7.6-10.2 6.9-4.6-.6-7.3-5.6-3-14.2 1.3-2.6 2.3-1.3 2 0-2.3 5.6 0 7.9 3 7.6 4.6-.3 7.3-3 8.2-9.3 0-.9-.6-.6 1.7-2.6 1.7-1.3 1.3-.3 1.3 1.3-.3 2.7.4 4.7 1.7 5.6 2 1.7 4.6 1.4 7.3-.9 0-1.4-.4-3-1-4.7-.4-.6 0-1 0-1.3zm-138.6 6.3c1.3 3.6 3.9 16.2-.4 27.4-3.3 5-4.3 7-8.9 6.3-4-.3-9.9-2-12.9-4.3-6.3 7.6-14.9 9.3-18.2 9.6 3.7 18.5-1.6 29.1-3.3 31.1-15.9 18.2-37.4 16.2-42 14.9-28.4-7-14.9-43.3-12.9-46.6 2-2.7 3-.4 2.7.6-13.6 31.4 13.5 35.1 16.5 35.4 26.8 1.3 35.4-16.5 36.4-20.2 1-3.6-9.6-23.8-12.3-27.8 0 0 2-9.5 2.4-10.9.6-1.3 1.6.4 2.9 2.3 0 0 2.3 4 4.7 8.3 20.5 3.7 25.4-10.2 26.8-15.2.9-5 3.3-2.3 2.9 0q-.3 5-1.3 8.6c4 1.7 14.2 2.6 13.9 1.7-.3-1.4-2-11.6-1.3-14.3.6-2.6 1.3-6.6 2-7.9.6-1.7 1-2.3 2.3 1zm-60.2-3.7c-2.7 1.4-5-.3 1.3-4.6 9.6-6.9 17.2-11.6 20.2-16.9 0 0-6-3.9-8.6-6.6-2.7-2.6.6-10.2 3.3-13.2 6.9-7.6 9.9-2.6 10.9-1 3.3 6.3 1.3 14.2.3 16.5 0 0 2.7 2 3.3 2.7 1 1.3.7 3.6-.6 7.6-.7 1.3-2-2.6-5.6-4.3-3 6-6.3 11.2-24.5 19.8zm24.5-27.7c.3-1.4.9-7-1.7-10.6-1.7-1.7-3.6-2-6.3 2-.6 1.3-.6 2.6 1 3.6 1.7 1 7 5 7 5zm276.7 215.5c9.2 23.5-4.3 39.7-5.7 41.7-3.9 5.6-8.2 10.6-13.9 12.9-17.8 7.6-40.3 2.6-42.6 2-4.7-1-2.7-4 1.3-3.3 40.7 5.2 56.9-24.5 59.2-32.5l.3-1.9c-7.2 1.6-14.5 1.6-17.2.6-10.6-3-8.6-18.8 0-29.4 9-10.3 17.2 6.6 18.6 9.9zm-4.3 8.3c-2-3.7-5-6.6-7-8.3-4-3.3-7.3 1.3-7.9 3.3-2 7 9.2 5.6 11.5 5.6zm9.6-61.8c-.6 1-.6 1.3-1.6 3-1 1.6-2 1.9-4 3.3-2 1-34.1 14.2-35.4 14.5-3.3 1.7-3 .3-2.3-.6q0-.5 1-3c.3-1.7 1.3-2 3.6-3.3 2.4-1 34.1-13.9 36.4-14.9 3.7-2 3-.3 2.3 1zm-94.6-2.3s6.7 40.3 7 61.8c.6 15.6-8.3 19.9-11.9 20.5-10.6 1.7-15.9-3.6-16.9-5.3-.3-1.3-2.3-3.3-4-5.3-5.9 4-31 17.9-45.6 3.3-1.3 3.7-2.6 7.3-3.6 9-3 4.3-9.6 6.3-18.9-2.3-7.6 9.2-18.8 6.2-30.4-2.4-4 1.7-10.6 4.7-12.3 5.3 0 0-2.9.7-5.9 1.7v.3c-4 15.2-10.3 29.5-14.6 33.8-18.5 19.5-49.9 2.6-52.9.6s0-3.6 2-3c15.9 7 30.8 3 34.4 1.7 14.5-6.3 22.8-25.1 25.1-31.4q-1.6.6-2.6 1c-2.7.6-4.3-5.3-5-7.6-.6-2.4 0-3 5.3-4.3 8-2 21.5-7.3 27.5-10.3 4.9-2.6 3.3 3.6 2.9 6.3 24.2 8.3 29.5-5.6 31.1-10.6 1.4-4.6 3-2.6 2.4-.3q-.7 5.9-2.4 10.2c3.7 1.7 11.9 6.3 14.9.4 1.7-3.3 2-7.6 3-11 1-3.6 3.3-3.3 3 0 0 1-.4 2.7-.7 4.7 5 3 20.2 9.9 37.1-1l-1.7-1c-7.3-4.6-13.9-4.3-16.5-2.7-3 2-2-3.3-.7-5.2 13.2-20.9 36.4-8 38.7-4 1.7 2.3 2.3 8.3-6.3 14.5l1 .7c11.9 6.6 18.9.7 20.2-.7 1-1.3-8-64.8-8.6-69.4-.7-4-1-7.6-1-9.6-.3-3.3-2.7-8-4-10.9-1.3-2-.3-2.7 1-4 1.7-2.6 2.3-4 4-6 1-1.9 2 0 2.6 2.7 1 2.6 4.3 7.3 6.3 9.9 2 3-1.6 6-3.3 7.3-1.6 1.3-1 2-1 4.6 0 0 .7 4.3 1.3 8zm-170 34.4c-2.6 1.6-5.3 0 1.4-5 10.2-7.3 18.1-12.2 21.5-17.9 0 0-6.3-3.9-9.3-6.6-2.7-3 1-10.9 3.6-13.9 7.3-7.9 10.6-2.6 11.6-1.3 3.3 6.6 1.3 15.2.3 17.5 0 0 2.7 2 3.7 3 1 1.3.3 3.7-1 8-.7 1.3-2-2.7-6-4.7-2.9 6.6-6.3 11.9-25.8 20.9zm26.2-29.1c0-1.4.6-7.3-2-11-2-1.9-4-2.3-6.6 2-.7 1.3-.7 2.7 1 3.7 1.9 1 7.6 5.3 7.6 5.3zm166.3-12.9c-1-7.3 0-12.6 1.7-16.6 1.6-4 2.3.3 2.6 5.3.7 8.9 6 43.7 7.3 54.9 2.7 22.2 2 37.4.3 43-1 3-2.6 2-2.6-2.3-.3-18.9-4.6-45.3-5.6-54.2-1.4-9-2.7-17.9-3.7-30.1zm-224.2 109.1c-17.6 7.6-40 2.7-42.4 2.3-4.6-1.3-2.6-4.3 1-3.6 41 5.6 56.9-24.5 59.6-32.4l.3-2c-7.3 1.6-14.6 1.6-17.2 1-10.6-3.3-8.6-19.2 0-29.8 8.6-10.2 17.2 6.6 18.5 9.9 9.3 23.5-4.3 39.7-5.6 41.7-4.3 5.6-8.6 10.6-14.2 12.9zm15.5-46c-2-3.9-4.9-6.9-6.9-8.6-4-3.3-7.3 1.4-8 3.3-2.3 7 9.3 5.7 11.6 5.7q1.7-.4 3.3-.4zm-43.6 20.9c-14.9 17.8-35.1 15.8-39.7 14.5-27.1-6.6-14.2-42.3-12.3-45.6 1.7-2.3 3-.4 2.4 1-12.9 30.4 13.2 34 15.8 34.4 25.5 1.3 33.8-16.2 34.4-19.9 1-3.3-8.9-23.1-11.6-26.8 0 0 2-9.6 2.4-10.9.6-1 1.6.3 2.6 2.3 0 0 7.3 12.3 8.9 18.9 4 19.5-1 30.1-2.9 32.1zm132.3-84.4c-4.3 1.7-6 1.7-10.9 3.7-1 .3-2.4 0-2.7-.7 0-1 1-2 2-2.6 2-1.4 14.5-7.7 14.9-8.3 0-.3-5.6-2.3-8.6-2.7q-5-.3-9.3 2.4c-1.3.6-2.3 1.9-3.3 2.9-.7 1.4-1.3.4-1-1 .3-1 1-1.9 1.3-2.6 3-6.3 8.3-8.9 14.3-8.6 3.6.3 7.2 2.3 10.9 3 1 .3 4.6.6 4.6 1.6 0 1.3-1.3 5.3-3 7-.3.3-1 .3-1.3.3-1 .3-2.6 3.3-7.9 5.6zm85.3 105.9c-.7 1.3-.7 1.6-1.7 3.3-.9 1.6-1.9 2-3.9 3.3-2 1-33.8 14.5-35.1 15.2-3.6 1.7-3 .3-2.3-.7 0-.3.3-1.3.7-2.9.6-1.7 1.3-2.4 3.9-3.3 2.4-1 33.8-14.6 36.1-15.9 3.6-1.7 3 0 2.3 1zm-273.2-103.2c-3.6 1.3-3 .3-2.6-.7.3-.7.3-1.3.9-3 .4-1.6 1.4-2.3 3.7-3.3s41.3-17.8 43.6-18.8c3.7-1.7 3-.4 2.7 1-.7 1-1 1.3-1.7 3.3-1 1.6-2.3 2-4.3 2.9-1.6 1-41.3 17.9-42.3 18.6zm27.4 14.2q2.4 2 4.7 3.6v1l-7.3 7.3h-1.3q-2.3-1.7-4.3-3.6-2-2-3.3-4v-1.3l7.2-7.3h1c1 1.3 2 3 3.3 4.3zm166.8 14.2h.9c1.4 1.3 2.4 2.7 4 4q2.3 2 5 3.3l.3 1-6.9 7.9-1.4.4q-2.6-1.4-4.9-3.4l-2.3-2.3-6.7 7.6-1.3.4q-2.6-1.7-4.9-3.3-2-2-3.7-4v-1.3l6.6-8.3h1c1.4 1.3 2.7 3 4 4l3.3 2.3.3-.3zm-8.9-17.9q2 2 4 4 2.3 1.9 4.9 3.3v.6l-6.6 8-1.3.3q-2.3-1.3-4.6-3.3-2-1.7-3.7-3.6v-1.4l6.6-7.9z" fill="#231f20" fill-rule="evenodd"/></svg>