<svg height="512" viewBox="0 0 420 512" width="420" xmlns="http://www.w3.org/2000/svg"><path d="m313 99.7c-.6 1.6-3.8 8.7-3.8 8.7s-1 0-4.8-.9c-17.7-4.2-44.5 7.7-48.3 9.3-7.1 2.9-14.2 4.8-21.3 6.1 0 0-30.8 5.8-49.5-4.5-4.2 10.6-9.7 19.6-13.2 22.8-18 19-46.3 1-49.2-.9s0-3.6 1.9-2.9c15.4 6.7 30.6 2.9 34.1 1.6 10.3-4.2 17.1-15.1 20.9-23.5-11.9-8-4.2-19.6-3.5-21.2.9-2 1.6-1.3 1.9.6 2.3 14.2 29.9 17.7 33.8 17.7 26.4 3.2 57.9-10.3 60.5-11.3-23.5-9.3-40.6-4.1-41.8-3.8-1.3.3-1.3-.7-1-1.6l5.8-8.7c3.5-3.6 30.9-4.5 30.9-4.5.6-5.5-6.1-39.9-6.1-39.9-.7-3.6-1-7.4-1.3-9.4-.3-3.2-1.6-8.3-3.2-11.2-1.3-2-.4-2.6.6-3.9 2.3-2.6 2.6-5.5 4.2-7.7 1-1.6 1.9.3 2.6 2.6.9 2.9 4.5 8 6.4 10.6 1.9 2.9-1.6 5.1-3.2 6.7-1.6 1.3-.3 4.2 0 7.1 0 0 3.8 27.1 4.8 36.4 1 9.6-1.9 13.5-3.2 14.5 13.5 7.7 36.7 8 41.5 8.3 5.2.4 4.2 1.3 3.5 2.9zm-136.4-36.3q2.2 2.2 4.8 3.8v1l-7.4 7.4h-1.3q-2.5-1.6-4.5-3.5-1.9-2-3.5-4.2l.3-1.3 7.1-7.4h1c.9 1.3 2.2 2.9 3.5 4.2zm103.6 73v.7l-7.4 7.4-1.3.3q-2.5-1.6-4.5-3.9-1.9-1.9-3.5-4.2l.3-1.2 7.1-7.4 1 .3c.9 1.3 2.2 2.9 3.5 4.2q2.2 2.2 4.8 3.8zm43.8-17c-1.3 2.5-2.6 1.6-2.6-2.3.3-16.4-3.2-39.2-4.2-47-.9-7.7-1.9-15.7-2.5-26.4-.7-6.1.3-10.6 2.2-14.1 1.9-3.2 2.3.3 2.6 4.5.3 7.7 4.5 38 5.4 47.9 2.3 19.3 1 32.5-.9 37.4zm-203.7-10c-3.6-2.3-6.5-3.9-8.4-5.5-2.2-1.9-2.6-5.5-1-8 4.2-6.5 14.9-17.1 21-16.4 3.8 0 7.7 4.8 7.4 6.7-.4 1.9-3.9 8.4-5.8 8.4-1.6 0-1.6-5.2-7.4-6.1-2-.4-7.1 3.2-7.4 4.8-.4 2.3 5.8 8 13.2 8.7 6.1.6 9.9-.3 15.1-1.3 1 0 1.3.3.6 1.6-.3.7-4.1 7.1-4.8 7.1-4.2.3-9 1.6-14.8 3.8-6.8 2.3-12.9 5.5-17.1 8.1-.6.3-1.2-.3-.9-1 .6-1.6 1.6-4.5 2.6-6.1 1.6-1.6 6.1-4.2 7.7-4.8zm51.8-68.2c-4.2 1.9-5.8 1.9-11 3.5-1.2.6-2.2.3-2.5-.3-.3-1.3.9-2.3 1.9-2.9 1.9-1.3 15.1-7.7 15.1-8.4 0-.3-5.8-2.2-8.7-2.6q-5.1-.6-9.6 2.3c-1.3.6-2.3 1.9-3.2 3.2-.7 1-1.3 0-1-1.3.3-.6 1-1.9 1.3-2.5 2.9-6.5 8.4-9.1 14.5-8.7 3.8.3 7.4 2.2 10.9 3.2 1.3 0 4.8.6 5.2 1.6-.4 1.3-1.6 5.1-3.3 6.8-.3.6-.9.3-1.2.6-1 .3-2.6 3.2-8.4 5.5zm-70.5 31.2c-2.9 1.3-5.5-.3 1.3-5.2 10.6-7.4 18.7-12.5 21.9-18.3 0 0-6.5-4.2-9.3-7.1-2.9-2.9.9-10.9 3.5-13.8 7.4-8.4 10.9-2.9 11.9-1.3 3.5 6.7 1.3 15.4.3 17.7 0 0 2.9 2.2 3.6 2.9 1.2 1.3.6 3.8-1 8-.3 1.6-1.9-2.5-6.1-4.5-2.9 6.8-6.5 12.2-26.1 21.6zm26.4-30.3c.3-.9 1-7.4-1.9-10.9-2-1.9-3.9-2.3-6.5 1.9-.9 1.3-.9 2.9 1 3.9 1.9 1.3 7.4 5.1 7.4 5.1zm79.5 30.3c-3.2 1.3-5.8-.3 1.3-5.2 10.3-7.4 18.3-12.5 21.5-18 0 0-6.4-4.2-9.3-7.1s1-10.9 3.9-14.1c7-8.1 10.6-2.6 11.6-1.3 3.5 6.7 1.2 15.4.3 18 0 0 2.9 1.9 3.5 2.9 1.3 1.3.7 3.5-.6 8-.7 1.7-2.3-2.5-6.1-4.5-3.3 6.5-6.5 11.9-26.1 21.3zm26.1-29.9c.3-1.3 1.2-7.4-2-11.3-1.6-1.9-3.5-1.9-6.4 2.2-1 1.3-1 2.6 1 3.9 1.9 1 7.4 5.2 7.4 5.2zm91.9 214c2.9 12.8.3 23.1-1.6 27-1.6 4.2-10.6 1.6-14.5.3-5.1-1.9-8.7-3.9-10.3-5.1-1.3 4.1-2.9 8-4.5 10.9-1.6 2.6-2.2 2.9-4.8 2.6-2.3-.3-13.2-4.2-13.5-7.4l-.3-.3c-6.5 5.4-18.1 9.6-38.3 6.7-5.8 2.3-10.7 2.6-11.9 2.6 0 0-18.7 3.2-21.9-18.7-1.3-4.5-3.9-25.1-4.9-31.8-.9-7.1-7.4-50.9-8.3-56.4l2.6-9c.3-.6.6-2.2 1.9.7.9 2.6 12.2 79.5 12.9 85.3 2.2 19.6 17.7 19.3 20.2 18.9 18.7 0 24.5-13.5 25.5-16 .9-2.3 2.5-1.7 2.2.6-.6 6.8-3.2 11.9-6.4 15.4 6.7.7 27.3-.3 33.1-16 .7-1.7 3.2-2.6 2.3.9-.4 1.3-1 5.5-3.3 10 3.3 1.3 12.6 5.1 13.9 1.6 1.3-4.2 4.5-13.2 4.8-14.8.7-1.3 3.2-2.3 2.9.3-.3 1-1 3.9-1.9 7.4 2.2.3 14.1 2.6 18 1.6 2.9-.6 2.3-3.8 1.9-6.7-.3-2.9-9.9-58-10.9-62.5-.7-3.8-.7-7-1-8.6-.3-2-1.6-3.6-2.9-6.2-1.3-2.5-.3-5.4.3-6.4.7-.6 2.9-2.9 4.6-6.4.6-1.6 1.6.3 2.2 1.9.3 1.6 3.5 7.1 4.8 9 1 1 2 3.2 1.6 4.2-.9 1.9-3.2 5.1-3.8 5.8-.3.6-.7 1.6-.3 3.5 0 0 8.3 48 9.6 55.1zm-101.4-53.8c.4-.3.4-1.3 1-2.9.7-1.9 1.3-2.2 3.9-3.5 2.2-1 54-22.2 56.6-23.2 3.5-1.9 2.9-.3 2.3 1-.4 1.3-.7 1.6-1.6 3.2-.7 1.6-2 2.2-3.9 3.2s-54.4 22.5-55.7 22.9c-3.5 1.6-2.9.6-2.6-.7zm-53.1 115.9c-3.2 1.2-28.3 8.3-35.7 9.9-31.8 6.5-53.4-7-55.3-36.3-1.6-26.7 12.2-45.4 17.7-52.2 1.6-2.5 3.2-4.1 4.8-5.4-5.8-5.8-10.9-2-12.2-.7s-2.3.3-1.6-1.9c3.2-11.3 8.3-14.8 17.3-16.1 9.1-1.6 16.1 2.9 17.4 3.9 4.2 2.9 1.6 8.7-.3 12.5-1 1.6-2.9 2.9-5.5 4.2 2.6 1.6 4.5 2.6 5.2 2.6 23.1 7.7 50.5-4.9 52.1-5.8 1.6-1-5.1-10.3-8.4-14.5 0 0 1.7-8.7 2-10.6s.9-1.9 2.2-.3c10.3 9.9 9 21.5 8.7 25.1-1 8.3-2.9 9.3-4.8 10.3-17.4 8.6-32.2 9-37.3 9-19-.7-23.9-4.9-28.7-10.3-8.4 5.4-18.3 14.1-22.5 32.2-4.2 22.2 2.6 36.3 20.3 41.5 17.3 5.1 56.9-1 63.7-1.3 6.4-.7 4.2 2.6.9 4.2zm-1.6-54.7q2.3 2.2 4.5 3.8l.4 1-7.4 7.4h-1.6q-2.3-1.6-4.6-3.9-1.9-1.9-3.2-3.8v-1.3l7.4-7.4h1c1 1.3 2.3 2.9 3.5 4.2zm182.8-18.4c2.9 22.5 2.3 38 .3 43.5-.9 2.9-2.5 1.9-2.5-2.6-.4-18.7-4.5-45.4-5.8-54.1-1.3-9-2.6-18.3-3.9-30.6-.6-7 0-12.2 1.9-16.4 1.7-3.8 2.3.4 2.6 5.2.7 9 6.1 43.7 7.4 55zm-76.9-28 2.3-4.2c.3-.3.6-.6.9 0 1.6 5.2 1.6 9.4.4 12.6-1.3 3.5-2 5.5-6.2 6.4-3.2.7-6.7 0-8.7-2.9-2.2 5.8-6.7 7.7-10.6 7.4-4.5-.9-7.4-5.8-2.9-14.8 1.6-2.9 2.3-1.3 2 0-2.3 5.8 0 8.1 3.2 7.7 4.8-.3 7.4-3.2 8.3-9.3 0-1-.6-1 1.7-2.6 1.6-1.3 1.6-.6 1.2 1.3q0 3.9 2 5.8c1.9 1.6 4.8 1.3 7.4-1.3 0-1.3-.7-3.2-1.3-4.8 0-.3 0-.6.3-1.3zm-84.3 62.1c-.6 1.3-1 1.6-1.6 3.6-1 1.6-2.3 1.9-4.2 3.2-1.9.9-31.5 14.5-32.5 14.8-3.5 1.6-3.2.6-2.6-.7 0-.3.4-1.2.7-2.9.6-1.9 1.3-2.2 3.8-3.2 2.6-1.3 31.6-14.5 33.8-15.7 3.6-1.7 2.9-.4 2.6.9zm-115.2-75.9c-2.6 1.3-5.2-.3 1.3-4.8 10-7.1 17.7-12 20.6-17.4 0 0-5.8-3.9-8.7-6.5-2.6-2.9.6-10.6 3.5-13.5 6.8-7.7 10.3-2.6 11-1.3 3.5 6.5 1.3 14.8.3 17.1 0 0 2.9 1.9 3.5 2.9 1 1 .7 3.5-.6 7.4-.7 1.6-2.3-2.3-5.8-4.2-3.2 6.1-6.1 11.6-25.1 20.3zm25.1-28.7c.3-.9 1-6.7-1.9-10.3-1.6-1.9-3.6-2.2-6.2 2-.6 1.3-.6 2.5 1 3.5s7.1 4.8 7.1 4.8zm297.1 243.1c9.3 24.1-4.2 40.5-5.8 42.8-4.2 5.4-8.3 10.9-14.1 13.2-18.4 7.4-41.2 2.5-43.5 1.9-4.8-1-2.9-4.2 1.3-3.6 41.5 5.5 57.9-25.1 60.5-32.8l.3-2.2c-7.4 1.6-15.1 1.6-17.7.9-10.6-3.5-8.7-19.6 0-30.2 9-10.6 17.7 6.4 19 10zm-4.2 8.7c-2.2-3.9-5.4-6.8-7.4-8.7-3.8-3.3-7.4 1.6-8 3.5-2.3 7.1 9.3 5.8 11.9 5.5zm9.6-63.1c-.6 1.3-.6 1.6-1.6 3.2-.9 1.9-2.2 2.3-4.1 3.2-2 1-34.8 14.5-35.8 15.2-3.8 1.6-3.2.3-2.9-1q.5-.5 1-2.9c.6-1.6 1.6-2.3 3.9-3.2 2.5-1 34.7-14.5 37.3-15.5 3.5-1.6 2.9-.3 2.2 1zm-93.3-2.3s6.8 41.6 7.1 63.1c.6 16.1-8.4 20.3-12.2 20.9-10.6 2-16.1-3.5-17.1-5.4-.3-1-2.2-3.3-4.2-5.2-5.8 3.9-31.5 18.4-46.6 3.6-1 3.5-2.3 7-3.6 9-2.9 4.5-9.9 6.4-19.3-2.3-7.4 9.3-19 6.1-30.9-2.6-3.8 1.7-10.9 4.5-12.5 5.2 0 0-2.9 1-6.1 1.9v.7c-4.2 15.4-10.3 29.6-14.8 34.1-19 19.9-50.9 2.6-53.8.6-3.2-1.9-.3-3.5 1.6-2.9 16.1 7.1 31.6 2.9 35.1 1.6 15.1-6.4 23.5-25.7 25.8-32.1q-1.7.6-2.6.9c-2.9 1-4.2-5.5-5.2-7.7-.6-2.3 0-3.2 5.5-4.5 8-1.9 22.2-7.4 28-10.3 5.1-2.6 3.5 3.9 3.2 6.4 24.5 8.4 29.9-5.8 31.5-10.6 1.7-4.8 2.9-2.9 2.6-.6q-.9 6.1-2.6 10.6c3.6 1.6 12.3 6.4 15.2.3 1.6-3.5 2.2-7.7 3.2-11.3 1-3.5 3.2-3.2 2.9.4 0 .9-.3 2.5-.7 4.5 5.2 2.9 20.6 10.3 37.7-1l-1.6-1c-7.4-4.8-14.2-4.1-16.7-2.9-3.3 2-2-3.2-.7-5.1 13.5-21.2 37-8.1 39.6-4.2 1.3 2.3 2.2 8.4-6.8 14.8l1.3.7c12.2 7 19.3.9 20.3-.4 1.3-1.6-7.7-66.3-8.7-71.4-.3-3.5-1-7.7-1-9.3-.3-3.6-2.5-8.4-4.1-11.3-1-1.9 0-2.6.9-4.2 2.3-2.6 2.6-3.8 4.2-6.1 1.3-1.9 1.9.3 2.9 2.6 1 2.9 4.5 7.7 6.4 10.6 2 2.6-1.9 5.8-3.5 7.1-1.6 1.6-1 1.9-1 5.1 0 0 .7 4.2 1.3 7.7zm-173.1 35.4c-3.2 1.3-5.8-.3 1.3-5.1 10.3-7.4 18.3-12.6 21.5-18.3 0 0-6.4-3.9-9.3-6.8s1-10.9 3.9-14.2c7-8.3 10.6-2.9 11.6-1.3 3.5 6.8 1.2 15.5.3 17.7 0 0 2.9 2.3 3.5 3.3 1.3.9.7 3.5-.6 8-.7 1.3-2.3-2.9-6.1-4.5-3.3 6.4-6.5 11.9-26.1 21.2zm26.1-29.9c.3-1.3.9-7.4-2-11.2-1.6-2-3.5-2-6.4 2.2-1 1.3-1 2.6 1 3.5 1.9 1.3 7.4 5.5 7.4 5.5zm169.9-13.2c-1-7.4 0-12.5 1.9-16.7 1.6-3.9 2.3.3 2.6 5.1.6 9.4 6.1 44.4 7.4 56 2.9 22.9 2.2 38.3.3 44.1-1 3.2-2.6 2-2.6-2.6-.3-18.9-4.5-46-5.8-55s-2.5-18.3-3.8-30.9zm-228.5 111.7c-18.4 7.4-41.2 2.6-43.5 1.9-4.8-.9-2.9-4.2 1.3-3.5 41.5 5.5 58-25.1 60.5-32.8l.4-2.3c-7.4 1.6-14.9 1.6-17.7 1-10.7-3.6-8.7-19.7 0-30.3 9-10.6 17.7 6.5 18.9 10 9.7 24.1-4.1 40.5-5.8 42.8-4.1 5.5-8.3 10.6-14.1 13.2zm15.8-47.3c-2.3-3.9-5.5-7.1-7.4-8.7-3.9-3.2-7.4 1.6-8.1 3.5-2.2 6.8 9.3 5.8 11.9 5.5q1.6 0 3.6-.3zm-44.8 21.5c-15.1 18.1-36 16.1-40.5 14.8-27.7-6.7-14.5-43.1-12.3-46.6 1.7-2.6 2.9-.3 2.3 1-13.2 31.2 13.5 35 16.1 35 26.1 1.3 34.4-16.4 35.4-19.9 1-3.6-9.3-23.8-11.9-27.7 0 0 1.6-9.7 2.2-10.9.7-1.3 1.6 0 2.9 2.2 0 0 7.4 12.6 8.7 19.3 4.2 19.7-.9 30.6-2.9 32.8zm134.9-86.2c-3.9 1.9-5.8 1.6-11 3.5-.9.4-2.2.4-2.6-.6 0-1 1-1.9 2-2.6 1.9-1.3 15.1-7.7 15.1-8.3 0-.4-5.8-2.3-8.7-2.6q-4.8-.7-9.6 2.2c-1.3.7-2.3 2-3.3 3.3-.6.9-1.2 0-.9-1.3.3-1 .9-2 1.3-2.9 2.9-6.1 8.7-8.7 14.4-8.4 3.9.3 7.4 2.3 11 2.9 1.3.3 5.1.6 5.1 1.9s-1.6 5.2-3.2 6.8c-.3.3-1 .3-1.3.6-.9.4-2.5 3.2-8.3 5.5zm87.2 108.1c-.4 1.3-.7 1.6-1.6 3.2-1 2-2 2.3-3.9 3.3-2.3.9-34.8 15.1-35.7 15.7-3.9 1.6-3.2.4-2.6-.6 0-.7.3-1.3 1-3.2.3-1.6 1.3-2.3 3.5-3.2 2.6-1 34.4-14.9 37-16.1 3.6-2 2.9-.4 2.3.9zm-278.7-105.5c-3.9 1.6-3.2.3-2.6-.7 0-.3.3-1.3 1-3.2.3-1.6 1.3-1.9 3.5-3.2 2.6-1 42.5-18 44.7-19.3 3.6-1.6 2.9-.3 2.6 1-.6 1.2-.9 1.6-1.9 3.5-.7 1.6-1.9 1.9-3.9 3.2-1.9 1-42.4 18-43.4 18.7zm28 14.5q2.2 2.2 4.8 3.8v1l-7.4 7.4h-1.3q-2.6-1.6-4.5-3.6-1.9-1.9-3.5-4.1l.3-1.3 7.4-7.4h.6c1.3 1.6 2.3 2.9 3.6 4.2zm170.2 14.4h1c1.3 1.6 2.6 2.9 3.8 4.2q2.6 2 5.2 3.6l.3.9-7.1 8.1-1.3.3q-2.5-1.3-4.8-3.2l-2.6-2.6-6.7 7.7-1.3.3q-2.6-1.2-4.8-3.2-2.3-1.9-4.2-4.2l.3-1.2 6.8-8.4h.9c1.3 1.6 2.6 2.9 3.9 4.2l3.5 2.2.4-.3zm-9-18.3c.9 1.2 2.2 2.9 3.8 3.8q2.3 2.3 4.8 3.6l.4.9-6.8 8.1h-1.3q-2.6-1.3-4.8-3.2-2.3-1.7-3.9-3.9v-1.3l6.8-8z" fill="#231f20" fill-rule="evenodd"/></svg>