<svg height="489" viewBox="0 0 422 489" width="422" xmlns="http://www.w3.org/2000/svg"><path d="m309 100.9c-.7 1.5-4 8.3-4 8.3s-1 0-4.7-.9c-17.5-4-43.7 8-47.7 9.5-7.1 2.8-14.2 4.6-21 6.2 0 0-30.8 5.5-49.3-4.6-4.3 10.4-9.5 19.4-12.9 22.7-17.9 18.5-45.9 1-48.7-1.2-2.8-1.8 0-3.4 1.9-2.8 15.1 6.8 30.2 3.1 33.5 1.6 10.5-4 17.3-15.1 21-23.1-12-8-4.3-19.4-3.7-21 .9-1.8 1.5-1.2 1.8.6 2.2 13.9 29.9 17.6 33.6 17.6 26.2 2.8 57.3-10.5 60.1-11.4-23.4-9.2-40.4-4-41.6-3.7s-1.2-.9-.9-1.8l5.5-8.4c3.4-3.3 30.8-4.6 30.8-4.6.4-5.2-6.1-39.4-6.1-39.4-.6-3.7-.9-7.4-1.2-9.3-.4-3.3-1.9-8.3-3.4-11-1.3-1.9 0-2.5.9-4.1 1.8-2.4 2.5-5.2 3.7-7.3 1.2-1.9 2.1 0 2.8 2.4 1.2 2.8 4.3 8 6.4 10.5 1.9 2.8-1.5 5.2-3.1 6.8-1.5 1.2-.6 4-.3 6.7 0 0 4 26.9 5 36.4.9 9.2-1.9 12.9-3.1 14.2 13.2 7.4 36.3 7.7 41.3 8 4.9.3 4 1.2 3.4 3.1zm-135.3-35.8q2.2 1.9 4.6 3.7v.9l-7.1 7.1-1.5.3q-2.2-1.5-4.3-3.7-1.9-1.8-3.4-4v-1.5l7.4-7.1h.9c.9 1.6 2.2 2.8 3.4 4.3zm102.6 71.8v.9l-7.1 7.4h-1.5q-2.5-1.5-4.3-3.7-1.9-1.8-3.4-4v-1.2l7.4-7.4.6.3c1.2 1.2 2.4 2.8 3.7 4q2.1 2.2 4.6 3.7zm43.4-16.9c-1.2 2.7-2.7 1.8-2.4-1.9.3-16.3-3.1-39.1-4.3-46.8-1-7.4-1.9-15.4-2.8-25.9-.6-6.2.6-10.8 2.5-14.2 1.8-3 2.4.3 2.4 4.7.3 7.7 4.6 37.5 5.6 47.1 2.1 19.4.9 32.7-1 37zm-201.4-9.6c-3.7-2.1-6.8-3.7-8.7-5.5-2.1-1.6-2.4-5.3-.9-7.7 4.3-6.5 14.5-16.7 20.6-16.4 3.7 0 7.7 5 7.4 6.8-.3 1.9-4 8.3-5.8 8.3-1.6 0-1.2-5.2-7.1-5.8-1.9-.3-7.1 3.1-7.4 4.6-.3 2.2 5.5 8 13.3 8.6 5.8.6 9.8-.3 14.7-1.2 1-.3 1.6 0 .7 1.2-.4 1-4 7.1-4.7 7.4-4.3 0-8.9 1.6-14.8 3.7-6.4 2.2-12.6 5.3-16.9 7.7-.6.6-1.2-.3-.9-.9.6-1.5 1.5-4.3 2.4-6.2 1.6-1.2 6.2-4 8.1-4.6zm51.1-67.1c-4.3 1.5-5.9 1.5-11.1 3.3-.9.3-2.2 0-2.5-.6-.3-.9 1-2.1 1.9-2.4 1.8-1.6 14.8-7.7 14.8-8.4.3-.3-5.6-2.4-8.3-2.7q-5-.6-9.6 2.1c-1.2.9-2.1 1.9-3.1 3.1-.6 1.2-1.5.3-.9-1.2.3-.6.6-1.9.9-2.5 3.1-6.2 8.7-8.9 14.5-8.6 3.7.3 7.4 2.1 11.1 3.1.9.3 4.6.6 4.9 1.5-.3 1.5-1.5 5.5-3.1 7.1-.6.3-.9.3-1.5.3-.9.3-2.5 3.4-8 5.9zm-69.9 30.5c-2.8 1.5-5.3-.4 1.5-5 10.2-7.4 18.2-12.6 21.3-18.2 0 0-6.2-4-9-6.7-3.1-3.1.6-10.8 3.4-14.2 7.4-8 10.8-2.8 11.7-1.2 3.4 6.7 1.3 15.4.3 17.8 0 0 2.8 1.9 3.7 2.8.9 1.2.6 3.7-.9 8-.6 1.6-2.2-2.8-6.2-4.3-3 6.2-6.1 11.7-25.8 21zm26.1-29.6c.4-1.3 1-7.4-1.8-11.1-1.9-2.2-4-2.2-6.5 2.1-.9 1.3-.9 2.5 1 3.7 1.8 1 7.3 5.3 7.3 5.3zm78.6 29.6c-3.1 1.5-5.5-.4 1.2-5 10.5-7.4 18.2-12.3 21.6-18.2 0 0-6.5-4-9.2-6.7-2.8-2.8.9-10.8 3.7-13.9 7-8.3 10.4-2.8 11.4-1.5 3.7 6.7 1.5 15.4.6 17.8 0 0 2.8 2.2 3.4 2.8 1.2 1.2.6 3.7-.6 8-.7 1.6-2.5-2.4-6.2-4.3-3.1 6.5-6.5 11.7-25.9 21zm26.2-29.6c.3-1.3.9-7.4-2.2-11.1-1.8-1.9-3.7-2.2-6.4 2.1-.6 1.3-1 2.5.9 3.7 1.8 1.3 7.7 5.3 7.7 5.3zm81.4 207.4c2.4 14.5-2.8 26.2-4 28-6.5 9.3-17.6 1.3-20.1-.3-2.1-1.5-4.3-.3-7.1 1.3-21.5 13.2-38.2 11.1-41.5 10.8-19.5-2.2-21-25.9-21.9-32.7-.9-7.4-4.3-45-7.4-56.7-.9-4.9.9-12.3 1.5-14.8.3-2.1 1.6-2.8 2.5.6.6 3.4 8.6 63.2 9.5 69.4 3.1 20.3 15.1 21.5 19.5 22.4 18.7 2.2 37.8-8.6 40.9-10.7 3.1-2.2 6.5-.3 8 .6 1.6.6 8.1 3.4 12.1 3.7 4 .6 4.3-5.3 4-9-.7-3.7-8.7-49.3-9-52-.9-5.9-1.8-9.9-2.1-11.1-.6-3.7-.6-6.8-1-8.6-.3-1.6-1.5-3.4-2.7-5.9-1.3-2.8-.3-5.5.3-6.5.6-.6 2.8-2.7 4.3-6.4.9-1.6 1.8.3 2.2 2.1.3 1.6 3.6 6.8 5.2 8.6.9 1.3 1.5 3.4 1.2 4.4-.9 1.8-3.1 5.2-3.7 5.8-.3.3-.6 1.2-.3 3.4 0 0 8.3 47.4 9.6 53.6zm-229.6-38.8c-2.7 1.2-5.2-.3 1.3-4.9 9.8-7.1 17.2-11.7 20.3-17 0 0-5.8-4-8.6-6.8-2.8-2.7.6-10.1 3.4-13.2 6.7-7.7 10.1-2.5 11.1-1.2 3 6.4 1.2 14.4.3 16.9 0 0 2.4 1.8 3.4 2.8.9 1.2.6 3.4-1 7.4-.3 1.5-1.8-2.5-5.5-4-3.1 6.1-6.2 11.1-24.7 20zm24.7-28.4c.3-.9.9-6.7-1.9-10.4-1.5-1.9-3.4-1.9-6.1 2.1-.6 1.3-.6 2.5.9 3.4 1.8 1.2 7.1 4.9 7.1 4.9zm82.9 72.4c-3.1 0-17.9-5.2-22.2-8.6l-.9-1.2c-2.8 4.6-6.2 8.9-9.3 11.1-3.7 1.8-7.1 2.8-10.5 2.8 4 19.7-1.5 30.8-3.4 32.9-16.3 19.7-38.8 17.6-43.7 16.3-29.9-7.3-15.7-46.8-13.2-50.2 1.8-2.7 3-.6 2.4.6-14.2 33.9 14.5 37.9 17.3 37.9 28.3 1.6 36.9-17.5 38.2-21.5.9-3.7-9.9-25.6-13-29.9 0 0 2.2-10.2 2.5-11.7.6-1.3 1.8.3 3.1 2.4 0 0 2.4 4.4 4.9 9.3 12.9 6.1 21.9-4.3 24.7-8 3-4.3 6.1-11.1 15.7-19.7 4-3.4 11.1 0 12.9 5.2 2.2 5.8 1.9 19.4 1.9 21.6 0 2.1-1.6 5.8-2.8 8.3-1.2 2.8-1.6 2.4-4.6 2.4zm146-13.5c2.8 20.6 2.2 34.8.3 39.7-.9 3.1-2.5 2.2-2.5-2.1-.3-17.3-4.6-41.6-5.8-49.9-1.2-8-2.5-16.7-3.7-28.1-.9-6.4 0-11.4 1.8-15.1 1.6-3.7 2.2.3 2.5 5 .9 8 5.9 40 7.4 50.5zm-103.5-70.9q.3-.3.9-2.7c.6-1.9 1.5-2.2 4-3.4 2.5-1 38.8-15.7 41-16.7 3.7-1.8 3.1-.3 2.4 1-.6 1.2-.6 1.5-1.5 3-1.2 1.9-2.1 2.2-4.3 3.1-1.9 1.2-38.8 16-40.1 16.3-3.3 1.9-3 .7-2.4-.6zm-20.4 115.6c-.6 1.2-.9 1.5-1.5 3-.9 1.9-2.2 2.2-4 3.4-2.2 1-35.4 15.7-36.7 16.4-3.7 1.5-3 .3-2.4-.7 0-.6.3-1.2.6-3 .6-1.9 1.2-2.2 3.7-3.4 2.4-1.3 35.4-15.4 37.9-17 3.4-1.8 2.8-.3 2.4 1.3zm56.4-103.9 2.2-4c0-.6.6-.9.9-.3 1.5 5.3 1.5 9.6.3 12.7-1.2 3.3-2.1 5.2-6.1 6.1-3.1.9-6.8 0-8.4-2.8-2.4 5.6-6.7 7.7-10.4 7.1-4.7-.6-7.4-5.5-2.8-14.5 1.2-2.7 2.1-1.2 1.5 0-2.1 5.9.3 8.1 3.1 7.8 4.9-.4 7.7-3.1 8.3-9.3.3-.9-.3-.9 1.9-2.5 1.5-1.5 1.2-.6 1.2 1.3 0 2.4.3 4.6 1.5 5.5 2.2 1.9 5 1.3 7.7-1.2 0-.9-.6-3.1-1.2-4.6-.3-.6 0-1 .3-1.3zm-154.9 41.3q2.1 2.2 4.6 3.7v.9l-7.4 7.4h-1.3q-2.4-1.5-4.3-3.7-2.1-1.8-3.4-4v-1.2l7.4-7.4h.7c1.2 1.5 2.4 3.1 3.7 4.3zm77 18.5c3.1.9-.9-7.1-2.8-10.5-1.8-3.7-5.2-4.3-9.9-2.1-1.2.6-2.7 2.7-4.3 5.2 2.8 4 13.9 6.5 17 7.4zm206.7 154.4c9.3 23.7-4.3 40.4-5.8 42.2-4 5.6-8.3 10.8-13.9 13.3-18.2 7.4-41 2.7-43.1 2.1-4.6-1.2-2.8-4 1.2-3.4 41.3 5.3 57.3-24.9 59.8-32.9l.6-1.9c-7.4 1.5-14.8 1.5-17.6.6-10.8-3.1-8.6-19.1 0-29.6 9-10.7 17.3 6.2 18.8 9.6zm-4.3 8.6c-2.1-3.7-5.2-6.8-7.1-8.6-4-3.1-7.4 1.5-8 3.7-2.1 6.8 9.3 5.5 11.7 5.5zm9.6-62.5c-.6 1.2-1 1.5-1.9 3.1-.9 1.8-1.8 2.1-4 3.1-1.8.9-34.2 14.4-35.4 15.1-3.7 1.5-3.1.3-2.5-1q0-.4.9-2.7c.4-1.9 1.3-2.2 3.7-3.4 2.5-1 34.2-14.2 36.7-15.4 3.7-1.6 3.1 0 2.5 1.2zm-92.5-2.5s6.8 41 7.1 62.9c.6 15.7-8.3 20-12 20.6-10.5 1.9-16-3.7-16.9-5.5-.3-.9-2.2-3.1-4.3-5.3-5.6 4-31.2 18.2-45.9 3.7-1.3 3.7-2.5 7.1-3.7 9-3.1 4.3-9.9 6.1-19.1-2.5-7.4 9.3-18.8 6.5-30.9-2.5-3.7 1.9-10.4 4.7-12.3 5.3 0 0-2.8.9-6.1 2.1v.3c-4 15.5-10.2 29.6-14.5 33.9-18.8 19.8-50.2 2.8-53.3.7-3.1-1.9 0-3.4 1.8-2.8 16 7.1 31.1 2.8 34.5 1.5 15.1-6.1 23.4-25.5 25.6-31.7-.9.3-2.2.6-2.8.9-2.7.9-4-5.2-4.9-7.7-.6-2.1 0-3.1 5.2-4.3 8.1-2.2 22.2-7.4 27.8-10.5 5.2-2.7 3.7 3.7 3.4 6.5 24 8.3 29.5-5.9 31.1-10.5 1.5-4.9 3.1-3.1 2.4-.6q-.9 5.9-2.4 10.5c3.7 1.5 12.3 6.1 15.1.3 1.8-3.4 2.1-8 3.1-11.4.9-3.4 3-3.1 3 .3q0 1.4-.9 4.6c5.2 3.1 20.3 10.2 37.6-.9l-1.5-1.2c-7.4-4.7-14.2-4-16.7-2.5-3.1 1.8-2.1-3.4-.6-5.2 13.3-21.3 36.4-8.4 39.1-4 1.3 2.1 2.2 8.3-6.7 14.4l1.2.6c12 6.8 19.1 1 20.3-.3.9-1.5-8-65.6-8.6-70.5-.6-3.7-1.2-7.7-1.2-9.6-.3-3.4-2.5-8.3-4-11.1-1.3-1.8 0-2.7.9-4 1.8-2.4 2.4-4 4-6.1 1.2-1.9 2.1.3 2.8 2.8.9 2.7 4.6 7.3 6.4 10.1 1.9 2.8-1.8 5.9-3.4 7.1-1.5 1.5-1.2 2.2-.9 4.9 0 0 .6 4.3 1.2 7.7zm-171.6 35.5c-2.7 1.2-5.5-.3 1.3-5.3 10.4-7.4 18.1-12.3 21.5-17.8 0 0-6.1-4-9.2-7.1-2.8-2.8.9-10.8 3.7-13.9 7.1-8.3 10.8-2.8 11.4-1.2 3.7 6.8 1.5 15.1.6 17.5 0 0 2.8 2.2 3.4 3.1 1.2 1.3.6 3.4-.6 7.7-.6 1.6-2.2-2.4-6.2-4.3-3.1 6.5-6.5 12-25.9 21.3zm26.2-29.9c.3-1.3 1-7.4-2.1-11.1-1.6-1.9-3.7-1.9-6.5 2.1-.6 1.3-.6 2.8.9 3.7 1.9 1.3 7.7 5.3 7.7 5.3zm167.9-13.3c-.6-7.1 0-12.3 1.9-16.6 1.8-3.7 2.5.6 2.8 5.5.6 9 5.8 44.1 7.4 55.2 2.7 22.8 2.1 38.2.3 43.7-1 3.1-2.5 1.9-2.5-2.4-.3-19.1-4.6-45.6-5.9-54.6-1.2-8.9-2.7-18.1-4-30.8zm-226.1 110.9c-17.9 7.4-40.7 2.5-43.1 2.2-4.7-1.2-2.5-4.3 1.2-3.7 41.6 5.6 57.6-25 60.1-32.7l.3-1.8c-7.4 1.2-14.8 1.5-17.6.6-10.5-3.4-8.6-19.4.3-29.9 8.7-10.4 17.3 6.5 18.5 9.9 9.6 23.7-4 40.3-5.5 42.2-4 5.5-8.7 10.8-14.2 13.2zm15.4-46.8c-1.8-4-4.9-6.8-7.1-8.6-3.7-3.4-7.4 1.5-8 3.7-2.2 6.8 9.6 5.5 12 5.2q1.6 0 3.1-.3zm-44.1 21.3c-14.7 17.8-35.4 16-40 14.8-27.4-6.5-14.5-42.9-12.3-45.9 1.5-2.8 2.7-.4 2.4.6-12.9 30.8 13.3 34.8 15.7 34.8 25.9 1.2 34.2-16.3 35.2-19.7.9-3.7-9.3-23.8-11.7-27.5 0 0 1.5-9.5 2.1-10.7.6-1.3 1.6 0 2.8 2.1 0 0 7.4 12.3 8.6 19.1 4.3 19.4-.9 30.2-2.8 32.4zm133.8-85.4c-4.4 1.9-6.2 1.6-11.1 3.4-1.3.6-2.5.3-2.5-.3-.3-1.2.9-2.1 1.8-2.8 1.9-1.2 14.8-7.7 14.8-8.3 0-.3-5.5-2.1-8.3-2.4q-4.9-.7-9.5 2.1c-1.3.6-2.5 1.9-3.1 3.1-.9 1.2-1.6.3-1.2-1.2.3-.7.9-1.9 1.2-2.8 3.1-6.2 8.6-8.6 14.5-8.3 3.7.3 7.4 2.1 10.8 3.1 1.2.3 4.9.6 5.2 1.5-.3 1.2-1.6 5.2-3.1 6.8-.6.6-1.2.6-1.5.6-1 .3-2.5 3.1-8 5.5zm86.2 106.9c-.3 1.3-.6 1.6-1.5 3.4-.9 1.6-2.2 2.2-4 3.1-2.2 1.2-34.2 15.1-35.5 15.4-3.3 1.9-3 .6-2.4-.6q0-.5.9-2.8c.6-1.8 1.2-2.1 3.7-3.4 2.5-1.2 34.2-14.8 36.4-16 3.7-1.8 3-.3 2.4.9zm-276-104.1c-3.7 1.5-3.1.3-2.8-.6.3-.6.6-1.6.9-3.1.6-1.8 1.3-2.1 3.7-3.4 2.5-.9 41.9-17.8 44.4-19.1 3.4-1.8 2.8-.3 2.5.9-.7 1.3-1 1.6-1.9 3.4-.9 1.9-2.2 2.2-4 3.1-1.9 1.2-41.9 18.2-42.8 18.8zm27.7 14.5q2.2 2.1 4.6 3.7v.9l-7.1 7.1-1.5.3q-2.2-1.5-4.3-3.7-1.9-1.8-3.4-4v-1.5l7.4-7.1h.9c.9 1.5 2.2 2.7 3.4 4.3zm168.5 14.2 1-.3c1.2 1.5 2.4 3 4 4.3q2.4 1.8 4.9 3.4l.3.9-6.8 8-1.5.3q-2.5-1.2-5-3.4l-2.4-2.2-6.5 7.8h-1.5q-2.5-1.3-4.7-3.1-2.1-1.9-4-4v-1.6l6.8-8h.9c1.3 1.2 2.5 2.8 4.1 4l3.3 2.5.3-.6zm-8.9-17.9c1.2 1.2 2.5 2.5 4 3.7q2.2 2.2 4.9 3.4v.9l-6.4 7.7-1.6.3q-2.4-1.2-4.6-3.1-2.1-1.8-3.7-3.7v-1.5l6.5-7.7zm63.7-115.9h.7c1.2 1.2 2.7 2.8 4 4q2.4 2.2 5.2 3.4l.3.9-7.1 8.4-1.2.3q-2.8-1.6-4.9-3.4l-2.5-2.5-6.5 7.7-1.5.3q-2.5-1.5-4.9-3.4-2.2-1.8-4-4l.3-1.2 6.7-8.3h1c1.2 1.5 2.4 2.7 4 4l3.1 2.4.3-.3zm-9-18.1c1.3 1.2 2.5 2.7 4 4q2.5 1.8 5 3l.3 1-6.8 8-1.2.3q-2.5-1.6-5-3.4-1.8-1.5-3.7-3.7v-1.2l6.8-8z" fill="#231f20" fill-rule="evenodd"/></svg>