<svg height="483" viewBox="0 0 417 483" width="417" xmlns="http://www.w3.org/2000/svg"><path d="m303.9 100c-1 1.6-4.2 8.7-4.2 8.7s-.7 0-4.5-1c-17.7-4.2-44.1 7.7-48 9.3-7.1 2.9-14.2 4.9-20.9 6.2 0 0-30.9 5.4-49.6-4.5-4.2 10.6-9.6 19.3-12.9 22.5-18 19-46 1-48.9-1-2.6-1.9 0-3.5 1.9-2.9 15.2 6.8 30.3 2.9 33.8 1.6 10.3-4.2 17.1-15.1 21-23.1-12-8.1-4.5-19.4-3.6-21 1-1.9 1.3-1.3 1.6.7 2.3 13.8 30 17.4 33.8 17.4 26.4 3.2 57.3-10.3 60.2-11.3-23.5-9.3-40.2-3.9-41.5-3.5-1.3 0-1.3-1-1-2l5.5-8.3c3.5-3.6 30.9-4.6 30.9-4.6.3-5.4-6.1-39.5-6.1-39.5-.7-3.6-1.3-7.5-1.3-9.4-.3-3.2-1.9-8.4-3.5-10.9-1-2 0-2.9.9-4.2 2-2.3 2.6-5.2 3.9-7.4 1.3-1.9 1.9 0 2.9 2.6.9 2.9 4.2 7.7 6.1 10.6 1.9 2.6-1.3 5.1-2.9 6.4-1.6 1.6-.6 4.2-.3 7.1 0 0 3.8 26.7 4.8 36.4 1 9.3-1.9 12.9-3.2 14.1 13.5 7.4 36.4 7.8 41.5 8.1 4.8.3 4.2 1.3 3.6 2.9zm-135.6-35.7q2.3 1.9 4.5 3.5l.4 1-7.4 7.4h-1.6q-2.3-1.6-4.2-3.6-2-1.9-3.6-4.2l.3-1.2 7.1-7.5h1c1 1.7 2.3 2.9 3.5 4.6zm102.7 72.1v.9l-7.4 7.4h-1.3q-2.2-1.6-4.5-3.8-1.9-1.6-3.2-3.9v-1.3l7.4-7.4h.7c1.2 1.6 2.2 2.9 3.8 4.2q1.9 2.2 4.5 3.9zm43.5-17.1c-1.3 2.9-2.6 1.9-2.6-1.9.3-16.1-2.9-39-3.9-46.7-.9-7.7-1.9-15.5-2.9-26.1-.6-6.1.4-10.6 2.3-14.1 1.9-3.3 2.6.3 2.6 4.5.3 7.7 4.5 37.6 5.4 47.3 2.3 19.3 1 32.5-.9 37zm-201.9-9.7c-3.5-2.2-6.7-3.8-8.6-5.4-2.3-2-2.3-5.5-.7-7.8 3.9-6.4 14.5-17 20.6-16.7 3.6.3 7.7 5.2 7.4 7.1-.3 1.6-4.2 8.4-5.8 8.4-1.6-.4-1.6-5.2-7.4-6.2-1.9-.3-7.1 3.3-7.4 4.9 0 2.2 5.8 8 13.2 8.7 6.1.3 10-.4 14.8-1.3 1-.3 1.6 0 1 1.3-.7.9-4.2 7-4.8 7-4.2.4-9.1 1.7-14.8 3.9-6.8 2.3-12.9 5.5-16.8 7.7-1 .7-1.3 0-1.3-.6.7-1.6 2-4.5 2.6-6.1 1.6-1.6 6.1-4.2 8-4.9zm51.2-67.6c-4.2 2-5.8 1.7-10.9 3.6-1 .3-2.3.3-2.6-.7 0-.9 1-1.9 1.9-2.5 2-1.3 14.9-7.8 14.9-8.4.3 0-5.5-2.3-8.4-2.6q-4.8-.3-9.7 2.3c-1.3.6-2.2 1.9-2.9 3.2-.6 1-1.6 0-1.3-1.3.4-.6 1-1.9 1.3-2.6 2.9-6.4 8.7-9 14.5-8.7 3.9.4 7.4 2.3 11 3.3.9.3 4.8.6 5.1 1.6-.3 1.3-1.6 5.4-3.2 6.7-.7.7-1 .3-1.3.7-1 .3-2.9 3.2-8.4 5.4zm-69.8 30.9c-2.9 1.3-5.5-.3 1.3-5.1 10.3-7.4 18.3-12.6 21.5-18 0 0-6.4-4.2-9.3-7.1-2.6-2.9 1-10.6 3.9-13.9 7-8.3 10.6-2.9 11.6-1.2 3.5 6.7 1.2 15.1.3 17.7 0 0 2.5 1.9 3.5 2.9 1 1.2.7 3.5-1 8-.3 1.3-1.9-2.6-6.1-4.5-2.9 6.4-6.1 11.9-25.7 21.2zm26.1-29.9c.3-1 .9-7.4-2-10.9-1.6-2-3.8-2.3-6.4 1.9-1 1.3-1 2.6.9 3.9 2 .9 7.5 5.1 7.5 5.1zm-50.3 143.6c-2.9 1.3-5.2-.3 1-4.8 9.6-6.7 17-11.2 19.9-16.7 0 0-5.8-3.6-8.4-6.5-2.5-2.5.7-9.9 3.3-12.8 6.7-7.4 9.9-2.6 10.9-1.3 3.2 6.4 1.3 14.5.3 16.7 0 0 2.6 1.9 3.3 2.6 1.2 1.3.6 3.5-.7 7.4-.6 1.3-1.9-2.6-5.8-4.2-2.6 6.1-5.8 11-23.8 19.6zm24.1-27.6c.4-1 1-6.8-1.9-10.3-1.6-1.6-3.5-2-5.8 2.2-1 1-1 2.3.7 3.2 1.9 1.3 7 4.9 7 4.9zm105-86.1c-2.9 1.3-5.5-.3 1.3-5.1 10.3-7.1 18-12.2 21.6-18 0 0-6.5-3.9-9.4-6.8s1-10.9 3.6-14.2c7.4-8 10.9-2.5 11.6-1.2 3.5 6.7 1.6 15.4.3 17.7 0 0 2.9 2.2 3.9 3.2q1.4 1.4-1 7.7c-.7 1.6-2.3-2.6-6.1-4.2-2.9 6.1-6.5 11.6-25.8 20.9zm26.1-29.6c.3-1.3 1-7.4-1.9-11.2-2-2-3.9-2-6.5 2.2-.9 1.3-.9 2.6 1 3.9 1.6.9 7.4 5.1 7.4 5.1zm88.5 194.5c.9 7.1-3.2 19-5.2 22.9-1.6 4.2-8.7 1.9-12.5 1-1.6-.4-3.9-1.3-5.8-2.6-2.3 3.5-5.8 7.4-11.6 9.6-6.5 2.3-43.1 13.9-59.6.4-3.5-2.6-9.9-7.4-10.3-25.2-.3-7.4-3.8-47-7.4-68.5-.6-3.6 1.6-6.5 2-7.7 1.6-4.6 2.2-1.3 3.2 1.2 5.1 11.3 7.4 70.2 7.7 74.1.3 6.1 3.5 15.8 16.1 19.6 12.6 3.9 32.8 1.6 49.9-5.5 5.5-2.2 10-6.4 11.6-8.3 1.3-2 2.9-2.3 2.2.6l-.3 1.9c3.2 1 9.3 2.6 12.2 1.7 3.3-.7 2.9-5.2 2.6-7.8-.6-2.9-10.3-57.3-11.2-61.8-.7-3.8-.7-6.7-1-8.7-.3-1.6-1.3-3.5-2.9-6.1-1.3-2.2 0-5.1.3-6.1.7-.6 2.9-2.9 4.5-6.4 1-1.6 2 .3 2.3 1.9s3.8 7.1 5.1 8.7c1 1.3 1.6 3.5 1.3 4.5-.6 1.6-3.2 4.8-3.5 5.5-.4.6-.7 1.6-.7 3.5 0 0 10 50.5 11 57.6zm-53.8-6.4q-2.2-1.9-3.8-3.9v-1.3l6.7-8.3h.7q1.9 1.9 4.1 3.8l3.6 2.3v-.3l6.7-8.4h1c1.3 1.3 2.6 2.9 4.2 3.9q2.2 1.9 5.1 3.5v1l-6.4 8.3h-1.6q-2.6-1.3-4.8-3.2l-2.6-2.2-6.4 7.7-1.7.3q-2.5-1.3-4.8-3.2zm82.4-8.7c2.9 21.2 2.6 35.7 1 40.9-1 3.2-2.6 2.2-2.6-1.9-.6-18.1-5.5-43.2-6.7-51.6-1.3-8.3-2.9-17-4.2-28.6-1-6.8 0-11.9 1.6-15.8 1.6-3.5 2.2.3 2.6 4.9.9 8.6 6.7 41.5 8.3 52.1zm-107.5-51.2q.5-.5 1-2.9c.6-1.6 1.3-2.2 3.8-3.2 2.6-1.3 45.4-19.3 47.7-20.6 3.5-1.9 2.9-.3 2.6 1-.7 1.3-1 1.6-1.7 3.2-.9 1.9-2.2 2.2-4.1 3.2-2 1-45.4 19.6-46.4 20-3.9 1.6-3.2.6-2.9-.7zm-46 22.2c.9 3.6 2.2 16.4-3.6 26.7-3.8 4.9-5.1 6.5-9.6 5.5-3.9-.9-9-3.2-11.9-5.8-7.8 7.4-18.7 7.4-26.7 5.5-3.9 2.6-8.7 4.2-14.9 4.2-3.8 0-12.8-1.3-21.5-11.3l-3.2 1.9c-9.1 5.8-19.4 15.8-23.9 35.1-4.5 24.5 2.9 40.3 21.9 45.7 19.3 5.8 62.8-.9 70.2-1.6 7.1-.6 4.5 2.9 1 4.5-3.6 2-30.9 9.7-39.3 11.3-34.8 7.1-58.3-7.7-60.5-39.9-2-29.6 13.5-49.6 19.3-57.3q2.6-3.9 5.1-6.1c-6.1-6.5-11.9-2.3-13.2-.7-1.2 1.6-2.2.7-1.9-1.9 3.6-12.6 9-16.4 19.3-18 10-1.3 17.7 3.2 19 4.5 4.8 3.2 1.6 9.6-.6 13.8-.7 1.3-2 2.3-3.9 3.6 5.8 4.2 27.1 13.2 38-9.4 1-2.2 2.6-2.5 1.9.7-.3 1.3-1.3 6.1-3.8 11.2 18 4.5 21.5-9.3 23.1-13.8 1.6-4.8 3.6-1.9 3.3.3q-1 4.8-2.6 8.7c4.2 1.6 13.5 4.2 13.5 2.9s-.6-11.6.3-14.2c1-2.5 2.3-6.1 2.9-7.7 1-1.3 1.3-1.9 2.3 1.6zm84.3-9.3 2.3-4.5c.3-.3.6-.7.9 0 1.6 5.1 1.6 9.6.4 12.9-1 3.5-2 5.4-6.2 6.4-3.2 1-7 0-8.7-2.9-2.2 5.8-7 8.1-10.9 7.4-4.5-.6-7.4-5.8-2.9-15.1 1.6-2.6 2.3-1.3 1.9 0-2.2 6.1 0 8.3 3.3 8 4.8-.3 7.7-3.2 8.3-9.6.3-1-.3-.7 2-2.6 1.6-1.3 1.2-.6 1.2 1.3 0 2.9.4 4.8 1.7 5.8 2.2 1.9 5.1 1.6 7.7-1.3 0-1-.3-2.9-1.3-4.5 0-.7 0-1 .3-1.3zm-87.2 70.2c-.7.9-.7 1.3-1.6 3.2-1 1.6-2.3 1.9-4.2 2.9-1.9 1.3-38.3 17-39.6 17.7-3.5 1.6-2.9.6-2.6-.7.3-.3.3-1.2 1-2.9.6-1.6 1.3-2.2 3.8-3.2 2.3-1.3 38.4-17 40.6-18.3 3.5-1.6 3.2 0 2.6 1.3zm207.5 143.5c9.4 23.8-4.5 40.2-5.7 42.1-4.2 5.8-8.7 11-14.2 13.2-18 7.4-40.9 2.6-43.1 2.3-4.9-1.3-2.6-4.2 1.2-3.6 41.2 5.5 57.3-25.1 59.9-32.8l.3-1.9c-7.4 1.3-14.8 1.6-17.3.6-10.7-3.2-8.7-19.3 0-29.9 9-10.6 17.3 6.4 18.9 10zm-4.5 8.7c-1.9-3.9-5.1-7.1-7-8.7-3.9-3.2-7.4 1.6-8.1 3.5-2.2 6.8 9.3 5.8 11.9 5.5zm9.7-62.8c-.7 1.3-1 1.6-2 3.2-.9 2-1.9 2.3-4.1 3.3-2 .9-34.2 14.4-35.4 14.8-3.6 1.6-2.9.6-2.6-.7q0-.5.9-2.9c.7-1.6 1.3-2.2 3.9-3.2s34.5-14.2 36.7-15.5c3.5-1.6 2.9-.3 2.6 1zm-92.7-2.2s6.7 41.2 7.1 62.7c.6 15.8-8.7 20-12.3 20.6-10.3 2-15.7-3.5-16.7-5.1-.7-1.3-2.6-3.2-4.5-5.5-5.8 4.2-31.2 18.4-46.1 3.5-1.2 3.6-2.5 7.1-3.8 9.1-2.9 4.5-9.7 6.4-19-2.3-7.4 9.3-19 6.1-30.6-2.6-3.8 1.6-10.9 4.5-12.5 5.2 0 0-2.9 1-6.2 1.9v.7c-3.8 15.1-10.3 29.6-14.4 33.8-19 19.6-50.6 2.5-53.5.6-3.2-1.9-.3-3.5 1.6-2.9 16.1 7.1 31.3 2.9 34.8 1.6 15.1-6.1 23.5-25.4 25.7-31.9q-1.9.7-2.8 1c-2.6 1-4.2-5.5-4.9-7.7-.9-2.3 0-2.9 5.2-4.2 8-2.3 22.2-7.4 27.7-10.3 5.4-2.9 3.8 3.5 3.5 6.4 24.1 8.1 29.6-6.1 31.2-10.6 1.3-5.1 2.9-3.2 2.6-.6q-1 5.8-2.6 10.3c3.6 1.6 12.3 6.4 15.2.3 1.6-3.2 2.2-7.7 2.8-10.9 1-3.6 3.3-3.3 3.3.3 0 .6-.4 2.2-1 4.2 5.2 3.2 20.6 10.3 37.7-.7l-1.6-1.3c-7.4-4.5-14.2-4.2-16.8-2.5-3.2 1.9-1.9-3.3-.6-5.2 13.2-21.2 36.7-8 39.2-4.2 1.3 2.3 2.3 8.4-6.7 14.8l1.3.7c12.2 6.7 19.3.6 20.3-.7.9-1.3-7.8-65.6-8.7-70.5-.4-3.8-1-7.7-1-9.6-.3-3.6-2.6-8.1-4.2-11-1-1.9 0-2.9 1-4.2 1.9-2.5 2.5-3.8 4.2-6.1 1.2-1.9 1.9.3 2.9 2.6.9 2.9 4.1 7.7 6.4 10.3 1.9 2.9-1.9 5.8-3.5 7.4-1.7 1.3-1.3 1.9-1 4.8 0 0 .6 4.5 1.3 7.8zm-171.9 35c-3.2 1.7-5.5-.3 1.3-5.1 10.3-7.1 18-12.2 21.5-18 0 0-6.4-3.9-9.3-6.8s1-10.9 3.5-14.2c7.4-8 11-2.5 11.6-1.2 3.6 7 1.6 15.4.4 18 0 0 2.8 1.9 3.8 2.9q1.5 1.4-1 7.7c-.6 1.6-2.2-2.6-6.1-4.2-2.9 6.5-6.4 11.6-25.7 20.9zm26.1-29.6c.3-1.3.9-7.4-2-11.2-1.9-2-3.8-2-6.4 2.2-1 1.3-1 2.6 1 3.9 1.6.9 7.4 5.1 7.4 5.1zm168.3-13.2q-1-10.6 1.9-16.4c1.6-4.2 2.3.3 2.6 5.2.7 9 6.1 44.1 7.4 55.3 2.9 22.9 2.3 38.3.3 43.8-.9 3.2-2.5 1.9-2.5-2.6-.4-19-4.5-45.7-5.8-54.7-1.3-8.7-2.6-18-3.9-30.6zm-226.6 110.8c-18 7.4-40.9 2.5-43.1 2.2-4.9-1.3-2.9-4.2 1.2-3.5 41.2 5.5 57.3-24.8 59.9-32.9l.3-1.9c-7.4 1.3-14.8 1.6-17.3.7-10.7-3.3-8.7-19.4 0-30 9-10.6 17.3 6.5 18.6 10 9.7 23.8-4.2 40.2-5.4 42.5-4.2 5.5-8.7 10.6-14.2 12.9zm15.4-46.7c-1.9-3.9-5.1-7.1-7-8.7-3.9-3.2-7.4 1.6-8.1 3.5-2.2 6.8 9.3 5.8 11.9 5.5q1.6 0 3.2-.3zm-44.1 21.2c-15.1 18.1-35.7 16.1-40.2 14.8-27.4-6.7-14.5-42.8-12.2-46.3 1.6-2.3 2.5-.3 2.2 1-13.2 30.9 13.2 34.7 15.8 34.7 26.1 1.3 34.1-16.4 35.1-19.9 1-3.6-9-23.5-11.6-27.4 0 0 1.6-9.7 2.3-10.6.3-1.3 1.6 0 2.5 2.2 0 0 7.4 12.3 9 19 4.2 19.7-.9 30.3-2.9 32.5zm134-85.3c-4.2 1.6-6.2 1.6-11.3 3.3-1 .6-2.3.3-2.3-.4-.3-.9.7-2.2 1.6-2.5 2.3-1.3 15.2-7.8 15.2-8.4 0-.3-5.5-2.6-8.7-2.9q-4.8-.3-9.4 2.2c-1.2 1-2.2 2-3.2 3.3-.6 1.2-1.3.3-.9-1.3.3-.7.6-1.6.9-2.6 3.2-6.1 8.7-9 14.5-8.4 3.9 0 7.4 2 11.3 2.9.9.3 4.5.7 4.8 1.6 0 1.6-1.6 5.5-3.2 7.1-.3.3-1 .3-1.3.3-1 .4-2.6 3.3-8 5.8zm86.2 107.2c-.3 1.3-.6 1.6-1.6 3.2-1 1.7-1.9 2-3.9 3.3-1.9.9-34.4 14.8-35.4 15.4-3.5 1.6-3.2.3-2.5-.6q0-.5.9-2.9c.4-2 1.3-2.3 3.6-3.6 2.5-.9 34.4-14.8 36.7-15.7 3.5-2 2.9-.4 2.2.9zm-276.5-104.9c-3.5 1.6-3.2.6-2.6-.7q0-.4 1-2.9c.3-1.6 1.3-2.2 3.5-3.2 2.6-.9 42.2-18 44.5-19.3 3.5-1.6 2.9-.3 2.2 1.3-.3 1-.6 1.3-1.6 3.2-1 1.6-1.9 2-3.9 2.9-1.9 1.3-42.1 18.4-43.1 18.7zm28 14.5q1.9 2.2 4.5 3.8v1l-7.4 7.4h-1.3q-2.2-1.6-4.5-3.9-1.9-1.9-3.2-3.8v-1.3l7.4-7.4h1c.9 1.6 1.9 2.9 3.5 4.2zm168.7 14.5h1c1.2 1.2 2.5 2.9 3.8 3.8q2.6 2.3 5.2 3.6l.3.9-7.1 8.4h-1.3q-2.6-1.3-4.8-3.2l-2.6-2.3-6.4 7.4-1.6.4q-2.6-1.3-4.9-3.3-2.2-1.9-3.8-3.8v-1.6l6.7-8.1h1c1.3 1.3 2.6 2.6 4.2 3.9l3.2 2.5.3-.6zm-9-18c1.3 1.3 2.6 2.9 3.9 3.8q2.6 2 5.1 3.6v.6l-6.7 8.1-1.3.3q-2.3-1.6-4.8-3.2-2-2-3.6-3.9v-1.3l6.8-8z" fill="#231f20" fill-rule="evenodd"/></svg>