<svg height="294" viewBox="0 0 252 294" width="252" xmlns="http://www.w3.org/2000/svg"><path d="m239.2 211.9c1.9 17.1.9 28.9-1 33-1 2.4-2.2 1.6-2.1-1.8.3-14.5-2.8-34.9-3.7-41.7-.8-6.8-1.7-14-2.5-23.3-.4-5.5.4-9.5 2.2-12.6 1.6-3 2 .3 2.2 4.1.4 6.8 4.1 33.5 4.9 42.3zm-106.6 48.3.1 1.6c-.4 1.1-.5 1.4-1.2 2.9-.9 1.6-1.9 2-3.6 3s-31.3 13-32.3 13.5c-1.1.5-1.8.8-2.2.8l-.2-1.3c.2-.4.5-1.1.8-2.7.4-1.5 1.1-1.9 3.2-3.1 2.3-1 31.3-12.9 33.4-14 1-.6 1.7-.7 2-.7zm83-38.7c2.1 13.2-2.6 23.5-3.7 25.2-5.7 8.1-15.7 1-17.7-.2-2.1-1.3-3.8-.5-6.4 1-19.2 11.8-34.1 10-37.2 9.6-17.4-2-18.8-23.1-19.6-29-.7-6.7-3.8-40.4-6.5-51-1-4.3.9-11.1 1.3-13 .4-2 1.3-2.7 2.1.4.7 3 8 56.5 8.7 62 2.7 18.3 13.4 19.3 17.2 20.2 16.9 2 33.9-7.6 36.6-9.6 2.8-2 5.8-.3 7.3.4s7.3 3 10.8 3.6c3.5.5 3.8-4.8 3.4-8.1-.4-3.2-7.5-44-7.9-46.6-.7-5.1-1.6-8.9-1.7-9.9-.7-3.4-.7-6.1-1-7.6-.2-1.7-1.3-3.1-2.4-5.6-1.3-2.2-.3-4.8.3-5.5.4-.7 2.4-2.7 3.9-5.9.6-1.4 1.4.3 1.9 1.8.4 1.4 3.2 6.3 4.5 7.9.8 1.2 1.5 3.2 1.1 3.9-.7 1.5-2.7 4.5-3.1 5.1-.4.4-.7 1.2-.4 3.1 0 0 7.5 42.3 8.5 47.8zm-119.1 27.7c-1.8-.5-4.8-2-6.9-3.3-10.8 11.6-30.3 13.7-32.9 14.2 0 0-34.8 6-43.5-14.5-3.9-10.6 2.7-21.1 4-22.6 1.3-1.6 2-.5.9 1.2-4.7 7-.7 27.1 29.3 27.2 32.8 0 44.3-16.5 45.8-19.5 1.6-3 3-.3 2.7 1.3-.5 2.5-1.4 4.9-2.4 7 3 .2 9.4.6 11.5.6 2.8.1 2.4-4 2-6.4-.4-2.5-8.9-51.4-9.8-55.3-.6-3.4-.6-6.1-.8-7.8-.3-1.6-1.3-3.1-2.6-5.4-1.1-2.3-.1-4.8.3-5.5.6-.9 2.5-2.9 4-6 .7-1.4 1.5.3 1.9 1.9.3 1.4 3.3 6.2 4.6 7.9.8 1 1.5 3 1.1 3.8-.7 1.6-2.8 4.6-3.3 5.1-.2.4-.5 1.3-.4 3.1 0 0 8.7 45.3 9.5 51.7.9 6.4-2.8 17-4.4 20.5-1.5 3.6-7.2 1.5-10.6.8zm82.8-90 2-3.6c.2-.5.6-.7.7 0 1.4 4.5 1.4 8.2.4 11-1.1 3-1.8 4.7-5.5 5.7-2.8.7-5.9 0-7.5-2.6-2 5-5.9 7-9.3 6.4-4.1-.6-6.5-5.1-2.6-13 1.2-2.4 2-1.2 1.6 0-1.9 5.2.1 7.2 2.8 6.9 4.3-.3 6.7-2.7 7.4-8.2.1-1-.4-.9 1.5-2.4 1.4-1.1 1.3-.6 1.2 1.1-.2 2.4.4 4.3 1.5 5.1 1.7 1.6 4.3 1.1 6.5-1 .2-1-.2-2.7-1-4.2-.1-.4 0-.7.3-1.2zm-33.1-5.3c.1-.3.4-1.2.8-2.7.6-1.4 1.3-1.9 3.6-2.7 2.3-.9 28.3-11.5 30.4-12.5 3.3-1.4 2.7-.1 2.2 1-.5 1-.8 1.3-1.6 2.8-.9 1.6-2 1.9-3.7 2.7-1.8.9-28.4 11.6-29.4 12.1-3.3 1.2-2.7.3-2.3-.7zm70.8-61.5c-.7 1.6-3.5 7.7-3.5 7.7s-.9 0-4.2-.9c-15.8-3.7-39.3 6.9-42.7 8.4-6.5 2.4-12.8 4.2-18.8 5.5 0 0-27.7 4.9-44.2-4.1-3.7 9.5-8.5 17.3-11.5 20.2-16.1 16.7-41.1.9-43.6-1-2.5-1.7-.1-2.9 1.6-2.5 13.7 6.2 27.1 2.7 30.1 1.5 9.4-3.8 15.4-13.4 18.8-20.6-10.7-7.4-3.9-17.6-3.2-19 .8-1.6 1.3-1 1.5.6 2 12.4 26.7 15.7 30.2 15.8 23.4 2.7 51.1-9.2 53.5-10-20.9-8.5-35.8-3.7-36.9-3.4-1.3.1-1.3-.9-.9-1.6l4.8-7.6c3.3-3.1 27.5-4 27.5-4 .6-4.8-5.4-35.3-5.4-35.3-.4-3.2-.8-6.7-1-8.3-.2-3-1.7-7.5-3.1-9.9-1-1.7 0-2.4.9-3.6 1.7-2.2 2.1-4.6 3.4-6.6 1.1-1.7 1.8 0 2.5 2.3.9 2.5 3.8 6.9 5.5 9.3s-1.2 4.5-2.7 5.9c-1.4 1.3-.4 3.7-.1 6.1 0 0 3.4 24.1 4.3 32.5.9 8.5-1.7 11.7-2.9 12.8 12.1 6.6 32.6 7 37 7.3 4.4.2 3.7 1.1 3.1 2.5zm-120.9-32.1q1.8 2 4.1 3.4l.1.8-6.5 6.5h-1.3c-1.4-.8-2.7-1.9-3.9-3.2q-1.7-1.7-3.1-3.6l.2-1.2 6.4-6.6.9.2c.8 1.3 1.9 2.5 3.1 3.7zm91.6 64.5.1.9-6.5 6.5-1.3.1q-2.1-1.5-3.9-3.4-1.7-1.7-3.1-3.5l.2-1.3 6.6-6.5.7.2c1 1.2 1.9 2.5 3.1 3.6 1.2 1.5 2.7 2.4 4.1 3.4zm38.9-15.1c-1.1 2.5-2.4 1.5-2.2-1.9.2-14.4-2.9-34.8-3.7-41.6-.9-6.8-1.7-13.9-2.4-23.3-.6-5.6.4-9.5 2.1-12.6 1.5-2.9 2 .2 2.1 4.1.4 6.9 4.1 33.7 5 42.3 1.8 17.3.8 28.9-.9 33zm-180.4-8.8c-3.1-1.8-5.9-3.4-7.6-4.8-1.9-1.7-2-5-.7-6.9 3.7-5.8 13-15.2 18.5-14.8 3.3.2 6.8 4.4 6.5 6.1-.1 1.6-3.5 7.5-5.1 7.5-1.4-.1-1.2-4.6-6.5-5.4-1.7-.2-6.3 2.7-6.5 4.3-.3 2 5 7.1 11.6 7.6 5.4.6 8.9-.2 13.3-1.1.9-.1 1.5.1.7 1.3-.4.7-3.6 6.2-4.2 6.4-3.8.2-7.9 1.4-13.3 3.2-5.8 2.1-11.3 5-15 7.2-.6.3-1-.3-.9-.8.6-1.6 1.4-4.1 2.2-5.5 1.5-1.3 5.5-3.7 7-4.3zm45.9-60.2c-3.7 1.6-5.2 1.4-9.8 3.1-1 .3-2.1.2-2.2-.5-.2-.9.8-1.7 1.5-2.3 1.9-1.1 13.5-6.9 13.5-7.5 0-.1-5-2.1-7.7-2.3-2.9-.2-5.8.3-8.5 2-1.1.6-1.9 1.7-2.6 2.9-.8.8-1.3.1-1-1.2.2-.7.7-1.7 1-2.4 2.6-5.5 7.6-7.9 12.8-7.6 3.4.3 6.5 2 9.9 2.8.9.1 4.3.6 4.4 1.4-.1 1.3-1.2 4.8-2.8 6.1-.4.4-.8.4-1.1.4-.9.3-2.4 3-7.4 5.1zm-62.4 27.4c-2.6 1.2-4.8-.2 1.1-4.6 9.2-6.5 16.4-11 19.3-16 0 0-5.6-3.7-8.3-6.2-2.5-2.5.8-9.8 3.3-12.5 6.5-7.3 9.6-2.5 10.3-1.1 3.2 6 1.3 13.6.5 15.7 0 0 2.4 2 3.1 2.7 1 1.1.5 3.3-.7 7.1-.5 1.4-2-2.3-5.4-4-2.8 5.8-5.8 10.6-23.2 18.9zm23.3-26.5c.3-1.1.9-6.5-1.7-9.9-1.5-1.7-3.4-1.9-5.8 2-.7 1.1-.7 2.2.9 3.2 1.7 1 6.6 4.7 6.6 4.7zm70.3 26.6c-2.6 1.3-4.9-.1 1.1-4.5 9.2-6.5 16.3-11.1 19.2-16 0 0-5.5-3.7-8.2-6.3-2.5-2.5.7-9.6 3.3-12.4 6.5-7.4 9.6-2.6 10.3-1.2 3.1 6.1 1.3 13.6.3 15.9 0 0 2.6 1.8 3.3 2.6 1 1.1.5 3.2-.7 7-.5 1.5-2-2.2-5.4-3.9-2.9 5.8-5.8 10.6-23.2 18.8zm23.3-26.5c.3-1 .9-6.5-1.7-9.9-1.7-1.7-3.4-1.8-5.8 2-.7 1.1-.8 2.3.9 3.3 1.5.9 6.6 4.6 6.6 4.6zm-80.1 167.7h.7c1.3 1.2 2.4 2.4 3.7 3.5q2.1 1.8 4.5 3.1l.1.9-6 7.3-1.3.2q-2.3-1.3-4.4-3l-2.3-2.1-5.8 6.9-1.3.2q-2.2-1.3-4.3-3-1.9-1.6-3.6-3.4l.2-1.3 6-7.4h.9c1.1 1.3 2.3 2.5 3.5 3.6l3 2.1.3-.3zm-7.9-16.3c1 1.3 2.1 2.5 3.4 3.6q2.1 1.7 4.4 3l.1.8-5.8 7.1-1.3.1q-2.3-1.2-4.2-2.9-1.9-1.5-3.4-3.3l.1-1.3 6-7.1zm122.7 9.5h.9c1.1 1.3 2.2 2.6 3.5 3.7q2.3 1.7 4.5 3.1l.3.7-6.2 7.4-1.3.1q-2.3-1.2-4.4-2.9l-2.2-2.2-5.7 7-1.4.3q-2.3-1.3-4.3-3.2-2-1.5-3.5-3.3v-1.3l6.2-7.4h.7c1.2 1.3 2.3 2.6 3.7 3.7l2.8 2.1.3-.4zm-7.9-16.1c1.1 1.1 2.3 2.4 3.5 3.4q2 1.8 4.4 2.9l.2.9-6 7.1-1.3.1q-2.1-1.1-4.2-2.8-1.8-1.6-3.3-3.4v-1.2l6-7zm-138.9 8.2c-2.6 1.2-4.8-.3 1.1-4.6 9.2-6.6 16.3-11 19.3-16.1 0 0-5.7-3.5-8.2-6.2-2.6-2.6.7-9.7 3.2-12.5 6.5-7.2 9.7-2.4 10.4-1.1 3.1 6.1 1.2 13.7.2 15.8 0 0 2.6 1.9 3.3 2.7 1 1 .6 3.1-.7 7.1-.4 1.3-2-2.4-5.4-4-2.8 5.7-5.8 10.5-23.2 18.9zm23.4-26.7c.2-.9.8-6.5-1.7-9.7-1.7-1.9-3.4-2-5.9 1.8-.7 1.2-.8 2.3.9 3.3 1.6 1.1 6.7 4.6 6.7 4.6z" fill="#231f20" fill-rule="evenodd"/></svg>