<svg height="371" viewBox="0 0 431 371" width="431" xmlns="http://www.w3.org/2000/svg"><path d="m321.4 103.1c-.9 1.7-4.1 8.7-4.1 8.7s-.8 0-4.6-.8c-18.5-4.5-45.7 7.8-49.7 9.5-7.4 3-14.9 4.9-21.7 6.4 0 0-32 5.7-51.1-4.7-4.3 10.9-10 20-13.4 23.4-18.7 19.5-47.5 1.1-50.5-1.1-3-1.9 0-3.6 1.9-2.9 15.7 7.2 31.4 3.1 34.8 1.7 10.9-4.3 17.9-15.5 21.7-23.8-12.3-8.5-4.5-20.4-3.6-22.1 1-1.7 1.5-1.1 1.9.6 2.3 14.5 30.8 18.3 34.8 18.5 27.2 3 59.2-10.8 62-11.7-24.2-9.7-41.6-4.2-42.9-4s-1.3-.8-.9-1.9l5.6-8.7c3.8-3.6 31.8-4.5 31.8-4.5.6-5.7-6.2-40.9-6.2-40.9-.6-3.9-1-7.9-1.2-9.6-.2-3.6-1.9-8.7-3.6-11.4-1.1-2.2 0-2.8 1-4.3 1.9-2.5 2.6-5.5 4.1-7.6 1.2-2.2 1.9 0 2.7 2.5 1.1 3 4.5 8.1 6.4 10.8 2.1 2.8-1.3 5.3-3 6.8s-.6 4.3-.2 7.2c0 0 3.8 27.9 4.9 37.6 1 9.8-1.9 13.6-3.2 14.9 13.8 7.6 37.6 8 42.7 8.5 5.3.2 4.2 1.2 3.6 2.9zm-139.9-37.3q2.1 2.3 4.7 4v.9l-7.5 7.6h-1.5q-2.3-1.7-4.6-3.8-1.9-1.9-3.4-4l.2-1.5 7.4-7.7.9.2c1.2 1.5 2.3 3 3.8 4.3zm106.1 74.7v1.1l-7.6 7.4-1.5.2q-2.3-1.7-4.5-3.8-1.9-1.9-3.6-4.3l.2-1.2 7.7-7.7h.8c1.1 1.5 2.4 3.2 3.6 4.5q2.2 2.3 4.9 3.8zm44.8-17.4c-1.1 2.8-2.5 1.7-2.5-2.1.4-16.8-3.2-40.4-4.1-48.4-1-7.9-2.1-15.9-2.9-27-.7-6.4.4-11 2.5-14.6 1.7-3.4 2.3.4 2.6 4.9.4 7.8 4.6 38.8 5.7 49 1.9 19.9.8 33.5-1.3 38.2zm-208.6-10.2c-3.7-2.1-7-4-9-5.7-2.1-1.9-2.3-5.5-.8-8.1 4.2-6.6 15.1-17.4 21.4-17 3.9.2 7.9 5.1 7.7 7.2-.2 1.7-4.1 8.5-6 8.5-1.7 0-1.5-5.3-7.4-6.1-2.1-.4-7.6 3.2-7.6 4.9-.3 2.3 5.7 8.2 13.3 8.9 6.4.6 10.4-.2 15.5-1.3 1.1-.2 1.5.2.9 1.5-.7.8-4.3 7.2-4.9 7.4-4.5.2-9.3 1.5-15.5 3.8-6.8 2.4-13.2 5.6-17.4 8.1-.6.4-1.1-.2-.9-.8.5-1.7 1.5-4.7 2.4-6.4 1.7-1.5 6.3-4.3 8.3-4.9zm53-69.8c-4.2 1.9-6.1 1.7-11.4 3.6-1.1.4-2.4.2-2.6-.4-.2-1.1 1.1-2.2 1.9-2.8 2.1-1.3 15.5-7.9 15.5-8.7 0-.2-5.7-2.3-8.7-2.8-3.4-.2-6.8.5-10 2.4-1.2.8-2.3 2.1-3.1 3.4-.7 1-1.5 0-1.1-1.3.4-.9.8-1.9 1.3-2.8 2.9-6.5 8.7-9.3 14.8-8.9 4.1.2 7.7 2.4 11.5 3.2 1 .2 4.9.6 5.1 1.7-.2 1.5-1.7 5.5-3.2 7-.6.6-1.1.4-1.5.6-1 .3-2.7 3.4-8.5 5.8zm-72.1 31.8c-3.2 1.5-5.8-.2 1.2-5.3 10.6-7.6 18.9-12.7 22.3-18.7 0 0-6.6-4.2-9.5-7.2-3-3 .8-11 3.8-14.4 7.4-8.3 11-2.8 11.9-1.3 3.6 7 1.5 15.9.4 18.3 0 0 3 2.3 3.8 3.1 1.1 1.3.7 3.6-1 8.3-.5 1.5-2.2-2.7-6.2-4.7-3.2 6.6-6.6 12.4-26.7 21.9zm26.9-30.8c.2-1.2 1.1-7.6-2.1-11.4-1.7-1.9-3.8-2.2-6.6 2.1-.8 1.5-.8 2.8.9 4 1.9 1.1 7.8 5.3 7.8 5.3zm81.3 31c-3 1.3-5.7-.4 1.3-5.3 10.8-7.6 18.9-12.7 22.3-18.7 0 0-6.4-4.2-9.4-7.2-2.9-3 .7-11.2 3.6-14.4 7.7-8.3 11.1-2.8 12.1-1.3 3.6 7 1.3 15.9.2 18.3 0 0 3 2.3 3.9 3.2 1 1.2.6 3.6-.9 8-.6 1.7-2.3-2.5-6.3-4.4-3.2 6.5-6.6 12.3-26.8 21.8zm27-30.8c.4-1.2 1-7.6-1.9-11.4-2-2.1-3.9-2.1-6.8 2.1-.9 1.5-.9 2.8 1 3.8 1.9 1.3 7.7 5.5 7.7 5.5zm-139.9 172.8c-3 1.5-5.5-.2 1.3-5.3 10.8-7.4 18.8-12.7 22.2-18.5 0 0-6.3-4.2-9.3-7.2-3-2.9.9-11.2 3.6-14.4 7.7-8.5 11.3-3 12.1-1.5 3.6 7.2 1.3 15.9.2 18.5 0 0 3 2.1 3.8 3 1.3 1.2.7 3.8-.8 8.2-.6 1.5-2.3-2.7-6.4-4.6-2.9 6.8-6.6 12.3-26.7 21.8zm26.9-30.8c.5-1 1.1-7.4-1.9-11.4-1.9-1.9-3.8-2.1-6.8 2.3-.8 1.3-.8 2.6 1.1 3.8 1.9 1.1 7.6 5.3 7.6 5.3zm251.1 87.7c2 11.7-.8 21-5.1 28-4 7-14.4.9-20.8-1.7-6.5-2.7-10.6 1.1-16.9 4.7-27.2 13.4-53.1 10.6-58.4 9.3-29.9-7.2-29.1-42.4-29.1-42.4s-2.3 19.1-9.1 30.8c-14 19.7-55.4 22.9-59 23.5-3.4.7-5.1-2.5-1.3-3.8 34.6-8.1 47.1-21 51.4-25.5 2.3-1.9 4-4 5.7-6.1-6.6-27.4-44.8-48-44.8-48s-.4 1.5-.6 2.8c-.4 1-1.9.4-3.2.2s-6.6-1.9-14.4-4.7c0 0-4.5-16.8-4.9-19.7-.7-3 1.3-2.4 3-1.5 53.4 21.6 65.1 57.1 66.6 68.1 13-22.7 2.3-59.6 1.5-65.4-.9-6.8-.2-12.1 1.3-17.8 1.2-5.7 3.1-.8 3.6 4.3.6 4.8 10.4 59.6 11.9 66.8 3.4 24.4 24.8 25.7 31.6 26.8 24.2 3.6 56.2-12.6 59.8-14.7 3.4-2.1 7 .2 9.6 1.5 2.3 1.3 10.6 5.1 15.3 4.7 2.5-.5.8-14.5 0-20.4-.9-5.7-11.3-55.4-11.3-55.4-.6-3.8-1.2-7.6-1.5-9.6-.4-3.6-2.5-8.2-4.2-11-1.3-1.9-.2-2.5.6-4 2.2-2.8 2.6-4.1 4.1-6.4 1-1.9 1.9 0 2.9 2.6 1.1 2.9 4.7 7.6 6.8 10.1 1.9 2.8-1.2 6.6-2.9 8.3-1.5 1.5-1.1 1.9-.7 4.9 0 0 10.6 49 12.5 60.7zm28.7-11.9c3.8 22.9 4 38.9 2.3 44.4-.8 3.4-2.5 2.1-2.7-2.4-1.3-19.3-6.8-46.2-8.5-55.4-1.7-9.1-3.4-18.4-5.3-30.9-1.3-7.3-.7-12.8 1-17 1.7-4.1 2.4.2 3 5.3 1.1 9.1 8.3 44.6 10.2 56zm-129.3-66c.2-.4.5-1.3 1.1-3.2.4-1.7 1.3-2.1 3.8-3.4 2.6-1 52.4-22 55-23.3 3.6-1.9 3-.4 2.3 1-.4 1.3-.6 1.5-1.5 3.4-1 1.7-2.1 2.2-4.2 3.2-1.9 1.1-52.4 22.3-53.7 22.9-3.6 1.7-3.2.5-2.8-.6zm-209.3 18.5c-1.9 1-43.7 18-44.7 18.4-3.9 1.7-3.2.7-2.8-.6.2-.4.4-1.3 1.1-3 .6-1.9 1.2-2.3 4-3.4 2.5-1 43.5-17.8 46.1-19.1 3.8-1.7 2.9-.2 2.5 1.3-.6 1.1-.8 1.5-1.9 3.2-.9 1.9-2.1 2.1-4.3 3.2zm130.4-16.8c0-.4.4-1.3.8-3 .7-1.7 1.5-2.3 4.1-3.4 2.5-1 43.7-17.8 46-18.9 3.8-1.9 3.2-.4 2.6 1.1-.7 1.3-.9 1.5-1.7 3.4-1.1 1.7-2.4 2.1-4.3 3-2.1 1-43.7 18-45 18.4-3.8 1.7-3.2.7-2.5-.6zm-146.5 52.2q2.1 2.4 4.7 4.1l.2.8-7.6 7.6h-1.5q-2.4-1.4-4.5-3.8-2.1-1.9-3.6-4l.2-1.5 7.4-7.6.9.2c1.3 1.5 2.3 2.9 3.8 4.2zm29.3 67.5c-15.5 18.5-36.9 16.6-41.6 15.3-28.2-7-14.9-44.4-12.7-47.8 1.7-2.5 2.9-.4 2.5.9-13.6 32 13.6 35.9 16.4 36.1 26.9 1.3 35.2-17 36.3-20.6.8-3.6-9.4-24.6-12.1-28.5 0 0 1.7-9.7 2.3-11.2.4-1.1 1.7.2 2.8 2.5 0 0 7.6 12.8 9.1 19.8 4.2 20.1-1.1 31.4-3 33.5zm246.4-112.9 1.9-4c.3-.5.7-.9.9 0 1.5 4.8 1.5 8.9.4 11.9-1 3.1-1.9 4.8-5.9 5.9-3 .8-6.4 0-8.1-2.8-2.1 5.6-6.4 7.7-10 7-4.4-.6-7-5.5-2.7-14 1.3-2.5 2.1-1.2 1.7 0-1.9 5.8.2 7.7 2.9 7.5 4.7-.3 7.3-3 8.1-9 0-.8-.6-.8 1.5-2.5 1.7-1.3 1.5-.4 1.3 1.3 0 2.5.4 4.4 1.7 5.5 1.9 1.7 4.6 1.3 7-1.3.2-1-.4-2.7-1.1-4.4-.2-.5 0-.7.4-1.1zm-177 56c15.7 13.6 13.8 27.6 14 31.7 0 14.6-16.5 19.7-22.9 21.8-.4 14.2-8.1 23.6-9.1 25.1-4.3 5.7-8.7 11.2-14.7 13.6-18.7 7.6-42.2 2.7-44.5 2.1-4.9-1.1-2.8-4.3 1.2-3.6 42.9 5.7 59.5-25.7 62.2-33.8l.2-2.1c-7.6 1.5-15.3 1.5-18 .6-11-3.4-8.9-19.9.2-30.7 9.1-11.1 17.8 6.5 19.3 10.1.9 2.6 1.7 4.9 2.1 7.3 5.3-1.7 16-5.8 18.5-10.4 2.1-3.6-7.8-14-11.5-18.5 0 0 .5-9.6.9-11.3.2-1.9.2-3.6 2.1-1.9zm-16.8 43.5c-2.1-4-5-7-7.2-8.7-4-3.3-7.6 1.5-8.2 3.7-2.4 7 9.7 5.9 12.3 5.7 1-.2 2.1-.7 3.1-.7zm200.6-54.5.9-.2c1.5 1.5 3 2.7 4.4 4q2.8 1.9 5.6 3.4l.2.9-6.6 8.9-1.7.2q-2.6-1.3-5.1-3.2l-2.8-2.3-6.1 8.3-1.7.4q-2.8-1.3-5.1-3.2-2.3-1.7-4.3-3.8v-1.5l6.6-8.9h1.1c1.3 1.5 2.7 2.7 4.2 4l3.6 2.3.3-.6zm-10.2-18c1.2 1.2 2.7 2.5 4.2 3.8q2.6 1.9 5.3 3.2l.2.8-6.3 8.5-1.5.2q-2.6-1.3-5.1-3-2.1-1.7-4.1-3.6v-1.5l6.4-8.4zm-180-.7h.9c1.5 1.3 2.9 2.8 4.4 3.8q2.6 2 5.3 3.4l.5.9-6.6 8.9-1.7.4q-2.6-1.5-5.1-3.4l-2.8-2.3-6.1 8.5-1.7.2q-2.8-1.3-5.1-3.2c-1.5-1-3-2.3-4.3-3.8v-1.5l6.6-8.7.9-.2c1.4 1.5 2.7 2.8 4.4 4l3.6 2.4.2-.5zm-10.2-18.2c1.3 1.3 2.8 2.5 4.3 3.8q2.5 1.9 5.3 3.2l.2.8-6.4 8.5-1.4.5q-2.6-1.3-5.1-3.2-2.2-1.7-4.1-3.6v-1.5l6.4-8.5z" fill="#231f20" fill-rule="evenodd"/></svg>