<svg height="324" viewBox="0 0 252 324" width="252" xmlns="http://www.w3.org/2000/svg"><path d="m226.4 99.3c-.8 1.6-4 8.4-4 8.4s-.8 0-4.6-.9c-17.8-4-44.2 7.8-48 9.4q-11.1 4.1-21.2 6.3s-30.9 5.6-49.6-4.7c-4.1 10.6-9.6 19.4-12.8 22.8-18.2 18.8-46.2.9-49.1-1-2.9-2.1 0-3.5 1.9-2.9 15.2 6.9 30.4 2.9 33.8 1.6 10.4-4.1 17.3-15.2 21.1-23.2-12.2-8.2-4.5-19.7-3.5-21.3.8-1.7 1.3-1.1 1.6.7 2.2 14.1 29.9 17.6 33.9 17.7 26.2 3.1 57.5-10.4 60.2-11.3-23.5-9.5-40.4-4-41.6-3.9-1.3.3-1.5-.8-1-1.7l5.4-8.5c3.7-3.4 30.9-4.3 30.9-4.3.5-5.6-6-39.7-6-39.7-.5-3.7-1-7.5-1.2-9.5-.3-3.3-1.9-8.3-3.3-11-1.3-2.1-.2-2.7.8-4 1.9-2.6 2.4-5.4 3.8-7.5 1.3-1.9 2.1 0 2.9 2.5 1 2.8 4.3 7.9 6.2 10.6 2 2.6-1.4 5.1-3 6.6-1.6 1.4-.5 4.1-.2 6.8 0 0 3.7 27.1 4.8 36.5 1 9.5-1.9 13.3-3.2 14.4 13.5 7.4 36.5 7.9 41.5 8.2 4.9.3 4.1 1.3 3.5 2.9zm-135.9-36.2q2.3 2.2 4.7 3.8l.1 1-7.3 7.2-1.5.2q-2.4-1.6-4.4-3.7-2-1.9-3.4-4l.2-1.5 7.3-7.3.8.1c1.1 1.5 2.3 2.9 3.5 4.2zm103.1 72.7v.8l-7.4 7.3-1.4.2q-2.2-1.6-4.3-3.9-1.9-1.7-3.5-4l.3-1.2 7.2-7.4h.8c1.1 1.4 2.2 3 3.7 4.3 1.2 1.5 2.8 2.7 4.6 3.9zm43.5-17.2c-1.1 2.8-2.5 1.8-2.5-1.9.4-16.3-3.1-39.2-4-47-1-7.6-2-15.6-2.8-26.1-.6-6.3.5-10.7 2.4-14.3 1.8-3.2 2.3.5 2.4 4.7.5 7.7 4.5 37.7 5.6 47.5 2.1 19.4 1 32.7-1.1 37.1zm-202.4-9.7c-3.7-2.3-6.7-3.9-8.6-5.6-2.1-1.8-2.3-5.5-.8-7.9 4.1-6.4 14.5-16.8 20.8-16.5 3.6.4 7.5 5 7.3 6.9-.1 1.8-4 8.5-5.7 8.3-1.6 0-1.6-4.9-7.2-5.9-2.1-.3-7.4 3.1-7.6 4.8-.1 2.3 5.6 8 13.2 8.7 6 .4 9.9-.4 15-1.3 1-.2 1.4.1.6 1.3-.4.9-4 7.2-4.6 7.2-4.3.3-9.1 1.6-15 3.8-6.6 2.3-12.7 5.5-16.8 7.9-.8.4-1.3-.2-1-.8.6-1.8 1.6-4.5 2.4-6.3 1.6-1.4 6.2-4.1 8-4.6zm51.5-67.7c-4.1 1.7-6.1 1.6-11.2 3.5-.9.3-2.2.2-2.4-.6-.1-1 1-2.1 1.8-2.6 2.1-1.3 15-7.7 15-8.3 0-.3-5.6-2.4-8.5-2.7-3.3-.4-6.5.3-9.6 2.2-1.2.8-2.2 1.9-3 3.2-.8 1-1.4.2-1.1-1.3.3-.8.8-1.9 1.1-2.7 3-6.2 8.6-9 14.6-8.5 3.8.2 7.3 2.3 11 3.1 1 .3 4.8.6 5 1.6-.2 1.4-1.5 5.4-3.1 6.8-.6.5-1.1.5-1.4.7-1 .1-2.7 3.2-8.2 5.6zm-70.2 30.7c-2.9 1.4-5.5-.2 1.3-5.1 10.4-7.4 18.4-12.3 21.6-18.1 0 0-6.3-4-9.2-6.9-2.8-2.9.8-10.9 3.7-14.1 7.2-8.1 10.7-2.7 11.5-1.2 3.6 6.8 1.5 15.3.4 17.7 0 0 2.8 2.3 3.6 3.1 1.2 1.1.7 3.5-.8 8-.4 1.4-2.2-2.8-6-4.5-3.1 6.4-6.4 11.8-26.1 21.1zm26.2-29.8c.3-1.2 1-7.3-1.9-11.2-1.8-1.9-3.8-2-6.6 2.3-.8 1.3-.8 2.5 1 3.7 1.9 1.1 7.5 5.2 7.5 5.2zm78.9 30c-2.9 1.4-5.4-.2 1.3-5.2 10.4-7.3 18.4-12.3 21.6-18 0 0-6.3-4-9.1-6.9-2.9-2.9.8-10.9 3.6-14.1 7.2-8.2 10.8-2.7 11.6-1.3 3.5 6.9 1.4 15.4.3 17.8 0 0 2.9 2.2 3.7 3 1.1 1.1.6 3.7-.8 8-.7 1.5-2.3-2.7-6.1-4.5-3.1 6.4-6.4 11.9-26.1 21.2zm26.2-29.8c.4-1.1 1-7.4-1.9-11.2-1.7-1.9-3.8-2.1-6.5 2.2-.8 1.3-.8 2.6.9 3.7 1.9 1.1 7.5 5.3 7.5 5.3zm-127.5 152c-2.7 1.3-5.1-.3 1.1-4.8 9.6-6.7 17-11.3 20-16.6 0 0-5.7-3.7-8.4-6.4-2.8-2.7.6-10.1 3.3-13 6.7-7.5 9.9-2.5 10.7-1.1 3.2 6.2 1.3 14.1.4 16.3 0 0 2.5 2.1 3.3 2.7 1 1.2.5 3.4-.8 7.4-.5 1.4-2.1-2.4-5.6-4-2.9 5.9-5.9 10.9-24 19.5zm24.2-27.5c.3-1.1.9-6.9-1.8-10.2-1.6-2-3.5-2-6.1 1.9-.6 1.1-.8 2.4 1 3.5 1.6 1 6.9 4.8 6.9 4.8zm160.8 44.8c4.8 25.4 4.3 38.2 3.5 45.3-.8 7.2-9.3 8.9-15.3 9.3-2.3.3-4 .3-5.8.3-3.8 13.1-11.8 25.7-14.4 28.3-19.1 19.7-51.4 3.8-54.4 1.9-3.1-2.1 0-3.7 1.9-3 16 7.2 32.3 1.9 35.8.5 14.8-6 23.3-22.4 26-28.7-8.3-2.7-7.1-10.7-6.9-12.8.3-2.9 1-2.5 2.6-1.6 8 6.4 26.2 2.3 27.2-.3.9-2.7-10.6-62.6-10.1-67.5.1-3.5-2.3-8.2-3.7-10.9-1.1-2.1-.2-2.7 1-4 1.9-2.4 2.5-3.7 4-5.9 1.2-1.8 2 .1 2.7 2.5.9 2.9 4.3 7.7 6.1 10.4 1.9 2.8-2.1 5.5-3.7 6.9-1.6 1.5-1.3 1.9-1 4.8 0 0 3.1 15.9 4.5 24.5zm-55.1-41.8c.2-.3.5-1.2 1-3 .5-1.6 1.3-2.1 3.8-3 2.6-1.2 31.7-13.2 34.1-14.3 3.7-1.7 3.1-.3 2.4 1-.4 1.3-.8 1.6-1.7 3.2-1 1.7-2.1 2.1-4.2 3.2-1.9.9-31.7 13.3-32.8 13.7-3.7 1.5-3 .4-2.6-.8zm85.7 61c2.2 20.8.9 35-1.2 40.2-1.2 2.8-2.8 1.7-2.7-2.4.3-17.5-3.3-42.3-4.5-50.6-.9-8.2-2-16.8-2.8-28.2-.8-6.7.4-11.5 2.5-15.3 1.9-3.5 2.4.5 2.7 4.9.4 8.4 4.8 40.8 6 51.4zm-98.5-20.3c-1.1-8.2-2.2-16.8-3-28.3-.6-6.6.5-11.4 2.6-15.2 1.9-3.6 2.5.3 2.7 4.9.3 8.3 4.8 40.8 5.9 51.4 2.2 20.8 1.1 35-1.1 40.1-1.3 2.9-2.9 1.8-2.7-2.4.3-17.4-3.4-42.2-4.4-50.5zm-29.7 91.8c-3.2 1.6-28 8.7-35.5 10.1-31.7 6.4-53-6.9-54.9-36-1.8-26.9 12.1-45.1 17.4-52.2q2.4-3.3 4.8-5.2c-5.6-6-10.9-2.1-12-.8-1.3 1.4-2.2.4-1.6-1.8 3.1-11.4 8-14.7 17.1-16.2 9.2-1.4 16.2 2.9 17.5 4 4.1 3.1 1.4 8.8-.5 12.7-.8 1.4-2.7 2.5-5.3 4 2.6 1.4 4.5 2.5 5 2.7 23 7.7 50.4-5 51.8-5.9 1.6-1-4.9-10.3-8.3-14.6 0 0 1.6-8.6 2.1-10.4.3-1.9.9-1.7 2.1-.5 10.2 10.1 9.1 21.8 8.8 25.3-1 8.2-2.9 9.1-4.8 10.1-17.5 8.6-32 9-37.2 9-19-.7-23.8-4.8-28.4-10.3-8.4 5.5-18.4 14.3-22.4 32-4.2 22.3 2.5 36.2 20 41.5 17.4 5.1 56.8-1 63.3-1.5 6.6-.6 4.3 2.6 1 4zm-1.6-54.2q2.2 2.2 4.6 3.8l.2 1-7.4 7.2-1.4.1q-2.3-1.6-4.5-3.6-1.8-2-3.4-4l.2-1.5 7.4-7.3.8.1c1.1 1.5 2.2 2.9 3.5 4.2zm22.1 17.1c-.5 1.3-.7 1.6-1.6 3.2-1 1.8-2.3 2.1-4.2 3-2.1 1.2-31.8 13.3-33 13.8-3.6 1.6-3 .5-2.5-.6.1-.5.5-1.3.9-3.1.7-1.6 1.5-2.1 3.9-3.2 2.5-.9 31.7-13.1 34.1-14.2 3.6-1.6 3-.2 2.4 1.1zm53.1-67.4 2.1-3.8c.1-.5.6-.8.9 0 1.5 4.8 1.3 8.8.4 11.8-1.2 3.2-2 5-6 6-3 .8-6.4 0-8-2.8-2.2 5.5-6.4 7.6-10 6.9-4.4-.6-6.9-5.4-2.8-13.9 1.3-2.6 2.3-1.3 1.8 0-1.9 5.6.2 7.7 3 7.5 4.5-.3 7.1-3 7.9-8.9.1-1-.5-.8 1.6-2.4 1.6-1.3 1.4-.7 1.3 1.1-.2 2.5.3 4.5 1.6 5.4 1.9 1.6 4.6 1.3 7-1.1.2-1.1-.3-2.9-1-4.5-.3-.5 0-.8.2-1.3z" fill="#231f20" fill-rule="evenodd"/></svg>