<svg height="337" viewBox="0 0 364 337" width="364" xmlns="http://www.w3.org/2000/svg"><path d="m292.2 111c-.7 1.7-4 8.6-4 8.6s-.9 0-4.7-.9c-18.2-4.2-45.1 8-48.9 9.5-7.5 2.9-14.6 4.9-21.5 6.3 0 0-31.5 5.7-50.6-4.6-4.1 10.8-9.8 19.7-13 23-18.5 19.3-47.1 1-50-.9-2.9-2-.1-3.7 1.9-2.9 15.5 6.9 31 2.9 34.5 1.7 10.5-4.5 17.4-15.5 21.4-23.7-12.3-8.4-4.4-20.1-3.7-21.6 1.1-1.9 1.6-1.3 1.9.6 2.3 14.3 30.4 18 34.4 18.1 26.7 2.9 58.4-10.6 61.3-11.5-24-9.7-41.2-4.2-42.4-4-1.4.3-1.4-.8-.9-1.7l5.5-8.8c3.7-3.5 31.5-4.4 31.5-4.4.5-5.7-6.3-40.4-6.3-40.4-.5-3.7-.9-7.7-1.1-9.6-.3-3.3-2-8.6-3.5-11.3-1.2-2-.2-2.6.9-4 2-2.6 2.5-5.4 4-7.7 1.2-2 2 .1 2.8 2.6.9 2.9 4.4 8 6.4 10.8 1.9 2.7-1.5 5.2-3.2 6.7-1.5 1.4-.5 4.2-.2 7.1 0 0 3.9 27.5 5 37 1 9.7-1.9 13.5-3.3 14.6 13.7 7.7 37.2 8 42.3 8.5 5.1.3 4.3 1.2 3.5 2.9zm-138.3-36.7q2.2 2.1 4.8 3.8v.9l-7.4 7.4-1.5.2q-2.3-1.7-4.5-3.9-2-1.8-3.5-4.1l.3-1.3 7.4-7.5h.7c1.3 1.5 2.3 3.1 3.7 4.5zm104.8 73.7.2 1-7.5 7.3-1.4.2c-1.6-1.1-3.1-2.3-4.5-3.7q-2-2-3.5-4.2l.1-1.3 7.6-7.6.7.2c1.1 1.4 2.3 2.9 3.7 4.3 1.4 1.5 2.9 2.8 4.6 3.8zm44.6-17.3c-1.2 2.9-2.8 1.8-2.6-2 .3-16.6-3.2-40-4.2-47.8-.9-7.7-2-15.9-2.9-26.6-.6-6.3.5-10.9 2.5-14.5 1.8-3.3 2.4.3 2.6 4.7.3 7.8 4.6 38.5 5.7 48.4 2 19.8.9 33.2-1.1 37.8zm-206.4-10c-3.5-2.2-6.7-4-8.7-5.6-2.2-2-2.4-5.6-.8-7.9 4.1-6.7 14.9-17.3 21.2-17 3.7.4 7.7 5.1 7.5 7.1-.3 1.9-4.1 8.6-6 8.5-1.5 0-1.4-5.3-7.2-6.2-2.1-.3-7.5 3.2-7.7 4.9-.1 2.3 5.9 8.2 13.4 9 6.1.4 10.1-.5 15.2-1.4 1.1-.2 1.5.1.8 1.4-.5.9-4.2 7.2-4.8 7.3-4.4.2-9.2 1.6-15.2 3.7-6.8 2.5-13.1 5.5-17.2 8.2-.8.4-1.2-.3-.9-1 .6-1.7 1.5-4.6 2.4-6.3 1.7-1.3 6.3-4.1 8-4.7zm52.6-68.9c-4.3 1.7-6.2 1.7-11.4 3.6-1.1.3-2.3.1-2.5-.7-.1-1 1-2.1 1.9-2.6 2-1.3 15.2-7.8 15.4-8.6 0-.3-5.7-2.3-8.8-2.6-3.4-.3-6.6.3-9.7 2.2-1.4.7-2.4 2-3.2 3.4-.8 1-1.4 0-1.1-1.4.3-.8.8-1.9 1.2-2.8 3.1-6.3 8.6-9.1 14.8-8.6 3.8.3 7.4 2.3 11.2 3.1 1.1.3 4.9.7 5.1 1.7-.2 1.3-1.6 5.5-3.2 7-.5.5-1 .3-1.4.5-1 .3-2.6 3.4-8.3 5.8zm-71.5 31.2c-3.1 1.6-5.5-.1 1.2-5 10.6-7.6 18.8-12.8 22.2-18.5 0 0-6.5-4.1-9.4-7.1-2.9-2.9.8-11 3.7-14.2 7.4-8.3 10.9-3 11.8-1.4 3.6 6.9 1.4 15.6.3 18.1 0 0 2.9 2.2 3.7 3.1 1.2 1.2.6 3.7-.8 8.1-.6 1.6-2.3-2.7-6.3-4.6-3 6.6-6.4 12.2-26.4 21.5zm26.8-30.2c.3-1.3.9-7.6-2-11.4-1.9-2-3.9-2.2-6.7 2.1-.9 1.4-.9 2.8 1 3.9 1.8 1.2 7.7 5.4 7.7 5.4zm-23.4 170.8c-2.8 1.3-5.2-.3 1.2-4.7 9.7-6.9 17.2-11.7 20.3-17.1 0 0-6-3.8-8.6-6.4-2.8-2.8.6-10.3 3.4-13.3 6.7-7.6 10-2.6 10.9-1.2 3.2 6.5 1.2 14.5.3 16.8 0 0 2.6 2 3.4 2.7 1.1 1.1.6 3.4-.8 7.6-.4 1.3-2-2.5-5.7-4.3-2.9 6.1-6 11.2-24.4 19.9zm24.6-28.1c.3-1.1.9-6.9-1.9-10.3-1.7-1.8-3.5-2-6.1 2-.8 1.2-.8 2.5.9 3.6 1.9.9 7.1 4.7 7.1 4.7zm79.1-112.2c-3.1 1.4-5.7-.3 1.3-5.2 10.6-7.5 18.7-12.6 21.9-18.4 0 0-6.3-4.2-9.2-7.1s.8-11.1 3.7-14.3c7.4-8.3 10.9-2.8 11.7-1.4 3.7 7.1 1.5 15.7.4 18.2 0 0 3 2.1 3.7 3 1.1 1.3.6 3.7-.9 8.2-.5 1.5-2.2-2.8-6.1-4.6-3.1 6.6-6.7 12.1-26.5 21.6zm26.6-30.4c.5-1.2 1.1-7.5-1.8-11.4-1.9-1.8-4-2-6.8 2.3-.8 1.3-.8 2.7 1.1 3.7 1.8 1.3 7.5 5.4 7.5 5.4zm118.2 211.2c-.8 1.8-2.6 5.5-4.5 8.1-25.8-4.9-45 7.8-48.4 9.5-22.1 8.9-40.1 10.8-44.2 10.6-27.1-.4-26.8-27.9-27.4-31.8-.6-3.8-11.4-69-12.7-73.4l2.6-8.8c.3-.8.6-2.6 1.7-.9 3 5.4 12.4 74.5 15.9 87.1 8.8 34.1 72 3.9 74.9 2.6-30.3-11-43.2-4.9-45-4.3-1.7.6-2.2.5-1.7-1.2.4-1.7 4-8.6 6-10.1 5.5-3.6 28.1-2.8 29.6-5.1.5-1.1-10.1-53.3-10.4-55.3-.7-3.9-3.3-9-5.1-11.9-1.5-2.3-.3-3 .8-4.6 2-3.1 2.4-4.4 4-7.1 1.2-2.3 2.1 0 3.2 2.7 1.4 3.2 5.5 8.1 7.8 11 2.5 2.9-1.8 6.5-3.5 8.2-1.7 1.8-1.2 2.3-.6 5.5 0 0 6.9 30.3 7.8 35.3 2.9 13.6-.3 21.4-1.7 23.7 16.8 6.5 45.2 7.2 48.6 7.2s2.9 1.6 2.3 3zm-116.8-80.6c.1-.4.5-1.4.9-3 .5-1.7 1.2-2.4 3.7-3.4 2.6-1.3 35.2-14.8 37.5-16 3.7-2 3.1-.5 2.5.9-.5 1.2-.7 1.6-1.6 3.4s-2 2.1-4 3.4c-2 1.1-35.2 14.7-36.2 15.3-3.7 1.7-3.1.7-2.8-.6zm39.3 40.3q2.2 2.1 4.8 3.8v1l-7.4 7.3-1.5.2q-2.3-1.6-4.5-3.7-2-2-3.5-4.2l.3-1.3 7.4-7.6.7.2c1.3 1.4 2.3 2.9 3.7 4.3zm97.6 20.9c2 21.2.9 35.6-1.1 40.7-1.2 3.1-2.7 2-2.6-2.1.3-17.9-3-43.1-4-51.5-1-8.3-2-17.1-2.9-28.8-.6-6.7.6-11.6 2.5-15.5 1.8-3.5 2.4.5 2.6 5.1.3 8.4 4.6 41.5 5.5 52.1zm-205.8 20.6c-7.2 3.8-13.3 3.2-20.2-.3q-1.6 3-3.4 6.3c-1.6 2.3-2.5 2.3-4.9 1.8-2.3-.4-9.6-3.1-12.6-9.4-8 7.7-18.2 7.7-21.6 7.4 1.1 17.8-4.9 26.9-6.9 28.8-17.6 16.4-39.2 11.9-43.8 10.3-27.8-10-10.1-45.2-7.5-48.5 2.2-2.3 3.1 0 2.5 1.1-17.3 30 9.8 36.9 12.6 37.4 26.9 4.4 37.3-12.6 38.8-16 1.3-3.5-6.9-25.2-9-29.4 0 0 2.9-9.5 3.5-10.7.6-1.1 1.7.4 2.6 2.7 0 0 2.3 5 4.3 10.5 20.2 7.8 28-5.7 29.8-10.3 2-4.8 3.9-1.8 3.3.5-.8 3.3-1.9 6.1-3.1 8.6 2.5 2.3 11.4 9.2 14.3 2.1 1.4-3.1 4-9.7 4.7-12.4 1-2.8 4.2-3.7 3.4.4-.3 1.6-1 4.3-2.3 7.9 12.8 7 21.7-3.4 24.3-6.9 3.2-4.2 6.2-10.8 15.2-19.1 4-3.1 10.8 0 12.3 5.2 2.2 5.4 2 18.5 1.9 20.6-.2 2.2-1.6 5.4-2.7 7.8-1 2.7-1.5 2.4-4.4 2.4s-17.1-5.1-21.2-8.3l-.8-1c-2.8 4.3-5.8 8.5-9.1 10.5zm15.4-20.8c2.8 4 13.4 6.5 16.1 7.3 3.1.7-.6-6.8-2.4-10.2-1.9-3.4-5.1-4-9.5-1.8-1.1.6-2.7 2.3-4.2 4.7zm30.3 43.7c-.5 1.2-.6 1.5-1.6 3.4-.9 1.7-2.1 2.1-4.1 3.2-2 1.2-35 14.9-36.3 15.4-3.5 1.8-3 .6-2.6-.7.2-.3.5-1.2.9-3 .5-1.7 1.3-2.2 3.7-3.4 2.5-1.1 35.1-14.6 37.5-16 3.6-1.8 3.1-.3 2.5 1.1z" fill="#231f20" fill-rule="evenodd"/></svg>