<svg height="303" viewBox="0 0 355 303" width="355" xmlns="http://www.w3.org/2000/svg"><path d="m61.5 191.8c-2.5 1.4-5-.1 1.2-4.6 9.5-6.8 16.9-11.3 19.9-16.4 0 0-5.9-3.8-8.4-6.5-2.7-2.6.6-9.9 3.3-12.8 6.6-7.5 9.8-2.6 10.5-1.2 3.3 6.3 1.4 14.1.3 16.3 0 0 2.7 1.9 3.5 2.7.9 1.2.4 3.3-.9 7.3-.5 1.4-2-2.4-5.6-4-2.7 5.8-5.9 10.8-23.8 19.2zm24.1-27.2c.3-1.1.9-6.8-1.8-10.1-1.7-1.8-3.5-1.9-6 2-.8 1-.8 2.2.9 3.3 1.6 1 6.9 4.8 6.9 4.8zm195.1-64.4c-.8 1.6-3.9 8.6-3.9 8.6s-.9 0-4.7-1.1c-18.1-4.2-44.6 7.8-48.5 9.5-7.4 2.8-14.4 4.8-21.2 6.3 0 0-31.3 5.6-50.1-4.7-4.2 10.7-9.8 19.6-13 22.9-18.3 19-46.6.9-49.5-1-2.8-2 0-3.5 1.8-2.9 15.5 6.9 30.9 3 34.2 1.7 10.5-4.3 17.4-15.2 21.2-23.4-12.2-8.2-4.4-19.8-3.6-21.5 1.1-1.8 1.5-1 1.8.6 2.3 14.2 30.1 17.9 34.2 17.9 26.5 3 57.9-10.4 60.6-11.3-23.8-9.6-40.6-4.2-42-3.9-1.3.2-1.3-.9-.9-1.8l5.6-8.6c3.6-3.4 31.2-4.5 31.2-4.5.4-5.5-6.2-39.9-6.2-39.9-.5-3.7-1.1-7.6-1.2-9.5-.3-3.4-1.8-8.4-3.5-11.2-1-2 0-2.7.9-4.1 2-2.4 2.6-5.3 3.9-7.5 1.2-2 2 .1 2.9 2.5.9 2.9 4.4 8 6.3 10.7 2 2.7-1.5 5.1-3.1 6.6-1.5 1.5-.5 4.3-.2 7.1 0 0 3.9 27.3 4.8 36.7 1.2 9.5-1.8 13.4-3.1 14.5 13.5 7.5 36.8 8 41.8 8.3 5.1.3 4.2 1.2 3.5 3zm-137-36.4q2.3 2.1 4.7 3.7l.1.9-7.4 7.4-1.5.1q-2.2-1.6-4.3-3.7-2-2-3.5-4.1l.2-1.3 7.3-7.4h.8c1.2 1.5 2.2 3 3.6 4.4zm103.9 73 .1.9-7.4 7.5h-1.5q-2.2-1.5-4.3-3.8-2-1.8-3.5-4l.2-1.4 7.3-7.4.8.2c1.2 1.3 2.2 2.8 3.6 4.2 1.5 1.5 3 2.7 4.7 3.8zm44.1-17.1c-1.2 2.8-2.7 1.7-2.6-2.1.3-16.4-3.2-39.5-4.1-47.2-1-7.7-1.9-15.8-2.8-26.5-.6-6.2.4-10.7 2.4-14.3 1.8-3.3 2.4.4 2.5 4.7.3 7.8 4.6 38 5.6 48 2 19.4.9 32.8-1 37.4zm-204.4-10c-3.5-2.1-6.7-3.8-8.6-5.5-2.3-1.9-2.3-5.5-.9-7.9 4.2-6.5 14.7-17 20.9-16.6 3.9.2 7.8 4.8 7.5 6.9-.1 1.8-4 8.5-5.8 8.5-1.6-.2-1.6-5.3-7.3-6.2-1.9-.3-7.3 3.2-7.5 5-.2 2.2 5.7 7.9 13.2 8.7 6.2.4 10.1-.5 15.1-1.4 1.1-.1 1.5.2.7 1.4-.4.9-4 7.2-4.6 7.2-4.4.3-9.2 1.7-15.2 3.8-6.6 2.4-12.8 5.5-17 8.1-.8.3-1.2-.3-.9-.9.6-1.8 1.6-4.7 2.4-6.3 1.6-1.5 6.3-4.2 8-4.8zm52-68.2c-4.2 1.8-6 1.6-11.3 3.4-1 .5-2.2.3-2.4-.6-.1-.9.9-1.9 1.8-2.5 2-1.4 15.2-7.8 15.2-8.5 0-.3-5.7-2.4-8.7-2.7-3.3-.3-6.5.5-9.6 2.3-1.2.7-2.3 2-3 3.2-.8 1.2-1.5.1-1.1-1.2.3-.8.8-1.9 1.1-2.8 3.1-6.3 8.7-9 14.6-8.5 3.9.3 7.5 2.2 11.1 3.1 1.1.2 5 .6 5.1 1.7-.1 1.3-1.5 5.4-3.1 6.9-.5.5-1.1.3-1.4.5-1 .3-2.7 3.3-8.3 5.7zm-70.7 31c-3 1.3-5.6-.3 1.2-5.1 10.5-7.6 18.5-12.5 21.8-18.2 0 0-6.3-4.3-9.2-7.1-3-2.9.8-11 3.7-14.2 7.3-8.2 10.8-2.7 11.7-1.2 3.5 6.8 1.3 15.4.3 17.9 0 0 2.9 2.1 3.6 3 1.2 1.3.8 3.7-.7 8-.6 1.5-2.3-2.7-6.2-4.5-3.2 6.5-6.5 12.1-26.2 21.4zm26.3-30.1c.3-1.2 1.1-7.4-1.9-11.2-1.8-1.9-3.8-2.1-6.5 2.1-.9 1.4-.9 2.8.9 3.8 1.8 1.2 7.5 5.3 7.5 5.3zm79.7 30.2c-3.1 1.5-5.6-.1 1.3-5.1 10.4-7.4 18.5-12.5 21.8-18.2 0 0-6.4-4.1-9.3-7.1-2.9-2.8.8-11 3.6-14.1 7.4-8.1 10.9-2.7 11.8-1.2 3.6 6.7 1.5 15.5.4 17.9 0 0 2.9 2.1 3.6 3 1.2 1.2.6 3.6-.9 8-.4 1.5-2.1-2.6-6.2-4.5-3 6.6-6.4 12-26.1 21.3zm26.4-30.1c.3-1 1-7.3-1.9-11.1-1.8-2-3.8-2.1-6.6 2.1-.8 1.4-.8 2.7 1 3.8 1.8 1.2 7.5 5.2 7.5 5.2zm-65 223.2c-2.8-.6-2.8-8.2-2.7-10.5 0-2.1 1.8-1.2 3.5-.6 4.2 1.2 22.3-3.5 29.5-5.1 1.9-.5 1.8-2.3 1.2-3.8-8-17.6-18.7-21.3-21.4-22.4l.3-9.6 1.7-1.2c11.7 2.5 18.8 15.8 20.3 19.2 5.1 11 2.5 24.1 1.9 25.8-.6 1.9-1.9 2.5-3.4 3-1.5.4-21.5 6.6-30.9 5.2zm42.2 9.4c-.6 1.2-.8 1.5-1.8 3.1-.9 1.8-2.1 2.1-4.1 3.2-2.1.9-32.1 13.4-33.3 13.9-3.6 1.5-3 .4-2.5-.8.1-.5.4-1.4.9-3 .6-1.7 1.3-2.1 3.9-3.2 2.6-1 32.1-13.2 34.5-14.4 3.6-1.7 3-.2 2.4 1.2zm32.8-97.7c.1-.3.4-1.2 1-3 .6-1.7 1.4-2.1 3.8-3.2 2.6-1 58.7-24.4 61-25.4 3.7-1.8 3.1-.3 2.5.9-.6 1.3-.7 1.6-1.8 3.3-.9 1.8-2.1 2.1-4.1 3.2-2.1 1-58.7 24.5-59.7 24.9-3.8 1.7-3.2.5-2.7-.7zm-87.8 20.8c1.4 3.4 4.2 16.4-.6 28-3.1 5.2-4.3 7-9 6.6-4.1-.5-9.9-2.1-12.9-4.5-6.5 7.6-15.6 9.3-19 9.8 3.7 19.1-1.5 29.6-3.3 31.7-16.1 18.7-38.1 16.6-43.1 15.4-29.2-7-15.3-44.6-12.9-47.9 1.8-2.7 3-.5 2.5.8-14 32 14 35.9 16.9 36.1 27.5 1.5 36.3-16.9 37.3-20.5 1.1-3.6-9.6-24.5-12.3-28.4 0 0 1.8-10 2.2-11.3.6-1.2 1.8.1 3.1 2.4 0 0 2.4 3.9 4.6 8.6 21.1 3.7 26.2-10.9 27.4-15.8 1.1-5 3.5-2.5 3.3 0-.3 3.3-.7 6.4-1.6 9 4.3 1.3 14.6 2.7 14.3 1.5-.2-1.4-2-11.9-1.4-14.6.8-2.7 1.5-6.6 2.3-8.3.6-1.5.9-2.2 2.2 1.4zm188.6 31.3c2.7 12.8.3 23-1.5 27.1-1.8 3.9-10.8 1.5-14.6.1-5.2-1.9-8.7-3.9-10.4-4.9-1.3 3.9-2.8 7.8-4.3 10.8-1.7 2.5-2.4 2.8-5 2.4-2.6-.3-13.2-4.1-13.8-7.4v-.3c-6.7 5.7-18.1 10-38.7 6.9-5.6 2.2-10.7 2.6-11.9 2.6 0 0-18.7 3.3-22-18.8-1-4.7-3.8-25.1-4.8-32.1-1.1-7-7.4-50.8-8.3-56.4l2.6-9c.3-.8.6-2.3 1.8.4 1.2 2.9 12.2 80.1 12.8 85.9 2.2 19.5 18 19.2 20.6 19.2 18.5-.5 24.4-13.9 25.4-16.3 1.1-2.4 2.7-1.8 2.4.6-.7 6.8-3.3 11.8-6.6 15.5 6.9.6 27.4-.3 33.4-16.4.5-1.3 3-2.4 2.1 1.4-.3 1.2-.9 5.2-3.3 9.6 3.5 1.5 12.7 5.4 13.9 1.7 1.3-4.3 4.5-13.1 5.1-14.6.4-1.6 3.2-2.3 2.6.3-.2 1-.8 3.7-1.9 7.3 2.5.5 14.2 2.6 18.1 1.7 3.2-.9 2.6-3.9 2.1-6.8-.6-3-10.1-58.2-11-62.8-.9-3.7-.7-6.9-1-8.7s-1.5-3.4-2.9-6.2c-1.3-2.5-.3-5.4.3-6.3s2.9-3.1 4.5-6.6c.8-1.7 1.7.3 2.1 2.1.5 1.5 3.8 6.9 5.2 8.9 1 1.2 1.8 3.4 1.3 4.4-.7 1.6-3.2 5.1-3.6 5.7-.5.6-.8 1.5-.5 3.4 0 0 8.3 48.5 9.8 55.6zm-46.5-38.9 2.3-4.2c.3-.4.7-.9.9 0 1.6 5.1 1.5 9.4.4 12.7-1.2 3.3-2.1 5.2-6.1 6.3-3.4.7-7 0-8.6-3-2.4 5.9-6.9 8-10.7 7.4-4.7-.6-7.4-5.8-2.9-14.9 1.4-2.6 2.3-1.2 1.8 0-2.1 6.1.2 8.2 3.2 7.9 5-.3 7.5-3.1 8.4-9.5 0-.9-.6-.7 1.7-2.5 1.6-1.4 1.5-.6 1.3 1.3-.1 2.6.5 4.7 1.7 5.8 2.1 1.6 5 1.3 7.5-1.2.2-1.2-.4-3-1-4.9-.3-.4 0-.7.1-1.2zm71.5 24.9c2.9 20.9 2.3 35.2.3 40.3-1 3-2.5 2.1-2.5-2.1-.3-17.6-4.6-42.4-5.8-50.7-1.3-8.3-2.5-16.9-3.9-28.3-.7-6.8.2-11.6 2-15.5 1.6-3.6 2.4.3 2.7 4.8.6 8.4 5.9 40.9 7.2 51.5z" fill="#231f20" fill-rule="evenodd"/></svg>