<svg height="307" viewBox="0 0 308 307" width="308" xmlns="http://www.w3.org/2000/svg"><path d="m257.1 100.5c-.7 1.7-4 8.5-4 8.5s-.7 0-4.6-.9c-17.9-4.1-44.2 7.8-48.1 9.4-7.3 2.8-14.5 4.8-21.2 6.3 0 0-31.1 5.6-49.7-4.7-4.2 10.6-9.7 19.6-13 22.8-18.1 18.9-46.3.9-49.1-1s-.2-3.4 1.8-2.8c15.3 6.8 30.5 2.9 33.9 1.6 10.5-4.3 17.3-15.2 21.2-23.2-12.1-8.4-4.5-19.8-3.6-21.3.9-1.8 1.3-1.2 1.6.6 2.4 14 30.1 17.7 34 17.7 26.4 3 57.6-10.3 60.5-11.3-23.7-9.4-40.5-4.1-41.9-3.9-1.3.3-1.3-.8-.9-1.8l5.5-8.5c3.6-3.4 31-4.3 31-4.3.5-5.7-6.1-39.8-6.1-39.8-.6-3.7-1-7.6-1.2-9.4-.3-3.4-1.9-8.4-3.4-11.1-1.2-2.1-.2-2.7.9-4 1.9-2.6 2.5-5.4 3.9-7.6 1.1-2 1.9.1 2.8 2.5.9 2.8 4.3 7.9 6.2 10.6 2 2.6-1.4 5.2-3.1 6.7-1.5 1.3-.4 4.1-.1 7 0 0 3.8 26.9 4.9 36.5 1 9.3-2 13.2-3.3 14.3 13.6 7.6 36.6 7.9 41.7 8.3 4.9.3 4.2 1.2 3.4 2.8zm-136.1-36.2q2.1 2.1 4.6 3.9v.9l-7.3 7.3-1.5.1q-2.2-1.6-4.3-3.7-1.9-1.9-3.4-4.1l.1-1.4 7.3-7.3h.9c1.1 1.5 2.3 3 3.6 4.3zm103.2 72.7v.9l-7.3 7.3-1.5.2q-2.2-1.7-4.3-3.8-1.9-1.9-3.4-4l.1-1.3 7.3-7.3h.8c1.2 1.5 2.4 3 3.7 4.3q2.1 2.1 4.6 3.7zm43.8-17c-1.2 2.7-2.7 1.8-2.7-2 .5-16.3-3-39.4-4-47.1-.9-7.6-1.9-15.6-2.8-26.2-.6-6.1.6-10.7 2.5-14.2 1.8-3.2 2.2.3 2.4 4.6.4 7.8 4.6 37.9 5.6 47.7 2 19.4.9 32.6-1 37.2zm-203.1-9.9c-3.6-2.1-6.7-3.9-8.7-5.6-2.1-1.7-2.2-5.3-.7-7.7 4.1-6.5 14.6-17 20.7-16.7 3.8.3 7.7 5.1 7.4 7-.1 1.8-3.8 8.5-5.8 8.4-1.5 0-1.3-5.1-7.1-6-2-.3-7.3 3.1-7.5 4.8-.3 2.2 5.7 8 13.1 8.6 6.1.6 10-.3 15.1-1.3.9-.2 1.5.3.7 1.5-.6.9-4.2 7-4.8 7.1-4.3.3-9 1.6-15 3.7-6.5 2.4-12.7 5.5-16.8 8.1-.8.4-1.2-.3-1.1-.9.6-1.7 1.7-4.6 2.4-6.3 1.8-1.5 6.3-4.1 8.1-4.7zm51.6-67.8c-4.1 1.8-5.9 1.6-11.1 3.4-1.1.5-2.3.3-2.4-.6-.3-.9.9-1.9 1.8-2.5 1.9-1.3 15-7.8 15-8.3 0-.3-5.5-2.4-8.5-2.7-3.4-.3-6.5.3-9.7 2.2-1.1.7-2.2 1.9-3.1 3.1-.7 1.1-1.3.2-1-1.2.3-.9.9-1.9 1.2-2.6 3.1-6.3 8.6-9 14.4-8.7 3.9.3 7.5 2.3 11.2 3.1 1 .3 4.7.6 4.9 1.7-.2 1.3-1.5 5.3-3.1 6.8-.5.5-.9.5-1.4.6-.9.3-2.7 3.3-8.2 5.7zm-70.3 30.8c-2.9 1.4-5.5-.3 1.2-5 10.5-7.5 18.5-12.6 21.8-18.2 0 0-6.3-4.2-9.3-7-2.8-2.8.8-10.9 3.6-14 7.3-8.2 10.9-2.8 11.8-1.4 3.4 6.9 1.3 15.4.3 17.9 0 0 2.8 2.1 3.7 3 1 1.2.6 3.6-.9 7.9-.6 1.6-2.2-2.5-6.1-4.5-3.1 6.6-6.4 11.9-26.1 21.3zm26.3-29.9c.3-1.2 1-7.3-2-11.2-1.8-1.9-3.7-2.1-6.5 2.3-.8 1.1-.8 2.5 1 3.7s7.5 5.2 7.5 5.2zm79 30.1c-2.8 1.5-5.3-.3 1.4-5.1 10.4-7.4 18.4-12.5 21.7-18.2 0 0-6.4-4-9.2-7-2.8-2.8.7-10.8 3.6-14 7.3-8.2 10.8-2.8 11.6-1.3 3.6 6.8 1.5 15.5.4 17.9 0 0 2.9 2.1 3.6 2.9 1.2 1.2.6 3.6-.9 7.9-.4 1.7-2.1-2.5-6-4.3-3.1 6.4-6.5 11.9-26.2 21.2zm26.4-30c.3-1.2 1-7.3-1.9-11-1.8-2.1-3.9-2.1-6.6 2.1-.9 1.3-.9 2.5 1.1 3.7 1.7 1.2 7.4 5.2 7.4 5.2zm91 187.2c2.7 12.7.1 23-1.5 26.9-1.8 4-10.9 1.6-14.6.3-5.2-2.1-8.6-4.1-10.3-5.1-1.3 4-2.8 7.9-4.4 10.9-1.5 2.3-2.3 2.8-4.8 2.3-2.5-.3-13.1-4-13.8-7.4v-.2c-6.5 5.7-18.1 9.9-38.5 6.9-5.5 2.1-10.5 2.5-11.7 2.5 0 0-18.7 3.3-21.9-18.7-1.1-4.7-3.8-24.9-4.8-31.9s-7.3-50.6-8.3-56l2.6-9.1c.3-.7.6-2.1 1.8.6s12.2 79.5 12.8 85.3c2.3 19.4 17.8 19.1 20.4 19 18.5-.3 24.3-13.7 25.4-16.1 1-2.4 2.6-1.8 2.3.6-.9 6.7-3.2 11.7-6.5 15.5 6.8.6 27.2-.3 33.2-16.3.4-1.5 2.8-2.5 2.1 1.2-.3 1.4-.9 5.2-3.3 9.7 3.3 1.5 12.5 5.4 13.7 1.6 1.4-4.1 4.5-13.1 5.1-14.6.4-1.4 3.1-2.2 2.7.3-.3 1.1-.9 3.9-2 7.3 2.4.5 14 2.7 18 1.7 3.2-.8 2.4-3.9 2-6.7-.5-2.9-10-57.8-10.9-62.4-.7-3.8-.7-6.9-1-8.7s-1.5-3.5-2.9-6.1c-1.3-2.5-.1-5.3.3-6.2.6-.9 2.9-3.2 4.5-6.7.7-1.7 1.8.3 2.2 2.1.3 1.6 3.6 7 5.1 8.7.9 1.4 1.6 3.6 1.3 4.5-.9 1.6-3.1 5.1-3.7 5.7-.3.6-.6 1.5-.4 3.5 0 0 8.3 48 9.8 55.1zm-160.9 51.9c-3.1 1.5-28 8.6-35.5 10.1-31.8 6.3-53.1-7-55-36.3-1.8-26.8 12.2-45.2 17.3-52.2q2.7-3.3 4.9-5.3c-5.7-5.8-10.9-2.1-12.1-.8-1.2 1.4-2.1.5-1.6-1.8 3.1-11.3 8.2-14.7 17.3-16.2 9.2-1.3 16.2 3 17.4 4 4.3 3 1.5 8.8-.5 12.7-.7 1.5-2.6 2.7-5.3 4 2.5 1.5 4.6 2.5 5 2.7 23.1 7.7 50.5-4.9 52-5.8 1.7-1.1-5-10.3-8.2-14.6 0 0 1.4-8.7 1.8-10.6.5-1.8 1.1-1.8 2.3-.4 10.2 10.1 9.2 21.7 8.9 25.3-1.1 8.2-3 9.2-4.9 10.3-17.5 8.6-32 8.9-37.3 8.9-19-.7-23.8-4.9-28.6-10.3-8.3 5.4-18.3 14.3-22.3 32-4.2 22.2 2.5 36.4 20 41.6s57-.9 63.4-1.5c6.6-.6 4.3 2.7 1 4.2zm59.8-105.6c.1-.5.3-1.4.9-3 .4-1.8 1.2-2.2 3.7-3.4 2.5-1.1 54.2-22.2 56.6-23.4 3.6-1.8 3-.3 2.4 1-.5 1.2-.8 1.5-1.7 3.3s-2.1 2.1-4 3.1c-1.9 1.2-54.2 22.5-55.4 23-3.6 1.6-3 .4-2.5-.6zm-39 68.3c-.6 1.2-.9 1.5-1.8 3.2-1.1 1.8-2.1 2.1-4.2 3.1-1.9 1-31.9 13.3-32.9 13.8-3.7 1.5-3.1.3-2.7-.7.1-.4.4-1.3 1-3 .6-1.8 1.4-2.2 3.9-3.3 2.5-.8 31.7-13.1 34.1-14.2 3.7-1.7 3.1-.2 2.6 1.1zm92.7-53.7 2.1-4c.3-.5.8-.9.9-.2 1.7 5.1 1.5 9.4.5 12.5-1.2 3.3-2.1 5.2-6.1 6.3-3.3.9-6.7 0-8.5-2.9-2.3 5.7-6.7 7.8-10.5 7.2-4.6-.6-7.4-5.7-2.8-14.6 1.4-2.7 2.2-1.3 1.8 0-2.2 6 0 8 3.1 7.9 4.8-.5 7.5-3.1 8.2-9.4.2-1-.4-.9 1.7-2.5 1.7-1.4 1.4-.8 1.3 1.2 0 2.6.4 4.6 1.8 5.8 1.9 1.6 4.7 1.2 7.3-1.4.1-1-.5-2.9-1.1-4.6-.1-.4 0-.9.3-1.3zm-114.9 36.6q2 2.1 4.6 3.7v.9l-7.3 7.3-1.5.2q-2.2-1.7-4.3-3.7-2-2-3.5-4.1l.2-1.3 7.3-7.3h.9c1 1.5 2.2 3 3.6 4.3zm185.4-8.3c1.9 22.5.7 37.7-1.2 43-1.2 3.1-2.7 2.1-2.5-2.4.3-18.7-3-45.4-3.9-54.3-1.1-8.8-1.9-18-2.8-30.4-.6-7.2.4-12.4 2.5-16.4 1.8-3.9 2.2.5 2.4 5.4.4 8.9 4.4 43.8 5.5 55.1zm-276.3-44c-2.7 1.2-4.9-.3 1.2-4.6 9.4-6.7 16.7-11.3 19.7-16.5 0 0-5.8-3.6-8.4-6.3-2.7-2.6.6-9.8 3.3-12.8 6.5-7.3 9.7-2.4 10.6-1.2 3.1 6.3 1.2 14 .3 16.3 0 0 2.5 1.9 3.2 2.6 1.1 1.2.6 3.3-.7 7.3-.4 1.4-2.1-2.3-5.5-4-2.8 5.8-5.8 10.7-23.7 19.2zm23.8-27.1c.3-1 .9-6.7-1.7-10.1-1.7-1.8-3.5-1.9-6 1.9-.8 1.2-.8 2.4.9 3.5 1.6 1 6.8 4.7 6.8 4.7z" fill="#231f20" fill-rule="evenodd"/></svg>