<svg height="327" viewBox="0 0 285 327" width="285" xmlns="http://www.w3.org/2000/svg"><path d="m242.5 100.9c-.7 1.6-4.1 8.6-4.1 8.6s-.8 0-4.5-.8c-18.3-4.2-45.1 7.8-49 9.4-7.4 2.9-14.7 5-21.5 6.5 0 0-31.6 5.7-50.6-4.7-4.2 10.7-9.7 19.8-13 23-18.6 19.3-47.1 1-50.1-1-2.9-1.9 0-3.5 2-2.9 15.6 7 31 3.1 34.5 1.6 10.6-4.2 17.5-15.4 21.4-23.6-12.3-8.3-4.5-20-3.7-21.6 1-1.8 1.5-1.1 1.8.7 2.2 14.2 30.5 18 34.5 18 26.8 3 58.5-10.6 61.3-11.6-24-9.5-41.2-4-42.5-3.8-1.3.1-1.3-.9-.8-1.8l5.5-8.6c3.6-3.6 31.5-4.6 31.5-4.6.4-5.6-6.2-40.3-6.2-40.3-.5-3.8-1.1-7.8-1.3-9.6-.2-3.4-1.8-8.6-3.4-11.3-1.1-2-.2-2.8 1-4.1 1.9-2.6 2.4-5.5 3.9-7.6 1.3-2 1.9 0 2.7 2.6 1 2.9 4.6 7.9 6.5 10.7 1.9 2.7-1.5 5.2-3.1 6.6-1.8 1.5-.5 4.4-.1 7.2 0 0 3.7 27.5 4.8 37.1 1 9.5-1.9 13.4-3.2 14.6 13.6 7.6 37.1 8.1 42.3 8.4 5 .3 4.2 1.3 3.4 2.9zm-138.3-36.8q2.3 2.3 4.7 3.9l.2 1-7.5 7.4h-1.4c-1.7-.9-3.1-2.2-4.6-3.7q-1.9-1.9-3.5-4l.3-1.5 7.4-7.5.9.2c1.1 1.5 2.2 2.9 3.5 4.2zm104.9 73.9v.9l-7.5 7.4-1.4.2q-2.3-1.6-4.4-3.8-1.9-1.9-3.6-4.2l.2-1.3 7.5-7.4h.8c1.1 1.4 2.2 3.1 3.7 4.4q2.1 2.1 4.7 3.8zm44.4-17.3c-1.1 2.8-2.6 1.8-2.6-2.1.3-16.5-3.1-39.9-4-47.8-1-7.7-2.1-15.8-2.9-26.6-.7-6.3.4-10.9 2.4-14.4 1.9-3.4 2.4.3 2.6 4.7.3 7.9 4.5 38.4 5.6 48.4 2 19.6 1 33.1-1.1 37.8zm-206.2-10.1c-3.7-2.2-6.8-3.8-8.7-5.6-2.3-1.8-2.5-5.5-.8-8 4-6.5 14.7-17.2 21-16.8 3.8.3 7.8 5 7.6 7.1-.3 1.8-4 8.6-6 8.4-1.6 0-1.4-5.2-7.2-6.1-2.2-.2-7.5 3.2-7.7 5-.1 2.3 5.7 8.1 13.3 8.8 6.3.4 10.2-.4 15.4-1.3.8-.2 1.5.1.7 1.3-.5.9-4.1 7.2-4.9 7.4-4.4.2-9.1 1.6-15.2 3.7-6.7 2.5-12.8 5.5-17 8.1-.9.5-1.3-.3-1.2-.9.7-1.7 1.8-4.6 2.6-6.2 1.6-1.6 6.3-4.2 8.1-4.9zm52.4-68.8c-4.2 1.7-6 1.6-11.2 3.5-1.1.3-2.4.2-2.6-.6-.2-1 1-2.1 1.8-2.6 2.1-1.3 15.4-8 15.4-8.6 0-.3-5.7-2.4-8.8-2.8-3.2-.1-6.6.5-9.7 2.3-1.3.8-2.3 2.1-3.1 3.4-.8 1-1.4 0-1.1-1.3.3-.8.8-1.9 1.1-2.7 3.3-6.4 8.8-9.1 14.8-8.8 3.9.3 7.4 2.3 11.3 3.2 1 .2 4.9.7 5 1.7-.1 1.4-1.4 5.5-3 6.9-.7.5-1.2.5-1.5.5-1 .3-2.7 3.4-8.4 5.9zm-71.3 31.2c-3.1 1.5-5.7-.3 1.2-5.1 10.6-7.5 18.7-12.7 22.1-18.5 0 0-6.5-4.1-9.4-7s.8-11.2 3.7-14.3c7.3-8.4 10.9-2.9 11.7-1.3 3.7 6.8 1.5 15.6.5 18 0 0 2.9 2.3 3.7 3.1 1.1 1.3.7 3.7-1 8.1-.5 1.6-2.1-2.6-6.1-4.5-3.1 6.6-6.5 12.1-26.4 21.5zm26.5-30.3c.4-1.3 1-7.6-1.9-11.3-1.8-2-3.9-2.1-6.7 2.1-.8 1.3-.8 2.7 1 3.9 2 1.1 7.6 5.3 7.6 5.3zm80.4 30.5c-2.9 1.5-5.5-.2 1.3-5.2 10.6-7.4 18.7-12.6 22.1-18.3 0 0-6.5-4.2-9.4-7.1-2.9-3 .8-11.1 3.7-14.3 7.5-8.4 11-2.9 11.8-1.3 3.6 7 1.5 15.6.4 18 0 0 2.9 2.3 3.7 3.1 1.1 1.3.6 3.7-.8 8.1-.7 1.6-2.3-2.6-6.3-4.6-3.1 6.7-6.5 12.2-26.5 21.6zm26.8-30.3c.3-1.3 1-7.5-2-11.4-1.9-1.9-3.8-2.1-6.6 2.1-.8 1.5-1 2.8 1 3.9 1.8 1.2 7.6 5.4 7.6 5.4zm78.9 210.7c2.6 14.9-2.9 26.9-4 28.7-6.7 9.4-18.2 1.2-20.4-.3-2.5-1.5-4.4-.3-7.3 1.3-22.1 13.4-39.1 11.3-42.7 11-19.7-2.3-21.5-26.6-22.2-33.4-1-7.6-4.4-46-7.6-58.2-1-4.8 1.1-12.6 1.5-14.9s1.6-3.1 2.4.5c1 3.4 9.1 64.5 10 70.8 3 20.9 15.3 22.2 19.7 23.2 19.2 2.3 38.7-8.7 41.9-10.8 3.1-2.3 6.7-.4 8.3.3 1.6.8 8.3 3.5 12.3 4 4.1.7 4.4-5.3 3.9-9-.5-3.9-8.6-50.6-8.9-53.4-1-6-1.9-10.2-2.1-11.3-.8-3.9-.8-7-1.1-8.9-.2-1.8-1.5-3.6-2.8-6.2s-.2-5.5.3-6.3c.5-1 2.8-3.3 4.6-6.8.8-1.7 1.8.3 2.1 2.1.5 1.6 3.7 7.1 5.2 9.1.9 1.1 1.7 3.4 1.3 4.3-.7 1.8-3.1 5.2-3.6 5.9-.3.5-.8 1.4-.5 3.5 0 0 8.6 48.5 9.7 54.8zm-225.3-33.5c-2.6 1.3-5-.4 1.3-4.7 9.6-6.8 16.9-11.5 19.9-16.7 0 0-5.8-3.9-8.4-6.5-2.7-2.6.7-10.1 3.3-13 6.8-7.4 9.8-2.6 10.7-1.1 3.2 6.3 1.3 14.1.3 16.4 0 0 2.6 1.9 3.4 2.7 1 1.1.5 3.4-.8 7.3-.5 1.5-2-2.4-5.7-4-2.8 6-5.8 11-24 19.6zm24.3-27.6c.2-1.1.8-6.8-1.8-10.2-1.7-1.9-3.5-1.9-6 1.9-.8 1.2-.8 2.5.9 3.4 1.7 1 6.9 4.9 6.9 4.9zm56.1 65.7-.8-1c-2.8 4.4-5.8 8.4-9.1 10.5-3.4 1.8-6.6 2.6-9.7 2.6 3.6 18.8-1.6 29.4-3.4 31.6-15.6 18.7-37.1 16.6-41.8 15.4-28.6-6.9-15.1-44.7-12.8-48.1 1.7-2.6 2.9-.3 2.6.8-12.2 32.1 13.6 36.1 16.5 36.3 26.9 1.3 35.3-17 36.3-20.7 1-3.6-9.4-24.5-12.2-28.4 0 0 1.8-10.1 2.3-11.4.7-1.3 1.8.2 2.9 2.3 0 0 2.3 4.1 4.7 8.8 12.4 6.1 20.8-4.1 23.5-7.5 3.1-4 6-10.7 15.1-19 3.9-3 10.7 0 12.3 5.2 2.1 5.5 2 18.5 1.8 20.6-.1 2.1-1.4 5.4-2.6 8-1.1 2.4-1.4 2.2-4.5 2.2-2.9-.1-16.9-5-21.1-8.2zm169.6-13c2.6 21.2 1.8 35.7 0 40.8-1.2 3-2.8 2-2.8-2.2 0-17.9-4.2-42.8-5.3-51.3-1.2-8.2-2.5-17-3.6-28.5-.8-6.8.2-11.8 2.1-15.7 1.6-3.6 2.3.5 2.6 5 .7 8.4 5.7 41.4 7 51.9zm-109.1-66.3q0-.5.9-2.9c.5-1.8 1.3-2.3 3.9-3.4 2.5-1 39.6-16.4 42-17.5 3.8-1.8 3.1-.2 2.5 1.1-.5 1.1-.9 1.5-1.8 3.2-1 1.8-2.1 2.1-4.1 3.1-2.1 1.2-39.7 16.7-40.8 17.2-3.8 1.6-3.1.3-2.6-.8zm-20.9 107.8c-.5 1.3-.7 1.6-1.7 3.4-.9 1.8-2.1 2.1-4 3.2-2.1 1.2-36.6 15.4-37.8 15.9-3.7 1.8-3.1.5-2.7-.6.1-.3.5-1.3.9-3.1.5-1.6 1.3-2.1 3.8-3.2 2.6-1.2 36.6-15.4 39-16.6 3.6-1.8 3-.3 2.5 1zm60.9-101.8 2.1-4.1c.3-.4.7-.9 1-.1 1.6 5.2 1.5 9.5.3 12.8-1.1 3.2-2.1 5.2-6.1 6.3-3.3.8-6.8 0-8.6-2.9-2.3 5.7-6.8 7.9-10.7 7.3-4.7-.7-7.5-5.9-2.9-14.9 1.4-2.6 2.2-1.3 1.9 0-2.1 6 0 8.2 3.1 7.9 4.8-.3 7.6-3.1 8.4-9.4.2-1-.5-.8 1.8-2.6 1.6-1.4 1.4-.6 1.3 1.3-.2 2.6.3 4.7 1.6 5.7 2.1 1.8 5 1.3 7.6-1.1 0-1.2-.5-3.1-1.1-4.8-.2-.6 0-.9.3-1.4zm-153.5 51.7q2.3 2.1 4.7 3.9l.2.8-7.5 7.5-1.4.1q-2.5-1.6-4.6-3.7-1.9-2-3.6-4.2l.4-1.3 7.4-7.5h.8c1.2 1.5 2.3 2.9 3.6 4.4zm58.5 10.2c2.8 4.1 13.5 6.5 16.2 7.3 3.1.8-.6-6.6-2.6-10.2-1.7-3.4-5-3.9-9.4-1.8-1.1.7-2.6 2.4-4.2 4.7zm99.2-14.1h.8c1.3 1.5 2.6 2.9 4.1 4.2 1.8 1.3 3.4 2.5 5.2 3.6l.3 1-7.1 8.2-1.5.4q-2.6-1.5-5-3.6l-2.6-2.4-6.5 7.9-1.6.3q-2.6-1.4-4.9-3.5c-1.4-1.2-2.7-2.5-4-3.9l.1-1.5 7-8.4h.8c1.3 1.4 2.6 2.9 4.2 4.2l3.3 2.4.3-.5zm-9.1-18.4c1.3 1.3 2.6 2.7 4.1 4q2.2 2 5 3.4l.2.8-6.8 8.1-1.5.2q-2.4-1.3-4.9-3.2-1.9-1.8-3.7-3.9v-1.3l6.8-8.1z" fill="#231f20" fill-rule="evenodd"/></svg>