<svg height="30" viewBox="0 0 70 30" width="70" xmlns="http://www.w3.org/2000/svg"><g fill="#191c4f"><path d="m13.5 22.8c0 .1 0 .1-.1.2s-.1.1-.2.2c-.2.1-2.4 1-2.5 1-.3.1-.2.1-.2 0q0 0 .1-.2c0-.1 0-.1.2-.2.1-.1 2.4-1 2.5-1.1.3 0 .2 0 .2.1z"/><path d="m27 22.2c-.1.1-.1.1-.2.3 0 .1-.1.1-.3.2s-3.6 1.4-3.7 1.5c-.3.1-.3 0-.3-.1q.1 0 .1-.2c.1-.2.1-.2.3-.3s3.7-1.4 3.9-1.5c.3-.2.2 0 .2.1z"/><path d="m15.9 21 .9.7q.1 0 0 0l-.5.8q0 0-.1 0l-.9-.7-.4.7q-.1 0-.1 0l-.9-.7q0 0 0 0l.5-.8q.1 0 .1 0l.9.7.4-.7q.1 0 .1 0z"/><path d="m34.6 20s-.1.2-.1.4c-.3.7-.2 1.1-.1 1.2.2.3.5.1.6-.1 0-.2.1-.1.1-.1q0 .1-.1.3c-.1.5-.3.6-.5.6s-.4-.4-.4-.6c0-.9.3-1.6.4-1.8s.1-.1.1.1z"/><path d="m39.7 19.1s-.1.2-.1.4c-.3.7-.2 1.1-.1 1.2.2.4.5.2.6-.1 0-.2.1-.1.1 0q-.1 0-.1.2c-.1.5-.3.6-.5.6-.3 0-.4-.4-.4-.6-.1-.8.3-1.5.4-1.7.1-.3.1-.2.1 0z"/><path d="m63.8 19v.5c0 .2-.1.4-.2.7s-.7.4-1.1.2c-.6 1-1.2.5-1.6.4-.6-.3-.7.1-.9.3-.8.8-2.1.8-2.5.8-.3.1 0-.1.1-.2 1.1-.4 1.8-.5 2.7-1.4.5-.4.7-.2.9-.1.9.4 1 0 1.2-.1.1-.1.2-.6.3-.8.1-.1.2 0 .1.1 0 .1 0 .3-.1.4.4.2.8 0 .9-.1 0 0-.1-.3-.1-.3q0-.2.1-.5c.1-.3.2 0 .2.1z"/><path d="m10.3 14.7s-.1.4-.2.7c-.3 1.4-.1 2.1 0 2.2.4.7.8.3 1-.2 0-.3.1-.2.1-.1q0 .2-.1.5c-.1.9-.4 1.1-.7 1.1-.5 0-.7-.7-.7-1-.2-1.6.3-2.9.4-3.3s.2-.2.2.1z"/><path d="m6 17s-.1.4-.1.7c-.4 1.5-.1 2.1 0 2.2.4.7.8.3.9-.2.1-.3.2-.2.2 0q0 .1-.1.4c-.2.9-.5 1.1-.7 1.1-.5 0-.7-.6-.8-1-.1-1.6.4-2.9.5-3.3s.2-.2.1.1z"/><path d="m21 13.3s-.1.2-.1.3c-.3.9-.1 1.2-.1 1.3.3.4.5.2.6-.1.1-.2.1-.1.1 0q0 0 0 .2c-.1.5-.3.6-.5.6-.3 0-.4-.4-.5-.6-.1-.8.3-1.6.4-1.8 0-.2.1-.1.1.1z"/><path d="m46.9 17.7c-.2.9-1.5 1.4-1.8 1.5-1.1.4-1.2-.8-1.2-1.6.1-.8.7-1.9.7-1.9s-1.2-1-1.3-1c-.1-.1-.2-.3-.3-.3-.2-.1-.1-.2-.1-.2s0-.8 0-.9 0-.1.1 0c.1 0 1.4.5 1.6.6.1.1.1.2 0 .2s-.5.1-.5.1l1 .8s1.5-2 1.7-2.1c.1-.2.1-.1.1.1-.1.2-.4 1-.4 1.1-.1.1-.9 1.2-.9 1.2s1 .6 1.3.9c.4.6.1 1.2 0 1.5zm-1.8-1.7s-.7 1.2-.8 1.4c-.3.7.4.8.6.7.3 0 1.2-.4 1.6-.8.4-.3-1.2-1.1-1.4-1.3z" fill-rule="evenodd"/><path d="m13.3 12.2s0 .2-.1.4c-.2.8-.1 1.2 0 1.3.2.4.5.2.6-.1.1-.2.1-.1.1 0q0 0 0 .2c-.2.5-.4.7-.5.7-.3 0-.5-.4-.5-.7-.1-.9.2-1.6.3-1.9.1-.2.2-.1.1.1z"/><path d="m65.2 16.7c-.1.2-.3 1-1.5.8-.3-.1-1-.2-1.2-.9-.3.4-1 1.6-2.4 1.4-.3-.1-1.2-.5-1.3-1.7 0 0-1.1.9-1.6 1.2 0 .5 0 1-.2 1.5-.2.6-2.7 3.3-4.7 3.8-.6.1-3.2.6-3.3-2.3 0-.5.1-1 .1-1.3-1.6 1.2-3.5 2.1-4 2.4-.8.4-3.7.9-4.2 1-.4 0-.4-.1-.2-.2s6.6-2.3 10-5.8q.1-.2-.1-.4c-.1-.2-1.1-2.2-1.2-2.5-.1-.2-.2-.6-.3-.7q-.1-.1 0-.3c0-.1.1-.6.1-.7.1-.2.1-.1.2 0 0 .1 1.1 1.1 1.2 1.3.1.1 0 .1 0 .1-.1 0-.6 0-.6 0s.7 1.2.9 1.6c.5 1 .2 1.8.1 2.1-.3.6-.9 1.2-1.5 1.8-.2.5-.4 2.8 1.8 2.9.3 0 1.5.1 3.6-1.7.6-.4 1.1-.9 1.6-1.6.2-.3.3-.7 0-.7-.4.1-2.6.9-3-.5 0-.3.1-3.6 2.4-2 .2.1.6.5 1 1.2.3-.2 1-.6 1.9-1.3.2-.2.5-.3.5 0-.1.3-.2 2.2 1.8 1.6.3 0 1.1-.2 1.7-1.8.2-.4.5-.4.3 0-.1.4-.3.7-.2.9.3.2.8.6 1.6.5.2 0 .4-.1.3-.3s-.4-.6-.4-.6c.1-.3.2-.7.2-.8s.1-.2.2-.1.7.9.4 2.1zm-9.3.1c-.7-1-1.6-.4-1.7-.3s-.2.3.5.4c.9.1 1.2-.1 1.2-.1z" fill-rule="evenodd"/><path d="m45.7 10.8.9.7q.1 0 0 0l-.5.8q0 0-.1 0l-.9-.7-.4.7q-.1 0-.1 0l-.9-.7q-.1 0 0-.1l.5-.7q0 0 .1 0l.9.6.4-.6q.1 0 .1 0z"/><path d="m62.8 10.8s-.1.3-.1.4c-.3.8-.1 1.2-.1 1.3.2.4.5.2.6-.1.1-.2.1-.1.1 0q0 0 0 .2c-.2.5-.4.6-.5.6-.3 0-.5-.4-.5-.6 0-.9.3-1.6.4-1.8s.2-.1.1 0z"/><path d="m53.7 10.4s-.1.2-.1.4c-.3.9-.2 1.3-.1 1.3.2.5.6.3.7-.1 0-.1.1-.1.1 0q-.1.1-.1.3c-.1.5-.4.6-.5.6-.4 0-.5-.4-.5-.6-.1-1 .3-1.8.4-2s.2-.1.1.1z"/><path d="m17.1 10.2s-.1.4-.1.6c-.3 1.2-.1 1.7 0 1.9.3.5.7.2.8-.3.1-.2.2-.1.1 0q0 .1 0 .4c-.2.7-.4.9-.6.9-.5 0-.7-.5-.7-.8-.2-1.3.3-2.4.4-2.7.1-.4.2-.2.1 0z"/><path d="m18.1 6.7c.1.2 0 .6 0 .8-.1.1-.2 0-.3-.1 0 0-.1-.1-.2-.2-.5-.4-.7.3-.7.7-.1.2-.1 1.1-.2 1.6 0 .2-.1.2-.2 0-.3-1-.9-1.5-1-1.6q0-.1-.1-.1.1.2.1.4c-.2 1.4-1.6 1.9-1.8 2s-.2.1 0-.2c.2-.2 1.2-1.3 1.4-1.5.5-.4-.3-.7-.5-.8-.1-.2 0-.6 0-.7 0-.3.2-.4.3-.3 1.2.6 1.6 1.8 1.6 2 .1-.9.1-1.7.6-2.3.4-.5 1 .2 1 .3z"/><path d="m52.9 6.6c0 .2 0 .2-.1.3-.1.2-.2.2-.3.3-.2.1-4.9 2.9-5 2.9-.3.2-.3.1-.3 0q.1 0 .1-.2c0-.2.1-.2.3-.4.2-.1 4.9-2.8 5.1-2.9.3-.2.3-.1.2 0z"/><path d="m58.7 6.9c.1.2 0 .6-.1.8 0 .2-.2 0-.3-.1 0 0-.1-.1-.2-.2-.5-.4-.6.4-.7.8 0 .2-.1 1.1-.2 1.6 0 .2-.1.2-.2.1-.3-1.1-.9-1.7-1-1.8-.2-.1-.2.1-.3.2 0 0 0 0-.1 0s-.4-.3-.5-.4c-.2-.1-.1-.5-.1-.7 0-.3.2-.4.3-.3 1.3.7 1.7 1.9 1.8 2.1 0-.9.1-1.7.6-2.4.4-.5 1 .3 1 .3z"/><path d="m63.4 9c0 .1-.1 0-.2-.1s-.2-.3-.4-.4c-.2.5-.1.5-.9 1.2-1.8 1.5-3.7 2-3.8 2.1-.1 0-.2-.1 0-.2.6-.5 3.1-1.6 4.4-3.2 0 0-.4-.1-.6-.3-.3-.2-.2-.9 0-1.2.5-.8.9-.4 1-.3.4.7.2 1.5.2 1.5.2.1.5.4.3.9zm-.8-1.9c-.1-.1-.2-.1-.5.3-.1.1 0 .2.2.2.1.1.5.3.5.3 0-.1.1-.6-.2-.8z" fill-rule="evenodd"/><path d="m40 6.3c0 .1 1.1 2.8 1.2 2.9 0 .2-.1.2-.2.1s-.6-.6-.6-.6 1 7.3 1 7.5q.3 2.2.2 3.2c0 .9-.2 1.2-.2 1.3-.1.2-.2.1-.2-.1 0-.5-.1-1.5-.2-2.5-.3-2.3-1.3-9.2-1.4-10.4 0-.1-.1-.5-.1-.5s.3-.9.4-1c0-.1 0 0 .1.1z"/><path d="m35.2 14.5.9.7q0 0 0 0l-.6.8q0 0 0 0l-.9-.7-.5.7q0 0-.1 0l-.9-.7q0 0 0-.1l.6-.7q0 0 0 0l.9.6.5-.6q0 0 .1 0z"/><path d="m34.9 11.3s.1.4.2.6.2.4.1.7c0 .3-.2.5-.3.6-.2.1-.5.1-.8-.3-.2.6-.6.7-.8.6-.3-.2-.3-.6-.3-.7s0-.6 0-.7 0-.1.1-.2c0-.1.1-.1.1 0 0 .2-.1.7 0 1 .3.3.7 0 .8-.2s-.1-.8-.1-.8q0-.1 0-.1s0-.2 0-.3q.1-.2.2 0c0 .1 0 .2.1.8s.6.4.8.4c.1-.1.1-.1 0-.2 0-.1-.2-.5-.3-.7s0-.4 0-.5c.1-.2.1-.1.2 0z"/><path d="m27 9.2s0 .3-.1.4c-.2.8-.1 1.1 0 1.2.2.4.5.2.6-.1 0-.2.1-.1.1 0q0 0-.1.2c-.1.5-.3.6-.4.6-.3 0-.5-.4-.5-.6-.1-.8.3-1.5.3-1.7.1-.2.2-.1.1 0z"/><path d="m36.1 9.1c-.1.1-.1.1-.2.3 0 .1-.1.1-.3.2-.1.1-5.9 2.4-6.3 2.7-.6.3-.5.5-.4.5.3.1.5.4.3.8q-.1 0-.1 0c0-.1-.1-.2-.3-.2-.2-.1-.3-.5-.2-.9.1-.2.3-.5.5-.6.4-.3 6.6-2.8 6.8-2.8.2-.2.2-.1.2 0z"/><path d="m45.5 8.7c-.1.1-.1 0-.2-.1-.1 0-.4-.3-.4-.3s-.4.8-1 1.3c-1.2.9-2.2 1.1-2.3 1.1s-.1-.1.1-.2c.7-.5 1.6-.8 2.9-2.3 0 0-.4-.2-.7-.4s-.1-.9.1-1.2c.5-.8.9-.4 1-.2.4.7.2 1.4.2 1.4.2.1.4.4.3.9zm-.9-1.9c-.1-.1-.2-.1-.4.3-.1.1 0 .2.1.3.2 0 .6.2.6.2 0-.1 0-.5-.3-.8z" fill-rule="evenodd"/><path d="m23.4 5.5c.5.1.4.3.3.5-.4.5-.9.8-1.3 1-.4.1-.2-.2 0-.3 0 0 .3-.2.6-.4.3-.3-.6-.2-.9-.2-.4 0-.5.1-.6.2-.1.2-.3.1-.2-.1.1-.1.2-.3.5-.6.2-.3 1.1-.2 1.6-.1z"/><path d="m38.3 18.5c-.4 1.3-1.5 1.4-1.9 1.4-1.3 0-1.6-1.1-1.7-1.4 0 0-.7.8-1.2 1.1-1.4.9-2.5.1-2.8-.1s-1.7-2-2.6-2.9c-.8-1-1.7-1.4-1.8-1.5.1.1.4.6.5 1.5.1.6 0 1-.2 1.3-.4.3-.8.6-1.4.8q.1.5 0 .7c-.1 1.2-1.5 2.4-2 2.7-2.6 2.1-4.4 1.1-4.7.9-1.6-1.3-.7-4.3-.4-4.9q0-.1 0-.2c-.4.4-.9.5-1.2.6-1.7.6-3.3.2-3.5.2 0 0 .2 1.4-.8 2.4-1.5 1.6-4.9 2.9-5.1 2.9-.1.1-3 .1-3.3.2-.2 0-.3-.1-.1-.2 4.7-.8 8.2-3.6 8.6-3.9.3-.3.4-.8.3-1 0-.2-.7-1.7-.9-1.9 0 0 .1-.7.1-.8.1-.2.1-.1.2 0 .1.2.6.9.6.9 2.1 1.4 5-.3 5.2-.4.3-.1.2-.2.2-.4-.1-.1-.7-.8-.8-1 0 0 .1-.6.1-.8.1-.2.2-.1.2 0 1 .8.9 2 .8 2.3q-.1.4-.3.7s.1.1 0 .3c-.8 1.8-.3 3-.1 3.4.8 1.6 2.7.8 3.1.7 1.8-.7 3.1-2.4 3.3-2.5.1-.1.2-.2.2-.5q-.1-.1-.1-.2c-1 .2-2.1.2-2.6-.3-.6-.6-.1-1.9.5-2.3.5-.5 1.2 0 1.4.2.4.3.7.8.9 1.2.9-.2 1.3-.6 1.3-.7.1-.1.2-.2.1-.4s-.4-.6-.6-.9c-1.2-1.6-4.9-4.4-5.2-4.6-.3-.3-.2-.8-.2-1.1.2-1 1-1.4 1.3-1.6 5-2.6 9.8-3.4 10.2-3.4 1.5 0 1.3.7 1.3 1-.2 1.2-2.3 3.5-2.4 3.7-.2.1-.2-.1-.1-.2.3-.7 1.6-2.1 1.8-2.4s.1-.6.1-.7c-.2-.4-1.1-.4-1.6-.3-4.6.7-9.9 3.7-10.1 3.8-.2.2-.1.2 0 .3 4 2.2 7.2 5.2 7.6 5.5.7.6 1.6 1.9 2 2.4.7.8 1.5.8 1.8.8 1.6 0 2.5-1.8 2.6-1.9.1-.2.1-.1.1.1 0 .9.4 1.3.5 1.4.6.4 1.6.2 1.9.1.6-.2.5-.8.5-1s-.2-1.4-.2-1.9c-.1-.5-1-7.5-1.1-7.9 0-.4-.1-.6-.1-.7 0 0 .3-.7.4-.9 0-.1.1 0 .1.1.1.1 1 2.5 1.1 2.6 0 .2-.1.2-.2.1 0-.1-.5-.5-.5-.5s.9 7.4 1 8c.1.9 0 1.6-.1 2zm-14.1-.6c-.2-.3-.5-.4-.6-.5-.5-.3-.8-.1-1 .1s-.1.5 1.3.4q.1 0 .3 0z" fill-rule="evenodd"/><path d="m10.2 7.6c.1.2.1.6 0 .9-.1.1-.3 0-.4-.2 0 0-.1-.1-.2-.2-.5-.4-.7.4-.8.8 0 .3-.1 1.9-.4 2.6-.6 1.1-.3 1.7-.3 1.8.3.6.8.3.9-.1.1-.2.2-.1.2 0q-.1.1-.1.3c-.3.7-.6.9-.8.8-.4 0-.6-.6-.6-.8 0-1.1.4-1.9.6-2.4.1-.1 0-.5 0-.6-.4-1-1-1.5-1.1-1.6q0 0 0 0 .1.1 0 .4c-.2 1.5-1.7 2.1-2 2.3-.3.1-.2.1 0-.2s1.4-1.5 1.6-1.7c.5-.6-.4-.9-.5-1-.2-.2-.1-.6-.1-.8 0-.3.2-.4.3-.4 1.4.8 1.9 2.2 1.9 2.4.1-1 .1-2 .7-2.7.4-.5 1.1.3 1.1.4z"/></g></svg>