<svg height="30" viewBox="0 0 70 30" width="70" xmlns="http://www.w3.org/2000/svg"><g fill="#191c4f"><path d="m27.8 22.9c0 .1 0 .1-.1.2-.1.2-.2.2-.3.3-.2.1-2.5 1-2.6 1-.3.2-.3.1-.2 0q0 0 .1-.3c0-.1.1-.1.3-.2.2-.2 2.4-1 2.6-1.1.3-.2.3 0 .2.1z"/><path d="m19.2 21.9.9.7q0 0 0 0l-.5.8q-.1 0-.1 0l-.9-.7-.5.7q0 0 0 0l-1-.7q0 0 0 0l.6-.8q0 0 0 0l.9.7.5-.7q0 0 .1 0z"/><path d="m14 21.9c0 .1 0 .2-.1.3 0 .2-.1.2-.3.3s-4.3 2.1-4.4 2.1c-.3.2-.3.1-.2 0q0-.1 0-.3c.1-.1.1-.2.3-.3s4.3-2 4.5-2.1c.3-.2.3-.1.2 0z"/><path d="m64.2 20s.1.2.1.4-.1.5-.2.8-.7.4-1.1.1c-.7 1.1-1.3.5-1.6.4-.6-.2-.8.2-1 .3-.7.9-2.1.9-2.4.9-.4 0-.1-.2 0-.2 1.1-.4 1.8-.5 2.8-1.4.4-.4.7-.2.8-.2.9.4 1.1 0 1.2-.1s.3-.6.3-.7c.1-.1.2 0 .2.1s-.1.3-.1.3c.4.3.7.1.8 0 0 0 0-.3 0-.4q0-.1.1-.5c.1-.2.1 0 .1.2z"/><path d="m14.5 16.5c.1.2.7 1 .8 1.3.3.9-.1 1.7-.2 1.9-.7.9-2.3 1.5-3.4 1.8-4.7 1.4-5.9.2-6 0-1.5-1.5 0-3.8.1-4s.3-.1.2.1c-.3.5-.5 1.3-.5 1.6-.1 1.8 2.2 1.8 2.7 1.8 4.5-.3 6.4-1.8 6.6-2s-.6-1.2-.8-1.5c0 0 .2-.8.2-1q.1-.2.3 0z"/><path d="m11.1 16.1.9.7q0 0 0 0l-.5.8q0 0-.1 0l-.9-.7-.4.7q-.1 0-.1 0l-.9-.7q-.1 0 0-.1l.5-.7q0 0 .1 0l.9.6.4-.6q.1 0 .1 0z"/><path d="m20.4 15.3s-.1.2-.1.4c-.3.9-.2 1.3-.1 1.4.2.4.6.2.7-.1 0-.2.1-.1.1 0q0 0-.1.2c-.1.6-.4.7-.5.7-.4 0-.5-.4-.5-.7-.1-.9.3-1.8.4-2s.2-.1.1.1z"/><path d="m47.3 18.7c-.2.9-1.5 1.4-1.8 1.5-1.1.4-1.2-.8-1.2-1.6.1-.8.7-1.9.7-1.9s-1.2-1-1.3-1.1-.2-.2-.4-.3c-.1-.1 0-.1 0-.1s0-.9 0-1 0 0 .1 0c.1.1 1.4.6 1.6.6.1.1 0 .2 0 .2-.1.1-.5.2-.5.2l1 .7s1.5-1.9 1.7-2.1c.1-.2.1-.1.1.1-.1.2-.3 1-.4 1.2-.1.1-.9 1.2-.9 1.2s1 .5 1.3.9c.4.6.1 1.2 0 1.5zm-1.8-1.7s-.7 1.1-.8 1.3c-.3.7.4.8.6.8.3 0 1.2-.5 1.6-.8.4-.4-1.2-1.2-1.4-1.3z" fill-rule="evenodd"/><path d="m65.6 17.7c-.1.1-.3 1-1.5.8-.3-.1-.9-.2-1.2-.9-.3.4-1 1.5-2.3 1.3-.3 0-1.3-.4-1.4-1.6 0 0-1.1.9-1.6 1.2 0 .4 0 .9-.2 1.5-.2.5-2.6 3.3-4.6 3.7-.7.2-3.3.7-3.3-2.2q-.1-.9 0-1.4c-1.5 1.3-3.5 2.2-4 2.5-.8.4-3.7.8-4.2.9-.4.1-.4 0-.2-.1s6.6-2.3 10-5.8q.1-.2-.1-.5c0-.1-1.1-2.2-1.2-2.4-.1-.3-.2-.6-.3-.7q-.1-.2 0-.3c0-.1.1-.7.1-.8.1-.1.1-.1.2 0s1.1 1.2 1.2 1.3.1.2 0 .2h-.5s.6 1.2.9 1.6c.4 1 .1 1.7 0 2.1-.3.6-.9 1.2-1.5 1.7-.1.5-.4 2.9 1.8 2.9.4.1 1.5.2 3.7-1.6.5-.4 1.1-.9 1.6-1.6.2-.3.3-.8-.1-.7-.3 0-2.6.9-3-.5 0-.4.2-3.7 2.4-2 .2.1.7.5 1 1.1.3-.1 1-.5 1.9-1.2.3-.2.5-.3.5 0s-.2 2.1 1.9 1.6c.2-.1 1.1-.3 1.7-1.9.2-.3.4-.3.3 0-.2.4-.4.8-.2 1s.8.6 1.5.5c.3 0 .4-.2.3-.4s-.3-.6-.3-.6c0-.2.1-.7.2-.8 0-.1 0-.2.1-.1s.8 1 .4 2.2zm-9.3 0c-.7-.9-1.6-.4-1.7-.3s-.2.4.6.5c.8 0 1.1-.2 1.1-.2z" fill-rule="evenodd"/><path d="m24.9 12.5s0 .4-.1.6c-.2 1.2.1 1.7.1 1.8.4.6.8.2.9-.3 0-.2.1-.1.1 0q0 .1 0 .4c-.1.7-.4.9-.6.9-.4.1-.7-.5-.7-.7-.3-1.3.1-2.4.2-2.8 0-.3.2-.2.1.1z"/><path d="m10.3 12.2s0 .3-.1.5c-.2.9 0 1.3 0 1.4.3.4.6.1.7-.2 0-.2.1-.1.1 0q0 .1-.1.3c-.1.5-.3.7-.5.7-.3 0-.5-.5-.5-.7-.1-1 .2-1.8.3-2 .1-.3.2-.2.1 0z"/><path d="m46.1 11.7.9.7q.1 0 0 .1l-.5.7q0 .1-.1 0l-.9-.6-.4.6q-.1.1-.1 0l-.9-.6q-.1-.1 0-.1l.5-.7q0-.1.1-.1l.9.7.4-.6q.1-.1.1-.1z"/><path d="m63.3 11.8s-.1.2-.2.4c-.2.8-.1 1.2-.1 1.2.3.4.6.2.7-.1 0-.1.1 0 .1 0q-.1.1-.1.3c-.1.5-.3.6-.5.6-.3 0-.4-.4-.4-.6-.1-.9.3-1.7.4-1.9 0-.2.1-.1.1.1z"/><path d="m6 11.5s-.1.5-.2.8c-.5 1.6-.2 2.3-.2 2.4.4.8.9.4 1.1-.2.1-.3.2-.1.2 0q-.1.2-.1.5c-.3 1-.6 1.2-.9 1.2-.5 0-.7-.8-.7-1.2-.1-1.7.5-3.2.6-3.6.2-.4.3-.2.2.1z"/><path d="m54.1 11.3s0 .3-.1.4c-.3.9-.1 1.3-.1 1.4.2.4.6.2.7-.1.1-.2.1-.1.1 0q0 0-.1.2c-.1.6-.3.7-.5.7-.3 0-.5-.4-.5-.7-.1-.9.3-1.7.4-1.9.1-.3.2-.2.1 0z"/><path d="m14.4 10.8s-.1.4-.2.7c-.4 1.3-.1 1.9-.1 2 .3.7.8.3.9-.2.1-.2.2-.1.1 0q0 .1 0 .4c-.2.8-.5 1-.7 1-.5 0-.7-.6-.7-1-.1-1.4.4-2.6.6-3 .1-.3.2-.2.1.1z"/><path d="m33.2 10.5.9.7q0 0 0 0l-.5.8q0 0-.1 0l-.9-.7q0 0 0 0l.5-.8q.1 0 .1 0z"/><path d="m26.9 8.6c-.1.1-.1.1-.1.3-.1.2-.2.2-.4.3s-8 4.4-8.1 4.5c-.4.1-.3 0-.3-.1q0 0 .1-.3c0-.1.1-.2.3-.3s8-4.4 8.2-4.5c.4-.2.3-.1.3.1z"/><path d="m28.1 8.5s-.1.2-.2.4c-.3.9-.1 1.3-.1 1.4.3.4.6.2.7-.1.1-.2.1-.1.1 0q0 0 0 .2c-.2.6-.4.7-.6.7-.3 0-.5-.4-.5-.7-.1-.9.3-1.8.4-2s.2-.1.2.1z"/><path d="m11.2 8.7c.1.2.1.5 0 .7-.1.1-.2 0-.3-.2 0 0-.1-.1-.2-.1-.4-.4-.5.3-.6.6 0 .2 0 1-.1 1.4 0 .2-.1.2-.2 0-.3-.9-.8-1.3-.9-1.4s-.1 0-.2.1q0 .1-.1 0s-.3-.2-.4-.3-.1-.4-.1-.6.2-.3.3-.3c1.1.6 1.4 1.7 1.4 1.8.1-.7.1-1.5.6-2 .3-.4.8.2.8.3z"/><path d="m16.1 8.4c.5 1.7.9 7.7 1 8.4.1 2.8 1 3.1 1.3 3.3 1.6.9 4.4-.2 4.9-.5.6-.3.5-.5.4-.8-.1-.2-.8-1-.9-1.1 0 0 0-.6.1-.8q0-.3.2-.1c1.5 1.1 1.1 2.9 1 3.1-.5 1.2-4.8 2.4-6.5.9-1.1-.9-1.1-4-1.2-5.3-.1-2.1-.7-5.8-.8-6.2s.2-.9.2-1c.1-.2.2-.2.3.1z"/><path d="m34.2 8.3s.1.5-.1.8c-.3.7-.8.6-.9.5-.6.7-1 .3-1.1 0 0-.2.1-.5.1-.6.1-.2.2-.1.1 0v.3c.2.4.7.1.8 0s.1-.3.1-.4-.1-.2 0-.4c.1-.1.2 0 .2.1 0 .2-.1.4 0 .5.1.2.5-.1.6-.1 0-.1 0-.4-.1-.5 0-.1.1-.1.1-.3.1-.2.2-.1.2.1z"/><path d="m30.1 7.8c0 .1 1.2 2.8 1.2 2.9.1.2-.1.2-.1.1-.1-.1-.7-.6-.7-.6s.8 4.7.8 5c.6 3.9.1 5 0 5.2 0 .1-.1.1-.1-.1 0-1.6-.9-7.4-1-7.7 0-.3-.5-3.6-.5-4 0 0 .2-.8.3-.9 0-.1.1 0 .1.1z"/><path d="m37.4 7.7c0 .1 1.1 2.6 1.1 2.8.1.1 0 .2-.1.1s-.5-.4-.5-.4 1.2 9.1 1.3 9.5c.1 1.3-.4 1.8-.7 2.1-.8.7-1.6.8-2.4.4s-1.2-2.5-1.2-2.5-.1.3-.2.5c-.1.5-1.2 1.4-1.6 1.7-2 1.6-3.2 1.5-3.4 1.5-1.5-.2-1.3-2.1-1.3-2.9-1.6 1.4-4 2.5-4.7 2.8-.8.3-3.7.8-4.2.9-.3 0-.4-.1-.2-.2s6.7-2.1 10-5.3q.1-.1 0-.4c-.1-.1-1.1-2-1.2-2.2s-.3-.5-.3-.6q-.1-.2-.1-.3c0-.1.1-.6.2-.7 0-.1.1-.1.1 0 .1.1 1.2 1 1.3 1.2.1.1 0 .1 0 .1-.1 0-.6 0-.6 0s.7 1.1.9 1.5c.4.9.2 1.6.1 1.9q-.4.5-.9 1 0 .1 0 .3c0 .3 0 .7.1 1 .1 1.5 1.9.7 2.2.6 1.2-.5 3.1-2.1 3.4-2.4.3-.4.2-.6.2-.9 0-1.4-1.2-4.4-1.4-4.9s-.1-.9 0-1c0-.1.1-.3.2-.1 1.5 2 2 6.6 2 7.1.1.4.3.9.9 1.3.8.5 2.1-.4 2.2-.6.2-.2-1.3-9.8-1.3-9.8-.1-.6-.2-1.2-.3-1.6 0-.4-.1-.6-.1-.7 0 0 .3-.8.4-.9 0-.1.1 0 .1.1z"/><path d="m40.4 7.7c0 .1 1.1 2.8 1.2 2.9 0 .2-.1.2-.2.1s-.6-.6-.6-.6.9 6.6.9 6.9c.7 3.9.1 5 .1 5.1-.1.2-.2.1-.2 0 0-1.6-.9-7.4-.9-7.7-.1-.4-.7-5.5-.8-5.9 0 0 .3-.8.3-.9.1-.1.1 0 .2.1z"/><path d="m53.3 7.6c0 .1 0 .1-.1.3 0 .1-.1.2-.3.3s-4.9 2.8-5 2.9c-.3.2-.3.1-.3 0q.1-.1.1-.3c0-.2.1-.2.3-.3s4.9-2.9 5.1-3c.3-.2.3 0 .2.1z"/><path d="m59.1 7.9c.1.2.1.5 0 .8-.1.1-.2 0-.3-.2 0 0-.1-.1-.2-.2-.5-.4-.7.4-.8.8 0 .3-.1 1.2-.1 1.7-.1.2-.2.2-.3 0-.3-1.1-.9-1.6-1-1.7s-.2 0-.2.1c-.1.1-.1.1-.2 0 0 0-.4-.2-.5-.3-.1-.2-.1-.6-.1-.8 0-.3.2-.4.3-.3 1.3.7 1.7 2 1.8 2.2 0-1 .1-1.8.6-2.5.4-.5 1 .3 1 .4z"/><path d="m63.8 9.9c0 .1-.1 0-.2-.1 0-.1-.1-.2-.3-.3-.2.4-.2.5-1 1.1-1.8 1.6-3.7 2.1-3.8 2.1s-.1 0 .1-.2c.6-.4 3.1-1.6 4.4-3.1 0 0-.4-.2-.7-.4s-.1-.9.1-1.2c.4-.8.9-.4 1-.3.4.8.1 1.5.1 1.5.3.1.5.4.3.9zm-.8-1.9c-.1-.1-.2-.1-.5.3 0 .1.1.2.2.3.2 0 .6.2.6.2 0-.1 0-.5-.3-.8z" fill-rule="evenodd"/><path d="m21.1 7.7c.2.2.1.6.1.8-.1.1-.2 0-.3-.1 0 0-.1-.1-.2-.2-.5-.4-.6.4-.6.8v1.6c0 .2-.1.2-.2.1-.3-1.1-.9-1.6-1-1.7s-.2.1-.2.2q0 .1-.1 0c-.1 0-.4-.2-.5-.3s-.1-.5-.1-.7c0-.3.1-.4.2-.3 1.2.6 1.6 1.7 1.7 1.9 0-.9-.1-1.7.3-2.3.3-.6.9.1.9.2z"/><path d="m45.9 9.6c-.1.2-.1.1-.2-.1-.1 0-.4-.3-.4-.3s-.4.9-1 1.3c-1.2.9-2.2 1.1-2.3 1.1s-.1-.1.1-.2c.7-.4 1.6-.7 2.9-2.3 0 0-.4-.2-.7-.4s-.1-.9.1-1.2c.4-.7.9-.3 1-.2.4.7.1 1.4.1 1.4.3.2.5.5.4.9zm-.9-1.9c-.1 0-.2 0-.5.3 0 .1.1.2.2.3.2.1.6.3.6.3 0-.1 0-.6-.3-.9z" fill-rule="evenodd"/><path d="m35.3 6.2c-.1.1-.1.1-.2.2-.1.2-.2.2-.3.3-.2.1-3.2 1.2-3.3 1.3-.3.2-.3 0-.3 0q.1-.1.1-.3c.1-.1.1-.2.3-.3s3.3-1.2 3.4-1.3c.3-.2.3-.1.3.1z"/></g></svg>