<svg height="30" viewBox="0 0 70 30" width="70" xmlns="http://www.w3.org/2000/svg"><g fill="#191c4f"><path d="m14.6 21.2c-.1.1-.1.1-.2.3s-.2.3-.4.4-5.4 2.5-5.5 2.5c-.4.3-.4.1-.3 0q0-.1 0-.3c.1-.2.2-.3.4-.4.3-.2 5.5-2.5 5.7-2.6.4-.2.3-.1.3.1z"/><path d="m30.2 21.2s-.1.3-.2.5c-.3 1-.1 1.5-.1 1.6.3.5.7.2.8-.2.1-.1.1 0 .1 0q0 .1 0 .3c-.2.7-.5.8-.7.8-.4 0-.5-.5-.5-.8-.1-1.1.3-2 .5-2.3.1-.2.2-.1.1.1z"/><path d="m63.9 20.2v.6c0 .2-.1.6-.2 1-.2.3-.9.5-1.4.1-.8 1.3-1.6.7-2 .5-.8-.3-1 .2-1.2.4-.9 1.1-2.6 1-3 1.1-.5 0-.1-.2.1-.3 1.3-.5 2.2-.6 3.4-1.7.5-.5.8-.3 1-.2 1.2.5 1.3 0 1.5-.1.1-.2.3-.8.4-1 .1-.1.2 0 .2.2-.1.1-.1.3-.1.4.4.3.9 0 1-.1 0 0 0-.3 0-.4q-.1-.2.1-.6c.1-.3.2-.1.2.1z"/><path d="m42.8 18.7c-.3 1.1-1.9 1.7-2.3 1.8-1.4.5-1.5-1-1.4-2s.8-2.4.8-2.4c-.1 0-1.6-1.2-1.7-1.3s-.2-.3-.4-.4c-.1-.1-.1-.1-.1-.1s0-1.1 0-1.2c0-.2.1-.1.2-.1.1.1 1.7.7 1.9.8s.1.2 0 .3c-.1 0-.6.1-.6.1l1.3 1s1.9-2.4 2.1-2.7c.2-.2.1-.1.1.2 0 .2-.4 1.2-.5 1.4s-1 1.5-1 1.5 1.2.7 1.5 1.2c.6.7.2 1.4.1 1.9zm-2.3-2.2s-.8 1.4-1 1.7c-.3.8.5 1 .8 1 .3-.1 1.4-.6 1.9-1.1.6-.4-1.4-1.4-1.7-1.6z" fill-rule="evenodd"/><path d="m65.6 17.3c-.1.3-.4 1.3-1.9 1-.4 0-1.1-.2-1.4-1-.4.4-1.3 1.9-3 1.6-.4 0-1.6-.5-1.6-2 0 0-1.5 1.1-2.1 1.5 0 .5 0 1.2-.2 1.8-.3.7-3.4 4.2-5.8 4.7-.9.2-4 .8-4.2-2.8 0-.7.1-1.3.1-1.7-1.9 1.6-4.3 2.7-5 3.1-1 .5-4.6 1.1-5.3 1.2-.4 0-.5-.1-.2-.2.2-.2 8.3-2.9 12.4-7.3q.2-.2 0-.5c-.1-.2-1.4-2.7-1.5-3.1-.1-.3-.3-.7-.4-.8q-.1-.2 0-.4c0-.2.1-.8.2-1 0-.1.1-.1.1 0 .1.1 1.4 1.5 1.6 1.6.2.2 0 .3 0 .3-.1 0-.7 0-.7 0s.8 1.4 1.1 2c.5 1.2.2 2.1.1 2.6-.4.7-1.1 1.5-1.9 2.2-.2.6-.4 3.5 2.3 3.6.4 0 1.8.2 4.5-2.1.7-.5 1.4-1.1 2-2 .2-.3.4-.9-.1-.9-.4.1-3.2 1.1-3.7-.6 0-.4.2-4.5 3-2.5.2.2.8.7 1.2 1.5.5-.2 1.3-.8 2.4-1.6.3-.3.6-.4.6 0s-.2 2.7 2.3 2c.3-.1 1.4-.3 2.2-2.3.2-.5.5-.4.3 0-.2.5-.4.9-.2 1.2.3.2 1 .7 1.9.6.3 0 .5-.2.4-.4-.1-.3-.4-.8-.4-.8 0-.3.2-.9.2-1s.1-.3.2-.1c.1.1 1 1.2.5 2.6zm-11.6.1c-.9-1.2-2-.5-2.1-.3-.2.1-.2.4.7.5 1 .1 1.4-.2 1.4-.2z" fill-rule="evenodd"/><path d="m41.3 10 1.1.8q0 0 0 .1l-.7.9q0 .1 0 0l-1.2-.8-.5.8q-.1.1-.1 0l-1.2-.8q0-.1 0-.1l.7-.9q0-.1.1 0l1.1.8.6-.8q0-.1.1 0z"/><path d="m62.7 10s-.1.3-.2.5c-.3 1-.2 1.5-.1 1.6.3.5.6.2.8-.2 0-.2.1-.1.1 0q0 .1-.1.3c-.2.6-.4.8-.6.8-.4 0-.6-.5-.6-.8 0-1.1.4-2 .5-2.3.1-.2.2-.1.2.1z"/><path d="m51.3 9.4s-.1.3-.2.6c-.4 1-.2 1.5-.1 1.6.3.6.7.3.8-.1.1-.2.2-.1.2 0q-.1.1-.1.3c-.2.7-.5.8-.7.8-.4 0-.6-.5-.6-.8-.1-1.2.4-2.2.5-2.4.2-.3.3-.2.2 0z"/><path d="m10.2 12.5s-.1.4-.1.6c-.4 1.2-.1 1.7-.1 1.8.4.5.8.2 1-.2.1-.3.2-.1.1-.1q0 .1 0 .4c-.2.7-.5.9-.8.9-.4 0-.7-.5-.7-.8-.2-1.2.3-2.3.5-2.6.1-.3.2-.2.1 0z"/><path d="m27.8 13s.1.6.4.9c.1.3.2.7.2 1.2-.1.5-.4.8-.6.9-.3.1-.8.1-1.2-.4-.4.9-1 1-1.4.8-.5-.2-.5-.8-.5-1.1.1-.2 0-.9 0-1 0-.2.1-.3.2-.5.1-.1.1-.1.1.2 0 .2-.1 1.1.1 1.5.4.5 1.2 0 1.3-.3.2-.3-.2-1.3-.2-1.3q0-.1 0-.2s0-.3.1-.5q.1-.2.2 0c.1.2.1.4.3 1.3.1.9 1 .8 1.2.7.1-.1.1-.2.1-.3-.1-.1-.4-.9-.6-1.2-.1-.3 0-.6.1-.8.1-.3.1-.1.2.1z"/><path d="m26.4 8.3s-.1.3-.1.5c-.4 1-.2 1.5-.1 1.6.2.5.6.2.8-.2 0-.1.1 0 .1 0q-.1.1-.1.3c-.2.7-.4.8-.6.8-.4 0-.6-.5-.6-.7-.1-1.2.4-2.1.5-2.4.1-.2.2-.1.1.1z"/><path d="m17.3 5.2c.8.1.6.4.4.6-.5.9-1.3 1.2-1.8 1.5-.5.2-.3-.2 0-.4 0 0 .4-.2.8-.6.5-.3-.8-.3-1.3-.3s-.7.2-.8.4c-.2.2-.4.1-.3-.2.1-.2.3-.5.7-.9s1.6-.3 2.3-.1z"/><path d="m27.9 5.2c-.1.2-.1.2-.2.5-.2.2-.3.3-.6.5-.3.1-9.1 4.5-9.3 4.6-.5.3-.4.1-.4-.1q.1 0 .1-.4c.1-.2.2-.3.6-.5.3-.2 9.1-4.5 9.4-4.7.5-.3.5-.1.4.1z"/><path d="m50.3 4.8c-.1.1-.1.1-.2.3 0 .2-.2.3-.4.4s-6.1 3.6-6.2 3.6c-.4.3-.4.1-.3 0q0 0 .1-.3c0-.2.1-.2.3-.4.3-.2 6.2-3.6 6.4-3.7.4-.2.3-.1.3.1z"/><path d="m57.5 5.1c.1.3.1.8-.1 1 0 .2-.2 0-.3-.1 0 0-.2-.2-.3-.3-.6-.5-.8.5-.9 1-.1.3-.1 1.4-.2 2.1-.1.2-.2.2-.3 0-.4-1.4-1.2-2-1.3-2.2-.2-.1-.3.1-.3.2s-.1.1-.2 0c0 0-.5-.3-.7-.4-.1-.2 0-.7 0-.9 0-.4.2-.5.3-.5 1.7.9 2.2 2.5 2.3 2.8 0-1.2.1-2.3.7-3.1.5-.6 1.3.3 1.3.4z"/><path d="m63.4 7.7c-.1.1-.1 0-.3-.1 0-.2-.2-.3-.4-.4-.3.5-.2.5-1.2 1.4-2.2 1.9-4.6 2.5-4.8 2.6-.1 0-.1-.1.1-.2.7-.6 3.9-2 5.5-4 0 0-.5-.2-.9-.5-.3-.2-.1-1.1.1-1.5.6-.9 1.2-.4 1.3-.3.5.9.2 1.8.2 1.8.3.2.6.6.4 1.2zm-1-2.4c-.2-.1-.3-.1-.6.4-.1.1 0 .2.2.3s.7.3.7.3c0-.1 0-.7-.3-1z" fill-rule="evenodd"/><path d="m10.6 4.8c.1.3 0 .7-.1 1-.1.2-.2 0-.4-.2 0 0-.1-.1-.2-.2-.6-.5-.8.4-.9.9 0 .3-.1 1.4-.2 2 0 .2-.2.2-.2 0-.4-1.3-1.2-1.9-1.3-2-.1-.2-.2 0-.3.1 0 .1-.1.1-.1.1-.1-.1-.5-.4-.7-.5-.1-.1-.1-.6 0-.8 0-.4.2-.5.3-.4 1.5.8 2 2.3 2.1 2.5.1-1.1.1-2.1.7-2.8.5-.7 1.2.2 1.3.3z"/><path d="m40.9 7.3c0 .2-.1.1-.2-.1-.1 0-.5-.4-.5-.4s-.4 1.1-1.2 1.7c-1.5 1.1-2.8 1.3-2.8 1.3-.2 0-.2-.1 0-.2.9-.6 2-1 3.6-2.9 0 0-.5-.2-.8-.5-.3-.2-.2-1.1.1-1.5.6-.9 1.1-.5 1.2-.3.6.9.3 1.8.3 1.8.3.2.5.5.3 1.1zm-1-2.3c-.1-.1-.3-.1-.6.3-.1.2 0 .3.2.4s.7.3.7.3c0-.1.1-.7-.3-1z" fill-rule="evenodd"/><path d="m29.7 4.2c.1.1 1.5 3.5 1.5 3.7.1.2-.1.2-.2.1s-.8-.7-.8-.7.9 5.4 1.1 6.6.5 3.1.2 4.5c-.2.9-.7 1.5-1.3 1.9-1 .6-2.2.9-2.8 1-2.2.6-4.5 2.4-5 2.8-2.2 2.1-3.2 2.4-3.9 2-2.7-1.4-.7-4.8-.5-5.3q0 0 0 0c-3.9.7-4.5-3.6-4.7-4 0 0-.5 1.5-2.3 3-3.5 2.8-4.9 1.8-5.3 1.5-1.7-1.8.1-5.3.3-6q.1 0 .1-.1c-.5-.2-.7-1-.7-1.4-.1-2.2.8-4 1-4.5s.4-.3.2.2c0 0-.2.5-.3.9-.7 1.9-.4 2.9-.3 3.1.4 1 1.1.5 1.4-.3.1-.3.2-.1.1 0q0 .2-.1.6c-.3 1.1-.7 1.4-1.1 1.5-.8 1.5-.8 3.4-.8 3.7.6 2.5 3 1 3.4.8s2.2-1.3 3.3-2.6c1-1 .8-1.5.7-1.9 0-.1-.1-.8-.2-1.2-.5-1.6-1.5-4.2-1.8-4.8 0 0 .1-1.5.3-1.2 1.7 2.3 2.4 6.1 2.6 7 .7 3.2 1.6 3.5 1.8 3.7-.3-1-.6-2.1-.5-2.6.1-2.3 1.9-2.8 2.7-3.1 2.1-.3 3 .6 3.4.8.3.3.1.4-.2.3-1.6-.6-4.3.6-4.6.7-.4.1-.7.5-.7.8.4 2.1 1.7 3.3 2.2 3.5 2 .4 4.5-2 4.9-2.4s.3-.1.2.2c0 .3-.1.5-.4 1-.5 1.2-3 2.3-3.8 2.5q-.2.1-.4.2 0 0 0 0c-.3.5-1 2.4-1 2.8 0 2.1 1.9 1.5 2.6 1.1.6-.3 1.7-1.3 2.6-2 1.5-1.3 2.8-1.9 3.5-2.2.8-.3 3.2-.8 4.6-1.7.5-.3.3-.5.3-.9-.1-.4-1.8-12.4-1.8-12.6 0 0 .3-.9.4-1.1 0-.1.1 0 .1.1z"/><path d="m33.8 4.1c0 .2 1.4 3.5 1.5 3.7 0 .2-.1.2-.2.1s-.8-.7-.8-.7 1.1 8.2 1.2 8.6c.8 4.8.1 6.2 0 6.4s-.2.1-.1-.1c-.1-2-1.2-9.2-1.2-9.6-.1-.5-.9-6.8-1-7.4 0 0 .4-.9.4-1 .1-.2.1-.1.2 0z"/></g></svg>